<?xml version="1.0" encoding="utf-8"?>
<!-- Generator: Adobe Illustrator 20.0.0, SVG Export Plug-In . SVG Version: 6.00 Build 0)  -->
<svg version="1.1" id="Layer_1" xmlns="http://www.w3.org/2000/svg" xmlns:xlink="http://www.w3.org/1999/xlink" x="0px" y="0px"
	 viewBox="0 0 35 35" style="enable-background:new 0 0 35 35;" xml:space="preserve">
<style type="text/css">
	.st0{fill:#122268;}
</style>
<g>
	<g>
		<path class="st0" d="M13.274,17.024c-0.016,0.021-0.035,0.047-0.06,0.077c-0.027,0.029-0.048,0.053-0.066,0.071
			c-0.214,0.214-0.436,0.368-0.666,0.461c-0.231,0.093-0.457,0.139-0.681,0.135c-0.223-0.006-0.439-0.056-0.647-0.155
			c-0.209-0.098-0.396-0.232-0.566-0.402c-0.214-0.214-0.372-0.447-0.473-0.698c-0.1-0.252-0.147-0.509-0.141-0.771
			c0.008-0.262,0.07-0.519,0.186-0.775c0.116-0.256,0.285-0.495,0.506-0.716c0.221-0.221,0.457-0.39,0.711-0.506
			c0.251-0.116,0.505-0.179,0.758-0.186c0.255-0.006,0.506,0.04,0.752,0.139c0.246,0.099,0.472,0.252,0.678,0.459
			c0.133,0.133,0.246,0.278,0.338,0.437c0.093,0.158,0.169,0.326,0.232,0.502c0.063,0.176,0.115,0.361,0.155,0.553
			c0.04,0.192,0.075,0.391,0.105,0.597l0.28,1.873l-1.067,1.067L13.274,17.024z M12.727,16.31c0.19-0.19,0.281-0.402,0.279-0.639
			c-0.004-0.235-0.098-0.445-0.281-0.629c-0.185-0.185-0.393-0.278-0.625-0.278c-0.232,0.002-0.442,0.097-0.631,0.286
			c-0.196,0.196-0.293,0.407-0.292,0.632c0.001,0.228,0.095,0.436,0.284,0.624c0.183,0.183,0.393,0.278,0.628,0.282
			C12.321,16.595,12.535,16.502,12.727,16.31z"/>
		<path class="st0" d="M18.232,14.66c-0.262,0.262-0.538,0.447-0.832,0.556c-0.293,0.107-0.594,0.145-0.904,0.112
			c-0.308-0.033-0.62-0.138-0.935-0.313c-0.315-0.175-0.626-0.416-0.935-0.725s-0.552-0.622-0.727-0.937
			c-0.175-0.315-0.28-0.628-0.316-0.939c-0.034-0.311,0.002-0.613,0.111-0.905c0.11-0.293,0.295-0.57,0.556-0.832
			c0.257-0.257,0.534-0.442,0.828-0.553c0.295-0.111,0.596-0.147,0.905-0.111c0.31,0.037,0.623,0.142,0.939,0.316
			c0.317,0.173,0.631,0.414,0.94,0.723c0.309,0.309,0.549,0.622,0.722,0.939c0.174,0.316,0.279,0.629,0.313,0.935
			c0.035,0.308-0.002,0.608-0.112,0.904C18.674,14.127,18.489,14.403,18.232,14.66z M17.387,13.815
			c0.217-0.217,0.293-0.479,0.229-0.787c-0.065-0.307-0.292-0.657-0.682-1.047c-0.391-0.391-0.741-0.618-1.05-0.686
			c-0.309-0.065-0.572,0.01-0.789,0.227c-0.221,0.221-0.298,0.486-0.233,0.795c0.066,0.31,0.295,0.659,0.686,1.05
			c0.39,0.39,0.739,0.618,1.047,0.682C16.902,14.115,17.166,14.036,17.387,13.815z"/>
	</g>
	<g>
		<path class="st0" d="M17.501,28.222c-5.912,0-10.723-4.81-10.723-10.723c0-5.912,4.811-10.722,10.723-10.722
			s10.722,4.81,10.722,10.722C28.223,23.412,23.413,28.222,17.501,28.222z M17.501,8.259c-5.096,0-9.241,4.146-9.241,9.241
			s4.145,9.241,9.241,9.241c5.095,0,9.24-4.145,9.24-9.241S22.596,8.259,17.501,8.259z"/>
	</g>
	<g>
		<path class="st0" d="M17.501,25.456c-0.273,0-0.494-0.221-0.494-0.494s0.221-0.494,0.494-0.494c3.842,0,6.968-3.126,6.968-6.969
			c0-0.273,0.221-0.494,0.494-0.494s0.494,0.221,0.494,0.494C25.456,21.887,21.887,25.456,17.501,25.456z"/>
	</g>
	<g>
		<path class="st0" d="M13.702,21.06c-1.572,0-3-0.57-4.058-1.628c-2.377-2.377-2.115-6.505,0.584-9.204
			c2.699-2.701,6.829-2.96,9.204-0.586c2.377,2.377,2.114,6.505-0.585,9.205c-1.298,1.298-2.963,2.079-4.688,2.197
			C14.005,21.054,13.853,21.06,13.702,21.06z M15.367,9.003c-1.54,0-3.17,0.652-4.441,1.923c-2.313,2.313-2.575,5.816-0.584,7.807
			c0.956,0.955,2.275,1.433,3.749,1.326c1.487-0.103,2.928-0.781,4.058-1.91c2.314-2.315,2.576-5.817,0.585-7.808
			C17.836,9.443,16.632,9.003,15.367,9.003z"/>
	</g>
</g>
</svg>
