<svg xmlns="http://www.w3.org/2000/svg" width="100" height="100" viewBox="0 0 100 100"><path
    fill="currentColor"
    d="M49.98 1.018C22.95 1.018 1 22.968 1 50c0 27.033 21.95 48.982 48.98 48.982C77.016 98.982 99 77.066 99 50S77.048 1.018 49.98 1.018zM61.98 78.312c-2.63 1.037-4.737 1.832-6.326 2.387-1.557.55-3.39.83-5.462.83-3.215 0-5.668-.796-7.467-2.353-1.763-1.555-2.66-3.525-2.66-5.945 0-.934.067-1.9.206-2.87s.346-2.07.656-3.282l3.284-11.684c.312-1.107.552-2.18.727-3.182.206-1.002.31-1.902.31-2.73 0-1.487-.31-2.524-.934-3.11-.622-.59-1.798-.865-3.525-.865-.864 0-1.73.137-2.628.413-.898.276-1.66.518-2.315.76l.864-3.594c2.176-.866 4.216-1.626 6.187-2.248s3.837-.934 5.6-.934c3.18 0 5.635.762 7.328 2.316 1.73 1.522 2.594 3.527 2.594 5.98 0 .518-.07 1.383-.173 2.662-.104 1.28-.35 2.453-.657 3.525l-3.285 11.65c-.276.935-.52 2.005-.726 3.216-.208 1.21-.312 2.107-.312 2.73 0 1.557.346 2.592 1.037 3.145.69.556 1.9.833 3.594.833.796 0 1.695-.14 2.73-.416 1.002-.275 1.73-.52 2.214-.725l-.866 3.49zm-.587-47.22c-1.52 1.417-3.388 2.143-5.53 2.143s-4.01-.726-5.566-2.143-2.316-3.146-2.316-5.185c0-2.04.76-3.77 2.316-5.186 1.556-1.45 3.39-2.143 5.565-2.143 2.143 0 4.01.726 5.53 2.144 1.522 1.452 2.28 3.18 2.28 5.187.036 2.04-.724 3.768-2.28 5.185z"/></svg>
