<svg id="Layer_1" data-name="Layer 1" xmlns="http://www.w3.org/2000/svg" viewBox="0 0 69.47852 63.02441"><defs><style>.cls-1{fill:#41494f;}</style></defs><title>10Lines</title><path class="cls-1" d="M16.19531,38.72363a6.99353,6.99353,0,0,0,.86987-2.85535l15.05688.05835L17.09229,52.8465a6.94143,6.94143,0,0,0-.897-3.27032l-.001-.001a7.05361,7.05361,0,0,0-6.1416-3.65137H7.04883A7.05683,7.05683,0,0,0,0,52.97266v3.00391a7.05663,7.05663,0,0,0,7.04883,7.04785h3.00391a7.05639,7.05639,0,0,0,6.86084-5.46033L34.65674,37.58972,52.63245,57.82593a7.05553,7.05553,0,0,0,6.79431,5.19849h3.00391a7.05642,7.05642,0,0,0,7.04785-7.04785V52.97266a7.05663,7.05663,0,0,0-7.04785-7.04883H59.42676a7.05478,7.05478,0,0,0-6.1416,3.65137,6.921,6.921,0,0,0-.90723,3.39746V53.023L37.20874,35.94635l15.2135.059A7.12052,7.12052,0,0,0,59.42676,42.375h3.00391a7.05642,7.05642,0,0,0,7.04785-7.04785V32.32324a7.05663,7.05663,0,0,0-7.04785-7.04883H59.42676a7.11023,7.11023,0,0,0-7.04883,7.04883v.68188l-14.49585-.05621L52.59973,16.38055a7.25748,7.25748,0,0,0,.68542,1.69464,7.05478,7.05478,0,0,0,6.1416,3.65137h3.00391a7.05663,7.05663,0,0,0,7.04785-7.04883V11.67383A7.05642,7.05642,0,0,0,62.43066,4.626H59.42676a7.05663,7.05663,0,0,0-7.04883,7.04785V12.114L34.65674,32.0636,17.10059,12.29974v-.62592A7.05642,7.05642,0,0,0,10.05273,4.626H7.04883A7.05663,7.05663,0,0,0,0,11.67383v3.00391a7.05683,7.05683,0,0,0,7.04883,7.04883h3.00391a7.04784,7.04784,0,0,0,6.167-3.69727,7.33992,7.33992,0,0,0,.61548-1.51184L31.40894,32.92383l-14.30835-.05548v-.5451a6.93108,6.93108,0,0,0-.90527-3.39648m-.001-.001a7.05361,7.05361,0,0,0-6.1416-3.65137H7.04883A7.05683,7.05683,0,0,0,0,32.32324v3.00391A7.05663,7.05663,0,0,0,7.04883,42.375h3.00391a7.05268,7.05268,0,0,0,6.1416-3.65039m43.23242-10.4502h3.00391a4.05272,4.05272,0,0,1,4.04785,4.04883v3.00391A4.05188,4.05188,0,0,1,62.43066,39.375H59.42676a4.05252,4.05252,0,0,1-3.52051-2.10937,3.95785,3.95785,0,0,1-.52832-1.93848V32.32324a3.9519,3.9519,0,0,1,.61035-2.09375A4.02355,4.02355,0,0,1,59.42676,28.27441ZM55.37793,11.67383A4.05272,4.05272,0,0,1,59.42676,7.626h3.00391a4.05188,4.05188,0,0,1,4.04785,4.04785v3.00391a4.05272,4.05272,0,0,1-4.04785,4.04883H59.42676a4.05266,4.05266,0,0,1-3.52051-2.11035,3.95785,3.95785,0,0,1-.52832-1.93848ZM14.10059,14.67773a3.96118,3.96118,0,0,1-.51367,1.91211,4.04644,4.04644,0,0,1-3.53418,2.13672H7.04883A4.05355,4.05355,0,0,1,3,14.67773V11.67383A4.05272,4.05272,0,0,1,7.04883,7.626h3.00391a4.05188,4.05188,0,0,1,4.04785,4.04785ZM10.05273,39.375H7.04883A4.05272,4.05272,0,0,1,3,35.32715V32.32324a4.05355,4.05355,0,0,1,4.04883-4.04883h3.00391a4.05256,4.05256,0,0,1,3.51978,2.10925l-.00024.00012a3.967,3.967,0,0,1,.52832,1.93945v3.00391a3.967,3.967,0,0,1-.52832,1.93945l.00024.00012A4.05242,4.05242,0,0,1,10.05273,39.375Zm4.04785,16.60156a4.05188,4.05188,0,0,1-4.04785,4.04785H7.04883A4.05272,4.05272,0,0,1,3,55.97656V52.97266a4.05355,4.05355,0,0,1,4.04883-4.04883h3.00391a4.051,4.051,0,0,1,3.51953,2.10938,3.967,3.967,0,0,1,.52832,1.93945Zm41.27734-3.00391a3.95785,3.95785,0,0,1,.52832-1.93848,4.05266,4.05266,0,0,1,3.52051-2.11035h3.00391a4.05272,4.05272,0,0,1,4.04785,4.04883v3.00391a4.05188,4.05188,0,0,1-4.04785,4.04785H59.42676a4.05272,4.05272,0,0,1-4.04883-4.04785Z"/><polygon class="cls-1" points="28.632 3.504 28.68 3.504 28.68 15.865 32.208 15.865 32.208 0.264 29.185 0.264 25.056 2.184 25.656 4.92 28.632 3.504"/><path class="cls-1" d="M40.53516,16.12891c3.98438,0,5.92871-3.31152,5.92871-8.13672C46.46387,3.71973,44.83105,0,40.65527,0,36.623,0,34.70215,3.57617,34.70215,8.08887,34.72656,12.50488,36.50293,16.12891,40.53516,16.12891Zm.07227-13.36914c1.46387,0,2.208,1.82422,2.208,5.28125,0,3.55176-.76855,5.32812-2.18457,5.32812S38.35059,11.665,38.375,8.08887C38.35059,4.46387,39.2627,2.75977,40.60742,2.75977Z"/></svg>