<svg id="Layer_1" data-name="Layer 1" xmlns="http://www.w3.org/2000/svg" viewBox="0 0 69.47852 63.02441"><defs><style>.cls-1{fill:#41494f;}</style></defs><title>20Lines</title><path class="cls-1" d="M16.19531,38.72363a6.99373,6.99373,0,0,0,.87-2.85535l15.05688.05835L17.09241,52.8465a6.94017,6.94017,0,0,0-.89709-3.27032l-.001-.001a7.05361,7.05361,0,0,0-6.1416-3.65137H7.04883A7.05683,7.05683,0,0,0,0,52.97266v3.00391a7.05663,7.05663,0,0,0,7.04883,7.04785h3.00391a7.05629,7.05629,0,0,0,6.86084-5.46033L34.65674,37.58972,52.63245,57.82593a7.05575,7.05575,0,0,0,6.79431,5.19849h3.00378a7.05645,7.05645,0,0,0,7.048-7.04785V52.97266a7.05665,7.05665,0,0,0-7.048-7.04883H59.42676a7.05478,7.05478,0,0,0-6.1416,3.65137,6.921,6.921,0,0,0-.90723,3.39746V53.023L37.20886,35.94635l15.21338.059A7.12052,7.12052,0,0,0,59.42676,42.375h3.00378a7.05645,7.05645,0,0,0,7.048-7.04785V32.32324a7.05665,7.05665,0,0,0-7.048-7.04883H59.42676a7.11023,7.11023,0,0,0-7.04883,7.04883v.68188L37.8822,32.94891,52.59973,16.38055a7.25748,7.25748,0,0,0,.68542,1.69464,7.05478,7.05478,0,0,0,6.1416,3.65137h3.00378a7.05665,7.05665,0,0,0,7.048-7.04883V11.67383a7.05645,7.05645,0,0,0-7.048-7.04785H59.42676a7.05663,7.05663,0,0,0-7.04883,7.04785V12.114L34.65674,32.0636,17.10059,12.29974v-.62592A7.05642,7.05642,0,0,0,10.05273,4.626H7.04883A7.05663,7.05663,0,0,0,0,11.67383v3.00391a7.05683,7.05683,0,0,0,7.04883,7.04883h3.00391a7.04784,7.04784,0,0,0,6.167-3.69727,7.34044,7.34044,0,0,0,.6156-1.51184L31.40906,32.92383l-14.30847-.05548v-.5451a6.93108,6.93108,0,0,0-.90527-3.39648m-.001-.001a7.05361,7.05361,0,0,0-6.1416-3.65137H7.04883A7.05683,7.05683,0,0,0,0,32.32324v3.00391A7.05663,7.05663,0,0,0,7.04883,42.375h3.00391a7.05268,7.05268,0,0,0,6.1416-3.65039m43.23242-10.4502h3.00378a4.05275,4.05275,0,0,1,4.048,4.04883v3.00391a4.05191,4.05191,0,0,1-4.048,4.04785H59.42676a4.05252,4.05252,0,0,1-3.52051-2.10937,3.95654,3.95654,0,0,1-.52832-1.93848V32.32324a3.9519,3.9519,0,0,1,.61035-2.09375A4.02355,4.02355,0,0,1,59.42676,28.27441ZM55.37793,11.67383A4.05272,4.05272,0,0,1,59.42676,7.626h3.00378a4.05191,4.05191,0,0,1,4.048,4.04785v3.00391a4.05275,4.05275,0,0,1-4.048,4.04883H59.42676a4.05266,4.05266,0,0,1-3.52051-2.11035,3.95654,3.95654,0,0,1-.52832-1.93848ZM14.10059,14.67773a3.96118,3.96118,0,0,1-.51367,1.91211,4.04644,4.04644,0,0,1-3.53418,2.13672H7.04883A4.05355,4.05355,0,0,1,3,14.67773V11.67383A4.05272,4.05272,0,0,1,7.04883,7.626h3.00391a4.05188,4.05188,0,0,1,4.04785,4.04785ZM10.05273,39.375H7.04883A4.05272,4.05272,0,0,1,3,35.32715V32.32324a4.05355,4.05355,0,0,1,4.04883-4.04883h3.00391a4.05227,4.05227,0,0,1,3.51978,2.10925l-.00024.00012a3.967,3.967,0,0,1,.52832,1.93945v3.00391a3.967,3.967,0,0,1-.52832,1.93945l.00024.00012A4.05213,4.05213,0,0,1,10.05273,39.375Zm4.04785,16.60156a4.05188,4.05188,0,0,1-4.04785,4.04785H7.04883A4.05272,4.05272,0,0,1,3,55.97656V52.97266a4.05355,4.05355,0,0,1,4.04883-4.04883h3.00391a4.051,4.051,0,0,1,3.51953,2.10938,3.967,3.967,0,0,1,.52832,1.93945Zm41.27734-3.00391a3.95654,3.95654,0,0,1,.52832-1.93848,4.05266,4.05266,0,0,1,3.52051-2.11035h3.00378a4.05275,4.05275,0,0,1,4.048,4.04883v3.00391a4.05191,4.05191,0,0,1-4.048,4.04785H59.42676a4.05272,4.05272,0,0,1-4.04883-4.04785Z"/><path class="cls-1" d="M34.09265,12.86523H28.21179v-.04785l1.44043-1.2002c2.25586-2.0166,4.15234-4.10449,4.15234-6.7207C33.80457,2.06445,31.86023,0,28.33191,0a8.6316,8.6316,0,0,0-5.1123,1.6084l1.03223,2.61621a5.65236,5.65236,0,0,1,3.33594-1.29687c1.7998,0,2.56836,1.00879,2.56836,2.28027-.04785,1.82422-1.7041,3.57617-5.1123,6.625l-2.0166,1.82422v2.208H34.09265Z"/><path class="cls-1" d="M41.33972,16.12891c3.98438,0,5.92871-3.31152,5.92871-8.13672C47.26843,3.71973,45.63562,0,41.45984,0c-4.03223,0-5.95312,3.57617-5.95312,8.08887C35.53113,12.50488,37.3075,16.12891,41.33972,16.12891ZM41.412,2.75977c1.46387,0,2.208,1.82422,2.208,5.28125,0,3.55176-.76855,5.32812-2.18457,5.32812s-2.28027-1.7041-2.25586-5.28027C39.15515,4.46387,40.06726,2.75977,41.412,2.75977Z"/></svg>