<svg id="Layer_1" data-name="Layer 1" xmlns="http://www.w3.org/2000/svg" viewBox="0 0 69.47852 59.76074"><defs><style>.cls-1{fill:#41494f;}</style></defs><title>5Lines</title><path class="cls-1" d="M40.697,10.39355a4.44237,4.44237,0,0,0-1.89551-3.91309A7.1362,7.1362,0,0,0,34.697,5.35254a6.78585,6.78585,0,0,0-1.00879.04785L34.02417,3H40.073V0H31.48022L30.448,8.18457A13.51539,13.51539,0,0,1,32.5603,8.041c3.12012,0,4.39258.98438,4.39258,2.5918,0,1.65625-1.6084,2.377-3.12012,2.377a8.96656,8.96656,0,0,1-3.52832-.76855L29.656,14.97754a9.91676,9.91676,0,0,0,4.34473.8877C38.20093,15.86523,40.697,13.29688,40.697,10.39355Z"/><path class="cls-1" d="M16.19531,35.46a6.99167,6.99167,0,0,0,.86987-2.85535l15.057.05835L17.09229,49.58282a6.94143,6.94143,0,0,0-.897-3.27032l-.001-.001a7.05361,7.05361,0,0,0-6.1416-3.65137H7.04883A7.05683,7.05683,0,0,0,0,49.709v3.00391a7.05663,7.05663,0,0,0,7.04883,7.04785h3.00391a7.05629,7.05629,0,0,0,6.86084-5.46033L34.65674,34.326,52.63257,54.56226a7.05528,7.05528,0,0,0,6.79419,5.19849h3.00391a7.05642,7.05642,0,0,0,7.04785-7.04785V49.709a7.05663,7.05663,0,0,0-7.04785-7.04883H59.42676a7.05478,7.05478,0,0,0-6.1416,3.65137,6.921,6.921,0,0,0-.90723,3.39746v.05035L37.20874,32.68268l15.21362.059a7.12013,7.12013,0,0,0,7.00439,6.36963h3.00391a7.05642,7.05642,0,0,0,7.04785-7.04785V29.05957a7.05663,7.05663,0,0,0-7.04785-7.04883H59.42676a7.11023,7.11023,0,0,0-7.04883,7.04883v.68188l-14.49585-.05621L52.59985,13.11688a7.26233,7.26233,0,0,0,.6853,1.69464,7.05478,7.05478,0,0,0,6.1416,3.65137h3.00391a7.05663,7.05663,0,0,0,7.04785-7.04883V8.41016A7.05642,7.05642,0,0,0,62.43066,1.3623H59.42676a7.05663,7.05663,0,0,0-7.04883,7.04785v.44012L34.65674,28.79993,17.10059,9.03607V8.41016A7.05642,7.05642,0,0,0,10.05273,1.3623H7.04883A7.05663,7.05663,0,0,0,0,8.41016v3.00391a7.05683,7.05683,0,0,0,7.04883,7.04883h3.00391a7.04784,7.04784,0,0,0,6.167-3.69727,7.32634,7.32634,0,0,0,.61548-1.51184L31.40906,29.66016l-14.30847-.05548v-.5451a6.93108,6.93108,0,0,0-.90527-3.39648m-.001-.001a7.05361,7.05361,0,0,0-6.1416-3.65137H7.04883A7.05683,7.05683,0,0,0,0,29.05957v3.00391a7.05663,7.05663,0,0,0,7.04883,7.04785h3.00391a7.05268,7.05268,0,0,0,6.1416-3.65039M55.37793,8.41016A4.05272,4.05272,0,0,1,59.42676,4.3623h3.00391a4.05188,4.05188,0,0,1,4.04785,4.04785v3.00391a4.05272,4.05272,0,0,1-4.04785,4.04883H59.42676a4.05266,4.05266,0,0,1-3.52051-2.11035,3.95785,3.95785,0,0,1-.52832-1.93848ZM14.10059,11.41406a3.96118,3.96118,0,0,1-.51367,1.91211,4.04644,4.04644,0,0,1-3.53418,2.13672H7.04883A4.05355,4.05355,0,0,1,3,11.41406V8.41016A4.05272,4.05272,0,0,1,7.04883,4.3623h3.00391a4.05188,4.05188,0,0,1,4.04785,4.04785Zm0,20.64941a3.967,3.967,0,0,1-.52832,1.93945l.00024.00012a4.05228,4.05228,0,0,1-3.51978,2.10828H7.04883A4.05272,4.05272,0,0,1,3,32.06348V29.05957a4.05355,4.05355,0,0,1,4.04883-4.04883h3.00391A4.05242,4.05242,0,0,1,13.57251,27.12l-.00024.00012a3.967,3.967,0,0,1,.52832,1.93945Zm0,20.64941a4.05188,4.05188,0,0,1-4.04785,4.04785H7.04883A4.05272,4.05272,0,0,1,3,52.71289V49.709a4.05355,4.05355,0,0,1,4.04883-4.04883h3.00391a4.051,4.051,0,0,1,3.51953,2.10938,3.967,3.967,0,0,1,.52832,1.93945ZM55.37793,49.709a3.95785,3.95785,0,0,1,.52832-1.93848,4.05266,4.05266,0,0,1,3.52051-2.11035h3.00391A4.05272,4.05272,0,0,1,66.47852,49.709v3.00391a4.05188,4.05188,0,0,1-4.04785,4.04785H59.42676a4.05272,4.05272,0,0,1-4.04883-4.04785Zm0-20.64941a3.9519,3.9519,0,0,1,.61035-2.09375,4.02355,4.02355,0,0,1,3.43848-1.95508h3.00391a4.05272,4.05272,0,0,1,4.04785,4.04883v3.00391a4.05188,4.05188,0,0,1-4.04785,4.04785H59.42676A4.05252,4.05252,0,0,1,55.90625,34.002a3.95785,3.95785,0,0,1-.52832-1.93848Z"/></svg>