<svg id="Layer_1" data-name="Layer 1" xmlns="http://www.w3.org/2000/svg" viewBox="0 0 75.52954 68.58466"><defs><style>.cls-1{fill:#41494f;}</style></defs><title>InShop</title><path class="cls-1" d="M36.66858,20.51056V14.59973h9.538V17.748a1.40424,1.40424,0,1,0,2.80847,0v-4.5531a1.40858,1.40858,0,0,0-1.40381-1.40387H36.66858a12.151,12.151,0,0,0-24.29138,0H1.40454A1.40913,1.40913,0,0,0,0,13.19495V58.862a9.73491,9.73491,0,0,0,9.70728,9.70746H31.06653a1.4046,1.4046,0,1,0,0-2.8092H9.70728A6.90561,6.90561,0,0,1,2.80859,58.862V14.59973h9.53784v5.91083a1.4043,1.4043,0,1,0,2.80859,0V14.59973H33.86011v5.91083a1.40424,1.40424,0,1,0,2.80847,0ZM15.155,11.80615a9.35168,9.35168,0,0,1,18.68994,0Z"/><path class="cls-1" d="M74.12476,32.564H65.55969V30.68079a9.91584,9.91584,0,0,0-19.83167.01581V32.5791H37.16309a1.41007,1.41007,0,0,0-1.40491,1.4046V62.02563a6.56362,6.56362,0,0,0,6.55908,6.559h26.6532a6.56374,6.56374,0,0,0,6.55908-6.559V33.96783A1.40941,1.40941,0,0,0,74.12476,32.564ZM48.52148,30.69659a7.11481,7.11481,0,1,1,14.22961,0V32.5791H48.52148Zm24.19934,31.329a3.75509,3.75509,0,0,1-3.75037,3.75043H42.31726a3.75447,3.75447,0,0,1-3.74963-3.75043V35.37244H45.728v3.936a1.40466,1.40466,0,0,0,2.80933,0v-3.936H62.76611v3.936a1.40466,1.40466,0,0,0,2.80933,0v-3.936h7.14539Z"/></svg>