<svg id="Layer_1" data-name="Layer 1" xmlns="http://www.w3.org/2000/svg" viewBox="0 0 62.93652 64.82714"><defs><style>.cls-1{fill:#41494f;}</style></defs><title>Jackpots</title><path class="cls-1" d="M44.53125,27.666c-.4386,0-.86835.03552-1.29938.06586a22.13072,22.13072,0,0,1-.05414-5.77972,21.00582,21.00582,0,0,1,3.374-8.87891,1.49268,1.49268,0,0,0,.15326-.32013,68.05814,68.05814,0,0,1,9.8233-.53241h.29688a1.5,1.5,0,1,0,0-3h-.30078c-4.57227,0-10.7832.02344-16.93945,2.13184-5.23657,1.793-12.09424,7.48578-17.595,16.6322a18.81411,18.81411,0,0,0-3.40991-.31873A18.58057,18.58057,0,1,0,29.748,61.09765a1.5,1.5,0,0,0-1.80469-2.39648A15.5809,15.5809,0,1,1,18.58008,30.666a15.89364,15.89364,0,0,1,1.82538.11719c-.91547,1.72894-1.78473,3.55316-2.58124,5.49219A1.50032,1.50032,0,0,0,20.59961,37.416a57.39723,57.39723,0,0,1,2.86914-5.96521,15.47584,15.47584,0,0,1,4.7627,2.56287,1.49969,1.49969,0,0,0,1.85938-2.35352,18.51141,18.51141,0,0,0-5.06628-2.84039c4.538-7.25659,10.31805-12.84344,15.53308-14.62933.75146-.25739,1.50684-.47717,2.26233-.67169a23.57153,23.57153,0,0,0-2.61682,8.04865,25.21857,25.21857,0,0,0,.06433,6.61731,18.33808,18.33808,0,1,0,4.26379-.51868Zm0,33.80664A15.39332,15.39332,0,0,1,40.792,31.14409c.22607,1.0376.46991,2.00562.69336,2.87738a18.72469,18.72469,0,0,1,.7627,3.9248,1.5004,1.5004,0,0,0,1.49414,1.50586H43.748a1.49977,1.49977,0,0,0,1.5-1.49414,20.1997,20.1997,0,0,0-.85645-4.68164c-.20667-.80634-.42529-1.66656-.62744-2.57153.25586-.0127.50818-.03882.76709-.03882a15.40332,15.40332,0,1,1,0,30.80664Z"/><path class="cls-1" d="M55.28809,44.56933a1.50039,1.50039,0,0,0-1.5,1.5,9.26678,9.26678,0,0,1-9.25684,9.25586,1.5,1.5,0,0,0,0,3A12.27006,12.27006,0,0,0,56.78809,46.06933,1.50039,1.50039,0,0,0,55.28809,44.56933Z"/><path class="cls-1" d="M23.69434,53.667a9.19612,9.19612,0,0,1-5.28906,1.6582,1.5,1.5,0,0,0,0,3,12.18716,12.18716,0,0,0,7.00586-2.19727,1.5003,1.5003,0,0,0-1.7168-2.46094Z"/><path class="cls-1" d="M22.70605,23.29394a1.5673,1.5673,0,0,0,.31348.03223,1.5002,1.5002,0,0,0,.30957-2.96777c-6.50781-1.37988-11.94336-5.89258-14.08691-7.88281,2.44336-2.58008,9.502-9.19629,17.85742-9.46777,5.96191-.19141,11.45215,2.8623,15.00879,5.46a1.49973,1.49973,0,0,0,1.76953-2.42187c-3.9375-2.876-10.04785-6.251-16.876-6.03613-11.71582.38086-20.625,11.127-20.999,11.584l-.82715,1.01367.8916.958C6.36133,13.88085,13.37109,21.31249,22.70605,23.29394Z"/></svg>