<svg id="Layer_1" data-name="Layer 1" xmlns="http://www.w3.org/2000/svg" viewBox="0 0 69.47852 58.39844"><defs><style>.cls-1{fill:#41494f;}</style></defs><title>Multilines</title><path class="cls-1" d="M16.19531,34.09766a6.99188,6.99188,0,0,0,.87-2.85535l15.057.05835L17.09241,48.22052a6.94017,6.94017,0,0,0-.89709-3.27032l-.001-.001a7.05361,7.05361,0,0,0-6.1416-3.65137H7.04883A7.05683,7.05683,0,0,0,0,48.34668v3.00391a7.05663,7.05663,0,0,0,7.04883,7.04785h3.00391a7.05619,7.05619,0,0,0,6.86084-5.46033L34.65674,32.96375,52.63257,53.2a7.0555,7.0555,0,0,0,6.79419,5.19849h3.00391a7.05642,7.05642,0,0,0,7.04785-7.04785V48.34668a7.05663,7.05663,0,0,0-7.04785-7.04883H59.42676a7.05478,7.05478,0,0,0-6.1416,3.65137,6.921,6.921,0,0,0-.90723,3.39746V48.397L37.20886,31.32037l15.2135.059A7.12013,7.12013,0,0,0,59.42676,37.749h3.00391a7.05642,7.05642,0,0,0,7.04785-7.04785V27.69727a7.05663,7.05663,0,0,0-7.04785-7.04883H59.42676a7.11023,7.11023,0,0,0-7.04883,7.04883v.68188L37.8822,28.32294,52.59985,11.75458a7.26233,7.26233,0,0,0,.6853,1.69464,7.05478,7.05478,0,0,0,6.1416,3.65137h3.00391a7.05663,7.05663,0,0,0,7.04785-7.04883V7.04785A7.05642,7.05642,0,0,0,62.43066,0H59.42676a7.05663,7.05663,0,0,0-7.04883,7.04785V7.488L34.65674,27.43762,17.10059,7.67377V7.04785A7.05642,7.05642,0,0,0,10.05273,0H7.04883A7.05663,7.05663,0,0,0,0,7.04785v3.00391a7.05683,7.05683,0,0,0,7.04883,7.04883h3.00391a7.04784,7.04784,0,0,0,6.167-3.69727,7.32686,7.32686,0,0,0,.6156-1.51184L31.40918,28.29785l-14.30859-.05548v-.5451a6.93108,6.93108,0,0,0-.90527-3.39648m-.001-.001a7.05361,7.05361,0,0,0-6.1416-3.65137H7.04883A7.05683,7.05683,0,0,0,0,27.69727v3.00391A7.05663,7.05663,0,0,0,7.04883,37.749h3.00391a7.05268,7.05268,0,0,0,6.1416-3.65039m43.23242-10.4502h3.00391a4.05272,4.05272,0,0,1,4.04785,4.04883v3.00391A4.05188,4.05188,0,0,1,62.43066,34.749H59.42676a4.05252,4.05252,0,0,1-3.52051-2.10937,3.95785,3.95785,0,0,1-.52832-1.93848V27.69727a3.9519,3.9519,0,0,1,.61035-2.09375A4.02355,4.02355,0,0,1,59.42676,23.64844ZM55.37793,7.04785A4.05272,4.05272,0,0,1,59.42676,3h3.00391a4.05188,4.05188,0,0,1,4.04785,4.04785v3.00391a4.05272,4.05272,0,0,1-4.04785,4.04883H59.42676a4.05266,4.05266,0,0,1-3.52051-2.11035,3.95785,3.95785,0,0,1-.52832-1.93848ZM14.10059,10.05176a3.96118,3.96118,0,0,1-.51367,1.91211,4.04644,4.04644,0,0,1-3.53418,2.13672H7.04883A4.05355,4.05355,0,0,1,3,10.05176V7.04785A4.05272,4.05272,0,0,1,7.04883,3h3.00391a4.05188,4.05188,0,0,1,4.04785,4.04785ZM10.05273,34.749H7.04883A4.05272,4.05272,0,0,1,3,30.70117V27.69727a4.05355,4.05355,0,0,1,4.04883-4.04883h3.00391a4.05212,4.05212,0,0,1,3.51978,2.10925l-.00024.00012a3.967,3.967,0,0,1,.52832,1.93945v3.00391a3.967,3.967,0,0,1-.52832,1.93945l.00024.00012A4.052,4.052,0,0,1,10.05273,34.749Zm4.04785,16.60156a4.05188,4.05188,0,0,1-4.04785,4.04785H7.04883A4.05272,4.05272,0,0,1,3,51.35059V48.34668a4.05355,4.05355,0,0,1,4.04883-4.04883h3.00391a4.051,4.051,0,0,1,3.51953,2.10938,3.967,3.967,0,0,1,.52832,1.93945Zm41.27734-3.00391a3.95785,3.95785,0,0,1,.52832-1.93848,4.05266,4.05266,0,0,1,3.52051-2.11035h3.00391a4.05272,4.05272,0,0,1,4.04785,4.04883v3.00391a4.05188,4.05188,0,0,1-4.04785,4.04785H59.42676a4.05272,4.05272,0,0,1-4.04883-4.04785Z"/></svg>