<svg id="Layer_1" data-name="Layer 1" xmlns="http://www.w3.org/2000/svg" viewBox="0 0 12.38577 20.02002"><defs><style>.cls-1{fill:#41494e;}</style></defs><title>Scratchcards</title><path class="cls-1" d="M2.30187,20.02h8.27V17.44h-8.27Zm.83-1.75h6.6v.91h-6.6Z" transform="translate(0)"/><path class="cls-1" d="M12.28191,5.37a1.88859,1.88859,0,0,0-1.01-1.1L9.63927,3.53931a4.04927,4.04927,0,1,0-7.79407,1.9635L.37188,8.07a1.95722,1.95722,0,0,0-.28,1.74l2.33,6.72h7.99l.11-.24005c1.45264-2.91406-.426-7.21429-1.4942-9.24152A7.33353,7.33353,0,0,0,10.97191,7.41a1.25363,1.25363,0,0,0,1.2-.55A1.88713,1.88713,0,0,0,12.28191,5.37ZM5.62188.84a3.22432,3.22432,0,0,1,3.22,3.22,3.27572,3.27572,0,0,1-.09711.77649c-.00684.0274-.01447.05444-.022.0816a3.19112,3.19112,0,0,1-.26709.677c-.00507.00934-.0083.01947-.01343.02875a3.153,3.153,0,0,1-.39606.5459L7.97191,6.25a2.99767,2.99767,0,0,1-.52789.45227l-.01483.01227c-.021.0141-.046.02179-.06732.0354V5.32a1.74,1.74,0,0,0-3.48,0V6.76044c-.072-.04681-.13464-.10626-.2027-.15869a3.19035,3.19035,0,0,1-.30664-.25458,3.27655,3.27655,0,0,1-.25574-.29431c-.06567-.08246-.12823-.16675-.18542-.25531a3.13491,3.13491,0,0,1-.19281-.33612A3.194,3.194,0,0,1,5.62188.84Zm4.25,14.85h-6.87l-2.12-6.14a1.11477,1.11477,0,0,1,.17-1l1.24927-2.1687a3.99392,3.99392,0,0,0,.55182.62256c.06183.05829.12134.11841.18665.17273.05524.04535.11444.08588.1723.12842a4.03622,4.03622,0,0,0,.33453.22705c.03491.02069.07068.03986.10632.05957.07642.04285.15009.09076.22913.12842v2.89h.84V7.16l-.01-.00385V5.32a.91.91,0,0,1,1.82,0v5.29h.83V7.71063A4.085,4.085,0,0,0,8.16979,7.225C9.02392,8.80548,10.99865,12.97791,9.87188,15.69Zm1.55-9.22c-.00995.03-.12.1-.45.1a7.02559,7.02559,0,0,1-1.89209-.37762A4.01308,4.01308,0,0,0,9.66186,4.46l1.27.57a1.03415,1.03415,0,0,1,.55.61A1.00355,1.00355,0,0,1,11.42187,6.47Z" transform="translate(0)"/></svg>