<svg id="Layer_1" data-name="Layer 1" xmlns="http://www.w3.org/2000/svg" viewBox="0 0 135.52 29.6"><defs><style>.cls-1{fill:#8ea8c1;}</style></defs><title>Connect</title><path class="cls-1" d="M9.9,29.6a16.75,16.75,0,0,1-4.26-.48A6.85,6.85,0,0,1,2.45,27.3,7.79,7.79,0,0,1,.57,23.86,19.66,19.66,0,0,1,0,18.69V16.33a19.09,19.09,0,0,1,.59-5.17A7.92,7.92,0,0,1,2.47,7.75a6.82,6.82,0,0,1,3.2-1.8A16.85,16.85,0,0,1,9.9,5.47c3,0,5.33.6,6.84,1.78s2.36,3.29,2.36,6.15a0.67,0.67,0,0,1-.67.67H15a0.67,0.67,0,0,1-.67-0.67,6.11,6.11,0,0,0-.23-1.81,2.29,2.29,0,0,0-.66-1.06,3,3,0,0,0-1.27-.61A9.8,9.8,0,0,0,9.9,9.7,9.79,9.79,0,0,0,7.35,10a2.72,2.72,0,0,0-1.45.91A4.6,4.6,0,0,0,5,12.84a17,17,0,0,0-.29,3.48v2.36A17.33,17.33,0,0,0,5,22.2a4.65,4.65,0,0,0,.85,2,2.71,2.71,0,0,0,1.45.91,9.76,9.76,0,0,0,2.55.28,9.85,9.85,0,0,0,2.29-.22,3,3,0,0,0,1.27-.62,2.27,2.27,0,0,0,.66-1.05,6.28,6.28,0,0,0,.23-1.85A0.67,0.67,0,0,1,15,20.95h3.41a0.68,0.68,0,0,1,.67.67c0,2.89-.79,5-2.36,6.2S12.93,29.6,9.9,29.6h0Z"/><path class="cls-1" d="M30.26,29.6a16.44,16.44,0,0,1-4.33-.51,6.71,6.71,0,0,1-3.17-1.85,7.84,7.84,0,0,1-1.8-3.44,20.22,20.22,0,0,1-.55-5.12V16.33A19.36,19.36,0,0,1,21,11.25a8.07,8.07,0,0,1,1.82-3.43A6.74,6.74,0,0,1,26,6a16.39,16.39,0,0,1,4.29-.5A16.28,16.28,0,0,1,34.57,6a6.9,6.9,0,0,1,3.17,1.84,8,8,0,0,1,1.85,3.44,19.38,19.38,0,0,1,.57,5.08v2.36a19.55,19.55,0,0,1-.57,5.12,8.05,8.05,0,0,1-1.82,3.44,6.72,6.72,0,0,1-3.17,1.85,16.46,16.46,0,0,1-4.34.51h0Zm0-19.9a9.33,9.33,0,0,0-2.59.3,2.79,2.79,0,0,0-1.44.91,4.48,4.48,0,0,0-.8,1.94,18.3,18.3,0,0,0-.27,3.47v2.36a18.58,18.58,0,0,0,.27,3.52,4.46,4.46,0,0,0,.8,1.94,2.77,2.77,0,0,0,1.44.92,9.48,9.48,0,0,0,2.59.3,9.47,9.47,0,0,0,2.59-.3,2.91,2.91,0,0,0,1.47-.92,4.31,4.31,0,0,0,.82-1.93,18.7,18.7,0,0,0,.27-3.52V16.33a18.46,18.46,0,0,0-.27-3.47,4.31,4.31,0,0,0-.82-1.93A2.91,2.91,0,0,0,32.84,10a9.35,9.35,0,0,0-2.59-.3h0Z"/><path class="cls-1" d="M56.22,29.12a0.67,0.67,0,0,1-.67-0.67V13.88a7.82,7.82,0,0,0-.26-2.19,2.85,2.85,0,0,0-.66-1.21,2.33,2.33,0,0,0-1.11-.59,8,8,0,0,0-1.89-.2,8.37,8.37,0,0,0-2.89.53,9.41,9.41,0,0,0-2.42,1.32v16.9a0.67,0.67,0,0,1-.67.67H42.23a0.67,0.67,0,0,1-.67-0.67V6.58a0.67,0.67,0,0,1,.67-0.67H44.5a0.67,0.67,0,0,1,.63.44l0.48,1.31a13.92,13.92,0,0,1,2.78-1.49,11.32,11.32,0,0,1,4.11-.7,12.41,12.41,0,0,1,3.42.42,5.54,5.54,0,0,1,2.51,1.47A6.27,6.27,0,0,1,59.87,10a14.61,14.61,0,0,1,.44,3.86V28.45a0.67,0.67,0,0,1-.67.67H56.22Z"/><path class="cls-1" d="M76.69,29.12A0.67,0.67,0,0,1,76,28.45V13.88a7.81,7.81,0,0,0-.26-2.19,2.84,2.84,0,0,0-.66-1.21A2.31,2.31,0,0,0,74,9.9a8,8,0,0,0-1.89-.2,8.39,8.39,0,0,0-2.9.53,9.36,9.36,0,0,0-2.42,1.32v16.9a0.67,0.67,0,0,1-.68.67H62.7A0.67,0.67,0,0,1,62,28.45V6.58A0.67,0.67,0,0,1,62.7,5.9H65a0.67,0.67,0,0,1,.63.44l0.48,1.31a13.8,13.8,0,0,1,2.77-1.49A11.32,11.32,0,0,1,73,5.47a12.42,12.42,0,0,1,3.42.42,5.53,5.53,0,0,1,2.51,1.47A6.27,6.27,0,0,1,80.33,10a14.66,14.66,0,0,1,.44,3.86V28.45a0.67,0.67,0,0,1-.67.67H76.69Z"/><path class="cls-1" d="M92.42,29.56a17.88,17.88,0,0,1-4.27-.46,6.87,6.87,0,0,1-3.22-1.75A7.81,7.81,0,0,1,83,24a18.79,18.79,0,0,1-.62-5.27V16.33a19.09,19.09,0,0,1,.6-5.17,7.81,7.81,0,0,1,1.9-3.42A7,7,0,0,1,88,5.95a16.08,16.08,0,0,1,4.16-.48,15.21,15.21,0,0,1,4,.48,6.79,6.79,0,0,1,3.06,1.78,7.68,7.68,0,0,1,1.83,3.39,19.62,19.62,0,0,1,.57,5.17v2.54a0.67,0.67,0,0,1-.67.67H87.16a15.81,15.81,0,0,0,.26,2.71,4.09,4.09,0,0,0,.83,1.89,3,3,0,0,0,1.53.92,10.15,10.15,0,0,0,2.68.3,30.37,30.37,0,0,0,4-.23c1.16-.16,2.3-0.35,3.38-0.58H100a0.67,0.67,0,0,1,.67.67v2.92a0.67,0.67,0,0,1-.52.66,32.14,32.14,0,0,1-3.48.59,37,37,0,0,1-4.28.23h0Zm4.53-14a20,20,0,0,0-.2-2.59A4.7,4.7,0,0,0,96,11a2.57,2.57,0,0,0-1.31-1A7.92,7.92,0,0,0,92.2,9.7a8.84,8.84,0,0,0-2.58.32,2.8,2.8,0,0,0-1.44,1,4.53,4.53,0,0,0-.79,1.93,16,16,0,0,0-.24,2.61h9.79Z"/><path class="cls-1" d="M112.91,29.6a16.75,16.75,0,0,1-4.26-.48,6.87,6.87,0,0,1-3.2-1.82,7.81,7.81,0,0,1-1.87-3.44,19.74,19.74,0,0,1-.57-5.16V16.33a19,19,0,0,1,.6-5.17,7.91,7.91,0,0,1,1.87-3.41,6.82,6.82,0,0,1,3.2-1.8,16.83,16.83,0,0,1,4.24-.48c3,0,5.33.6,6.84,1.78s2.36,3.29,2.36,6.15a0.67,0.67,0,0,1-.67.67H118a0.67,0.67,0,0,1-.68-0.67,6,6,0,0,0-.23-1.81,2.29,2.29,0,0,0-.65-1.06,3,3,0,0,0-1.27-.61,11.75,11.75,0,0,0-4.84.06,2.7,2.7,0,0,0-1.45.91,4.63,4.63,0,0,0-.85,1.95,17.06,17.06,0,0,0-.29,3.48v2.36a17.26,17.26,0,0,0,.29,3.51,4.65,4.65,0,0,0,.85,2,2.7,2.7,0,0,0,1.45.91,11.84,11.84,0,0,0,4.84.06,3,3,0,0,0,1.27-.62,2.28,2.28,0,0,0,.65-1.05,6.18,6.18,0,0,0,.23-1.85,0.67,0.67,0,0,1,.68-0.67h3.41a0.67,0.67,0,0,1,.67.67c0,2.89-.79,5-2.36,6.2s-3.81,1.78-6.84,1.78h0Z"/><path class="cls-1" d="M131.3,29.6a5.8,5.8,0,0,1-4.5-1.6,6.86,6.86,0,0,1-1.42-4.72V10.14h-2.17a0.67,0.67,0,0,1-.67-0.67V7.1a0.67,0.67,0,0,1,.55-0.66L125.38,6V1.24a0.67,0.67,0,0,1,.56-0.66L129.35,0h0.11a0.67,0.67,0,0,1,.67.67V5.9h4.27a0.67,0.67,0,0,1,.67.67V9.46a0.67,0.67,0,0,1-.67.67h-4.27V23.36a2.52,2.52,0,0,0,.4,1.56,1.69,1.69,0,0,0,1.37.44,6.93,6.93,0,0,0,1.47-.14l1.32-.29h0.14a0.67,0.67,0,0,1,.67.67v2.85a0.68,0.68,0,0,1-.46.64,9.8,9.8,0,0,1-1.71.37,15,15,0,0,1-2,.13h0Z"/></svg>