<svg id="Layer_1" data-name="Layer 1" xmlns="http://www.w3.org/2000/svg" viewBox="0 0 339.83 145.92"><defs><style>.cls-1{fill:#8ea8c1;}</style></defs><title>EcoPayz</title><path class="cls-1" d="M13.39,84.68c0.58-43.49,60.2-78,133.16-77,39.8,0.52,75.26,11.48,99.27,28.4C222.05,14.92,181.38.66,135,0,61-1,.56,33.21,0,76.32-0.22,93.76,9.36,110,25.74,123.17,17.68,111,13.25,97.85,13.39,84.68Z" transform="translate(0 0)"/><path class="cls-1" d="M141,88.62c0,4.95-1.25,8.36-3.78,10.26s-6.43,2.86-11.72,2.86H67.91c0,5.68,2.83,10,8.57,13.07,4.6,2.39,10.28,3.61,16.93,3.61q7.77,0,18.68-4.75c7.3-3.15,12-4.73,14-4.73a12.94,12.94,0,0,1,9.39,3.78,12.34,12.34,0,0,1,3.9,9.11q0,12.17-19.62,19a92.73,92.73,0,0,1-30.44,5.12q-24.89,0-40.28-15.36T33.59,91.86q0-22.22,16-38T89.3,38q22.1,0,36.87,15T141,88.62Zm-32-7.39c-0.14-4.5-2.39-8.6-6.69-12.29s-8.94-5.54-13.83-5.54a21.07,21.07,0,0,0-14,5.54q-6.5,5.54-6.5,12.29h41Z" transform="translate(0 0)"/><path class="cls-1" d="M235.3,125.24q0,10.06-14.08,16a60.47,60.47,0,0,1-23.69,4.72q-24.12,0-39.19-16.11-14.5-15.39-14.5-37.95t14.8-38.23Q173.44,38,197.53,38q13.87,0,23.88,3.79,13.89,5.1,13.88,15.93a14.19,14.19,0,0,1-3.67,9.68,12,12,0,0,1-9.36,4.18c-2.58,0-6.29-.8-11.19-2.39s-8.75-2.36-11.59-2.36q-11.39,0-17.71,7.51c-3.93,4.54-5.9,10.36-5.9,17.52,0,6.76,1.78,12.5,5.29,17.13,3.94,5.4,9.41,8.1,16.48,8.1,3.14,0,7.39-.85,12.8-2.57s9.37-2.56,11.82-2.56a12.12,12.12,0,0,1,9.15,4.18A13.18,13.18,0,0,1,235.3,125.24Z" transform="translate(0 0)"/><path class="cls-1" d="M339.83,91.86q0,22.58-14.51,37.95-15.12,16.12-39.21,16.11t-39.17-16.11q-14.5-15.39-14.48-37.95t14.48-37.94Q262.22,38,286.11,38q24.1,0,39.21,15.93Q339.8,69.3,339.83,91.86Zm-32.06,0c0-6.76-1.76-12.5-5.26-17.13q-5.87-7.92-16.4-7.9t-16.36,7.9c-3.51,4.64-5.26,10.37-5.26,17.13s1.75,12.55,5.26,17.31c3.9,5.3,9.36,7.92,16.36,7.92s12.48-2.61,16.4-7.92A28.48,28.48,0,0,0,307.77,91.86Z" transform="translate(0 0)"/></svg>