<svg id="Layer_1" data-name="Layer 1" xmlns="http://www.w3.org/2000/svg" viewBox="0 0 187.09 112.77"><defs><style>.cls-1{fill:#8ea8c1;}.cls-1,.cls-2{fill-rule:evenodd;}.cls-2{fill:#fff;}</style></defs><title>Maestro</title><path class="cls-1" d="M106.49,54c0,1.08.34,1.35,3.3,2.52a12.31,12.31,0,0,1,2.12,1.07c0-.42,0-0.84,0-1.26,0-1.4-.07-2.79-0.17-4.17-0.66,0-1.29-.06-1.83-0.06C107.66,52.15,106.49,52.8,106.49,54Z"/><path class="cls-1" d="M59,63.51a2.28,2.28,0,0,0,2.5,2.37c2.84,0,4.88-2.38,5-5.81A12.78,12.78,0,0,0,65,60C61,60,59,61.16,59,63.51Z"/><path class="cls-1" d="M90.83,54.91c0-1.89-1.22-3-3.3-3s-3.8,1.49-4.44,4.17h7.68Q90.82,55.37,90.83,54.91Z"/><path class="cls-1" d="M103.88,70.8q-1.37,0-3.89-.19-1.22-.09-1.84-0.2l-1.29-.24-0.31-.05,1-5.36a22.54,22.54,0,0,0,6.32.92c2.79,0,4-.65,4-2.1,0-1.06-.44-1.4-3.29-2.57-3.72-1.52-5.37-3.54-5.37-6.48,0-4.29,2.7-7.86,10.59-7.86l1.3,0a56.41,56.41,0,0,0-17.56-32.1A55.54,55.54,0,0,0,56,0C25.06,0,0,25.25,0,56.39s25.06,56.39,56,56.39A55.54,55.54,0,0,0,93.54,98.18a56.43,56.43,0,0,0,16.77-28.34A18.1,18.1,0,0,1,103.88,70.8ZM42,70.43l4.14-22-9.53,22H30.27L29.11,48.58,25,70.43H18.63L24,41.84H34.9l0.58,17.7,7.66-17.7H54.47L49,70.43H42ZM73.69,58.08l-1.46,8.25L72,67.81,71.81,69l-0.12.81-0.07.63H65.84L66,68c-1.76,1.91-4.11,2.81-7.31,2.81a6.06,6.06,0,0,1-6.37-6.35c0-5.66,4.5-9,12.24-9a26.72,26.72,0,0,1,2.84.18,5.08,5.08,0,0,0,.27-1.51c0-1.54-1.22-2.11-4.47-2.11a25.58,25.58,0,0,0-5.79.65l-1,.25-0.63.15,1-5.23a31.31,31.31,0,0,1,8.34-1.23c6,0,9.15,2.36,9.15,6.82A24.08,24.08,0,0,1,73.69,58.08ZM88.4,65.59a18.44,18.44,0,0,0,7.23-1.47l-1.16,5.81a27,27,0,0,1-7.14.94c-7.79,0-11.85-3.58-11.85-10.42,0-8,5.16-13.86,12.17-13.86,5.74,0,9.4,3.29,9.4,8.45a22.14,22.14,0,0,1-.86,5.74H82.36a4.48,4.48,0,0,0-.07.73C82.29,64.21,84.36,65.59,88.4,65.59Z"/><path class="cls-2" d="M179.63,87.82a1.81,1.81,0,1,1,1.81,1.82,1.81,1.81,0,0,1-1.81-1.82h0Zm1.81,1.38a1.38,1.38,0,1,0-1.37-1.38,1.38,1.38,0,0,0,1.37,1.38h0Zm-0.24-.58h-0.37V87h0.67a0.72,0.72,0,0,1,.4.08,0.48,0.48,0,0,1,.2.4,0.44,0.44,0,0,1-.27.41l0.29,0.71h-0.41L181.47,88H181.2V87.71h0.2a0.46,0.46,0,0,0,.23,0,0.22,0.22,0,0,0,.09-0.18,0.2,0.2,0,0,0-.09-0.16,0.5,0.5,0,0,0-.24,0h-0.2v1.31h0Z"/><path class="cls-2" d="M169.56,68.09h-0.2V68.5h0.2a0.45,0.45,0,0,0,.23,0,0.22,0.22,0,0,0,.09-0.18,0.2,0.2,0,0,0-.09-0.16A0.49,0.49,0,0,0,169.56,68.09Z"/><path class="cls-2" d="M169.6,67.22A1.38,1.38,0,1,0,171,68.61,1.38,1.38,0,0,0,169.6,67.22Zm0.27,2.18-0.24-.63h-0.27v0.63H169v-1.6h0.67a0.72,0.72,0,0,1,.4.08,0.48,0.48,0,0,1,.2.4,0.43,0.43,0,0,1-.28.41l0.29,0.71h-0.41Z"/><path class="cls-2" d="M157.82,52.18c-3.55,0-5.76,4.23-5.76,8,0,3.15,1.51,5.27,4,5.22,1.51,0,4.73-2.07,5.37-5.69a16,16,0,0,0,.23-2.78C161.66,54.48,160.68,52.18,157.82,52.18Z"/><path class="cls-2" d="M131.12,0A55.54,55.54,0,0,0,93.54,14.59a56.68,56.68,0,0,0-5.65,6h11.3a56.69,56.69,0,0,1,4.27,6H83.63a56.43,56.43,0,0,0-3.23,6h26.28a56,56,0,0,1,2.37,6H78a56.35,56.35,0,0,0-1.63,6h34.28c0.16,0.74.29,1.5,0.42,2.25,1.56,0.07,3.5.23,4.9,0.42l-1,5.38c-1.09-.13-2.2-0.23-3.23-0.29,0.1,1.38.17,2.77,0.17,4.17,0,0.42,0,.84,0,1.26A5.82,5.82,0,0,1,114.75,63c0,3.41-1.43,5.63-4.42,6.79q-0.55,2.27-1.28,4.46H78a56,56,0,0,0,2.37,6h26.28a56.61,56.61,0,0,1-3.22,6H83.63a56.6,56.6,0,0,0,4.27,6h11.3a56.67,56.67,0,0,1-5.65,6,55.54,55.54,0,0,0,37.57,14.59c30.91,0,56-25.25,56-56.39S162,0,131.12,0Zm-5.24,65.22a6.52,6.52,0,0,0,1.88-.22l-0.92,5.14a17.92,17.92,0,0,1-5,.76c-3.57,0-5.51-1.8-5.51-5.11a11.68,11.68,0,0,1,.21-2.09l0.42-2.27,0.33-1.84,3.23-17.75h6.93l-1,5.34H130l-1,5.65h-3.57l-1.84,9.7a5.53,5.53,0,0,0-.12,1C123.49,64.69,124.22,65.22,125.87,65.22ZM143,53.72c-3.34,0-4.41,2.49-6.91,16.71h-7l4.25-23.25h6.31L139,50.7c2.13-2.75,3.78-3.78,6.07-3.78a3.9,3.9,0,0,1,.7.06l0.6,0.14a3.75,3.75,0,0,1,.79.25l-2.52,6.57-0.82-.17A7.87,7.87,0,0,0,143,53.72ZM155.3,71.05c-7.88,0-11.07-4.82-11.07-10.72,0-8.24,5.39-13.82,13.72-13.82C165.18,46.51,169,51.1,169,57a14.79,14.79,0,0,1-.19,2.88C167.79,67.62,162.43,71.05,155.3,71.05Zm14.31-.62a1.82,1.82,0,1,1,1.81-1.82A1.81,1.81,0,0,1,169.6,70.43Z"/></svg>