<svg id="Layer_1" data-name="Layer 1" xmlns="http://www.w3.org/2000/svg" viewBox="0 0 211.51 126.56"><defs><style>.cls-1{fill:#8ea8c1;}.cls-2{fill:#fff;}</style></defs><title>MasterCard</title><path class="cls-1" d="M43.08,72.17a2.4,2.4,0,0,0,2.46,2.66c2.8,0,4.82-2.66,4.93-6.53a11.45,11.45,0,0,0-1.53-.11C45.05,68.2,43.08,69.53,43.08,72.17Z"/><path class="cls-1" d="M99.93,59.62c-2.17,0-3.73,1.66-4.36,4.66h7.54C103.14,63.28,103.83,59.62,99.93,59.62Z"/><path class="cls-1" d="M124.59,66.53a25.5,25.5,0,0,1,1.66-9.35,63.25,63.25,0,1,0-.48,16A18,18,0,0,1,124.59,66.53ZM26.69,80.28l3.94-24.67L21.84,80.28H17.16L16.58,55.75,12.45,80.28H6l5.37-32h9.88l0.28,19.87,6.67-19.87H38.88l-5.31,32H26.69Zm23.09,0,0.13-2.88c-1.74,2.13-4.05,3.07-7.2,3.07-3.72,0-6.28-3-6.28-7.18,0-6.36,4.44-10.08,12.06-10.08a22.76,22.76,0,0,1,2.8.19,6.47,6.47,0,0,0,.27-1.7c0-1.73-1.2-2.37-4.41-2.37a22.82,22.82,0,0,0-7.27,1.17c0.07-.43,1-5.87,1-5.87a27.38,27.38,0,0,1,8.22-1.38c5.9,0,9,2.65,9,7.65a35.24,35.24,0,0,1-.56,5.35c-0.6,3.78-1.88,12-2.05,14H49.79ZM69.9,64.39c3.44,1.58,4.84,3.68,4.84,7.27,0,6-3.35,8.72-10.6,8.72A31.82,31.82,0,0,1,57,79.61l0.94-6a19.36,19.36,0,0,0,6.16,1c2.72,0,3.95-.73,3.95-2.36,0-1.19-.43-1.57-3.21-2.88-3.63-1.71-5.23-4-5.23-7.29,0-4.82,2.64-8.84,10.32-8.84a46.74,46.74,0,0,1,6,.51l-1,6.05a38.18,38.18,0,0,0-4.94-.4c-2.22,0-3.36.73-3.36,2.14C66.69,62.77,67,63.06,69.9,64.39ZM85.07,74a5.5,5.5,0,0,0,1.85-.25L86,79.54a15.7,15.7,0,0,1-4.93.85c-3.51,0-5.43-2-5.43-5.73a58.48,58.48,0,0,1,.94-6.76c0.4-2.44,3-17.61,3-17.61h6.83l-0.8,4h3.5l-0.93,6H84.65c-0.79,5-1.92,11.06-1.94,11.88C82.71,73.51,83.43,74,85.07,74ZM101,74.56a16.24,16.24,0,0,0,7.1-1.69l-1.14,6.47a23.38,23.38,0,0,1-7,1c-7.65,0-11.63-4-11.63-11.65,0-8.93,5.07-15.5,11.95-15.5,5.63,0,9.23,3.76,9.23,9.53a31.63,31.63,0,0,1-.84,6.5H95C94.58,73.28,97,74.56,101,74.56Zm15.33,5.71h-6.87l0.31-1.71c1.19-8.08,2.72-16.29,3.59-24.29h6.31a24.88,24.88,0,0,1-.41,3.74c2.1-3.09,3.71-4.83,6.59-4.23a26.74,26.74,0,0,0-2.61,7.69C119.36,61.08,118.77,64.28,116.31,80.28Z"/><path class="cls-2" d="M191.73,60c-3.12,0-5.33,3.64-5.33,8.77,0,3.42,1.19,5.14,3.52,5.14,3.2,0,5.45-3.62,5.45-8.79C195.37,61.79,194.09,60,191.73,60Z"/><path class="cls-2" d="M205.07,77.31h-0.22v0.46h0.23a0.51,0.51,0,0,0,.26,0,0.25,0.25,0,0,0,.1-0.21,0.24,0.24,0,0,0-.1-0.19A0.59,0.59,0,0,0,205.07,77.31Z"/><path class="cls-2" d="M148.23,0a63.14,63.14,0,0,0-42.48,16.48,33.67,33.67,0,0,0-6.39,6.8h12.78a30.32,30.32,0,0,1,4.82,7H94.54c-1.34,2-2.56,4-3.65,6h29.72c1,2,1.91,5,2.68,7H88.22a35.75,35.75,0,0,0-1.84,7h38.76c0.27,1,.49,2,0.68,3h0v0.2c0.18,1.16.32,2.43,0.43,3.61C128.71,50.84,133.72,47,140.07,47a23.64,23.64,0,0,1,7.55,1.69l-1.12,7a13.1,13.1,0,0,0-6.14-1.73c-5.13,0-8.73,5-8.73,12,0,4.87,2.42,7.82,6.41,7.82a13.3,13.3,0,0,0,5.83-1.65l-1.21,7.31a21.42,21.42,0,0,1-6.07.94,11,11,0,0,1-10.82-7.22,56,56,0,0,1-2.48,10.11H88.22c0.77,2,1.66,5,2.68,7h29.73c-1.09,2-2.3,4-3.65,7H94.54q2.2,3,4.83,6h12.78a33.42,33.42,0,0,1-6.39,6.8A63.25,63.25,0,1,0,148.23,0ZM163.7,80.28H158l0.13-2.88c-1.74,2.13-4.05,3.07-7.2,3.07-3.73,0-6.28-3-6.28-7.18,0-6.36,4.44-10.08,12.06-10.08a22.7,22.7,0,0,1,2.8.19,6.48,6.48,0,0,0,.27-1.7c0-1.73-1.19-2.37-4.4-2.37a22.85,22.85,0,0,0-7.27,1.17c0.07-.43,1-5.87,1-5.87a27.38,27.38,0,0,1,8.22-1.38c5.9,0,9,2.65,9,7.65a35,35,0,0,1-.55,5.35C165.15,70,163.88,78.28,163.7,80.28Zm9.16,0H166l0.31-1.71c1.2-8.08,2.72-16.29,3.58-24.29h6.31a25.2,25.2,0,0,1-.41,3.74c2.11-3.09,3.71-4.83,6.59-4.23a26.58,26.58,0,0,0-2.61,7.69C175.91,61.08,175.32,64.28,172.86,80.28Zm20.7,0,0.32-2.6a8,8,0,0,1-6.33,2.8c-5,0-8.29-4.35-8.29-10.88,0-8.68,5.12-16,11.18-16,2.66,0,4.68,1.3,6.56,3.77l1.52-9.07h6.78l-5.23,32h-6.5Zm11.56-.35a2,2,0,1,1,2-2A2,2,0,0,1,205.12,79.93Z"/><path class="cls-2" d="M205.12,76.34a1.55,1.55,0,1,0,1.56,1.55A1.55,1.55,0,0,0,205.12,76.34Zm0.31,2.45-0.28-.71h-0.31v0.71h-0.42V77h0.76a0.84,0.84,0,0,1,.46.09,0.53,0.53,0,0,1,.23.45,0.49,0.49,0,0,1-.31.46l0.33,0.79h-0.46Z"/><path class="cls-2" d="M151.31,72.17a2.4,2.4,0,0,0,2.46,2.66c2.8,0,4.82-2.66,4.93-6.53a11.38,11.38,0,0,0-1.53-.11C153.28,68.2,151.31,69.53,151.31,72.17Z"/><path class="cls-2" d="M203.08,98.55a2,2,0,1,1,2,2A2,2,0,0,1,203.08,98.55Zm2,1.55a1.55,1.55,0,1,0-1.55-1.55A1.56,1.56,0,0,0,205.12,100.11Zm-0.28-.66h-0.42V97.66h0.76a0.85,0.85,0,0,1,.46.09,0.56,0.56,0,0,1,.23.45,0.49,0.49,0,0,1-.31.46l0.33,0.79h-0.46l-0.28-.71h-0.31v0.71Zm0-1h0.23a0.54,0.54,0,0,0,.26,0,0.25,0.25,0,0,0,.11-0.21,0.24,0.24,0,0,0-.1-0.18,0.57,0.57,0,0,0-.27,0h-0.22v0.46Z"/><path class="cls-2" d="M205.12,75.85a2,2,0,1,0,2,2A2,2,0,0,0,205.12,75.85Zm0,3.6a1.55,1.55,0,1,1,1.56-1.55A1.55,1.55,0,0,1,205.12,79.44Z"/><path class="cls-2" d="M205.87,77.53a0.53,0.53,0,0,0-.23-0.45,0.84,0.84,0,0,0-.46-0.09h-0.76v1.79h0.42V78.07h0.31l0.28,0.71h0.46L205.56,78A0.49,0.49,0,0,0,205.87,77.53Zm-0.54.2a0.51,0.51,0,0,1-.26,0h-0.23V77.31h0.22a0.59,0.59,0,0,1,.27,0,0.24,0.24,0,0,1,.1.19A0.25,0.25,0,0,1,205.33,77.73Z"/></svg>