<svg id="Layer_1" data-name="Layer 1" xmlns="http://www.w3.org/2000/svg" viewBox="0 0 1009.86 270.29"><defs><style>.cls-1{fill:#8ea8c1;}</style></defs><title>PayPal</title><polygon class="cls-1" points="974.64 23.4 974.64 3.29 967.18 3.29 967.18 0.61 985.15 0.61 985.15 3.29 977.66 3.29 977.66 23.4 974.64 23.4"/><path class="cls-1" d="M988.13,23.4V0.62h4.48L998,16.74c0.49,1.49.85,2.63,1.06,3.36,0.28-.84.71-2.05,1.24-3.64l5.5-15.83h4V23.4H1007V4.34l-6.65,19.05h-2.73L991,4.12V23.4h-2.9Z" transform="translate(0)"/><path class="cls-1" d="M647.19,88.15c-8.84,6.45-21.13,9.7-37,9.7h-7.27c-6.32,0-10.3-5.06-8.89-11.21l8.81-38.15a15.12,15.12,0,0,1,14-11.17h9.6q16.86,0,25.43,5.72c5.71,3.77,8.54,9.6,8.54,17.44q0,18-13.24,27.67m63.33-58.76a44.3,44.3,0,0,0-16.15-17.28,72.58,72.58,0,0,0-25.46-9.37A193.27,193.27,0,0,0,634.36,0H573.15a15,15,0,0,0-14,11.18L517.73,190.94c-1.43,6.16,2.57,11.18,8.85,11.18H556a15.14,15.14,0,0,0,14-11.18l10.05-43.57a15.15,15.15,0,0,1,14-11.19h8.42q53.75,0,83.69-22.08T716.1,55.92c0-10.61-1.85-19.43-5.57-26.53" transform="translate(0)"/><path class="cls-1" d="M800.11,162.41a73.17,73.17,0,0,1-15.32,8.5,40.35,40.35,0,0,1-15.29,3.36c-7.3,0-12.86-1.06-16.68-3.2s-5.73-5.76-5.73-11c0-5.94,1.41-10.73,4.34-14.36s7.06-6.39,12.47-8.38a96.89,96.89,0,0,1,19.3-4.35q11.33-1.45,24.32-2.56Zm-9.19,39.72h36.86a15.11,15.11,0,0,0,14-11.18L863.19,98.4a55.26,55.26,0,0,0,1.25-7.64c0.31-2.89.51-5.24,0.51-7q0-19.73-16.71-29.05c-11.16-6.26-28.55-9.36-52.33-9.36A234.13,234.13,0,0,0,760.38,48C748.47,49.88,739.71,51.52,734,53L729,78.2c-1.21,6.18-.2,11.27,2.27,11.27,4.82-1.79,12.06-4,21.71-6.77a98.67,98.67,0,0,1,26.49-4.09q17.69,0,26.57,3.8C812,85,815,89.39,815,95.67a21.58,21.58,0,0,1-.44,4.18c-0.31,1.22-.54,2.13-0.65,2.67Q788.73,104,767,107.15t-37.23,10.18c-11.1,5-19.52,11.67-25.18,20.06s-8.5,18.58-8.5,30.63c0,11.41,4,20.7,12,27.8s18.29,10.65,30.89,10.65c7.83,0,14-.56,18.39-1.65A102,102,0,0,0,771.55,200a83.1,83.1,0,0,0,12.07-6.78c4.31-2.82,8-5.29,11.08-7.32l-3.77,16.24" transform="translate(0)"/><path class="cls-1" d="M958.67,1.63L916.82,191a15.18,15.18,0,0,1-14,11.19h-26.2c-6.29,0-10.31-5-8.87-11.19L907,12.79A15.13,15.13,0,0,1,921,1.63h37.64" transform="translate(0)"/><path class="cls-1" d="M129.75,88.46c-8.84,6.46-21.12,9.72-37,9.72H85.48c-6.31,0-10.29-5.06-8.91-11.2L85.4,48.81a15.15,15.15,0,0,1,14-11.17H109c11.21,0,19.71,1.91,25.41,5.73S143,53,143,60.85c0,11.94-4.45,21.16-13.27,27.61m63.34-58.75a44.37,44.37,0,0,0-16.15-17.26,73.2,73.2,0,0,0-25.47-9.4A193.21,193.21,0,0,0,116.92.35H55.71a15.1,15.1,0,0,0-14,11.16L0.29,191.27c-1.43,6.17,2.56,11.21,8.87,11.21H38.55a15.12,15.12,0,0,0,14-11.19l10.07-43.58a15.14,15.14,0,0,1,14-11.17h8.39q53.74,0,83.67-22.1t29.94-58.2c0-10.59-1.85-19.41-5.58-26.53" transform="translate(0)"/><path class="cls-1" d="M282.67,162.74a74.58,74.58,0,0,1-15.33,8.5A40.34,40.34,0,0,1,252,174.59c-7.25,0-12.83-1.07-16.66-3.2s-5.7-5.78-5.7-11c0-5.92,1.4-10.75,4.28-14.35s7.08-6.39,12.53-8.4a96,96,0,0,1,19.28-4.32q11.35-1.48,24.29-2.57Zm-9.18,39.74h36.86a15.17,15.17,0,0,0,14-11.19l21.35-92.56A46.88,46.88,0,0,0,347,91.09a66,66,0,0,0,.51-7q0-19.71-16.72-29.06t-52.35-9.36a233.22,233.22,0,0,0-35.49,2.73Q225,51.13,216.6,53.3l-5,25.23c-1.21,6.18-.2,11.27,2.28,11.27C218.72,88,225.94,85.74,235.6,83a98.2,98.2,0,0,1,26.48-4.1c11.79,0,20.61,1.27,26.58,3.8s8.91,7,8.91,13.28a22.65,22.65,0,0,1-.44,4.13c-0.34,1.28-.56,2.16-0.66,2.72q-25.19,1.47-46.85,4.61c-14.4,2.07-26.8,5.5-37.25,10.17q-16.67,7.55-25.2,20.07t-8.53,30.63q0,17.15,12,27.81t30.87,10.68c7.83,0,14-.58,18.39-1.68a98,98,0,0,0,14.16-4.85,81.28,81.28,0,0,0,12.08-6.76c4.31-2.85,8-5.28,11-7.34l-3.73,16.27" transform="translate(0)"/><path class="cls-1" d="M496.7,45.43c-6.28,0-14.59,5-18.38,11.19l-51.85,89.07L412.24,56.76a15.14,15.14,0,0,0-14-11.2H372c-6.31,0-10.32,5-8.87,11.2l22.68,146.88c0.41,3.18.82,5.88,1.22,8.12l-28.24,47.34c-3.78,6.15-1.76,11.19,4.56,11.19h30.36c6.31,0,14.55-5,18.35-11.19L538.54,45.43H496.7Z" transform="translate(0)"/></svg>