<svg id="Layer_1" data-name="Layer 1" xmlns="http://www.w3.org/2000/svg" viewBox="0 0 55.14844 78.75293"><defs><style>.cls-1{fill:#41494f}</style></defs><title>Arcade</title><path class="cls-1" d="M4.889 22.814h3v4.89h-3zM4.889 11.407h3v4.889h-3zM4.889 0h3v4.889h-3zM47.26 22.814h3v4.89h-3zM47.26 11.407h3v4.889h-3zM47.26 0h3v4.889h-3zM27.574 31.093c-3.757 0-4.759 7.691-4.759 12.236 0 9.314 3.329 10.32 4.76 10.32s4.759-1.006 4.759-10.32c0-4.545-1.003-12.236-4.76-12.236zm0 19.555c-.273 0-1.759-1.35-1.759-7.319 0-5.216 1.122-8.3 1.76-9.1.637.8 1.759 3.884 1.759 9.1 0 5.97-1.486 7.32-1.76 7.32z"/><path class="cls-1" d="M49.667 31.398l-1.165-.884-.913 1.142c-.2.248-4.554 5.766-5.15 12.474h-3.586V44c0-5.127-2.17-14.892-4.026-21.695-4.272-15.657-6.21-15.657-7.253-15.657s-2.98 0-7.252 15.657C18.465 29.108 16.297 38.873 16.297 44v.13H12.71c-.597-6.71-4.952-12.227-5.151-12.475l-.914-1.141-1.165.884C5.258 31.568 0 35.715 0 48.89c0 6.677 1.213 10.315 5.192 15.57l1.11 1.466 1.214-1.38c1.49-1.695 4.36-5.84 5.09-9.268h7.383a25.99 25.99 0 0 0 1.788 4.165l.445.68h10.705l.444-.68a25.99 25.99 0 0 0 1.788-4.165h7.385c.73 3.427 3.599 7.572 5.089 9.268l1.214 1.38 1.11-1.465c3.979-5.256 5.191-8.894 5.191-15.571 0-13.175-5.257-17.322-5.481-17.492zm-.963 29.676c-1.745-2.41-3.333-5.539-3.333-7.296v-1.5H33.016l-.345 1.02c-.386 1.146-1.006 2.824-1.461 3.825h-7.272c-.455-1.001-1.075-2.679-1.46-3.824l-.345-1.02H9.778v1.5c0 1.756-1.588 4.885-3.334 7.296C3.771 57.175 3 54.243 3 48.89c0-7.843 1.983-12 3.255-13.86 1.347 2.121 3.523 6.228 3.523 10.6v1.5h8.019l1.5-.058V44c0-8.262 5.725-28.916 8.277-33.668 2.553 4.752 8.279 25.406 8.279 33.668v3.13h9.518v-1.5c0-4.371 2.175-8.476 3.522-10.598 1.276 1.866 3.255 6.024 3.255 13.858 0 5.353-.772 8.286-3.444 12.184z"/><path class="cls-1" d="M27.545 71.175l-3.539-8.213-2.756 1.187 6.295 14.604 6.296-14.604-2.756-1.187-3.54 8.213z"/></svg>