<svg id="Layer_1" data-name="Layer 1" xmlns="http://www.w3.org/2000/svg" viewBox="0 0 61.37542 65.98744"><defs><style>.cls-1{fill:#41494f}</style></defs><title>Casino_Games</title><path class="cls-1" d="M55.896.044L28.221 0a5.495 5.495 0 0 0-5.467 4.928l-7.311 1.441a5.504 5.504 0 0 0-4.281 4.122l-7.767 3.203a5.495 5.495 0 0 0-2.98 7.166l17.207 41.73a5.486 5.486 0 0 0 7.165 2.983l17.886-7.376 10.334-2.038 2.8.004a5.494 5.494 0 0 0 5.497-5.48l.071-45.142A5.494 5.494 0 0 0 55.896.044zM23.82 63.226a2.944 2.944 0 0 1-3.85-1.603L2.76 19.892a2.953 2.953 0 0 1 1.602-3.852l6.838-2.82 8.657 43.884a5.481 5.481 0 0 0 6.445 4.322l3.605-.71zm1.993-4.29a2.978 2.978 0 0 1-3.464-2.323l-8.736-44.288a2.95 2.95 0 0 1 2.322-3.465l6.789-1.34-.069 43.102a5.494 5.494 0 0 0 5.478 5.497l11.865.02zm32.953-8.256a2.953 2.953 0 0 1-2.954 2.945l-27.675-.044a2.954 2.954 0 0 1-2.944-2.955l.071-45.142a2.953 2.953 0 0 1 2.954-2.945l27.675.044a2.953 2.953 0 0 1 2.945 2.954z"/><path class="cls-1" d="M46.255 26.136a6.182 6.182 0 0 0-4.238 1.652 6.248 6.248 0 0 0-8.644.143 6.133 6.133 0 0 0-1.838 4.356 6.598 6.598 0 0 0 2.003 4.677l7.554 7.58a1.269 1.269 0 0 0 1.795.002l7.578-7.556a6.593 6.593 0 0 0 2.015-4.67 6.137 6.137 0 0 0-1.824-4.362 6.213 6.213 0 0 0-4.4-1.822zm2.417 9.058l-6.677 6.658-6.659-6.68a4.084 4.084 0 0 1-1.263-2.877 3.612 3.612 0 0 1 1.087-2.56 3.708 3.708 0 0 1 5.24.021l.711.718a1.27 1.27 0 0 0 1.802.003l.714-.716a3.706 3.706 0 0 1 5.236-.007 3.616 3.616 0 0 1 1.079 2.567 4.08 4.08 0 0 1-1.27 2.873zM35.783 16.653a1.27 1.27 0 0 0 2.347-.968l-3.865-9.37a1.269 1.269 0 0 0-2.344-.004l-3.894 9.358a1.27 1.27 0 1 0 2.344.975l.453-1.065 4.509.007zm-3.908-3.611l1.212-2.927 1.209 2.93z"/></svg>