<svg id="Layer_1" data-name="Layer 1" xmlns="http://www.w3.org/2000/svg" viewBox="0 0 74.65586 70.99268"><defs><style>.cls-1{fill:#41494f}</style></defs><title>New_Games</title><path class="cls-1" d="M74.458 26.93a3.227 3.227 0 0 0-2.776-2.14L49.84 22.84 40.294 1.907a3.258 3.258 0 0 0-5.93 0L24.82 22.84 2.974 24.79a3.259 3.259 0 0 0-2.007 5.558l16.118 16-4.025 20.678a3.259 3.259 0 0 0 4.652 3.54l19.615-9.773 19.612 9.85A3.26 3.26 0 0 0 61.6 67.11l-4.027-20.781L73.687 30.35a3.229 3.229 0 0 0 .771-3.42zm-2.883 1.29L54.892 44.761a1.5 1.5 0 0 0-.416 1.35l4.179 21.568a.26.26 0 0 1-.37.281L38.003 57.776a1.503 1.503 0 0 0-1.342-.002L16.374 67.88a.243.243 0 0 1-.273-.025.24.24 0 0 1-.097-.256l4.178-21.466a1.499 1.499 0 0 0-.415-1.35L3.08 28.218a.259.259 0 0 1 .16-.44l22.715-2.027a1.499 1.499 0 0 0 1.232-.872l9.907-21.728a.259.259 0 0 1 .47 0l9.908 21.728a1.499 1.499 0 0 0 1.231.872l22.713 2.027a.259.259 0 0 1 .16.441z"/><path class="cls-1" d="M37.92 12.603a1.501 1.501 0 0 0-1.97.788l-5.276 12.312a1.5 1.5 0 0 0 2.758 1.181l5.276-12.311a1.5 1.5 0 0 0-.788-1.97zM28.9 38.837a35.001 35.001 0 0 0 .183 3.936h-.042a27.411 27.411 0 0 0-1.541-3.235l-1.961-3.46h-2.494v9.441h1.961v-2.844c0-1.54-.028-2.87-.084-4.118l.042-.014a34.847 34.847 0 0 0 1.64 3.333l2.016 3.643h2.241v-9.441h-1.96zM34.848 41.527h3.474v-1.736h-3.474V37.83h3.684v-1.752h-5.827v9.441h6.023v-1.751h-3.88v-2.241zM48.669 39.944c-.196 1.12-.406 2.227-.546 3.278h-.028c-.14-1.05-.294-2.06-.505-3.166l-.756-3.978h-2.269l-.798 3.866a66.94 66.94 0 0 0-.617 3.32h-.028c-.154-.952-.35-2.17-.56-3.292l-.715-3.894h-2.283l2.241 9.441h2.34l.896-4.062c.224-.953.378-1.85.546-2.914h.028c.113 1.08.266 1.961.449 2.914l.798 4.062h2.311l2.438-9.441H49.44z"/></svg>