<svg id="Layer_1" data-name="Layer 1" xmlns="http://www.w3.org/2000/svg" viewBox="0 0 66.27673 66.25922"><defs><style>.cls-1{fill:#41494f}</style></defs><title>Top_Games</title><path class="cls-1" d="M61.825 16.568A33.11 33.11 0 0 0 16.576 4.443 33.125 33.125 0 0 0 4.452 49.692 33.11 33.11 0 0 0 49.7 61.816a33.124 33.124 0 0 0 12.125-45.248zM52.39 9.685l-5.808 6.451A21.619 21.619 0 0 0 23.514 13.7l-4.34-7.516A30.214 30.214 0 0 1 52.39 9.685zm-.973 28.342a18.933 18.933 0 0 1-18.26 14.03 18.994 18.994 0 0 1-16.407-9.465 18.928 18.928 0 0 1 16.37-28.389 18.992 18.992 0 0 1 16.406 9.465 18.798 18.798 0 0 1 1.89 14.36zM3.809 25.271A30.145 30.145 0 0 1 16.778 7.554l4.356 7.544a21.622 21.622 0 0 0-9.45 21.18l-8.51 1.809a30.272 30.272 0 0 1 .635-12.816zm3.034 23.04a30.5 30.5 0 0 1-3.091-7.523l8.522-1.812a21.54 21.54 0 0 0 17.23 15.518l-.908 8.643A30.473 30.473 0 0 1 6.843 48.311zM48.32 59.425a30.349 30.349 0 0 1-15.152 4.073c-.612 0-1.22-.024-1.827-.06l.91-8.651c.301.012.602.03.906.03a21.658 21.658 0 0 0 19.18-11.63l7.956 3.543A30.148 30.148 0 0 1 48.32 59.425zm14.147-18.436a30.848 30.848 0 0 1-1.06 3.216l-7.942-3.535c.233-.63.443-1.272.619-1.928a21.594 21.594 0 0 0-5.448-20.762l5.816-6.46a30.282 30.282 0 0 1 8.015 29.469z"/><path class="cls-1" d="M33.138 19.508l-4.33 8.771-9.68 1.408 7.005 6.828-1.654 9.64 8.659-4.552 8.659 4.553-1.654-9.641 7.005-6.828-9.68-1.408zm4.038 16.041l.954 5.56-4.992-2.625-4.992 2.625.954-5.56-4.039-3.935 5.581-.811 2.496-5.057 2.496 5.057 5.58.811z"/></svg>