<svg id="Layer_1" data-name="Layer 1" xmlns="http://www.w3.org/2000/svg" viewBox="0 0 70.64 70.66"><defs><style>.cls-1{fill:#41494f;}</style></defs><title>ICNEvents</title><path class="cls-1" d="M70.59,52.83a1.2,1.2,0,0,0-1-.82L60.3,50.7l-4.16-8.12a1.24,1.24,0,0,0-2.13,0L49.85,50.7,40.54,52a1.2,1.2,0,0,0-.66,2.06l6.71,6.3L45,69.25a1.19,1.19,0,0,0,1.72,1.28l8.34-4.23,8.34,4.23a1.21,1.21,0,0,0,.54.13,1.19,1.19,0,0,0,.71-.23,1.21,1.21,0,0,0,.47-1.18l-1.58-8.89,6.71-6.3a1.21,1.21,0,0,0,.32-1.23Zm-9.15,6.24a1.2,1.2,0,0,0-.36,1.08l1.28,7.17L55.61,63.9a1.2,1.2,0,0,0-1.08,0l-6.74,3.41,1.27-7.17a1.18,1.18,0,0,0-.36-1.08l-5.36-5,7.45-1a1.2,1.2,0,0,0,.9-.64l3.37-6.59,3.38,6.59a1.19,1.19,0,0,0,.89.64l7.45,1Zm0,0"/><path class="cls-1" d="M43.1,38.31H53.88V25.14H8.38V59.86H32.33V49.09H43.1Zm0-10.78h8.38v8.38H43.1Zm-10.77,0h8.38v8.38H32.33Zm-10.78,0h8.38v8.38H21.55Zm8.38,19.16H21.55V38.31h8.38ZM10.77,27.53h8.38v8.38H10.77Zm0,10.78h8.38v8.38H10.77Zm8.38,19.15H10.77V49.09h8.38Zm10.77,0H21.55V49.09h8.38ZM40.71,46.69H32.33V38.31h8.38Zm0,0"/><path class="cls-1" d="M31.13,65.85H2.4V19.16H59.86V39.51a1.2,1.2,0,0,0,2.4,0V6a1.2,1.2,0,0,0-1.2-1.2h-6V1.2A1.2,1.2,0,0,0,53.88,0H45.49A1.19,1.19,0,0,0,44.3,1.2V4.79H18V1.2A1.2,1.2,0,0,0,16.76,0H8.38a1.2,1.2,0,0,0-1.2,1.2V4.79h-6A1.2,1.2,0,0,0,0,6V67a1.2,1.2,0,0,0,1.2,1.2H31.13a1.2,1.2,0,1,0,0-2.4ZM46.69,2.4h6V9.58h-6ZM9.58,2.4h6V9.58h-6ZM2.4,7.19H7.19v3.59A1.2,1.2,0,0,0,8.38,12h8.38a1.2,1.2,0,0,0,1.2-1.2V7.19H44.3v3.59A1.19,1.19,0,0,0,45.49,12h8.38a1.2,1.2,0,0,0,1.2-1.2V7.19h4.79v9.58H2.4Zm0,0"/></svg>