<svg id="Layer_1" data-name="Layer 1" xmlns="http://www.w3.org/2000/svg" viewBox="0 0 20.02002 20.02002"><defs><style>.cls-1{fill:#41494e;}</style></defs><title>90Ball</title><path class="cls-1" d="M6.1,9.37a1.29848,1.29848,0,0,0,.44-.94l.02-.01a1.53139,1.53139,0,0,1,.2,1.07,1.97573,1.97573,0,0,1-.47.89,2.846,2.846,0,0,1-.35.35l.64.64A4.26626,4.26626,0,0,0,6.95,11a2.89534,2.89534,0,0,0,.83-1.8A2.90782,2.90782,0,0,0,6.8,7.01a1.865,1.865,0,0,0-2.79-.18,1.765,1.765,0,0,0-.06,2.54A1.46624,1.46624,0,0,0,6.1,9.37ZM4.57,7.44c.37-.37.87-.14,1.23.22a.51837.51837,0,0,1,.16.25.72287.72287,0,0,1-1.26.6A.739.739,0,0,1,4.57,7.44Z"/><path class="cls-1" d="M10.51,7.45c.88-.88.57-2.04-.49-3.1-.95-.95-2.13-1.41-3.04-.49-.89.89-.53,2.1.47,3.1C8.43,7.93,9.62,8.34,10.51,7.45ZM7.57,4.48c.32-.32.89-.08,1.65.68.78.79,1,1.35.69,1.66s-.88.12-1.66-.67C7.45,5.36,7.27,4.78,7.57,4.48Z"/><path class="cls-1" d="M10.01,0A10.01,10.01,0,1,0,20.02,10.01,10.02073,10.02073,0,0,0,10.01,0ZM7.96,1.82a4.57037,4.57037,0,0,1,3.26,1.29c1.92,1.92,1.67,5.31-.56,7.54s-5.62,2.48-7.54.56S1.45,5.9,3.68,3.67A6.12871,6.12871,0,0,1,7.96,1.82Zm2.05,17.33A9.07641,9.07641,0,0,1,.99683,8.62085,5.30708,5.30708,0,0,0,2.5,11.83a5.39194,5.39194,0,0,0,3.87,1.55,6.95643,6.95643,0,0,0,4.9-2.11c2.57-2.57,2.82-6.51.56-8.77A5.29136,5.29136,0,0,0,8.59814.9906,9.135,9.135,0,1,1,10.01,19.15Z"/><path class="cls-1" d="M17.17,9.56a.44392.44392,0,0,0-.44.44,6.72166,6.72166,0,0,1-6.72,6.72.44.44,0,1,0,0,.88,7.61581,7.61581,0,0,0,7.6-7.6A.44388.44388,0,0,0,17.17,9.56Z"/></svg>