<svg id="Layer_1" data-name="Layer 1" xmlns="http://www.w3.org/2000/svg" viewBox="0 0 65.03238 73.5083"><defs><style>.cls-1{fill:#41494f;}</style></defs><title>In-Play</title><path class="cls-1" d="M32.51619,73.5083A32.5233,32.5233,0,0,1,9.8105,17.70638l.15562-.152L3.96549,11.55484,5.88326,9.63707l6.117,6.118.15038-.12052A32.24616,32.24616,0,0,1,30.94844,8.51365l.20488-.01048V2.71108H25.17207V0H39.69578V2.71108H33.86439v5.791l.20488.01048a32.24853,32.24853,0,0,1,18.78892,7.102l.14986.12052,6.12482-6.12429,1.91725,1.91777-6.00535,6.00483.15562.152A32.52332,32.52332,0,0,1,32.51619,73.5083Zm0-62.30663A29.79725,29.79725,0,1,0,62.3061,41.00678,29.82333,29.82333,0,0,0,32.51619,11.20167Z"/><path class="cls-1" d="M32.51619,66.11388A25.19,25.19,0,1,1,57.78938,41.00678,25.3011,25.3011,0,0,1,32.51619,66.11388Zm0-47.66868A22.56107,22.56107,0,1,0,55.07778,41.00678,22.58721,22.58721,0,0,0,32.51619,18.44519Z"/><polygon class="cls-1" points="31.153 42.356 31.153 21.549 33.88 21.549 33.88 39.643 47.089 39.643 47.089 42.356 31.153 42.356"/></svg>