<svg id="Layer_1" data-name="Layer 1" xmlns="http://www.w3.org/2000/svg" viewBox="0 0 59.43359 74.87402"><defs><style>.cls-1{fill:#41494f;}</style></defs><title>Live_Casino</title><path class="cls-1" d="M3.98047,74.874A3.98479,3.98479,0,0,1,0,70.89453v-8.127a9.11416,9.11416,0,0,1,6.91406-8.85449L12.125,52.61035c-.53223-.21777-1.084-.45215-1.63867-.69824-4.64453-2.06445-6.626-3.69922-6.626-5.4668,0-17.10352,2.25586-29.041,6.89648-36.49316C14.92773,3.25586,21.12988,0,29.7168,0s14.78906,3.25586,18.959,9.95215c4.64063,7.45215,6.89648,19.38965,6.89648,36.49316,0,1.76758-1.98145,3.40332-6.626,5.4668-.55371.24609-1.10645.48047-1.6377.69824l5.21092,1.30273a9.115,9.115,0,0,1,6.91408,8.85449v8.127A3.98479,3.98479,0,0,1,55.45313,74.874Zm51.47266-2.8125a1.16822,1.16822,0,0,0,1.167-1.167v-8.127a6.30467,6.30467,0,0,0-4.7832-6.125l-7.60059-1.90137C39.35059,61.10449,33.76367,64.624,30.15039,65.79785a1.41224,1.41224,0,0,1-.43359.06934,1.36539,1.36539,0,0,1-.43555-.07031c-3.6123-1.17285-9.19922-4.69238-14.085-11.05566L7.59668,56.64258a6.30467,6.30467,0,0,0-4.7832,6.125v8.127a1.16822,1.16822,0,0,0,1.167,1.167h6.31445v-5.7373a1.40625,1.40625,0,1,1,2.8125,0v5.7373H46.3252v-5.7373a1.40625,1.40625,0,1,1,2.8125,0v5.7373Zm-37.25-18.07129c3.57813,4.31641,7.85938,7.65918,11.51367,8.9834,3.65332-1.32422,7.93457-4.667,11.51367-8.9834l-1.21-.30176a5.26091,5.26091,0,0,1-3.99023-5.11035V47.7627a15.18428,15.18428,0,0,1-12.62793,0v.81543a5.26111,5.26111,0,0,1-3.98926,5.11035ZM6.67383,46.39746c.02246,0,.61621,1.05371,5.28809,3.09082,2.16992.94629,4.27246,1.69141,4.94922,1.92578l1.81934-.45508a2.45078,2.45078,0,0,0,1.8584-2.38086V46.14453c-5.55859-3.94141-9.00684-11.21094-9.00684-19.002V25.85547a1.42616,1.42616,0,0,1,.42188-1.00586c3.18262-3.10645,7.99707-5.37109,14.31055-6.73145a67.69206,67.69206,0,0,1,13.69629-1.38965,1.40932,1.40932,0,0,1,1.35547,1.03223A30.14294,30.14294,0,0,0,47.291,29.3584a1.41526,1.41526,0,0,1,.335,1.09863,23.669,23.669,0,0,1-5.94824,13.21484,18.70016,18.70016,0,0,1-2.834,2.47754v2.42871A2.45249,2.45249,0,0,0,40.70313,50.959l1.81836.45508c.83691-.291,2.877-1.02051,4.96387-1.93164,4.75488-2.07422,5.27148-3.123,5.291-3.167-.02148-16.45508-2.1377-27.88965-6.48828-34.876-3.66406-5.88477-8.93066-8.626-16.57129-8.626-7.6416,0-12.9082,2.74121-16.57228,8.626-4.34959,6.98438-6.4658,18.41992-6.47068,34.959Zm7.72068-19.25488c0,10.57715,6.87307,19.18262,15.32228,19.18262A13.61469,13.61469,0,0,0,39.624,41.75a20.75105,20.75105,0,0,0,5.127-11.03711,32.90705,32.90705,0,0,1-5.792-11.16211c-5.31543.09473-17.97461.9707-24.56447,6.915Z"/></svg>