<svg id="Layer_1" data-name="Layer 1" xmlns="http://www.w3.org/2000/svg" viewBox="0 0 73.4502 70.8418"><defs><style>.cls-1{fill:#41494f;}</style></defs><title>Promotions</title><path class="cls-1" d="M73.4502,33.30078A12.30058,12.30058,0,0,0,65.78027,21.9541V5.73926A5.74524,5.74524,0,0,0,60.041,0h-.68457c-1.24512,0-2.2832,1.02637-5.69434,4.58789-5.69629,5.94922-16.30078,17.02246-26.93457,17.02246H7.24512A7.25314,7.25314,0,0,0,0,28.85547v8.89063a7.25314,7.25314,0,0,0,7.24512,7.24512H8.42969L13.373,65.8584a6.797,6.797,0,0,0,6.2998,4.9834h6.96191a4.74469,4.74469,0,0,0,3.98633-2.66992,4.54867,4.54867,0,0,0,.09766-4.66113l-4.63867-7.2998c-1.60742-2.5293-1.69238-5.292-1.7832-8.21777-.03027-.9834-.06836-1.98877-.15869-3.002h2.58838c10.63281,0,21.23828,11.07324,26.93555,17.02246,3.41113,3.56152,4.44922,4.58789,5.69434,4.58789H60.041a5.74524,5.74524,0,0,0,5.73926-5.73926V44.64844A12.30348,12.30348,0,0,0,73.4502,33.30078ZM3,37.74609V28.85547a4.24985,4.24985,0,0,1,4.24512-4.24512H25.59668V41.99121H7.24512A4.24985,4.24985,0,0,1,3,37.74609ZM21.29883,48.08594c.09863,3.20117.20117,6.51074,2.25,9.73438l4.6377,7.29883a1.73417,1.73417,0,0,1-.19434,1.6084,1.94166,1.94166,0,0,1-1.35742,1.11426H19.67285A3.80445,3.80445,0,0,1,16.293,65.167L11.5127,44.99121h9.61914C21.2334,45.99316,21.26563,47.01855,21.29883,48.08594ZM60.041,63.60156H59.585a38.96175,38.96175,0,0,1-3.75586-3.66309c-5.69226-5.94287-16.02881-16.72876-27.23242-17.84619v-17.583c11.2041-1.1167,21.541-11.90308,27.23242-17.84619A38.84061,38.84061,0,0,1,59.585,3H60.041a2.742,2.742,0,0,1,2.73926,2.73926V22.55762l-.00586.01465a1.48733,1.48733,0,0,0,.00586.84839V43.18188a1.48963,1.48963,0,0,0-.00586.84937l.00586.01221V60.8623A2.742,2.742,0,0,1,60.041,63.60156Zm5.73926-22.27588V25.27637a9.22963,9.22963,0,0,1,0,16.04932Z"/></svg>