<svg id="Layer_1" data-name="Layer 1" xmlns="http://www.w3.org/2000/svg" viewBox="0 0 19.97 14.86"><defs><style>.cls-1{fill:#41494e;}</style></defs><title>Sports</title><path class="cls-1" d="M.28,14.86A.28616.28616,0,0,1,0,14.58V3.72a.28616.28616,0,0,1,.28-.28H6.47V.28A.28616.28616,0,0,1,6.75,0h6.47a.28616.28616,0,0,1,.28.28V6.24h6.19a.28616.28616,0,0,1,.28.28v8.05a.28616.28616,0,0,1-.28.28H.28Zm13.21-.56H19.4V6.81H13.49Zm-6.47,0h5.91V.56H7.02Zm-6.46,0H6.47V4H.56Z"/><path class="cls-1" d="M8.33,7.36a.28616.28616,0,0,1-.28-.28V6.57a.28.28,0,0,1,.56,0v.51A.28616.28616,0,0,1,8.33,7.36Z"/><path class="cls-1" d="M8.33,5.23a.28616.28616,0,0,1-.28-.28V1.91a.28.28,0,1,1,.56,0V4.95A.27951.27951,0,0,1,8.33,5.23Z"/><path class="cls-1" d="M10.27,12.78a.28616.28616,0,0,1-.28-.28V9.96l-.7.7a.27921.27921,0,0,1-.2.08.29731.29731,0,0,1-.2-.08.27921.27921,0,0,1-.08-.2.31758.31758,0,0,1,.08-.2l1.18-1.18a.27921.27921,0,0,1,.2-.08.42527.42527,0,0,1,.11.02.27605.27605,0,0,1,.17.26v3.21A.28183.28183,0,0,1,10.27,12.78Z"/><path class="cls-1" d="M2.76,12.78a.28651.28651,0,0,1-.26-.17.27937.27937,0,0,1,.06-.3l1.47-1.47a.58321.58321,0,0,0,.13-.64.56694.56694,0,0,0-.5-.37H3.63a.77032.77032,0,0,0-.77.77.28.28,0,0,1-.56,0A1.3294,1.3294,0,0,1,3.63,9.27h.06a1.11707,1.11707,0,0,1,1,.72,1.14117,1.14117,0,0,1-.26,1.24l-.99.99H4.57a.28.28,0,0,1,0,.56Z"/><path class="cls-1" d="M16.47,12.78a1.09256,1.09256,0,0,1-1.09-1.09.28.28,0,0,1,.56,0,.53.53,0,1,0,1.06,0,.51874.51874,0,0,0-.53-.52.28.28,0,1,1,0-.56.51874.51874,0,0,0,.53-.52.53.53,0,0,0-1.06,0,.28.28,0,0,1-.56,0,1.09,1.09,0,0,1,2.18,0,1.04158,1.04158,0,0,1-.28.71l-.07.08.07.08a1.06026,1.06026,0,0,1,.28.71A1.097,1.097,0,0,1,16.47,12.78Z"/></svg>