<svg id="Layer_1" data-name="Layer 1" xmlns="http://www.w3.org/2000/svg" viewBox="0 0 74.66 74.65"><defs><style>.cls-1{fill:#41494f}</style></defs><title>ICNBenefits</title><path class="cls-1" d="M14.11 39.85H1.58A1.59 1.59 0 0 0 0 41.44v31.62a1.58 1.58 0 0 0 1.58 1.58h12.53a1.59 1.59 0 0 0 1.58-1.58V41.44a1.58 1.58 0 0 0-1.58-1.58zm-1.59 31.61H3.17V43h9.35zm0 0M74.36 22.36L58.67.59a1.64 1.64 0 0 0-2.53 0L40.45 22.36a1.44 1.44 0 0 0 1.26 2.38h7.77V73a1.58 1.58 0 0 0 1.58 1.58h12.53A1.84 1.84 0 0 0 65.32 73V24.76h7.77a1.49 1.49 0 0 0 1.26-2.39zm-10.79-.79A1.59 1.59 0 0 0 62 23.16v48.3h-9.52v-48.3a1.58 1.58 0 0 0-1.58-1.58h-6.34L57.24 4.1l12.67 17.47zm0 0M38.85 34.44H26.32A1.59 1.59 0 0 0 24.74 36v37a1.58 1.58 0 0 0 1.58 1.58h12.53A1.59 1.59 0 0 0 40.43 73V36a1.59 1.59 0 0 0-1.58-1.58zm-1.58 37h-9.36V37.63h9.35zm0 0"/></svg>