<svg id="Layer_1" data-name="Layer 1" xmlns="http://www.w3.org/2000/svg" viewBox="0 0 75.63 74.86"><defs><style>.cls-1{fill:#41494f}</style></defs><title>ICNFAQ</title><path class="cls-1" d="M67.08 74.86H8.55A8.56 8.56 0 0 1 0 66.31V8.55A8.56 8.56 0 0 1 8.55 0h58.53a8.56 8.56 0 0 1 8.55 8.55V24a1.5 1.5 0 0 1-3 0V8.55A5.56 5.56 0 0 0 67.08 3H8.55A5.56 5.56 0 0 0 3 8.55v57.76a5.56 5.56 0 0 0 5.55 5.55h58.53a5.56 5.56 0 0 0 5.55-5.55V50.63a1.5 1.5 0 0 1 3 0v15.68a8.56 8.56 0 0 1-8.55 8.55z"/><path class="cls-1" d="M28.46 22.46a16.68 16.68 0 0 1 1.78-1.4 13.27 13.27 0 0 1 2.11-1.17 12.81 12.81 0 0 1 2.48-.8 13.42 13.42 0 0 1 2.88-.29 11.85 11.85 0 0 1 3.8.58 8.77 8.77 0 0 1 3 1.68 7.76 7.76 0 0 1 2 2.63 8.11 8.11 0 0 1 .71 3.44 8.87 8.87 0 0 1-.57 3.34 9.26 9.26 0 0 1-1.43 2.45 11.23 11.23 0 0 1-1.89 1.82l-1.98 1.46a13.45 13.45 0 0 0-1.55 1.36 2.74 2.74 0 0 0-.8 1.51l-.48 3.83h-3.36l-.36-4.19a3.12 3.12 0 0 1 .41-2 7.18 7.18 0 0 1 1.38-1.61 19.59 19.59 0 0 1 1.89-1.46A13.93 13.93 0 0 0 40.42 32a8.58 8.58 0 0 0 1.5-2 5.35 5.35 0 0 0 .61-2.63 4.25 4.25 0 0 0-.41-1.88A4.33 4.33 0 0 0 41 24.1a5 5 0 0 0-1.68-.91 6.57 6.57 0 0 0-2.06-.32 8 8 0 0 0-2.59.37 10.67 10.67 0 0 0-1.82.8 11.53 11.53 0 0 0-1.23.8 1.46 1.46 0 0 1-.81.37 1.12 1.12 0 0 1-1.07-.63zm4.93 30.25a3.33 3.33 0 0 1 .25-1.29 3.37 3.37 0 0 1 .7-1.07 3.28 3.28 0 0 1 2.37-1 3.2 3.2 0 0 1 1.29.27 3.43 3.43 0 0 1 1.79 1.79 3.2 3.2 0 0 1 .27 1.29 3.26 3.26 0 0 1-.26 1.3 3.44 3.44 0 0 1-.72 1.07 3.27 3.27 0 0 1-1.07.71 3.34 3.34 0 0 1-1.29.25 3.41 3.41 0 0 1-1.32-.25 3.12 3.12 0 0 1-1.05-.71 3.38 3.38 0 0 1-1-2.39z"/></svg>