<svg id="Layer_1" data-name="Layer 1" xmlns="http://www.w3.org/2000/svg" viewBox="0 0 60.53 75.93"><defs><style>.cls-1{fill:#41494f}</style></defs><title>ICNShopLocator</title><path class="cls-1" d="M30.26 0a14.66 14.66 0 0 0-14.65 14.64V15H5.93a1.54 1.54 0 0 0-1.53 1.39L0 66.12v.14c0 5.33 4.92 9.66 11 9.66h38.55c6.06 0 11-4.33 11-9.66v-.14l-4.44-49.74A1.53 1.53 0 0 0 54.58 15H44.9v-.35A14.66 14.66 0 0 0 30.26 0zM18.67 14.64a11.59 11.59 0 0 1 23.18 0V15H18.67zM53.18 18l4.28 48.27c0 3.62-3.58 6.55-7.92 6.55H11c-4.35 0-7.88-2.93-7.92-6.55L7.34 18h8.28v7.06a1.53 1.53 0 0 0 3.05 0V18h23.18v7.06a1.53 1.53 0 0 0 3.05 0V18zm0 0"/><path class="cls-1" d="M30.26 34.61a8.87 8.87 0 0 0-8.87 8.87c0 8.05 8.87 16.83 8.87 16.83s8.87-9.31 8.87-16.83a8.87 8.87 0 0 0-8.87-8.87zm0 14.38a5.52 5.52 0 1 1 5.52-5.52A5.52 5.52 0 0 1 30.26 49z"/></svg>