<svg id="Layer_1" data-name="Layer 1" xmlns="http://www.w3.org/2000/svg" viewBox="0 0 19.97003 16.04999"><defs><style>.cls-1{fill:#41494e}</style></defs><title>Change_Pass</title><path class="cls-1" d="M12.96 0L6.61 6.35l-.21-.06a4.885 4.885 0 0 0-1.42-.21 4.988 4.988 0 1 0 4.79 3.57l-.06-.21 1.21-1.21V6.42h1.98V4.44h1.79l1.34-1.34V.01h-.31zm2.46 2.84l-.97.97h-2.17V5.8h-1.99v2.16L9.11 9.14a.307.307 0 0 0-.07.34 4.355 4.355 0 0 1-7.13 4.67 4.346 4.346 0 0 1 0-6.16 4.303 4.303 0 0 1 3.08-1.28 4.448 4.448 0 0 1 1.6.3.359.359 0 0 0 .11.02.31.31 0 0 0 .22-.09l6.3-6.3h2.2z"/><path class="cls-1" d="M7.1 9.99l-1.81.59v-1.9h-.58v1.9L2.9 9.99l-.17.53 1.82.59-1.13 1.54.46.33L5 11.44l1.12 1.54.45-.33-1.12-1.54 1.82-.59-.17-.53zM15.05 9.79l-1.28.42V8.86h-.41v1.35l-1.28-.42-.12.38 1.29.41-.8 1.09.33.23.79-1.08.79 1.08.32-.23-.79-1.09 1.28-.41-.12-.38zM19.97 10.17l-.12-.38-1.28.42V8.86h-.41v1.35l-1.28-.42-.12.38 1.29.41-.8 1.09.33.23.79-1.08.79 1.08.32-.23-.8-1.09 1.29-.41z"/></svg>