<svg id="Layer_1" data-name="Layer 1" xmlns="http://www.w3.org/2000/svg" viewBox="0 0 15.40844 19.91"><defs><style>.cls-1{fill:#41494e}</style></defs><title>Deposit</title><path class="cls-1" d="M4.22 13.22a1.522 1.522 0 0 1-1.37-.83L.17 7.13a1.53 1.53 0 0 1-.08-1.17 1.613 1.613 0 0 1 .79-.91L10.45.18a1.576 1.576 0 0 1 .73-.18 1.522 1.522 0 0 1 1.37.83l2.67 5.26a1.487 1.487 0 0 1 .08 1.17 1.608 1.608 0 0 1-.79.91l-9.57 4.87a1.632 1.632 0 0 1-.72.18zm-.73-1.15a.829.829 0 0 0 .75.45.819.819 0 0 0 .4-.1l9.56-4.86a.87.87 0 0 0 .39-1.15l-1.84-3.62L1.64 8.44zM11.16.7a.819.819 0 0 0-.4.1L1.2 5.66a.884.884 0 0 0-.44.51.839.839 0 0 0 .05.64l.34.68 11.11-5.65-.34-.68a.865.865 0 0 0-.76-.46z"/><path class="cls-1" d="M4.199 10.8l2.3-1.18.08-.02.26.51-2.31 1.18-.07.02-.26-.51zM10.71 8.02a1.016 1.016 0 0 1-.44-1.94 1.044 1.044 0 0 1 .49-.12h.08l.17.02.09-.15a1.015 1.015 0 0 1 .43-.39 1.044 1.044 0 0 1 .49-.12 1.004 1.004 0 0 1 .97 1.34 1.095 1.095 0 0 1-.53.61 1.044 1.044 0 0 1-.49.12h-.08l-.18-.03-.09.14a1.015 1.015 0 0 1-.43.39.938.938 0 0 1-.48.13zM11.12 19.91a1.626 1.626 0 0 1-.75-.18L.86 14.75a1.61 1.61 0 0 1-.78-.92 1.489 1.489 0 0 1 .09-1.17l.53-.99.39.76-.27.56a.88.88 0 0 0-.06.64.867.867 0 0 0 .43.51l9.51 4.98a.857.857 0 0 0 .41.1.84.84 0 0 0 .75-.45l1.89-3.6-4.26-2.23 1.16-.59 3.6 1.87.35-.67a.863.863 0 0 0-.37-1.15l-1.81-.95.73-.37 1.4.71a1.61 1.61 0 0 1 .78.92 1.489 1.489 0 0 1-.09 1.17l-2.74 5.23a1.584 1.584 0 0 1-1.38.8z"/></svg>