<svg id="Layer_1" data-name="Layer 1" xmlns="http://www.w3.org/2000/svg" viewBox="0 0 19.94 19.94"><defs><style>.cls-1{fill:#41494e}</style></defs><title>Free_Bets</title><path class="cls-1" d="M9.97 0a9.97 9.97 0 1 0 9.97 9.97A9.978 9.978 0 0 0 9.97 0zm0 19.25a9.285 9.285 0 1 1 9.28-9.29 9.287 9.287 0 0 1-9.28 9.29z"/><path class="cls-1" d="M3.94 14.28h1.3l.44-3.49h2.95l.14-1.05H5.8l.34-2.72h3.48l.13-1.06H4.96l-1.02 8.32zM15.6 6.47a2.326 2.326 0 0 0-.79-.38 4.336 4.336 0 0 0-1.15-.13h-2.57l-1.02 8.32h2.84a3.864 3.864 0 0 0 1.28-.2 2.81 2.81 0 0 0 .96-.55 2.52 2.52 0 0 0 .61-.84 2.64 2.64 0 0 0 .21-1.06 1.513 1.513 0 0 0-.36-1.04 2.003 2.003 0 0 0-1.08-.58 2.682 2.682 0 0 0 .74-.36 2.256 2.256 0 0 0 .52-.5 2.068 2.068 0 0 0 .31-.61 2.26 2.26 0 0 0 .1-.69 2.11 2.11 0 0 0-.14-.77 1.397 1.397 0 0 0-.46-.61zm-.92 5.17a1.987 1.987 0 0 1-.1.66 1.317 1.317 0 0 1-.84.84 2.107 2.107 0 0 1-.75.12h-1.51l.33-2.7h1.51a1.545 1.545 0 0 1 1.03.29.967.967 0 0 1 .33.79zm-.24-2.41a1.832 1.832 0 0 1-1.29.41h-1.21l.32-2.66h1.28a1.649 1.649 0 0 1 1.01.26.98.98 0 0 1 .33.82 1.538 1.538 0 0 1-.44 1.17z"/></svg>