<svg id="Layer_1" data-name="Layer 1" xmlns="http://www.w3.org/2000/svg" viewBox="0 0 19.95064 19.96997"><defs><style>.cls-1{fill:#41494e}</style></defs><title>Manage_MyAccount</title><path class="cls-1" d="M18.95 7.77h-1.87a.697.697 0 0 1-.66-.44.69.69 0 0 1 .16-.78l1.32-1.32a1.028 1.028 0 0 0 .3-.73 1.064 1.064 0 0 0-.3-.73l-1.68-1.68a1.045 1.045 0 0 0-1.45 0l-1.32 1.32a.707.707 0 0 1-.78.16.693.693 0 0 1-.44-.66V1.03A1.029 1.029 0 0 0 11.2 0H8.82a1.029 1.029 0 0 0-1.03 1.03V2.9a.723.723 0 0 1-1.24.5L5.23 2.08a1.045 1.045 0 0 0-1.45 0L2.09 3.77a.989.989 0 0 0-.3.73 1.064 1.064 0 0 0 .3.73l1.32 1.32a.707.707 0 0 1 .16.78.72.72 0 0 1-.67.44H1.03A1.029 1.029 0 0 0 0 8.8v2.38a1.028 1.028 0 0 0 1.03 1.03H2.9a.697.697 0 0 1 .66.44.674.674 0 0 1-.16.78l-1.31 1.32a1.028 1.028 0 0 0-.3.73 1.046 1.046 0 0 0 .3.73l1.68 1.68a1.045 1.045 0 0 0 1.45 0l1.32-1.32a.707.707 0 0 1 .78-.16.693.693 0 0 1 .44.66v1.87a1.029 1.029 0 0 0 1.03 1.03h2.38a1.029 1.029 0 0 0 1.03-1.03v-1.87a.697.697 0 0 1 .44-.66.674.674 0 0 1 .78.16l1.32 1.32a1.045 1.045 0 0 0 1.45 0l1.68-1.68a1.028 1.028 0 0 0 .3-.73 1.064 1.064 0 0 0-.3-.73l-1.32-1.32a.707.707 0 0 1-.16-.78.683.683 0 0 1 .66-.44h1.87a1.029 1.029 0 0 0 1.03-1.03V8.8a.997.997 0 0 0-1-1.03zm.29 3.41a.29.29 0 0 1-.29.29h-1.87a1.456 1.456 0 0 0-1.03 2.49l1.32 1.32a.296.296 0 0 1 0 .41l-1.68 1.68a.296.296 0 0 1-.41 0l-1.32-1.32a1.426 1.426 0 0 0-1.59-.32 1.448 1.448 0 0 0-.9 1.35v1.87a.29.29 0 0 1-.29.29H8.8a.29.29 0 0 1-.29-.29v-1.88a1.433 1.433 0 0 0-.9-1.35 1.421 1.421 0 0 0-1.59.31L4.7 17.35a.296.296 0 0 1-.41 0l-1.68-1.68a.296.296 0 0 1 0-.41l1.32-1.32a1.423 1.423 0 0 0 .31-1.59 1.438 1.438 0 0 0-1.35-.9H1.03a.29.29 0 0 1-.29-.29V8.78a.29.29 0 0 1 .29-.29H2.9A1.462 1.462 0 0 0 3.94 6L2.61 4.7a.296.296 0 0 1 0-.41l1.68-1.68a.296.296 0 0 1 .41 0l1.32 1.32a1.447 1.447 0 0 0 1.59.31 1.424 1.424 0 0 0 .9-1.35V1.03A.29.29 0 0 1 8.8.74h2.38a.29.29 0 0 1 .29.29V2.9a1.462 1.462 0 0 0 2.49 1.04l1.32-1.32a.296.296 0 0 1 .41 0l1.68 1.68a.296.296 0 0 1 0 .41l-1.32 1.32a1.456 1.456 0 0 0 1.03 2.49h1.87a.29.29 0 0 1 .29.29z"/><path class="cls-1" d="M9.99 6.66a3.33 3.33 0 1 0 3.33 3.33 3.329 3.329 0 0 0-3.33-3.33zm0 5.91a2.59 2.59 0 1 1 2.59-2.59 2.59 2.59 0 0 1-2.59 2.59z"/></svg>