<svg id="Layer_1" data-name="Layer 1" xmlns="http://www.w3.org/2000/svg" viewBox="0 0 19.88 19.9"><defs><style>.cls-1{fill:#41494e}</style></defs><title>Open_Bets</title><path class="cls-1" d="M.33 19.9a.333.333 0 0 1-.33-.33V9.95a.333.333 0 0 1 .33-.33h2.95L9.45.16A.331.331 0 0 1 9.73 0a.32.32 0 0 1 .28.16l5.65 9.46h3.89a.333.333 0 0 1 .33.33v9.62a.333.333 0 0 1-.33.33zm.34-.67h18.56v-8.95H.67zm3.4-9.62h10.81L9.73.96z"/><path class="cls-1" d="M6.29 14.35a3.037 3.037 0 0 1-.81 2.13 2.186 2.186 0 0 1-1.59.63 1.697 1.697 0 0 1-1.75-1.84 3.078 3.078 0 0 1 .83-2.14 2.234 2.234 0 0 1 1.56-.62 1.673 1.673 0 0 1 1.76 1.84zm-2.72-.81a2.603 2.603 0 0 0-.62 1.69c0 .67.3 1.23 1.05 1.23a1.24 1.24 0 0 0 .87-.38 2.668 2.668 0 0 0 .6-1.7c0-.59-.2-1.22-1.02-1.22a1.21 1.21 0 0 0-.88.38zM7.36 12.66a4.663 4.663 0 0 1 1.08-.11 1.886 1.886 0 0 1 1.14.32 1.052 1.052 0 0 1 .41.88 1.515 1.515 0 0 1-.57 1.21 2.292 2.292 0 0 1-1.39.42c-.16 0-.3-.02-.42-.03l-.32 1.68h-.76zm.36 2.06a1.642 1.642 0 0 0 .4.04.984.984 0 0 0 1.08-.94c0-.47-.34-.64-.77-.64a1.428 1.428 0 0 0-.42.04zM12.82 15.05h-1.6l-.25 1.33h1.8l-.13.65h-2.57l.85-4.45h2.47l-.13.65h-1.7l-.22 1.17h1.61zM13.35 17.03l.85-4.45h.88l.78 2.07a11.817 11.817 0 0 1 .4 1.39h.01a12.164 12.164 0 0 1 .2-1.51l.37-1.95h.73l-.85 4.45h-.79l-.8-2.11a10.468 10.468 0 0 1-.42-1.43l-.03.01c-.05.42-.14.97-.26 1.63l-.36 1.9z"/></svg>