<svg id="Layer_1" data-name="Layer 1" xmlns="http://www.w3.org/2000/svg" viewBox="0 0 19.98771 19.28998"><defs><style>.cls-1{fill:#41494e}</style></defs><title>Redeem_Points</title><path class="cls-1" d="M8.16 4.17a.436.436 0 0 0 .11.09c.04.02.07.04.09.05l.57-.45v2.33h.76V3.03c-.01 0-.02-.01-.04-.02a.47.47 0 0 0-.09-.03l-.12-.03a.664.664 0 0 0-.14-.01.806.806 0 0 0-.32.07 1.098 1.098 0 0 0-.15.08 1.365 1.365 0 0 0-.17.12l-.28.21a2.249 2.249 0 0 0-.26.22.383.383 0 0 0-.09.27.282.282 0 0 0 .04.15.735.735 0 0 0 .09.11zM19.79 12.44a1.335 1.335 0 0 0-1.09-.55h-.04a2.015 2.015 0 0 0-.68.14l-.29.1-.12-.29a1.23 1.23 0 0 0-.19-.31 1.072 1.072 0 0 0-.83-.36 1.643 1.643 0 0 0-.37.05 2.463 2.463 0 0 0-.64.26l-.23.13-.17-.2a.909.909 0 0 0-.21-.18.992.992 0 0 0-.53-.13 5.179 5.179 0 0 0-2.2.86l-1.76.94a.32.32 0 0 0-.17.21 3.858 3.858 0 0 1-1.13-.31 13.048 13.048 0 0 1-2.21-1.47c-.33-.26-.68-.52-1.03-.77a2.065 2.065 0 0 0-1.22-.34 2.938 2.938 0 0 0-.65.07 8.76 8.76 0 0 0-1.82.65c-.2.09-.4.18-.6.26l-1.39.56a.345.345 0 0 0-.19.46.348.348 0 0 0 .32.22.276.276 0 0 0 .13-.03l1.39-.56.57-.24.05-.02a8.275 8.275 0 0 1 1.68-.6 2.345 2.345 0 0 1 .52-.05 1.411 1.411 0 0 1 .81.22c.34.24.67.5 1 .75a13.674 13.674 0 0 0 2.33 1.55 7.09 7.09 0 0 0 2.97.46c.22 0 .44 0 .65.01a2.583 2.583 0 0 1 .32.02l.51.06-.28.43c-.04.07-.14.17-.45.32a6.218 6.218 0 0 1-2.59.59 5.823 5.823 0 0 1-.59-.03 9.172 9.172 0 0 1-3.12-1.16.293.293 0 0 0-.16-.04.336.336 0 0 0-.15.64 10.082 10.082 0 0 0 3.36 1.23c.21.02.44.04.66.04a6.947 6.947 0 0 0 2.88-.66 1.35 1.35 0 0 0 .9-1.01 1.022 1.022 0 0 0-.66-1.07 1.961 1.961 0 0 0-.61-.09c-.22-.01-.44-.01-.67-.01h-.41l.87-.46c.07-.04.16-.09.28-.16a4.226 4.226 0 0 1 1.81-.76h.29l.04.28a.618.618 0 0 1 .01.15.343.343 0 0 0 .19.31.317.317 0 0 0 .16.04.36.36 0 0 0 .2-.06l.44-.3a2.065 2.065 0 0 1 .66-.31.88.88 0 0 1 .21-.03.32.32 0 0 1 .16.03l.08.03.05.06a.76.76 0 0 1 .03.73v.01a.337.337 0 0 0 .01.26.39.39 0 0 0 .19.19.274.274 0 0 0 .13.02.351.351 0 0 0 .29-.15l.02-.03v-.08l.1-.1.07.05c.08-.04.22-.1.46-.2a1.423 1.423 0 0 1 .52-.12h.06a.616.616 0 0 1 .52.28l.07.11-.03.13c-.05.22-.32.47-.85.77-.72.41-1.42.86-2.1 1.29l-1.65 1.05c-.74.47-1.5.97-2.28 1.42l-.09.05a6.485 6.485 0 0 1-1.53.73 4.534 4.534 0 0 1-1.25.17 3.916 3.916 0 0 1-.49-.03 9.745 9.745 0 0 1-1.59-.4l-.4-.13c-.22-.07-.43-.14-.65-.21l-.02-.01a17.307 17.307 0 0 0-1.94-.54 9.334 9.334 0 0 0-1.66-.16 9.202 9.202 0 0 0-1.17.08.348.348 0 0 0-.3.39.356.356 0 0 0 .35.31h.05a7.836 7.836 0 0 1 1.08-.07 8.8 8.8 0 0 1 1.53.14 14.674 14.674 0 0 1 1.85.52c.23.07.46.15.69.22l.39.12a8.918 8.918 0 0 0 1.71.43 5.647 5.647 0 0 0 .59.04 5.479 5.479 0 0 0 1.43-.2 7.077 7.077 0 0 0 1.71-.81l.08-.05c.8-.47 1.58-.97 2.34-1.46l1.61-1.03c.67-.43 1.37-.87 2.07-1.27a2.186 2.186 0 0 0 1.18-1.21 1.104 1.104 0 0 0-.18-.82z"/><path class="cls-1" d="M9.1 9.32a4.66 4.66 0 1 0-4.66-4.66A4.665 4.665 0 0 0 9.1 9.32zm0-8.61a3.96 3.96 0 1 1-3.96 3.96A3.963 3.963 0 0 1 9.1.71zM15.26 6.6c.02.02.05.04.07.06a.207.207 0 0 0 .06.04l.38-.3v1.56h.51V5.84a.044.044 0 0 0-.03-.01c-.02-.01-.04-.01-.06-.02s-.05-.01-.08-.02a.276.276 0 0 0-.09-.01.486.486 0 0 0-.12.01l-.1.03a.467.467 0 0 0-.1.05c-.03.02-.07.05-.11.08l-.19.14a1.38 1.38 0 0 0-.17.15.244.244 0 0 0-.06.18.169.169 0 0 0 .03.1.155.155 0 0 0 .06.08z"/><path class="cls-1" d="M15.89 10.17a3.234 3.234 0 0 0 .33-6.45h-.04a.356.356 0 0 0-.35.31.347.347 0 0 0 .31.38 2.532 2.532 0 0 1-.26 5.05 2.558 2.558 0 0 1-1.35-.39.32.32 0 0 0-.19-.05.366.366 0 0 0-.3.16.378.378 0 0 0 .12.49 3.2 3.2 0 0 0 1.73.5z"/></svg>