<svg id="Layer_1" data-name="Layer 1" xmlns="http://www.w3.org/2000/svg" viewBox="0 0 15.93769 19.95"><defs><style>.cls-1{fill:#41494e}</style></defs><title>Responsible_Gambling</title><path class="cls-1" d="M9.868 19.95c-2.83 0-4.85-.98-6.17-2.99-1-1.52-3.36-5.09-3.36-5.09a2.084 2.084 0 0 1-.29-1.57 1.885 1.885 0 0 1 .81-1.17 1.889 1.889 0 0 1 .98-.28 2.109 2.109 0 0 1 1.56.74l.54.63v-7.1a1.673 1.673 0 0 1 1.67-1.67 1.76 1.76 0 0 1 .78.19l.38.2.07-.43A1.676 1.676 0 0 1 9.978.9l.16.31.29-.2a1.698 1.698 0 0 1 .95-.3 1.673 1.673 0 0 1 1.67 1.67v.9l.45-.23a1.683 1.683 0 0 1 2.44 1.49v9.74a5.727 5.727 0 0 1-1.35 3.8 5.831 5.831 0 0 1-4.72 1.87zM1.848 9.6a1.213 1.213 0 0 0-.59.16 1.096 1.096 0 0 0-.49.71 1.326 1.326 0 0 0 .19 1s2.36 3.57 3.36 5.09c1.19 1.81 2.96 2.66 5.56 2.66 4.96 0 5.35-3.76 5.35-4.91V4.57a.94.94 0 0 0-1.88 0v4.69a.5.5 0 0 1-1 0V2.41a.94.94 0 1 0-1.88 0v6.13a.5.5 0 1 1-1 0V1.69a.94.94 0 1 0-1.88 0v6.85a.501.501 0 0 1-.5.5.495.495 0 0 1-.5-.5V3.13a.94.94 0 1 0-1.88 0v9.02a.13.13 0 0 1-.1.13c-.01 0-.03.01-.04.01a.125.125 0 0 1-.11-.06l-1.48-2.02a1.444 1.444 0 0 0-1.13-.61z"/></svg>