<svg id="Layer_1" data-name="Layer 1" xmlns="http://www.w3.org/2000/svg" viewBox="0 0 19.66003 20.06006"><defs><style>.cls-1{fill:#41494e}</style></defs><title>Transactions_History</title><path class="cls-1" d="M6.05 3.63c0-.32-.32-.52-.83-.52s-.82.19-.82.52v2.53a.826.826 0 0 0 .82.83h2.9v-.63h-2.9a.2.2 0 0 1-.2-.2V3.75a.65.65 0 0 1 .2-.02 1.13 1.13 0 0 1 .2.02v2.21h2.7v-.63H6.05z"/><path class="cls-1" d="M11.42 5.71a5.71 5.71 0 1 0-5.71 5.71 5.715 5.715 0 0 0 5.71-5.71zm-5.71 5.11a5.115 5.115 0 1 1 5.12-5.11 5.121 5.121 0 0 1-5.12 5.11z"/><path class="cls-1" d="M19.63 5.48v-.03H13.4v.64h5.62v13.34H6.65v-6.01h-.64v6.64h13.65V5.48h-.03z"/><path class="cls-1" d="M16.37 13.67v-2.03h-7.4v2.13h7.4zm-.63-.62H9.59v-.69h6.15zM8.96 15.62v1.41h7.4v-2.02h-7.4v.61zm.63.01h6.15v.79H9.59zM16.05 10.51h.31V8.48h-4.43v2.03h4.12zm-3.5-1.41h3.19v.79h-3.19z"/></svg>