<svg id="Layer_1" data-name="Layer 1" xmlns="http://www.w3.org/2000/svg" viewBox="0 0 19.89996 14.91998"><defs><style>.cls-1{fill:#41494e}</style></defs><title>Voucher_Codes</title><path class="cls-1" d="M18.24 0H1.66A1.656 1.656 0 0 0 0 1.66v11.6a1.656 1.656 0 0 0 1.66 1.66h16.58a1.656 1.656 0 0 0 1.66-1.66V1.66A1.669 1.669 0 0 0 18.24 0zM6.63.83h11.6a.828.828 0 0 1 .83.83v2.73h-8.28v-.4a1.76 1.76 0 0 0-1.67-1.84 1.556 1.556 0 0 0-.9.29l-1.4 1c-.05-.01-.11-.03-.18-.04zm.86 3.15l1.2-.86a.729.729 0 0 1 .42-.14.94.94 0 0 1 .84 1.01v1.29a1.102 1.102 0 0 1-.27.74.717.717 0 0 1-.86.2l-1.31-.58a1.221 1.221 0 0 0 .16-.6v-.42a1.284 1.284 0 0 0-.18-.64zM.83 1.66a.828.828 0 0 1 .83-.83h4.15V3.4c-.07.01-.13.03-.18.04l-1.4-.99a1.556 1.556 0 0 0-.9-.29A1.767 1.767 0 0 0 1.66 4v.4H.83zm4.1 3.98l-1.31.59a.753.753 0 0 1-.29.06.933.933 0 0 1-.83-1.01V4a.927.927 0 0 1 .84-1.01.73.73 0 0 1 .42.14l1.2.86a1.14 1.14 0 0 0-.19.63v.41a1.23 1.23 0 0 0 .16.61zm.87 8.46H1.66v-.01a.828.828 0 0 1-.83-.83V5.22h.83v.07a1.765 1.765 0 0 0 1.66 1.84 1.522 1.522 0 0 0 .63-.14l1.69-.76a.75.75 0 0 0 .16.04zm.21-8.65a.412.412 0 0 1-.41-.41v-.42a.412.412 0 0 1 .41-.41h.41a.412.412 0 0 1 .41.41v.41a.394.394 0 0 1-.4.42zm12.23 8.64H6.63V6.26a.934.934 0 0 0 .16-.04l1.69.76a1.558 1.558 0 0 0 .63.14 1.613 1.613 0 0 0 1.18-.54 1.95 1.95 0 0 0 .48-1.3v-.06h8.29v8.04h.01a.828.828 0 0 1-.83.83z"/></svg>