<svg id="Layer_1" data-name="Layer 1" xmlns="http://www.w3.org/2000/svg" viewBox="0 0 20.03998 18.36005"><defs><style>.cls-1{fill:#41494e}</style></defs><title>Withdraw</title><path class="cls-1" d="M19 5.61h-.46V2.1a2.1 2.1 0 0 0-2.1-2.1H2.1A2.1 2.1 0 0 0 0 2.1v14.16a2.1 2.1 0 0 0 2.1 2.1h14.35a2.1 2.1 0 0 0 2.1-2.1v-3.52h.46a1.028 1.028 0 0 0 1.03-1.03V6.64A1.044 1.044 0 0 0 19 5.61zm-1.19 10.64a1.361 1.361 0 0 1-1.36 1.36H2.1a1.361 1.361 0 0 1-1.36-1.36V2.1A1.361 1.361 0 0 1 2.1.74h14.35a1.361 1.361 0 0 1 1.36 1.36v3.51h-4.2a3.203 3.203 0 0 0-3.2 3.2v.73a3.203 3.203 0 0 0 3.2 3.2h4.2zm1.49-4.55a.3.3 0 0 1-.3.3h-5.39a2.458 2.458 0 0 1-2.46-2.46v-.73a2.458 2.458 0 0 1 2.46-2.46H19a.3.3 0 0 1 .3.3z"/><path class="cls-1" d="M13.95 7.47a1.7 1.7 0 1 0 1.7 1.7 1.699 1.699 0 0 0-1.7-1.7zm0 2.67a.97.97 0 1 1 .97-.97.97.97 0 0 1-.97.97z"/></svg>