<svg id="Layer_1" data-name="Layer 1" xmlns="http://www.w3.org/2000/svg" viewBox="0 0 17.01001 19.73999"><defs><style>.cls-1{fill:#41494e}</style></defs><title>Your_Messages</title><path class="cls-1" d="M16.89 8.26L15.3 7V.66a.666.666 0 0 0-.66-.66H2.36a.666.666 0 0 0-.66.66V7L.12 8.25A.303.303 0 0 0 0 8.5v10.24a1.003 1.003 0 0 0 1 1h15.01a1.003 1.003 0 0 0 1-1V8.51a.334.334 0 0 0-.12-.25zm-1.59-.44l.87.69-.87.69zM2.33 7.16V.66c.01-.01.02-.02.03-.02h12.28a.021.021 0 0 1 .02.02V9.7l-2.83 2.24H5.16L2.33 9.7zm8.7 5.42l-1.25.99a2.06 2.06 0 0 1-2.57 0l-1.24-.99zM1.7 7.82V9.2l-.87-.69zM.63 18.77v-9.6l6.06 4.8zm.6.34l5.99-4.74c.01-.01.02-.02.03-.02a2.675 2.675 0 0 0 2.5 0c.01.01.02.01.03.02l5.99 4.74zm15.14-.37v.02l-6.06-4.79 6.06-4.8z"/><path class="cls-1" d="M4.41 3.03H6.8a.32.32 0 0 0 0-.64H4.41a.316.316 0 0 0-.32.32.322.322 0 0 0 .32.32zM4.41 4.73h3.75a.32.32 0 0 0 0-.64H4.41a.32.32 0 0 0 0 .64zM6.13 7.14a.316.316 0 0 0 .32.32h4.09a.32.32 0 0 0 0-.64H6.45a.33.33 0 0 0-.32.32zM4.41 9.17h8.19a.32.32 0 0 0 0-.64H4.41a.32.32 0 0 0 0 .64zM12.92 10.55a.316.316 0 0 0-.32-.32H4.41a.32.32 0 0 0 0 .64h8.19a.316.316 0 0 0 .32-.32z"/></svg>