<svg id="Layer_1" data-name="Layer 1" xmlns="http://www.w3.org/2000/svg" viewBox="0 0 34.71 44.84"><defs><style>.cls-1{fill:#8c8c8c}</style></defs><title>GibGobern</title><path id="path15" class="cls-1" d="M15.26 21.7a.24.24 0 0 0 0 .09.39.39 0 0 1 .07-.11.72.72 0 0 0 .23-.22.42.42 0 0 0-.34-.15.38.38 0 0 1-.09.23l-.13.09a.15.15 0 0 1-.11 0h-.14a.08.08 0 0 0-.06.08.07.07 0 0 0 0 .1H15a.29.29 0 0 0 .2-.11l.09-.08M14.29 8a.16.16 0 1 0-.11.08m-1.44 10.81a.22.22 0 0 1 .13.14.19.19 0 0 0 .13.15 1 1 0 0 0 .32.3h-.06a.68.68 0 0 0 .19.09h-.14a.57.57 0 0 0 .26.12.54.54 0 0 1-.25 0l-.22-.08H13a.12.12 0 0 0-.14.07h.08a.09.09 0 0 0 0 .09H13a.17.17 0 0 0-.06.15L13 20a.16.16 0 0 1 .18 0h.19a.17.17 0 0 0 .1 0 .18.18 0 0 0 .13 0h.23a.67.67 0 0 1 .2 0 .17.17 0 0 1 0-.07.25.25 0 0 0 .14 0 .18.18 0 0 1-.07-.08h.2c-.09 0-.16 0-.14-.13a10.36 10.36 0 0 1 1.09-.23.39.39 0 0 1 .38.15 1.46 1.46 0 0 0 .56.16.16.16 0 0 1-.06.09.09.09 0 0 0-.13.11h.09a.09.09 0 0 0-.09 0h.09a.09.09 0 0 0-.06.09h.19a.13.13 0 0 0 .09 0 .78.78 0 0 1 .08-.19.52.52 0 0 0 .12-.29.59.59 0 0 1-.33-.08 1.5 1.5 0 0 1-.18-.41l.37.12h.21a.28.28 0 0 0 .22 0 .23.23 0 0 0 0-.33l-.07-.06a1.05 1.05 0 0 0-.5-.12h-.69a2.21 2.21 0 0 1-.37 0l-.17.07a.15.15 0 0 1-.14-.09.14.14 0 0 1 .09-.14.52.52 0 0 1 .19 0 1.26 1.26 0 0 1 .43 0l.18.06h.19a.69.69 0 0 0 .22 0h.2a1.29 1.29 0 0 1 .32.06.85.85 0 0 0-.55-.13 1.48 1.48 0 0 1 .3 0 1.32 1.32 0 0 0-.42 0h.21a1.37 1.37 0 0 0-.37 0 .89.89 0 0 1 .15-.15.53.53 0 0 0-.25 0h-.35a.88.88 0 0 0-.62.08.18.18 0 0 0 0 .25.66.66 0 0 0 .42.09h.44l.36-.03a1.35 1.35 0 0 1 .48.07.43.43 0 0 1 .15.12.11.11 0 0 1 0 .16h-.23a1.29 1.29 0 0 0-.48-.15h-.2a3.76 3.76 0 0 0-1.42.24h-.05a.18.18 0 0 0-.11-.24.11.11 0 0 0 .08 0s-.08-.09 0-.06a.14.14 0 0 0 .12 0 .18.18 0 0 1-.1-.06.2.2 0 0 0 .14 0h-.03a.3.3 0 0 0 .22-.18.28.28 0 0 0-.29 0 .87.87 0 0 0-.59-.13s0-.15-.27-.13a.21.21 0 0 0 .13.24.07.07 0 0 1-.08 0 .1.1 0 0 0 .06.07.12.12 0 0 1-.11 0 .1.1 0 0 0 .11.06.15.15 0 0 1-.11 0 .29.29 0 0 0 .12.06l.08.13a.26.26 0 0 0-.19.31 1.13 1.13 0 0 1-.33-.31.72.72 0 0 1 0-.12.14.14 0 0 0-.1-.1h-.06a.17.17 0 0 0-.11 0h.06a.13.13 0 0 0-.12 0h.08m1.15-.1h.17a.2.2 0 0 1-.2 0v-.02m0 .21a.08.08 0 0 0-.11 0c0 .06.09 0 .09 0a.43.43 0 0 1-.14.26h-.07a.49.49 0 0 1 0-.32.1.1 0 0 0-.08-.08.15.15 0 0 1 .14 0 .12.12 0 0 1 .1.1m-.14-.25v.12a.18.18 0 0 1-.17-.11h.17m-1.1 2.06a.22.22 0 0 1 .14.14.19.19 0 0 0 .2.21 1 1 0 0 0 .32.3h-.06a.68.68 0 0 0 .19.09h-.14a.55.55 0 0 0 .26.12.51.51 0 0 1-.25 0c-.08 0-.13-.07-.22-.08H13a.12.12 0 0 0-.14.07h.08a.09.09 0 0 0 0 .09H13a.16.16 0 0 0-.06.15l.06.06a.16.16 0 0 1 .18 0h.29a.17.17 0 0 0 .13 0h.23a.67.67 0 0 1 .2 0 .16.16 0 0 1 0-.07.25.25 0 0 0 .14 0 .18.18 0 0 1-.07-.08h.2c-.09 0-.16 0-.14-.13a10.37 10.37 0 0 1 1.09-.23.39.39 0 0 1 .38.15 1.47 1.47 0 0 0 .56.16.16.16 0 0 1-.06.09.09.09 0 0 0-.06.06h.09a.09.09 0 0 0-.07.08h.09a.1.1 0 0 0-.06.09h.19a.13.13 0 0 0 .09 0 .79.79 0 0 1 .08-.19.52.52 0 0 0 .12-.29h-.09a.6.6 0 0 1-.33-.09 1.48 1.48 0 0 1-.18-.42l.37.12h.21a.3.3 0 0 0 .18-.05.23.23 0 0 0 0-.33l-.07-.06a1.06 1.06 0 0 0-.5-.12 2 2 0 0 0-.35 0H15a.15.15 0 0 1-.14-.09.14.14 0 0 1 .09-.14.53.53 0 0 1 .19 0 1.31 1.31 0 0 1 .43 0l.18.06h.15a.71.71 0 0 0 .22 0h.2a1.37 1.37 0 0 1 .32.06.86.86 0 0 0-.55-.12 1.43 1.43 0 0 1 .3 0 1.27 1.27 0 0 0-.42 0h.21a1.31 1.31 0 0 0-.37 0H16a.54.54 0 0 0-.25 0h-.35a.87.87 0 0 0-.62.08.18.18 0 0 0 0 .25.66.66 0 0 0 .42.09h.44l.36-.06a1.36 1.36 0 0 1 .48.07.43.43 0 0 1 .15.12.11.11 0 0 1 0 .16h-.23c-.17 0-.32-.12-.5-.16h-.2a3.74 3.74 0 0 0-1.4.19h-.05a.18.18 0 0 0-.15-.18h.07a.11.11 0 0 0 .08 0s-.08-.09 0-.06a.14.14 0 0 0 .12 0 .18.18 0 0 1-.1-.06.19.19 0 0 0 .14 0h-.06a.29.29 0 0 0 .22-.18.29.29 0 0 0-.29 0 .88.88 0 0 0-.59-.13s0-.15-.27-.12a.21.21 0 0 0 .13.23.07.07 0 0 1-.08 0 .1.1 0 0 0 .06.07.12.12 0 0 1-.11 0 .1.1 0 0 0 .11.06.15.15 0 0 1-.11 0 .3.3 0 0 0 .12.06l.08.1a.26.26 0 0 0-.19.31 1.17 1.17 0 0 1-.33-.22.8.8 0 0 1 0-.12.14.14 0 0 0-.1-.17.11.11 0 0 0-.11 0 .16.16 0 0 0-.11 0h.06a.13.13 0 0 0-.12 0h.08m1.2-.05h.17a.2.2 0 0 1-.2 0v-.07m0 .21a.08.08 0 0 0-.11 0c0 .06.09 0 .09 0a.43.43 0 0 1-.14.26h-.07a.48.48 0 0 1 0-.32s.06.06.09 0-.08-.08-.08-.08a.15.15 0 0 1 .14 0 .12.12 0 0 1 .1.1m-.14-.25v.07a.19.19 0 0 1-.17-.11h.17m1.42-.57a.25.25 0 0 0 0 .1.39.39 0 0 1 .07-.1.73.73 0 0 0 .23-.22.42.42 0 0 0-.34-.15.38.38 0 0 1-.09.23l-.14.14a.15.15 0 0 1-.11 0 .09.09 0 0 0-.08 0 .1.1 0 0 0-.1 0 .08.08 0 0 0-.06.08.08.08 0 0 0 0 .11H15a.3.3 0 0 0 .2-.11l.09-.08M18.35 18a.08.08 0 0 1 .11 0 .11.11 0 0 0 0 .16.19.19 0 0 0 0 .21c0-.11 0-.17.09-.16h.14a5 5 0 0 1 .44.57h.07a.62.62 0 0 1 .12-.4.39.39 0 0 1-.3-.15.62.62 0 0 1-.12-.23h-.12a.22.22 0 0 1 0-.08c-.08-.12-.14-.13-.19-.06a.15.15 0 0 0-.15.1h.1a.15.15 0 0 0-.14.09m3.6-.9l-.27-.41a1.42 1.42 0 0 1-.3.15 3.87 3.87 0 0 1-1.21.25h-.5a8.69 8.69 0 0 1-1.43-.14h-.06v4.12h3.16V21a4.77 4.77 0 0 1-.23-1.35 3.93 3.93 0 0 1 .2-1.4.62.62 0 0 1 .1-.24 3.1 3.1 0 0 1 .47-.76l.07-.1m-3.67 0a9 9 0 0 0 1 .13.29.29 0 0 0 .32.19.22.22 0 0 0 0 .11h-.06a.21.21 0 0 0-.22.06.09.09 0 0 1-.08 0 .24.24 0 0 0-.14 0c-.07 0-.11 0-.08.09a.09.09 0 0 0 0 .11.1.1 0 0 0 0 .08.09.09 0 0 1 0-.07.08.08 0 0 0 0 .06.08.08 0 0 1 0-.06h.13V18a.2.2 0 0 1-.11 0h.21v.1c-.2-.07-.09.13 0 .23v-.06c0-.11.13 0 .16 0a.22.22 0 0 0 .2-.15.21.21 0 0 1-.17.19.43.43 0 0 0-.31.48.3.3 0 0 1 .18-.1l-.22.16a2.13 2.13 0 0 0-.44 0 .22.22 0 0 1-.21 0 .29.29 0 0 0-.16-.26v-1.5zm3 .83l-.1.24A4 4 0 0 0 21 19.7a5 5 0 0 0 .23 1.3h-.91a.48.48 0 0 0-.32-.15.15.15 0 0 0-.13-.18.17.17 0 0 0-.17.17.3.3 0 0 0-.31.15h-1.05v-1.41a.47.47 0 0 0 .16-.32h.06a.16.16 0 0 0 0 .07.14.14 0 0 1 0-.14.09.09 0 0 1 .08 0 .09.09 0 0 0 .12 0 1.61 1.61 0 0 1 .48 0 .62.62 0 0 0 .2-.2.93.93 0 0 1-.16.27.34.34 0 0 0 .2.24.34.34 0 0 0-.23.15.22.22 0 0 0 0 .19.13.13 0 0 1 0 .18.07.07 0 0 1-.11 0 1.52 1.52 0 0 1 .29 0c.08 0 0 0 0 .08a.35.35 0 0 1-.31.07s-.12-.24-.12-.09a.12.12 0 0 0-.13.06.11.11 0 0 1 .11 0s-.07 0 0 .11a.15.15 0 0 0 0 .12.12.12 0 0 1 0-.08v.11a.11.11 0 0 0 .12.09c-.09-.08 0-.12 0-.18s.08 0 .16 0a.18.18 0 0 1 .15 0c.07.09.13.09.15 0a.46.46 0 0 0 0-.14.17.17 0 0 1 .1-.17c.06 0 .09 0 .09.1a.17.17 0 0 0 0-.2.07.07 0 0 1 0-.09c.08 0 .09 0 0 .15a.15.15 0 0 0 .25-.14 1.32 1.32 0 0 1 0-.28.5.5 0 0 0 .24.7h.28c.06 0 .09 0 .06.06a.17.17 0 0 0-.08.19h.11a.12.12 0 0 1 0 .16c-.08 0-.28-.08-.26.11a.17.17 0 0 0 0 .15c0-.07 0-.1.09-.08a.1.1 0 0 0 0 .1.11.11 0 0 1 .11-.1v.07a.06.06 0 0 0 0 .06.09.09 0 0 1 0-.11.09.09 0 0 0 .09-.14.12.12 0 0 1 .13-.16.14.14 0 0 0 .23-.09.05.05 0 0 0 .07 0c-.09 0 0-.08 0-.15a.31.31 0 0 0-.07-.24h-.07l-.18-.16a.35.35 0 0 1 0-.33.27.27 0 0 0 0-.17c.16 0 .31-.17.17-.56a2.75 2.75 0 0 1-.25-1.17.34.34 0 0 1 .09-.17h.07a.11.11 0 0 1 .13 0 .45.45 0 0 0 0 .1.34.34 0 0 0 .15.13.36.36 0 0 1 0-.12.2.2 0 0 0 .16.15.36.36 0 0 0-.27-.34.55.55 0 0 0-.36 0 .28.28 0 0 0-.16.19.77.77 0 0 0 0 .3 4.75 4.75 0 0 0 .25 1s.12.3-.08.38a.86.86 0 0 0-.36-.15c-.42-.14-.11-.48-.09-.55a.22.22 0 0 0 .12.09.37.37 0 0 1 0-.19.17.17 0 0 0 .13 0 .23.23 0 0 1 0-.2.27.27 0 0 0-.11-.18.18.18 0 0 1 .17 0 .25.25 0 0 0-.14-.24.09.09 0 0 0 .11-.07.13.13 0 0 1-.17-.06c-.08-.12-.31-.13-.31-.05a.21.21 0 0 0 0-.25h.17a.28.28 0 0 0 .16-.16 3.7 3.7 0 0 0 1.19-.29.27.27 0 0 0 0 .17.26.26 0 0 0 .16.13 3.23 3.23 0 0 0-.41.67M20 5.42a.18.18 0 1 0-.18.18.18.18 0 0 0 .18-.18m.24 2.49a.18.18 0 1 0 .18-.18.18.18 0 0 0-.18.18m-.74-2.54a.18.18 0 1 0-.18.18.18.18 0 0 0 .18-.18m7.13 7.12a2.3 2.3 0 0 0 .13-.33.87.87 0 0 0-.4-.66.47.47 0 0 1 0 .47.47.47 0 0 0 .32.52m-12.45-5a.18.18 0 1 0-.18.18.18.18 0 0 0 .18-.18m4.89-1.61l-.2.12a.84.84 0 0 0-.29.64h1.5a1 1 0 0 1 0 .15 1.78 1.78 0 0 1-.54 1 .1.1 0 0 0 0 .14h.12a2 2 0 0 0 .61-1.18.91.91 0 0 0-.18-.69.86.86 0 0 0-.26-.21.84.84 0 0 0-.41-.1.82.82 0 0 0-.37.09m1 2.24a.18.18 0 1 0 0 .36.18.18 0 0 0 0-.36m-2.92-.39a.18.18 0 1 0 .18-.18.18.18 0 0 0-.18.18m.82-.64h-1.26a.69.69 0 0 1 .31.43h.59a.69.69 0 0 1 .36-.43m-1.41 0h-.17v1.18h.17a.59.59 0 0 0 .41-.48.69.69 0 0 0 0-.11.65.65 0 0 0 0-.15.59.59 0 0 0-.4-.41M15 8a.1.1 0 0 0 .06-.17 1.79 1.79 0 0 1-.54-1 1 1 0 0 1 0-.15H16a.84.84 0 0 0-.84-.84L15 5.79a.87.87 0 0 0-.5.3.91.91 0 0 0-.18.69A2 2 0 0 0 15 8m.52-2.59a.18.18 0 1 0-.18.18.18.18 0 0 0 .18-.18m-.94 3.1a.18.18 0 1 0-.18-.18.18.18 0 0 0 .18.18M16 5.41a.18.18 0 1 0-.18.18.18.18 0 0 0 .18-.18m.77-1v.85a.89.89 0 0 1 .51-.34.79.79 0 0 1-.3.47h.81a.79.79 0 0 1-.3-.47.88.88 0 0 1 .5.34v-.81a.63.63 0 0 1-.5.33 1.13 1.13 0 0 1 .3-.58H17a.85.85 0 0 1 .3.58.64.64 0 0 1-.51-.33M16.51 7H17l-.5-1.18H16zm2.09-3a1.07 1.07 0 0 1-.72-.6.89.89 0 0 0-.24 0 2 2 0 0 0 .84.75.71.71 0 0 1 .06.71.49.49 0 0 1-.2.28.26.26 0 0 0-.13.16.29.29 0 0 1 .36.06.3.3 0 0 1 .18-.17l-.1-.19h.19a.37.37 0 0 0-.12-.19.66.66 0 0 0 .23 0 .27.27 0 0 0-.13-.18.25.25 0 0 0 .23 0 .21.21 0 0 0-.11-.15.19.19 0 0 1 .06-.19c.12-.13-.32-.29-.4-.29m-2.14 1.5a.18.18 0 1 0-.18.18.18.18 0 0 0 .18-.18M18 29.43a.63.63 0 0 0 0 .49.35.35 0 0 0-.26-.08.2.2 0 0 0-.18.15.48.48 0 0 0 0 .2.33.33 0 0 1 .39.22.32.32 0 0 1 0 .21.36.36 0 0 1-.33.2.49.49 0 0 1-.29-.13.48.48 0 0 1-.29.13.36.36 0 0 1-.33-.2.33.33 0 0 1 .39-.43.46.46 0 0 0 0-.2.2.2 0 0 0-.18-.15.35.35 0 0 0-.26.08.63.63 0 0 0 0-.49.36.36 0 0 0-.33-.09 1 1 0 0 1 .12.6 3.44 3.44 0 0 0 0 .68 1.33 1.33 0 0 0 0 .25 1.49 1.49 0 0 0 .35.6 1.82 1.82 0 0 0 .52.38 1.81 1.81 0 0 0 .53-.38 1.49 1.49 0 0 0 .35-.58 1.47 1.47 0 0 0 .06-.27 3.46 3.46 0 0 0 0-.68 1 1 0 0 1 .13-.6.36.36 0 0 0-.33.09m-3.63-.72h-.03a.18.18 0 0 0 .08.17.41.41 0 0 0 .31-.62.18.18 0 0 0-.19 0h.06a.23.23 0 0 1 0 .23.42.42 0 0 1-.13.16m-.3-5.89a.63.63 0 0 0-.65-.24.52.52 0 0 0-.34.3.55.55 0 0 0-.24.51 2.11 2.11 0 0 1-.18.25.28.28 0 0 0 .13.08 3.23 3.23 0 0 1 .59-.25c.18 0 .18-.21.18-.34a.35.35 0 0 1-.31-.07.14.14 0 0 1 .14-.14h.07a.49.49 0 0 1 .24.49.36.36 0 0 1-.34.38 1.08 1.08 0 0 0-.44.1.16.16 0 0 0-.08.17 1.16 1.16 0 0 0 .26.4c.09.22.09.47.16.69A2.76 2.76 0 0 0 15 27a.32.32 0 0 1 .23.16 3.86 3.86 0 0 1 0 .4 1.12 1.12 0 0 0 .51 0 .83.83 0 0 0 .6-.25 1.08 1.08 0 0 0 .12-.64q.1-1.27.19-2.53a.58.58 0 0 0 .07-.43 1.15 1.15 0 0 1-.11-.41.85.85 0 0 0-.84-.61 6.39 6.39 0 0 0-1 .37 1.46 1.46 0 0 1-.5 0 1.42 1.42 0 0 0 0 .19 1.56 1.56 0 0 1 .21.27l1.11 2.57a1 1 0 0 1 .06.18.33.33 0 0 1-.32.23.92.92 0 0 1-.48-.21 1.76 1.76 0 0 1-.71-.8 3.38 3.38 0 0 1 0-1.92 1 1 0 0 0-.08-.72m-.36 2.3a3 3 0 0 1-.14-.46c-.06-.21-.13-.42-.18-.63h.29a5.06 5.06 0 0 1 0 1.13m2.53-1.91a1.1 1.1 0 0 1 .14.51.35.35 0 0 0 0 .37v.44l-.62-1.6a.47.47 0 0 1 .55.25m-.64-.25l.78 1.81v.13L15.56 23h.08m-.17.07l.87 2v.11l-.91-2.1h.08m-.17.07l1 2.2v.1l-1-2.27h.08m-.17.07l1 2.35v.09l-1-2.41h.08m-.17.06l.84 2.42v.08l-1.1-2.54h.1m-.26.08h.06L15.92 26h-.09zm9.81-13.22l.52.84h.06a.37.37 0 0 1 0-.16.42.42 0 0 1 0-.09.19.19 0 0 0-.13-.23l-.52-.4m-4.3.71a2.8 2.8 0 0 1-.37 2.17l.27-.33-.17.44A.32.32 0 0 0 20 13l.12-.17.11-.18-.08.19L20 13v.07l.11-.07a1.34 1.34 0 0 0 .32-.35 1.39 1.39 0 0 1-.27.41 1 1 0 0 1-.19.14 1.09 1.09 0 0 0 .26-.08 1.13 1.13 0 0 0 .45-.37 1.17 1.17 0 0 1-.41.44l-.18.09h.23a1.4 1.4 0 0 0 .32-.14.89.89 0 0 0 .26-.24.88.88 0 0 1-.24.27 1.3 1.3 0 0 1-.32.18 1.52 1.52 0 0 1-.35.1h-.36l.25.18.12.15-.19-.07-.26-.16.17.13.18.11a.79.79 0 0 0 .2.07l-.21-.05-.2-.1-.18-.12.15.12A1.63 1.63 0 0 0 20 14a1.62 1.62 0 0 1-.39-.19l-.16-.11.13.11.13.19.22.12-.23-.12a1.43 1.43 0 0 1-.3-.22 1.67 1.67 0 0 0 .43.38 3 3 0 0 0 .39.23 3.38 3.38 0 0 0 .71.18 2.45 2.45 0 0 0 .45.34.47.47 0 0 0 .4 0 .26.26 0 0 0-.06-.15l-.14-.13a.87.87 0 0 0 .46 0 .63.63 0 0 0 .32-.28.59.59 0 0 0-.25-.15.72.72 0 0 0-.3 0l.25-.1a.93.93 0 0 0 .43-.55 1 1 0 0 1 .25-.47h.08l-.06.05-.12.12a.72.72 0 0 0-.16.3.66.66 0 0 1 0-.17.94.94 0 0 1 .07-.16l.1-.15-.09.09a.56.56 0 0 0-.13.22.59.59 0 0 1 .08-.26l.08-.12h-.17a.64.64 0 0 0-.1.21.71.71 0 0 1 .07-.21l.06-.11-.09.11a.61.61 0 0 0-.12.23.63.63 0 0 1 .08-.23l.06-.09-.11.09a.44.44 0 0 0-.09.17.47.47 0 0 1 0-.17h-.03a.47.47 0 0 0-.09.17.5.5 0 0 1 .06-.17l.06-.08.07-.08a.42.42 0 0 1 .44-.07.55.55 0 0 1 .31.38v.25a.63.63 0 0 0 .22.39.21.21 0 0 0 .14.06.6.6 0 0 1 0-.23.84.84 0 0 0 .07-.45 1 1 0 0 0-.43-.52.76.76 0 0 0-.7 0 1.06 1.06 0 0 0-.42.48 1.24 1.24 0 0 1-.31.38.7.7 0 0 1-.2.11.54.54 0 0 0 .15-.28.3.3 0 0 0 0-.22.41.41 0 0 0-.24.06 3.07 3.07 0 0 0-.32.34 1.08 1.08 0 0 1-.53.24 1 1 0 0 1-.27 0H20c-.08 0-.14-.16-.09-.16h.13a1.94 1.94 0 0 0 .44-.12 2.23 2.23 0 0 0 1.24-1.3 1.32 1.32 0 0 0 0-1.12.41.41 0 0 0-.23.1 1.28 1.28 0 0 0-.23.27v-.31a6.5 6.5 0 0 1-.08-.86.6.6 0 0 1 .16-.34h-.04a.63.63 0 0 0-.14.23 1.12 1.12 0 0 0-.06.32v.34a1.92 1.92 0 0 1 0 .34 2 2 0 0 0 0-.34v-.34a1.2 1.2 0 0 1 0-.36.72.72 0 0 1 .06-.17v-.08a.71.71 0 0 0-.16.21 1.1 1.1 0 0 0-.09.27 1.81 1.81 0 0 0 0 .59 1.85 1.85 0 0 1-.09-.6 1.13 1.13 0 0 1 0-.31.83.83 0 0 1 .1-.21.79.79 0 0 0-.14.19 1.14 1.14 0 0 0-.1.26 1.57 1.57 0 0 0 0 .58 1.62 1.62 0 0 1-.08-.6 1.22 1.22 0 0 1 .06-.3v-.11a.79.79 0 0 0-.14.19 1.07 1.07 0 0 0-.1.26 1.58 1.58 0 0 0 0 .58 1.62 1.62 0 0 1-.07-.6 1.23 1.23 0 0 1 .06-.31v-.07a.84.84 0 0 0-.13.19 1.2 1.2 0 0 0-.09.27 1.59 1.59 0 0 0 0 .58 1.6 1.6 0 0 1-.06-.59 1.18 1.18 0 0 1 .07-.33.92.92 0 0 1 .16-.27.66.66 0 0 1 .64-.22.86.86 0 0 1 .36.09.74.74 0 0 1 .2.14 2.84 2.84 0 0 0 .71.74 1 1 0 0 0 .91.14.77.77 0 0 0-.12-.44 1 1 0 0 0-.45-.33l.25.05a1.43 1.43 0 0 0 1.73-.38l-.36-.07a2.23 2.23 0 0 1-.5-.3 1.55 1.55 0 0 0-.67-.25l-.21-.07a.48.48 0 0 0 .58-.35 1.27 1.27 0 0 0-1.37-.18 1.31 1.31 0 0 0-.55.61h.2L22 9l.24.1a.69.69 0 0 1 .21.14.71.71 0 0 0-.22-.12L22 9.06 21.76 9h-.23a1.49 1.49 0 0 0-.89.36 1.56 1.56 0 0 0-.45 1.45m-7 16.89c-.06 0 0 0 0 0a2.09 2.09 0 0 0 .52.51l.66.36a.4.4 0 0 0 .11-.13.18.18 0 0 0 0-.16l-.48-.07a6.32 6.32 0 0 1-.81-.48m.54 1.89a3 3 0 0 0 .76 0l-.79-.34h-.29s-.17 0 0-.15l.1-.09a2.49 2.49 0 0 0 .34-.51l-.19-.13-.16-.12a4.77 4.77 0 0 1-.34.55c-.16.17-.32.3-.16.46a1.06 1.06 0 0 0 .77.33M14.83 29.58a9.67 9.67 0 0 0 1.37.42v-.25a.82.82 0 0 0-.12-.39l-.08-.11h.23v-.89a11.16 11.16 0 0 1-1.74-.73l-.23-.13-.07.25V28l-.06.14.28.09a.28.28 0 0 1 .31-.11.49.49 0 0 1-.38.77.26.26 0 0 1-.1-.26l-.24-.14-.13.22-.05.08-.22.21.64.3.57.22m-.55-2.26c0-.08.14 0 .14 0l.06.06.12.11c.13.07.45.24.72.35l-.08-.12a3.1 3.1 0 0 0-.52-.53c-.41-.34-.52-.42-.65-.23a1.06 1.06 0 0 0-.09.17l-.22.57-.11.24.37.26.08-.14.05-.13a2.93 2.93 0 0 0 .15-.54M10.76 24.13h.12A.3.3 0 0 0 11 24a.2.2 0 0 0 0-.09.26.26 0 0 0 0-.1.12.12 0 0 0-.09-.17h-.43l-.09.08a.24.24 0 0 0 0 .1.24.24 0 0 0 0 .11.21.21 0 0 0 .06.1h.35M9.4 27.5a.57.57 0 0 1 .32.12.56.56 0 0 1 .16.21.62.62 0 0 0-.43-.65V27a1 1 0 0 0-.89-.44h-.21a2.38 2.38 0 0 0-.59.12h-.12c-.19 0-.17-.11-.17-.11v-.86a.93.93 0 0 1 .24-.56l.37-.48a4.88 4.88 0 0 0 .35-2.61l-2 1.37a1.53 1.53 0 0 1 .14.25 1.21 1.21 0 0 1-.27 1.14.5.5 0 0 0 0 .38.33.33 0 0 1 .15-.15 4.8 4.8 0 0 0-.11.79.64.64 0 0 1-.1.44l.37-.28a3.37 3.37 0 0 1 .13 1.18c0 .33.13.41.29.41a1.59 1.59 0 0 0 .32-.06h.24a.39.39 0 0 1 .28.07.76.76 0 0 0 .24.18h.14a.23.23 0 0 0 .16-.06.93.93 0 0 1 .44-.18.51.51 0 0 1 .32.35 2.3 2.3 0 0 0 0-.43.13.13 0 0 1 .13-.06m.7 2a.11.11 0 0 0-.1 0 .15.15 0 0 0 0 .16 2.67 2.67 0 0 0 2 1h.1l-.06-2-.15.2a2.85 2.85 0 0 1-1.81.57M17.75 6a.4.4 0 1 0-.4.4.41.41 0 0 0 .4-.4m-4.67 22.7l.07-.1c.09-.13.21-.35.27-.46a1.78 1.78 0 0 1-.31-.34.43.43 0 0 1-.11-.23.33.33 0 0 1 .19.11l.33.22.1-.23.12-.31.06-.16-.35-.28-.38-.35A6.39 6.39 0 0 1 12 25.13v-.54c.06-.75.12-1.5.17-2.2l-.17.09a.22.22 0 0 1-.15 0c0 .47-.07.93-.1 1.36v.61a3.26 3.26 0 0 1-.12-.45 5.93 5.93 0 0 1-.26-1.71.36.36 0 0 1-.37-.23h-.93V22h.84v-.11a.55.55 0 0 1 0-.42.33.33 0 0 1-.28-.16.47.47 0 0 1-.26.07.58.58 0 0 1-.37-.07h-.25a7.69 7.69 0 0 0 .14 2.76 7.71 7.71 0 0 0 3.23 4.65m-3-5.54a.32.32 0 0 0 0-.06l.27-.29.12-.13.16-.16h-.6a.39.39 0 0 0 0-.06h.86l-.4.42-.16.17H11v.09h-.88m.22 1v-.07a.62.62 0 0 1-.06-.3.42.42 0 0 1 0-.16.39.39 0 0 1 .11-.13.49.49 0 0 1 .18-.08.41.41 0 0 1 .17 0 .42.42 0 0 1 .16.06.44.44 0 0 1 .13.12.54.54 0 0 1 .08.18.68.68 0 0 1 0 .19.41.41 0 0 1 0 .14.38.38 0 0 1-.11.13.47.47 0 0 1-.19.08.44.44 0 0 1-.34 0 .46.46 0 0 1-.13-.12m1.21 1h-.12l-.17.07h-.33l-.15.07v-.1h.28L11 25v-.27l-.17.07-.14.07v-.1l.15-.06.16-.07h.15l.17-.07.14-.07v.1h-.15l-.31.11h-.06v.35H11l.35-.06.14-.07m12.89-13.66l-.22.06h-.35a1 1 0 0 0-.43 0h-.13a.46.46 0 0 0 .3-.38 1 1 0 0 0-.87.29.78.78 0 0 0-.14.47h.17l-.13.06a.56.56 0 0 0-.35.61.4.4 0 0 1 .21-.22.51.51 0 0 1 .22 0h.15a1.7 1.7 0 0 0 .58.22.61.61 0 0 0 .54-.16.46.46 0 0 0-.21-.22.58.58 0 0 0-.33 0h.15a.86.86 0 0 0 .84-.66M17.76 23h.08a.22.22 0 0 1 .14.14.19.19 0 0 0 .13.15 1 1 0 0 0 .32.3h-.07a.75.75 0 0 0 .19.09h-.15a.58.58 0 0 0 .26.12.52.52 0 0 1-.25 0l-.22-.08h-.06a.12.12 0 0 0-.14.07.11.11 0 1 0 .01.21h.06a.17.17 0 0 0-.06.15l.06-.06a.16.16 0 0 1 .18 0h.29a.17.17 0 0 0 .13 0h.16L19 24a.65.65 0 0 1 .2 0 .16.16 0 0 1 0-.07.26.26 0 0 0 .14 0 .16.16 0 0 1-.07-.08h.07a.28.28 0 0 0 .13 0c-.09 0-.16 0-.14-.13a10.43 10.43 0 0 1 1.08-.23.39.39 0 0 1 .38.15 1.45 1.45 0 0 0 .56.16.16.16 0 0 1-.07.09h-.15a.09.09 0 0 0-.06.06h.09a.08.08 0 0 0-.07.08h.09a.09.09 0 0 0-.06.09h.19a.13.13 0 0 0 .09 0 .75.75 0 0 1 .08-.19.52.52 0 0 0 .12-.29.59.59 0 0 1-.33-.09 1.45 1.45 0 0 1-.21-.25l.37.12h.21a.29.29 0 0 0 .22 0 .22.22 0 0 0 0-.31l-.05-.11a1.08 1.08 0 0 0-.5-.12h-1.23a.15.15 0 0 1-.13-.09.13.13 0 0 1 .05-.08.48.48 0 0 1 .19 0 1.28 1.28 0 0 1 .43 0l.18.06h.2a.68.68 0 0 0 .22 0h.2a1.26 1.26 0 0 1 .32.06.86.86 0 0 0-.55-.12 1.5 1.5 0 0 1 .3 0 1.25 1.25 0 0 0-.42 0h.21a1.31 1.31 0 0 0-.37 0h.19a.51.51 0 0 0-.25 0h-.36a.89.89 0 0 0-.62.09.18.18 0 0 0 0 .25.66.66 0 0 0 .43.09h.44l.41-.14a1.32 1.32 0 0 1 .48.07.42.42 0 0 1 .15.12.12.12 0 0 1 0 .16h-.28c-.17 0-.32-.12-.5-.16h-.2a3.72 3.72 0 0 0-1.42.24.18.18 0 0 0-.15-.18h.07a.11.11 0 0 0 .08 0s-.08-.09 0-.06a.13.13 0 0 0 .12 0 .19.19 0 0 1-.1-.06.19.19 0 0 0 .14 0h-.09a.29.29 0 0 0 .22-.13.28.28 0 0 0-.29 0 .89.89 0 0 0-.59-.12s0-.15-.27-.12a.21.21 0 0 0 .13.23.07.07 0 0 1-.08 0 .1.1 0 0 0 .06.07.12.12 0 0 1-.11 0 .1.1 0 0 0 .11.06.15.15 0 0 1-.11 0 .29.29 0 0 0 .12.06l.08.1a.26.26 0 0 0-.19.31 1.13 1.13 0 0 1-.33-.22.86.86 0 0 1 0-.12.14.14 0 0 0-.09-.11.12.12 0 0 0-.11 0 .17.17 0 0 0-.12 0h.06a.13.13 0 0 0-.12 0m1.34-.18h.17a.2.2 0 0 1-.2 0v-.07m0 .21A.08.08 0 1 0 19 23c0 .06.09 0 .09 0a.43.43 0 0 1-.14.26h-.06a.47.47 0 0 1 0-.32.1.1 0 0 0-.08-.08.15.15 0 0 1 .14 0 .12.12 0 0 1 .1.1m-.14-.25v.07a.19.19 0 0 1-.17-.11h.17M20.36 24a.23.23 0 0 0 0 .1.42.42 0 0 1 .09-.1.74.74 0 0 0 .23-.22.41.41 0 0 0-.34-.15.38.38 0 0 1-.09.23l-.1.09A.14.14 0 0 1 20 24a.1.1 0 0 0-.1 0 .08.08 0 0 0-.06.08.07.07 0 0 0 0 .1h.25a.28.28 0 0 0 .2-.11l.07-.07m.22 6a1 1 0 0 1-.3 0h-.12l-.6-.29-1.16-.61v.15h.11l-.06.12a.86.86 0 0 0-.11.53v.7a.83.83 0 0 0 .29.12 1 1 0 0 0 .25-.06 26.2 26.2 0 0 0 1.66-.61 1.51 1.51 0 0 0 .46-.13.73.73 0 0 1-.37.11m2.82-10.63h-.1l.09.21.07-.07.11-.11h-.17M18.56 28a5.73 5.73 0 0 0 1-.31h-.18a1 1 0 0 0-.82.32m5.59-5.4h.28-.31a.38.38 0 0 0 0 .06.16.16 0 0 0 0 .06m-11.46-5.66h.08a.2.2 0 0 1 .09.07v.07a.19.19 0 0 0 .13.15 1 1 0 0 0 .32.3h-.07a.72.72 0 0 0 .19.09h-.09l.1.06.16.06a.52.52 0 0 1-.25 0l-.21-.07H13a.12.12 0 0 0-.14.07h.08a.09.09 0 0 0 0 .09H13a.16.16 0 0 0-.06.15l.06.09h.06a.14.14 0 0 1 .12 0h.26a.19.19 0 0 0 .13 0h.23a.67.67 0 0 1 .2 0 .16.16 0 0 1 0-.07.25.25 0 0 0 .14 0 .19.19 0 0 1 0-.13h.2c-.09 0-.16 0-.14-.13a10.18 10.18 0 0 1 1.09-.23.39.39 0 0 1 .38.15 1.42 1.42 0 0 0 .56.16.16.16 0 0 1-.06.09h-.08a.09.09 0 0 0-.06.06h.09a.09.09 0 0 0-.07.08h.09a.1.1 0 0 0-.06.09h.19a.13.13 0 0 0 .09 0 .79.79 0 0 1 .13-.27.52.52 0 0 0 .12-.29h-.1a.59.59 0 0 1-.33-.09 1.38 1.38 0 0 1-.18-.29l.37.12h.21a.29.29 0 0 0 .22 0 .23.23 0 0 0 0-.33l-.07-.12a1.09 1.09 0 0 0-.5-.13h-.69l-.34.13H15a.15.15 0 0 1-.14-.09.14.14 0 0 1 .09-.13.52.52 0 0 1 .19 0h.77a.73.73 0 0 0 .22 0h.2a1.23 1.23 0 0 1 .32.06.85.85 0 0 0-.55-.12 1.43 1.43 0 0 1 .3 0h-.19a1.31 1.31 0 0 0-.37 0 .93.93 0 0 1 .16-.09.54.54 0 0 0-.25 0h-.35a.88.88 0 0 0-.62.08.17.17 0 0 0 0 .24.44.44 0 0 0 .21.08h.65l.44-.03a1.35 1.35 0 0 1 .48.07.43.43 0 0 1 .15.12.11.11 0 0 1 0 .16h-.28c-.17 0-.32-.12-.5-.16h-.2a3.6 3.6 0 0 0-1.13.15l-.3.09a.22.22 0 0 0 0-.12.18.18 0 0 0-.1-.06h.07a.11.11 0 0 0 .08 0s-.08-.09 0-.06a.14.14 0 0 0 .12 0 .19.19 0 0 1-.1-.06.2.2 0 0 0 .14 0h-.11a.3.3 0 0 0 .22-.13.28.28 0 0 0-.29 0 .87.87 0 0 0-.59-.13.15.15 0 0 0-.07-.09.32.32 0 0 0-.19 0 .31.31 0 0 0 0 .15.15.15 0 0 0 .11.09.07.07 0 0 1-.08 0 .1.1 0 0 0 .06.07.12.12 0 0 1-.11 0 .1.1 0 0 0 .11.06.14.14 0 0 1-.11 0 .28.28 0 0 0 .12.06l.08.1a.26.26 0 0 0-.19.31 1.17 1.17 0 0 1-.33-.22.75.75 0 0 1 0-.13L13 17a.11.11 0 0 0-.11 0 .17.17 0 0 0-.11 0h.06a.13.13 0 0 0-.12 0m1.28-.11h.17A.2.2 0 0 1 14 17v-.07m0 .21a.08.08 0 0 0-.11 0c0 .06.09 0 .09 0a.43.43 0 0 1-.14.26h-.07a.48.48 0 0 1 0-.32.1.1 0 0 0-.08-.08.15.15 0 0 1 .14 0 .12.12 0 0 1 .1.1m-.14-.25V17a.18.18 0 0 1-.17-.11h.17m6.52 8.95a.23.23 0 0 0 0 .1.41.41 0 0 1 .07-.11.74.74 0 0 0 .23-.22.41.41 0 0 0-.34-.15.37.37 0 0 1-.09.23l-.1.09a.14.14 0 0 1-.11 0 .1.1 0 0 0-.08 0 .1.1 0 0 0-.1 0 .08.08 0 0 0-.06.08.07.07 0 0 0 0 .1H20a.29.29 0 0 0 .2-.11l.09-.08m-2.52-1A.22.22 0 0 1 18 25a.19.19 0 0 0 .13.15 1 1 0 0 0 .32.3h-.09a.75.75 0 0 0 .19.09h-.15a.56.56 0 0 0 .26.12.53.53 0 0 1-.25 0l-.22-.08h-.06a.12.12 0 0 0-.14.07h.1l-.09.05a.08.08 0 0 0 0 .09h.12A.17.17 0 0 0 18 26l.06-.06a.16.16 0 0 1 .18 0h.29a.17.17 0 0 0 .13 0h.23a.65.65 0 0 1 .2 0 .17.17 0 0 1 0-.07.26.26 0 0 0 .14 0 .16.16 0 0 1-.07-.08h.2c-.09 0-.16 0-.14-.13a10.83 10.83 0 0 1 1.08-.23.39.39 0 0 1 .38.15 1.43 1.43 0 0 0 .56.16.16.16 0 0 1-.07.09.09.09 0 0 0-.06.06h.09a.09.09 0 0 0-.07.08h.09a.09.09 0 0 0-.06.09h.19a.13.13 0 0 0 .09 0 .72.72 0 0 1 .08-.19.53.53 0 0 0 .12-.29.58.58 0 0 1-.33-.09 1.42 1.42 0 0 1-.24-.49l.37.12h.21a.29.29 0 0 0 .22 0 .22.22 0 0 0 0-.31l-.07-.06a1.11 1.11 0 0 0-.5-.12h-1.23a.15.15 0 0 1-.13-.09H20a.5.5 0 0 1 .19 0 1.27 1.27 0 0 1 .43 0l.18.06h.2a.72.72 0 0 0 .22 0h.2a1.33 1.33 0 0 1 .32.06.87.87 0 0 0-.55-.12h.3a1.29 1.29 0 0 0-.42 0h.21a1.26 1.26 0 0 0-.37 0h.19a.52.52 0 0 0-.25 0h-.36a.9.9 0 0 0-.62.08.18.18 0 0 0 0 .25.67.67 0 0 0 .43.09h.44l.41-.06a1.34 1.34 0 0 1 .48.07.42.42 0 0 1 .15.12.12.12 0 0 1 0 .16h-.28a.81.81 0 0 0-.5-.35h-.2a3.76 3.76 0 0 0-1.42.24.18.18 0 0 0-.18-.14h.07a.11.11 0 0 0 .08 0s-.08-.09 0-.06a.13.13 0 0 0 .12 0 .19.19 0 0 1-.1-.06.19.19 0 0 0 .14 0h-.06a.3.3 0 0 0 .22-.18.28.28 0 0 0-.29 0 .89.89 0 0 0-.59-.13s0-.15-.27-.12a.21.21 0 0 0 .13.23.07.07 0 0 1-.08 0 .1.1 0 0 0 .06.07.13.13 0 0 1-.11 0 .1.1 0 0 0 .11.06.15.15 0 0 1-.11 0 .28.28 0 0 0 .12.06l.08.1a.26.26 0 0 0-.19.31 1.15 1.15 0 0 1-.33-.28.88.88 0 0 1 0-.12.14.14 0 0 0-.09-.11.11.11 0 0 0-.11 0 .17.17 0 0 0-.12 0h.06a.13.13 0 0 0-.12 0h.08m1.26-.21h.17a.21.21 0 0 1-.2 0v-.04m0 .21a.08.08 0 0 0-.11 0c0 .06.09 0 .09 0A.42.42 0 0 1 19 25h-.1a.47.47 0 0 1 0-.32.1.1 0 0 0-.08-.08.15.15 0 0 1 .14 0 .12.12 0 0 1 .1.1m-.14-.25v.07a.19.19 0 0 1-.17-.11h.17m-3.66-6.31a.25.25 0 0 0 0 .1.4.4 0 0 1 .07-.11.73.73 0 0 0 .23-.21.41.41 0 0 0-.34-.15.38.38 0 0 1-.09.23l-.13.09V18h-.18a.08.08 0 0 0-.06.08.08.08 0 0 0 0 .11H15a.3.3 0 0 0 .2-.11l.09-.08m7.48 12.58a2.67 2.67 0 0 0 2-1 .15.15 0 0 0 0-.15.11.11 0 0 0-.1 0 2.85 2.85 0 0 1-1.81-.57l-.15-.2-.06 2h.1zm-3.27-3.13h.21a.25.25 0 0 0 .17-.09H20a.23.23 0 0 0 0 .08.32.32 0 0 1 0-.09.6.6 0 0 0 .18-.17A.35.35 0 0 0 20 27a.33.33 0 0 1-.07.19l-.08.08a.13.13 0 0 1-.09 0h-.07a.08.08 0 0 0-.08 0 .07.07 0 0 0 0 .07.06.06 0 0 0 0 .08m4.63-6.18h.37l-.16-.24-.1.07-.09.06h-.06m1.42-10a1.66 1.66 0 0 0 .1-.24.66.66 0 0 0-.29-.49.39.39 0 0 1 0 .36.34.34 0 0 0 .23.38M21 29.31v-.1a7.08 7.08 0 0 1-1.08.48l.29.11a.89.89 0 0 0 .55 0 .35.35 0 0 0 .15-.1.56.56 0 0 0 .1-.45m2.26-12.47L22 15.08a2.3 2.3 0 0 1-.63.45l-.27.12-.21-.12-.18-.09a.61.61 0 0 0-.23-.38 1.26 1.26 0 0 0-.34-.2 3.13 3.13 0 0 1-1.49-1 .73.73 0 0 0-.18.14 1.76 1.76 0 0 0-.17.21l-.14.21c-.11.19-.21.39-.27.52l-.05.06v.08l-.09.15a.39.39 0 0 1-.14.11h-.3a.38.38 0 0 1-.14-.12l-.17-.1V15l-.06-.12a5.28 5.28 0 0 0-.27-.5l-.14-.21-.2-.17a.6.6 0 0 0-.22-.15 3.4 3.4 0 0 1-1.56 1l-.26.15a.68.68 0 0 0-.32.41l-.23.12-.21.12-.27-.13a2.23 2.23 0 0 1-.6-.43l-.3.41-.36.5-.61.84a.32.32 0 0 1 .15.08.69.69 0 0 1 .15.2l-.13.15a7.76 7.76 0 0 0-1 1.48l-.08.16c-.08.16-.16.33-.23.51l.22.1.29.14h.12a.49.49 0 0 1 .2 0 .4.4 0 0 1 .14.08.42.42 0 0 1 .1.14l.3.12a.82.82 0 0 1 .18.11 3.33 3.33 0 0 1 .14-.32c.06-.13.13-.27.2-.39v1.12a.58.58 0 0 0 .15.18l.1.06c0-.59.06-1.09.06-1.46v-.41a.86.86 0 0 0 0-.14.83.83 0 0 0-.07-.39v-.28a.66.66 0 0 0-.07-.36 2.76 2.76 0 0 0-.31-.92l-.08-.11.32-.44.34-.46.13-.18.1-.14.19.23.24.13a3.9 3.9 0 0 0 1 .33h.16a4.73 4.73 0 0 0 .76.06 5.92 5.92 0 0 0 .84 0 2.82 2.82 0 0 0 .29.3l.19.14h.09a5.25 5.25 0 0 0 .65.3v5.16h-4.59a.84.84 0 0 1-.14.14h4.8v6.06l-.65-.32a.72.72 0 0 0-.09.18.66.66 0 0 0 0 .2v.8a.43.43 0 0 1 .18.11.45.45 0 0 1 .08.36H17a.31.31 0 0 1 .22.12.33.33 0 0 1 .06.13.56.56 0 0 1 0 .22v.1H17a.24.24 0 0 0-.21.33.28.28 0 0 0 .22.1.37.37 0 0 0 .22-.1l.07-.06.07.06a.37.37 0 0 0 .22.1.29.29 0 0 0 .22-.1v-.18a.2.2 0 0 0-.21-.15h-.15v-.1a.54.54 0 0 1 0-.22.35.35 0 0 1 .06-.13.31.31 0 0 1 .22-.12h.14a.51.51 0 0 1 .13-.3.4.4 0 0 1 .27-.1v-.8a.74.74 0 0 1 0-.12.88.88 0 0 1 .35-.55l-.33.16-.9.4v-6h5c0 .69.11 1.43.17 2.18V25a6.07 6.07 0 0 1-1.15 1.58l-.19.18a.2.2 0 0 0 0-.15h-.11a1 1 0 0 0-.4-.09h-1a.12.12 0 0 1-.11-.08.11.11 0 0 1 .07-.12h.16a1 1 0 0 1 .36 0h.66a1.13 1.13 0 0 1 .27 0 .73.73 0 0 0-.46-.1h.26a1.11 1.11 0 0 0-.35 0h.18a1.16 1.16 0 0 0-.31 0h.16a.43.43 0 0 0-.21 0h-.28a.74.74 0 0 0-.53.07.15.15 0 0 0 0 .21.56.56 0 0 0 .36.07h.72a1.13 1.13 0 0 1 .41.06l.09.08a.1.1 0 0 1 0 .13h-.29l-.36-.12h-.17a3.24 3.24 0 0 0-1.2.21.18.18 0 0 0-.14-.29h.13s-.07-.08 0 0a.12.12 0 0 0 .1 0 .16.16 0 0 1-.08 0 .17.17 0 0 0 .12 0 .25.25 0 0 0 .19-.15.24.24 0 0 0-.24 0 .75.75 0 0 0-.5-.11s0-.12-.23-.1a.18.18 0 0 0 .11.2.06.06 0 0 1-.07 0 .08.08 0 0 0 0 .06.11.11 0 0 1-.1 0 .08.08 0 0 0 .09 0 .12.12 0 0 1-.09 0h.1l.06.08a.22.22 0 0 0-.16.27.93.93 0 0 1-.28-.19.59.59 0 0 1 0-.1.12.12 0 0 0-.15-.14.1.1 0 0 0-.09 0 .14.14 0 0 0-.1 0 .11.11 0 0 0-.1 0h.07a.19.19 0 0 1 .12.12.16.16 0 0 0 .11.13.79.79 0 0 0 .27.25l.15.04h-.13a.48.48 0 0 0 .22.1.41.41 0 0 1-.21 0l-.18-.06h-.06a.1.1 0 0 0-.12.06.07.07 0 0 0 0 .07.14.14 0 0 0 0 .12.14.14 0 0 1 .15 0h.25a.15.15 0 0 0 .11 0h.36a.16.16 0 0 1 0-.06.22.22 0 0 0 .12 0h.17c-.08 0-.14 0-.12-.11a8.78 8.78 0 0 1 1-.2.33.33 0 0 1 .32.13 1.1 1.1 0 0 0 .3.09l-.23.16-.38.3-.23.12-.15.07a5.83 5.83 0 0 1-1.21.38v.77l1.09.52.26.13a7.25 7.25 0 0 0 .74-.3l.13-.06.14-.07h.16l.23-.16.29-.18a7.7 7.7 0 0 0 3.25-4.64 7.63 7.63 0 0 0 .3-1.89v-.1a1.35 1.35 0 0 1-.32-.3 1.58 1.58 0 0 1-.14-.27h-.9v-.33h.49l.14-.1V21c-.11-.32-.19-.61-.22-.7l-.05-.12h-.54v.26h-.1v-.25H23.9L24 20a.22.22 0 0 1 0-.21l.06-.07a.46.46 0 0 1 .31-.21 7.76 7.76 0 0 0-1.37-2.2v-.15a.88.88 0 0 1 .13-.16.37.37 0 0 1 .18-.11m-11.73 2.6v.1l-.14-.08-.16-.08h-.16l-.17-.08-.15-.06.2-.09.16.08h.16l.17.08.14.06m.32-.56l-.28.14-.16-.1h-.07l-.19-.12h-.06v.16h-.24v-.26l.05-.09v-.19h.13l.19.12h.07l.16.09.14.07m6.72 7.39h.14v.06a.16.16 0 0 1-.14-.09m.23.3a.36.36 0 0 1-.11.22.41.41 0 0 1 0-.27h.07a.23.23 0 0 0-.07-.07.13.13 0 0 1 .11 0 .1.1 0 0 1 .08.08.07.07 0 0 0-.1 0h.08m0-.18v-.01h.15a.16.16 0 0 1-.17 0M21 27a.44.44 0 0 1-.27 0l-.06-.06-.12-.15.22.08h.36L21 27m-3.66-10.31h-.08l-.16-.06a2.33 2.33 0 0 1-.33-.17h-.08a2.34 2.34 0 0 1-.37-.3l-.11-.16-.11-.14-.1-.19a.93.93 0 0 0-.77-.58.46.46 0 0 0-.42.16.63.63 0 0 0 0 .51v.07a.08.08 0 0 1 0 .1.07.07 0 0 1-.1 0l-.06-.15a.71.71 0 0 1 0-.57.61.61 0 0 1 .52-.2h.1a.88.88 0 0 1 .28.08 1.28 1.28 0 0 1 .59.61l.11.17.11.13.11.11a2.31 2.31 0 0 0 .45.31l.08.06.21.08h.15l.16-.07h.19a2.29 2.29 0 0 0 .34-.26l.2-.23.11-.14.11-.17a1.33 1.33 0 0 1 .63-.69.85.85 0 0 1 .26-.07h.11a.59.59 0 0 1 .52.21.73.73 0 0 1 0 .58v.14a.07.07 0 0 1-.1 0 .07.07 0 0 1 0-.1v-.06a.65.65 0 0 0 0-.52.46.46 0 0 0-.46-.18 1 1 0 0 0-.78.58l-.1.16-.11.26-.1.11a2.37 2.37 0 0 1-.37.3h-.07l-.17.1-.16.07h-.18m4.29 4.62H18v-4.45a2.63 2.63 0 0 0 1 .15h.73a5.21 5.21 0 0 0 1.44-.18 1.93 1.93 0 0 0 .57-.26l.53.6a2.7 2.7 0 0 0-.28.34 3.36 3.36 0 0 0-.42.81 1.62 1.62 0 0 1-.08.27 3.11 3.11 0 0 0-.08.43 5.75 5.75 0 0 0 .2 2.4m.72-2.88a.7.7 0 0 1-.07.39 1.51 1.51 0 0 0 0 .23v.46c0 .61.07 1.54.14 2.61h-5V17l.23-.09c.11.08.2.09.24 0v1.68a.39.39 0 0 0-.18.34.24.24 0 0 0-.18.14.16.16 0 0 0 .17.15.38.38 0 0 0 .18.34v1.63c-.12 0-.33 0-.15.26 0 0-.18.16-.1.26a.15.15 0 0 0 .2.06l.06-.06s.24.12.3 0a.18.18 0 0 0 0-.18h1.23a.31.31 0 0 0 .31.15.15.15 0 0 0 .14.16.14.14 0 0 0 .15-.25.41.41 0 0 0 .35-.13h1.17s-.12.19 0 .25a.21.21 0 0 0 .28 0s.16.16.25 0a.17.17 0 0 0 0-.24s.13-.4-.23-.21a5.67 5.67 0 0 1-.22-1.49.31.31 0 0 0 .21-.32.18.18 0 0 0 .19-.16.13.13 0 0 0-.14-.12s.08-.34-.16-.38a1.05 1.05 0 0 1 0-.21 2 2 0 0 1 .08-.27 3.89 3.89 0 0 1 .42-.82l.27-.37a.55.55 0 0 0 .15-.43.5.5 0 0 0-.07-.2.39.39 0 0 0-.4-.2.52.52 0 0 0-.24.07 2.4 2.4 0 0 1-.69.33 2.73 2.73 0 0 1-.79.13.45.45 0 0 0-.43-.16.36.36 0 0 0 0-.11.1.1 0 0 0-.09-.09.11.11 0 0 0-.12.08.38.38 0 0 0 0 .13.35.35 0 0 0-.31.1h-.67a2.18 2.18 0 0 1-.48-.09.17.17 0 0 0 0-.16l.08-.06a2.6 2.6 0 0 0 .3-.31 6 6 0 0 0 1 .08 5 5 0 0 0 .71 0h.21a3.87 3.87 0 0 0 1-.31l.24-.13.13-.25.69.94.21.29-.11.15a3.1 3.1 0 0 0-.31.94 3.91 3.91 0 0 1-.1.58m.25 1.8v-.64c.07.14.14.28.2.42a5.93 5.93 0 0 1 .17 3.84 3.85 3.85 0 0 1-.15.47v-.66c-.09-1.14-.19-2.46-.23-3.44m1.06 5.51l-.06.09-.1.17v.09h-.14v-.2l-.11-.07-.12-.07-.07.13L23 26h.06l.15-.24h-.12l-.09-.33-.07.12-.06.13v-.07l.07-.12.06-.11v-.06l.13.09.16.09h.15l.16.09.14.08-.06.09m0-3.3v-.14h.86v.28a.57.57 0 0 1 0 .14.18.18 0 0 1 0 .08l-.08.06h-.22a.22.22 0 0 1-.08-.07.27.27 0 0 1 0-.08.57.57 0 0 1 0-.13v-.11h-.47m-.09 1V23h.84v.48h-.12v-.16h-.26v.29H24a.56.56 0 0 1 0-.28h-.29v.28h-.1v-.2m-.24.94l.39-.19.13-.16.21-.11h-.58v-.22h.21l.18.06.18.06h.24a.35.35 0 0 0 0 .06l-.16.15-.2.1-.16.08-.21.1h.51v.11l-.11.19h-.61m0 .3h-.08v.06a.15.15 0 0 0 0 .11.13.13 0 0 0 .07.07h.16l.08-.12H23.77a.23.23 0 0 1 .12 0H24a.26.26 0 0 1 0 .1.33.33 0 0 1 0 .11v.06l-.07.06a.15.15 0 0 0 .07-.06.13.13 0 0 0 0-.1.16.16 0 1 0-.25-.17h-.08l-.08.06-.08.06h-.08a.22.22 0 0 1-.12 0 .26.26 0 0 1-.1-.07.25.25 0 0 1-.06-.1.34.34 0 0 1 0-.12.43.43 0 0 1 0-.13.45.45 0 0 1 .06-.11l.06-.06h.06m.53-5.35v.09l-.17.17-.16.17-.16.17-.08.22.1-.09.1-.09v-.31H23v-.16h.93M23.15 18v.06l-.09.14-.06.2v.12l-.08.14h.66l-.18.15-.17.19-.23.13-.12.11.12-.34.11-.09.13-.1h-.63l.14-.23.08-.13v-.14H22.62v-.1l.15-.08.38-.03m2.92-6.07a2 2 0 0 0 .12-.29.79.79 0 0 0-.35-.59.44.44 0 0 1 0 .42.41.41 0 0 0 .28.46m-5.31-4.45a.18.18 0 1 0-.18.18.18.18 0 0 0 .18-.18m-12.2 3.34a.4.4 0 0 0-.14.34.36.36 0 0 0 0 .1v.07a.41.41 0 0 0 .37.2h.11l-.27-.76-.13.07m-.6.5l.39-.14a.48.48 0 0 1 .1-.35l-.79.28a.47.47 0 0 1 .3.21M7 10.45l.55.65.35-.1-.6-.67zm-.39 2.07a.12.12 0 1 0-.15-.07.12.12 0 0 0 .15.07m1.25-.63a.4.4 0 0 0 .14-.38.35.35 0 0 0 0-.07.44.44 0 0 0 0-.09.4.4 0 0 0-.35-.18h-.12l.27.76.1-.05m.45-.38a.12.12 0 1 0-.08-.23.12.12 0 0 0-.07.15.12.12 0 0 0 .15.08m1.41-2a.12.12 0 1 0-.16-.08.12.12 0 0 0 .16.08m.58.87a.12.12 0 0 0 .08.23.12.12 0 0 0-.08-.23M10 9.69a.12.12 0 1 0-.16-.08.12.12 0 0 0 .16.08m-.62-.23a.12.12 0 1 0-.16-.08.12.12 0 0 0 .16.08m-2.53 2.95a.12.12 0 1 0 .16.08.12.12 0 0 0-.16-.08m3.34-2.21a.15.15 0 1 0 0-.05m-.13-.32a.12.12 0 1 0 .07-.16.12.12 0 0 0-.07.16m0 1.3a.12.12 0 1 0 .08-.13.12.12 0 0 0-.08.15m1.67 1a.5.5 0 0 0 .44.13 1.41 1.41 0 0 0 .48-.18h.12a.42.42 0 0 1 .18 0 .33.33 0 0 1 .18.18.46.46 0 0 0-.29-.51.65.65 0 0 0-.12-.39.79.79 0 0 0-.72-.25.51.51 0 0 0 .3.32 1.22 1.22 0 0 1-.8 0l-.18-.06a.71.71 0 0 0 .7.54h.12a.47.47 0 0 0-.27.06.38.38 0 0 0-.15.17m2.16-5A.18.18 0 1 0 13.7 7a.18.18 0 0 0 .18.18M6.81 12.1a.07.07 0 0 0 0-.09 1.24 1.24 0 0 1-.59-.56v-.1l1-.34a.58.58 0 0 0-.74-.35l-.11.05a.59.59 0 0 0-.26.31.63.63 0 0 0 0 .49 1.37 1.37 0 0 0 .67.63m3.39.26a5 5 0 0 0-2.61.89.27.27 0 0 1-.35.15 1.17 1.17 0 0 0-.63.14.76.76 0 0 1 .12.2.71.71 0 0 0 .63.57.68.68 0 0 1-.38.37.56.56 0 0 0 .35 0 .17.17 0 0 1 .17.09.68.68 0 0 1-.13.53.68.68 0 0 0 0 .61 2.47 2.47 0 0 1 .07.42 2.44 2.44 0 0 0 .34-.6c.08-.19.12 0 .12 0a1.59 1.59 0 0 1-.2.55 1.89 1.89 0 0 0-.08 1 1.36 1.36 0 0 1-.17.59 1.29 1.29 0 0 0 .31-.08 1.45 1.45 0 0 0 .48-1 .33.33 0 0 1 .09-.18s.06-.06 0 .4c0-.1-.05.49-.06.68a1.84 1.84 0 0 1-.06.44l.15-.11a1 1 0 0 0 .4-.69.9.9 0 0 0 .07.35.85.85 0 0 1 .2.59 1.34 1.34 0 0 0 .32-.64 1.86 1.86 0 0 1 .23.86.71.71 0 0 1 0 .09v.1a1.6 1.6 0 0 0 .34-.58.88.88 0 0 0 0-.19.61.61 0 0 0 0-.2 1.16 1.16 0 0 1 .11-.45.37.37 0 0 1 .2-.3 1.43 1.43 0 0 0 .25.74 1.51 1.51 0 0 1 .17-.8l.38.46.3-.36h-.09L11 17l1.21-1.65c-.06-.13-.09-.26-.13-.33a5.34 5.34 0 0 0-.87-.56c-.2-.16 0-.18 0-.18a1 1 0 0 0 1-.11A.48.48 0 0 1 12 14a2.2 2.2 0 0 0-.93-.62c.71.25.84-.11.84-.11a.46.46 0 0 1-.47-.14A1.14 1.14 0 0 0 11 13a1.11 1.11 0 0 0 .23-1H11a.64.64 0 0 0-.5.21c-.15.19-.27.1-.27.1M7.2 14a.7.7 0 0 1-.32-.46 1.79 1.79 0 0 1 .4-.06.7.7 0 0 1 .42.58 2.49 2.49 0 0 1-.5-.06m3.1-1a.76.76 0 0 1-.25.62.47.47 0 0 1-.57-.2 6.12 6.12 0 0 0 .82-.42m-1.38 1.5a.25.25 0 0 1 .08-.09l.9-.31c.07 0 .1 0 .25.19s-.09 0-.11 0a.19.19 0 0 0-.2.07c-.19.19 0 .12.12.13a.81.81 0 0 0-.27.34c.05.17.25.09.31.17a3.07 3.07 0 0 0 .2.52.27.27 0 0 1 0 .38l-.2.1h-.13a.23.23 0 0 1-.23-.09 3 3 0 0 1-.26-.66v-.09a.23.23 0 0 0 .2-.16 1 1 0 0 0 0-.13c-.08-.24-.45 0-.47-.11s.39-.17 0-.18c-.09 0-.12 0-.18.19a.18.18 0 0 1 0-.13m-1-.55a6.23 6.23 0 0 0 .88-.3.47.47 0 0 1-.26.55.77.77 0 0 1-.62-.25m.47 1.38h-.22a.77.77 0 0 1 .09-.6.41.41 0 0 0 .31.47h.16a.48.48 0 0 0 0 .34.56.56 0 0 0 .32.29H9a.62.62 0 0 1-.63-.57m1.9 1a.37.37 0 0 1-.13-.07.24.24 0 0 1-.07.15c-.24.08-.95.29-1 0a1.32 1.32 0 0 0 1-.2c1-.37.94-.59.94-.59s.25.33-.75.75m.58-1.13v.05a.55.55 0 0 0 0-.43.49.49 0 0 0-.26-.22.55.55 0 0 0 .12-.11.41.41 0 0 0-.14-.6h-.09a.76.76 0 0 1 .51.32l-.13.17a.62.62 0 0 1 0 .85m-.3-2.9a.77.77 0 0 1 .54-.23 1.68 1.68 0 0 1 0 .41.7.7 0 0 1-.65.3 2.73 2.73 0 0 1 .16-.48m1.14-2.54l.26-.06a1 1 0 0 0-.45.33.78.78 0 0 0-.12.44 1 1 0 0 0 .91-.14 2.92 2.92 0 0 0 .66-.73.75.75 0 0 1 .2-.15.84.84 0 0 1 .36-.08.66.66 0 0 1 .48.18.92.92 0 0 1 .15.27 1.18 1.18 0 0 1 .07.3 1.62 1.62 0 0 1-.06.59 1.59 1.59 0 0 0 0-.58 1.11 1.11 0 0 0 0-.27.83.83 0 0 0-.13-.19v.07a1.2 1.2 0 0 1 .06.31 1.64 1.64 0 0 1-.07.6 1.58 1.58 0 0 0 0-.58 1.11 1.11 0 0 0-.1-.26.82.82 0 0 0-.14-.19v.11a1.18 1.18 0 0 1 .06.31 1.64 1.64 0 0 1-.07.6 1.57 1.57 0 0 0 0-.58 1.08 1.08 0 0 0-.1-.26.82.82 0 0 0-.14-.19.85.85 0 0 1 .1.21 1.16 1.16 0 0 1 0 .31 1.77 1.77 0 0 1-.09.6 1.73 1.73 0 0 0 0-.59 1 1 0 0 0 0-.28.71.71 0 0 0-.16-.22v.08a.73.73 0 0 1 .06.17 1.22 1.22 0 0 1 0 .36v.34a2 2 0 0 0 0 .34 2 2 0 0 1 0-.34v-.34a1.12 1.12 0 0 0-.11-.39.67.67 0 0 0-.14-.23h-.07a.6.6 0 0 1 .16.34v.95c0 .15-.11 1.72.78 2.27a2.37 2.37 0 0 0 .58.14h.11a.18.18 0 0 1-.09.16h-.14a1 1 0 0 1-.27 0 1.09 1.09 0 0 1-.53-.24 2.88 2.88 0 0 0-.32-.34.41.41 0 0 0-.24-.05.31.31 0 0 0 0 .22.54.54 0 0 0 .15.28.33.33 0 0 1-.28 0 .94.94 0 0 1-.38-.55.52.52 0 0 0-.11-.15.57.57 0 0 1 .07.23L12.5 13l-.07-.07V13a.62.62 0 0 1 .09.25.61.61 0 0 0-.1-.25l-.09-.09.05.09a.67.67 0 0 1 .07.23.64.64 0 0 0-.1-.21h-.08l.08.12a.62.62 0 0 1 .08.26.57.57 0 0 0-.13-.22l-.15-.18.1.15a.85.85 0 0 1 .07.16 1.76 1.76 0 0 0 .47.75l.21.13a.72.72 0 0 0-.3 0 .59.59 0 0 0-.24.15.63.63 0 0 0 .32.28.87.87 0 0 0 .45 0l-.14.13a.26.26 0 0 0-.06.15.46.46 0 0 0 .4 0 2.47 2.47 0 0 0 .45-.34 3.4 3.4 0 0 0 .71-.18 2.93 2.93 0 0 0 .41-.23 1.69 1.69 0 0 0 .43-.38 1.43 1.43 0 0 0-.3.22l-.23.11.19-.1.16-.12.13-.11-.16.11a1.63 1.63 0 0 1-.39.19 1.67 1.67 0 0 0 .37-.21l.15-.12-.18.12-.2.1-.23.04.2-.07.18-.11.17-.13-.29.17-.19.07.19-.09.25-.18h-.6a1.5 1.5 0 0 1-.35-.1 1.33 1.33 0 0 1-.3-.4.9.9 0 0 1-.24-.27.87.87 0 0 0 .26.24 1.38 1.38 0 0 0 .32.14h.23l-.18-.09a1.18 1.18 0 0 1-.39-.4 1.13 1.13 0 0 0 .45.37 1 1 0 0 0 .26.08 1 1 0 0 1-.19-.14 1.36 1.36 0 0 1-.27-.41 1.33 1.33 0 0 0 .32.35l.11.07V13l-.09-.19-.08-.19.11.18.05.2a.31.31 0 0 0 .08.09l-.17-.44.26.35a2.81 2.81 0 0 1-.38-2.15A1.56 1.56 0 0 0 14 9.36a1.49 1.49 0 0 0-.87-.36h-.48l-.24.07a.71.71 0 0 0-.22.12.71.71 0 0 1 .21-.19h.24l.25-.07h.2a1.32 1.32 0 0 0-.55-.61 1.27 1.27 0 0 0-1.37.18.48.48 0 0 0 .57.36l-.21.07a1.16 1.16 0 0 0-.58.33.45.45 0 0 1-.48.06.81.81 0 0 0 1.26.62m1.39 2.44l-6.9-.21a.12.12 0 0 0-.07.15.12.12 0 0 0 .23-.08.12.12 0 0 0-.15-.08m2.93-.94A.12.12 0 0 0 9 11.1l.14.4-.14.07h-.14a.48.48 0 0 1-.44-.25.21.21 0 0 1-.13.24h-.07a.24.24 0 0 1-.13-.11.47.47 0 0 1-.19.45l-.13.1H7.7l-.14-.4H7.5a.12.12 0 0 0-.08.15v.11l-.06-.06a.13.13 0 0 0-.19.16l.07.07-.03-.03h-.08a.12.12 0 0 0 0 .23l.32.09a.39.39 0 0 1-.17.19l-.21.1a.12.12 0 0 0-.08.15H7a.12.12 0 0 0 .15.08l.15-.11v.14a.11.11 0 0 0 0 .07.12.12 0 0 0 .15.08h.06l.06-.16-.12-.11.22-.25.13.11a.14.14 0 0 0 .17 0l.26-.17.18-.08.29-.1h.5a.14.14 0 0 0 .14-.26v-.16l.33.06v.16l.15.08A.13.13 0 0 0 10 12l-.13-.08h.23a.15.15 0 0 0-.1-.28l-.23.05a.39.39 0 0 1-.25 0l.19-.26a.14.14 0 0 0-.15-.19.12.12 0 0 0-.06.05.12.12 0 0 0-.15-.08.12.12 0 0 0-.08.11v-.13zm-.11-1.68a.12.12 0 1 0-.13-.08.12.12 0 0 0 .15.08M6 11.68a.12.12 0 0 0-.23.08.12.12 0 0 0 .15.07.12.12 0 0 0 .08-.15m4.37-.68a.12.12 0 0 0 .08-.15.12.12 0 1 0-.08.16m-4.3 1.17a.12.12 0 0 0-.07-.29.12.12 0 0 0 .08.23m3.8 3.65v-.57l-.19.06zm8.37 17v.07l.06.08a.3.3 0 0 0 .13.08.37.37 0 0 0 .15 0 .38.38 0 0 0 .16 0 .36.36 0 0 0 .13-.11.55.55 0 0 0 .12-.18.78.78 0 0 0 0-.22.64.64 0 0 0 0-.2.45.45 0 0 0-.09-.15.37.37 0 0 0-.19-.14.41.41 0 0 0-.17 0 .35.35 0 0 0-.17 0 .4.4 0 0 0-.12.12.52.52 0 0 0-.07.18.83.83 0 0 0 0 .21v.07a.68.68 0 0 0 0 .16m-3.8 6.52l-.39.19v.29h3.18l-.5.29h-.05v.18h.13l.47.27v1h-.67v.32h.23v-.08H17v.14h.18V42H17v.13h-.21V42h-.23v.31h.67v.27h.23v-2.1l.47-.27h.13V40h-.12l-.51-.29h3.18v-.27l-.35-.14v-2l.4-.35v-.47h-.43v.3H20v-.3h-.11v-1.35h.18v-.47h-.3v.23h-.24v-.23H19v.23h-.19v-.23h-.3v.45h.18v1.35h-.14v.3h-.24v-.3h-.14v-2h.36V34h-.3v.2H18V34h-.49v.2h-.33V34h-.47v.2h-.26V34h-.3v.45h.37v2h-.13v.3h-.25v-.3H16v-1.32h.18v-.47h-.3v.23h-.24v-.23h-.48v.23h-.24v-.23h-.3v.45h.18v1.35h-.14v.3h-.22v-.3H14v.43l.42.37v2zM19 35.94a.31.31 0 0 1 .61 0v.84H19v-.84zm-.1 2.58a.42.42 0 1 1 .84 0v.72h-.86v-.72zm-1.2 1.61l-.33.19-.37-.19.33-.19zm0-5.46a.14.14 0 0 1 .28 0v.57h-.34v-.56h.06zm-.43 0a.14.14 0 0 1 .28 0v.57h-.34v-.56h.06zm.12.71a.37.37 0 0 1 .39.35v1H17v-1a.37.37 0 0 1 .39-.35m-.55-.71a.14.14 0 0 1 .28 0v.57h-.34v-.56zm0 3.69a.6.6 0 0 1 1.19 0v.88h-1.28v-.88zm-1.67-2.42a.31.31 0 0 1 .61 0v.84h-.7v-.84zM15 38.52a.42.42 0 1 1 .84 0v.71H15v-.71zm2.71 2.14v2a.25.25 0 0 1-.25.25h-.2a.25.25 0 0 1-.26-.29h-.43a.25.25 0 0 1-.25-.25v-.82a.25.25 0 0 1 .25-.25H17v-.64l-.23-.13h-4.32a1.73 1.73 0 0 0 .48.6 6.4 6.4 0 0 0 1.43.87 15.61 15.61 0 0 0 2.15.81 1.2 1.2 0 0 1 .74.8 1.2 1.2 0 0 1 .74-.8 15.62 15.62 0 0 0 2.27-.81 6.38 6.38 0 0 0 1.42-.87 1.73 1.73 0 0 0 .48-.6h-4.24l-.23.13zM9.19 30.38h.06v-.07a2 2 0 0 1 .48-1c.2 0 1.71-.14 2-.74a.25.25 0 0 0 0-.3.29.29 0 0 0-.21-.08h-.87a12.9 12.9 0 0 0-4.47.81 13.35 13.35 0 0 1-4.52.77 10.1 10.1 0 0 1-1.14-.06H.4l.47 2.16h.89a13.72 13.72 0 0 0 4.63-.77 12.14 12.14 0 0 1 2.8-.7m-5 .39a.57.57 0 0 1-.28.36.68.68 0 0 1-.23.07h-.51v-1.14h.58a.59.59 0 0 1 .23.06.41.41 0 0 1 .16.14.61.61 0 0 1 .09.25.59.59 0 0 1 0 .25m.61.22h-.22v-.21l-.05-.24-.05-.22-.06-.24a.29.29 0 0 0-.06-.21h.25v.21l.05.24.05.22.06.24.1.21h-.07m1-.27h-.52v-.21l-.06-.24-.06-.22-.07-.24-.13-.08h.3l.22-.06h.13a.25.25 0 0 0 0 .07v.07h-.39v.36l.2-.06.36-.12v.1l-.39.09v.2l.06.2.19-.06H6v.14h-.11m.38-.52v-.35l-.19-.2v-.12h.28a.42.42 0 0 0 .07.29V30a1.1 1.1 0 0 0 .1.23.35.35 0 0 0 .11.12.22.22 0 0 0 .13 0L7 30.3a.26.26 0 0 0 .14-.1.31.31 0 0 0 0-.16.69.69 0 0 0 0-.19l-.06-.22-.08-.21-.1-.22H7v.4l.06.2a.56.56 0 0 1 0 .44.54.54 0 0 1-.33.24h-.21a.49.49 0 0 1-.19 0 .41.41 0 0 1-.15-.09.45.45 0 0 1-.1-.18m-2.38.2a.42.42 0 0 0-.1-.13.39.39 0 0 0-.14-.07.46.46 0 0 0-.17 0h-.18v.93h.47a.41.41 0 0 0 .3-.14.57.57 0 0 0 .06-.4.54.54 0 0 0-.06-.18m27.05 6h-.05a1.18 1.18 0 0 0-.79.4H30l-.25.28a1 1 0 0 1-.92.28.86.86 0 0 1-.6-.66 1.39 1.39 0 0 1 0-.22 1.71 1.71 0 0 1 0-.21 1.16 1.16 0 0 1 .12-.4 1.14 1.14 0 0 0-.06.41v.28a1.06 1.06 0 0 1 .12-.4 1 1 0 0 0 0 .4 1.16 1.16 0 0 0 0 .2v.09-.22a1.44 1.44 0 0 1 .15-.54 1.42 1.42 0 0 0-.07.54 2.11 2.11 0 0 0 0 .27V37v-.1a1.7 1.7 0 0 1 0-.26 1.54 1.54 0 0 1 .16-.48 1.52 1.52 0 0 0-.07.49 1.48 1.48 0 0 0 0 .24 1 1 0 0 0 0 .12v-.09a2.28 2.28 0 0 1 0-.29 1.36 1.36 0 0 1 .42-.5 1.3 1.3 0 0 0 0 .54 1.64 1.64 0 0 0 0 .26 2.73 2.73 0 0 1 0-.38 2.17 2.17 0 0 1 .07-.37 1.46 1.46 0 0 1 .15-.34 1.68 1.68 0 0 0-.09.71 2.54 2.54 0 0 0 0 .35v.17l.1-.07a2.24 2.24 0 0 1 .15-1.12 2.15 2.15 0 0 0 0-1.49 4.89 4.89 0 0 0-.27-.48 1.4 1.4 0 0 0 .48.34 1 1 0 0 0 .56 0 1.46 1.46 0 0 0-.15-.87 1.69 1.69 0 0 0-.72-.56 1.51 1.51 0 0 0 .36 0 .49.49 0 0 0 .27-.19 1.76 1.76 0 0 0-.91-.48 3.2 3.2 0 0 0-.9 0 6 6 0 0 0-1.31-.56 5.17 5.17 0 0 0-.87-.08h-.6a3.1 3.1 0 0 0-.32-1.87c-.06-.13-.06-.1-.08 0a2 2 0 0 1-1.44 1.06 25.49 25.49 0 0 1-4.34.69H18a1.83 1.83 0 0 1-.58.47v1.23h-.3v-.76l-.12.33v.07l-.09.17-.12.23h-.09l-.13-.25-.07-.14-.06-.11-.14-.29v.79H16l.06-.3v-.3a4.14 4.14 0 0 1 .09-.6h.15l.1.21.11.22.11.21v.08l.06.12.06-.11.16-.3.31-.36a2.06 2.06 0 0 1-.62-.5 25.47 25.47 0 0 1-5.32-.71 2.05 2.05 0 0 1-1.52-1.09c0-.12 0-.15-.08 0a3.12 3.12 0 0 0-.3 1.93 5.14 5.14 0 0 0-.85-.06 5.25 5.25 0 0 0-.87.08 6.11 6.11 0 0 0-1.31.56 3.2 3.2 0 0 0-.9 0 1.75 1.75 0 0 0-.83.44.5.5 0 0 0 .27.19 1.55 1.55 0 0 0 .37 0 1.68 1.68 0 0 0-.72.56 1.45 1.45 0 0 0-.18.87 1 1 0 0 0 .56 0 1.4 1.4 0 0 0 .48-.34 4.58 4.58 0 0 0-.27.48 2.16 2.16 0 0 0 0 1.49 2.23 2.23 0 0 1 .11 1.1.48.48 0 0 1-.07.18h.05V37a2.51 2.51 0 0 0 0-.35 1.67 1.67 0 0 0-.09-.65 1.37 1.37 0 0 1 .15.34 2 2 0 0 1 .07.37 2.85 2.85 0 0 1 0 .38 2 2 0 0 0 0-.26 1.33 1.33 0 0 0-.05-.54 1.38 1.38 0 0 1 .17.54 2.06 2.06 0 0 1 0 .29v.13-.15a1.18 1.18 0 0 0 0-.12 1.56 1.56 0 0 0 0-.24 1.54 1.54 0 0 0-.07-.49 1.54 1.54 0 0 1 .16.48 1.7 1.7 0 0 1 0 .26v.13V37a1.87 1.87 0 0 0 0-.27 1.41 1.41 0 0 0-.06-.54 1.48 1.48 0 0 1 .15.54 2 2 0 0 1 0 .22v-.08a1.43 1.43 0 0 0 0-.2 1 1 0 0 0 0-.4 1.06 1.06 0 0 1 .12.4v-.08a1.81 1.81 0 0 0 0-.2A1.1 1.1 0 0 0 5.7 36a1.14 1.14 0 0 1 .12.4 1.58 1.58 0 0 1 0 .21 1.39 1.39 0 0 1 0 .22.86.86 0 0 1-.6.66 1 1 0 0 1-.92-.28l-.24-.28-.06-.1a1.19 1.19 0 0 0-.79-.4h.31a.39.39 0 0 0-.29.08 1.36 1.36 0 0 1 .22.44 1.89 1.89 0 0 0 .4.87 1.86 1.86 0 0 0 1.25.39 1.47 1.47 0 0 0 1.1-.85A2.41 2.41 0 0 0 6.31 36a3 3 0 0 1 0-1 1.54 1.54 0 0 1 .18-.44 1.26 1.26 0 0 0 .08.67.62.62 0 0 0 .33.33.83.83 0 0 0 .3-.4 7 7 0 0 0 .11-1 2.34 2.34 0 0 1 .6-1.16 2 2 0 0 1 .42-.35 1.09 1.09 0 0 1 .3-.1.29.29 0 0 1 .34.23 3.26 3.26 0 0 0-.45.45 2.78 2.78 0 0 0-.57 2 1.62 1.62 0 0 0 .5 1.21.47.47 0 0 0 .18-.23 1.53 1.53 0 0 0 .09-.4l.13.34a8 8 0 0 1 .48.87.78.78 0 0 1 0 .44h.11a.84.84 0 0 0 0-.32 1.46 1.46 0 0 0-.1-.37 1.14 1.14 0 0 0-.16-.36 2.64 2.64 0 0 1-.18-.35 2.45 2.45 0 0 0 .19.35 3.79 3.79 0 0 1 .2.34 1.62 1.62 0 0 1 .15.39 1.08 1.08 0 0 1 0 .22v.11a.93.93 0 0 0 .05-.31 1.37 1.37 0 0 0 0-.33 2.26 2.26 0 0 0-.27-.63 2.23 2.23 0 0 1 .37.59 1.52 1.52 0 0 1 .1.35 1.23 1.23 0 0 1 0 .28 1 1 0 0 0 0-.28 1.33 1.33 0 0 0 0-.33 1.92 1.92 0 0 0-.26-.63 2 2 0 0 1 .36.59 1.54 1.54 0 0 1 .09.35v.13A1 1 0 0 0 10 37a1.44 1.44 0 0 0 0-.33 2 2 0 0 0-.21-.67 1.92 1.92 0 0 1 .35.59 1.45 1.45 0 0 1 .09.36V37a1.1 1.1 0 0 0 0-.27 1.45 1.45 0 0 0 0-.33 2 2 0 0 0-.23-.55 2 2 0 0 1 .33.6 1.57 1.57 0 0 1 .08.35 1.2 1.2 0 0 1 0 .37.76.76 0 0 1-.38.44.82.82 0 0 1-.39.09.73.73 0 0 1-.26 0 2.93 2.93 0 0 0-1-.42 1 1 0 0 0-.95.32.92.92 0 0 0 .32.4 1 1 0 0 0 .59.13l-.34.02a1.59 1.59 0 0 0-1.48 1.3l.38-.11c.15 0 .29 0 .62.06a1.53 1.53 0 0 0 .77-.08h.23a.58.58 0 0 0-.39.68 1.28 1.28 0 0 0 1.4-.51 1.64 1.64 0 0 0 .24-.93l-.2.07H9a.72.72 0 0 1-.27 0 .77.77 0 0 0 .27 0h.26l.24-.13.22-.11a1.68 1.68 0 0 0 .68-.84 2 2 0 0 0-.26-1.77h.2a1.35 1.35 0 0 0 .69-.1 1.65 1.65 0 0 1-1.09-.57 3.65 3.65 0 0 1-.43-1.72l-.09.42v-.67a.94.94 0 0 0-.06.19v-.11l-.08.13a1.66 1.66 0 0 0-.14.54 1.75 1.75 0 0 1 .07-.58 1.23 1.23 0 0 1 0-.21 1.25 1.25 0 0 0-.21.22 1.39 1.39 0 0 0-.25.62 1.46 1.46 0 0 1 .19-.68 1.3 1.3 0 0 1 .06-.18 1.53 1.53 0 0 0-.44.48 1 1 0 0 0-.14.38 1.12 1.12 0 0 1 .1-.41 1.58 1.58 0 0 1 .22-.35 3.22 3.22 0 0 1 .33-.35 7.83 7.83 0 0 1 .67-.55 1.74 1.74 0 0 0 .91.44c.57.14 1.06.24 1.65.35l-.69.27a1 1 0 0 0-1.16.44.86.86 0 0 0 .55 1.11 1 1 0 0 0 1-.15s.68 1.42.26 2.1a.44.44 0 0 1-.4.25.44.44 0 0 0-.45.43.55.55 0 0 0 .45.54s-1.65 1.94-.34 3.74c0 0 .57 1 4 2.2a.61.61 0 0 0 .33.79h.08a.91.91 0 0 0 .67-.1 2.91 2.91 0 0 1 .7-.15 2.94 2.94 0 0 1 .7.15.91.91 0 0 0 .67.1.61.61 0 0 0 .45-.74v-.08c3.43-1.25 4-2.2 4-2.2 1.31-1.84-.34-3.69-.34-3.69a.55.55 0 0 0 .45-.54.44.44 0 0 0-.41-.47.44.44 0 0 1-.4-.25c-.41-.68.26-2.1.26-2.1a1 1 0 0 0 1 .15.85.85 0 0 0 .55-1.07v-.05a1 1 0 0 0-1.23-.41l-.67-.26c.61-.11 1.13-.21 1.71-.36l.23-.06h.06a1.69 1.69 0 0 0 .49-.26 4.61 4.61 0 0 1 .54.45 3.07 3.07 0 0 1 .33.35 1.56 1.56 0 0 1 .22.35A1.07 1.07 0 0 1 26 34a1.07 1.07 0 0 0-.14-.38 1.56 1.56 0 0 0-.24-.31l-.2-.17a1.3 1.3 0 0 1 .13.19 1.47 1.47 0 0 1 .19.68 1.39 1.39 0 0 0-.25-.62 1.2 1.2 0 0 0-.21-.22 1.14 1.14 0 0 1 .11.25 1.75 1.75 0 0 1 .07.58 1.71 1.71 0 0 0-.14-.54l-.08-.13v.07a.93.93 0 0 0-.06-.19v.67l-.09-.42a3.66 3.66 0 0 1-.43 1.72 1.65 1.65 0 0 1-1.09.57 1.34 1.34 0 0 0 .59.1h.3a3 3 0 0 0-.16.3 1.93 1.93 0 0 0-.1 1.48 1.68 1.68 0 0 0 .68.84h.11l.25.09h.26a.74.74 0 0 0 .27 0 .72.72 0 0 1-.27 0h-.26l-.24.04-.2-.07a1.63 1.63 0 0 0 .24.93 1.28 1.28 0 0 0 1.4.51.58.58 0 0 0-.44-.68h.23a1.52 1.52 0 0 0 .77.08c.33 0 .47-.09.62-.06l.38.11a1.59 1.59 0 0 0-1.48-1.3l-.26-.07a1 1 0 0 0 .57-.05.91.91 0 0 0 .32-.4 1 1 0 0 0-1-.32 2.94 2.94 0 0 0-1 .42.73.73 0 0 1-.26 0 .82.82 0 0 1-.39-.09.76.76 0 0 1-.38-.44 1.23 1.23 0 0 1 0-.37 1.38 1.38 0 0 1 .06-.3v-.1l.08-.19a2 2 0 0 1 .26-.41 1.92 1.92 0 0 0-.2.39 1.94 1.94 0 0 0-.07.23 1.45 1.45 0 0 0 0 .32 1 1 0 0 0 0 .27V37a1.48 1.48 0 0 1 .09-.36 2 2 0 0 1 .33-.64 2 2 0 0 0-.26.63 1.36 1.36 0 0 0 0 .33 1.07 1.07 0 0 0 0 .27v-.13a1.51 1.51 0 0 1 .09-.35 2 2 0 0 1 .35-.59 2 2 0 0 0-.26.63 1.4 1.4 0 0 0 0 .33 1 1 0 0 0 0 .28 1.11 1.11 0 0 1 0-.28 1.52 1.52 0 0 1 .1-.35 2.24 2.24 0 0 1 .37-.59 2.26 2.26 0 0 0-.27.63 1.37 1.37 0 0 0 0 .33.91.91 0 0 0 0 .31.94.94 0 0 1 0-.11 1.08 1.08 0 0 1 0-.22 1.56 1.56 0 0 1 .21-.36 3.79 3.79 0 0 1 .2-.34 2.41 2.41 0 0 0 .19-.35 2.83 2.83 0 0 1-.16.37 2.83 2.83 0 0 0-.16.36 1.43 1.43 0 0 0-.1.37.83.83 0 0 0 0 .32h.13a.78.78 0 0 1 0-.44 8.11 8.11 0 0 1 .48-.87l.13-.34a1.59 1.59 0 0 0 .09.4.47.47 0 0 0 .18.23 1.62 1.62 0 0 0 .5-1.21 2.79 2.79 0 0 0-.57-2 3.26 3.26 0 0 0-.45-.45.29.29 0 0 1 .32-.25 1.07 1.07 0 0 1 .3.1 2 2 0 0 1 .42.35 2.33 2.33 0 0 1 .58 1 7.16 7.16 0 0 0 .11 1 .84.84 0 0 0 .3.4.62.62 0 0 0 .33-.33 1.25 1.25 0 0 0 .08-.67 1.53 1.53 0 0 1 .18.44 3 3 0 0 1 0 1 2.42 2.42 0 0 0 .11 1.35 1.47 1.47 0 0 0 1.1.85A1.4 1.4 0 0 0 31 37v-.12a1.38 1.38 0 0 1 .22-.44.38.38 0 0 0-.29-.08m-22-4.71a3.56 3.56 0 0 0-.49.07 3.35 3.35 0 0 1 .48-.1m.32.16h.2v.08h-.17a3 3 0 0 0-.82.08 3.07 3.07 0 0 1 .82-.15M8.8 32a2.53 2.53 0 0 1 .41 0h.33v.08h-.32a2.38 2.38 0 0 0-.41 0 1.36 1.36 0 0 0-.4.14A1.34 1.34 0 0 1 8.8 32m.27.24a2.07 2.07 0 0 0-.37.07l-.29.11.28-.14a2.06 2.06 0 0 1 .37-.1 4.23 4.23 0 0 1 .63 0l.06.07h-.68m10.67-.48h.08l.35.28.1.08.12.09.34.27v-.8h.16v1.12h-.15l-.63-.52-.22-.17V33h-.11a.89.89 0 0 0 0-.1v-1.09h.08m-1.81.48a.6.6 0 0 1 .13-.21.64.64 0 0 1 .21-.15.83.83 0 0 1 .29-.06 1 1 0 0 1 .28 0 .65.65 0 0 1 .23.1.55.55 0 0 1 .16.19.6.6 0 0 1 .06.2v.07a.6.6 0 0 1 0 .18v.07a.63.63 0 0 1-.13.2.67.67 0 0 1-.22.15.81.81 0 0 1-.28.06 1.16 1.16 0 0 1-.28 0 .61.61 0 0 1-.23-.1.53.53 0 0 1-.27-.12v-.06a.6.6 0 0 1-.06-.18.82.82 0 0 1 0-.1.59.59 0 0 1 0-.25m-3.66-.4h.87L15 32h-.13v1h-.3v-1a.36.36 0 0 0 0-.06h-.32m-1.12.71v-1h.7a.31.31 0 0 0 0 .07h-.27V32H14v.3l-.41-.08v.44H14v.08h-.9v-.22m-1.35 5a.29.29 0 0 1 .25-.25.7.7 0 0 0 .47-.58 3.08 3.08 0 0 0-.47-2.4.81.81 0 0 0-.19-.16.26.26 0 1 0-.26.43.4.4 0 0 0 .25.06.6.6 0 0 1-.54.09.54.54 0 1 1 .32-1 .62.62 0 0 1 .18.09l.11.1a3.36 3.36 0 0 1 .57 3.85.3.3 0 0 1-.27.18.29.29 0 0 1-.29-.29m4.82 6.68a.59.59 0 0 1-.74.34.51.51 0 0 1-.31-.66.25.25 0 0 0 .35-.1.24.24 0 0 0-.19-.24h-.08c-3.47-1-4.11-2.31-4.11-2.31-.82-1.2.28-3 .28-3a.46.46 0 0 1 .4-.22.42.42 0 0 1 .45.38.38.38 0 0 1-.25.34.19.19 0 1 0-.33-.15l-.06.14a3.05 3.05 0 0 0-.29 1.68c.29 1.57 4.1 2.68 4.56 2.81a.59.59 0 0 1 .14.8M23 41.34s-.64 1.27-4.11 2.31a.24.24 0 0 0-.19.24.25.25 0 0 0 .3.11.51.51 0 0 1-.23.53.66.66 0 0 1-.6-1.14h.06c.46-.13 4.27-1.24 4.56-2.81a3 3 0 0 0-.29-1.68l-.06-.14a.19.19 0 1 0-.33.14.37.37 0 0 1-.25-.34.42.42 0 0 1 .45-.38.46.46 0 0 1 .4.22s1.11 1.77.28 3m0-7.73a.67.67 0 0 1 .18-.09.54.54 0 1 1 .32 1 .61.61 0 0 1-.47 0h.11a.26.26 0 1 0-.26-.42.43.43 0 0 0-.11.1 3.06 3.06 0 0 0-.59 2.45.71.71 0 0 0 .47.58.3.3 0 1 1-.35.4 3.36 3.36 0 0 1 .57-3.85l.11-.1m-.27-.19a4.33 4.33 0 0 0-.6 4.45.66.66 0 0 0-.55.66.65.65 0 0 0 .69.61 3.25 3.25 0 0 1 .24.78c.49 1.76-4.31 3.11-4.31 3.11a.85.85 0 0 0-.34 1.4 2.88 2.88 0 0 0-.54-.08 2.88 2.88 0 0 0-.55.08.85.85 0 0 0-.34-1.4S11.65 41.8 12.14 40a5 5 0 0 1 .21-.78.64.64 0 0 0 .21-1.22 4.33 4.33 0 0 0-.61-4.45l.86-.33a28.43 28.43 0 0 0 9.06 0zm2.61-1.86h.22a3.39 3.39 0 0 1 .48.1 3.52 3.52 0 0 0-.49-.07h-.23m-.06.17A2.89 2.89 0 0 1 26 32a2.89 2.89 0 0 0-.8 0v-.1m-.05.1h.09a2.53 2.53 0 0 1 .42.07 1.37 1.37 0 0 1 .39.17 1.38 1.38 0 0 0-.4-.14 2.38 2.38 0 0 0-.42 0h-.12V32m.61.39a2.1 2.1 0 0 0-.37-.07h-.45l.1-.17h.39a1.93 1.93 0 0 1 .37.1l.24.17-.29-.11m4.48-2.25a.36.36 0 0 0-.19-.13.32.32 0 0 0-.17 0 .38.38 0 0 0-.14.08.48.48 0 0 0-.11.15.73.73 0 0 0-.07.19.71.71 0 0 0 0 .23.41.41 0 0 0 0 .16.33.33 0 0 0 .1.1h.13a.38.38 0 0 0 .16 0 .34.34 0 0 0 .1-.02.48.48 0 0 0 .12-.14.81.81 0 0 0 .08-.23.6.6 0 0 0 0-.2.4.4 0 0 0 0-.16m4-6a1.37 1.37 0 0 0 .35-1c0-.48-.35-1.38-2.14-2-.53-.17-2-.77-2.24-1.49a.64.64 0 0 1 .11-.6.83.83 0 0 1 .49-.34.61.61 0 0 1 .42.12l.14.22a.52.52 0 0 1 .27.54c.64-.31.16-1.24.16-1.24a1.4 1.4 0 0 1 .5.11 1 1 0 0 0-1.14-.68.7.7 0 0 0 0-.62 3.77 3.77 0 0 1-1 1.3 1.52 1.52 0 0 0-.35.38 1.25 1.25 0 0 0-.12 1.11c.43 1.12 2.4 1.78 2.62 1.85 1.06.34 1.69.86 1.73 1.42a.82.82 0 0 1-.49.78 1.59 1.59 0 0 1-1.51-.72 2.29 2.29 0 0 0-.54-.65 4.92 4.92 0 0 0-.84-.51h.09a.09.09 0 0 0 0-.13l-.35-.7a.09.09 0 0 0-.13 0l-.14.07-.09-.12.21-.19a.09.09 0 0 0 0-.13l-.5-.6a.1.1 0 0 0-.13 0l-.11.09-.09-.11.08-.12a.09.09 0 0 0 0-.13l-.65-.43a.09.09 0 0 0-.13 0l-.07.1a1.51 1.51 0 0 1 .16-.67h.06l.1-.12.34-.38.41-.43.1-.11-.08-.12a.27.27 0 0 0-.13-.1l.13-.19a2.17 2.17 0 0 0 0-.49.79.79 0 0 0 .6.52 2 2 0 0 1 .09-1 2.22 2.22 0 0 0-.31-.87c0-.1.06-.08.06-.08a1 1 0 0 0 .62.3 1.36 1.36 0 0 1-.15-1 1.6 1.6 0 0 0-1-1.1.49.49 0 0 0 .4-.37 2 2 0 0 1-1.23-.52l-.13.2a1.1 1.1 0 0 0-.65-1.3 1.54 1.54 0 0 1-.25.73.9.9 0 0 0-.2.36l-.25.07.08-.18A1 1 0 0 0 27 12a.57.57 0 0 1-.06.55.4.4 0 0 0 .06.45h-.19l-.36.11a.51.51 0 0 0-.11.28 1.61 1.61 0 0 1-.32.38 11.82 11.82 0 0 0-1.29.65.19.19 0 0 0-.07.24 1 1 0 0 1 0 .45.2.2 0 0 0 0 .15v.21h.19l.15-.08 1-.39c.15-.06.18 0 .21.12a.25.25 0 0 1-.16.14l-1 .47s-.07.17.07.16a.28.28 0 0 0 .21 0 .78.78 0 0 0 .24 0h.35l.33-.15a.42.42 0 0 1 0 .28.66.66 0 0 0 .35-.45l.4-.21a.78.78 0 0 1 .14-.45c.25-.18.21.13.21.13v.23l.51-.15s.93-.09.51-1.22c.25.3.63 1.1-.37 1.36a3.83 3.83 0 0 0-2 1.38.64.64 0 0 0-.1-.22.32.32 0 0 0-.3-.34h-.1v.42a.09.09 0 0 0-.13 0l-.66.42a.1.1 0 0 0 0 .13l.09.14-.08.15h-.37a.09.09 0 0 0-.09 0l-.37-.2h-.31a.42.42 0 0 0-.2.1h-.07l.29.39a.3.3 0 0 1 .06-.09.17.17 0 0 1 .24 0l.15.18.09.1v.26a.1.1 0 0 0 .09.1h.16v.15l-.18.11a.1.1 0 0 0 0 .13l.4.67a.09.09 0 0 0 .09 0v.07a9.19 9.19 0 0 1 1.81-.33 1.33 1.33 0 0 1 .24-.55.89.89 0 0 0-.07.25.59.59 0 0 0 0 .19 1.64 1.64 0 0 0 0 .17l-.06.12h-.07a7.88 7.88 0 0 0-1.68.3h-.22a.21.21 0 0 1-.12 0h-.12a.85.85 0 0 0-.28.25.46.46 0 0 0 .06.19v.09a10.27 10.27 0 0 0 .57 1.56A1.07 1.07 0 0 0 25 22a1.74 1.74 0 0 0 .25.17 2.49 2.49 0 0 0 .4.19.46.46 0 0 0-.06-.3.92.92 0 0 1-.36-.22 2.33 2.33 0 0 1 .44.14h.25l-.35-.6a.39.39 0 0 0-.2 0H25v-.06a.43.43 0 0 0-.17-.17l-.33-.85h2.06a.57.57 0 0 0 .32 0 .31.31 0 0 0 .3-.1l.49-.4h.17l.2-.06-.73.59a.45.45 0 0 1-.43.18 1.14 1.14 0 0 1-.34 0H25a7.21 7.21 0 0 0 .29.79.44.44 0 0 1 .4.12 5.16 5.16 0 0 0 .36.62l.23.4-.43-.18a4 4 0 0 0 1.87.81c.49.22.22.51.22.51l-.48.42a.9.9 0 0 0-.27 1.16 1.57 1.57 0 0 0 1.26 1 .44.44 0 0 1 .22.11.33.33 0 0 1 .11.2 6.37 6.37 0 0 0-1 1 .21.21 0 0 1-.16 0 1.09 1.09 0 0 0-.74.3l-.08.12-.2.26 1 .19.15-.34v-.15s.36-.28.78-.54l-.16.69a.1.1 0 0 0 .07.11h.15v.14h-.16a.09.09 0 0 0-.11.07l-.08.37h.18l.06-.29.29.07-.07.31h.18l.12-.42a.09.09 0 0 0-.07-.11h-.15v-.14h.15A.1.1 0 0 0 29 28l.18-.76a.1.1 0 0 0-.07-.11H29V27h.1a.1.1 0 0 0 .2 0l.06-.17h.13c.31 0 .3-.44.28-.62v-.27l.23-.6a.09.09 0 0 0 0-.13l-.13-.06V25l.13.1a1.42 1.42 0 0 0 .26.31L31 26l1 1c.73 1.54.62 1.54.62 1.54l-.29.35a4.94 4.94 0 0 0-.2.51h.42l.17-.23v.26H33V29l-.23-.22a.26.26 0 0 1 0-.23 1.59 1.59 0 0 0-.26-1.41.63.63 0 0 1-.08-.44.47.47 0 0 0-.14-.42 7.67 7.67 0 0 1-.65-1.11.5.5 0 0 1 .09-.28.5.5 0 0 1 .2.37 2.86 2.86 0 0 0 .25-1.06 2.59 2.59 0 0 0 .33.19.88.88 0 0 0 .76.52 2.7 2.7 0 0 0 .76 0 6.61 6.61 0 0 1-.6-.41 1.18 1.18 0 0 0 .25-.08.62.62 0 0 0 1-.38.34.34 0 0 1-.45.13m-9-9.11c0 .08-.19.06-.2 0a.24.24 0 0 1 0-.14.26.26 0 0 0-.03-.21c-.08-.08 0-.11 0-.11.37-.11.26.41.26.41m1.74-1.2a1 1 0 0 0-.29.11v-.06a.79.79 0 0 1 .09-.21.19.19 0 0 1 .09-.09.56.56 0 0 1 .21 0 .9.9 0 0 1 .31.13l-.42.07m1.53-1.05a.5.5 0 0 1-.51.45c-.39 0 0-.55 0-.55a1.18 1.18 0 0 0 .17-.52.63.63 0 0 1 .34.62m-3.16 3.92l.11.17v.2l-.47.28-.23-.28zM24.44 18v-.55h.3V18h-.3zm.48.75l-.11.32-.24-.41-.06-.1.26-.15.17.3zm.44-1.08l-.34.8-.09-.16v-.04a.09.09 0 0 0 .07-.09v-.67l.29-.21h.07v.22h.15zm.25-.38c0-.17.1-.94.11-1.08s.12 0 .13.22a.37.37 0 0 1 .08.38.5.5 0 0 0-.16-.22v.3a.2.2 0 0 0 .08.19l.21.08a.77.77 0 0 0 .23 0h.14a.13.13 0 0 0-.17-.16h-.16a1.79 1.79 0 0 1 0-.23.15.15 0 0 1 .13-.11.12.12 0 0 1 .11.06.52.52 0 0 0 .09.16.64.64 0 0 1 0-.26 1 1 0 0 1 .3-.37 1.48 1.48 0 0 1 .08.3.53.53 0 0 1 0 .19.54.54 0 0 1-.2.18h.2c.09 0 .16.07.09.23a1.31 1.31 0 0 1-.07.17.26.26 0 0 0-.2-.19.1.1 0 0 0-.09.09.16.16 0 0 0 0 .06.22.22 0 0 0 0 .08.31.31 0 0 0 .17.15 1.31 1.31 0 0 0 .4.13h.08a.15.15 0 0 0 .07-.08.12.12 0 0 0-.06-.16h-.02a.27.27 0 0 0-.15 0l.06-.18a.17.17 0 0 1 .14-.14.2.2 0 0 1 .15.14.17.17 0 0 0 0 .1.54.54 0 0 1 0-.27.8.8 0 0 1 .34-.3 1 1 0 0 1 0 .47.56.56 0 0 1-.22.17l.17-.06a.14.14 0 0 1 .12.16.39.39 0 0 1-.1.2.35.35 0 0 0-.18-.21.13.13 0 0 0-.1.09.17.17 0 0 0 0 .12.32.32 0 0 0 .19.18l.27.13a.46.46 0 0 0 .21.07h.07a.19.19 0 0 0 .09-.07.14.14 0 0 0-.06-.19H28a.28.28 0 0 1 .08-.18.15.15 0 1 1 .29 0v.09a.54.54 0 0 1 0-.27.68.68 0 0 1 .31-.21h.08a1.84 1.84 0 0 1 0 .31.47.47 0 0 1 0 .14.59.59 0 0 1-.24.15h.17a.14.14 0 0 1 .1.21 1.61 1.61 0 0 1-.15.2.3.3 0 0 0-.13-.25.12.12 0 0 0-.09.06.17.17 0 0 0 0 .08.19.19 0 0 0 0 .06.45.45 0 0 0 .22.25.5.5 0 0 0 .23.08.26.26 0 0 0 .13 0l.13-.1.1-.1a.1.1 0 0 0-.09 0H29a.36.36 0 0 1 .33-.19.36.36 0 0 1 .1-.14h.07l-.41.44-.09.15-.21.23a14.4 14.4 0 0 0-3.23-1.45m4.76 4l.26.53-.13.1h-.14l-.1-.2-.21-.32zm-.9-.71l.23-.18.35.43-.23.19-.33-.39v-.06zm-.79-.66l.15-.22.49.33-.07.11-.1.15-.25-.17-.22-.2zm.1.29l.09.06.18.18a.09.09 0 0 0 .12 0l.09-.13-.13.11a.09.09 0 0 0 0 .13l.62.66a.09.09 0 0 0 .13 0l.17-.1v.09l-.14.07a.09.09 0 0 0 0 .13l.07.15a3.11 3.11 0 0 1-1.18-1.31m.82 4.39a1.36 1.36 0 0 1 0-.59l-.67-.57.68.24a2.08 2.08 0 0 0-.56-1 1.88 1.88 0 0 1 .8 1.36zm.15.28v.09h-.06V25zm-.85 2v.06m0 .88l-.29-.07.14-.58h.26zm.29-1.07l-.28-.11.2-.56.28.1zm.56-1.29l-.15.33-.28-.13.25-.54.13.06.14.06zm.28-.69h-.07l-.21-.08.11-.3.09-.25.28.11-.2.52zm.34-1L30 23.8l.18-.57.29.09zm.27-1h-.3l.06-.59h.3zm-3 6.3a.45.45 0 0 0-.15-.08h-.18v.26l-.08.28v.18L27 30h.09a.41.41 0 0 0 .34 0 .56.56 0 0 0 .22-.34.5.5 0 0 0 0-.19.41.41 0 0 0 0-.16.36.36 0 0 0-.1-.12m5.45.5a13.36 13.36 0 0 1-4.46-.69 12.89 12.89 0 0 0-4.47-.79h-.93a.28.28 0 0 0-.21.07.25.25 0 0 0 0 .31c.34.6 1.86.72 2 .74a2 2 0 0 1 .48 1v.06h.06a12.23 12.23 0 0 1 2.8.7 13.72 13.72 0 0 0 4.63.77h.9l.47-2.16h-.07a9.77 9.77 0 0 1-1.14.06m-5.11 0a.64.64 0 0 1-.12.23.57.57 0 0 1-.18.14.55.55 0 0 1-.22.06.63.63 0 0 1-.24 0l-.19-.07h-.3l.07-.2.07-.23.06-.22.1-.33v-.21h.45l.26.07a.61.61 0 0 1 .18.15.41.41 0 0 1 .08.2.59.59 0 0 1 0 .27m1.11.09a.28.28 0 0 1-.13.17.38.38 0 0 1-.23 0 1.28 1.28 0 0 0 .09.32l.11.32h-.32l-.15-.52-.07.24v.21h-.33l.07-.2v-.29l.07-.22.07-.24v-.21H29a.28.28 0 0 1 .06.11.27.27 0 0 1 0 .13m1.5.68a.59.59 0 0 1-.1.22.6.6 0 0 1-.18.16.61.61 0 0 1-.23.08.75.75 0 0 1-.28 0 1 1 0 0 1-.25-.09.57.57 0 0 1-.19-.14.5.5 0 0 1-.1-.21.62.62 0 0 1 0-.27.59.59 0 0 1 .09-.22.65.65 0 0 1 .17-.16.63.63 0 0 1 .23-.08.79.79 0 0 1 .28 0 .91.91 0 0 1 .25.09.59.59 0 0 1 .19.15.5.5 0 0 1 .1.21.63.63 0 0 1 0 .27m.64-.22v.91h-.43v.07-.89h.28v.21m1.2 0h-.15v1h-.38v-1a.37.37 0 0 0 0-.06h-.21v-.03h.91M.93 23.46l.3.06a2.19 2.19 0 0 1-.65.5 3.15 3.15 0 0 1 .76 0 .87.87 0 0 0 .76-.53A7.46 7.46 0 0 0 3.62 23a2.48 2.48 0 0 1 0 .84c-.11.64-.67 1.58-1.35 1.49a.49.49 0 0 0-.64.62 2.12 2.12 0 0 1 0 1.39.18.18 0 0 0 .2.15 2.15 2.15 0 0 0-.39.89s.56-.2.56.22a.69.69 0 0 0-.13.76 2.65 2.65 0 0 1 1-.12.57.57 0 0 0 .81 0 .22.22 0 0 1 .31 0v.07a.23.23 0 0 0 .16-.31s0-.31.16-.29.56.06.56.26a.58.58 0 0 0-.42-.7h-.13a.52.52 0 0 0-.84 0s-.34.31-.48-.27-.55-2 .35-2.2l2.37-.66s.21 0 .19-.43a2.86 2.86 0 0 1 .09-.8 5.79 5.79 0 0 1 .47-1.44 3.34 3.34 0 0 0-.09.83l1.23-.83.58-.47 1.23-.82h-.06a1.39 1.39 0 0 0-1-.27h-.65a.19.19 0 0 1-.18-.29l.35-1.09a.42.42 0 0 1 .14.18l-.31 1h.59c1 .1 1 .15 1.19.33l.1.08.12.06h.11a.19.19 0 0 1-.06-.18.31.31 0 0 1 0-.07.39.39 0 0 1 0-.1.48.48 0 0 0-.07-.29H9.81a.65.65 0 0 1 .13.33.24.24 0 0 0 .1.15.36.36 0 0 0 .2 0h.08a.16.16 0 0 1 0-.08.28.28 0 0 1 .13 0h.18l.06.06a.14.14 0 0 0 .14.11.1.1 0 0 1 .17-.03h.06a.26.26 0 0 1 0 .37.3.3 0 0 0 0 .3l.08.25a.16.16 0 0 0 .19.11 1 1 0 0 0 .27-.11h.06a.35.35 0 0 1 0 .32v.09l.13-.1a.63.63 0 0 0 .21-.41.17.17 0 0 1 .1-.07.62.62 0 0 1-.11.45h.06l.08-.06a.53.53 0 0 0 .12-.39h.08a.53.53 0 0 1-.06.37l.11-.2a.61.61 0 0 0 .13-.65.5.5 0 0 0-.18-.25l-.12-.1h-.14a.73.73 0 0 1-.17-.19l-.11-.22v-.07a.59.59 0 0 0-.21-.16l-.17-.08h-.08L10.9 20l-.3-.14h-.09l-.37-.18-.14-.12h-.06l-.5-.21-.62-.27a.57.57 0 0 1 .34-.08l.58.25.26.06.1-.31c.09-.19.18-.37.28-.55a7.9 7.9 0 0 1 .64-1l-.31-.45a1.46 1.46 0 0 0-.13.67v.13a1.1 1.1 0 0 1-.36-.8.22.22 0 0 0-.08.16 1.2 1.2 0 0 0 .05.44.7.7 0 0 1 0 .28 1 1 0 0 1 0 .26 1.57 1.57 0 0 1-.37.61.09.09 0 0 1-.1 0 .19.19 0 0 1-.05-.2 1.33 1.33 0 0 1 0-.15 1.63 1.63 0 0 0-.15-.62 1.78 1.78 0 0 1-.43.72.93.93 0 0 0 0-.16.78.78 0 0 0-.18-.49v-.2a1.06 1.06 0 0 1-.07.15 1.47 1.47 0 0 1-.84.6.16.16 0 0 1 0-.09 1 1 0 0 0 .14-.56v-.07c-.14.21-.28.32-.47.62a1.14 1.14 0 0 0-.12.28A15.13 15.13 0 0 0 6 19.68l-.19.17-.28-.34a3.7 3.7 0 0 0 .79-.91 2 2 0 0 0 0-2.33.69.69 0 0 1 .32-.63.1.1 0 0 0 0-.2 1.17 1.17 0 0 0-.8.37.79.79 0 0 0-.16.48.76.76 0 0 0-.41-.13h-.14a.45.45 0 0 1-.44-.16.26.26 0 0 1 0-.25.1.1 0 1 0-.18-.09 1 1 0 0 0-.13.72.73.73 0 0 0 .27.38h-.12a.17.17 0 0 1-.18-.09.1.1 0 0 0-.19.07 1 1 0 0 0 .63.71.32.32 0 0 1-.25.14.1.1 0 0 0-.05.2 1 1 0 0 0 .36.07.6.6 0 0 0 .45-.16.65.65 0 0 1 .37.37.47.47 0 0 1-.24.39 4.84 4.84 0 0 1-2 .8l-.54.13A3.62 3.62 0 0 0 .3 21a2.28 2.28 0 0 0-.13 1.79 1.17 1.17 0 0 0 .26.39A.34.34 0 0 1 0 23a.6.6 0 0 0 .93.43m0-1.61a1.6 1.6 0 0 1 .91-1.3 3.79 3.79 0 0 1 1.7-.33 9 9 0 0 1 1.69.18 13 13 0 0 0-1.56 1.54 4.87 4.87 0 0 1-2 .69.7.7 0 0 1-.57-.21.82.82 0 0 1-.1-.6m27.79 7.74h-.15l-.18.47a.25.25 0 0 0 .19 0 .24.24 0 0 0 .11-.15.34.34 0 0 0 0-.12.12.12 0 0 0 0-.08h-.07M8.74 9.67a.12.12 0 1 0-.16-.07.12.12 0 0 0 .16.07m-.07.18l-.34.15-.06.88.35-.12zm-.89.15a.28.28 0 1 0 .35.18.28.28 0 0 0-.35-.18m-.68.28a.12.12 0 0 0 .08-.15.12.12 0 1 0-.08.16m.46-.7a.59.59 0 0 1-.1.41L8 9.82a.59.59 0 0 1-.3-.26.66.66 0 0 1 .44.11l-.2-.57a.49.49 0 0 1-.28.36.84.84 0 0 1 .08-.46l-.58.2a.64.64 0 0 1 .36.34.48.48 0 0 1-.44-.14l.2.6a.66.66 0 0 1 .28-.37m.88.21a.12.12 0 1 0-.15-.07.12.12 0 0 0 .15.07m.39.54l1-.34v.1a1.23 1.23 0 0 1-.11.81.07.07 0 0 0 0 .09h.09a1.37 1.37 0 0 0 .19-.92.62.62 0 0 0-.3-.41.57.57 0 0 0-.22-.08.58.58 0 0 0-.48.16l-.11.11a.58.58 0 0 0 0 .48m-3 .78a.12.12 0 1 0-.16-.08.13.13 0 0 0 .16.08m.11-.32a.12.12 0 1 0-.08-.23.12.12 0 0 0-.08.15.12.12 0 0 0 .15.08H6m-.11.66a.12.12 0 1 0-.16-.08.12.12 0 0 0 .16.08m1-1.14a.12.12 0 1 0-.16-.08.12.12 0 0 0 .16.08m-.63.23a.12.12 0 0 0 .07-.15.12.12 0 0 0-.15-.07.12.12 0 0 0 .08.23m.3-.15a.13.13 0 0 0 .08-.16.12.12 0 0 0-.15-.08.12.12 0 0 0-.08.15.12.12 0 0 0 .15.08m12.27-5.21a.18.18 0 1 0 .18.18.18.18 0 0 0-.18-.18M16.48 1.14V1v.13h-.22a.18.18 0 0 1-.08-.36.06.06 0 0 1-.07 0 .07.07 0 0 1 0-.05.14.14 0 0 1-.11.09h-.12V.68l.07.07h-.26V1h.54l.08.06zM16.54.47a.17.17 0 0 0-.08.12l.31.05a.38.38 0 0 1-.15.2.41.41 0 0 0 .15-.18.19.19 0 0 0 0-.15V.46h-.23m4 6.07a.18.18 0 1 0 .18-.18.18.18 0 0 0-.18.18m-5.62 2.25a.18.18 0 1 0-.18-.18.18.18 0 0 0 .18.18m.18.46h.05l.26-.08-.13.17a.19.19 0 0 0 .31.22l.16-.19-.11-.21.36-.25.17.2a.21.21 0 0 0 .24.08l.43-.11h1l.43.11a.21.21 0 0 0 .24-.08l.12-.21.42.25-.05.21.16.19a.18.18 0 0 0 .28-.23l-.13-.17.26.08h.06a.18.18 0 0 0 .18-.22.18.18 0 0 0-.18-.18h-.34a.57.57 0 0 1-.29-.14l.39-.27a.18.18 0 1 0-.14-.33l-.07.05-.18.05.06-.13a.19.19 0 0 0 0-.07.18.18 0 0 0-.18-.18.18.18 0 0 0-.17.12v-.05a.18.18 0 0 0-.18-.17h-.09v.63h-.1a.69.69 0 0 1-.68-.58.31.31 0 0 1-.29.27h-.1a.33.33 0 0 1-.13-.22.69.69 0 0 1-.48.52h-.3v-.61h-.09a.18.18 0 0 0-.18.17.18.18 0 0 0-.34.13l.06.13h-.21a.17.17 0 0 0-.11 0 .18.18 0 0 0-.1.33l.39.27a.57.57 0 0 1-.33.18h-.34a.18.18 0 0 0-.18.18.18.18 0 0 0 .18.18m3-1h.16V7.05a.59.59 0 0 0-.57.43.61.61 0 0 0 0 .15.5.5 0 0 0 0 .11.59.59 0 0 0 .41.45m0-2.41L17.62 7h.53l.5-1.18h-.53zm.4-.3a.18.18 0 1 0-.18.18.18.18 0 0 0 .18-.18m-2.36 8.21a.72.72 0 0 1 .27.18 1.81 1.81 0 0 1 .19.23l.15.22c.11.19.21.39.27.51l.06.17v.1l.08.13a.27.27 0 0 0 .09.08h.16a.25.25 0 0 0 .09-.08l.08-.13v-.2a4.72 4.72 0 0 1 .41-.51l.14-.22a1.76 1.76 0 0 1 .19-.23.84.84 0 0 1 .21-.16.93.93 0 0 1-.09-.26l1.07-2.65-.3-.72-.42-.26.2.41-.26-.1-.26-.59-.59-.17.29.56-.49-.1-.11-.53-.28-.05-.3.09V10l-.49.1.18-.6-.59.17-.19.61-.24.09.11-.47-.42.26-.3.72 1.21 2.59a.81.81 0 0 1-.09.29M18.71 11H19l-.52 1.89-.3.11zm-1.07.13l.51-.06-.17 2-.48.18zm-.22 2.53l1-.45-.08.28-1 .45-1-.49-.09-.28zM17 11.15l.28 2.11-.47-.17-.31-2zm-.82 1.7L15.57 11h.35l.67 2zm4.55-6a.18.18 0 1 0 .18.18.18.18 0 0 0-.18-.18m-2.94-4.51s1.48-.63 1.82.07c0 0 .17.33-.3.32a4.85 4.85 0 0 0-1.24-.2h-1.29v.12a.07.07 0 0 1 0 .06h-.08l-.14-.09a.57.57 0 0 1 .08.21h-.14a.39.39 0 0 1-.2-.06l.08.13a.26.26 0 0 1 .15.34v.05a.48.48 0 0 0-.23-.16h-.11a1 1 0 0 1-.26-.06h.12a.22.22 0 0 1 .13.09.28.28 0 0 1 0 .22.19.19 0 0 0-.18-.06h-.39a.66.66 0 0 0 0 .1c0 1.11-.19 1.38-.35 1.42a.42.42 0 0 0-.19.4.3.3 0 0 1 .25-.15.68.68 0 0 1 .15-.17.2.2 0 0 0-.05.18.3.3 0 0 1 .17.16.4.4 0 0 0 .14-.33.21.21 0 0 1 0-.12.29.29 0 0 1 .09.13.38.38 0 0 0 0-.35.15.15 0 0 1 .13.15.53.53 0 0 0 .05-.32.31.31 0 0 0 0-.14.2.2 0 0 1 .16.16.32.32 0 0 0 0-.3.12.12 0 0 1 0-.14s.09-.06.12.14a.63.63 0 0 0 0-.25.19.19 0 0 1 0-.19l.32-.22a2.73 2.73 0 0 1 1.27-.23.37.37 0 0 1 .29-.43.35.35 0 0 0-.17.47.76.76 0 0 0 .53.51s1.21.42.7 1a.46.46 0 0 0-.39.25.29.29 0 0 1 .22.11.34.34 0 0 1 .2-.16.25.25 0 0 0 .17-.14.25.25 0 0 0 .15.26.24.24 0 0 0 .06-.28.45.45 0 0 0 .23 0 .3.3 0 0 0-.08-.23.37.37 0 0 0 .26 0 .36.36 0 0 0-.18-.24.17.17 0 0 0 .14 0 .33.33 0 0 0-.2-.23l.07-.19a.49.49 0 0 0-.24 0 .29.29 0 0 0-.23-.22.24.24 0 0 1-.33-.09v-.06a6.11 6.11 0 0 0-.31-.58c.12 0 1 .07 1.07-.4a.57.57 0 0 0-.38-.6h-.09a.36.36 0 0 0-.1-.15.07.07 0 0 1 0 .07.37.37 0 0 0-.16-.12.07.07 0 0 1 0 .06L19 1.8a.08.08 0 0 1 0 .07.33.33 0 0 0-.16-.1.07.07 0 0 1 0 .06.34.34 0 0 0-.17-.1c-.06 0-.08 0 0 0a.07.07 0 0 1 0 .06.36.36 0 0 0-.17-.09c-.06 0-.08 0 0 0a.07.07 0 0 1 0 .06.34.34 0 0 0-.2-.09c-.06 0-.08 0 0 0a.07.07 0 0 1 0 .06.37.37 0 0 0-.18-.07c-.06 0-.08 0 0 0a5.31 5.31 0 0 0-.54.16s-.58.43-.58.03V2c0-.43.53-.43.65-.42a2.26 2.26 0 0 1 .59.13.55.55 0 0 0 .76-.15.3.3 0 0 1-.23 0 .39.39 0 0 1 .25 0 .39.39 0 0 0 .46-.14.64.64 0 0 1-.48-.09.44.44 0 0 0-.6.17s0 .08-.37 0-1.35-.08-1.22.67c0 0 .07.5.88.24M13.9 6.69a.18.18 0 1 0-.18-.18.18.18 0 0 0 .18.18M20.37 6a.18.18 0 1 0 .18-.18.18.18 0 0 0-.18.18M15.3 3a.77.77 0 0 0 0 .52 4.89 4.89 0 0 1 .13 1 2.88 2.88 0 0 0 .1-1 1.25 1.25 0 0 1 0-.28.4.4 0 0 1-.23-.24m4.95 2.76a.18.18 0 1 0-.18-.18.18.18 0 0 0 .18.18M15.09 2.36a.41.41 0 0 1-.11.23.15.15 0 0 0 .15-.07.31.31 0 0 1 .2-.09c-.23.06-.17.32-.17.46a.18.18 0 0 1-.1.18c.14 0 .2 0 .21-.18a.3.3 0 0 1 .19-.23.38.38 0 0 0-.12.32.33.33 0 0 0 .22.26h.24a.24.24 0 0 1 .26.16.19.19 0 0 0-.06-.25.52.52 0 0 1-.2-.1L15.67 3a.27.27 0 0 1 0-.09.48.48 0 0 1 .08-.31.39.39 0 0 0 0 .33V3a.86.86 0 0 0 .32.08.53.53 0 0 1 .31.19c.13-.27-.1-.29-.2-.4a.63.63 0 0 1-.11-.21.27.27 0 0 1 0-.07.53.53 0 0 0 .16.19.35.35 0 0 0 .23.09h.08a.43.43 0 0 0-.18-.29.72.72 0 0 1 .34.15 1 1 0 0 0 0-.13.52.52 0 0 0-.11-.19l-.22-.16h.07a.31.31 0 0 0 .16 0 .33.33 0 0 0-.08-.25.15.15 0 0 0 .15-.15c-.2 0-.1-.26-.1-.26h.07a.25.25 0 0 0 .26-.24.33.33 0 0 0-.22-.07h-.15a1.89 1.89 0 0 0-.83-.17h-.13a.24.24 0 0 0-.15 0 .51.51 0 0 0-.18 0 .23.23 0 0 0 .14.3h.07a.21.21 0 0 1-.13.22.27.27 0 0 0-.19.21.61.61 0 0 0 .22-.09.39.39 0 0 1-.15.16.44.44 0 0 0-.12.28.4.4 0 0 1 .29-.09h.06a.36.36 0 0 0-.33.24m1.48-1a.29.29 0 0 1 .21 0 .16.16 0 0 1-.18.14.4.4 0 0 0 0-.14m-.66.89c-.07 0-.26-.06-.24-.15a.33.33 0 0 0 .27.09h.31s0 .11-.28.07m.19-.53h-.14a.67.67 0 0 0-.06.15V2a.08.08 0 0 1-.07.09.85.85 0 0 1 0-.19.06.06 0 0 0 .07 0 .26.26 0 0 0-.1-.09s.12 0 0 0h-.07.26v.08h-.06m.28.11a.17.17 0 0 1-.11.2.15.15 0 0 0 0-.1.13.13 0 0 0 0-.09.11.11 0 0 0 0-.15.21.21 0 0 1 .08.15m0-.38a.21.21 0 0 1-.15.11.13.13 0 0 1-.13-.12h.25m-.68-.1h.25a.13.13 0 0 1-.14.09.2.2 0 0 1-.11-.15m0 .23a.11.11 0 0 0 0 .15.14.14 0 0 0-.05.08.15.15 0 0 0 0 .11.17.17 0 0 1-.07-.22.22.22 0 0 1 .1-.13m-.32-.41a.15.15 0 0 1 .18 0 .8.8 0 0 0-.06.14.11.11 0 0 1-.13-.15m.61.74l.17-.11h-.09zm-1.76 4.21a.18.18 0 1 0-.18-.21.18.18 0 0 0 .18.18M15.9.48a.17.17 0 0 0-.13-.2.18.18 0 0 0-.11 0 .2.2 0 0 0-.06.14.42.42 0 0 0 .09.27.38.38 0 0 1-.1-.23zM14.81 5.6a.18.18 0 1 0-.18-.18.18.18 0 0 0 .18.18M14.38 5.83a.18.18 0 1 0-.18-.18.18.18 0 0 0 .18.18M16.2.75a.13.13 0 0 0 .07.13V.64a.13.13 0 0 0-.09.07m.06-.33a.08.08 0 0 0-.06-.1.08.08 0 1 0 .07.1M15.93.54v.24a.12.12 0 0 0 .08 0A.12.12 0 0 0 16 .6m.07.1h.12a.14.14 0 0 1 .08-.06L16 .6a.15.15 0 0 1 0 .1m.13-.52a.18.18 0 0 1-.09.1h.18a.18.18 0 0 1 0-.1.21.21 0 0 1 .1.1V.1a.14.14 0 0 1-.13 0 .26.26 0 0 1 .15-.1h-.18a.19.19 0 0 1 0 .14.14.14 0 0 1-.06-.09v.18a.2.2 0 0 1 .1 0m-.2.34h.11L16 .33h-.11zM16.23.61h.11l.14-.23h-.11zM16.43.37"/></svg>