<svg id="Layer_1" data-name="Layer 1" xmlns="http://www.w3.org/2000/svg" viewBox="0 0 559.8 87.76"><defs><style>.cls-1{fill:#faea26}.cls-2{fill:#1d1d1b}.cls-3{fill:#fff}</style></defs><title>Senet</title><path class="cls-1" d="M0 0h559.8v87.76H0z"/><path class="cls-2" d="M371.72 47.59a4.25 4.25 0 0 1-3.48 1.69c-2.7 0-4.63-2.35-4.62-5.61s2-5.62 4.84-5.61a4.91 4.91 0 0 1 3.28 1.49V38.3h3.88v2.23h-1.05v8.84c0 2.75-2.07 4.37-5.52 4.37a5.84 5.84 0 0 1-3.93-1.19 3.94 3.94 0 0 1-1.39-2.55h2.77a2.27 2.27 0 0 0 2.5 1.56c1.65 0 2.73-.85 2.73-2.14v-1.83zm-5.16-3.87c0 2.06.89 3.22 2.52 3.23s2.66-1.37 2.67-3.3-1-3.2-2.46-3.2c-1.65 0-2.73 1.28-2.73 3.28M386.16 47.58h1v2.23h-3.56v-1.35a4.36 4.36 0 0 1-3.49 1.54 3.77 3.77 0 0 1-4-3.59c0-3.37 3.8-3.73 7.48-4.06 0-1.76-.45-2.21-2.12-2.21a1.85 1.85 0 0 0-2.06 1.73l-2.79-.09c.15-2.3 2-3.77 4.73-3.77 3.18 0 4.89 1.45 4.88 4.06v5.47zm-2.67-3.2c-2.7.25-4.46.48-4.47 2.07a1.65 1.65 0 0 0 1.89 1.55 2.51 2.51 0 0 0 2.58-2.53v-1.09zM391.51 39.7c1.23-1.29 2-1.65 3.29-1.65a2.81 2.81 0 0 1 2.74 1.79 4.63 4.63 0 0 1 3.46-1.77 3 3 0 0 1 3.1 3.26v6.29h1.07v2.23h-3.88v-7.72c0-1-.47-1.61-1.22-1.61-1.18 0-2.28 1.49-2.28 3.1v4h1.12v2.23H395v-7.64c0-1.16-.38-1.72-1.2-1.72-1.26 0-2.34 1.54-2.3 3.36v3.73h1.11v2.23h-4.89v-2.22h1v-7h-1v-2.25h3.79v1.36zM405.87 34h3.9v5.62A4.27 4.27 0 0 1 413 38c2.88 0 5 2.48 4.94 6 0 3.69-1.94 6.16-4.82 6.15a4.58 4.58 0 0 1-3.53-1.53v1.24h-3.88v-2.23h1.2V36.26h-1.09V34zm3.8 10.14c0 2.34 1 3.61 2.76 3.61 1.59 0 2.6-1.43 2.6-3.66s-1-3.67-2.59-3.67c-1.76 0-2.77 1.37-2.78 3.73M418.43 34.03l3.93.02-.04 13.61h1.1v2.23l-5.03-.01.01-2.23 1.11-.01.03-11.39h-1.12l.01-2.22zM434.88 46.14a5.12 5.12 0 0 1-5.39 4c-3.22 0-5.57-2.52-5.57-6s2.39-6 5.61-6a5.21 5.21 0 0 1 4.47 2.29 7.66 7.66 0 0 1 1.13 4.29h-8.28c.27 3 2.22 3.14 2.76 3.14a2.32 2.32 0 0 0 2.34-1.71h3zm-2.88-3.4a2.31 2.31 0 0 0-2.42-2.26 2.67 2.67 0 0 0-2.58 2.25h5zM443.32 48.39a5.34 5.34 0 0 1-3.87 1.79 3.49 3.49 0 0 1-3.73-3.46 3.17 3.17 0 0 1 .86-2.23c.88-.9 2.15-1.31 5.22-1.64l1.5-.17V42c0-1.33-.85-2.06-2.42-2.06a2 2 0 0 0-2.36 1.9h-2.38a3.55 3.55 0 0 1 1.12-2.44 5.47 5.47 0 0 1 3.74-1.25c2.86 0 4.52 1.42 4.52 3.83v6.13h1.37v1.82h-3.61v-1.54zm0-4.29l-1 .15c-2.1.32-3 .62-3.56 1.19a1.7 1.7 0 0 0-.5 1.1 2 2 0 0 0 2 2 3.14 3.14 0 0 0 3.07-2.85V44.1zM446.56 38.44h4.42v1.82l-1.29-.01 1.87 7.8 2.23-9.62 2.19.01 2.17 9.61 1.9-7.78h-1.26v-1.83l4.36.01-.01 1.82h-1.11l-2.66 9.7-2.43-.01-2.08-8.63-2.08 8.62-2.45.02-2.65-9.7h-1.12v-1.83zM471 48.45a5.34 5.34 0 0 1-3.87 1.79 3.49 3.49 0 0 1-3.73-3.46 3.16 3.16 0 0 1 .87-2.23c.88-.9 2.15-1.31 5.21-1.64l1.5-.17V42c0-1.33-.85-2.06-2.42-2.06a2 2 0 0 0-2.36 1.9h-2.38A3.54 3.54 0 0 1 465 39.4a5.46 5.46 0 0 1 3.78-1.19c2.85 0 4.52 1.42 4.52 3.83v6.14h1.37V50H471v-1.55zm0-4.29l-1 .15c-2.1.32-3 .62-3.56 1.19a1.69 1.69 0 0 0-.5 1.1 2 2 0 0 0 2 2 3.14 3.14 0 0 0 3.06-2.9v-1.55zM479.14 41.06c.62-1.37 1.34-2.83 3.36-2.82a4.11 4.11 0 0 1 1.09.15v2.16a4.53 4.53 0 0 0-1.11-.17c-2.57 0-3.33 2.55-3.33 3.43v4.38h1.31V50h-4.89v-1.82h1.33V40.3h-1.29v-1.82h3.54v2.57zM494 46.5a5.24 5.24 0 0 1-5 3.79c-3.26 0-5.47-2.5-5.46-6.15 0-3.41 2.35-5.9 5.55-5.89 1.86 0 5.08 1.06 5.07 6.49h-8.28c.1 2.6 1.71 3.63 3.25 3.63a2.3 2.3 0 0 0 2.36-1.86H494zm-2.33-3.37c-.1-1.91-1-2.94-2.59-2.95-2.38 0-3.07 2.61-3.08 2.93h5.66z"/><path class="cls-2" transform="rotate(-89.89 496.028 48.826)" d="M494.8 47.6h2.45v2.45h-2.45z"/><path class="cls-2" d="M504.93 47.59a3.14 3.14 0 0 1-3.22 2.61 3.28 3.28 0 0 1-3.28-3.55c0-2.05 1.27-3.51 3.09-3.5a2.39 2.39 0 0 1 1.89.9v-.69h1.4v2.47h-1.47a2.14 2.14 0 0 0-.65-1 1.45 1.45 0 0 0-1-.31 1.78 1.78 0 0 0-1.62 2c0 1.35.63 2.22 1.65 2.22a1.53 1.53 0 0 0 1.51-1.2h1.65zM512.46 46.71a3.34 3.34 0 1 1-3.29-3.55 3.41 3.41 0 0 1 3.29 3.55m-4.94 0c0 1.27.62 2.12 1.57 2.12s1.62-.81 1.62-2.12a1.81 1.81 0 0 0-1.61-2.07c-.94 0-1.58.84-1.58 2.06"/><path class="cls-2" transform="rotate(-89.88 514.52 49.203)" d="M513.64 48.28h1.81v1.8h-1.81z"/><path class="cls-2" d="M516.69 43.38H519v4.33a1 1 0 0 0 1 1.17 1.73 1.73 0 0 0 1.54-1.75V44.7h-.65v-1.31h2.29v5.4h.61v1.3h-2.22v-.81a3.19 3.19 0 0 1-2.17 1 1.91 1.91 0 0 1-2-2.18v-3.41h-.65v-1.3zM524.63 40.85l2.25.01-.01 4.88 2.42-2.33h1.43v1.31h-.65l-1.15 1.02 1.85 3.07.56.01v1.3h-1.56l-1.96-3.32-.94.79v1.21l.68.01v1.3l-2.87-.05.01-1.34h.54l.01-6.6-.61.02v-1.29zM120.22 62.29h13.52V52.4h11.38V39.75h-11.38v-2h11.38V25h-24.9v37.29zm.9-36.35h23.1v10.94h-11.38v3.77h11.38V51.5h-11.38v9.89h-11.72V25.94z"/><path class="cls-2" d="M143.65 41.22h-11.38v-4.91h11.38v-9.8h-22v34.31h10.59v-9.89h11.38v-9.71zm-2.5-12.93a.65.65 0 1 1-.65.65.65.65 0 0 1 .65-.65zm0 2.45a.65.65 0 1 1-.65.65.65.65 0 0 1 .65-.66zm0 2.45a.65.65 0 1 1-.65.65.65.65 0 0 1 .65-.66zm-2.84-4.9a.65.65 0 1 1-.65.65.65.65 0 0 1 .65-.65zm0 2.45a.65.65 0 1 1-.65.65.65.65 0 0 1 .65-.66zm0 2.45a.65.65 0 1 1-.65.65.65.65 0 0 1 .65-.66zm-2.84-4.9a.65.65 0 1 1-.65.65.65.65 0 0 1 .65-.65zm0 2.45a.65.65 0 1 1-.65.65.65.65 0 0 1 .65-.66zm0 2.45a.65.65 0 1 1-.65.65.65.65 0 0 1 .65-.66zm-2.84-4.9a.65.65 0 1 1-.65.65.65.65 0 0 1 .65-.65zm0 2.45a.65.65 0 1 1-.65.65.65.65 0 0 1 .65-.66zm0 2.45a.65.65 0 1 1-.65.65.65.65 0 0 1 .65-.66zM124.12 59a.65.65 0 1 1 .65-.65.65.65 0 0 1-.65.65zm0-2.45a.65.65 0 1 1 .65-.65.65.65 0 0 1-.65.62zm0-2.45a.65.65 0 1 1 .65-.65.65.65 0 0 1-.65.62zm0-2.45a.65.65 0 1 1 .65-.65.65.65 0 0 1-.65.63zm0-2.45a.65.65 0 1 1 .65-.65.65.65 0 0 1-.65.63zm0-2.45a.65.65 0 1 1 .65-.65.65.65 0 0 1-.65.63zm0-2.45a.65.65 0 1 1 .65-.65.65.65 0 0 1-.65.63zm0-2.45a.65.65 0 1 1 .65-.65.65.65 0 0 1-.65.63zm0-2.45a.65.65 0 1 1 .65-.65.65.65 0 0 1-.65.64zm0-2.45a.65.65 0 1 1 .65-.65.65.65 0 0 1-.65.64zm0-2.45a.65.65 0 1 1 .65-.65.65.65 0 0 1-.65.64zm0-2.45a.65.65 0 1 1 .65-.65.65.65 0 0 1-.65.6zm0-2.45a.65.65 0 1 1 .65-.65.65.65 0 0 1-.65.64zM127 59a.65.65 0 1 1 .65-.65.65.65 0 0 1-.65.65zm0-2.45a.65.65 0 1 1 .65-.65.65.65 0 0 1-.65.62zm0-2.45a.65.65 0 1 1 .65-.65.65.65 0 0 1-.65.62zm0-2.45a.65.65 0 1 1 .65-.65.65.65 0 0 1-.65.63zm0-2.45a.65.65 0 1 1 .65-.65.65.65 0 0 1-.65.63zm0-2.45a.65.65 0 1 1 .65-.65.65.65 0 0 1-.65.63zm0-2.45a.65.65 0 1 1 .65-.65.65.65 0 0 1-.65.63zm0-2.45a.65.65 0 1 1 .65-.65.65.65 0 0 1-.65.63zm0-2.45a.65.65 0 1 1 .65-.65.65.65 0 0 1-.65.64zm0-2.45a.65.65 0 1 1 .65-.65.65.65 0 0 1-.65.64zm0-2.45a.65.65 0 1 1 .65-.65.65.65 0 0 1-.65.64zm0-2.5a.65.65 0 1 1 .65-.65.65.65 0 0 1-.65.65zm0-2.45a.65.65 0 1 1 .65-.65.65.65 0 0 1-.65.69zM129.79 59a.65.65 0 1 1 .65-.65.65.65 0 0 1-.65.65zm0-2.45a.65.65 0 1 1 .65-.65.65.65 0 0 1-.65.62zm0-2.45a.65.65 0 1 1 .65-.65.65.65 0 0 1-.65.62zm0-2.45a.65.65 0 1 1 .65-.65.65.65 0 0 1-.65.63zm0-2.45a.65.65 0 1 1 .65-.65.65.65 0 0 1-.65.63zm0-2.45a.65.65 0 1 1 .65-.65.65.65 0 0 1-.65.63zm0-2.45a.65.65 0 1 1 .65-.65.65.65 0 0 1-.65.63zm0-2.45a.65.65 0 1 1 .65-.65.65.65 0 0 1-.65.63zm0-2.45a.65.65 0 1 1 .65-.65.65.65 0 0 1-.65.64zm0-2.45a.65.65 0 1 1 .65-.65.65.65 0 0 1-.65.64zm0-2.45a.65.65 0 1 1 .65-.65.65.65 0 0 1-.65.64zm0-2.45a.65.65 0 1 1 .65-.65.65.65 0 0 1-.65.6zm0-2.45a.65.65 0 1 1 .65-.65.65.65 0 0 1-.65.64zm2.84 19.58a.65.65 0 1 1 .65-.65.65.65 0 0 1-.65.65zm0-2.45a.65.65 0 1 1 .65-.65.65.65 0 0 1-.65.65zm0-2.45a.65.65 0 1 1 .65-.65.65.65 0 0 1-.65.65zm2.84 4.9a.65.65 0 1 1 .65-.65.65.65 0 0 1-.65.65zm0-2.45a.65.65 0 1 1 .65-.65.65.65 0 0 1-.65.65zm0-2.45a.65.65 0 1 1 .65-.65.65.65 0 0 1-.65.65zm2.84 4.9a.65.65 0 1 1 .65-.65.65.65 0 0 1-.65.65zm0-2.45a.65.65 0 1 1 .65-.65.65.65 0 0 1-.65.65zm0-2.45a.65.65 0 1 1 .65-.65.65.65 0 0 1-.65.65zm2.84 4.9a.65.65 0 1 1 .65-.65.65.65 0 0 1-.65.65zm0-2.45a.65.65 0 1 1 .65-.65.65.65 0 0 1-.65.65zm0-2.45a.65.65 0 1 1 .65-.65.65.65 0 0 1-.65.65zM201.37 25v11.53L194.5 26l-.6-1H181v37.29h13.49v-11.5l7 10.56.67.94h12.61V25h-13.4zm12.5 36.35h-11.24l-.39-.55-8.61-13v13.6h-11.7V25.94h11.45l.35.57 8.53 13V25.94h11.61V61.4z"/><path class="cls-2" d="M193.07 26.51h-10.56v34.32h10.56V45.9l9.65 14.62.21.3h10.38V26.51h-10.47v14.94l-9.59-14.63zm17.83 1.78a.65.65 0 1 1-.65.65.65.65 0 0 1 .65-.65zm0 2.45a.65.65 0 1 1-.65.65.65.65 0 0 1 .65-.65zm0 2.45a.65.65 0 1 1-.65.65.65.65 0 0 1 .65-.65zm0 2.45a.65.65 0 1 1-.65.65.65.65 0 0 1 .65-.64zm0 2.45a.65.65 0 1 1-.65.65.65.65 0 0 1 .65-.64zm0 2.45a.65.65 0 1 1-.65.65.65.65 0 0 1 .65-.64zm0 2.45a.65.65 0 1 1-.65.65.65.65 0 0 1 .65-.64zm0 2.45a.65.65 0 1 1-.65.65.65.65 0 0 1 .65-.63zm0 2.45a.65.65 0 1 1-.65.65.65.65 0 0 1 .65-.63zm0 2.45a.65.65 0 1 1-.65.65.65.65 0 0 1 .65-.62zm0 2.45a.65.65 0 1 1-.65.65.65.65 0 0 1 .65-.62zm0 2.45a.65.65 0 1 1-.65.65.65.65 0 0 1 .65-.62zm0 2.45a.65.65 0 1 1-.65.65.65.65 0 0 1 .65-.61zm-2.9-29.4a.65.65 0 1 1-.65.65.65.65 0 0 1 .65-.65zm0 2.45a.65.65 0 1 1-.65.65.65.65 0 0 1 .65-.65zm0 2.45a.65.65 0 1 1-.65.65.65.65 0 0 1 .65-.65zm0 2.45a.65.65 0 1 1-.65.65.65.65 0 0 1 .65-.64zm0 2.45a.65.65 0 1 1-.65.65.65.65 0 0 1 .65-.64zm0 2.45a.65.65 0 1 1-.65.65.65.65 0 0 1 .65-.64zm0 2.46a.65.65 0 1 1-.65.65.65.65 0 0 1 .65-.65zm0 2.45a.65.65 0 1 1-.65.65.65.65 0 0 1 .65-.64zm0 2.45a.65.65 0 1 1-.65.65.65.65 0 0 1 .65-.64zm0 2.45a.65.65 0 1 1-.65.65.65.65 0 0 1 .65-.63zm0 2.45a.65.65 0 1 1-.65.65.65.65 0 0 1 .65-.63zm0 2.45a.65.65 0 1 1-.65.65.65.65 0 0 1 .65-.63zm0 2.45a.65.65 0 1 1-.65.65.65.65 0 0 1 .65-.62zm-2.89-29.44a.65.65 0 1 1-.65.65.65.65 0 0 1 .66-.62zm0 2.45a.65.65 0 1 1-.65.65.65.65 0 0 1 .66-.62zm0 2.45a.65.65 0 1 1-.65.65.65.65 0 0 1 .66-.62zm0 2.45a.65.65 0 1 1-.65.65.65.65 0 0 1 .66-.61zm0 2.45a.65.65 0 1 1-.65.65.65.65 0 0 1 .66-.61zm0 2.45a.65.65 0 1 1-.65.65.65.65 0 0 1 .66-.61zm0 2.45a.65.65 0 1 1-.65.65.65.65 0 0 1 .66-.61zm0 2.45a.65.65 0 1 1-.65.65.65.65 0 0 1 .66-.6zm0 2.45a.65.65 0 1 1-.65.65.65.65 0 0 1 .66-.6zm0 2.45a.65.65 0 1 1-.65.65.65.65 0 0 1 .66-.59zm0 2.45a.65.65 0 1 1-.65.65.65.65 0 0 1 .66-.59zm0 2.45a.65.65 0 1 1-.65.65.65.65 0 0 1 .66-.59zm0 2.45a.65.65 0 1 1-.65.65.65.65 0 0 1 .66-.58zM184.87 59a.65.65 0 1 1 .65-.65.65.65 0 0 1-.65.65zm0-2.45a.65.65 0 1 1 .65-.65.65.65 0 0 1-.65.68zm0-2.45a.65.65 0 1 1 .65-.65.65.65 0 0 1-.65.68zm0-2.45a.65.65 0 1 1 .65-.65.65.65 0 0 1-.65.67zm0-2.45a.65.65 0 1 1 .65-.65.65.65 0 0 1-.65.67zm0-2.45a.65.65 0 1 1 .65-.65.65.65 0 0 1-.65.67zm0-2.45a.65.65 0 1 1 .65-.65.65.65 0 0 1-.65.66zm0-2.45a.65.65 0 1 1 .65-.65.65.65 0 0 1-.65.66zm0-2.45a.65.65 0 1 1 .65-.65.65.65 0 0 1-.65.66zm0-2.45a.65.65 0 1 1 .65-.65.65.65 0 0 1-.65.7zm0-2.45a.65.65 0 1 1 .65-.65.65.65 0 0 1-.65.65zm0-2.45a.65.65 0 1 1 .65-.65.65.65 0 0 1-.65.6zm0-2.45a.65.65 0 1 1 .65-.65.65.65 0 0 1-.65.64zm2.9 29.4a.65.65 0 1 1 .65-.65.65.65 0 0 1-.65.65zm0-2.45a.65.65 0 1 1 .65-.65.65.65 0 0 1-.65.68zm0-2.45a.65.65 0 1 1 .65-.65.65.65 0 0 1-.65.68zm0-2.45a.65.65 0 1 1 .65-.65.65.65 0 0 1-.65.67zm0-2.45a.65.65 0 1 1 .65-.65.65.65 0 0 1-.65.67zm0-2.45a.65.65 0 1 1 .65-.65.65.65 0 0 1-.65.67zm0-2.45a.65.65 0 1 1 .65-.65.65.65 0 0 1-.65.66zm0-2.45a.65.65 0 1 1 .65-.65.65.65 0 0 1-.65.66zm0-2.45a.65.65 0 1 1 .65-.65.65.65 0 0 1-.65.66zm0-2.45a.65.65 0 1 1 .65-.65.65.65 0 0 1-.65.7zm0-2.45a.65.65 0 1 1 .65-.65.65.65 0 0 1-.65.65zm0-2.45a.65.65 0 1 1 .65-.65.65.65 0 0 1-.65.6zm0-2.45a.65.65 0 1 1 .65-.65.65.65 0 0 1-.65.64zm2.89 29.4a.65.65 0 1 1 .65-.65.65.65 0 0 1-.65.65zm0-2.45a.65.65 0 1 1 .65-.65.65.65 0 0 1-.65.68zm0-2.45a.65.65 0 1 1 .65-.65.65.65 0 0 1-.65.68zm0-2.45a.65.65 0 1 1 .65-.65.65.65 0 0 1-.65.67zm0-2.45a.65.65 0 1 1 .65-.65.65.65 0 0 1-.65.67zm0-2.45a.65.65 0 1 1 .65-.65.65.65 0 0 1-.65.67zm0-2.45a.65.65 0 1 1 .65-.65.65.65 0 0 1-.65.66zm0-2.45a.65.65 0 1 1 .65-.65.65.65 0 0 1-.65.66zm0-2.45a.65.65 0 1 1 .65-.65.65.65 0 0 1-.65.66zm0-2.45a.65.65 0 1 1 .65-.65.65.65 0 0 1-.65.7zm0-2.45a.65.65 0 1 1 .65-.65.65.65 0 0 1-.65.65zm0-2.45a.65.65 0 1 1 .65-.65.65.65 0 0 1-.65.6zm0-2.45a.65.65 0 1 1 .65-.65.65.65 0 0 1-.65.64zm2.89 14.72a.65.65 0 1 1 .65-.65.65.65 0 0 1-.65.64zm0-2.45a.65.65 0 1 1 .65-.65.65.65 0 0 1-.65.64zm0-2.45a.65.65 0 1 1 .65-.65.65.65 0 0 1-.65.64zm0-2.45a.65.65 0 1 1 .65-.65.65.65 0 0 1-.65.68zm0-2.45a.65.65 0 1 1 .65-.65.65.65 0 0 1-.65.63zm8.68 8.48a.65.65 0 1 1-.65.65.65.65 0 0 1 .65-.65zm0 2.45a.65.65 0 1 1-.65.65.65.65 0 0 1 .65-.64zm0 2.45a.65.65 0 1 1-.65.65.65.65 0 0 1 .65-.64zm0 2.45a.65.65 0 1 1-.65.65.65.65 0 0 1 .65-.63zm0 2.45a.65.65 0 1 1-.65.65.65.65 0 0 1 .65-.63zm0 2.45a.65.65 0 1 1-.65.65.65.65 0 0 1 .65-.63zm-2.89-14.72a.65.65 0 1 1-.65.65.65.65 0 0 1 .64-.63zm0 2.45a.65.65 0 1 1-.65.65.65.65 0 0 1 .64-.63zm0 2.45a.65.65 0 1 1-.65.65.65.65 0 0 1 .64-.62zm0 2.45a.65.65 0 1 1-.65.65.65.65 0 0 1 .64-.62zm0 2.45a.65.65 0 1 1-.65.65.65.65 0 0 1 .64-.61zm-2.89-14.72a.65.65 0 1 1-.65.65.65.65 0 0 1 .64-.61zm0 2.45a.65.65 0 1 1-.65.65.65.65 0 0 1 .64-.61zm0 2.45a.65.65 0 1 1-.65.65.65.65 0 0 1 .64-.61zm0 2.45a.65.65 0 1 1-.65.65.65.65 0 0 1 .64-.61zm0 2.45a.65.65 0 1 1-.65.65.65.65 0 0 1 .64-.6zm-2.25-14.02a.65.65 0 1 1-.65-.65.65.65 0 0 1 .65.65zM165.43 47.2c0 .74-.3 2-2.27 2s-2.27-1.25-2.27-2V25h-13.68v22.2a15.54 15.54 0 0 0 15.87 15.52h.17a15.54 15.54 0 0 0 15.87-15.52V25h-13.69v22.2zm.9 0V25.94h11.89V47.2a14.65 14.65 0 0 1-15 14.62h-.17a14.65 14.65 0 0 1-15-14.62V25.94H160V47.2c0 .68.23 2.89 3.17 2.89s3.16-2.21 3.16-2.89z"/><path class="cls-2" d="M160.27 49.55a3.48 3.48 0 0 1-.84-2.35V26.51h-10.75V47.2a14.09 14.09 0 0 0 14.4 14.05h.17a14.09 14.09 0 0 0 14.4-14.05V26.51H166.9V47.2a3.48 3.48 0 0 1-.85 2.35 4.32 4.32 0 0 1-5.78 0zm-9.37 2.06a.65.65 0 1 1 .65-.65.65.65 0 0 1-.65.65zm0-2.45a.65.65 0 1 1 .65-.65.65.65 0 0 1-.65.66zm0-2.45a.65.65 0 1 1 .65-.65.65.65 0 0 1-.65.66zm0-2.45a.65.65 0 1 1 .65-.65.65.65 0 0 1-.65.66zm0-2.45a.65.65 0 1 1 .65-.65.65.65 0 0 1-.65.66zm0-2.45a.65.65 0 1 1 .65-.65.65.65 0 0 1-.65.66zm0-2.45a.65.65 0 1 1 .65-.65.65.65 0 0 1-.65.67zm0-2.45a.65.65 0 1 1 .65-.65.65.65 0 0 1-.65.67zm0-2.45a.65.65 0 1 1 .65-.65.65.65 0 0 1-.65.64zm0-2.45a.65.65 0 1 1 .65-.65.65.65 0 0 1-.65.67zm24.43-1.31a.65.65 0 1 1-.65.65.65.65 0 0 1 .64-.63zm0 2.45a.65.65 0 1 1-.65.65.65.65 0 0 1 .64-.63zm0 2.45a.65.65 0 1 1-.65.65.65.65 0 0 1 .64-.63zm0 2.45a.65.65 0 1 1-.65.65.65.65 0 0 1 .64-.63zm0 2.45a.65.65 0 1 1-.65.65.65.65 0 0 1 .64-.63zm0 2.45a.65.65 0 1 1-.65.65.65.65 0 0 1 .64-.64zm0 2.45a.65.65 0 1 1-.65.65.65.65 0 0 1 .64-.6zm0 2.45a.65.65 0 1 1-.65.65.65.65 0 0 1 .64-.64zm0 2.45a.65.65 0 1 1-.65.65.65.65 0 0 1 .64-.64zm0 2.45a.65.65 0 1 1-.65.65.65.65 0 0 1 .64-.64zm-3.05-22a.65.65 0 1 1-.65.65.65.65 0 0 1 .64-.68zm0 2.45a.65.65 0 1 1-.65.65.65.65 0 0 1 .64-.68zm0 2.45a.65.65 0 1 1-.65.65.65.65 0 0 1 .64-.68zm0 2.45a.65.65 0 1 1-.65.65.65.65 0 0 1 .64-.68zm0 2.45a.65.65 0 1 1-.65.65.65.65 0 0 1 .64-.68zm0 2.45a.65.65 0 1 1-.65.65.65.65 0 0 1 .64-.69zm0 2.45a.65.65 0 1 1-.65.65.65.65 0 0 1 .64-.65zm0 2.45a.65.65 0 1 1-.65.65.65.65 0 0 1 .64-.69zm0 2.45a.65.65 0 1 1-.65.65.65.65 0 0 1 .64-.69zm0 2.45a.65.65 0 1 1-.65.65.65.65 0 0 1 .64-.69zm0 2.45a.65.65 0 1 1-.65.65.65.65 0 0 1 .64-.7zm0 2.45a.65.65 0 1 1-.65.65.65.65 0 0 1 .64-.7zm-3.05-26.93a.65.65 0 1 1-.65.65.65.65 0 0 1 .64-.7zm0 2.45a.65.65 0 1 1-.65.65.65.65 0 0 1 .64-.7zm0 2.45a.65.65 0 1 1-.65.65.65.65 0 0 1 .64-.7zm0 2.45a.65.65 0 1 1-.65.65.65.65 0 0 1 .64-.7zm0 2.45a.65.65 0 1 1-.65.65.65.65 0 0 1 .64-.7zm0 2.45a.65.65 0 1 1-.65.65.65.65 0 0 1 .64-.71zm0 2.45a.65.65 0 1 1-.65.65.65.65 0 0 1 .64-.67zm0 2.45a.65.65 0 1 1-.65.65.65.65 0 0 1 .64-.71zm0 2.45a.65.65 0 1 1-.65.65.65.65 0 0 1 .64-.71zm0 2.45a.65.65 0 1 1-.65.65.65.65 0 0 1 .64-.71zm0 2.45a.65.65 0 1 1-.65.65.65.65 0 0 1 .64-.72zm0 2.45a.65.65 0 1 1-.65.65.65.65 0 0 1 .64-.72zm0 2.45a.65.65 0 1 1-.65.65.65.65 0 0 1 .64-.72zm-15.27-1.14a.65.65 0 1 1 .65-.65.65.65 0 0 1-.66.58zm0-2.45a.65.65 0 1 1 .65-.65.65.65 0 0 1-.66.58zm0-2.45a.65.65 0 1 1 .64-.68.65.65 0 0 1-.65.61zm0-2.45a.65.65 0 1 1 .65-.65.65.65 0 0 1-.66.59zm0-2.45a.65.65 0 1 1 .65-.65.65.65 0 0 1-.66.59zm0-2.45a.65.65 0 1 1 .65-.65.65.65 0 0 1-.66.59zm0-2.45a.65.65 0 1 1 .65-.65.65.65 0 0 1-.66.59zm0-2.45a.65.65 0 1 1 .65-.65.65.65 0 0 1-.66.59zm0-2.45a.65.65 0 1 1 .65-.65.65.65 0 0 1-.66.6zm0-2.45a.65.65 0 1 1 .65-.65.65.65 0 0 1-.66.6zm0-2.45a.65.65 0 1 1 .65-.65.65.65 0 0 1-.66.57zm0-2.45a.65.65 0 1 1 .65-.65.65.65 0 0 1-.66.6zM157 59a.65.65 0 1 1 .65-.65.65.65 0 0 1-.65.65zm0-2.45a.65.65 0 1 1 .65-.65.65.65 0 0 1-.65.61zm0-2.45a.65.65 0 1 1 .65-.65.65.65 0 0 1-.65.61zm0-2.45a.65.65 0 1 1 .65-.65.65.65 0 0 1-.65.61zm0-2.45a.65.65 0 1 1 .65-.65.65.65 0 0 1-.65.62zm0-2.45a.65.65 0 1 1 .65-.65.65.65 0 0 1-.65.62zm0-2.45a.65.65 0 1 1 .65-.65.65.65 0 0 1-.65.62zm0-2.45a.65.65 0 1 1 .65-.65.65.65 0 0 1-.65.62zm0-2.45a.65.65 0 1 1 .65-.65.65.65 0 0 1-.65.62zm0-2.45a.65.65 0 1 1 .65-.65.65.65 0 0 1-.65.63zm0-2.45a.65.65 0 1 1 .65-.65.65.65 0 0 1-.65.63zm0-2.5a.65.65 0 1 1 .65-.65.65.65 0 0 1-.65.65zm0-2.45a.65.65 0 1 1 .65-.65.65.65 0 0 1-.65.68zM160.06 59a.65.65 0 1 1 .65-.65.65.65 0 0 1-.65.65zm0-2.45a.65.65 0 1 1 .65-.65.65.65 0 0 1-.65.61zm0-2.45a.65.65 0 1 1 .65-.65.65.65 0 0 1-.65.61zm3.05 4.9a.65.65 0 1 1 .65-.65.65.65 0 0 1-.65.65zm0-2.45a.65.65 0 1 1 .65-.65.65.65 0 0 1-.65.61zm3.05-3.76a.65.65 0 1 1-.65.65.65.65 0 0 1 .65-.69zm0 2.45a.65.65 0 1 1-.65.65.65.65 0 0 1 .65-.69zm0 2.45a.65.65 0 1 1-.65.65.65.65 0 0 1 .65-.69zm-2.4-4.24a.65.65 0 1 1-.65-.65.65.65 0 0 1 .65.61z"/><circle class="cls-3" cx="124.12" cy="43.63" r=".65"/><circle class="cls-3" cx="124.12" cy="55.87" r=".65"/><circle class="cls-3" cx="124.12" cy="58.32" r=".65"/><circle class="cls-3" cx="124.12" cy="48.52" r=".65"/><circle class="cls-3" cx="124.12" cy="46.08" r=".65"/><circle class="cls-3" cx="126.96" cy="31.39" r=".65"/><circle class="cls-3" cx="124.12" cy="50.97" r=".65"/><circle class="cls-3" cx="124.12" cy="53.42" r=".65"/><circle class="cls-3" cx="126.96" cy="43.63" r=".65"/><circle class="cls-3" cx="126.96" cy="41.18" r=".65"/><circle class="cls-3" cx="126.96" cy="46.08" r=".65"/><circle class="cls-3" cx="126.96" cy="33.84" r=".65"/><circle class="cls-3" cx="126.96" cy="28.94" r=".65"/><circle class="cls-3" cx="126.96" cy="38.73" r=".65"/><circle class="cls-3" cx="126.96" cy="36.28" r=".65"/><circle class="cls-3" cx="141.15" cy="48.52" r=".65"/><circle class="cls-3" cx="124.12" cy="41.18" r=".65"/><circle class="cls-3" cx="135.47" cy="46.08" r=".65"/><circle class="cls-3" cx="138.31" cy="43.63" r=".65"/><circle class="cls-3" cx="138.31" cy="48.52" r=".65"/><circle class="cls-3" cx="141.15" cy="46.08" r=".65"/><circle class="cls-3" cx="141.15" cy="43.63" r=".65"/><circle class="cls-3" cx="126.96" cy="48.52" r=".65"/><circle class="cls-3" cx="138.31" cy="46.08" r=".65"/><circle class="cls-3" cx="135.47" cy="48.52" r=".65"/><circle class="cls-3" cx="124.12" cy="33.84" r=".65"/><circle class="cls-3" cx="124.12" cy="38.73" r=".65"/><circle class="cls-3" cx="124.12" cy="36.28" r=".65"/><circle class="cls-3" cx="135.47" cy="43.63" r=".65"/><circle class="cls-3" cx="124.12" cy="31.39" r=".65"/><circle class="cls-3" cx="124.12" cy="28.94" r=".65"/><circle class="cls-3" cx="132.63" cy="43.63" r=".65"/><circle class="cls-3" cx="132.63" cy="28.94" r=".65"/><circle class="cls-3" cx="132.63" cy="33.84" r=".65"/><circle class="cls-3" cx="135.47" cy="31.39" r=".65"/><circle class="cls-3" cx="132.63" cy="48.52" r=".65"/><circle class="cls-3" cx="132.63" cy="31.39" r=".65"/><circle class="cls-3" cx="129.79" cy="58.32" r=".65"/><circle class="cls-3" cx="132.63" cy="46.08" r=".65"/><circle class="cls-3" cx="135.47" cy="28.94" r=".65"/><circle class="cls-3" cx="141.15" cy="28.94" r=".65"/><circle class="cls-3" cx="135.47" cy="33.84" r=".65"/><circle class="cls-3" cx="141.15" cy="31.39" r=".65"/><circle class="cls-3" cx="141.15" cy="33.84" r=".65"/><circle class="cls-3" cx="138.31" cy="31.39" r=".65"/><circle class="cls-3" cx="138.31" cy="28.94" r=".65"/><circle class="cls-3" cx="138.31" cy="33.84" r=".65"/><circle class="cls-3" cx="129.79" cy="50.97" r=".65"/><circle class="cls-3" cx="129.79" cy="28.94" r=".65"/><circle class="cls-3" cx="129.79" cy="36.28" r=".65"/><circle class="cls-3" cx="129.79" cy="33.84" r=".65"/><circle class="cls-3" cx="129.79" cy="31.39" r=".65"/><circle class="cls-3" cx="126.96" cy="53.42" r=".65"/><circle class="cls-3" cx="126.96" cy="55.87" r=".65"/><circle class="cls-3" cx="126.96" cy="58.32" r=".65"/><circle class="cls-3" cx="129.79" cy="46.08" r=".65"/><circle class="cls-3" cx="126.96" cy="50.97" r=".65"/><circle class="cls-3" cx="129.79" cy="38.73" r=".65"/><circle class="cls-3" cx="129.79" cy="53.42" r=".65"/><circle class="cls-3" cx="129.79" cy="48.52" r=".65"/><circle class="cls-3" cx="129.79" cy="41.18" r=".65"/><circle class="cls-3" cx="129.79" cy="43.63" r=".65"/><circle class="cls-3" cx="129.79" cy="55.87" r=".65"/><circle class="cls-3" cx="208.01" cy="58.38" r=".65"/><circle class="cls-3" cx="210.9" cy="31.39" r=".65"/><circle class="cls-3" cx="210.9" cy="33.85" r=".65"/><circle class="cls-3" cx="208.01" cy="41.21" r=".65"/><circle class="cls-3" cx="210.9" cy="36.3" r=".65"/><circle class="cls-3" cx="208.01" cy="55.93" r=".65"/><circle class="cls-3" cx="208.01" cy="46.11" r=".65"/><circle class="cls-3" cx="208.01" cy="43.66" r=".65"/><circle class="cls-3" cx="208.01" cy="48.57" r=".65"/><circle class="cls-3" cx="208.01" cy="51.02" r=".65"/><circle class="cls-3" cx="210.9" cy="38.75" r=".65"/><circle class="cls-3" cx="208.01" cy="53.47" r=".65"/><circle class="cls-3" cx="210.9" cy="28.94" r=".65"/><circle class="cls-3" cx="199.33" cy="48.57" r=".65"/><circle class="cls-3" cx="199.33" cy="51.02" r=".65"/><circle class="cls-3" cx="210.9" cy="58.38" r=".65"/><circle class="cls-3" cx="199.33" cy="43.66" r=".65"/><circle class="cls-3" cx="210.9" cy="55.93" r=".65"/><circle class="cls-3" cx="199.33" cy="46.11" r=".65"/><circle class="cls-3" cx="210.9" cy="43.66" r=".65"/><circle class="cls-3" cx="210.9" cy="53.47" r=".65"/><circle class="cls-3" cx="210.9" cy="41.21" r=".65"/><circle class="cls-3" cx="210.9" cy="46.11" r=".65"/><circle class="cls-3" cx="210.9" cy="48.57" r=".65"/><circle class="cls-3" cx="210.9" cy="51.02" r=".65"/><circle class="cls-3" cx="202.23" cy="51.02" r=".65"/><circle class="cls-3" cx="205.12" cy="28.94" r=".65"/><circle class="cls-3" cx="205.12" cy="31.39" r=".65"/><circle class="cls-3" cx="205.12" cy="33.85" r=".65"/><circle class="cls-3" cx="205.12" cy="41.21" r=".65"/><circle class="cls-3" cx="202.23" cy="55.93" r=".65"/><circle class="cls-3" cx="205.12" cy="36.3" r=".65"/><circle class="cls-3" cx="205.12" cy="38.75" r=".65"/><circle class="cls-3" cx="202.23" cy="43.66" r=".65"/><circle class="cls-3" cx="202.23" cy="46.11" r=".65"/><circle class="cls-3" cx="199.33" cy="41.21" r=".65"/><circle class="cls-3" cx="202.23" cy="48.57" r=".65"/><circle class="cls-3" cx="202.23" cy="53.47" r=".65"/><circle class="cls-3" cx="208.01" cy="36.3" r=".65"/><circle class="cls-3" cx="208.01" cy="31.39" r=".65"/><circle class="cls-3" cx="208.01" cy="28.94" r=".65"/><circle class="cls-3" cx="208.01" cy="38.75" r=".65"/><circle class="cls-3" cx="208.01" cy="33.85" r=".65"/><circle class="cls-3" cx="205.12" cy="58.38" r=".65"/><circle class="cls-3" cx="205.12" cy="55.93" r=".65"/><circle class="cls-3" cx="205.12" cy="48.57" r=".65"/><circle class="cls-3" cx="205.12" cy="43.66" r=".65"/><circle class="cls-3" cx="205.12" cy="46.11" r=".65"/><circle class="cls-3" cx="205.12" cy="51.02" r=".65"/><circle class="cls-3" cx="205.12" cy="53.47" r=".65"/><circle class="cls-3" cx="184.87" cy="28.94" r=".65"/><circle class="cls-3" cx="184.87" cy="53.47" r=".65"/><circle class="cls-3" cx="184.87" cy="51.02" r=".65"/><circle class="cls-3" cx="184.87" cy="58.38" r=".65"/><circle class="cls-3" cx="184.87" cy="46.11" r=".65"/><circle class="cls-3" cx="184.87" cy="55.93" r=".65"/><circle class="cls-3" cx="184.87" cy="48.57" r=".65"/><circle class="cls-3" cx="187.77" cy="28.94" r=".65"/><circle class="cls-3" cx="187.77" cy="38.75" r=".65"/><circle class="cls-3" cx="187.77" cy="36.3" r=".65"/><circle class="cls-3" cx="184.87" cy="43.66" r=".65"/><circle class="cls-3" cx="187.77" cy="33.85" r=".65"/><circle class="cls-3" cx="187.77" cy="31.39" r=".65"/><circle class="cls-3" cx="193.55" cy="31.39" r=".65"/><circle class="cls-3" cx="193.55" cy="41.21" r=".65"/><circle class="cls-3" cx="193.55" cy="36.3" r=".65"/><circle class="cls-3" cx="193.55" cy="38.75" r=".65"/><circle class="cls-3" cx="187.77" cy="41.21" r=".65"/><circle class="cls-3" cx="193.55" cy="33.85" r=".65"/><circle class="cls-3" cx="184.87" cy="41.21" r=".65"/><circle class="cls-3" cx="193.55" cy="43.66" r=".65"/><circle class="cls-3" cx="184.87" cy="38.75" r=".65"/><circle class="cls-3" cx="184.87" cy="36.3" r=".65"/><circle class="cls-3" cx="196.44" cy="43.66" r=".65"/><circle class="cls-3" cx="184.87" cy="33.85" r=".65"/><circle class="cls-3" cx="184.87" cy="31.39" r=".65"/><circle class="cls-3" cx="190.66" cy="48.57" r=".65"/><circle class="cls-3" cx="190.66" cy="51.02" r=".65"/><circle class="cls-3" cx="190.66" cy="58.38" r=".65"/><circle class="cls-3" cx="190.66" cy="53.47" r=".65"/><circle class="cls-3" cx="190.66" cy="41.21" r=".65"/><circle class="cls-3" cx="190.66" cy="46.11" r=".65"/><circle class="cls-3" cx="190.66" cy="43.66" r=".65"/><circle class="cls-3" cx="196.44" cy="41.21" r=".65"/><circle class="cls-3" cx="190.66" cy="55.93" r=".65"/><circle class="cls-3" cx="196.44" cy="46.11" r=".65"/><circle class="cls-3" cx="196.44" cy="38.75" r=".65"/><circle class="cls-3" cx="196.44" cy="36.3" r=".65"/><circle class="cls-3" cx="187.77" cy="55.93" r=".65"/><circle class="cls-3" cx="187.77" cy="51.02" r=".65"/><circle class="cls-3" cx="187.77" cy="53.47" r=".65"/><circle class="cls-3" cx="187.77" cy="46.11" r=".65"/><circle class="cls-3" cx="187.77" cy="58.38" r=".65"/><circle class="cls-3" cx="190.66" cy="38.75" r=".65"/><circle class="cls-3" cx="187.77" cy="48.57" r=".65"/><circle class="cls-3" cx="187.77" cy="43.66" r=".65"/><circle class="cls-3" cx="190.66" cy="36.3" r=".65"/><circle class="cls-3" cx="190.66" cy="33.85" r=".65"/><circle class="cls-3" cx="190.66" cy="31.39" r=".65"/><circle class="cls-3" cx="190.66" cy="28.94" r=".65"/><path class="cls-2" d="M34.84 49.23h-.05l-2.91-14.71h-1.66l-2.81 14.71h-.05l-2.23-14.71h-1.87l3.12 18.72h1.71l2.96-14.71h.05l2.96 14.71h1.71l3.02-18.72h-1.87l-2.08 14.71zM47.99 42.55h-5.61v-8.03H40.5v18.72h1.88v-8.82h5.61v8.82h1.88V34.52h-1.88v8.03zM53.73 44.42h4.81v-1.87h-4.81v-6.16h6.41v-1.87h-8.56v18.72h8.83v-1.6h-6.68v-7.22zM70.15 48.43h-.17l-4.82-13.91h-3.3v18.72H64V36.93h.07l5.81 16.31h2.14V34.52h-1.87v13.91zM79.78 36.39h3.75v16.85h2.14V36.39h3.74v-1.87h-9.63v1.87zM98.89 42.55h-5.62v-8.03h-2.14v18.72h2.14v-8.82h5.62v8.82h1.87V34.52h-1.87v8.03zM104.62 51.64v-7.22h4.81v-1.87h-4.81v-6.16h6.42v-1.87h-8.56v18.72h8.82v-1.6h-6.68zM225.72 38.43a2.41 2.41 0 0 1 2.57-2.43c1.95 0 2.72 1.48 2.88 3.35H233c-.16-3.21-1.92-5.07-4.62-5.07a4.2 4.2 0 0 0-4.52 4.38c0 5.35 7.53 5.83 7.53 10.08 0 2-1.09 3.06-2.78 3.06-2 0-3-1.23-3.09-3.63h-1.87c.05 3.21 1.82 5.34 4.75 5.34 3.09 0 4.8-1.74 4.8-4.73.04-6.06-7.48-6.11-7.48-10.35zM234.16 36.36h3.75v16.85h2.13V36.36h3.75v-1.87h-9.63v1.87zM249.71 34.27c-3.17 0-5.29 2.65-5.29 9.63s2.13 9.63 5.29 9.63S255 50.88 255 43.9s-2.12-9.63-5.29-9.63zm0 17.54c-1.82 0-3.27-1.56-3.27-7.91s1.46-7.9 3.27-7.9 3.29 1.54 3.29 7.9-1.47 7.91-3.29 7.91zM261.45 34.49H257v18.72h2.14v-8.29h2.29c3 0 5-2.1 5-5.21s-1.97-5.22-4.98-5.22zm-.26 8.51h-2v-6.64h2c2 0 3.22 1 3.22 3.34s-1.19 3.3-3.22 3.3zM270 38.43a2.41 2.41 0 0 1 2.52-2.43c1.95 0 2.73 1.48 2.88 3.35h1.87c-.16-3.21-1.92-5.07-4.62-5.07a4.2 4.2 0 0 0-4.52 4.38c0 5.35 7.53 5.83 7.53 10.08 0 2-1.09 3.06-2.78 3.06-2 0-3-1.23-3.09-3.63h-1.87c.05 3.21 1.82 5.34 4.75 5.34 3.09 0 4.8-1.74 4.8-4.73.01-6.06-7.47-6.11-7.47-10.35zM328.21 37.25H327V43h1.25c2.11 0 2.76-.65 2.76-2.89s-.69-2.86-2.8-2.86zM316.68 37c-1.3 0-1.72.68-1.72 2.08v9.53c0 1.41.41 2.08 1.72 2.08s1.72-.68 1.72-2.08v-9.56c0-1.4-.4-2.05-1.72-2.05z"/><path class="cls-2" d="M322.66 17.51h-21.94L285.29 33v21.92l15.42 15.34h21.95l13.43-13.38 2-2V33zm-28.38 36.16c-3 0-4.72-2.4-4.85-5.21l3.07-.46c.13 1.9.89 2.84 1.93 2.84a1.66 1.66 0 0 0 1.88-1.72c0-3.73-6.57-4.72-6.57-10.11 0-3 1.82-4.69 5-4.69 2.63 0 4.2 1.9 4.49 4.56l-3.08.34c-.13-1.62-1-2.09-1.72-2.09a1.58 1.58 0 0 0-1.61 1.87c0 3.21 6.57 4.75 6.57 9.85 0 3.1-2.09 4.82-5.11 4.82zm15.8-16.27H307v16h-3.23v-16h-3.13v-2.81h9.49v2.81zm11.55 11.44c0 2.66-1.56 4.82-5 4.82s-5-2.17-5-4.82v-9.7c0-2.66 1.56-4.82 5-4.82s5 2.16 5 4.82v9.7zm6.74-3.15H327v7.71h-3.23V34.59h4.64c4 0 5.84 1.54 5.84 5.55s-1.89 5.55-5.87 5.55zM333.93 21.26h.41v-3.41h.77v-.35h-1.95v.35h.77v3.41zM335.81 17.82h.01l.78 3.44h.27l.78-3.44h.01v3.44h.37V17.5h-.64l-.64 2.84h-.01l-.66-2.84h-.64v3.76h.37v-3.44z"/><circle class="cls-3" cx="169.22" cy="58.3" r=".65"/><circle class="cls-3" cx="169.22" cy="46.06" r=".65"/><circle class="cls-3" cx="169.22" cy="53.41" r=".65"/><circle class="cls-3" cx="169.22" cy="55.86" r=".65"/><circle class="cls-3" cx="169.22" cy="48.51" r=".65"/><circle class="cls-3" cx="169.22" cy="43.62" r=".65"/><circle class="cls-3" cx="169.22" cy="36.27" r=".65"/><circle class="cls-3" cx="169.22" cy="38.72" r=".65"/><circle class="cls-3" cx="169.22" cy="41.17" r=".65"/><circle class="cls-3" cx="172.27" cy="33.82" r=".65"/><circle class="cls-3" cx="172.27" cy="48.51" r=".65"/><circle class="cls-3" cx="172.27" cy="46.06" r=".65"/><circle class="cls-3" cx="172.27" cy="43.62" r=".65"/><circle class="cls-3" cx="172.27" cy="50.96" r=".65"/><circle class="cls-3" cx="172.27" cy="41.17" r=".65"/><circle class="cls-3" cx="172.27" cy="36.27" r=".65"/><circle class="cls-3" cx="172.27" cy="31.38" r=".65"/><circle class="cls-3" cx="172.27" cy="38.72" r=".65"/><circle class="cls-3" cx="169.22" cy="33.82" r=".65"/><circle class="cls-3" cx="169.22" cy="50.96" r=".65"/><circle class="cls-3" cx="175.32" cy="38.72" r=".65"/><circle class="cls-3" cx="175.32" cy="41.17" r=".65"/><circle class="cls-3" cx="175.32" cy="43.62" r=".65"/><circle class="cls-3" cx="175.32" cy="36.27" r=".65"/><circle class="cls-3" cx="172.27" cy="53.41" r=".65"/><circle class="cls-3" cx="175.32" cy="48.51" r=".65"/><circle class="cls-3" cx="175.32" cy="50.96" r=".65"/><circle class="cls-3" cx="175.32" cy="46.06" r=".65"/><circle class="cls-3" cx="175.32" cy="33.82" r=".65"/><circle class="cls-3" cx="163.11" cy="53.41" r=".65"/><circle class="cls-3" cx="166.16" cy="55.86" r=".65"/><circle class="cls-3" cx="166.16" cy="53.41" r=".65"/><circle class="cls-3" cx="166.16" cy="58.3" r=".65"/><circle class="cls-3" cx="169.22" cy="31.38" r=".65"/><circle class="cls-3" cx="169.22" cy="28.93" r=".65"/><circle class="cls-3" cx="163.11" cy="55.86" r=".65"/><circle class="cls-3" cx="175.32" cy="28.93" r=".65"/><circle class="cls-3" cx="175.32" cy="31.38" r=".65"/><circle class="cls-3" cx="163.11" cy="58.3" r=".65"/><circle class="cls-3" cx="160.06" cy="55.86" r=".65"/><circle class="cls-3" cx="150.9" cy="48.51" r=".65"/><circle class="cls-3" cx="153.95" cy="31.38" r=".65"/><circle class="cls-3" cx="153.95" cy="28.93" r=".65"/><circle class="cls-3" cx="150.9" cy="50.96" r=".65"/><circle class="cls-3" cx="153.95" cy="33.82" r=".65"/><circle class="cls-3" cx="153.95" cy="41.17" r=".65"/><circle class="cls-3" cx="153.95" cy="38.72" r=".65"/><circle class="cls-3" cx="153.95" cy="36.27" r=".65"/><circle class="cls-3" cx="150.9" cy="46.06" r=".65"/><circle class="cls-3" cx="153.95" cy="43.62" r=".65"/><circle class="cls-3" cx="160.06" cy="58.3" r=".65"/><circle class="cls-3" cx="150.9" cy="31.38" r=".65"/><circle class="cls-3" cx="150.9" cy="43.62" r=".65"/><circle class="cls-3" cx="160.06" cy="53.41" r=".65"/><circle class="cls-3" cx="150.9" cy="28.93" r=".65"/><circle class="cls-3" cx="150.9" cy="38.72" r=".65"/><circle class="cls-3" cx="150.9" cy="41.17" r=".65"/><circle class="cls-3" cx="150.9" cy="33.82" r=".65"/><circle class="cls-3" cx="150.9" cy="36.27" r=".65"/><circle class="cls-3" cx="157" cy="48.51" r=".65"/><circle class="cls-3" cx="172.27" cy="55.86" r=".65"/><circle class="cls-3" cx="157" cy="46.06" r=".65"/><circle class="cls-3" cx="153.95" cy="46.06" r=".65"/><circle class="cls-3" cx="157" cy="50.96" r=".65"/><circle class="cls-3" cx="157" cy="41.17" r=".65"/><circle class="cls-3" cx="157" cy="53.41" r=".65"/><circle class="cls-3" cx="172.27" cy="28.93" r=".65"/><circle class="cls-3" cx="157" cy="55.86" r=".65"/><circle class="cls-3" cx="157" cy="58.3" r=".65"/><circle class="cls-3" cx="157" cy="43.62" r=".65"/><circle class="cls-3" cx="153.95" cy="53.41" r=".65"/><circle class="cls-3" cx="153.95" cy="50.96" r=".65"/><circle class="cls-3" cx="153.95" cy="55.86" r=".65"/><circle class="cls-3" cx="153.95" cy="48.51" r=".65"/><circle class="cls-3" cx="157" cy="36.27" r=".65"/><circle class="cls-3" cx="157" cy="38.72" r=".65"/><circle class="cls-3" cx="157" cy="33.82" r=".65"/><circle class="cls-3" cx="157" cy="28.93" r=".65"/><circle class="cls-3" cx="157" cy="31.38" r=".65"/></svg>