<svg id="Layer_2" data-name="Layer 2" xmlns="http://www.w3.org/2000/svg" viewBox="0 0 20 18.14213"><defs><style>.cls-1{fill:#41494f;}</style></defs><title>10Lines</title><path class="cls-1" d="M17.3386,8.132a2.03079,2.03079,0,0,0,1.76791,1.05108h.8647A2.0313,2.0313,0,0,0,22,7.154v-.8647a2.03126,2.03126,0,0,0-2.02879-2.02879h-.8647a2.03132,2.03132,0,0,0-2.02907,2.02879v.12671l-5.1012,5.74266L6.92255,6.46952V6.28935A2.03126,2.03126,0,0,0,4.89377,4.26056h-.8647A2.03133,2.03133,0,0,0,2,6.28935V7.154A2.03137,2.03137,0,0,0,4.02907,9.18312h.8647A2.02879,2.02879,0,0,0,6.669,8.11883a2.11173,2.11173,0,0,0,.17717-.4352l4.19518,4.72272-4.11878-.016v-.15691a1.99507,1.99507,0,0,0-.26059-.97771v2.82012a2.01323,2.01323,0,0,0,.2504-.82194l4.33426.0168L6.92016,18.14126a1.998,1.998,0,0,0-.2582-.94139l-.00028-.00028a2.03049,2.03049,0,0,0-1.76791-1.0511h-.8647A2.03139,2.03139,0,0,0,2,18.17758v.8647a2.03132,2.03132,0,0,0,2.02907,2.02879h.8647a2.03126,2.03126,0,0,0,1.975-1.5718l5.10753-5.7498,5.17447,5.82517a2.031,2.031,0,0,0,1.9558,1.49643h.8647A2.03124,2.03124,0,0,0,22,19.04228v-.8647a2.0313,2.0313,0,0,0-2.02879-2.02907h-.8647a2.03075,2.03075,0,0,0-1.76791,1.05108,1.99237,1.99237,0,0,0-.26115.978v.01449l-4.36658-4.91567,4.37934.017A2.04972,2.04972,0,0,0,19.10651,15.127h.8647A2.03124,2.03124,0,0,0,22,13.09816v-.8647a2.0313,2.0313,0,0,0-2.02879-2.02907h-.8647a2.04674,2.04674,0,0,0-2.02907,2.02907v.19629l-4.17276-.01618,4.23661-4.76935A2.08891,2.08891,0,0,0,17.3386,8.132ZM17.941,6.28935a1.16662,1.16662,0,0,1,1.16549-1.16521h.8647a1.16637,1.16637,0,0,1,1.16521,1.16521V7.154a1.1666,1.1666,0,0,1-1.16521,1.16549h-.8647a1.16656,1.16656,0,0,1-1.01341-.60748,1.13921,1.13921,0,0,1-.15208-.558ZM6.059,7.154a1.14019,1.14019,0,0,1-.14786.55042,1.1648,1.1648,0,0,1-1.01734.61507h-.8647A1.16686,1.16686,0,0,1,2.86358,7.154v-.8647A1.16662,1.16662,0,0,1,4.02907,5.12414h.8647A1.16637,1.16637,0,0,1,6.059,6.28935Zm0,11.88823a1.16637,1.16637,0,0,1-1.16521,1.16521h-.8647a1.16662,1.16662,0,0,1-1.16549-1.16521v-.8647a1.16685,1.16685,0,0,1,1.16549-1.16549h.8647a1.16607,1.16607,0,0,1,1.01313.6072,1.14173,1.14173,0,0,1,.15208.55829Zm11.882-.8647a1.13926,1.13926,0,0,1,.15208-.558,1.16656,1.16656,0,0,1,1.01341-.60748h.8647a1.1666,1.1666,0,0,1,1.16521,1.16549v.8647a1.16637,1.16637,0,0,1-1.16521,1.16521h-.8647A1.16662,1.16662,0,0,1,17.941,19.04228Zm0-5.94411a1.13763,1.13763,0,0,1,.1757-.6027,1.15822,1.15822,0,0,1,.9898-.56279h.8647a1.1666,1.1666,0,0,1,1.16521,1.16549v.8647a1.16636,1.16636,0,0,1-1.16521,1.16521h-.8647a1.16655,1.16655,0,0,1-1.01341-.6072,1.13926,1.13926,0,0,1-.15208-.558Z" transform="translate(-2 -2.92893)"/><path class="cls-1" d="M4.02907,15.127h.8647a2.03017,2.03017,0,0,0,1.76791-1.0508V11.25547A2.03042,2.03042,0,0,0,4.89377,10.2044h-.8647A2.03136,2.03136,0,0,0,2,12.23346v.8647A2.03131,2.03131,0,0,0,4.02907,15.127ZM2.86358,12.23346A1.16686,1.16686,0,0,1,4.02907,11.068h.8647a1.16656,1.16656,0,0,1,1.0132.60717l-.00007,0a1.14173,1.14173,0,0,1,.15208.55829v.8647a1.14178,1.14178,0,0,1-.15208.55829l.00007,0a1.16652,1.16652,0,0,1-1.0132.60689h-.8647a1.16661,1.16661,0,0,1-1.16549-1.16521Z" transform="translate(-2 -2.92893)"/><polygon class="cls-1" points="8.242 1.009 8.256 1.009 8.256 4.567 9.271 4.567 9.271 0.076 8.401 0.076 7.213 0.629 7.385 1.416 8.242 1.009"/><path class="cls-1" d="M13.6684,7.57178c1.14694,0,1.70663-.95325,1.70663-2.34223,0-1.22987-.47-2.30062-1.67205-2.30062-1.16073,0-1.71366,1.02943-1.71366,2.32845C11.99635,6.52858,12.50769,7.57178,13.6684,7.57178Zm.0208-3.84842c.42139,0,.63559.52512.63559,1.52025,0,1.0224-.22124,1.53375-.62885,1.53375s-.6564-.49056-.64937-1.52C13.03955,4.2139,13.30211,3.72336,13.6892,3.72336Z" transform="translate(-2 -2.92893)"/></svg>