<svg id="Layer_2" data-name="Layer 2" xmlns="http://www.w3.org/2000/svg" viewBox="0 0 20 18.14228"><defs><style>.cls-1{fill:#41494f;}</style></defs><title>20Lines</title><path class="cls-1" d="M4.02907,15.127h.8647a2.03017,2.03017,0,0,0,1.76791-1.0508V11.25555a2.03042,2.03042,0,0,0-1.76791-1.05108h-.8647A2.03136,2.03136,0,0,0,2,12.23354v.8647A2.03131,2.03131,0,0,0,4.02907,15.127ZM2.86358,12.23354A1.16686,1.16686,0,0,1,4.02907,11.068h.8647a1.16645,1.16645,0,0,1,1.0132.60717l-.00007,0a1.14173,1.14173,0,0,1,.15208.55829v.8647a1.14178,1.14178,0,0,1-.15208.55829l.00007,0a1.16642,1.16642,0,0,1-1.0132.60689h-.8647a1.16661,1.16661,0,0,1-1.16549-1.16521Z" transform="translate(-2 -2.92886)"/><path class="cls-1" d="M17.3386,8.13211a2.03079,2.03079,0,0,0,1.76791,1.05108h.86467A2.0313,2.0313,0,0,0,22,7.15412v-.8647a2.03125,2.03125,0,0,0-2.02882-2.02879h-.86467a2.0313,2.0313,0,0,0-2.02907,2.02879v.12671l-5.1012,5.74266L6.92255,6.4696V6.28942A2.03126,2.03126,0,0,0,4.89377,4.26064h-.8647A2.03133,2.03133,0,0,0,2,6.28942v.8647A2.03137,2.03137,0,0,0,4.02907,9.18319h.8647A2.02879,2.02879,0,0,0,6.669,8.1189a2.11185,2.11185,0,0,0,.17721-.4352l4.19518,4.72272-4.11882-.016v-.15691a1.99507,1.99507,0,0,0-.26059-.97771v2.82012A2.013,2.013,0,0,0,6.9124,13.254l4.33426.0168L6.9202,18.14134a1.99762,1.99762,0,0,0-.25824-.94139l-.00028-.00028a2.03047,2.03047,0,0,0-1.76791-1.0511h-.8647A2.03139,2.03139,0,0,0,2,18.17765v.8647a2.03132,2.03132,0,0,0,2.02907,2.02879h.8647a2.03122,2.03122,0,0,0,1.975-1.5718l5.10753-5.7498,5.17447,5.82517a2.03107,2.03107,0,0,0,1.9558,1.49643h.86467A2.03125,2.03125,0,0,0,22,19.04235v-.8647a2.0313,2.0313,0,0,0-2.02882-2.02907h-.86467a2.03075,2.03075,0,0,0-1.76791,1.05108,1.99237,1.99237,0,0,0-.26115.978v.01449L12.7109,13.27648l4.3793.017A2.04972,2.04972,0,0,0,19.10651,15.127h.86467A2.03125,2.03125,0,0,0,22,13.09824v-.8647a2.0313,2.0313,0,0,0-2.02882-2.02907h-.86467a2.04674,2.04674,0,0,0-2.02907,2.02907v.19629l-4.17272-.01618,4.23657-4.76935A2.08891,2.08891,0,0,0,17.3386,8.13211ZM17.941,6.28942a1.16662,1.16662,0,0,1,1.16549-1.16521h.86467a1.16638,1.16638,0,0,1,1.16524,1.16521v.8647a1.1666,1.1666,0,0,1-1.16524,1.16549h-.86467a1.16656,1.16656,0,0,1-1.01341-.60748,1.13878,1.13878,0,0,1-.15208-.558Zm-11.882.8647a1.14019,1.14019,0,0,1-.14786.55042,1.1648,1.1648,0,0,1-1.01734.61507h-.8647A1.16686,1.16686,0,0,1,2.86358,7.15412v-.8647A1.16662,1.16662,0,0,1,4.02907,5.12421h.8647A1.16637,1.16637,0,0,1,6.059,6.28942Zm0,11.88823a1.16637,1.16637,0,0,1-1.16521,1.16521h-.8647a1.16662,1.16662,0,0,1-1.16549-1.16521v-.8647a1.16685,1.16685,0,0,1,1.16549-1.16549h.8647a1.16607,1.16607,0,0,1,1.01313.6072,1.14173,1.14173,0,0,1,.15208.55829Zm11.882-.8647a1.13883,1.13883,0,0,1,.15208-.558,1.16656,1.16656,0,0,1,1.01341-.60748h.86467a1.16661,1.16661,0,0,1,1.16524,1.16549v.8647a1.16638,1.16638,0,0,1-1.16524,1.16521h-.86467A1.16662,1.16662,0,0,1,17.941,19.04235Zm0-5.94411a1.13763,1.13763,0,0,1,.1757-.6027,1.15822,1.15822,0,0,1,.9898-.56279h.86467a1.16662,1.16662,0,0,1,1.16524,1.16549v.8647a1.16637,1.16637,0,0,1-1.16524,1.16521h-.86467a1.16655,1.16655,0,0,1-1.01341-.6072,1.13883,1.13883,0,0,1-.15208-.558Z" transform="translate(-2 -2.92886)"/><path class="cls-1" d="M11.81387,6.63238H10.121V6.6186l.41464-.34549A2.79076,2.79076,0,0,0,11.73094,4.3385,1.39587,1.39587,0,0,0,10.15559,2.929,2.48464,2.48464,0,0,0,8.684,3.392l.29714.7531a1.62708,1.62708,0,0,1,.96028-.37332c.51809,0,.73932.29039.73932.6564-.01377.52512-.49054,1.02943-1.47162,1.90706l-.5805.52512V7.496h3.18528Z" transform="translate(-2 -2.92886)"/><path class="cls-1" d="M13.9,7.57186c1.14694,0,1.70663-.95325,1.70663-2.34223,0-1.22987-.47-2.30062-1.67205-2.30062-1.16071,0-1.71366,1.02943-1.71366,2.32845C12.22795,6.52865,12.73929,7.57186,13.9,7.57186Zm.0208-3.84842c.42139,0,.63559.52512.63559,1.52025,0,1.0224-.22124,1.53375-.62885,1.53375s-.6564-.49054-.64937-1.52C13.27115,4.214,13.53371,3.72343,13.9208,3.72343Z" transform="translate(-2 -2.92886)"/></svg>