<svg id="Layer_2" data-name="Layer 2" xmlns="http://www.w3.org/2000/svg" viewBox="0 0 19.24999 20.14314"><defs><style>.cls-1{fill:#41494e;}</style></defs><title>50-40Ball</title><path class="cls-1" d="M7.55581,7.39152q-.02234-.029-.04626-.05676a.91451.91451,0,0,0-.84729-.30261,1.46883,1.46883,0,0,0-.75653.44385.66385.66385,0,0,0-.14117.15131l-.30261-.4035.87756-.8775-.43378-.43378L4.65493,7.16331,5.704,8.50486A2.61526,2.61526,0,0,1,5.98647,8.172c.45386-.45392.77667-.49432,1.01874-.26227s.111.575-.111.79687A1.69725,1.69725,0,0,1,6.26888,9.11l.30261.49426A1.9022,1.9022,0,0,0,7.328,9.11,1.22581,1.22581,0,0,0,7.55581,7.39152Z" transform="translate(-2.375 -1.92843)"/><path class="cls-1" d="M7.12625,4.61131c-.59509.58508-.353,1.392.31268,2.04767.64557.63544,1.43237.90778,2.0174.32275.585-.575.3833-1.34155-.32281-2.04761C8.50814,4.30875,7.73147,4.00614,7.12625,4.61131ZM9.073,6.56815c-.21185.20178-.585.08069-1.09949-.44379-.53461-.52454-.65564-.90784-.44379-1.09949.21179-.22192.585-.06049,1.08936.44385C9.13351,5.9932,9.27474,6.36643,9.073,6.56815Z" transform="translate(-2.375 -1.92843)"/><path class="cls-1" d="M6.09738,10.11875a2.7858,2.7858,0,0,1-1.43231-.75653A3.42082,3.42082,0,0,1,5.02822,4.571a3.44383,3.44383,0,0,1,4.80127-.37317,2.89573,2.89573,0,0,1,.81708,2.13837.431.431,0,0,0,.41351.42365.42372.42372,0,0,0,.42365-.41351,3.69307,3.69307,0,0,0-1.05908-2.74365A3.578,3.578,0,0,0,9.088,2.76615l.01526-.00073a5.91021,5.91021,0,0,1,4.82147,2.49146.4198.4198,0,0,0,.68591-.48413,6.737,6.737,0,1,0-9.97589,8.92682.42281.42281,0,0,0,.28247.10083.33794.33794,0,0,0,.29248-.1311.41747.41747,0,0,0-.02441-.5899l-.0058-.00525a5.92565,5.92565,0,0,1-1.97705-4.4079c0-.0459.00586-.09033.0069-.13593a3.54524,3.54524,0,0,0,.8606,1.427,3.61755,3.61755,0,0,0,1.866.98853.22177.22177,0,0,0,.08069.01007.42261.42261,0,0,0,.08069-.83716Z" transform="translate(-2.375 -1.92843)"/><path class="cls-1" d="M19.4429,9.262,19.412,9.23112a7.4955,7.4955,0,1,0,.03094.03088ZM14.09622,8.00053A3.90364,3.90364,0,0,1,18.252,11.57121a3.90357,3.90357,0,0,1-4.15576,3.57074,3.90365,3.90365,0,0,1-4.15576-3.57074A3.90364,3.90364,0,0,1,14.09622,8.00053Zm4.73071,11.26691A6.68666,6.68666,0,0,1,9.3655,9.81614c.10785-.10693.22247-.204.33594-.3028a3.95891,3.95891,0,0,0-.59814,2.04779,4.73267,4.73267,0,0,0,4.99292,4.408,4.73272,4.73272,0,0,0,4.993-4.408,3.95864,3.95864,0,0,0-.60065-2.05176c.11444.1.23.19836.33838.30676A6.68608,6.68608,0,0,1,18.82693,19.26743Z" transform="translate(-2.375 -1.92843)"/><path class="cls-1" d="M12.88583,13.34647h.80695v-.85736h.43372v-.63544h-.43372V9.73545H12.65383L11.282,11.93437v.55475h1.60382Zm-.80695-1.4928v-.01013l.48419-.78674c.121-.232.21179-.44385.33282-.67584h.0202c-.0202.232-.03027.45392-.03027.67584v.79688Z" transform="translate(-2.375 -1.92843)"/><path class="cls-1" d="M15.48824,13.407c.91785,0,1.37177-.7666,1.37177-1.88623,0-.98853-.37323-1.84589-1.34155-1.856-.938,0-1.3819.82709-1.3819,1.87616C14.14669,12.5698,14.55013,13.407,15.48824,13.407Zm.01-3.09662c.343,0,.5144.42365.5144,1.22046,0,.81708-.17145,1.23059-.50433,1.23059s-.53461-.39337-.52448-1.22046C14.98385,10.70377,15.1957,10.3104,15.49825,10.3104Z" transform="translate(-2.375 -1.92843)"/><path class="cls-1" d="M19.412,14.11308a.42628.42628,0,0,0-.42365.42365,4.90314,4.90314,0,0,1-4.89209,4.89215.42365.42365,0,0,0,0,.84729,5.75578,5.75578,0,0,0,5.73944-5.73944A.42634.42634,0,0,0,19.412,14.11308Z" transform="translate(-2.375 -1.92843)"/></svg>