<svg id="Layer_2" data-name="Layer 2" xmlns="http://www.w3.org/2000/svg" viewBox="0 0 20 17.20265"><defs><style>.cls-1{fill:#41494f;}</style></defs><title>5Lines</title><path class="cls-1" d="M13.715,6.39055a1.27881,1.27881,0,0,0-.54564-1.12642,2.05411,2.05411,0,0,0-1.18151-.32468,1.95107,1.95107,0,0,0-.29039.01377l.0967-.691h1.74121V3.39867H11.06186l-.29714,2.356a3.89028,3.89028,0,0,1,.608-.04132c.89815,0,1.26444.28336,1.26444.74607,0,.47677-.463.68424-.89815.68424a2.58126,2.58126,0,0,1-1.01566-.22124l-.18666.78766a2.85473,2.85473,0,0,0,1.25067.25553A1.71218,1.71218,0,0,0,13.715,6.39055Z" transform="translate(-2 -3.39867)"/><path class="cls-1" d="M17.3386,7.6623a2.03079,2.03079,0,0,0,1.76791,1.05108h.8647A2.0313,2.0313,0,0,0,22,6.68431v-.8647a2.03125,2.03125,0,0,0-2.02879-2.02879h-.8647a2.0313,2.0313,0,0,0-2.02907,2.02879V5.9463L11.97625,11.689,6.92255,5.99979V5.81961A2.03124,2.03124,0,0,0,4.89377,3.79082h-.8647A2.0313,2.0313,0,0,0,2,5.81961v.8647A2.03137,2.03137,0,0,0,4.02907,8.71338h.8647A2.02879,2.02879,0,0,0,6.669,7.64909a2.108,2.108,0,0,0,.17717-.4352l4.19521,4.72272-4.11882-.016v-.15691A1.99512,1.99512,0,0,0,6.662,10.786v2.82013a2.0127,2.0127,0,0,0,.2504-.82194l4.33429.0168L6.92016,17.67152a1.998,1.998,0,0,0-.2582-.94139l-.00028-.00028a2.03044,2.03044,0,0,0-1.76791-1.05108h-.8647A2.03137,2.03137,0,0,0,2,17.70784v.8647a2.03131,2.03131,0,0,0,2.02907,2.02879h.8647a2.0312,2.0312,0,0,0,1.975-1.5718l5.10753-5.74981,5.1745,5.82519a2.03092,2.03092,0,0,0,1.95577,1.49643h.8647A2.03125,2.03125,0,0,0,22,18.57254v-.8647a2.0313,2.0313,0,0,0-2.02879-2.02907h-.8647a2.03079,2.03079,0,0,0-1.76791,1.05108,1.99242,1.99242,0,0,0-.26115.978v.01449l-4.36658-4.91567,4.37937.017a2.0496,2.0496,0,0,0,2.01628,1.83355h.8647A2.03126,2.03126,0,0,0,22,12.62843v-.8647a2.0313,2.0313,0,0,0-2.02879-2.02907h-.8647a2.04674,2.04674,0,0,0-2.02907,2.02907V11.96l-4.17276-.01618,4.23664-4.76935A2.09033,2.09033,0,0,0,17.3386,7.6623ZM17.941,5.81961A1.1666,1.1666,0,0,1,19.10651,4.6544h.8647a1.16635,1.16635,0,0,1,1.16521,1.16521v.8647A1.1666,1.1666,0,0,1,19.97121,7.8498h-.8647a1.16659,1.16659,0,0,1-1.01341-.60748,1.13926,1.13926,0,0,1-.15208-.558Zm-11.882.8647a1.14019,1.14019,0,0,1-.14786.55042,1.1648,1.1648,0,0,1-1.01734.61507h-.8647A1.16686,1.16686,0,0,1,2.86358,6.68431v-.8647A1.16661,1.16661,0,0,1,4.02907,4.6544h.8647A1.16635,1.16635,0,0,1,6.059,5.81961Zm0,11.88823a1.16637,1.16637,0,0,1-1.16521,1.16521h-.8647a1.16663,1.16663,0,0,1-1.16549-1.16521v-.8647a1.16686,1.16686,0,0,1,1.16549-1.16549h.8647a1.16614,1.16614,0,0,1,1.01313.6072,1.14178,1.14178,0,0,1,.15208.55829Zm11.882-.8647a1.13926,1.13926,0,0,1,.15208-.558,1.16663,1.16663,0,0,1,1.01341-.60748h.8647a1.1666,1.1666,0,0,1,1.16521,1.16549v.8647a1.16635,1.16635,0,0,1-1.16521,1.16521h-.8647A1.16661,1.16661,0,0,1,17.941,18.57254Zm0-5.94411a1.13767,1.13767,0,0,1,.1757-.6027,1.15822,1.15822,0,0,1,.9898-.56279h.8647a1.16661,1.16661,0,0,1,1.16521,1.16549v.8647a1.16635,1.16635,0,0,1-1.16521,1.16521h-.8647a1.16656,1.16656,0,0,1-1.01341-.60718,1.13926,1.13926,0,0,1-.15208-.558Z" transform="translate(-2 -3.39867)"/><path class="cls-1" d="M4.02907,14.65721h.8647a2.03017,2.03017,0,0,0,1.76791-1.0508V10.78574A2.03042,2.03042,0,0,0,4.89377,9.73466h-.8647A2.03137,2.03137,0,0,0,2,11.76373v.8647A2.03131,2.03131,0,0,0,4.02907,14.65721ZM2.86358,11.76373a1.16686,1.16686,0,0,1,1.16549-1.16549h.8647a1.16656,1.16656,0,0,1,1.0132.60717l-.00007,0a1.14178,1.14178,0,0,1,.15208.55829v.8647a1.14178,1.14178,0,0,1-.15208.55829l.00007,0a1.16652,1.16652,0,0,1-1.0132.60689h-.8647a1.16662,1.16662,0,0,1-1.16549-1.16521Z" transform="translate(-2 -3.39867)"/></svg>