<svg id="Layer_2" data-name="Layer 2" xmlns="http://www.w3.org/2000/svg" viewBox="0 0 18.90355 20.75395"><defs><style>.cls-1{fill:#41494f;}</style></defs><title>6+Holdem</title><path class="cls-1" d="M18.25927,20.40406a.35612.35612,0,0,1-.3587.351H14.94891v-.02562l-.2844.02562H6.486a.35872.35872,0,0,1-.3331-.21778.33843.33843,0,0,1-.02818-.1358V2.74281a.35615.35615,0,0,1,.3612-.351H17.90057a.35872.35872,0,0,1,.33308.21523.34573.34573,0,0,1,.02818.13579V5.62528h.76866V2.74281a1.112,1.112,0,0,0-.07943-.43814,1.12739,1.12739,0,0,0-1.0505-.68154H6.486A1.12482,1.12482,0,0,0,5.356,2.74279V20.40406a1.10424,1.10424,0,0,0,.08969.43558,1.1248,1.1248,0,0,0,.9685.67642l-1.02488.0948a.36126.36126,0,0,1-.39457-.31771L3.32164,3.71388a.34589.34589,0,0,1,.07943-.25622A.369.369,0,0,1,3.65728,3.327l.85065-.10506-.0948-.76866L3.57786,2.566a1.12482,1.12482,0,0,0-.76866.40483,1.1095,1.1095,0,0,0-.25622.81734L4.244,21.36745A1.12735,1.12735,0,0,0,5.3714,22.377h.10506l9.22391-.85322h3.2002a1.1248,1.1248,0,0,0,1.12736-1.11968v-2.862h-.76866Z" transform="translate(-2.54823 -1.62303)"/><path class="cls-1" d="M12.90427,7.1421a.733.733,0,0,0-.3331.07431.65078.65078,0,0,0-.228.17934l-2.12664,2.86455a5.95463,5.95463,0,0,0-.76864,1.3349,3.18714,3.18714,0,0,0-.25622,1.17093,3.39993,3.39993,0,0,0,.19728,1.1863,2.52412,2.52412,0,0,0,.55856.9019,2.47514,2.47514,0,0,0,.87628.57393,3.10256,3.10256,0,0,0,1.1453.20241,3.15889,3.15889,0,0,0,1.17093-.2101,2.71864,2.71864,0,0,0,.91214-.579,2.63662,2.63662,0,0,0,.5893-.866,2.73644,2.73644,0,0,0,.2101-1.07869,2.68786,2.68786,0,0,0-.20754-1.06075,2.26757,2.26757,0,0,0-1.32978-1.2811,2.72879,2.72879,0,0,0-.9557-.16653,2.60823,2.60823,0,0,0-.7866.11274,2.4721,2.4721,0,0,0-.66105.32028L13.82666,7.1421Zm-1.64751,4.18408a1.94211,1.94211,0,0,1,.76866-.14348,2.04988,2.04988,0,0,1,.72.123,1.53737,1.53737,0,0,1,.925.91727,2.03192,2.03192,0,0,1,.12811.74048,1.90129,1.90129,0,0,1-.13067.71485,1.6577,1.6577,0,0,1-.37409.56882,1.72161,1.72161,0,0,1-.58417.37407,2.05,2.05,0,0,1-.76866.1358,1.95772,1.95772,0,0,1-.74048-.13067,1.53735,1.53735,0,0,1-.55088-.37152,1.60139,1.60139,0,0,1-.34076-.56624,2.219,2.219,0,0,1-.11787-.73792l-.00256-.00769a1.79372,1.79372,0,0,1,.12811-.66617,1.68078,1.68078,0,0,1,.36383-.56369A1.74761,1.74761,0,0,1,11.25677,11.32618Z" transform="translate(-2.54823 -1.62303)"/><polygon class="cls-1" points="16.518 9.58 16.518 7.077 15.662 7.077 15.662 9.58 13.29 9.58 13.29 10.372 15.665 10.372 15.665 12.891 16.518 12.891 16.518 10.372 18.904 10.372 18.904 9.58 16.518 9.58"/></svg>