<svg id="Layer_2" data-name="Layer 2" xmlns="http://www.w3.org/2000/svg" viewBox="0 0 20 18.1331"><defs><style>.cls-1{fill:#41494f;}</style></defs><title>7s&amp;amp;Gems</title><path class="cls-1" d="M19.6717,3.12215l-.26319.17367a7.04219,7.04219,0,0,1-5.20584.42905c-1.7226-.71509-5.60808-1.482-8.73277.3181V3.73991H2v7.8H5.47559v-.43587A2.479,2.479,0,0,1,7.47047,9.198a6.79759,6.79759,0,0,1,2.38761.26277c.46578.10471.93769.21086,1.40633.26759a10.92848,10.92848,0,0,0-3.73068,4.27494c-1.04724,1.99005-1.2036,5.00649-1.2036,6.62737v.43587h9.53228v-.43587a32.12237,32.12237,0,0,1,.603-5.50081,20.03006,20.03006,0,0,1,5.22045-9.82158L22,4.96281ZM15.61951,14.91932a32.92823,32.92823,0,0,0-.61889,5.2755H7.20612a14.55152,14.55152,0,0,1,1.09917-5.78571,10.85178,10.85178,0,0,1,5.01912-4.91654l.225-.13025.00454-.00255-.43728-.75425a4.27464,4.27464,0,0,1-3.06752.00482,7.52619,7.52619,0,0,0-2.70444-.275H7.3446a3.44391,3.44391,0,0,0-2.67592,2.33284h-1.797V4.61164H4.59817V5.70939l.69423-.51106c2.90605-2.13861,6.88034-1.37229,8.576-.66841A7.97741,7.97741,0,0,0,19.61,4.18458l1.11933.88493A20.63859,20.63859,0,0,0,15.61951,14.91932Z" transform="translate(-2 -2.93345)"/></svg>