<svg id="Layer_2" data-name="Layer 2" xmlns="http://www.w3.org/2000/svg" viewBox="0 0 19.30973 20.16666"><defs><style>.cls-1{fill:#41494e;}</style></defs><title>80-75Ball</title><path class="cls-1" d="M6.01246,9.15914c.31226.31232.89655.37274,1.48077-.20148.5238-.53387.59436-1.15845.18134-1.57141a.8532.8532,0,0,0-.98718-.15112l-.01007-.01007A.78652.78652,0,0,0,6.506,6.38894c-.272-.272-.80591-.36261-1.33978.17126a1.001,1.001,0,0,0-.19135,1.40271l.03021.03778a.774.774,0,0,0,.826.17126l.02014.01007A.85307.85307,0,0,0,6.01246,9.15914Zm.4231-1.21887a.574.574,0,0,1,.73535.02014.40159.40159,0,0,1-.001.56793c-.00928.00928-.019.01807-.02917.02643a.44113.44113,0,0,1-.62341.0213l-.0213-.0213A.48349.48349,0,0,1,6.43555,7.94027ZM5.48865,7.487a.36723.36723,0,0,1-.00641-.51935A.44038.44038,0,0,1,6.019,6.89919a.35809.35809,0,0,1,.04382.04382.4422.4422,0,0,1,.06042.5238C5.88148,7.5978,5.64979,7.63808,5.48865,7.487Z" transform="translate(-2.34514 -1.91667)"/><path class="cls-1" d="M9.44746,6.99337c.58429-.58423.38281-1.34985-.32233-2.055-.62457-.62451-1.41028-.92676-2.01471-.32233-.5943.5943-.35254,1.40021.31232,2.055C8.06739,7.31569,8.85316,7.58773,9.44746,6.99337ZM7.49323,5.02907c.22162-.21155.59436-.05042,1.098.45331.5238.51373.66486.89648.46338,1.098s-.58429.08063-1.098-.44324C7.42274,5.6133,7.30183,5.23055,7.49323,5.02907Z" transform="translate(-2.34514 -1.91667)"/><path class="cls-1" d="M6.07288,10.14632a2.81218,2.81218,0,0,1-1.44049-.75549,3.43218,3.43218,0,0,1,.37274-4.805,3.43439,3.43439,0,0,1,4.805-.38281A2.91584,2.91584,0,0,1,10.626,6.34865a.43258.43258,0,0,0,.413.43317.42558.42558,0,0,0,.43317-.413,3.74227,3.74227,0,0,0-1.06781-2.76007A3.55607,3.55607,0,0,0,9.056,2.765c.01654-.00012.03247-.0025.049-.0025a5.94847,5.94847,0,0,1,4.83521,2.49823.41882.41882,0,0,0,.58356.1012l.00073-.00049a.42341.42341,0,0,0,.10413-.5896l-.00342-.0047A6.76334,6.76334,0,1,0,4.61225,13.7325a.387.387,0,0,0,.282.11078.37744.37744,0,0,0,.30219-.14105.41675.41675,0,0,0-.02435-.589l-.00586-.00531A5.91861,5.91861,0,0,1,3.18183,8.68569c0-.02838.00378-.05585.00421-.08417a3.55612,3.55612,0,0,0,.852,1.38367,3.643,3.643,0,0,0,1.87366.98718.22144.22144,0,0,0,.08063.01007.42209.42209,0,0,0,.08057-.83612Z" transform="translate(-2.34514 -1.91667)"/><path class="cls-1" d="M19.458,9.22725l-.0177-.01776a7.54371,7.54371,0,1,0,.0177.01776ZM14.10139,7.97048c2.29675,0,4.17041,1.60168,4.17041,3.576s-1.87366,3.576-4.17041,3.576S9.931,13.521,9.931,11.54653,11.80463,7.97048,14.10139,7.97048ZM18.846,19.27285A6.70628,6.70628,0,0,1,9.35682,9.79378c.1109-.1109.22876-.21161.34576-.31372a3.97323,3.97323,0,0,0-.60767,2.06647,4.74776,4.74776,0,0,0,5.00647,4.42224,4.74768,4.74768,0,0,0,5.00647-4.42224,3.97251,3.97251,0,0,0-.60492-2.06189c.116.10077.233.2.343.30914A6.85529,6.85529,0,0,1,18.846,19.27285Z" transform="translate(-2.34514 -1.91667)"/><polygon class="cls-1" points="10.809 8.492 9.319 11.413 10.215 11.413 11.706 8.32 11.706 7.786 9.147 7.786 9.147 8.481 10.809 8.481 10.809 8.492"/><path class="cls-1" d="M16.824,12.19393q.00458-.03653.00732-.07318a1.02966,1.02966,0,0,0-.44324-.90662,1.98707,1.98707,0,0,0-1.18866-.25183l.08057-.55408h1.41028V9.70314H14.69575L14.454,11.607a3.50285,3.50285,0,0,1,.49359-.03027c.72528,0,1.0174.23169,1.0174.60443,0,.38281-.37274.554-.72528.554a2.03979,2.03979,0,0,1-.816-.18127l-.15106.63458a2.37311,2.37311,0,0,0,1.00732.20148A1.38111,1.38111,0,0,0,16.824,12.19393Z" transform="translate(-2.34514 -1.91667)"/><path class="cls-1" d="M19.43024,14.10518a.42566.42566,0,0,0-.4231.4231A4.90531,4.90531,0,0,1,14.10236,19.434h-.001a.42307.42307,0,1,0,0,.84613A5.75,5.75,0,0,0,19.85328,14.532v-.00372A.42556.42556,0,0,0,19.43024,14.10518Z" transform="translate(-2.34514 -1.91667)"/></svg>