<svg id="Layer_2" data-name="Layer 2" xmlns="http://www.w3.org/2000/svg" viewBox="0 0 20.02002 20.02002"><defs><style>.cls-1{fill:#41494e;}</style></defs><title>90Ball</title><path class="cls-1" d="M5.94,11.36a1.46619,1.46619,0,0,0,2.07208.07788q.04047-.03745.07788-.07788a1.29812,1.29812,0,0,0,.44-.94l.02-.01a1.53168,1.53168,0,0,1,.2,1.07,1.97545,1.97545,0,0,1-.47.89,2.84622,2.84622,0,0,1-.35.35l.64.64a4.26739,4.26739,0,0,0,.37-.37,2.89546,2.89546,0,0,0,.83-1.8A2.908,2.908,0,0,0,8.79,9,1.86477,1.86477,0,0,0,6,8.82a1.765,1.765,0,0,0-.10394,2.4939Q5.91757,11.33734,5.94,11.36ZM6.53094,9.467c.00928-.01263.019-.025.02905-.037.37-.37.87-.14,1.23.22a.5185.5185,0,0,1,.16.25.72288.72288,0,0,1-1.26.6A.739.739,0,0,1,6.53094,9.467Z" transform="translate(-1.98999 -1.98999)"/><path class="cls-1" d="M12.5,9.44c.88-.88.57-2.04-.49-3.1-.95-.95-2.13-1.41-3.04-.49-.89.89-.53,2.1.47,3.1C10.42,9.92,11.61,10.33,12.5,9.44ZM9.56,6.47c.32-.32.89-.08,1.65.68.78.79,1,1.35.69,1.66s-.87994.12-1.66-.67C9.44,7.35,9.26,6.77,9.56,6.47Z" transform="translate(-1.98999 -1.98999)"/><path class="cls-1" d="M12,1.99A10.01,10.01,0,1,0,22.01,12,10.01,10.01,0,0,0,12,1.99ZM5.67,5.66A6.12871,6.12871,0,0,1,9.95,3.81,4.57039,4.57039,0,0,1,13.21,5.1c1.92,1.92,1.67,5.31-.56,7.54s-5.62,2.48-7.54.56S3.44,7.89,5.67,5.66Zm7.7525,15.36945A9.08448,9.08448,0,0,1,2.98682,10.61084,5.30745,5.30745,0,0,0,4.49,13.82a5.39224,5.39224,0,0,0,3.87,1.55,6.95659,6.95659,0,0,0,4.9-2.11c2.57-2.57,2.82-6.51.56-8.77a5.2914,5.2914,0,0,0-3.23187-1.5094,9.135,9.135,0,0,1,2.83435,18.04883Z" transform="translate(-1.98999 -1.98999)"/><path class="cls-1" d="M19.16,11.55a.44392.44392,0,0,0-.44.44A6.72162,6.72162,0,0,1,12,18.71a.44.44,0,1,0-.00122.88H12a7.61577,7.61577,0,0,0,7.6-7.6A.44388.44388,0,0,0,19.16,11.55Z" transform="translate(-1.98999 -1.98999)"/></svg>