<svg id="Layer_2" data-name="Layer 2" xmlns="http://www.w3.org/2000/svg" viewBox="0 0 21.59579 21.59499"><defs><style>.cls-1{fill:#41494f;}</style></defs><title>A-ZSports</title><path class="cls-1" d="M21.35044,6.60288a10.79751,10.79751,0,1,0-3.95472,14.74895A10.83335,10.83335,0,0,0,21.35044,6.60288ZM12.0006,21.898a9.898,9.898,0,1,1,9.89278-9.90316A9.898,9.898,0,0,1,12.0006,21.898Z" transform="translate(-1.20211 -1.20251)"/><path class="cls-1" d="M11.99348,3.87173a8.12827,8.12827,0,1,0,.013,16.25654V20.125a8.12664,8.12664,0,0,0-.013-16.25327Zm.00621,15.21687A7.09187,7.09187,0,0,1,12.0065,4.90487l-.013.00326a7.09024,7.09024,0,1,1,.00621,14.18047Z" transform="translate(-1.20211 -1.20251)"/><path class="cls-1" d="M8.80606,9.748,7.04286,14.239h.65183a.27712.27712,0,0,0,.17925-.05866A.2966.2966,0,0,0,7.97172,14.05l.32591-.91581h1.86421l.32591.91581a.30638.30638,0,0,0,.101.13364.28035.28035,0,0,0,.17925.0554h.65183L9.65995,9.748Zm-.29333,2.79632.54753-1.48616c.02608-.06843.0554-.14666.08148-.23791q.04237-.1369.08474-.29659.044.15644.088.29333.04562.13687.08148.23465l.54753,1.49269Z" transform="translate(-1.20211 -1.20251)"/><rect class="cls-1" x="10.32858" y="10.84637" width="1.61001" height="0.6388"/><path class="cls-1" d="M13.63933,10.42584h2.24228L13.5709,13.685a.50781.50781,0,0,0-.05542.10756.32582.32582,0,0,0-.0228.12059V14.239h3.41556v-.65183H14.56167l2.3205-3.26565a.45285.45285,0,0,0,.08148-.26073V9.75446L13.63933,9.774Z" transform="translate(-1.20211 -1.20251)"/></svg>