<svg id="Layer_2" data-name="Layer 2" xmlns="http://www.w3.org/2000/svg" viewBox="0 0 19.54303 19.948"><defs><style>.cls-1{fill:#41494e;}</style></defs><title>Account_History</title><path class="cls-1" d="M8.2485,5.636c0-.32-.31-.52-.81995-.52s-.82.2-.82.52v2.52a.8237.8237,0,0,0,.82.82h2.89v-.63h-2.89a.20055.20055,0,0,1-.2-.2V5.756a1.00991,1.00991,0,0,1,.4,0v2.19h2.69v-.62h-2.07Z" transform="translate(-2.22849 -2.026)"/><path class="cls-1" d="M13.58847,7.706a5.68,5.68,0,1,0-5.68,5.68A5.68,5.68,0,0,0,13.58847,7.706Zm-5.68,5.08a5.08,5.08,0,1,1,5.08-5.08A5.08,5.08,0,0,1,7.90848,12.786Z" transform="translate(-2.22849 -2.026)"/><polygon class="cls-1" points="19.515 5.428 18.913 5.428 13.325 5.428 13.325 6.058 18.913 6.058 18.913 19.318 6.618 19.318 6.618 13.352 5.988 13.352 5.988 19.318 5.988 19.912 5.988 19.948 18.913 19.948 19.531 19.948 19.543 19.948 19.543 5.428 19.515 5.428"/><path class="cls-1" d="M11.60849,15.106a3.51654,3.51654,0,1,0,1.03-2.49A3.51653,3.51653,0,0,0,11.60849,15.106Zm.87-1.52.11.78-.5.52A2.97965,2.97965,0,0,1,12.47849,13.586Zm.05,3.11a3.172,3.172,0,0,1-.41-1.15l.8-.83.83.19.38,1.18-.53.81Zm.44.56.59.1.26.5A2.97936,2.97936,0,0,1,12.96848,17.256Zm2.81.83a2.81547,2.81547,0,0,1-.65.07,2.96305,2.96305,0,0,1-.66-.07l-.5-.92.53-.81h1.24l.53.81Zm-1.57-3.29.93-.68005.93005.68005-.36,1.09h-1.14Zm2.23,3.07.27-.5.58-.1A3.1252,3.1252,0,0,1,16.43851,17.866Zm1.34-4.28a3.02226,3.02226,0,0,1,.39,1.31l-.5-.53Zm.37,1.97a2.95667,2.95667,0,0,1-.42,1.15l-1.07.19-.52-.81.38-1.18.83-.19Zm-.86-2.62006a.89681.89681,0,0,0,.09.1l-.16,1.22-.83.19-1.02-.75v-.77l1.15-.55A2.97741,2.97741,0,0,1,17.28848,12.936Zm-2.16-.87994a2.8743,2.8743,0,0,1,.78.1l-.78.37-.78-.37A2.87443,2.87443,0,0,1,15.12851,12.056Zm-2.16.89a2.97741,2.97741,0,0,1,.77-.56l1.15.55v.77l-1.02.74-.83-.18-.16-1.22A.90785.90785,0,0,1,12.96848,12.946Z" transform="translate(-2.22849 -2.026)"/></svg>