<svg id="Layer_2" data-name="Layer 2" xmlns="http://www.w3.org/2000/svg" viewBox="0 0 21 21"><defs><style>.cls-1{fill:#41494f;}</style></defs><title>Alert</title><path class="cls-1" d="M12.00016,1.5A10.5,10.5,0,1,0,22.5,12.00016,10.5119,10.5119,0,0,0,12.00016,1.5Zm0,20.19234A9.70328,9.70328,0,0,1,2.308,12V11.9998a9.69235,9.69235,0,1,1,9.69214,9.69255Z" transform="translate(-1.5 -1.5)"/><path class="cls-1" d="M11.44344,12.16567c.01441.2137.033.43339.05523.65669q.03332.33554.07744.71911h.89259q.04412-.38357.07744-.71911c.0222-.2233.04082-.443.05522-.65669q.02222-.32053.033-.63747c.0078-.21129.01141-.42858.01141-.64948V6.66008H11.399v4.21864c0,.22089.0036.43819.0114.64948Q11.42093,11.84514,11.44344,12.16567Z" transform="translate(-1.5 -1.5)"/><path class="cls-1" d="M12.653,15.76124a.96011.96011,0,0,0-.29472-.19929.92187.92187,0,0,0-1.01445.19929.94516.94516,0,0,0-.26171.65668.92446.92446,0,0,0,.07023.365.93917.93917,0,0,0,.19149.29172.85224.85224,0,0,0,.29112.19569.97408.97408,0,0,0,.72332,0,.89131.89131,0,0,0,.29472-.19569.9044.9044,0,0,0,.26532-.65668.93591.93591,0,0,0-.06963-.36136A.90948.90948,0,0,0,12.653,15.76124Z" transform="translate(-1.5 -1.5)"/></svg>