<svg id="Layer_2" data-name="Layer 2" xmlns="http://www.w3.org/2000/svg" viewBox="0 0 20.17742 20.17668"><defs><style>.cls-1{fill:#41494f;}</style></defs><title>All</title><path class="cls-1" d="M20.73632,6.95735a10.08835,10.08835,0,1,0-3.695,13.78027A10.12184,10.12184,0,0,0,20.73632,6.95735ZM12.00056,21.24789a9.24789,9.24789,0,1,1,9.243-9.25275A9.24789,9.24789,0,0,1,12.00056,21.24789Z" transform="translate(-1.91129 -1.91166)"/><path class="cls-1" d="M11.9939,4.40558a7.59442,7.59442,0,1,0,.01217,15.18884v-.003A7.5929,7.5929,0,0,0,11.9939,4.40558ZM11.9997,18.623a6.62609,6.62609,0,0,1,.00637-13.25218l-.01217.003A6.62457,6.62457,0,1,1,11.9997,18.623Z" transform="translate(-1.91129 -1.91166)"/><path class="cls-1" d="M9.436,10.40743,8.17539,13.62h.46589a.198.198,0,0,0,.12791-.04264.21015.21015,0,0,0,.07-.0944l.24055-.6547h1.32765l.24057.6547a.21928.21928,0,0,0,.07308.08222.20105.20105,0,0,0,.12789.03959h.46286L10.045,10.40743Zm-.204,1.9793L9.62484,11.321c.01827-.04873.03654-.10659.05786-.17052s.03957-.134.06089-.21011q.03047.11266.064.21011l.05786.16748.38976,1.06882Z" transform="translate(-1.91129 -1.91166)"/><polygon class="cls-1" points="10.351 8.484 9.742 8.484 9.742 11.693 11.614 11.693 11.614 11.2 10.329 11.2 10.351 8.484"/><polygon class="cls-1" points="12.637 8.484 12.028 8.484 12.028 11.693 13.91 11.693 13.91 11.2 12.625 11.2 12.637 8.484"/></svg>