<svg id="Layer_2" data-name="Layer 2" xmlns="http://www.w3.org/2000/svg" viewBox="0 0 14.125 20.17076"><defs><style>.cls-1{fill:#41494f;}</style></defs><title>Arcade</title><rect class="cls-1" x="1.25212" y="5.8434" width="0.76838" height="1.25237"/><rect class="cls-1" x="1.25212" y="2.9217" width="0.76838" height="1.25212"/><rect class="cls-1" x="1.25212" width="0.76838" height="1.25212"/><rect class="cls-1" x="12.1045" y="5.8434" width="0.76838" height="1.25237"/><rect class="cls-1" x="12.1045" y="2.9217" width="0.76838" height="1.25212"/><rect class="cls-1" x="12.1045" width="0.76838" height="1.25212"/><path class="cls-1" d="M12,9.87832c-.96223,0-1.21885,1.97-1.21885,3.13405,0,2.38543.85242,2.64306,1.21885,2.64306s1.2191-.25763,1.2191-2.64306C13.2191,11.84829,12.96223,9.87832,12,9.87832ZM12,14.887c-.07,0-.45047-.34567-.45047-1.87468A4.51376,4.51376,0,0,1,12,10.68171a4.5127,4.5127,0,0,1,.45072,2.33066C12.45072,14.54138,12.07,14.887,12,14.887Z" transform="translate(-4.9375 -1.91462)"/><path class="cls-1" d="M17.65855,9.9566,17.36017,9.73l-.23387.29265a6.67941,6.67941,0,0,0-1.31915,3.19483h-.91847V13.1842a27.30709,27.30709,0,0,0-1.031-5.55675c-1.09429-4.01-1.59079-4.01-1.85767-4.01s-.76338,0-1.85744,4.01a27.29086,27.29086,0,0,0-1.031,5.55675v.03327H8.19311a6.67879,6.67879,0,0,0-1.3194-3.19508L6.63959,9.73l-.29815.22661c-.05728.04352-1.40395,1.10555-1.40395,4.48A5.64727,5.64727,0,0,0,6.26741,18.4248L6.55155,18.8l.3109-.35343A6.39033,6.39033,0,0,0,8.1661,16.07289h1.89119a6.65616,6.65616,0,0,0,.458,1.06676l.11381.17409h2.74186l.11381-.17409a6.65616,6.65616,0,0,0,.458-1.06676h1.89144a6.39772,6.39772,0,0,0,1.3034,2.37368l.3109.35368.28414-.37544a5.64727,5.64727,0,0,0,1.32991-3.98823C19.0625,11.06215,17.71583,10.00013,17.65855,9.9566Zm-.24662,7.60077a4.17722,4.17722,0,0,1-.85367-1.86868V15.3045H13.39369l-.08829.26138c-.0988.2934-.25764.72311-.37417.97947H11.06879c-.11656-.25638-.27539-.68609-.37419-.97949l-.08829-.26138H7.442v.38419a4.176,4.176,0,0,1-.85392,1.86893,4.74876,4.74876,0,0,1-.88219-3.121,6.22388,6.22388,0,0,1,.83366-3.54976A5.38546,5.38546,0,0,1,7.442,13.60166v.38419H9.49576l.38419-.01476V13.1842A30.99671,30.99671,0,0,1,12,4.56091a30.98713,30.98713,0,0,1,2.1203,8.62329v.80165h2.438v-.38419a5.38532,5.38532,0,0,1,.90195-2.71435,6.22163,6.22163,0,0,1,.83391,3.54926A4.74911,4.74911,0,0,1,17.41193,17.55737Z" transform="translate(-4.9375 -1.91462)"/><polygon class="cls-1" points="7.055 18.23 6.149 16.126 5.443 16.43 7.055 20.171 8.668 16.43 7.962 16.126 7.055 18.23"/></svg>