<svg id="Layer_2" data-name="Layer 2" xmlns="http://www.w3.org/2000/svg" viewBox="0 0 16.67806 20.10047"><defs><style>.cls-1{fill:#41494f;}</style></defs><title>Baccarat</title><path class="cls-1" d="M19.63047,8.36668h-9.2722a.70922.70922,0,0,0-.70856.70856V21.34167a.70922.70922,0,0,0,.70856.70856h9.2722a.70922.70922,0,0,0,.70856-.70856V9.07524A.70922.70922,0,0,0,19.63047,8.36668ZM19.48876,21.2H10.5V9.217h8.98878Z" transform="translate(-3.66097 -1.94976)"/><path class="cls-1" d="M4.51374,2.8l8.986.00277V7.50838H14.35V2.80281a.85393.85393,0,0,0-.85277-.853H4.51374a.85393.85393,0,0,0-.85277.853V15.20846a.85368.85368,0,0,0,.85277.85277H8.79168v-.85027l-4.28044-.00249Z" transform="translate(-3.66097 -1.94976)"/><path class="cls-1" d="M16.15991,17.78862h0l-.1049-.02629a4.58143,4.58143,0,0,0-1.06063-.17382,4.58143,4.58143,0,0,0-1.06063.17382l-.1049.02629a.42506.42506,0,1,0,.19209.82813l.12261-.03045a3.98739,3.98739,0,0,1,.85085-.14752,3.98742,3.98742,0,0,1,.85083.14752l.12261.03045a.42506.42506,0,0,0,.19209-.82813Z" transform="translate(-3.66097 -1.94976)"/><path class="cls-1" d="M13.22573,17.11881a1.98311,1.98311,0,0,0,.82453.15472,2.23044,2.23044,0,0,0,.9441-.19153,2.34884,2.34884,0,0,0,1.76864.03681,1.74086,1.74086,0,0,0,1.00915-1.66346c0-.88543-.80211-1.52618-1.50985-2.09137-.37172-.29671-.7927-.633-.863-.85221a.42514.42514,0,0,0-.80959-.00029c-.07058.21949-.49184.5558-.86328.85249-.70773.56519-1.51012,1.20594-1.51012,2.09137A1.74117,1.74117,0,0,0,13.22573,17.11881Zm-.15915-1.66346c0-.47634.63245-.98147,1.19044-1.42709a7.76861,7.76861,0,0,0,.73735-.63854,7.77646,7.77646,0,0,0,.73735.63881c.55772.44562,1.19016.95047,1.19016,1.42681a.89516.89516,0,0,1-.53364.9001,1.43949,1.43949,0,0,1-1.10851-.09161.42508.42508,0,0,0-.57072,0,1.43947,1.43947,0,0,1-1.10851.09161A.895.895,0,0,1,13.06658,15.45535Z" transform="translate(-3.66097 -1.94976)"/><path class="cls-1" d="M6.64994,11.84223V6.169a1.7159,1.7159,0,0,0,1.23-1.23H10.131a1.716,1.716,0,0,0,1.22974,1.23V7.50838H12.211V5.37218h-.42514a.85919.85919,0,0,1-.858-.8583V4.08874H7.0831v.42514a.85924.85924,0,0,1-.8583.8583H5.79967v7.26691H6.2248a.85924.85924,0,0,1,.8583.8583v.42514H8.79168v-.85027H7.88A1.7159,1.7159,0,0,0,6.64994,11.84223Z" transform="translate(-3.66097 -1.94976)"/><rect class="cls-1" x="1.71107" y="1.70858" width="0.85027" height="0.85553"/><rect class="cls-1" x="1.71107" y="11.54763" width="0.85027" height="0.85553"/><rect class="cls-1" x="8.12771" y="1.70858" width="0.85027" height="0.85553"/></svg>