<?xml version="1.0" encoding="utf-8"?>
<!-- Generator: Adobe Illustrator 19.2.1, SVG Export Plug-In . SVG Version: 6.00 Build 0)  -->
<svg version="1.1" id="Layer_2" xmlns="http://www.w3.org/2000/svg" xmlns:xlink="http://www.w3.org/1999/xlink" x="0px" y="0px"
	 viewBox="0 0 24 24" style="enable-background:new 0 0 24 24;" xml:space="preserve">
<style type="text/css">
	.st0{fill:#666666;}
</style>
<g>
	<path class="st0" d="M12,22C6.48,22,1.99,17.51,1.99,12C1.99,6.48,6.48,1.99,12,1.99c5.52,0,10.01,4.49,10.01,10.01
		C22.01,17.51,17.51,22,12,22z M14.82,11.69c-2.15,2.4-5.23,4.62-9.15,6.59L5.43,18.4l0.19,0.19c1.72,1.67,3.99,2.58,6.37,2.58
		c1.1,0,2.18-0.19,3.2-0.58l0.19-0.07l-0.08-0.18c-1.59-3.73,0.49-6.25,0.58-6.36c0.12-0.15,0.25-0.28,0.38-0.41l0.11-0.11
		l-0.08-0.13c-0.34-0.56-0.74-1.11-1.17-1.64l-0.14-0.17L14.82,11.69z M16.52,14.51c-0.07,0.09-1.82,2.25-0.46,5.47l0.08,0.19
		l0.19-0.1c0.68-0.36,1.31-0.81,1.87-1.33l0.06-0.05l0-0.12c-0.25-1.46-0.7-2.84-1.34-4.11l-0.13-0.25
		C16.79,14.21,16.54,14.49,16.52,14.51z M20.33,12.63c-0.69,0-1.72,0.16-2.77,0.91l-0.13,0.1l0.08,0.15
		c0.62,1.17,1.09,2.44,1.39,3.77l0.09,0.39l0.25-0.32c1.07-1.38,1.73-3.02,1.9-4.74l0.02-0.18l-0.18-0.03
		C20.76,12.64,20.55,12.63,20.33,12.63z M2.93,10.6c-0.07,0.46-0.11,0.93-0.11,1.4c0,2.06,0.67,4.01,1.94,5.64l0.1,0.12L5,17.68
		C16.62,11.94,17.33,5.82,17.35,4.65l0-0.08l-0.08-0.08c-1.15-0.81-2.48-1.35-3.85-1.56l-0.28-0.04l0.06,0.28
		c0.22,0.97,0.44,2.9-0.55,4.88l-0.07,0.14l0.13,0.1c0.44,0.33,0.83,0.65,1.2,0.97c-0.18,0.24-0.35,0.46-0.51,0.66
		c-0.36-0.32-0.73-0.62-1.14-0.94l-0.14-0.11L12,9c-0.81,0.89-2.54,2.39-5.14,2.39c-1.17,0-2.4-0.32-3.66-0.94l-0.23-0.12L2.93,10.6
		z M18.09,5.55c-0.19,1.17-0.78,3.02-2.49,5.2l-0.1,0.12l0.1,0.12c0.47,0.55,0.9,1.14,1.28,1.74L17,12.9l0.16-0.11
		c0.94-0.66,2-0.99,3.13-0.99c0.22,0,0.44,0.01,0.65,0.04l0.22,0.03l-0.01-0.22c-0.09-2.34-1.07-4.54-2.75-6.19l-0.26-0.26
		L18.09,5.55z M5.34,5.69c-0.98,1.04-1.72,2.3-2.13,3.66L3.16,9.5L3.3,9.57c1.24,0.66,2.45,0.99,3.6,0.99c2.25,0,3.72-1.26,4.4-2
		c0.24-0.27,0.47-0.61,0.68-1.03c0.91-1.94,0.52-3.84,0.31-4.57l-0.04-0.14l-0.25,0c-2.04,0-3.97,0.66-5.59,1.91L6.12,4.95
		l0.34,0.11c1,0.33,2.55,0.92,4.22,1.89c-0.15,0.29-0.32,0.54-0.46,0.69c-2-1.15-3.8-1.74-4.69-1.99L5.41,5.61L5.34,5.69z"/>
</g>
</svg>
