<?xml version="1.0" encoding="utf-8"?>
<!-- Generator: Adobe Illustrator 19.2.1, SVG Export Plug-In . SVG Version: 6.00 Build 0)  -->
<svg version="1.1" id="Layer_2" xmlns="http://www.w3.org/2000/svg" xmlns:xlink="http://www.w3.org/1999/xlink" x="0px" y="0px"
	 viewBox="0 0 24 24" style="enable-background:new 0 0 24 24;" xml:space="preserve">
<style type="text/css">
	.st0{fill:#666666;}
</style>
<path class="st0" d="M18.21,6.7c-1.5-1.5-3.51-2.33-5.63-2.33c-2.13,0-4.13,0.83-5.63,2.33c-1.5,1.5-2.33,3.51-2.33,5.63
	s0.83,4.13,2.33,5.63c1.5,1.5,3.51,2.33,5.63,2.33c2.13,0,4.13-0.83,5.63-2.33c1.5-1.5,2.33-3.51,2.33-5.63S19.71,8.2,18.21,6.7z
	 M19.9,12.44l-1.65-1.72l0.35-2.56c0.85,1.22,1.3,2.66,1.3,4.18C19.9,12.37,19.9,12.41,19.9,12.44z M18.76,16.27l-2.73,0.49
	l-1.37-2.1l0.97-2.98l2.18-0.49l2.03,2.12C19.7,14.36,19.33,15.37,18.76,16.27z M9.12,16.75l-2.75-0.52
	c-0.56-0.89-0.93-1.9-1.06-2.95l2.03-2.11l2.18,0.49l0.97,2.98L9.12,16.75z M11.07,14.38l-0.93-2.86l2.43-1.77l2.43,1.77l-0.93,2.86
	H11.07z M18.05,7.46l-0.42,3.1l-2.18,0.49L12.9,9.19V7.15l2.9-1.4c0.72,0.35,1.38,0.82,1.96,1.4C17.86,7.25,17.96,7.36,18.05,7.46z
	 M15.01,5.42l-2.44,1.17l-2.44-1.17c0.77-0.27,1.59-0.41,2.44-0.41C13.42,5.01,14.24,5.15,15.01,5.42z M9.35,5.75l2.9,1.4v2.05
	L9.7,11.05l-2.18-0.49L7.1,7.46C7.2,7.36,7.29,7.25,7.39,7.15C7.97,6.57,8.64,6.1,9.35,5.75z M6.55,8.16l0.35,2.56l-1.65,1.71
	c0-0.03,0-0.06,0-0.09C5.25,10.82,5.7,9.38,6.55,8.16z M6.91,16.99l2.15,0.4l0.96,1.82c-0.98-0.36-1.88-0.93-2.64-1.69
	C7.22,17.35,7.07,17.17,6.91,16.99z M10.89,19.47l-1.24-2.35l1.37-2.11h3.12l1.37,2.11l-1.26,2.35c-0.54,0.13-1.1,0.19-1.67,0.19
	C12,19.66,11.44,19.6,10.89,19.47z M17.76,17.52c-0.76,0.76-1.67,1.34-2.65,1.7l0.98-1.82l2.13-0.38
	C18.07,17.19,17.92,17.35,17.76,17.52z"/>
<g>
	<ellipse transform="matrix(0.909 -0.4168 0.4168 0.909 -6.4624 7.1958)" class="st0" cx="13.25" cy="18.4" rx="0.32" ry="0.32"/>
	<ellipse transform="matrix(0.909 -0.4168 0.4168 0.909 -1.6464 9.4608)" class="st0" cx="20.84" cy="8.5" rx="0.32" ry="0.32"/>
	<ellipse transform="matrix(0.909 -0.4168 0.4168 0.909 -3.6872 8.3989)" class="st0" cx="17.39" cy="12.64" rx="0.32" ry="0.32"/>
	<ellipse transform="matrix(0.909 -0.4168 0.4168 0.909 -5.3653 7.1572)" class="st0" cx="13.71" cy="15.87" rx="0.32" ry="0.32"/>
	<ellipse transform="matrix(0.909 -0.4168 0.4168 0.909 -3.5021 10.1675)" class="st0" cx="21.53" cy="13.1" rx="0.32" ry="0.32"/>
	<ellipse transform="matrix(0.909 -0.4168 0.4168 0.909 -2.4247 6.8167)" class="st0" cx="14.4" cy="8.96" rx="0.32" ry="0.32"/>
	<ellipse transform="matrix(0.909 -0.4168 0.4168 0.909 -1.6937 7.8631)" class="st0" cx="17.16" cy="7.81" rx="0.32" ry="0.32"/>
	<ellipse transform="matrix(0.909 -0.4168 0.4168 0.909 -3.6353 5.875)" class="st0" cx="11.64" cy="11.26" rx="0.32" ry="0.32"/>
	<ellipse transform="matrix(0.909 -0.4168 0.4168 0.909 -5.0939 2.8769)" class="st0" cx="4.04" cy="13.1" rx="0.32" ry="0.32"/>
	<ellipse transform="matrix(0.909 -0.4168 0.4168 0.909 -3.8502 3.5099)" class="st0" cx="6.11" cy="10.57" rx="0.32" ry="0.32"/>
	<ellipse transform="matrix(0.909 -0.4168 0.4168 0.909 -4.7161 10.131)" class="st0" cx="20.84" cy="15.87" rx="0.32" ry="0.32"/>
	<ellipse transform="matrix(0.909 -0.4168 0.4168 0.909 -1.1952 5.5433)" class="st0" cx="12.1" cy="5.51" rx="0.32" ry="0.32"/>
	<ellipse transform="matrix(0.909 -0.4168 0.4168 0.909 -5.8605 8.5719)" class="st0" cx="16.7" cy="17.71" rx="0.32" ry="0.32"/>
	<ellipse transform="matrix(0.909 -0.4168 0.4168 0.909 -4.5271 2.2507)" class="st0" cx="2.89" cy="11.49" rx="0.32" ry="0.32"/>
	<ellipse transform="matrix(0.909 -0.4168 0.4168 0.909 -4.0567 10.3891)" class="st0" cx="21.76" cy="14.48" rx="0.32" ry="0.32"/>
	<ellipse transform="matrix(0.909 -0.4168 0.4168 0.909 -5.5673 9.9149)" class="st0" cx="19.92" cy="17.71" rx="0.32" ry="0.32"/>
	<ellipse transform="matrix(0.909 -0.4168 0.4168 0.909 0.0209 7.8908)" class="st0" cx="18.08" cy="3.9" rx="0.32" ry="0.32"/>
	<ellipse transform="matrix(0.909 -0.4168 0.4168 0.909 -5.1445 2.1845)" class="st0" cx="2.43" cy="12.87" rx="0.32" ry="0.32"/>
	<ellipse transform="matrix(0.909 -0.4168 0.4168 0.909 -4.3797 8.4496)" class="st0" cx="17.16" cy="14.25" rx="0.32" ry="0.32"/>
	<ellipse transform="matrix(0.909 -0.4168 0.4168 0.909 -6.4273 9.1981)" class="st0" cx="17.85" cy="19.32" rx="0.32" ry="0.32"/>
</g>
</svg>
