<svg id="Layer_2" data-name="Layer 2" xmlns="http://www.w3.org/2000/svg" viewBox="0 0 20.08333 20.08129"><defs><style>.cls-1{fill:#41494f;}</style></defs><title>Benefits</title><path class="cls-1" d="M5.75421,12.68415h0v-.00269H2.38339a.42775.42775,0,0,0-.42505.42775v8.50638a.42505.42505,0,0,0,.42505.42505h3.3708a.42775.42775,0,0,0,.42505-.42505V13.10921A.42505.42505,0,0,0,5.75421,12.68415Zm-.42775,8.501H2.81114V13.52888H5.32646Z" transform="translate(-1.95833 -1.95936)"/><path class="cls-1" d="M21.9599,7.979l.00269-.00269L17.74168,2.11978a.44113.44113,0,0,0-.68061,0L12.84016,7.97632a.38738.38738,0,0,0,.339.64027h2.09027V21.59945a.42505.42505,0,0,0,.42505.42505h3.37082a.495.495,0,0,0,.4654-.42505V8.622h2.09028a.40083.40083,0,0,0,.339-.643Zm-2.9-.21521a.42774.42774,0,0,0-.42236.42773V21.18515H16.07645V8.19153a.425.425,0,0,0-.425-.425H13.94582L17.357,3.064,20.76547,7.7638Z" transform="translate(-1.95833 -1.95936)"/><path class="cls-1" d="M12.40972,11.22069v.00539H9.03892a.42774.42774,0,0,0-.42505.41967v9.95371a.42505.42505,0,0,0,.42505.42505h3.3708a.42775.42775,0,0,0,.42505-.42505V11.64574A.42774.42774,0,0,0,12.40972,11.22069ZM9.46665,21.17978V12.08424H11.982l.00269,9.09554Z" transform="translate(-1.95833 -1.95936)"/></svg>