<svg id="Layer_2" data-name="Layer 2" xmlns="http://www.w3.org/2000/svg" viewBox="0 0 18.19951 20.83333"><defs><style>.cls-1{fill:#41494e;}</style></defs><title>BettingLine</title><path class="cls-1" d="M13.33621,14.70347a1.37452,1.37452,0,0,0-.81143.25135l-.71279.51536A4.82482,4.82482,0,0,1,8.8129,12.97928a4.8252,4.8252,0,0,1-.65936-3.84253L8.95588,8.777c.8496-.382,1.11824-1.52027.75662-3.20508C9.41663,4.1924,8.4232,1.58333,6.78085,1.58333a1.4499,1.4499,0,0,0-.4481.07124L5.0921,2.05643A2.94353,2.94353,0,0,0,3.12118,4.25524c-.65782,3.16484.16917,7.06526,2.269,10.7006,2.09984,3.63571,5.065,6.3011,8.13572,7.31284a2.939,2.939,0,0,0,2.889-.60852l.96826-.87425a1.81308,1.81308,0,0,0,.28577-2.16578C17.075,17.07385,14.89773,14.704,13.33621,14.70347Zm3.57713,5.56192-.96841.87392a2.23722,2.23722,0,0,1-2.1995.46332c-3.057-1.00729-5.86466-3.73689-7.74774-6.99746C4.11425,11.3448,3.153,7.54883,3.80811,4.39735A2.23842,2.23842,0,0,1,5.30836,2.72366l1.241-.402a.74474.74474,0,0,1,.23149-.037c1.61906,0,3.22306,5.252,1.88805,5.8525l-1.05523.47291a5.31316,5.31316,0,0,0,.59174,4.71987,5.31246,5.31246,0,0,0,3.79288,2.871l.93692-.67735a.66652.66652,0,0,1,.40065-.11883C14.869,15.40529,18.114,19.18295,16.91334,20.26539Z" transform="translate(-2.90025 -1.58333)"/><path class="cls-1" d="M15.51261,6.76671a3.44821,3.44821,0,1,0,3.44821,3.44821A3.44822,3.44822,0,0,0,15.51261,6.76671Zm0,6.19511a2.74689,2.74689,0,1,1,2.74689-2.74689A2.74689,2.74689,0,0,1,15.51261,12.96181Z" transform="translate(-2.90025 -1.58333)"/><path class="cls-1" d="M12.75958,7.12368a2.71638,2.71638,0,0,1-.2132-1.049,2.745,2.745,0,0,1,4.67807-1.95058,4.1062,4.1062,0,0,1,.915.00781,3.44549,3.44549,0,0,0-5.89659,3.545A4.16389,4.16389,0,0,1,12.75958,7.12368Z" transform="translate(-2.90025 -1.58333)"/><path class="cls-1" d="M20.528,6.34014a3.44356,3.44356,0,0,0-5.58464-.2255,4.12151,4.12151,0,0,1,.99757-.01795,2.743,2.743,0,0,1,3.7096,4.02345c.00072.03162.0024.063.0024.09479a4.15147,4.15147,0,0,1-.09944.90082A3.44645,3.44645,0,0,0,20.528,6.34014Z" transform="translate(-2.90025 -1.58333)"/></svg>