<svg id="Layer_2" data-name="Layer 2" xmlns="http://www.w3.org/2000/svg" viewBox="0 0 16.66667 21.06193"><defs><style>.cls-1{fill:#41494e;}</style></defs><title>Bin</title><polygon class="cls-1" points="5.882 5.8 4.662 5.8 4.999 18.303 6.219 18.303 5.882 5.8"/><path class="cls-1" d="M17.409,20.65868a.6263.6263,0,0,1-.59141.59526H7.51381a.67954.67954,0,0,1-.62963-.62023L6.10823,7.26882H4.88885l.77595,13.4425a1.9183,1.9183,0,0,0,1.849,1.81965h9.30384a1.87007,1.87007,0,0,0,1.80856-1.82019l.50771-13.43972H17.91453Z" transform="translate(-3.66667 -1.46903)"/><polygon class="cls-1" points="10.877 5.8 10.551 18.303 11.771 18.303 12.096 5.8 10.877 5.8"/><rect class="cls-1" x="7.73309" y="5.79978" width="1.21935" height="12.50359"/><path class="cls-1" d="M19.69484,4.55184V4.553h-3.973V3.28977A1.7875,1.7875,0,0,0,13.98149,1.469H9.9908A1.78749,1.78749,0,0,0,8.251,3.28977V4.553H4.27806a.638.638,0,0,0,0,1.27479H19.69592a.638.638,0,1,0-.00108-1.27591ZM14.50307,4.553H9.46813V3.28977h.00058a.54149.54149,0,0,1,.521-.54648h3.99065a.54208.54208,0,0,1,.5227.54648Z" transform="translate(-3.66667 -1.46903)"/></svg>