<svg id="Layer_2" data-name="Layer 2" xmlns="http://www.w3.org/2000/svg" viewBox="0 0 18.43207 20.18545"><defs><style>.cls-1{fill:#41494f;}</style></defs><title>Blackjack</title><path class="cls-1" d="M16.01408,5.87775c-1.65553-1.3035-3.21936-2.53465-3.58546-3.65912a.45077.45077,0,0,0-.85726,0C11.20525,3.3431,9.64144,4.57426,7.98592,5.87775,5.54753,7.79756,2.784,9.97357,2.784,12.694a5.274,5.274,0,0,0,3.12865,5.11449,5.64458,5.64458,0,0,0,4.64171-.06706,3.09924,3.09924,0,0,1-2.14608,2.14314.45081.45081,0,0,0-.36511.43595,2.36632,2.36632,0,0,0,.59738,1.66508.45116.45116,0,0,0,.39253.09567c.08981-.02054.185-.04373.28629-.06823a10.19832,10.19832,0,0,1,5.36146,0c.10125.02451.19634.04769.28614.06823a.45081.45081,0,0,0,.39268-.09567,2.36461,2.36461,0,0,0,.59723-1.66508.45079.45079,0,0,0-.36509-.43595,3.09884,3.09884,0,0,1-2.14593-2.143,5.64518,5.64518,0,0,0,4.64169.06691A5.27428,5.27428,0,0,0,21.216,12.694C21.216,9.97357,18.45232,7.79756,16.01408,5.87775ZM17.69426,16.997a4.59258,4.59258,0,0,1-4.5174-.51227.45074.45074,0,0,0-.751.33618,4.04981,4.04981,0,0,0,2.60479,3.83653,1.64535,1.64535,0,0,1-.13559.47984l-.00205-.00044a11.089,11.089,0,0,0-5.786,0l-.00191.00044a1.64292,1.64292,0,0,1-.13559-.47984,4.05,4.05,0,0,0,2.60479-3.83653.45074.45074,0,0,0-.751-.33618,4.59382,4.59382,0,0,1-4.51768.51227,4.38141,4.38141,0,0,1-2.62007-4.303c0-2.28284,2.581-4.3149,4.85814-6.10778A16.67539,16.67539,0,0,0,12,3.35294a16.672,16.672,0,0,0,3.45649,3.23328c2.27712,1.79287,4.858,3.82494,4.858,6.10778A4.38133,4.38133,0,0,1,17.69426,16.997Z" transform="translate(-2.78397 -1.90728)"/><path class="cls-1" d="M11.403,5.0539l-.00138.00152c-.04094.04564-.09494.10991-.15995.18739a7.23448,7.23448,0,0,1-1.074,1.09162L5.647,10.1636l-.02274.02069a3.46194,3.46194,0,0,0-1.08779,2.27286.45072.45072,0,0,0,.45005.432l.01908-.00044a.45064.45064,0,0,0,.43156-.46895v-.00017a2.59427,2.59427,0,0,1,.80487-1.57836L10.7326,7.03671a7.94143,7.94143,0,0,0,1.2-1.21486c.05694-.06794.104-.12429.13984-.1642A.45077.45077,0,0,0,11.403,5.0539Z" transform="translate(-2.78397 -1.90728)"/></svg>