<svg id="Layer_2" data-name="Layer 2" xmlns="http://www.w3.org/2000/svg" viewBox="0 0 20 19.30258"><defs><style>.cls-1{fill:#41494f;}</style></defs><title>Bonus_Feature_Slots</title><path class="cls-1" d="M21.9579,8.24941A1.62088,1.62088,0,0,0,20.38033,6.994l0,0a1.62092,1.62092,0,0,0-.37827,3.19793l-.0206,4.91882a1.65037,1.65037,0,0,1-1.651,1.64608l-.86664-.00136.01548-9.74084a2.39266,2.39266,0,0,0-2.36446-2.393l.00192-1.21344a1.0453,1.0453,0,0,0-1.04254-1.04573L5.439,2.34871a1.045,1.045,0,0,0-1.04554,1.0424L4.3915,4.60455A2.39227,2.39227,0,0,0,2.01946,6.99L2,19.24a2.39326,2.39326,0,0,0,2.38673,2.39431l10.67872.017a2.39348,2.39348,0,0,0,2.39433-2.38673l.00281-1.76733.86666.00138a2.39324,2.39324,0,0,0,2.39433-2.38574l.0206-4.91884A1.6209,1.6209,0,0,0,21.9579,8.24941ZM5.13556,3.39228a.30236.30236,0,0,1,.30223-.30178l8.63519.01371a.3024.3024,0,0,1,.30162.30276l-.00192,1.2123-9.239-.01469ZM16.71768,19.26337a1.65042,1.65042,0,0,1-1.651,1.64613l-10.67872-.017a1.65046,1.65046,0,0,1-1.64613-1.65137l.01946-12.25A1.65056,1.65056,0,0,1,4.41262,5.34508l10.67872.017a1.65053,1.65053,0,0,1,1.6458,1.65135Zm4.5398-10.64616a.88138.88138,0,1,1,0-.00047Z" transform="translate(-2 -2.34871)"/><path class="cls-1" d="M5.93667,15.34164a1.48917,1.48917,0,1,0,1.48716,1.49153A1.48917,1.48917,0,0,0,5.93667,15.34164Zm-.00355,2.23655A.74737.74737,0,1,1,6.6817,16.832.74735.74735,0,0,1,5.93312,17.57819Z" transform="translate(-2 -2.34871)"/><path class="cls-1" d="M9.73613,15.34767a1.48918,1.48918,0,1,0,1.48678,1.49158v0A1.491,1.491,0,0,0,9.73613,15.34767Zm-.00356,2.23657a.74737.74737,0,1,1,.74855-.74621A.74738.74738,0,0,1,9.73257,17.58424Z" transform="translate(-2 -2.34871)"/><path class="cls-1" d="M13.53521,15.35371A1.48917,1.48917,0,1,0,15.022,16.84524,1.48917,1.48917,0,0,0,13.53521,15.35371Zm.745,1.49036a.74736.74736,0,1,1-.74619-.74855.74809.74809,0,0,1,.74619.74855Z" transform="translate(-2 -2.34871)"/><path class="cls-1" d="M14.82881,9.1244l0,0-.82266-.07324-.36144-.79333a.36277.36277,0,0,0-.66057-.00058l-.362.79389-.82156.07352a.3612.3612,0,0,0-.27442.17213.36241.36241,0,0,0-.27376-.17239l-.82266-.07324-.36144-.79333a.36285.36285,0,0,0-.32958-.21273H9.73786a.364.364,0,0,0-.33013.21217l-.362.79389-.82128.07352a.36163.36163,0,0,0-.27468.17218A.36241.36241,0,0,0,7.676,9.12438L6.8536,9.05114l-.36172-.79389-.0003-.0003a.36283.36283,0,0,0-.66027.0003l-.362.79389-.8213.07352a.36264.36264,0,0,0-.22447.61862l.6175.613-.15235.78438a.36291.36291,0,0,0,.518.39359l.75447-.376.75475.37905a.36256.36256,0,0,0,.51854-.39331l-.15261-.78858.61694-.61163a.35618.35618,0,0,0,.051-.06746A.35825.35825,0,0,0,8,9.74328l.61748.613-.15235.78438a.36292.36292,0,0,0,.518.39359l.75419-.376.75447.37877a.36284.36284,0,0,0,.51912-.393l-.15291-.78858.61722-.61163a.35484.35484,0,0,0,.051-.06747.35771.35771,0,0,0,.05014.06691l.61752.613-.15237.78327a.36291.36291,0,0,0,.518.39471l.75421-.376.75446.37877a.36284.36284,0,0,0,.51912-.393l-.15291-.78858.61776-.61219a.363.363,0,0,0-.22333-.6189Zm-8.05854.93224a.28572.28572,0,0,0-.07937.25773l.10062.51966-.50121-.25158a.28508.28508,0,0,0-.12859-.03047.28931.28931,0,0,0-.12775.02991l-.50205.25019.10035-.51631a.28707.28707,0,0,0-.07911-.258L5.147,9.65467l.53923-.04808a.28661.28661,0,0,0,.23509-.16633l.2404-.52721.24012.52721a.28658.28658,0,0,0,.23509.16633l.53867.04808Zm3.57613,0a.28573.28573,0,0,0-.07939.25773l.10063.51966-.50151-.25158a.28409.28409,0,0,0-.12831-.03047.28936.28936,0,0,0-.12775.02991l-.50177.25019.10037-.51631a.28708.28708,0,0,0-.07913-.258l-.40617-.40309.53923-.0481a.28658.28658,0,0,0,.23509-.16633l.24012-.52693.24014.52693a.28658.28658,0,0,0,.23509.16633l.53893.0481Zm3.57641,0a.28573.28573,0,0,0-.07939.25773l.10063.51966-.50151-.25158a.28409.28409,0,0,0-.12831-.03047.28936.28936,0,0,0-.12775.02991l-.50177.25019.10037-.51631a.28708.28708,0,0,0-.07913-.258l-.40617-.40309.53923-.0481a.28658.28658,0,0,0,.23509-.16633l.24012-.52693.24014.52693a.28658.28658,0,0,0,.23509.16633l.53893.0481Z" transform="translate(-2 -2.34871)"/></svg>