<svg id="Layer_2" data-name="Layer 2" xmlns="http://www.w3.org/2000/svg" viewBox="0 0 19.66931 19.66667"><defs><style>.cls-1{fill:#41494e;}</style></defs><title>Calendar</title><path class="cls-1" d="M7.476,6.913A1.203,1.203,0,0,0,8.71828,5.75061V3.32984a1.203,1.203,0,0,0-2.40477,0V5.75061A1.203,1.203,0,0,0,7.476,6.913Z" transform="translate(-2.16534 -2.16667)"/><path class="cls-1" d="M16.46411,6.91311a1.20309,1.20309,0,0,0,1.24228-1.1625V3.32984a1.203,1.203,0,0,0-2.40477,0V5.75061A1.20314,1.20314,0,0,0,16.46411,6.91311Z" transform="translate(-2.16534 -2.16667)"/><rect class="cls-1" x="3.44492" y="8.74304" width="3.35225" height="3.19516"/><rect class="cls-1" x="3.44492" y="13.10598" width="3.35225" height="3.19532"/><path class="cls-1" d="M21.41114,4.06117H18.36778V5.75061a1.8648,1.8648,0,0,1-3.72756,0V4.06117H9.37975V5.75061a1.86485,1.86485,0,0,1-3.72764,0V4.06117h-3.066a.41518.41518,0,0,0-.42076.40708V21.42586a.41526.41526,0,0,0,.42076.40724H16.48892a1.37365,1.37365,0,0,0,.99845-.404l4.07174-4.53163a.86958.86958,0,0,0,.27272-.70508V4.46824A.41527.41527,0,0,0,21.41114,4.06117ZM20.291,15.57721v.00008a.585.585,0,0,1-.65819.63674H17.73208a.96466.96466,0,0,0-1.09176,1.05574v2.43342c-.02961.41588-.21782.63906-.658.63906H3.94682a.2403.2403,0,0,1-.24055-.23271V9.268a.242.242,0,0,1,.24055-.23255H20.05043A.24043.24043,0,0,1,20.291,9.268Z" transform="translate(-2.16534 -2.16667)"/><rect class="cls-1" x="12.86924" y="8.74304" width="3.35225" height="3.19516"/><rect class="cls-1" x="8.15724" y="13.10598" width="3.35217" height="3.19532"/><rect class="cls-1" x="8.15724" y="8.74304" width="3.35217" height="3.19516"/></svg>