<svg id="Layer_2" data-name="Layer 2" xmlns="http://www.w3.org/2000/svg" viewBox="0 0 20 19.79702"><defs><style>.cls-1{fill:#41494f;}</style></defs><title>Cancel_Withdraw</title><path class="cls-1" d="M8.03663,15.87647a.415.415,0,0,0,.58693,0l3.52325-3.52977,3.5297,3.52977a.41322.41322,0,0,0,.583-.58576l-.00118-.00116-3.52467-3.53022,3.52467-3.5228a.4142.4142,0,0,0,.00161-.58576l-.00161-.00161a.41516.41516,0,0,0-.58182,0l-3.5297,3.52835L8.62356,7.64915a.41518.41518,0,1,0-.58695.58737l3.52283,3.5228L8.03661,15.28954A.415.415,0,0,0,8.03663,15.87647Z" transform="translate(-2 -2.10149)"/><path class="cls-1" d="M21.60334,8.8501A.39675.39675,0,0,0,22,8.45345v-4.09a2.2644,2.2644,0,0,0-2.26193-2.26193H4.26168A2.26435,2.26435,0,0,0,2,4.36342V19.63658a2.26436,2.26436,0,0,0,2.26168,2.26193H19.73807A2.26441,2.26441,0,0,0,22,19.63658V15.48948a.39666.39666,0,0,0-.79332,0v4.14709a1.47022,1.47022,0,0,1-1.46862,1.46862H4.26168a1.47018,1.47018,0,0,1-1.46836-1.46862V4.36342A1.47018,1.47018,0,0,1,4.26168,2.89481H19.73807a1.47022,1.47022,0,0,1,1.46862,1.46862v4.09A.39677.39677,0,0,0,21.60334,8.8501Z" transform="translate(-2 -2.10149)"/></svg>