<svg id="Layer_2" data-name="Layer 2" xmlns="http://www.w3.org/2000/svg" viewBox="0 0 21.5 13.01056"><defs><style>.cls-1{fill:#41494f;}</style></defs><title>Cashout</title><path class="cls-1" d="M14.642,8.03712a1.69551,1.69551,0,0,0-.67445-1.16733,1.69554,1.69554,0,0,0-1.26637-.41741,2.34712,2.34712,0,0,0-1.46446,1.04l-.08253.0967c-.43156.52352-3.22133,3.53734-3.24963,3.56092a.35373.35373,0,0,0,.5188.47165c.11555-.125,2.82987-3.05155,3.27558-3.59158l.092-.11555a1.79994,1.79994,0,0,1,.99046-.77114,1.18811,1.18811,0,0,1,1.15316.9598,2.18225,2.18225,0,0,1-.47165,1.32768l-.01415.01887c-.02122.03066-2.25917,3.20482-4.27311,5.76115a6.52262,6.52262,0,0,1-3.89814,2.54924l-3.2402-5.58192,3.693-4.24953L5.75383,7.898a1.771,1.771,0,0,1,1.3206-.70747H9.46332a.35373.35373,0,0,0,0-.70747h-2.396a2.45256,2.45256,0,0,0-1.88658.99989L1.33686,11.907a.35373.35373,0,0,0-.04009.408L4.787,18.32841a.35373.35373,0,0,0,.30657.17687h.01887A6.81785,6.81785,0,0,0,9.73451,15.6589c1.98328-2.5068,4.16934-5.60314,4.2967-5.78472A2.82,2.82,0,0,0,14.642,8.03712Z" transform="translate(-1.25 -5.49472)"/><path class="cls-1" d="M22.13171,6.12931a2.6106,2.6106,0,0,0-1.74037-.63436H10.84052a.35373.35373,0,0,0,0,.70747h9.56262a1.9101,1.9101,0,0,1,1.24278.441,1.45738,1.45738,0,0,1,.39618,1.09186v4.74c0,.09906-.08017.95744-1.72857.95744h-8.2939a.35373.35373,0,1,0,0,.70747h2.49973c.05423.37733.06366,1.0565-.52353,1.23336-.73577.21931-1.20977-.64851-1.231-.691a.35389.35389,0,0,0-.6273.32778,1.9962,1.9962,0,0,0,1.6201,1.106,1.53315,1.53315,0,0,0,.441-.066A1.647,1.647,0,0,0,15.2339,14.1402h5.07727c2.40774,0,2.43605-1.65076,2.43605-1.65076V7.73526A2.12239,2.12239,0,0,0,22.13171,6.12931Z" transform="translate(-1.25 -5.49472)"/><path class="cls-1" d="M17.81616,8.70685a.441.441,0,0,1,.37731-.16508.5451.5451,0,0,1,.14386.01651.4526.4526,0,0,1,.11555.04953.51369.51369,0,0,1,.09668.07783q.04482.0448.092.099a.21225.21225,0,0,0,.16036.08017.31817.31817,0,0,0,.13914-.04009l.23582-.15329a1.382,1.382,0,0,0-.15329-.25.97144.97144,0,0,0-.20989-.20044,1.01193,1.01193,0,0,0-.26883-.13206,1.13936,1.13936,0,0,0-.35139-.04953,1.24059,1.24059,0,0,0-.49286.08961.98582.98582,0,0,0-.349.23582,1.01145,1.01145,0,0,0-.20753.36082,1.3796,1.3796,0,0,0-.0684.43627v.57777h-.26176a.18866.18866,0,0,0-.15093.059.21229.21229,0,0,0-.05187.14385v.19338h.47165v.63672a.40092.40092,0,0,1-.125.30421.49474.49474,0,0,1-.13206.08961.8212.8212,0,0,1-.158.05425v.37967h2.34408a.23592.23592,0,0,0,.10612-.02359.26415.26415,0,0,0,.08253-.0613.27854.27854,0,0,0,.05189-.08491.23568.23568,0,0,0,.01886-.08961v-.25H17.82795a1.60653,1.60653,0,0,0-.35844.04245.86515.86515,0,0,0,.16506-.23582.66242.66242,0,0,0,.059-.2877v-.47165h.82774a.1651.1651,0,0,0,.12263-.04953.15086.15086,0,0,0,.0566-.11319V9.73975h-1.007V9.16435A.74524.74524,0,0,1,17.81616,8.70685Z" transform="translate(-1.25 -5.49472)"/></svg>