<svg id="Layer_2" data-name="Layer 2" xmlns="http://www.w3.org/2000/svg" viewBox="0 0 18.6173 20.01686"><defs><style>.cls-1{fill:#41494f;}</style></defs><title>Casino_Games</title><path class="cls-1" d="M19.64657,2.00492l-8.39479-.01335A1.66687,1.66687,0,0,0,9.59335,3.48631l-2.21771.43723A1.66951,1.66951,0,0,0,6.07706,5.174l-2.35593.97144A1.66673,1.66673,0,0,0,2.817,8.31923L8.03655,20.97766a1.664,1.664,0,0,0,2.17233.905l.00107-.00044,5.42552-2.23731,3.13486-.61825.84921.00135a1.66667,1.66667,0,0,0,1.66735-1.66223l.02175-13.6933A1.66668,1.66668,0,0,0,19.64657,2.00492ZM9.91641,21.17022a.8931.8931,0,0,1-1.16693-.48328l-.00117-.00285L3.52873,8.02548a.89583.89583,0,0,1,.486-1.16825L6.089,6.00182,8.71474,19.31317a1.66273,1.66273,0,0,0,1.95142,1.312l.00387-.00076,1.09338-.21558Zm.60453-1.3012a.90345.90345,0,0,1-1.05076-.70463L6.82015,5.7302a.89482.89482,0,0,1,.7046-1.05107l2.059-.4062L9.563,17.34713a1.66647,1.66647,0,0,0,1.66173,1.6675l3.59892.00572Zm9.996-2.50449a.89584.89584,0,0,1-.89622.8935l-8.39481-.01333a.89592.89592,0,0,1-.89318-.89637L10.35451,3.655a.8958.8958,0,0,1,.896-.89337l8.39479.01335a.89571.89571,0,0,1,.89337.89622Z" transform="translate(-2.69135 -1.99157)"/><path class="cls-1" d="M16.7222,9.91963a1.87527,1.87527,0,0,0-1.28565.50112,1.8952,1.8952,0,0,0-2.622.04347,1.8604,1.8604,0,0,0-.55761,1.32132,2.00131,2.00131,0,0,0,.60769,1.41861l2.29141,2.29921a.38481.38481,0,0,0,.54421.001l.00028-.00028,2.29852-2.29193a1.99994,1.99994,0,0,0,.61136-1.41682,1.86168,1.86168,0,0,0-.5533-1.32314A1.88453,1.88453,0,0,0,16.7222,9.91963Zm.73294,2.74751-2.02536,2.01979L13.41,12.66057a1.23874,1.23874,0,0,1-.38326-.87261,1.09549,1.09549,0,0,1,.32992-.77673,1.12473,1.12473,0,0,1,1.58956.00642l.2156.21786a.38525.38525,0,0,0,.54482.00268l.00168-.00168.21665-.2173A1.12408,1.12408,0,0,1,17.5132,11.017a1.09679,1.09679,0,0,1,.32728.77862A1.23769,1.23769,0,0,1,17.45514,12.66714Z" transform="translate(-2.69135 -1.99157)"/><path class="cls-1" d="M13.54544,7.04291a.385.385,0,1,0,.71193-.29356L13.08519,3.90712a.38491.38491,0,0,0-.7113-.00113l-1.181,2.83849a.385.385,0,0,0,.70976.29878l.00122-.003.13754-.3232,1.36752.00217Zm-1.1853-1.09525.36749-.8879.36671.88909Z" transform="translate(-2.69135 -1.99157)"/></svg>