<svg id="Layer_2" data-name="Layer 2" xmlns="http://www.w3.org/2000/svg" viewBox="0 0 20.16667 20.16667"><defs><style>.cls-1{fill:#41494f;}</style></defs><title>Roulette</title><circle class="cls-1" cx="10.16175" cy="1.96336" r="0.71738"/><circle class="cls-1" cx="6.26106" cy="17.8457" r="0.71735" transform="translate(-12.70242 7.73904) rotate(-45.00533)"/><circle class="cls-1" cx="6.33675" cy="6.25827" r="0.71747" transform="translate(-4.48595 4.39635) rotate(-44.99516)"/><circle class="cls-1" cx="4.52325" cy="8.95219" r="0.71736" transform="translate(-7.39519 7.78783) rotate(-67.49559)"/><circle class="cls-1" cx="1.96272" cy="10.10927" r="0.7173"/><circle class="cls-1" cx="15.09091" cy="4.67851" r="0.71736" transform="translate(3.07576 14.91275) rotate(-67.49496)"/><circle class="cls-1" cx="4.49391" cy="15.16353" r="0.71731" transform="translate(-7.37851 0.95822) rotate(-22.50508)"/><circle class="cls-1" cx="17.74499" cy="6.36154" r="0.71729" transform="translate(-1.21757 12.49419) rotate(-45)"/><circle class="cls-1" cx="8.87571" cy="19.68266" r="0.71736" transform="translate(-14.622 18.43219) rotate(-67.49559)"/><circle class="cls-1" cx="8.96521" cy="4.46842" r="0.71729" transform="translate(-2.94428 1.85522) rotate(-22.50524)"/><circle class="cls-1" cx="19.52676" cy="15.16644" r="0.71737" transform="translate(-3.87578 25.48384) rotate(-67.4937)"/><path class="cls-1" d="M11.99979,1.91667A10.08333,10.08333,0,1,0,22.08333,12,10.08334,10.08334,0,0,0,11.99979,1.91667Zm0,19.39107a9.30773,9.30773,0,1,1,9.30755-9.30792V12A9.31823,9.31823,0,0,1,11.99979,21.30773Z" transform="translate(-1.91667 -1.91667)"/><circle class="cls-1" cx="19.49774" cy="8.94849" r="0.71752" transform="translate(-3.85707 6.22978) rotate(-22.51023)"/><circle class="cls-1" cx="18.20338" cy="10.10903" r="0.71745"/><circle class="cls-1" cx="17.82034" cy="17.74173" r="0.71741" transform="translate(-9.24251 15.8764) rotate(-44.99031)"/><circle class="cls-1" cx="10.16175" cy="18.2033" r="0.71738"/><circle class="cls-1" cx="15.17982" cy="19.47154" r="0.71753" transform="translate(-8.21121 5.37212) rotate(-22.49342)"/><path class="cls-1" d="M12.024,5.78871l-.02422-.00005a6.21251,6.21251,0,1,0,.02422.00005Zm4.97517,8.463-.86785-.39675c-.08431.14053-.14053.28106-.22484.42158s-.16864.28106-.253.39349l.78057.55395a5.56462,5.56462,0,0,1-1.22007,1.22468l-.5442-.76683c-.11243.08431-.253.16863-.39349.25294-.14053.05621-.28106.14053-.42158.19674l.40217.87971a5.40483,5.40483,0,0,1-1.6762.46529l-.10313-.97962a5.11292,5.11292,0,0,1-.92748,0l-.10356.98378A5.43217,5.43217,0,0,1,9.765,17.02643l.4079-.86677c-.14053-.08431-.28106-.14053-.42158-.22484s-.28106-.16864-.39349-.253l-.55765.78579A5.52152,5.52152,0,0,1,7.56092,15.23l.78515-.53189c-.08431-.14053-.16863-.253-.25294-.39349-.05621-.14053-.14053-.28106-.19674-.42158l-.89463.38342a5.424,5.424,0,0,1-.45447-1.68516L7.531,12.4778a2.27091,2.27091,0,0,1-.02812-.44968,2.41783,2.41783,0,0,1,.02812-.4497l-.9838-.10356A5.432,5.432,0,0,1,7.003,9.79023l.89341.3829c.05621-.14053.14053-.28106.19674-.39347.08431-.14053.16863-.28106.25294-.39349l-.78579-.55767A5.5219,5.5219,0,0,1,8.79971,7.58782l.55818.78653c.14053-.08431.25294-.16863.39347-.25294.14053-.05621.28106-.14053.42158-.19674L9.76352,7.029a5.42455,5.42455,0,0,1,1.686-.45363l.10063.95577a5.11292,5.11292,0,0,1,.92748,0L12.578,6.5781a5.48514,5.48514,0,0,1,1.65.44064l-.40127.87779c.14053.08431.28106.14053.42158.22484s.28106.16863.39349.253l.55294-.80426a5.471,5.471,0,0,1,1.25451,1.24326l-.76754.54468c.08431.14053.16863.25294.25294.39347.05621.14053.14053.28106.19674.42158l.87489-.39994a5.34751,5.34751,0,0,1,.45107,1.70411l-.96059.10112a2.26952,2.26952,0,0,1,.0281.44968,2.41635,2.41635,0,0,1-.0281.4497l.95553.10058A5.40536,5.40536,0,0,1,16.9992,14.25171Z" transform="translate(-1.91667 -1.91667)"/><path class="cls-1" d="M14.48988,10.46824a.64643.64643,0,1,0-1.08915-.325l-.83744.82435a1.2026,1.2026,0,0,0-1.11781.00031l-.83058-.83058a.64578.64578,0,1,0-.50952.50228l.83422.83422a1.20268,1.20268,0,0,0-.00335,1.112l-.8348.8348a.64687.64687,0,1,0,.50768.50411l.83-.83a1.20265,1.20265,0,0,0,1.13054.00027l.82981.81684a.64467.64467,0,1,0,.50478-.48518l-.83451-.83447a1.20278,1.20278,0,0,0-.00333-1.12476l.82651-.82651A.6446.6446,0,0,0,14.48988,10.46824Z" transform="translate(-1.91667 -1.91667)"/></svg>