<svg id="Layer_2" data-name="Layer 2" xmlns="http://www.w3.org/2000/svg" viewBox="0 0 19.97028 16.05616"><defs><style>.cls-1{fill:#41494e;}</style></defs><title>Change_Pass</title><path class="cls-1" d="M14.97519,3.97192l-6.35,6.35-.21-.06a4.88572,4.88572,0,0,0-1.42-.21,4.98807,4.98807,0,1,0,4.79,3.57l-.06-.21,1.21-1.21v-1.81h1.98v-1.98h1.79l1.34-1.34v-3.09h-.31006Zm2.46,2.84-.97.97h-2.17v1.99H12.30515v2.16l-1.18,1.18a.30729.30729,0,0,0-.07.34,4.35371,4.35371,0,1,1-7.14441-1.47559l.0144-.0144a4.30266,4.30266,0,0,1,3.08-1.28,4.44734,4.44734,0,0,1,1.6.3.35944.35944,0,0,0,.11.02.31027.31027,0,0,0,.22-.09l6.3-6.3h2.2Z" transform="translate(-2.01486 -3.97192)"/><polygon class="cls-1" points="7.1 9.99 5.29 10.58 5.29 8.68 4.71 8.68 4.71 10.58 2.9 9.99 2.73 10.52 4.55 11.11 3.42 12.65 3.88 12.98 5 11.44 6.12 12.98 6.57 12.65 5.45 11.11 7.27 10.52 7.1 9.99"/><polygon class="cls-1" points="15.05 9.79 13.77 10.21 13.77 8.86 13.36 8.86 13.36 10.21 12.08 9.79 11.96 10.17 13.25 10.58 12.45 11.67 12.78 11.9 13.57 10.82 14.36 11.9 14.68 11.67 13.89 10.58 15.17 10.17 15.05 9.79"/><polygon class="cls-1" points="19.97 10.17 19.85 9.79 18.57 10.21 18.57 8.86 18.16 8.86 18.16 10.21 16.88 9.79 16.76 10.17 18.05 10.58 17.25 11.67 17.58 11.9 18.37 10.82 19.16 11.9 19.48 11.67 18.68 10.58 19.97 10.17"/></svg>