<?xml version="1.0" encoding="utf-8"?>
<!-- Generator: Adobe Illustrator 19.2.1, SVG Export Plug-In . SVG Version: 6.00 Build 0)  -->
<svg version="1.1" id="Layer_2" xmlns="http://www.w3.org/2000/svg" xmlns:xlink="http://www.w3.org/1999/xlink" x="0px" y="0px"
	 viewBox="0 0 24 24" style="enable-background:new 0 0 24 24;" xml:space="preserve">
<style type="text/css">
	.st0{fill:#666666;}
</style>
<path class="st0" d="M17.09,18.5c-0.88-0.54-1.66-1.77-2.21-3.51c-0.56-1.75-0.86-3.91-0.85-6.07c0.3-0.09,0.51-0.47,0.51-0.95
	c0-0.43-0.17-0.77-0.42-0.91c0.09-0.93,0.24-1.8,0.44-2.57c0.01-0.03,0.01-0.05,0.01-0.08c0,0,0,0,0,0c0,0,0-0.01,0-0.01
	c0-0.04-0.01-0.07-0.02-0.11c0,0,0-0.01,0-0.01c-0.01-0.02-0.02-0.05-0.04-0.07c-0.01-0.01-0.01-0.01-0.02-0.02
	c0-0.01-0.01-0.01-0.01-0.02c-0.03-0.02-0.05-0.04-0.09-0.06c-0.01,0-0.01,0-0.02-0.01C14.34,4.11,14.3,4.1,14.27,4.1h-1.04V4.08
	h0.26c0.17,0,0.31-0.14,0.31-0.31v-0.9c0-0.17-0.14-0.31-0.31-0.31h-0.26V2.3c0-0.17-0.14-0.31-0.31-0.31h-0.9
	c-0.17,0-0.31,0.14-0.31,0.31v0.26h-0.26c-0.17,0-0.31,0.14-0.31,0.31v0.9c0,0.17,0.14,0.31,0.31,0.31h0.26V4.1h-1.04h0
	c-0.04,0-0.08,0.01-0.11,0.02c-0.01,0-0.01,0-0.02,0.01c-0.03,0.01-0.06,0.03-0.09,0.06c-0.01,0-0.01,0.01-0.01,0.01
	c-0.01,0.01-0.01,0.01-0.02,0.02c-0.02,0.02-0.03,0.04-0.04,0.07c0,0,0,0.01,0,0.01c-0.01,0.03-0.02,0.07-0.02,0.11
	c0,0,0,0.01,0,0.01c0,0,0,0,0,0c0,0.03,0,0.05,0.01,0.08c0.21,0.77,0.36,1.64,0.44,2.57c-0.25,0.14-0.42,0.48-0.42,0.91
	c0,0.48,0.21,0.85,0.51,0.95c0.01,2.16-0.29,4.31-0.85,6.07c-0.55,1.72-1.32,2.96-2.19,3.5c-0.3,0.06-0.53,0.33-0.53,0.65v2.16
	c0,0.37,0.3,0.66,0.66,0.66h8.93c0.37,0,0.66-0.3,0.66-0.66v-2.16C17.58,18.83,17.37,18.57,17.09,18.5z M11.09,8.32
	c-0.03-0.04-0.08-0.16-0.08-0.35c0-0.19,0.05-0.31,0.08-0.35h2.74c0.03,0.04,0.08,0.16,0.08,0.35c0,0.19-0.05,0.31-0.08,0.35H11.09z
	 M12.01,3.46h-0.26V3.18h0.26c0.17,0,0.31-0.14,0.31-0.31V2.61h0.28v0.26c0,0.17,0.14,0.31,0.31,0.31h0.26v0.28h-0.26
	c-0.17,0-0.31,0.14-0.31,0.31V4.1h-0.28V3.77C12.33,3.6,12.19,3.46,12.01,3.46z M13.87,4.72C13.7,5.42,13.58,6.19,13.5,7h-2.07
	c-0.08-0.81-0.2-1.57-0.36-2.27H13.87z M10.65,15.17c0.57-1.81,0.88-4.02,0.88-6.23h1.88c-0.01,2.21,0.3,4.42,0.88,6.23
	c0.46,1.46,1.07,2.57,1.79,3.3H8.86C9.57,17.75,10.18,16.63,10.65,15.17z M16.92,21.34H7.99c-0.02,0-0.04-0.02-0.04-0.04v-2.15
	c0,0,0.01,0,0.01,0c0.03-0.02,0.06-0.03,0.09-0.05h8.83c0.03,0.01,0.05,0.03,0.08,0.04v2.15C16.96,21.32,16.94,21.34,16.92,21.34z"
	/>
</svg>
