<svg id="Layer_2" data-name="Layer 2" xmlns="http://www.w3.org/2000/svg" viewBox="0 0 20.08333 13.93799"><defs><style>.cls-1{fill:#41494f;}</style></defs><title>Community</title><path class="cls-1" d="M12.00847,13.78418c1.58514,0,3.13647-1.97839,3.13647-3.993a3.14079,3.14079,0,1,0-6.27295,0C8.8648,11.84436,10.404,13.78418,12.00847,13.78418Zm-.00238-6.52386a2.34347,2.34347,0,0,1,2.3692,2.53088c0,1.56342-1.2063,3.21851-2.3692,3.21851-1.19427,0-2.36688-1.59479-2.36688-3.21851A2.343,2.343,0,0,1,12.00609,7.26031Z" transform="translate(-1.95834 -5.03101)"/><path class="cls-1" d="M17.57451,10.7973c1.2594,0,2.49469-1.55859,2.49469-3.13647a2.49909,2.49909,0,1,0-4.99182-.00964C15.07738,9.26764,16.29094,10.7973,17.57451,10.7973ZM15.85424,7.66083a1.72451,1.72451,0,1,1,3.44049,0c0,1.13153-.8999,2.37164-1.72021,2.37164s-1.72266-1.2063-1.72266-2.38129Z" transform="translate(-1.95834 -5.03101)"/><path class="cls-1" d="M21.98485,12.60681a3.90543,3.90543,0,0,0-2.04114-2.69012.38917.38917,0,0,0-.44391.63934c.96509.66107,1.55133,1.13635,1.71783,2.17139.07959.48254.06268.78174-.0531.91681-.28711.33539-1.57062.33539-3.34637.33539H16.45983a10.02427,10.02427,0,0,0-1.42828-1.12915.38713.38713,0,0,0-.43671.63934c1.20636.82513,2.06525,1.5152,2.29205,2.91693.111.68762.082,1.08813-.09412,1.29559-.40771.48254-1.93011.48254-4.46344.48254h-.64655c-2.54779,0-4.0871,0-4.48755-.48254-.17133-.20508-.19061-.60077-.06519-1.28351.24127-1.31494.93372-1.99286,2.29205-2.92657a.3878.3878,0,0,0-.43909-.63934,9.74784,9.74784,0,0,0-1.4187,1.12671H6.18914c-1.79022,0-3.08337,0-3.36328-.33539-.111-.13269-.12061-.42218-.02893-.90717.181-.97955.67316-1.46686,1.713-2.17139a.38841.38841,0,0,0-.13757-.70929.38334.38334,0,0,0-.28949.06268,3.94532,3.94532,0,0,0-2.04834,2.6781A1.82156,1.82156,0,0,0,2.23,14.14124c.51147.61523,1.65991.61523,3.95917.61523h.75519a4.29207,4.29207,0,0,0-.57422,1.5224A2.1852,2.1852,0,0,0,6.61132,18.209c.63214.76,2.12079.76,5.08112.76h.64172c2.93866,0,4.41278,0,5.05457-.75275a2.25019,2.25019,0,0,0,.2702-1.93011,4.03857,4.03857,0,0,0-.56213-1.52966h.72382c2.27515,0,3.41632,0,3.93506-.608A1.87859,1.87859,0,0,0,21.98485,12.60681Z" transform="translate(-1.95834 -5.03101)"/><path class="cls-1" d="M6.43761,10.7973c1.25946,0,2.49469-1.55859,2.49469-3.13647a2.49793,2.49793,0,1,0-4.98938-.00964C3.94292,9.26764,5.15648,10.7973,6.43761,10.7973Zm0-4.98218a1.70784,1.70784,0,0,1,1.72028,1.8457c0,1.13153-.9,2.37164-1.72028,2.37164-.81927,0-1.71747-1.20312-1.71979-2.37671A1.70832,1.70832,0,0,1,6.43761,5.81512Z" transform="translate(-1.95834 -5.03101)"/></svg>