<svg id="Layer_2" data-name="Layer 2" xmlns="http://www.w3.org/2000/svg" viewBox="0 0 20.7262 20.27558"><defs><style>.cls-1{fill:#41494e;}</style></defs><title>ContactHelp</title><path class="cls-1" d="M22.1853,9.2217l-9.928-7.27524a.43443.43443,0,0,0-.51423,0L1.8147,9.2217a.43429.43429,0,0,0-.1778.35058v12.1306a.41109.41109,0,0,0,.01168.05775.31285.31285,0,0,0,.06.16711.41115.41115,0,0,0,.02676.05053c.00464.00568.0115.008.01636.01338a.42565.42565,0,0,0,.07128.05823.42956.42956,0,0,0,.06369.043.42878.42878,0,0,0,.07655.023.42641.42641,0,0,0,.08724.01762c.00748.00037.01378.00431.02134.00431H21.92819a.42916.42916,0,0,0,.17614-.03888.43819.43819,0,0,0,.03734-.02517.42879.42879,0,0,0,.10755-.08348c.0045-.005.01109-.00671.01541-.012a.4128.4128,0,0,0,.02679-.05064.31281.31281,0,0,0,.06-.16722.40282.40282,0,0,0,.01165-.05753V9.57228A.43419.43419,0,0,0,22.1853,9.2217ZM12.00015,2.836,21.29152,9.645l-6.96111,5.27447-2.05488-1.6827a.43531.43531,0,0,0-.55079,0L9.66954,14.91961,2.70848,9.645ZM2.50672,10.58319l6.4708,4.90313-6.4708,5.2985ZM3.28919,21.268l8.711-7.13282L20.71081,21.268Zm18.20409-.48316-6.4708-5.29872,6.4708-4.903Z" transform="translate(-1.6369 -1.86221)"/></svg>