<svg id="Layer_2" data-name="Layer 2" xmlns="http://www.w3.org/2000/svg" viewBox="0 0 16.40011 19.97998"><defs><style>.cls-1{fill:#41494e;}</style></defs><title>Contact_Us</title><path class="cls-1" d="M16.07,14.16a1.11306,1.11306,0,0,0-.67-.55,1.26084,1.26084,0,0,0-.33-.05,1.09564,1.09564,0,0,0-.53.13.98943.98943,0,0,1-.41.1,1.0841,1.0841,0,0,1-.25-.04.85044.85044,0,0,1-.51-.42l-1.4-2.63a.86742.86742,0,0,1-.06-.67.85777.85777,0,0,1,.43-.52,1.12967,1.12967,0,0,0,.46-1.52l-.5-.94a1.10589,1.10589,0,0,0-.65-.53,1.059,1.059,0,0,0-.83.08l-.27.14A2.56027,2.56027,0,0,0,9.43,7.92a2.88208,2.88208,0,0,0,.06,2.56l2.67,5.02a2.87591,2.87591,0,0,0,2.09,1.48,2.559,2.559,0,0,0,.39.03,2.66548,2.66548,0,0,0,1.2-.3l.27-.14a1.07117,1.07117,0,0,0,.53-.65,1.04738,1.04738,0,0,0-.08-.83ZM16,15.72a.38808.38808,0,0,1-.2.25l-.27.14a1.98367,1.98367,0,0,1-.89.22,2.6336,2.6336,0,0,1-.29-.02,2.19233,2.19233,0,0,1-1.59-1.13l-2.67-5.02a2.19265,2.19265,0,0,1-.05-1.95,1.86963,1.86963,0,0,1,.82-.87l.27-.14a.45442.45442,0,0,1,.2-.05c.04,0,.08.01.15.01a.38766.38766,0,0,1,.25.2l.5.94a.50257.50257,0,0,1,.03.34.45614.45614,0,0,1-.22.27,1.54241,1.54241,0,0,0-.76.92,1.47863,1.47863,0,0,0,.11,1.18l1.4,2.63a1.54246,1.54246,0,0,0,.91.75,1.36758,1.36758,0,0,0,.45.07,1.53722,1.53722,0,0,0,.72-.18.49913.49913,0,0,1,.21-.05.44747.44747,0,0,1,.4.24005l.49005.93005A.44243.44243,0,0,1,16,15.72Z" transform="translate(-3.79995 -2.01001)"/><path class="cls-1" d="M18.48409,2.01007,18.47994,2.01H6.93A1.74778,1.74778,0,0,0,5.2,3.76V7.92H4.14A.34.34,0,0,0,4.14,8.6H5.2v6.47H4.14a.34.34,0,1,0,0,.68H5.20992v4.48a1.733,1.733,0,0,0,1.71564,1.75H6.93v.01h11.55a1.73936,1.73936,0,0,0,1.72-1.75V3.76A1.733,1.733,0,0,0,18.48409,2.01007ZM19.51,20.23a1.05236,1.05236,0,0,1-1.03442,1.06995L18.46993,21.3h-11.55a1.0587,1.0587,0,0,1-1.04-1.07V15.76H6.94a.34.34,0,0,0,0-.68H5.88V8.6H6.94a.33523.33523,0,0,0,.03088-.66974C6.96389,7.93,6.95693,7.92987,6.95,7.93H5.89V3.76a1.0523,1.0523,0,0,1,1.0343-1.06995L6.93,2.69h11.54a1.05887,1.05887,0,0,1,1.04,1.07Z" transform="translate(-3.79995 -2.01001)"/></svg>