<?xml version="1.0" encoding="utf-8"?>
<!-- Generator: Adobe Illustrator 19.2.1, SVG Export Plug-In . SVG Version: 6.00 Build 0)  -->
<svg version="1.1" id="Layer_2" xmlns="http://www.w3.org/2000/svg" xmlns:xlink="http://www.w3.org/1999/xlink" x="0px" y="0px"
	 viewBox="0 0 24 24" style="enable-background:new 0 0 24 24;" xml:space="preserve">
<style type="text/css">
	.st0{fill:#666666;}
</style>
<g>
	<path class="st0" d="M17.96,9.73c0-0.99-0.81-1.79-1.8-1.79h-0.02V7.43c0-1.72-1.4-3.13-3.13-3.13H8.85
		c-0.57,0-1.03,0.46-1.03,1.03c0,0.57,0.46,1.03,1.03,1.03h4.17c0.59,0,1.06,0.48,1.06,1.06v0.51H8.05c-0.99,0-1.8,0.8-1.8,1.79
		c-2.33,0.3-4.13,2.29-4.13,4.7v0.48c0,2.61,2.13,4.74,4.74,4.74h10.49c2.61,0,4.74-2.13,4.74-4.74v-0.48
		C22.09,12.02,20.29,10.03,17.96,9.73L17.96,9.73z M13.02,5.55H8.85c-0.12,0-0.22-0.1-0.22-0.22c0-0.12,0.1-0.22,0.22-0.22h4.17
		c1.28,0,2.31,1.04,2.31,2.31v0.5h-0.44v-0.5C14.89,6.4,14.05,5.55,13.02,5.55L13.02,5.55z M8.05,8.75h8.11
		c0.53,0,0.96,0.42,0.98,0.94H7.07C7.1,9.17,7.53,8.75,8.05,8.75L8.05,8.75z M6.86,10.51h10.49c1.79,0,3.3,1.21,3.77,2.85H3.09
		C3.56,11.71,5.07,10.51,6.86,10.51L6.86,10.51z M21.28,14.43v0.48c0,0.09,0,0.18-0.01,0.26H2.95C2.94,15.08,2.94,15,2.94,14.91
		v-0.48c0-0.09,0-0.18,0.01-0.26h18.32C21.28,14.26,21.28,14.34,21.28,14.43L21.28,14.43z M17.36,18.83H6.86
		c-1.79,0-3.3-1.21-3.77-2.85h18.04C20.66,17.63,19.15,18.83,17.36,18.83L17.36,18.83z M17.36,18.83"/>
</g>
</svg>
