<?xml version="1.0" encoding="utf-8"?>
<!-- Generator: Adobe Illustrator 19.2.1, SVG Export Plug-In . SVG Version: 6.00 Build 0)  -->
<svg version="1.1" id="Layer_2" xmlns="http://www.w3.org/2000/svg" xmlns:xlink="http://www.w3.org/1999/xlink" x="0px" y="0px"
	 viewBox="0 0 24 24" style="enable-background:new 0 0 24 24;" xml:space="preserve">
<style type="text/css">
	.st0{fill:#666666;}
</style>
<g>
	<path class="st0" d="M14.55,13.38c-0.06,0-0.11-0.01-0.16-0.04l-2.27-1.1l-2.27,1.1c-0.13,0.06-0.27,0.05-0.39-0.03
		c-0.11-0.08-0.17-0.22-0.15-0.36l0.35-2.5L7.89,8.63c-0.1-0.1-0.13-0.25-0.09-0.38C7.85,8.12,7.96,8.02,8.1,8l2.49-0.44l1.19-2.23
		c0.07-0.12,0.19-0.2,0.33-0.2l0,0c0.14,0,0.27,0.08,0.33,0.2l1.19,2.23L16.12,8c0.14,0.02,0.25,0.12,0.29,0.25
		c0.04,0.13,0.01,0.28-0.09,0.38l-1.75,1.82l0.35,2.5c0.02,0.14-0.04,0.28-0.15,0.36C14.7,13.36,14.62,13.38,14.55,13.38z
		 M8.93,8.62l1.39,1.44c0.08,0.08,0.12,0.2,0.1,0.31l-0.28,1.98l1.8-0.87c0.1-0.05,0.23-0.05,0.33,0l1.8,0.87l-0.28-1.98
		c-0.02-0.11,0.02-0.23,0.1-0.31l1.39-1.44l-1.97-0.35c-0.11-0.02-0.21-0.09-0.27-0.19l-0.94-1.77l-0.94,1.77
		c-0.05,0.1-0.15,0.17-0.27,0.19L8.93,8.62z"/>
</g>
<g>
	<path class="st0" d="M12.11,21.98c-0.15,0-0.29-0.09-0.35-0.24c-0.79-2.01-2.66-4.06-4.16-5.71c-1.04-1.15-1.94-2.14-2.34-2.93
		c-0.53-1.07-0.81-2.22-0.81-3.42c0-4.22,3.43-7.65,7.65-7.65c2.04,0,3.97,0.8,5.41,2.24c1.45,1.45,2.24,3.37,2.24,5.41
		c0,1.2-0.27,2.35-0.81,3.42c-0.37,0.74-1.25,1.64-2.27,2.68c-1.65,1.68-3.71,3.78-4.21,5.91c-0.04,0.16-0.18,0.28-0.34,0.29
		C12.13,21.98,12.12,21.98,12.11,21.98z M12.11,2.78c-3.81,0-6.9,3.1-6.9,6.9c0,1.08,0.24,2.12,0.73,3.08
		c0.35,0.7,1.22,1.65,2.22,2.76c1.33,1.46,2.93,3.23,3.89,5.05c0.82-1.98,2.62-3.81,4.1-5.33c0.97-0.99,1.81-1.85,2.13-2.49
		c0.48-0.96,0.73-2,0.73-3.08c0-1.84-0.72-3.58-2.02-4.88S13.95,2.78,12.11,2.78z"/>
</g>
<g>
	<path class="st0" d="M12.11,15.8c-3.42,0-6.2-2.78-6.2-6.2c0-3.42,2.78-6.2,6.2-6.2c3.42,0,6.2,2.78,6.2,6.2
		C18.31,13.01,15.53,15.8,12.11,15.8z M12.11,4.15c-3,0-5.45,2.44-5.45,5.45s2.44,5.45,5.45,5.45s5.45-2.44,5.45-5.45
		S15.11,4.15,12.11,4.15z"/>
</g>
</svg>
