<svg id="Layer_2" data-name="Layer 2" xmlns="http://www.w3.org/2000/svg" viewBox="0 0 20.16667 14.07102"><defs><style>.cls-1{fill:#41494e;}</style></defs><title>CVV</title><path class="cls-1" d="M21.62761,5.39823a1.55052,1.55052,0,0,0-1.14641-.43211H3.578a1.60531,1.60531,0,0,0-1.1697.43211,1.54372,1.54372,0,0,0-.49166,1.11725V17.37667A1.64979,1.64979,0,0,0,2.40833,18.545a1.62369,1.62369,0,0,0,1.1697.4905H20.48118a1.57055,1.57055,0,0,0,1.14641-.4905,1.61909,1.61909,0,0,0,.45518-1.16833V6.51547A1.51149,1.51149,0,0,0,21.62761,5.39823Zm-.48279,11.97844a.54555.54555,0,0,1-.2188.35952.66492.66492,0,0,1-.44483.12686H3.578a.44371.44371,0,0,1-.48892-.48638V11.06285H21.14482Zm0-9.12769H3.08912V6.51547a.59759.59759,0,0,1,.12819-.41538.51771.51771,0,0,1,.36072-.196H20.48118a.71943.71943,0,0,1,.44483.196.68844.68844,0,0,1,.2188.41538Z" transform="translate(-1.91667 -4.96449)"/><path class="cls-1" d="M13.94411,7.73979H16.7738a.57844.57844,0,0,1,.57844.57844V9.97547a.5782.5782,0,0,1-.5782.5782H13.94435a.57844.57844,0,0,1-.57844-.57844V8.318a.5782.5782,0,0,1,.5782-.5782Z"/></svg>