<svg id="Layer_2" data-name="Layer 2" xmlns="http://www.w3.org/2000/svg" viewBox="0 0 15.40908 19.91005"><defs><style>.cls-1{fill:#41494e;}</style></defs><title>Deposit</title><path class="cls-1" d="M7.145,14.43505a1.52212,1.52212,0,0,0,1.37.83,1.63178,1.63178,0,0,0,.72-.18l9.57-4.87a1.60809,1.60809,0,0,0,.79-.91,1.487,1.487,0,0,0-.08-1.17l-2.67-5.26a1.52229,1.52229,0,0,0-1.37-.83,1.57669,1.57669,0,0,0-.73.18l-9.57,4.87a1.613,1.613,0,0,0-.79.91,1.53056,1.53056,0,0,0,.08,1.17Zm9.9-9.6,1.84,3.62a.8707.8707,0,0,1-.39,1.15l-9.56,4.86a.81821.81821,0,0,1-.4.1.8289.8289,0,0,1-.75-.45l-1.85-3.63ZM5.055,8.215a.88385.88385,0,0,1,.44-.51l9.56-4.86a.81881.81881,0,0,1,.4-.1.86443.86443,0,0,1,.75995.46l.34.68005L5.445,9.535l-.34-.68A.83877.83877,0,0,1,5.055,8.215Z" transform="translate(-4.29546 -2.04497)"/><polygon class="cls-1" points="4.529 11.29 6.839 10.11 6.579 9.6 6.499 9.62 4.199 10.8 4.459 11.31 4.529 11.29"/><path class="cls-1" d="M15.005,10.06506a.93744.93744,0,0,0,.48-.13,1.01537,1.01537,0,0,0,.43-.39l.09-.14.18.03h.08a1.04517,1.04517,0,0,0,.49-.12,1.09494,1.09494,0,0,0,.53-.61,1.00344,1.00344,0,0,0-.97-1.34,1.04354,1.04354,0,0,0-.49.12,1.01463,1.01463,0,0,0-.43.39l-.09.15-.17-.02h-.08a1.04372,1.04372,0,0,0-.49.12,1.01619,1.01619,0,0,0,.44,1.94Z" transform="translate(-4.29546 -2.04497)"/><path class="cls-1" d="M19.625,14.75506a1.61078,1.61078,0,0,0-.78-.92l-1.4-.71-.73.37,1.81.95a.86285.86285,0,0,1,.37,1.15l-.35.67-3.6-1.87-1.16.59,4.26,2.23-1.89,3.6a.83979.83979,0,0,1-.75.45.85628.85628,0,0,1-.41-.1l-9.51-4.98a.867.867,0,0,1-.43-.51.87988.87988,0,0,1,.06-.64l.27-.56-.39-.76-.53.99a1.48885,1.48885,0,0,0-.09,1.17,1.61078,1.61078,0,0,0,.78.92l9.51,4.98a1.62624,1.62624,0,0,0,.75.18,1.58409,1.58409,0,0,0,1.38-.8l2.74-5.23A1.48843,1.48843,0,0,0,19.625,14.75506Z" transform="translate(-4.29546 -2.04497)"/></svg>