<svg id="Layer_2" data-name="Layer 2" xmlns="http://www.w3.org/2000/svg" viewBox="0 0 20 18.43348"><defs><style>.cls-1{fill:#41494f;}</style></defs><title>Download-Casino</title><path class="cls-1" d="M21.9969,12.14826a.51662.51662,0,1,0-1.03324,0v5.33115a2.66844,2.66844,0,0,1-2.64148,2.69512H5.67782l-.00324,0a2.66842,2.66842,0,0,1-2.64125-2.69535V12.06739q.00011-.006.00007-.01206a.51512.51512,0,0,0-.51818-.512.52112.52112,0,0,0-.51513.5241v5.41175a3.71066,3.71066,0,0,0,3.67472,3.7376H18.32218a3.71067,3.71067,0,0,0,3.67772-3.7376Z" transform="translate(-2 -2.78326)"/><path class="cls-1" d="M12.1168,16.967a.52108.52108,0,0,0,.37436.15874.50011.50011,0,0,0,.35937-.15274l3.65675-3.72263a.53012.53012,0,0,0,0-.74274l-.00653-.00653a.51213.51213,0,0,0-.72423.00653L12.9973,15.33779V3.30738l.00007-.00907a.51513.51513,0,0,0-.5152-.515h-.006a.52111.52111,0,0,0-.51809.5241V15.33779L9.17284,12.51063l-.01082-.0108a.50912.50912,0,0,0-.71993.0108.53014.53014,0,0,0-.15274.36838.5152.5152,0,0,0,.16172.36836Z" transform="translate(-2 -2.78326)"/></svg>