<svg id="Layer_2" data-name="Layer 2" xmlns="http://www.w3.org/2000/svg" viewBox="0 0 20.99856 21.01124"><defs><style>.cls-1{fill:#41494f;}</style></defs><title>Events</title><path class="cls-1" d="M22.48337,17.20257h.006a.35682.35682,0,0,0-.29733-.24381l-2.76222-.3895-1.23689-2.41433a.36869.36869,0,0,0-.63332,0l-1.23691,2.41433-2.76815.38653a.35679.35679,0,0,0-.19623.6125l1.9951,1.87318-.47276,2.64328a.35382.35382,0,0,0,.51142.38057l2.47973-1.2577,2.47975,1.2577a.35953.35953,0,0,0,.16055.03865.35382.35382,0,0,0,.21111-.06838.35978.35978,0,0,0,.13974-.35085l-.46979-2.64328,1.9951-1.87318A.35976.35976,0,0,0,22.48337,17.20257Zm-2.71463,1.85534a.35677.35677,0,0,0-.107.3211l.38057,2.13188-2.007-1.01688a.35679.35679,0,0,0-.3211,0l-2.004,1.01391.37762-2.13186a.35087.35087,0,0,0-.107-.32112l-1.59369-1.48665,2.2151-.29733a.35677.35677,0,0,0,.26761-.1903l1.002-1.9594,1.005,1.9594a.35378.35378,0,0,0,.26463.1903l2.21512.29733Z" transform="translate(-1.50072 -1.49438)"/><path class="cls-1" d="M14.31568,12.88532h3.20524V8.96948H3.99236V19.2928h7.12108V16.09056h3.20224Zm0-3.20522h2.49163v2.49162H14.31568ZM7.19462,18.57921H4.703V16.09056H7.19462Zm0-3.20226H4.703V12.88532H7.19462Zm0-3.20524H4.703V9.6801H7.19462Zm3.20224,6.40749H7.90821V16.09056h2.49163Zm.003-3.20226H7.90821V12.88532h2.49163Zm0-3.20524H7.90821V9.6801h2.49163ZM13.60508,15.377H11.11344V12.88532h2.49163Zm0-3.20524H11.11344V9.6801h2.49163Z" transform="translate(-1.50072 -1.49438)"/><path class="cls-1" d="M10.75664,21.05894v.01486H2.21433V7.19143H19.299v6.05069a.3568.3568,0,0,0,.7136,0V3.27856a.35681.35681,0,0,0-.3568-.3568h-1.784V1.85138a.35679.35679,0,0,0-.35085-.3568H15.02631a.35381.35381,0,0,0-.35382.35381v1.0704H6.85269V1.85138a.35679.35679,0,0,0-.3566-.357l-.01209.0002H3.99236a.3568.3568,0,0,0-.3568.3568V2.91879h-1.784a.35682.35682,0,0,0-.35085.35978V21.41574a.35681.35681,0,0,0,.3568.3568h8.89911a.3568.3568,0,0,0,0-.7136ZM15.38311,2.20818h1.784V4.343h-1.784Zm-11.03394,0h1.784V4.343h-1.784ZM2.21433,3.63239H3.63854V4.69981a.3568.3568,0,0,0,.35079.3627l.003,0H6.484a.3568.3568,0,0,0,.3568-.3568V3.63239h7.83168V4.69981a.35384.35384,0,0,0,.34479.36263l.009.00011h2.49163a.35679.35679,0,0,0,.3568-.3568V3.63239H19.299V6.48082H2.21433Z" transform="translate(-1.50072 -1.49438)"/></svg>