<svg id="Layer_2" data-name="Layer 2" xmlns="http://www.w3.org/2000/svg" viewBox="0 0 20.05839 19.85417"><defs><style>.cls-1{fill:#41494f;}</style></defs><title>FAQ</title><path class="cls-1" d="M21.63137,8.836a.39782.39782,0,0,0,.39783-.39783V4.34052a2.27026,2.27026,0,0,0-2.26761-2.26761H4.23841A2.27027,2.27027,0,0,0,1.97081,4.34052v15.319a2.27027,2.27027,0,0,0,2.26761,2.26761H19.76159a2.27026,2.27026,0,0,0,2.26761-2.26761V15.50087a.39783.39783,0,1,0-.79565,0v4.15861a1.47461,1.47461,0,0,1-1.472,1.472H4.23841a1.47461,1.47461,0,0,1-1.472-1.472V4.34052a1.47461,1.47461,0,0,1,1.472-1.472H19.76159a1.47461,1.47461,0,0,1,1.472,1.472V8.43813A.39782.39782,0,0,0,21.63137,8.836Z" transform="translate(-1.97081 -2.07292)"/><path class="cls-1" d="M12.04906,15.233a.84873.84873,0,0,0-.34212-.07161.87.87,0,0,0-.62856.26522.8938.8938,0,0,0-.18566.28378.883.883,0,0,0-.0663.34214l-.01062-.008a.89652.89652,0,0,0,.26522.63387.82729.82729,0,0,0,.27849.18829.90412.90412,0,0,0,.35007.0663.8856.8856,0,0,0,.34214-.0663.86719.86719,0,0,0,.28378-.18829.91253.91253,0,0,0,.19095-.28378.86455.86455,0,0,0,.069-.34478.84848.84848,0,0,0-.07161-.34214A.90964.90964,0,0,0,12.04906,15.233Z" transform="translate(-1.97081 -2.07292)"/><path class="cls-1" d="M13.46268,11.28656a2.97786,2.97786,0,0,0,.50125-.4827,2.45536,2.45536,0,0,0,.37928-.64979,2.35231,2.35231,0,0,0,.15116-.88582,2.15081,2.15081,0,0,0-.18829-.91235,2.05814,2.05814,0,0,0-.53043-.69752A2.326,2.326,0,0,0,12.98,7.21283,3.14281,3.14281,0,0,0,11.97216,7.059a3.55862,3.55862,0,0,0-.76383.07692,3.39682,3.39682,0,0,0-.65775.21217,3.52079,3.52079,0,0,0-.5596.3103,4.42284,4.42284,0,0,0-.47208.37131l.33947.56226a.29705.29705,0,0,0,.28378.16709.3873.3873,0,0,0,.21483-.09813,3.05818,3.05818,0,0,1,.32621-.21219,2.83107,2.83107,0,0,1,.4827-.21217,2.1219,2.1219,0,0,1,.68692-.09813,1.74228,1.74228,0,0,1,.54635.08487,1.32591,1.32591,0,0,1,.44556.24134,1.14848,1.14848,0,0,1,.297.36866,1.12712,1.12712,0,0,1,.10875.49861,1.41883,1.41883,0,0,1-.16179.69752,2.27533,2.27533,0,0,1-.39783.53043,3.69353,3.69353,0,0,1-.51452.435,5.19665,5.19665,0,0,0-.50125.38721,1.904,1.904,0,0,0-.366.427.82743.82743,0,0,0-.10875.53043l.09547,1.11126H12.187l.1273-1.01579a.72678.72678,0,0,1,.21217-.40048,3.56857,3.56857,0,0,1,.41108-.36069Z" transform="translate(-1.97081 -2.07292)"/></svg>