<svg id="Layer_2" data-name="Layer 2" xmlns="http://www.w3.org/2000/svg" viewBox="0 0 21.2882 19.86899"><defs><style>.cls-1{fill:#41494e;}</style></defs><title>FavOff</title><path class="cls-1" d="M22.6441,9.65475,15.28921,8.606,12,2.0655,8.71079,8.606,1.3559,9.65475l5.32205,5.091L5.42158,21.93445,12,18.54045l6.57842,3.39405-1.25637-7.18871Zm-9.99339,7.62447L12,16.94347l-.65071.33574-4.03745,2.083L8.076,14.99014l.13041-.74625L7.659,13.72026,4.44687,10.64757l4.46428-.63663.73429-.10472.33328-.66266L12,5.22431l2.02132,4.01926.33323.66266.73429.10472,4.46428.63663L16.341,13.72027l-.5474.52363.13041.74625.76413,4.37211Z" transform="translate(-1.3559 -2.0655)"/></svg>