<svg id="Layer_2" data-name="Layer 2" xmlns="http://www.w3.org/2000/svg" viewBox="0 0 20.06689 18.5866"><defs><style>.cls-1{fill:#41494e;}</style></defs><title>Filters</title><path class="cls-1" d="M21.28345,18.0524H19.58472a2.47374,2.47374,0,0,0-4.72559,0H2.71655a.75.75,0,0,0,0,1.5H14.85931a2.4739,2.4739,0,0,0,4.72522,0h1.69891a.75.75,0,0,0,0-1.5Zm-4.062,1.74023a.99072.99072,0,1,1,.99121-.99023A.99074.99074,0,0,1,17.22144,19.79264Z" transform="translate(-1.96655 -2.7067)"/><path class="cls-1" d="M21.28345,11.24973H9.14075a2.474,2.474,0,0,0-4.72534,0H2.71655a.75.75,0,0,0,0,1.5H4.41528a2.47374,2.47374,0,0,0,4.72559,0H21.28345a.75.75,0,0,0,0-1.5ZM6.77856,12.99088a.99069.99069,0,1,1-.001-1.98138h.00049a.99069.99069,0,0,1,.00049,1.98138Z" transform="translate(-1.96655 -2.7067)"/><path class="cls-1" d="M2.71655,5.94791H11.3783a2.47361,2.47361,0,0,0,4.72479,0h5.18036a.75.75,0,0,0,0-1.5H16.10327a2.47341,2.47341,0,0,0-4.7251,0H2.71655a.75.75,0,1,0,0,1.5ZM13.74048,4.2067a.99048.99048,0,1,1-.99023.98975A.99162.99162,0,0,1,13.74048,4.2067Z" transform="translate(-1.96655 -2.7067)"/></svg>