<?xml version="1.0" encoding="utf-8"?>
<!-- Generator: Adobe Illustrator 19.2.1, SVG Export Plug-In . SVG Version: 6.00 Build 0)  -->
<svg version="1.1" id="Layer_2" xmlns="http://www.w3.org/2000/svg" xmlns:xlink="http://www.w3.org/1999/xlink" x="0px" y="0px"
	 viewBox="0 0 24 24" style="enable-background:new 0 0 24 24;" xml:space="preserve">
<style type="text/css">
	.st0{fill:#666666;}
</style>
<path class="st0" d="M19.04,4.94C17.16,3.06,14.66,2.03,12,2.03c-2.66,0-5.16,1.04-7.04,2.92c-1.88,1.88-2.92,4.38-2.92,7.04
	c0,2.66,1.04,5.16,2.92,7.04c1.88,1.88,4.38,2.92,7.04,2.92c2.66,0,5.16-1.04,7.04-2.92c1.88-1.88,2.92-4.38,2.92-7.04
	C21.96,9.32,20.92,6.82,19.04,4.94z M21.16,12.12L19.1,9.96l0.43-3.2c1.06,1.52,1.63,3.33,1.63,5.22
	C21.16,12.03,21.16,12.07,21.16,12.12z M19.73,16.9l-3.41,0.61l-1.71-2.63l1.21-3.73l2.72-0.61l2.54,2.65
	C20.91,14.52,20.45,15.78,19.73,16.9z M7.69,17.51l-3.44-0.64c-0.7-1.12-1.16-2.37-1.33-3.69l2.54-2.63l2.73,0.61l1.21,3.73
	L7.69,17.51z M10.12,14.54l-1.16-3.57L12,8.75l3.04,2.21l-1.16,3.57H10.12z M18.84,5.89l-0.52,3.88l-2.72,0.61l-3.2-2.32V5.5
	l3.63-1.75c0.9,0.44,1.72,1.03,2.45,1.75C18.6,5.63,18.72,5.76,18.84,5.89z M15.04,3.34L12,4.81L8.96,3.34
	C9.92,3,10.95,2.83,12,2.83S14.08,3,15.04,3.34z M7.97,3.75L11.6,5.5v2.56l-3.2,2.32L5.68,9.77L5.16,5.89
	C5.28,5.76,5.4,5.63,5.52,5.51C6.25,4.78,7.08,4.19,7.97,3.75z M4.47,6.77l0.43,3.2L2.84,12.1c0-0.04,0-0.08,0-0.12
	C2.84,10.09,3.41,8.29,4.47,6.77z M4.93,17.8l2.69,0.5l1.21,2.27c-1.22-0.45-2.34-1.17-3.29-2.12C5.31,18.25,5.11,18.03,4.93,17.8z
	 M9.89,20.9l-1.56-2.93l1.71-2.63h3.9l1.71,2.63l-1.58,2.94c-0.68,0.16-1.37,0.24-2.09,0.24C11.28,21.14,10.58,21.06,9.89,20.9z
	 M18.48,18.46c-0.95,0.95-2.08,1.67-3.31,2.12l1.22-2.28l2.66-0.47C18.87,18.05,18.68,18.26,18.48,18.46z"/>
</svg>
