<?xml version="1.0" encoding="utf-8"?>
<!-- Generator: Adobe Illustrator 19.2.1, SVG Export Plug-In . SVG Version: 6.00 Build 0)  -->
<svg version="1.1" id="Layer_2" xmlns="http://www.w3.org/2000/svg" xmlns:xlink="http://www.w3.org/1999/xlink" x="0px" y="0px"
	 viewBox="0 0 24 24" style="enable-background:new 0 0 24 24;" xml:space="preserve">
<style type="text/css">
	.st0{fill:#666666;}
</style>
<g>
	<path class="st0" d="M15.99,16.23c-0.94,0-1.78-0.56-2.14-1.43l-7.2,0c-0.07,0.16-0.14,0.29-0.22,0.41
		c-0.43,0.64-1.15,1.02-1.92,1.02c-1.28,0-2.31-1.04-2.31-2.31c0-0.1,0.01-0.2,0.02-0.29c0.02-0.17,0.06-0.34,0.13-0.51l-0.04-0.04
		c-0.19-0.18-0.31-0.42-0.34-0.68c-0.1-0.99,0.45-2.27,0.88-3.16c0.19-0.4,0.59-0.67,1.04-0.69c0,0,1.7-0.08,1.7-0.08
		c0.2,0,0.37,0.07,0.48,0.2c0.13,0.14,0.18,0.32,0.16,0.5l-0.14,1.01c-0.02,0.13-0.13,0.23-0.27,0.23l-0.04,0
		c-0.15-0.02-0.25-0.16-0.23-0.31l0.14-1.01c0-0.02,0-0.04-0.02-0.06C5.67,9.01,5.65,9,5.63,9l-1.7,0.08
		C3.68,9.1,3.46,9.24,3.35,9.47c-0.4,0.82-0.92,2.01-0.83,2.86c0.01,0.1,0.05,0.19,0.1,0.27c0.43-0.63,1.14-1,1.9-1
		c1.28,0,2.31,1.04,2.31,2.31c0,0.11-0.01,0.22-0.03,0.34h6.89c-0.02-0.12-0.03-0.23-0.03-0.34c0-0.1,0.01-0.2,0.02-0.29
		c0.15-1.15,1.13-2.02,2.29-2.02c1.28,0,2.31,1.04,2.31,2.31c0,0.18-0.03,0.38-0.08,0.57c0.2,0.1,0.38,0.24,0.53,0.39l2.64-0.01
		l-0.15-0.23c-0.27-0.41-0.67-0.7-1.15-0.82l-0.08-0.02c-0.08-0.02-0.15-0.08-0.18-0.16c-0.03-0.08-0.02-0.17,0.02-0.25l0.28-0.44
		c0.02-0.03,0.01-0.08-0.02-0.1c-1.36-0.89-2.72-1.31-4.27-1.31c-0.66,0-1.29,0.08-1.85,0.14c0,0-0.09,0.01-0.1,0.01
		c-0.1,0-0.16-0.03-0.21-0.08c-0.54-0.53-1.53-0.76-2.34-0.91l-1.95,0c-0.15,0-0.27-0.12-0.27-0.27c0-0.15,0.12-0.27,0.27-0.27h1.71
		v-1.4l-0.99,0.01c-0.91,0-1.8,0.39-2.42,1.06l-0.82,0.89c-0.28,0.3-0.68,0.48-1.09,0.48l-0.84,0.01c-0.15,0-0.27-0.12-0.27-0.27
		c0-0.07,0.03-0.14,0.08-0.19c0.05-0.05,0.12-0.08,0.19-0.08l0.84-0.01c0.26,0,0.52-0.12,0.69-0.31l0.82-0.89
		c0.72-0.78,1.75-1.23,2.81-1.23h1.03c0.28,0,0.5,0.22,0.5,0.5v1.48c0.76,0.15,1.71,0.39,2.33,0.94c0.52-0.07,1.15-0.15,1.84-0.15
		c1.68,0,3.13,0.44,4.59,1.39c0.28,0.18,0.36,0.56,0.18,0.85l-0.09,0.14c0.49,0.19,0.9,0.52,1.19,0.96l0.22,0.34
		c0.09,0.14,0.1,0.33,0.02,0.48c-0.08,0.15-0.24,0.25-0.41,0.25h-2.9c-0.08,0-0.15-0.03-0.21-0.09c-0.11-0.13-0.24-0.23-0.39-0.32
		c-0.04,0.07-0.08,0.15-0.13,0.21C17.48,15.85,16.76,16.23,15.99,16.23z M15.99,12.14c-0.89,0-1.64,0.67-1.76,1.55
		c-0.01,0.07-0.02,0.15-0.02,0.22c0,0.98,0.79,1.77,1.77,1.77c0.59,0,1.14-0.29,1.47-0.78c0.2-0.29,0.3-0.64,0.3-0.99
		C17.76,12.94,16.97,12.14,15.99,12.14z M4.53,12.14c-0.89,0-1.64,0.67-1.76,1.55c-0.01,0.07-0.02,0.15-0.02,0.22
		c0,0.98,0.79,1.77,1.77,1.77c0.59,0,1.14-0.29,1.47-0.78c0.2-0.29,0.3-0.64,0.3-0.99C6.3,12.94,5.5,12.14,4.53,12.14z"/>
	<path class="st0" d="M9.88,13.95c-0.06,0-0.11-0.02-0.16-0.05c-0.12-0.09-0.15-0.26-0.06-0.38l0.68-0.92
		c0.05-0.07,0.13-0.11,0.22-0.11c0.06,0,0.11,0.02,0.16,0.05c0.12,0.09,0.15,0.26,0.06,0.38l-0.68,0.92
		C10.04,13.91,9.96,13.95,9.88,13.95z"/>
	<path class="st0" d="M11.1,13.95c-0.06,0-0.11-0.02-0.16-0.05c-0.12-0.09-0.15-0.26-0.06-0.38l0.68-0.92
		c0.05-0.07,0.13-0.11,0.22-0.11c0.06,0,0.11,0.02,0.16,0.05c0.12,0.09,0.15,0.26,0.06,0.38l-0.68,0.92
		C11.27,13.91,11.18,13.95,11.1,13.95z"/>
	<path class="st0" d="M12.32,13.95c-0.06,0-0.11-0.02-0.16-0.05c-0.12-0.09-0.15-0.26-0.06-0.38l0.68-0.92
		c0.05-0.07,0.13-0.11,0.22-0.11c0.06,0,0.11,0.02,0.16,0.05c0.12,0.09,0.15,0.26,0.06,0.38l-0.68,0.92
		C12.49,13.91,12.41,13.95,12.32,13.95z"/>
</g>
</svg>
