<svg id="Layer_2" data-name="Layer 2" xmlns="http://www.w3.org/2000/svg" viewBox="0 0 20 19.30258"><defs><style>.cls-1{fill:#41494f;}</style></defs><title>Free_Spins_Reel_Band_Action</title><path class="cls-1" d="M19.958 5.9a1.62 1.62 0 0 0-1.578-1.255 1.62 1.62 0 0 0-.378 3.198l-.02 4.92a1.65 1.65 0 0 1-1.652 1.645h-.866l.015-9.742a2.393 2.393 0 0 0-2.365-2.393l.002-1.214A1.045 1.045 0 0 0 12.074.013L3.44 0a1.045 1.045 0 0 0-1.047 1.042v1.214A2.392 2.392 0 0 0 .018 4.64L0 16.89a2.393 2.393 0 0 0 2.387 2.396l10.678.017a2.393 2.393 0 0 0 2.395-2.387l.003-1.767h.866a2.393 2.393 0 0 0 2.394-2.386l.02-4.92a1.62 1.62 0 0 0 1.214-1.943zM3.136 1.045a.302.302 0 0 1 .302-.302l8.635.013a.302.302 0 0 1 .302.303l-.002 1.213-9.24-.014zm11.582 15.87a1.65 1.65 0 0 1-1.65 1.647l-10.68-.016a1.65 1.65 0 0 1-1.646-1.652l.02-12.25a1.65 1.65 0 0 1 1.65-1.646l10.68.017a1.65 1.65 0 0 1 1.645 1.652zm4.54-10.645a.88.88 0 1 1 0-.002z"/><path class="cls-1" d="M13.372 3.854H2.152a.66.66 0 0 0-.662.66v5.61a.66.66 0 0 0 .66.66h11.222a.66.66 0 0 0 .66-.66v-5.61a.66.66 0 0 0-.66-.66zm-7.92 6.27h-3.3v-5.61h3.3zm3.96 0h-3.3v-5.61h3.3zm3.96 0h-3.3v-5.61h3.3zM3.8 15.957a.33.33 0 0 0-.33.33.66.66 0 1 1-.66-.66.33.33 0 0 0 0-.66 1.32 1.32 0 1 0 1.32 1.32.33.33 0 0 0-.33-.33zM7.1 15.957a.33.33 0 0 0-.33.33.66.66 0 1 1-.66-.66.33.33 0 1 0 0-.66 1.32 1.32 0 1 0 1.32 1.32.33.33 0 0 0-.33-.33zM10.4 15.957a.33.33 0 0 0-.33.33.66.66 0 1 1-.66-.66.33.33 0 0 0 0-.66 1.32 1.32 0 1 0 1.322 1.32.33.33 0 0 0-.33-.33zM13.702 15.957a.33.33 0 0 0-.33.33.66.66 0 1 1-.66-.66.33.33 0 0 0 0-.66 1.32 1.32 0 1 0 1.32 1.32.33.33 0 0 0-.33-.33z"/><path class="cls-1" d="M2.81 6.824a.33.33 0 0 0 .33-.33h.94a3.516 3.516 0 0 0-.61 1.98.33.33 0 1 0 .66 0 2.838 2.838 0 0 1 .875-2.06l.008-.006.014-.013.01-.012.01-.012.01-.013.01-.012.01-.015.006-.013.007-.015.007-.014.005-.015.005-.016.004-.014.005-.017.002-.016.002-.016V6.13l-.004-.022-.002-.01-.005-.02-.004-.012L5.1 6.05l-.005-.014-.006-.012-.01-.018-.005-.01-.01-.017-.008-.01-.013-.017V5.95l-.01-.007-.012-.014-.012-.012-.012-.01-.014-.01-.012-.01-.015-.01-.013-.006-.015-.007-.015-.006-.014-.007-.016-.005-.014-.004-.017-.004-.016-.002-.016-.002H4.8l-.01-.002H2.81a.33.33 0 0 0-.33.33v.33a.33.33 0 0 0 .33.33zM6.77 6.824a.33.33 0 0 0 .33-.33h.94a3.516 3.516 0 0 0-.61 1.98.33.33 0 1 0 .66 0 2.837 2.837 0 0 1 .875-2.06l.008-.006.014-.013.01-.012.01-.012.012-.013.007-.012.01-.015.006-.013.007-.015.007-.014.005-.014.006-.017.003-.014.005-.017.003-.016.002-.016V6.13l-.004-.022-.002-.01-.005-.02-.004-.012-.006-.016-.005-.014-.005-.012-.01-.018-.005-.01-.01-.017-.008-.01-.013-.017V5.95l-.01-.007-.012-.014-.012-.012-.01-.01-.016-.01-.01-.01-.016-.01-.013-.006-.015-.007-.015-.006-.014-.007-.016-.005-.014-.004-.017-.004-.016-.002-.015-.002h-.02l-.01-.002H6.77a.33.33 0 0 0-.33.33v.33a.33.33 0 0 0 .33.33zM10.73 6.824a.33.33 0 0 0 .33-.33H12a3.516 3.516 0 0 0-.61 1.98.33.33 0 0 0 .66 0 2.838 2.838 0 0 1 .876-2.06l.008-.006.013-.013.01-.012.012-.012.01-.013.008-.012.008-.015.008-.013.007-.015.008-.014.005-.014.005-.017.004-.014.004-.017.002-.016.002-.016V6.13l-.004-.022v-.01l-.006-.02-.003-.012-.006-.016-.004-.014-.006-.012-.01-.018-.004-.01-.01-.017-.008-.01-.013-.017-.002-.002-.007-.007-.013-.014-.013-.012-.01-.01-.015-.01-.012-.01-.015-.01-.013-.006-.015-.007-.014-.007-.015-.005-.015-.005-.014-.004-.016-.004-.016-.002-.016-.002h-.02l-.01-.002h-1.98a.33.33 0 0 0-.33.33v.33a.33.33 0 0 0 .33.33z"/></svg>