<svg id="Layer_2" data-name="Layer 2" xmlns="http://www.w3.org/2000/svg" viewBox="0 0 19.94 19.94"><defs><style>.cls-1{fill:#41494e;}</style></defs><title>Free_Bets</title><path class="cls-1" d="M12,2.03A9.97,9.97,0,1,0,21.97,12,9.97,9.97,0,0,0,12,2.03Zm0,19.25a9.285,9.285,0,1,1,9.28-9.29A9.285,9.285,0,0,1,12,21.28Z" transform="translate(-2.03 -2.03)"/><polygon class="cls-1" points="3.94 14.28 5.24 14.28 5.68 10.79 8.63 10.79 8.77 9.74 5.8 9.74 6.14 7.02 9.62 7.02 9.75 5.96 4.96 5.96 3.94 14.28"/><path class="cls-1" d="M17.63,8.5A2.32508,2.32508,0,0,0,16.84,8.12a4.33568,4.33568,0,0,0-1.15-.13H13.12L12.1,16.31h2.84a3.86462,3.86462,0,0,0,1.28-.2,2.81012,2.81012,0,0,0,.96-.55,2.52026,2.52026,0,0,0,.61-.84A2.6389,2.6389,0,0,0,18,13.66a1.5122,1.5122,0,0,0-.36-1.04,2.0028,2.0028,0,0,0-1.08-.58,2.68331,2.68331,0,0,0,.74-.36,2.25556,2.25556,0,0,0,.52-.5,2.06673,2.06673,0,0,0,.31-.61,2.25875,2.25875,0,0,0,.1-.69,2.11034,2.11034,0,0,0-.14-.77A1.3966,1.3966,0,0,0,17.63,8.5Zm-.92,5.17a1.98613,1.98613,0,0,1-.1.66,1.31761,1.31761,0,0,1-.84.84,2.108,2.108,0,0,1-.75.12H13.51l.33-2.7h1.51a1.54466,1.54466,0,0,1,1.03.29A.96669.96669,0,0,1,16.71,13.67Zm-.24-2.41a1.83175,1.83175,0,0,1-1.29.41H13.97l.32-2.66h1.28a1.64921,1.64921,0,0,1,1.01.26.98011.98011,0,0,1,.33.82A1.53784,1.53784,0,0,1,16.47,11.26Z" transform="translate(-2.03 -2.03)"/></svg>