<svg id="Layer_2" data-name="Layer 2" xmlns="http://www.w3.org/2000/svg" viewBox="0 0 17.5216 20.14063"><defs><style>.cls-1{fill:#41494f;}</style></defs><title>Fruits</title><path class="cls-1" d="M20.59108,11.85737a2.64756,2.64756,0,0,0-2.56394-1.715,7.98479,7.98479,0,0,0-8.42129-1.41A7.986,7.986,0,0,0,4.20553,15.346,2.64973,2.64973,0,0,0,5.973,20.04061a8.17556,8.17556,0,0,0,5.24748,2.02971,8.982,8.982,0,0,0,3.17381-.61946A7.98594,7.98594,0,0,0,19.79478,14.837,2.65127,2.65127,0,0,0,20.59108,11.85737ZM19.123,14.22448l-.15485.10957-.029.18735A7.12174,7.12174,0,0,1,14.079,20.61314a7.12376,7.12376,0,0,1-7.67085-1.37381l-.1454-.12209-.18881.01981a1.7547,1.7547,0,0,1-1.19669-3.1786l.15487-.10956.029-.18735a7.1214,7.1214,0,0,1,4.8601-6.09146A7.122,7.122,0,0,1,17.592,10.94362l.14554.12209.18866-.01981A1.75474,1.75474,0,0,1,19.123,14.22448Z" transform="translate(-3.2392 -1.92968)"/><path class="cls-1" d="M18.20153,9.49375l.36116.12238L18.741,9.279a5.86721,5.86721,0,0,0,.44012-4.36041,5.86658,5.86658,0,0,0-3.31525-2.86624l-.36116-.12267-.17832.33727a5.86732,5.86732,0,0,0-.44012,4.36055A5.86722,5.86722,0,0,0,18.20153,9.49375ZM15.95227,3.05468A4.64367,4.64367,0,0,1,18.34955,5.2496a4.64408,4.64408,0,0,1-.2347,3.24241,4.62221,4.62221,0,0,1-2.397-2.1955A4.64332,4.64332,0,0,1,15.95227,3.05468Z" transform="translate(-3.2392 -1.92968)"/><path class="cls-1" d="M13.05252,9.69538l-.05463.00029A5.04934,5.04934,0,0,0,9.89242,10.744a.44761.44761,0,1,0,.63607.63,4.24993,4.24993,0,0,1,2.48411-.78321,3.63754,3.63754,0,0,1,2.31788.72173.44746.44746,0,0,0,.57342-.68706A4.54891,4.54891,0,0,0,13.05252,9.69538Z" transform="translate(-3.2392 -1.92968)"/></svg>