<svg id="Layer_1" data-name="Layer 1" xmlns="http://www.w3.org/2000/svg" viewBox="0 0 40.6 45"><defs><style>.cls-1{fill:#8c8c8c;}</style></defs><title>GamCare</title><path class="cls-1" d="M6.4,41.8A3.16,3.16,0,0,1,3.2,45,3.19,3.19,0,0,1,.8,43.9,3.11,3.11,0,0,1,0,41.7a3.26,3.26,0,0,1,1-2.3,3.17,3.17,0,0,1,2.3-.9,2.89,2.89,0,0,1,2.8,1.7H4.9a2.14,2.14,0,0,0-1.7-.8,2.13,2.13,0,0,0-1.6.7A3.49,3.49,0,0,0,1,41.8a2.06,2.06,0,0,0,.7,1.7,2,2,0,0,0,1.6.7,2.34,2.34,0,0,0,2.2-1.5h-3V41.8H6.4Z"/><path class="cls-1" d="M9.1,39.8L8.2,42.2H10Zm-2,5.1h-1l2.5-6.3H9.5L12,44.9H11l-0.7-1.8H7.9Z"/><polygon class="cls-1" points="12.5 44.9 12.5 38.6 13.8 38.6 15.7 43.5 17.5 38.6 18.8 38.6 18.8 44.9 17.9 44.9 18 39.5 16 44.9 15.3 44.9 13.3 39.5 13.3 44.9 12.5 44.9"/><path class="cls-1" d="M22.8,45a3.26,3.26,0,0,1-2.3-1,3.17,3.17,0,0,1-.9-2.3,3,3,0,0,1,1-2.3,3.17,3.17,0,0,1,2.3-.9A3.28,3.28,0,0,1,26,41H24.3a1.74,1.74,0,0,0-1.4-1,1.61,1.61,0,0,0-1.7,1.6,1.67,1.67,0,0,0,1.6,1.7,1.51,1.51,0,0,0,1.4-.9h1.7A3.09,3.09,0,0,1,22.8,45"/><path class="cls-1" d="M28.7,40.7l-0.6,2h1.3Zm-1.4,4.2H25.6L28,38.6h1.3l2.4,6.3H30L29.7,44H27.6Z"/><path class="cls-1" d="M33.8,41.5c0.8,0,1.1-.2,1.1-0.8s-0.3-.7-1-0.7H33.5v1.5h0.3Zm-1.9,3.4V38.7H34a2.73,2.73,0,0,1,1.6.4,2.14,2.14,0,0,1,.8,1.7,1.88,1.88,0,0,1-1.4,2L36.6,45H34.7l-1.2-2v2l-1.6-.1h0Z"/><polygon class="cls-1" points="37.2 44.9 37.2 38.6 40.6 38.6 40.6 40 38.7 40 38.7 41 40.6 41 40.6 42.4 38.7 42.4 38.7 43.5 40.6 43.5 40.6 44.9 37.2 44.9"/><path class="cls-1" d="M9.8,11.6c-1.6,1.3-3.3,3.1-3.3,6s1.7,4.7,3.4,6.1a15.61,15.61,0,0,0,6.4,2.9,18.66,18.66,0,0,0,2.5.4V8.2c-0.8.1-1.7,0.2-2.6,0.4a15.17,15.17,0,0,0-6.4,3"/><path class="cls-1" d="M18.6,30.4c-5.7-.5-10.8-2.6-13.7-5.9a7,7,0,0,1-1.3-1.7,8.56,8.56,0,0,1-1.3-4.6,8.31,8.31,0,0,1,1.3-4.6,15.67,15.67,0,0,1,2-2.5,17.82,17.82,0,0,1,6.1-3.7,24.76,24.76,0,0,1,7.1-1.5V0H3.4A3.37,3.37,0,0,0,0,3.4V32.1a3.37,3.37,0,0,0,3.4,3.4H18.9V30.4H18.6"/><path class="cls-1" d="M31.7,7.8a19.57,19.57,0,0,0-3.4-1.2,20.24,20.24,0,0,0-4.4-.7,13.4,13.4,0,0,0-2-.1c-1,0-2,0-3.1.1V8.2c1-.1,2-0.1,3.1-0.1,0.7,0,1.3.1,2,.1a21.56,21.56,0,0,1,6.2,1.7c0.5,0.2,1,.6,1.6.8,1,0.2,2.7.1,2.7-1s-1.8-1.5-2.7-1.9"/><path class="cls-1" d="M40.5,22.6c-0.4-1.7-3.2-1.4-5.5-1.4H31.1c-1.9,0-6.4-.6-6.3,1.5a1.52,1.52,0,0,0,1,1.3c1.4,0.7,4.1,0,5.9.2a17.14,17.14,0,0,1-7.8,2.7,13.4,13.4,0,0,1-2,.1c-1,0-2,0-3.1-.1v3.4c1,0.1,2,.1,3.1.1,0.7,0,1.3-.1,2-0.1A26.92,26.92,0,0,0,34.6,27c-0.2.7-.4,1.1-0.5,1.6a4.33,4.33,0,0,0-.4,1.9c0.2,1.5,3.2,2.3,4.4,1,0.5-.5.5-1.5,0.8-2.3,0.4-1.3.8-3.1,1.2-4.4a5.7,5.7,0,0,0,.4-2.2"/></svg>