<svg id="Layer_2" data-name="Layer 2" xmlns="http://www.w3.org/2000/svg" viewBox="0 0 20.01927 14.56077"><defs><style>.cls-1{fill:#41494f;}</style></defs><title>Games</title><path class="cls-1" d="M21.9621,9.14l-2.331-4.20233a.37127.37127,0,0,0-.32416-.19154L4.70782,4.71961a.37425.37425,0,0,0-.32417.19156L2.03791,9.11348a.37133.37133,0,0,0,.06187.445l9.68068,9.61288a.37121.37121,0,0,0,.26226.109l-.00295-.01178a.37132.37132,0,0,0,.26523-.109L21.9002,9.585A.37131.37131,0,0,0,21.9621,9.14ZM18.60849,5.477l.01178.02651L16.4307,8.74511,12.95333,5.477ZM15.53412,8.93077H8.474l3.53632-3.32708ZM11.06434,5.477l.00295.01178L7.58991,8.73038,5.40624,5.477ZM4.73729,5.807,6.8296,8.92194h-3.831ZM3.26972,9.6675l.01178.0059H7.29522L10.805,17.15271Zm8.77,8.36044L8.11447,9.68813h7.78283Zm1.22-.8605L16.7254,9.69108l4.01372.0059Zm3.91941-8.22192L19.2745,5.83061l1.7328,3.10606.00293.00885Z" transform="translate(-1.99036 -4.71961)"/></svg>