<?xml version="1.0" encoding="utf-8"?>
<!-- Generator: Adobe Illustrator 19.2.1, SVG Export Plug-In . SVG Version: 6.00 Build 0)  -->
<svg version="1.1" id="Layer_2" xmlns="http://www.w3.org/2000/svg" xmlns:xlink="http://www.w3.org/1999/xlink" x="0px" y="0px"
	 viewBox="0 0 24 24" style="enable-background:new 0 0 24 24;" xml:space="preserve">
<style type="text/css">
	.st0{fill:#666666;}
</style>
<g>
	<path class="st0" d="M14.15,6.05c-0.91,0.09-1.59,0.91-1.5,1.82c0.08,0.86,0.8,1.51,1.66,1.51c0.05,0,0.11,0,0.16-0.01
		c0.91-0.09,1.59-0.91,1.5-1.82C15.88,6.64,15.08,5.96,14.15,6.05z M15.4,7.61c0.06,0.6-0.38,1.13-0.98,1.19
		c-0.61,0.06-1.13-0.38-1.19-0.98c-0.06-0.6,0.38-1.13,0.98-1.19c0.04,0,0.07-0.01,0.11-0.01C14.87,6.62,15.34,7.04,15.4,7.61z"/>
	<path class="st0" d="M13.53,4.78c0.04,0,0.09,0,0.13-0.01c0.36-0.04,0.69-0.21,0.92-0.49c0.23-0.28,0.34-0.64,0.3-1
		c-0.07-0.75-0.73-1.3-1.49-1.23c-0.75,0.07-1.3,0.74-1.23,1.49C12.24,4.25,12.83,4.78,13.53,4.78z M13.53,2.62
		c0.41,0,0.74,0.31,0.78,0.71c0.02,0.21-0.04,0.41-0.18,0.58c-0.13,0.16-0.32,0.26-0.53,0.29c-0.45,0.04-0.82-0.28-0.86-0.71
		c-0.02-0.21,0.04-0.41,0.18-0.58c0.13-0.16,0.32-0.26,0.53-0.28C13.48,2.62,13.51,2.62,13.53,2.62z"/>
	<path class="st0" d="M8.73,13.53c-0.05-0.04-0.11-0.06-0.19-0.06l-0.02,0c-0.08,0.01-0.15,0.05-0.19,0.11l-2.64,3.45
		c-0.38,0.49-0.29,1.19,0.19,1.57c0.15,0.11,0.31,0.19,0.5,0.22l-1.02,1.33c-0.18,0.24-0.26,0.53-0.23,0.82
		c0.04,0.3,0.19,0.56,0.42,0.74c0.2,0.15,0.44,0.24,0.69,0.24c0.35,0,0.67-0.16,0.88-0.43l4.27-5.55c0.1-0.13,0.07-0.31-0.05-0.4
		L8.73,13.53z M5.92,21.27c-0.11-0.09-0.19-0.22-0.2-0.36c-0.02-0.14,0.02-0.29,0.11-0.4l1.54-1.99l0.02-0.02
		c0.03-0.03,0.05-0.05,0.08-0.08l2.46-3.23l0.85,0.66l-4.09,5.32C6.51,21.39,6.14,21.44,5.92,21.27z M6.15,17.39l2.46-3.22
		l0.85,0.66l-2.55,3.31c-0.19,0.16-0.48,0.16-0.67,0.01c-0.11-0.09-0.19-0.22-0.2-0.36C6.02,17.65,6.06,17.51,6.15,17.39z"/>
	<path class="st0" d="M18.85,13.44c-0.05-0.27-0.2-0.51-0.43-0.67l-8.25-5.7l1.45-2.25c0.31-0.48,0.17-1.12-0.31-1.43
		c-0.17-0.11-0.36-0.16-0.56-0.16c-0.35,0-0.68,0.18-0.87,0.48l-1.99,3.1c-0.3,0.47-0.18,1.09,0.28,1.41l2.51,1.73L8.9,12.49
		c-0.14,0.2-0.1,0.48,0.1,0.62l2.61,1.95c0.08,0.06,0.17,0.09,0.27,0.09c0.14,0,0.28-0.07,0.36-0.18l1.96-2.6l3.04,2.1
		c0.17,0.11,0.37,0.18,0.58,0.18c0.35,0,0.68-0.17,0.86-0.44C18.84,13.98,18.9,13.71,18.85,13.44z M18.21,13.88
		c-0.13,0.19-0.45,0.25-0.64,0.12l-3.26-2.25c-0.12-0.09-0.3-0.06-0.39,0.06l-2.06,2.72l-2.42-1.81l1.88-2.7
		c0.04-0.06,0.06-0.14,0.05-0.22c-0.01-0.08-0.06-0.14-0.12-0.18L8.5,7.73c-0.2-0.14-0.26-0.42-0.12-0.62l1.99-3.1
		C10.5,3.81,10.79,3.74,11,3.87c0.1,0.07,0.17,0.17,0.2,0.29c0.03,0.12,0,0.24-0.06,0.35l-1.6,2.49C9.45,7.13,9.48,7.3,9.61,7.39
		l8.48,5.86c0.1,0.07,0.17,0.17,0.19,0.29C18.3,13.66,18.28,13.78,18.21,13.88z"/>
</g>
</svg>
