<svg id="Layer_2" data-name="Layer 2" xmlns="http://www.w3.org/2000/svg" viewBox="0 0 20 18.35233"><defs><style>.cls-1{fill:#41494f;}</style></defs><title>HealthLottery</title><path class="cls-1" d="M12.00183,21.17536a.86255.86255,0,0,1-.367-.07708A19.89355,19.89355,0,0,1,5.1492,16.0368C3.10112,13.62535,2,11.14416,2,9.041A6.21765,6.21765,0,0,1,12.00183,4.108,6.21765,6.21765,0,0,1,22,9.041c0,2.10681-1.10112,4.58433-3.1492,6.97376A19.88255,19.88255,0,0,1,12.36153,21.113.85522.85522,0,0,1,12.00183,21.17536ZM8.21765,3.92449A5.13856,5.13856,0,0,0,3.10112,9.041c0,1.85722,1.024,4.05946,2.8886,6.2617a18.8365,18.8365,0,0,0,6.01211,4.77152,18.82914,18.82914,0,0,0,6.00844-4.77152c1.86456-2.20224,2.8886-4.40448,2.8886-6.2617a5.11653,5.11653,0,0,0-8.53-3.80987l-.367.33034-.367-.33034A5.09818,5.09818,0,0,0,8.21765,3.92449Z" transform="translate(-2 -2.82383)"/></svg>