<svg id="Layer_2" data-name="Layer 2" xmlns="http://www.w3.org/2000/svg" viewBox="0 0 21.66967 21.66968"><defs><style>.cls-1{fill:#41494f;}</style></defs><title>Help</title><path class="cls-1" d="M21.50087,9.87808h-.02534V9.85275A9.99616,9.99616,0,0,0,14.04876,2.3134h-.02252V2.29088a1.90808,1.90808,0,0,0-1.73076-1.1257h-.59662a1.8996,1.8996,0,0,0-1.68573,1.00469v.0197H9.99062a9.99618,9.99618,0,0,0-8.03747,7.96148v.0197H1.93908a1.90805,1.90805,0,0,0-.77392,1.52813v.59662a1.90809,1.90809,0,0,0,.77955,1.53376h.01407v.02534a9.99617,9.99617,0,0,0,8.0431,7.95866h.0225v.0197a1.90244,1.90244,0,0,0,1.67448,1.00187h.60507a1.908,1.908,0,0,0,1.73075-1.1257v-.02252h.02252a9.99617,9.99617,0,0,0,7.424-7.55059v-.02534h.02534a1.8968,1.8968,0,0,0,1.32831-1.81519v-.59662A1.89679,1.89679,0,0,0,21.50087,9.87808Zm-7.3902-3.56a1.888,1.888,0,0,0,.08442-.53751V3.19988l.06192.01688a9.13785,9.13785,0,0,1,6.32641,6.52061l.031.05909H18.21665a1.886,1.886,0,0,0-.667.121l-.045.01688-.01688-.045a6.1153,6.1153,0,0,0-3.33768-3.515l-.0394-.01688ZM10.62945,3.07887a1.07223,1.07223,0,0,1,1.06941-1.06941h.59662A1.07222,1.07222,0,0,1,13.36489,3.0648V5.78055A1.07222,1.07222,0,0,1,12.29548,6.85h-.59662a1.07223,1.07223,0,0,1-1.06941-1.06941ZM2.89593,9.743A9.06465,9.06465,0,0,1,9.74578,3.07325h.05911V5.7918a1.89641,1.89641,0,0,0,.03659.36866v.04222h-.0394a6.19131,6.19131,0,0,0-3.76264,3.56v.03377H6.00284a1.92762,1.92762,0,0,0-.22232,0v.00845H2.879Zm-.88649,2.55252v-.59674a1.07223,1.07223,0,0,1,1.061-1.08336l2.71011.01407a1.07223,1.07223,0,0,1,1.06941,1.06941v.59662a1.07222,1.07222,0,0,1-1.06941,1.06941H3.07884A1.07222,1.07222,0,0,1,2.00943,12.29551Zm7.8264,5.54967a1.90475,1.90475,0,0,0-.03659.36868v2.69041H9.74014a9.0703,9.0703,0,0,1-6.84422-6.65287l-.01407-.07317H5.79459a1.86447,1.86447,0,0,0,.21952,0h.03657V14.212a6.1914,6.1914,0,0,0,3.74575,3.591h.0394Zm3.52905,3.08723a1.07222,1.07222,0,0,1-1.06941,1.06941h-.59662a1.07223,1.07223,0,0,1-1.06941-1.06941V18.21948a1.07223,1.07223,0,0,1,1.06941-1.06941l.59662-.00563a1.07222,1.07222,0,0,1,1.06941,1.06943Zm.34335-4.04688H13.6801l-.02252-.02252a1.88559,1.88559,0,0,0-1.3621-.56285h-.59662a1.894,1.894,0,0,0-1.47748.70919l-.0197.02534h-.031a5.34713,5.34713,0,0,1-3.3405-3.10412V13.894l.031-.0225a1.90239,1.90239,0,0,0,.84427-1.57317V11.7017a1.90239,1.90239,0,0,0-.84427-1.57317l-.031-.0225v-.03659a5.347,5.347,0,0,1,3.3405-3.11255l.031-.01408.0197.02534a1.894,1.894,0,0,0,1.47748.70919h.59662a1.88276,1.88276,0,0,0,1.3621-.56285L13.6801,7.092h.02814a5.24861,5.24861,0,0,1,3.0816,3.31518v.02532l-.01688.0197a1.894,1.894,0,0,0-.46154,1.24671v.60789a1.89955,1.89955,0,0,0,.46154,1.24107l.01125.00843v.02534A5.24855,5.24855,0,0,1,13.70823,16.88553Zm6.87519-2.63131a9.13784,9.13784,0,0,1-6.33767,6.52059l-.06191.01688V18.211a1.89441,1.89441,0,0,0-.07881-.53753v-.0394l.0394-.01688a6.11814,6.11814,0,0,0,3.34332-3.50653v-.05347l.05911.01688a1.88289,1.88289,0,0,0,.667.121h2.38365ZM21.999,12.28144a1.07223,1.07223,0,0,1-1.06943,1.06941H18.21665a1.07223,1.07223,0,0,1-1.06943-1.06941v-.59662a1.06942,1.06942,0,0,1,1.06943-1.06941l2.71291.01407A1.07223,1.07223,0,0,1,21.999,11.69889Z" transform="translate(-1.16516 -1.16516)"/></svg>