<svg id="Layer_2" data-name="Layer 2" xmlns="http://www.w3.org/2000/svg" viewBox="0 0 20 14.53928"><defs><style>.cls-1{fill:#41494f;}</style></defs><title>HiLo</title><polygon class="cls-1" points="3.498 6.575 4.814 6.575 4.814 0.738 3.498 0.738 3.498 2.981 1.325 2.981 1.325 0.738 0 0.738 0 6.575 1.325 6.575 1.325 4.133 3.498 4.133 3.498 6.575"/><rect class="cls-1" x="5.96916" y="0.73828" width="1.32484" height="5.83661"/><polygon class="cls-1" points="11.885 7.823 10.56 7.823 10.56 13.66 14.205 13.66 14.205 12.551 11.885 12.551 11.885 7.823"/><path class="cls-1" d="M19.229,12.45831A2.8254,2.8254,0,0,0,16.389,15.51552a2.72115,2.72115,0,0,0,2.74488,2.96977A2.78285,2.78285,0,0,0,22,15.41117,2.72052,2.72052,0,0,0,19.229,12.45831ZM19.203,17.43755c-.88276,0-1.42-.8052-1.42-1.94813,0-1.13446.51964-1.98337,1.41156-1.98337.90882,0,1.41156.9011,1.41156,1.94884C20.60607,16.58935,20.09488,17.43755,19.203,17.43755Z" transform="translate(-2 -4.73036)"/><polygon class="cls-1" points="13.854 0 2.841 13.971 3.802 14.539 14.814 0.568 13.854 0"/></svg>