<svg id="Layer_2" data-name="Layer 2" xmlns="http://www.w3.org/2000/svg" viewBox="0 0 18.83333 20.15049"><defs><style>.cls-1{fill:#41494f;}</style></defs><title>Holdem</title><path class="cls-1" d="M16.66719,9.50819v0a5.58517,5.58517,0,0,0-.63069.036,6.393,6.393,0,0,0,.71442-2.86907,4.75037,4.75037,0,0,0-9.50074,0,5.57271,5.57271,0,0,0,.8197,2.79243,4.75051,4.75051,0,1,0-.73567,9.44377,6.08767,6.08767,0,0,0,2.816-.72981,13.67706,13.67706,0,0,1-1.68708,2.52708l-.11081.132v1.23461h7.39394V20.84033l-.11083-.13172a13.688,13.688,0,0,1-1.64568-2.44771,5.54016,5.54016,0,0,0,2.67746.74768,4.75019,4.75019,0,0,0,0-9.50039ZM14.75678,21.12967h-5.415a14.37773,14.37773,0,0,0,2.389-4.2148l.31966-.88954.30644.85847A14.37189,14.37189,0,0,0,14.75678,21.12967ZM16.66719,18.063a5.05319,5.05319,0,0,1-3.51639-1.65722l-.88831-.97051-.17068-.18653-.233.23947-.91189.93727a5.29179,5.29179,0,0,1-3.61271,1.54026,3.80463,3.80463,0,1,1,0-7.60925,4.61648,4.61648,0,0,1,1.77542.38414l2.10079.88894L9.636,9.97881A5.055,5.055,0,0,1,8.19576,6.67511a3.80479,3.80479,0,1,1,7.60958,0,5.42568,5.42568,0,0,1-1.14473,3.27076l-.95945,1.2069,1.47117-.4614a4.99594,4.99594,0,0,1,1.49486-.23763,3.80463,3.80463,0,0,1,0,7.60925Z" transform="translate(-2.58333 -1.92476)"/></svg>