<svg id="Layer_2" data-name="Layer 2" xmlns="http://www.w3.org/2000/svg" viewBox="0 0 20.08333 18.12626"><defs><style>.cls-1{fill:#41494e;}</style></defs><title>Home</title><polygon class="cls-1" points="17.32 1.087 15.714 1.087 15.714 2.379 17.32 3.886 17.32 1.087"/><path class="cls-1" d="M21.81369,11.67,12.054,2.93687,2.147,11.7745a.561.561,0,1,0,.74017.84329L12.04975,4.5861l9.01948,7.92428.02859.02583a.57566.57566,0,0,0,.04642.03831.56264.56264,0,0,0,.66945-.90448Z" transform="translate(-1.95833 -2.93687)"/><path class="cls-1" d="M19.36339,14.10461a.51823.51823,0,0,0-.54479.49027v5.43033H5.28367V14.59488a.51753.51753,0,1,0-1.03506,0v5.95148a.52686.52686,0,0,0,.16174.36932.51552.51552,0,0,0,.35646.14315l14.56866.00429a.52693.52693,0,0,0,.45958-.2763l.03574-.08587a.684.684,0,0,0,.023-.15459V14.59488A.51823.51823,0,0,0,19.36339,14.10461Z" transform="translate(-1.95833 -2.93687)"/></svg>