<?xml version="1.0" encoding="utf-8"?>
<!-- Generator: Adobe Illustrator 19.2.1, SVG Export Plug-In . SVG Version: 6.00 Build 0)  -->
<svg version="1.1" id="Layer_2" xmlns="http://www.w3.org/2000/svg" xmlns:xlink="http://www.w3.org/1999/xlink" x="0px" y="0px"
	 viewBox="0 0 24 24" style="enable-background:new 0 0 24 24;" xml:space="preserve">
<style type="text/css">
	.st0{fill:#666666;}
</style>
<g>
	<path class="st0" d="M6.26,13.15c0-1.18-0.96-2.13-2.13-2.13c-1.18,0-2.13,0.96-2.13,2.13s0.96,2.13,2.13,2.13
		C5.3,15.29,6.26,14.33,6.26,13.15z M2.7,13.15c0-0.78,0.64-1.42,1.42-1.42c0.78,0,1.42,0.64,1.42,1.42c0,0.78-0.64,1.42-1.42,1.42
		C3.34,14.57,2.7,13.93,2.7,13.15z"/>
	<path class="st0" d="M21.1,5.48l-1.15-1.49L6.6,15.5l-1.89,0.81l-0.05,0.04c-0.52,0.45-0.86,1.22-0.8,1.82
		c0.09,0.92,0.79,1.66,1.71,1.81c0.12,0.02,0.24,0.03,0.36,0.03c0.59,0,1.13-0.23,1.52-0.67l0.88-1.47L19.44,7.32l0.4-0.08
		l0.47,0.63l1.69-1.28L21.1,5.48z M13.68,10.45l0.86-0.74l0.76,0.47l-0.81,0.77L13.68,10.45z M14.09,11.32l-0.78,0.74l-0.87-0.54
		l0.82-0.71L14.09,11.32z M14.95,9.35l0.82-0.71l0.69,0.43L15.68,9.8L14.95,9.35z M7.71,17.37l-0.87,1.46
		c-0.29,0.3-0.7,0.43-1.14,0.36c-0.56-0.09-0.99-0.54-1.04-1.11c-0.03-0.33,0.18-0.82,0.48-1.1l1.89-0.81l5-4.31l0.9,0.56
		L7.71,17.37z M20.47,6.76l-0.29-0.39l-1.12,0.22L16.85,8.7l-0.66-0.41l3.65-3.15l0.64,0.83l0.4,0.49L20.47,6.76z"/>
</g>
</svg>
