<svg id="Layer_2" data-name="Layer 2" xmlns="http://www.w3.org/2000/svg" viewBox="0 0 21 21"><defs><style>.cls-1{fill:#41494f;}</style></defs><title>Info</title><path class="cls-1" d="M12.00016,1.5A10.5,10.5,0,1,0,22.5,12.00016,10.5119,10.5119,0,0,0,12.00016,1.5Zm0,20.19234A9.70328,9.70328,0,0,1,2.308,12V11.9998a9.69235,9.69235,0,1,1,9.69214,9.69255Z" transform="translate(-1.5 -1.5)"/><path class="cls-1" d="M12.03637,15.55509a.902.902,0,0,0-.99553.19556.92352.92352,0,0,0-.25708.6444.90628.90628,0,0,0,.25708.6444.838.838,0,0,0,.28594.1919.9504.9504,0,0,0,.70958,0,.878.878,0,0,0,.2896-.1919.94277.94277,0,0,0,.19556-.28594.91421.91421,0,0,0-.48516-1.19841Z" transform="translate(-1.5 -1.5)"/><path class="cls-1" d="M13.86826,7.33717a2.53828,2.53828,0,0,0-.84355-.47066A3.26846,3.26846,0,0,0,11.964,6.7a3.71049,3.71049,0,0,0-.80735.0832,3.62919,3.62919,0,0,0-.69509.22808,3.72078,3.72078,0,0,0-.5937.33311,4.35716,4.35716,0,0,0-.496.3983l.34036.543a.31489.31489,0,0,0,.28235.16656.39239.39239,0,0,0,.22083-.10869,3.09633,3.09633,0,0,1,.3512-.23892,2.83688,2.83688,0,0,1,.53211-.23891,2.33287,2.33287,0,0,1,.75668-.10869,1.947,1.947,0,0,1,.6118.09419,1.47541,1.47541,0,0,1,.496.2716,1.30106,1.30106,0,0,1,.333.43082,1.2755,1.2755,0,0,1,.12312.56471,1.60252,1.60252,0,0,1-.17381.7711,2.40757,2.40757,0,0,1-.43082.57555,4.20743,4.20743,0,0,1-.55387.45982,6.38558,6.38558,0,0,0-.543.42,2.04429,2.04429,0,0,0-.39822.45616.89226.89226,0,0,0-.12312.56837l.08687,1.20193h.88339l.1303-1.10773a.75671.75671,0,0,1,.21359-.43448,3.49908,3.49908,0,0,1,.44532-.391q.26063-.19549.55387-.41632a3.24542,3.24542,0,0,0,.54308-.52135,2.65493,2.65493,0,0,0,.41265-.69874,2.49842,2.49842,0,0,0,.163-.9485,2.28612,2.28612,0,0,0-.20274-.97751A2.16865,2.16865,0,0,0,13.86826,7.33717Z" transform="translate(-1.5 -1.5)"/></svg>