<svg id="Layer_2" data-name="Layer 2" xmlns="http://www.w3.org/2000/svg" viewBox="0 0 20 18.16124"><defs><style>.cls-1{fill:#41494f;}</style></defs><title>InShop</title><path class="cls-1" d="M11.70973,8.35257v-1.567h2.52564v.83365A.37184.37184,0,1,0,14.979,7.621V6.41359a.373.373,0,0,0-.37172-.37174H11.70973a3.21755,3.21755,0,0,0-6.43229,0H2.37192A.37314.37314,0,0,0,2,6.4136V18.5061a2.57779,2.57779,0,0,0,2.57046,2.57051h5.65587a.37193.37193,0,1,0,.00118-.74387h-5.657A1.8286,1.8286,0,0,1,2.74371,18.5061V6.78559H5.2693V8.35076a.37186.37186,0,0,0,.74371.002V6.78559h4.953V8.35076a.37184.37184,0,1,0,.74368.00181ZM6.013,6.04585a2.4763,2.4763,0,0,1,4.949,0Z" transform="translate(-2 -2.91938)"/><path class="cls-1" d="M21.628,11.54248H19.36V11.0438a2.62568,2.62568,0,0,0-5.25137.00419v.49848h-2.268a.37338.37338,0,0,0-.372.37193v7.42542a1.738,1.738,0,0,0,1.73683,1.73679h7.05769A1.738,1.738,0,0,0,22,19.34382V11.9142A.3732.3732,0,0,0,21.628,11.54248ZM14.84835,11.048a1.884,1.884,0,0,1,3.768-.00438v.50286h-3.768Zm6.40791,8.29582a.99435.99435,0,0,1-.99309.9931H13.20549a.99418.99418,0,0,1-.99289-.9931V12.28614h1.89605v1.04223a.372.372,0,1,0,.7439,0V12.28614h3.76773v1.04223a.372.372,0,1,0,.7439,0V12.28614h1.89208Z" transform="translate(-2 -2.91938)"/></svg>