<svg id="Layer_2" data-name="Layer 2" xmlns="http://www.w3.org/2000/svg" viewBox="0 0 11 21.50927"><defs><style>.cls-1{fill:#41494f;}</style></defs><title>InstantPlay</title><path class="cls-1" d="M17.06748,10.33485H12.68774L16.797,1.866a.43164.43164,0,0,0-.71654-.469L6.60445,12.5506a.43166.43166,0,0,0,.32517.71078l3.97687.01727L6.544,22.13306a.4325.4325,0,0,0,.71364.47481l10.135-11.5565a.43164.43164,0,0,0-.32515-.71652ZM8.76554,19.58062l3.22005-6.53794a.43165.43165,0,0,0-.38273-.63308L7.862,12.39522,14.538,4.53645l-2.92653,6.043A.43163.43163,0,0,0,12,11.201h4.115Z" transform="translate(-6.5 -1.24536)"/></svg>