<svg id="Layer_2" data-name="Layer 2" xmlns="http://www.w3.org/2000/svg" viewBox="0 0 21.5 20.14952"><defs><style>.cls-1{fill:#414a4f;}</style></defs><title>Jackpot</title><path class="cls-1" d="M5.61046,9.90039a11.42173,11.42173,0,0,1-2.9764-4.50157c.39642,0,1.028-.03359,1.77376-.04031q-.09405-.67183-.15456-1.34375H2.86252C2.10329,4.07525,1.25,4.10883,1.25,4.90164c0,1.83421,2.46577,5.81174,5.99311,7.97515L7.102,12.67524A13.06169,13.06169,0,0,1,5.61046,9.90039Z" transform="translate(-1.25 -1.92524)"/><path class="cls-1" d="M21.13748,4.04834H19.75342q-.06047.6719-.15452,1.34375c.74577,0,1.34375,0,1.77376.04031a11.5558,11.5558,0,0,1-3.01,4.55533,13.00736,13.00736,0,0,1-1.458,2.6875l-.20155.32249c3.5542-2.15,6.04688-6.20139,6.04688-8.0625C22.75,4.10883,21.89,4.07525,21.13748,4.04834Z" transform="translate(-1.25 -1.92524)"/><path class="cls-1" d="M16.22608,20.73774a3.3123,3.3123,0,0,1-2.78826-2.48595H10.56218a3.3123,3.3123,0,0,1-2.78826,2.48595.44345.44345,0,0,0-.383.44342V21.853a.22167.22167,0,0,0,.215.22173H16.394a.22167.22167,0,0,0,.215-.22173v-.67187A.44345.44345,0,0,0,16.22608,20.73774Z" transform="translate(-1.25 -1.92524)"/><path class="cls-1" d="M10.65625,16.88791h2.6875c.14111-1.935,1.16906-2.81516,2.4725-5.00548a17.28434,17.28434,0,0,0,2.71436-9.50032.45.45,0,0,0-.12093-.32249.42992.42992,0,0,0-.309-.13438H5.89936a.42992.42992,0,0,0-.309.13438.45.45,0,0,0-.12093.32249,17.37377,17.37377,0,0,0,2.6875,9.507C9.49392,14.07947,10.50846,14.95963,10.65625,16.88791Z" transform="translate(-1.25 -1.92524)"/></svg>