<svg id="Layer_2" data-name="Layer 2" xmlns="http://www.w3.org/2000/svg" viewBox="0 0 19.57951 20.16667"><defs><style>.cls-1{fill:#41494f;}</style></defs><title>Jackpots</title><path class="cls-1" d="M21.62706,14.88039a5.70475,5.70475,0,0,0-5.56427-4.3573c-.13641,0-.27014.011-.40424.02051a6.886,6.886,0,0,1-.01685-1.798,6.53463,6.53463,0,0,1,1.04962-2.76208.464.464,0,0,0,.04767-.09961,21.17709,21.17709,0,0,1,3.05591-.16565h.09235a.46661.46661,0,1,0,0-.93323h-.09357a15.96626,15.96626,0,0,0-5.26959.66321c-1.629.55774-3.76233,2.32867-5.47351,5.174a5.852,5.852,0,0,0-1.06079-.09918A5.78012,5.78012,0,1,0,11.464,20.92318a.46664.46664,0,0,0-.5614-.74554,4.847,4.847,0,1,1-2.91278-8.72131,4.94744,4.94744,0,0,1,.56787.0365c-.28479.53784-.55524,1.10535-.803,1.7085a.46671.46671,0,0,0,.86334.35486,17.85651,17.85651,0,0,1,.89258-1.85571,4.81549,4.81549,0,0,1,1.48157.7973.46655.46655,0,0,0,.57843-.73218,5.75723,5.75723,0,0,0-1.576-.88354c1.41174-2.25745,3.20978-3.99542,4.83209-4.551.23376-.08008.46875-.14844.7038-.209a7.33291,7.33291,0,0,0-.814,2.50385,7.84484,7.84484,0,0,0,.02,2.05853,5.70467,5.70467,0,1,0,6.89069,4.19592Zm-5.56427,6.15942a4.78863,4.78863,0,0,1-1.16321-9.43475c.07031.32281.14618.6239.2157.89514a5.82406,5.82406,0,0,1,.23724,1.22095.46683.46683,0,0,0,.46478.46844h.00183a.46661.46661,0,0,0,.46661-.46484,6.28224,6.28224,0,0,0-.26642-1.45636c-.06427-.25085-.13232-.51843-.19519-.8.07959-.00391.15808-.01208.23865-.01208a4.79175,4.79175,0,0,1,0,9.5835Z" transform="translate(-2.21025 -1.91666)"/><path class="cls-1" d="M18.94242,16.24807a2.88265,2.88265,0,0,1-2.87964,2.87933.46664.46664,0,0,0,0,.93329,3.81707,3.81707,0,0,0,3.81293-3.81262.46664.46664,0,0,0-.93329,0Z" transform="translate(-2.21025 -1.91666)"/><path class="cls-1" d="M9.58073,18.61159a2.86067,2.86067,0,0,1-1.64532.51587.46661.46661,0,0,0,0,.93323,3.79155,3.79155,0,0,0,2.17944-.68353.46674.46674,0,0,0-.53412-.76556Z" transform="translate(-2.21025 -1.91666)"/><path class="cls-1" d="M9.2733,9.163a.48932.48932,0,0,0,.09753.01.46669.46669,0,0,0,.09631-.92322,10.03789,10.03789,0,0,1-4.3822-2.45221C5.845,4.995,8.04087,2.93679,10.64006,2.85232a7.855,7.855,0,0,1,4.669,1.69855.46655.46655,0,0,0,.55048-.75342A8.76308,8.76308,0,0,0,10.60972,1.9197c-3.64465.11847-6.41614,3.46143-6.53247,3.60358l-.25732.31537.27734.298A11.15982,11.15982,0,0,0,9.2733,9.163Z" transform="translate(-2.21025 -1.91666)"/></svg>