<?xml version="1.0" encoding="utf-8"?>
<!-- Generator: Adobe Illustrator 19.2.1, SVG Export Plug-In . SVG Version: 6.00 Build 0)  -->
<svg version="1.1" id="Layer_2" xmlns="http://www.w3.org/2000/svg" xmlns:xlink="http://www.w3.org/1999/xlink" x="0px" y="0px"
	 viewBox="0 0 24 24" style="enable-background:new 0 0 24 24;" xml:space="preserve">
<style type="text/css">
	.st0{fill:#666666;}
</style>
<g>
	<path class="st0" d="M14.88,7.77c-0.18-0.65-0.58-1.21-1.11-1.6l3.53-3.53l-0.59-0.59L13,5.76c-0.32-0.11-0.65-0.18-1-0.18
		c-0.35,0-0.69,0.06-1,0.18l-3.7-3.71L6.7,2.64l3.53,3.53C9.7,6.56,9.3,7.12,9.12,7.77H1.99v14.18h20.02V7.77H14.88z M12,6.41
		c0.89,0,1.68,0.56,2,1.36h-4C10.32,6.97,11.11,6.41,12,6.41z M21.17,21.11H2.83V8.6h6.14h6.06h6.15V21.11z"/>
	<path class="st0" d="M6.26,9.44c-1.43,0-2.6,1.17-2.6,2.6v5.64c0,1.43,1.17,2.6,2.6,2.6h8.14c1.43,0,2.6-1.17,2.6-2.6v-5.64
		c0-1.43-1.17-2.6-2.6-2.6H6.26z M14.4,19.44H9.98c-0.65-0.8-1.78-2.82-2.03-3.95L7.86,15.1l-1.97,0.33c-0.02,0-0.04,0-0.06-0.02
		C5.8,15.38,5.8,15.35,5.8,15.33c0-0.02,0.01-0.05,0.03-0.07l1.47-1.23l0.31-0.77c0.97,1.34,2.4,2.23,3.01,2.57l0.09,0.05h2.59
		l0.33,1.97l-0.58-0.03L13,18.65l0.78,0.04c0.01,0,0.03,0,0.04,0c0.21,0,0.41-0.1,0.54-0.27c0.13-0.17,0.17-0.39,0.11-0.59
		l-0.32-1.96h2.03v1.8C16.17,18.65,15.38,19.44,14.4,19.44z M11.91,14.52l-0.38-0.76c0,0,0,0,0,0c0.1-0.07,0.18-0.16,0.26-0.25
		c0,0,0.01-0.01,0.01-0.01c0.03-0.04,0.06-0.09,0.08-0.13c0.01-0.02,0.02-0.03,0.03-0.05c0.02-0.04,0.04-0.09,0.06-0.14
		c0,0,0-0.01,0.01-0.01l1.39,0c0.82,0.08,1.37,0.36,1.41,0.73c0.04,0.34-0.33,0.84-1.09,1.14h-1.73
		C12.01,14.88,12,14.69,11.91,14.52z M10.79,13.18c-0.23,0-0.42-0.19-0.42-0.42c0-0.23,0.19-0.42,0.42-0.42
		c0.23,0,0.41,0.18,0.42,0.41l0,0.03c-0.01,0.18-0.13,0.33-0.3,0.38l-0.05,0.02C10.84,13.17,10.81,13.18,10.79,13.18z M16.17,12.04
		v3.01h-1.02c0.33-0.38,0.51-0.81,0.45-1.25c-0.05-0.38-0.35-1.28-2.2-1.46h-1.43c-0.17-0.49-0.63-0.84-1.18-0.84
		c-0.69,0-1.26,0.56-1.26,1.26c0,0.67,0.53,1.21,1.19,1.25l0.41,0.8l-0.08,0.24h-0.12c-0.67-0.38-2.11-1.32-2.91-2.68l-0.06-0.08
		c-0.16-0.17-0.41-0.23-0.62-0.14c-0.19,0.07-0.32,0.24-0.36,0.43L6.6,13.52l-1.31,1.1c-0.2,0.17-0.31,0.43-0.32,0.69
		c0,0.27,0.1,0.52,0.3,0.7c0.2,0.19,0.47,0.27,0.75,0.24l1.22-0.2c0.33,1.06,1.08,2.47,1.71,3.39H6.26c-0.97,0-1.77-0.79-1.77-1.77
		v-5.64c0-0.97,0.79-1.77,1.77-1.77h8.14C15.38,10.27,16.17,11.06,16.17,12.04z"/>
	<circle class="st0" cx="19.51" cy="12.36" r="0.83"/>
	<circle class="st0" cx="19.51" cy="15.69" r="0.83"/>
</g>
</svg>
