<svg id="Layer_2" data-name="Layer 2" xmlns="http://www.w3.org/2000/svg" viewBox="0 0 20.8042 20.83957"><defs><style>.cls-1{fill:#41494f;}</style></defs><title>LiveChat</title><path class="cls-1" d="M16.84484,8.34312H7.421a.50891.50891,0,1,0,0,1.01782h9.42379a.50891.50891,0,0,0,0-1.01782Z" transform="translate(-1.5979 -1.58021)"/><path class="cls-1" d="M16.84484,11.545H7.421a.50891.50891,0,1,0,0,1.01782h9.42379a.50891.50891,0,0,0,0-1.01782Z" transform="translate(-1.5979 -1.58021)"/><path class="cls-1" d="M16.84484,14.74682H7.421a.5089.5089,0,1,0,0,1.0178h9.42379a.5089.5089,0,0,0,0-1.0178Z" transform="translate(-1.5979 -1.58021)"/><path class="cls-1" d="M19.26512,4.5168A10.43862,10.43862,0,0,0,3.95263,18.65145l.06663.103-.04543.103a4.24678,4.24678,0,0,1-1.77208,1.95686.79968.79968,0,0,0-.43924.84514.80882.80882,0,0,0,.6846.6755,5.23663,5.23663,0,0,0,.80577.06059A6.134,6.134,0,0,0,6.85761,21.199l.09089-.06663.09995.05452a10.32938,10.32938,0,0,0,12.21974-1.81448q.1-.09737.19733-.19742A10.36586,10.36586,0,0,0,19.26512,4.5168ZM7.109,20.266a.41808.41808,0,0,0-.212-.05754.46341.46341,0,0,0-.33624.15146l-.02727.02422a5.33735,5.33735,0,0,1-3.29574,1.17229H2.68037l.45135-.33017a5.75555,5.75555,0,0,0,1.74785-2.32338A.46043.46043,0,0,0,4.89773,18.6a.44528.44528,0,0,0-.103-.23932A9.52378,9.52378,0,1,1,7.109,20.266Z" transform="translate(-1.5979 -1.58021)"/></svg>