<svg id="Layer_2" data-name="Layer 2" xmlns="http://www.w3.org/2000/svg" viewBox="0 0 21.125 16.1197"><defs><style>.cls-1{fill:#41494f;}</style></defs><title>LiveScores</title><path class="cls-1" d="M20.49356,5.894h-.96023V4.36953a.42938.42938,0,0,0-.85875,0V5.894H5.31059V4.36953a.42938.42938,0,0,0-.85877,0V5.894H3.50644A2.07142,2.07142,0,0,0,1.4375,7.963V17.99089a2.07143,2.07143,0,0,0,2.06894,2.069H20.49356a2.07142,2.07142,0,0,0,2.06894-2.069V7.963A2.07141,2.07141,0,0,0,20.49356,5.894ZM11.56691,19.20108H3.50644a1.21265,1.21265,0,0,1-1.21265-1.21265l.00248.00246V10.50954h9.27064Zm0-9.55029H2.29627V7.963A1.21266,1.21266,0,0,1,3.50892,6.75277L3.50644,6.7503h8.06047Zm10.12941,8.34011a1.21265,1.21265,0,0,1-1.21265,1.21266l.00989-.00248H12.42568V10.50954h9.27064ZM21.70622,7.963V9.65079H12.42568V6.7503h8.06788a1.21268,1.21268,0,0,1,1.21266,1.21019Z" transform="translate(-1.4375 -3.94015)"/><path class="cls-1" d="M6.88209,17.9315h.104A1.86351,1.86351,0,0,0,8.84461,16.068V13.62533a1.86353,1.86353,0,0,0-1.861-1.86106H6.88209a1.86353,1.86353,0,0,0-1.861,1.86106V16.068A1.86352,1.86352,0,0,0,6.88209,17.9315ZM5.87732,13.62533a1.00477,1.00477,0,0,1,1.00477-1.00477h.104a1.00479,1.00479,0,0,1,1.00477,1.0023L7.98834,16.068a1.00479,1.00479,0,0,1-1.00477,1.0023H6.88209A1.00479,1.00479,0,0,1,5.87732,16.068Z" transform="translate(-1.4375 -3.94015)"/><path class="cls-1" d="M17.014,17.929h.10394A1.86352,1.86352,0,0,0,18.979,16.068V13.62533a1.86353,1.86353,0,0,0-1.86106-1.86106H17.014a1.86355,1.86355,0,0,0-1.86106,1.86106V16.068A1.86354,1.86354,0,0,0,17.014,17.929ZM16.0092,13.62533a1.00477,1.00477,0,0,1,1.0023-1.0023h.10394a1.00477,1.00477,0,0,1,1.00231,1.0023l.00248,2.44264a1.00478,1.00478,0,0,1-1.00231,1.0023H17.014A1.00478,1.00478,0,0,1,16.0092,16.068Z" transform="translate(-1.4375 -3.94015)"/></svg>