<svg id="Layer_2" data-name="Layer 2" xmlns="http://www.w3.org/2000/svg" viewBox="0 0 20.5 20.5"><defs><style>.cls-1{fill:#41494f;}</style></defs><title>Location</title><circle class="cls-1" cx="10.25" cy="10.24128" r="2.97205"/><path class="cls-1" d="M19.43661,11.63416a7.45539,7.45539,0,0,0-7.07084-7.07933V1.75h-.73154V4.55483a7.4554,7.4554,0,0,0-7.07084,7.07933H1.75v.73154H4.56384a7.45583,7.45583,0,0,0,7.07039,7.062V22.25h.73154V19.42774a7.45583,7.45583,0,0,0,7.07039-7.062H22.25v-.73154ZM12,18.70548h0a6.71419,6.71419,0,1,1,6.71413-6.71427A6.7142,6.7142,0,0,1,12,18.70547Z" transform="translate(-1.75 -1.75)"/></svg>