<svg id="Layer_2" data-name="Layer 2" xmlns="http://www.w3.org/2000/svg" viewBox="0 0 15 21"><defs><style>.cls-1{fill:#41494e;}</style></defs><title>Lock</title><path class="cls-1" d="M18,10.5v-3a6,6,0,0,0-12,0v3A1.5,1.5,0,0,0,4.5,12v9A1.5,1.5,0,0,0,6,22.5H18A1.5,1.5,0,0,0,19.5,21V12A1.5,1.5,0,0,0,18,10.5ZM7.5,7.5a4.5,4.5,0,0,1,9,0v3h-9ZM18,21H6V12H18Z" transform="translate(-4.5 -1.5)"/><path class="cls-1" d="M11.25,16.2975V18a.75.75,0,0,0,1.5,0V16.2975a1.5,1.5,0,1,0-1.5,0Z" transform="translate(-4.5 -1.5)"/></svg>