<svg id="Layer_2" data-name="Layer 2" xmlns="http://www.w3.org/2000/svg" viewBox="0 0 19.83333 21.40711"><defs><style>.cls-1{fill:#41494f;}</style></defs><title>LogOut</title><path class="cls-1" d="M11.63528,21.59781h-5.617a2.83232,2.83232,0,0,1-2.82917-2.82886V5.23137A2.83239,2.83239,0,0,1,6.01825,2.40219h5.70844c.00393,0,.00789,0,.01182,0a.54685.54685,0,0,0,.54074-.55287.55333.55333,0,0,0-.55256-.55287H6.01825A3.93922,3.93922,0,0,0,2.08333,5.23137V18.76895a3.93915,3.93915,0,0,0,3.93492,3.93461h5.617a.55287.55287,0,0,0,0-1.10575Z" transform="translate(-2.08333 -1.29645)"/><path class="cls-1" d="M21.75418,11.61133,17.833,7.68985l-.002-.002a.55321.55321,0,0,0-.78035.78435L20.03013,11.452H7.35755c-.00393,0-.00789,0-.01182,0a.54684.54684,0,0,0-.54106.55256.55341.55341,0,0,0,.55287.55287H20.03013l-2.97944,2.98007-.00409.00409a.555.555,0,0,0,.39292.94168.53951.53951,0,0,0,.38883-.164l3.92146-3.92115a.5611.5611,0,0,0,.16686-.40166A.538.538,0,0,0,21.75418,11.61133Z" transform="translate(-2.08333 -1.29645)"/></svg>