<svg id="Layer_2" data-name="Layer 2" xmlns="http://www.w3.org/2000/svg" viewBox="0 0 20.06271 19"><defs><style>.cls-1{fill:#41494f;}</style></defs><title>Lottobet</title><path class="cls-1" d="M21.58726,14.13213A5.23194,5.23194,0,0,0,16.18747,11.023a5.25759,5.25759,0,1,0-8.369-.16766,5.256,5.256,0,1,0,4.14387,7.49942,5.25523,5.25523,0,1,0,9.62492-4.22264ZM7.7674,7.77089a4.29827,4.29827,0,1,1,4.2985,4.298h-.00015A4.30343,4.30343,0,0,1,7.7674,7.77089Zm3.752,8.522a4.24625,4.24625,0,1,1,.00847-.26321c-.00293.072-.0109.14268-.0109.2153C11.517,16.26115,11.51924,16.27671,11.51939,16.29287ZM11.479,12.99249a4.95363,4.95363,0,0,0,1.17284.00008,5.26377,5.26377,0,0,0-.60869.97505A5.25313,5.25313,0,0,0,11.479,12.99249ZM20.96024,16.566a4.24553,4.24553,0,0,1-8.48258-.27311c.00293-.072.0109-.14268.0109-.2153,0-.01617-.00228-.03172-.00243-.04789v0a4.24553,4.24553,0,1,1,8.47411.53632Z" transform="translate(-1.96864 -2.5)"/><polygon class="cls-1" points="8.616 4.177 8.627 4.177 8.627 7.018 9.438 7.018 9.438 3.432 8.743 3.432 7.794 3.874 7.932 4.503 8.616 4.177"/><path class="cls-1" d="M13.3207,9.57893c.91584,0,1.3627-.76134,1.3627-1.87026,0-.982-.37516-1.83716-1.33511-1.83716-.92685,0-1.36821.822-1.36821,1.85922C11.98559,8.74586,12.39385,9.57893,13.3207,9.57893Zm.01655-3.073c.33654,0,.50756.41929.50756,1.21374,0,.81651-.17654,1.22477-.502,1.22477s-.52411-.39169-.5186-1.21374C12.81866,6.89767,13.0283,6.506,13.33725,6.506Z" transform="translate(-1.96864 -2.5)"/><path class="cls-1" d="M8.04861,15.72822a1.63992,1.63992,0,0,0-.9434-.2593,1.55326,1.55326,0,0,0-.23171.011l.07724-.5517H8.341v-.68962H6.36593L6.1287,16.11993a3.0957,3.0957,0,0,1,.48549-.0331c.71721,0,1.00961.2262,1.00961.59583,0,.38067-.36964.54618-.71721.54618a2.06055,2.06055,0,0,1-.811-.17654l-.149.62894a2.27881,2.27881,0,0,0,.99856.20413,1.3672,1.3672,0,0,0,1.53924-1.25787A1.0207,1.0207,0,0,0,8.04861,15.72822Z" transform="translate(-1.96864 -2.5)"/><polygon class="cls-1" points="12.292 12.465 12.43 13.094 13.114 12.769 13.125 12.769 13.125 15.61 13.936 15.61 13.936 12.024 13.241 12.024 12.292 12.465"/><path class="cls-1" d="M18.6354,16.01359a1.63992,1.63992,0,0,0-.9434-.2593,1.55326,1.55326,0,0,0-.23171.011l.07724-.5517H18.9278V14.524H16.95272l-.23723,1.88129a3.09555,3.09555,0,0,1,.48549-.0331c.71721,0,1.00961.2262,1.00961.59583,0,.38067-.36964.54618-.71721.54618a2.06064,2.06064,0,0,1-.811-.17654l-.149.62894a2.279,2.279,0,0,0,.99857.20413,1.36721,1.36721,0,0,0,1.53926-1.25785A1.02072,1.02072,0,0,0,18.6354,16.01359Z" transform="translate(-1.96864 -2.5)"/></svg>