<svg id="Layer_2" data-name="Layer 2" xmlns="http://www.w3.org/2000/svg" viewBox="0 0 20.125 16.937"><defs><style>.cls-1{fill:#41494f;}</style></defs><title>LottoResults</title><path class="cls-1" d="M15.14448,11.09776a4.69976,4.69976,0,0,0-.52333.03078,4.68759,4.68759,0,1,0-7.46375-.14831A4.68758,4.68758,0,1,0,10.85148,17.666a4.68478,4.68478,0,1,0,4.293-6.5682ZM7.11262,8.22924H7.10143a3.834,3.834,0,1,1,3.83681,3.83122h-.0028A3.83682,3.83682,0,0,1,7.11262,8.22924Zm3.34706,7.5561a.21156.21156,0,0,0,0,.042,3.78644,3.78644,0,1,1,0-.23509Zm-.03637-2.9021a4.41982,4.41982,0,0,0,1.04666,0,4.69261,4.69261,0,0,0-.54292.87035A4.68475,4.68475,0,0,0,10.42331,12.88324Zm4.56542,6.61116a3.78646,3.78646,0,0,1-3.66709-3.66708v-.1931a.21028.21028,0,0,0,0-.042,3.78645,3.78645,0,1,1,3.66709,3.90216Z" transform="translate(-1.9375 -3.5315)"/><polygon class="cls-1" points="7.688 3.721 7.699 3.721 7.699 6.257 8.421 6.257 8.421 3.058 7.803 3.058 6.955 3.452 7.078 4.012 7.688 3.721"/><path class="cls-1" d="M12.06606,9.84121c.82556,0,1.21456-.68,1.21456-1.67913,0-.86476-.33583-1.626-1.18939-1.626-.83957,0-1.22017.73322-1.22017,1.65674S11.24049,9.84121,12.06606,9.84121Zm.01959-2.7398c.27425,0,.45336.375.45336,1.08306,0,.70569-.16142,1.08842-.45065,1.09095-.2782-.00248-.46447-.352-.45888-1.08256C11.63508,7.45964,11.81139,7.10141,12.08566,7.10141Z" transform="translate(-1.9375 -3.5315)"/><path class="cls-1" d="M7.36449,15.32357a1.46367,1.46367,0,0,0-.83957-.23227,1.397,1.397,0,0,0-.20711,0l.07-.49255H7.62756v-.61569H5.86726L5.65456,15.6622a2.75776,2.75776,0,0,1,.43379-.03078c.64086,0,.90113.20149.90113.53172s-.33023.487-.64086.487a1.83876,1.83876,0,0,1-.722-.15674l-.13152.55971A2.03139,2.03139,0,0,0,6.385,17.235a1.217,1.217,0,0,0,1.37128-1.11942A.90952.90952,0,0,0,7.36449,15.32357Z" transform="translate(-1.9375 -3.5315)"/><polygon class="cls-1" points="10.965 11.112 11.088 11.675 11.699 11.383 11.71 11.383 11.71 13.916 12.432 13.916 12.432 10.72 11.813 10.72 10.965 11.112"/><path class="cls-1" d="M16.804,15.57545a1.46381,1.46381,0,0,0-.83957-.23228,1.40145,1.40145,0,0,0-.20709,0l.07-.49255h1.23416v-.61567H15.304l-.21269,1.67913a2.7596,2.7596,0,0,1,.43377-.0308c.64086,0,.90113.2015.90113.53173s-.33023.48695-.64086.48695a1.83881,1.83881,0,0,1-.722-.15672l-.13152.55971a2.032,2.032,0,0,0,.88994.18191,1.20115,1.20115,0,0,0,1.3713-1.10543A.90958.90958,0,0,0,16.804,15.57545Z" transform="translate(-1.9375 -3.5315)"/><polygon class="cls-1" points="20.125 3.226 19.431 2.529 16.487 5.473 15.328 4.314 14.631 5.011 16.487 6.864 20.125 3.226"/></svg>