<svg id="Layer_2" data-name="Layer 2" xmlns="http://www.w3.org/2000/svg" viewBox="0 0 12.13704 21.55142"><defs><style>.cls-1{fill:#41494e;}</style></defs><title>Medal</title><path class="cls-1" d="M17.45569,14.05282a6.06709,6.06709,0,0,0-2.80131-2.80131V9.484a.79884.79884,0,0,0-.79791-.79791H10.14354a.79883.79883,0,0,0-.79791.79791v1.76753a6.06714,6.06714,0,1,0,8.11006,2.80131ZM10.104,9.484a.04055.04055,0,0,1,.03953-.03951h3.71292A.04055.04055,0,0,1,13.896,9.484v1.45988a6.0916,6.0916,0,0,0-3.792,0ZM12,21.638h0a4.92955,4.92955,0,1,1,4.92956-4.92956A4.92953,4.92953,0,0,1,12,21.638Z" transform="translate(-5.93148 -1.22429)"/><circle class="cls-1" cx="6.06852" cy="15.48413" r="3.79197"/><polygon class="cls-1" points="12.119 0 8.616 0 6.497 3.67 8.248 6.703 12.119 0"/><polygon class="cls-1" points="4.25 6.703 5.093 6.703 7.374 6.703 3.504 0 0.001 0 3.871 6.703 4.25 6.703"/></svg>