<svg id="Layer_2" data-name="Layer 2" xmlns="http://www.w3.org/2000/svg" viewBox="0 0 20 20.00112"><defs><style>.cls-1{fill:#41494f;}</style></defs><title>More</title><path class="cls-1" d="M20.66061,7.00614l-.0019-.00328A9.99307,9.99307,0,0,0,7.01012,3.33693l-.00851.00492a9.998,9.998,0,1,0,13.659,3.66429ZM12.0087,21.167A9.16611,9.16611,0,1,1,19.93435,7.41937,9.1625,9.1625,0,0,1,12.0087,21.167Z" transform="translate(-2 -1.99944)"/><polygon class="cls-1" points="10.47 5.776 9.52 5.776 9.52 9.537 5.931 9.537 5.931 10.448 9.52 10.448 9.52 14.227 10.47 14.227 10.47 10.448 14.068 10.448 14.068 9.537 10.47 9.537 10.47 5.776"/></svg>