<?xml version="1.0" encoding="utf-8"?>
<!-- Generator: Adobe Illustrator 19.2.1, SVG Export Plug-In . SVG Version: 6.00 Build 0)  -->
<svg version="1.1" id="Layer_2" xmlns="http://www.w3.org/2000/svg" xmlns:xlink="http://www.w3.org/1999/xlink" x="0px" y="0px"
	 viewBox="0 0 24 24" style="enable-background:new 0 0 24 24;" xml:space="preserve">
<style type="text/css">
	.st0{fill:#666666;}
</style>
<g>
	<path class="st0" d="M11.73,16.25c-0.14-0.06-0.31,0.01-0.37,0.14l-0.81,1.82c-0.01,0.01-0.02,0.02-0.04,0.02H9.55l1.52-3.43
		c0.06-0.14,0-0.31-0.14-0.37c-0.14-0.06-0.31,0-0.37,0.14l-1.62,3.63c-0.06,0.13-0.05,0.28,0.03,0.4c0.08,0.12,0.21,0.19,0.35,0.19
		h1.19c0.24,0,0.46-0.14,0.55-0.36l0.81-1.82C11.94,16.48,11.88,16.32,11.73,16.25z"/>
	<path class="st0" d="M21.94,9.36c-0.08-0.12-0.21-0.19-0.35-0.19c-0.65,0-1.55-0.15-2.17-0.81c-0.21-0.23-0.38-0.49-0.57-0.76
		c-0.17-0.26-0.35-0.53-0.57-0.77c-0.43-0.49-0.98-0.85-1.58-1.05c0.03-0.1,0.02-0.21-0.02-0.31c-0.05-0.12-0.14-0.22-0.26-0.27
		l-0.96-0.43c-0.06-0.03-0.12-0.04-0.19-0.04c-0.2,0-0.38,0.12-0.46,0.29l-2.28,5.13L12,11.34L9.18,5.01
		C9.11,4.84,8.92,4.72,8.72,4.72c-0.07,0-0.13,0.01-0.19,0.04L7.57,5.19C7.45,5.24,7.36,5.34,7.31,5.46
		c-0.04,0.1-0.04,0.2-0.02,0.31C7.16,5.81,7.03,5.86,6.9,5.92C6.46,6.14,6.05,6.45,5.72,6.82C5.5,7.06,5.31,7.34,5.14,7.6
		C4.96,7.87,4.79,8.13,4.58,8.35C3.96,9.02,3.06,9.16,2.41,9.17c-0.14,0-0.27,0.07-0.35,0.19C1.98,9.47,1.97,9.62,2.02,9.75
		l1.93,4.52c0.1,0.22,0.31,0.37,0.55,0.37c1.09,0,1.98-0.35,2.58-0.99c0.24-0.26,0.43-0.55,0.62-0.83c0.17-0.26,0.33-0.5,0.52-0.71
		c0.3-0.34,0.67-0.61,1.08-0.79c0.12-0.06,0.25-0.1,0.38-0.14l3.23,7.28c0.1,0.22,0.31,0.36,0.55,0.36h1.19
		c0.14,0,0.27-0.07,0.35-0.19c0.08-0.12,0.09-0.27,0.03-0.4l-1.94-4.37l1.19-2.68c0.55,0.16,1.07,0.49,1.46,0.93
		c0.19,0.21,0.35,0.46,0.53,0.71c0.19,0.28,0.38,0.57,0.62,0.83c0.6,0.65,1.49,0.99,2.58,0.99c0.24,0,0.46-0.14,0.55-0.37l1.93-4.52
		C22.03,9.62,22.01,9.47,21.94,9.36z M13.88,10.73l-1.34,3.01c-0.03,0.07-0.03,0.16,0,0.23l1.9,4.28h-0.97
		c-0.02,0-0.03-0.01-0.04-0.02l-3.33-7.49c-0.05-0.1-0.15-0.17-0.26-0.17c-0.02,0-0.04,0-0.06,0.01c-0.24,0.05-0.49,0.13-0.72,0.23
		c-0.48,0.21-0.92,0.54-1.27,0.93c-0.22,0.25-0.4,0.52-0.57,0.78c-0.18,0.27-0.35,0.53-0.57,0.76c-0.62,0.67-1.52,0.81-2.17,0.81
		c-0.01,0-0.03-0.01-0.03-0.03L2.63,9.73c0.99-0.05,1.81-0.39,2.36-0.99c0.24-0.26,0.43-0.55,0.62-0.83
		c0.17-0.26,0.33-0.5,0.52-0.71c0.28-0.32,0.63-0.58,1.01-0.76c0.2-0.09,0.4-0.16,0.6-0.21C7.83,6.2,7.89,6.15,7.93,6.07
		C7.97,6,7.97,5.91,7.94,5.83L7.87,5.67L8.69,5.3l2.99,6.73l-0.23,0.51c-0.03,0.07-0.03,0.15-0.01,0.22
		c0.03,0.07,0.08,0.13,0.15,0.16c0.14,0.06,0.31,0,0.37-0.14L15.3,5.3l0.83,0.37l-0.07,0.16C16.02,5.91,16.03,6,16.06,6.07
		c0.04,0.08,0.11,0.13,0.19,0.15c0.6,0.14,1.17,0.49,1.61,0.97c0.19,0.22,0.36,0.47,0.53,0.71c0.19,0.28,0.38,0.57,0.62,0.83
		c0.56,0.6,1.38,0.94,2.36,0.99l-1.84,4.32c-0.01,0.02-0.02,0.03-0.03,0.03c-0.65,0-1.55-0.15-2.17-0.81
		c-0.21-0.23-0.38-0.49-0.57-0.76c-0.17-0.26-0.35-0.53-0.57-0.77c-0.53-0.6-1.24-1.01-1.99-1.16
		C14.07,10.54,13.94,10.61,13.88,10.73z"/>
</g>
</svg>
