<svg id="Layer_2" data-name="Layer 2" xmlns="http://www.w3.org/2000/svg" viewBox="0 0 20 16.81052"><defs><style>.cls-1{fill:#41494f;}</style></defs><title>Multilines</title><path class="cls-1" d="M4.02907,14.46113h.8647a2.03021,2.03021,0,0,0,1.76791-1.0508V10.58965A2.03042,2.03042,0,0,0,4.89377,9.53857h-.8647A2.03137,2.03137,0,0,0,2,11.56764v.8647A2.03133,2.03133,0,0,0,4.02907,14.46113ZM2.86358,11.56764a1.16686,1.16686,0,0,1,1.16549-1.16549h.8647a1.16641,1.16641,0,0,1,1.0132.60717l-.00007,0a1.14173,1.14173,0,0,1,.15208.55829v.8647a1.14178,1.14178,0,0,1-.15208.55829l.00007,0a1.16642,1.16642,0,0,1-1.0132.60689h-.8647a1.16663,1.16663,0,0,1-1.16549-1.16521Z" transform="translate(-2 -3.59474)"/><path class="cls-1" d="M17.3386,7.46622a2.03079,2.03079,0,0,0,1.76791,1.05108h.8647A2.0313,2.0313,0,0,0,22,6.48823v-.8647a2.03125,2.03125,0,0,0-2.02879-2.02879h-.8647a2.0313,2.0313,0,0,0-2.02907,2.02879v.12669l-5.1012,5.74268L6.92255,5.8037V5.62353A2.03124,2.03124,0,0,0,4.89377,3.59474h-.8647A2.03131,2.03131,0,0,0,2,5.62353v.8647A2.03137,2.03137,0,0,0,4.02907,8.51729h.8647A2.02879,2.02879,0,0,0,6.669,7.453a2.10716,2.10716,0,0,0,.17721-.4352l4.19521,4.72272-4.11885-.016v-.15691a1.99507,1.99507,0,0,0-.26059-.97771V13.41a2.0124,2.0124,0,0,0,.25044-.82194l4.33429.0168L6.9202,17.47544A1.99762,1.99762,0,0,0,6.662,16.534l-.00028-.00028a2.03042,2.03042,0,0,0-1.76791-1.05108h-.8647A2.03136,2.03136,0,0,0,2,17.51176v.8647a2.03132,2.03132,0,0,0,2.02907,2.02879h.8647a2.03116,2.03116,0,0,0,1.975-1.5718l5.10753-5.7498,5.1745,5.82519a2.031,2.031,0,0,0,1.95577,1.49643h.8647A2.03126,2.03126,0,0,0,22,18.37647v-.86472a2.0313,2.0313,0,0,0-2.02879-2.02907h-.8647a2.03079,2.03079,0,0,0-1.76791,1.05108,1.99242,1.99242,0,0,0-.26115.978v.01448L12.7109,12.61058l4.37934.017a2.0496,2.0496,0,0,0,2.01628,1.83355h.8647A2.03125,2.03125,0,0,0,22,12.43234v-.8647a2.0313,2.0313,0,0,0-2.02879-2.02907h-.8647a2.04674,2.04674,0,0,0-2.02907,2.02907v.19629l-4.17272-.01618L17.14133,6.9784A2.09033,2.09033,0,0,0,17.3386,7.46622ZM17.941,5.62353a1.16661,1.16661,0,0,1,1.16549-1.16521h.8647a1.16636,1.16636,0,0,1,1.16521,1.16521v.8647a1.1666,1.1666,0,0,1-1.16521,1.16549h-.8647a1.16659,1.16659,0,0,1-1.01341-.60748,1.13926,1.13926,0,0,1-.15208-.558Zm-11.882.8647a1.14019,1.14019,0,0,1-.14786.55042,1.1648,1.1648,0,0,1-1.01734.61507h-.8647A1.16686,1.16686,0,0,1,2.86358,6.48823v-.8647A1.16661,1.16661,0,0,1,4.02907,4.45832h.8647A1.16636,1.16636,0,0,1,6.059,5.62353Zm0,11.88821a1.16635,1.16635,0,0,1-1.16521,1.16521h-.8647a1.16661,1.16661,0,0,1-1.16549-1.16519v-.8647a1.16686,1.16686,0,0,1,1.16549-1.16549h.8647a1.16607,1.16607,0,0,1,1.01313.6072,1.14173,1.14173,0,0,1,.15208.55829Zm11.882-.8647a1.13926,1.13926,0,0,1,.15208-.558,1.16663,1.16663,0,0,1,1.01341-.60748h.8647a1.16661,1.16661,0,0,1,1.16521,1.16549v.8647a1.16635,1.16635,0,0,1-1.16521,1.16521h-.8647A1.16661,1.16661,0,0,1,17.941,18.37644Zm0-5.9441a1.13763,1.13763,0,0,1,.1757-.6027,1.15822,1.15822,0,0,1,.9898-.56279h.8647a1.1666,1.1666,0,0,1,1.16521,1.16549v.8647a1.16637,1.16637,0,0,1-1.16521,1.16521h-.8647a1.16658,1.16658,0,0,1-1.01341-.6072,1.13926,1.13926,0,0,1-.15208-.558Z" transform="translate(-2 -3.59474)"/></svg>