<svg id="Layer_2" data-name="Layer 2" xmlns="http://www.w3.org/2000/svg" viewBox="0 0 20.11153 19.125"><defs><style>.cls-1{fill:#41494f;}</style></defs><title>New_Games</title><path class="cls-1" d="M22.00236,9.69278a.86949.86949,0,0,0-.74783-.57669L15.3699,8.591,12.79847,2.95153a.87783.87783,0,0,0-1.5976,0L8.62944,8.591l-5.88529.52512a.878.878,0,0,0-.54052,1.4975l4.34214,4.31016-1.08432,5.5709a.87787.87787,0,0,0,1.25322.9537l5.28426-2.63273,5.28361,2.65351a.87808.87808,0,0,0,1.25572-.95184l-1.08485-5.59852,4.34122-4.30465A.86982.86982,0,0,0,22.00236,9.69278Zm-.77675.34728h0l-4.49445,4.45672a.40422.40422,0,0,0-.11221.36385l1.12589,5.81031a.06979.06979,0,0,1-.09971.07577l-5.464-2.744a.40478.40478,0,0,0-.36162-.00054L6.35425,20.72486a.06552.06552,0,0,1-.0734-.00684.06471.06471,0,0,1-.02618-.06893L7.3803,14.86615a.40371.40371,0,0,0-.11194-.36385L2.77285,10.03979A.06964.06964,0,0,1,2.816,9.92114l6.11957-.54591a.40385.40385,0,0,0,.33175-.23494l2.6689-5.85359a.06978.06978,0,0,1,.12694,0l2.6689,5.85359a.40385.40385,0,0,0,.33175.23494l6.11891.54591a.06963.06963,0,0,1,.04288.11892Z" transform="translate(-1.94423 -2.4375)"/><path class="cls-1" d="M12.15891,5.833a.40438.40438,0,0,0-.53065.21231L10.20679,9.36207a.40414.40414,0,0,0,.743.31834l1.42147-3.31676A.40418.40418,0,0,0,12.15891,5.833Z" transform="translate(-1.94423 -2.4375)"/><path class="cls-1" d="M9.72894,12.90061A9.43029,9.43029,0,0,0,9.778,13.96086H9.76669a7.38643,7.38643,0,0,0-.41515-.87161l-.52828-.93214h-.6718v2.54354h.52841v-.7661c0-.41515-.00763-.77348-.02263-1.10944l.01131-.00368a9.39061,9.39061,0,0,0,.44146.89792l.54341.9813h.60379V12.15713H9.72894Z" transform="translate(-1.94423 -2.4375)"/><polygon class="cls-1" points="9.387 11.188 10.323 11.188 10.323 10.72 9.387 10.72 9.387 10.192 10.379 10.192 10.379 9.72 8.81 9.72 8.81 12.263 10.432 12.263 10.432 11.791 9.387 11.791 9.387 11.188"/><path class="cls-1" d="M15.05464,13.19869c-.05275.30176-.10944.6001-.1472.88319h-.0075c-.03775-.28308-.07919-.55485-.13589-.85293l-.20378-1.07182H13.949l-.21507,1.04157c-.06419.31334-.12457.619-.16614.89424h-.0075c-.04157-.25625-.09432-.58458-.151-.88661l-.19245-1.0492h-.6151l.60379,2.54352h.63023l.24152-1.09445c.06038-.25651.10195-.498.1472-.78479h.0075c.03026.29071.07169.52828.12076.78479l.21507,1.09445h.62273l.65667-2.54354h-.585Z" transform="translate(-1.94423 -2.4375)"/></svg>