<svg id="Layer_2" data-name="Layer 2" xmlns="http://www.w3.org/2000/svg" viewBox="0 0 21.125 18.63875"><defs><style>.cls-1{fill:#41494f;}</style></defs><title>News-Blog</title><path class="cls-1" d="M9.60854,17.49521H4.7823a.478.478,0,1,0,0,.956H9.60854a.478.478,0,1,0,0-.956Z" transform="translate(-1.4375 -2.68062)"/><path class="cls-1" d="M16.82625,17.49521H12a.478.478,0,1,0,0,.956h4.82625a.478.478,0,1,0,0-.956Z" transform="translate(-1.4375 -2.68062)"/><path class="cls-1" d="M16.82625,5.54876H4.7823a.478.478,0,1,0,0,.956h12.044a.478.478,0,1,0,0-.956Z" transform="translate(-1.4375 -2.68062)"/><path class="cls-1" d="M16.82625,7.93749H12a.478.478,0,0,0,0,.956h4.82625a.478.478,0,0,0,0-.956Z" transform="translate(-1.4375 -2.68062)"/><path class="cls-1" d="M16.82625,10.32624H12a.478.478,0,0,0,0,.956h4.82625a.478.478,0,0,0,0-.956Z" transform="translate(-1.4375 -2.68062)"/><path class="cls-1" d="M16.82625,12.715H12a.478.478,0,0,0,0,.956h4.82625a.478.478,0,0,0,0-.956Z" transform="translate(-1.4375 -2.68062)"/><path class="cls-1" d="M16.82625,15.10646H12a.478.478,0,1,0,0,.956h4.82625a.478.478,0,1,0,0-.956Z" transform="translate(-1.4375 -2.68062)"/><path class="cls-1" d="M9.60854,15.10646H4.7823a.478.478,0,1,0,0,.956H9.60854a.478.478,0,1,0,0-.956Z" transform="translate(-1.4375 -2.68062)"/><path class="cls-1" d="M9.61125,7.93749H4.7823a.47667.47667,0,0,0-.47667.47667v4.829a.47666.47666,0,0,0,.47667.47667H9.60854a.47668.47668,0,0,0,.47938-.474V8.41416A.47667.47667,0,0,0,9.61125,7.93749Zm-.47938,4.82625H5.26167V8.89354h3.8702Z" transform="translate(-1.4375 -2.68062)"/><path class="cls-1" d="M21.60647,5.06938H20.171V3.63667a.956.956,0,0,0-.956-.956H2.39355a.956.956,0,0,0-.956.956v15.294a2.39149,2.39149,0,0,0,2.38875,2.38875H20.171a2.39146,2.39146,0,0,0,2.39146-2.38875V6.02541A.956.956,0,0,0,21.60647,5.06938Zm-.00271,13.85854a1.43541,1.43541,0,0,1-1.43272,1.4327H3.82625a1.43539,1.43539,0,0,1-1.4327-1.43V3.63667H19.215V18.21291a1.19709,1.19709,0,0,0,1.19437,1.19438.478.478,0,0,0,0-.956.23834.23834,0,0,1-.23833-.23833V6.02541h1.43272Z" transform="translate(-1.4375 -2.68062)"/></svg>