<?xml version="1.0" encoding="utf-8"?>
<!-- Generator: Adobe Illustrator 19.2.1, SVG Export Plug-In . SVG Version: 6.00 Build 0)  -->
<svg version="1.1" id="Layer_2" xmlns="http://www.w3.org/2000/svg" xmlns:xlink="http://www.w3.org/1999/xlink" x="0px" y="0px"
	 viewBox="0 0 24 24" style="enable-background:new 0 0 24 24;" xml:space="preserve">
<style type="text/css">
	.st0{fill:#666666;}
</style>
<path class="st0" d="M13.89,12.59c0.1,0.13,0.26,0.18,0.42,0.14c1.64-0.48,2.63-1.25,2.96-2.29c0.33-1.03-0.05-2.25-1.08-3.55
	c-0.44-0.55-0.96-0.93-1.42-1.26c-1.01-0.73-1.67-1.21-1.2-3.16c0.04-0.17-0.03-0.34-0.18-0.43c-0.15-0.09-0.34-0.07-0.46,0.05
	C9.67,5.06,8.87,7.1,8.73,8.19c-0.28-0.44-0.2-1.14-0.2-1.15c0.02-0.18-0.08-0.35-0.25-0.42c-0.17-0.06-0.36,0-0.46,0.15
	c-0.83,1.26-1.11,2.5-0.84,3.69c0.43,1.91,2.12,2.96,2.19,3c0.01,0.01,0.09,0.05,0.23,0.12c-0.55,0.09-1.11,0.2-1.68,0.34
	c-0.15,0.04-0.26,0.15-0.29,0.3c-0.03,0.15,0.03,0.3,0.15,0.39l0.11,0.08c1.08,0.81,2.42,1.82,2.73,2.9
	c0.03,0.33,0.03,2.6,0.03,3.99c0,0.1,0.04,0.2,0.11,0.28c0.07,0.07,0.17,0.11,0.28,0.11h2.77c0.1,0,0.2-0.04,0.28-0.12
	c0.07-0.07,0.11-0.17,0.11-0.28c-0.01-1.4-0.01-3.68,0.01-4c0,0,0-0.01,0-0.01c0.13-0.66,1.05-1.44,1.95-2.19
	c0.31-0.26,0.62-0.52,0.92-0.79c0.11-0.1,0.15-0.24,0.12-0.38c-0.03-0.14-0.14-0.25-0.27-0.29c-1.55-0.44-3.16-0.64-4.84-0.59
	c-0.03-0.05-0.08-0.09-0.13-0.12c-0.08-0.04-0.24-0.16-0.31-0.41c-0.07-0.25-0.08-0.68,0.23-1.35l0.45,0.32
	c0.13,0.09,0.3,0.1,0.44,0.02c0.14-0.08,0.21-0.24,0.18-0.4c-0.01-0.09-0.04-0.19-0.07-0.3c-0.16-0.58-0.39-1.43,0.53-2.56
	c0.52,0.67,1.39,2.38,0.68,3.6C13.78,12.29,13.79,12.46,13.89,12.59z M10.68,16.43c0.89-0.06,2.13-0.06,3.07,0
	c-0.19,0.25-0.34,0.5-0.43,0.75c-0.77-0.07-1.51-0.07-2.23,0C10.98,16.92,10.84,16.67,10.68,16.43z M13.2,21.22h-1.99
	c0.01-2.77,0-3.53-0.06-3.8l0.01,0c0-0.01,0-0.01-0.01-0.02c0.67-0.06,1.37-0.06,2.09,0c0,0.02-0.01,0.03-0.01,0.05l0.01,0
	C13.19,17.74,13.19,18.55,13.2,21.22z M15.79,14.51c-0.11,0.1-0.23,0.19-0.34,0.29c-0.49,0.41-0.96,0.81-1.34,1.21
	c-1.08-0.1-2.73-0.1-3.76-0.01c-0.47-0.55-1.06-1.04-1.64-1.49C11.25,14,13.58,14,15.79,14.51z M13.4,7.65
	c-0.16-0.12-0.38-0.1-0.51,0.05c-1.08,1.13-1.21,2.14-1.14,2.86c-0.09-0.06-0.19-0.08-0.3-0.06c-0.11,0.02-0.2,0.09-0.26,0.19
	c-0.52,0.91-0.69,1.7-0.51,2.35c0.02,0.06,0.04,0.11,0.06,0.16c-0.65-0.09-1.17-0.39-1.17-0.39c-0.01-0.01-1.48-0.93-1.83-2.51
	c-0.14-0.64-0.08-1.31,0.18-2C8.09,8.76,8.43,9.17,9.03,9.3C9.16,9.33,9.3,9.29,9.39,9.2C9.49,9.11,9.53,8.97,9.5,8.84
	c-0.07-0.34-0.2-2.09,3.13-5.4c-0.05,1.58,0.82,2.21,1.67,2.82c0.44,0.31,0.89,0.64,1.26,1.11c0.86,1.08,1.19,2.06,0.95,2.82
	c-0.19,0.61-0.77,1.13-1.67,1.51C15.18,10.01,14,8.09,13.4,7.65z"/>
</svg>
