<svg id="Layer_2" data-name="Layer 2" xmlns="http://www.w3.org/2000/svg" viewBox="0 0 19.88 19.90004"><defs><style>.cls-1{fill:#41494e;}</style></defs><title>Open_Bets</title><path class="cls-1" d="M21.61,11.67H17.72L12.07,2.21a.31927.31927,0,0,0-.28-.16.33135.33135,0,0,0-.28.16L5.34,11.67H2.39a.333.333,0,0,0-.33.33v9.62a.333.333,0,0,0,.33.33H21.61a.333.333,0,0,0,.33-.33V12A.333.333,0,0,0,21.61,11.67ZM11.79,3.01l5.15,8.65H6.13Zm9.5,18.27H2.73V12.33H21.29Z" transform="translate(-2.06 -2.04998)"/><path class="cls-1" d="M5.95,19.16a2.18555,2.18555,0,0,0,1.59-.63,3.03677,3.03677,0,0,0,.81-2.13A1.67307,1.67307,0,0,0,6.59,14.56,2.23424,2.23424,0,0,0,5.03,15.18a3.07769,3.07769,0,0,0-.83,2.14,1.69663,1.69663,0,0,0,1.75,1.84Zm-.32-3.57a1.20992,1.20992,0,0,1,.88-.38c.82,0,1.02.63,1.02,1.22a2.66749,2.66749,0,0,1-.6,1.7,1.23929,1.23929,0,0,1-.87.38c-.75,0-1.05-.56-1.05-1.23A2.6027,2.6027,0,0,1,5.63,15.59Z" transform="translate(-2.06 -2.04998)"/><path class="cls-1" d="M9.67,17.4c.12.01.26.03.42.03a2.2921,2.2921,0,0,0,1.39-.42,1.51487,1.51487,0,0,0,.57-1.21,1.05162,1.05162,0,0,0-.41-.88,1.88657,1.88657,0,0,0-1.14-.32,4.66606,4.66606,0,0,0-1.08.11L8.59,19.08H9.35Zm.4-2.13a1.42873,1.42873,0,0,1,.42-.04c.43,0,.77.17.77.64-.00079.01892-.00208.03778-.004.05664A.98439.98439,0,0,1,10.18,16.81a1.642,1.642,0,0,1-.4-.04Z" transform="translate(-2.06 -2.04998)"/><polygon class="cls-1" points="12.77 16.38 10.97 16.38 11.22 15.05 12.82 15.05 12.95 14.4 11.34 14.4 11.56 13.23 13.26 13.23 13.39 12.58 10.92 12.58 10.07 17.03 12.64 17.03 12.77 16.38"/><path class="cls-1" d="M16.12,19.08l.36-1.9c.12-.66.21-1.21.26-1.63l.03-.01a10.46208,10.46208,0,0,0,.42,1.43l.8,2.11h.79l.85-4.45H18.9l-.37,1.95a12.14766,12.14766,0,0,0-.2,1.50995h-.01a11.81571,11.81571,0,0,0-.4-1.39l-.78-2.07h-.88l-.85,4.45Z" transform="translate(-2.06 -2.04998)"/></svg>