<svg id="Layer_2" data-name="Layer 2" xmlns="http://www.w3.org/2000/svg" viewBox="0 0 20.10752 20.16667"><defs><style>.cls-1{fill:#41494f;}</style></defs><title>Other_Games</title><path class="cls-1" d="M22.03552,11.84328a.45508.45508,0,0,0-.30984-.30984l-.99253-.28827A3.424,3.424,0,0,1,18.68806,6.308l.498-.90539a.45514.45514,0,0,0-.618-.61816l-.90539.49773A3.424,3.424,0,0,1,12.72511,3.2371l-.28827-.9922a.455.455,0,0,0-.874.00015l-.288.992A3.424,3.424,0,0,1,6.33731,5.28222l-.90539-.49773a.45509.45509,0,0,0-.618.618l.49773.90539a3.42372,3.42372,0,0,1-2.04513,4.93726l-.9922.28827a.45512.45512,0,0,0,0,.874l.99249.28829A3.42383,3.42383,0,0,1,5.31164,17.6331l-.49773.90541a.45509.45509,0,0,0,.618.618l.90539-.49788a3.40871,3.40871,0,0,1,2.46108-.32649.455.455,0,1,0,.21683-.88376,4.30912,4.30912,0,0,0-2.70813.21509,4.33557,4.33557,0,0,0-2.35828-5.69305,4.335,4.335,0,0,0,2.35828-5.6929,4.33521,4.33521,0,0,0,5.69276-2.35784,4.3357,4.3357,0,0,0,5.69276,2.358,4.33568,4.33568,0,0,0,2.31876,5.67626l.03981.0165a4.33518,4.33518,0,0,0-2.37546,5.652l.01689.04077a4.304,4.304,0,0,0-2.77453-.19791.455.455,0,0,0,.22944.88063l.00165-.00043a3.40366,3.40366,0,0,1,2.51352.31315l.90539.49788a.45509.45509,0,0,0,.618-.618l-.498-.90554a3.424,3.424,0,0,1,2.04542-4.93728l.9922-.28827A.4551.4551,0,0,0,22.03552,11.84328Z" transform="translate(-1.94624 -1.91667)"/><path class="cls-1" d="M11.97022,18.54725A1.768,1.768,0,1,0,13.738,20.31551v-.00015A1.77,1.77,0,0,0,11.97022,18.54725Zm.85769,1.76812a.85784.85784,0,1,1,0-.0003Z" transform="translate(-1.94624 -1.91667)"/><path class="cls-1" d="M16.29689,11.51552a4.15158,4.15158,0,0,0-8.28746.17939l-.00178.14873a1.04589,1.04589,0,0,0,.21448.81725.92727.92727,0,0,0,.68438.23212h1.31307c.98923,0,1.01114-.77311,1.01175-1.17055a.92912.92912,0,1,1,1.57821.7774c-.14043.14043-.338.31419-.5472.498-.86925.76481-2.06024,1.81211-2.06024,2.94133v1.31305a.89373.89373,0,0,0,.89265.89265h1.31305a.89369.89369,0,0,0,.89261-.89265V16.4362a4.952,4.952,0,0,1,1.1691-1.142c.2302-.18487.44766-.35952.60764-.51269A4.01964,4.01964,0,0,0,16.29689,11.51552ZM14.4479,14.124c-.13154.12589-.33389.28842-.54839.46069-.80644.64764-1.38593,1.14877-1.4997,1.70027l-.00952.04548.01752.90435-1.29557.01748V15.93922c0-.71756,1.05382-1.64457,1.75123-2.258.2204-.19376.4284-.37685.58957-.53787a1.84,1.84,0,0,0-1.30328-3.14116,1.80913,1.80913,0,0,0-.9614.27242,1.84756,1.84756,0,0,0-.8645,1.37334l-.00267.048a2.12473,2.12473,0,0,1-.01274.28279.838.838,0,0,1-.08888.00415H8.916c0-.04.00089-.0837.00148-.12325l.00178-.14532a3.23736,3.23736,0,0,1,5.01342-2.57722,3.29269,3.29269,0,0,1,1.45763,2.4559A3.11365,3.11365,0,0,1,14.4479,14.124Z" transform="translate(-1.94624 -1.91667)"/></svg>