<svg id="Layer_2" data-name="Layer 2" xmlns="http://www.w3.org/2000/svg" viewBox="0 0 20.60883 15.45662"><defs><style>.cls-1{fill:#41494e;}</style></defs><title>PassShow</title><path class="cls-1" d="M11.99105,19.22645A11.13591,11.13591,0,0,1,1.75054,11.83179a.91546.91546,0,0,1,0-.66766A11.138,11.138,0,0,1,11.99105,3.76983a11.13953,11.13953,0,0,1,10.24231,7.39431.91638.91638,0,0,1,0,.66766A11.1374,11.1374,0,0,1,11.99105,19.22645ZM3.5557,11.4979A9.30879,9.30879,0,0,0,11.99105,17.408a9.31012,9.31012,0,0,0,8.43707-5.91006,9.313,9.313,0,0,0-8.43707-5.91006A9.31165,9.31165,0,0,0,3.5557,11.4979Z" transform="translate(-1.6875 -3.76983)"/><path class="cls-1" d="M11.99195,15.48365a4.092,4.092,0,1,1,4.03172-4.15144l.00044.05986A4.066,4.066,0,0,1,11.99195,15.48365Z" transform="translate(-1.6875 -3.76983)"/></svg>