<svg id="Layer_2" data-name="Layer 2" xmlns="http://www.w3.org/2000/svg" viewBox="0 0 20.625 17.9637"><defs><style>.cls-1{fill:#41494e;}</style></defs><title>PassHyde</title><path class="cls-1" d="M22.24937,11.236a12.19536,12.19536,0,0,0-1.73412-3.04018l-1.28506,1.285a10.419,10.419,0,0,1,1.21219,2.085A9.31524,9.31524,0,0,1,11.99919,17.404q-.33561,0-.66663-.0263L9.75984,18.95036a10.38227,10.38227,0,0,0,2.23935.25A11.1378,11.1378,0,0,0,22.2494,11.89555.89306.89306,0,0,0,22.24937,11.236Z" transform="translate(-1.6875 -3.01815)"/><path class="cls-1" d="M20.6406,3.01815,17.90137,5.76548a10.52158,10.52158,0,0,0-5.90221-1.83424A11.13633,11.13633,0,0,0,1.75068,11.236a.89227.89227,0,0,0,0,.65955A11.737,11.737,0,0,0,6.244,17.45721L4.00056,19.70732l1.27,1.27453L21.91072,4.2917Zm-17.083,8.54769a9.3139,9.3139,0,0,1,8.4416-5.83822A8.71958,8.71958,0,0,1,16.6091,7.06155L14.89853,8.77716A3.99288,3.99288,0,0,0,12,7.524a4.04627,4.04627,0,0,0-4.04187,4.04187,3.99,3.99,0,0,0,1.26255,2.9059L7.54023,16.1572A9.86454,9.86454,0,0,1,3.55756,11.56584Z" transform="translate(-1.6875 -3.01815)"/></svg>