<svg id="Layer_2" data-name="Layer 2" xmlns="http://www.w3.org/2000/svg" viewBox="0 0 21.44531 21.44531"><defs><style>.cls-1{fill:#41494e;}</style></defs><title>Play</title><path class="cls-1" d="M12.00024,1.27734a10.72266,10.72266,0,1,0,10.72241,10.7229v-.00006A10.72322,10.72322,0,0,0,12.00024,1.27734ZM18.554,18.554a9.26858,9.26858,0,1,1,2.71478-6.55377A9.26851,9.26851,0,0,1,18.554,18.554Z" transform="translate(-1.27734 -1.27734)"/><path class="cls-1" d="M15.73083,10.375h-.00006L11.18542,7.34424a1.95334,1.95334,0,0,0-3.03711,1.625v6.061a1.95234,1.95234,0,0,0,3.03711,1.626L15.73035,13.625a1.95219,1.95219,0,0,0,.00049-3.25Zm-.70618,1.87659a.45275.45275,0,0,1-.12543.12543l-4.5459,3.03125a.45364.45364,0,0,1-.70508-.37793V8.9693a.4434.4434,0,0,1,.23926-.39941.47071.47071,0,0,1,.21777-.0556.44039.44039,0,0,1,.248.07813l4.5459,3.03076A.45309.45309,0,0,1,15.02466,12.25159Z" transform="translate(-1.27734 -1.27734)"/></svg>