<?xml version="1.0" encoding="utf-8"?>
<!-- Generator: Adobe Illustrator 19.2.1, SVG Export Plug-In . SVG Version: 6.00 Build 0)  -->
<svg version="1.1" id="Layer_2" xmlns="http://www.w3.org/2000/svg" xmlns:xlink="http://www.w3.org/1999/xlink" x="0px" y="0px"
	 viewBox="0 0 24 24" style="enable-background:new 0 0 24 24;" xml:space="preserve">
<style type="text/css">
	.st0{fill:#666666;}
</style>
<g>
	<path class="st0" d="M11.95,22c-2.67,0-5.19-1.04-7.08-2.93c-1.89-1.89-2.93-4.4-2.93-7.08c0-2.67,1.04-5.19,2.93-7.08
		c1.89-1.89,4.4-2.93,7.08-2.93c2.67,0,5.19,1.04,7.08,2.93c1.89,1.89,2.93,4.4,2.93,7.08c0,2.67-1.04,5.19-2.93,7.08
		C17.13,20.96,14.62,22,11.95,22z M11.95,2.79c-2.46,0-4.77,0.96-6.51,2.7c-1.74,1.74-2.7,4.05-2.7,6.51c0,2.46,0.96,4.77,2.7,6.51
		c1.74,1.74,4.05,2.7,6.51,2.7c2.46,0,4.77-0.96,6.51-2.7c1.74-1.74,2.7-4.05,2.7-6.51c0-2.46-0.96-4.77-2.7-6.51
		C16.72,3.74,14.41,2.79,11.95,2.79z"/>
	<path class="st0" d="M11.95,19.72c-0.22,0-0.4-0.18-0.4-0.4c0-0.22,0.18-0.4,0.4-0.4c3.82,0,6.92-3.11,6.92-6.92
		c0-0.22,0.18-0.4,0.4-0.4c0.22,0,0.4,0.18,0.4,0.4C19.67,16.25,16.21,19.72,11.95,19.72z"/>
	<path class="st0" d="M11.95,17.56c-3.07,0-5.57-2.5-5.57-5.57c0-3.07,2.5-5.57,5.57-5.57c3.07,0,5.57,2.5,5.57,5.57
		C17.51,15.06,15.02,17.56,11.95,17.56z M11.95,7.23c-2.63,0-4.76,2.14-4.76,4.76c0,2.63,2.14,4.76,4.76,4.76s4.76-2.14,4.76-4.76
		C16.71,9.36,14.57,7.23,11.95,7.23z"/>
	<g>
		<g>
			<path class="st0" d="M11.95,12.03c-0.03,0-0.06,0-0.08-0.01c-0.04-0.01-0.4-0.09-0.76-0.31c-0.54-0.33-0.83-0.8-0.83-1.36
				c0-0.92,0.75-1.67,1.67-1.67c0.22,0,0.4,0.18,0.4,0.4c0,0.22-0.18,0.4-0.4,0.4c-0.48,0-0.87,0.39-0.87,0.87
				c0,0.1,0,0.4,0.44,0.67c0.25,0.15,0.51,0.21,0.51,0.21c0.22,0.05,0.36,0.26,0.31,0.48C12.3,11.9,12.13,12.03,11.95,12.03z"/>
			<path class="st0" d="M11.95,15.31c-0.22,0-0.4-0.18-0.4-0.4c0-0.22,0.18-0.4,0.4-0.4c0.83,0,1.14-0.67,1.14-1.09
				c0-1.06-1.23-1.4-1.24-1.4c-0.21-0.06-0.34-0.28-0.29-0.49c0.06-0.21,0.28-0.34,0.49-0.29c0.64,0.17,1.84,0.84,1.84,2.17
				C13.89,14.34,13.16,15.31,11.95,15.31z"/>
		</g>
		<g>
			<path class="st0" d="M11.95,12.03c-0.19,0-0.35-0.13-0.39-0.32c-0.05-0.22,0.09-0.43,0.31-0.48c0.02,0,0.96-0.22,0.96-0.88
				c0-0.48-0.39-0.87-0.87-0.87c-0.22,0-0.4-0.18-0.4-0.4c0-0.22,0.18-0.4,0.4-0.4c0.92,0,1.67,0.75,1.67,1.67
				c0,0.56-0.29,1.03-0.83,1.36c-0.37,0.22-0.72,0.3-0.76,0.31C12,12.02,11.97,12.03,11.95,12.03z"/>
			<path class="st0" d="M11.95,15.31c-0.57,0-1.08-0.22-1.44-0.61c-0.32-0.35-0.5-0.81-0.5-1.28c0-1.34,1.2-2.01,1.84-2.17
				c0.21-0.06,0.43,0.07,0.49,0.29c0.06,0.21-0.07,0.43-0.29,0.49c-0.05,0.01-1.24,0.35-1.24,1.4c0,0.42,0.31,1.09,1.14,1.09
				c0.22,0,0.4,0.18,0.4,0.4C12.35,15.13,12.17,15.31,11.95,15.31z"/>
		</g>
	</g>
</g>
</svg>
