<svg id="Layer_2" data-name="Layer 2" xmlns="http://www.w3.org/2000/svg" viewBox="0 0 21.00833 21"><defs><style>.cls-1{fill:#41494e;}</style></defs><title>Price</title><path class="cls-1" d="M22.11655,8.44379,15.5579,1.88508a1.32757,1.32757,0,0,0-1.24878-.34742,1.21473,1.21473,0,0,0-.619.34742,1.32406,1.32406,0,0,0-.32575.54294,6.05406,6.05406,0,0,1-1.57453,2.56271A18.11185,18.11185,0,0,1,8.04368,7.58591a19.68474,19.68474,0,0,0-4.26754,2.997,8.63135,8.63135,0,0,0-2.226,3.64858,1.28868,1.28868,0,0,0-.05428.34742v.03261a1.35822,1.35822,0,0,0,.38.9447l6.55871,6.55865a1.32765,1.32765,0,0,0,1.24871.34749,1.25944,1.25944,0,0,0,.619-.34749A1.21588,1.21588,0,0,0,10.628,21.572a5.94945,5.94945,0,0,1,1.57453-2.56264,17.8296,17.8296,0,0,1,3.74627-2.59525,20.23658,20.23658,0,0,0,4.27834-3.01869,8.77226,8.77226,0,0,0,2.226-3.63771A1.34946,1.34946,0,0,0,22.11655,8.44379ZM9.36841,21.17019c-2.18261-2.17174-4.39777-4.39777-6.55865-6.55865,1.86767-6.03745,9.94656-5.77685,11.8143-11.8143,2.17174,2.17174,4.39777,4.3869,6.55865,6.55865C19.32585,15.40421,11.23608,15.14361,9.36841,21.17019Z" transform="translate(-1.49584 -1.5)"/><path class="cls-1" d="M11.61618,16.06657a.36161.36161,0,0,0-.456-.02167A11.54227,11.54227,0,0,0,9.9765,17.06562,9.01425,9.01425,0,0,0,9.02093,18.184l-.456.619a.32995.32995,0,0,0,.51033.41264c.02174-.02174.03261-.04341.05435-.06515L9.553,18.575a8.84206,8.84206,0,0,1,.90129-1.04246,10.6124,10.6124,0,0,1,1.12928-.96644c.01087-.01087.02174-.01087.03261-.03254a.32774.32774,0,0,0,.00345-.46347Z" transform="translate(-1.49584 -1.5)"/><path class="cls-1" d="M14.33086,11.267a1.73707,1.73707,0,0,0-.64069-.35836,2.22782,2.22782,0,0,0-.6515-.076,2.02855,2.02855,0,0,0-.6515.152,5.87749,5.87749,0,0,0-.66243.29321c-.35829-.41264-.70578-.80354-1.06413-1.17276a.73284.73284,0,0,1,.456-.21712,1.44041,1.44041,0,0,1,.43438.04341c.14117.03254.2606.06515.38.08689a.36838.36838,0,0,0,.31495-.076.40139.40139,0,0,0,.152-.31495.50574.50574,0,0,0-.152-.38.79678.79678,0,0,0-.49953-.29321,1.64151,1.64151,0,0,0-.60809.01087,2.14907,2.14907,0,0,0-.59722.23893,1.90409,1.90409,0,0,0-.44524.33662l-.1303-.1303a.24611.24611,0,0,0-.17371-.06515.22669.22669,0,0,0-.17378.08682.20831.20831,0,0,0-.06515.18465.2432.2432,0,0,0,.08689.16284c.04341.03261.08689.076.1303.10863a2.81031,2.81031,0,0,0-.41264.66237,2.24525,2.24525,0,0,0-.19545.695,1.556,1.556,0,0,0,.06515.64063,1.2471,1.2471,0,0,0,.3909.5212,1.51,1.51,0,0,0,1.09674.33662,3.4344,3.4344,0,0,0,1.36821-.41257c.38.456.7818.90123,1.16189,1.303a1.14683,1.14683,0,0,1-.43438.2498.58207.58207,0,0,1-.33662-.01087,2.40152,2.40152,0,0,1-.29314-.1303c-.08689-.05428-.17378-.10863-.26067-.152a.5883.5883,0,0,0-.27147-.06515.49177.49177,0,0,0-.29314.1303.41616.41616,0,0,0-.16291.32575.52962.52962,0,0,0,.17378.36923,1.318,1.318,0,0,0,.43431.31488,1.62028,1.62028,0,0,0,1.28132.04341,1.9197,1.9197,0,0,0,.71671-.48859c.11943.10856.228.21712.34749.31488a.24052.24052,0,0,0,.34742-.04341.22121.22121,0,0,0,.05435-.19545.2432.2432,0,0,0-.08689-.16291c-.11943-.09776-.22806-.19545-.34749-.29321a3.77177,3.77177,0,0,0,.47779-.74925,2.19062,2.19062,0,0,0,.20632-.71665,1.16657,1.16657,0,0,0-.08689-.619A1.20234,1.20234,0,0,0,14.33086,11.267Zm-3.67025.44524a.61654.61654,0,0,1-.48866-.19545.51483.51483,0,0,1-.1303-.20632.56834.56834,0,0,1-.02174-.27147.86628.86628,0,0,1,.08689-.30408,1.09525,1.09525,0,0,1,.21719-.31488c.33662.33662.66237.6841.999,1.06413A1.46,1.46,0,0,1,10.6606,11.71228Zm3.09471,1.31386a1.4171,1.4171,0,0,1-.20632.29321c-.36916-.36923-.73839-.78186-1.10754-1.2053l.29314-.1303a2.05945,2.05945,0,0,1,.31495-.09776,1.09367,1.09367,0,0,1,.32575.01087.66964.66964,0,0,1,.304.17371.51967.51967,0,0,1,.17378.29321.71858.71858,0,0,1,.02174.33662A.98913.98913,0,0,1,13.75531,13.02614Z" transform="translate(-1.49584 -1.5)"/><path class="cls-1" d="M14.9642,4.81456a.29923.29923,0,0,0-.02525.02412.236.236,0,0,0-.05428.08689l-.43438.59722a9.85472,9.85472,0,0,1-.89042,1.0424A10.35457,10.35457,0,0,1,12.45232,7.51a.32766.32766,0,0,0-.076.05428.34073.34073,0,0,0,0,.47779.32471.32471,0,0,0,.456.01087A13.0796,13.0796,0,0,0,14.016,7.03217a11.04272,11.04272,0,0,0,.95551-1.10761l.44524-.619a.33588.33588,0,0,0-.02174-.456A.30561.30561,0,0,0,14.9642,4.81456Z" transform="translate(-1.49584 -1.5)"/></svg>