<svg id="Layer_2" xmlns="http://www.w3.org/2000/svg" viewBox="0 0 24 24"><style>.st0{fill:#666666;}</style><path class="st0" d="M10.16 6.51c.04.04.07.07.11.09.04.02.07.04.09.05l.57-.45v2.33h.76V5.37c-.01 0-.02-.01-.04-.02s-.05-.02-.09-.03l-.12-.03c-.05-.01-.09-.01-.14-.01-.06 0-.12.01-.17.02-.05.01-.1.03-.15.05-.05.02-.1.05-.15.08-.05.03-.11.07-.17.12l-.28.21c-.11.08-.2.16-.26.22-.06.07-.09.15-.09.27 0 .05.01.1.04.15.02.03.05.07.09.11zM21.79 14.78c-.22-.33-.65-.55-1.09-.55h-.04c-.21 0-.43.05-.68.14l-.29.1-.12-.29c-.05-.11-.11-.22-.19-.31-.2-.23-.49-.36-.83-.36-.12 0-.24.02-.37.05-.21.05-.43.14-.64.26l-.23.13-.17-.2c-.06-.07-.13-.13-.21-.18-.15-.09-.32-.13-.53-.13-.65 0-1.47.44-2.2.86l-1.76.94c-.09.05-.15.12-.17.21-.4-.05-.78-.15-1.13-.31-.78-.37-1.47-.91-2.21-1.47-.33-.26-.68-.52-1.03-.77-.32-.23-.74-.34-1.22-.34-.21 0-.43.02-.65.07-.64.13-1.24.39-1.82.65-.2.09-.4.18-.6.26l-1.39.56c-.18.07-.27.28-.19.46.05.13.18.22.32.22.05 0 .09-.01.13-.03l1.39-.56.57-.24.05-.02c.57-.25 1.12-.49 1.68-.6.18-.04.35-.05.52-.05.33 0 .61.08.81.22.34.24.67.5 1 .75.73.56 1.48 1.14 2.33 1.55.93.44 2.01.45 2.97.46.22 0 .44 0 .65.01.12 0 .25.01.32.02l.51.06-.28.43c-.04.07-.14.17-.45.32-.84.39-1.74.59-2.59.59-.2 0-.39-.01-.59-.03-1.11-.12-2.18-.67-3.12-1.16-.05-.03-.1-.04-.16-.04-.13 0-.25.07-.31.19-.08.15-.01.36.16.45 1 .51 2.13 1.09 3.36 1.23.21.02.44.04.66.04.95 0 1.95-.23 2.88-.66.36-.17.84-.45.9-1.01.05-.47-.23-.92-.66-1.07-.21-.08-.43-.08-.61-.09-.22-.01-.44-.01-.67-.01h-.41l.87-.46c.07-.04.16-.09.28-.16 1.19-.68 1.6-.76 1.81-.76h.29l.04.28c.01.04.01.08.01.15 0 .13.07.25.19.31.05.03.11.04.16.04.07 0 .14-.02.2-.06l.44-.3c.22-.15.45-.26.66-.31.08-.02.15-.03.21-.03.09 0 .15.02.16.03l.08.03.05.06c.13.15.14.44.03.73v.01c-.03.08-.03.17.01.26s.11.15.19.19c.04.02.08.02.13.02.11 0 .22-.05.29-.15l.02-.03v-.08l.1-.1.07.05c.08-.04.22-.1.46-.2.2-.08.37-.12.52-.12h.06c.21 0 .4.1.52.28l.07.11-.03.13c-.05.22-.32.47-.85.77-.72.41-1.42.86-2.1 1.29l-1.65 1.05c-.74.47-1.5.97-2.28 1.42l-.09.05c-.51.3-.99.58-1.53.73-.42.12-.84.17-1.25.17-.17 0-.33-.01-.49-.03-.53-.07-1.04-.23-1.59-.4l-.4-.13c-.22-.07-.43-.14-.65-.21l-.02-.01c-.63-.2-1.27-.41-1.94-.54-.55-.1-1.11-.16-1.66-.16-.39 0-.78.03-1.17.08-.19.03-.33.2-.3.39.02.17.17.31.35.31h.05c.36-.05.72-.07 1.08-.07.51 0 1.02.05 1.53.14.62.12 1.22.31 1.85.52.23.07.46.15.69.22l.39.12c.55.18 1.12.36 1.71.43.19.02.39.04.59.04.47 0 .95-.07 1.43-.2.63-.17 1.18-.5 1.71-.81l.08-.05c.8-.47 1.58-.97 2.34-1.46l1.61-1.03c.67-.43 1.37-.87 2.07-1.27.48-.27 1.05-.65 1.18-1.21.05-.26 0-.54-.18-.82z"/><path class="st0" d="M11.1 11.66c2.57 0 4.66-2.09 4.66-4.66 0-2.57-2.09-4.66-4.66-4.66-2.57 0-4.66 2.09-4.66 4.66 0 2.58 2.09 4.66 4.66 4.66zm0-8.61c2.18 0 3.96 1.77 3.96 3.96s-1.78 3.96-3.96 3.96-3.96-1.78-3.96-3.96 1.78-3.96 3.96-3.96zM17.26 8.94c.02.02.05.04.07.06.02.02.04.03.06.04l.38-.3v1.56h.51V8.18s-.01-.01-.03-.01c-.02-.01-.04-.01-.06-.02-.02-.01-.05-.01-.08-.02s-.06-.01-.09-.01c-.04 0-.08 0-.12.01l-.1.03c-.03.01-.07.03-.1.05-.03.02-.07.05-.11.08l-.19.14c-.07.06-.13.1-.17.15-.04.04-.06.1-.06.18 0 .04.01.07.03.1.01.03.03.06.06.08z"/><path class="st0" d="M16.16 12.01c.52.33 1.11.5 1.73.5 1.78 0 3.23-1.45 3.23-3.23 0-1.66-1.25-3.05-2.9-3.22h-.04c-.18 0-.33.14-.35.31-.02.19.12.36.31.38 1.29.13 2.27 1.21 2.27 2.52 0 1.4-1.14 2.53-2.53 2.53-.48 0-.95-.14-1.35-.39-.06-.04-.12-.05-.19-.05-.12 0-.23.06-.3.16-.09.17-.04.38.12.49z"/></svg>