<svg id="Layer_2" data-name="Layer 2" xmlns="http://www.w3.org/2000/svg" viewBox="0 0 15.93698 19.96588"><defs><style>.cls-1{fill:#41494e;}</style></defs><title>Responsible_Gambling</title><path class="cls-1" d="M13.89751,21.96732c-2.83,0-4.85-.98-6.17-2.99-1-1.52-3.36-5.09-3.36-5.09a2.08371,2.08371,0,0,1-.29-1.57,1.8162,1.8162,0,0,1,1.79-1.45,2.10866,2.10866,0,0,1,1.56.74l.54.63v-7.1a1.673,1.673,0,0,1,1.67-1.67,1.76,1.76,0,0,1,.78.19l.38.2.07-.43a1.6758,1.6758,0,0,1,3.14-.51l.16.31.29-.2a1.69776,1.69776,0,0,1,.95-.3,1.673,1.673,0,0,1,1.67,1.67v.9l.45-.23a1.68281,1.68281,0,0,1,2.44,1.49v9.74a5.72672,5.72672,0,0,1-1.35,3.8A5.83139,5.83139,0,0,1,13.89751,21.96732Zm-8.02-10.35a1.21311,1.21311,0,0,0-.59.16,1.09579,1.09579,0,0,0-.49.71,1.3256,1.3256,0,0,0,.19,1s2.36,3.57,3.36,5.09c1.19,1.81,2.96,2.66,5.56,2.66,4.96,0,5.35-3.76,5.35-4.91v-9.74a.94.94,0,1,0-1.88,0v4.69a.5.5,0,0,1-1,0v-6.85a.94.94,0,0,0-1.88,0v6.13a.5.5,0,0,1-1,0v-6.85a.94.94,0,1,0-1.88,0v6.85a.50145.50145,0,0,1-.5.5.49514.49514,0,0,1-.5-.49023V5.14731a.94.94,0,0,0-1.88,0h0v9.02a.12951.12951,0,0,1-.1.13c-.01,0-.03.01-.04.01a.12547.12547,0,0,1-.11-.06l-1.48-2.02A1.4435,1.4435,0,0,0,5.87751,11.61732Z" transform="translate(-4.03151 -2.01706)"/></svg>