<svg id="Layer_2" data-name="Layer 2" xmlns="http://www.w3.org/2000/svg" viewBox="0 0 17.25 20.48282"><defs><style>.cls-1{fill:#41494f;}</style></defs><title>Results</title><path class="cls-1" d="M20.62223,6.99742v-.094a.1272.1272,0,0,0-.01658-.03316V6.8482L16.7539,1.87188,16.729,1.84424a.11638.11638,0,0,0-.03316-.03039l-.058-.03869a.1712.1712,0,0,0-.03039-.01658H3.795a.42276.42276,0,0,0-.42.37026V21.82142a.42277.42277,0,0,0,.42.42h16.41a.42276.42276,0,0,0,.42-.42V6.99742Zm-1.271-.34539H16.84785l-.0083-3.28532ZM19.785,21.40419H4.20393V2.55436H15.99682V7.072a.42276.42276,0,0,0,.42.42H19.785Z" transform="translate(-3.375 -1.75859)"/><path class="cls-1" d="M9.32119,13.52385A2.68282,2.68282,0,0,0,10.46786,11.667a1.33859,1.33859,0,0,0-1.5114-1.35391,2.38454,2.38454,0,0,0-1.41194.44485l.27631.72393a1.5612,1.5612,0,0,1,.92286-.3592c.49735,0,.71012.27908.71012.63-.01381.50289-.46973,1.00024-1.41194,1.82917l-.55262.50289v.61065H10.559v-.82893H8.92053Z" transform="translate(-3.375 -1.75859)"/><rect class="cls-1" x="7.71456" y="10.86173" width="1.738" height="0.66866"/><path class="cls-1" d="M14.89711,10.32418c-1.12735,0-1.66339,1.02511-1.65786,2.23535S13.74765,14.77,14.85014,14.77s1.63851-.91458,1.63851-2.24916C16.48865,11.33823,16.02446,10.32418,14.89711,10.32418Zm-.01934,3.68321c-.39235,0-.62446-.46973-.62446-1.45892V12.5457c-.00553-1.00024.21-1.47.61616-1.47s.61065.478.61065,1.45891S15.27012,14.00739,14.87777,14.00739Z" transform="translate(-3.375 -1.75859)"/></svg>