<svg id="Layer_2" data-name="Layer 2" xmlns="http://www.w3.org/2000/svg" viewBox="0 0 17.12276 20.16667"><defs><style>.cls-1{fill:#41494f;}</style></defs><title>Rooms_Schedule</title><rect class="cls-1" x="8.75151" y="11.03236" width="1.14315" height="0.76297"/><path class="cls-1" d="M19.03813,21.32305V2.29686a.365.365,0,0,0-.02717-.13306.12141.12141,0,0,0,0-.02178.36155.36155,0,0,0-.07057-.10312l-.02448-.019L18.88067,1.99A.40552.40552,0,0,0,18.81,1.94923a.36749.36749,0,0,0-.13845-.03255H5.72224a.38024.38024,0,0,0-.38287.37741v19.029H3.43862v.76028H20.56138v-.76028Zm-12.93579,0V2.67965H16.25489l-5.32466,1.727a.38022.38022,0,0,0-.27159.36117V20.1799a.3802.3802,0,0,0,.30684.37472l3.85035.76844Zm12.18089-.08419-6.848-1.37126V5.04746l6.848-2.22659Z" transform="translate(-3.43862 -1.91667)"/></svg>