<?xml version="1.0" encoding="utf-8"?>
<!-- Generator: Adobe Illustrator 19.2.1, SVG Export Plug-In . SVG Version: 6.00 Build 0)  -->
<svg version="1.1" id="Layer_2" xmlns="http://www.w3.org/2000/svg" xmlns:xlink="http://www.w3.org/1999/xlink" x="0px" y="0px"
	 viewBox="0 0 24 24" style="enable-background:new 0 0 24 24;" xml:space="preserve">
<style type="text/css">
	.st0{fill:#666666;}
	.st1{fill:#FFFFFF;}
	.st2{clip-path:url(#SVGID_2_);fill:#666666;}
	.st3{clip-path:url(#SVGID_2_);fill:none;}
</style>
<g>
	<circle class="st0" cx="12.1" cy="11.91" r="2.9"/>
	<g>
		<path class="st1" d="M11.47,10.14h0.41v2.81h1.35v0.34h-1.76V10.14z"/>
	</g>
	<g>
		<g>
			<defs>
				<rect id="SVGID_1_" x="1.96" y="2.02" width="19.98" height="19.98"/>
			</defs>
			<clipPath id="SVGID_2_">
				<use xlink:href="#SVGID_1_"  style="overflow:visible;"/>
			</clipPath>
			<path class="st2" d="M6.9,21.92c-1.5,0-2.74-0.45-3.58-1.29C0.63,17.94,2.3,11.71,6.98,7.04c3.05-3.05,6.89-4.94,10.01-4.94
				c1.5,0,2.74,0.45,3.58,1.29c1.3,1.3,1.63,3.44,0.94,6.03c-0.7,2.61-2.33,5.29-4.59,7.56C13.87,20.03,10.03,21.92,6.9,21.92
				L6.9,21.92z M20.91,6.29c-0.16,0.59-0.41,1.25-0.75,1.95c-1.07,2.19-2.89,4.63-5.12,6.86c-2.95,2.95-6.32,5.21-8.78,5.87
				l0.01,0.16c0.21,0.02,0.42,0.03,0.64,0.03c2.94,0,6.57-1.81,9.48-4.72c3.12-3.12,5-7.2,4.69-10.14L20.91,6.29z M19.02,3.6
				c-1.81,0-5.6,1.83-9.62,5.86C7.22,11.64,5.45,14,4.41,16.12c-0.92,1.88-1.13,3.4-0.56,3.97c0.23,0.22,0.57,0.33,1.02,0.33
				c1.81,0,5.6-1.83,9.62-5.86c2.18-2.18,3.95-4.54,4.98-6.66c0.92-1.88,1.13-3.4,0.55-3.98C19.81,3.71,19.47,3.6,19.02,3.6z
				 M16.99,2.86c-2.94,0-6.57,1.81-9.48,4.72c-3.12,3.12-5,7.19-4.69,10.14l0.16,0.01c0.16-0.59,0.41-1.25,0.75-1.95
				c1.07-2.19,2.89-4.63,5.12-6.86c2.95-2.95,6.32-5.21,8.78-5.87l-0.01-0.16C17.42,2.87,17.2,2.86,16.99,2.86z"/>
			<rect x="2.04" y="2.1" class="st3" width="19.82" height="19.82"/>
		</g>
	</g>
</g>
</svg>
