<svg id="Layer_2" data-name="Layer 2" xmlns="http://www.w3.org/2000/svg" viewBox="0 0 20 17.84864"><defs><style>.cls-1{fill:#41494f;}</style></defs><title>Schedule</title><path class="cls-1" d="M5.81092,13.48889a.33685.33685,0,0,0-.33685.33685v.6984a.33685.33685,0,0,0,.33685.33685l-.00674-.009.00456.00005a.33685.33685,0,0,0,.339-.33466v-.69167A.33685.33685,0,0,0,5.81092,13.48889Z" transform="translate(-2 -3.07568)"/><path class="cls-1" d="M5.81316,10.0777a.33685.33685,0,0,0-.33685.33685v.6737a.33685.33685,0,0,0,.33685.33685l-.009-.009h.00023a.33685.33685,0,0,0,.3456-.32787v-.6737A.33685.33685,0,0,0,5.81316,10.0777Z" transform="translate(-2 -3.07568)"/><path class="cls-1" d="M8.89423,14.861l-.0045-.009.00229,0a.33687.33687,0,0,0,.33906-.33463v-.69167a.33685.33685,0,0,0-.6737,0v.6984A.33685.33685,0,0,0,8.89423,14.861Z" transform="translate(-2 -3.07568)"/><polygon class="cls-1" points="3.806 15.205 3.805 15.205 3.804 15.205 3.806 15.205"/><path class="cls-1" d="M5.80643,16.918a.33685.33685,0,0,0-.33685.33685v.68942a.33686.33686,0,0,0,.6737.00223v-.69166A.33685.33685,0,0,0,5.80643,16.918Z" transform="translate(-2 -3.07568)"/><path class="cls-1" d="M15.117,11.42511l-.00673-.009a.33685.33685,0,0,0,.34358-.32787v-.6737a.33685.33685,0,1,0-.6737,0v.6737A.33685.33685,0,0,0,15.117,11.42511Z" transform="translate(-2 -3.07568)"/><polygon class="cls-1" points="6.908 15.205 6.907 15.205 6.905 15.205 6.908 15.205"/><path class="cls-1" d="M12.009,16.918a.33685.33685,0,0,0-.33685.33685v.68942a.33686.33686,0,0,0,.6737.00223v-.69166A.33685.33685,0,0,0,12.009,16.918Z" transform="translate(-2 -3.07568)"/><path class="cls-1" d="M8.90771,16.918a.33685.33685,0,0,0-.33685.33685v.68942a.33686.33686,0,0,0,.6737.00223v-.69166A.33685.33685,0,0,0,8.90771,16.918Z" transform="translate(-2 -3.07568)"/><path class="cls-1" d="M18.20255,10.0777a.33685.33685,0,0,0-.33685.33685v.6737a.33685.33685,0,0,0,.33685.33685l-.00673-.0202a.33685.33685,0,0,0,.34358-.31665v-.6737A.33685.33685,0,0,0,18.20255,10.0777Z" transform="translate(-2 -3.07568)"/><path class="cls-1" d="M15.74579,12.61531H14.39839a.89827.89827,0,0,0-.89827.89827V14.861a.89826.89826,0,0,0,.89827.89827h1.34741a.89827.89827,0,0,0,.89827-.89827V13.51358A.89828.89828,0,0,0,15.74579,12.61531Zm.22457,2.24568a.22457.22457,0,0,1-.22457.22457H14.39839a.22456.22456,0,0,1-.22457-.22457V13.51358a.22457.22457,0,0,1,.22457-.22457h1.34741a.22458.22458,0,0,1,.22457.22457Z" transform="translate(-2 -3.07568)"/><path class="cls-1" d="M20.49764,4.37144H18.22052V3.41253a.33685.33685,0,0,0-.6737,0v.95891H14.29733V3.41253a.33685.33685,0,0,0-.6737,0v.95891h-3.2495V3.41253a.33685.33685,0,0,0-.6737,0v.95891H6.45093V3.41253a.33685.33685,0,1,0-.6737,0v.95891H3.50236A1.5046,1.5046,0,0,0,2,5.8738V19.422a1.5046,1.5046,0,0,0,1.50236,1.50236H20.49764A1.5046,1.5046,0,0,0,22,19.422V5.8738A1.5046,1.5046,0,0,0,20.49764,4.37144Zm-16.99528.6737H5.77723V6.11632a.33685.33685,0,1,0,.6737,0V5.04514H9.70042V6.11632a.33685.33685,0,0,0,.6737,0V5.04514h3.2495V6.11632a.33685.33685,0,0,0,.6737,0V5.04514h3.24949V6.11632a.33685.33685,0,0,0,.6737,0V5.04514h2.27712a.8309.8309,0,0,1,.82866.82866V7.43005H2.6737V5.8738A.8309.8309,0,0,1,3.50236,5.04514ZM20.49764,20.25062H3.50236A.8309.8309,0,0,1,2.6737,19.422V8.10376H21.3263V19.422A.8309.8309,0,0,1,20.49764,20.25062Z" transform="translate(-2 -3.07568)"/><path class="cls-1" d="M18.19807,13.48889a.33685.33685,0,0,0-.33685.33685v.6984a.33685.33685,0,0,0,.33685.33685l-.0045-.009.00229,0a.33686.33686,0,0,0,.33906-.33463v-.69167A.33685.33685,0,0,0,18.19807,13.48889Z" transform="translate(-2 -3.07568)"/><path class="cls-1" d="M8.91443,10.0777a.33685.33685,0,0,0-.33685.33685v.6737a.33685.33685,0,0,0,.33685.33685l-.009-.009h.00023a.33685.33685,0,0,0,.3456-.32787v-.6737A.33685.33685,0,0,0,8.91443,10.0777Z" transform="translate(-2 -3.07568)"/><path class="cls-1" d="M12.01571,10.0777a.33685.33685,0,0,0-.33685.33685v.6737a.33685.33685,0,0,0,.33685.33685l-.00673-.009a.33685.33685,0,0,0,.34358-.32787v-.6737A.33685.33685,0,0,0,12.01571,10.0777Z" transform="translate(-2 -3.07568)"/><path class="cls-1" d="M11.99551,14.861l-.0045-.009.00229,0a.33686.33686,0,0,0,.33906-.33463v-.69167a.33685.33685,0,1,0-.6737,0v.6984A.33685.33685,0,0,0,11.99551,14.861Z" transform="translate(-2 -3.07568)"/></svg>