<svg id="Layer_2" data-name="Layer 2" xmlns="http://www.w3.org/2000/svg" viewBox="0 0 12.4705 20.16668"><defs><style>.cls-1{fill:#41494e;}</style></defs><title>Scratchcards</title><path class="cls-1" d="M8.08228,22.08334h8.32666V19.48569H8.08228Zm.83569-1.762h6.6452v.9162H8.918Z" transform="translate(-5.76475 -1.91666)"/><path class="cls-1" d="M18.13068,7.333a1.90167,1.90167,0,0,0-1.01691-1.10754L15.47,5.48977A4.077,4.077,0,1,0,7.62251,7.4667l-1.4834,2.58478a1.97065,1.97065,0,0,0-.28192,1.752l2.34595,6.766h8.04474l.11072-.2417c1.46259-2.934-.42889-7.26367-1.50439-9.30481a7.3837,7.3837,0,0,0,1.95752.36407A1.26249,1.26249,0,0,0,18.02,8.83322,1.90035,1.90035,0,0,0,18.13068,7.333Zm-8.16925-4.222A3.25849,3.25849,0,0,1,14.66712,6.014a3.29978,3.29978,0,0,1-.09778.7818c-.0069.02759-.01459.05481-.02216.08215a3.21108,3.21108,0,0,1-.26892.68164c-.00513.0094-.00836.01965-.01355.029a3.17687,3.17687,0,0,1-.39874.54962l-.07483.08081a3.01846,3.01846,0,0,1-.53149.45538l-.01489.01233c-.02118.01422-.04633.022-.06781.03564V7.28262a1.75192,1.75192,0,0,0-3.50385,0V8.73294c-.07251-.04712-.13556-.107-.2041-.15973a3.22008,3.22008,0,0,1-.30872-.25635,3.30211,3.30211,0,0,1-.25751-.29633c-.0661-.083-.12909-.16791-.18665-.25708A3.1536,3.1536,0,0,1,8.522,7.42508,3.21588,3.21588,0,0,1,9.96143,3.11093Zm5.74274,14.61273H8.78712l-2.13452-6.182a1.12252,1.12252,0,0,1,.17114-1.0069L8.08155,8.35122a4.02382,4.02382,0,0,0,.5556.62683c.06226.05865.12219.1192.18793.17389.0556.04565.11523.08649.17352.12933a4.04493,4.04493,0,0,0,.33679.22858c.03516.02081.07117.04016.10706.06.077.04315.15112.09137.23071.12927v2.90979h.84576V9.13528l-.01007-.00391V7.28262a.91623.91623,0,0,1,1.83246,0v5.32629H13.177V9.68966a4.1166,4.1166,0,0,0,.81342-.489C14.85041,10.792,16.83863,14.993,15.70417,17.72366Zm1.56061-9.28314c-.01.03021-.12085.10071-.45306.10071A7.07364,7.07364,0,0,1,14.90662,8.161a4.04024,4.04024,0,0,0,.58606-1.7442l1.27869.57391a1.041,1.041,0,0,1,.55377.61414A1.01041,1.01041,0,0,1,17.26478,8.44052Z" transform="translate(-5.76475 -1.91666)"/></svg>