<svg id="Layer_2" data-name="Layer 2" xmlns="http://www.w3.org/2000/svg" viewBox="0 0 19.95055 19.97"><defs><style>.cls-1{fill:#41494e;}</style></defs><title>Manage_MyAccount</title><path class="cls-1" d="M20.97473,9.785h-1.87a.69728.69728,0,0,1-.66-.44.68966.68966,0,0,1,.16-.78l1.32-1.32a1.02828,1.02828,0,0,0,.3-.73,1.06415,1.06415,0,0,0-.3-.73l-1.68-1.68a1.04472,1.04472,0,0,0-1.45,0l-1.32,1.32a.70654.70654,0,0,1-.78.16.69258.69258,0,0,1-.44-.66V3.045a1.02851,1.02851,0,0,0-1.027-1.03h-2.383a1.02852,1.02852,0,0,0-1.03,1.027V4.915a.72294.72294,0,0,1-1.24.5l-1.32-1.32a1.04472,1.04472,0,0,0-1.45,0l-1.69,1.69a.98852.98852,0,0,0-.3.73,1.064,1.064,0,0,0,.3.73l1.32,1.32a.70657.70657,0,0,1,.16.78.72082.72082,0,0,1-.67.44h-1.87a1.02852,1.02852,0,0,0-1.03,1.027v2.383a1.02847,1.02847,0,0,0,1.02694,1.03H4.92473a.69728.69728,0,0,1,.66.44.6739.6739,0,0,1-.16.78l-1.31,1.32a1.028,1.028,0,0,0-.3.73,1.04587,1.04587,0,0,0,.3.73l1.68,1.68a1.04465,1.04465,0,0,0,1.45,0l1.32-1.32a.70675.70675,0,0,1,.78-.16.69258.69258,0,0,1,.44.66v1.87a1.02852,1.02852,0,0,0,1.027,1.03h2.383a1.02858,1.02858,0,0,0,1.03-1.02716V19.085a.69725.69725,0,0,1,.44-.66.6739.6739,0,0,1,.78.16l1.32,1.32a1.04472,1.04472,0,0,0,1.45,0l1.68-1.68a1.02823,1.02823,0,0,0,.3-.73,1.06382,1.06382,0,0,0-.3-.73l-1.32-1.32a.70654.70654,0,0,1-.16-.78.68329.68329,0,0,1,.66-.44h1.87a1.02852,1.02852,0,0,0,1.03-1.027V10.815a.9973.9973,0,0,0-.96406-1.02947Q20.9927,9.78494,20.97473,9.785Zm.29,3.41a.29021.29021,0,0,1-.29.29h-1.87a1.45633,1.45633,0,0,0-1.03,2.49l1.32,1.32a.29588.29588,0,0,1,0,.41l-1.68,1.68a.296.296,0,0,1-.41,0l-1.32-1.32a1.42616,1.42616,0,0,0-1.59-.32,1.44809,1.44809,0,0,0-.9,1.35v1.87a.29022.29022,0,0,1-.29.29h-2.38a.29022.29022,0,0,1-.29-.29v-1.88a1.46207,1.46207,0,0,0-2.49-1.04l-1.32,1.32a.296.296,0,0,1-.41,0l-1.68-1.68a.296.296,0,0,1,0-.41l1.32-1.32a1.42313,1.42313,0,0,0,.31-1.59,1.43811,1.43811,0,0,0-1.35-.9h-1.86a.29021.29021,0,0,1-.29-.29v-2.38a.29021.29021,0,0,1,.29-.29h1.87a1.46207,1.46207,0,0,0,1.04-2.49l-1.33-1.3a.29594.29594,0,0,1,0-.41l1.68-1.68a.296.296,0,0,1,.41,0l1.32,1.32a1.44738,1.44738,0,0,0,1.59.31,1.42362,1.42362,0,0,0,.9-1.35V3.045a.29021.29021,0,0,1,.29-.29h2.38a.29021.29021,0,0,1,.29.29v1.87a1.462,1.462,0,0,0,2.49,1.04l1.32-1.32a.2959.2959,0,0,1,.41,0l1.68,1.68a.29594.29594,0,0,1,0,.41l-1.32,1.32a1.45632,1.45632,0,0,0,1.03,2.49h1.87a.29022.29022,0,0,1,.29.29Z" transform="translate(-2.02472 -2.015)"/><path class="cls-1" d="M12,8.67A3.33,3.33,0,1,0,15.33,12h0a3.32885,3.32885,0,0,0-3.3277-3.33Zm0,5.91a2.59,2.59,0,1,1,2.59-2.59A2.59,2.59,0,0,1,12,14.58Z" transform="translate(-2.02472 -2.015)"/></svg>