<svg id="Layer_2" data-name="Layer 2" xmlns="http://www.w3.org/2000/svg" viewBox="0 0 16.06331 20.14082"><defs><style>.cls-1{fill:#41494f;}</style></defs><title>ShopLocator</title><path class="cls-1" d="M18.85377,6.275a.40588.40588,0,0,0-.40589-.3661h-2.568V5.8161a3.88518,3.88518,0,0,0-7.77036-.00266v.0955h-2.568a.40855.40855,0,0,0-.40589.36876L3.96834,19.47057v.03714a2.75792,2.75792,0,0,0,2.91819,2.5627H17.11347a2.76128,2.76128,0,0,0,2.91819-2.5627v-.03714Zm-9.93246-.4616a3.07471,3.07471,0,0,1,6.14942,0v.0955H8.92131ZM17.11081,21.248H6.88653a1.9559,1.9559,0,0,1-2.10109-1.73765L5.91558,6.70481H8.11217V8.57776a.40589.40589,0,0,0,.80913,0V6.70481h6.14942V8.57776a.4059.4059,0,0,0,.80915,0V6.70481h2.19659l1.13545,12.80556A1.95079,1.95079,0,0,1,17.11081,21.248Z" transform="translate(-3.96834 -1.92959)"/><path class="cls-1" d="M11.996,11.11128A2.35312,2.35312,0,0,0,9.6429,13.4644c0,2.13558,2.35312,4.46484,2.35312,4.46484s2.35312-2.46985,2.35312-4.46484A2.35313,2.35313,0,0,0,11.996,11.11128Zm.00266,3.81753H11.996v-.00266a1.03549,1.03549,0,1,1,.00266.00266Z" transform="translate(-3.96834 -1.92959)"/></svg>