<svg id="Layer_2" data-name="Layer 2" xmlns="http://www.w3.org/2000/svg" viewBox="0 0 19.375 21.45891"><defs><style>.cls-1{fill:#41494f;}</style></defs><title>SideGames</title><path class="cls-1" d="M9.05053,15.49848a.32342.32342,0,0,0,.35113-.35113v-.94157a1.492,1.492,0,0,0,.96766.29733A1.69681,1.69681,0,0,0,11.976,12.95382c.24778-1.16065-.53468-1.771-1.265-2.38391A5.4253,5.4253,0,0,1,9.35472,9.1745a.33646.33646,0,0,0-.55294,0A5.99894,5.99894,0,0,1,7.529,10.59859a2.93336,2.93336,0,0,0-1.34063,2.29,1.6145,1.6145,0,0,0,1.60146,1.61449,1.4945,1.4945,0,0,0,.96766-.29733v.94157A.32342.32342,0,0,0,9.05053,15.49848ZM7.79761,13.86931A.97026.97026,0,0,1,6.83,12.90167c0-.81117.47209-1.22848,1.12415-1.80752A7.7801,7.7801,0,0,0,9.0939,9.91263a7.24278,7.24278,0,0,0,1.21022,1.15805c.78247.64161,1.19978,1.012,1.04329,1.75533h.00782c-.04956.24256-.26082,1.04329-.97548,1.04329-.52165,0-.69639-.17736-1.00155-.78247a.308.308,0,0,0-.05739-.07824l-.01565-.013a.32816.32816,0,0,0-.07563-.04956H9.20084a.2896.2896,0,0,0-.22432,0H8.94784a.31054.31054,0,0,0-.073.04956l-.01826.013a.31819.31819,0,0,0-.05739.07824C8.494,13.69978,8.32447,13.86931,7.79761,13.86931Z" transform="translate(-2.3125 -1.27054)"/><path class="cls-1" d="M3.927,19.98822a.97026.97026,0,0,1-.96764-.96766V5.45777A.97024.97024,0,0,1,3.927,4.49013H5.62234a.32344.32344,0,0,0,.31821-.26082l.0965-.52165a.96765.96765,0,0,1,1.12154-.78247l1.82576.313a.326.326,0,0,0,.35472-.19562L9.53991,2.547a.95982.95982,0,0,1,1.22326-.5712l4.95564,1.8075-4.99216-.88158a.32342.32342,0,0,0-.11215.63641l1.79967.3182H6.83a.32342.32342,0,1,0,0,.64424h7.423a.97025.97025,0,0,1,.96764.96766v9.4157h.65467V5.46821a1.60149,1.60149,0,0,0-.42253-1.07981l1.88054.33123a.97028.97028,0,0,1,.78247,1.12155l-1.59885,9.04534h.66248l1.56494-8.93319a1.604,1.604,0,0,0-.24256-1.16067l1.89619.69119a.95981.95981,0,0,1,.5738,1.22847l-2.976,8.17681h.686l2.89513-7.95771a1.60665,1.60665,0,0,0-.95983-2.05529L10.98486,1.36807a1.60406,1.60406,0,0,0-2.05268.94679L8.83307,2.56,7.26814,2.29921A1.61449,1.61449,0,0,0,5.40065,3.60332l-.04695.26082H3.927A1.61451,1.61451,0,0,0,2.3125,5.46821V19.031A1.6145,1.6145,0,0,0,3.927,20.64548h9.58263l-.64945-.65726Z" transform="translate(-2.3125 -1.27054)"/><path class="cls-1" d="M21.66557,17.84425,20.544,15.82287a.18.18,0,0,0-.1565-.09128H13.3714a.18.18,0,0,0-.1565.09128l-1.12676,2.01877a.18.18,0,0,0,.0313.21388l4.6557,4.62179a.17693.17693,0,0,0,.25038,0l4.60875-4.61918A.18.18,0,0,0,21.66557,17.84425Zm-1.62233-1.75011-1.04329,1.56494L17.3333,16.09414ZM18.58,17.76078l-.01043-.00521H15.1789L16.88207,16.162Zm-2.157-1.66665-1.67187,1.56494-1.04329-1.56494Zm-3.03993.1662.99509,1.49H12.55241Zm-.70287,1.84735,1.9301.00522L16.303,21.707Zm4.2175,4.02972-1.89878-4.01929h3.74541Zm.58685-.42514L19.146,18.12333h1.94574Zm1.88315-3.95668,1.00677-1.49712.832,1.49973Z" transform="translate(-2.3125 -1.27054)"/><polygon class="cls-1" points="14.588 21.459 14.587 21.459 14.585 21.459 14.588 21.459"/></svg>