<svg id="Layer_2" data-name="Layer 2" xmlns="http://www.w3.org/2000/svg" viewBox="0 0 15.51749 20.18639"><defs><style>.cls-1{fill:#41494f;}</style></defs><title>SignUp</title><path class="cls-1" d="M19.32,6.67519V6.665a.43876.43876,0,0,0-.43876.43876V21.21311H5.106V4.42525h8.13246a.43877.43877,0,0,0,0-.87753H4.68a.43877.43877,0,0,0-.43877.43877V21.65442A.43877.43877,0,0,0,4.68,22.0932H19.32a.43877.43877,0,0,0,.43877-.43877V7.114A.43877.43877,0,0,0,19.32,6.67519Z" transform="translate(-4.24125 -1.9068)"/><path class="cls-1" d="M8.83553,10.60113,8.2386,12.897a.43873.43873,0,0,0,.42347.54845.44885.44885,0,0,0,.10969-.01275l2.29586-.59692a.43882.43882,0,0,0,.199-.1148l6.95647-6.96412,1.40047-1.403a.43877.43877,0,0,0,0-.6199L17.92716,2.035a.43878.43878,0,0,0-.61988,0L15.90679,3.438,8.95033,10.40214A.43366.43366,0,0,0,8.83553,10.60113Zm8.78806-7.63248,1.0765,1.08162-.78059.78059-1.0816-1.08162ZM9.65438,10.94039,16.218,4.36913l1.0816,1.08416L10.736,12.022l-1.46171.38009Z" transform="translate(-4.24125 -1.9068)"/></svg>