<svg id="Layer_2" data-name="Layer 2" xmlns="http://www.w3.org/2000/svg" viewBox="0 0 19.70833 20.12766"><defs><style>.cls-1{fill:#41494f;}</style></defs><title>Slots</title><path class="cls-1" d="M13.6474,13.61282H6.57866a1.55746,1.55746,0,0,0-1.3192.65619,1.07506,1.07506,0,0,0-.078,1.04568l1.18674,2.59458a1.50133,1.50133,0,0,0,1.39722.79995h4.6951a1.50141,1.50141,0,0,0,1.39724-.79974l1.18666-2.59478a1.07459,1.07459,0,0,0-.07778-1.04547A1.55715,1.55715,0,0,0,13.6474,13.61282Zm.63452,1.353L13.0952,17.56061a.70377.70377,0,0,1-.63474.31H7.76538a.7027.7027,0,0,1-.63453-.31L5.94412,14.96582a.2343.2343,0,0,1,.02089-.24347.72046.72046,0,0,1,.61365-.27087H13.6474a.72044.72044,0,0,1,.61344.27087A.23448.23448,0,0,1,14.28192,14.96582Z" transform="translate(-2.14583 -1.93617)"/><rect class="cls-1" x="7.54786" y="3.35461" width="0.83866" height="4.19327"/><rect class="cls-1" x="4.19325" y="3.35461" width="0.83866" height="4.19327"/><rect class="cls-1" x="10.90247" y="3.35461" width="0.83866" height="4.19327"/><path class="cls-1" d="M20.17879,6.96616a1.67731,1.67731,0,0,0-.42127,3.30135v5.92576h-1.6773V5.67509a3.7432,3.7432,0,0,0-3.73892-3.73892H5.88475A3.74318,3.74318,0,0,0,2.14583,5.67509V22.06383H18.08023V17.03192h2.516V10.26751a1.67731,1.67731,0,0,0-.41739-3.30135Zm-2.93722,14.259H2.98447V5.67509A2.90344,2.90344,0,0,1,5.88475,2.77483h8.45656a2.90342,2.90342,0,0,1,2.90026,2.90026ZM20.17685,9.484a.83865.83865,0,1,1,.83866-.83866A.83864.83864,0,0,1,20.17685,9.484Z" transform="translate(-2.14583 -1.93617)"/></svg>