<svg id="Layer_2" data-name="Layer 2" xmlns="http://www.w3.org/2000/svg" viewBox="0 0 20.08333 18.58618"><defs><style>.cls-1{fill:#41494f;}</style></defs><title>Slots&amp;amp;Games</title><path class="cls-1" d="M22.04167,9.89444a1.7487,1.7487,0,1,0-2.11986,1.70834v3.1214a1.3823,1.3823,0,0,1-1.37992,1.37992.36962.36962,0,0,0-.3188.18449V12.16894a.37234.37234,0,1,0-.74468,0v6.54273a1.8415,1.8415,0,0,1-1.83912,1.83912H5.7657A1.84149,1.84149,0,0,1,3.9242,18.7093v-.85651a.37234.37234,0,1,0-.74467,0v.85651A2.58617,2.58617,0,0,0,5.7657,21.29309h9.87359a2.58618,2.58618,0,0,0,2.5838-2.58379V16.66192a.36957.36957,0,0,0,.3188.18448,2.127,2.127,0,0,0,2.12461-2.12461V11.6017A1.75106,1.75106,0,0,0,22.04167,9.89444Zm-1.7422,1.00574-.00531-.00054-.00651.00065A1.00613,1.00613,0,0,1,20.293,8.888V8.8928a1.00369,1.00369,0,0,1,.00651,2.00738Z" transform="translate(-1.95833 -2.70691)"/><path class="cls-1" d="M3.55068,9.56373h.00238a.37115.37115,0,0,0,.36877-.37352V7.37488a1.84622,1.84622,0,0,1,1.82245-1.8391H15.6607a1.84624,1.84624,0,0,1,1.82006,1.8391V7.4748a.37115.37115,0,1,0,.7423,0V7.37488a2.57663,2.57663,0,0,0-1.97234-2.50765l-.21888-.05235V4.044a1.33947,1.33947,0,0,0-1.3371-1.3371H6.71258A1.33948,1.33948,0,0,0,5.37075,4.044v.77085l-.21888.05235a2.579,2.579,0,0,0-1.97234,2.51V9.19258A.37115.37115,0,0,0,3.55068,9.56373ZM6.12257,4.04641a.59479.59479,0,0,1,.5948-.5948l7.97024-.00238a.59479.59479,0,0,1,.5948.5948v.75183H6.12257Z" transform="translate(-1.95833 -2.70691)"/><path class="cls-1" d="M7.59529,19.39212a.27125.27125,0,0,0,.19033-.0809l5.35552-5.365a.27122.27122,0,0,0,0-.383l-2.6623-2.68134a.26889.26889,0,0,0-.19271-.07852H4.91395a.26889.26889,0,0,0-.19271.07852L2.03751,13.56551a.27122.27122,0,0,0,0,.383l5.36506,5.365A.2712.2712,0,0,0,7.59529,19.39212ZM5.02576,11.34573H6.93821l-2.21936,2.2174L4.717,13.565a.27256.27256,0,0,0,.38728.38357l2.60746-2.60282H9.62l-2.21738,2.2174a.2717.2717,0,0,0,.383.38543l2.49432-2.48768,2.295,2.295L7.59529,18.73547,2.61565,13.75584Z" transform="translate(-1.95833 -2.70691)"/><path class="cls-1" d="M12.5178,16.47525a1.64878,1.64878,0,1,0,1.64877-1.64877A1.64877,1.64877,0,0,0,12.5178,16.47525Zm1.64877-1.10632.00719,0a1.10487,1.10487,0,1,1-.00719,0Z" transform="translate(-1.95833 -2.70691)"/><path class="cls-1" d="M12.31081,9.63034a.27121.27121,0,0,0,.27123-.2617V7.70321h2.64088v4.61323l-.12847.03093a.27123.27123,0,0,0,.06186.53532.60907.60907,0,0,0,.60193-.59718V7.76507a.60907.60907,0,0,0-.60193-.60669H6.24153a.60908.60908,0,0,0-.60432.60907.27123.27123,0,0,0,.53532.06423l.03093-.12847H8.81818V9.36864a.2714.2714,0,0,0,.54246,0V7.70321h2.67895V9.36864A.27122.27122,0,0,0,12.31081,9.63034Z" transform="translate(-1.95833 -2.70691)"/></svg>