<svg id="Layer_2" data-name="Layer 2" xmlns="http://www.w3.org/2000/svg" viewBox="0 0 20.00218 19.56135"><defs><style>.cls-1{fill:#41494f;}</style></defs><title>Specials</title><path class="cls-1" d="M8.28076,15.76346,6.94189,12.33158,5.66547,15.79175l-3.66656.13246,2.93872,2.21427-.96,3.6422L7.0178,19.539l3.0737,2.18151L9.06515,18.092l2.89-2.26832Zm.31869,3.84326L7.00826,18.477,5.43165,19.63949l.485-1.84042L4.45318,16.69655l1.82-.06581.69114-1.87459.725,1.85806,1.82726.03-1.436,1.12688Z" transform="translate(-1.99891 -2.21932)"/><polygon class="cls-1" points="15.512 7.981 17.035 6.858 18.573 7.95 18.064 6.148 19.491 5.028 17.676 4.999 16.995 3.254 16.346 5.013 14.536 5.079 15.989 6.173 15.512 7.981"/><polygon class="cls-1" points="4.444 4.72 5.964 3.599 7.501 4.69 6.992 2.89 8.416 1.772 6.605 1.742 5.925 0 5.277 1.757 3.47 1.822 4.92 2.915 4.444 4.72"/><path class="cls-1" d="M21.87585,19.85736l-6.069-6.069a.42265.42265,0,0,0-.3901-.10929,2.8377,2.8377,0,1,0-.32744.32742.42268.42268,0,0,0,.10929.39011l6.069,6.069a.4301.4301,0,0,0,.60825-.60825Zm-7.22278-6.61454a1.97582,1.97582,0,1,1,0-2.79424A1.978,1.978,0,0,1,14.65306,13.24282Z" transform="translate(-1.99891 -2.21932)"/></svg>