<svg id="Layer_2" xmlns="http://www.w3.org/2000/svg" viewBox="0 0 24 24"><style>.st0{fill:#666666;}</style><path class="st0" d="M18.98 19.93c-1.67 0-3.03-1.36-3.03-3.02 0-1.67 1.36-3.02 3.03-3.02 1.67 0 3.03 1.36 3.03 3.02 0 1.67-1.36 3.02-3.03 3.02zm0-5.42c-1.33 0-2.41 1.08-2.41 2.4s1.08 2.4 2.41 2.4 2.41-1.08 2.41-2.4-1.08-2.4-2.41-2.4z"/><path class="st0" d="M5.02 17.22c-.13 0-.25-.08-.29-.21-.03-.08-.02-.16.01-.24s.1-.13.18-.16l4.21-1.44c.09-.03.18-.05.28-.05.18 0 .35.05.49.15l.6.41c.07.05.16.08.24.08h3.34c.1 0 .19-.08.19-.19.01-.41.01-.7.01-.86 0-2.02 1.65-3.66 3.67-3.66.95 0 1.85.36 2.54 1.02.12.12.13.32.01.44-.06.06-.14.1-.22.1-.08 0-.16-.03-.21-.09-.57-.55-1.32-.85-2.11-.85-1.68 0-3.05 1.36-3.05 3.04 0 .16 0 .46-.01.87-.01.44-.37.8-.81.8h-3.34c-.21 0-.42-.06-.59-.18l-.6-.41c-.04-.03-.09-.04-.14-.04-.03 0-.05 0-.08.01L5.12 17.2c-.03.01-.06.02-.1.02zM18.98 17.82c-.5 0-.92-.41-.92-.91s.41-.91.92-.91c.5 0 .92.41.92.91s-.42.91-.92.91zm0-1.2c-.16 0-.29.13-.29.29 0 .16.13.29.29.29.16 0 .29-.13.29-.29 0-.16-.13-.29-.29-.29z"/><path class="st0" d="M5.02 19.93c-1.67 0-3.03-1.36-3.03-3.02 0-1.67 1.36-3.02 3.03-3.02s3.03 1.36 3.03 3.02c0 1.67-1.36 3.02-3.03 3.02zm0-5.42c-1.33 0-2.41 1.08-2.41 2.4s1.08 2.4 2.41 2.4 2.41-1.08 2.41-2.4-1.08-2.4-2.41-2.4z"/><path class="st0" d="M5.02 17.77c-.48 0-.87-.39-.87-.86 0-.48.39-.86.87-.86s.86.39.86.86c.01.47-.38.86-.86.86zm0-1.1c-.13 0-.24.11-.24.24s.11.24.24.24.24-.11.24-.24-.1-.24-.24-.24zM18.98 17.22c-.11 0-.22-.06-.27-.16l-2.72-4.88c-.08-.15-.03-.34.12-.42.05-.03.1-.04.15-.04.11 0 .22.06.27.16l2.72 4.88c.04.07.05.16.03.24-.02.08-.08.15-.15.19-.05.02-.1.03-.15.03zM10.16 15.09c-.06 0-.12-.01-.18-.02l-.61-.15c-.19-.05-.36-.17-.46-.34-.1-.17-.13-.37-.08-.56l.57-2.26c.01-.03 0-.07-.01-.09-.02-.03-.05-.05-.08-.06l-2.41-.56c-.53-.12-.97-.49-1.18-.99-.21-.5-.17-1.07.11-1.54.7-1.16 1.87-1.95 3.21-2.15.07-.01.15-.02.22-.02.39 0 .76.15 1.04.42.12.12.19.28.19.44 0 .17-.07.33-.2.44l-1.13 1c-.11.1-.15.24-.11.38.03.14.14.24.28.28l1.67.41c.27.07.5.24.65.48.14.24.19.53.12.8l-.89 3.53c-.08.33-.38.56-.72.56zm-.92-8.12c-.04 0-.09 0-.13.01-1.16.17-2.16.85-2.76 1.85-.18.29-.2.66-.07.98.13.32.42.55.75.63l2.41.56c.19.05.36.17.47.34.1.17.14.38.09.57l-.57 2.26c-.01.03 0 .06.01.09.02.03.04.05.08.06l.61.15h.01c.08 0 .13-.04.14-.09l.89-3.53c.03-.11.01-.23-.05-.32-.06-.1-.15-.17-.26-.2l-1.68-.42c-.36-.09-.65-.37-.74-.73-.09-.36.02-.74.3-.99l1.11-1.01c-.16-.13-.38-.21-.61-.21z"/><path class="st0" d="M13.16 9.33l-1.23-.14c-.3-.03-.56-.2-.73-.46L9.91 7.28c-.11-.13-.1-.32.03-.44.06-.05.13-.08.21-.08.09 0 .17.04.23.1l1.32 1.48.03.04c.07.11.17.17.28.19l1.23.14c.08.01.16.05.21.12.05.07.07.15.06.23-.02.16-.15.28-.31.28l-.04-.01zM9.25 9.92c-.02 0-.05 0-.07-.01l-3-.73c-.17-.04-.27-.21-.23-.37.03-.14.16-.24.3-.24.02 0 .05 0 .07.01l3 .73c.08.02.15.07.19.14.05.07.06.15.04.23-.03.14-.15.24-.3.24zM12.38 7.51c-.13 0-.24-.08-.29-.2-.06-.16.02-.34.18-.4.17-.07.32-.19.45-.38.08-.11.15-.21.18-.32.04-.14.16-.23.3-.23.03 0 .05 0 .08.01.08.02.15.07.19.14.04.07.05.15.03.23-.05.2-.16.37-.27.52-.2.29-.45.49-.73.59-.05.03-.08.04-.12.04z"/><path class="st0" d="M11.99 8.14c-.12 0-.23-.04-.32-.11-1.26-1-1.9-1.63-1.99-1.93-.14-.53-.05-1.08.25-1.5.33-.46.88-.73 1.49-.73.44 0 .87.14 1.24.4.41.29.71.71.83 1.18l.71.85c.08.1.11.24.06.36s-.16.21-.29.23l-.1.01c-.03 0-.07.01-.1.01-.15 0-.3-.05-.43-.14l-.91-.63-.48.04.42.6c.12.17.31.27.51.27.13 0 .24.06.29.17.05.1.05.23-.02.32l-.3.42c-.08.11-.21.18-.35.18h-.51zm-.57-3.66c-.41 0-.76.17-.98.47-.2.27-.26.63-.16.98.04.11.61.68 1.74 1.58h.28c-.18-.09-.33-.23-.44-.39l-.51-.73c-.11-.15-.12-.35-.04-.52.08-.17.25-.28.43-.3l.75-.06c.09 0 .15.02.2.06l.23.16-.06-.08c-.07-.08-.09-.19-.06-.28-.11-.23-.28-.44-.5-.59-.26-.2-.57-.3-.88-.3zM11.24 12.23c-.04 0-.08-.01-.12-.03-.16-.07-.23-.25-.16-.41.45-1.07 1.72-1.78 3.16-1.78 1.23 0 2.36.53 2.94 1.38.05.07.06.15.05.23-.02.08-.06.15-.13.2-.05.04-.11.05-.17.05-.1 0-.2-.05-.26-.14-.47-.68-1.39-1.11-2.42-1.11-1.19 0-2.23.56-2.59 1.4-.06.14-.17.21-.3.21z"/><path class="st0" d="M16.38 11.42c-.03 0-.06 0-.09-.01-.16-.05-.26-.23-.2-.39.21-.67.01-1.1-.2-1.35l-1 .89c-.06.05-.13.08-.21.08-.09 0-.17-.04-.23-.1-.11-.13-.1-.33.03-.44l1-.89c.11-.1.26-.16.42-.16h.04c.17.01.32.09.43.22.25.3.63.95.32 1.94-.06.12-.18.21-.31.21z"/><path class="st0" d="M15.78 11.03c-.09-.01-.16-.04-.22-.11-.06-.06-.08-.14-.08-.23l.08-1.28c.01-.16.15-.29.31-.29.19.01.32.16.31.33l-.08 1.28c-.01.16-.15.29-.31.29l-.01.01zM15.06 10.29c-.11 0-.21-.06-.27-.15l-.46-.78-.98.54c-.05.03-.1.04-.15.04-.11 0-.22-.06-.27-.16-.08-.15-.03-.34.12-.42l1.07-.59c.08-.04.16-.06.25-.06.18 0 .35.1.44.26l.51.87c.04.07.05.16.03.24-.02.08-.07.15-.14.19-.04.01-.1.02-.15.02zM8.51 15.99c-.14 0-.26-.1-.3-.23-.4-1.52-1.56-1.73-1.58-1.73-.13-.02-.23-.12-.26-.25l-.1-.51c-.03-.16.06-.31.21-.36l3-.91c.03-.01.06-.01.09-.01.14 0 .26.09.3.22.05.16-.04.34-.21.39l-2.73.84.01.04c.46.14 1.47.63 1.86 2.13.04.17-.06.34-.22.38h-.07z"/><path class="st0" d="M6.58 13.53c-.05 0-.11-.01-.16-.04-1.03-.6-2.29-.73-3.15-.73-.5 0-.84.04-.86.05h-.04c-.15 0-.29-.12-.31-.27-.02-.17.1-.33.26-.35.04-.01.41-.06.96-.06.75 0 1.84.09 2.86.52l-.02-.1c-.08-.41.18-.84.58-.96l2.27-.67c.03-.01.06-.01.09-.01.14 0 .26.09.3.22.02.08.01.16-.03.24-.04.07-.11.13-.19.15l-2.25.68c-.1.03-.17.14-.15.24l.14.72c.02.12-.02.24-.12.31-.05.04-.12.06-.18.06z"/></svg>