<?xml version="1.0" encoding="utf-8"?>
<!-- Generator: Adobe Illustrator 19.2.1, SVG Export Plug-In . SVG Version: 6.00 Build 0)  -->
<svg version="1.1" id="Layer_2" xmlns="http://www.w3.org/2000/svg" xmlns:xlink="http://www.w3.org/1999/xlink" x="0px" y="0px"
	 viewBox="0 0 24 24" style="enable-background:new 0 0 24 24;" xml:space="preserve">
<style type="text/css">
	.st0{fill:#666666;}
</style>
<g>
	<path class="st0" d="M19.76,4.67c-0.15-0.15-0.3-0.29-0.44-0.43c-1.29-1.29-3.21-2.89-4.95-1.93c-1.02,0.57-1.5,1.12-2.3,2.02
		c-0.14,0.16-0.29,0.33-0.45,0.51c-0.06,0.07-0.24,0.28-0.44,0.52c-0.28,0.33-0.7,0.84-0.79,0.93c-0.14,0.14-0.14,0.38,0,0.52
		c0.14,0.14,0.38,0.14,0.52,0c0.11-0.11,0.41-0.47,0.83-0.98c0.19-0.23,0.36-0.43,0.42-0.5c0.16-0.18,0.31-0.35,0.45-0.51
		c0.77-0.88,1.2-1.36,2.11-1.87c1.31-0.73,2.96,0.68,4.08,1.8c0.14,0.14,0.3,0.29,0.45,0.44c1.02,0.99,2.19,2.12,1.91,3.11
		c-0.27,0.96-1.24,1.99-2.18,2.99c-0.25,0.27-0.5,0.53-0.73,0.79c-0.16,0.18-0.82,0.85-1.02,1.05c-0.97,0.97-4.5,1.84-6.89,1.94
		c-0.71,0.03-1.15,0.05-1.42,0.07c-0.01,0-0.01,0-0.02,0C8.77,13.9,8.62,9.23,9.94,7.77c0.14-0.15,0.12-0.38-0.03-0.52
		C9.76,7.12,9.53,7.13,9.4,7.28C8,8.83,7.98,13.14,8.14,14.92c-0.29,0.48-0.48,0.52-0.77,0.57c-0.32,0.06-0.71,0.13-1.2,0.62
		l-0.92,0.92c-0.26,0.01-0.52,0.11-0.72,0.3l-2.01,2.01c-0.6,0.6-0.6,1.58,0,2.18c0,0,0,0,0,0c0.3,0.3,0.7,0.45,1.09,0.45
		c0.39,0,0.79-0.15,1.09-0.45l2.01-2.01c0.2-0.2,0.3-0.46,0.3-0.72l0.92-0.92c0.46-0.46,0.56-0.97,0.63-1.34
		c0.09-0.46,0.12-0.57,0.48-0.62c0.05-0.01,0.09-0.02,0.13-0.04c0.26-0.01,0.64-0.03,1.21-0.06c2.23-0.1,6.14-0.92,7.38-2.16
		c0.18-0.18,0.86-0.87,1.05-1.08c0.23-0.25,0.47-0.51,0.72-0.78c1-1.06,2.04-2.17,2.35-3.3C22.26,7.09,20.93,5.81,19.76,4.67z
		 M6.19,19l-2.01,2.01c-0.32,0.32-0.83,0.32-1.15,0h0c-0.32-0.32-0.32-0.83,0-1.15l2.01-2.01c0.12-0.12,0.32-0.12,0.45,0l0.7,0.7
		C6.31,18.68,6.31,18.88,6.19,19z M7.41,17.36l-0.69,0.69c0-0.01-0.01-0.01-0.01-0.02l-0.7-0.7C6,17.33,6,17.33,5.99,17.33
		l0.69-0.69c0.33-0.33,0.56-0.37,0.82-0.42c0.14-0.03,0.27-0.05,0.4-0.1c-0.03,0.1-0.05,0.2-0.06,0.29
		C7.77,16.74,7.71,17.06,7.41,17.36z"/>
	<path class="st0" d="M4.86,9.2c1.54,0,2.8-1.26,2.8-2.8s-1.26-2.8-2.8-2.8s-2.8,1.26-2.8,2.8S3.32,9.2,4.86,9.2z M6.93,6.4
		c0,0.17-0.02,0.33-0.06,0.49C6.71,6.93,6.55,6.95,6.38,6.95c-1.14,0-2.07-0.93-2.07-2.07c0-0.17,0.03-0.33,0.07-0.49
		c0.16-0.04,0.32-0.06,0.49-0.06C6,4.33,6.93,5.26,6.93,6.4z M3.58,4.78c0,0.03,0,0.07,0,0.1c0,1.54,1.26,2.8,2.8,2.8
		c0.03,0,0.07,0,0.1,0C6.1,8.16,5.52,8.47,4.86,8.47c-1.14,0-2.07-0.93-2.07-2.07C2.79,5.75,3.1,5.16,3.58,4.78z"/>
</g>
</svg>
