<svg id="Layer_2" data-name="Layer 2" xmlns="http://www.w3.org/2000/svg" viewBox="0 0 19.79982 19.43549"><defs><style>.cls-1{fill:#41494f;}</style></defs><title>Statistics</title><path class="cls-1" d="M19.90249,6.6538a.27.27,0,0,0,.51294,0l1.46792-3.955a.27.27,0,0,0-.36781-.33745l-3.82674,1.802a.27.27,0,0,0,.05736.51967l1.15411.25309L15.59995,8.51653l-3.32056-1.7109a.70865.70865,0,0,0-.72551.04387L2.98253,12.68073V2.76294a.44206.44206,0,1,0-.88075,0V21.27568a.44207.44207,0,0,0,.44206.44206H21.05658a.44206.44206,0,0,0,0-.88075H2.98253V13.75045l8.98979-6.11467,3.34416,1.72439a.712.712,0,0,0,.85039-.15186l3.37454-3.685Z" transform="translate(-2.10009 -2.28225)"/><path class="cls-1" d="M7.42681,19.35219V12.55925l-2.4803,1.68727v5.10567Zm-1.80539-4.748,1.13048-.76941v4.84246H5.62142Z" transform="translate(-2.10009 -2.28225)"/><path class="cls-1" d="M11.18942,19.35219V10.00472L8.70914,11.692v7.6602ZM9.384,12.04969l1.13046-.76941v7.397H9.384Z" transform="translate(-2.10009 -2.28225)"/><path class="cls-1" d="M14.952,19.35219v-8.3756l-2.4803-1.279v9.65456Zm-1.80539-8.5477,1.13048.58041v7.289H13.14665Z" transform="translate(-2.10009 -2.28225)"/><path class="cls-1" d="M18.71127,19.35219V8.37143L16.231,11.07106v8.28112ZM16.9059,11.33091l1.13046-1.22834h0v8.57471H16.9059Z" transform="translate(-2.10009 -2.28225)"/></svg>