<svg id="Layer_2" data-name="Layer 2" xmlns="http://www.w3.org/2000/svg" viewBox="0 0 19.39148 20.83333"><defs><style>.cls-1{fill:#41494e;}</style></defs><title>Support</title><path class="cls-1" d="M12.74022,14.70347a1.37452,1.37452,0,0,0-.81143.25135l-.71279.51536a4.82482,4.82482,0,0,1-2.99909-2.49091,4.8252,4.8252,0,0,1-.65936-3.84253L8.35989,8.777c.8496-.382,1.11824-1.52027.75662-3.20508C8.82063,4.1924,7.82721,1.58333,6.18487,1.58333a1.44992,1.44992,0,0,0-.44811.07124l-1.24064.40185A2.9435,2.9435,0,0,0,2.5252,4.25524c-.65783,3.16484.16917,7.06526,2.269,10.7006,2.09984,3.63571,5.065,6.3011,8.13572,7.31284a2.939,2.939,0,0,0,2.889-.60852l.96826-.87425a1.81308,1.81308,0,0,0,.28577-2.16578C16.479,17.07385,14.30174,14.704,12.74022,14.70347Zm3.57713,5.56192-.96841.87392a2.23722,2.23722,0,0,1-2.1995.46332c-3.057-1.00729-5.86466-3.73689-7.74773-6.99746C3.51827,11.3448,2.557,7.54883,3.21213,4.39735A2.2384,2.2384,0,0,1,4.71237,2.72366l1.241-.402a.74485.74485,0,0,1,.2315-.037c1.61906,0,3.223,5.252,1.888,5.8525l-1.05522.47291a5.31313,5.31313,0,0,0,.59174,4.71987,5.31242,5.31242,0,0,0,3.79287,2.871l.93692-.67735a.66652.66652,0,0,1,.40065-.11883C14.273,15.40529,17.518,19.18295,16.31735,20.26539Z" transform="translate(-2.30426 -1.58333)"/><path class="cls-1" d="M20.0729,4.33759H12.36045a1.62456,1.62456,0,0,0-1.62283,1.62267V9.8509a1.62575,1.62575,0,0,0,1.2143,1.57061v.90884a.84305.84305,0,0,0,1.3523.67171l2.02039-1.52849h4.74828A1.62457,1.62457,0,0,0,21.69574,9.8509V5.96026A1.62456,1.62456,0,0,0,20.0729,4.33759Zm.92152,1.62267V9.8509a.92133.92133,0,0,1-.92134.92135h-4.9839l-2.20874,1.67094a.14177.14177,0,0,1-.22721-.11285v-1.5581h-.29279a.92134.92134,0,0,1-.92151-.92117V5.96026a.92124.92124,0,0,1,.9211-.92135H20.0729a.92122.92122,0,0,1,.92152.92094Z" transform="translate(-2.30426 -1.58333)"/><path class="cls-1" d="M13.65435,6.78126a1.12432,1.12432,0,1,0,1.12407,1.12457V7.90567A1.12568,1.12568,0,0,0,13.65435,6.78126Zm.42275,1.12441a.42292.42292,0,1,1,0-.00033Z" transform="translate(-2.30426 -1.58333)"/><path class="cls-1" d="M18.77916,6.78126A1.12432,1.12432,0,1,0,19.90306,7.906V7.90567A1.12554,1.12554,0,0,0,18.77916,6.78126Zm.42258,1.12441a.42284.42284,0,1,1,0-.0005Z" transform="translate(-2.30426 -1.58333)"/><path class="cls-1" d="M16.21668,6.78126A1.12432,1.12432,0,1,0,17.3409,7.90569v0A1.12565,1.12565,0,0,0,16.21668,6.78126Zm.4229,1.12441a.423.423,0,1,1,0-.00019Z" transform="translate(-2.30426 -1.58333)"/></svg>