<?xml version="1.0" encoding="utf-8"?>
<!-- Generator: Adobe Illustrator 19.2.1, SVG Export Plug-In . SVG Version: 6.00 Build 0)  -->
<svg version="1.1" id="Layer_2" xmlns="http://www.w3.org/2000/svg" xmlns:xlink="http://www.w3.org/1999/xlink" x="0px" y="0px"
	 viewBox="0 0 24 24" style="enable-background:new 0 0 24 24;" xml:space="preserve">
<style type="text/css">
	.st0{fill:#666666;}
</style>
<g>
	<path class="st0" d="M19,18.38c-0.95,0-1.83-0.44-2.39-1.17c-0.57,0.73-1.44,1.17-2.39,1.17s-1.83-0.44-2.39-1.17
		c-0.57,0.73-1.44,1.17-2.39,1.17s-1.83-0.44-2.39-1.17c-0.57,0.73-1.44,1.17-2.39,1.17c-1.23,0-2.33-0.74-2.8-1.87
		c-0.08-0.19,0.01-0.4,0.2-0.47c0.19-0.08,0.4,0.01,0.47,0.2c0.36,0.87,1.19,1.43,2.13,1.43c0.88,0,1.68-0.49,2.07-1.29
		c0.06-0.12,0.19-0.2,0.32-0.2s0.26,0.08,0.32,0.2c0.39,0.79,1.18,1.29,2.07,1.29s1.68-0.49,2.07-1.29c0.06-0.12,0.19-0.2,0.32-0.2
		l0,0c0.14,0,0.26,0.08,0.32,0.2c0.39,0.79,1.18,1.29,2.07,1.29c0.88,0,1.68-0.49,2.07-1.29c0.06-0.12,0.19-0.2,0.32-0.2
		c0.14,0,0.26,0.08,0.32,0.2c0.39,0.79,1.18,1.29,2.07,1.29c0.94,0,1.77-0.56,2.13-1.43c0.08-0.19,0.29-0.27,0.47-0.2
		c0.19,0.08,0.27,0.29,0.2,0.47C21.33,17.64,20.23,18.38,19,18.38z M19,14.89c-0.95,0-1.83-0.44-2.39-1.17
		c-0.57,0.73-1.44,1.17-2.39,1.17c-0.95,0-1.83-0.44-2.39-1.17c-0.57,0.73-1.44,1.17-2.39,1.17s-1.83-0.44-2.39-1.17
		c-0.57,0.73-1.44,1.17-2.39,1.17c-1.23,0-2.33-0.74-2.8-1.87c-0.08-0.19,0.01-0.4,0.2-0.47c0.19-0.08,0.4,0.01,0.47,0.2
		c0.36,0.87,1.19,1.43,2.13,1.43c0.88,0,1.68-0.49,2.07-1.29c0.06-0.12,0.19-0.2,0.32-0.2s0.26,0.08,0.32,0.2
		c0.39,0.79,1.18,1.29,2.07,1.29s1.68-0.49,2.07-1.29c0.06-0.12,0.19-0.2,0.32-0.2l0,0c0.14,0,0.26,0.08,0.32,0.2
		c0.39,0.79,1.18,1.29,2.07,1.29s1.68-0.49,2.07-1.29c0.06-0.12,0.19-0.2,0.32-0.2c0.14,0,0.26,0.08,0.32,0.2
		c0.39,0.79,1.18,1.29,2.07,1.29c0.94,0,1.77-0.56,2.13-1.43c0.08-0.19,0.29-0.27,0.47-0.2c0.19,0.08,0.27,0.29,0.2,0.47
		C21.33,14.16,20.23,14.89,19,14.89z"/>
</g>
<path class="st0" d="M17.44,6.02c-0.67-0.55-1.53-0.76-2.37-0.6c-1.68,0.31-2.67,2.23-2.02,3.79c0.52,1.26,1.84,1.94,3.17,1.69
	c1.29-0.24,2.21-1.45,2.23-2.74C18.43,7.35,18.07,6.55,17.44,6.02z M16.69,9.85c-0.29,0.18-0.63,0.28-0.96,0.3
	c-0.35,0.02-0.7-0.06-0.99-0.21c-0.31-0.16-0.56-0.38-0.74-0.64c-0.2-0.29-0.31-0.62-0.34-0.94c-0.01-0.16,0-0.39,0.01-0.5
	c0.03-0.17,0.1-0.4,0.15-0.51c0.06-0.13,0.19-0.33,0.24-0.4c0.11-0.13,0.27-0.29,0.37-0.36c0.14-0.1,0.34-0.21,0.45-0.26
	c0.19-0.07,0.41-0.12,0.56-0.14c0.39-0.03,0.76,0.04,1.08,0.21c0.34,0.17,0.59,0.41,0.78,0.72c0.2,0.32,0.3,0.67,0.3,1.05
	C17.61,8.85,17.26,9.48,16.69,9.85z"/>
<path class="st0" d="M9.7,6.02c-0.67-0.55-1.53-0.76-2.37-0.6C5.65,5.74,4.66,7.66,5.31,9.22c0.52,1.26,1.84,1.94,3.17,1.69
	c1.29-0.24,2.21-1.45,2.23-2.74C10.7,7.35,10.34,6.55,9.7,6.02z M8.95,9.85c-0.29,0.18-0.63,0.28-0.96,0.3
	c-0.35,0.02-0.7-0.06-0.99-0.21C6.7,9.78,6.45,9.55,6.27,9.29c-0.2-0.29-0.31-0.62-0.34-0.94c-0.01-0.16,0-0.39,0.01-0.5
	c0.03-0.17,0.1-0.4,0.15-0.51c0.06-0.13,0.19-0.33,0.24-0.4c0.11-0.13,0.27-0.29,0.37-0.36c0.14-0.1,0.34-0.21,0.45-0.26
	c0.19-0.07,0.41-0.12,0.56-0.14C8.11,6.16,8.48,6.24,8.8,6.4c0.34,0.17,0.59,0.41,0.78,0.72c0.2,0.32,0.3,0.67,0.3,1.05
	C9.88,8.85,9.53,9.48,8.95,9.85z"/>
</svg>
