<svg id="Layer_2" data-name="Layer 2" xmlns="http://www.w3.org/2000/svg" viewBox="0 0 20.08333 12.45393"><defs><style>.cls-1{fill:#41494f;}</style></defs><title>Table_Games</title><circle class="cls-1" cx="3.34732" cy="4.92217" r="0.83683"/><circle class="cls-1" cx="3.34732" cy="7.43266" r="0.83683"/><circle class="cls-1" cx="3.34732" cy="9.94315" r="0.83683"/><circle class="cls-1" cx="6.69464" cy="4.92218" r="0.83684"/><circle class="cls-1" cx="6.69464" cy="7.43267" r="0.83684"/><circle class="cls-1" cx="6.69464" cy="9.94315" r="0.83683"/><path class="cls-1" d="M21.81079,12.34167,18.5172,6.63729a1.7268,1.7268,0,0,0-2.35861-.63295l-.00113.00065L11.49758,8.69542a1.72171,1.72171,0,0,0-1.22469-.51072h-6.587a1.72945,1.72945,0,0,0-1.7276,1.72762v6.58694a1.72944,1.72944,0,0,0,1.7276,1.72743h6.587a1.72942,1.72942,0,0,0,1.72741-1.72743V15.43374l1.11365,1.92892a1.72725,1.72725,0,0,0,2.35928.63285l.00061-.00035,5.70458-3.29356A1.72994,1.72994,0,0,0,21.81079,12.34167ZM11.16346,16.49926a.89146.89146,0,0,1-.89057.89059h-6.587a.89164.89164,0,0,1-.89076-.89059V9.91232a.8918.8918,0,0,1,.89076-.89078h6.587a.8884.8884,0,0,1,.72473.37665l.03488.05788a.92939.92939,0,0,1,.091.20678l.00874.02813a.84347.84347,0,0,1,.0312.22134ZM20.76,13.97671,15.05545,17.2703a.91392.91392,0,0,1-1.21663-.32606L12.0003,13.76V9.91232a1.72782,1.72782,0,0,0-.01787-.23482l-.00495-.03233a1.715,1.715,0,0,0-.05113-.2311l4.64953-2.68442a.91429.91429,0,0,1,1.21646.32606l3.29356,5.70438A.89163.89163,0,0,1,20.76,13.97671Z" transform="translate(-1.95833 -5.77303)"/><path class="cls-1" d="M18.61728,11.83153a.85938.85938,0,0,0-1.14307-.30606.83687.83687,0,1,0,1.14319.30627Z" transform="translate(-1.95833 -5.77303)"/><path class="cls-1" d="M17.44579,10.29269a.83139.83139,0,0,0-.08376-.63494.85862.85862,0,0,0-1.14326-.30629.8368.8368,0,1,0,1.227.94124Z" transform="translate(-1.95833 -5.77303)"/><path class="cls-1" d="M15.71843,13.50521a.85922.85922,0,0,0-1.14307-.30608.83687.83687,0,1,0,1.1432.30629Z" transform="translate(-1.95833 -5.77303)"/><path class="cls-1" d="M14.54693,11.96635a.8314.8314,0,0,0-.08376-.63494.85837.85837,0,0,0-1.14328-.30627.8368.8368,0,1,0,1.227.94122Z" transform="translate(-1.95833 -5.77303)"/></svg>