<?xml version="1.0" encoding="utf-8"?>
<!-- Generator: Adobe Illustrator 19.2.1, SVG Export Plug-In . SVG Version: 6.00 Build 0)  -->
<svg version="1.1" id="Layer_2" xmlns="http://www.w3.org/2000/svg" xmlns:xlink="http://www.w3.org/1999/xlink" x="0px" y="0px"
	 viewBox="0 0 24 24" style="enable-background:new 0 0 24 24;" xml:space="preserve">
<style type="text/css">
	.st0{fill:#666666;}
</style>
<g>
	<path class="st0" d="M5.18,6.39c1.21,0,2.2-0.99,2.2-2.2c0-1.21-0.99-2.2-2.2-2.2s-2.2,0.99-2.2,2.2C2.98,5.4,3.97,6.39,5.18,6.39z
		 M5.18,2.86c0.73,0,1.33,0.6,1.33,1.33c0,0.73-0.6,1.33-1.33,1.33s-1.33-0.6-1.33-1.33C3.85,3.45,4.44,2.86,5.18,2.86z"/>
	<path class="st0" d="M20.91,2.96c-0.26-0.32-0.63-0.52-1.04-0.57c-0.41-0.04-0.81,0.08-1.13,0.33L13.81,6.7l1.49-1.84
		c0.26-0.32,0.38-0.72,0.34-1.13c-0.04-0.41-0.24-0.78-0.56-1.04c-0.32-0.26-0.72-0.38-1.13-0.34c-0.41,0.04-0.78,0.24-1.04,0.56
		L11.55,4.6L9.31,4.5c-0.37-0.02-0.74,0.1-1.04,0.34l-1.97,1.6C6.25,6.5,6.2,6.55,6.15,6.6L3.38,9.62c-0.45,0.49-0.54,1.22-0.21,1.8
		c0.32,0.57,1,0.88,1.64,0.76l3.22-0.64c0,0,0.01,0,0.01,0.01l1.88,0.74v8.14c0,0.85,0.69,1.54,1.54,1.54S13,21.27,13,20.42v-9.11
		l7.67-6.18C21.34,4.59,21.44,3.62,20.91,2.96z M12.3,10.77c-0.1,0.08-0.16,0.21-0.16,0.34v9.31c0,0.37-0.3,0.67-0.67,0.67
		c-0.37,0-0.67-0.3-0.67-0.67v-8.44c0-0.18-0.11-0.34-0.27-0.4l-1.01-0.4c0.61-0.3,0.96-0.99,0.83-1.68
		c-0.17-0.83-0.98-1.37-1.81-1.21L6.54,8.7C6.31,8.75,6.16,8.98,6.21,9.21C6.24,9.32,6.3,9.42,6.4,9.48
		c0.1,0.06,0.21,0.08,0.32,0.06l1.96-0.41C9.05,9.06,9.41,9.3,9.48,9.66c0.07,0.36-0.16,0.72-0.53,0.79l-4.31,0.86
		c-0.28,0.06-0.58-0.08-0.72-0.33c-0.14-0.26-0.11-0.57,0.09-0.79l2.77-3.02c0.02-0.02,0.05-0.05,0.07-0.07l1.97-1.6
		c0.13-0.1,0.29-0.16,0.45-0.15l2.45,0.1c0.14,0.01,0.28-0.05,0.37-0.16l1.5-1.84c0.11-0.14,0.27-0.23,0.45-0.25
		c0.18-0.02,0.36,0.03,0.5,0.15c0.14,0.11,0.23,0.27,0.25,0.45c0.02,0.18-0.03,0.36-0.15,0.5l-1.85,2.28
		c-0.13,0.16-0.34,0.26-0.55,0.25L11.16,6.8c-0.09-0.01-0.18,0.01-0.25,0.06c-0.12,0.02-0.22,0.09-0.29,0.19
		c-0.06,0.1-0.08,0.21-0.06,0.33c0.02,0.11,0.09,0.21,0.19,0.27l1.56,1.01c0.16,0.1,0.36,0.09,0.51-0.03l6.48-5.22
		c0.14-0.11,0.32-0.17,0.5-0.15c0.18,0.02,0.34,0.11,0.45,0.25c0.23,0.29,0.19,0.72-0.1,0.95L12.3,10.77z M12.43,7.7
		c0.06-0.01,0.13-0.02,0.19-0.03l-0.11,0.09L12.43,7.7z"/>
</g>
</svg>
