<svg id="Layer_2" data-name="Layer 2" xmlns="http://www.w3.org/2000/svg" viewBox="0 0 20.01243 20.01561"><defs><style>.cls-1{fill:#41494f;}</style></defs><title>Top_Games</title><path class="cls-1" d="M20.66428,6.99787l-.00006-.00009a10.00023,10.00023,0,0,0-13.659-3.66631l-.00759.00439a10.00451,10.00451,0,0,0,9.99688,17.33271l.00761-.00439A10.00448,10.00448,0,0,0,20.66428,6.99787ZM17.81465,4.919,16.06026,6.86752a6.52947,6.52947,0,0,0-6.967-.73616L7.78256,3.86143A9.12549,9.12549,0,0,1,17.81465,4.919Zm-.865,4.22322a5.71631,5.71631,0,0,1-4.944,8.5742,5.7164,5.7164,0,1,1,4.944-8.5742Zm-13.8079.48412A9.10481,9.10481,0,0,1,7.05859,4.27542L8.37425,6.554a6.53037,6.53037,0,0,0-2.85387,6.39667l-2.57061.54658A9.14284,9.14284,0,0,1,3.14171,9.62634ZM10.628,21.06319A9.17056,9.17056,0,0,1,3.12439,14.313l2.57393-.54732a6.50553,6.50553,0,0,0,5.20424,4.68706Zm5.95718-1.12133a9.16608,9.16608,0,0,1-4.57638,1.23042c-.18482,0-.36865-.00737-.55182-.01847l.27473-2.61271c.09118.00383.18213.00916.27386.00916a6.54129,6.54129,0,0,0,5.79282-3.51237l2.40295,1.06982A9.10553,9.10553,0,0,1,16.58522,19.94186ZM20.858,14.3737a9.31323,9.31323,0,0,1-.32026.97148l-2.39841-1.06785c.0702-.19028.13367-.384.1868-.58234a6.52215,6.52215,0,0,0-1.64533-6.27062l1.75649-1.95086A9.14612,9.14612,0,0,1,20.858,14.37372Z" transform="translate(-1.99379 -1.9922)"/><path class="cls-1" d="M7.76859,10.96014l2.11553,2.06222-.49939,2.91192,2.61514-1.37493L14.615,15.93429l-.49939-2.91192,2.11553-2.06222-2.92374-.4251L11.99988,7.88576,10.69233,10.535Zm4.23129-1.19009.75384,1.52722,1.68561.2451L13.2195,12.73086l.28806,1.67906-1.50768-.79274-1.50768.79274.28806-1.67906L9.56043,11.54238l1.68561-.2451Z" transform="translate(-1.99379 -1.9922)"/></svg>