<svg id="Layer_2" data-name="Layer 2" xmlns="http://www.w3.org/2000/svg" viewBox="0 0 21.39974 20.596"><defs><style>.cls-1{fill:#41494f;}</style></defs><title>Tournaments</title><path class="cls-1" d="M22.62161,3.43025a.42083.42083,0,0,0-.34508-.17955h-3.6473V2.12846a.42084.42084,0,0,0-.40682-.42646H5.78793a.42084.42084,0,0,0-.42084.42084V3.24509H1.71979a.42082.42082,0,0,0-.39558.56112A8.55148,8.55148,0,0,0,5.35587,8.62344v3.08617c0,3.15072,2.75511,5.73467,6.22285,5.92826v3.81844H6.3182a.42084.42084,0,1,0,0,.84168H17.68093a.42084.42084,0,0,0,0-.84168H12.4204v-3.8072c3.46773-.19359,6.22285-2.77756,6.22285-5.92826V8.63468a8.526,8.526,0,0,0,4.03166-4.81725A.42083.42083,0,0,0,22.62161,3.43025ZM5.35587,7.66955A7.606,7.606,0,0,1,2.34265,4.09239H5.35587Zm12.4457,4.05131c0,2.80561-2.60362,5.1006-5.802,5.1006s-5.802-2.28939-5.802-5.1006V2.54368h11.604Zm.84168-4.05131V4.09239h3.01323A7.609,7.609,0,0,1,18.64325,7.66955Z" transform="translate(-1.30013 -1.702)"/></svg>