<svg id="Layer_2" data-name="Layer 2" xmlns="http://www.w3.org/2000/svg" viewBox="0 0 19.65997 20.06"><defs><style>.cls-1{fill:#41494e;}</style></defs><title>Transactions_History</title><path class="cls-1" d="M8.22,5.6c0-.31995-.31995-.52-.83-.52S6.57,5.27,6.57,5.6V8.13A.82586.82586,0,0,0,7.39,8.96h2.9V8.33H7.39a.20054.20054,0,0,1-.2-.2V5.72a.64933.64933,0,0,1,.2-.02,1.13371,1.13371,0,0,1,.2.02V7.93h2.7V7.3H8.22Z" transform="translate(-2.17001 -1.97)"/><path class="cls-1" d="M13.59,7.68a5.71,5.71,0,1,0-5.71,5.71A5.71,5.71,0,0,0,13.59,7.68ZM7.88,12.79A5.115,5.115,0,1,1,13,7.68,5.115,5.115,0,0,1,7.88,12.79Z" transform="translate(-2.17001 -1.97)"/><polygon class="cls-1" points="19.63 5.48 19.63 5.45 13.4 5.45 13.4 6.09 19.02 6.09 19.02 19.43 6.65 19.43 6.65 13.42 6.01 13.42 6.01 19.43 6.01 20.02 6.01 20.06 19.66 20.06 19.66 20.02 19.66 19.43 19.66 5.48 19.63 5.48"/><path class="cls-1" d="M18.54,15.64V13.61h-7.4v2.13h7.4Zm-.63-.62H11.76v-.69h6.15Z" transform="translate(-2.17001 -1.97)"/><path class="cls-1" d="M11.13,17.59V19h7.4V16.98h-7.4Zm.63.01h6.15v.79H11.76Z" transform="translate(-2.17001 -1.97)"/><path class="cls-1" d="M18.53,12.48V10.45H14.1v2.03h4.43Zm-.62-.62H14.72v-.79h3.19Z" transform="translate(-2.17001 -1.97)"/></svg>