<?xml version="1.0" encoding="utf-8"?>
<!-- Generator: Adobe Illustrator 19.2.1, SVG Export Plug-In . SVG Version: 6.00 Build 0)  -->
<svg version="1.1" id="Layer_2" xmlns="http://www.w3.org/2000/svg" xmlns:xlink="http://www.w3.org/1999/xlink" x="0px" y="0px"
	 viewBox="0 0 24 24" style="enable-background:new 0 0 24 24;" xml:space="preserve">
<style type="text/css">
	.st0{fill:#666666;}
</style>
<path class="st0" d="M11.56,20.72c-0.65,0-1.24-0.22-1.72-0.64l-0.38-0.11c-0.13-0.03-0.26-0.07-0.37-0.11
	c-0.1-0.03-0.2-0.06-0.27-0.08c-0.12-0.03-0.24-0.05-0.37-0.07c-0.48-0.07-1.28-0.2-1.63-1.15c-0.23-0.64-0.63-1.31-1.03-1.74
	C5.07,16.04,5.42,15.34,5.59,15c0.07-0.13,0.12-0.23,0.14-0.34c0.02-0.12,0.04-0.26,0.05-0.4l0.05-0.47l-0.28-0.21
	C5.27,13.37,5,13.15,4.74,12.93c-0.29-0.24-0.53-0.44-0.79-0.63c-0.77-0.57-1.4-1.35-1.67-2.08C1.45,8,2.95,5.21,4.89,4l0.02-0.01
	l0.02-0.01c1.1-0.59,2.29-0.71,3.1-0.71c0.77,0,1.54,0.11,2.17,0.32c1.47,0.48,2.36,0.98,3.05,1.7l0.12,0.13h0.02l0.04,0
	c3.05,0.32,4.85,1.51,5.06,1.8l0.18,0.24l0.02,0c0.16,0.04,0.3,0.1,0.43,0.17c0.79,0.45,1.46,1.11,1.92,1.93
	c0.62,1.09,0.95,2.16,0.97,3.17c0.02,1-0.29,2.07-0.92,3.19c-0.5,0.89-1.05,1.53-2.09,1.77l-0.31,0.07l-0.01,0.02
	c-0.52,0.67-1.29,1.07-2.05,1.07c-0.03,0-0.06,0-0.09,0l-0.12,0l-0.02,0.02c-0.56,0.59-1.37,0.93-2.22,0.94l-0.14,0l-0.02,0.01
	c-0.42,0.4-0.98,0.58-1.39,0.71l-0.14,0.05C12.18,20.67,11.87,20.72,11.56,20.72z M6.8,10.11c-0.46,1.06-0.37,2.21-0.23,2.98l0,0.01
	l0.6,0.65c0.2,0.22,0.43,0.4,0.69,0.54c0.09,0.05,0.27,0.11,0.44,0.17c0.67,0.24,1.8,0.64,1.89,1.75l0.3,3.43l0.02,0.01
	c0.3,0.2,0.66,0.3,1.03,0.3c0.23,0,0.46-0.04,0.69-0.12l0.15-0.05c0.46-0.15,1.03-0.33,1.28-0.76c0.11-0.35,0.24-0.75,0.37-1.15
	c0.16-0.51,0.33-1.02,0.46-1.43c0.05,0.15,0.13,0.73-0.08,1.52c-0.12,0.46-0.14,0.52-0.18,0.63c-0.03,0.07-0.06,0.15-0.12,0.36
	l-0.02,0.07l0.07,0c0.8-0.01,1.56-0.41,1.93-1.02l0.31-0.95c0.17-0.52,0.34-1.05,0.47-1.47c0.05,0.15,0.13,0.73-0.08,1.52
	c-0.12,0.46-0.14,0.51-0.18,0.62c-0.02,0.06-0.05,0.13-0.1,0.29l-0.02,0.07l0.13,0c0.64,0,1.29-0.43,1.65-1.08l-0.01,0.01
	c0.11-0.11,0.39-0.71,0.64-1.88c0.05,0.16,0.12,0.74-0.08,1.51l-0.09,0.33l0.09-0.02c0.68-0.15,1.1-0.52,1.59-1.4
	c0.56-1,0.84-1.95,0.83-2.8c-0.02-0.88-0.31-1.82-0.87-2.81c-0.31-0.54-0.71-1-1.2-1.36l-0.01-0.01L17.79,8.5
	c-0.1-0.01-0.2-0.01-0.31-0.01c-1.95,0-5.05,0.91-6.68,2.39l-0.09,0.08L10.62,11c-0.14,0.07-0.29,0.1-0.46,0.1
	c-0.33,0-0.76-0.13-1.42-0.34l-0.29-0.09c-0.49-0.15-0.99-0.34-1.32-0.48c-0.15-0.06-0.24-0.1-0.25-0.1l-0.05-0.02L6.8,10.11z
	 M6.52,14.4c-0.01,0.11-0.03,0.22-0.04,0.33L6.47,14.8c-0.04,0.22-0.13,0.39-0.2,0.55c-0.16,0.31-0.29,0.57,0.08,0.98
	c0.47,0.51,0.91,1.26,1.18,1.99c0.2,0.54,0.59,0.6,1.03,0.66c0.13,0.02,0.28,0.04,0.43,0.08c0.09,0.02,0.19,0.05,0.29,0.08
	l0.05,0.02c0.12,0.04,0.22,0.07,0.32,0.09l0.07,0.02l-0.26-2.97c-0.05-0.63-0.8-0.89-1.4-1.1c-0.21-0.07-0.41-0.15-0.55-0.22
	c-0.03-0.02-0.07-0.04-0.12-0.06c-0.09-0.04-0.19-0.09-0.29-0.15c-0.15-0.1-0.49-0.38-0.5-0.39L6.53,14.3L6.52,14.4z M8.03,4.02
	c-0.72,0-1.78,0.11-2.74,0.62c-1.65,1.03-3,3.47-2.3,5.32c0.27,0.71,0.91,1.36,1.42,1.74c0.28,0.2,0.54,0.43,0.8,0.64
	c0.15,0.12,0.3,0.25,0.45,0.37l0.1,0.08l-0.01-0.13c-0.12-1.04,0.01-2.03,0.36-2.85c0.03-0.06,0.05-0.11,0.07-0.15l0.11-0.23
	l0.23-0.49c0.93-1.62,3.67-2.96,5.78-3.4l0.11-0.02l-0.09-0.07C11.76,5,11.05,4.66,9.96,4.3C9.4,4.12,8.72,4.02,8.03,4.02z
	 M13.34,6.17c-1.41,0-4.96,1.28-6.1,3.03C7.21,9.25,7.19,9.28,7.16,9.32L7.13,9.38L7.19,9.4c0,0,0.13,0.05,0.32,0.13
	c0.3,0.12,0.74,0.29,1.17,0.42l0.29,0.09c0.47,0.15,0.96,0.3,1.2,0.3c0.05,0,0.09-0.01,0.12-0.02c1.79-1.62,5.06-2.59,7.19-2.59
	c0.12,0,0.24,0,0.35,0.01l0.11,0.01l-0.07-0.09c-0.02-0.03-0.22-0.17-0.52-0.33c-0.48-0.26-1.51-0.74-3-1.02
	C14.02,6.26,13.69,6.21,13.34,6.17L13.34,6.17z"/>
</svg>
