<svg id="Layer_2" data-name="Layer 2" xmlns="http://www.w3.org/2000/svg" viewBox="0 0 19.66667 21.07182"><defs><style>.cls-1{fill:#474c50;}</style></defs><title>User</title><path class="cls-1" d="M12,14.03009c3.245,0,5.317-4.83942,5.317-7.382A5.26086,5.26086,0,0,0,12,1.46448,5.25378,5.25378,0,0,0,6.683,6.64806C6.683,9.18364,8.755,14.03009,12,14.03009ZM12,3.03078a3.67344,3.67344,0,0,1,3.71558,3.61728c0,2.14225-1.8332,5.82272-3.71558,5.82272S8.28442,8.7552,8.28442,6.64806A3.67347,3.67347,0,0,1,12,3.03078Z" transform="translate(-2.16667 -1.46409)"/><path class="cls-1" d="M21.8263,17.35234c0-3.87013-4.90964-5.11331-5.12034-5.16248a.80066.80066,0,0,0-.96929.56893l-.00347.01453a.77964.77964,0,0,0,.58646.93366c.04214.01406,3.91222.99737,3.91222,3.64536v3.61728H3.76109V17.35234c0-2.648,3.87013-3.64536,3.91227-3.64536l.01449-.00347a.77959.77959,0,0,0,.56846-.94472.80066.80066,0,0,0-.96929-.56893c-.20368.05616-5.12034,1.29236-5.12034,5.16248v5.18357H21.83333Z" transform="translate(-2.16667 -1.46409)"/></svg>