<svg id="Layer_2" data-name="Layer 2" xmlns="http://www.w3.org/2000/svg" viewBox="0 0 20.01591 15.375"><defs><style>.cls-1{fill:#41494f;}</style></defs><title>Vegas</title><path class="cls-1" d="M11.99486,14.87383a30.25382,30.25382,0,0,1,1.2362-3.69131c.13856-.32041-.31176-.74693-.38319-.92878-.16022-.40052-.61486-.40052-1.03271-.2533-.06495.02381-.236.12989-.2966.16237a32.47848,32.47848,0,0,0-3.21286,3.28c-.33124.31609-.85516.6062-.9396.15155-.06063-.31825-.04764-.5131.11474-.55207A2.52907,2.52907,0,0,0,9.28428,11.897a.88329.88329,0,0,0,.06711-1.03269c-.48062-.70362-.76425-.95909-1.53931-.2165-1.3423,1.28817-1.62158,2.69757-1.15611,3.44017a1.18425,1.18425,0,0,0,1.59128.44816,12.5788,12.5788,0,0,0,1.75364-1.8922c-.01516.433-.12557.80538.14505,1.1193.06279.07362.55857.63219,1.33148-.2533a13.49114,13.49114,0,0,1-.78589,1.483,11.46278,11.46278,0,0,0-3.031.41784c-.2165.13206-.80105.9028-.44816,1.03269.12124.04547,2.02643-.249,2.99852-.37454A24.38693,24.38693,0,0,0,9.06345,18.2534a1.1128,1.1128,0,0,0,1.27735,1.41373c.80971-.10175.78589-1.47219,1.4159-3.85152,4.42093-.84219,4.42309-.84219,10.25125-1.84675C22.00145,13.9667,13.38695,14.72445,11.99486,14.87383ZM8.65211,10.78849a2.85513,2.85513,0,0,1-1.141,1.65839A2.51282,2.51282,0,0,1,8.65211,10.78849Zm1.72766,7.65109.00433.00217c-.039.29444-.12341.433-.24465.433-.40269,0-.394-.31393-.29011-.54125s.90281-1.68.90281-1.68S10.41873,18.1473,10.37977,18.43958Zm.47587-5.23261a2.04012,2.04012,0,0,1,.26024-1.1238,4.11348,4.11348,0,0,1,.79021-1.17992,1.74913,1.74913,0,0,1,.33342-.27062.1753.1753,0,0,1,.06495-.03031,1.71259,1.71259,0,0,1-.18619.77724A4.05385,4.05385,0,0,1,10.85563,13.207Z" transform="translate(-1.99205 -4.3125)"/><path class="cls-1" d="M13.32415,12.93184a1.06084,1.06084,0,0,0,.69713.74042.72172.72172,0,0,0,.7729-.37454,3.482,3.482,0,0,0,.33124-.71011,3.51138,3.51138,0,0,0,.16454.71228c.30527.62567.93745.433,1.34879-.09526a9.38128,9.38128,0,0,0,.81837-1.18641,8.98092,8.98092,0,0,0,.47413-.81187c.09093.53908.682.814.2598.88548s-.50661.09743-.6495.3031a.78154.78154,0,0,0-.05846.6495.91146.91146,0,0,0,1.09982.49361,1.02622,1.02622,0,0,0,.78806-.788.303.303,0,0,1,.2165-.18835c.53475-.0433.79888.10175,1.0262-.381.11474-.24248.01948-.61486-.23166-.62135s-.24248.09309-.85084.197c-.13423.02381-.19919.03248-.24032-.12989-.16237-.6127-.51526-.75343-.68413-1.36394-.10825-.38971.3529-.70147.433-1.0825.09743-.49146-.459-.69713-.75775-.3031a3.12817,3.12817,0,0,0-.433.94393,2.814,2.814,0,0,1-.27713.70579c-.28361.4698-.53908.96342-.83135,1.42674-.18835.29877-.7924,1.1561-.68415.58022.09743-.51527.184-1.03271.28578-1.548a.79235.79235,0,0,0-.20134-.7664,2.38155,2.38155,0,0,1-.31608-.394.4889.4889,0,0,0-.66465-.24465,1.782,1.782,0,0,0-.49579.30526A4.58338,4.58338,0,0,0,13.41292,11.871,1.71466,1.71466,0,0,0,13.32415,12.93184Zm5.09857-.09093c.01731.07145-.08012.16886-.1364.1732a.29227.29227,0,0,1-.24681-.07794.1191.1191,0,0,1-.03988-.16362l.01173-.01608c.04764-.05629.158-.10176.34207-.02815C18.37077,12.75648,18.427,12.75648,18.42272,12.84091Zm-3.92081-1.27735a3.68065,3.68065,0,0,1,.708-1.05652,1.56539,1.56539,0,0,1,.29877-.24248.156.156,0,0,1,.05846-.02815,1.533,1.533,0,0,1-.16671.695,3.53273,3.53273,0,0,1-1.13013,1.64107A1.79881,1.79881,0,0,1,14.50191,11.56356Z" transform="translate(-1.99205 -4.3125)"/><path class="cls-1" d="M12.87384,5.38251c.70146-.30959.51094-.46114.39835-.54558a1.77652,1.77652,0,0,0-1.732-.42C6.27061,6.93048,4.465,14.25248,4.46934,14.21135a36.96143,36.96143,0,0,1,1.0825-6.83272,1.57393,1.57393,0,0,0-.31393-1.42024.27064.27064,0,0,0-.44816-.013A16.69808,16.69808,0,0,1,2.09434,8.22731c-.1364.08659-.1364.20351,0,.30743a.64955.64955,0,0,0,.18835.09959A.96782.96782,0,0,0,2.98632,8.578a4.57892,4.57892,0,0,0,1.34879-.7361A66.91018,66.91018,0,0,0,3.625,15.58612a1.08253,1.08253,0,0,0,.53043.88331c.28578.19269.76208.23382.814-.10825A13.58794,13.58794,0,0,1,12.87384,5.38251Z" transform="translate(-1.99205 -4.3125)"/></svg>