<svg id="Layer_2" data-name="Layer 2" xmlns="http://www.w3.org/2000/svg" viewBox="0 0 20.44836 16.18828"><defs><style>.cls-1{fill:#41494f;}</style></defs><title>Vegas_Tables</title><path class="cls-1" d="M19.63213,3.90586H4.36783a2.595,2.595,0,0,0-2.592,2.59224V9.87a10.22418,10.22418,0,1,0,20.44836,0V6.4981A2.595,2.595,0,0,0,19.63213,3.90586Zm1.74,5.9641a9.37217,9.37217,0,0,1-18.74434,0V6.4981a1.742,1.742,0,0,1,1.74-1.74025H19.63213a1.742,1.742,0,0,1,1.74,1.74025Z" transform="translate(-1.77582 -3.90586)"/><path class="cls-1" d="M17.53809,8.16593a5.53809,5.53809,0,0,1-11.07618,0h-1.517v.852h.72348a6.33762,6.33762,0,0,0,.45135,1.6482l-.74881.43234.426.738.71029-.41007a6.43626,6.43626,0,0,0,1.32335,1.57588l-.85237.85274.60241.60241.90362-.904L8.306,13.37528a6.36848,6.36848,0,0,0,7.38718.00051l-.17766.17764.90383.904.60241-.60241-.85247-.85265a6.43376,6.43376,0,0,0,1.32342-1.5759l.71011.41.426-.738-.74866-.43223a6.33637,6.33637,0,0,0,.45138-1.6483h.7233v-.852H17.53809Z" transform="translate(-1.77582 -3.90586)"/><rect class="cls-1" x="7.66812" y="2.55604" width="5.11212" height="0.85201"/></svg>