<svg id="Layer_2" data-name="Layer 2" xmlns="http://www.w3.org/2000/svg" viewBox="0 0 19.96914 19.2728"><defs><style>.cls-1{fill:#41494f;}</style></defs><title>Vegas_Jackpots</title><path class="cls-1" d="M14.66258,7.06882h0l-9.8199-.0156a.37028.37028,0,0,0-.37088.36969V7.423l-.0079,4.97011a.37011.37011,0,0,0,.36962.37058h.00009l9.8199.01561a.37012.37012,0,0,0,.37092-.36935v-.00007l.00788-4.97012A.37029.37029,0,0,0,14.66258,7.06882Zm-6.92506,4.959-2.53209-.004.00672-4.22948,2.53211.004Zm3.27338.00522L8.4785,12.029l.00672-4.22948,2.53241.004Zm3.2734.0052-2.53239-.004.00277-1.74449,2.53239.004Zm.00394-2.48517-2.53239-.004.00277-1.74431,2.53239.004Z" transform="translate(-2.01543 -2.3636)"/><path class="cls-1" d="M21.94254,8.2552a1.61838,1.61838,0,0,0-1.57514-1.2535l0,0a1.61842,1.61842,0,0,0-.37768,3.193l-.02057,4.91123a1.64782,1.64782,0,0,1-1.64847,1.64354l-.8653-.00136.01546-9.72581A2.389,2.389,0,0,0,15.11,4.633l.00192-1.21157A1.04369,1.04369,0,0,0,14.071,2.3773L5.4491,2.3636A1.04338,1.04338,0,0,0,4.40518,3.40439L4.40326,4.616a2.38858,2.38858,0,0,0-2.3684,2.38178L2.01543,19.22882a2.38959,2.38959,0,0,0,2.38307,2.39062l10.66226.017a2.3898,2.3898,0,0,0,2.39062-2.383l.00281-1.7646.8653.00138a2.38955,2.38955,0,0,0,2.39064-2.38205l.02057-4.91125A1.6184,1.6184,0,0,0,21.94254,8.2552ZM5.14615,3.40556a.30189.30189,0,0,1,.30177-.30131l8.62189.01369a.302.302,0,0,1,.30114.30229L14.369,4.63066,5.14423,4.616ZM16.7104,19.25216a1.64785,1.64785,0,0,1-1.64847,1.64359L4.39968,20.87882A1.64793,1.64793,0,0,1,2.75609,19.23L2.77552,6.99894A1.648,1.648,0,0,1,4.42433,5.35535l10.66225.01694a1.648,1.648,0,0,1,1.64326,1.64881ZM21.2432,8.62243a.88.88,0,1,1,0-.00047Z" transform="translate(-2.01543 -2.3636)"/><path class="cls-1" d="M9.73962,15.3425a1.48688,1.48688,0,1,0,1.48448,1.48928v0A1.4887,1.4887,0,0,0,9.73962,15.3425Zm-.00356,2.23312a.74622.74622,0,1,1,.7474-.74506A.74623.74623,0,0,1,9.73606,17.57562Z" transform="translate(-2.01543 -2.3636)"/><path class="cls-1" d="M13.53284,15.34854a1.48687,1.48687,0,1,0,1.48452,1.48923A1.48687,1.48687,0,0,0,13.53284,15.34854Zm.74384,1.48806a.74621.74621,0,1,1-.745-.7474.747.747,0,0,1,.745.7474Z" transform="translate(-2.01543 -2.3636)"/><path class="cls-1" d="M5.946,15.33649a1.48687,1.48687,0,1,0,1.48485,1.48923A1.48687,1.48687,0,0,0,5.946,15.33649Zm-.00356,2.2331a.74622.74622,0,1,1,.74743-.745A.7462.7462,0,0,1,5.94248,17.56959Z" transform="translate(-2.01543 -2.3636)"/></svg>