<svg id="Layer_2" data-name="Layer 2" xmlns="http://www.w3.org/2000/svg" viewBox="0 0 20.01698 19.89482"><defs><style>.cls-1{fill:#41494f;}</style></defs><title>Video_Poker</title><path class="cls-1" d="M14.87754,7.7687a3.004,3.004,0,0,0-1.1061-1.59892l3.52763-3.52752-.58969-.58967L13.00407,5.75775a2.91489,2.91489,0,0,0-2.00844.00008l-3.705-3.70524-.58967.58967,3.52738,3.52761A3.0041,3.0041,0,0,0,9.12206,7.7687H1.99151V21.94741h20.017V7.7687ZM12,6.41338A2.17385,2.17385,0,0,1,14.00084,7.7687h-4.002A2.17419,2.17419,0,0,1,12,6.41338Zm9.17447,14.7H2.82551V8.60274H21.17445Z" transform="translate(-1.99151 -2.05259)"/><path class="cls-1" d="M6.26025,20.27935h8.14246a2.60394,2.60394,0,0,0,2.60112-2.60108v-5.6404a2.604,2.604,0,0,0-2.60112-2.60108H6.26025a2.604,2.604,0,0,0-2.60108,2.60108v5.6404A2.60392,2.60392,0,0,0,6.26025,20.27935Zm-1.767-8.24148a1.76894,1.76894,0,0,1,1.767-1.767h8.14246a1.76894,1.76894,0,0,1,1.767,1.767v5.6404a1.76894,1.76894,0,0,1-1.767,1.767H6.26025a1.76894,1.76894,0,0,1-1.767-1.767Z" transform="translate(-1.99151 -2.05259)"/><circle class="cls-1" cx="17.51486" cy="10.30334" r="0.83405"/><circle class="cls-1" cx="17.51486" cy="13.6395" r="0.83405"/><path class="cls-1" d="M10.25846,17.86763a.44172.44172,0,0,0,.10445-.01067c.47349-.11165,2.84888-2.57467,2.89123-3.97728a1.63845,1.63845,0,0,0-2.83941-1.16358,1.63912,1.63912,0,0,0-2.90579.98982C7.46849,15.05408,9.73509,17.85193,10.25846,17.86763Zm-1.08572-5.018a.90544.90544,0,0,1,.85937.71759.36633.36633,0,0,0,.7115.02154.90568.90568,0,0,1,1.77832.26872c-.02815.92662-1.66987,2.7102-2.23894,3.19613v0c-.53852-.51955-2.06958-2.39889-2.04181-3.32538A.90547.90547,0,0,1,9.17274,12.84966Z" transform="translate(-1.99151 -2.05259)"/></svg>