<svg id="Layer_2" data-name="Layer 2" xmlns="http://www.w3.org/2000/svg" viewBox="0 0 20.05859 13.74296"><defs><style>.cls-1{fill:#41494f;}</style></defs><title>Virtuals</title><path class="cls-1" d="M21.67791,15.74983H20.55142L20.55168,6.272a1.24135,1.24135,0,0,0-1.22221-1.14344H4.62211A1.17944,1.17944,0,0,0,3.444,6.30657v9.44755H2.32185a.35163.35163,0,0,0-.35115.35139v.9675a1.80489,1.80489,0,0,0,1.80706,1.79847H20.22628a1.805,1.805,0,0,0,1.803-1.803V16.101A.35163.35163,0,0,0,21.67791,15.74983Zm-.34685,1.31865a1.106,1.106,0,0,1-1.10476,1.10476H3.77778a1.10593,1.10593,0,0,1-1.10454-1.10476v-.61612H3.79089A.35163.35163,0,0,0,4.142,16.101V6.30657a.48057.48057,0,0,1,.48005-.48005H19.33375a.55228.55228,0,0,1,.52374.502V16.101a.35168.35168,0,0,0,.35139.35139h1.12219Z" transform="translate(-1.9707 -5.12852)"/><path class="cls-1" d="M18.71549,6.5932H5.40531a.35138.35138,0,0,0-.35115.35019l.00249.021-.00249.00066v8.77247c0,.01015.00215.01969.003.0296-.00085.00988-.003.0194-.003.02948a.35712.35712,0,0,0,.35115.3521h4.78954l.011.0339a.78768.78768,0,0,0,.72734.57315h2.13316a.78547.78547,0,0,0,.7276-.57315l.011-.0339h4.7936a.56216.56216,0,0,0,.4681-.41118V6.96506l-.00249-.00066.00249-.021A.35136.35136,0,0,0,18.71549,6.5932Zm-7.78493,9.46-.01432-.01432a.21239.21239,0,0,1-.05371-.149v-.09238a.35164.35164,0,0,0-.35139-.35115H5.75646V7.2955H9.75663l.0028.0339.011-.0339h4.58l.011.0339.0028-.0339h4.00018v4.90019h-1.1267a1.28762,1.28762,0,0,0,.36742-1.01292c-.03837-.3083-.28661-1.041-1.78653-1.18882h-1.166a1.01908,1.01908,0,1,0-1.01575,1.35473l.33038.6526-.06741.19443h-.09544a6.70134,6.70134,0,0,1-2.36338-2.17641l-.046-.06105a.46631.46631,0,0,0-.50639-.11536.47135.47135,0,0,0-.29456.353l-.30584.75854-1.068.89529A.76889.76889,0,0,0,9.15346,12.935q.02323.0263.04879.05035a.7447.7447,0,0,0,.61161.19264l.99357-.164a12.0348,12.0348,0,0,0,1.58776,3.03922Zm3.6793-4.28317-.31277-.61773.00093-.00084a1.0253,1.0253,0,0,0,.2075-.20607l.00668-.00812a1.01368,1.01368,0,0,0,.067-.10575l.02136-.03927a1.00657,1.00657,0,0,0,.04886-.11064l.00446-.01009,1.1309-.00143c.67017.06684,1.11.29554,1.14776.59687.03443.27443-.26763.68615-.88906.92868h-1.405A.54881.54881,0,0,0,14.60987,11.77006Zm-.57425-1.45066-.00128.02817a.34237.34237,0,0,1-.24.31045l-.03951.01229a.34343.34343,0,1,1,.28077-.35091Zm4.32874,5.127H13.48862a.35164.35164,0,0,0-.35139.35115v.03752a12.06931,12.06931,0,0,1-1.75127-3.278l-.06882-.31409-1.6022.26443a.05984.05984,0,0,1-.04962-.01719.08736.08736,0,0,1-.02681-.06606.08518.08518,0,0,1,.02281-.05989l1.19215-.99949.2512-.62337a7.85639,7.85639,0,0,0,2.4458,2.08934l.07681.0427h2.10736l.26561,1.60453-.46962-.02647-.0384.67678.63413.03578.03145.00076a.5488.5488,0,0,0,.52788-.69713l-.26408-1.59425h1.94275Z" transform="translate(-1.9707 -5.12852)"/></svg>