<?xml version="1.0" encoding="utf-8"?>
<!-- Generator: Adobe Illustrator 19.2.1, SVG Export Plug-In . SVG Version: 6.00 Build 0)  -->
<svg version="1.1" id="Layer_2" xmlns="http://www.w3.org/2000/svg" xmlns:xlink="http://www.w3.org/1999/xlink" x="0px" y="0px"
	 viewBox="0 0 24 24" style="enable-background:new 0 0 24 24;" xml:space="preserve">
<style type="text/css">
	.st0{fill:#666666;}
	.st1{fill:#666666;stroke:#000000;stroke-width:2;stroke-miterlimit:10;}
</style>
<path class="st0" d="M10.89,16.47c-0.32,0-0.61-0.23-0.73-0.57l-0.01-0.03H5.37c-0.19,0-0.35-0.16-0.35-0.35
	c0-0.19,0.16-0.35,0.35-0.35h5.09c0.19,0,0.35,0.16,0.35,0.35v0.09c0,0.09,0.04,0.14,0.05,0.15l0.01,0.01h2.14l0.01-0.01
	c0.02-0.02,0.05-0.08,0.05-0.15v-0.09c0-0.19,0.16-0.35,0.35-0.35h5.09c0.19,0,0.35,0.16,0.35,0.35c0,0.19-0.16,0.35-0.35,0.35
	h-4.78l-0.01,0.03c-0.11,0.34-0.4,0.57-0.73,0.57H10.89z"/>
<path class="st0" d="M3.75,18.58c-0.99,0-1.8-0.8-1.8-1.79v-0.96c0-0.19,0.16-0.35,0.35-0.35h1.12V6.05c0-0.65,0.53-1.17,1.17-1.17
	h14.66c0.63,0,1.16,0.49,1.22,1.14l0,9.45h1.12c0.19,0,0.35,0.16,0.35,0.35v0.96c0,0.99-0.81,1.8-1.8,1.8H3.75z M2.65,16.78
	c0,0.61,0.49,1.1,1.1,1.1h16.4c0.61,0,1.1-0.49,1.1-1.1v-0.61h-1.12c-0.19,0-0.35-0.16-0.35-0.35V6.07c-0.03-0.28-0.26-0.5-0.52-0.5
	H4.59c-0.26,0-0.48,0.21-0.48,0.48v9.76c0,0.19-0.16,0.35-0.35,0.35H2.65V16.78z"/>
<g>
	<g>
		<path class="st0" d="M12.57,16.05c-0.52-0.58-1.46-2.19-1.81-3.31L9.77,12.9c-0.23,0.03-0.45-0.04-0.61-0.19
			C9,12.56,8.92,12.35,8.92,12.14c0-0.22,0.1-0.42,0.26-0.56l1.06-0.89l0.3-0.76c0.03-0.16,0.14-0.29,0.29-0.35
			c0.18-0.07,0.37-0.02,0.5,0.12l0.05,0.06c0.65,1.1,1.81,1.86,2.36,2.17h4.59v0.68h-4.76l-0.08-0.04c-0.5-0.28-1.65-1-2.44-2.08
			l-0.25,0.62l-1.19,1C9.6,12.1,9.6,12.13,9.6,12.15c0,0.02,0,0.04,0.03,0.07c0.01,0.01,0.03,0.02,0.05,0.02l1.6-0.26l0.07,0.31
			c0.22,0.98,1.48,3,1.98,3.56L12.57,16.05z"/>
	</g>
	<g>
		<path class="st0" d="M13.64,11.08c-0.56,0-1.02-0.46-1.02-1.02c0-0.56,0.46-1.02,1.02-1.02c0.56,0,1.02,0.46,1.02,1.02
			C14.66,10.62,14.2,11.08,13.64,11.08z M13.64,9.72c-0.19,0-0.34,0.15-0.34,0.34c0,0.19,0.15,0.34,0.34,0.34
			c0.19,0,0.34-0.15,0.34-0.34C13.98,9.87,13.83,9.72,13.64,9.72z"/>
	</g>
	<g>
		<path class="st1" d="M15.25,12.85"/>
	</g>
	<g>
		<path class="st1" d="M14.11,12.42"/>
	</g>
	<g>
		<path class="st0" d="M16.09,14.88c-0.01,0-0.02,0-0.03,0l-0.63-0.04l0.04-0.67l0.47,0.03l-0.27-1.64c-0.05-0.19,0-0.39,0.14-0.53
			l0.05-0.05l0.07-0.03c0.66-0.24,0.97-0.67,0.94-0.95c-0.04-0.3-0.48-0.53-1.14-0.6l-1.13,0c-0.07,0.19-0.19,0.36-0.36,0.48
			l0.31,0.62c0.09,0.18,0.07,0.4-0.04,0.56l-0.16,0.46l-0.64-0.22l0.2-0.57l-0.36-0.71c-0.06-0.12-0.07-0.26-0.04-0.4l0.05-0.18
			l0.17-0.05c0.14-0.04,0.23-0.17,0.24-0.31l0.01-0.18l0.16-0.09c0.09-0.05,0.18-0.08,0.28-0.08h1.34c1.5,0.15,1.74,0.88,1.78,1.19
			c0.08,0.62-0.4,1.24-1.2,1.59l0.28,1.68c0.05,0.16,0.01,0.34-0.09,0.48C16.43,14.8,16.27,14.88,16.09,14.88z"/>
	</g>
	<g>
		<path class="st1" d="M15.45,13.83"/>
	</g>
</g>
<path class="st0" d="M5.76,6.52L5.72,6.53v8.92c0,0.19-0.16,0.35-0.35,0.35c-0.19,0-0.35-0.16-0.35-0.35V6.71"/>
<path class="st0" d="M14.3,7.07l-0.01-0.03H5.37c-0.19,0-0.35-0.16-0.35-0.35c0-0.19,0.16-0.35,0.35-0.35h8.99"/>
<path class="st0" d="M18.26,6.52l0.03,0.01v8.92c0,0.19,0.16,0.35,0.35,0.35c0.19,0,0.35-0.16,0.35-0.35V6.71"/>
<path class="st0" d="M9.72,7.07l0.01-0.03h8.92c0.19,0,0.35-0.16,0.35-0.35c0-0.19-0.16-0.35-0.35-0.35H9.65"/>
</svg>
