<?xml version="1.0" encoding="utf-8"?>
<!-- Generator: Adobe Illustrator 19.2.1, SVG Export Plug-In . SVG Version: 6.00 Build 0)  -->
<svg version="1.1" id="Layer_2" xmlns="http://www.w3.org/2000/svg" xmlns:xlink="http://www.w3.org/1999/xlink" x="0px" y="0px"
	 viewBox="0 0 24 24" style="enable-background:new 0 0 24 24;" xml:space="preserve">
<style type="text/css">
	.st0{fill:#666666;}
</style>
<g>
	<path class="st0" d="M12.11,1.91c-5.51,0-9.98,4.47-9.98,9.98s4.47,9.98,9.98,9.98s9.98-4.47,9.98-9.98S17.62,1.91,12.11,1.91
		L12.11,1.91z M12.11,2.64c0.61,0,1.2,0.06,1.78,0.17c-3.81,1.02-6.72,3.3-9.1,5.88C4.45,8.46,4.1,8.21,3.76,7.92
		C5.24,4.8,8.42,2.64,12.11,2.64L12.11,2.64z M15.39,3.24c0.88,0.33,1.69,0.79,2.41,1.36c-3.29,0.89-6.52,2.97-9.29,5.79
		c-1.04-0.34-2.07-0.73-3.07-1.3C8.01,6.32,11.14,3.99,15.39,3.24L15.39,3.24z M18.49,5.19c0.52,0.5,0.99,1.06,1.38,1.67
		c-3.21,0.94-5.77,2.54-7.86,4.61c-0.91-0.31-1.81-0.56-2.71-0.82C12.08,7.89,15.29,5.93,18.49,5.19L18.49,5.19z M20.26,7.52
		c0.7,1.3,1.1,2.79,1.1,4.37c0,2.29-0.83,4.37-2.2,5.99c0.93-3.64,0.07-6.58-0.59-9.8C19.11,7.87,19.67,7.68,20.26,7.52L20.26,7.52z
		 M17.87,8.36c0.74,3.59,1.64,6.59,0.17,10.62c-0.76,0.63-1.62,1.15-2.55,1.51c0.9-3.26,0.88-6.95-0.16-10.77
		C16.11,9.22,16.96,8.76,17.87,8.36L17.87,8.36z M3.46,8.63c2.71,2.19,5.58,2.62,8.3,3.53c0.05,0.97,0.09,1.94,0.09,2.9
		c-3.81-1-6.6-2.33-8.84-4.75C3.1,9.73,3.25,9.17,3.46,8.63L3.46,8.63z M14.68,10.17c1,3.8,0.94,7.45-0.05,10.61
		c-0.8,0.23-1.65,0.35-2.52,0.35c-0.17,0-0.34-0.01-0.51-0.01c1.18-2.92,1.04-6.03,0.89-9.08C13.16,11.36,13.89,10.74,14.68,10.17
		L14.68,10.17z M2.89,11.26c2.32,2.3,5.21,3.6,8.95,4.56c-0.03,1.03-0.12,2.05-0.32,3.04c-2.49-0.5-5.6-1.33-8.34-4.61
		c-0.2-0.75-0.3-1.54-0.3-2.35C2.86,11.68,2.87,11.47,2.89,11.26L2.89,11.26z M3.84,16.02c2.56,2.38,5.33,3.11,7.5,3.55
		c-0.13,0.5-0.3,0.99-0.51,1.47C7.76,20.62,5.17,18.69,3.84,16.02L3.84,16.02z M3.84,16.02"/>
</g>
</svg>
