<svg id="Layer_2" data-name="Layer 2" xmlns="http://www.w3.org/2000/svg" viewBox="0 0 19.90003 14.91999"><defs><style>.cls-1{fill:#41494e;}</style></defs><title>Voucher_Codes</title><path class="cls-1" d="M20.29,4.54H3.71A1.65589,1.65589,0,0,0,2.05,6.1918V17.8a1.65589,1.65589,0,0,0,1.65179,1.66H20.29a1.65589,1.65589,0,0,0,1.66-1.65173V6.2A1.66878,1.66878,0,0,0,20.29,4.54ZM8.68,5.37h11.6a.82792.82792,0,0,1,.83.82587V8.93H12.83v-.4a1.76035,1.76035,0,0,0-1.67-1.84,1.5555,1.5555,0,0,0-.9.29l-1.4,1c-.05-.01-.11-.03-.18005-.04Zm.86,3.15,1.2-.86a.72919.72919,0,0,1,.42-.14A.93985.93985,0,0,1,12,8.53V9.82a1.10153,1.10153,0,0,1-.27.74.71685.71685,0,0,1-.86.2l-1.31-.58a1.22147,1.22147,0,0,0,.16-.6V9.16A1.28367,1.28367,0,0,0,9.54,8.52ZM2.88,6.2a.82787.82787,0,0,1,.82587-.83H7.86V7.94c-.07.00995-.13.03-.18005.04l-1.4-.99a1.55633,1.55633,0,0,0-.9-.29A1.76677,1.76677,0,0,0,3.71,8.54v.4H2.88Zm4.1,3.98-1.31.59a.75294.75294,0,0,1-.29.06A.93271.93271,0,0,1,4.55,9.82V8.54a.92661.92661,0,0,1,.83539-1.00958L5.39,7.53a.72934.72934,0,0,1,.42.14l1.2.86a1.1396,1.1396,0,0,0-.19.63v.41A1.23071,1.23071,0,0,0,6.98,10.18Zm.87,8.46H3.71V18.63a.828.828,0,0,1-.83-.82593V9.76h.83v.07a1.76553,1.76553,0,0,0,1.66,1.84A1.52173,1.52173,0,0,0,6,11.53l1.69-.76a.74905.74905,0,0,0,.16.04Zm.63-8.65H8.06a.41194.41194,0,0,1-.41-.41V9.16a.41185.41185,0,0,1,.41-.41h.41a.41177.41177,0,0,1,.41.41v.41a.39411.39411,0,0,1-.36719.41919C8.50189,9.99,8.49091,9.9902,8.48,9.99Zm11.81409,8.64H8.68V10.8a.93105.93105,0,0,0,.16-.04l1.69.76a1.55791,1.55791,0,0,0,.63.14,1.61317,1.61317,0,0,0,1.18-.54,1.9503,1.9503,0,0,0,.48-1.3V9.76h8.29V17.8h.00995A.828.828,0,0,1,20.29407,18.63Z" transform="translate(-2.04999 -4.54)"/></svg>