<svg id="Layer_2" xmlns="http://www.w3.org/2000/svg" viewBox="0 0 24 24"><style>.st0{fill:#666666;}</style><path class="st0" d="M12 21.93c-.64 0-1.16-.52-1.16-1.15v-.35l-.46.46c-.29.29-.75.32-1.08.07-.02-.02-.05-.04-.08-.07-.15-.15-.24-.36-.24-.58 0-.22.09-.43.24-.58l1.62-1.62V14.8L8.5 17.13v2.3c0 .41-.31.76-.71.81-.03 0-.07.01-.11.01-.45 0-.82-.37-.82-.82v-.66l-.25.25c-.22.22-.51.34-.82.34-.31 0-.6-.12-.82-.34-.09-.09-.16-.18-.21-.29-.09-.17-.13-.37-.13-.56.01-.29.13-.57.34-.78l.25-.25h-.65c-.45 0-.82-.37-.82-.82 0-.45.37-.82.82-.82h2.3l2.34-2.34H5.9l-1.62 1.62c-.29.29-.75.32-1.08.07-.03-.02-.06-.05-.08-.07-.16-.16-.24-.36-.24-.58 0-.22.09-.42.24-.57l.46-.46h-.35c-.38 0-.74-.19-.95-.5-.13-.19-.2-.42-.2-.65 0-.37.18-.72.48-.94.2-.14.43-.22.67-.22h.35l-.46-.46c-.16-.16-.24-.36-.24-.58 0-.22.09-.42.24-.58.13-.13.31-.22.49-.23.24-.05.49.03.66.21l1.62 1.62H9.2L6.87 8.5h-2.3c-.45 0-.82-.37-.82-.82 0-.38.27-.72.65-.8.06-.01.12-.02.17-.02h.66l-.25-.25c-.05-.05-.09-.1-.14-.16-.31-.46-.25-1.08.14-1.47.22-.22.51-.34.82-.34.31 0 .6.12.82.34l.25.25v-.66c0-.45.37-.82.82-.82.45 0 .82.37.82.82v2.3l2.34 2.34V5.9L9.22 4.27c-.15-.15-.24-.36-.24-.58 0-.22.09-.42.24-.58.32-.32.84-.32 1.16 0l.46.46v-.34c0-.64.52-1.16 1.16-1.16.64 0 1.15.52 1.15 1.16v.35l.46-.46c.32-.32.84-.32 1.16 0 .32.32.32.84 0 1.16L13.15 5.9v3.31l2.34-2.34v-2.3c0-.45.37-.82.82-.82.45 0 .82.37.82.82v.66l.25-.25c.22-.22.51-.34.82-.34.31 0 .6.12.82.34.22.22.34.51.34.81 0 .31-.12.6-.34.82l-.25.25h.66c.45 0 .82.37.82.82 0 .45-.37.82-.82.82h-2.3l-2.34 2.34h3.31l1.62-1.62c.32-.32.84-.32 1.16 0 .32.32.32.84 0 1.16l-.47.47h.35c.64 0 1.15.52 1.15 1.15 0 .51-.33.95-.81 1.1-.11.03-.22.05-.34.05h-.35l.46.46c.09.09.16.21.2.33.09.29.02.61-.2.83-.15.15-.36.24-.58.24-.22 0-.42-.09-.58-.24l-1.62-1.62h-3.31l2.34 2.34h2.3c.3 0 .57.16.72.43.07.12.1.25.1.39 0 .45-.37.82-.82.82h-.66l.25.25c.21.21.33.48.34.77.01.32-.11.63-.34.86-.13.13-.3.23-.48.29-.11.03-.22.05-.34.05-.31 0-.6-.12-.82-.34l-.25-.25v.66c0 .19-.06.37-.18.51-.12.16-.31.27-.53.3-.03 0-.07.01-.11.01-.45 0-.82-.37-.82-.82v-2.3l-2.34-2.34v3.31l1.62 1.62c.32.32.32.84 0 1.16-.15.15-.36.24-.58.24-.22 0-.42-.09-.58-.24l-.46-.46v.35c0 .26-.09.52-.25.72 0 .01-.01.01-.01.02-.1.12-.22.22-.35.29-.15.09-.34.14-.53.14zm-.87-2.47c.04 0 .07.01.11.02.11.04.17.15.17.26v1.03c0 .33.26.59.59.59.1 0 .19-.02.27-.07.07-.04.12-.08.17-.13 0-.01.01-.01.01-.02.09-.1.13-.23.13-.37v-1.03c0-.11.07-.22.17-.26.11-.04.23-.02.31.06l.95.95c.05.05.11.08.18.08.07 0 .13-.03.18-.07.1-.1.1-.26 0-.36l-1.71-1.71c-.05-.05-.08-.12-.08-.2v-4.11c0-.11.07-.22.17-.26.11-.04.23-.02.31.06l2.91 2.91c.05.05.08.12.08.2v2.41c0 .14.11.26.26.26h.03c.07-.01.13-.04.17-.09.04-.05.06-.1.06-.16v-1.34c0-.11.07-.22.17-.26.11-.04.23-.02.31.06l.73.73c.15.15.39.21.59.15.09-.03.18-.08.24-.15.12-.12.18-.27.17-.44-.01-.15-.07-.29-.17-.4l-.73-.73c-.08-.08-.1-.2-.06-.31.04-.11.15-.17.26-.17h1.34c.14 0 .25-.11.25-.26 0-.04-.01-.08-.03-.12-.05-.08-.13-.13-.23-.14H17c-.07 0-.15-.03-.2-.08l-2.91-2.91c-.08-.08-.1-.2-.06-.31.04-.11.15-.17.26-.17h4.11c.07 0 .15.03.2.08l1.71 1.71c.05.05.11.08.18.08.07 0 .13-.03.18-.07.07-.07.09-.17.06-.26-.01-.04-.03-.08-.06-.1l-.95-.95c-.08-.08-.1-.2-.06-.31.04-.11.15-.17.26-.17h1.03c.06 0 .12-.01.17-.03.25-.08.42-.31.42-.56 0-.33-.26-.59-.59-.59h-1.03c-.11 0-.22-.07-.26-.17-.04-.11-.02-.23.06-.31l.95-.95c.1-.1.1-.26 0-.36-.1-.1-.26-.1-.36 0l-1.7 1.71c-.05.05-.12.08-.2.08H14.1c-.11 0-.22-.07-.26-.17-.04-.11-.02-.23.06-.31l2.91-2.91c.05-.05.12-.08.2-.08h2.41c.14 0 .25-.11.25-.26 0-.14-.11-.25-.25-.25h-1.34c-.11 0-.22-.07-.26-.17-.04-.11-.02-.23.06-.31l.73-.73c.11-.11.17-.26.17-.42 0-.16-.06-.3-.17-.42-.11-.11-.26-.17-.42-.17-.16 0-.31.06-.42.17l-.73.73c-.08.08-.2.1-.31.06-.11-.04-.17-.15-.17-.26V4.57c0-.14-.11-.25-.25-.25s-.26.11-.26.25v2.41c0 .07-.03.15-.08.2l-2.91 2.91c-.08.08-.2.1-.31.06-.11-.04-.17-.15-.17-.26V5.78c0-.07.03-.15.08-.2l1.71-1.71c.1-.1.1-.26 0-.36-.1-.1-.26-.1-.36 0l-.95.95c-.08.08-.2.1-.31.06-.11-.04-.17-.15-.17-.26V3.23c0-.33-.26-.59-.59-.59-.33 0-.59.26-.59.59v1.03c0 .11-.07.22-.17.26-.11.04-.23.02-.31-.06l-.94-.95c-.1-.1-.26-.1-.36 0-.05.05-.07.12-.07.18 0 .07.03.13.08.18l1.71 1.71c.05.05.08.12.08.2v4.11c0 .11-.07.22-.17.26-.11.04-.23.02-.31-.06l-2.92-2.9c-.05-.05-.08-.12-.08-.2V4.57c0-.14-.12-.25-.26-.25s-.26.11-.26.25v1.34c0 .11-.07.22-.17.26-.1.05-.22.02-.31-.06l-.73-.73c-.11-.11-.26-.17-.41-.17-.16 0-.31.06-.42.17-.2.2-.23.52-.07.75.02.03.05.06.07.09l.73.73c.08.08.1.2.06.31-.04.1-.15.17-.26.17H4.57c-.02 0-.04 0-.06.01-.11.02-.2.13-.2.25 0 .14.11.26.26.26h2.41c.07 0 .15.03.2.08l2.91 2.91c.08.08.1.2.06.31-.04.11-.15.17-.26.17H5.78c-.07 0-.15-.03-.2-.08L3.87 9.62c-.05-.05-.13-.08-.2-.07-.06 0-.11.03-.16.07-.04.05-.07.11-.07.18 0 .07.03.13.08.18l.95.95c.08.08.1.2.06.31-.04.11-.15.17-.26.17H3.23c-.12 0-.24.04-.34.11-.16.11-.25.29-.25.48 0 .12.04.23.1.33.11.16.29.26.49.26h1.03c.11 0 .22.07.26.17.04.11.02.23-.06.31l-.95.95c-.05.05-.07.11-.07.18 0 .07.03.13.07.18.01.01.02.02.03.02.1.08.24.07.33-.02l1.71-1.71c.05-.05.12-.08.2-.08h4.11c.11 0 .22.07.26.17.04.11.02.23-.06.31l-2.91 2.91c-.05.05-.12.08-.2.08H4.57c-.14 0-.26.12-.26.26s.11.26.26.26h1.34c.11 0 .22.07.26.17.04.11.02.23-.06.31l-.73.73c-.11.11-.17.25-.17.4 0 .1.02.2.07.29.03.05.06.1.11.15.11.11.26.17.42.17.16 0 .31-.06.42-.17l.73-.73c.08-.08.2-.11.31-.06.11.04.17.15.17.26v1.34c0 .14.11.26.26.26h.03c.13-.02.23-.13.23-.26v-2.41c0-.07.03-.15.08-.2l2.91-2.91c.08-.08.2-.1.31-.06.11.04.17.15.17.26v4.11c0 .07-.03.15-.08.2l-1.71 1.71c-.05.05-.08.11-.08.18 0 .07.03.13.07.18l.02.02c.11.08.25.07.34-.02l.95-.95c.04-.07.11-.09.19-.09z"/></svg>