<svg id="Layer_2" data-name="Layer 2" xmlns="http://www.w3.org/2000/svg" viewBox="0 0 20.03998 18.35999"><defs><style>.cls-1{fill:#41494e;}</style></defs><title>Withdraw</title><path class="cls-1" d="M20.98,8.43h-.46V4.92a2.09971,2.09971,0,0,0-2.09949-2.1H4.08a2.09975,2.09975,0,0,0-2.1,2.09949V19.08a2.09971,2.09971,0,0,0,2.09949,2.1H18.43a2.09971,2.09971,0,0,0,2.1-2.09949V15.56h.46a1.0284,1.0284,0,0,0,1.03-1.02692V9.46A1.04352,1.04352,0,0,0,20.98,8.43ZM19.79,19.07a1.3614,1.3614,0,0,1-1.36,1.36H4.08a1.36143,1.36143,0,0,1-1.36-1.36V4.92A1.36142,1.36142,0,0,1,4.08,3.56006H18.43A1.36142,1.36142,0,0,1,19.79,4.92V8.43h-4.2a3.20308,3.20308,0,0,0-3.2,3.2v.73a3.203,3.203,0,0,0,3.2,3.2h4.2Zm1.49-4.55a.30077.30077,0,0,1-.3.3H15.59a2.45823,2.45823,0,0,1-2.46-2.45648V11.63a2.45824,2.45824,0,0,1,2.45648-2.46H20.98a.3009.3009,0,0,1,.3.3Z" transform="translate(-1.98001 -2.82001)"/><path class="cls-1" d="M15.93283,10.29H15.93a1.69861,1.69861,0,1,0,.00281,0ZM15.93,12.96a.97.97,0,1,1,.97-.97A.97007.97007,0,0,1,15.93,12.96Z" transform="translate(-1.98001 -2.82001)"/></svg>