<svg id="Layer_2" data-name="Layer 2" xmlns="http://www.w3.org/2000/svg" viewBox="0 0 17.01012 19.73999"><defs><style>.cls-1{fill:#41494e;}</style></defs><title>Your_Messages</title><path class="cls-1" d="M20.38507,10.39,18.795,9.13V2.79a.66583.66583,0,0,0-.66-.66H5.855a.66583.66583,0,0,0-.66.66V9.13l-1.58,1.25a.30314.30314,0,0,0-.12.25V20.87a1.003,1.003,0,0,0,1,1h15.01a1.003,1.003,0,0,0,1-1V10.64A.33393.33393,0,0,0,20.38507,10.39Zm-1.59-.44.87.69-.87.69Zm-12.97-.66V2.79c.01-.00995.02-.02.03-.02h12.28a.02136.02136,0,0,1,.02.02v9.04l-2.83,2.24H8.655l-2.83-2.24Zm8.7,5.42-1.25.99a2.05961,2.05961,0,0,1-2.57,0L9.465,14.71Zm-9.33-4.76v1.38l-.87-.69Zm-1.07,10.95V11.3l6.06,4.8Zm.6.34,5.99-4.74c.01-.01.02-.02.03-.02a2.67518,2.67518,0,0,0,2.5,0c.01.01.02.01.03.02l5.99,4.74Zm15.14-.37v.02l-6.06-4.79,6.06-4.8Z" transform="translate(-3.49494 -2.13)"/><path class="cls-1" d="M7.905,5.16h2.39a.32.32,0,1,0,0-.64H7.905a.3158.3158,0,0,0-.31995.31171V4.84A.32218.32218,0,0,0,7.905,5.16Z" transform="translate(-3.49494 -2.13)"/><path class="cls-1" d="M7.58526,6.54022A.31991.31991,0,0,0,7.905,6.86h3.75a.32.32,0,0,0,0-.64H7.905A.31993.31993,0,0,0,7.58526,6.54022Z" transform="translate(-3.49494 -2.13)"/><path class="cls-1" d="M9.62506,9.27a.316.316,0,0,0,.31183.32H14.035a.32.32,0,0,0,0-.64h-4.09A.32907.32907,0,0,0,9.62506,9.27Z" transform="translate(-3.49494 -2.13)"/><path class="cls-1" d="M7.905,11.3h8.19a.32.32,0,1,0,0-.64H7.905a.32.32,0,0,0,0,.64Z" transform="translate(-3.49494 -2.13)"/><path class="cls-1" d="M16.415,12.68829V12.68a.31589.31589,0,0,0-.31171-.32H7.905a.32.32,0,0,0,0,.64h8.19A.31581.31581,0,0,0,16.415,12.68829Z" transform="translate(-3.49494 -2.13)"/></svg>