<svg id="Layer_1" data-name="Layer 1" xmlns="http://www.w3.org/2000/svg" viewBox="0 0 216 216"><defs><style>.cls-1{fill:#a10000}.cls-2{fill:#1f3b73}</style></defs><title>ICN+18</title><path class="cls-1" d="M108 0a108 108 0 1 0 108 108A108 108 0 0 0 108 0zm0 189a81 81 0 1 1 81-81 81 81 0 0 1-81 81z"/><path class="cls-2" d="M51.67 75.6h19.48V144H58.23V87.83H44.14zM120.5 106.91a20.81 20.81 0 0 1 9.72 17.78 21.21 21.21 0 0 1-3 10.94 19.17 19.17 0 0 1-7.93 7.56q-5 2.54-12.69 2.54-8.28 0-13.16-2.44a18.67 18.67 0 0 1-7.81-7.4 21.58 21.58 0 0 1-2.93-11.19 20.74 20.74 0 0 1 2.35-9.84 23.81 23.81 0 0 1 7-7.93 22.4 22.4 0 0 1-4.63-6.62A18 18 0 0 1 86 92.88a18.86 18.86 0 0 1 2.58-9.73 17.78 17.78 0 0 1 7.23-6.83 22.78 22.78 0 0 1 10.74-2.44 21.86 21.86 0 0 1 10.56 2.46 18.13 18.13 0 0 1 7.18 7 19.09 19.09 0 0 1 2.63 9.73 16.81 16.81 0 0 1-1.37 6.81 26.56 26.56 0 0 1-5.05 7.03zm-13.9 7a11.45 11.45 0 0 0-7.9 2.86 8.83 8.83 0 0 0-3.21 6.81 9.26 9.26 0 0 0 3 7 11.09 11.09 0 0 0 8 2.86 11.36 11.36 0 0 0 7.93-2.67 8.89 8.89 0 0 0 3-6.91 9.3 9.3 0 0 0-3.07-7.09 10.82 10.82 0 0 0-7.75-2.9zm-.51-27.43a7.08 7.08 0 0 0-5.28 2.11 7.39 7.39 0 0 0-2.07 5.4 7.56 7.56 0 0 0 2.19 5.52 7.74 7.74 0 0 0 10.81 0 7.78 7.78 0 0 0 2.12-5.66 7.11 7.11 0 0 0-2.14-5.35 7.76 7.76 0 0 0-5.63-2.07z"/><path class="cls-2" d="M146.36 104V86.57H158V104h17.39v11.63H158V133h-11.64v-17.37H129V104z"/></svg>