<svg id="Layer_1" data-name="Layer 1" xmlns="http://www.w3.org/2000/svg" viewBox="0 0 15 15"><defs><style>.cls-1{fill:#41494e;fill-rule:evenodd}</style></defs><title>Calendar</title><path class="cls-1" d="M.32 1.445h2.34v1.289A1.4 1.4 0 0 0 4.08 4.109a1.4 1.4 0 0 0 1.422-1.375V1.445h4.012v1.289a1.422 1.422 0 0 0 2.843 0V1.445h2.321a.317.317 0 0 1 .321.31v8.943a.663.663 0 0 1-.208.537l-3.106 3.457a1.048 1.048 0 0 1-.761.308H.32A.317.317 0 0 1 0 14.69V1.755a.317.317 0 0 1 .32-.311zm13.505 8.784V5.416a.183.183 0 0 0-.184-.177H1.36a.185.185 0 0 0-.184.177v8.27a.183.183 0 0 0 .184.177h9.18c.335 0 .479-.17.501-.487V11.52a.736.736 0 0 1 .833-.806h1.45a.446.446 0 0 0 .502-.485zM10.019.887a.918.918 0 0 1 1.834 0v1.847a.918.918 0 0 1-1.834 0V.887zm-6.855 0a.918.918 0 0 1 1.834 0v1.847a.918.918 0 0 1-1.834 0V.887zm2.02 8.219H2.627V6.669h2.557v2.437zm7.188 0H9.816V6.669h2.556v2.437zm-3.594 3.327H6.222V9.996h2.556v2.437zm-3.594 0H2.627V9.996h2.557v2.437zm3.594-3.327H6.222V6.669h2.556v2.437z"/></svg>