<svg id="Layer_1" data-name="Layer 1" xmlns="http://www.w3.org/2000/svg" viewBox="0 0 86 60"><defs><style>.cls-1{fill:#41494e}</style></defs><title>CVV</title><path class="cls-1" d="M84.06 2.294A6.612 6.612 0 0 0 79.173.451H7.087a6.846 6.846 0 0 0-4.988 1.843A6.583 6.583 0 0 0 .002 7.059v46.318a7.036 7.036 0 0 0 2.097 4.982 6.925 6.925 0 0 0 4.988 2.092h72.085a6.697 6.697 0 0 0 4.889-2.092 6.905 6.905 0 0 0 1.941-4.982V7.059a6.446 6.446 0 0 0-1.941-4.765zm-2.058 51.083a2.327 2.327 0 0 1-.933 1.533 2.835 2.835 0 0 1-1.897.541H7.087a1.892 1.892 0 0 1-2.085-2.074V26.451h77zm0-38.926h-77V7.06a2.549 2.549 0 0 1 .547-1.772 2.208 2.208 0 0 1 1.538-.836h72.085a3.068 3.068 0 0 1 1.897.836 2.936 2.936 0 0 1 .933 1.772z" transform="translate(-.002 -.451)"/><path class="cls-1" d="M59.467 33h12.067A2.466 2.466 0 0 1 74 35.466v7.067A2.467 2.467 0 0 1 71.533 45H59.466A2.466 2.466 0 0 1 57 42.534v-7.067A2.467 2.467 0 0 1 59.467 33z"/></svg>