<svg id="Layer_1" data-name="Layer 1" xmlns="http://www.w3.org/2000/svg" viewBox="0 0 140 139.99756"><defs><style>.cls-1{fill:#41494f}</style></defs><title>Info</title><path class="cls-1" d="M70 0A69.999 69.999 0 1 1 0 69.999 70.078 70.078 0 0 1 70 0zm0 134.613A64.615 64.615 0 1 0 5.387 70 64.687 64.687 0 0 0 70 134.613z"/><path class="cls-1" d="M52.478 41.617a29.054 29.054 0 0 1 3.307-2.655 24.803 24.803 0 0 1 3.958-2.221 24.19 24.19 0 0 1 4.633-1.52 24.737 24.737 0 0 1 5.383-.555 21.79 21.79 0 0 1 7.071 1.11 16.922 16.922 0 0 1 5.624 3.138 14.457 14.457 0 0 1 3.716 4.923 15.24 15.24 0 0 1 1.352 6.516 16.656 16.656 0 0 1-1.086 6.324 17.701 17.701 0 0 1-2.751 4.658 21.635 21.635 0 0 1-3.621 3.475q-1.955 1.472-3.692 2.776a23.324 23.324 0 0 0-2.97 2.606 5.045 5.045 0 0 0-1.423 2.897l-.869 7.384h-5.889l-.579-8.012a5.948 5.948 0 0 1 .82-3.79 13.627 13.627 0 0 1 2.656-3.04 42.546 42.546 0 0 1 3.62-2.8 28.055 28.055 0 0 0 3.692-3.066 16.053 16.053 0 0 0 2.872-3.836 10.684 10.684 0 0 0 1.159-5.141 8.503 8.503 0 0 0-.82-3.765 8.674 8.674 0 0 0-2.221-2.872 9.837 9.837 0 0 0-3.307-1.81 12.978 12.978 0 0 0-4.078-.628 15.55 15.55 0 0 0-5.045.724 18.909 18.909 0 0 0-3.547 1.593 20.632 20.632 0 0 0-2.341 1.593 2.617 2.617 0 0 1-1.473.724 2.1 2.1 0 0 1-1.882-1.11zm9.413 57.682a6.157 6.157 0 0 1 1.713-4.296 6.013 6.013 0 0 1 6.637-1.304 6.121 6.121 0 0 1 3.235 3.234 6.1 6.1 0 0 1 0 4.755 6.287 6.287 0 0 1-1.304 1.907 5.855 5.855 0 0 1-1.93 1.279 6.336 6.336 0 0 1-4.731 0 5.586 5.586 0 0 1-1.906-1.28A6.042 6.042 0 0 1 61.89 99.3z"/></svg>