<svg id="Layer_1" data-name="Layer 1" xmlns="http://www.w3.org/2000/svg" viewBox="0 0 140.11621 140.11621"><defs><style>.cls-1{fill:#41494f}</style></defs><title>Location</title><circle class="cls-1" cx="70.058" cy="69.998" r="20.314"/><path class="cls-1" d="M140.116 67.558h-19.23A50.957 50.957 0 0 0 72.559 19.17V0h-5v19.17A50.957 50.957 0 0 0 19.23 67.559H0v5h19.232a50.96 50.96 0 0 0 48.326 48.268v19.29h5v-19.29a50.96 50.96 0 0 0 48.326-48.268h19.232zM70.058 115.89a45.891 45.891 0 1 1 45.89-45.892 45.943 45.943 0 0 1-45.89 45.892z"/></svg>