<svg id="Layer_1" data-name="Layer 1" xmlns="http://www.w3.org/2000/svg" viewBox="0 0 32.02509 27.89282"><defs><style>.cls-1{fill:#41494e}</style></defs><title>PassHyde</title><path class="cls-1" d="M31.927 12.76a18.936 18.936 0 0 0-2.693-4.72l-1.995 1.995a16.178 16.178 0 0 1 1.882 3.237 14.464 14.464 0 0 1-13.11 9.065q-.52 0-1.035-.04l-2.442 2.441a16.12 16.12 0 0 0 3.477.389c6.948 0 13.196-4.453 15.916-11.343a1.387 1.387 0 0 0 0-1.024zM29.43 0l-4.254 4.266a16.337 16.337 0 0 0-9.165-2.848C9.065 1.418 2.818 5.87.098 12.76a1.385 1.385 0 0 0 0 1.024 18.224 18.224 0 0 0 6.977 8.636l-3.483 3.494 1.972 1.979L31.4 1.977zM2.903 13.272A14.462 14.462 0 0 1 16.01 4.207a13.54 13.54 0 0 1 7.158 2.071l-2.656 2.664a6.2 6.2 0 0 0-4.5-1.946 6.283 6.283 0 0 0-6.276 6.276 6.195 6.195 0 0 0 1.96 4.512l-2.61 2.617a15.317 15.317 0 0 1-6.183-7.129z"/></svg>