<svg id="Layer_1" data-name="Layer 1" xmlns="http://www.w3.org/2000/svg" viewBox="0 0 32 24"><defs><style>.cls-1{fill:#41494e}</style></defs><title>PassShow</title><path class="cls-1" d="M15.999 24C9.059 24 2.815 19.494.098 12.518a1.421 1.421 0 0 1 0-1.037C2.815 4.508 9.058 0 15.998 0c6.942 0 13.187 4.508 15.904 11.481a1.423 1.423 0 0 1 0 1.037C29.185 19.494 22.94 24 16 24zM2.9 12c2.395 5.595 7.48 9.176 13.098 9.176 5.62 0 10.705-3.581 13.1-9.176-2.395-5.592-7.48-9.177-13.1-9.177C10.38 2.823 5.296 6.408 2.9 12z"/><path class="cls-1" d="M16 18.356a6.354 6.354 0 1 1 6.26-6.354A6.313 6.313 0 0 1 16 18.356z"/></svg>