<svg id="Layer_1" data-name="Layer 1" xmlns="http://www.w3.org/2000/svg" viewBox="0 0 68.12879 68.1097"><defs><style>.cls-1{fill:#41494f}</style></defs><title>Basketball</title><path class="cls-1" d="M34.058 68.11a34.055 34.055 0 1 1 34.07-34.054 34.094 34.094 0 0 1-34.07 34.054zm9.62-35.093c-7.321 8.167-17.802 15.711-31.152 22.424l-.821.413.66.638a31.182 31.182 0 0 0 32.59 6.829l.64-.239-.268-.627c-5.424-12.697 1.664-21.29 1.968-21.65.423-.503.851-.963 1.28-1.403l.359-.364-.27-.435a51.045 51.045 0 0 0-3.997-5.566l-.482-.585zm5.774 9.613c-.254.309-6.18 7.673-1.564 18.63l.277.66.632-.339a31.358 31.358 0 0 0 6.367-4.524l.196-.18.006-.41a50.498 50.498 0 0 0-4.557-14.005l-.434-.864s-.864.963-.923 1.032zM62.42 36.21a15.97 15.97 0 0 0-9.412 3.106l-.459.331.263.5a52.65 52.65 0 0 1 4.743 12.817l.305 1.335.843-1.08a31.064 31.064 0 0 0 6.452-16.145l.059-.617-.613-.091a15.107 15.107 0 0 0-2.181-.156zM3.187 29.302a31.698 31.698 0 0 0-.36 4.754A30.886 30.886 0 0 0 9.44 53.238l.328.418.474-.234C49.783 33.88 52.2 13.042 52.283 9.063l.006-.26-.282-.286a31.291 31.291 0 0 0-13.11-5.315l-.947-.149.21.936a25.02 25.02 0 0 1-1.871 16.608l-.244.487.438.327a64.337 64.337 0 0 1 4.09 3.313 41.565 41.565 0 0 1-1.733 2.238 60.967 60.967 0 0 0-3.896-3.185l-.477-.358-.4.443c-2.74 3.04-8.658 8.141-17.492 8.142a28.152 28.152 0 0 1-12.456-3.188l-.797-.395zm51.629-17.176c-.66 3.977-2.664 10.277-8.461 17.703l-.326.418.343.405a54.011 54.011 0 0 1 4.37 5.926l.365.574.558-.39a18.263 18.263 0 0 1 10.649-3.38 18.751 18.751 0 0 1 2.229.133l.759.091-.03-.763a31.082 31.082 0 0 0-9.357-21.075l-.894-.877zm-43.428.482a31.394 31.394 0 0 0-7.234 12.444L4 25.565l.472.252a26.27 26.27 0 0 0 12.255 3.374 20.184 20.184 0 0 0 14.962-6.823 16.467 16.467 0 0 0 2.318-3.5 22.638 22.638 0 0 0 1.05-15.563l-.134-.463-.862-.016a30.918 30.918 0 0 0-19.034 6.49l-.976.753 1.171.384a77.23 77.23 0 0 1 14.36 6.416 11.513 11.513 0 0 1-1.571 2.336 72.079 72.079 0 0 0-15.972-6.778l-.38-.106z"/></svg>