<svg id="Layer_1" data-name="Layer 1" xmlns="http://www.w3.org/2000/svg" viewBox="0 0 66.28 66.26"><defs><style>.cls-1{fill:#41494f}</style></defs><title>ICNMore</title><path class="cls-1" d="M61.83 16.57A33.11 33.11 0 0 0 16.58 4.44 33.12 33.12 0 1 0 49.7 61.82a33.12 33.12 0 0 0 12.13-45.25zM62.47 41a30.38 30.38 0 0 1-29.3 22.5A30.48 30.48 0 0 1 6.84 48.31 30.37 30.37 0 0 1 33.11 2.76a30.48 30.48 0 0 1 26.32 15.19A30.17 30.17 0 0 1 62.47 41z"/><path class="cls-1" d="M34.7 19.13h-3.15v12.46H19.66v3.02h11.89v12.52h3.15V34.61h11.92v-3.02H34.7V19.13z"/></svg>