<svg id="Layer_1" data-name="Layer 1" xmlns="http://www.w3.org/2000/svg" viewBox="0 0 70.55163 70.55823"><defs><style>.cls-1{fill:#41494f}</style></defs><title>Tennis</title><path class="cls-1" d="M67.085 37.118a7.944 7.944 0 0 0-.67-2.901C72.442 24.3 71.842 12.642 64.88 5.68 60.662 1.462 54.73-.514 48.174.115a29.365 29.365 0 0 0-17.766 8.701 29.366 29.366 0 0 0-8.702 17.767 21.523 21.523 0 0 0 2.132 11.999 1.254 1.254 0 0 0-.032.2 11.731 11.731 0 0 1-.962 3.65 10.472 10.472 0 0 1-1.355 2.166 4.035 4.035 0 0 0-4.714.714l-15.6 15.6a4.023 4.023 0 0 0 0 5.684l2.789 2.788a4.027 4.027 0 0 0 5.683 0l15.6-15.6a4.026 4.026 0 0 0 .715-4.714 10.471 10.471 0 0 1 2.165-1.354 11.886 11.886 0 0 1 3.651-.963 1.246 1.246 0 0 0 .214-.034 21.183 21.183 0 0 0 9.682 2.247 27.408 27.408 0 0 0 14.238-4.206 7.946 7.946 0 0 0 2.914.659l.048.002h.03c.068.001.135.004.203.004a7.986 7.986 0 0 0 7.986-7.985c0-.087-.004-.174-.007-.261l-.001-.061zM23.476 52.014l-15.6 15.6a1.522 1.522 0 0 1-2.142 0l-2.788-2.789a1.516 1.516 0 0 1 0-2.142l15.6-15.6a1.523 1.523 0 0 1 2.142 0l2.789 2.789a1.516 1.516 0 0 1 0 2.142zm3.59-6.566a12.965 12.965 0 0 0-2.743 1.729l-.94-.94a12.97 12.97 0 0 0 1.729-2.742 12.514 12.514 0 0 0 .688-1.861 18.906 18.906 0 0 0 1.471 1.655 18.571 18.571 0 0 0 1.66 1.47 12.522 12.522 0 0 0-1.866.689zm24.124-6.972a19.096 19.096 0 0 1-9.692 2.575 12.241 12.241 0 0 1-8.532-3.458c-5.597-5.598-4.27-16.033 2.957-23.26a21.35 21.35 0 0 1 12.39-6.306 12.847 12.847 0 0 1 10.872 3.348c4.279 4.279 4.627 11.514.925 18.144a8.113 8.113 0 0 0-1.003-.065 7.986 7.986 0 0 0-7.985 7.986 8.113 8.113 0 0 0 .068 1.036zm4.041-4.912a5.445 5.445 0 0 1 2.787-1.498 5.49 5.49 0 0 1-4.285 4.285 5.444 5.444 0 0 1 1.498-2.787zm2.482 9.178a5.49 5.49 0 0 1-3.897-3.867 7.97 7.97 0 0 0 6.724-6.727 5.49 5.49 0 0 1 3.87 3.897 7.965 7.965 0 0 0-6.697 6.697zm5.27-1.426a5.443 5.443 0 0 1-2.743 1.488 5.49 5.49 0 0 1 4.231-4.232 5.443 5.443 0 0 1-1.488 2.744zm1.77-9.523a7.997 7.997 0 0 0-2.183-1.552 21.084 21.084 0 0 0 2.572-10.52 14.68 14.68 0 0 0-4.187-10.117C57.73 6.38 53.136 4.936 48.02 5.54a23.859 23.859 0 0 0-13.867 7.021 23.86 23.86 0 0 0-7.021 13.867c-.604 5.117.839 9.71 4.064 12.936a14.697 14.697 0 0 0 10.236 4.19q.245.007.49.006a21.291 21.291 0 0 0 10-2.631 7.993 7.993 0 0 0 1.538 2.157c.045.045.09.086.135.13-8.716 4.86-18.612 4.243-24.553-1.698-3.68-3.68-5.4-8.899-4.843-14.696a26.86 26.86 0 0 1 7.98-16.235c9.392-9.392 23.268-10.8 30.93-3.137 5.909 5.909 6.548 15.766 1.752 24.456-.036-.038-.07-.076-.107-.113z"/></svg>