
<svg xmlns="http://www.w3.org/2000/svg" xmlns:xlink="http://www.w3.org/1999/xlink">
    <symbol id="EXCLUSIVE_COLORED" viewBox="0 0 24 24">
        <path fill="currentColor" d="M12 2.33c-5.33 0-9.67 4.34-9.67 9.67s4.34 9.67 9.67 9.67 9.67-4.34 9.67-9.67S17.33 2.33 12 2.33zm0 18.62c-4.93 0-8.95-4.01-8.95-8.95S7.07 3.05 12 3.05s8.95 4.01 8.95 8.95-4.02 8.95-8.95 8.95z"/>
        <path fill="#960095" d="M12 4.12c-4.35 0-7.88 3.53-7.88 7.88s3.53 7.88 7.88 7.88 7.88-3.53 7.88-7.88S16.35 4.12 12 4.12z"/>
        <path fill="#fff" d="M11.76 17.38c-.5 0-.93-.07-1.3-.2s-.68-.32-.92-.56c-.24-.24-.42-.51-.54-.83-.12-.32-.18-.67-.18-1.05 0-.49.09-.96.27-1.42.18-.46.45-.87.81-1.24.33-.35.77-.64 1.29-.86.52-.22 1.09-.33 1.72-.33.74 0 1.29.11 1.69.35.38.24.58.59.58 1.06 0 .45-.16.84-.5 1.16-.33.33-.79.56-1.36.72-.46.14-.84.24-1.16.29-.32.06-.71.11-1.17.16.01.18.03.38.07.61s.11.42.19.58c.1.19.24.33.42.44.18.11.42.16.69.16.49 0 .9-.09 1.24-.28s.67-.49.97-.9l.45.37c-.37.53-.85.94-1.43 1.26-.59.36-1.2.51-1.83.51zm1.39-4.89c0-.35-.07-.62-.2-.81-.13-.19-.3-.28-.53-.28-.32 0-.62.26-.9.77-.29.51-.46 1.17-.54 1.96.24-.03.48-.07.72-.11.24-.05.43-.1.57-.16.31-.14.53-.31.67-.53.14-.2.21-.48.21-.84z"/>
        <path fill="#FDD941" d="M10.23 10.07L9.49 7.6l1.76.99 1.21-1.97 1.21 1.97 1.75-.99-.74 2.47z"/>
    </symbol>
    <symbol id="40-And-50-ball" viewBox="0 0 24 24">
      <path
          d="M6.9 10.74c.04-.26-.15-.5-.41-.54-.48-.06-.93-.29-1.26-.62-.68-.73-.88-1.75-.63-2.73.53-1.16 1.47-2.1 2.63-2.62.97-.25 1.98-.05 2.7.62.49.54.75 1.23.72 1.96-.01.26.2.48.46.49.28.01.48-.2.49-.46.04-.99-.31-1.93-.98-2.66l-.02-.01c-.13-.12-.27-.23-.42-.33 1.35.21 2.57.96 3.36 2.11.22.32.67.41.99.18.32-.22.41-.67.18-.99a6.415 6.415 0 0 0-5.29-2.79h-.09c-3.64 0-6.6 2.97-6.61 6.62a6.71 6.71 0 0 0 2.2 4.89c.14.12.31.18.48.18.19 0 .39-.08.53-.24.26-.29.24-.74-.05-1.01a5.283 5.283 0 0 1-1.64-2.95c.09.13.19.26.31.39.49.49 1.13.82 1.82.91h.06c.23.01.44-.16.47-.4z"/><path
          d="M19.15 9.19a7.309 7.309 0 0 0-10.33 0 7.309 7.309 0 0 0 0 10.33c1.42 1.42 3.29 2.14 5.16 2.14s3.74-.71 5.16-2.14a7.318 7.318 0 0 0 .01-10.33zm-1.39 2.34c0 1.77-1.71 3.2-3.8 3.2-2.1 0-3.8-1.44-3.8-3.2 0-1.09.65-2.05 1.64-2.63 1.36-.54 2.87-.55 4.24-.05 1.03.58 1.72 1.56 1.72 2.68zm.38 6.98a5.885 5.885 0 0 1-8.31 0 5.868 5.868 0 0 1-.55-7.66c-.05.22-.08.45-.08.68 0 2.29 2.13 4.16 4.76 4.16 2.62 0 4.76-1.86 4.76-4.16 0-.26-.03-.52-.09-.77 1.78 2.31 1.62 5.64-.49 7.75z"/><path
          d="M18.84 13.88a.48.48 0 0 0-.48.48c0 2.47-2.02 4.49-4.49 4.49a.48.48 0 0 0 0 .96c3 0 5.44-2.44 5.44-5.44a.48.48 0 0 0-.47-.49zm-6.17-1.3h-.8a1.5 1.5 0 0 1-.37-.04.79.79 0 0 1-.3-.12c-.08-.05-.15-.12-.2-.21s-.07-.19-.07-.32c0-.12.02-.23.05-.35.03-.12.07-.23.13-.34.05-.11.11-.22.18-.32.07-.1.14-.2.22-.29.1-.13.22-.25.34-.36s.25-.21.37-.3c.13-.09.26-.16.39-.21.13-.05.27-.08.4-.08.17 0 .29.02.37.05s.12.05.14.06v2.04h.05c.16 0 .27.03.34.1.07.06.1.16.1.29 0 .09-.02.18-.04.26-.03.08-.05.13-.06.16h-.38v.71h-.86v-.73zm0-.8v-1.24c-.09.06-.18.12-.27.21-.09.08-.17.16-.24.25-.12.15-.21.28-.26.39-.06.11-.08.2-.08.26s.02.1.07.11.11.02.18.02h.6z"/><path
          d="M15.5 13.38c-.25 0-.48-.04-.67-.13a1.41 1.41 0 0 1-.49-.38c-.13-.17-.23-.37-.3-.6-.07-.24-.1-.5-.1-.8 0-.3.03-.57.1-.8s.17-.44.3-.6c.13-.17.3-.29.49-.38.19-.09.42-.13.67-.13.25 0 .47.04.67.13.2.09.36.22.49.38.13.17.23.37.3.6s.1.5.1.8c0 .3-.04.57-.1.8-.07.24-.17.44-.3.6-.13.17-.29.29-.49.38-.2.08-.42.13-.67.13zm0-.82c.21 0 .37-.09.49-.27.12-.18.18-.46.18-.83s-.06-.66-.18-.84-.28-.27-.49-.27c-.21 0-.38.09-.5.27s-.18.46-.18.84.06.65.18.83c.12.18.29.27.5.27zM6.31 9.47c.02 0 .06-.02.1-.04.05-.02.1-.05.16-.08s.13-.08.2-.13.14-.11.2-.17c.08-.08.14-.16.18-.23.04-.07.06-.13.07-.19a.24.24 0 0 0-.02-.15c-.02-.04-.05-.08-.08-.12A.834.834 0 0 0 7 8.28a.285.285 0 0 0-.16-.02c-.06.01-.14.04-.22.08-.08.05-.17.13-.27.23-.04.05-.09.1-.14.15-.04.06-.09.11-.13.17-.04.06-.08.11-.11.17-.03.05-.06.09-.07.12l-.96-1.01c-.1-.1-.15-.21-.15-.31s.05-.21.16-.32l.83-.84c.1-.1.19-.15.26-.15.08 0 .16.03.23.11.06.05.1.11.13.18.04.06.06.1.07.13l-.88.9.31.32a.73.73 0 0 1 .09-.11c.04-.04.09-.1.15-.16.15-.15.29-.26.43-.32s.27-.1.4-.1.25.03.36.08c.11.05.21.13.3.22.11.11.19.23.25.36.05.13.07.27.07.41-.01.14-.05.28-.12.43-.08.15-.18.29-.32.43-.13.13-.25.24-.37.32-.11.08-.22.15-.31.19-.09.05-.17.08-.22.09-.06.02-.09.03-.1.03l-.2-.59zM9.6 7.3c-.15.16-.31.27-.48.34-.17.06-.35.09-.52.07a1.3 1.3 0 0 1-.55-.17c-.18-.1-.36-.23-.54-.41a2.22 2.22 0 0 1-.42-.53c-.1-.18-.16-.36-.18-.54-.02-.18 0-.36.07-.53.06-.17.17-.33.33-.49.15-.15.31-.26.48-.33.17-.07.35-.09.53-.08.17.02.36.08.54.17.18.1.36.24.54.41.18.18.32.35.42.54s.16.36.18.54c.02.18 0 .35-.07.53-.07.17-.17.33-.33.48zm-.48-.48c.13-.13.17-.28.14-.46-.04-.18-.17-.38-.39-.6-.24-.22-.44-.35-.62-.38-.18-.03-.33.01-.46.14s-.17.29-.13.47c.04.18.17.38.39.6.23.22.43.35.61.38.17.03.33-.02.46-.15z"/></symbol>
    <symbol id="ARROW" viewBox="0 0 24 24">
        <path  d="M12 2.3c-5.3 0-9.7 4.4-9.7 9.7 0 5.4 4.4 9.7 9.7 9.7 5.4 0 9.7-4.4 9.7-9.7 0-5.4-4.4-9.7-9.7-9.7"/>
        <path fill="currentColor" d="M15.2 13l-4.4 3c-.8.5-1.8-.1-1.8-1V9.2c0-1 1-1.5 1.8-1l4.4 2.9c.7.4.7 1.4 0 1.9"/></symbol>
    <symbol id="ARROW_BACK" viewBox="0 0 24 24">
        <path  d="M11.8 2.3c-5.3 0-9.7 4.3-9.7 9.7 0 5.3 4.3 9.7 9.7 9.7 5.3 0 9.7-4.3 9.7-9.7 0-5.3-4.4-9.7-9.7-9.7"/>
        <path fill="currentColor" d="M9 13c-.7-.5-.7-1.5 0-1.9l4.4-2.9c.8-.5 1.8 0 1.8 1V15c0 .9-1 1.5-1.8 1L9 13"/></symbol>
    <symbol id="JACKPOTS" viewBox="0 0 24 24">
      <path
          d="M22.02 3.26c0-.17-.07-.34-.19-.47a.66.66 0 0 0-.46-.19H2.63c-.18 0-.34.07-.46.19-.12.13-.19.3-.19.47 0 .23 1.03 5.18 3.83 5.84v.03c0 .02 0 .05.01.07.11 3.03 2.47 5.55 5.46 5.88v4.94H8.82c-.18 0-.33.15-.33.33v.71c0 .18.15.33.33.33h6.27c.18 0 .33-.14.33-.33v-.71c0-.18-.15-.33-.33-.33h-2.45v-4.94c2.95-.32 5.24-2.7 5.45-5.67a.3.3 0 0 0 .06-.18v-.12c2.84-.6 3.87-5.62 3.87-5.85zM11.96 13.77c-2.64 0-4.79-2.15-4.79-4.79V4.02h9.57v4.96c0 2.64-2.15 4.79-4.78 4.79zM5.79 7.7C4.7 7.1 3.43 4.99 3.33 3.91H5.8V7.7zm12.41.01v-3.8h2.47c-.1 1.08-1.37 3.19-2.47 3.8zm0 0"/></symbol>
  <symbol id="BINGO_ROOMS" viewBox="0 0 24 24">
      <path  d="M4.84 3.7h12.02c.65 0 1.17.52 1.17 1.17h1.4c0-1.42-1.16-2.58-2.58-2.58H4.84c-1.42 0-2.58 1.16-2.58 2.58v12.97c0 1.42 1.16 2.58 2.58 2.58v-1.4c-.65 0-1.17-.52-1.17-1.17V4.88c0-.65.52-1.18 1.17-1.18z"/><path
          d="M8.05 11.66c-.09.19-.13.39-.14.59 0 .2.03.39.11.58.08.19.2.37.36.53a1.393 1.393 0 0 0 .92.42c.17 0 .34-.03.52-.1s.34-.19.5-.35l.05-.05c.02-.02.03-.04.05-.06l.25 1.64.81-.81-.21-1.42c-.02-.16-.05-.31-.08-.45s-.07-.29-.12-.42a2.64 2.64 0 0 0-.18-.38c-.07-.12-.16-.23-.26-.33-.16-.16-.33-.27-.51-.35-.19-.07-.38-.11-.57-.11-.19.01-.38.05-.57.14-.19.09-.37.22-.54.38s-.3.35-.39.55zm.99.06c.14-.14.3-.21.48-.22.18 0 .33.07.47.21.14.14.21.3.21.48s-.07.34-.21.48c-.15.15-.31.22-.48.21s-.34-.07-.48-.21a.656.656 0 0 1-.21-.47c0-.17.07-.33.22-.48zm2.39-.58c.23.23.47.42.71.55.24.13.48.21.71.24.24.02.46 0 .69-.09.22-.08.43-.22.63-.42.19-.19.33-.4.42-.63.08-.22.11-.45.09-.69-.03-.23-.11-.47-.24-.71s-.31-.48-.55-.71c-.23-.23-.47-.42-.71-.55a2.06 2.06 0 0 0-.71-.24c-.23-.03-.46 0-.69.08s-.43.22-.63.42c-.2.2-.34.41-.42.63-.08.22-.11.45-.08.69.03.24.11.47.24.71.13.25.31.49.54.72zm.36-2.09a.62.62 0 0 1 .6-.17c.23.05.5.22.8.52.3.3.47.56.52.79.05.23-.01.43-.17.6-.17.17-.37.23-.6.18-.23-.05-.5-.22-.79-.52-.3-.3-.47-.56-.52-.8a.561.561 0 0 1 .16-.6z"/><path
          d="M13.61 5.45c-4.48 0-8.12 3.64-8.12 8.12s3.64 8.12 8.12 8.12 8.12-3.65 8.12-8.12-3.64-8.12-8.12-8.12zM12 7.14c.96 0 1.87.33 2.55 1.01 1.51 1.51 1.31 4.16-.44 5.92-.86.86-1.95 1.37-3.07 1.45-1.11.07-2.12-.28-2.84-1-1.26-1.26-1.31-3.32-.28-4.98.46-.64 1.02-1.21 1.67-1.66.75-.49 1.59-.74 2.41-.74zm1.61 13.44c-3.86 0-7-3.14-7-7 0-.11.01-.22.02-.32.19.66.52 1.28 1.03 1.79.8.8 1.88 1.23 3.08 1.23.11 0 .23 0 .35-.01 1.31-.09 2.57-.68 3.55-1.67 2.04-2.04 2.24-5.17.44-6.97-.51-.51-1.12-.84-1.79-1.03.11 0 .21-.02.32-.02 3.86 0 7 3.14 7 7s-3.14 7-7 7z"/><path  d="M19.27 13.2a.37.37 0 0 0-.37.37c0 2.91-2.37 5.28-5.28 5.28a.37.37 0 1 0 0 .74c3.32 0 6.03-2.7 6.03-6.03a.39.39 0 0 0-.38-.36z"/></symbol>
  <symbol id="BINGO_SCHEDULE_PRICE" viewBox="0 0 24 24">
      <path
          d="M21.29 9.08L14.91 2.7c-.53-.53-1.41-.53-1.94 0L2.71 12.97c-.53.53-.53 1.41 0 1.94l6.38 6.38c.53.53 1.41.53 1.94 0L21.3 11.03c.53-.54.53-1.41-.01-1.95zm-.83 1.39l-9.99 9.99c-.23.23-.6.23-.83 0l-6.1-6.1a.585.585 0 0 1 0-.83l9.99-9.99c.23-.23.6-.23.83 0l6.1 6.1c.23.23.23.61 0 .83z"/><path
          d="M13.73 6.97c.15.15.4.15.55 0l1.18-1.18c.15-.15.15-.4 0-.55l-1.18-1.18a.392.392 0 0 0-.55 0l-1.18 1.18c-.15.15-.15.4 0 .55l1.18 1.18zm1.02 1.02l1.18 1.18c.15.15.4.15.55 0l1.18-1.18c.15-.15.15-.4 0-.55l-1.18-1.18a.392.392 0 0 0-.55 0l-1.18 1.18c-.15.15-.15.4 0 .55zm3.94.47a.392.392 0 0 0-.55 0l-1.18 1.18c-.15.15-.15.4 0 .55l1.18 1.18c.15.15.4.15.55 0l1.18-1.18c.15-.15.15-.4 0-.55l-1.18-1.18zm-7.07.64c.15.15.4.15.55 0l1.18-1.18c.15-.15.15-.4 0-.55l-1.18-1.18a.392.392 0 0 0-.55 0l-1.18 1.17c-.15.15-.15.4 0 .55l1.18 1.19zm2.75 2.2l1.18-1.18c.15-.15.15-.4 0-.55l-1.18-1.18a.392.392 0 0 0-.55 0l-1.18 1.18c-.15.15-.15.4 0 .55l1.18 1.18c.15.16.4.16.55 0zm2.2-.71a.392.392 0 0 0-.55 0l-1.18 1.18c-.15.15-.15.4 0 .55l1.18 1.18c.15.15.4.15.55 0l1.18-1.18c.15-.15.15-.4 0-.55l-1.18-1.18zm-7.13.58c.15.15.4.15.55 0l1.18-1.18c.15-.15.15-.4 0-.55L9.99 8.25a.392.392 0 0 0-.55 0L8.25 9.43c-.15.15-.15.4 0 .55l1.19 1.19zm2.75 2.19l1.18-1.18c.15-.15.15-.4 0-.55l-1.18-1.18a.392.392 0 0 0-.55 0l-1.18 1.18c-.15.15-.15.4 0 .55l1.18 1.18c.15.16.4.16.55 0zm2.2-.71a.392.392 0 0 0-.55 0l-1.18 1.18c-.15.15-.15.4 0 .55l1.18 1.18c.15.15.4.15.55 0l1.18-1.18c.15-.15.15-.4 0-.55l-1.18-1.18zm-7.05.67c.15.15.4.15.55 0l1.18-1.18c.15-.15.15-.4 0-.55L7.9 10.42a.392.392 0 0 0-.55 0L6.17 11.6c-.15.15-.15.4 0 .55l1.17 1.17zm2.17-.74l-1.18 1.18c-.15.15-.15.4 0 .55l1.18 1.18c.15.15.4.15.55 0l1.18-1.18c.15-.15.15-.4 0-.55l-1.18-1.18c-.14-.15-.39-.15-.55 0zm2.76 2.2a.392.392 0 0 0-.55 0l-1.18 1.18c-.15.15-.15.4 0 .55l1.18 1.18c.15.15.4.15.55 0l1.18-1.18c.15-.15.15-.4 0-.55l-1.18-1.18zm-5.32-1.07l-1.18-1.18a.392.392 0 0 0-.55 0l-1.18 1.18c-.15.15-.15.4 0 .55l1.18 1.18c.15.15.4.15.55 0l1.18-1.18c.16-.14.16-.4 0-.55zm2.21 2.2l-1.18-1.18a.392.392 0 0 0-.55 0l-1.18 1.18c-.15.15-.15.4 0 .55l1.18 1.18c.15.15.4.15.55 0l1.18-1.18c.15-.15.15-.39 0-.55zm1.02 1.02a.392.392 0 0 0-.55 0l-1.18 1.18c-.15.15-.15.4 0 .55l1.18 1.18c.15.15.4.15.55 0l1.18-1.18c.15-.15.15-.4 0-.55l-1.18-1.18z"/></symbol>
  <symbol id="BINGO_SCHEDULE_PRIZE" viewBox="0 0 24 24">
      <path
          d="M21.32 8.73l-6.04-6.04c-.3-.3-.74-.42-1.15-.32-.22.05-.42.16-.57.32-.14.14-.24.31-.3.5-.27.89-.75 1.66-1.45 2.36-.93.93-2.16 1.64-3.45 2.39-1.36.78-2.77 1.6-3.93 2.76-.98.98-1.66 2.08-2.05 3.36-.03.11-.05.21-.05.32v.03c0 .32.12.63.35.87l6.04 6.04a1.223 1.223 0 0 0 1.72 0c.14-.14.25-.31.3-.5.27-.89.74-1.66 1.45-2.36.93-.93 2.15-1.64 3.45-2.39 1.36-.79 2.78-1.62 3.94-2.78.98-.98 1.65-2.08 2.05-3.35.12-.44 0-.9-.31-1.21zM9.58 20.45c-2.01-2-4.05-4.05-6.04-6.04C5.26 8.85 12.7 9.09 14.42 3.53c2 2 4.05 4.04 6.04 6.04-1.71 5.57-9.16 5.33-10.88 10.88z"/><path
          d="M14.15 11.33a1.6 1.6 0 0 0-.59-.33c-.2-.05-.4-.08-.6-.07-.2.01-.4.06-.6.14-.2.08-.41.16-.61.27-.33-.38-.65-.74-.98-1.08.15-.13.29-.2.42-.2.14-.01.27.01.4.04s.24.06.35.08c.11.02.2 0 .29-.07a.37.37 0 0 0 .14-.29.466.466 0 0 0-.14-.35.733.733 0 0 0-.46-.27 1.51 1.51 0 0 0-.56.01c-.19.04-.37.12-.55.22-.17.1-.31.2-.41.31l-.12-.12c-.04-.04-.1-.06-.16-.06s-.12.03-.16.08c-.05.05-.07.11-.06.17.01.06.03.11.08.15.04.03.08.07.12.1-.15.18-.29.4-.38.61-.1.22-.16.44-.18.64-.02.21 0 .41.06.59.07.18.18.33.36.48.29.24.62.33 1.01.31.39-.03.81-.14 1.26-.38.35.42.72.83 1.07 1.2-.15.13-.29.2-.4.23-.12.03-.22.02-.31-.01-.1-.03-.18-.08-.27-.12-.08-.05-.16-.1-.24-.14a.542.542 0 0 0-.25-.06c-.08 0-.17.04-.27.12-.1.09-.15.18-.15.3 0 .11.05.23.16.34.1.12.24.21.4.29.16.08.35.12.55.14.2.01.41-.02.63-.1.23-.08.44-.23.66-.45.11.1.21.2.32.29.05.04.1.06.16.05.06 0 .12-.03.16-.09.04-.05.07-.12.05-.18a.224.224 0 0 0-.08-.15c-.11-.09-.21-.18-.32-.27.18-.22.33-.46.44-.69.11-.23.17-.46.19-.66.02-.21 0-.4-.08-.57-.06-.16-.18-.31-.35-.45zm-3.38.41a.567.567 0 0 1-.45-.18.474.474 0 0 1-.12-.19.523.523 0 0 1-.02-.25 1.01 1.01 0 0 1 .28-.57c.31.31.61.63.92.98-.23.14-.44.2-.61.21zm2.96.91c-.02.1-.05.2-.11.3-.05.1-.12.19-.19.27-.34-.34-.68-.72-1.02-1.11l.27-.12c.1-.04.2-.07.29-.09.1-.01.2-.01.3.01.1.02.19.08.28.16.09.08.14.17.16.27.03.11.04.21.02.31zm-2.5 3.08c-.38.29-.74.59-1.09.94-.33.33-.63.68-.88 1.03l-.42.57c-.08.12-.06.28.04.38.12.12.31.12.43 0 .02-.02.03-.04.05-.06l.39-.53c.24-.33.52-.65.83-.96.34-.34.66-.6 1.04-.89.01-.01.02-.01.03-.03.12-.12.12-.31 0-.43-.13-.11-.31-.11-.42-.02zm3.48-10.32c-.02.02-.04.05-.05.08l-.4.55c-.24.33-.52.65-.82.96-.31.31-.66.6-1.02.87-.02.01-.05.03-.07.05-.12.12-.12.31 0 .44a.3.3 0 0 0 .42.01c.38-.29.74-.6 1.09-.94.33-.33.62-.68.88-1.02l.41-.57c.1-.12.1-.3-.02-.42-.1-.13-.29-.13-.42-.01z"/></symbol>

  <symbol id="BINGO_SCHEDULE" viewBox="0 0 24 24">
      <path
          d="M17.35 3.84v-.82c0-.4-.32-.72-.72-.72-.4 0-.72.32-.72.72v.78H8.08v-.78c0-.4-.32-.72-.72-.72s-.71.32-.71.72v.83c-2.3.21-4.12 2.13-4.12 4.49v8.83c0 2.5 2.03 4.53 4.53 4.53h9.86c2.5 0 4.53-2.03 4.53-4.53V8.33c.01-2.35-1.8-4.27-4.1-4.49zM6.65 5.27v.39c0 .4.32.72.72.72s.72-.32.72-.72v-.43h7.83v.43c0 .4.32.72.72.72.4 0 .72-.32.72-.72v-.39c1.04.14 1.9.79 2.35 1.69H4.3c.45-.9 1.32-1.54 2.35-1.69zm10.28 15H7.07c-1.71 0-3.1-1.39-3.1-3.1V8.4h16.07v8.77c-.01 1.71-1.4 3.1-3.11 3.1z"/><path
          d="M7.64 10.25H7.4c-.92 0-1.67.75-1.67 1.67v.24c0 .92.75 1.67 1.67 1.67h.24c.92 0 1.67-.75 1.67-1.67v-.24c0-.92-.75-1.67-1.67-1.67zm.24 1.91c0 .13-.11.24-.24.24H7.4c-.13 0-.24-.11-.24-.24v-.24c0-.13.11-.24.24-.24h.24c.13 0 .24.11.24.24v.24zm4.24-1.91h-.24c-.92 0-1.67.75-1.67 1.67v.24c0 .92.75 1.67 1.67 1.67h.24c.92 0 1.67-.75 1.67-1.67v-.24c0-.92-.75-1.67-1.67-1.67zm.24 1.91c0 .13-.11.24-.24.24h-.24c-.13 0-.24-.11-.24-.24v-.24c0-.13.11-.24.24-.24h.24c.13 0 .24.11.24.24v.24zm4.24-1.91h-.24c-.92 0-1.67.75-1.67 1.67v.24c0 .92.75 1.67 1.67 1.67h.24c.92 0 1.67-.75 1.67-1.67v-.24c0-.92-.75-1.67-1.67-1.67zm.24 1.91c0 .13-.11.24-.24.24h-.24c-.13 0-.24-.11-.24-.24v-.24c0-.13.11-.24.24-.24h.24c.13 0 .24.11.24.24v.24zm-9.2 2.57H7.4c-.92 0-1.67.75-1.67 1.67v.24c0 .92.75 1.67 1.67 1.67h.24c.92 0 1.67-.75 1.67-1.67v-.24c0-.92-.75-1.67-1.67-1.67zm.24 1.92c0 .13-.11.24-.24.24H7.4c-.13 0-.24-.11-.24-.24v-.25c0-.13.11-.24.24-.24h.24c.13 0 .24.11.24.24v.25zm4.24-1.92h-.24c-.92 0-1.67.75-1.67 1.67v.24c0 .92.75 1.67 1.67 1.67h.24c.92 0 1.67-.75 1.67-1.67v-.24c0-.92-.75-1.67-1.67-1.67zm.24 1.92c0 .13-.11.24-.24.24h-.24c-.13 0-.24-.11-.24-.24v-.25c0-.13.11-.24.24-.24h.24c.13 0 .24.11.24.24v.25zm4.24-1.92h-.24c-.92 0-1.67.75-1.67 1.67v.24c0 .92.75 1.67 1.67 1.67h.24c.92 0 1.67-.75 1.67-1.67v-.24c0-.92-.75-1.67-1.67-1.67zm.24 1.92c0 .13-.11.24-.24.24h-.24c-.13 0-.24-.11-.24-.24v-.25c0-.13.11-.24.24-.24h.24c.13 0 .24.11.24.24v.25z"/></symbol>
    <symbol id="CHAT" viewBox="0 0 24 24">
        <path d="M18.7 2.3H8.2c-1.8 0-3.3 1.5-3.3 3.3v6.5c0 1.8 1.5 3.3 3.3 3.3h5l4.8 3.2v-3.2h.6c1.8 0 3.3-1.5 3.3-3.3V5.6c.1-1.8-1.4-3.3-3.2-3.3zm1.9 9.9c0 1.1-.9 1.9-1.9 1.9h-2v2l-3-2H8.2c-1.1 0-1.9-.9-1.9-1.9V5.6c0-1.1.9-1.9 1.9-1.9h10.5c1.1 0 1.9.9 1.9 1.9v6.6z"/><path  d="M11.2 18H7.6L6 19.1V18H4.4c-.6 0-1-.5-1-1v-4.2c0-.6.5-1 1-1v-1.4c-1.3 0-2.4 1.1-2.4 2.4V17c0 1.3 1.1 2.4 2.4 2.4h.2v2.3L8 19.4h3.2c1.3 0 2.4-1.1 2.4-2.4h-1.4c0 .6-.5 1-1 1z"/>
    </symbol>
    <symbol id="CLOSE_INVERTED" viewBox="0 0 24 24">
        <path d="M12 2.3c-5.3 0-9.7 4.4-9.7 9.7s4.4 9.7 9.7 9.7 9.7-4.4 9.7-9.7-4.4-9.7-9.7-9.7z"/>
        <path fill="currentColor" d="M15.4 8.6c-.2-.2-.5-.2-.6 0L12 11.4 9.2 8.6c-.2-.2-.4-.2-.6 0s-.2.4 0 .6l2.8 2.8-2.8 2.8c-.2.2-.2.5 0 .6.1.1.2.1.3.1s.2 0 .3-.1l2.8-2.8 2.8 2.8c.1.1.2.1.3.1s.2 0 .3-.1c.2-.2.2-.5 0-.6L12.6 12l2.8-2.8c.2-.2.2-.4 0-.6z"/>
    </symbol>
    <symbol id="CONTACT_US" viewBox="0 0 24 24">
        <path
                d="M6.63 3.78c.4 0 .71.17.94.53l.34.51.03.05c.69 1.02 1.34 1.99 1.72 2.67.17.31.21.99-.18 1.42-.18.22-.36.36-.54.49-.05.04-.12.09-.17.13-.34.28-.55.69-.55 1.14 0 .26.05.52.17.77.32.68.73 1.31 1.76 2.37 1.04 1.02 1.67 1.42 2.35 1.74.24.11.49.17.75.17h.11c.41-.03.79-.23 1.05-.55.04-.05.09-.12.13-.17.13-.18.27-.36.49-.55.23-.2.51-.3.84-.3.25 0 .47.06.58.13.68.38 1.64 1.02 2.66 1.71l.57.39c.75.5.51 1.29.38 1.61-.12.27-.74 1.2-2.06 1.89-.38.2-.85.3-1.41.3-1.09 0-4.06-.45-8.22-4.61-4.84-4.86-4.93-8.42-4.29-9.63.69-1.32 1.61-1.94 1.89-2.06.12-.06.38-.15.66-.15m0-1.49c-.52 0-.97.15-1.26.27-.56.24-1.75 1.09-2.61 2.74-1.08 2.06-.52 6.27 4.58 11.37 4.39 4.39 7.69 5.04 9.27 5.04.8 0 1.5-.16 2.1-.47 1.64-.86 2.5-2.05 2.74-2.62.57-1.33.21-2.68-.92-3.44-.19-.13-.38-.26-.57-.38-1.05-.7-2.03-1.37-2.76-1.77-.36-.2-.83-.31-1.31-.31-.7 0-1.33.23-1.83.68-.33.3-.54.57-.69.77l-.1.13a.26.26 0 0 1-.11-.03c-.55-.26-1.05-.59-1.94-1.46-.88-.89-1.2-1.39-1.46-1.94a.363.363 0 0 1-.03-.11l.13-.1c.2-.15.47-.36.77-.69.84-.95.82-2.33.37-3.14-.41-.73-1.08-1.73-1.78-2.78-.16-.2-.28-.38-.41-.57-.51-.77-1.29-1.19-2.18-1.19z"/></symbol>
    <symbol id="FACEBOOK" viewBox="0 0 24 24">
      <path fill="#3a5795" d="M12 2.3c-5.36 0-9.7 4.34-9.7 9.7s4.34 9.7 9.7 9.7 9.7-4.34 9.7-9.7-4.34-9.7-9.7-9.7z"/>
      <path fill="currentColor" d="M12.94 18.27V12h1.75l.19-2.1h-1.94V8.7c0-.49.1-.69.58-.69h1.36V5.82h-1.73c-1.86 0-2.7.82-2.7 2.39v1.68h-1.3v2.13h1.3v6.25h2.49z"/></symbol>
  <symbol id="GALA%20GOLD" viewBox="0 0 24 24">
      <path
          d="M19.7 14.63c-.42-3.39-2.95-5.46-4.2-6.3.87-1.6 1.09-3.05 1.1-3.11l.01-.04v-.04c0-1.96-2.03-2.63-2.12-2.66l-.02-.01a3.09 3.09 0 0 0-.8-.13c-.66 0-1.03.31-1.22.57-.3.41-.35.94-.32 1.39-.94-.88-1.76-1.1-2.33-1.1-.5 0-.83.16-.94.22-.63.34-1.04.86-1.19 1.52-.27 1.21.42 2.6.89 3.35-1.22.8-3.83 2.89-4.26 6.33-.02.11-.37 2.83 1.41 4.88 1.33 1.53 3.44 2.25 6.29 2.15.17.01.35.01.52.01 2.59 0 4.53-.73 5.77-2.16 1.79-2.05 1.43-4.76 1.41-4.87zM8.87 5.2c.07-.31.25-.53.58-.7l.03-.02c.03-.01.14-.05.32-.05.36 0 1.1.18 2.06 1.42l.01.02c.32.38.64.57.95.57.22 0 .43-.1.56-.27.26-.32.2-.79.09-1.25l-.01-.05c-.13-.43-.18-1.04-.03-1.23.01-.02.05-.07.23-.07.12 0 .28.03.45.08.12.04 1.23.45 1.26 1.45-.04.24-.27 1.45-1 2.75H9.72c-.4-.63-1.04-1.83-.85-2.65zm8.49 13.5c-1 1.15-2.63 1.73-4.84 1.73-.16 0-.33 0-.5-.01h-.04c-2.46.09-4.26-.49-5.34-1.72-1.42-1.62-1.13-3.89-1.13-3.92.42-3.39 3.47-5.34 4.12-5.72h4.74c.65.38 3.69 2.32 4.12 5.72 0 .03.29 2.3-1.13 3.92z"/><path
          d="M13.69 14.62h-1.72c-.01.03-.02.06-.04.1-.04.11-.06.24-.06.38 0 .16.03.27.1.34.03.03.14.1.45.1h.92v1.69l-.23.06c-.03.01-.13.02-.29.03-.14.01-.27.01-.39.01-.77 0-1.4-.19-1.85-.57-.48-.39-.72-1-.72-1.81 0-.36.06-.69.16-.98.11-.3.28-.56.48-.78.21-.21.47-.38.77-.5.3-.11.63-.17.99-.17.25 0 .49.02.7.07.21.05.4.11.57.18s.31.16.42.25c.03.02.05.04.08.06.05-.05.1-.1.14-.16.05-.07.1-.14.14-.23.03-.07.05-.15.05-.23 0-.11-.03-.26-.28-.42-.07-.04-.15-.09-.25-.14-.1-.05-.22-.09-.37-.14a4.789 4.789 0 0 0-1.23-.16c-.51 0-.99.08-1.42.23-.43.15-.8.38-1.11.66-.31.28-.55.63-.72 1.04-.17.41-.26.88-.26 1.4 0 .56.09 1.05.27 1.46.18.41.43.75.75 1.02s.72.48 1.18.62c.47.14.99.21 1.57.21.27 0 .52-.01.77-.02.25-.02.47-.03.67-.05.19-.02.34-.04.47-.06v-2.85c-.02-.46-.21-.64-.71-.64z"/></symbol>
  <symbol id="GAME_OF_THE_WEEK" viewBox="0 0 24 24">
      <path
          d="M14.8 10.2s-.1-.1-.2-.1H9.4c-.1 0-.2.1-.3.1l-2.5 2.5c-.2.2-.2.5 0 .7l5 5c.1.1.2.1.3.1s.2 0 .3-.1l5-5c.2-.2.2-.5 0-.7l-2.4-2.5zM12 17.4l-4.3-4.3 2-2h1.2l-1.7 1.7c-.2.2-.2.5 0 .7.1.1.2.1.3.1s.2 0 .3-.1l2.4-2.4h1.2l-1.7 1.7c-.2.2-.2.5 0 .7.1.1.2.1.3.1s.2 0 .3-.1l2.2-2.2 1.8 1.8-4.3 4.3z"/><path
          d="M17.3 3.8V3c0-.4-.3-.7-.7-.7-.4 0-.7.3-.7.7v.8H8.1V3c0-.4-.3-.7-.7-.7s-.7.3-.7.7v.8C4.4 4.1 2.5 6 2.5 8.3v8.8c0 2.5 2 4.5 4.5 4.5h9.9c2.5 0 4.5-2 4.5-4.5V8.3c.1-2.3-1.8-4.2-4.1-4.5zM6.7 5.3v.4c0 .4.3.7.7.7s.7-.3.7-.7v-.5h7.8v.4c0 .4.3.7.7.7.4 0 .7-.3.7-.7v-.3c1 .1 1.9.8 2.4 1.7H4.3c.4-.9 1.3-1.6 2.4-1.7zm10.2 15H7.1c-1.7 0-3.1-1.4-3.1-3.1V8.4h16v8.8c0 1.7-1.4 3.1-3.1 3.1z"/></symbol>
  <symbol id="GOOGLE+" viewBox="0 0 24 24">
      <path fill="#f44336" d="M21.7 12c0 5.4-4.3 9.7-9.7 9.7S2.3 17.4 2.3 12 6.6 2.3 12 2.3s9.7 4.3 9.7 9.7z"/>
      <path fill="currentColor" d="M16.5 10.9V9.4H18v-.7h-1.5V7.3h-.7v1.4h-1.5v.7h1.5v1.5zm-9.4 4.8c0 1.3 1.5 2.1 3.3 2.1 2.5 0 3.5-1.3 3.5-2.4 0-.9-.3-1.5-1.3-2.2s-1.3-1.1-.3-1.9c.5-.4.9-1 .9-1.7 0-.8-.3-1.4-.9-1.8h.8l.7-.7h-3.1c-1.9 0-2.9 1.2-2.9 2.5s.9 2.3 2.7 2.3c-.3.6-.2 1.1.3 1.4-3.1.1-3.7 1.4-3.7 2.4zM9 9.6c-.1-1.1.4-1.9 1.3-1.9.8 0 1.6.9 1.7 2 .1 1.1-.3 1.8-1.2 1.8-.9 0-1.7-.8-1.8-1.9zm1.6 4.1c1.4 0 2.2.9 2.2 1.8 0 1-.8 1.7-2.4 1.7-1.3 0-2.2-.8-2.2-1.7.1-1 1.1-1.8 2.4-1.8z"/></symbol>
  <symbol id="HELP" viewBox="0 0 24 24">
      <path
          d="M12 2.3c-5.3 0-9.7 4.4-9.7 9.7s4.4 9.7 9.7 9.7 9.7-4.4 9.7-9.7-4.4-9.7-9.7-9.7zm4.3 8.7l3.2-2.6c.5 1.1.8 2.3.8 3.6s-.3 2.5-.8 3.6L16.3 13c.1-.3.1-.7.1-1s-.1-.7-.1-1zm2.5-3.8l-3.1 2.5c-.4-.6-.8-1-1.4-1.4l2.5-3.1c.8.5 1.5 1.2 2 2zM12 15c-1.7 0-3-1.4-3-3s1.4-3 3-3c1.7 0 3 1.4 3 3s-1.3 3-3 3zm3.6-10.5L13 7.7c-.3-.1-.7-.1-1-.1s-.7.1-1 .1L8.4 4.5c1.1-.5 2.3-.8 3.6-.8s2.5.3 3.6.8zm-8.4.7l2.5 3.1c-.6.4-1 .8-1.4 1.4L5.2 7.2c.5-.8 1.2-1.5 2-2zM4.5 8.4L7.7 11c-.1.3-.1.7-.1 1s.1.7.1 1l-3.2 2.6c-.5-1.1-.8-2.3-.8-3.6s.3-2.5.8-3.6zm.7 8.4l3.1-2.5c.4.6.8 1 1.4 1.4l-2.5 3.1c-.8-.5-1.5-1.2-2-2zm3.2 2.7l2.6-3.2c.3.1.7.1 1 .1s.7-.1 1-.1l2.6 3.2c-1.1.5-2.3.8-3.6.8s-2.5-.3-3.6-.8zm8.4-.7l-2.5-3.1c.6-.4 1-.8 1.4-1.4l3.1 2.5c-.5.8-1.2 1.5-2 2z"/></symbol>
  <symbol id="INFORMATION" viewBox="0 0 24 24">
      <path d="M12 1.96C6.45 1.96 1.96 6.45 1.96 12S6.45 22.04 12 22.04 22.04 17.55 22.04 12 17.55 1.96 12 1.96z"/>
      <path fill="currentColor" d="M14.66 17.01l-.18.73c-.54.21-.97.37-1.29.48-.32.11-.69.17-1.12.17-.65 0-1.16-.16-1.52-.48-.36-.32-.54-.72-.54-1.21 0-.19.01-.38.04-.58.03-.2.07-.42.13-.67l.67-2.38c.06-.23.11-.44.15-.65.04-.2.06-.39.06-.56 0-.3-.06-.52-.19-.64s-.36-.18-.72-.18c-.17 0-.35.03-.54.08s-.34.11-.47.15l.18-.73c.44-.18.86-.33 1.26-.46s.78-.19 1.14-.19c.65 0 1.15.16 1.5.47s.53.72.53 1.22c0 .1-.01.29-.04.55s-.07.5-.13.72l-.67 2.37c-.05.19-.1.41-.15.65-.04.24-.06.43-.06.55 0 .32.07.53.21.64.14.11.38.17.73.17.16 0 .35-.03.55-.09.23-.03.37-.08.47-.13zm.17-9.95c0 .41-.16.76-.47 1.06-.31.29-.69.44-1.13.44s-.82-.15-1.13-.44c-.32-.29-.47-.64-.47-1.06s.15-.76.47-1.06c.32-.29.69-.44 1.13-.44s.82.15 1.13.44c.31.3.47.65.47 1.06z"/></symbol>
  <symbol id="INSTAGRAM" viewBox="0 0 24 24">
      <path fill="#125688" d="M21.7 12c0 5.36-4.34 9.7-9.7 9.7S2.3 17.36 2.3 12 6.64 2.3 12 2.3s9.7 4.34 9.7 9.7z"/>
      <path fill="currentColor" d="M7.86 6.56c-.69 0-1.26.56-1.26 1.26v8.37c0 .69.56 1.26 1.26 1.26h8.37c.69 0 1.26-.56 1.26-1.26V7.81c0-.69-.56-1.26-1.26-1.26H7.86zm4.19 3.35c1.15 0 2.1.94 2.1 2.09s-.94 2.1-2.1 2.1c-1.16 0-2.09-.94-2.09-2.1 0-1.15.93-2.09 2.09-2.09zm4.18 5.86c0 .23-.19.42-.42.42H8.28c-.23 0-.42-.19-.42-.42v-4.6h.95c-.07.26-.11.54-.11.83a3.35 3.35 0 0 0 6.7 0c0-.29-.04-.57-.11-.84h.95v4.61zm0-6.28c0 .23-.19.42-.42.42h-1.26c-.23 0-.42-.19-.42-.42V8.23c0-.23.19-.42.42-.42h1.26c.23 0 .42.19.42.42v1.26z"/></symbol>
    <symbol id="MENU_2" viewBox="0 0 24 24">
        <path
                d="M19.06 3.6H4.94c-.41 0-.65-.32-.65-.65s.24-.65.65-.65h14.12c.41 0 .65.32.65.65s-.24.65-.65.65zm0 10.71H4.94c-.41 0-.65-.32-.65-.65 0-.32.32-.65.65-.65h14.12c.41 0 .65.32.65.65s-.24.65-.65.65zm0-5.35H4.94c-.41 0-.65-.32-.65-.65 0-.32.24-.73.65-.73h14.12c.41 0 .65.32.65.65 0 .32-.24.73-.65.73zM4.47 18.43c0-.09.02-.16.05-.22.03-.06.07-.11.12-.14.05-.03.1-.06.16-.07s.12-.02.19-.02c.14 0 .25.02.35.06.1.04.16.07.19.1.13.26.26.54.4.83s.28.58.43.85c.13-.25.25-.5.37-.75s.23-.48.34-.7c.07-.15.15-.25.25-.31s.21-.08.33-.08c.13 0 .25.02.35.06.1.04.16.07.19.09l.2 3.49h-.9l-.12-2.17c-.06.13-.13.26-.2.4s-.13.27-.19.41c-.06.13-.12.26-.17.38-.06.12-.1.23-.15.33h-.65c-.04-.09-.09-.21-.15-.33-.06-.13-.12-.26-.18-.4s-.13-.27-.2-.41c-.07-.14-.13-.26-.18-.37l-.12 2.14h-.89l.18-3.17zm4.63.05c0-.33.17-.5.52-.5h1.81c.16 0 .28.03.35.1.07.07.1.17.1.3 0 .1-.01.18-.04.26-.03.08-.05.13-.07.16H9.98v.57h1.38c.16 0 .28.03.35.1.07.07.1.17.1.3 0 .1-.01.18-.04.26-.03.08-.05.13-.07.16H9.98v.59h1.87v.83H9.1v-3.13zm3.39-.04c0-.09.01-.17.04-.23s.07-.11.11-.14c.05-.03.1-.06.16-.07a.853.853 0 0 1 .48.03c.07.03.12.06.14.08.02.02.06.07.12.15.06.08.14.19.22.31.09.12.18.26.28.41.1.15.2.3.29.44.09.14.18.28.26.4s.14.22.19.29v-1.74c0-.14.04-.25.13-.3.08-.06.2-.09.33-.09.1 0 .19.01.27.04.08.03.12.04.14.05v3.54h-.83c-.03-.05-.08-.13-.15-.24l-.23-.36c-.09-.13-.18-.28-.28-.43l-.3-.45c-.1-.15-.19-.29-.28-.42-.09-.13-.16-.24-.23-.33v2.23h-.87v-3.17zm3.87-.07c0-.14.04-.25.13-.3.08-.06.2-.09.33-.09.1 0 .19.01.27.04.08.03.13.04.15.05v1.85c0 .16.01.3.04.42s.07.22.13.31.14.14.24.19.23.06.38.06.28-.02.38-.06.18-.1.24-.19.11-.19.13-.31c.03-.12.04-.26.04-.42v-1.54c0-.14.04-.25.13-.3.08-.06.2-.09.33-.09.1 0 .19.01.27.04.08.03.13.04.15.05V20c0 .54-.14.95-.43 1.25s-.7.45-1.24.45-.95-.15-1.24-.45c-.29-.3-.43-.72-.43-1.25v-1.63z"/></symbol>
    <symbol id="NEW" viewBox="0 0 24 24">
    <path d="M12 2.33c-5.34 0-9.67 4.33-9.67 9.67s4.33 9.67 9.67 9.67 9.67-4.33 9.67-9.67S17.34 2.33 12 2.33zm5.91 15.58c-1.51 1.51-3.6 2.45-5.91 2.45s-4.4-.93-5.91-2.45C4.57 16.4 3.64 14.31 3.64 12s.93-4.4 2.45-5.91C7.6 4.57 9.69 3.64 12 3.64s4.4.93 5.91 2.45c1.51 1.51 2.45 3.6 2.45 5.91s-.93 4.4-2.45 5.91z"/><path
        d="M17.5 14.69l-.17.7c-.51.2-.93.36-1.23.46-.31.11-.66.16-1.07.16-.62 0-1.1-.15-1.44-.46a1.49 1.49 0 0 1-.51-1.15c0-.12.01-.28.02-.48s.06-.44.13-.73l.56-2.07c.06-.22.1-.42.13-.6s.04-.33.04-.44c0-.25-.06-.44-.18-.58-.12-.14-.32-.21-.61-.21-.18 0-.43.07-.75.21-.33.14-.69.39-1.1.77l-1.29 5.62H7.46l1.11-4.79c.03-.15.07-.33.12-.57.05-.23.07-.43.07-.58 0-.3-.06-.5-.18-.61-.13-.12-.35-.17-.67-.17-.17 0-.34.03-.51.08-.17.05-.32.1-.45.14l.17-.7c.42-.17.82-.32 1.21-.44.38-.12.75-.18 1.09-.18.61 0 1.07.12 1.37.36.3.24.51.58.6 1.02h.05c.51-.46 1.03-.82 1.58-1.08.54-.26 1.12-.39 1.73-.39.58 0 1.03.16 1.35.47.32.32.49.7.49 1.15 0 .12-.01.29-.03.5-.02.22-.06.45-.13.69l-.59 2.19c-.05.18-.1.39-.14.62-.04.23-.06.41-.06.53 0 .3.07.51.2.62.13.11.36.16.7.16.16 0 .33-.03.53-.08s.34-.09.43-.14z"/></symbol>
    <symbol id="NEW_2" viewBox="0 0 24 24">
        <path fill="#02b5ec" d="M12 4.12c-4.35 0-7.88 3.53-7.88 7.88s3.53 7.88 7.88 7.88 7.88-3.53 7.88-7.88S16.35 4.12 12 4.12z"/>
        <path fill="#fff" d="M16.48 14.19l-.14.57c-.42.16-.76.29-1 .37-.25.09-.54.13-.87.13-.51 0-.9-.12-1.17-.37-.28-.25-.42-.56-.42-.94 0-.1.01-.23.02-.39.01-.15.05-.36.11-.59l.46-1.69c.05-.18.08-.34.11-.49.02-.15.03-.27.03-.36 0-.2-.05-.36-.15-.47s-.26-.17-.5-.17c-.15 0-.35.06-.61.17-.27.11-.56.32-.9.63l-1.05 4.58H8.3l.9-3.9c.03-.13.06-.27.1-.47.04-.19.06-.35.06-.47 0-.24-.05-.41-.15-.5-.1-.1-.29-.14-.55-.14-.14 0-.28.02-.42.07s-.25.08-.36.11l.14-.57c.34-.14.67-.26.99-.36.31-.09.61-.14.89-.14.5 0 .87.1 1.12.29.24.2.41.47.49.83h.04c.42-.37.84-.67 1.29-.88.44-.21.91-.32 1.41-.32.47 0 .84.13 1.1.38.26.26.4.57.4.94 0 .1-.01.24-.02.41-.02.18-.05.36-.11.56l-.48 1.78c-.04.15-.08.32-.11.51s-.05.33-.05.43c0 .24.06.42.16.5.11.08.29.13.57.13.13 0 .27-.02.43-.07.15-.02.27-.07.34-.1z"/>
        <path fill="currentColor" d="M12 2.33c-5.33 0-9.67 4.34-9.67 9.67s4.34 9.67 9.67 9.67 9.67-4.34 9.67-9.67S17.33 2.33 12 2.33zm0 18.62c-4.93 0-8.95-4.01-8.95-8.95S7.07 3.05 12 3.05s8.95 4.01 8.95 8.95-4.02 8.95-8.95 8.95z"/>
    </symbol>
    <symbol id="PIN" viewBox="0 0 24 24">
    <path  d="M21 24H3c-1.66 0-3-1.34-3-3V3c0-1.66 1.34-3 3-3h18c1.66 0 3 1.34 3 3v18c0 1.66-1.34 3-3 3z"/>
    <path fill="#fff" d="M12 2.52c-2.79 0-4.99 2.32-4.99 4.99 0 2.79 2.44 4.65 4.99 7.2 2.55-2.55 4.99-4.41 4.99-7.2-.11-2.67-2.32-4.99-4.99-4.99zm0 8.6c-2.09 0-3.6-1.63-3.6-3.6 0-2.09 1.63-3.6 3.6-3.6 2.09 0 3.6 1.63 3.6 3.6s-1.63 3.6-3.6 3.6zm0-6.28l.7 1.51 1.63.23-1.16 1.16.23 1.63-1.4-.81-1.51.81.23-1.63-1.16-1.15 1.63-.12.81-1.63z"/>
    <path fill="#fff" d="M7.83 16.67c0-.12.03-.2.09-.25.06-.05.13-.09.21-.1.06-.01.17-.02.32-.04.15-.01.37-.02.66-.02.59 0 1.02.12 1.31.35.29.23.43.54.43.92 0 .18-.03.35-.09.5-.06.16-.16.29-.29.4-.13.11-.3.2-.52.27-.21.06-.47.1-.78.1-.08 0-.16 0-.23-.01-.08-.01-.15-.01-.22-.02s-.12-.01-.17-.02c-.05-.01-.08-.01-.09-.01v1.34h-.63v-3.41zm.64 1.52c.03 0 .1.01.21.03s.27.02.45.02c.2 0 .37-.02.51-.05s.24-.09.32-.15c.08-.07.13-.14.17-.23.03-.09.05-.18.05-.28 0-.09-.01-.18-.04-.27s-.08-.16-.17-.23c-.08-.07-.19-.12-.33-.16-.14-.04-.32-.06-.54-.06-.18 0-.32 0-.42.01-.11.01-.17.01-.2.02v1.35zM11.47 16.62c0-.1.03-.18.09-.23.06-.05.15-.07.25-.07.07 0 .13.01.19.03.06.02.1.03.12.04v3.71h-.65v-3.48zM12.93 16.67c0-.13.04-.22.12-.27.08-.05.17-.08.28-.08.1 0 .19.02.25.05.07.03.11.06.14.08.04.04.1.12.18.23.08.11.18.24.29.4.11.15.22.32.35.5s.25.35.37.53.24.35.34.51c.11.17.2.31.28.43v-2.43c0-.1.03-.18.09-.23.06-.05.14-.07.25-.07.07 0 .14.01.2.03.06.02.09.03.11.04v3.7h-.68c-.07-.1-.14-.22-.24-.37-.09-.14-.19-.29-.31-.46-.11-.17-.23-.34-.35-.52l-.36-.54-.35-.51c-.12-.16-.22-.31-.32-.44v2.84h-.65v-3.42z"/>
</symbol>
    <symbol id="RESPONSIBLE_GAMBLING" viewBox="0 0 24 24">
      <path d="M17.94 5.022c-.305 0-.594.074-.85.204v-.373a1.871 1.871 0 0 0-2.93-1.54A1.876 1.876 0 0 0 12.498 2.3c-.933 0-1.708.686-1.848 1.58a1.872 1.872 0 0 0-2.744 1.654v5.912a2.262 2.262 0 0 0-1.694-.796 2.04 2.04 0 0 0-1.084.31c-.457.29-.775.747-.894 1.286a2.265 2.265 0 0 0 .32 1.703s2.222 3.362 3.17 4.8c1.303 1.986 3.287 2.952 6.064 2.952 4.45 0 6.03-3.026 6.03-5.617v-9.19a1.878 1.878 0 0 0-1.877-1.873zm.6 11.06c0 1.02-.342 4.342-4.753 4.342-2.346 0-3.934-.755-4.998-2.377-.95-1.44-3.173-4.803-3.173-4.803a.97.97 0 0 1-.137-.724.761.761 0 0 1 .332-.484.756.756 0 0 1 .4-.11c.312 0 .62.176.806.46l1.393 1.908a.43.43 0 0 0 .477.154.426.426 0 0 0 .293-.406V5.534a.596.596 0 0 1 1.19-.001v5.105a.765.765 0 0 0 1.532-.001V4.17a.596.596 0 0 1 1.19.001v6.47a.767.767 0 0 0 1.532-.001V4.852a.595.595 0 0 1 1.189 0v6.468a.767.767 0 0 0 1.532.001V6.894c0-.328.267-.595.594-.595.33 0 .6.267.6.595v9.19z"/></symbol>
    <symbol id="SESSION_TIME" viewBox="0 0 24 24">
        <path  d="M12 5.98c-4.34 0-7.86 3.53-7.86 7.86S7.67 21.7 12 21.7s7.86-3.53 7.86-7.86S16.34 5.98 12 5.98zm0 14.64c-3.73 0-6.77-3.04-6.77-6.77S8.27 7.08 12 7.08s6.77 3.04 6.77 6.77-3.04 6.77-6.77 6.77z"/><path
            d="M15.79 13.6h-2.77c-.11-.46-.53-.81-1.03-.81-.19 0-.36.05-.52.14l-3.4-3.4c-.14-.14-.37-.14-.52 0s-.14.37 0 .52l3.44 3.44c-.04.11-.07.23-.07.36a1.057 1.057 0 1 0 2 .48h2.85c.2 0 .36-.16.36-.36.03-.21-.14-.37-.34-.37zm-5.21-8.28c.97-.16 1.95-.16 2.91.01l1.44.25.5-2.87-1.44-.25c-1.28-.22-2.59-.23-3.88-.01l-1.45.23.48 2.88 1.44-.24z"/></symbol>

    <symbol id="SLOTS_GAMES" viewBox="0 0 24 24">
      <path
          d="M21.99 9.95c0-1.09-.89-1.98-1.98-1.98-1.09 0-1.98.89-1.98 1.98 0 .87.56 1.6 1.34 1.86v2.83c0 .59-.48 1.07-1.07 1.07-.01 0-.02.01-.03.01v-3.56c0-.35-.29-.64-.64-.64-.35 0-.64.29-.64.64v6.36c0 .83-.68 1.51-1.51 1.51H5.87c-.83 0-1.51-.68-1.51-1.51v-.83c0-.35-.29-.64-.64-.64s-.64.29-.64.64v.83c0 1.54 1.25 2.79 2.79 2.79h9.61c1.54 0 2.79-1.25 2.79-2.79v-1.54c.01 0 .02.01.03.01 1.29 0 2.34-1.05 2.34-2.34v-2.83c.79-.27 1.35-1 1.35-1.87zm-1.98.7c-.39 0-.7-.31-.7-.7 0-.39.31-.7.7-.7.39 0 .7.31.7.7 0 .39-.31.7-.7.7zM3.72 9.91c.35 0 .64-.29.64-.64V7.5c0-.82.67-1.5 1.5-1.51h9.64c.82.01 1.5.69 1.5 1.51v.1c0 .35.29.64.64.64.35 0 .64-.29.64-.64v-.1c0-1.31-.91-2.41-2.13-2.71v-.53c0-.87-.71-1.58-1.58-1.58H6.79c-.87 0-1.58.71-1.58 1.58v.53c-1.22.3-2.13 1.41-2.13 2.71v1.77c0 .35.29.64.64.64zm2.77-5.65c0-.17.13-.3.3-.3h7.77c.17 0 .3.13.3.3v.45H6.49v-.45z"/><path
          d="M7.65 19.35c.11 0 .22-.04.3-.12l5.22-5.22c.08-.08.12-.19.12-.3s-.04-.22-.12-.3l-2.61-2.61a.42.42 0 0 0-.3-.12H5.05c-.11 0-.22.04-.3.12l-2.61 2.61c-.17.17-.17.44 0 .6l5.22 5.22c.08.08.19.12.29.12zm-2.43-7.82h1.4l-1.88 1.88c-.17.17-.17.44 0 .6.08.08.19.12.3.12.11 0 .22-.04.3-.12l2.48-2.48h1.4l-1.88 1.88c-.17.17-.17.44 0 .6.08.08.19.12.3.12.11 0 .22-.04.3-.12l2.31-2.31 2.01 2.01-4.62 4.62-4.62-4.62 2.2-2.18zm7.06 4.82c0 .97.79 1.77 1.77 1.77s1.77-.79 1.77-1.77-.79-1.77-1.77-1.77-1.77.8-1.77 1.77zm1.77-.91c.5 0 .91.41.91.91s-.41.91-.91.91-.91-.41-.91-.91.41-.91.91-.91zm-1.81-5.58c.24 0 .43-.19.43-.43V7.98h2.24v4.2c-.19.04-.33.21-.33.41 0 .24.19.43.43.43.42 0 .75-.34.75-.75V7.88c0-.42-.34-.75-.75-.75H6.34c-.42 0-.75.34-.75.75 0 .24.19.43.43.43.2 0 .37-.14.41-.33h2.25v1.45c0 .24.19.43.43.43s.43-.19.43-.43V7.98h2.28v1.45c0 .24.19.43.42.43z"/></symbol>
  <symbol id="TIME" viewBox="0 0 24 24">
      <path  d="M12 2.33c-5.33 0-9.67 4.34-9.67 9.67s4.34 9.67 9.67 9.67 9.67-4.34 9.67-9.67S17.33 2.33 12 2.33zm0 17.99c-4.59 0-8.32-3.73-8.32-8.32S7.41 3.68 12 3.68s8.32 3.73 8.32 8.32-3.73 8.32-8.32 8.32z"/><path  d="M16.66 11.69h-3.4c-.14-.57-.65-1-1.26-1-.23 0-.45.07-.64.17L7.18 6.69a.453.453 0 0 0-.63 0c-.17.17-.17.46 0 .63l4.23 4.23A1.297 1.297 0 0 0 12 13.3c.51 0 .94-.29 1.16-.71h3.51c.25 0 .45-.2.45-.45a.463.463 0 0 0-.46-.45z"/></symbol>
  <symbol id="TWITTER" viewBox="0 0 24 24">
      <path fill="#55acee" d="M12 2.3c-5.4 0-9.7 4.3-9.7 9.7s4.3 9.7 9.7 9.7 9.7-4.3 9.7-9.7-4.3-9.7-9.7-9.7z"/>
      <path fill="currentColor" d="M7 16c1 .6 2.2 1 3.4 1 4.2 0 6.5-3.5 6.4-6.7.4-.3.8-.7 1.1-1.2-.4.2-.8.3-1.3.4.5-.3.8-.7 1-1.2-.4.3-.9.4-1.4.5-.4-.4-1-.7-1.6-.7-1.4 0-2.5 1.4-2.2 2.8-1.9-.1-3.5-1-4.6-2.3-.6 1-.3 2.3.7 3-.4 0-.7-.1-1-.3 0 1 .7 2 1.8 2.2-.3.1-.7.1-1 0 .3.9 1.1 1.5 2.1 1.6-1 .7-2.2 1-3.4.9z"/></symbol>
  <symbol id="UNPIN"  viewBox="0 0 24 24">
      <path d="M21 24H3c-1.66 0-3-1.34-3-3V3c0-1.66 1.34-3 3-3h18c1.66 0 3 1.34 3 3v18c0 1.66-1.34 3-3 3z"/>
      <path fill="#fff" d="M12 2.52c-2.79 0-4.99 2.32-4.99 4.99 0 2.79 2.44 4.65 4.99 7.2 2.55-2.55 4.99-4.41 4.99-7.2-.11-2.67-2.32-4.99-4.99-4.99zm0 8.6c-2.09 0-3.6-1.63-3.6-3.6 0-2.09 1.63-3.6 3.6-3.6 2.09 0 3.6 1.63 3.6 3.6s-1.63 3.6-3.6 3.6zm0-6.28l.7 1.51 1.63.23-1.16 1.16.23 1.63-1.4-.81-1.51.81.23-1.63-1.16-1.15 1.63-.12.81-1.63z"/>
      <path fill="#fff" d="M3.69 16.62c0-.1.03-.18.09-.23.06-.05.14-.07.25-.07.07 0 .14.01.2.03.06.02.1.03.12.04v1.95c0 .21.02.39.05.55.04.16.1.29.18.39.08.1.19.18.33.24.14.05.3.08.5.08s.36-.03.5-.08.25-.13.33-.24c.08-.1.14-.23.18-.39.04-.16.05-.34.05-.55v-1.72c0-.1.03-.18.09-.23.06-.05.14-.07.25-.07.07 0 .14.01.2.03.06.02.1.03.12.04v2.01c0 .58-.14 1.02-.43 1.33-.29.31-.71.46-1.29.46s-1-.15-1.29-.46c-.29-.31-.43-.75-.43-1.33v-1.78zM7.89 16.67c0-.13.04-.22.12-.27.08-.05.17-.08.28-.08.1 0 .19.02.25.05.07.03.11.06.14.08.04.04.1.12.18.23.08.11.18.24.29.4.11.15.22.32.35.5s.25.35.37.53.24.35.34.51c.11.17.2.31.28.43v-2.43c0-.1.03-.18.09-.23.06-.05.14-.07.25-.07.07 0 .14.01.2.03.06.02.09.03.11.04v3.7h-.66c-.07-.1-.14-.22-.24-.37-.09-.14-.19-.29-.31-.46-.11-.17-.23-.34-.35-.52l-.36-.54-.35-.51c-.12-.16-.22-.31-.32-.44v2.84h-.66v-3.42zM11.93 16.67c0-.12.03-.2.09-.25.06-.05.13-.09.21-.1.06-.01.17-.02.32-.04.15-.01.37-.02.66-.02.59 0 1.02.12 1.31.35.29.23.43.54.43.92 0 .18-.03.35-.09.5-.06.16-.16.29-.29.4-.13.11-.3.2-.52.27-.21.06-.47.1-.78.1-.08 0-.16 0-.23-.01-.08-.01-.15-.01-.22-.02s-.12-.01-.17-.02c-.05-.01-.08-.01-.09-.01v1.34h-.64v-3.41zm.64 1.52c.03 0 .1.01.21.03s.27.02.45.02c.2 0 .37-.02.51-.05s.24-.09.32-.15c.08-.07.13-.14.17-.23.03-.09.05-.18.05-.28 0-.09-.01-.18-.04-.27s-.08-.16-.17-.23c-.08-.07-.19-.12-.33-.16-.14-.04-.32-.06-.54-.06-.18 0-.32 0-.42.01-.11.01-.17.01-.2.02v1.35zM15.57 16.62c0-.1.03-.18.09-.23.06-.05.15-.07.25-.07.07 0 .13.01.19.03.06.02.1.03.12.04v3.71h-.65v-3.48zM17.03 16.67c0-.13.04-.22.12-.27.08-.05.17-.08.28-.08.1 0 .19.02.25.05.07.03.11.06.14.08.04.04.1.12.18.23.08.11.18.24.29.4.11.15.22.32.35.5s.25.35.37.53.24.35.34.51c.11.17.2.31.28.43v-2.43c0-.1.03-.18.09-.23.06-.05.14-.07.25-.07.07 0 .14.01.2.03.06.02.09.03.11.04v3.7h-.68c-.07-.1-.14-.22-.24-.37-.09-.14-.19-.29-.31-.46-.11-.17-.23-.34-.35-.52l-.36-.54-.35-.51c-.12-.16-.22-.31-.32-.44v2.84h-.65v-3.42z"/>
  </symbol>
  <symbol id="USER" viewBox="0 0 24 24">
    <path d="M15.05 11.91c-.15-.05-.29-.08-.43-.09 1.49-.87 2.47-2.51 2.47-4.42 0-2.81-2.24-5.1-5-5.1s-5 2.29-5 5.1c0 1.83.95 3.43 2.37 4.33-.02 0-.04.01-.06.01-3.03.72-5.14 3.15-5.14 5.91v1.12c0 2.73 6.29 2.92 7.55 2.93h.22c1.86 0 3.6-.2 4.93-.56 1.82-.5 2.76-1.27 2.78-2.32V17.7c-.01-2.57-1.9-4.9-4.69-5.79zM8.41 7.4c0-2.09 1.66-3.79 3.69-3.79 2.07 0 3.69 1.66 3.69 3.79 0 2.12-1.62 3.79-3.69 3.79-2.04-.01-3.69-1.71-3.69-3.79zm10.02 11.41c-.01.68-2.52 1.62-6.6 1.58-4.02-.03-6.25-.98-6.25-1.62v-1.12c0-2.15 1.7-4.06 4.14-4.64h.03c.11 0 .33.11.5.18.31.15.69.33 1.12.33h1.27c.44 0 .83-.13 1.17-.24.33-.11.62-.2.82-.13 2.27.73 3.79 2.56 3.79 4.55v1.11z"/>
  </symbol>
  <symbol id="YOUTUBE" viewBox="0 0 24 24">
      <path fill="#cc181e" d="M12 2.3c-5.36 0-9.7 4.34-9.7 9.7s4.34 9.7 9.7 9.7 9.7-4.34 9.7-9.7-4.34-9.7-9.7-9.7z"/>
      <path fill="currentColor" d="M15.73 14.38c0-.22-.05-.39-.27-.39-.23 0-.27.16-.27.39v.33h.55l-.01-.33zm-4.07-3.9c.52 0 .93-.35.93-.93v-1.7c0-.55-.41-.94-.93-.94-.57 0-.95.38-.95.94v1.7c0 .61.32.93.95.93zm-.28-2.58c0-.19.09-.33.27-.33.2 0 .28.14.28.33v1.62c0 .19-.1.33-.27.33-.18 0-.28-.15-.28-.33V7.9zm2.02 8.37c.03-.05.05-.13.05-.23v-1.7c0-.11-.02-.2-.07-.25-.07-.1-.21-.11-.32-.06-.04.02-.08.05-.13.1v2.06c.05.06.1.09.15.12.11.04.26.05.32-.04zM9.54 7.58l-.5-1.88H8.3l.87 2.8v1.91h.73V8.5l.85-2.8h-.74zm3.6-.64v2.91c0 .34.1.62.45.62.2 0 .47-.1.75-.43v.39h.65V6.94h-.65v2.64c-.08.1-.25.26-.38.26-.14 0-.17-.09-.17-.24V6.94h-.65z"/>
      <path fill="currentColor" d="M6.75 12.69v3.75c0 .82.66 1.48 1.48 1.48h7.63c.82 0 1.48-.66 1.48-1.48v-3.75c0-.82-.66-1.48-1.48-1.48H8.23c-.82 0-1.48.66-1.48 1.48zm7.8 1.7c0-.57.38-.97.94-.97.59 0 .88.37.88.97v.84h-1.18v.63c0 .24.02.46.27.46.26 0 .27-.17.27-.46v-.23h.64v.25c0 .64-.27 1.03-.92 1.03-.59 0-.89-.43-.89-1.03l-.01-1.49zm-2.23-2.07h.62v1.45c.14-.17.32-.31.55-.31.45 0 .6.38.6.83v1.84c0 .41-.16.73-.56.73-.23 0-.41-.08-.58-.3v.25h-.62v-4.49h-.01zm-1.58 3.94c.12 0 .29-.16.36-.25V13.5h.61v3.31h-.61v-.37c-.11.14-.23.24-.35.31-.33.19-.79.19-.79-.49V13.5h.62v2.54c0 .13.03.22.16.22zm-.77-3.29h-.72v3.84h-.69v-3.84h-.71v-.65h2.13l-.01.65z"/></symbol>
</svg>
