<svg id="Layer_1" data-name="Layer 1" xmlns="http://www.w3.org/2000/svg" viewBox="0 0 30.9165 30.91699"><defs><style>.cls-1,.cls-2{fill:#1f9ed9}.cls-2{fill-rule:evenodd}</style></defs><title>Facebook</title><path class="cls-1" d="M15.458 30.917a15.459 15.459 0 1 1 15.458-15.459 15.476 15.476 0 0 1-15.458 15.459zm0-29.917a14.459 14.459 0 1 0 14.458 14.459A14.474 14.474 0 0 0 15.458 1z"/><path class="cls-2" d="M16.678 23.47H13.53v-7.438h-2.08v-2.879h2.127V10.37a2.968 2.968 0 0 1 3.14-2.924h2.749v2.76h-1.868c-.85 0-.868.102-.868.823l-.005 2.124h2.74l-.304 2.879h-2.483v7.439z"/></svg>