<svg id="Layer_1" data-name="Layer 1" xmlns="http://www.w3.org/2000/svg" viewBox="0 0 30.91699 30.91699"><defs><style>.cls-1{fill:#27bfcf}</style></defs><title>Twitter</title><path class="cls-1" d="M15.459 30.917a15.459 15.459 0 1 1 15.458-15.459 15.476 15.476 0 0 1-15.459 15.459zm0-29.917a14.459 14.459 0 1 0 14.458 14.459A14.475 14.475 0 0 0 15.458 1z"/><path class="cls-1" d="M23.818 10.273a6.857 6.857 0 0 1-1.97.54 3.44 3.44 0 0 0 1.508-1.898 6.867 6.867 0 0 1-2.178.833 3.433 3.433 0 0 0-5.845 3.128 9.738 9.738 0 0 1-7.07-3.584 3.434 3.434 0 0 0 1.061 4.58 3.417 3.417 0 0 1-1.554-.429v.043a3.432 3.432 0 0 0 2.752 3.364 3.437 3.437 0 0 1-1.55.059 3.434 3.434 0 0 0 3.205 2.382 6.882 6.882 0 0 1-4.26 1.468 6.96 6.96 0 0 1-.818-.048 9.755 9.755 0 0 0 15.018-8.218q0-.224-.01-.444a6.97 6.97 0 0 0 1.711-1.776z"/></svg>