<svg id="Layer_1" data-name="Layer 1" xmlns="http://www.w3.org/2000/svg" viewBox="0 0 30.9165 30.91699"><defs><style>.cls-1{fill:#ee3441}</style></defs><title>Youtube</title><path class="cls-1" d="M15.459 30.917a15.459 15.459 0 1 1 15.458-15.459 15.476 15.476 0 0 1-15.459 15.459zm0-29.917a14.459 14.459 0 1 0 14.458 14.459A14.475 14.475 0 0 0 15.457 1z"/><path class="cls-1" d="M19.554 9.506h-8.191c-4.483 0-4.483 1.277-4.483 4.418v3.07c0 2.986.635 4.417 4.483 4.417h8.191c3.476 0 4.483-.837 4.483-4.418v-3.07c0-3.305-.17-4.417-4.483-4.417zm-5.848 8.285v-4.818l4.624 2.402z"/></svg>