<svg id="Layer_1" data-name="Layer 1" xmlns="http://www.w3.org/2000/svg" viewBox="0 0 74.3 82.27"><defs><style>.cls-1{fill:#41494f}</style></defs><title>ICNSideGames</title><path class="cls-1" d="M32.2 35.65A20.8 20.8 0 0 1 27 30.3a1.29 1.29 0 0 0-2.12 0A23 23 0 0 1 20 35.76c-2.65 2.34-5.14 4.55-5.14 8.78A6.19 6.19 0 0 0 21 50.73a5.73 5.73 0 0 0 3.71-1.14v3.61a1.24 1.24 0 1 0 2.47 0v-3.61a5.72 5.72 0 0 0 3.71 1.14c3.07 0 5.43-2.28 6.16-5.94C38 40.34 35 38 32.2 35.65zm2.47 8.65c-.19.93-1 4-3.74 4-2 0-2.67-.68-3.84-3a1.18 1.18 0 0 0-.22-.3l-.06-.05a1.26 1.26 0 0 0-.29-.19h-.11a1.11 1.11 0 0 0-.86 0h-.11a1.19 1.19 0 0 0-.28.19l-.07.05a1.22 1.22 0 0 0-.22.3c-1.17 2.35-1.82 3-3.84 3a3.72 3.72 0 0 1-3.71-3.71c0-3.11 1.81-4.71 4.31-6.93A29.83 29.83 0 0 0 26 33.13a27.77 27.77 0 0 0 4.64 4.44c3 2.46 4.6 3.88 4 6.73zm0 0"/><path class="cls-1" d="M40.44 71.76H6.19a3.72 3.72 0 0 1-3.71-3.71v-52a3.72 3.72 0 0 1 3.71-3.71h6.5a1.24 1.24 0 0 0 1.22-1l.37-2a3.71 3.71 0 0 1 4.3-3l7 1.2a1.25 1.25 0 0 0 1.36-.75l.77-1.9A3.68 3.68 0 0 1 32.4 2.7l19 6.93-19.14-3.38a1.24 1.24 0 0 0-.43 2.44l6.9 1.22H17.32a1.24 1.24 0 1 0 0 2.47h28.46a3.72 3.72 0 0 1 3.71 3.71v36.1H52v-36.1a6.14 6.14 0 0 0-1.62-4.14l7.21 1.27a3.72 3.72 0 0 1 3 4.3L54.46 52.2H57l6-34.25a6.15 6.15 0 0 0-.93-4.45l7.27 2.65a3.68 3.68 0 0 1 2.2 4.71L60.13 52.21h2.63l11.1-30.51a6.16 6.16 0 0 0-3.68-7.88L33.25.37A6.15 6.15 0 0 0 25.38 4l-.38.94-6-1a6.19 6.19 0 0 0-7.16 5l-.18 1H6.19A6.19 6.19 0 0 0 0 16.09v52a6.19 6.19 0 0 0 6.19 6.19h36.74z"/><path class="cls-1" d="M62.37 63.22l-6.51-6.13-6.53 6.11h13zm.63 1.37H48.64L55.92 80 63 64.59zm-7.07 17.68a.68.68 0 0 1-.48-.2L37.6 64.35a.69.69 0 0 1-.12-.82l4.32-7.74a.69.69 0 0 1 .6-.35h26.9a.69.69 0 0 1 .6.35l4.3 7.75a.69.69 0 0 1-.12.82L56.41 82.07a.68.68 0 0 1-.49.2zM42.46 57.44l-3.2 5.74h7l-3.84-5.75zm11.66-.61H43.69l4 6 6.41-6zm13.9 0H57.59l6.39 6 4-6zm4.42 6.38l-3.19-5.75-3.86 5.74zM58.17 78.37L72 64.61h-7.46l-6.37 13.76zM39.75 64.55l13.89 13.8-6.49-13.78z"/></svg>