<svg id="Layer_1" data-name="Layer 1" xmlns="http://www.w3.org/2000/svg" viewBox="0 0 76.28 73.41"><defs><style>.cls-1{fill:#41494f}</style></defs><title>ICNTournaments</title><path class="cls-1" d="M76 6.16a1.5 1.5 0 0 0-1.23-.64h-13v-4A1.5 1.5 0 0 0 60.32 0H16a1.5 1.5 0 0 0-1.5 1.5v4h-13a1.5 1.5 0 0 0-1.41 2c3 8 7.79 13.73 14.37 17.17v11c0 11.23 9.82 20.44 22.18 21.13v13.61H17.89a1.5 1.5 0 1 0 0 3h40.5a1.5 1.5 0 1 0 0-3H39.64V56.84c12.36-.69 22.18-9.9 22.18-21.13v-11c6.58-3.43 11.42-9.21 14.37-17.17A1.5 1.5 0 0 0 76 6.16zM3.72 8.52h10.74v12.75A27.11 27.11 0 0 1 3.72 8.52zm55.1 27.19c0 10-9.28 18.18-20.68 18.18s-20.68-8.16-20.68-18.18V3h41.36zm3-14.44V8.52h10.74a27.12 27.12 0 0 1-10.74 12.75z"/></svg>