<svg id="Layer_1" data-name="Layer 1" xmlns="http://www.w3.org/2000/svg" viewBox="0 0 66.27673 66.25922"><defs><style>.cls-1{fill:#41494f;}</style></defs><title>Top_Games</title><path class="cls-1" d="M61.82507,16.56757A33.11011,33.11011,0,0,0,16.576,4.44318,33.12469,33.12469,0,0,0,4.45166,49.69177,33.10967,33.10967,0,0,0,49.70019,61.8161,33.12417,33.12417,0,0,0,61.82507,16.56757ZM52.39032,9.68488l-5.80865,6.45142a21.61864,21.61864,0,0,0-23.06738-2.43738L19.17474,6.18335A30.21384,30.21384,0,0,1,52.39032,9.68488ZM51.41687,38.0271A18.93265,18.93265,0,0,1,33.15692,52.05627a18.99353,18.99353,0,0,1-16.40717-9.46472A18.92835,18.92835,0,0,1,33.11908,14.20306a18.99239,18.99239,0,0,1,16.40717,9.4646A18.79775,18.79775,0,0,1,51.41687,38.0271ZM3.8092,25.27057A30.14534,30.14534,0,0,1,16.77771,7.554l4.35608,7.54431a21.62169,21.62169,0,0,0-9.449,21.179L3.1737,38.087A30.27157,30.27157,0,0,1,3.8092,25.27057ZM6.843,48.31134a30.5004,30.5004,0,0,1-3.09119-7.52368l8.52209-1.81213a21.53938,21.53938,0,0,0,17.2309,15.51855l-.90887,8.64313A30.47319,30.47319,0,0,1,6.843,48.31134ZM48.31976,59.42456a30.34861,30.34861,0,0,1-15.1521,4.07385c-.61194,0-1.22058-.02441-1.827-.06116l.90961-8.65051c.30188.01271.603.03033.90668.03033A21.65762,21.65762,0,0,0,52.33661,43.18787L60.2926,46.73A30.14788,30.14788,0,0,1,48.31976,59.42456Zm14.147-18.43579a30.84825,30.84825,0,0,1-1.06036,3.21649l-7.941-3.53558c.23242-.63.44257-1.27142.61847-1.9281A21.59441,21.59441,0,0,0,48.63629,17.98l5.81561-6.45917a30.28222,30.28222,0,0,1,8.01489,29.468Z"/><path class="cls-1" d="M33.138,19.50763l-4.32922,8.77161-9.6803,1.40747,7.00439,6.82788-1.65344,9.64117L33.138,41.60345l8.65857,4.55231-1.65344-9.64117,7.00439-6.82788-9.6803-1.40747Zm4.03809,16.04183.95374,5.55925L33.138,38.484,28.14618,41.1087l.95374-5.55925-4.03876-3.935,5.58093-.81152L33.138,25.7464l2.49591,5.05652,5.58093.81152Z"/></svg>