<svg id="Layer_1" data-name="Layer 1" xmlns="http://www.w3.org/2000/svg" viewBox="0 0 30.9165 30.91699"><defs><style>.cls-1,.cls-2{fill:#1f9ed9;}.cls-2{fill-rule:evenodd;}</style></defs><title>Facebook</title><path class="cls-1" d="M15.458,30.917A15.4585,15.4585,0,1,1,30.9165,15.4585,15.47579,15.47579,0,0,1,15.458,30.917ZM15.458,1A14.4585,14.4585,0,1,0,29.9165,15.4585,14.47449,14.47449,0,0,0,15.458,1Z"/><path class="cls-2" d="M16.67783,23.47088H13.52975V16.03152h-2.0795V13.15344H13.577V10.3703a2.9677,2.9677,0,0,1,3.14-2.92415h2.74889v2.76037H17.598c-.8496,0-.86777.10161-.86777.822l-.00481,2.1249h2.74051l-.30445,2.87808H16.67783v7.43936Z"/></svg>