<svg id="Layer_1" data-name="Layer 1" xmlns="http://www.w3.org/2000/svg" viewBox="0 0 30.91699 30.91699"><defs><style>.cls-1{fill:#27bfcf;}</style></defs><title>Twitter</title><path class="cls-1" d="M15.4585,30.917A15.4585,15.4585,0,1,1,30.917,15.4585,15.4759,15.4759,0,0,1,15.4585,30.917Zm0-29.917A14.4585,14.4585,0,1,0,29.917,15.4585,14.4746,14.4746,0,0,0,15.4585,1Z"/><path class="cls-1" d="M23.81826,10.27306a6.85693,6.85693,0,0,1-1.97011.54013,3.44062,3.44062,0,0,0,1.5082-1.89778,6.867,6.867,0,0,1-2.17829.83239,3.43344,3.43344,0,0,0-5.84523,3.12869,9.73836,9.73836,0,0,1-7.07023-3.584,3.434,3.434,0,0,0,1.06156,4.57966,3.41671,3.41671,0,0,1-1.55367-.42905l-.00033.04315a3.43243,3.43243,0,0,0,2.75161,3.36353,3.43723,3.43723,0,0,1-1.5491.05878A3.43362,3.43362,0,0,0,12.177,19.29066,6.88215,6.88215,0,0,1,7.91686,20.7591a6.9601,6.9601,0,0,1-.81827-.048,9.75533,9.75533,0,0,0,15.018-8.21859q0-.22306-.01-.44379A6.96966,6.96966,0,0,0,23.81826,10.27306Z"/></svg>