<svg id="Layer_1" data-name="Layer 1" xmlns="http://www.w3.org/2000/svg" viewBox="0 0 30.9165 30.91699"><defs><style>.cls-1{fill:#ee3441;}</style></defs><title>Youtube</title><path class="cls-1" d="M15.4585,30.917a15.4585,15.4585,0,1,1,15.458-15.4585A15.4759,15.4759,0,0,1,15.4585,30.917Zm0-29.917a14.4585,14.4585,0,1,0,14.458,14.4585A14.4746,14.4746,0,0,0,15.4585,1Z"/><path class="cls-1" d="M19.55395,9.506H11.36278C6.88,9.506,6.88,10.783,6.88,13.92376v3.06941c0,2.98692.63482,4.41781,4.48278,4.41781h8.19117c3.47563,0,4.48278-.83648,4.48278-4.41781V13.92376C24.03673,10.61789,23.86732,9.506,19.55395,9.506Zm-5.84831,8.28544V12.97325l4.62427,2.4013Z"/></svg>