<svg id="Layer_1" data-name="Layer 1" xmlns="http://www.w3.org/2000/svg" viewBox="0 0 67.93 49.41"><defs><style>.cls-1{fill:#41494f;}</style></defs><title>ICNGames</title><path class="cls-1" d="M46,14.33,34,3,22,14.29l24,0Zm1.22,2.53-26.44,0L34.1,45.16l13.09-28.3ZM34.11,49.41a1.26,1.26,0,0,1-.89-.37L.37,16.42a1.26,1.26,0,0,1-.21-1.51L8.12.65A1.27,1.27,0,0,1,9.22,0L58.76.09a1.26,1.26,0,0,1,1.1.65L67.77,15a1.26,1.26,0,0,1-.21,1.51L35,49a1.26,1.26,0,0,1-.9.37ZM9.32,3.69,3.42,14.26l13,0L9.32,3.69ZM30.79,2.57l-19.2,0L19,13.61l11.8-11Zm25.6,0-19.19,0L49,13.66l7.43-11Zm8.14,11.74L58.65,3.77,51.54,14.34l13,0ZM38.24,42.24,63.62,16.89,50,16.87,38.24,42.24ZM4.34,16.79l25.57,25.4L18,16.81l-13.62,0Z" transform="translate(0 0)"/></svg>