<svg id="Layer_1" data-name="Layer 1" xmlns="http://www.w3.org/2000/svg" viewBox="0 0 63.89746 60.49707"><defs><style>.cls-1{fill:#41494f;}</style></defs><title>Lotto</title><path class="cls-1" d="M47.14941,27a16.78509,16.78509,0,0,0-1.86743.11084,16.75164,16.75164,0,1,0-26.66516-.53418A16.74664,16.74664,0,1,0,31.81995,50.47119,16.74413,16.74413,0,1,0,47.14941,27ZM30.40863,43.90161a13.52892,13.52892,0,1,1,.027-.83862c-.00934.22949-.03473.45459-.03473.686C30.40088,43.80054,30.40814,43.8501,30.40863,43.90161ZM18.4541,16.749A13.69507,13.69507,0,1,1,32.14941,30.44336,13.71148,13.71148,0,0,1,18.4541,16.749Zm13.62341,19.7439A16.7382,16.7382,0,0,0,30.28,33.386a15.78639,15.78639,0,0,0,3.73688.00024A16.773,16.773,0,0,0,32.07751,36.49292Zm1.41132,6.57031a13.52705,13.52705,0,1,1-.027.83862c.00934-.22949.03473-.45459.03473-.686C33.49658,43.16431,33.48932,43.11475,33.48883,43.06323Z"/><polygon class="cls-1" points="24.812 12.297 25.251 14.301 27.431 13.264 27.466 13.264 27.466 22.316 30.05 22.316 30.05 10.891 27.835 10.891 24.812 12.297"/><path class="cls-1" d="M36.23584,10.69727c-2.95312,0-4.35937,2.61914-4.35937,5.92383.01758,3.23438,1.31836,5.88867,4.27148,5.88867,2.918,0,4.3418-2.42578,4.3418-5.959C40.48975,13.42188,39.29443,10.69727,36.23584,10.69727Zm-.01758,9.791c-1.03711,0-1.66992-1.248-1.65234-3.86719-.01758-2.6543.65039-3.90234,1.63477-3.90234,1.07227,0,1.61719,1.33594,1.61719,3.86719C37.81787,19.1875,37.25537,20.48828,36.21826,20.48828Z"/><path class="cls-1" d="M19.3501,42.10254a5.2252,5.2252,0,0,0-3.00586-.82617,4.95106,4.95106,0,0,0-.73828.03516l.24609-1.75781h4.42969V37.35645h-6.293l-.75586,5.99414a9.86469,9.86469,0,0,1,1.54688-.10547c2.28516,0,3.2168.7207,3.2168,1.89844,0,1.21289-1.17773,1.74023-2.28516,1.74023a6.56513,6.56513,0,0,1-2.584-.5625l-.47461,2.00391a7.26128,7.26128,0,0,0,3.18164.65039c3.07617,0,4.9043-1.88086,4.9043-4.00781A3.25231,3.25231,0,0,0,19.3501,42.10254Z"/><polygon class="cls-1" points="41.763 40.639 41.798 40.639 41.798 49.691 44.382 49.691 44.382 38.266 42.167 38.266 39.144 39.672 39.583 41.676 41.763 40.639"/><path class="cls-1" d="M54.47021,45.877a3.25231,3.25231,0,0,0-1.38867-2.86523,5.2252,5.2252,0,0,0-3.00586-.82617,4.95106,4.95106,0,0,0-.73828.03516l.24609-1.75781h4.42969V38.26563h-6.293l-.75586,5.99414a9.86469,9.86469,0,0,1,1.54688-.10547c2.28516,0,3.2168.7207,3.2168,1.89844,0,1.21289-1.17773,1.74023-2.28516,1.74023a6.56513,6.56513,0,0,1-2.584-.5625l-.47461,2.00391a7.26128,7.26128,0,0,0,3.18164.65039C52.64209,49.88477,54.47021,48.00391,54.47021,45.877Z"/></svg>