<svg id="Layer_1" data-name="Layer 1" xmlns="http://www.w3.org/2000/svg" viewBox="0 0 63.92181 65.28186"><defs><style>.cls-1{fill:#41494f;}</style></defs><title>Slots</title><path class="cls-1" d="M37.30408,37.87195H14.37738a5.05141,5.05141,0,0,0-4.27869,2.1283,3.48669,3.48669,0,0,0-.25311,3.39154L13.69464,51.807a4.86931,4.86931,0,0,0,4.53174,2.59454h15.228a4.86951,4.86951,0,0,0,4.5318-2.59387L41.835,43.39178a3.48524,3.48524,0,0,0-.25226-3.39087A5.05043,5.05043,0,0,0,37.30408,37.87195Zm2.058,4.38831-3.849,8.41589a2.28263,2.28263,0,0,1-2.05872,1.00537h-15.228a2.279,2.279,0,0,1-2.058-1.00537l-3.84906-8.41589a.76.76,0,0,1,.06775-.78967,2.33667,2.33667,0,0,1,1.9903-.87854h22.9267a2.33664,2.33664,0,0,1,1.98962.87854A.76043.76043,0,0,1,39.36206,42.26025Z"/><rect class="cls-1" x="24.48065" y="10.88031" width="2.72009" height="13.6004"/><rect class="cls-1" x="13.60034" y="10.88031" width="2.72009" height="13.6004"/><rect class="cls-1" x="35.36096" y="10.88031" width="2.72009" height="13.6004"/><path class="cls-1" d="M63.92181,21.76062a5.44016,5.44016,0,1,0-6.80023,5.26117V46.24133H51.68146V12.12677A12.14068,12.14068,0,0,0,39.55469,0H12.12677A12.14064,12.14064,0,0,0,0,12.12677V65.28186H51.68146V48.96143h8.16022V27.02179A5.445,5.445,0,0,0,63.92181,21.76062ZM48.96136,62.56183H2.72V12.12677a9.417,9.417,0,0,1,9.40674-9.40668H39.55469a9.41694,9.41694,0,0,1,9.40668,9.40668Zm9.52026-38.08112a2.72006,2.72006,0,1,1,2.72009-2.72009A2.72279,2.72279,0,0,1,58.48163,24.48071Z"/></svg>