<svg id="Layer_1" data-name="Layer 1" xmlns="http://www.w3.org/2000/svg" viewBox="0 0 82.05859 56.22168"><defs><style>.cls-1{fill:#41494f;}</style></defs><title>Virtuals</title><path class="cls-1" d="M80.62109,43.45117H76.0127l.001-38.77344a5.07821,5.07821,0,0,0-5-4.67773h-60.167A4.825,4.825,0,0,0,6.02734,4.81934V43.46875H1.43652A1.4385,1.4385,0,0,0,0,44.90625v3.958a7.38365,7.38365,0,0,0,7.39258,7.35742h67.29a7.384,7.384,0,0,0,7.376-7.376v-3.958A1.4385,1.4385,0,0,0,80.62109,43.45117ZM79.20215,48.8457a4.52451,4.52451,0,0,1-4.51953,4.51953h-67.29A4.5243,4.5243,0,0,1,2.874,48.8457V46.3252H7.44629a1.4385,1.4385,0,0,0,1.43652-1.4375V4.81934a1.96593,1.96593,0,0,1,1.96387-1.96387H71.03125a2.25934,2.25934,0,0,1,2.14258,2.05371V44.8877a1.43871,1.43871,0,0,0,1.4375,1.4375h4.59082Z"/><path class="cls-1" d="M68.502,5.99194H14.05078a1.43747,1.43747,0,0,0-1.43652,1.43262c.00055.02954.00793.057.01019.08594l-.01019.00269v35.8877c0,.0415.00878.08057.01227.12109-.00349.04041-.01227.07935-.01227.12061A1.46092,1.46092,0,0,0,14.05078,45.083H33.64453l.04492.13867A3.22232,3.22232,0,0,0,36.665,47.56641H45.3916a3.21322,3.21322,0,0,0,2.97656-2.34473l.04492-.13867H68.02344a2.29985,2.29985,0,0,0,1.915-1.68213V7.51318l-.01019-.00269c.00226-.02893.00964-.0564.01019-.08594A1.43747,1.43747,0,0,0,68.502,5.99194ZM36.6543,44.69238l-.05859-.05859a.86869.86869,0,0,1-.21973-.60937v-.37793A1.4385,1.4385,0,0,0,34.93848,42.21H15.4873V8.865h16.3645l.01147.13867L31.9082,8.865H50.64453l.04492.13867.01147-.13867h16.3645V28.91138H62.45618a5.26771,5.26771,0,0,0,1.50311-4.1438c-.157-1.26123-1.17249-4.25879-7.30859-4.8634H51.88055a4.169,4.169,0,1,0-4.1554,5.54211L49.07672,28.116l-.27576.79541h-.39044c-2.2312-1.27759-7.00122-4.3855-9.66846-8.90356l-.18817-.24976a1.90773,1.90773,0,0,0-2.07159-.47192,1.92821,1.92821,0,0,0-1.205,1.444l-1.25116,3.10315-4.36908,3.6626a3.14549,3.14549,0,0,0-.07318,4.646,3.04654,3.04654,0,0,0,2.50208.78809l4.06464-.6709A49.23276,49.23276,0,0,0,42.646,44.69238ZM51.70612,27.17017l-1.27954-2.5271.00378-.00342a4.196,4.196,0,0,0,.84888-.843c.00861-.01147.0188-.02173.02734-.0332a4.15248,4.15248,0,0,0,.274-.43262c.03009-.05322.05963-.1062.0874-.16064a4.13136,4.13136,0,0,0,.19989-.45264c.00519-.01416.01318-.027.01825-.04126l4.62646-.00586c2.74164.27344,4.54114,1.209,4.69543,2.44177.14087,1.12268-1.09485,2.807-3.63708,3.79919h-5.7478A2.24515,2.24515,0,0,0,51.70612,27.17017Zm-3.75049-4.47339a1.40607,1.40607,0,1,1,1.40125-1.46118l-.00525.11523a1.40056,1.40056,0,0,1-.98175,1.27l-.16162.05029A1.38968,1.38968,0,0,1,47.95563,22.69678ZM47.11914,42.21a1.4385,1.4385,0,0,0-1.4375,1.43652V43.8C43.291,40.59839,39.285,33.8833,38.51727,30.38989L38.23572,29.105l-6.5545,1.08179a.245.245,0,0,1-.203-.07031.35734.35734,0,0,1-.10968-.27026.34832.34832,0,0,1,.09332-.245l4.877-4.08887,1.02765-2.55017a32.13992,32.13992,0,0,0,10.00562,8.54736l.31421.17468h8.62109l1.08661,6.564-1.9212-.10828-.1571,2.76868,2.59418.14636c.0434.002.08527.00317.12866.00317a2.24512,2.24512,0,0,0,2.15955-2.85193l-1.08032-6.522h7.94769V42.21Z"/></svg>