<svg id="Layer_1" data-name="Layer 1" xmlns="http://www.w3.org/2000/svg" viewBox="0 0 19.07248 19.96997"><defs><style>.cls-1{fill:#41494e;}</style></defs><title>50-40Ball</title><path class="cls-1" d="M5.09,5.36a.90654.90654,0,0,0-.84-.3,1.45547,1.45547,0,0,0-.75.44.65737.65737,0,0,0-.14.15l-.3-.4.87-.87L3.5,3.95,2.25995,5.19,3.3,6.52a2.59573,2.59573,0,0,1,.28-.33c.45-.45.77-.49005,1.01-.26s.11.57-.11.79a1.68246,1.68246,0,0,1-.62.4l.3.49a1.88642,1.88642,0,0,0,.75-.49A1.21525,1.21525,0,0,0,5.09,5.36Z"/><path class="cls-1" d="M4.71,2.66c-.59.58-.35,1.38.31,2.03.64.63,1.42.9,2,.32.58-.57.38-1.33-.32-2.03C6.08,2.36,5.31,2.06,4.71,2.66ZM6.64,4.6c-.21.2-.58.08-1.09-.44-.53-.52-.65-.9-.44-1.09.21-.22.58-.06,1.08.44C6.7,4.03,6.84,4.4,6.64,4.6Z"/><path class="cls-1" d="M3.69,8.12a2.7612,2.7612,0,0,1-1.42-.75,3.39135,3.39135,0,0,1,.36-4.75A3.41428,3.41428,0,0,1,7.39,2.25,2.871,2.871,0,0,1,8.2,4.37a.42729.42729,0,0,0,.41.42.4202.4202,0,0,0,.42-.41A3.66135,3.66135,0,0,0,7.98,1.66,3.54776,3.54776,0,0,0,6.65491.83069L6.67.83A5.85924,5.85924,0,0,1,11.45,3.3.41619.41619,0,0,0,12.13,2.82a6.679,6.679,0,1,0-9.89,8.85.41911.41911,0,0,0,.28.1.33513.33513,0,0,0,.29-.13.41388.41388,0,0,0-.03-.59A5.87487,5.87487,0,0,1,.82,6.68c0-.04547.0058-.08954.00684-.13477A3.51489,3.51489,0,0,0,1.68,7.96a3.58656,3.58656,0,0,0,1.85.98A.22134.22134,0,0,0,3.61,8.95a.419.419,0,0,0,.08-.83Z"/><path class="cls-1" d="M16.89,7.24a7.455,7.455,0,1,0,0,10.55A7.43835,7.43835,0,0,0,16.89,7.24ZM11.62,6.02a3.87011,3.87011,0,0,1,4.12,3.54,3.87006,3.87006,0,0,1-4.12,3.54A3.87,3.87,0,0,1,7.5,9.56,3.87007,3.87007,0,0,1,11.62,6.02Zm4.69,11.17A6.62913,6.62913,0,0,1,6.93,7.82c.10687-.106.22052-.20227.333-.30017A3.925,3.925,0,0,0,6.67,9.55a4.69194,4.69194,0,0,0,4.95,4.37,4.692,4.692,0,0,0,4.95-4.37,3.92513,3.92513,0,0,0-.59546-2.03412c.11346.09912.228.19666.33545.30414A6.63921,6.63921,0,0,1,16.31,17.19Z"/><path class="cls-1" d="M10.42,11.32h.8v-.85h.43V9.84h-.43V7.74H10.19L8.83,9.92v.55h1.59Zm-.8-1.48V9.83l.48-.78c.12-.23.21-.44.33-.67h.02c-.02.23-.03.45-.03.67v.79Z"/><path class="cls-1" d="M13,11.38c.91,0,1.36-.76,1.36-1.87,0-.98-.37-1.83-1.33-1.84-.93,0-1.37.82-1.37,1.86C11.67,10.55,12.07,11.38,13,11.38Zm.00995-3.07c.34,0,.51.42.51,1.21,0,.81-.17,1.22-.5,1.22s-.53-.39-.52-1.21C12.5,8.7,12.71,8.31,13.00995,8.31Z"/><path class="cls-1" d="M16.89,12.08a.42254.42254,0,0,0-.42.42,4.861,4.861,0,0,1-4.85,4.85.42.42,0,1,0,0,.84,5.70611,5.70611,0,0,0,5.69-5.69A.42256.42256,0,0,0,16.89,12.08Z"/></svg>