<svg id="Layer_1" data-name="Layer 1" xmlns="http://www.w3.org/2000/svg" viewBox="0 0 19.16002 20.02002"><defs><style>.cls-1{fill:#41494e;}</style></defs><title>80-75Ball</title><path class="cls-1" d="M3.64,7.19c.31.31.89.37,1.47-.2.52-.53.59-1.15.18-1.56a.847.847,0,0,0-.98-.15L4.3,5.27a.78059.78059,0,0,0-.17-.83c-.27-.27-.8-.36-1.33.17a.99375.99375,0,0,0-.16,1.43.76854.76854,0,0,0,.82.17l.02.01A.84687.84687,0,0,0,3.64,7.19Zm.42-1.21A.56988.56988,0,0,1,4.79,6a.39867.39867,0,0,1-.03.59.43785.43785,0,0,1-.64,0A.48.48,0,0,1,4.06,5.98Zm-.94-.45a.36458.36458,0,0,1,.02-.54.35948.35948,0,0,1,.55,0,.439.439,0,0,1,.06.52C3.51,5.64,3.28,5.68,3.12,5.53Z"/><path class="cls-1" d="M7.05,5.04C7.63,4.46,7.43,3.7,6.73,3c-.62-.62-1.4-.92-2-.32-.59.59-.35,1.39.31,2.04C5.68,5.36,6.46,5.63,7.05,5.04ZM5.11,3.09c.22-.21.59-.05,1.09.45.52.51.66.89.46,1.09s-.58.08-1.09-.44C5.04,3.67,4.92,3.29,5.11,3.09Z"/><path class="cls-1" d="M3.7,8.17a2.79217,2.79217,0,0,1-1.43-.75,3.40723,3.40723,0,0,1,.37-4.77,3.40938,3.40938,0,0,1,4.77-.38A2.89463,2.89463,0,0,1,8.22,4.4a.42938.42938,0,0,0,.41.43.42245.42245,0,0,0,.43-.41A3.71513,3.71513,0,0,0,8,1.68,3.53092,3.53092,0,0,0,6.66138.84247C6.6778.84235,6.6936.84,6.71.84a5.9053,5.9053,0,0,1,4.8,2.48.41574.41574,0,0,0,.58.1.42026.42026,0,0,0,.1-.59,6.71407,6.71407,0,1,0-9.94,8.9.3842.3842,0,0,0,.28.11.37482.37482,0,0,0,.3-.14.41382.41382,0,0,0-.03-.59A5.87541,5.87541,0,0,1,.83,6.72c0-.0282.00378-.05548.00421-.08356A3.52912,3.52912,0,0,0,1.68,8.01a3.616,3.616,0,0,0,1.86.98A.21975.21975,0,0,0,3.62,9a.419.419,0,0,0,.08-.83Z"/><path class="cls-1" d="M16.97,7.24a7.485,7.485,0,1,0,0,10.59A7.47583,7.47583,0,0,0,16.97,7.24Zm-5.3-1.23c2.28,0,4.14,1.59,4.14,3.55s-1.86,3.55-4.14,3.55S7.53,11.52,7.53,9.56,9.39,6.01,11.67,6.01Zm4.71,11.22A6.65742,6.65742,0,0,1,6.96,7.82c.11011-.11011.22711-.21008.34326-.3114A3.94445,3.94445,0,0,0,6.7,9.56a4.71317,4.71317,0,0,0,4.97,4.39,4.71315,4.71315,0,0,0,4.97-4.39,3.94373,3.94373,0,0,0-.60052-2.04687c.11517.1.23132.19855.34052.30688A6.65113,6.65113,0,0,1,16.38,17.23Z"/><polygon class="cls-1" points="10.73 8.43 9.25 11.33 10.14 11.33 11.62 8.26 11.62 7.73 9.08 7.73 9.08 8.42 10.73 8.42 10.73 8.43"/><path class="cls-1" d="M14.38,10.13a1.0221,1.0221,0,0,0-.44-.9,1.973,1.973,0,0,0-1.18-.25l.08-.55h1.4v-.7H12.26l-.24,1.89a3.48173,3.48173,0,0,1,.49-.03c.72,0,1.01.23,1.01.6,0,.38-.37.55-.72.55a2.02444,2.02444,0,0,1-.81006-.18l-.15.63a2.35665,2.35665,0,0,0,1,.2A1.371,1.371,0,0,0,14.38,10.13Z"/><path class="cls-1" d="M16.96,12.1a.42253.42253,0,0,0-.42.42,4.86951,4.86951,0,0,1-4.87,4.87.42.42,0,1,0,0,.84,5.70816,5.70816,0,0,0,5.71-5.71A.42253.42253,0,0,0,16.96,12.1Z"/></svg>