<svg id="Layer_1" data-name="Layer 1" xmlns="http://www.w3.org/2000/svg" viewBox="0 0 74.23474 74.23929"><defs><style>.cls-1{fill:#41494f}</style></defs><title>Poker</title><path class="cls-1" d="M44.542 64.34v-6.185a1.238 1.238 0 0 0-2.112-.875l-2.475 2.474a1.237 1.237 0 0 0 1.75 1.75l.362-.363v3.2a1.237 1.237 0 0 0 0 2.474h2.475a1.237 1.237 0 0 0 0-2.474zm0 0M32.197 35.647a20.797 20.797 0 0 1-5.154-5.35 1.287 1.287 0 0 0-2.122 0 23.038 23.038 0 0 1-4.93 5.466c-2.646 2.341-5.143 4.552-5.143 8.782a6.193 6.193 0 0 0 6.186 6.186 5.726 5.726 0 0 0 3.712-1.137v3.611a1.237 1.237 0 1 0 2.474 0v-3.611a5.722 5.722 0 0 0 3.712 1.137c3.066 0 5.428-2.278 6.162-5.944.89-4.45-2.052-6.834-4.897-9.14zm2.47 8.655c-.185.928-1.003 3.954-3.735 3.954-2.023 0-2.67-.681-3.843-3.028a1.185 1.185 0 0 0-.22-.303c-.019-.02-.044-.034-.064-.054a1.262 1.262 0 0 0-.285-.192c-.036-.017-.07-.033-.109-.048a1.107 1.107 0 0 0-.857 0 1.67 1.67 0 0 0-.11.048 1.189 1.189 0 0 0-.283.192c-.022.02-.046.034-.065.054a1.218 1.218 0 0 0-.22.303c-1.174 2.347-1.82 3.028-3.842 3.028a3.715 3.715 0 0 1-3.712-3.711c0-3.115 1.808-4.714 4.31-6.928a29.825 29.825 0 0 0 4.362-4.486 27.772 27.772 0 0 0 4.644 4.44c3.04 2.462 4.6 3.881 4.03 6.73zm0 0M11.136 24.748v-6.186a1.238 1.238 0 0 0-2.113-.875L6.55 20.16a1.237 1.237 0 0 0 1.75 1.75l.362-.362v3.2a1.237 1.237 0 0 0 0 2.473h2.475a1.237 1.237 0 0 0 0-2.474zm0 0"/><path class="cls-1" d="M70.187 13.82L33.25.374a6.153 6.153 0 0 0-7.867 3.631l-.38.932-6.006-1.03a6.186 6.186 0 0 0-7.165 5.011l-.18.982H6.186A6.193 6.193 0 0 0 0 16.087v51.966a6.193 6.193 0 0 0 6.186 6.186h42.068c3.369 0 6.665-.491 7.963-4.053l17.648-48.483a6.16 6.16 0 0 0-3.678-7.883zM49.491 68.053a3.716 3.716 0 0 1-3.712 3.712H6.186a3.716 3.716 0 0 1-3.712-3.712V16.087a3.716 3.716 0 0 1 3.712-3.712h6.496a1.236 1.236 0 0 0 1.216-1.015l.37-2.004a3.708 3.708 0 0 1 4.304-3.01l6.989 1.197a1.252 1.252 0 0 0 1.355-.75l.774-1.896A3.678 3.678 0 0 1 32.403 2.7l19.034 6.929-19.174-3.382a1.237 1.237 0 0 0-.43 2.437L38.73 9.9H17.32a1.237 1.237 0 1 0 0 2.475h28.458a3.716 3.716 0 0 1 3.712 3.712zm.853-56.104l7.213 1.271a3.718 3.718 0 0 1 3.012 4.3l-8.604 48.798V16.087a6.14 6.14 0 0 0-1.621-4.138zm21.196 8.909L53.992 69.064l9.014-51.115a6.153 6.153 0 0 0-.93-4.45l7.266 2.646a3.685 3.685 0 0 1 2.198 4.713zm0 0"/></svg>