<svg id="Layer_1" data-name="Layer 1" xmlns="http://www.w3.org/2000/svg" viewBox="0 0 32 30"><defs><style>.cls-1{fill:#414a4f}</style></defs><title>ICN Jackpot</title><path class="cls-1" d="M6.49 11.87a17 17 0 0 1-4.43-6.7c.59 0 1.53-.05 2.64-.06q-.14-1-.23-2H2.4C1.27 3.2 0 3.25 0 4.43c0 2.73 3.67 8.65 8.92 11.87l-.21-.3a19.44 19.44 0 0 1-2.22-4.13zM29.6 3.16h-2.06q-.09 1-.23 2c1.11 0 2 0 2.64.06A17.2 17.2 0 0 1 25.47 12a19.36 19.36 0 0 1-2.17 4l-.3.48c5.29-3.2 9-9.23 9-12 0-1.23-1.28-1.28-2.4-1.32zM22.29 28a4.93 4.93 0 0 1-4.15-3.7h-4.28A4.93 4.93 0 0 1 9.71 28a.66.66 0 0 0-.57.66v1a.33.33 0 0 0 .32.33h13.08a.33.33 0 0 0 .32-.33v-1a.66.66 0 0 0-.57-.66zM14 22.27h4c.21-2.88 1.74-4.19 3.68-7.45C24 11.62 25.6 6.5 25.72.68a.67.67 0 0 0-.18-.48.64.64 0 0 0-.46-.2H6.92a.64.64 0 0 0-.46.2.67.67 0 0 0-.18.48c.13 5.83 1.7 11 4 14.15 1.99 3.26 3.5 4.57 3.72 7.44z"/></svg>