<svg id="Layer_1" data-name="Layer 1" xmlns="http://www.w3.org/2000/svg" viewBox="0 0 19.34581 19.33915"><defs><style>.cls-1{fill:#41494e}</style></defs><title>Price</title><path class="cls-1" d="M18.99 6.395L12.95.355a1.223 1.223 0 0 0-1.15-.32 1.118 1.118 0 0 0-.57.32 1.22 1.22 0 0 0-.3.5 5.576 5.576 0 0 1-1.45 2.36 16.681 16.681 0 0 1-3.45 2.39 18.128 18.128 0 0 0-3.93 2.76 7.948 7.948 0 0 0-2.05 3.36 1.185 1.185 0 0 0-.05.32v.03a1.25 1.25 0 0 0 .35.87l6.04 6.04a1.223 1.223 0 0 0 1.15.32 1.16 1.16 0 0 0 .57-.32 1.12 1.12 0 0 0 .3-.5 5.478 5.478 0 0 1 1.45-2.36 16.417 16.417 0 0 1 3.45-2.39 18.636 18.636 0 0 0 3.94-2.78 8.078 8.078 0 0 0 2.05-3.35 1.243 1.243 0 0 0-.31-1.21zM7.25 18.115c-2.01-2-4.05-4.05-6.04-6.04 1.72-5.56 9.16-5.32 10.88-10.88 2 2 4.05 4.04 6.04 6.04-1.71 5.57-9.16 5.33-10.88 10.88z"/><path class="cls-1" d="M11.82 8.995a1.6 1.6 0 0 0-.59-.33 2.052 2.052 0 0 0-.6-.07 1.868 1.868 0 0 0-.6.14 5.411 5.411 0 0 0-.61.27c-.33-.38-.65-.74-.98-1.08a.675.675 0 0 1 .42-.2 1.328 1.328 0 0 1 .4.04c.13.03.24.06.35.08a.34.34 0 0 0 .29-.07.37.37 0 0 0 .14-.29.466.466 0 0 0-.14-.35.733.733 0 0 0-.46-.27 1.51 1.51 0 0 0-.56.01 1.979 1.979 0 0 0-.55.22 1.755 1.755 0 0 0-.41.31l-.12-.12a.227.227 0 0 0-.16-.06.209.209 0 0 0-.16.08.192.192 0 0 0-.06.17.224.224 0 0 0 .08.15c.04.03.08.07.12.1a2.59 2.59 0 0 0-.38.61 2.067 2.067 0 0 0-.18.64 1.433 1.433 0 0 0 .06.59 1.149 1.149 0 0 0 .36.48 1.39 1.39 0 0 0 1.01.31 3.163 3.163 0 0 0 1.26-.38c.35.42.72.83 1.07 1.2a1.056 1.056 0 0 1-.4.23.535.535 0 0 1-.31-.01 2.207 2.207 0 0 1-.27-.12c-.08-.05-.16-.1-.24-.14a.542.542 0 0 0-.25-.06.453.453 0 0 0-.27.12.383.383 0 0 0-.15.3.488.488 0 0 0 .16.34 1.215 1.215 0 0 0 .4.29 1.492 1.492 0 0 0 1.18.04 1.769 1.769 0 0 0 .66-.45c.11.1.21.2.32.29a.194.194 0 0 0 .16.05.192.192 0 0 0 .16-.09.204.204 0 0 0 .05-.18.224.224 0 0 0-.08-.15c-.11-.09-.21-.18-.32-.27a3.476 3.476 0 0 0 .44-.69 2.019 2.019 0 0 0 .19-.66 1.074 1.074 0 0 0-.08-.57 1.107 1.107 0 0 0-.35-.45zm-3.38.41a.567.567 0 0 1-.45-.18.474.474 0 0 1-.12-.19.523.523 0 0 1-.02-.25.796.796 0 0 1 .08-.28 1.01 1.01 0 0 1 .2-.29c.31.31.61.63.92.98a1.344 1.344 0 0 1-.61.21zm2.96.91a.912.912 0 0 1-.11.3 1.309 1.309 0 0 1-.19.27c-.34-.34-.68-.72-1.02-1.11l.27-.12a1.905 1.905 0 0 1 .29-.09 1.007 1.007 0 0 1 .3.01.617.617 0 0 1 .28.16.479.479 0 0 1 .16.27.662.662 0 0 1 .02.31zm-2.5 3.08a10.63 10.63 0 0 0-1.09.94 8.298 8.298 0 0 0-.88 1.03l-.42.57a.304.304 0 0 0 .47.38c.02-.02.03-.04.05-.06l.39-.53a8.14 8.14 0 0 1 .83-.96 9.771 9.771 0 0 1 1.04-.89c.01-.01.02-.01.03-.03a.302.302 0 0 0 0-.43.333.333 0 0 0-.42-.02zm3.48-10.32a.218.218 0 0 0-.05.08l-.4.55a9.074 9.074 0 0 1-.82.96 9.539 9.539 0 0 1-1.02.87.304.304 0 0 0-.07.05.314.314 0 0 0 0 .44.3.3 0 0 0 .42.01 12.03 12.03 0 0 0 1.09-.94 10.168 10.168 0 0 0 .88-1.02l.41-.57a.31.31 0 0 0-.02-.42.281.281 0 0 0-.42-.01z"/></svg>