<svg id="Layer_1" data-name="Layer 1" xmlns="http://www.w3.org/2000/svg" viewBox="0 0 28 30"><defs><style>.cls-1{fill:#474c50}</style></defs><title>ICN User</title><path class="cls-1" d="M14 17.89c-4.62 0-7.57-6.9-7.57-10.51A7.48 7.48 0 0 1 14 0a7.49 7.49 0 0 1 7.57 7.38c0 3.62-2.95 10.51-7.57 10.51zm0-15.66a5.23 5.23 0 0 0-5.29 5.15c0 3 2.61 8.29 5.29 8.29s5.29-5.24 5.29-8.29A5.23 5.23 0 0 0 14 2.23z"/><path class="cls-1" d="M28 30H0v-7.38c0-5.51 7-7.27 7.29-7.35a1.14 1.14 0 0 1 1.38.81 1.11 1.11 0 0 1-.83 1.35c-.06 0-5.57 1.42-5.57 5.19v5.15h23.45v-5.15c0-3.77-5.51-5.17-5.57-5.19a1.11 1.11 0 0 1-.83-1.35 1.14 1.14 0 0 1 1.38-.81c.3.07 7.29 1.84 7.29 7.35z"/></svg>