<svg  xmlns="http://www.w3.org/2000/svg" xmlns:xlink="http://www.w3.org/1999/xlink" style="display:none">
<symbol id="i-sheet-blank-question-mark-03" viewBox="0 0 32 32">
    <path  d="M17.882,9.252c1.136,1.202,1.135,2.859,1.107,3.339c-0.091,1.596-1.201,2.58-2.181,3.449 c-0.903,0.801-1.757,1.557-1.81,2.702c-0.001,0.054-0.001,0.428,0,0.755c0,0.277-0.224,0.502-0.501,0.503l-0.031,0 c-0.124,0-0.243-0.049-0.33-0.136c-0.088-0.087-0.137-0.206-0.137-0.33c0-0.36,0-0.801,0.002-0.839 c0.071-1.567,1.173-2.543,2.144-3.403c0.915-0.812,1.779-1.577,1.847-2.758c0.021-0.379,0.024-1.684-0.836-2.596 C16.566,9.315,15.676,9,14.509,9c-3.402,0-3.506,3.365-3.509,3.508V13.5c0,0.276-0.224,0.5-0.5,0.5S10,13.776,10,13.5v-1 c0.021-1.561,0.992-4.5,4.509-4.5C15.962,8,17.097,8.421,17.882,9.252z M14.8,22h-0.6c-0.387,0-0.7,0.313-0.7,0.7v0.6 c0,0.387,0.313,0.7,0.7,0.7h0.6c0.387,0,0.7-0.313,0.7-0.7v-0.6C15.5,22.313,15.187,22,14.8,22z M28,4v24c0,2.209-1.791,4-4,4H6 c-2.209,0-4-1.791-4-4V4c0-2.209,1.791-4,4-4h18C26.209,0,28,1.791,28,4z M27,4c0-1.654-1.346-3-3-3H6C4.346,1,3,2.346,3,4v13v2v9 c0,1.654,1.346,3,3,3h18c1.654,0,3-1.346,3-3V4z"></path>
</symbol>
<symbol id="i-document-jpg" viewBox="0 0 32 32">
    <path  d="M24,0l8,8v20c0,2.209-1.791,4-4,4H10c-2.209,0-4-1.791-4-4v-1h1v1c0,1.654,1.346,3,3,3h18 c1.654,0,3-1.346,3-3V9h-6c-1.105,0-2-0.896-2-2V1H10C8.346,1,7,2.346,7,4v10H6V4c0-2.209,1.791-4,4-4H24z M8,25H7v-9h3.5 c0.827,0,1.5,0.673,1.5,1.5v2c0,0.827-0.673,1.5-1.5,1.5H8V25z M8,20h2.5c0.276,0,0.5-0.224,0.5-0.5v-2c0-0.276-0.224-0.5-0.5-0.5H8 V20z M0,17h4v6.5C4,23.776,3.776,24,3.5,24H0.085c0,0.552,0.448,1,1,1H3.5C4.327,25,5,24.327,5,23.5V16H0V17z M15.5,17H19v-1h-3.5 c-0.827,0-1.5,0.673-1.5,1.5v6c0,0.827,0.673,1.5,1.5,1.5h2c0.827,0,1.5-0.673,1.5-1.5V20h-3v1h2v2.5c0,0.276-0.224,0.5-0.5,0.5h-2 c-0.276,0-0.5-0.224-0.5-0.5v-6C15,17.224,15.224,17,15.5,17z"></path>
</symbol>
<symbol id="i-document-txt" viewBox="0 0 32 32">
    <path  d="M24,0l8,8v20c0,2.209-1.791,4-4,4H10c-2.209,0-4-1.791-4-4v-1h1v1c0,1.654,1.346,3,3,3h18 c1.654,0,3-1.346,3-3V9h-6c-1.105,0-2-0.896-2-2V1H10C8.346,1,7,2.346,7,4v10H6V4c0-2.209,1.791-4,4-4H24z M17,25h1v-8h2v-1h-5v1h2 V25z M2,25h1v-8h2v-1H0v1h2V25z M13,16h-1l-2,3.6L8,16H7l2.5,4.5L7,25h1l2-3.6l2,3.6h1l-2.5-4.5L13,16z"></path>
</symbol>
<symbol id="i-document-psd" viewBox="0 0 32 32">
    <path  d="M24,0l8,8v20c0,2.209-1.791,4-4,4H10c-2.209,0-4-1.791-4-4v-1h1v1c0,1.654,1.346,3,3,3h18 c1.654,0,3-1.346,3-3V9h-6c-1.105,0-2-0.896-2-2V1H10C8.346,1,7,2.346,7,4v10H6V4c0-2.209,1.791-4,4-4H24z M5,17.5v2 C5,20.327,4.327,21,3.5,21H1v4H0v-9h3.5C4.327,16,5,16.673,5,17.5z M4,17.5C4,17.224,3.776,17,3.5,17H1v3h2.5 C3.776,20,4,19.776,4,19.5V17.5z M19,17.5v6c0,0.827-0.673,1.5-1.5,1.5H14v-9h3.5C18.327,16,19,16.673,19,17.5z M18,17.5 c0-0.276-0.224-0.5-0.5-0.5H15v7h2.5c0.276,0,0.5-0.224,0.5-0.5V17.5z M8.5,17H12c0-0.552-0.448-1-1-1H8.5C7.673,16,7,16.673,7,17.5 v2C7,20.327,7.673,21,8.5,21h2c0.276,0,0.5,0.224,0.5,0.5v2c0,0.276-0.224,0.5-0.5,0.5H7c0,0.552,0.448,1,1,1h2.5 c0.827,0,1.5-0.673,1.5-1.5v-2c0-0.827-0.673-1.5-1.5-1.5h-2C8.224,20,8,19.776,8,19.5v-2C8,17.224,8.224,17,8.5,17z"></path>
</symbol>
<symbol id="i-document-png" viewBox="0 0 32 32">
    <path  d="M24,0l8,8v20c0,2.209-1.791,4-4,4H10c-2.209,0-4-1.791-4-4v-1h1v1c0,1.654,1.346,3,3,3h18 c1.654,0,3-1.346,3-3V9h-6c-1.105,0-2-0.896-2-2V1H10C8.346,1,7,2.346,7,4v10H6V4c0-2.209,1.791-4,4-4H24z M5,17.5v2 C5,20.327,4.327,21,3.5,21H1v4H0v-9h3.5C4.327,16,5,16.673,5,17.5z M4,17.5C4,17.224,3.776,17,3.5,17H1v3h2.5 C3.776,20,4,19.776,4,19.5V17.5z M17.5,17H21v-1h-3.5c-0.827,0-1.5,0.673-1.5,1.5v6c0,0.827,0.673,1.5,1.5,1.5h2 c0.827,0,1.5-0.673,1.5-1.5V20h-3v1h2v2.5c0,0.276-0.224,0.5-0.5,0.5h-2c-0.276,0-0.5-0.224-0.5-0.5v-6C17,17.224,17.224,17,17.5,17 z M8,17.5l5,7.5h1v-9h-1v7.5L8,16H7v9h1V17.5z"></path>
</symbol>
<symbol id="i-document-ai" viewBox="0 0 32 32">
    <path  d="M23.586,0c0.265,0,0.52,0.105,0.707,0.293l7.414,7.414C31.895,7.895,32,8.149,32,8.414V28 c0,2.209-1.791,4-4,4H10c-2.209,0-4-1.791-4-4v-0.504C6,27.222,6.222,27,6.496,27h0.008C6.778,27,7,27.222,7,27.496V28 c0,1.654,1.346,3,3,3h18c1.654,0,3-1.346,3-3V9h-6c-1.105,0-2-0.896-2-2V1H10C8.346,1,7,2.346,7,4v9.504C7,13.778,6.778,14,6.504,14 H6.496C6.222,14,6,13.778,6,13.504V4c0-2.209,1.791-4,4-4H23.586z M11.5,16c-0.276,0-0.5,0.224-0.5,0.5v8c0,0.276,0.224,0.5,0.5,0.5 s0.5-0.224,0.5-0.5v-8C12,16.224,11.776,16,11.5,16z M1.121,24.729C1.047,24.894,0.884,25,0.703,25 c-0.155,0-0.299-0.078-0.383-0.208s-0.097-0.293-0.034-0.435l3.582-8.061C3.948,16.116,4.127,16,4.325,16h0.35 c0.198,0,0.377,0.116,0.457,0.297l3.582,8.061c0.063,0.141,0.05,0.305-0.034,0.435S8.452,25,8.297,25 c-0.181,0-0.344-0.106-0.418-0.271L6.667,22H2.333L1.121,24.729z M2.778,21h3.444L4.5,17.125L2.778,21z"></path>
</symbol>
<symbol id="i-document-eps" viewBox="0 0 32 32">
    <path  d="M24,0l8,8v20c0,2.209-1.791,4-4,4H10c-2.209,0-4-1.791-4-4v-1h1v1c0,1.654,1.346,3,3,3h18 c1.654,0,3-1.346,3-3V9h-6c-1.105,0-2-0.896-2-2V1H10C8.346,1,7,2.346,7,4v10H6V4c0-2.209,1.791-4,4-4H24z M8,25H7v-9h3.5 c0.827,0,1.5,0.673,1.5,1.5v2c0,0.827-0.673,1.5-1.5,1.5H8V25z M8,20h2.5c0.276,0,0.5-0.224,0.5-0.5v-2c0-0.276-0.224-0.5-0.5-0.5H8 V20z M0,25h5v-1H1v-3h2v-1H1v-3h4v-1H0V25z M17.5,24H14c0,0.552,0.448,1,1,1h2.5c0.827,0,1.5-0.673,1.5-1.5v-2 c0-0.827-0.673-1.5-1.5-1.5h-2c-0.276,0-0.5-0.224-0.5-0.5v-2c0-0.276,0.224-0.5,0.5-0.5H19c0-0.552-0.448-1-1-1h-2.5 c-0.827,0-1.5,0.673-1.5,1.5v2c0,0.827,0.673,1.5,1.5,1.5h2c0.276,0,0.5,0.224,0.5,0.5v2C18,23.776,17.776,24,17.5,24z"></path>
</symbol>
<symbol id="i-document-doc" viewBox="0 0 32 32">
    <path  d="M24,0l8,8v20c0,2.209-1.791,4-4,4H10c-2.209,0-4-1.791-4-4v-1h1v1c0,1.654,1.346,3,3,3h18 c1.654,0,3-1.346,3-3V9h-6c-1.105,0-2-0.896-2-2V1H10C8.346,1,7,2.346,7,4v10H6V4c0-2.209,1.791-4,4-4H24z M11.996,17.5v6 c0,0.827-0.673,1.5-1.5,1.5H8.495H8.492C7.704,25,7.056,24.385,7,23.609v-6.107c-0.001-0.4,0.153-0.776,0.436-1.06 C7.718,16.158,8.095,16,8.496,16H10.5C11.325,16,11.996,16.673,11.996,17.5z M10.996,17.501c0-0.133-0.053-0.26-0.147-0.354 c-0.094-0.094-0.221-0.146-0.354-0.146l-2,0.002c-0.276,0-0.5,0.224-0.5,0.5V23.5c0,0.276,0.224,0.5,0.5,0.5h2 c0.276,0,0.5-0.224,0.5-0.5V17.501z M5,17.5v6C5,24.327,4.327,25,3.5,25H0v-9h3.5C4.327,16,5,16.673,5,17.5z M4,17.5 C4,17.224,3.776,17,3.5,17H1v7h2.5C3.776,24,4,23.776,4,23.5V17.5z M14,17.5v6c0,0.827,0.673,1.5,1.5,1.5H19v-1h-3.5 c-0.276,0-0.5-0.224-0.5-0.5v-6c0-0.276,0.224-0.5,0.5-0.5H19v-1h-3.5C14.673,16,14,16.673,14,17.5z"></path>
</symbol>
<symbol id="i-two-documents-text" viewBox="0 0 32 32">
    <path  d="M15,20h13v1.002H15V20z M15,22.999V24h13v-1.001v-0.001L15,22.999L15,22.999z M25,10l6,6v12 c0,2.209-1.791,4-4,4H16c-2.209,0-4-1.791-4-4v-5.999L4,22c-2.209,0-4-1.791-4-4V4c0-2.209,1.791-4,4-4h10l6,6v4H25z M3,14v-1h9.141 c0.205-0.79,0.642-1.479,1.238-2H3v-1h16V7.001L19.001,7H15c-1.104,0-2-0.896-2-2V1.001L4,1C2.346,1,1,2.346,1,4v14 c0,1.654,1.346,3,3,3l8,0.001V14H3z M26,17c-1.104,0-2-0.896-2-2v-4h-8c-1.654,0-3,1.346-3,3v14c0,1.654,1.346,3,3,3h11 c1.654,0,3-1.346,3-3V17H26z"></path>
</symbol>
<symbol id="i-printer-document-text" viewBox="0 0 32 32">
    <path  d="M24,21H8v-1h16V21z M24,23H8v1h16V23z M24,26H8v1h16V26z M32,13v9c0,0.552-0.448,1-1,1h-3v5 c0,2.209-1.791,4-4,4H8H7v-0.142C5.278,31.412,4,29.861,4,28v-5H1c-0.552,0-1-0.448-1-1v-9c0-0.552,0.448-1,1-1h3V4 c0-2.209,1.791-4,4-4h12l8,8v4h3C31.552,12,32,12.448,32,13z M5,12h22V9h-6c-1.104,0-2-0.896-2-2V1H8C6.346,1,5,2.346,5,4V12z  M27,18H5v10c0,1.654,1.346,3,3,3h16c1.654,0,3-1.346,3-3V18z M31,13H1v9h3v-5h24v5h3V13z"></path>
</symbol>
<symbol id="i-document-text" viewBox="0 0 32 32">
    <path  d="M6,20h20v1H6V20z M6,18h20v-1H6V18z M6,15h20v-1H6V15z M21,0l8,8v20c0,2.209-1.791,4-4,4H7 c-2.209,0-4-1.791-4-4V4c0-2.209,1.791-4,4-4H21z M22,9c-1.104,0-2-0.896-2-2V1H7C5.346,1,4,2.346,4,4v24c0,1.654,1.346,3,3,3h18 c1.654,0,3-1.346,3-3V9H22z"></path>
</symbol>
<symbol id="i-document-blank" viewBox="0 0 32 32">
    <path  d="M7,0C4.791,0,3,1.791,3,4v24c0,2.209,1.791,4,4,4h18c2.209,0,4-1.791,4-4V8l-8-8H7z M28,9v19 c0,1.654-1.346,3-3,3H7c-1.654,0-3-1.346-3-3V4c0-1.654,1.346-3,3-3h13v6c0,1.104,0.896,2,2,2H28z"></path>
</symbol>
<symbol id="i-sheet-text" viewBox="0 0 32 32">
    <path  d="M5,5h20v1H5V5z M5,9h20V8H5V9z M5,12h20v-1H5V12z M28,4v24c0,2.209-1.791,4-4,4H6c-2.209,0-4-1.791-4-4V4 c0-2.209,1.791-4,4-4h18C26.209,0,28,1.791,28,4z M27,4c0-1.654-1.346-3-3-3H6C4.346,1,3,2.346,3,4v13v2v9c0,1.654,1.346,3,3,3h18 c1.654,0,3-1.346,3-3V4z"></path>
</symbol>
<symbol id="i-document-pdf" viewBox="0 0 32 32">
    <path  d="M32,8v20c0,2.209-1.791,4-4,4H10c-2.209,0-4-1.791-4-4v-1h1v1c0,1.654,1.346,3,3,3h18c1.654,0,3-1.346,3-3V9 h-6c-1.105,0-2-0.896-2-2V1H10C8.346,1,7,2.346,7,4v10H6V4c0-2.209,1.791-4,4-4h14L32,8z M12,17.5v6c0,0.827-0.673,1.5-1.5,1.5H7v-9 h3.5C11.327,16,12,16.673,12,17.5z M11,17.5c0-0.276-0.224-0.5-0.5-0.5H8v7h2.5c0.276,0,0.5-0.224,0.5-0.5V17.5z M5,17.5v2 C5,20.327,4.327,21,3.5,21H1v4H0v-9h3.5C4.327,16,5,16.673,5,17.5z M4,17.5C4,17.224,3.776,17,3.5,17H1v3h2.5 C3.776,20,4,19.776,4,19.5V17.5z M19,17v-1h-5v9h1v-4h2v-1h-2v-3H19z"></path>
</symbol>
<symbol id="i-square-arrow-left-03" viewBox="0 0 32 32">
    <path  d="M6,22l-6-5l6-5v4h14v2H6V22z M8,30h24V4H8v8h2V6h20v22H10v-6H8V30z"></path>
</symbol>
<symbol id="i-square-arrow-down-03" viewBox="0 0 32 32">
    <path  d="M20,26l-5,6l-5-6h4V12h2v14H20z M28,24V0H2v24h8v-2H4V2h22v20h-6v2H28z"></path>
</symbol>
<symbol id="i-square-arrow-right-03" viewBox="0 0 32 32">
    <path  d="M26,18H12v-2h14v-4l6,5l-6,5V18z M24,22h-2v6H2V6h20v6h2V4H0l0,26h24V22z"></path>
</symbol>
<symbol id="i-square-arrow-left-04" viewBox="0 0 32 32">
    <path  d="M32,18H18v4l-6-5l6-5v4h14V18z M24,12V4H0l0,26h24v-8h-2v6H2V6h20v6H24z"></path>
</symbol>
<symbol id="i-square-arrow-right-04" viewBox="0 0 32 32">
    <path  d="M0,16h14v-4l6,5l-6,5v-4H0L0,16z M10,12V6h20v22H10v-6H8v8h24V4H8v8H10z"></path>
</symbol>
<symbol id="i-square-arrow-up-04" viewBox="0 0 32 32">
    <path  d="M14,32V18h-4l5-6l5,6h-4v14H14z M20,24h8V0H2v24h8v-2H4V2h22v20h-6V24z"></path>
</symbol>
<symbol id="i-circle-arrow-up-05" viewBox="0 0 32 32">
    <path  d="M16,10l6,10H10L16,10z M30,16c0-7.719-6.28-14-14-14S2,8.28,2,16s6.28,14,14,14S30,23.719,30,16 M32,16 c0,8.836-7.163,16-16,16S0,24.836,0,16S7.163,0,16,0S32,7.163,32,16L32,16z"></path>
</symbol>
<symbol id="i-circle-arrow-left-06" viewBox="0 0 32 32">
    <path  d="M16,0C7.164,0,0,7.164,0,16s7.164,16,16,16s16-7.164,16-16S24.836,0,16,0z M24,18H14v6l-8-7l8-7v6h8V8h2V18z "></path>
</symbol>
<symbol id="i-two-arrows-diagonal-03" viewBox="0 0 32 32">
    <path  d="M14.707,13.293l-1.414,1.414l-6-6L4,12V4h8L8.707,7.293L14.707,13.293z M23.293,24.707L20,28h8v-8 l-3.293,3.293l-6-6l-1.414,1.414L23.293,24.707z"></path>
</symbol>
<symbol id="i-two-arrows-diagonal-04" viewBox="0 0 32 32">
    <path  d="M18.707,14.707l-1.414-1.414l6-6L20,4h8v8l-3.293-3.293L18.707,14.707z M7.293,23.293L4,20v8h8l-3.293-3.293 l6-6l-1.414-1.414L7.293,23.293z"></path>
</symbol>
<symbol id="i-square-arrow-down-04" viewBox="0 0 32 32">
    <path  d="M16,0v14h4l-5,6l-5-6h4V0L16,0z M20,10h6v20H4V10h6V8H2v24h26V8h-8V10z"></path>
</symbol>
<symbol id="i-square-arrow-up-03" viewBox="0 0 32 32">
    <path  d="M16,6v14h-2V6h-4l5-6l5,6H16z M20,8v2h6v20H4V10h6V8H2v24h26V8H20z"></path>
</symbol>
<symbol id="i-circle-arrow-left-05" viewBox="0 0 32 32">
    <path  d="M10,16l10-6v12L10,16z M16,2C8.281,2,2,8.281,2,16s6.28,14,14,14s14-6.28,14-14S23.72,2,16,2 M16,0 c8.836,0,16,7.163,16,16s-7.163,16-16,16S0,24.837,0,16C0,7.164,7.164,0,16,0L16,0z"></path>
</symbol>
<symbol id="i-circle-arrow-down-05" viewBox="0 0 32 32">
    <path  d="M10,12.001h12l-6,10L10,12.001z M30,16c0-7.719-6.28-14-14-14S2,8.281,2,16s6.28,14,14,14S30,23.72,30,16  M32,16c0,8.836-7.163,16-16,16S0,24.837,0,16S7.163,0,16,0C24.836,0,32,7.164,32,16L32,16z"></path>
</symbol>
<symbol id="i-circle-arrow-right-05" viewBox="0 0 32 32">
    <path  d="M12.001,22V10l10,6L12.001,22z M16,2C8.281,2,2,8.281,2,16s6.28,14,14,14s14-6.28,14-14S23.72,2,16,2 M16,0 c8.836,0,16,7.163,16,16s-7.163,16-16,16S0,24.837,0,16S7.164,0,16,0L16,0z"></path>
</symbol>
<symbol id="i-arrows-four-directions-04" viewBox="0 0 32 32">
    <path  d="M11.757,18.828l1.414,1.414l-4.464,4.464L12,28H4v-8l3.293,3.293L11.757,18.828z M12,4H4v8l3.293-3.293 l4.464,4.464l1.414-1.414L8.707,7.293L12,4z M23.293,7.293l-4.464,4.464l1.414,1.414l4.464-4.464L28,12V4h-8L23.293,7.293z  M20.243,18.828l-1.414,1.414l4.464,4.464L20,28h8v-8l-3.293,3.293L20.243,18.828z"></path>
</symbol>
<symbol id="i-arrows-four-directions-2" viewBox="0 0 32 32">
    <path  d="M14,7.999H9l6-6l6,6h-5V14h-2V7.999z M6,18h6v-2H6v-5.001l-6,6l6,6V18z M16,25.999V20h-2v5.999H9l6,6l6-6H16 z M24,16h-6v2h6v4.999l6-6l-6-6V16z"></path>
</symbol>
<symbol id="i-arrow-up-07" viewBox="0 0 32 32">
    <path  d="M1.858,22.142L16,8l14.142,14.142l-1.414,1.414L16,10.828L3.272,23.556L1.858,22.142z"></path>
</symbol>
<symbol id="i-arrow-left-05" viewBox="0 0 32 32">
    <path  d="M15.002,5.214l1.234,1.572L4.511,16H32v2H4.511l11.726,9.214l-1.234,1.572L0,17L15.002,5.214z"></path>
</symbol>
<symbol id="i-arrow-down-05" viewBox="0 0 32 32">
    <path  d="M3.214,16.998l1.572-1.234L14,27.489V0l2,0v27.489l9.214-11.726l1.572,1.234L15,32L3.214,16.998z"></path>
</symbol>
<symbol id="i-arrow-up-05" viewBox="0 0 32 32">
    <path  d="M26.786,15.002l-1.572,1.234L16,4.511V32h-2V4.511L4.786,16.236l-1.572-1.234L15,0L26.786,15.002z"></path>
</symbol>
<symbol id="i-arrow-left-07" viewBox="0 0 32 32">
    <path  d="M23.556,3.272L10.828,16l12.728,12.728l-1.414,1.414L8,16L22.142,1.858L23.556,3.272z"></path>
</symbol>
<symbol id="i-arrow-right-07" viewBox="0 0 32 32">
    <path  d="M9.858,1.858L24,16L9.858,30.142l-1.414-1.414L21.172,16L8.444,3.272L9.858,1.858z"></path>
</symbol>
<symbol id="i-arrow-down-07" viewBox="0 0 32 32">
    <path  d="M30.142,9.858L16,24L1.858,9.858l1.414-1.414L16,21.172L28.728,8.444L30.142,9.858z"></path>
</symbol>
<symbol id="i-arrow-right-05" viewBox="0 0 32 32">
    <path  d="M32,17L16.998,28.786l-1.234-1.572L27.489,18H0v-2h27.489L15.764,6.786l1.234-1.572L32,17z"></path>
</symbol>
<symbol id="i-arrow-diagonal-up-left" viewBox="0 0 32 32">
    <path  d="M15.355,12.485l11.314,11.314l-2.828,2.828L12.527,15.314l-7.071,7.071L4.042,4l18.385,1.414L15.355,12.485z "></path>
</symbol>
<symbol id="i-arrow-diagonal-down-left" viewBox="0 0 32 32">
    <path  d="M22.385,26.544L4,27.958L5.414,9.574l7.071,7.071L23.799,5.331l2.828,2.828L15.314,19.473l1.414,1.414 L22.385,26.544z"></path>
</symbol>
<symbol id="i-arrow-diagonal-down-right" viewBox="0 0 32 32">
    <path  d="M26.544,9.615L27.958,28L9.574,26.586l7.071-7.071L5.331,8.201l2.828-2.828l11.314,11.314l1.414-1.414 L26.544,9.615z"></path>
</symbol>
<symbol id="i-arrow-diagonal-up-right" viewBox="0 0 32 32">
    <path  d="M9.615,5.414L28,4l-1.414,18.385l-7.071-7.071L8.201,26.627l-2.828-2.828l11.314-11.314L9.615,5.414z"></path>
</symbol>
<symbol id="i-arrow-down-02" viewBox="0 0 32 32">
    <path  d="M18,18h10L16,32L4,18h10V2h4V18z"></path>
</symbol>
<symbol id="i-arrow-down" viewBox="0 0 32 32">
    <path  d="M27.546,16L16,28.989L4.454,16H12V2h8v14H27.546 M32,14H22V0L10,0v14H0l16,18L32,14L32,14z"></path>
</symbol>
<symbol id="i-arrow-right" viewBox="0 0 32 32">
    <path  d="M16,4.454L28.989,16L16,27.546V20H2v-8h14V4.454 M14,0v10H0l0,12h14v10l18-16L14,0L14,0z"></path>
</symbol>
<symbol id="i-arrow-left-02" viewBox="0 0 32 32">
    <path  d="M14,14h16v4H14v10L0,16L14,4V14z"></path>
</symbol>
<symbol id="i-arrow-right-02" viewBox="0 0 32 32">
    <path  d="M16,4l14,12L16,28V18H0v-4h16V4z"></path>
</symbol>
<symbol id="i-arrow-up-02" viewBox="0 0 32 32">
    <path  d="M16,2l12,14H18v16h-4V16H4L16,2z"></path>
</symbol>
<symbol id="i-arrow-left" viewBox="0 0 32 32">
    <path  d="M16,27.546L3.011,16L16,4.454V12h14v8H16V27.546 M18,32V22h14V10H18V0L0,16L18,32L18,32z"></path>
</symbol>
<symbol id="i-square-arrow-diagonal-up-right" viewBox="0 0 32 32">
    <path  d="M32,0v16h-2V3.414L12.203,21.213l-1.414-1.414L28.586,2H16V0H32z M24,15.071V30H2V8h14.929l2-2H0v26h26 V13.071L24,15.071z"></path>
</symbol>
<symbol id="i-circle-arrow-down-02" viewBox="0 0 32 32">
    <path  d="M0,16c0,8.836,7.164,16,16,16s16-7.164,16-16S24.836,0,16,0C7.164,0,0,7.164,0,16z M17,7v9h6l-7,9l-7-9h6V7 H17z"></path>
</symbol>
<symbol id="i-circle-arrow-up-02" viewBox="0 0 32 32">
    <path  d="M16,32c8.836,0,16-7.164,16-16S24.836,0,16,0C7.164,0,0,7.164,0,16C0,24.836,7.164,32,16,32z M15,25v-9H9 l7-9l7,9h-6v9H15z"></path>
</symbol>
<symbol id="i-circle-arrow-left-02" viewBox="0 0 32 32">
    <path  d="M32,16c0-8.836-7.164-16-16-16C7.164,0,0,7.164,0,16s7.164,16,16,16S32,24.836,32,16z M25,17h-9v6l-9-7l9-7 v6h9V17z"></path>
</symbol>
<symbol id="i-square-arrow-left" viewBox="0 0 32 32">
    <path  d="M0,0l0,32h32V0L0,0z M16,9v6h9v2h-9v6l-9-7L16,9z"></path>
</symbol>
<symbol id="i-arrow-up" viewBox="0 0 32 32">
    <path  d="M4.454,16L16,3.011L27.546,16H20v14h-8V16H4.454 M0,18h10v14h12V18h10L16,0L0,18L0,18z"></path>
</symbol>
<symbol id="i-circle-arrow-down" viewBox="0 0 32 32">
    <path  d="M23,16l-7,9l-7-9h6V7h2v9H23z M16,32C7.163,32,0,24.837,0,16S7.163,0,16,0s16,7.163,16,16S24.837,32,16,32z  M16,30c7.72,0,14-6.28,14-14S23.72,2,16,2S2,8.28,2,16S8.28,30,16,30z"></path>
</symbol>
<symbol id="i-circle-arrow-up" viewBox="0 0 32 32">
    <path  d="M9,16l7-9l7,9h-6v9h-2v-9H9z M16,0c8.837,0,16,7.163,16,16s-7.163,16-16,16S0,24.837,0,16S7.163,0,16,0z  M16,2C8.28,2,2,8.28,2,16s6.28,14,14,14s14-6.28,14-14S23.72,2,16,2z"></path>
</symbol>
<symbol id="i-circle-arrow-right-02" viewBox="0 0 32 32">
    <path  d="M16,32c8.836,0,16-7.164,16-16S24.836,0,16,0S0,7.164,0,16S7.164,32,16,32z M7,15h9V9l9,7l-9,7v-6H7V15z"></path>
</symbol>
<symbol id="i-square-arrow-up" viewBox="0 0 32 32">
    <path  d="M32,0H0l0,32h32V0z M23,16h-6v9h-2v-9H9l7-9L23,16z"></path>
</symbol>
<symbol id="i-square-arrow-right" viewBox="0 0 32 32">
    <path  d="M0,0v32h32V0H0z M25,16l-9,7v-6H7v-2h9V9L25,16z"></path>
</symbol>
<symbol id="i-square-arrow-down" viewBox="0 0 32 32">
    <path  d="M32,0H0l0,32h32V0z M16,25l-7-9h6V7h2v9h6L16,25z"></path>
</symbol>
<symbol id="i-circle-arrow-right" viewBox="0 0 32 32">
    <path  d="M16,9l9,7l-9,7v-6H7v-2h9V9z M32,16c0,8.837-7.163,16-16,16S0,24.837,0,16S7.163,0,16,0S32,7.163,32,16z  M30,16c0-7.72-6.28-14-14-14S2,8.28,2,16s6.28,14,14,14S30,23.72,30,16z"></path>
</symbol>
<symbol id="i-circle-arrow-left" viewBox="0 0 32 32">
    <path  d="M16,23l-9-7l9-7v6h9v2h-9V23z M0,16C0,7.163,7.163,0,16,0c8.837,0,16,7.163,16,16s-7.163,16-16,16 S0,24.837,0,16z M2,16c0,7.72,6.28,14,14,14s14-6.28,14-14S23.72,2,16,2S2,8.28,2,16z"></path>
</symbol>
<symbol id="i-shield" viewBox="0 0 32 32">
    <path  d="M16,2.452c3.956,2.51,9.205,3.245,11.998,3.459C27.979,10.278,26.856,22.063,16,29.601 C5.035,22.002,3.975,10.286,3.989,5.912C6.779,5.699,12.038,4.966,16,2.452 M16,0C11.026,4,2.071,4,2.071,4S0.172,22,16,32 C31.829,22,29.929,4,29.929,4S20.975,4,16,0"></path>
</symbol>
<symbol id="i-two-arrows-refresh" viewBox="0 0 32 32">
    <path  d="M28.154,4.613L32,0.713v11.314H20.686l3.948-3.892c0,0-10.635-12.108-24.635,3.892 C11.938-9.474,28.154,4.613,28.154,4.613z M7.365,23.974l3.948-3.947L0,20.082v11.314l3.846-3.9c0,0,16.217,14.086,28.154-7.414 C18,36.082,7.365,23.974,7.365,23.974z"></path>
</symbol>
<symbol id="i-chain" viewBox="0 0 32 32">
    <path  d="M12.522,11.13L16,14.609L14.609,16l-3.478-3.478L0,23.652L8.348,32l11.13-11.13L16,17.391L17.391,16 l3.478,3.478L32,8.348L23.652,0L12.522,11.13z M16.65,20.87l-8.302,8.302l-5.519-5.519l8.302-8.302l2.064,2.064L9.739,20.87 l1.391,1.391l3.455-3.455L16.65,20.87z M20.87,16.65l-2.064-2.064l3.455-3.455L20.87,9.739l-3.455,3.455L15.35,11.13l8.302-8.302 l5.519,5.519L20.87,16.65z"></path>
</symbol>
<symbol id="i-label-tag" viewBox="0 0 32 32">
    <path  d="M24.042,2.304L16.97,3.716L0,20.687L11.313,32l16.97-16.97l1.415-7.07L24.042,2.304z M24.042,12.203 c-1.172,1.171-3.071,1.171-4.243,0c-1.171-1.172-1.171-3.071,0-4.243c1.172-1.172,3.071-1.172,4.243,0 C25.213,9.131,25.213,11.031,24.042,12.203z"></path>
</symbol>
<symbol id="i-list" viewBox="0 0 32 32">
    <path  d="M2,10h2v2H2V10z M6,10v2h22v-2H6z M2,6h2V4H2V6z M6,4v2h22V4H6z M2,18h2v-2H2V18z M6,18h22v-2H6V18z M2,24h2 v-2H2V24z M6,24h22v-2H6V24z M2,30h2v-2H2V30z M6,30h22v-2H6V30z"></path>
</symbol>
<symbol id="i-power-button" viewBox="0 0 32 32">
    <path  d="M18,20h-4V2h4V20z M22,5.365v2.258c3.582,2.08,6,5.947,6,10.377c0,6.617-5.383,12-12,12S4,24.617,4,18 c0-4.43,2.418-8.297,6-10.377V5.365C5.273,7.613,2,12.418,2,18c0,7.732,6.268,14,14,14s14-6.268,14-14 C30,12.418,26.727,7.613,22,5.365z"></path>
</symbol>
<symbol id="i-article-two-columns-picture" viewBox="0 0 32 32">
    <path  d="M0,32h30V0H0V32z M2,2h26v28H2V2z M6,14h8v2H6V14z M6,6h8v6H6V6z M6,18h8v2H6V18z M6,22h8v2H6V22z M16,14h8 v2h-8V14z M16,6h8v2h-8V6z M16,10h8v2h-8V10z M16,18h8v2h-8V18z M16,22h8v2h-8V22z"></path>
</symbol>
<symbol id="i-magnifying-glass" viewBox="0 0 32 32">
    <path  d="M11,2c4.963,0,9,4.037,9,9s-4.037,9-9,9s-9-4.037-9-9S6.037,2,11,2 M11,0C4.925,0,0,4.925,0,11 s4.925,11,11,11s11-4.925,11-11S17.075,0,11,0L11,0z M18.729,21.539L27.19,30L30,27.188l-8.459-8.46L18.729,21.539z"></path>
</symbol>
<symbol id="i-two-windows" viewBox="0 0 32 32">
    <path  d="M24,4H0v20h8v6h24V10h-8V4z M8,18H2V6h20v4H8V18z M30,12v12H10V12H30z"></path>
</symbol>
<symbol id="i-layout-two-vertical-rectangles" viewBox="0 0 32 32">
    <path  d="M30,2H0l0,30h30V2z M2,30V4h26v26H2z M4,28h10V6H4V28z M6,8h6v18H6V8z M16,28h10V6H16V28z M18,8h6v18h-6V8z"></path>
</symbol>
<symbol id="i-square-arrow-diagonal-right-down-02" viewBox="0 0 32 32">
    <path  d="M26,14v12H14L26,14z M0,0h32v32H0V0z M2,30h28V2H2V30z"></path>
</symbol>
<symbol id="i-two-pages-broken-line" viewBox="0 0 32 32">
    <path  d="M2,20h28v12h-2V22H4v10H2V20z M30,2h-2v10H4V2H2v12h28V2z M10,18v-2H6v2H10z M28,16v2h4v-2H28z M20,18v-2h-8 v2H20z M26,18v-2h-4v2H26z M4,16H0v2h4V16z"></path>
</symbol>
<symbol id="i-crop" viewBox="0 0 32 32">
    <path  d="M26,6H12H8V0H6v6H0v2h6v18h14h4v6h2v-6h6v-2h-6V6z M20,24H8V8h4h12 v16H20z"></path>
</symbol>
<symbol id="i-two-arrows-refresh-03" viewBox="0 0 32 32">
    <path  d="M0,16c0-4.095,1.562-8.19,4.686-11.314S11.905,0,16,0c4.095,0,8.19,1.562,11.314,4.686 c0.069,0.069,0.13,0.142,0.197,0.211L32,0v12H21l5.149-5.617C26.062,6.291,25.99,6.19,25.899,6.1C23.255,3.456,19.74,2,16,2 S8.745,3.456,6.1,6.1C3.371,8.83,2.006,12.415,2.006,16H0z M4.686,27.314C7.81,30.438,11.905,32,16,32 c4.095,0,8.19-1.562,11.314-4.686S32,20.095,32,16h-2.007c0,3.585-1.365,7.17-4.094,9.9C23.255,28.544,19.74,30,16,30 s-7.255-1.456-9.899-4.1c-0.09-0.09-0.162-0.191-0.249-0.283L11,20H0l0,12l4.489-4.897C4.556,27.172,4.618,27.245,4.686,27.314z"></path>
</symbol>
<symbol id="i-text-arrow-up-02" viewBox="0 0 32 32">
    <path  d="M0,28h30v2H0V28z M0,24h30v-2H0V24z M0,18h30v-2H0V18z M10,6h4v8h2V6h4l-5-6L10,6z"></path>
</symbol>
<symbol id="i-arrow-diagonal-left-down-03" viewBox="0 0 32 32">
    <path  d="M32,30.001v2H0v-32h2v30H32z M6,14v12h12L6,14z"></path>
</symbol>
<symbol id="i-arrow-diagonal-right-up-03" viewBox="0 0 32 32">
    <path  d="M0,2.001l0-2l32,0v32h-2v-30H0z M26,18.002v-12H14L26,18.002z"></path>
</symbol>
<symbol id="i-arrow-diagonal-right-down-03" viewBox="0 0 32 32">
    <path  d="M30,30.001v-30l2,0v32H0l0-2H30z M14,26h12V14L14,26z"></path>
</symbol>
<symbol id="i-arrow-diagonal-left-up-03" viewBox="0 0 32 32">
    <path  d="M2,2.001v30H0l0-32l32,0v2H2z M18,6.002H6v12L18,6.002z"></path>
</symbol>
<symbol id="i-two-triangles-in-square" viewBox="0 0 32 32">
    <path  d="M0,0l0,32h32V0L0,0z M30,2v28H2V2H30z M8,26h18V8L8,26z M12.828,24L24,12.828V24H12.828z M6,6v18L24,6H6z  M19.172,8L8,19.172V8H19.172z"></path>
</symbol>
<symbol id="i-four-triangles-in-square" viewBox="0 0 32 32">
    <path  d="M4,6h8l-8,8V6z M26,14V6h-8L26,14z M26,28v-8l-8,8H26z M4,28h8l-8-8V28z M0,2h30v30H0V2z M2,30h26V4H2V30z"></path>
</symbol>
<symbol id="i-two-triangles-in-square-02" viewBox="0 0 32 32">
    <path  d="M0,32h32V0H0V32z M2,2h28v28H2V2z M26,24V6H8L26,24z M24,19.172L12.828,8H24V19.172z M6,26h18L6,8V26z  M8,12.828L19.172,24H8V12.828z"></path>
</symbol>
<symbol id="i-square-in-square" viewBox="0 0 32 32">
    <path  d="M30,2v28H2V2H30 M32,0H0v32h32V0L32,0z M22,10v12H10V10H22 M24,8H8v16h16V8L24,8z"></path>
</symbol>
<symbol id="i-square-angle-top-left" viewBox="0 0 32 32">
    <path  d="M32,2H2v30H0L0,0l32,0V2z M20,20V8H8v12H20 M22,22H6V6h16V22L22,22z"></path>
</symbol>
<symbol id="i-square-angle-top-right" viewBox="0 0 32 32">
    <path  d="M0,0l32,0v32h-2V2H0L0,0z M12,20h12V8H12V20 M10,22V6h16v16H10L10,22z"></path>
</symbol>
<symbol id="i-square-angle-bottom-left" viewBox="0 0 32 32">
    <path  d="M2,0v30h30v2H0V0H2z M20,12H8v12h12V12 M22,10v16H6V10H22L22,10z"></path>
</symbol>
<symbol id="i-square-angle-bottom-right" viewBox="0 0 32 32">
    <path  d="M32,0v32H0l0-2h30V0L32,0z M12,12v12h12V12H12 M10,10h16v16H10V10L10,10z"></path>
</symbol>
<symbol id="i-layout-two-horizontal-rectangles" viewBox="0 0 32 32">
    <path  d="M0,2v30h30V2H0z M28,30H2V4h26V30z M26,28V18H4v10H26z M6,26v-6h18v6H6z M26,16V6H4v10H26z M6,14V8h18v6H6z"></path>
</symbol>
<symbol id="i-menu-02" viewBox="0 0 32 32">
    <path  d="M2,24h28v2H2V24z M2,18h28v-2H2V18z M2,10h28V8H2V10z"></path>
</symbol>
<symbol id="i-text-arrow-down-02" viewBox="0 0 32 32">
    <path  d="M0,2h30v2H0V2z M0,10h30V8H0V10z M0,16h30v-2H0V16z M15,32l5-6h-4v-8h-2v8h-4L15,32z"></path>
</symbol>
<symbol id="i-turn-off" viewBox="0 0 32 32">
    <path  d="M14,8h4v16h-4V8z M32,16c0,8.836-7.164,16-16,16S0,24.836,0,16S7.164,0,16,0S32,7.164,32,16z M30,16 c0-7.719-6.281-14-14-14S2,8.281,2,16s6.281,14,14,14S30,23.719,30,16z"></path>
</symbol>
</svg>
