<svg xmlns="http://www.w3.org/2000/svg" xmlns:xlink="http://www.w3.org/1999/xlink"><symbol viewBox="0 0 32 32" id="000009-folder-blank-open"><path  d="M26 14V8H16l-4-4H0v26h26l6-16h-6zM2 6h9.172l4 4H24v4H6L2 24.667V6zm22.614 22H2.886l4.5-12h21.728l-4.5 12z"/></symbol><symbol viewBox="0 0 32 32" id="000016-two-folders"><path  d="M26 14V4H16l-4-4H0v22h6v10h26V14h-6zM2 20V2h9.171l4 4H24v8h-2l-4-4H6v10H2zm28 10H8V12h9.171l4 4H30v14z"/></symbol><symbol viewBox="0 0 32 32" id="000017-user"><path  d="M20.312 14.722c2.214-1.423 3.69-3.894 3.69-6.722a8 8 0 1 0-16 0c0 2.827 1.475 5.298 3.688 6.721-3.218 1.056-6.033 3.235-7.777 6.213C1.877 24.409 2.001 28.13 2.001 32h27.996c0-3.684.148-7.254-1.659-10.617-1.717-3.197-4.647-5.55-8.026-6.661zM10.001 8c0-3.308 2.692-6 6-6s6 2.692 6 6-2.692 6-6 6-6-2.692-6-6zM4.002 30c.019-2.974.202-5.607 1.636-8.056A12.056 12.056 0 0 1 15.999 16c4.36 0 8.512 2.484 10.577 6.33 1.261 2.348 1.411 4.847 1.423 7.67H4.002z"/></symbol><symbol viewBox="0 0 32 32" id="000019-user-tie"><path  d="M28.338 21.383c-1.718-3.197-4.648-5.55-8.026-6.661 2.214-1.423 3.69-3.894 3.69-6.722a8 8 0 1 0-16 0c0 2.827 1.475 5.298 3.688 6.721-3.218 1.056-6.033 3.235-7.777 6.213C1.877 24.409 2.001 28.13 2.001 32h27.996c0-3.684.148-7.254-1.659-10.617zM10.001 8c0-3.308 2.692-6 6-6s6 2.692 6 6-2.692 6-6 6-6-2.692-6-6zM4.002 30c.019-2.974.202-5.607 1.636-8.056 2.022-3.452 5.664-5.647 9.624-5.895l-2.732 7.558L16 27.015l3.469-3.407-2.74-7.581h.001c4.088.259 7.898 2.674 9.848 6.304 1.261 2.348 1.411 4.847 1.423 7.67H4.002z"/></symbol><symbol viewBox="0 0 32 32" id="000033-document-text"><path  d="M6 18h18v2H6v-2zm0 6h18v-2H6v2zM20 0l8 8v24H2V0h18zm6 10h-8V2H4v28h22V10zM6 16h18v-2H6v2z"/></symbol><symbol viewBox="0 0 32 32" id="000062-two-documents-text"><path  d="M16 24h12v2H16v-2zm10-14l6 6v16H12V22H0V0h14l6 6v4h6zm-14 2H4v-2h14V8h-6V2H2v18h10v-4H4v-2h8v-2zm18 6h-6v-6H14v18h16V18zm-14 4h12v-2H16v2z"/></symbol><symbol viewBox="0 0 32 32" id="000068-printer-document-text"><path  d="M24 22H8v-2h16v2zm0 2H8v2h16v-2zm4-12h4v12h-4v8H4v-8H0V12h4V0h16l8 8v4zm-2 6H6v12h20V18zm0-8h-8V2H6v10h20v-2z"/></symbol><symbol viewBox="0 0 32 32" id="000080-envelope-closed-02"><path  d="M0 6v22h32V6H0zm28.047 2L16 17.465 3.953 8h24.094zM2 9.008L12.18 17 2 24.992V9.008zM3.953 26l9.836-7.723.01-.006L16 20l2.199-1.729.012.006L28.047 26H3.953zM30 24.992L19.82 17 30 9.008v15.984z"/></symbol><symbol viewBox="0 0 32 32" id="000081-envelope-open-empty"><path  d="M26 4h-4.667L16 0l-5.333 4H6v3.5L0 12v20h32V12l-6-4.5V4zM16 2.5L18 4h-4l2-1.5zM8 6h16v11.039l-4.601 3.681L16 18l-3.399 2.72L8 17.039V6zm-2 4v5.439l-3.509-2.807L6 10zm-4 4.8l9 7.2-9 7.2V14.8zM4.201 30L16 20.561 27.799 30H4.201zM30 29.2L21 22l9-7.2v14.4zm-.491-16.568L26 15.439V10l3.509 2.632z"/></symbol><symbol viewBox="0 0 32 32" id="000092-battery-plus-minus"><path  d="M14 10h-2V8h2V6h2v2h2v2h-2v2h-2v-2zm4 14h-6v2h6v-2zm0-22h4v30H8V2h4V0h6v2zm-8 2v26h10V4H10z"/></symbol><symbol viewBox="0 0 32 32" id="000095-circle-diagonal-stripe"><path  d="M16 32c8.837 0 16-7.163 16-16S24.837 0 16 0 0 7.163 0 16s7.163 16 16 16zm14-16a13.91 13.91 0 0 1-2.803 8.369L7.631 4.803A13.91 13.91 0 0 1 16 2c7.72 0 14 6.28 14 14zM4.803 7.631l19.565 19.565A13.899 13.899 0 0 1 16 30C8.28 30 2 23.72 2 16a13.91 13.91 0 0 1 2.803-8.369z"/></symbol><symbol viewBox="0 0 32 32" id="000098-circle-exclamation-mark"><path  d="M14 10h2v10h-2V10zm0 14h2v-2h-2v2zm1-20C7.832 4 2 9.832 2 17s5.832 13 13 13 13-5.832 13-13S22.168 4 15 4m0-2c8.284 0 15 6.716 15 15s-6.716 15-15 15S0 25.284 0 17 6.716 2 15 2z"/></symbol><symbol viewBox="0 0 32 32" id="000099-circle-minus"><path  d="M24 18H6v-2h18v2zM0 17C0 8.716 6.716 2 15 2s15 6.716 15 15-6.716 15-15 15S0 25.284 0 17zm2 0c0 7.168 5.832 13 13 13s13-5.832 13-13S22.168 4 15 4 2 9.832 2 17z"/></symbol><symbol viewBox="0 0 32 32" id="000100-circle-plus"><path  d="M24 18h-8v8h-2v-8H6v-2h8V8h2v8h8v2zM0 17C0 8.716 6.716 2 15 2s15 6.716 15 15-6.716 15-15 15S0 25.284 0 17zm2 0c0 7.168 5.832 13 13 13s13-5.832 13-13S22.168 4 15 4 2 9.832 2 17z"/></symbol><symbol viewBox="0 0 32 32" id="000101-circle-info-02"><path  d="M15 32c8.284 0 15-6.716 15-15 0-8.284-6.716-15-15-15S0 8.716 0 17c0 8.284 6.716 15 15 15zm-1-22h2v2h-2v-2zm-2 12h2v-6h-2v-2h4v8h2v2h-6v-2z"/></symbol><symbol viewBox="0 0 32 32" id="000102-circle-exclamation-mark-02"><path  d="M15 32c8.284 0 15-6.716 15-15 0-8.284-6.716-15-15-15S0 8.716 0 17c0 8.284 6.716 15 15 15zm-1-22h2v10h-2V10zm0 12h2v2h-2v-2z"/></symbol><symbol viewBox="0 0 32 32" id="000103-minus"><path  d="M28 14v2H4v-2h24z"/></symbol><symbol viewBox="0 0 32 32" id="000104-plus"><path  d="M16 16h12v2H16v12h-2V18H2v-2h12V4h2v12z"/></symbol><symbol viewBox="0 0 32 32" id="000105-cross-mark"><path  d="M17.414 16l7.778 7.778-1.414 1.414L16 17.414l-7.778 7.778-1.414-1.414L14.586 16 6.808 8.222l1.414-1.414L16 14.586l7.778-7.778 1.414 1.414L17.414 16z"/></symbol><symbol viewBox="0 0 32 32" id="000106-circle-cross-mark"><path  d="M21.364 11.988l-4.95 4.95 4.95 4.95-1.414 1.414-4.95-4.95-4.95 4.95-1.414-1.414 4.95-4.95-4.95-4.95 1.414-1.414 4.95 4.95 4.95-4.95 1.414 1.414zM5.808 7.745c-5.069 5.069-5.069 13.316 0 18.385s13.316 5.069 18.385 0 5.069-13.316 0-18.385-13.317-5.069-18.385 0M4.394 6.331c5.858-5.858 15.355-5.858 21.213 0s5.858 15.355 0 21.213-15.355 5.858-21.213 0-5.858-15.355 0-21.213z"/></symbol><symbol viewBox="0 0 32 32" id="000116-circle-check-mark-02"><path  d="M15 2C6.716 2 0 8.716 0 17c0 8.284 6.716 15 15 15s15-6.716 15-15c0-8.284-6.716-15-15-15zm-2.121 21.364l-7.071-7.071 1.414-1.414 5.657 5.656 9.9-9.899 1.414 1.415-11.314 11.313z"/></symbol><symbol viewBox="0 0 32 32" id="000117-circle-minus-02"><path  d="M15 2C6.716 2 0 8.716 0 17c0 8.284 6.716 15 15 15s15-6.716 15-15c0-8.284-6.716-15-15-15zm9 16H6v-2h18v2z"/></symbol><symbol viewBox="0 0 32 32" id="000118-circle-plus-02"><path  d="M15 2C6.716 2 0 8.716 0 17c0 8.284 6.716 15 15 15s15-6.716 15-15c0-8.284-6.716-15-15-15zm9 16h-8v8h-2v-8H6v-2h8V8h2v8h8v2z"/></symbol><symbol viewBox="0 0 32 32" id="000119-circle-cross-mark-02"><path  d="M4.393 6.393c-5.858 5.858-5.858 15.355 0 21.213 5.858 5.858 15.355 5.858 21.213 0s5.858-15.355 0-21.213C19.749.536 10.251.536 4.393 6.393zm17.678 4.95L16.414 17l5.657 5.657-1.414 1.414L15 18.414l-5.657 5.657-1.414-1.414L13.586 17l-5.657-5.657 1.414-1.414L15 15.586l5.657-5.657 1.414 1.414z"/></symbol><symbol viewBox="0 0 32 32" id="000120-circle-arrow-left"><path  d="M16 23l-9-7 9-7v6h9v2h-9v6zM0 16C0 7.163 7.163 0 16 0s16 7.163 16 16-7.163 16-16 16S0 24.837 0 16zm2 0c0 7.72 6.28 14 14 14s14-6.28 14-14S23.72 2 16 2 2 8.28 2 16z"/></symbol><symbol viewBox="0 0 32 32" id="000121-circle-arrow-right"><path  d="M16 9l9 7-9 7v-6H7v-2h9V9zm16 7c0 8.837-7.163 16-16 16S0 24.837 0 16 7.163 0 16 0s16 7.163 16 16zm-2 0c0-7.72-6.28-14-14-14S2 8.28 2 16s6.28 14 14 14 14-6.28 14-14z"/></symbol><symbol viewBox="0 0 32 32" id="000122-circle-arrow-down"><path  d="M23 16l-7 9-7-9h6V7h2v9h6zm-7 16C7.163 32 0 24.837 0 16S7.163 0 16 0s16 7.163 16 16-7.163 16-16 16zm0-2c7.72 0 14-6.28 14-14S23.72 2 16 2 2 8.28 2 16s6.28 14 14 14z"/></symbol><symbol viewBox="0 0 32 32" id="000123-circle-arrow-up"><path  d="M9 16l7-9 7 9h-6v9h-2v-9H9zm7-16c8.837 0 16 7.163 16 16s-7.163 16-16 16S0 24.837 0 16 7.163 0 16 0zm0 2C8.28 2 2 8.28 2 16s6.28 14 14 14 14-6.28 14-14S23.72 2 16 2z"/></symbol><symbol viewBox="0 0 32 32" id="000124-circle-arrow-left-02"><path  d="M32 16c0-8.836-7.164-16-16-16S0 7.164 0 16s7.164 16 16 16 16-7.164 16-16zm-7 1h-9v6l-9-7 9-7v6h9v2z"/></symbol><symbol viewBox="0 0 32 32" id="000125-circle-arrow-up-02"><path  d="M16 32c8.836 0 16-7.164 16-16S24.836 0 16 0 0 7.164 0 16s7.164 16 16 16zm-1-7v-9H9l7-9 7 9h-6v9h-2z"/></symbol><symbol viewBox="0 0 32 32" id="000126-circle-arrow-down-02"><path  d="M0 16c0 8.836 7.164 16 16 16s16-7.164 16-16S24.836 0 16 0 0 7.164 0 16zm17-9v9h6l-7 9-7-9h6V7h2z"/></symbol><symbol viewBox="0 0 32 32" id="000127-circle-arrow-right-02"><path  d="M16 32c8.836 0 16-7.164 16-16S24.836 0 16 0 0 7.164 0 16s7.164 16 16 16zM7 15h9V9l9 7-9 7v-6H7v-2z"/></symbol><symbol viewBox="0 0 32 32" id="000128-square-arrow-right"><path  d="M0 0v32h32V0H0zm25 16l-9 7v-6H7v-2h9V9l9 7z"/></symbol><symbol viewBox="0 0 32 32" id="000129-square-arrow-up"><path  d="M32 0H0v32h32V0zm-9 16h-6v9h-2v-9H9l7-9 7 9z"/></symbol><symbol viewBox="0 0 32 32" id="000130-square-arrow-down"><path  d="M32 0H0v32h32V0zM16 25l-7-9h6V7h2v9h6l-7 9z"/></symbol><symbol viewBox="0 0 32 32" id="000131-square-arrow-left"><path  d="M0 0v32h32V0H0zm16 9v6h9v2h-9v6l-9-7 9-7z"/></symbol><symbol viewBox="0 0 32 32" id="000142-house"><path  d="M32 16l-6-6V2h-4v4.001l-6-6L15.998 0 0 16v.002l1.414 1.414.001-.001L4 14.829V32h24V14.829l2.585 2.585.001.001L32 16.004l-.002-.002L32 16zm-6 14h-6V18h-8v12H6V12.83l10-10 10 9.999V30z"/></symbol><symbol viewBox="0 0 32 32" id="000150-pencil"><path  d="M0 32l4.423-10.08 5.657 5.657L0 32zM26.343 0L22.1 4.243 27.757 9.9 32 5.657 26.343 0zm-4.95 4.95L5.13 21.213l5.657 5.657L27.05 10.607 21.393 4.95z"/></symbol><symbol viewBox="0 0 32 32" id="000153-briefcase-02"><path  d="M24 8V2H8v6H0v24h32V8h-8zM10 4h12v4H10V4zm20 26H2V10h28v20z"/></symbol><symbol viewBox="0 0 32 32" id="000157-scissors"><path  d="M24 19.793l-.131-.001a5.815 5.815 0 0 0-4.802 2.507l-1.263-2.306-.33-.603.383-.562c4.558-6.712 7.391-11.243 8.072-12.945.943-2.363-.018-4.831-.674-6.091l-8.91 16.275-.345.63-.346-.632L6.744-.209c-.658 1.26-1.619 3.727-.674 6.091.682 1.702 3.515 6.233 8.072 12.945l.384.563-.331.604-1.262 2.306a5.814 5.814 0 0 0-4.803-2.508l-.131.001c-3.313.071-6 2.686-6 5.999a6 6 0 0 0 6 5.999c3.314 0 5.972-2.686 6-5.999a6.148 6.148 0 0 0-.107-1.201c.598-.86 1.173-1.692 1.735-2.507.119-.174.254-.365.371-.536.118.171.252.362.371.536.562.815 1.138 1.646 1.736 2.506-.073.388-.11.789-.107 1.202.028 3.313 2.686 5.999 6 5.999s6-2.686 6-5.999C30 22.478 27.312 19.863 24 19.793zM8 29.791c-2.206 0-4-1.794-4-3.999 0-2.195 1.776-3.951 4.043-4l.088-.001c1.041 0 2.013.401 2.735 1.13.741.747 1.144 1.76 1.134 2.854-.019 2.214-1.813 4.016-4 4.016zm16 0c-2.187 0-3.981-1.802-4-4.016-.01-1.093.393-2.106 1.134-2.854a3.818 3.818 0 0 1 2.735-1.13l.088.001c2.267.048 4.043 1.805 4.043 4a4.004 4.004 0 0 1-4 3.999z"/></symbol><symbol viewBox="0 0 32 32" id="000159-credit-card"><path  d="M0 10v18h32V4H0v6zm30 16H2V16h28v10zm0-20v4H2V6h28z"/></symbol><symbol viewBox="0 0 32 32" id="000162-clip"><path  d="M20 32H8V0h16v22h-2V2H10v28h8V8h2v24z"/></symbol><symbol viewBox="0 0 32 32" id="000173-wrench"><path  d="M31.63 5.318l-3.396 3.396a5.207 5.207 0 0 1-3.437-1.511 5.212 5.212 0 0 1-1.511-3.437L26.682.37c-2.208-.738-4.561-.387-6.126 1.179-1.918 1.918-2.025 5.015-.51 7.578L7.26 21.913a5.23 5.23 0 0 0-5.725 1.131c-2.046 2.046-2.046 5.375 0 7.421s5.375 2.046 7.421 0a5.229 5.229 0 0 0 1.131-5.725l12.786-12.786c2.563 1.515 5.66 1.408 7.578-.51 1.565-1.565 1.917-3.918 1.179-6.126zM7.75 29.25h-5v-5h5v5z"/></symbol><symbol viewBox="0 0 32 32" id="000174-clock"><path  d="M15 4c7.168 0 13 5.832 13 13s-5.832 13-13 13S2 24.168 2 17 7.832 4 15 4m0-2C6.716 2 0 8.716 0 17s6.716 15 15 15 15-6.716 15-15S23.284 2 15 2zm9 14h-8V8h-2v10h10v-2z"/></symbol><symbol viewBox="0 0 32 32" id="000177-calendar"><path  d="M28 0h-6v4H10V0H4v4H0v28h32V4h-4V0zm-4 2h2v4h-2V2zM6 2h2v4H6V2zm24 8v20H2V10h28z"/></symbol><symbol viewBox="0 0 32 32" id="000184-cd"><path  d="M27.314 4.686c-6.248-6.248-16.381-6.248-22.629 0-6.248 6.248-6.248 16.38 0 22.628 6.248 6.248 16.381 6.248 22.629 0 6.248-6.248 6.248-16.381 0-22.628zM25.9 6.102a13.852 13.852 0 0 1 2.611 3.642l-7.168 3.584c-.281-.562-.631-1.101-1.102-1.571a5.91 5.91 0 0 0-1.57-1.101l3.584-7.168A13.871 13.871 0 0 1 25.9 6.102zm-7.072 12.726a4 4 0 1 1-5.657-5.658 4 4 0 0 1 5.657 5.658zM6.1 25.898a13.899 13.899 0 0 1-2.613-3.644l7.17-3.582a5.91 5.91 0 0 0 1.101 1.57c.469.471 1.008.821 1.571 1.102l-3.582 7.17A13.925 13.925 0 0 1 6.1 25.898z"/></symbol><symbol viewBox="0 0 32 32" id="000187-monitor"><path  d="M32 24V0H0v24h14v6H6v2h20v-2h-8v-6h14zM2 2h28v20H2V2z"/></symbol><symbol viewBox="0 0 32 32" id="000188-tv"><path  d="M23.313 1.414L21.898 0 16 5.898 10.102 0 8.688 1.414 13.273 6H0v26h32V6H18.727l4.586-4.586zM20 30h-2v-2h2v2zm4 0h-2v-2h2v2zm4 0h-2v-2h2v2zm2-22v18H2V8h28z"/></symbol><symbol viewBox="0 0 32 32" id="000195-floppy-disk"><path  d="M18 8h2v4h-2V8zM8 4h16v12H8V4zm2 10h12V6H10v8zM26 0l6 6v26H0V0h26zm-2 20H8v10h16V20zm6-13.172L25.172 2H2v28h4V18h20v12h4V6.828z"/></symbol><symbol viewBox="0 0 32 32" id="000197-calculator"><path  d="M27 10H5V6h22v4zM6 16h4v-4H6v4zm8 0h4v-4h-4v4zm8 0h4v-4h-4v4zm0 6h4v-4h-4v4zm-8 0h4v-4h-4v4zm-8 0h4v-4H6v4zm0 6h4v-4H6v4zm8 0h4v-4h-4v4zm8 0h4v-4h-4v4zm6-24H4v26h24V4m2-2v30H2V2h28z"/></symbol><symbol viewBox="0 0 32 32" id="000209-the-globe"><path  d="M29.879 23.941a15.915 15.915 0 0 0-.035-15.939L29.842 8C27.074 3.223 21.918 0 16 0S4.926 3.223 2.158 8l-.002.002a15.915 15.915 0 0 0-.035 15.939c.006.01.014.02.018.029C4.904 28.766 10.07 32 16 32s11.096-3.234 13.859-8.029l.02-.03zm-1.684-1.089c-1.889-1.072-4.129-1.85-6.537-2.316a31.18 31.18 0 0 0 .23-7.113c2.65-.531 5.094-1.434 7.068-2.703a13.895 13.895 0 0 1-.761 12.132zm-15.504-.651C13.764 22.076 14.867 22 16 22s2.236.076 3.307.201c-.676 2.92-1.816 5.41-3.307 7.084-1.49-1.674-2.631-4.164-3.309-7.084zM16 20c-1.238 0-2.473.08-3.686.227A29.049 29.049 0 0 1 12 16c0-.766.035-1.516.094-2.254C13.377 13.91 14.688 14 16 14c1.313 0 2.623-.09 3.906-.254.059.738.094 1.488.094 2.254 0 1.459-.113 2.875-.318 4.227A30.573 30.573 0 0 0 16 20zm3.682-8.242C18.494 11.91 17.266 12 16 12s-2.494-.09-3.682-.242c.567-3.768 1.87-7.006 3.682-9.043 1.811 2.037 3.115 5.275 3.682 9.043zm8.381-2.828c-1.693 1.123-3.902 1.981-6.408 2.5-.539-3.574-1.732-6.851-3.555-9.254 4.246.642 7.865 3.191 9.963 6.754zM13.9 2.176c-1.824 2.402-3.02 5.68-3.555 9.254-2.506-.519-4.715-1.377-6.408-2.5C6.035 5.367 9.654 2.818 13.9 2.176zM2 16c0-1.869.375-3.65 1.041-5.281 1.977 1.269 4.42 2.172 7.07 2.703a31.294 31.294 0 0 0 .23 7.113c-2.408.467-4.648 1.244-6.537 2.316A13.898 13.898 0 0 1 2 16zm2.916 8.52c1.627-.899 3.598-1.59 5.801-2.018.631 2.82 1.695 5.361 3.184 7.322a13.987 13.987 0 0 1-8.985-5.304zM18.1 29.824c1.488-1.961 2.553-4.502 3.184-7.322 2.203.428 4.174 1.119 5.801 2.018a13.992 13.992 0 0 1-8.985 5.304z"/></symbol><symbol viewBox="0 0 32 32" id="000213-square-arrow-diagonal-up-right"><path  d="M32 0v16h-2V3.414L12.203 21.213l-1.414-1.414L28.586 2H16V0h16zm-8 15.071V30H2V8h14.929l2-2H0v26h26V13.071l-2 2z"/></symbol><symbol viewBox="0 0 32 32" id="000214-turn-off"><path  d="M14 8h4v16h-4V8zm18 8c0 8.836-7.164 16-16 16S0 24.836 0 16 7.164 0 16 0s16 7.164 16 16zm-2 0c0-7.719-6.281-14-14-14S2 8.281 2 16s6.281 14 14 14 14-6.281 14-14z"/></symbol><symbol viewBox="0 0 32 32" id="000215-power-button"><path  d="M18 20h-4V2h4v18zm4-14.635v2.258c3.582 2.08 6 5.947 6 10.377 0 6.617-5.383 12-12 12S4 24.617 4 18c0-4.43 2.418-8.297 6-10.377V5.365C5.273 7.613 2 12.418 2 18c0 7.732 6.268 14 14 14s14-6.268 14-14c0-5.582-3.273-10.387-8-12.635z"/></symbol><symbol viewBox="0 0 32 32" id="000223-list"><path  d="M2 10h2v2H2v-2zm4 0v2h22v-2H6zM2 6h2V4H2v2zm4-2v2h22V4H6zM2 18h2v-2H2v2zm4 0h22v-2H6v2zm-4 6h2v-2H2v2zm4 0h22v-2H6v2zm-4 6h2v-2H2v2zm4 0h22v-2H6v2z"/></symbol><symbol viewBox="0 0 32 32" id="000230-cloud-02"><path  d="M20.688 28H8.313C3.729 28 0 24.344 0 19.85c0-2.983 1.666-5.707 4.303-7.131a4.27 4.27 0 0 1-.018-.386C4.285 7.738 8.098 4 12.785 4c2.094 0 4.07.739 5.627 2.092a10.67 10.67 0 0 1 2.275-.259C26.926 5.833 32 10.806 32 16.917S26.926 28 20.688 28zM12.785 6c-3.584 0-6.5 2.841-6.5 6.333 0 .227.035.443.066.661l.111.761S2.03 15.547 1.999 19.85C1.975 23.241 4.832 26 8.313 26h12.375C25.822 26 30 21.926 30 16.917s-4.178-9.084-9.313-9.084c-.709 0-1.445.103-2.322.323l-.547.138-.4-.397A6.536 6.536 0 0 0 12.785 6z"/></symbol><symbol viewBox="0 0 32 32" id="000247-bar-graph-mixed"><path  d="M2 28h26v4H2v-4zM26 2v24h2V2h-2zm-4 8h-2v16h2V10zm-6 6h-2v10h2V16zm-6-4H8v14h2V12zM4 6H2v20h2V6z"/></symbol><symbol viewBox="0 0 32 32" id="000253-nine-squares"><path  d="M0 2h6v6H0V2zm8 6h6V2H8v6zm8 0h6V2h-6v6zm8 0h6V2h-6v6zM0 16h6v-6H0v6zm8 0h6v-6H8v6zm8 0h6v-6h-6v6zm8 0h6v-6h-6v6zM0 24h6v-6H0v6zm8 0h6v-6H8v6zm8 0h6v-6h-6v6zm8 0h6v-6h-6v6zM0 32h6v-6H0v6zm8 0h6v-6H8v6zm8 0h6v-6h-6v6zm8 0h6v-6h-6v6z"/></symbol><symbol viewBox="0 0 32 32" id="000290-cloud-03"><path  d="M25 12c-.051 0-2.313-.188-5.119 1.41-.943-1.847-1.969-2.814-2.006-2.847C16.422 9.057 14.258 8 12 8a8 8 0 0 0-8 8c0 .034.01.066.01.1A5 5 0 0 0 5 26h20a7 7 0 0 0 0-14z"/></symbol><symbol viewBox="0 0 32 32" id="000306-label-tag"><path  d="M24.042 2.304L16.97 3.716 0 20.687 11.313 32l16.97-16.97 1.415-7.07-5.656-5.656zm0 9.899a3.001 3.001 0 0 1-4.243-4.243 3 3 0 1 1 4.243 4.243z"/></symbol><symbol viewBox="0 0 32 32" id="000385-phone-receiver-02"><path  d="M9.131 22.886s.885.809 1.463 1.286c4.906 4.042 11.514 6.266 12.543 5.757 3.617-1.788 4.407-2.667 4.237-2.892-.11-.145-.844-.93-1.289-1.3-1.839-1.529-4.493-3.311-5.067-3.376-.562-.187-3.093 2.41-3.093 2.41-2.132-.612-5.284-2.567-6.686-3.993-1.402-1.426-3.389-4.546-4.001-6.678 0 0 2.597-2.531 2.41-3.093-.065-.574-1.847-3.228-3.377-5.067a13.587 13.587 0 0 0-1.3-1.289c-.224-.17-1.104.619-2.891 4.237-.509 1.029 1.715 7.637 5.757 12.543a40.772 40.772 0 0 0 1.294 1.455z"/></symbol><symbol viewBox="0 0 32 32" id="000405-chain"><path  d="M12.522 11.13L16 14.609 14.609 16l-3.478-3.478L0 23.652 8.348 32l11.13-11.13L16 17.391 17.391 16l3.478 3.478L32 8.348 23.652 0l-11.13 11.13zm4.128 9.74l-8.302 8.302-5.519-5.519 8.302-8.302 2.064 2.064-3.456 3.455 1.391 1.391 3.455-3.455 2.065 2.064zm4.22-4.22l-2.064-2.064 3.455-3.455-1.391-1.392-3.455 3.455-2.065-2.064 8.302-8.302 5.519 5.519-8.301 8.303z"/></symbol><symbol viewBox="0 0 32 32" id="000455-two-arrows-refresh"><path  d="M28.154 4.613L32 .713v11.314H20.686l3.948-3.892S13.999-3.973-.001 12.027C11.938-9.474 28.154 4.613 28.154 4.613zM7.365 23.974l3.948-3.947L0 20.082v11.314l3.846-3.9S20.063 41.582 32 20.082c-14 16-24.635 3.892-24.635 3.892z"/></symbol><symbol viewBox="0 0 32 32" id="000509-connection"><path  d="M5 12c1.662 0 3.125.82 4.034 2.068l13.101-5.955A4.921 4.921 0 0 1 22 7a5 5 0 1 1 5 5 4.984 4.984 0 0 1-4.034-2.068l-13.1 5.955c.082.359.134.729.134 1.113s-.052.754-.134 1.113l13.101 5.955A4.98 4.98 0 0 1 27 22a5 5 0 1 1-5 5c0-.384.052-.754.134-1.113l-13.1-5.955A4.982 4.982 0 0 1 5 22a5 5 0 0 1 0-10z"/></symbol><symbol viewBox="0 0 32 32" id="000554-shield"><path  d="M16 2.452c3.956 2.51 9.205 3.245 11.998 3.459-.019 4.367-1.142 16.152-11.998 23.69C5.035 22.002 3.975 10.286 3.989 5.912c2.79-.213 8.049-.946 12.011-3.46M16 0C11.026 4 2.071 4 2.071 4S.172 22 16 32C31.829 22 29.929 4 29.929 4S20.975 4 16 0"/></symbol><symbol viewBox="0 0 32 32" id="000560-circle-question-mark"><path  d="M19.519 12.349c.714 1.433.621 3.352-.217 4.462-.587.777-1.139 1.216-1.627 1.604-.5.397-.896.711-1.304 1.365a2.676 2.676 0 0 0-.369 1.219V22h-2v-1c0-.122.018-1.23.673-2.279.591-.946 1.21-1.438 1.756-1.872.433-.344.841-.668 1.274-1.243.296-.392.475-1.46.024-2.366-.41-.823-1.209-1.24-2.376-1.24-1.238 0-2.144.307-2.694.914-.746.823-.655 1.977-.654 1.988L12.009 16h-2v-1c-.005 0-.174-1.95 1.168-3.43.944-1.042 2.349-1.57 4.175-1.57 2.607 0 3.73 1.471 4.167 2.349zM14.009 26h2v-2h-2v2zM15 4C7.832 4 2 9.832 2 17s5.832 13 13 13 13-5.832 13-13S22.168 4 15 4m0-2c8.284 0 15 6.716 15 15s-6.716 15-15 15S0 25.284 0 17 6.716 2 15 2z"/></symbol><symbol viewBox="0 0 32 32" id="000561-octagon-question-mark"><path  d="M10 0L0 10v12l10 10h12l10-10V10L22 0H10zm20 21.172L21.172 30H10.828L2 21.172V10.828L10.828 2h10.343L30 10.828v10.344zM17 20h-2v-1c0-.122.018-1.23.673-2.279.591-.946 1.21-1.438 1.756-1.872.433-.344.841-.668 1.274-1.243.296-.392.475-1.46.024-2.366-.41-.823-1.209-1.24-2.376-1.24-1.238 0-2.144.307-2.694.914-.746.823-.655 1.977-.654 1.988L13.008 14h-2v-1c-.005 0-.174-1.95 1.168-3.43C13.12 8.528 14.525 8 16.351 8c2.606 0 3.729 1.471 4.166 2.349.714 1.433.621 3.352-.217 4.462-.587.777-1.139 1.216-1.627 1.604-.5.397-.896.711-1.304 1.365A2.676 2.676 0 0 0 17 18.999V20zm.008 4h-2v-2h2v2z"/></symbol><symbol viewBox="0 0 32 32" id="000575-shopping-cart-with-goods"><path  d="M13.981 17.63l-3.975-3.655L13.661 10l3.975 3.655-3.655 3.975zm12.025-8.684L21.48 6l-2.946 4.526 4.526 2.946 2.946-4.526zm-9.032-3.899L15.053 0l-5.047 1.921 1.921 5.047 5.047-1.921zM28 28a4 4 0 0 1-8 0h-8a4 4 0 0 1-8 0c0-2.071 1.582-3.756 3.598-3.959L8.279 22H6.11L4.392 7.391 2.116 3.977C2.075 3.979 2.041 4 2 4a2 2 0 1 1 2-2c0 .315-.088.604-.219.87l2.541 3.811L7.89 20h16.44l5.657-14H32l-6.33 16H10.389l-.781 2.342c.777.342 1.414.93 1.838 1.658h9.109c.693-1.19 1.969-2 3.445-2a4 4 0 0 1 4 4zm-18 0a2 2 0 1 0-3.999-.001A2 2 0 0 0 10 28zm16 0a2 2 0 1 0-3.999-.001A2 2 0 0 0 26 28z"/></symbol><symbol viewBox="0 0 32 32" id="000599-christmas-bauble-star-02"><path  d="M22.203 29.783c5.436-3.637 7.324-10.985 4.32-16.791l1.928-2.298-.849-.713 1.354-.661c3.13-1.529 3.691-5.92 1.024-8.179a.29.29 0 0 0-.019-.017l-.019-.017c-2.688-2.233-6.914-.921-7.877 2.429l-.417 1.449-.858-.72-1.928 2.298c-5.92-1.851-12.493.865-15.387 6.348C.94 17.713 1.729 23.78 5.41 27.772c4.289 4.651 11.532 5.529 16.793 2.011zm1.784-25.694c.55-1.914 3.021-2.814 4.611-1.5.029.026.059.053.09.078a2.909 2.909 0 0 1 1.008 2.591l.015-.119-.015.12-.013.106a2.918 2.918 0 0 1-1.604 2.158l-2.153 1.052-2.601-2.183.662-2.303zM8.779 9.882c3.341-2.281 7.052-2.171 10.759-1.012l1.499-1.787 4.596 3.856-1.499 1.787.612 1.184a10.975 10.975 0 0 1-1.341 12.13l.162-.193-.163.194c-.884 1.053-.511.607 0 0-5.973 7.115-17.985 3.728-19.312-5.489-.593-4.125 1.242-8.317 4.687-10.67zm14.627 16.159s0-.001 0 0c0-.001 0-.001 0 0zm6.29-20.782s0-.001 0 0c0-.001 0-.001 0 0zM11.163 20.36l-4.183-2.8 4.889-1.2.333-5.022 3.484 3.634 4.516-2.223-1.405 4.833 4.183 2.8-4.889 1.2-.333 5.022-3.484-3.633-4.516 2.223 1.405-4.834z"/></symbol><symbol viewBox="0 0 32 32" id="000606-christmas-bauble-pattern"><path  d="M20.01 11.211V8h-1.333l.622-1.399A4.695 4.695 0 0 0 15.034 0h-.048a4.693 4.693 0 0 0-4.264 6.6l.621 1.4H10.01v3.211c-3.559 1.821-6 5.517-6 9.789 0 .417.028.826.073 1.23.636.456 1.345.77 2.418.77 1.729 0 2.539-.763 3.564-1.729C11.197 20.207 12.479 19 15 19c2.523 0 3.806 1.207 4.938 2.271 1.027.966 1.837 1.729 3.567 1.729 1.081 0 1.793-.317 2.433-.775.045-.402.072-.811.072-1.225 0-4.272-2.441-7.968-6-9.789zM7.51 20a1.5 1.5 0 1 1 .001-3.001A1.5 1.5 0 0 1 7.51 20zm5.039-14.212A2.693 2.693 0 0 1 15.01 2h.018c.91.006 1.749.466 2.244 1.232.495.767.57 1.723.199 2.556L16.488 8h-2.956l-.983-2.212zM24.01 18.5a1.5 1.5 0 1 1-3.001-.001 1.5 1.5 0 0 1 3.001.001zm-5.443 4.229C17.541 21.763 16.73 21 15 21c-1.728 0-2.538.763-3.563 1.729C10.305 23.793 9.022 25 6.501 25a6.37 6.37 0 0 1-1.823-.255C6.211 28.974 10.252 32 15.01 32c4.76 0 8.801-3.028 10.333-7.26a6.35 6.35 0 0 1-1.838.26c-2.523 0-3.805-1.207-4.938-2.271zM15.01 26.5a1.5 1.5 0 1 1 .001-3.001 1.5 1.5 0 0 1-.001 3.001z"/></symbol><symbol viewBox="0 0 32 32" id="000617-plane-03"><path  d="M1.466 23.205L0 24.671l5.132 2.199L7.331 32l1.466-1.466v-5.863s5.296-3.866 10.828-8.56L24.921 32l2.932-2.932-2.576-18.034C29.924 6.551 33.296 2.26 31.518.482c-1.777-1.777-6.068 1.595-10.55 6.242L2.934 4.146 0 7.08l15.891 5.296c-4.693 5.532-8.56 10.829-8.56 10.829H1.466z"/></symbol><symbol viewBox="0 0 32 32" id="000631-easter-egg-stripe-02"><path  d="M27.868 16.314L10.149 6.183c5.272-3.788 11.49-5.02 13.927-3.627s4.469 7.343 3.792 13.758zm-.334 2.127L8.456 7.533a21.422 21.422 0 0 0-2.852 3.005l20.727 11.851a21.07 21.07 0 0 0 1.203-3.948zm-2.332 6.272c.096-.165.17-.336.261-.503L4.446 12.194c-.1.161-.213.31-.309.475a16.223 16.223 0 0 0-1.412 3.177L23.13 27.513c.788-.859 1.49-1.8 2.072-2.8zM7.86 30.372c5.05 2.888 10.079 1.635 13.746-1.412L2.222 17.876c-.831 4.669.588 9.608 5.638 12.496z"/></symbol><symbol viewBox="0 0 32 32" id="000632-easter-egg-pattern"><path  d="M19.621 20.49C18.398 18.318 17.545 17 15.99 17c-1.553 0-2.406 1.318-3.629 3.49C11.172 22.604 9.824 25 6.99 25a4.284 4.284 0 0 1-1.806-.387C6.907 28.764 10.512 32 16 32c5.491 0 9.096-3.239 10.818-7.393a4.268 4.268 0 0 1-1.824.393c-2.836 0-4.183-2.396-5.373-4.51zM16 24a1.5 1.5 0 1 1 .001-3.001A1.5 1.5 0 0 1 16 24zm-9.01-1c1.553 0 2.406-1.318 3.629-3.49 1.19-2.114 2.537-4.51 5.371-4.51 2.836 0 4.184 2.396 5.373 4.51 1.223 2.172 2.076 3.49 3.631 3.49 1.198 0 1.982-.789 2.837-2.143.109-.761.169-1.53.169-2.294C28 8.563 20 0 16 0S4 8.563 4 18.563c0 .771.06 1.544.17 2.312C5.02 22.218 5.8 23 6.99 23zm17.51-7a1.5 1.5 0 1 1-.001 3.001A1.5 1.5 0 0 1 24.5 16zm-17 0a1.5 1.5 0 1 1-.001 3.001A1.5 1.5 0 0 1 7.5 16z"/></symbol><symbol viewBox="0 0 32 32" id="000635-easter-egg-pattern-04"><path  d="M2.232 22.708c2.019-.183 5.178.452 8.673 2.451s5.631 4.391 6.48 6.215c-2.915.999-6.212.894-9.521-.998-3.308-1.891-5.048-4.667-5.632-7.668zm16.598-11.18l1.212 9.969 7.525-3.177c.409-2.094.511-4.175.38-6.121-2.373-.219-5.172-1.12-7.919-2.691s-4.934-3.522-6.312-5.448a24.15 24.15 0 0 0-5.177 3.401l.972 8.012 9.319-3.945zm-1.69 2.899l-9.32 3.945-1.11-9.141a19.814 19.814 0 0 0-2.57 3.437c-1.416 2.43-2.216 5.272-2.135 8.047 2.689-.253 6.347.666 9.913 2.705s6.199 4.718 7.322 7.151c2.466-1.318 4.551-3.425 5.968-5.855a19.772 19.772 0 0 0 1.727-3.947l-8.584 3.624-1.211-9.966zm6.942-11.875c-1.617-.924-4.9-.682-8.465.682 1.143 1.481 2.929 3.108 5.424 4.535s4.81 2.145 6.677 2.385c-.59-3.739-2.02-6.677-3.636-7.602z"/></symbol><symbol viewBox="0 0 32 32" id="000645-car-02"><path  d="M25 24a3 3 0 1 0 0-6 3 3 0 0 0 0 6zm0-4a1.001 1.001 0 1 1-1 1c0-.552.449-1 1-1zm-15 1a3 3 0 1 0-6 0 3 3 0 0 0 6 0zm-4 0a1.001 1.001 0 1 1 1 1c-.551 0-1-.448-1-1zM22 6H12l-4.58 6.107L0 14v6h2.101a5 5 0 0 1 9.798 0h8.202a5 5 0 0 1 9.798 0H32v-6l-5.333-1.778L22 6zm-12 6l3-4h3v4h-6zm8 0V8h3l3 4h-6z"/></symbol><symbol viewBox="0 0 32 32" id="000655-kite"><path  d="M12 22.727V30l3.265-4.898L22 30 32 4 0 14l12 8.727zm9.069 4.123l-7.198-5.235 5.846-6.917-8.158 5.234-7.165-5.211 24.255-7.58-7.58 19.709z"/></symbol><symbol viewBox="0 0 32 32" id="000686-ornament"><path  d="M25 18h-5v-4h5a7 7 0 1 0-7-7v5h-4V7a7 7 0 1 0-7 7h5v4H7a7 7 0 1 0 7 7v-5h4v5a7 7 0 1 0 7-7zM20 7c0-2.757 2.243-5 5-5s5 2.243 5 5-2.243 5-5 5h-5V7zm-8 18c0 2.757-2.243 5-5 5s-5-2.243-5-5 2.243-5 5-5h5v5zm0-13H7c-2.757 0-5-2.243-5-5s2.243-5 5-5 5 2.243 5 5v5zm6 6h-4v-4h4v4zm7 12c-2.757 0-5-2.243-5-5v-5h5c2.757 0 5 2.243 5 5s-2.243 5-5 5z"/></symbol><symbol viewBox="0 0 32 32" id="000687-ornament-02"><path  d="M23 2a7 7 0 0 0-7 7v7h7a7 7 0 1 0 0-14zm0 12h-5V9c0-2.757 2.243-5 5-5s5 2.243 5 5-2.243 5-5 5zM7 2a7 7 0 1 0 0 14h7V9a7 7 0 0 0-7-7zm5 12H7c-2.757 0-5-2.243-5-5s2.243-5 5-5 5 2.243 5 5v5zM0 25a7 7 0 1 0 14 0v-7H7a7 7 0 0 0-7 7zm12 0c0 2.757-2.243 5-5 5s-5-2.243-5-5 2.243-5 5-5h5v5zm11-7h-7v7a7 7 0 1 0 7-7zm0 12c-2.757 0-5-2.243-5-5v-5h5c2.757 0 5 2.243 5 5s-2.243 5-5 5z"/></symbol><symbol viewBox="0 0 32 32" id="000688-ornament-03"><path  d="M17.236 16l4.324 4.324c1.194 1.194 2.76 1.791 4.325 1.791s3.13-.597 4.324-1.791a6.115 6.115 0 0 0-4.324-10.44 6.1 6.1 0 0 0-4.325 1.791L17.236 16zm8.649-4.115c1.099 0 2.133.428 2.91 1.205S30 14.901 30 16a4.086 4.086 0 0 1-1.206 2.91 4.09 4.09 0 0 1-2.91 1.205c-1.1 0-2.133-.428-2.911-1.205L20.064 16l2.91-2.91a4.09 4.09 0 0 1 2.911-1.205zM16 14.765l4.324-4.324a6.116 6.116 0 0 0-8.648-8.65 6.116 6.116 0 0 0 0 8.649L16 14.765zM13.09 3.206A4.086 4.086 0 0 1 16 2c1.1 0 2.133.428 2.911 1.205a4.122 4.122 0 0 1 0 5.821L16 11.936l-2.911-2.91a4.12 4.12 0 0 1 .001-5.82zm-6.974 18.91c1.565 0 3.13-.597 4.324-1.791L14.765 16l-4.325-4.324a6.096 6.096 0 0 0-4.324-1.791 6.116 6.116 0 0 0 0 12.231zM3.205 13.09a4.09 4.09 0 0 1 2.911-1.205 4.09 4.09 0 0 1 2.91 1.205l2.91 2.91-2.91 2.91a4.09 4.09 0 0 1-2.91 1.205c-1.1 0-2.133-.428-2.911-1.206a4.12 4.12 0 0 1 0-5.819zM16 32a6.116 6.116 0 0 0 4.325-10.44L16 17.236l-4.325 4.324A6.116 6.116 0 0 0 16 32zm-2.91-9.025L16 20.064l2.91 2.91a4.121 4.121 0 0 1 0 5.82A4.086 4.086 0 0 1 16 30a4.09 4.09 0 0 1-2.91-1.205 4.12 4.12 0 0 1 0-5.82z"/></symbol><symbol viewBox="0 0 32 32" id="000700-glasses"><path  d="M29.373 8.634c-.36-2.132-.513-4.345-2.459-5.725-1.826-1.295-4.469-1.214-6.171.266-1.468 1.277-1.653 3.066-1.659 4.885h2c-.026-1.114-.031-2.314.776-3.189 1.291-1.4 3.718-1.049 4.704.519.771 1.227.773 3.231 1.004 4.608l1.282 7.667c-1.35-1.037-3.018-1.678-4.851-1.678a8 8 0 1 0 8 8c0-.918-.187-1.786-.472-2.608-.716-4.247-1.435-8.496-2.154-12.745zM24 29.988c-3.309 0-6-2.692-6-6s2.691-6 6-6 6 2.692 6 6-2.691 6-6 6zm-16-14c-1.833 0-3.501.641-4.851 1.678l1.282-7.667c.23-1.377.232-3.381 1.004-4.608.986-1.568 3.413-1.919 4.704-.519.808.875.803 2.075.776 3.189h2c-.006-1.819-.191-3.608-1.659-4.885-1.701-1.481-4.344-1.561-6.17-.266C3.14 4.29 2.987 6.502 2.627 8.634 1.908 12.883 1.189 17.131.472 21.38.187 22.202 0 23.07 0 23.988a8 8 0 1 0 8-8zm0 14c-3.309 0-6-2.692-6-6s2.691-6 6-6 6 2.692 6 6-2.691 6-6 6z"/></symbol><symbol viewBox="0 0 32 32" id="000702-bulb-on"><path  d="M21.998 8H10V6h11.998v2zM22 2h-2V0h-8v2h-2v2h12V2zm8.613 13.554l-.952-1.759-3.518 1.904.952 1.759 3.518-1.904zM28 24h4v-2h-4v2zm-2.478 5.718l3.405 2.1 1.05-1.702-3.405-2.1-1.05 1.702zM5.857 15.699l-3.518-1.904-.952 1.759 3.518 1.904.952-1.759zM4 22H0v2h4v-2zm1.428 6.016l-3.405 2.1 1.05 1.702 3.405-2.1-1.05-1.702zM5.893 22c0-3.261 1.584-6.129 4-7.955V10h12v4.045c2.416 1.825 4 4.694 4 7.955 0 5.523-4.477 10-10 10s-10-4.477-10-10zm2 0c0 4.411 3.589 8 8 8s8-3.589 8-8c0-2.502-1.168-4.82-3.206-6.359l-.794-.6V12h-8v3.041l-.794.6C9.061 17.18 7.893 19.498 7.893 22z"/></symbol><symbol viewBox="0 0 32 32" id="000719-mug-02"><path  d="M22 2H0v28h22v-8h8V6h-8V2zm-2 26H2V4h18v24zm8-20v12h-6V8h6z"/></symbol><symbol viewBox="0 0 32 32" id="000723-trashcan"><path  d="M22 2H10v6H4v4h2v20h20V12h2V8h-6V2zM12 30H8V12h4v18zm0-26h8v4h-8V4zm6 26h-4V12h4v18zm6-18v18h-4V12h4z"/></symbol><symbol viewBox="0 0 32 32" id="000738-compass"><path  d="M8.929 23.071l9.898-4.243 4.242-9.899-9.898 4.243-4.242 9.899zm10.334-10.335l-1.959 4.568-2.609-2.609 4.568-1.959zM16 0A15.95 15.95 0 0 0 4.686 4.686c-6.249 6.248-6.249 16.379 0 22.627C7.81 30.438 11.905 32 16 32s8.189-1.562 11.313-4.686c6.249-6.248 6.249-16.379 0-22.627A15.947 15.947 0 0 0 16 0zm9.899 25.9C23.255 28.544 19.739 30 16 30s-7.255-1.456-9.9-4.101S2 19.74 2 16s1.456-7.255 4.1-9.9C8.745 3.456 12.26 2 16 2s7.255 1.456 9.899 4.101S30 12.26 30 16s-1.456 7.255-4.101 9.9z"/></symbol><symbol viewBox="0 0 32 32" id="000744-paintbrush"><path  d="M12.426 22.597S25.426.08 26.725.83 15.024 24.097 15.024 24.097l-2.598-1.5zm1.258 3.383c-1.294-1.954-5.039-2.513-5.768 1.96C7.575 30.031 4 30.398 4 30.398c7.956 4.575 11.391-1.842 9.684-4.418z"/></symbol><symbol viewBox="0 0 32 32" id="000749-cigarette"><path  d="M7.657 21.515L26.042 3.13l2.828 2.828-18.385 18.385-2.828-2.828zM4.828 30l1.414-1.414-2.828-2.828L2 27.172 4.828 30zm0-5.657l2.828 2.828 1.414-1.414-2.828-2.828-1.414 1.414zM7.994 6.012s-6.087-.437-5.993 3.996c.058 2.716 3.913 2.04 3.913 4.038S2.001 18 2.001 18s5.661-.542 5.993-3.996c.191-1.989-4.175-2.31-4.175-4.308 0-1.998 4.175-3.684 4.175-3.684z"/></symbol><symbol viewBox="0 0 32 32" id="000785-speaker-volume-two"><path  d="M6 12l10-7v23L6 20H0v-8h6zm17.313-7.313c6.238 6.237 6.238 16.389 0 22.627l1.414 1.415c7.03-7.03 7.03-18.428 0-25.456l-1.414 1.414zm-2.828 19.798c4.687-4.687 4.687-12.284 0-16.971l-1.414 1.414c3.899 3.899 3.899 10.243 0 14.143l1.414 1.414z"/></symbol><symbol viewBox="0 0 32 32" id="000786-speaker-volume-two-02"><path  d="M0 10v12h6l10 8V2L6 10H0zm14-3.839v19.678L6.702 20H2v-8h4.702L14 6.161zm10.728-2.889c7.029 7.029 7.03 18.426 0 25.456l-1.414-1.414c6.238-6.238 6.238-16.389 0-22.627l1.414-1.415zm-5.657 19.799c3.899-3.899 3.899-10.243 0-14.142l1.414-1.414c4.686 4.686 4.686 12.284 0 16.97l-1.414-1.414z"/></symbol><symbol viewBox="0 0 32 32" id="000799-arrow-left"><path  d="M16 27.546L3.011 16 16 4.454V12h14v8H16v7.546M18 32V22h14V10H18V0L0 16l18 16z"/></symbol><symbol viewBox="0 0 32 32" id="000800-arrow-up"><path  d="M4.454 16L16 3.011 27.546 16H20v14h-8V16H4.454M0 18h10v14h12V18h10L16 0 0 18z"/></symbol><symbol viewBox="0 0 32 32" id="000801-arrow-down"><path  d="M27.546 16L16 28.989 4.454 16H12V2h8v14h7.546M32 14H22V0H10v14H0l16 18 16-18z"/></symbol><symbol viewBox="0 0 32 32" id="000802-arrow-right"><path  d="M16 4.454L28.989 16 16 27.546V20H2v-8h14V4.454M14 0v10H0v12h14v10l18-16L14 0z"/></symbol><symbol viewBox="0 0 32 32" id="000807-arrow-left-02"><path  d="M14 14h16v4H14v10L0 16 14 4v10z"/></symbol><symbol viewBox="0 0 32 32" id="000808-arrow-up-02"><path  d="M16 2l12 14H18v16h-4V16H4L16 2z"/></symbol><symbol viewBox="0 0 32 32" id="000809-arrow-down-02"><path  d="M18 18h10L16 32 4 18h10V2h4v16z"/></symbol><symbol viewBox="0 0 32 32" id="000810-arrow-right-02"><path  d="M16 4l14 12-14 12V18H0v-4h16V4z"/></symbol><symbol viewBox="0 0 32 32" id="000812-arrow-diagonal-up-right"><path  d="M9.615 5.414L28 4l-1.414 18.385-7.071-7.071L8.201 26.627l-2.828-2.828 11.314-11.314-7.072-7.071z"/></symbol><symbol viewBox="0 0 32 32" id="000813-arrow-diagonal-down-right"><path  d="M26.544 9.615L27.958 28 9.574 26.586l7.071-7.071L5.331 8.201l2.828-2.828 11.314 11.314 1.414-1.414 5.657-5.658z"/></symbol><symbol viewBox="0 0 32 32" id="000814-arrow-diagonal-down-left"><path  d="M22.385 26.544L4 27.958 5.414 9.574l7.071 7.071L23.799 5.331l2.828 2.828-11.313 11.314 1.414 1.414 5.657 5.657z"/></symbol><symbol viewBox="0 0 32 32" id="000815-arrow-diagonal-up-left"><path  d="M15.355 12.485l11.314 11.314-2.828 2.828-11.314-11.313-7.071 7.071L4.042 4l18.385 1.414-7.072 7.071z"/></symbol><symbol viewBox="0 0 32 32" id="000827-calendar-02"><path  d="M4 28.002v-4h4v4H4zm10.002-4h-4v4h4v-4zm5.998 0h-4v4h4v-4zm6 0h-4v4h4v-4zM8 18H4v4h4v-4zm6.002 0h-4v4h4v-4zM20 18h-4v4h4v-4zm6 0h-4v4h4v-4zM8 12H4v4h4v-4zm6.002 0h-4v4h4v-4zM20 12h-4v4h4v-4zm6 0h-4v4h4v-4zm0-8h4v28H0V4h4V0h6v4h10V0h6v4zm-4 2h2V2h-2v4zM6 6h2V2H6v4zm22 4H2v20h26V10z"/></symbol><symbol viewBox="0 0 32 32" id="000846-arrow-right-05"><path  d="M32 17L16.998 28.786l-1.234-1.572L27.489 18H0v-2h27.489L15.764 6.786l1.234-1.572L32 17z"/></symbol><symbol viewBox="0 0 32 32" id="000847-arrow-left-05"><path  d="M15.002 5.214l1.234 1.572L4.511 16H32v2H4.511l11.726 9.214-1.234 1.572L0 17 15.002 5.214z"/></symbol><symbol viewBox="0 0 32 32" id="000848-arrow-down-05"><path  d="M3.214 16.998l1.572-1.234L14 27.489V0h2v27.489l9.214-11.726 1.572 1.234L15 32 3.214 16.998z"/></symbol><symbol viewBox="0 0 32 32" id="000849-arrow-up-05"><path  d="M26.786 15.002l-1.572 1.234L16 4.511V32h-2V4.511L4.786 16.236l-1.572-1.234L15 0l11.786 15.002z"/></symbol><symbol viewBox="0 0 32 32" id="000850-flower-03"><path  d="M28 21.918s-3.608 14.192-8.9 8.9 8.9-8.9 8.9-8.9zm-17.172 8.909C16.077 25.578 2 22 2 22s3.579 14.078 8.828 8.827zM4 12.538c0-2.302 1.623-4.206 3.75-4.588a4.735 4.735 0 0 1-1.307-3.277C6.443 2.089 8.475 0 10.982 0c1.76 0 3.266 1.038 4.02 2.545C15.756 1.038 17.262 0 19.023 0c2.504 0 4.539 2.089 4.539 4.673 0 1.273-.5 2.434-1.313 3.277C24.377 8.332 26 10.236 26 12.538c0 2.576-2.029 4.673-4.539 4.673a4.445 4.445 0 0 1-1.982-.488c.027.202.063.401.063.605 0 2.229-1.518 4.082-3.541 4.551V32h-2V21.877c-2.023-.469-3.537-2.32-3.537-4.549 0-.204.031-.403.059-.605-.6.3-1.27.488-1.98.488C6.035 17.211 4 15.114 4 12.538zm11-4.621c-1.654 0-3 1.346-3 3s1.346 3 3 3 3-1.346 3-3-1.346-3-3-3zm2.541 9.411c-.002-.068-.016-.138-.026-.209l-.018-.128-.222-1.644a4.943 4.943 0 0 1-2.274.571 4.94 4.94 0 0 1-2.274-.571l-.222 1.644c-.022.164-.041.249-.041.337 0 1.26.818 2.329 1.989 2.601l.552.128.545-.126c1.153-.268 1.991-1.362 1.991-2.603zm4.355-7.409l-2.113-.379c.127.44.217.896.217 1.377 0 1.238-.467 2.356-1.212 3.229l1.58.785c.374.185.741.28 1.093.28 1.4 0 2.539-1.199 2.539-2.673 0-1.299-.885-2.4-2.104-2.619zM15.524 5.97a4.976 4.976 0 0 1 3.68 2.259l1.605-1.667a2.71 2.71 0 0 0 .753-1.89C21.563 3.199 20.423 2 19.023 2c-.933 0-1.789.552-2.233 1.44l-1.266 2.53zM8.443 4.673c0 .715.267 1.388.752 1.895l1.596 1.669a4.977 4.977 0 0 1 3.688-2.267l-1.266-2.53C12.769 2.552 11.914 2 10.982 2 9.583 2 8.443 3.199 8.443 4.673zM6 12.538c0 1.474 1.14 2.673 2.541 2.673.353 0 .718-.093 1.086-.277l1.582-.791A4.952 4.952 0 0 1 10 10.917c0-.481.09-.938.217-1.378l-2.113.38C6.885 10.138 6 11.239 6 12.538z"/></symbol><symbol viewBox="0 0 32 32" id="000856-arrow-left-07"><path  d="M23.556 3.272L10.828 16l12.728 12.728-1.414 1.414L8 16 22.142 1.858l1.414 1.414z"/></symbol><symbol viewBox="0 0 32 32" id="000857-arrow-right-07"><path  d="M9.858 1.858L24 16 9.858 30.142l-1.414-1.414L21.172 16 8.444 3.272l1.414-1.414z"/></symbol><symbol viewBox="0 0 32 32" id="000858-arrow-down-07"><path  d="M30.142 9.858L16 24 1.858 9.858l1.414-1.414L16 21.172 28.728 8.444l1.414 1.414z"/></symbol><symbol viewBox="0 0 32 32" id="000859-arrow-up-07"><path  d="M1.858 22.142L16 8l14.142 14.142-1.414 1.414L16 10.828 3.272 23.556l-1.414-1.414z"/></symbol><symbol viewBox="0 0 32 32" id="000884-article-two-columns-picture"><path  d="M0 32h30V0H0v32zM2 2h26v28H2V2zm4 12h8v2H6v-2zm0-8h8v6H6V6zm0 12h8v2H6v-2zm0 4h8v2H6v-2zm10-8h8v2h-8v-2zm0-8h8v2h-8V6zm0 4h8v2h-8v-2zm0 8h8v2h-8v-2zm0 4h8v2h-8v-2z"/></symbol><symbol viewBox="0 0 32 32" id="000989-magnifying-glass"><path  d="M11 2c4.963 0 9 4.037 9 9s-4.037 9-9 9-9-4.037-9-9 4.037-9 9-9m0-2C4.925 0 0 4.925 0 11s4.925 11 11 11 11-4.925 11-11S17.075 0 11 0zm7.729 21.539L27.19 30 30 27.188l-8.459-8.46-2.812 2.811z"/></symbol><symbol viewBox="0 0 32 32" id="001017-pencil-02"><path  d="M10.08 27.577L0 32l4.423-10.08 5.657 5.657zM22.101 4.243L27.758 9.9 32 5.657 26.343 0l-4.242 4.243zm4.949 6.364l-.707-.707-15.556 15.556-1.414-1.414L24.929 8.485l-1.414-1.414L7.958 22.627l-1.414-1.414L22.101 5.657l-.708-.707L5.13 21.213l5.657 5.657L27.05 10.607z"/></symbol><symbol viewBox="0 0 32 32" id="001030-two-windows"><path  d="M24 4H0v20h8v6h24V10h-8V4zM8 18H2V6h20v4H8v8zm22-6v12H10V12h20z"/></symbol><symbol viewBox="0 0 32 32" id="001068-square-social-02"><path  d="M20 32h-3.938V20h-4.17v-4h4.17v-3.806C16.062 8.197 18.384 6 22.273 6 24 6 26 6.4 26 6.4V10h-4c-1.986 0-2 1.26-2 2.672V16h5.832l-.623 4H20v12zM32 0H0v32h14.062V22h-4.17v-8h4.17v-1.806C14.062 7.14 17.208 4 22.273 4c1.903 0 4.029.421 4.119.438L28 4.76V12h-5.988C22 12.216 22 14 22 14h6.167l-1.246 8H22v10h10V0z"/></symbol><symbol viewBox="0 0 32 32" id="001069-square-social-01"><path  d="M25.096 9.502c.623 2.998-1.189 16.654-15.57 16.439 3.1-1.723 3.413-2.044 5.6-4.441-2.645.439-4.395-.048-6.25-1.027l6.292-1.973c-3.953.036-7.01-1.188-9.057-2.889h5.381C8.793 14.458 6.2 12.31 5.363 9.966c3.851 3.062 8.209 3.822 12.963 4.064-.512-2.258-1.387-4.816.774-6.553 1.839-1.479 5.373-.973 5.996 2.025zM32 0v32H0V0h32zm-2 7.428c-1.03.468-2.137.786-3.3.928a5.88 5.88 0 0 0 2.526-3.259 11.325 11.325 0 0 1-3.648 1.43c-4.022-4.396-11.06-.21-9.788 5.372-4.774-.245-9.008-2.59-11.841-6.154-.494.87-2.168 4.81 1.778 7.865-1.294.035-2.602-.738-2.602-.738s-.141 4.737 4.608 5.85c-1.331.391-2.594.101-2.594.101s1.044 3.899 5.365 4.09C6.949 25.895 2.45 25.407 2 25.354c5.521 3.63 13.109 3.533 18.422-.453 4.407-3.306 6.966-8.936 6.712-14.423.972-.72 1.806-1.618 2.519-2.607.099-.103.211-.235.347-.443z"/></symbol><symbol viewBox="0 0 32 32" id="001070-square-social-03"><path  d="M12.375 13.292c-2.18-.065-4.25-1.295-4.542-4.167-.25-2.458 2.195-4.107 4.375-4.042s4.082.971 4.458 3.833c.377 2.864-2.111 4.441-4.291 4.376zm2.272 6.332a6.8 6.8 0 0 0-2.02-.324c-3.116-.034-6.026 1.05-6.026 3.372 0 2.37 2.577 3.923 5.686 3.721 3.922-.255 5.57-1.779 5.587-3.6.003-.286.015-.582-.099-.837-.42-.939-.845-1.751-3.128-2.332zM32 0v32H0V0h32zM19.534 22.477c0-2.221-.655-3.555-2.682-4.987-.693-.491-2.018-1.684-2.018-2.385 0-.822.234-1.227 1.472-2.193 1.268-.991 1.986-1.666 1.986-3.286 0-.852-.253-2.855-1.15-3.668L18.431 6l1.716-2h-7.668C9.042 4 5.806 6.223 5.806 9.24c0 3.083 2.653 5.46 6.15 5.46.244 0 .48-.1.711-.117-.083 2.167 1.375 3.333 1.75 3.5-.402-.179-2.619-.333-3.083-.333-4.258 0-7.186 2.948-7.186 5.76 0 2.77 3.593 4.495 7.851 4.495 4.854 0 7.535-2.758 7.535-5.528zM30 14h-4v-4h-2v4h-4v2h4v4h2v-4h4v-2z"/></symbol><symbol viewBox="0 0 32 32" id="001071-social-01"><path  d="M32 6.489a12.917 12.917 0 0 1-3.771 1.061 6.726 6.726 0 0 0 2.888-3.725 12.936 12.936 0 0 1-4.17 1.634 6.48 6.48 0 0 0-4.791-2.125c-3.625 0-6.565 3.014-6.565 6.731 0 .528.058 1.042.169 1.534-5.456-.281-10.294-2.96-13.532-7.033a6.826 6.826 0 0 0-.889 3.384 6.779 6.779 0 0 0 2.921 5.604c-1.076-.036-2.975-.757-2.975-.757s-.191 5.328 5.268 6.6c-.896.416-2.965.116-2.965.116s1.163 4.519 6.132 4.675C5.125 27.844 0 26.975 0 26.975S4.219 30 10.064 30c12.076 0 18.679-10.258 18.679-19.155 0-.291-.005-.582-.018-.871A13.539 13.539 0 0 0 32 6.489zM10.064 28c-.834 0-1.66-.064-2.477-.189 4.621-1.977 7.682-5.518 7.682-5.518s-6.186.915-8.18-1.059c2.16-.693 3.452-1.443 3.91-2.276 0 0-6.188-1.427-7.156-3.615 4.594 1.094 7.199.445 7.199.445s-4.959-.998-7.656-7.145c3.43 2.955 7.738 4.719 12.271 4.951l2.635.135-.582-2.574a4.96 4.96 0 0 1-.121-1.092c0-2.607 2.047-4.73 4.564-4.73 1.27 0 4.471 1.104 4.588 5.512C26.926 17.752 21.568 28 10.064 28z"/></symbol><symbol viewBox="0 0 32 32" id="001072-social-02"><path  d="M20 2c.947 0 1.903.035 2.686.077V4H22c-2.617 0-4 1.412-4 4.083v5.346h4.765L22.318 16H18v14h-4V16h-4v-2.571h4v-5.91C14 3.707 17.013 2 20 2m0-2c-4.182 0-8 2.651-8 7.519v3.909H8V18h4v14h8V18h4l1.143-6.571H20V8.083C20 6.436 20.567 6 22 6h2.686V.224C24.184.155 22.003 0 20 0z"/></symbol><symbol viewBox="0 0 32 32" id="001073-social-03"><path  d="M2 26.008C2 29.7 6.789 32 12.466 32c6.471 0 10.045-3.677 10.045-7.369 0-2.96-.874-4.739-3.575-6.648-.924-.654-2.69-2.245-2.69-3.18 0-1.095.312-1.635 1.962-2.924 1.69-1.321 2.647-2.22 2.647-4.381 0-1.136-.337-4.118-1.534-5.201h1.71L23.329 0H13.106C8.524 0 4.211 2.963 4.211 6.985c0 4.11 3.536 7.279 8.198 7.279.325 0 1.127-.086 1.435-.108-.111 2.889 1.781 4.403 2.281 4.625-.536-.238-2.406-.563-3.906-.563C6.543 18.219 2 22.259 2 26.008zm10.968-13.622c-2.906-.087-6.037-1.474-6.426-5.303-.333-3.277 3.299-5.726 6.204-5.64 2.905.087 5.441 1.294 5.943 5.11.502 3.818-2.816 5.92-5.721 5.833zM20.3 25.053c.025 2.427-1.697 4.898-6.925 5.238-4.145.269-8.104-2.241-8.104-5.4 0-3.096 3.88-4.562 8.033-4.495 6.363.104 6.988 3.896 6.996 4.657zM32 16h-4v4h-2v-4h-4v-2h4v-4h2v4h4v2z"/></symbol><symbol viewBox="0 0 32 32" id="001074-social-05"><path  d="M17.148 0C8.415 0 3.736 6.268 4.012 11.482c.156 2.955 1.5 4.518 3.375 6.205.338.304 1.063.75 1.063.75l.75-1.875s-1.313-1.344-1.656-1.875c-.622-.961-1.25-2.15-1.25-3.75 0-4.646 5.051-8.875 10.625-8.875 4.936 0 9.677 3.396 9.344 8.656-.449 7.08-4.184 10.531-7.667 10.531-1.922 0-3.89-2.925-3.427-4.875.551-2.329 1.531-4.288 1.531-5.969 0-1.504-.375-3.031-1.994-3.275a.934.934 0 0 0-.129-.01c-1.069 0-2.345 1.917-2.345 4.534 0 1.735.365 4.052.365 4.052s-2.468 7.89-2.615 9.417c-.31 3.22-.021 6.509.03 6.877 0 0 1.922-3.362 2.719-6.25.225-.818 1.281-5.938 1.281-5.938.75 1.594 1.75 3.25 4.854 3.314l.192.002c5.803 0 9.725-5.467 9.725-12.599C28.783 5.077 24.165 0 17.148 0z"/></symbol><symbol viewBox="0 0 32 32" id="001075-social-04"><path  d="M6 28a2 2 0 1 1-4.001-.001A2 2 0 0 1 6 28zM2 2v2c14.337 0 26 11.664 26 26h2C30 14.536 17.464 2 2 2zm0 8v2c9.925 0 18 8.075 18 18h2c0-11.046-8.954-20-20-20zm0 8v2c5.514 0 10 4.486 10 10h2c0-6.627-5.373-12-12-12z"/></symbol><symbol viewBox="0 0 32 32" id="001076-square-social-05"><path  d="M0 0v32h32V0H0zm18.676 22.237l-.168-.002c-2.716-.056-3.591-1.505-4.247-2.9 0 0-.924 4.48-1.121 5.195-.698 2.528-2.38 5.47-2.38 5.47-.044-.322-.297-3.2-.027-6.016.128-1.336 2.288-8.24 2.288-8.24s-.319-2.028-.319-3.546c0-2.29 1.117-3.968 2.052-3.968.038 0 .076.003.113.008 1.417.213 1.745 1.549 1.745 2.866 0 1.471-.857 3.185-1.34 5.223-.405 1.707 1.317 4.266 2.999 4.266 3.047 0 6.316-3.02 6.708-9.215.292-4.603-3.857-7.574-8.176-7.574-4.877 0-9.297 3.701-9.297 7.766 0 1.4.549 2.44 1.094 3.281.301.465 1.449 1.641 1.449 1.641l-.656 1.641s-.634-.39-.93-.656C6.823 16 5.647 14.633 5.51 12.047 5.269 7.485 9.363 2 17.004 2c6.14 0 10.181 4.443 10.181 9.214 0 6.24-3.432 11.023-8.509 11.023z"/></symbol><symbol viewBox="0 0 32 32" id="001077-social-06"><path  d="M28 8v16H4V8h24m2-2H2v20h28V6zM13.2 20.286v-8.571L21.6 16l-8.4 4.286z"/></symbol><symbol viewBox="0 0 32 32" id="001078-circle-social-02"><path  d="M32 16c0-8.837-7.163-16-16-16S0 7.163 0 16s7.163 16 16 16c.711 0 1.406-.062 2.092-.152v-13.24h-4.17V15.78h4.17v-4.563c0-3.42 1.898-5.383 5.211-5.383 1.064 0 2.039.049 2.727.1v2.41h-1.557c-3.393 0-3.393 2.523-3.393 3.352v4.084h4.645l-.365 2.828h-4.28v12.555C27.423 29.038 32 23.059 32 16z"/></symbol><symbol viewBox="0 0 32 32" id="001090-music"><path  d="M12 2v21.025C10.938 22.39 9.539 22 8 22c-3.314 0-6 1.791-6 4s2.686 4 6 4 6-1.791 6-4V7.8l16-1.6v14.825C28.938 20.39 27.539 20 26 20c-3.314 0-6 1.791-6 4s2.686 4 6 4 6-1.791 6-4V0L12 2z"/></symbol><symbol viewBox="0 0 32 32" id="001094-circle-question-mark-02"><path  d="M15 2C6.716 2 0 8.716 0 17s6.716 15 15 15c8.284 0 15-6.716 15-15S23.284 2 15 2zm1 22h-2v-2h2v2zm3.302-8.189c-.587.777-1.139 1.216-1.627 1.604-.5.397-.896.711-1.304 1.365a2.676 2.676 0 0 0-.369 1.219V20h-2c0-.122.018-1.23.673-2.279.591-.946 1.21-1.438 1.756-1.872.433-.344.841-.668 1.274-1.243.296-.392.475-1.46.024-2.366-.409-.823-1.209-1.24-2.375-1.24-1.238 0-2.144.307-2.694.914-.746.823-.655 1.977-.654 1.988L12.01 15h-2v-1c-.005 0-.174-1.95 1.168-3.43.945-1.042 2.35-1.57 4.176-1.57 2.606 0 3.729 1.471 4.166 2.349.714 1.433.62 3.351-.218 4.462z"/></symbol><symbol viewBox="0 0 32 32" id="001096-location-02"><path  d="M16 2c2.137 0 4.146.832 5.657 2.343A7.948 7.948 0 0 1 24 10c0 3.817-4.823 12.786-8.002 18.161C12.386 22.064 8 13.51 8 10c0-2.137.832-4.146 2.343-5.657A7.948 7.948 0 0 1 16 2m0-2a9.968 9.968 0 0 0-7.071 2.929A9.968 9.968 0 0 0 6 10c0 6.188 10 22 10 22s10-15.813 10-22a9.968 9.968 0 0 0-2.929-7.071A9.968 9.968 0 0 0 16 0zm0 14a4 4 0 1 1 0-8 4 4 0 0 1 0 8z"/></symbol><symbol viewBox="0 0 32 32" id="001149-padlock-open-03"><path  d="M23.515 10.738A8 8 0 0 0 8.48 5.266L7.112 9.025l1.879.684L10.36 5.95c1.132-3.109 4.581-4.718 7.69-3.586s4.718 4.581 3.586 7.69L20.2 14H6v18h20V14h-3.672l1.187-3.262zM18 26h-4l.841-4.414C14.344 21.223 14 20.663 14 20a2 2 0 0 1 4 0c0 .663-.344 1.223-.841 1.586L18 26z"/></symbol><symbol viewBox="0 0 32 32" id="001150-padlock-closed-03"><path  d="M24 10a8 8 0 0 0-16 0v4H6v18h20V14h-2v-4zm-6 16h-4l.841-4.414C14.344 21.223 14 20.663 14 20a2 2 0 0 1 4 0c0 .663-.344 1.223-.841 1.586L18 26zm4-12H10v-4c0-3.309 2.692-6 6-6s6 2.691 6 6v4z"/></symbol><symbol viewBox="0 0 32 32" id="001177-classic-mouse-pointer"><path  d="M6 26.832l6.936-6.884L19.076 32l5.346-2.724-6.087-11.946 9.253-1.394L6 0v26.832zm2-22.87l14.515 10.715-7.222 1.088 6.439 12.637-1.782.908-6.477-12.712L8 22.029V3.962z"/></symbol><symbol viewBox="0 0 32 32" id="001186-kid-smiling"><path  d="M21.168 19.945l1.664 1.109c-.094.141-2.348 3.446-6.832 3.446s-6.738-3.305-6.832-3.445l1.662-1.113c.07.103 1.783 2.558 5.17 2.558 3.426 0 5.15-2.529 5.168-2.555zM22 12a2 2 0 1 0 .001 4.001A2 2 0 0 0 22 12zm-10 2a2 2 0 1 0-4.001.001A2 2 0 0 0 12 14zm20 2c0 8.837-7.163 16-16 16S0 24.837 0 16 7.163 0 16 0s16 7.163 16 16zm-2 0c0-5.51-3.208-10.273-7.847-12.556C23.202 11.798 16 10 16 10s2.326-1.484 2.344-4.375c.008-1.298-.969-2.563-.969-2.563C16.285 8.911 12 6.009 12 6.009s3.521-.639 3.129-3.965C7.815 2.497 2 8.574 2 16c0 7.72 6.28 14 14 14s14-6.28 14-14z"/></symbol><symbol viewBox="0 0 32 32" id="001188-arrows-four-directions-2"><path  d="M14 7.999H9l6-6 6 6h-5V14h-2V7.999zM6 18h6v-2H6v-5.001l-6 6 6 6V18zm10 7.999V20h-2v5.999H9l6 6 6-6h-5zM24 16h-6v2h6v4.999l6-6-6-6V16z"/></symbol><symbol viewBox="0 0 32 32" id="001207-arrows-four-directions-04"><path  d="M11.757 18.828l1.414 1.414-4.464 4.464L12 28H4v-8l3.293 3.293 4.464-4.465zM12 4H4v8l3.293-3.293 4.464 4.464 1.414-1.414-4.464-4.464L12 4zm11.293 3.293l-4.464 4.464 1.414 1.414 4.464-4.464L28 12V4h-8l3.293 3.293zm-3.05 11.535l-1.414 1.414 4.464 4.464L20 28h8v-8l-3.293 3.293-4.464-4.465z"/></symbol><symbol viewBox="0 0 32 32" id="001214-two-arrows-refresh-03"><path  d="M0 16c0-4.095 1.562-8.19 4.686-11.314S11.905 0 16 0a15.95 15.95 0 0 1 11.314 4.686c.069.069.13.142.197.211L32 0v12H21l5.149-5.617c-.087-.092-.159-.193-.25-.283C23.255 3.456 19.74 2 16 2S8.745 3.456 6.1 6.1A13.96 13.96 0 0 0 2.006 16H0zm4.686 11.314A15.95 15.95 0 0 0 16 32c4.095 0 8.19-1.562 11.314-4.686S32 20.095 32 16h-2.007a13.96 13.96 0 0 1-4.094 9.9C23.255 28.544 19.74 30 16 30s-7.255-1.456-9.899-4.1c-.09-.09-.162-.191-.249-.283L11 20H0v12l4.489-4.897c.067.069.129.142.197.211z"/></symbol><symbol viewBox="0 0 32 32" id="001218-eye-02"><path  d="M19 16a3.001 3.001 0 0 1-6 0c0-1.655 1.345-3 3-3s3 1.345 3 3zm13 0s-6 8-16 8-16-8-16-8 6-8 16-8 16 8 16 8zm-10-.099c0-3.273-2.687-5.926-6-5.926s-6 2.653-6 5.926 2.687 5.926 6 5.926 6-2.653 6-5.926z"/></symbol><symbol viewBox="0 0 32 32" id="001222-circle-arrow-right-05"><path  d="M12.001 22V10l10 6-10 6zM16 2C8.281 2 2 8.281 2 16s6.28 14 14 14 14-6.28 14-14S23.72 2 16 2m0-2c8.836 0 16 7.163 16 16s-7.163 16-16 16S0 24.837 0 16 7.164 0 16 0z"/></symbol><symbol viewBox="0 0 32 32" id="001223-circle-arrow-down-05"><path  d="M10 12.001h12l-6 10-6-10zM30 16c0-7.719-6.28-14-14-14S2 8.281 2 16s6.28 14 14 14 14-6.28 14-14m2 0c0 8.836-7.163 16-16 16S0 24.837 0 16 7.163 0 16 0c8.836 0 16 7.164 16 16z"/></symbol><symbol viewBox="0 0 32 32" id="001224-circle-arrow-left-05"><path  d="M10 16l10-6v12l-10-6zm6-14C8.281 2 2 8.281 2 16s6.28 14 14 14 14-6.28 14-14S23.72 2 16 2m0-2c8.836 0 16 7.163 16 16s-7.163 16-16 16S0 24.837 0 16C0 7.164 7.164 0 16 0z"/></symbol><symbol viewBox="0 0 32 32" id="001225-circle-arrow-up-05"><path  d="M16 10l6 10H10l6-10zm14 6c0-7.719-6.28-14-14-14S2 8.28 2 16s6.28 14 14 14 14-6.281 14-14m2 0c0 8.836-7.163 16-16 16S0 24.836 0 16 7.163 0 16 0s16 7.163 16 16z"/></symbol><symbol viewBox="0 0 32 32" id="001227-document-blank"><path  d="M28 8l-8-8H2v32h26V8zm-2 22H4V2h14v8h8v20z"/></symbol><symbol viewBox="0 0 32 32" id="001232-sheet-text"><path  d="M5.999 14h18v2h-18v-2zm.002-6h17.998V6H6.001v2zM6 12h17.999v-2H6v2zM2 0h26v32H2V0zm2 30h22V2H4v28z"/></symbol><symbol viewBox="0 0 32 32" id="001297-document-pdf"><path  d="M2 20h2a2 2 0 0 0 2-2v-2a2 2 0 0 0-2-2H0v10h2v-4zm0-4h2v2H2v-2zm12 6v-6a2 2 0 0 0-2-2H8v10h4a2 2 0 0 0 2-2zm-4-6h2v6h-2v-6zm8 0v2h2v2h-2v4h-2V14h6v2h-4zm6-16l8 8v24H6v-6h2v4h22V10h-8V2H8v10H6V0h18z"/></symbol><symbol viewBox="0 0 32 32" id="001298-document-doc"><path  d="M24 0l8 8v24H6v-6h2v4h22V10h-8V2H8v10H6V0h18zM6 16v6a2 2 0 0 1-2 2H0V14h4a2 2 0 0 1 2 2zm-2 6v-6H2v6h2zm18-6v-2h-4a2 2 0 0 0-2 2v6a2 2 0 0 0 2 2h4v-2h-4v-6h4zm-8 0v6a2 2 0 0 1-2 2h-2c-1.105.002-2-.895-2-2h.004v-5.996A1.998 1.998 0 0 1 10 14h2c1.105-.002 2 .895 2 2zm-2 .001l-2 .001V22h2v-5.999z"/></symbol><symbol viewBox="0 0 32 32" id="001299-document-eps"><path  d="M24 0l8 8v24H6v-6h2v4h22V10h-8V2H8v10H6V0h18zM6 22H2v-2h2v-2H2v-2h4v-2H0v10h6v-2zm12 0h-2a2 2 0 0 0 2 2h2a2 2 0 0 0 2-2v-2a2 2 0 0 0-2-2h-2v-2h4a2 2 0 0 0-2-2h-2a2 2 0 0 0-2 2v2a2 2 0 0 0 2 2h2v2h-2zm-8-2v4H8V14h4a2 2 0 0 1 2 2v2a2 2 0 0 1-2 2h-2zm0-2h2v-2h-2v2z"/></symbol><symbol viewBox="0 0 32 32" id="001300-document-ai"><path  d="M14 14v10h-2V14h2zM2 24H0l4-10h2l4 10H8l-.801-2H2.801L2 24zm1.6-4h2.8L5 16.5 3.6 20zM6 0v12h2V2h14v8h8v20H8v-4H6v6h26V8l-8-8H6z"/></symbol><symbol viewBox="0 0 32 32" id="001301-document-png"><path  d="M24 0l8 8v24H6v-6h2v4h22V10h-8V2H8v10H6V0h18zm0 16v-2h-4a2 2 0 0 0-2 2v6a2 2 0 0 0 2 2h2a2 2 0 0 0 2-2v-4h-2v4h-2v-6h4zM2 24H0V14h4a2 2 0 0 1 2 2v2a2 2 0 0 1-2 2H2v4zm0-6h2v-2H2v2zm12 6h2V14h-2v6.666L10 14H8v10h2v-6.666L14 24z"/></symbol><symbol viewBox="0 0 32 32" id="001302-speech-bubble"><path  d="M.002 24h6L6 32l10-8h16V0H0l.002 24zM30 2v20H15.299L8 27.838 8.002 22h-6L2 2h28z"/></symbol><symbol viewBox="0 0 32 32" id="001303-document-psd"><path  d="M24 0l8 8v24H6v-6h2v4h22V10h-8V2H8v10H6V0h18zm-2 16v6a2 2 0 0 1-2 2h-4V14h4a2 2 0 0 1 2 2zm-2 6v-6h-2v6h2zm-8-4h-2v-2h4a2 2 0 0 0-2-2h-2a2 2 0 0 0-2 2v2a2 2 0 0 0 2 2h2v2H8a2 2 0 0 0 2 2h2a2 2 0 0 0 2-2v-2a2 2 0 0 0-2-2zm-6-2v2a2 2 0 0 1-2 2H2v4H0V14h4a2 2 0 0 1 2 2zm-2 2v-2H2v2h2z"/></symbol><symbol viewBox="0 0 32 32" id="001304-document-txt"><path  d="M24 0l8 8v24H6v-6h2v4h22V10h-8V2H8v10H6V0h18zM14 14l-2 3.333L10 14H8l3 5-3 5h2l2-3.333L14 24h2l-3-5 3-5h-2zM0 16h2v8h2v-8h2v-2H0v2zm18-2v2h2v8h2v-8h2v-2h-6z"/></symbol><symbol viewBox="0 0 32 32" id="001305-document-jpg"><path  d="M24 0l8 8v24H6v-6h2v4h22V10h-8V2H8v10H6V0h18zm-2 16v-2h-4a2 2 0 0 0-2 2v6a2 2 0 0 0 2 2h2a2 2 0 0 0 2-2v-4h-2v4h-2v-6h4zm-12 4v4H8V14h4a2 2 0 0 1 2 2v2a2 2 0 0 1-2 2h-2zm0-2h2v-2h-2v2zm-8 4H0a2 2 0 0 0 2 2h2a2 2 0 0 0 2-2v-8H0v2h4v6H2z"/></symbol><symbol viewBox="0 0 32 32" id="001341-circle-arrow-left-06"><path  d="M16 0C7.164 0 0 7.164 0 16s7.164 16 16 16 16-7.164 16-16S24.836 0 16 0zm8 18H14v6l-8-7 8-7v6h8V8h2v10z"/></symbol><symbol viewBox="0 0 32 32" id="001359-two-hearts"><path  d="M9 26c2.265-1.643 5.111-3.753 6.995-6.411C17.884 22.25 20.743 24.362 23 26c3.575-2.594 8.607-6.344 9-11.593l-.002-1.049c-.26-3.357-2.415-5.091-4.303-5.281a7.972 7.972 0 0 0-.832-.046c-1.906 0-2.943.803-3.862 1.85C21.935 8.666 20.535 8 19.06 8c-.485 0-.977.072-1.469.22a4.314 4.314 0 0 0-1.587.896c-.717-.607-1.532-.961-2.309-1.04a7.972 7.972 0 0 0-.832-.046c-1.906 0-2.943.803-3.862 1.85C7.935 8.666 6.535 8 5.06 8c-.485 0-.978.072-1.469.22C1.469 8.858.181 11.057 0 13.406l.002 1.048C.395 19.675 5.448 23.423 9 26zm9.167-15.865c.297-.09.598-.135.893-.135.893 0 1.758.426 2.437 1.199L23 12.912l1.503-1.713c.695-.792 1.226-1.17 2.359-1.17.193 0 .402.012.632.036.775.078 2.284.886 2.504 3.376l.002.888c-.331 3.868-4.005 6.967-7 9.193-2.084-1.548-4.494-3.519-5.88-5.864.472-1.015.793-2.094.88-3.251l-.002-1.049a6.743 6.743 0 0 0-.759-2.677c.267-.247.574-.44.928-.546zm-14 0c.297-.09.598-.135.893-.135.893 0 1.758.426 2.437 1.199L9 12.912l1.503-1.713c.695-.792 1.226-1.17 2.359-1.17.193 0 .402.012.632.036.342.034.826.225 1.281.626.574.507 1.101 1.36 1.224 2.75l.001.888c-.101 1.183-.518 2.294-1.13 3.33-1.388 2.352-3.791 4.318-5.87 5.863-2.996-2.225-6.669-5.321-6.998-9.15L2 13.487c.128-1.394.84-2.953 2.167-3.352z"/></symbol><symbol viewBox="0 0 32 32" id="001403-crop"><path  d="M26 6H8V0H6v6H0v2h6v18h18v6h2v-6h6v-2h-6V6zm-6 18H8V8h16v16h-4z"/></symbol><symbol viewBox="0 0 32 32" id="001425-two-pages-broken-line"><path  d="M2 20h28v12h-2V22H4v10H2V20zM30 2h-2v10H4V2H2v12h28V2zM10 18v-2H6v2h4zm18-2v2h4v-2h-4zm-8 2v-2h-8v2h8zm6 0v-2h-4v2h4zM4 16H0v2h4v-2z"/></symbol><symbol viewBox="0 0 32 32" id="001539-two-arrows-diagonal-03"><path  d="M14.707 13.293l-1.414 1.414-6-6L4 12V4h8L8.707 7.293l6 6zm8.586 11.414L20 28h8v-8l-3.293 3.293-6-6-1.414 1.414 6 6z"/></symbol><symbol viewBox="0 0 32 32" id="001541-two-arrows-diagonal-04"><path  d="M18.707 14.707l-1.414-1.414 6-6L20 4h8v8l-3.293-3.293-6 6zM7.293 23.293L4 20v8h8l-3.293-3.293 6-6-1.414-1.414-6 6z"/></symbol><symbol viewBox="0 0 32 32" id="001610-sheet-blank-question-mark-03"><path  d="M2 32h26V0H2v32zM4 2h22v28H4V2zm10 20h2v2h-2v-2zm4.757-12.776c1.232 1.249 1.246 2.938 1.243 3.127 0 1.777-1.209 2.825-2.275 3.749-1.07.927-1.725 1.547-1.725 2.574V20h-2v-1.326c0-1.991 1.339-3.152 2.415-4.085.982-.853 1.585-1.417 1.585-2.252-.001-.396-.126-2.337-2.5-2.337-2.344 0-2.5 2.241-2.5 2.69V14h-2v-1.317C11 11.38 11.808 8 15.5 8c1.36 0 2.456.412 3.257 1.224z"/></symbol><symbol viewBox="0 0 32 32" id="001715-circle-square-stop"><path  d="M16 2c7.72 0 14 6.28 14 14s-6.28 14-14 14S2 23.72 2 16 8.28 2 16 2m0-2C7.163 0 0 7.163 0 16s7.163 16 16 16 16-7.163 16-16S24.837 0 16 0zm4 12h-8v8h8v-8z"/></symbol><symbol viewBox="0 0 32 32" id="001719-layout-two-horizontal-rectangles"><path  d="M0 2v30h30V2H0zm28 28H2V4h26v26zm-2-2V18H4v10h22zM6 26v-6h18v6H6zm20-10V6H4v10h22zM6 14V8h18v6H6z"/></symbol><symbol viewBox="0 0 32 32" id="001720-layout-two-vertical-rectangles"><path  d="M30 2H0v30h30V2zM2 30V4h26v26H2zm2-2h10V6H4v22zM6 8h6v18H6V8zm10 20h10V6H16v22zm2-20h6v18h-6V8z"/></symbol><symbol viewBox="0 0 32 32" id="001811-square-circle-inside"><path  d="M0 32h32V0H0v32zM2 2h28v28H2V2zm14 8c3.308 0 6 2.692 6 6s-2.692 6-6 6-6-2.692-6-6 2.692-6 6-6m0-2a8 8 0 1 0 0 16 8 8 0 0 0 0-16z"/></symbol><symbol viewBox="0 0 32 32" id="001849-square-arrow-diagonal-right-down-02"><path  d="M26 14v12H14l12-12zM0 0h32v32H0V0zm2 30h28V2H2v28z"/></symbol><symbol viewBox="0 0 32 32" id="001995-layout-content-column-header-02"><path  d="M4 4h24v4H4V4M2 2v8h28V2H2zm2 12h4v14H4V14m-2-2v18h8V12H2zm12 2h14v14H14V14m-2-2v18h18V12H12z"/></symbol><symbol viewBox="0 0 32 32" id="002304-smelly-trash-can"><path  d="M6 4H4V2h2v2zm-2 6H2v2h2v-2zm22-8h-2v2h2V2zm4-2h-2v2h2V0zm0 8h-2v2h2V8zm-2 4h-2v2h2v-2zm-8-6h4v2H6V6h4V2h10v4zm-2-2h-6v2h6V4zM6 10h18l-2 22H8L6 10zm2.19 2l1.636 18h10.347l1.636-18H8.19z"/></symbol><symbol viewBox="0 0 32 32" id="002305-whip"><path  d="M26.053 3.182C28.662 5.811 30 10.036 30 14.036V20h-4v-2.533c.002-.084.15-4.404-1.813-6.445-.66-.688-1.482-1.022-2.511-1.022-1.16 0-2.01.309-2.596.943-1.309 1.412-1.262 4.316-1.08 6.69.105 1.348.09 4.758-2.268 7.305C13.943 26.871 12 28 8 28v-2c2.928 0 4.869-.912 6.266-2.42 1.82-1.969 1.818-4.707 1.734-5.793-.229-2.951-.213-6.232 1.611-8.203C18.586 8.533 19.953 8 21.676 8c1.582 0 2.914.551 3.957 1.641.572.597.992 1.319 1.322 2.071-.068-.558-.174-1.099-.33-1.554-.664-1.934-3.254-4.594-7.69-4.098-4.908.576-5.393 4.754-5.82 8.439-.143 1.227-.277 2.385-.586 3.279C11.559 20.592 9.051 22 5.674 22c-.533.002-1.658 0-1.658 0L4 20s5.502.414 6.639-2.873c.238-.689.359-1.742.488-2.857.438-3.756 1.096-9.434 7.574-10.195 2.783-.32 5.147.442 6.904 1.706a9.045 9.045 0 0 0-.977-1.194c-2.104-2.117-5.18-2.936-9.121-2.447-2.58.322-5.742 1.834-6.875 5.119-.406 1.176-.605 2.346-.801 3.477-.32 1.869-.625 3.635-1.779 5.188C4.088 18.565 0 18.036 0 18.036v-2s3.178.404 4.447-1.305c.871-1.172 1.123-2.637 1.414-4.334.197-1.154.422-2.461.881-3.791 1.432-4.152 5.34-6.057 8.52-6.451 4.595-.573 8.23.445 10.791 3.027zM26 32h4V22h-4v10z"/></symbol><symbol viewBox="0 0 32 32" id="002309-handcuffs"><path  d="M24 4c-.494 0-.987.05-1.474.141l-2.937-2.937-2.532 2.532a2.99 2.99 0 0 0-2.044-2.387L11.2.141A2.978 2.978 0 0 0 10.293 0c-.887 0-1.714.415-2.28 1.089C7.501.734 6.928.502 6.33.502c-.768 0-1.536.293-2.121.879L1.38 4.209C.344 5.246.279 6.827 1.077 7.995a2.997 2.997 0 0 0-.936 3.206l1.208 3.813c.356 1.122 1.318 1.853 2.408 2.023L1.204 19.59l2.937 2.937a7.986 7.986 0 0 0 2.202 7.13C7.905 31.219 9.952 32 12 32s4.095-.781 5.657-2.343A8 8 0 0 0 12 16c-.077 0-.154.009-.231.017l-3.493-3.499-1.116 1.116c-.023-.144-.045-.289-.091-.433L5.86 9.388a2.976 2.976 0 0 0-.414-.819c.055-.048.125-.065.177-.118l2.828-2.828c.054-.054.072-.126.121-.182.246.174.513.324.815.42L13.2 7.069c.151.048.302.047.453.07l-1.137 1.137 3.53 3.537c-.054 2.11.684 4.233 2.295 5.844C19.905 19.219 21.952 20 24 20s4.095-.781 5.657-2.343A8 8 0 0 0 24 4zM7.757 19.757C8.89 18.624 10.397 18 12 18s3.109.624 4.243 1.757a6.007 6.007 0 0 1 0 8.485C15.109 29.376 13.602 30 12 30s-3.109-.624-4.243-1.757a6.008 6.008 0 0 1 0-8.486zm-3.246-4.696a.997.997 0 0 1-1.255-.651l-1.208-3.813a1 1 0 0 1 1.906-.604l1.208 3.813a1.001 1.001 0 0 1-.651 1.255zM7.037 4.209L4.209 7.037a.996.996 0 0 1-1.414 0 1 1 0 0 1 0-1.414l2.828-2.828a.995.995 0 0 1 .707-.293c.155 0 .452.038.707.293.255.255.293.552.293.707s-.038.452-.293.707zm8.024.302a.998.998 0 0 1-1.255.652L9.992 3.954a1 1 0 0 1 .604-1.907l3.813 1.208c.526.167.818.73.652 1.256zm13.181 11.732C27.109 17.376 25.602 18 24 18s-3.109-.624-4.243-1.757a6.007 6.007 0 0 1 0-8.485C20.89 6.624 22.397 6 24 6s3.109.624 4.243 1.757a6.007 6.007 0 0 1-.001 8.486z"/></symbol><symbol viewBox="0 0 32 32" id="002322-bong"><path  d="M31 14.071L23.929 7v2.828l-4.094 4.094A10.024 10.024 0 0 0 18 12.844V4l2-4H8l2 4v8.844C6.471 14.389 4 17.902 4 22c0 3.261 1.585 6.129 4 7.955V32h12v-2.045c2.415-1.825 4-4.694 4-7.955a9.902 9.902 0 0 0-.547-3.212l4.718-4.717H31zM18.794 28.359l-.794.6V30h-8v-1.04l-.794-.6C7.169 26.819 6 24.501 6 22a8.002 8.002 0 0 1 4.802-7.324L12 14.152V3.528L11.236 2h5.527L16 3.528v10.624l1.198.524A8.002 8.002 0 0 1 22 22c0 2.501-1.169 4.819-3.206 6.359zm7.963-15.702l-4.206 4.206a10.057 10.057 0 0 0-1.205-1.623l3.997-3.997 1.414 1.414z"/></symbol><symbol viewBox="0 0 32 32" id="002323-marijuana"><path  d="M24.59 14.539c2.223-2.643 2.213-8.358 2.213-8.358s-6.011 2.381-8.014 5.206C18.708 5.646 15 0 15 0s-3.708 5.646-3.788 11.387C9.208 8.563 3.198 6.181 3.198 6.181s-.01 5.714 2.213 8.358c-2.703-.206-5.411.89-5.411.89l1.102 2.102c1.414 2.699 3.793 3.964 6.694 4.692C5 25 4.029 28 4.029 28s5.21.87 9.971-2.402V32h2v-6.402C20.762 28.87 25.971 28 25.971 28s-.971-3-3.767-5.777c2.901-.728 5.28-1.993 6.694-4.692L30 15.429s-2.708-1.096-5.41-.89zm2.511 2.103c-1.613 3.078-4.966 3.824-9.732 4.425 2.193.871 3.816 2.717 5.297 5.058C18.279 25.933 15 22.053 15 22.053s-3.279 3.88-7.667 4.072c1.481-2.341 3.104-4.188 5.297-5.058-4.765-.601-8.118-1.347-9.732-4.425 0 0 .61-.174 1.665-.174 1.548 0 4.054.374 7.007 2.218-2.42-2.084-5.557-5.815-5.948-9.141 3.084 1.494 6.654 5.804 8.57 8.636C12.579 13.564 13.045 8.072 15 4.33c1.955 3.743 2.421 9.234.807 13.851 1.916-2.832 5.486-7.142 8.57-8.636-.391 3.326-3.528 7.057-5.948 9.141 2.952-1.844 5.459-2.218 7.007-2.218 1.055 0 1.665.174 1.665.174z"/></symbol><symbol viewBox="0 0 32 32" id="002329-male-torso"><path  d="M22 18a6.506 6.506 0 0 1-6-4c1.559 1.127 3.666 1.827 6 1.827s4.441-.7 6-1.827a6.506 6.506 0 0 1-6 4zm-8-4c-1.559 1.127-3.666 1.827-6 1.827s-4.441-.7-6-1.827c.984 2.349 3.298 4 6 4s5.016-1.651 6-4zm2 12c0-.037-.003-.067-.003-.104 1.502-.247 3.185-.975 4.837-2.369 0 0-2.029.471-4.921.588C15.675 21.386 15 20 15 20s-.676 1.388-.913 4.121C11.107 24.017 9 23.527 9 23.527c1.809 1.527 3.455 2.259 5.001 2.429L14 26v2.111c-2.845-.122-4.834-.584-4.834-.584 1.744 1.472 3.336 2.201 4.834 2.404V32h2v-2.081c1.543-.219 3.288-.947 5-2.392 0 0-2.066.48-5 .591V26zm8.323-4.105C22.614 24.19 22.161 29.167 22.042 32h2.008c.134-2.886.598-7.191 1.878-8.91.951-1.278 2.583-2.642 4.072-3.748v-2.466c-1.829 1.273-4.307 3.18-5.677 5.019zM0 16.876v2.466c1.489 1.106 3.121 2.47 4.072 3.748C5.353 24.81 5.817 29.114 5.95 32h2.008c-.119-2.833-.572-7.81-2.281-10.105-1.37-1.839-3.848-3.746-5.677-5.019zM22.127 3.492c-.708-.539-1.204-1.864-1.54-3.492h-2.03c.416 2.156 1.13 4.147 2.358 5.082 1.059.807 2.439 1.178 3.902 1.57 1.827.491 3.698.998 5.183 2.356V6.531c-1.532-.949-3.197-1.416-4.664-1.81-1.268-.34-2.463-.662-3.209-1.229zM9.084 5.082c1.229-.935 1.943-2.926 2.359-5.082h-2.03c-.336 1.628-.832 2.953-1.54 3.492-.746.567-1.941.889-3.209 1.229-1.467.394-3.132.861-4.664 1.81v2.478C1.485 7.65 3.356 7.143 5.182 6.652c1.463-.392 2.844-.763 3.902-1.57z"/></symbol><symbol viewBox="0 0 32 32" id="002331-joint"><path  d="M3.915 10.046c0-1.998-3.856-1.322-3.914-4.038-.094-4.433 5.993-3.996 5.993-3.996S1.819 3.697 1.819 5.695s4.366 2.319 4.175 4.308C5.662 13.458.001 14 .001 14s3.914-1.956 3.914-3.954zM32 6L6 30l-6-8L28 2l4 4zM9.979 23.605l-4.437-3.106-2.714 1.938 3.443 4.59 3.708-3.422zm8.15-7.523l-4.509-1.353-6.353 4.538 4.215 2.951 6.647-6.136zm5.128-4.733l-2.264-1.886-5.316 3.797 4.158 1.247 3.422-3.158zm5.857-5.407l-1.33-1.33-5.109 3.649 2.064 1.72 4.375-4.039z"/></symbol><symbol viewBox="0 0 32 32" id="002399-text-arrow-down-02"><path  d="M0 2h30v2H0V2zm0 8h30V8H0v2zm0 6h30v-2H0v2zm15 16l5-6h-4v-8h-2v8h-4l5 6z"/></symbol><symbol viewBox="0 0 32 32" id="002400-text-arrow-up-02"><path  d="M0 28h30v2H0v-2zm0-4h30v-2H0v2zm0-6h30v-2H0v2zM10 6h4v8h2V6h4l-5-6-5 6z"/></symbol><symbol viewBox="0 0 32 32" id="002412-menu-02"><path  d="M2 24h28v2H2v-2zm0-6h28v-2H2v2zm0-8h28V8H2v2z"/></symbol><symbol viewBox="0 0 32 32" id="002435-flag-chequered-02"><path  d="M26.92 8.619c-3.978-1.448-6.535-6.802-10.513-8.25-1.456-.53-3.103-.537-5.08.363A55804.203 55804.203 0 0 0 .275 31.297L2.203 32l5.485-15.049a5.875 5.875 0 0 1 2.562.332c3.98 1.449 6.541 6.805 10.518 8.252 1.455.53 3.101.536 5.075-.365L32 8.256c-1.977.9-3.623.893-5.08.363zm-2.648 15.023c-1.333.435-2.232.227-2.819.014-1.553-.565-2.984-2.055-4.499-3.631-.225-.235-.459-.467-.687-.702l2.319-6.372c-2.391-2.071-4.799-4.096-7.943-4.1l2.42-6.636c1.244-.365 2.097-.173 2.661.033 1.553.565 2.983 2.054 4.499 3.632.225.234.455.465.683.698l-2.32 6.373c2.427 2.102 4.868 4.168 8.082 4.108l-2.396 6.583z"/></symbol><symbol viewBox="0 0 32 32" id="002436-flag-empty-02"><path  d="M26.654 8.614C22.674 7.165 20.116 1.81 16.139.363c-1.455-.53-3.101-.536-5.076.364A27749.494 27749.494 0 0 0 0 31.321L1.861 32l5.507-15.048a5.885 5.885 0 0 1 2.619.326c3.978 1.448 6.535 6.803 10.513 8.251 1.456.53 3.523.537 5.5-.363 2.052-5.638 3.948-11.276 6-16.914-1.978.899-3.888.892-5.346.362zM24.5 23.636c-1.336.434-2.728.227-3.316.013-1.553-.565-2.984-2.055-4.499-3.632-1.764-1.837-3.589-3.736-6.014-4.619h-.001a7.87 7.87 0 0 0-2.559-.476L12.759 2.22c1.263-.381 2.128-.185 2.696.021 1.552.565 2.982 2.054 4.497 3.63 1.766 1.838 3.592 3.738 6.018 4.621.862.314 2.128.474 3.03.481l-4.5 12.663z"/></symbol><symbol viewBox="0 0 32 32" id="002463-four-hearts"><path  d="M11.001 32s-6.792-4.311-8.373-7.76c-1.118-2.438-.83-5.875 1.585-7.408 1.216-.779 2.506-1.018 3.736-.688 1.343.357 2.352 1.287 3.053 2.197.705-.91 1.714-1.84 3.057-2.195 1.222-.32 2.516-.082 3.738.697 2.409 1.539 2.694 4.975 1.579 7.404C17.793 27.703 11.001 32 11.001 32zM6.853 18c-.506 0-1.023.172-1.569.52-1.427.906-1.587 3.258-.841 4.887 1.007 2.195 4.675 5.066 6.558 6.385 1.885-1.314 5.553-4.182 6.556-6.375h.002c.744-1.625.584-3.977-.841-4.889-.757-.484-1.467-.63-2.149-.447-2.075.554-3.568 3.919-3.568 3.919s-1.517-3.341-3.566-3.922A2.147 2.147 0 0 0 6.853 18zM26 20l-.602-.444c-.406-.298-3.998-2.996-4.998-5.439-.729-1.781-.518-4.31 1.098-5.458 1.059-.754 2.007-.727 2.612-.57.796.203 1.419.712 1.89 1.271.471-.559 1.094-1.066 1.889-1.268.61-.159 1.555-.18 2.614.576 1.614 1.152 1.825 3.679 1.096 5.458-1 2.445-4.594 5.133-5 5.431L26 20zM23.405 9.958c-.176 0-.412.059-.731.285-.778.555-.844 2.101-.418 3.143.563 1.375 2.54 3.166 3.744 4.138 1.206-.97 3.181-2.757 3.744-4.13.426-1.041.36-2.588-.42-3.143-.514-.369-.824-.281-.93-.264C26.938 10.218 26 12.8 26 12.8s-.938-2.675-2.395-2.814c-.057-.006-.122-.028-.2-.028zM25.347.294C24.28-.486 23.427.441 23 1.367 22.573.441 21.72-.486 20.653.289c-.736.534-.792 1.793-.455 2.635C20.754 4.309 23 6 23 6s2.246-1.687 2.802-3.072c.337-.841.28-2.098-.455-2.634zM8.999 14s-5.299-3.198-6.5-5.694c-.895-1.866-.657-4.501 1.293-5.681.984-.594 2.024-.77 3.016-.506.933.25 1.659.828 2.192 1.428.535-.6 1.261-1.178 2.194-1.426.995-.268 2.034-.086 3.016.514 1.95 1.184 2.188 3.817 1.29 5.679C14.298 10.812 8.999 14 8.999 14zM5.89 3.998c-.34 0-.691.113-1.064.338-.935.567-1.026 2.061-.527 3.102.709 1.471 3.277 3.409 4.7 4.368 1.423-.957 3.993-2.893 4.7-4.36.5-1.039.408-2.534-.529-3.102-.519-.316-.983-.335-1.464-.289-1.707.162-2.707 2.744-2.707 2.744S8 4.374 6.292 4.053c-.135-.025-.265-.055-.402-.055z"/></symbol><symbol viewBox="0 0 32 32" id="002484-gift-person"><path  d="M14.184 10c6.074 0 9.353-1.111 9.742-3.307.52-2.908-1.772-6.141-4.716-6.656L18.788 0C16.348 0 14.332 3.793 13 7.264 11.666 3.793 9.652 0 7.212 0l-.424.037C3.846.553 1.554 3.785 2.074 6.693 2.464 8.889 5.742 10 11.816 10L13 9.994l1.184.006zm.684-2.02c1.822-4.744 3.364-5.904 3.872-5.976l.198.017c.869.174 1.708.762 2.31 1.625.604.859.862 1.844.71 2.695-.08.443-1.524 1.57-7.096 1.654l.006-.015zM4.042 6.344c-.152-.854.106-1.838.708-2.698.604-.863 1.442-1.451 2.312-1.625l.198-.017c.508.072 2.05 1.232 3.872 5.976l.006.016C5.566 7.91 4.122 6.785 4.042 6.344zm23.92 16.322A3.98 3.98 0 0 0 29 20a4 4 0 1 0-8 0c0 1.027.398 1.955 1.036 2.666A6.99 6.99 0 0 0 18 29v3h14v-3a6.988 6.988 0 0 0-4.038-6.334zM25 18c1.102 0 2 .896 2 2 0 1.102-.898 2-2 2a2 2 0 0 1 0-4zm5 12H20v-1c0-2.758 2.244-5 5-5s5 2.242 5 5v1zM14 18h6v-2h-6v-4h10v2h2v-4H0v8h2v10h14v-2h-2v-8zM2 12h9.816v4H2v-4zm2 14v-8h7.816v8H4z"/></symbol><symbol viewBox="0 0 32 32" id="002485-gift-plus"><path  d="M25 18a7 7 0 1 0 .001 14.001A7 7 0 0 0 25 18zm5 8h-4v4h-2v-4h-4v-2h4v-4h2v4h4v2zM14.184 10c6.074 0 9.353-1.111 9.742-3.307.519-2.908-1.772-6.141-4.716-6.656L18.788 0C16.348 0 14.332 3.793 13 7.264 11.666 3.793 9.652 0 7.212 0l-.424.037C3.846.553 1.555 3.785 2.074 6.693 2.464 8.889 5.742 10 11.816 10L13 9.994l1.184.006zm.684-2.019c1.821-4.744 3.364-5.904 3.872-5.977l.197.018c.871.174 1.709.762 2.311 1.625.604.859.861 1.844.71 2.695-.08.443-1.524 1.57-7.097 1.654l.007-.015zM4.042 6.344c-.151-.854.106-1.838.708-2.697.603-.863 1.441-1.451 2.312-1.625l.198-.018c.508.072 2.051 1.232 3.872 5.977l.007.016C5.566 7.91 4.122 6.785 4.042 6.344zM0 10v8h2v10h14v-2h-2v-8h6v-2h-6v-4h10v4h2v-6H0zm11.816 16H4v-8h7.816v8zm0-10H2v-4h9.816v4z"/></symbol><symbol viewBox="0 0 32 32" id="002486-gift-minus"><path  d="M14.184 10c6.074 0 9.352-1.111 9.742-3.307.52-2.908-1.771-6.141-4.716-6.656L18.788 0C16.348 0 14.332 3.793 13 7.264 11.666 3.793 9.652 0 7.212 0l-.424.037C3.846.553 1.555 3.785 2.074 6.693 2.464 8.889 5.742 10 11.816 10L13 9.994l1.184.006zm.684-2.02c1.821-4.744 3.364-5.904 3.872-5.977l.197.018c.871.174 1.709.762 2.31 1.625.604.859.861 1.844.71 2.695-.08.443-1.524 1.57-7.097 1.654l.008-.015zM4.042 6.344c-.151-.854.106-1.838.708-2.698.603-.863 1.441-1.451 2.313-1.625l.197-.017c.508.072 2.05 1.232 3.872 5.976l.007.016C5.566 7.91 4.122 6.785 4.042 6.344zM14 18h6v-2h-6v-4h10v4h2v-6H0v8h2v10h14v-2h-2v-8zm-2.184 8H4v-8h7.816v8zm0-10H2v-4h9.816v4zM25 18a7 7 0 1 0 0 14 7 7 0 0 0 0-14zm5.001 8h-10v-2h10v2z"/></symbol><symbol viewBox="0 0 32 32" id="002487-gift-question-mark"><path  d="M14.184 10c6.074 0 9.352-1.111 9.742-3.307.52-2.908-1.771-6.141-4.716-6.656L18.788 0C16.348 0 14.332 3.793 13 7.264 11.666 3.793 9.652 0 7.212 0l-.424.037C3.846.553 1.555 3.785 2.074 6.693 2.464 8.889 5.742 10 11.816 10L13 9.994l1.184.006zm.684-2.02c1.821-4.744 3.364-5.904 3.872-5.977l.197.018c.871.174 1.709.762 2.31 1.625.604.859.861 1.844.71 2.695-.08.443-1.524 1.57-7.097 1.654l.008-.015zM4.042 6.344c-.151-.854.106-1.838.708-2.698.603-.863 1.441-1.451 2.313-1.625l.197-.017c.508.072 2.05 1.232 3.872 5.976l.007.016C5.566 7.91 4.122 6.785 4.042 6.344zM14 18h6v-2h-6v-4h10v4h2v-6H0v8h2v10h14v-2h-2v-8zm-2.184 8H4v-8h7.816v8zm0-10H2v-4h9.816v4zM25 18a7 7 0 1 0 0 14 7 7 0 0 0 0-14zm1 12h-2v-2h2v2zm2.308-6.178c-.357.818-1.442 1.346-1.933 1.771C25.906 26 26 27 26 27h-2v-.872c-.063-1.628 3.344-2.222 2.356-3.913-.256-.439-.865-.515-1.31-.515-1.344 0-1.529.904-1.547 1.292V24h-2v-1.037c0-1.262.963-3.263 3.547-3.263 1.787 0 2.637.889 2.983 1.419.532.811.641 1.872.279 2.703z"/></symbol><symbol viewBox="0 0 32 32" id="002488-gift-exclamation-mark"><path  d="M14 18h6v-2h-6v-4h10v4h2v-6H0v8h2v10h14v-2h-2v-8zm-2.184 8H4v-8h7.816v8zm0-10H2v-4h9.816v4zm2.368-6c6.074 0 9.352-1.111 9.742-3.307.52-2.908-1.771-6.141-4.716-6.656L18.788 0C16.348 0 14.332 3.793 13 7.264 11.666 3.793 9.652 0 7.212 0l-.424.037C3.846.553 1.555 3.785 2.074 6.693 2.464 8.889 5.742 10 11.816 10L13 9.994l1.184.006zm.684-2.02c1.821-4.744 3.364-5.904 3.872-5.977l.197.018c.871.174 1.709.762 2.31 1.625.604.859.861 1.844.71 2.695-.08.443-1.524 1.57-7.097 1.654l.008-.015zM4.042 6.344c-.151-.854.106-1.838.708-2.698.603-.863 1.441-1.451 2.313-1.625l.197-.017c.508.072 2.05 1.232 3.872 5.976l.007.016C5.566 7.91 4.122 6.785 4.042 6.344zM25 18a7 7 0 1 0 0 14 7 7 0 0 0 0-14zm1 12h-2v-2h2v2zm0-4h-2v-6h2v6z"/></symbol><symbol viewBox="0 0 32 32" id="002492-square-arrow-up-03"><path  d="M16 6v14h-2V6h-4l5-6 5 6h-4zm4 2v2h6v20H4V10h6V8H2v24h26V8h-8z"/></symbol><symbol viewBox="0 0 32 32" id="002493-square-arrow-down-04"><path  d="M16 0v14h4l-5 6-5-6h4V0h2zm4 10h6v20H4V10h6V8H2v24h26V8h-8v2z"/></symbol><symbol viewBox="0 0 32 32" id="002500-square-arrow-up-04"><path  d="M14 32V18h-4l5-6 5 6h-4v14h-2zm6-8h8V0H2v24h8v-2H4V2h22v20h-6v2z"/></symbol><symbol viewBox="0 0 32 32" id="002501-square-arrow-right-03"><path  d="M26 18H12v-2h14v-4l6 5-6 5v-4zm-2 4h-2v6H2V6h20v6h2V4H0v26h24v-8z"/></symbol><symbol viewBox="0 0 32 32" id="002502-square-arrow-left-03"><path  d="M6 22l-6-5 6-5v4h14v2H6v4zm2 8h24V4H8v8h2V6h20v22H10v-6H8v8z"/></symbol><symbol viewBox="0 0 32 32" id="002504-square-arrow-right-04"><path  d="M0 16h14v-4l6 5-6 5v-4H0v-2zm10-4V6h20v22H10v-6H8v8h24V4H8v8h2z"/></symbol><symbol viewBox="0 0 32 32" id="002505-square-arrow-left-04"><path  d="M32 18H18v4l-6-5 6-5v4h14v2zm-8-6V4H0v26h24v-8h-2v6H2V6h20v6h2z"/></symbol><symbol viewBox="0 0 32 32" id="002506-square-arrow-down-03"><path  d="M20 26l-5 6-5-6h4V12h2v14h4zm8-2V0H2v24h8v-2H4V2h22v20h-6v2h8z"/></symbol><symbol viewBox="0 0 32 32" id="002527-three-dots"><path  d="M6 14c1.104 0 2 .897 2 2s-.896 2-2 2-2-.897-2-2 .896-2 2-2m0-2a4 4 0 1 0 0 8 4 4 0 0 0 0-8zm10 2c1.104 0 2 .897 2 2s-.896 2-2 2-2-.897-2-2 .896-2 2-2m0-2a4 4 0 1 0 0 8 4 4 0 0 0 0-8zm10 2c1.104 0 2 .897 2 2s-.896 2-2 2-2-.897-2-2 .896-2 2-2m0-2a4 4 0 1 0 0 8 4 4 0 0 0 0-8z"/></symbol><symbol viewBox="0 0 32 32" id="002531-social-08"><path  d="M16 1.995v8h6v2h-6v11.151c.056 3.278 1.504 4.94 4.303 4.94.132 0 .269-.004.411-.012.412-.024.806-.074 1.168-.138l.462 1.37c-.769.325-1.962.668-3.2.69l-.29.003c-4.711 0-6.825-1.856-6.854-6.003v-12H8V9.751c3.783-.982 5.367-4.734 5.838-7.756H16m2-2h-6s0 8-6 8v6h4v10c.031 4.337 2.14 8.003 8.854 8.003l.324-.003c2.351-.041 4.963-1.058 5.541-1.906l-1.539-4.564s-1.18.471-2.582.553c-.102.006-.2.009-.294.009-2.264 0-2.281-1.694-2.304-2.995v-9.096h6v-6h-6V-.005z"/></symbol><symbol viewBox="0 0 32 32" id="002549-square-angle-bottom-left"><path  d="M2 0v30h30v2H0V0h2zm18 12H8v12h12V12m2-2v16H6V10h16z"/></symbol><symbol viewBox="0 0 32 32" id="002550-square-angle-bottom-right"><path  d="M32 0v32H0v-2h30V0h2zM12 12v12h12V12H12m-2-2h16v16H10V10z"/></symbol><symbol viewBox="0 0 32 32" id="002551-square-angle-top-right"><path  d="M0 0h32v32h-2V2H0V0zm12 20h12V8H12v12m-2 2V6h16v16H10z"/></symbol><symbol viewBox="0 0 32 32" id="002552-square-angle-top-left"><path  d="M32 2H2v30H0V0h32v2zM20 20V8H8v12h12m2 2H6V6h16v16z"/></symbol><symbol viewBox="0 0 32 32" id="002553-square-in-square"><path  d="M30 2v28H2V2h28m2-2H0v32h32V0zM22 10v12H10V10h12m2-2H8v16h16V8z"/></symbol><symbol viewBox="0 0 32 32" id="002554-two-triangles-in-square-02"><path  d="M0 32h32V0H0v32zM2 2h28v28H2V2zm24 22V6H8l18 18zm-2-4.828L12.828 8H24v11.172zM6 26h18L6 8v18zm2-13.172L19.172 24H8V12.828z"/></symbol><symbol viewBox="0 0 32 32" id="002555-two-triangles-in-square"><path  d="M0 0v32h32V0H0zm30 2v28H2V2h28zM8 26h18V8L8 26zm4.828-2L24 12.828V24H12.828zM6 6v18L24 6H6zm13.172 2L8 19.172V8h11.172z"/></symbol><symbol viewBox="0 0 32 32" id="002556-social-09"><path  d="M27 8a3.001 3.001 0 0 1-6 0 3.001 3.001 0 0 1 6 0zm5 0c0 2.031-.781 3.865-2.029 5.276l.029.005-.309.334c-.02.018-.035.038-.051.056-1.413 1.528-6.647 7.207-8.118 8.804.305.784.478 1.633.478 2.525a7 7 0 1 1-14 0c0-.824.15-1.612.412-2.346L0 14.242v-2.828l9.4 9.399a7.043 7.043 0 0 1 1.414-1.414L0 8.586V5.758l12.655 12.653a6.938 6.938 0 0 1 1.848-.386l1.591-10.961c.035-.289.06-.579.125-.858l.008-.052.006.009C17.066 2.635 20.217 0 24 0a8 8 0 0 1 8 8zM10.834 22.246l2.924 2.924 1.414-1.414-2.923-2.923a5.024 5.024 0 0 0-1.415 1.413zM20 25c0-2.756-2.244-5-5-5-.235 0-.46.038-.687.069l2.273 2.272a2 2 0 0 1 0 2.828l-1.414 1.415a1.995 1.995 0 0 1-1.414.586 1.994 1.994 0 0 1-1.414-.585l-2.274-2.274c-.032.228-.07.453-.07.689 0 2.756 2.244 5 5 5s5-2.244 5-5zm4.852-9.086c-.284.03-.559.086-.852.086a7.989 7.989 0 0 1-6.645-3.547l-.855 5.631.219.137a6.995 6.995 0 0 1 3.655 2.295l.116.073 4.362-4.675zM30 8c0-3.309-2.691-6-6-6s-6 2.691-6 6 2.691 6 6 6 6-2.691 6-6z"/></symbol><symbol viewBox="0 0 32 32" id="002557-social-10"><path  d="M28 7a3.001 3.001 0 0 1-6 0 3.001 3.001 0 0 1 6 0zm4 0c0 2.028-.875 3.84-2.254 5.118l-10.023 12.17A5.91 5.91 0 0 1 20 26a6 6 0 1 1-12 0c0-1.793.799-3.382 2.047-4.475l-3.43-5.816A4.919 4.919 0 0 1 5 16c-2.762 0-5-2.238-5-5s2.238-5 5-5 5 2.238 5 5a4.968 4.968 0 0 1-1.66 3.697l3.408 5.785c.43-.175.873-.318 1.346-.391l5.035-14.378C18.734 2.464 21.574 0 25 0a7 7 0 0 1 7 7zM5.576 13.941l-1.607-2.727L5.691 10.2l1.598 2.714A2.96 2.96 0 0 0 8 11c0-1.654-1.346-3-3-3s-3 1.346-3 3 1.346 3 3 3c.197 0 .391-.021.576-.059zM18 26c0-2.205-1.793-4-4-4-.434 0-.842.086-1.23.214l2.268 3.852-1.715 1.016-2.24-3.8A3.972 3.972 0 0 0 10 26c0 2.205 1.793 4 4 4s4-1.795 4-4zm7.66-12.066c-.221.021-.433.066-.66.066-2.758 0-5.117-1.607-6.26-3.924l-3.537 10.045c1.434.292 2.664 1.11 3.527 2.226l6.93-8.413zM30 7c0-2.757-2.242-5-5-5s-5 2.243-5 5 2.242 5 5 5 5-2.243 5-5z"/></symbol><symbol viewBox="0 0 32 32" id="002558-four-triangles-in-square"><path  d="M4 6h8l-8 8V6zm22 8V6h-8l8 8zm0 14v-8l-8 8h8zM4 28h8l-8-8v8zM0 2h30v30H0V2zm2 28h26V4H2v26z"/></symbol><symbol viewBox="0 0 32 32" id="002559-arrow-diagonal-left-down-03"><path  d="M32 30.001v2H0v-32h2v30h30zM6 14v12h12L6 14z"/></symbol><symbol viewBox="0 0 32 32" id="002560-arrow-diagonal-right-down-03"><path  d="M30 30.001v-30h2v32H0v-2h30zM14 26h12V14L14 26z"/></symbol><symbol viewBox="0 0 32 32" id="002561-arrow-diagonal-right-up-03"><path  d="M0 2.001v-2h32v32h-2v-30H0zm26 16.001v-12H14l12 12z"/></symbol><symbol viewBox="0 0 32 32" id="002562-arrow-diagonal-left-up-03"><path  d="M2 2.001v30H0v-32h32v2H2zm16 4.001H6v12l12-12z"/></symbol><symbol viewBox="0 0 32 32" id="002650-screw-02"><path  d="M22.84 4l6.856 12-6.856 12H9.16L2.305 16 9.16 4h13.68zM24 2H8L0 16l8 14h16l8-14-8-14zm-8 8c3.309 0 6 2.691 6 6s-2.691 6-6 6-6-2.691-6-6 2.691-6 6-6m0-2a8 8 0 1 0 0 16 8 8 0 0 0 0-16"/></symbol><symbol viewBox="0 0 32 32" id="002656-sun-03"><path  d="M24.751 12.375l2.563-7.689-7.689 2.563L16 0l-3.625 7.249-7.689-2.563 2.563 7.689L0 16l7.249 3.625-2.563 7.689 7.689-2.563L16 32l3.625-7.249 7.689 2.563-2.563-7.689L32 16l-7.249-3.625zm-.6-4.526l-1.298 3.894-.04.121a8.016 8.016 0 0 0-2.677-2.677l.121-.04 3.894-1.298zM22 16c0 3.308-2.692 6-6 6s-6-2.692-6-6 2.692-6 6-6 6 2.692 6 6zM16 4.472l1.836 3.671.053.106A7.957 7.957 0 0 0 16 8c-.654 0-1.28.101-1.889.249l.053-.106L16 4.472zm-4.257 4.675l.121.04a8.016 8.016 0 0 0-2.677 2.677l-.04-.121-1.298-3.894 3.894 1.298zM4.472 16l3.672-1.836.106-.053C8.101 14.72 8 15.346 8 16s.101 1.28.25 1.889l-.106-.053L4.472 16zm3.377 8.151l1.298-3.894.04-.121a8.016 8.016 0 0 0 2.677 2.677l-.121.04-3.894 1.298zM16 27.528l-1.836-3.672-.053-.106c.609.149 1.235.25 1.889.25.654 0 1.28-.101 1.889-.249l-.053.106L16 27.528zm4.257-4.675l-.121-.04a8.016 8.016 0 0 0 2.677-2.677l.04.121 1.298 3.894-3.894-1.298zm3.599-5.017l-.106.053c.149-.609.25-1.235.25-1.889s-.101-1.28-.249-1.889l.106.053L27.528 16l-3.672 1.836z"/></symbol><symbol viewBox="0 0 32 32" id="002658-dollar"><path  d="M15.605 14.678c-1.493-.712-3.215-1.45-4.15-2.893-.899-1.388-.857-3.387.125-4.723 2.191-2.98 6.175-1.341 8.3.701l1.24-1.308C19.709 4.973 18.071 3.92 16 3.72V0h-2v3.718c-3.702.514-6.1 4.095-5.01 7.723.977 3.25 4.604 4.249 7.237 5.753 1.436.82 2.744 1.92 3.188 3.579.412 1.54.216 3.423-.955 4.593-2.74 2.737-6.923.635-9.304-1.459L8 25.349c1.72 1.619 3.634 2.799 6 3.027V32h2v-3.64c3.641-.447 5.989-3.348 5.651-7.016-.329-3.559-3.107-5.267-6.046-6.666z"/></symbol><symbol viewBox="0 0 32 32" id="002701-social-13"><path  d="M25 2c2.757 0 5 2.243 5 5v18c0 2.757-2.243 5-5 5H7c-2.757 0-5-2.243-5-5V7c0-2.757 2.243-5 5-5h18m0-2H7a7 7 0 0 0-7 7v18a7 7 0 0 0 7 7h18a7 7 0 0 0 7-7V7a7 7 0 0 0-7-7zm-3.84 12c-2.324 0-4.003.94-5.152 2.281V12h-1.971l-.029 14h2l-.07-8.063c0-2.156 1.563-4.313 5.063-3.938 2.059.221 2.975 2.018 2.955 3.637L24 26h2v-8.963C26 14.188 23.625 12 21.16 12zM8 26V12H6v14h2zm7.408-12.434v-.049a.33.33 0 0 1-.034.049h.034zM8.5 7c0-.826-.674-1.5-1.5-1.5S5.5 6.174 5.5 7 6.174 8.5 7 8.5 8.5 7.826 8.5 7z"/></symbol></svg>
