<?xml version="1.0" encoding="utf-8"?>
<!-- Generator: Adobe Illustrator 19.2.1, SVG Export Plug-In . SVG Version: 6.00 Build 0)  -->
<svg version="1.1" id="Layer_1" xmlns="http://www.w3.org/2000/svg" xmlns:xlink="http://www.w3.org/1999/xlink" x="0px" y="0px"
	 viewBox="0 0 82.2 20.5" style="enable-background:new 0 0 82.2 20.5;" xml:space="preserve">
<style type="text/css">
	.st0{fill:#8C8C8C;}
</style>
<g>
	<path class="st0" d="M7.9,8.8c-1.2,0.3-2.2,0.5-3,0.5c-1.5,0-2.7-0.4-3.5-1.2S0.1,6.2,0.1,4.7c0-1.4,0.4-2.6,1.2-3.4s2-1.2,3.5-1.2
		c1,0,2,0.1,3,0.4v1.1c-1.3-0.4-2.3-0.6-3-0.6c-1,0-1.8,0.3-2.4,1S1.6,3.6,1.6,4.7c0,1.1,0.3,2,0.9,2.7c0.6,0.6,1.5,1,2.6,1
		c0.5,0,0.9-0.1,1.5-0.2V5.3h1.3V8.8z"/>
	<path class="st0" d="M16.5,9l-1-2.4h-4L10.4,9H9.1l3.8-8.7h1.3L18,9H16.5z M15.1,5.7L13.5,2l-1.6,3.7H15.1z"/>
	<path class="st0" d="M19.4,9V0.4h1.9l2.6,6.7l2.7-6.7h1.7V9H27V2l-2.6,6.5h-1.3L20.5,2V9H19.4z"/>
	<path class="st0" d="M30.7,9V0.4h2.5c1,0,1.7,0.2,2.2,0.5c0.5,0.3,0.8,0.8,0.8,1.4c0,1.1-0.7,1.8-2,2.2c1.6,0.4,2.3,1.2,2.3,2.3
		c0,0.7-0.3,1.2-0.8,1.6S34.5,9,33.5,9H30.7z M32.1,4.2h0.4c0.7,0,1.3-0.1,1.7-0.4s0.6-0.7,0.6-1.2c0-0.9-0.7-1.3-2.2-1.3h-0.5V4.2z
		 M32.1,8.1h0.3c1,0,1.6-0.1,1.9-0.2c0.6-0.2,0.8-0.6,0.8-1.2c0-0.5-0.3-0.9-0.8-1.3C33.8,5.1,33.2,5,32.4,5h-0.4V8.1z"/>
	<path class="st0" d="M38.3,9V0.4h1.4v7.8H44V9H38.3z"/>
	<path class="st0" d="M45.3,9V0.4h1.4V9H45.3z"/>
	<path class="st0" d="M49.2,9V0.4h1.3l4.8,6.7V0.4h1.2V9h-1.3l-4.8-6.7V9H49.2z"/>
	<path class="st0" d="M66.1,8.8c-1.2,0.3-2.2,0.5-3,0.5c-1.5,0-2.7-0.4-3.5-1.2s-1.2-1.9-1.2-3.4c0-1.4,0.4-2.6,1.2-3.4
		s2-1.2,3.5-1.2c1,0,2,0.1,3,0.4v1.1c-1.3-0.4-2.3-0.6-3-0.6c-1,0-1.8,0.3-2.4,1s-0.9,1.5-0.9,2.7c0,1.1,0.3,2,0.9,2.7
		c0.6,0.6,1.5,1,2.6,1c0.5,0,0.9-0.1,1.5-0.2V5.3h1.3V8.8z"/>
	<path class="st0" d="M4.8,20.3c-1.5,0-2.6-0.4-3.4-1.2c-0.8-0.8-1.2-1.9-1.2-3.4c0-1.4,0.4-2.6,1.2-3.4c0.8-0.8,2-1.2,3.5-1.2
		c0.9,0,1.9,0.1,3,0.4v1.2c-1.3-0.4-2.3-0.6-3-0.6c-1,0-1.8,0.3-2.4,1c-0.6,0.6-0.9,1.5-0.9,2.7c0,1.1,0.3,2,0.9,2.6
		c0.6,0.6,1.4,1,2.5,1c0.9,0,1.9-0.3,2.9-0.8v1.1C6.9,20,5.9,20.3,4.8,20.3z"/>
	<path class="st0" d="M13.7,20.3c-1.3,0-2.4-0.4-3.2-1.3s-1.2-1.9-1.2-3.3c0-1.4,0.4-2.5,1.2-3.3s1.9-1.2,3.2-1.2
		c1.3,0,2.4,0.4,3.2,1.2s1.2,1.9,1.2,3.3c0,1.4-0.4,2.5-1.2,3.3S15.1,20.3,13.7,20.3z M13.7,19.3c1,0,1.7-0.3,2.3-1s0.8-1.5,0.8-2.7
		c0-1.1-0.3-2-0.8-2.6c-0.5-0.6-1.3-1-2.2-1c-0.9,0-1.7,0.3-2.2,1s-0.8,1.5-0.8,2.7c0,1.1,0.3,2,0.8,2.7S12.8,19.3,13.7,19.3z"/>
	<path class="st0" d="M20.1,20v-8.7H22l2.6,6.7l2.7-6.7H29V20h-1.3V13l-2.6,6.5h-1.3L21.3,13V20H20.1z"/>
	<path class="st0" d="M31.5,20v-8.7h1.9l2.6,6.7l2.7-6.7h1.7V20h-1.3V13l-2.6,6.5h-1.3L32.6,13V20H31.5z"/>
	<path class="st0" d="M42.8,20v-8.7h1.4V20H42.8z"/>
	<path class="st0" d="M48.5,20.3c-0.6,0-1.5-0.1-2.5-0.4v-1.2c1.1,0.5,2,0.7,2.6,0.7c0.5,0,1-0.1,1.3-0.4c0.3-0.3,0.5-0.6,0.5-1
		c0-0.3-0.1-0.6-0.3-0.9c-0.2-0.2-0.6-0.5-1.2-0.8l-0.7-0.3c-0.8-0.4-1.4-0.8-1.7-1.2c-0.3-0.4-0.5-0.8-0.5-1.3
		c0-0.7,0.3-1.2,0.8-1.6s1.2-0.6,2-0.6c0.7,0,1.5,0.1,2.3,0.3v1.1c-1-0.4-1.8-0.5-2.2-0.5c-0.5,0-0.9,0.1-1.2,0.3s-0.5,0.5-0.5,0.9
		c0,0.3,0.1,0.5,0.3,0.8c0.2,0.2,0.6,0.5,1.2,0.8l0.7,0.4c0.8,0.4,1.4,0.8,1.7,1.2s0.5,0.8,0.5,1.4c0,0.8-0.3,1.4-0.9,1.8
		S49.5,20.3,48.5,20.3z"/>
	<path class="st0" d="M55.6,20.3c-0.6,0-1.5-0.1-2.5-0.4v-1.2c1.1,0.5,2,0.7,2.6,0.7c0.5,0,1-0.1,1.3-0.4c0.3-0.3,0.5-0.6,0.5-1
		c0-0.3-0.1-0.6-0.3-0.9c-0.2-0.2-0.6-0.5-1.2-0.8l-0.7-0.3c-0.8-0.4-1.4-0.8-1.7-1.2c-0.3-0.4-0.5-0.8-0.5-1.3
		c0-0.7,0.3-1.2,0.8-1.6s1.2-0.6,2-0.6c0.7,0,1.5,0.1,2.3,0.3v1.1c-1-0.4-1.8-0.5-2.2-0.5c-0.5,0-0.9,0.1-1.2,0.3s-0.5,0.5-0.5,0.9
		c0,0.3,0.1,0.5,0.3,0.8c0.2,0.2,0.6,0.5,1.2,0.8l0.7,0.4c0.8,0.4,1.4,0.8,1.7,1.2s0.5,0.8,0.5,1.4c0,0.8-0.3,1.4-0.9,1.8
		S56.6,20.3,55.6,20.3z"/>
	<path class="st0" d="M60.8,20v-8.7h1.4V20H60.8z"/>
	<path class="st0" d="M68.5,20.3c-1.3,0-2.4-0.4-3.2-1.3s-1.2-1.9-1.2-3.3c0-1.4,0.4-2.5,1.2-3.3s1.9-1.2,3.2-1.2
		c1.3,0,2.4,0.4,3.2,1.2s1.2,1.9,1.2,3.3c0,1.4-0.4,2.5-1.2,3.3S69.9,20.3,68.5,20.3z M68.5,19.3c1,0,1.7-0.3,2.3-1s0.8-1.5,0.8-2.7
		c0-1.1-0.3-2-0.8-2.6c-0.5-0.6-1.3-1-2.2-1c-0.9,0-1.7,0.3-2.2,1s-0.8,1.5-0.8,2.7c0,1.1,0.3,2,0.8,2.7S67.6,19.3,68.5,19.3z"/>
	<path class="st0" d="M74.9,20v-8.7h1.3l4.8,6.7v-6.7h1.2V20h-1.3l-4.8-6.7V20H74.9z"/>
</g>
</svg>
