<svg id="Layer_1" data-name="Layer 1" xmlns="http://www.w3.org/2000/svg" viewBox="0 0 22.63 8.52"><defs><style>.cls-1{opacity:0.8;}.cls-2{fill:#8b8c8c;}</style></defs><title>GBGA</title><g class="cls-1"><path class="cls-2" d="M20.49,6.48H17.11L16.23,8.4H14.95L18.86,0l3.77,8.4H21.32ZM20,5.36L18.84,2.67,17.61,5.36H20Z"/></g><g class="cls-1"><path class="cls-2" d="M6.51,8.42V0.49H7.7A5.21,5.21,0,0,1,9,.62,1.91,1.91,0,0,1,9.78,1a2.16,2.16,0,0,1,.53.75,2.28,2.28,0,0,1,.2.92,1.87,1.87,0,0,1-.65,1.44,1.92,1.92,0,0,1,1,.75,2.13,2.13,0,0,1,.37,1.24,2.11,2.11,0,0,1-.66,1.57,2.16,2.16,0,0,1-.89.55,5.17,5.17,0,0,1-1.35.15H6.51ZM7.71,3.9H8.08a1.38,1.38,0,0,0,1-.3,1.14,1.14,0,0,0,.31-0.87,1.09,1.09,0,0,0-.32-0.85,1.33,1.33,0,0,0-.92-0.29H7.71V3.9Zm0,3.4H8.45A1.84,1.84,0,0,0,9.64,7,1.1,1.1,0,0,0,10,6.1a1.12,1.12,0,0,0-.38-0.86A2,2,0,0,0,8.31,4.9H7.71V7.3Z"/></g><g class="cls-1"><path class="cls-2" d="M4.46,4.25H7.73V4.52a5.4,5.4,0,0,1-.21,1.58,3.35,3.35,0,0,1-.69,1.19A3.58,3.58,0,0,1,4,8.52a3.85,3.85,0,0,1-2.84-1.2A4,4,0,0,1,0,4.43,4,4,0,0,1,1.2,1.51,4,4,0,0,1,4.13.31,4,4,0,0,1,5.86.69,5,5,0,0,1,7.37,1.91l-0.85.81a2.88,2.88,0,0,0-2.37-1.3A2.83,2.83,0,0,0,2,2.3,2.89,2.89,0,0,0,1.2,4.43,2.8,2.8,0,0,0,2.15,6.6a2.83,2.83,0,0,0,1.92.79,2.39,2.39,0,0,0,1.58-.59,2.11,2.11,0,0,0,.78-1.43h-2V4.25Z"/></g><g class="cls-1"><path class="cls-2" d="M14.21,4.25h3.27V4.52a5.4,5.4,0,0,1-.21,1.58,3.35,3.35,0,0,1-.69,1.19,3.58,3.58,0,0,1-2.8,1.24,3.85,3.85,0,0,1-2.84-1.2A4,4,0,0,1,9.75,4.43,4,4,0,0,1,11,1.51,4.16,4.16,0,0,1,15.62.69a5,5,0,0,1,1.51,1.23l-0.85.81a2.88,2.88,0,0,0-2.37-1.3,2.83,2.83,0,0,0-2.1.87A2.89,2.89,0,0,0,11,4.43,2.8,2.8,0,0,0,11.9,6.6a2.83,2.83,0,0,0,1.92.79,2.39,2.39,0,0,0,1.58-.59,2.11,2.11,0,0,0,.78-1.43h-2V4.25Z"/></g></svg>