<svg id="Layer_1" data-name="Layer 1" xmlns="http://www.w3.org/2000/svg" viewBox="0 0 34.71 44.84"><defs><style>.cls-1{fill:#8c8c8c;}</style></defs><title>GibGobern</title><path id="path15" class="cls-1" d="M15.26,21.7a0.24,0.24,0,0,0,0,.09,0.39,0.39,0,0,1,.07-0.11h0a0.72,0.72,0,0,0,.23-0.22,0.42,0.42,0,0,0-.34-0.15,0.38,0.38,0,0,1-.09.23L15,21.63a0.15,0.15,0,0,1-.11,0H14.75a0.08,0.08,0,0,0-.06.08h0a0.07,0.07,0,0,0,0,.1H15a0.29,0.29,0,0,0,.2-0.11h0l0.09-.08M14.29,8a0.16,0.16,0,1,0-.11.08h0M12.74,18.89h0a0.22,0.22,0,0,1,.13.14,0.19,0.19,0,0,0,.13.15,1,1,0,0,0,.32.3H13.26a0.68,0.68,0,0,0,.19.09H13.31a0.57,0.57,0,0,0,.26.12,0.54,0.54,0,0,1-.25,0l-0.22-.08H13a0.12,0.12,0,0,0-.14.07h0.08a0.09,0.09,0,0,0,0,.09H13a0.17,0.17,0,0,0-.06.15L13,20h0a0.16,0.16,0,0,1,.18,0h0.19a0.17,0.17,0,0,0,.1,0,0.18,0.18,0,0,0,.13,0h0.23a0.67,0.67,0,0,1,.2,0,0.17,0.17,0,0,1,0-.07,0.25,0.25,0,0,0,.14,0,0.18,0.18,0,0,1-.07-0.08h0.2c-0.09,0-.16,0-0.14-0.13a10.36,10.36,0,0,1,1.09-.23h0a0.39,0.39,0,0,1,.38.15h0a1.46,1.46,0,0,0,.56.16,0.16,0.16,0,0,1-.06.09h0A0.09,0.09,0,0,0,16,20h0.09A0.09,0.09,0,0,0,16,20h0.09a0.09,0.09,0,0,0-.06.09h0.19a0.13,0.13,0,0,0,.09,0h0a0.78,0.78,0,0,1,.08-0.19,0.52,0.52,0,0,0,.12-0.29h0a0.59,0.59,0,0,1-.33-0.08A1.5,1.5,0,0,1,16,19.12l0.37,0.12h0.21a0.28,0.28,0,0,0,.22,0,0.23,0.23,0,0,0,0-.33h0l-0.07-.06a1.05,1.05,0,0,0-.5-0.12H15.54a2.21,2.21,0,0,1-.37,0L15,18.8a0.15,0.15,0,0,1-.14-0.09,0.14,0.14,0,0,1,.09-0.14,0.52,0.52,0,0,1,.19,0,1.26,1.26,0,0,1,.43,0l0.18,0.06h0.19a0.69,0.69,0,0,0,.22,0h0.2a1.29,1.29,0,0,1,.32.06,0.85,0.85,0,0,0-.55-0.13,1.48,1.48,0,0,1,.3,0,1.32,1.32,0,0,0-.42,0h0.21a1.37,1.37,0,0,0-.37,0A0.89,0.89,0,0,1,16,18.41a0.53,0.53,0,0,0-.25,0H15.4a0.88,0.88,0,0,0-.62.08,0.18,0.18,0,0,0,0,.25l0,0a0.66,0.66,0,0,0,.42.09h0.44L16,18.8a1.35,1.35,0,0,1,.48.07,0.43,0.43,0,0,1,.15.12,0.11,0.11,0,0,1,0,.16H16.4A1.29,1.29,0,0,0,15.92,19h-0.2a3.76,3.76,0,0,0-1.42.24H14.25A0.18,0.18,0,0,0,14.14,19h0a0.11,0.11,0,0,0,.08,0s-0.08-.09,0-0.06a0.14,0.14,0,0,0,.12,0,0.18,0.18,0,0,1-.1-0.06,0.2,0.2,0,0,0,.14,0H14.35a0.3,0.3,0,0,0,.22-0.18,0.28,0.28,0,0,0-.29,0,0.87,0.87,0,0,0-.59-0.13s0-.15-0.27-0.13a0.21,0.21,0,0,0,.13.24,0.07,0.07,0,0,1-.08,0,0.1,0.1,0,0,0,.06.07,0.12,0.12,0,0,1-.11,0,0.1,0.1,0,0,0,.11.06,0.15,0.15,0,0,1-.11,0,0.29,0.29,0,0,0,.12.06L13.62,19a0.26,0.26,0,0,0-.19.31h0A1.13,1.13,0,0,1,13.1,19a0.72,0.72,0,0,1,0-.12,0.14,0.14,0,0,0-.1-0.1H12.94a0.17,0.17,0,0,0-.11,0h0.06a0.13,0.13,0,0,0-.12,0h0.08m1.15-.1h0.17a0.2,0.2,0,0,1-.2,0V18.66m0,0.21a0.08,0.08,0,0,0-.11,0h0c0,0.06.09,0,.09,0a0.43,0.43,0,0,1-.14.26H13.74a0.49,0.49,0,0,1,0-.32,0.1,0.1,0,0,0-.08-0.08,0.15,0.15,0,0,1,.14,0,0.12,0.12,0,0,1,.1.1m-0.14-.25V18.7a0.18,0.18,0,0,1-.17-0.11h0.17m-1.1,2.06h0a0.22,0.22,0,0,1,.14.14A0.19,0.19,0,0,0,13,21h0a1,1,0,0,0,.32.3H13.26a0.68,0.68,0,0,0,.19.09H13.31a0.55,0.55,0,0,0,.26.12,0.51,0.51,0,0,1-.25,0c-0.08,0-.13-0.07-0.22-0.08H13a0.12,0.12,0,0,0-.14.07h0.08a0.09,0.09,0,0,0,0,.09H13a0.16,0.16,0,0,0-.06.15L13,21.8h0a0.16,0.16,0,0,1,.18,0h0.29a0.17,0.17,0,0,0,.13,0h0.23a0.67,0.67,0,0,1,.2,0,0.16,0.16,0,0,1,0-.07,0.25,0.25,0,0,0,.14,0,0.18,0.18,0,0,1-.07-0.08h0.2c-0.09,0-.16,0-0.14-0.13a10.37,10.37,0,0,1,1.09-.23h0a0.39,0.39,0,0,1,.38.15h0a1.47,1.47,0,0,0,.56.16,0.16,0.16,0,0,1-.06.09h0a0.09,0.09,0,0,0-.06.06h0.09a0.09,0.09,0,0,0-.07.08h0.09a0.1,0.1,0,0,0-.06.09h0.19a0.13,0.13,0,0,0,.09,0h0a0.79,0.79,0,0,1,.08-0.19,0.52,0.52,0,0,0,.12-0.29H16.51a0.6,0.6,0,0,1-.33-0.09A1.48,1.48,0,0,1,16,20.93l0.37,0.12h0.21A0.3,0.3,0,0,0,16.76,21a0.23,0.23,0,0,0,0-.33h0l-0.07-.06a1.06,1.06,0,0,0-.5-0.12,2,2,0,0,0-.35,0H15a0.15,0.15,0,0,1-.14-0.09,0.14,0.14,0,0,1,.09-0.14,0.53,0.53,0,0,1,.19,0,1.31,1.31,0,0,1,.43,0l0.18,0.06H15.9a0.71,0.71,0,0,0,.22,0h0.2a1.37,1.37,0,0,1,.32.06,0.86,0.86,0,0,0-.55-0.12,1.43,1.43,0,0,1,.3,0,1.27,1.27,0,0,0-.42,0h0.21a1.31,1.31,0,0,0-.37,0l0.19,0a0.54,0.54,0,0,0-.25,0H15.4a0.87,0.87,0,0,0-.62.08,0.18,0.18,0,0,0,0,.25l0,0a0.66,0.66,0,0,0,.42.09h0.44L16,20.62a1.36,1.36,0,0,1,.48.07,0.43,0.43,0,0,1,.15.12,0.11,0.11,0,0,1,0,.16H16.4c-0.17,0-.32-0.12-0.5-0.16H15.7a3.74,3.74,0,0,0-1.4.19H14.25a0.18,0.18,0,0,0-.15-0.18h0.07a0.11,0.11,0,0,0,.08,0s-0.08-.09,0-0.06a0.14,0.14,0,0,0,.12,0,0.18,0.18,0,0,1-.1-0.06,0.19,0.19,0,0,0,.14,0H14.35a0.29,0.29,0,0,0,.22-0.18,0.29,0.29,0,0,0-.29,0,0.88,0.88,0,0,0-.59-0.13s0-.15-0.27-0.12a0.21,0.21,0,0,0,.13.23,0.07,0.07,0,0,1-.08,0,0.1,0.1,0,0,0,.06.07,0.12,0.12,0,0,1-.11,0,0.1,0.1,0,0,0,.11.06,0.15,0.15,0,0,1-.11,0,0.3,0.3,0,0,0,.12.06l0.08,0.1a0.26,0.26,0,0,0-.19.31h0a1.17,1.17,0,0,1-.33-0.22,0.8,0.8,0,0,1,0-.12,0.14,0.14,0,0,0-.1-0.17,0.11,0.11,0,0,0-.11,0h0a0.16,0.16,0,0,0-.11,0h0.06a0.13,0.13,0,0,0-.12,0H12.8m1.2-.05h0.17a0.2,0.2,0,0,1-.2,0V20.47m0,0.21a0.08,0.08,0,0,0-.11,0h0c0,0.06.09,0,.09,0a0.43,0.43,0,0,1-.14.26H13.74a0.48,0.48,0,0,1,0-.32s0.06,0.06.09,0-0.08-.08-0.08-0.08a0.15,0.15,0,0,1,.14,0,0.12,0.12,0,0,1,.1.1m-0.14-.25v0.07a0.19,0.19,0,0,1-.17-0.11h0.17m1.42-.57a0.25,0.25,0,0,0,0,.1,0.39,0.39,0,0,1,.07-0.1h0a0.73,0.73,0,0,0,.23-0.22,0.42,0.42,0,0,0-.34-0.15,0.38,0.38,0,0,1-.09.23L15,19.78a0.15,0.15,0,0,1-.11,0h0a0.09,0.09,0,0,0-.08,0,0.1,0.1,0,0,0-.1,0h0a0.08,0.08,0,0,0-.06.08h0a0.08,0.08,0,0,0,0,.11H15a0.3,0.3,0,0,0,.2-0.11h0l0.09-.08M18.35,18a0.08,0.08,0,0,1,.11,0,0.11,0.11,0,0,0,0,.16h0a0.19,0.19,0,0,0,0,.21c0-.11,0-0.17.09-0.16h0.14a5,5,0,0,1,.44.57H19.2a0.62,0.62,0,0,1,.12-0.4,0.39,0.39,0,0,1-.3-0.15A0.62,0.62,0,0,1,18.9,18H18.78a0.22,0.22,0,0,1,0-.08c-0.08-.12-0.14-0.13-0.19-0.06a0.15,0.15,0,0,0-.15.1h0.1a0.15,0.15,0,0,0-.14.09m3.6-.9h0l-0.27-.41h0a1.42,1.42,0,0,1-.3.15,3.87,3.87,0,0,1-1.21.25h-0.5A8.69,8.69,0,0,1,18.29,17H18.23v4.12h3.16V21a4.77,4.77,0,0,1-.23-1.35,3.93,3.93,0,0,1,.2-1.4,0.62,0.62,0,0,1,.1-0.24,3.1,3.1,0,0,1,.47-0.76L22,17.15m-3.67,0a9,9,0,0,0,1,.13,0.29,0.29,0,0,0,.32.19,0.22,0.22,0,0,0,0,.11H19.59a0.21,0.21,0,0,0-.22.06,0.09,0.09,0,0,1-.08,0,0.24,0.24,0,0,0-.14,0c-0.07,0-.11,0-0.08.09a0.09,0.09,0,0,0,0,.11,0.1,0.1,0,0,0,0,.08,0.09,0.09,0,0,1,0-.07h0a0.08,0.08,0,0,0,0,.06,0.08,0.08,0,0,1,0-.06H19.2V18a0.2,0.2,0,0,1-.11,0l0.21,0v0.1c-0.2-.07-0.09.13,0,0.23V18.27h0c0-.11.13,0,0.16,0a0.22,0.22,0,0,0,.2-0.15,0.21,0.21,0,0,1-.17.19,0.43,0.43,0,0,0-.31.48,0.3,0.3,0,0,1,.18-0.1l-0.22.16a2.13,2.13,0,0,0-.44,0,0.22,0.22,0,0,1-.21,0h0a0.29,0.29,0,0,0-.16-0.26v-1.5H18.33Zm3,0.83-0.1.24A4,4,0,0,0,21,19.7a5,5,0,0,0,.23,1.3H20.32A0.48,0.48,0,0,0,20,20.85a0.15,0.15,0,0,0-.13-0.18,0.17,0.17,0,0,0-.17.17h0a0.3,0.3,0,0,0-.31.15H18.34V19.58a0.47,0.47,0,0,0,.16-0.32h0.06a0.16,0.16,0,0,0,0,.07,0.14,0.14,0,0,1,0-.14,0.09,0.09,0,0,1,.08,0,0.09,0.09,0,0,0,.12,0,1.61,1.61,0,0,1,.48,0,0.62,0.62,0,0,0,.2-0.2,0.93,0.93,0,0,1-.16.27,0.34,0.34,0,0,0,.2.24h0a0.34,0.34,0,0,0-.23.15,0.22,0.22,0,0,0,0,.19,0.13,0.13,0,0,1,0,.18,0.07,0.07,0,0,1-.11,0,1.52,1.52,0,0,1,.29,0c0.08,0,0,0,0,.08a0.35,0.35,0,0,1-.31.07S19,19.93,19,20.08a0.12,0.12,0,0,0-.13.06,0.11,0.11,0,0,1,.11,0s-0.07,0,0,.11a0.15,0.15,0,0,0,0,.12,0.12,0.12,0,0,1,0-.08V20.4a0.11,0.11,0,0,0,.12.09c-0.09-.08,0-0.12,0-0.18s0.08,0,.16,0a0.18,0.18,0,0,1,.15,0c0.07,0.09.13,0.09,0.15,0a0.46,0.46,0,0,0,0-.14,0.17,0.17,0,0,1,.1-0.17c0.06,0,.09,0,0.09.1a0.17,0.17,0,0,0,0-.2,0.07,0.07,0,0,1,0-.09h0c0.08,0,.09,0,0,0.15A0.15,0.15,0,0,0,20,19.82h0a1.32,1.32,0,0,1,0-.28h0a0.5,0.5,0,0,0,.24.7h0.28c0.06,0,.09,0,0.06.06a0.17,0.17,0,0,0-.08.19h0.11a0.12,0.12,0,0,1,0,.16c-0.08,0-.28-0.08-0.26.11a0.17,0.17,0,0,0,0,.15c0-.07,0-0.1.09-0.08a0.1,0.1,0,0,0,0,.1,0.11,0.11,0,0,1,.11-0.1V20.9a0.06,0.06,0,0,0,0,.06,0.09,0.09,0,0,1,0-.11,0.09,0.09,0,0,0,.09-0.14,0.12,0.12,0,0,1,.13-0.16A0.14,0.14,0,0,0,21,20.46a0.05,0.05,0,0,0,.07,0c-0.09,0,0-.08,0-0.15A0.31,0.31,0,0,0,21,20.07a0,0,0,0,0-.07,0l0,0-0.18-.16a0.35,0.35,0,0,1,0-.33,0.27,0.27,0,0,0,0-.17c0.16,0,.31-0.17.17-0.56a2.75,2.75,0,0,1-.25-1.17,0.34,0.34,0,0,1,.09-0.17h0.07a0.11,0.11,0,0,1,.13,0,0.45,0.45,0,0,0,0,.1,0.34,0.34,0,0,0,.15.13h0a0.36,0.36,0,0,1,0-.12,0.2,0.2,0,0,0,.16.15h0A0.36,0.36,0,0,0,21,17.43a0.55,0.55,0,0,0-.36,0,0.28,0.28,0,0,0-.16.19,0.77,0.77,0,0,0,0,.3,4.75,4.75,0,0,0,.25,1s0.12,0.3-.08.38a0.86,0.86,0,0,0-.36-0.15c-0.42-.14-0.11-0.48-0.09-0.55a0.22,0.22,0,0,0,.12.09,0.37,0.37,0,0,1,0-.19,0.17,0.17,0,0,0,.13,0,0.23,0.23,0,0,1,0-.2,0.27,0.27,0,0,0-.11-0.18,0.18,0.18,0,0,1,.17,0,0.25,0.25,0,0,0-.14-0.24,0.09,0.09,0,0,0,.11-0.07h0a0.13,0.13,0,0,1-.17-0.06v0C20.23,17.63,20,17.62,20,17.7a0.21,0.21,0,0,0,0-.25h0.17a0.28,0.28,0,0,0,.16-0.16h0A3.7,3.7,0,0,0,21.52,17h0a0.27,0.27,0,0,0,0,.17,0.26,0.26,0,0,0,.16.13,3.23,3.23,0,0,0-.41.67M20,5.42a0.18,0.18,0,1,0-.18.18A0.18,0.18,0,0,0,20,5.42h0m0.24,2.49a0.18,0.18,0,1,0,.18-0.18,0.18,0.18,0,0,0-.18.18h0M19.5,5.37a0.18,0.18,0,1,0-.18.18,0.18,0.18,0,0,0,.18-0.18h0m7.13,7.12a2.3,2.3,0,0,0,.13-0.33,0.87,0.87,0,0,0-.4-0.66h0a0.47,0.47,0,0,1,0,.47,0.47,0.47,0,0,0,.32.52m-12.45-5a0.18,0.18,0,1,0-.18.18,0.18,0.18,0,0,0,.18-0.18h0m4.89-1.61h0L18.92,6h0a0.84,0.84,0,0,0-.29.64h1.5a1,1,0,0,1,0,.15,1.78,1.78,0,0,1-.54,1,0.1,0.1,0,0,0,0,.14l0.06,0h0.06a2,2,0,0,0,.61-1.18,0.91,0.91,0,0,0-.18-0.69,0.86,0.86,0,0,0-.26-0.21,0.84,0.84,0,0,0-.41-0.1,0.82,0.82,0,0,0-.37.09h0m1,2.24a0.18,0.18,0,1,0,0,.36h0a0.18,0.18,0,0,0,0-.36m-2.92-.39a0.18,0.18,0,1,0,.18-0.18,0.18,0.18,0,0,0-.18.18h0M18,7.05H16.74a0.69,0.69,0,0,1,.31.43h0.59A0.69,0.69,0,0,1,18,7.05m-1.41,0H16.42V8.23h0.17A0.59,0.59,0,0,0,17,7.75a0.69,0.69,0,0,0,0-.11,0.65,0.65,0,0,0,0-.15,0.59,0.59,0,0,0-.4-0.41M15,8h0a0.1,0.1,0,0,0,.06-0.17,1.79,1.79,0,0,1-.54-1,1,1,0,0,1,0-.15H16a0.84,0.84,0,0,0-.84-0.84h0L15,5.79a0.87,0.87,0,0,0-.5.3,0.91,0.91,0,0,0-.18.69A2,2,0,0,0,15,8m0.52-2.59a0.18,0.18,0,1,0-.18.18,0.18,0.18,0,0,0,.18-0.18h0m-0.94,3.1a0.18,0.18,0,1,0-.18-0.18,0.18,0.18,0,0,0,.18.18h0M16,5.41a0.18,0.18,0,1,0-.18.18A0.18,0.18,0,0,0,16,5.41h0m0.77-1V5.26a0.89,0.89,0,0,1,.51-0.34,0.79,0.79,0,0,1-.3.47h0.81a0.79,0.79,0,0,1-.3-0.47,0.88,0.88,0,0,1,.5.34V4.45a0.63,0.63,0,0,1-.5.33,1.13,1.13,0,0,1,.3-0.58H17a0.85,0.85,0,0,1,.3.58,0.64,0.64,0,0,1-.51-0.33M16.51,7H17L16.5,5.82H16ZM18.6,4a1.07,1.07,0,0,1-.72-0.6,0.89,0.89,0,0,0-.24,0,2,2,0,0,0,.84.75,0.71,0.71,0,0,1,.06.71,0.49,0.49,0,0,1-.2.28,0.26,0.26,0,0,0-.13.16,0.29,0.29,0,0,1,.36.06,0.3,0.3,0,0,1,.18-0.17L18.65,5h0.19a0.37,0.37,0,0,0-.12-0.19,0.66,0.66,0,0,0,.23,0,0.27,0.27,0,0,0-.13-0.18,0.25,0.25,0,0,0,.23,0,0.21,0.21,0,0,0-.11-0.15A0.19,0.19,0,0,1,19,4.29C19.12,4.16,18.68,4,18.6,4M16.46,5.5a0.18,0.18,0,1,0-.18.18,0.18,0.18,0,0,0,.18-0.18h0M18,29.43a0.63,0.63,0,0,0,0,.49,0.35,0.35,0,0,0-.26-0.08,0.2,0.2,0,0,0-.18.15,0.48,0.48,0,0,0,0,.2,0.33,0.33,0,0,1,.39.22,0.32,0.32,0,0,1,0,.21,0.36,0.36,0,0,1-.33.2,0.49,0.49,0,0,1-.29-0.13,0.48,0.48,0,0,1-.29.13,0.36,0.36,0,0,1-.33-0.2,0.33,0.33,0,0,1,.39-0.43,0.46,0.46,0,0,0,0-.2,0.2,0.2,0,0,0-.18-0.15,0.35,0.35,0,0,0-.26.08,0.63,0.63,0,0,0,0-.49,0.36,0.36,0,0,0-.33-0.09,1,1,0,0,1,.12.6,3.44,3.44,0,0,0,0,.68h0a1.33,1.33,0,0,0,0,.25,1.49,1.49,0,0,0,.35.6,1.82,1.82,0,0,0,.52.38,1.81,1.81,0,0,0,.53-0.38h0a1.49,1.49,0,0,0,.35-0.58,1.47,1.47,0,0,0,.06-0.27h0a3.46,3.46,0,0,0,0-.68,1,1,0,0,1,.13-0.6,0.36,0.36,0,0,0-.33.09m-3.63-.72H14.4a0.18,0.18,0,0,0,.08.17,0.41,0.41,0,0,0,.31-0.62,0.18,0.18,0,0,0-.19,0h0.06a0.23,0.23,0,0,1,0,.23,0.42,0.42,0,0,1-.13.16m-0.3-5.89a0.63,0.63,0,0,0-.65-0.24,0.52,0.52,0,0,0-.34.3,0.55,0.55,0,0,0-.24.51,2.11,2.11,0,0,1-.18.25,0.28,0.28,0,0,0,.13.08,3.23,3.23,0,0,1,.59-0.25c0.18,0,.18-0.21.18-0.34A0.35,0.35,0,0,1,13.41,23a0.14,0.14,0,0,1,.14-0.14l0.07,0a0.49,0.49,0,0,1,.24.49,0.36,0.36,0,0,1-.34.38h0a1.08,1.08,0,0,0-.44.1A0.16,0.16,0,0,0,13,24a1.16,1.16,0,0,0,.26.4c0.09,0.22.09,0.47,0.16,0.69A2.76,2.76,0,0,0,15,27a0.32,0.32,0,0,1,.23.16,3.86,3.86,0,0,1,0,.4,1.12,1.12,0,0,0,.51,0,0.83,0.83,0,0,0,.6-0.25,1.08,1.08,0,0,0,.12-0.64q0.1-1.27.19-2.53a0.58,0.58,0,0,0,.07-0.43,1.15,1.15,0,0,1-.11-0.41,0.85,0.85,0,0,0-.84-0.61,6.39,6.39,0,0,0-1,.37,1.46,1.46,0,0,1-.5,0,1.42,1.42,0,0,0,0,.19,1.56,1.56,0,0,1,.21.27l1.11,2.57a1,1,0,0,1,.06.18,0.33,0.33,0,0,1-.32.23,0.92,0.92,0,0,1-.48-0.21,1.76,1.76,0,0,1-.71-0.8,3.38,3.38,0,0,1,0-1.92,1,1,0,0,0-.08-0.72m-0.36,2.3a3,3,0,0,1-.14-0.46c-0.06-.21-0.13-0.42-0.18-0.63h0.29a5.06,5.06,0,0,1,0,1.13m2.53-1.91a1.1,1.1,0,0,1,.14.51,0.35,0.35,0,0,0,0,.37V24.6L15.72,23a0.47,0.47,0,0,1,.55.25M15.63,23l0.78,1.81v0.13L15.56,23h0.08m-0.17.07,0.87,2v0.11l-0.91-2.1h0.08m-0.17.07,1,2.2v0.1l-1-2.27h0.08m-0.17.07,1,2.35,0,0.09-1-2.41h0.08m-0.17.06L16,25.76v0.08L14.9,23.3H15m-0.26.08H14.8L15.92,26H15.83Zm9.81-13.22h0L25.07,11h0.06a0.37,0.37,0,0,1,0-.16,0.42,0.42,0,0,1,0-.09A0.19,0.19,0,0,0,25,10.52l-0.52-.4h0m-4.3.71A2.8,2.8,0,0,1,19.81,13l0.27-.33-0.17.44A0.32,0.32,0,0,0,20,13l0.12-.17,0.11-.18-0.08.19L20,13v0.07L20.11,13a1.34,1.34,0,0,0,.32-0.35,1.39,1.39,0,0,1-.27.41,1,1,0,0,1-.19.14,1.09,1.09,0,0,0,.26-0.08,1.13,1.13,0,0,0,.45-0.37,1.17,1.17,0,0,1-.41.44l-0.18.09h0.23a1.4,1.4,0,0,0,.32-0.14,0.89,0.89,0,0,0,.26-0.24,0.88,0.88,0,0,1-.24.27,1.3,1.3,0,0,1-.32.18,1.52,1.52,0,0,1-.35.1H19.63l0.25,0.18L20,13.78h0l-0.19-.07-0.26-.16h0l0.17,0.13,0.18,0.11a0.79,0.79,0,0,0,.2.07l-0.21-.05-0.2-.1-0.18-.12h0l0.15,0.12A1.63,1.63,0,0,0,20,14a1.62,1.62,0,0,1-.39-0.19l-0.16-.11h0l0.13,0.11L19.71,14l0.22,0.12L19.7,14a1.43,1.43,0,0,1-.3-0.22,1.67,1.67,0,0,0,.43.38h0a3,3,0,0,0,.39.23,3.38,3.38,0,0,0,.71.18,2.45,2.45,0,0,0,.45.34,0.47,0.47,0,0,0,.4,0,0.26,0.26,0,0,0-.06-0.15l-0.14-.13h0a0.87,0.87,0,0,0,.46,0,0.63,0.63,0,0,0,.32-0.28,0.59,0.59,0,0,0-.25-0.15,0.72,0.72,0,0,0-.3,0l0.25-.1a0.93,0.93,0,0,0,.43-0.55,1,1,0,0,1,.25-0.47h0.08l-0.06.05-0.12.12a0.72,0.72,0,0,0-.16.3,0.66,0.66,0,0,1,0-.17,0.94,0.94,0,0,1,.07-0.16l0.1-.15h0l-0.09.09a0.56,0.56,0,0,0-.13.22,0.59,0.59,0,0,1,.08-0.26L22.59,13H22.42a0.64,0.64,0,0,0-.1.21A0.71,0.71,0,0,1,22.39,13l0.06-.11h0L22.36,13a0.61,0.61,0,0,0-.12.23A0.63,0.63,0,0,1,22.32,13l0.06-.09h0L22.27,13a0.44,0.44,0,0,0-.09.17,0.47,0.47,0,0,1,0-.17H22.15a0.47,0.47,0,0,0-.09.17A0.5,0.5,0,0,1,22.12,13l0.06-.08,0.07-.08h0a0.42,0.42,0,0,1,.44-0.07,0.55,0.55,0,0,1,.31.38v0.18h0V13.4a0.63,0.63,0,0,0,.22.39h0a0.21,0.21,0,0,0,.14.06,0.6,0.6,0,0,1,0-.23,0.84,0.84,0,0,0,.07-0.45A1,1,0,0,0,23,12.65a0.76,0.76,0,0,0-.7,0,1.06,1.06,0,0,0-.42.48,1.24,1.24,0,0,1-.31.38,0.7,0.7,0,0,1-.2.11,0.54,0.54,0,0,0,.15-0.28,0.3,0.3,0,0,0,0-.22,0.41,0.41,0,0,0-.24.06,3.07,3.07,0,0,0-.32.34,1.08,1.08,0,0,1-.53.24,1,1,0,0,1-.27,0H20c-0.08,0-.14-0.16-0.09-0.16h0.13a1.94,1.94,0,0,0,.44-0.12h0a2.23,2.23,0,0,0,1.24-1.3,1.32,1.32,0,0,0,0-1.12,0.41,0.41,0,0,0-.23.1,1.28,1.28,0,0,0-.23.27V11.12a6.5,6.5,0,0,1-.08-0.86,0.6,0.6,0,0,1,.16-0.34H21.3a0.63,0.63,0,0,0-.14.23,1.12,1.12,0,0,0-.06.32v0.34a1.92,1.92,0,0,1,0,.34,2,2,0,0,0,0-.34V10.47a1.2,1.2,0,0,1,0-.36,0.72,0.72,0,0,1,.06-0.17V9.86h0a0.71,0.71,0,0,0-.16.21,1.1,1.1,0,0,0-.09.27,1.81,1.81,0,0,0,0,.59,1.85,1.85,0,0,1-.09-0.6,1.13,1.13,0,0,1,0-.31,0.83,0.83,0,0,1,.1-0.21,0.79,0.79,0,0,0-.14.19,1.14,1.14,0,0,0-.1.26,1.57,1.57,0,0,0,0,.58,1.62,1.62,0,0,1-.08-0.6,1.22,1.22,0,0,1,.06-0.3V9.83a0.79,0.79,0,0,0-.14.19,1.07,1.07,0,0,0-.1.26,1.58,1.58,0,0,0,0,.58,1.62,1.62,0,0,1-.07-0.6,1.23,1.23,0,0,1,.06-0.31V9.88a0.84,0.84,0,0,0-.13.19,1.2,1.2,0,0,0-.09.27,1.59,1.59,0,0,0,0,.58,1.6,1.6,0,0,1-.06-0.59A1.18,1.18,0,0,1,20.2,10a0.92,0.92,0,0,1,.16-0.27h0A0.66,0.66,0,0,1,21,9.51a0.86,0.86,0,0,1,.36.09,0.74,0.74,0,0,1,.2.14h0a2.84,2.84,0,0,0,.71.74,1,1,0,0,0,.91.14,0.77,0.77,0,0,0-.12-0.44,1,1,0,0,0-.45-0.33L22.86,9.9a1.43,1.43,0,0,0,1.73-.38l-0.36-.07a2.23,2.23,0,0,1-.5-0.3,1.55,1.55,0,0,0-.67-0.25l-0.21-.07a0.48,0.48,0,0,0,.58-0.35h0a1.27,1.27,0,0,0-1.37-.18,1.31,1.31,0,0,0-.55.61h0.2L22,9l0.24,0.1a0.69,0.69,0,0,1,.21.14,0.71,0.71,0,0,0-.22-0.12L22,9.06,21.76,9H21.53a1.49,1.49,0,0,0-.89.36,1.56,1.56,0,0,0-.45,1.45m-7,16.89c-0.06,0,0,0,0,0a2.09,2.09,0,0,0,.52.51l0.66,0.36a0.4,0.4,0,0,0,.11-0.13,0.18,0.18,0,0,0,0-.16L14,28.21a6.32,6.32,0,0,1-.81-0.48m0.54,1.89a3,3,0,0,0,.76,0l-0.79-.34H13.41s-0.17,0,0-.15l0.1-.09a2.49,2.49,0,0,0,.34-0.51l-0.19-.13-0.16-.12a4.77,4.77,0,0,1-.34.55h0C13,29,12.84,29.13,13,29.29a1.06,1.06,0,0,0,.77.33m8.46-17.2h0m-7.4,17.16h0A9.67,9.67,0,0,0,16.2,30V29.75a0.82,0.82,0,0,0-.12-0.39L16,29.25h0.23V28.36a11.16,11.16,0,0,1-1.74-.73l-0.23-.13-0.07.25V27.9h0V28h0l-0.06.14,0.28,0.09a0.28,0.28,0,0,1,.31-0.11,0.49,0.49,0,0,1-.38.77,0.26,0.26,0,0,1-.1-0.26L14,28.49l-0.13.22h0l-0.05.08L13.6,29h0l0.64,0.3,0.57,0.22h0m-0.55-2.26h0c0-.08.14,0,0.14,0l0.06,0.06,0.12,0.11c0.13,0.07.45,0.24,0.72,0.35l-0.08-.12a3.1,3.1,0,0,0-.52-0.53c-0.41-.34-0.52-0.42-0.65-0.23a1.06,1.06,0,0,0-.09.17l-0.22.57-0.11.24L14,28.14,14.08,28l0.05-.13a2.93,2.93,0,0,0,.15-0.54M6.21,26.4h0m4.55-2.27h0.12A0.3,0.3,0,0,0,11,24a0.2,0.2,0,0,0,0-.09,0.26,0.26,0,0,0,0-.1,0.12,0.12,0,0,0-.09-0.17H10.62l-0.14,0-0.09.08a0.24,0.24,0,0,0,0,.1,0.24,0.24,0,0,0,0,.11,0.21,0.21,0,0,0,.06.1H10.8M9.4,27.5h0a0.57,0.57,0,0,1,.32.12,0.56,0.56,0,0,1,.16.21,0.62,0.62,0,0,0-.43-0.65V27a1,1,0,0,0-.89-0.44H8.35a2.38,2.38,0,0,0-.59.12H7.64c-0.19,0-.17-0.11-0.17-0.11V25.71a0.93,0.93,0,0,1,.24-0.56l0.37-.48a4.88,4.88,0,0,0,.35-2.61l-2,1.37a1.53,1.53,0,0,1,.14.25h0a1.21,1.21,0,0,1-.27,1.14,0.5,0.5,0,0,0,0,.38h0a0.33,0.33,0,0,1,.15-0.15h0a4.8,4.8,0,0,0-.11.79,0.64,0.64,0,0,1-.1.44L6.61,26a3.37,3.37,0,0,1,.13,1.18c0,0.33.13,0.41,0.29,0.41a1.59,1.59,0,0,0,.32-0.06H7.59a0.39,0.39,0,0,1,.28.07,0.76,0.76,0,0,0,.24.18H8.25a0.23,0.23,0,0,0,.16-0.06,0.93,0.93,0,0,1,.44-0.18,0.51,0.51,0,0,1,.32.35h0a2.3,2.3,0,0,0,0-.43,0.13,0.13,0,0,1,.13-0.06m0.7,2a0.11,0.11,0,0,0-.1,0,0.15,0.15,0,0,0,0,.16,2.67,2.67,0,0,0,2,1H12l-0.06-2-0.15.2a2.85,2.85,0,0,1-1.81.57M17.75,6a0.4,0.4,0,1,0-.4.4h0a0.41,0.41,0,0,0,.4-0.4M13.08,28.7h0l0.07-.1c0.09-.13.21-0.35,0.27-0.46a1.78,1.78,0,0,1-.31-0.34A0.43,0.43,0,0,1,13,27.57a0.33,0.33,0,0,1,.19.11l0.33,0.22,0.1-.23,0.12-.31,0.06-.16-0.35-.28-0.38-.35A6.39,6.39,0,0,1,12,25.13V24.59c0.06-.75.12-1.5,0.17-2.2L12,22.48h0a0.22,0.22,0,0,1-.15,0h0c0,0.47-.07.93-0.1,1.36v0.61A3.26,3.26,0,0,1,11.63,24a5.93,5.93,0,0,1-.26-1.71h0A0.36,0.36,0,0,1,11,22.06v0H10.07V22h0.84V21.89a0.55,0.55,0,0,1,0-.42h0a0.33,0.33,0,0,1-.28-0.16h0a0.47,0.47,0,0,1-.26.07A0.58,0.58,0,0,1,10,21.31H9.75a7.69,7.69,0,0,0,.14,2.76h0a7.71,7.71,0,0,0,3.23,4.65h0m-3-5.54a0.32,0.32,0,0,0,0-.06,0.24,0.24,0,0,0,0,0l0.27-.29,0.12-.13,0.16-.16h-0.6a0.39,0.39,0,0,0,0-.06h0.86v0h0l-0.4.42-0.16.17H11v0.09H10.12m0.22,1V24.09a0.62,0.62,0,0,1-.06-0.3,0.42,0.42,0,0,1,0-.16,0.39,0.39,0,0,1,.11-0.13,0.49,0.49,0,0,1,.18-0.08h0a0.41,0.41,0,0,1,.17,0,0.42,0.42,0,0,1,.16.06,0.44,0.44,0,0,1,.13.12,0.54,0.54,0,0,1,.08.18,0.68,0.68,0,0,1,0,.19,0.41,0.41,0,0,1,0,.14h0a0.38,0.38,0,0,1-.11.13,0.47,0.47,0,0,1-.19.08,0.44,0.44,0,0,1-.34,0,0.46,0.46,0,0,1-.13-0.12m1.21,1H11.43l-0.17.07H10.93l-0.15.07h0v-0.1h0.28L11,25V24.73l-0.17.07-0.14.07h0v-0.1h0l0.15-.06L11,24.64h0.15l0.17-.07,0.14-.07h0v0.1h0l-0.15,0L11,24.71H10.94v0.35H11L11.35,25l0.14-.07h0v0h0M24.38,11.27l-0.22.06H23.81a1,1,0,0,0-.43,0H23.25a0.46,0.46,0,0,0,.3-0.38,1,1,0,0,0-.87.29,0.78,0.78,0,0,0-.14.47h0.17l-0.13.06h0a0.56,0.56,0,0,0-.35.61,0.4,0.4,0,0,1,.21-0.22,0.51,0.51,0,0,1,.22,0h0.15a1.7,1.7,0,0,0,.58.22,0.61,0.61,0,0,0,.54-0.16A0.46,0.46,0,0,0,23.72,12a0.58,0.58,0,0,0-.33,0h0.15a0.86,0.86,0,0,0,.84-0.66M17.76,23h0.08a0.22,0.22,0,0,1,.14.14,0.19,0.19,0,0,0,.13.15,1,1,0,0,0,.32.3H18.36a0.75,0.75,0,0,0,.19.09H18.4a0.58,0.58,0,0,0,.26.12,0.52,0.52,0,0,1-.25,0l-0.22-.08H18.13a0.12,0.12,0,0,0-.14.07h0A0.11,0.11,0,1,0,18,24h0.06a0.17,0.17,0,0,0-.06.15l0.06-.06h0a0.16,0.16,0,0,1,.18,0h0.29a0.17,0.17,0,0,0,.13,0h0.16L19,24a0.65,0.65,0,0,1,.2,0,0.16,0.16,0,0,1,0-.07,0.26,0.26,0,0,0,.14,0,0.16,0.16,0,0,1-.07-0.08h0.07a0.28,0.28,0,0,0,.13,0c-0.09,0-.16,0-0.14-0.13a10.43,10.43,0,0,1,1.08-.23h0a0.39,0.39,0,0,1,.38.15h0a1.45,1.45,0,0,0,.56.16,0.16,0.16,0,0,1-.07.09H21.13a0.09,0.09,0,0,0-.06.06h0.09a0.08,0.08,0,0,0-.07.08h0.09a0.09,0.09,0,0,0-.06.09h0.19a0.13,0.13,0,0,0,.09,0h0a0.75,0.75,0,0,1,.08-0.19,0.52,0.52,0,0,0,.12-0.29h0a0.59,0.59,0,0,1-.33-0.09,1.45,1.45,0,0,1-.21-0.25l0.37,0.12h0.21a0.29,0.29,0,0,0,.22,0,0.22,0.22,0,0,0,0-.31l0,0L21.81,23a1.08,1.08,0,0,0-.5-0.12H20.08a0.15,0.15,0,0,1-.13-0.09A0.13,0.13,0,0,1,20,22.71a0.48,0.48,0,0,1,.19,0,1.28,1.28,0,0,1,.43,0l0.18,0.06H21a0.68,0.68,0,0,0,.22,0h0.2a1.26,1.26,0,0,1,.32.06,0.86,0.86,0,0,0-.55-0.12,1.5,1.5,0,0,1,.3,0,1.25,1.25,0,0,0-.42,0h0.21a1.31,1.31,0,0,0-.37,0l0.19,0a0.51,0.51,0,0,0-.25,0H20.49a0.89,0.89,0,0,0-.62.09,0.18,0.18,0,0,0,0,.25l0,0a0.66,0.66,0,0,0,.43.09h0.44L21.15,23a1.32,1.32,0,0,1,.48.07,0.42,0.42,0,0,1,.15.12,0.12,0.12,0,0,1,0,.16H21.5c-0.17,0-.32-0.12-0.5-0.16H20.8a3.72,3.72,0,0,0-1.42.24h0a0.18,0.18,0,0,0-.15-0.18h0.07a0.11,0.11,0,0,0,.08,0s-0.08-.09,0-0.06a0.13,0.13,0,0,0,.12,0,0.19,0.19,0,0,1-.1-0.06,0.19,0.19,0,0,0,.14,0H19.45A0.29,0.29,0,0,0,19.67,23a0.28,0.28,0,0,0-.29,0,0.89,0.89,0,0,0-.59-0.12s0-.15-0.27-0.12a0.21,0.21,0,0,0,.13.23,0.07,0.07,0,0,1-.08,0,0.1,0.1,0,0,0,.06.07,0.12,0.12,0,0,1-.11,0,0.1,0.1,0,0,0,.11.06,0.15,0.15,0,0,1-.11,0,0.29,0.29,0,0,0,.12.06l0.08,0.1a0.26,0.26,0,0,0-.19.31h0a1.13,1.13,0,0,1-.33-0.22,0.86,0.86,0,0,1,0-.12,0.14,0.14,0,0,0-.09-0.11,0.12,0.12,0,0,0-.11,0h0a0.17,0.17,0,0,0-.12,0h0.06a0.13,0.13,0,0,0-.12,0m1.34-.18h0.17a0.2,0.2,0,0,1-.2,0V22.89m0,0.21A0.08,0.08,0,1,0,19,23h0c0,0.06.09,0,.09,0a0.43,0.43,0,0,1-.14.26H18.89a0.47,0.47,0,0,1,0-.32,0.1,0.1,0,0,0-.08-0.08,0.15,0.15,0,0,1,.14,0,0.12,0.12,0,0,1,.1.1m-0.14-.25s0,0.06,0,.07a0.19,0.19,0,0,1-.17-0.11h0.17M20.36,24a0.23,0.23,0,0,0,0,.1,0.42,0.42,0,0,1,.09-0.1h0a0.74,0.74,0,0,0,.23-0.22,0.41,0.41,0,0,0-.34-0.15,0.38,0.38,0,0,1-.09.23l-0.1.09A0.14,0.14,0,0,1,20,24h0a0.11,0.11,0,0,0,0,0,0.1,0.1,0,0,0-.1,0h0a0.08,0.08,0,0,0-.06.08h0a0.07,0.07,0,0,0,0,.1h0.25a0.28,0.28,0,0,0,.2-0.11h0L20.36,24m0.22,6a1,1,0,0,1-.3,0H20.16l-0.6-.29L18.4,29.1v0.15h0.11l-0.06.12a0.86,0.86,0,0,0-.11.53h0v0.7h0a0.83,0.83,0,0,0,.29.12,1,1,0,0,0,.25-0.06c0.35-.11,1.18-0.41,1.66-0.61h0A1.51,1.51,0,0,0,21,29.92a0.73,0.73,0,0,1-.37.11M23.45,19.4h-0.1l0.09,0.21,0.07-.07h0l0.11-.11H23.45M18.56,28a5.73,5.73,0,0,0,1-.31H19.38a1,1,0,0,0-.82.32m5.59-5.4h0.28a0.17,0.17,0,0,0,0,0H24.12a0.38,0.38,0,0,0,0,.06,0.16,0.16,0,0,0,0,.06M12.66,17.07h0.08a0.2,0.2,0,0,1,.09.07v0.07a0.19,0.19,0,0,0,.13.15,1,1,0,0,0,.32.3H13.21a0.72,0.72,0,0,0,.19.09H13.31l0.1,0.06,0.16,0.06a0.52,0.52,0,0,1-.25,0h0l-0.21-.07H13a0.12,0.12,0,0,0-.14.07h0.08a0.09,0.09,0,0,0,0,.09H13a0.16,0.16,0,0,0-.06.15L13,18.2h0.06a0.14,0.14,0,0,1,.12,0h0.26a0.19,0.19,0,0,0,.13,0H13.8a0.67,0.67,0,0,1,.2,0,0.16,0.16,0,0,1,0-.07,0.25,0.25,0,0,0,.14,0,0.19,0.19,0,0,1,0-.13h0.2c-0.09,0-.16,0-0.14-0.13a10.18,10.18,0,0,1,1.09-.23h0a0.39,0.39,0,0,1,.38.15h0a1.42,1.42,0,0,0,.56.16,0.16,0.16,0,0,1-.06.09H16.09a0.09,0.09,0,0,0-.06.06h0.09a0.09,0.09,0,0,0-.07.08h0.09a0.1,0.1,0,0,0-.06.09h0.19a0.13,0.13,0,0,0,.09,0h0A0.79,0.79,0,0,1,16.49,18a0.52,0.52,0,0,0,.12-0.29h-0.1a0.59,0.59,0,0,1-.33-0.09A1.38,1.38,0,0,1,16,17.33l0.37,0.12h0.21a0.29,0.29,0,0,0,.22,0,0.23,0.23,0,0,0,0-.33h0L16.73,17a1.09,1.09,0,0,0-.5-0.13H15.54L15.2,17H15a0.15,0.15,0,0,1-.14-0.09h0a0.14,0.14,0,0,1,.09-0.13,0.52,0.52,0,0,1,.19,0h0.42l0.18,0h0.17a0.73,0.73,0,0,0,.22,0h0.2a1.23,1.23,0,0,1,.32.06,0.85,0.85,0,0,0-.55-0.12,1.43,1.43,0,0,1,.3,0H16.21a1.31,1.31,0,0,0-.37,0A0.93,0.93,0,0,1,16,16.63a0.54,0.54,0,0,0-.25,0H15.4a0.88,0.88,0,0,0-.62.08,0.17,0.17,0,0,0,0,.24l0,0a0.44,0.44,0,0,0,.21.08h0.65L16.08,17a1.35,1.35,0,0,1,.48.07,0.43,0.43,0,0,1,.15.12,0.11,0.11,0,0,1,0,.16H16.43c-0.17,0-.32-0.12-0.5-0.16h-0.2a3.6,3.6,0,0,0-1.13.15l-0.3.09h0a0.22,0.22,0,0,0,0-.12,0.18,0.18,0,0,0-.1-0.06h0.07a0.11,0.11,0,0,0,.08,0s-0.08-.09,0-0.06a0.14,0.14,0,0,0,.12,0,0.19,0.19,0,0,1-.1-0.06,0.2,0.2,0,0,0,.14,0H14.4A0.3,0.3,0,0,0,14.62,17a0.28,0.28,0,0,0-.29,0,0.87,0.87,0,0,0-.59-0.13,0.15,0.15,0,0,0-.07-0.09,0.32,0.32,0,0,0-.19,0,0.31,0.31,0,0,0,0,.15,0.15,0.15,0,0,0,.11.09,0.07,0.07,0,0,1-.08,0,0.1,0.1,0,0,0,.06.07,0.12,0.12,0,0,1-.11,0,0.1,0.1,0,0,0,.11.06,0.14,0.14,0,0,1-.11,0,0.28,0.28,0,0,0,.12.06l0.08,0.1a0.26,0.26,0,0,0-.19.31h0a1.17,1.17,0,0,1-.33-0.22,0.75,0.75,0,0,1,0-.13L13,17h0a0.11,0.11,0,0,0-.11,0h0a0.17,0.17,0,0,0-.11,0h0.06a0.13,0.13,0,0,0-.12,0M14,16.89h0.17A0.2,0.2,0,0,1,14,17V16.93m0,0.21a0.08,0.08,0,0,0-.11,0h0c0,0.06.09,0,.09,0a0.43,0.43,0,0,1-.14.26H13.77a0.48,0.48,0,0,1,0-.32A0.1,0.1,0,0,0,13.69,17a0.15,0.15,0,0,1,.14,0,0.12,0.12,0,0,1,.1.1m-0.14-.25V17a0.18,0.18,0,0,1-.17-0.11h0.17m6.52,8.95a0.23,0.23,0,0,0,0,.1,0.41,0.41,0,0,1,.07-0.11h0a0.74,0.74,0,0,0,.23-0.22,0.41,0.41,0,0,0-.34-0.15,0.37,0.37,0,0,1-.09.23l-0.1.09a0.14,0.14,0,0,1-.11,0h0a0.1,0.1,0,0,0-.08,0,0.1,0.1,0,0,0-.1,0h0a0.08,0.08,0,0,0-.06.08h0a0.07,0.07,0,0,0,0,.1H20a0.29,0.29,0,0,0,.2-0.11h0l0.09-.08m-2.52-1h0A0.22,0.22,0,0,1,18,25a0.19,0.19,0,0,0,.13.15,1,1,0,0,0,.32.3H18.36a0.75,0.75,0,0,0,.19.09H18.4a0.56,0.56,0,0,0,.26.12,0.53,0.53,0,0,1-.25,0l-0.22-.08H18.13a0.12,0.12,0,0,0-.14.07h0.1L18,25.7a0.08,0.08,0,0,0,0,.09h0.12A0.17,0.17,0,0,0,18,26h0l0.06-.06h0a0.16,0.16,0,0,1,.18,0h0.29a0.17,0.17,0,0,0,.13,0h0.23a0.65,0.65,0,0,1,.2,0,0.17,0.17,0,0,1,0-.07,0.26,0.26,0,0,0,.14,0,0.16,0.16,0,0,1-.07-0.08h0.2c-0.09,0-.16,0-0.14-0.13a10.83,10.83,0,0,1,1.08-.23h0a0.39,0.39,0,0,1,.38.15h0a1.43,1.43,0,0,0,.56.16,0.16,0.16,0,0,1-.07.09h0a0.09,0.09,0,0,0-.06.06h0.09a0.09,0.09,0,0,0-.07.08h0.09a0.09,0.09,0,0,0-.06.09h0.19a0.13,0.13,0,0,0,.09,0h0a0.72,0.72,0,0,1,.08-0.19,0.53,0.53,0,0,0,.12-0.29h0a0.58,0.58,0,0,1-.33-0.09A1.42,1.42,0,0,1,21.07,25l0.37,0.12h0.21a0.29,0.29,0,0,0,.22,0,0.22,0.22,0,0,0,0-.31l0,0-0.07-.06a1.11,1.11,0,0,0-.5-0.12H20.95l-0.34,0H20.07a0.15,0.15,0,0,1-.13-0.09l0.06,0a0.5,0.5,0,0,1,.19,0,1.27,1.27,0,0,1,.43,0l0.18,0.06H21a0.72,0.72,0,0,0,.22,0h0.2a1.33,1.33,0,0,1,.32.06,0.87,0.87,0,0,0-.55-0.12h0.3a1.29,1.29,0,0,0-.42,0h0.21a1.26,1.26,0,0,0-.37,0l0.19,0a0.52,0.52,0,0,0-.25,0H20.49a0.9,0.9,0,0,0-.62.08,0.18,0.18,0,0,0,0,.25l0,0a0.67,0.67,0,0,0,.43.09h0.44l0.41-.06a1.34,1.34,0,0,1,.48.07,0.42,0.42,0,0,1,.15.12,0.12,0.12,0,0,1,0,.16H21.5A0.81,0.81,0,0,0,21,24.9H20.8a3.76,3.76,0,0,0-1.42.24h0A0.18,0.18,0,0,0,19.2,25h0.07a0.11,0.11,0,0,0,.08,0s-0.08-.09,0-0.06a0.13,0.13,0,0,0,.12,0,0.19,0.19,0,0,1-.1-0.06,0.19,0.19,0,0,0,.14,0H19.45a0.3,0.3,0,0,0,.22-0.18,0.28,0.28,0,0,0-.29,0,0.89,0.89,0,0,0-.59-0.13s0-.15-0.27-0.12a0.21,0.21,0,0,0,.13.23,0.07,0.07,0,0,1-.08,0,0.1,0.1,0,0,0,.06.07,0.13,0.13,0,0,1-.11,0,0.1,0.1,0,0,0,.11.06,0.15,0.15,0,0,1-.11,0,0.28,0.28,0,0,0,.12.06l0.08,0.1a0.26,0.26,0,0,0-.19.31h0A1.15,1.15,0,0,1,18.2,25a0.88,0.88,0,0,1,0-.12,0.14,0.14,0,0,0-.09-0.11,0.11,0.11,0,0,0-.11,0h0a0.17,0.17,0,0,0-.12,0h0.06a0.13,0.13,0,0,0-.12,0H17.9m1.26-.21h0.17a0.21,0.21,0,0,1-.2,0V24.52m0,0.21a0.08,0.08,0,0,0-.11,0h0c0,0.06.09,0,.09,0A0.42,0.42,0,0,1,19,25H18.9a0.47,0.47,0,0,1,0-.32,0.1,0.1,0,0,0-.08-0.08,0.15,0.15,0,0,1,.14,0,0.12,0.12,0,0,1,.1.1m-0.14-.25s0,0,0,.07a0.19,0.19,0,0,1-.17-0.11h0.17M15.26,18.1a0.25,0.25,0,0,0,0,.1,0.4,0.4,0,0,1,.07-0.11h0a0.73,0.73,0,0,0,.23-0.21,0.41,0.41,0,0,0-.34-0.15,0.38,0.38,0,0,1-.09.23L15,18.05,15,18H14.82a0.08,0.08,0,0,0-.06.08h0a0.08,0.08,0,0,0,0,.11H15a0.3,0.3,0,0,0,.2-0.11h0L15.29,18m7.48,12.58a2.67,2.67,0,0,0,2-1,0.15,0.15,0,0,0,0-.15,0.11,0.11,0,0,0-.1,0,2.85,2.85,0,0,1-1.81-.57l-0.15-.2-0.06,2h0.1ZM19.5,27.45h0.21a0.25,0.25,0,0,0,.17-0.09h0l0.12,0a0.23,0.23,0,0,0,0,.08,0.32,0.32,0,0,1,0-.09h0a0.6,0.6,0,0,0,.18-0.17h0A0.35,0.35,0,0,0,20,27a0.33,0.33,0,0,1-.07.19l-0.08.08a0.13,0.13,0,0,1-.09,0H19.69a0.08,0.08,0,0,0-.08,0h0a0.07,0.07,0,0,0,0,.07h0a0.06,0.06,0,0,0,0,.08h0m4.63-6.18h0.37L24.45,21h0l-0.1.07-0.09.06H24.2m1.42-10a1.66,1.66,0,0,0,.1-0.24,0.66,0.66,0,0,0-.29-0.49h0a0.39,0.39,0,0,1,0,.36,0.34,0.34,0,0,0,.23.38M21,29.31v-0.1a7.08,7.08,0,0,1-1.08.48l0.29,0.11a0.89,0.89,0,0,0,.55,0,0.35,0.35,0,0,0,.15-0.1,0.56,0.56,0,0,0,.1-0.45m2.26-12.47L22,15.08a2.3,2.3,0,0,1-.63.45l-0.27.12-0.21-.12-0.18-.09a0.61,0.61,0,0,0-.23-0.38,1.26,1.26,0,0,0-.34-0.2,3.13,3.13,0,0,1-1.49-1,0.73,0.73,0,0,0-.18.14,1.76,1.76,0,0,0-.17.21l-0.14.21c-0.11.19-.21,0.39-0.27,0.52L17.84,15v0.08l-0.09.15h0a0.39,0.39,0,0,1-.14.11h-0.3a0.38,0.38,0,0,1-.14-0.12h0L17,15.12V15l-0.06-.12a5.28,5.28,0,0,0-.27-0.5l-0.14-.21L16.33,14a0.6,0.6,0,0,0-.22-0.15h0a3.4,3.4,0,0,1-1.56,1L14.29,15a0.68,0.68,0,0,0-.32.41l-0.23.12-0.21.12-0.27-.13a2.23,2.23,0,0,1-.6-0.43l-0.3.41L12,16h0l-0.61.84a0.32,0.32,0,0,1,.15.08,0.69,0.69,0,0,1,.15.2l-0.13.15a7.76,7.76,0,0,0-1,1.48l-0.08.16c-0.08.16-.16,0.33-0.23,0.51l0.22,0.1,0.29,0.14h0.12a0.49,0.49,0,0,1,.2,0h0a0.4,0.4,0,0,1,.14.08,0.42,0.42,0,0,1,.1.14h0L11.62,20a0.82,0.82,0,0,1,.18.11,3.33,3.33,0,0,1,.14-0.32c0.06-.13.13-0.27,0.2-0.39v1.12a0.58,0.58,0,0,0,.15.18h0l0.1,0.06h0c0-.59.06-1.09,0.06-1.46V18.89a0.86,0.86,0,0,0,0-.14,0.83,0.83,0,0,0-.07-0.39V18.08a0.66,0.66,0,0,0-.07-0.36A2.76,2.76,0,0,0,12,16.8l-0.08-.11,0.32-.44h0l0.34-.46,0.13-.18,0.1-.14L13,15.7l0.24,0.13a3.9,3.9,0,0,0,1,.33H14.4a4.73,4.73,0,0,0,.76.06,5.92,5.92,0,0,0,.84,0,2.82,2.82,0,0,0,.29.3h0l0.19,0.14h0.09a5.25,5.25,0,0,0,.65.3v5.16H12.63a0.84,0.84,0,0,1-.14.14h4.8v6.06L16.64,28h0a0.72,0.72,0,0,0-.09.18,0.66,0.66,0,0,0,0,.2h0v0.8a0.43,0.43,0,0,1,.18.11h0a0.45,0.45,0,0,1,.08.36H17a0.31,0.31,0,0,1,.22.12,0.33,0.33,0,0,1,.06.13,0.56,0.56,0,0,1,0,.22v0.1H17a0.24,0.24,0,0,0-.21.33h0a0.28,0.28,0,0,0,.22.1,0.37,0.37,0,0,0,.22-0.1h0l0.07-.06,0.07,0.06h0a0.37,0.37,0,0,0,.22.1,0.29,0.29,0,0,0,.22-0.1h0V30.37h0a0.2,0.2,0,0,0-.21-0.15H17.45v-0.1a0.54,0.54,0,0,1,0-.22,0.35,0.35,0,0,1,.06-0.13,0.31,0.31,0,0,1,.22-0.12h0.14a0.51,0.51,0,0,1,.13-0.3h0a0.4,0.4,0,0,1,.27-0.1v-0.8h0a0.74,0.74,0,0,1,0-.12,0.88,0.88,0,0,1,.35-0.55l-0.33.16-0.9.4v-6h5c0,0.69.11,1.43,0.17,2.18V25h0a6.07,6.07,0,0,1-1.15,1.58l-0.19.18h0a0.2,0.2,0,0,0,0-.15H21.11a1,1,0,0,0-.4-0.09h-1a0.12,0.12,0,0,1-.11-0.08,0.11,0.11,0,0,1,.07-0.12h0.16a1,1,0,0,1,.36,0h0.66a1.13,1.13,0,0,1,.27,0,0.73,0.73,0,0,0-.46-0.1h0.26a1.11,1.11,0,0,0-.35,0h0.18a1.16,1.16,0,0,0-.31,0h0.16a0.43,0.43,0,0,0-.21,0H20.11a0.74,0.74,0,0,0-.53.07,0.15,0.15,0,0,0,0,.21l0,0a0.56,0.56,0,0,0,.36.07h0.37l0.35,0a1.13,1.13,0,0,1,.41.06h0l0.09,0.08a0.1,0.1,0,0,1,0,.13H20.87l-0.36-.12H20.34a3.24,3.24,0,0,0-1.2.21h0A0.18,0.18,0,0,0,19,26.64h0.13s-0.07-.08,0,0a0.12,0.12,0,0,0,.1,0,0.16,0.16,0,0,1-.08,0,0.17,0.17,0,0,0,.12,0h0a0.25,0.25,0,0,0,.19-0.15,0.24,0.24,0,0,0-.24,0,0.75,0.75,0,0,0-.5-0.11s0-.12-0.23-0.1a0.18,0.18,0,0,0,.11.2,0.06,0.06,0,0,1-.07,0,0.08,0.08,0,0,0,0,.06,0.11,0.11,0,0,1-.1,0,0.08,0.08,0,0,0,.09,0,0.12,0.12,0,0,1-.09,0l0.1,0,0.06,0.08a0.22,0.22,0,0,0-.16.27h0a0.93,0.93,0,0,1-.28-0.19,0.59,0.59,0,0,1,0-.1A0.12,0.12,0,0,0,18,26.46h0a0.1,0.1,0,0,0-.09,0h0a0.14,0.14,0,0,0-.1,0h0a0.11,0.11,0,0,0-.1,0h0.07a0.19,0.19,0,0,1,.12.12,0.16,0.16,0,0,0,.11.13,0.79,0.79,0,0,0,.27.25h0L18.43,27H18.3a0.48,0.48,0,0,0,.22.1,0.41,0.41,0,0,1-.21,0l-0.18-.06H18.07a0.1,0.1,0,0,0-.12.06h0a0.07,0.07,0,0,0,0,.07h0a0.14,0.14,0,0,0,0,.12h0a0.14,0.14,0,0,1,.15,0h0.25a0.15,0.15,0,0,0,.11,0h0.36a0.16,0.16,0,0,1,0-.06,0.22,0.22,0,0,0,.12,0l0,0h0.17c-0.08,0-.14,0-0.12-0.11a8.78,8.78,0,0,1,1-.2h0a0.33,0.33,0,0,1,.32.13h0a1.1,1.1,0,0,0,.3.09h0l-0.23.16h0L20,27.6h0l-0.23.12h0l-0.15.07a5.83,5.83,0,0,1-1.21.38v0.77l1.09,0.52h0l0.26,0.13h0a7.25,7.25,0,0,0,.74-0.3h0l0.13-.06h0l0.14-.07h0.16L21.16,29l0.29-.18a7.7,7.7,0,0,0,3.25-4.64h0a7.63,7.63,0,0,0,.3-1.89V22.19a1.35,1.35,0,0,1-.32-0.3,1.58,1.58,0,0,1-.14-0.27H24.31l-0.14,0H23.64a0.44,0.44,0,0,0,0,0V21.29h0.49l0.14-.1,0-.19c-0.11-.32-0.19-0.61-0.22-0.7L24,20.18H23.46v0.13l0,0.13h-0.1V20.19h0.15l0.18,0H23.9L24,20a0.22,0.22,0,0,1,0-.21l0.06-.07a0.46,0.46,0,0,1,.31-0.21h0A7.76,7.76,0,0,0,23,17.31l0-.15A0.88,0.88,0,0,1,23.13,17a0.37,0.37,0,0,1,.18-0.11m-11.73,2.6v0.1h0l-0.14-.08-0.16-.08H11.12l-0.17-.08-0.15-.06h0v0h0l0.2-.09,0.16,0.08h0.16l0.17,0.08,0.14,0.06h0m0.32-.56h0L11.67,19l-0.16-.1H11.44l-0.19-.12H11.19v0.16H10.95V18.75h0V18.68L11,18.59V18.4h0.07v0h0.06l0.19,0.12h0.07l0.16,0.09,0.14,0.07m6.72,7.39h0.14v0.06a0.16,0.16,0,0,1-.14-0.09m0.23,0.3a0.36,0.36,0,0,1-.11.22h0a0.41,0.41,0,0,1,0-.27H18.6a0.23,0.23,0,0,0-.07-0.07,0.13,0.13,0,0,1,.11,0,0.1,0.1,0,0,1,.08.08,0.07,0.07,0,0,0-.1,0h0s0.08,0,.08,0m0-.18V26.11h0.15a0.16,0.16,0,0,1-.17,0M21,27h0a0.44,0.44,0,0,1-.27,0l-0.06-.06-0.12-.15,0.22,0.08h0.36L21,27M17.34,16.69H17.26l-0.16-.06a2.33,2.33,0,0,1-.33-0.17H16.69a2.34,2.34,0,0,1-.37-0.3L16.21,16h0l-0.11-.14L16,15.67h0a0.93,0.93,0,0,0-.77-0.58h0a0.46,0.46,0,0,0-.42.16,0.63,0.63,0,0,0,0,.51v0.07a0.08,0.08,0,0,1,0,.1,0.07,0.07,0,0,1-.1,0h0l-0.06-.15a0.71,0.71,0,0,1,0-.57h0a0.61,0.61,0,0,1,.52-0.2h0.1a0.88,0.88,0,0,1,.28.08,1.28,1.28,0,0,1,.59.61h0l0.11,0.17L16.36,16h0l0.11,0.11a2.31,2.31,0,0,0,.45.31L17,16.48l0.21,0.08h0.15l0.16-.07,0.1,0h0l0.09,0a2.29,2.29,0,0,0,.34-0.26L18.25,16h0l0.11-.14,0.11-.17h0A1.33,1.33,0,0,1,19.1,15a0.85,0.85,0,0,1,.26-0.07h0.11a0.59,0.59,0,0,1,.52.21h0a0.73,0.73,0,0,1,0,.58l0,0.14a0.07,0.07,0,0,1-.1,0h0a0.07,0.07,0,0,1,0-.1h0V15.7a0.65,0.65,0,0,0,0-.52A0.46,0.46,0,0,0,19.43,15h0a1,1,0,0,0-.78.58h0l-0.1.16L18.44,16h0l-0.1.11a2.37,2.37,0,0,1-.37.3H17.9l-0.17.1-0.16.07H17.39m4.29,4.62H18V16.75a2.63,2.63,0,0,0,1,.15h0.73a5.21,5.21,0,0,0,1.44-.18,1.93,1.93,0,0,0,.57-0.26l0.53,0.6a2.7,2.7,0,0,0-.28.34,3.36,3.36,0,0,0-.42.81,1.62,1.62,0,0,1-.08.27,3.11,3.11,0,0,0-.08.43,5.75,5.75,0,0,0,.2,2.4m0.72-2.88a0.7,0.7,0,0,1-.07.39,1.51,1.51,0,0,0,0,.23v0.46c0,0.61.07,1.54,0.14,2.61h-5V17l0.23-.09h0c0.11,0.08.2,0.09,0.24,0v1.68a0.39,0.39,0,0,0-.18.34,0.24,0.24,0,0,0-.18.14,0.16,0.16,0,0,0,.17.15h0a0.38,0.38,0,0,0,.18.34v1.63c-0.12,0-.33,0-0.15.26,0,0-.18.16-0.1,0.26a0.15,0.15,0,0,0,.2.06l0.06-.06s0.24,0.12.3,0a0.18,0.18,0,0,0,0-.18H19.4a0.31,0.31,0,0,0,.31.15,0.15,0.15,0,0,0,.14.16h0A0.14,0.14,0,0,0,20,21.59a0.41,0.41,0,0,0,.35-0.13h1.17s-0.12.19,0,.25a0.21,0.21,0,0,0,.28,0s0.16,0.16.25,0a0.17,0.17,0,0,0,0-.24l0,0s0.13-.4-0.23-0.21a5.67,5.67,0,0,1-.22-1.49,0.31,0.31,0,0,0,.21-0.32A0.18,0.18,0,0,0,22,19.29v0a0.13,0.13,0,0,0-.14-0.12h0s0.08-.34-0.16-0.38a1.05,1.05,0,0,1,0-.21,2,2,0,0,1,.08-0.27,3.89,3.89,0,0,1,.42-0.82l0.27-.37a0.55,0.55,0,0,0,.15-0.43,0.5,0.5,0,0,0-.07-0.2,0.39,0.39,0,0,0-.4-0.2,0.52,0.52,0,0,0-.24.07,2.4,2.4,0,0,1-.69.33,2.73,2.73,0,0,1-.79.13A0.45,0.45,0,0,0,20,16.66a0.36,0.36,0,0,0,0-.11,0.1,0.1,0,0,0-.09-0.09,0.11,0.11,0,0,0-.12.08,0.38,0.38,0,0,0,0,.13,0.35,0.35,0,0,0-.31.1v0H18.81a2.18,2.18,0,0,1-.48-0.09h0a0.17,0.17,0,0,0,0-.16l0.08-.06h0a2.6,2.6,0,0,0,.3-0.31,6,6,0,0,0,1,.08,5,5,0,0,0,.71,0h0.21a3.87,3.87,0,0,0,1-.31l0.24-.13L22,15.54l0.69,0.94,0.21,0.29-0.11.15a3.1,3.1,0,0,0-.31.94,3.91,3.91,0,0,1-.1.58m0.25,1.8V19.6c0.07,0.14.14,0.28,0.2,0.42A5.93,5.93,0,0,1,23,23.86a3.85,3.85,0,0,1-.15.47l0-.66c-0.09-1.14-.19-2.46-0.23-3.44m1.06,5.51-0.06.09L23.52,26v0.09H23.38v-0.2h0l-0.11-.07-0.12-.07-0.07.13L23,26h0.06l0.15-.24H23.09L23,25.43l-0.07.12-0.06.13h0V25.61l0.07-.12L23,25.38V25.32h0l0.13,0.09,0.16,0.09h0.15l0.16,0.09,0.14,0.08-0.06.09m0-3.3V22.32h0.86V22.6a0.57,0.57,0,0,1,0,.14,0.18,0.18,0,0,1,0,.08l-0.08.06H24.24a0.22,0.22,0,0,1-.08-0.07h0a0.27,0.27,0,0,1,0-.08,0.57,0.57,0,0,1,0-.13V22.49H23.69m-0.09,1V23h0.84v0.48H24.32V23.32H24.06v0.29H24a0.56,0.56,0,0,1,0-.28H23.71v0.28h-0.1v-0.2m-0.24.94h0l0.39-.19L23.89,24l0.21-.11H23.52V23.67h0.21l0.18,0.06h0l0.18,0.06h0.24v0a0.35,0.35,0,0,0,0,.06L24.17,24l-0.2.1-0.16.08-0.21.1h0.51v0.11L24,24.58l-0.16,0H23.39m0,0.3H23.31v0.06a0.15,0.15,0,0,0,0,.11,0.13,0.13,0,0,0,.07.07h0.16L23.62,25,23.7,25h0.07a0.23,0.23,0,0,1,.12,0L24,25l0,0a0.26,0.26,0,0,1,0,.1,0.33,0.33,0,0,1,0,.11h0v0.06l-0.07.06h0A0.15,0.15,0,0,0,24,25.27h0a0.13,0.13,0,0,0,0-.1A0.16,0.16,0,1,0,23.75,25H23.67l-0.08.06-0.08.06H23.43a0.22,0.22,0,0,1-.12,0,0.26,0.26,0,0,1-.1-0.07,0.25,0.25,0,0,1-.06-0.1,0.34,0.34,0,0,1,0-.12,0.43,0.43,0,0,1,0-.13,0.45,0.45,0,0,1,.06-0.11l0.06-.06,0.06,0m0.53-5.35v0.09l-0.17.17-0.16.17h0l-0.16.17L23.29,20v0h0l0.1-.09,0.1-.09V19.51H23V19.35h0.93M23.15,18v0.06h0l-0.09.14L23,18.4v0.12h0l-0.08.14h0.66l-0.18.15L23.23,19h0L23,19.13l-0.12.11h0L23,18.9l0.11-.09,0.13-.1H22.61l0.14-.23,0.08-.13V18.21h0l-0.11,0-0.1,0v-0.1h0l0.15-.08L23.15,18m2.92-6.07a2,2,0,0,0,.12-0.29,0.79,0.79,0,0,0-.35-0.59h0a0.44,0.44,0,0,1,0,.42,0.41,0.41,0,0,0,.28.46M20.81,7.48a0.18,0.18,0,1,0-.18.18,0.18,0.18,0,0,0,.18-0.18h0M8.61,10.82a0.4,0.4,0,0,0-.14.34,0.36,0.36,0,0,0,0,.1v0.07a0.41,0.41,0,0,0,.37.2H8.95l-0.27-.76-0.13.07m-0.6.5,0.39-.14a0.48,0.48,0,0,1,.1-0.35l-0.79.28a0.47,0.47,0,0,1,.3.21M7,10.45L7.55,11.1h0L7.9,11l-0.6-.67ZM6.61,12.52a0.12,0.12,0,1,0-.15-0.07,0.12,0.12,0,0,0,.15.07m1.25-.63A0.4,0.4,0,0,0,8,11.51a0.35,0.35,0,0,0,0-.07,0.44,0.44,0,0,0,0-.09,0.4,0.4,0,0,0-.35-0.18H7.53L7.8,11.93l0.1-.05m0.45-.38a0.12,0.12,0,1,0-.08-0.23,0.12,0.12,0,0,0-.07.15h0a0.12,0.12,0,0,0,.15.08h0m1.41-2a0.12,0.12,0,1,0-.16-0.08,0.12,0.12,0,0,0,.16.08h0m0.58,0.87a0.12,0.12,0,0,0,.08.23h0a0.12,0.12,0,0,0-.08-0.23M10,9.69a0.12,0.12,0,1,0-.16-0.08,0.12,0.12,0,0,0,.16.08h0M9.38,9.46a0.12,0.12,0,1,0-.16-0.08,0.12,0.12,0,0,0,.16.08h0M6.85,12.41a0.12,0.12,0,1,0,.16.08,0.12,0.12,0,0,0-.16-0.08h0m3.34-2.21a0.15,0.15,0,1,0,0-.05h0m-0.13-.32a0.12,0.12,0,1,0,.07-0.16,0.12,0.12,0,0,0-.07.16h0m0,1.3A0.12,0.12,0,1,0,10.14,11h0a0.12,0.12,0,0,0-.08.15h0m1.67,1a0.5,0.5,0,0,0,.44.13,1.41,1.41,0,0,0,.48-0.18h0.12a0.42,0.42,0,0,1,.18,0,0.33,0.33,0,0,1,.18.18,0.46,0.46,0,0,0-.29-0.51h0a0.65,0.65,0,0,0-.12-0.39A0.79,0.79,0,0,0,12,11.13a0.51,0.51,0,0,0,.3.32,1.22,1.22,0,0,1-.8,0l-0.18-.06a0.71,0.71,0,0,0,.7.54h0.12a0.47,0.47,0,0,0-.27.06,0.38,0.38,0,0,0-.15.17m2.16-5A0.18,0.18,0,1,0,13.7,7a0.18,0.18,0,0,0,.18.18M6.81,12.1h0a0.07,0.07,0,0,0,0-.09,1.24,1.24,0,0,1-.59-0.56v-0.1l1-.34a0.58,0.58,0,0,0-.74-0.35l-0.11.05a0.59,0.59,0,0,0-.26.31,0.63,0.63,0,0,0,0,.49,1.37,1.37,0,0,0,.67.63h0m3.39,0.26a5,5,0,0,0-2.61.89,0.27,0.27,0,0,1-.35.15h0a1.17,1.17,0,0,0-.63.14,0.76,0.76,0,0,1,.12.2,0.71,0.71,0,0,0,.63.57,0.68,0.68,0,0,1-.38.37,0.56,0.56,0,0,0,.35,0,0.17,0.17,0,0,1,.17.09,0.68,0.68,0,0,1-.13.53,0.68,0.68,0,0,0,0,.61,2.47,2.47,0,0,1,.07.42,2.44,2.44,0,0,0,.34-0.6c0.08-.19.12,0,0.12,0h0a1.59,1.59,0,0,1-.2.55,1.89,1.89,0,0,0-.08,1,1.36,1.36,0,0,1-.17.59,1.29,1.29,0,0,0,.31-0.08,1.45,1.45,0,0,0,.48-1,0.33,0.33,0,0,1,.09-0.18s0.06-.06,0,0.4h0c0-.1-0.05.49-0.06,0.68a1.84,1.84,0,0,1-.06.44h0l0.15-.11a1,1,0,0,0,.4-0.69h0v0a0.9,0.9,0,0,0,.07.35v0h0a0.85,0.85,0,0,1,.2.59H9a1.34,1.34,0,0,0,.32-0.64h0a1.86,1.86,0,0,1,.23.86,0.71,0.71,0,0,1,0,.09v0.1a0.25,0.25,0,0,0,0,0h0a1.6,1.6,0,0,0,.34-0.58,0.88,0.88,0,0,0,0-.19,0.61,0.61,0,0,0,0-.2A1.16,1.16,0,0,1,10,17.3,0.37,0.37,0,0,1,10.2,17h0a1.43,1.43,0,0,0,.25.74h0a1.51,1.51,0,0,1,.17-0.8h0L11,17.4l0.3-.36H11.21L11,17l1.21-1.65c-0.06-.13-0.09-0.26-0.13-0.33a5.34,5.34,0,0,0-.87-0.56c-0.2-.16,0-0.18,0-0.18a1,1,0,0,0,1-.11A0.48,0.48,0,0,1,12,14a2.2,2.2,0,0,0-.93-0.62c0.71,0.25.84-.11,0.84-0.11a0.46,0.46,0,0,1-.47-0.14A1.14,1.14,0,0,0,11,13a1.11,1.11,0,0,0,.23-1H11a0.64,0.64,0,0,0-.5.21c-0.15.19-.27,0.1-0.27,0.1M7.2,14a0.7,0.7,0,0,1-.32-0.46,1.79,1.79,0,0,1,.4-0.06,0.7,0.7,0,0,1,.42.58A2.49,2.49,0,0,1,7.2,14m3.1-1a0.76,0.76,0,0,1-.25.62,0.47,0.47,0,0,1-.57-0.2A6.12,6.12,0,0,0,10.3,13m-1.38,1.5A0.25,0.25,0,0,1,9,14.41l0.9-.31c0.07,0,.1,0,0.25.19s-0.09,0-.11,0a0.19,0.19,0,0,0-.2.07c-0.19.19,0,.12,0.12,0.13a0.81,0.81,0,0,0-.27.34C9.74,15,9.94,14.92,10,15h0a3.07,3.07,0,0,0,.2.52,0.27,0.27,0,0,1,0,.38l0,0L10,16H9.87a0.23,0.23,0,0,1-.23-0.09,3,3,0,0,1-.26-0.66V15.16A0.23,0.23,0,0,0,9.58,15a1,1,0,0,0,0-.13c-0.08-.24-0.45,0-0.47-0.11s0.39-.17,0-0.18c-0.09,0-.12,0-0.18.19a0.18,0.18,0,0,1,0-.13m-1-.55a6.23,6.23,0,0,0,.88-0.3,0.47,0.47,0,0,1-.26.55,0.77,0.77,0,0,1-.62-0.25M8.4,15.47H8.18a0.77,0.77,0,0,1,.09-0.6h0a0.41,0.41,0,0,0,.31.47H8.74a0.48,0.48,0,0,0,0,.34,0.56,0.56,0,0,0,.32.29H9a0.62,0.62,0,0,1-.63-0.57m1.9,1a0.37,0.37,0,0,1-.13-0.07h0a0.24,0.24,0,0,1-.07.15c-0.24.08-.95,0.29-1,0a1.32,1.32,0,0,0,1-.2h0c1-.37.94-0.59,0.94-0.59s0.25,0.33-.75.75m0.58-1.13v0.05h0a0.55,0.55,0,0,0,0-.43,0.49,0.49,0,0,0-.26-0.22h0a0.55,0.55,0,0,0,.12-0.11A0.41,0.41,0,0,0,10.56,14l-0.09,0h0a0.76,0.76,0,0,1,.51.32h0l-0.13.17a0.62,0.62,0,0,1,0,.85m-0.3-2.9a0.77,0.77,0,0,1,.54-0.23,1.68,1.68,0,0,1,0,.41,0.7,0.7,0,0,1-.65.3,2.73,2.73,0,0,1,.16-0.48M11.74,9.9h0L12,9.84a1,1,0,0,0-.45.33,0.78,0.78,0,0,0-.12.44,1,1,0,0,0,.91-0.14A2.92,2.92,0,0,0,13,9.74h0a0.75,0.75,0,0,1,.2-0.15,0.84,0.84,0,0,1,.36-0.08,0.66,0.66,0,0,1,.48.18h0a0.92,0.92,0,0,1,.15.27,1.18,1.18,0,0,1,.07.3,1.62,1.62,0,0,1-.06.59,1.59,1.59,0,0,0,0-.58,1.11,1.11,0,0,0,0-.27,0.83,0.83,0,0,0-.13-0.19V9.88a1.2,1.2,0,0,1,.06.31,1.64,1.64,0,0,1-.07.6,1.58,1.58,0,0,0,0-.58,1.11,1.11,0,0,0-.1-0.26,0.82,0.82,0,0,0-.14-0.19V9.87a1.18,1.18,0,0,1,.06.31,1.64,1.64,0,0,1-.07.6,1.57,1.57,0,0,0,0-.58,1.08,1.08,0,0,0-.1-0.26,0.82,0.82,0,0,0-.14-0.19,0.85,0.85,0,0,1,.1.21,1.16,1.16,0,0,1,0,.31,1.77,1.77,0,0,1-.09.6,1.73,1.73,0,0,0,0-.59,1,1,0,0,0,0-.28,0.71,0.71,0,0,0-.16-0.22h0V9.86a0.73,0.73,0,0,1,.06.17,1.22,1.22,0,0,1,0,.36v0.34a2,2,0,0,0,0,.34,2,2,0,0,1,0-.34V10.39A1.12,1.12,0,0,0,13.37,10a0.67,0.67,0,0,0-.14-0.23H13.16a0.6,0.6,0,0,1,.16.34v0.95c0,0.15-.11,1.72.78,2.27h0a2.37,2.37,0,0,0,.58.14h0.11a0.18,0.18,0,0,1-.09.16H14.56a1,1,0,0,1-.27,0,1.09,1.09,0,0,1-.53-0.24,2.88,2.88,0,0,0-.32-0.34A0.41,0.41,0,0,0,13.2,13a0.31,0.31,0,0,0,0,.22,0.54,0.54,0,0,0,.15.28,0.33,0.33,0,0,1-.28,0,0.94,0.94,0,0,1-.38-0.55,0.52,0.52,0,0,0-.11-0.15,0.57,0.57,0,0,1,.07.23L12.5,13l-0.07-.07h0l0,0.07a0.62,0.62,0,0,1,.09.25A0.61,0.61,0,0,0,12.42,13l-0.09-.09h0L12.38,13a0.67,0.67,0,0,1,.07.23,0.64,0.64,0,0,0-.1-0.21l-0.08,0h0l0.08,0.12a0.62,0.62,0,0,1,.08.26,0.57,0.57,0,0,0-.13-0.22L12.15,13h0l0.1,0.15a0.85,0.85,0,0,1,.07.16,1.76,1.76,0,0,0,.47.75L13,14.19a0.72,0.72,0,0,0-.3,0,0.59,0.59,0,0,0-.24.15,0.63,0.63,0,0,0,.32.28,0.87,0.87,0,0,0,.45,0l-0.14.13a0.26,0.26,0,0,0-.06.15,0.46,0.46,0,0,0,.4,0,2.47,2.47,0,0,0,.45-0.34,3.4,3.4,0,0,0,.71-0.18A2.93,2.93,0,0,0,15,14.15h0a1.69,1.69,0,0,0,.43-0.38,1.43,1.43,0,0,0-.3.22l-0.23.11,0.19-.1,0.16-.12,0.13-.11h0l-0.16.11a1.63,1.63,0,0,1-.39.19,1.67,1.67,0,0,0,.37-0.21l0.15-.12h0l-0.18.12-0.2.1L14.74,14l0.2-.07,0.18-.11,0.17-.13h0L15,13.86l-0.19.07h0L15,13.84l0.25-.18H14.65a1.5,1.5,0,0,1-.35-0.1,1.33,1.33,0,0,1-.3-0.4,0.9,0.9,0,0,1-.24-0.27,0.87,0.87,0,0,0,.26.24,1.38,1.38,0,0,0,.32.14h0.23l-0.18-.09a1.18,1.18,0,0,1-.39-0.4,1.13,1.13,0,0,0,.45.37,1,1,0,0,0,.26.08,1,1,0,0,1-.19-0.14,1.36,1.36,0,0,1-.27-0.41,1.33,1.33,0,0,0,.32.35l0.11,0.07V13l-0.09-.19-0.08-.19,0.11,0.18L14.67,13a0.31,0.31,0,0,0,.08.09l-0.17-.44L14.84,13a2.81,2.81,0,0,1-.38-2.15A1.56,1.56,0,0,0,14,9.36,1.49,1.49,0,0,0,13.13,9H12.65l-0.24.07a0.71,0.71,0,0,0-.22.12A0.71,0.71,0,0,1,12.4,9l0.24,0,0.25-.07h0.2a1.32,1.32,0,0,0-.55-0.61,1.27,1.27,0,0,0-1.37.18,0.48,0.48,0,0,0,.57.36h0l-0.21.07a1.16,1.16,0,0,0-.58.33,0.45,0.45,0,0,1-.48.06,0.81,0.81,0,0,0,1.26.62m1.39,2.44-6.9-.21a0.12,0.12,0,0,0-.07.15h0a0.12,0.12,0,0,0,.23-0.08h0a0.12,0.12,0,0,0-.15-0.08h0m2.93-.94h0A0.12,0.12,0,0,0,9,11.1H9v0l0.14,0.4L9,11.57H8.86a0.48,0.48,0,0,1-.44-0.25h0a0.21,0.21,0,0,1-.13.24H8.22a0.24,0.24,0,0,1-.13-0.11h0a0.47,0.47,0,0,1-.19.45L7.77,12H7.7l-0.14-.4H7.5a0.12,0.12,0,0,0-.08.15h0v0.11L7.36,11.8h0a0.13,0.13,0,0,0-.19.16l0,0h0l0.07,0.07L7.21,12H7.13a0.12,0.12,0,0,0,0,.23h0l0.32,0.09a0.39,0.39,0,0,1-.17.19l-0.21.1a0.12,0.12,0,0,0-.08.15H7a0.12,0.12,0,0,0,.15.08h0l0.15-.11v0.14a0.11,0.11,0,0,0,0,.07,0.12,0.12,0,0,0,.15.08h0l0.06,0h0l0.06-.16-0.12-.11,0.22-.25,0.13,0.11a0.14,0.14,0,0,0,.17,0l0.26-.17,0.18-.08,0.29-.1h0.5A0.14,0.14,0,0,0,9.34,12V11.84L9.67,11.9v0.16l0.15,0.08h0A0.13,0.13,0,0,0,10,12h0l-0.13-.08H10.1a0.15,0.15,0,0,0-.1-0.28l-0.23.05a0.39,0.39,0,0,1-.25,0l0.19-.26a0.14,0.14,0,0,0-.15-0.19h0a0.12,0.12,0,0,0-.06.05h0v0h0a0.12,0.12,0,0,0-.15-0.08h0a0.12,0.12,0,0,0-.08.11h0V11.19h0ZM9.05,9.54a0.12,0.12,0,1,0-.13-0.08h0a0.12,0.12,0,0,0,.15.08h0M6,11.68a0.12,0.12,0,0,0-.23.08,0.12,0.12,0,0,0,.15.07h0A0.12,0.12,0,0,0,6,11.68M10.37,11a0.12,0.12,0,0,0,.08-0.15h0a0.12,0.12,0,1,0-.08.16m-4.3,1.17A0.12,0.12,0,0,0,6,11.89H6a0.12,0.12,0,0,0,.08.23m3.8,3.65h0l0-.57h0l-0.19.06h0Zm8.37,17v0.07l0.06,0.08a0.3,0.3,0,0,0,.13.08,0.37,0.37,0,0,0,.15,0,0.38,0.38,0,0,0,.16,0,0.36,0.36,0,0,0,.13-0.11A0.55,0.55,0,0,0,19,32.71h0a0.78,0.78,0,0,0,0-.22h0a0.64,0.64,0,0,0,0-.2,0.45,0.45,0,0,0-.09-0.15A0.37,0.37,0,0,0,18.72,32a0.41,0.41,0,0,0-.17,0,0.35,0.35,0,0,0-.17,0,0.4,0.4,0,0,0-.12.12,0.52,0.52,0,0,0-.07.18,0.83,0.83,0,0,0,0,.21v0.07a0.68,0.68,0,0,0,0,.16m-3.8,6.52L14,39.45h0v0.29h3.18l-0.5.29H16.63v0.18h0.13l0.47,0.27v1H16.56V41.8h0.23V41.72H17v0.14h0.18V42H17v0.13H16.79V42H16.56v0.31h0.67v0.27h0.23v-2.1l0.47-.27h0.13V40H17.94l-0.51-.29h3.18V39.44h0l-0.35-.14v-2l0.4-.35V36.48H20.23v0.3H20v-0.3H19.89V35.13h0.18V34.66h-0.3v0.23H19.53V34.66H19v0.23H18.81V34.66h-0.3v0.45h0.18v1.35H18.55v0.3H18.31v-0.3H18.17v-2h0.36V34h-0.3v0.2H18V34H17.51v0.2H17.18V34H16.71v0.2H16.45V34h-0.3v0.45h0.37v2H16.39v0.3H16.14v-0.3H16V35.13h0.18V34.66h-0.3v0.23H15.64V34.66H15.16v0.23H14.92V34.66h-0.3v0.45H14.8v1.35H14.66v0.3H14.44v-0.3H14v0.43l0.42,0.37v2ZM19,35.94a0.31,0.31,0,0,1,.61,0v0.84H19V35.94Zm-0.1,2.58a0.42,0.42,0,1,1,.84,0h0v0.72H18.88V38.52h0Zm-1.2,1.61-0.33.19L17,40.13l0.33-.19Zm0-5.46a0.14,0.14,0,0,1,.28,0v0.57H17.64V34.68H17.7Zm-0.43,0a0.14,0.14,0,0,1,.28,0v0.57H17.21V34.68h0.06Zm0.12,0.71a0.37,0.37,0,0,1,.39.35h0v1H17v-1a0.37,0.37,0,0,1,.39-0.35h0m-0.55-.71a0.14,0.14,0,0,1,.28,0v0.57H16.78V34.68h0Zm0,3.69h0a0.6,0.6,0,0,1,1.19,0v0.88H16.75V38.36h0Zm-1.67-2.42a0.31,0.31,0,0,1,.61,0v0.84H15.08V35.94h0ZM15,38.52a0.42,0.42,0,1,1,.84,0h0v0.71H15V38.52Zm2.71,2.14v2a0.25,0.25,0,0,1-.25.25h-0.2A0.25,0.25,0,0,1,17,42.62H16.57a0.25,0.25,0,0,1-.25-0.25V41.55a0.25,0.25,0,0,1,.25-0.25H17V40.66l-0.23-.13H12.45a1.73,1.73,0,0,0,.48.6,6.4,6.4,0,0,0,1.43.87,15.61,15.61,0,0,0,2.15.81h0a1.2,1.2,0,0,1,.74.8h0a1.2,1.2,0,0,1,.74-0.8h0A15.62,15.62,0,0,0,20.26,42a6.38,6.38,0,0,0,1.42-.87,1.73,1.73,0,0,0,.48-0.6H17.92l-0.23.13h0ZM9.19,30.38H9.25V30.31a2,2,0,0,1,.48-1c0.2,0,1.71-.14,2-0.74a0.25,0.25,0,0,0,0-.3,0.29,0.29,0,0,0-.21-0.08H10.65A12.9,12.9,0,0,0,6.18,29a13.35,13.35,0,0,1-4.52.77,10.1,10.1,0,0,1-1.14-.06H0.4l0.47,2.16H1.76a13.72,13.72,0,0,0,4.63-.77,12.14,12.14,0,0,1,2.8-.7m-5,.39a0.57,0.57,0,0,1-.28.36,0.68,0.68,0,0,1-.23.07H3.17V30.08H3.75a0.59,0.59,0,0,1,.23.06,0.41,0.41,0,0,1,.16.14,0.61,0.61,0,0,1,.09.25,0.59,0.59,0,0,1,0,.25M4.84,31H4.62V30.79l-0.05-.24-0.05-.22-0.06-.24a0.29,0.29,0,0,0-.06-0.21H4.65v0.21L4.7,30.33l0.05,0.22,0.06,0.24L4.91,31H4.84m1-.27H5.32V30.52l-0.06-.24L5.2,30.06l-0.07-.24L5,29.74H5.3l0.22-.06H5.65a0.25,0.25,0,0,0,0,.07v0.07H5.26v0.36l0.2-.06L5.82,30v0.1h0l-0.39.09v0.2l0.06,0.2,0.19-.06H6v0.14H5.89m0.38-.52V29.8l-0.19-.2V29.48H6.36a0.42,0.42,0,0,0,.07.29l0,0.23a1.1,1.1,0,0,0,.1.23,0.35,0.35,0,0,0,.11.12,0.22,0.22,0,0,0,.13,0L7,30.3a0.26,0.26,0,0,0,.14-0.1,0.31,0.31,0,0,0,0-.16,0.69,0.69,0,0,0,0-.19l-0.06-.22L7,29.42,6.9,29.2H7v0.4l0.06,0.2a0.56,0.56,0,0,1,0,.44,0.54,0.54,0,0,1-.33.24H6.52a0.49,0.49,0,0,1-.19,0,0.41,0.41,0,0,1-.15-0.09,0.45,0.45,0,0,1-.1-0.18m-2.38.2a0.42,0.42,0,0,0-.1-0.13,0.39,0.39,0,0,0-.14-0.07,0.46,0.46,0,0,0-.17,0H3.11v0.93H3.58A0.41,0.41,0,0,0,3.88,31a0.57,0.57,0,0,0,.06-0.4,0.54,0.54,0,0,0-.06-0.18m27.05,6H30.88a1.18,1.18,0,0,0-.79.4H30l-0.25.28a1,1,0,0,1-.92.28,0.86,0.86,0,0,1-.6-0.66h0a1.39,1.39,0,0,1,0-.22,1.71,1.71,0,0,1,0-.21,1.16,1.16,0,0,1,.12-0.4,1.14,1.14,0,0,0-.06.41v0.28h0a1.06,1.06,0,0,1,.12-0.4,1,1,0,0,0,0,.4,1.16,1.16,0,0,0,0,.2v0.09h0V36.65a1.44,1.44,0,0,1,.15-0.54,1.42,1.42,0,0,0-.07.54,2.11,2.11,0,0,0,0,.27V37h0V36.9a1.7,1.7,0,0,1,0-.26,1.54,1.54,0,0,1,.16-0.48,1.52,1.52,0,0,0-.07.49,1.48,1.48,0,0,0,0,.24,1,1,0,0,0,0,.12h0v0h0V36.92a2.28,2.28,0,0,1,0-.29,1.36,1.36,0,0,1,.42-0.5,1.3,1.3,0,0,0,0,.54,1.64,1.64,0,0,0,0,.26v0a2.73,2.73,0,0,1,0-.38,2.17,2.17,0,0,1,.07-0.37,1.46,1.46,0,0,1,.15-0.34,1.68,1.68,0,0,0-.09.71,2.54,2.54,0,0,0,0,.35v0.17h0L29.23,37a2.24,2.24,0,0,1,.15-1.12,2.15,2.15,0,0,0,0-1.49,4.89,4.89,0,0,0-.27-0.48,1.4,1.4,0,0,0,.48.34,1,1,0,0,0,.56,0A1.46,1.46,0,0,0,30,33.38a1.69,1.69,0,0,0-.72-0.56h0a1.51,1.51,0,0,0,.36,0,0.49,0.49,0,0,0,.27-0.19A1.76,1.76,0,0,0,29,32.15a3.2,3.2,0,0,0-.9,0,6,6,0,0,0-1.31-.56,5.17,5.17,0,0,0-.87-0.08h-0.6A3.1,3.1,0,0,0,25,29.64c-0.06-.13-0.06-0.1-0.08,0a2,2,0,0,1-1.44,1.06,25.49,25.49,0,0,1-4.34.69H18a1.83,1.83,0,0,1-.58.47h0v1h0v0.23h-0.3V32.66h0V32.33h0L17,32.66v0.07l-0.09.17-0.12.23H16.7l-0.13-.25-0.07-.14-0.06-.11-0.14-.29h0v0.79H16l0.06-.3v-0.3a4.14,4.14,0,0,1,.09-0.6H16.3l0.1,0.21,0.11,0.22,0.11,0.21v0.08l0.06,0.12,0.06-.11,0.16-.3L17.21,32h0a2.06,2.06,0,0,1-.62-0.5,25.47,25.47,0,0,1-5.32-.71A2.05,2.05,0,0,1,9.75,29.7c0-.12,0-0.15-0.08,0a3.12,3.12,0,0,0-.3,1.93,5.14,5.14,0,0,0-.85-0.06h0a5.25,5.25,0,0,0-.87.08,6.11,6.11,0,0,0-1.31.56,3.2,3.2,0,0,0-.9,0,1.75,1.75,0,0,0-.83.44,0.5,0.5,0,0,0,.27.19,1.55,1.55,0,0,0,.37,0h0a1.68,1.68,0,0,0-.72.56,1.45,1.45,0,0,0-.18.87,1,1,0,0,0,.56,0,1.4,1.4,0,0,0,.48-0.34,4.58,4.58,0,0,0-.27.48,2.16,2.16,0,0,0,0,1.49A2.23,2.23,0,0,1,5.23,37a0.48,0.48,0,0,1-.07.18H5.21V37a2.51,2.51,0,0,0,0-.35A1.67,1.67,0,0,0,5.12,36a1.37,1.37,0,0,1,.15.34,2,2,0,0,1,.07.37,2.85,2.85,0,0,1,0,.38v0a2,2,0,0,0,0-.26,1.33,1.33,0,0,0-.05-0.54,1.38,1.38,0,0,1,.17.54,2.06,2.06,0,0,1,0,.29v0.13h0V37.1a1.18,1.18,0,0,0,0-.12,1.56,1.56,0,0,0,0-.24,1.54,1.54,0,0,0-.07-0.49,1.54,1.54,0,0,1,.16.48,1.7,1.7,0,0,1,0,.26v0.13h0V37a1.87,1.87,0,0,0,0-.27,1.41,1.41,0,0,0-.06-0.54,1.48,1.48,0,0,1,.15.54,2,2,0,0,1,0,.22h0V36.87a1.43,1.43,0,0,0,0-.2,1,1,0,0,0,0-.4,1.06,1.06,0,0,1,.12.4h0V36.59a1.81,1.81,0,0,0,0-.2A1.1,1.1,0,0,0,5.7,36a1.14,1.14,0,0,1,.12.4,1.58,1.58,0,0,1,0,.21,1.39,1.39,0,0,1,0,.22h0a0.86,0.86,0,0,1-.6.66,1,1,0,0,1-.92-0.28l-0.24-.28h0L4,36.83a1.19,1.19,0,0,0-.79-0.4H3.52a0.39,0.39,0,0,0-.29.08,1.36,1.36,0,0,1,.22.44,1.89,1.89,0,0,0,.4.87,1.86,1.86,0,0,0,1.25.39,1.47,1.47,0,0,0,1.1-.85A2.41,2.41,0,0,0,6.31,36a3,3,0,0,1,0-1,1.54,1.54,0,0,1,.18-0.44,1.26,1.26,0,0,0,.08.67,0.62,0.62,0,0,0,.33.33,0.83,0.83,0,0,0,.3-0.4,7,7,0,0,0,.11-1A2.34,2.34,0,0,1,7.91,33a2,2,0,0,1,.42-0.35h0a1.09,1.09,0,0,1,.3-0.1,0.29,0.29,0,0,1,.34.23v0a3.26,3.26,0,0,0-.45.45h0a2.78,2.78,0,0,0-.57,2,1.62,1.62,0,0,0,.5,1.21,0.47,0.47,0,0,0,.18-0.23,1.53,1.53,0,0,0,.09-0.4l0.13,0.34a8,8,0,0,1,.48.87,0.78,0.78,0,0,1,0,.44H9.44a0.84,0.84,0,0,0,0-.32,1.46,1.46,0,0,0-.1-0.37,1.14,1.14,0,0,0-.16-0.36A2.64,2.64,0,0,1,9,36.06a2.45,2.45,0,0,0,.19.35,3.79,3.79,0,0,1,.2.34,1.62,1.62,0,0,1,.15.39,1.08,1.08,0,0,1,0,.22v0.11h0a0.93,0.93,0,0,0,.05-0.31,1.37,1.37,0,0,0,0-.33,2.26,2.26,0,0,0-.27-0.63,2.23,2.23,0,0,1,.37.59,1.52,1.52,0,0,1,.1.35,1.23,1.23,0,0,1,0,.28,1,1,0,0,0,0-.28,1.33,1.33,0,0,0,0-.33,1.92,1.92,0,0,0-.26-0.63,2,2,0,0,1,.36.59,1.54,1.54,0,0,1,.09.35v0.13A1,1,0,0,0,10,37a1.44,1.44,0,0,0,0-.33A2,2,0,0,0,9.79,36a1.92,1.92,0,0,1,.35.59,1.45,1.45,0,0,1,.09.36V37a1.1,1.1,0,0,0,0-.27,1.45,1.45,0,0,0,0-.33A2,2,0,0,0,10,35.85a2,2,0,0,1,.33.6,1.57,1.57,0,0,1,.08.35,1.2,1.2,0,0,1,0,.37h0a0.76,0.76,0,0,1-.38.44,0.82,0.82,0,0,1-.39.09,0.73,0.73,0,0,1-.26,0h0a2.93,2.93,0,0,0-1-.42,1,1,0,0,0-.95.32,0.92,0.92,0,0,0,.32.4,1,1,0,0,0,.59.13L8,38.15H8a1.59,1.59,0,0,0-1.48,1.3l0.38-.11c0.15,0,.29,0,0.62.06a1.53,1.53,0,0,0,.77-0.08H8.52a0.58,0.58,0,0,0-.39.68,1.28,1.28,0,0,0,1.4-.51,1.64,1.64,0,0,0,.24-0.93l-0.2.07-0.27,0H9a0.72,0.72,0,0,1-.27,0,0.77,0.77,0,0,0,.27,0l0.26,0L9.5,38.5l0.22-.11h0a1.68,1.68,0,0,0,.68-0.84,2,2,0,0,0-.26-1.77h0.2a1.35,1.35,0,0,0,.69-0.1,1.65,1.65,0,0,1-1.09-.57,3.65,3.65,0,0,1-.43-1.72l-0.09.42V33.14a0.94,0.94,0,0,0-.06.19V33.22l-0.08.13a1.66,1.66,0,0,0-.14.54,1.75,1.75,0,0,1,.07-0.58,1.23,1.23,0,0,1,0-.21,1.25,1.25,0,0,0-.21.22,1.39,1.39,0,0,0-.25.62,1.46,1.46,0,0,1,.19-0.68A1.3,1.3,0,0,1,9,33.08a1.53,1.53,0,0,0-.44.48,1,1,0,0,0-.14.38,1.12,1.12,0,0,1,.1-0.41,1.58,1.58,0,0,1,.22-0.35,3.22,3.22,0,0,1,.33-0.35,7.83,7.83,0,0,1,.67-0.55,1.74,1.74,0,0,0,.91.44h0c0.57,0.14,1.06.24,1.65,0.35l-0.69.27a1,1,0,0,0-1.16.44A0.86,0.86,0,0,0,11,34.89h0a1,1,0,0,0,1-.15s0.68,1.42.26,2.1a0.44,0.44,0,0,1-.4.25,0.44,0.44,0,0,0-.45.43s0,0,0,0a0.55,0.55,0,0,0,.45.54S10.21,40,11.52,41.8c0,0,.57,1,4,2.2a0.61,0.61,0,0,0,.33.79l0.08,0a0.91,0.91,0,0,0,.67-0.1,2.91,2.91,0,0,1,.7-0.15,2.94,2.94,0,0,1,.7.15,0.91,0.91,0,0,0,.67.1,0.61,0.61,0,0,0,.45-0.74l0-.08c3.43-1.25,4-2.2,4-2.2,1.31-1.84-.34-3.69-0.34-3.69a0.55,0.55,0,0,0,.45-0.54,0.44,0.44,0,0,0-.41-0.47h0a0.44,0.44,0,0,1-.4-0.25c-0.41-.68.26-2.1,0.26-2.1a1,1,0,0,0,1,.15,0.85,0.85,0,0,0,.55-1.07l0-.05A1,1,0,0,0,23,33.34l-0.67-.26c0.61-.11,1.13-0.21,1.71-0.36h0l0.23-.06h0.06a1.69,1.69,0,0,0,.49-0.26,4.61,4.61,0,0,1,.54.45,3.07,3.07,0,0,1,.33.35,1.56,1.56,0,0,1,.22.35A1.07,1.07,0,0,1,26,34a1.07,1.07,0,0,0-.14-0.38,1.56,1.56,0,0,0-.24-0.31l-0.2-.17a1.3,1.3,0,0,1,.13.19,1.47,1.47,0,0,1,.19.68,1.39,1.39,0,0,0-.25-0.62,1.2,1.2,0,0,0-.21-0.22,1.14,1.14,0,0,1,.11.25,1.75,1.75,0,0,1,.07.58,1.71,1.71,0,0,0-.14-0.54l-0.08-.13V33.4a0.93,0.93,0,0,0-.06-0.19v0.67l-0.09-.42a3.66,3.66,0,0,1-.43,1.72,1.65,1.65,0,0,1-1.09.57,1.34,1.34,0,0,0,.59.1h0.3a3,3,0,0,0-.16.3,1.93,1.93,0,0,0-.1,1.48,1.68,1.68,0,0,0,.68.84h0l0.11,0,0.25,0.09,0.26,0a0.74,0.74,0,0,0,.27,0,0.72,0.72,0,0,1-.27,0H25.24L25,38.6l-0.2-.07a1.63,1.63,0,0,0,.24.93,1.28,1.28,0,0,0,1.4.51A0.58,0.58,0,0,0,26,39.29h0.23a1.52,1.52,0,0,0,.77.08c0.33,0,.47-0.09.62-0.06L28,39.42a1.59,1.59,0,0,0-1.48-1.3h0l-0.26-.07A1,1,0,0,0,26.83,38a0.91,0.91,0,0,0,.32-0.4,1,1,0,0,0-1-.32,2.94,2.94,0,0,0-1,.42h0a0.73,0.73,0,0,1-.26,0,0.82,0.82,0,0,1-.39-0.09,0.76,0.76,0,0,1-.38-0.44h0a1.23,1.23,0,0,1,0-.37,1.38,1.38,0,0,1,.06-0.3v-0.1l0.08-.19a2,2,0,0,1,.26-0.41,1.92,1.92,0,0,0-.2.39,1.94,1.94,0,0,0-.07.23h0a1.45,1.45,0,0,0,0,.32,1,1,0,0,0,0,.27V37a1.48,1.48,0,0,1,.09-0.36A2,2,0,0,1,24.67,36a2,2,0,0,0-.26.63,1.36,1.36,0,0,0,0,.33,1.07,1.07,0,0,0,0,.27s0-.09,0-0.13a1.51,1.51,0,0,1,.09-0.35,2,2,0,0,1,.35-0.59,2,2,0,0,0-.26.63,1.4,1.4,0,0,0,0,.33,1,1,0,0,0,0,.28,1.11,1.11,0,0,1,0-.28,1.52,1.52,0,0,1,.1-0.35,2.24,2.24,0,0,1,.37-0.59,2.26,2.26,0,0,0-.27.63,1.37,1.37,0,0,0,0,.33,0.91,0.91,0,0,0,0,.31h0a0.94,0.94,0,0,1,0-.11,1.08,1.08,0,0,1,0-.22A1.56,1.56,0,0,1,25,36.76a3.79,3.79,0,0,1,.2-0.34,2.41,2.41,0,0,0,.19-0.35,2.83,2.83,0,0,1-.16.37,2.83,2.83,0,0,0-.16.36,1.43,1.43,0,0,0-.1.37,0.83,0.83,0,0,0,0,.32H25.1a0.78,0.78,0,0,1,0-.44,8.11,8.11,0,0,1,.48-0.87l0.13-.34a1.59,1.59,0,0,0,.09.4,0.47,0.47,0,0,0,.18.23,1.62,1.62,0,0,0,.5-1.21,2.79,2.79,0,0,0-.57-2h0a3.26,3.26,0,0,0-.45-0.45,0.29,0.29,0,0,1,.32-0.25h0a1.07,1.07,0,0,1,.3.1h0a2,2,0,0,1,.42.35,2.33,2.33,0,0,1,.58,1,7.16,7.16,0,0,0,.11,1,0.84,0.84,0,0,0,.3.4,0.62,0.62,0,0,0,.33-0.33,1.25,1.25,0,0,0,.08-0.67,1.53,1.53,0,0,1,.18.44,3,3,0,0,1,0,1,2.42,2.42,0,0,0,.11,1.35,1.47,1.47,0,0,0,1.1.85A1.4,1.4,0,0,0,31,37l0-.12a1.38,1.38,0,0,1,.22-0.44,0.38,0.38,0,0,0-.29-0.08m-22-4.71h0a3.56,3.56,0,0,0-.49.07,3.35,3.35,0,0,1,.48-0.1m0.32,0.16h0.2v0.08H9.27a3,3,0,0,0-.82.08,3.07,3.07,0,0,1,.82-0.15M8.8,32a2.53,2.53,0,0,1,.41,0H9.54v0.08H9.22a2.38,2.38,0,0,0-.41,0,1.36,1.36,0,0,0-.4.14A1.34,1.34,0,0,1,8.8,32m0.27,0.24a2.07,2.07,0,0,0-.37.07l-0.29.11,0.28-.14a2.06,2.06,0,0,1,.37-0.1,4.23,4.23,0,0,1,.63,0l0.06,0.07H9.07m10.67-.48h0.08l0.35,0.28,0.1,0.08,0.12,0.09,0.34,0.27V31.85h0V31.69h0.16v1.12H20.74l-0.63-.52-0.22-.17h0V33H19.78a0.89,0.89,0,0,0,0-.1V31.81h0.08m-1.81.48a0.6,0.6,0,0,1,.13-0.21,0.64,0.64,0,0,1,.21-0.15,0.83,0.83,0,0,1,.29-0.06,1,1,0,0,1,.28,0,0.65,0.65,0,0,1,.23.1,0.55,0.55,0,0,1,.16.19,0.6,0.6,0,0,1,.06.2v0.07a0.6,0.6,0,0,1,0,.18v0.07a0.63,0.63,0,0,1-.13.2,0.67,0.67,0,0,1-.22.15,0.81,0.81,0,0,1-.28.06,1.16,1.16,0,0,1-.28,0,0.61,0.61,0,0,1-.23-0.1A0.53,0.53,0,0,1,18,32.87V32.81a0.6,0.6,0,0,1-.06-0.18,0.82,0.82,0,0,1,0-.1,0.59,0.59,0,0,1,0-.25m-3.66-.4h0.87L15,32H14.87v0.55h0V33h-0.3V32a0.36,0.36,0,0,0,0-.06H14.25m-1.12.71v-1h0.7a0.31,0.31,0,0,0,0,.07H13.56v0.15h0V32H14V32.3h0l-0.41-.08v0.44H14v0.08H13.1V32.52m-1.35,5A0.29,0.29,0,0,1,12,37.27h0a0.7,0.7,0,0,0,.47-0.58,3.08,3.08,0,0,0-.47-2.4h0a0.81,0.81,0,0,0-.19-0.16h0a0.26,0.26,0,1,0-.26.43,0.4,0.4,0,0,0,.25.06,0.6,0.6,0,0,1-.54.09,0.54,0.54,0,1,1,.32-1,0.62,0.62,0,0,1,.18.09h0l0.11,0.1a3.36,3.36,0,0,1,.57,3.85,0.3,0.3,0,0,1-.27.18,0.29,0.29,0,0,1-.29-0.29h0m4.82,6.68a0.59,0.59,0,0,1-.74.34A0.51,0.51,0,0,1,15.65,44h0A0.25,0.25,0,0,0,16,43.9a0.24,0.24,0,0,0-.19-0.24H15.73c-3.47-1-4.11-2.31-4.11-2.31-0.82-1.2.28-3,.28-3a0.46,0.46,0,0,1,.4-0.22,0.42,0.42,0,0,1,.45.38,0.38,0.38,0,0,1-.25.34,0.19,0.19,0,1,0-.33-0.15h0l-0.06.14a3.05,3.05,0,0,0-.29,1.68c0.29,1.57,4.1,2.68,4.56,2.81h0a0.59,0.59,0,0,1,.14.8M23,41.34s-0.64,1.27-4.11,2.31h0a0.24,0.24,0,0,0-.19.24A0.25,0.25,0,0,0,19,44h0a0.51,0.51,0,0,1-.23.53,0.66,0.66,0,0,1-.6-1.14h0.06c0.46-.13,4.27-1.24,4.56-2.81a3,3,0,0,0-.29-1.68l-0.06-.14h0a0.19,0.19,0,1,0-.33.14,0.37,0.37,0,0,1-.25-0.34,0.42,0.42,0,0,1,.45-0.38,0.46,0.46,0,0,1,.4.22h0s1.11,1.77.28,3m0-7.73h0a0.67,0.67,0,0,1,.18-0.09,0.54,0.54,0,1,1,.32,1,0.61,0.61,0,0,1-.47,0h0.11a0.26,0.26,0,1,0-.26-0.42,0.43,0.43,0,0,0-.11.1h0a3.06,3.06,0,0,0-.59,2.45,0.71,0.71,0,0,0,.47.58h0a0.3,0.3,0,1,1-.35.4,3.36,3.36,0,0,1,.57-3.85l0.11-.1m-0.27-.19A4.33,4.33,0,0,0,22.1,38a0.66,0.66,0,0,0-.55.66,0.65,0.65,0,0,0,.69.61h0a3.25,3.25,0,0,1,.24.78c0.49,1.76-4.31,3.11-4.31,3.11a0.85,0.85,0,0,0-.34,1.4,2.88,2.88,0,0,0-.54-0.08,2.88,2.88,0,0,0-.55.08,0.85,0.85,0,0,0-.34-1.4S11.65,41.8,12.14,40a5,5,0,0,1,.21-0.78A0.64,0.64,0,0,0,12.56,38a4.33,4.33,0,0,0-.61-4.45l0.86-.33a28.43,28.43,0,0,0,9.06,0Zm2.61-1.86h0.22a3.39,3.39,0,0,1,.48.1,3.52,3.52,0,0,0-.49-0.07H25.29m-0.06.17A2.89,2.89,0,0,1,26,32,2.89,2.89,0,0,0,25.2,32V31.9m-0.05.1h0.09a2.53,2.53,0,0,1,.42.07,1.37,1.37,0,0,1,.39.17,1.38,1.38,0,0,0-.4-0.14,2.38,2.38,0,0,0-.42,0H25.11V32m0.61,0.39a2.1,2.1,0,0,0-.37-0.07H24.9l0.1-.17h0.39a1.93,1.93,0,0,1,.37.1L26,32.42l-0.29-.11m4.48-2.25A0.36,0.36,0,0,0,30,29.93a0.32,0.32,0,0,0-.17,0,0.38,0.38,0,0,0-.14.08,0.48,0.48,0,0,0-.11.15,0.73,0.73,0,0,0-.07.19,0.71,0.71,0,0,0,0,.23,0.41,0.41,0,0,0,0,.16,0.33,0.33,0,0,0,.1.1l0.13,0a0.38,0.38,0,0,0,.16,0A0.34,0.34,0,0,0,30,30.82a0.48,0.48,0,0,0,.12-0.14,0.81,0.81,0,0,0,.08-0.23,0.6,0.6,0,0,0,0-.2,0.4,0.4,0,0,0,0-.16m4-6a1.37,1.37,0,0,0,.35-1c0-.48-0.35-1.38-2.14-2-0.53-.17-2-0.77-2.24-1.49A0.64,0.64,0,0,1,30.28,19a0.83,0.83,0,0,1,.49-0.34,0.61,0.61,0,0,1,.42.12L31.33,19h0a0.52,0.52,0,0,1,.27.54c0.64-.31.16-1.24,0.16-1.24a1.4,1.4,0,0,1,.5.11,1,1,0,0,0-1.14-.68,0.7,0.7,0,0,0,0-.62,3.77,3.77,0,0,1-1,1.3,1.52,1.52,0,0,0-.35.38,1.25,1.25,0,0,0-.12,1.11c0.43,1.12,2.4,1.78,2.62,1.85,1.06,0.34,1.69.86,1.73,1.42a0.82,0.82,0,0,1-.49.78A1.59,1.59,0,0,1,32,23.23a2.29,2.29,0,0,0-.54-0.65,4.92,4.92,0,0,0-.84-0.51h0.09a0.09,0.09,0,0,0,0-.13h0l-0.35-.7a0.09,0.09,0,0,0-.13,0h0l-0.14.07L30,21.19,30.21,21a0.09,0.09,0,0,0,0-.13h0l-0.5-.6a0.1,0.1,0,0,0-.13,0l-0.11.09-0.09-.11,0.08-.12a0.09,0.09,0,0,0,0-.13h0l-0.65-.43a0.09,0.09,0,0,0-.13,0h0l-0.07.1A1.51,1.51,0,0,1,28.77,19h0.06l0.1-.12,0.34-.38,0.41-.43,0.1-.11-0.08-.12a0.27,0.27,0,0,0-.13-0.1l0.13-.19a2.17,2.17,0,0,0,0-.49,0.79,0.79,0,0,0,.6.52,2,2,0,0,1,.09-1,2.22,2.22,0,0,0-.31-0.87c0-.1.06-0.08,0.06-0.08a1,1,0,0,0,.62.3,1.36,1.36,0,0,1-.15-1,1.6,1.6,0,0,0-1-1.1,0.49,0.49,0,0,0,.4-0.37,2,2,0,0,1-1.23-.52l-0.13.2a1.1,1.1,0,0,0-.65-1.3,1.54,1.54,0,0,1-.25.73,0.9,0.9,0,0,0-.2.36L27.3,13l0.08-.18A1,1,0,0,0,27,12h0a0.57,0.57,0,0,1-.06.55A0.4,0.4,0,0,0,27,13H26.81l-0.36.11a0.51,0.51,0,0,0-.11.28,1.61,1.61,0,0,1-.32.38,11.82,11.82,0,0,0-1.29.65,0.19,0.19,0,0,0-.07.24,1,1,0,0,1,0,.45,0.2,0.2,0,0,0,0,.15v0.21h0.19L25,15.39,26,15c0.15-.06.18,0,0.21,0.12a0.25,0.25,0,0,1-.16.14l-1,.47s-0.07.17,0.07,0.16a0.28,0.28,0,0,0,.21,0,0.78,0.78,0,0,0,.24,0h0.35l0.33-.15a0.42,0.42,0,0,1,0,.28,0.66,0.66,0,0,0,.35-0.45l0.4-.21a0.78,0.78,0,0,1,.14-0.45c0.25-.18.21,0.13,0.21,0.13v0.23l0.51-.15s0.93-.09.51-1.22C28.62,14.2,29,15,28,15.26a3.83,3.83,0,0,0-2,1.38,0.64,0.64,0,0,0-.1-0.22,0.32,0.32,0,0,0-.3-0.34H25.5V16.5h0a0.09,0.09,0,0,0-.13,0h0l-0.66.42a0.1,0.1,0,0,0,0,.13l0.09,0.14-0.08.15H24.35a0.09,0.09,0,0,0-.09,0l-0.37-.2H23.58a0.42,0.42,0,0,0-.2.1l-0.07,0,0.29,0.39a0.3,0.3,0,0,1,.06-0.09,0.17,0.17,0,0,1,.24,0l0,0,0.15,0.18,0.09,0.1,0,0.08v0.18a0.1,0.1,0,0,0,.09.1h0.16v0.15l-0.18.11a0.1,0.1,0,0,0,0,.13l0.4,0.67a0.09,0.09,0,0,0,.09,0v0.07a9.19,9.19,0,0,1,1.81-.33h0a1.33,1.33,0,0,1,.24-0.55,0.89,0.89,0,0,0-.07.25,0.59,0.59,0,0,0,0,.19,1.64,1.64,0,0,0,0,.17l-0.06.12H26.55a7.88,7.88,0,0,0-1.68.3H24.65a0.21,0.21,0,0,1-.12,0H24.41a0.85,0.85,0,0,0-.28.25h0a0.46,0.46,0,0,0,.06.19v0.09a10.27,10.27,0,0,0,.57,1.56A1.07,1.07,0,0,0,25,22a1.74,1.74,0,0,0,.25.17,2.49,2.49,0,0,0,.4.19,0.46,0.46,0,0,0-.06-0.3,0.92,0.92,0,0,1-.36-0.22h0a2.33,2.33,0,0,1,.44.14l0.25,0-0.35-.6a0.39,0.39,0,0,0-.2,0H25V21.32a0.43,0.43,0,0,0-.17-0.17h0L24.5,20.3h2.06a0.57,0.57,0,0,0,.32,0h0a0.31,0.31,0,0,0,.3-0.1h0l0.49-.4h0.17l0.2-.06-0.73.59h0a0.45,0.45,0,0,1-.43.18h0a1.14,1.14,0,0,1-.34,0H25a7.21,7.21,0,0,0,.29.79,0.44,0.44,0,0,1,.4.12,5.16,5.16,0,0,0,.36.62l0.23,0.4-0.43-.18h0a4,4,0,0,0,1.87.81c0.49,0.22.22,0.51,0.22,0.51L27.46,24a0.9,0.9,0,0,0-.27,1.16,1.57,1.57,0,0,0,1.26,1,0.44,0.44,0,0,1,.22.11,0.33,0.33,0,0,1,.11.2h0a6.37,6.37,0,0,0-1,1,0.21,0.21,0,0,1-.16,0,1.09,1.09,0,0,0-.74.3l-0.08.12-0.2.26,1,0.19h0L27.75,28V27.85s0.36-.28.78-0.54L28.37,28a0.1,0.1,0,0,0,.07.11h0.15v0.14H28.43a0.09,0.09,0,0,0-.11.07h0l-0.08.37,0.18,0,0.06-.29,0.29,0.07-0.07.31,0.18,0L29,28.36a0.09,0.09,0,0,0-.07-0.11H28.78V28.11h0.15A0.1,0.1,0,0,0,29,28l0.18-.76a0.1,0.1,0,0,0-.07-0.11H29V27H29.1a0.1,0.1,0,0,0,.2,0l0.06-.17h0.13c0.31,0,.3-0.44.28-0.62V25.94l0.23-.6a0.09,0.09,0,0,0,0-.13h0l-0.13-.06V25L30,25.1h0a1.42,1.42,0,0,0,.26.31L31,26l1,1c0.73,1.54.62,1.54,0.62,1.54h0l-0.29.35a4.94,4.94,0,0,0-.2.51h0.42l0.17-.23v0.26H33V29l-0.23-.22a0.26,0.26,0,0,1,0-.23,1.59,1.59,0,0,0-.26-1.41,0.63,0.63,0,0,1-.08-0.44,0.47,0.47,0,0,0-.14-0.42,7.67,7.67,0,0,1-.65-1.11,0.5,0.5,0,0,1,.09-0.28,0.5,0.5,0,0,1,.2.37,2.86,2.86,0,0,0,.25-1.06,2.59,2.59,0,0,0,.33.19,0.88,0.88,0,0,0,.76.52,2.7,2.7,0,0,0,.76,0,6.61,6.61,0,0,1-.6-0.41,1.18,1.18,0,0,0,.25-0.08h0a0.62,0.62,0,0,0,1-.38,0.34,0.34,0,0,1-.45.13m-9-9.11c0,0.08-.19.06-0.2,0a0.24,0.24,0,0,1,0-.14A0.26,0.26,0,0,0,25,14.71c-0.08-.08,0-0.11,0-0.11,0.37-.11.26,0.41,0.26,0.41M27,13.81a1,1,0,0,0-.29.11V13.86a0.79,0.79,0,0,1,.09-0.21,0.19,0.19,0,0,1,.09-0.09,0.56,0.56,0,0,1,.21,0,0.9,0.9,0,0,1,.31.13l-0.42.07m1.53-1.05a0.5,0.5,0,0,1-.51.45c-0.39,0,0-.55,0-0.55a1.18,1.18,0,0,0,.17-0.52,0.63,0.63,0,0,1,.34.62m-3.16,3.92,0.11,0.17V17L25,17.28,24.77,17ZM24.44,18V17.45h0.3V18h-0.3Zm0.48,0.75-0.11.32h0l-0.24-.41-0.06-.1,0.26-.15,0.17,0.3h0Zm0.44-1.08-0.34.8-0.09-.16V18.27h0A0.09,0.09,0,0,0,25,18.18V17.51l0.29-.21,0.07,0h0v0.22h0.15Zm0.25-.38h0c0-.17.1-0.94,0.11-1.08h0s0.12,0,.13.22a0.37,0.37,0,0,1,.08.38,0.5,0.5,0,0,0-.16-0.22v0.3a0.2,0.2,0,0,0,.08.19l0.21,0.08h0a0.77,0.77,0,0,0,.23,0h0.14l0,0h0A0.13,0.13,0,0,0,26.26,17H26.1a1.79,1.79,0,0,1,0-.23,0.15,0.15,0,0,1,.13-0.11,0.12,0.12,0,0,1,.11.06,0.52,0.52,0,0,0,.09.16h0a0.64,0.64,0,0,1,0-.26h0a1,1,0,0,1,.3-0.37,1.48,1.48,0,0,1,.08.3,0.53,0.53,0,0,1,0,.19,0.54,0.54,0,0,1-.2.18h0.2c0.09,0,.16.07,0.09,0.23a1.31,1.31,0,0,1-.07.17,0.26,0.26,0,0,0-.2-0.19,0.1,0.1,0,0,0-.09.09,0.16,0.16,0,0,0,0,.06,0.22,0.22,0,0,0,0,.08,0.31,0.31,0,0,0,.17.15,1.31,1.31,0,0,0,.4.13h0.08a0.15,0.15,0,0,0,.07-0.08,0.12,0.12,0,0,0-.06-0.16H27.18a0.27,0.27,0,0,0-.15,0l0.06-.18a0.17,0.17,0,0,1,.14-0.14,0.2,0.2,0,0,1,.15.14,0.17,0.17,0,0,0,0,.1h0a0.54,0.54,0,0,1,0-.27,0.8,0.8,0,0,1,.34-0.3,1,1,0,0,1,0,.47,0.56,0.56,0,0,1-.22.17h0l0.17-.06h0a0.14,0.14,0,0,1,.12.16v0a0.39,0.39,0,0,1-.1.2,0.35,0.35,0,0,0-.18-0.21,0.13,0.13,0,0,0-.1.09,0.17,0.17,0,0,0,0,.12,0.32,0.32,0,0,0,.19.18h0L27.87,18a0.46,0.46,0,0,0,.21.07h0.07A0.19,0.19,0,0,0,28.24,18a0.14,0.14,0,0,0-.06-0.19H28a0.28,0.28,0,0,1,.08-0.18,0.15,0.15,0,1,1,.29,0v0.09h0a0.54,0.54,0,0,1,0-.27,0.68,0.68,0,0,1,.31-0.21h0.08a1.84,1.84,0,0,1,0,.31,0.47,0.47,0,0,1,0,.14,0.59,0.59,0,0,1-.24.15h0.17a0.14,0.14,0,0,1,.1.21,1.61,1.61,0,0,1-.15.2A0.3,0.3,0,0,0,28.51,18a0.12,0.12,0,0,0-.09.06,0.17,0.17,0,0,0,0,.08,0.19,0.19,0,0,0,0,.06,0.45,0.45,0,0,0,.22.25,0.5,0.5,0,0,0,.23.08,0.26,0.26,0,0,0,.13,0h0l0.13-.1,0.1-.1a0.1,0.1,0,0,0-.09,0H29a0.36,0.36,0,0,1,.33-0.19h0A0.36,0.36,0,0,1,29.43,18H29.5l-0.41.44L29,18.59l-0.21.23a14.4,14.4,0,0,0-3.23-1.45m4.76,4,0.26,0.53L30.45,22l-0.14,0-0.1-.2L30,21.48Zm-0.9-.71,0.23-.18L30,20.91l-0.23.19-0.33-.39,0-.06h0ZM28.63,20h0l0.15-.22,0.49,0.33-0.07.11-0.1.15-0.25-.17L28.63,20h0Zm0.1,0.29,0.09,0.06L29,20.53h0a0.09,0.09,0,0,0,.12,0h0l0.09-.13h0l-0.13.11a0.09,0.09,0,0,0,0,.13h0L29.7,21.3a0.09,0.09,0,0,0,.13,0h0L30,21.2v0.09l-0.14.07a0.09,0.09,0,0,0,0,.13h0l0.07,0.15a3.11,3.11,0,0,1-1.18-1.31m0.82,4.39a1.36,1.36,0,0,1,0-.59h0l-0.67-.57,0.68,0.24a2.08,2.08,0,0,0-.56-1,1.88,1.88,0,0,1,.8,1.36h0ZM29.72,25v0.09H29.66V25Zm-0.85,2v0.06h0m0,0.88-0.29-.07,0.14-.58,0.26,0Zm0.29-1.07-0.28-.11,0.2-.56,0.28,0.1Zm0.56-1.29-0.15.33-0.28-.13,0.25-.54,0.13,0.06,0.14,0.06ZM30,24.89H29.93l-0.21-.08,0.11-.3,0.09-.25,0.28,0.11-0.2.52h0Zm0.34-1L30,23.8l0.18-.57,0.29,0.09Zm0.27-1h-0.3l0.06-.59h0.3Zm-3,6.3a0.45,0.45,0,0,0-.15-0.08H27.28v0.26l-0.08.28v0.18L27,30h0.09a0.41,0.41,0,0,0,.34,0,0.56,0.56,0,0,0,.22-0.34,0.5,0.5,0,0,0,0-.19,0.41,0.41,0,0,0,0-.16,0.36,0.36,0,0,0-.1-0.12M33,29.69A13.36,13.36,0,0,1,28.54,29a12.89,12.89,0,0,0-4.47-.79H23.14a0.28,0.28,0,0,0-.21.07,0.25,0.25,0,0,0,0,.31c0.34,0.6,1.86.72,2,.74a2,2,0,0,1,.48,1v0.06h0.06a12.23,12.23,0,0,1,2.8.7,13.72,13.72,0,0,0,4.63.77h0.9l0.47-2.16H34.2a9.77,9.77,0,0,1-1.14.06m-5.11,0a0.64,0.64,0,0,1-.12.23,0.57,0.57,0,0,1-.18.14,0.55,0.55,0,0,1-.22.06,0.63,0.63,0,0,1-.24,0L27,30.12H26.7l0.07-.2,0.07-.23,0.06-.22,0.1-.33V28.93h0.45L27.71,29a0.61,0.61,0,0,1,.18.15,0.41,0.41,0,0,1,.08.2,0.59,0.59,0,0,1,0,.27m1.11,0.09a0.28,0.28,0,0,1-.13.17,0.38,0.38,0,0,1-.23,0,1.28,1.28,0,0,0,.09.32l0.11,0.32H28.6L28.45,30h0V30l-0.07.24,0,0.21H28.05l0.07-.2,0-.29,0.07-.22,0.07-.24,0-.21H29a0.28,0.28,0,0,1,.06.11,0.27,0.27,0,0,1,0,.13m1.5,0.68a0.59,0.59,0,0,1-.1.22,0.6,0.6,0,0,1-.18.16,0.61,0.61,0,0,1-.23.08,0.75,0.75,0,0,1-.28,0,1,1,0,0,1-.25-0.09,0.57,0.57,0,0,1-.19-0.14,0.5,0.5,0,0,1-.1-0.21,0.62,0.62,0,0,1,0-.27,0.59,0.59,0,0,1,.09-0.22,0.65,0.65,0,0,1,.17-0.16,0.63,0.63,0,0,1,.23-0.08,0.79,0.79,0,0,1,.28,0,0.91,0.91,0,0,1,.25.09,0.59,0.59,0,0,1,.19.15,0.5,0.5,0,0,1,.1.21,0.63,0.63,0,0,1,0,.27M31.18,30v0.91H30.75l0,0.07V30.09h0.28l0,0.21m1.2,0H32.08v1H31.7v-1a0.37,0.37,0,0,0,0-.06H31.49V30.21H32.4M0.93,23.46l0.3,0.06a2.19,2.19,0,0,1-.65.5,3.15,3.15,0,0,1,.76,0,0.87,0.87,0,0,0,.76-0.53A7.46,7.46,0,0,0,3.62,23a2.48,2.48,0,0,1,0,.84c-0.11.64-.67,1.58-1.35,1.49a0.49,0.49,0,0,0-.64.62,2.12,2.12,0,0,1,0,1.39,0.18,0.18,0,0,0,.2.15h0a2.15,2.15,0,0,0-.39.89S2,28.18,2,28.6a0.69,0.69,0,0,0-.13.76,2.65,2.65,0,0,1,1-.12,0.57,0.57,0,0,0,.81,0l0,0a0.22,0.22,0,0,1,.31,0l0,0.07A0.23,0.23,0,0,0,4.15,29s0-.31.16-0.29,0.56,0.06.56,0.26a0.58,0.58,0,0,0-.42-0.7l-0.13,0a0.52,0.52,0,0,0-.84,0S3.14,28.58,3,28s-0.55-2,.35-2.2l2.37-.66s0.21,0,.19-0.43A2.86,2.86,0,0,1,6,23.91a5.79,5.79,0,0,1,.47-1.44,3.34,3.34,0,0,0-.09.83l1.23-.83L8.19,22l1.23-.82-0.06,0a1.39,1.39,0,0,0-1-.27H7.71a0.19,0.19,0,0,1-.18-0.29l0.35-1.09a0.42,0.42,0,0,1,.14.18l-0.31,1H8.3c1,0.1,1,.15,1.19.33h0l0.1,0.08,0.12,0.06H9.82A0.19,0.19,0,0,1,9.76,21a0.31,0.31,0,0,1,0-.07,0.39,0.39,0,0,1,0-.1,0.48,0.48,0,0,0-.07-0.29H9.74l0.07,0a0.65,0.65,0,0,1,.13.33,0.24,0.24,0,0,0,.1.15,0.36,0.36,0,0,0,.2,0h0.08a0.16,0.16,0,0,1,0-.08,0.28,0.28,0,0,1,.13,0h0.18l0.06,0.06h0a0.14,0.14,0,0,0,.14.11h0A0.1,0.1,0,0,1,11,21.08h0.06a0.26,0.26,0,0,1,0,.37h0a0.3,0.3,0,0,0,0,.3L11.14,22a0.16,0.16,0,0,0,.19.11h0A1,1,0,0,0,11.6,22h0.06a0.35,0.35,0,0,1,0,.32v0.09h0l0.13-.1A0.63,0.63,0,0,0,12,21.9h0a0.17,0.17,0,0,1,.1-0.07h0a0.62,0.62,0,0,1-.11.45h0.06l0.08-.06h0a0.53,0.53,0,0,0,.12-0.39h0.08a0.53,0.53,0,0,1-.06.37l0.11-.2a0.61,0.61,0,0,0,.13-0.65,0.5,0.5,0,0,0-.18-0.25L12.21,21h0l-0.14,0h0a0.73,0.73,0,0,1-.17-0.19h0l-0.11-.22V20.52a0.59,0.59,0,0,0-.21-0.16l-0.17-.08H11.33L10.9,20l-0.3-.14H10.51l-0.37-.18h0L10,19.56H9.94l-0.5-.21-0.62-.27h0A0.57,0.57,0,0,1,9.16,19l0.58,0.25L10,19.31,10.1,19c0.09-.19.18-0.37,0.28-0.55a7.9,7.9,0,0,1,.64-1L10.71,17a1.46,1.46,0,0,0-.13.67v0.13h0A1.1,1.1,0,0,1,10.22,17a0.22,0.22,0,0,0-.08.16,1.2,1.2,0,0,0,.05.44,0.7,0.7,0,0,1,0,.28,1,1,0,0,1,0,.26,1.57,1.57,0,0,1-.37.61,0.09,0.09,0,0,1-.1,0,0.19,0.19,0,0,1-.05-0.2,1.33,1.33,0,0,1,0-.15h0a1.63,1.63,0,0,0-.15-0.62,1.78,1.78,0,0,1-.43.72,0.06,0.06,0,0,1,0,0h0a0.93,0.93,0,0,0,0-.16,0.78,0.78,0,0,0-.18-0.49h0V17.65a1.06,1.06,0,0,1-.07.15,1.47,1.47,0,0,1-.84.6,0.16,0.16,0,0,1,0-.09H8a1,1,0,0,0,.14-0.56V17.68C8,17.89,7.86,18,7.67,18.3a1.14,1.14,0,0,0-.12.28A15.13,15.13,0,0,0,6,19.68l-0.19.17-0.28-.34a3.7,3.7,0,0,0,.79-0.91,2,2,0,0,0,0-2.33,0.69,0.69,0,0,1,.32-0.63,0.1,0.1,0,0,0,0-.2,1.17,1.17,0,0,0-.8.37,0.79,0.79,0,0,0-.16.48,0.76,0.76,0,0,0-.41-0.13H5.13A0.45,0.45,0,0,1,4.69,16a0.26,0.26,0,0,1,0-.25,0.1,0.1,0,1,0-.18-0.09h0a1,1,0,0,0-.13.72,0.73,0.73,0,0,0,.27.38H4.53a0.17,0.17,0,0,1-.18-0.09,0.1,0.1,0,0,0-.19.07,1,1,0,0,0,.63.71,0.32,0.32,0,0,1-.25.14,0.1,0.1,0,0,0-.05.2,1,1,0,0,0,.36.07A0.6,0.6,0,0,0,5.3,17.7a0.65,0.65,0,0,1,.37.37,0.47,0.47,0,0,1-.24.39,4.84,4.84,0,0,1-2,.8l-0.54.13A3.62,3.62,0,0,0,.3,21a2.28,2.28,0,0,0-.13,1.79,1.17,1.17,0,0,0,.26.39A0.34,0.34,0,0,1,0,23a0.6,0.6,0,0,0,.93.43m0-1.61h0a1.6,1.6,0,0,1,.91-1.3,3.79,3.79,0,0,1,1.7-.33,9,9,0,0,1,1.69.18,13,13,0,0,0-1.56,1.54h0a4.87,4.87,0,0,1-2,.69,0.7,0.7,0,0,1-.57-0.21A0.82,0.82,0,0,1,1,21.79m27.79,7.74H28.64L28.46,30h0a0.25,0.25,0,0,0,.19,0,0.24,0.24,0,0,0,.11-0.15,0.34,0.34,0,0,0,0-.12,0.12,0.12,0,0,0,0-.08l-0.07,0M8.74,9.67A0.12,0.12,0,1,0,8.58,9.6a0.12,0.12,0,0,0,.16.07h0m-0.07.18L8.33,10l-0.06.88,0.35-.12ZM7.78,10a0.28,0.28,0,1,0,.35.18h0A0.28,0.28,0,0,0,7.78,10m-0.68.28a0.12,0.12,0,0,0,.08-0.15h0a0.12,0.12,0,1,0-.08.16m0.46-.7a0.59,0.59,0,0,1-.1.41L8,9.82a0.59,0.59,0,0,1-.3-0.26,0.66,0.66,0,0,1,.44.11L7.94,9.1a0.49,0.49,0,0,1-.28.36A0.84,0.84,0,0,1,7.74,9l-0.58.2a0.64,0.64,0,0,1,.36.34A0.48,0.48,0,0,1,7.08,9.4L7.28,10a0.66,0.66,0,0,1,.28-0.37M8.44,9.84a0.12,0.12,0,1,0-.15-0.07,0.12,0.12,0,0,0,.15.07m0.39,0.54,1-.34v0.1a1.23,1.23,0,0,1-.11.81,0.07,0.07,0,0,0,0,.09H9.81A1.37,1.37,0,0,0,10,10.12a0.62,0.62,0,0,0-.3-0.41,0.57,0.57,0,0,0-.22-0.08A0.58,0.58,0,0,0,9,9.79H9L8.89,9.9h0a0.58,0.58,0,0,0,0,.48m-3,.78a0.12,0.12,0,1,0-.16-0.08,0.13,0.13,0,0,0,.16.08M6,10.84a0.12,0.12,0,1,0-.08-0.23h0a0.12,0.12,0,0,0-.08.15h0a0.12,0.12,0,0,0,.15.08H6m-0.11.66a0.12,0.12,0,1,0-.16-0.08,0.12,0.12,0,0,0,.16.08h0m1-1.14a0.12,0.12,0,1,0-.16-0.08,0.12,0.12,0,0,0,.16.08h0m-0.63.23a0.12,0.12,0,0,0,.07-0.15h0a0.12,0.12,0,0,0-.15-0.07h0a0.12,0.12,0,0,0,.08.23h0m0.3-.15a0.13,0.13,0,0,0,.08-0.16,0.12,0.12,0,0,0-.15-0.08h0a0.12,0.12,0,0,0-.08.15h0a0.12,0.12,0,0,0,.15.08h0M18.83,5.23a0.18,0.18,0,1,0,.18.18,0.18,0.18,0,0,0-.18-0.18h0m-2-4.72h0M16.7,0.4h0m0.08,0.06h0m0,0.15h0m-0.07.25h0m0.13-.13h0m-0.36.41h0V1h0V1.13H16.26A0.18,0.18,0,0,1,16.18.77a0.06,0.06,0,0,1-.07,0h0a0.07,0.07,0,0,1,0-.05h0A0.14,0.14,0,0,1,16,.81H15.88V0.68h0l0.07,0.07H15.69V1h0.54l0.08,0.06h0Zm-1.06-.41h0m1.38,0.1h0m-1.33-.24h0M16.63,1h0m-0.09-.53h0a0.17,0.17,0,0,0-.08.12l0.31,0.05h0a0.38,0.38,0,0,1-.15.2h0A0.41,0.41,0,0,0,16.77.66a0.19,0.19,0,0,0,0-.15V0.46H16.54m4,6.07a0.18,0.18,0,1,0,.18-0.18,0.18,0.18,0,0,0-.18.18h0M14.92,8.78a0.18,0.18,0,1,0-.18-0.18,0.18,0.18,0,0,0,.18.18h0M15.1,9.24h0.05l0.26-.08-0.13.17a0.19,0.19,0,0,0,.31.22h0l0.16-.19-0.11-.21L16,8.9l0.17,0.2a0.21,0.21,0,0,0,.24.08l0.43-.11h1l0.43,0.11a0.21,0.21,0,0,0,.24-0.08l0.12-.21,0.42,0.25L19,9.35l0.16,0.19h0a0.18,0.18,0,0,0,.28-0.23h0l-0.13-.17,0.26,0.08h0.06A0.18,0.18,0,0,0,19.81,9h0a0.18,0.18,0,0,0-.18-0.18H19.29A0.57,0.57,0,0,1,19,8.68l0.39-.27h0a0.18,0.18,0,1,0-.14-0.33l-0.07.05h0L19,8.18l0.06-.13h0a0.19,0.19,0,0,0,0-.07,0.18,0.18,0,0,0-.18-0.18h0a0.18,0.18,0,0,0-.17.12h0V7.87h0a0.18,0.18,0,0,0-.18-0.17H18.44V8.33h-0.1a0.69,0.69,0,0,1-.68-0.58,0.31,0.31,0,0,1-.29.27h-0.1a0.33,0.33,0,0,1-.13-0.22h0a0.69,0.69,0,0,1-.48.52h-0.3V7.71H16.27a0.18,0.18,0,0,0-.18.17h0v0h0a0.18,0.18,0,0,0-.34.13h0l0.06,0.13-0.21,0h0a0.17,0.17,0,0,0-.11,0,0.18,0.18,0,0,0-.1.33l0.39,0.27a0.57,0.57,0,0,1-.33.18H15.11a0.18,0.18,0,0,0-.18.18h0a0.18,0.18,0,0,0,.18.18h0m3-1h0.16V7.05a0.59,0.59,0,0,0-.57.43,0.61,0.61,0,0,0,0,.15,0.5,0.5,0,0,0,0,.11,0.59,0.59,0,0,0,.41.45m0-2.41L17.62,7h0.53l0.5-1.18H18.12v0Zm0.4-.3a0.18,0.18,0,1,0-.18.18,0.18,0.18,0,0,0,.18-0.18h0m-2.36,8.21h0a0.72,0.72,0,0,1,.27.18,1.81,1.81,0,0,1,.19.23l0.15,0.22c0.11,0.19.21,0.39,0.27,0.51L17.09,15l0,0.1,0.08,0.13h0a0.27,0.27,0,0,0,.09.08h0.16a0.25,0.25,0,0,0,.09-0.08h0l0.08-.13V15l0-.1A4.72,4.72,0,0,1,18,14.39l0.14-.22a1.76,1.76,0,0,1,.19-0.23,0.84,0.84,0,0,1,.21-0.16,0.93,0.93,0,0,1-.09-0.26l1.07-2.65-0.3-.72-0.42-.26L19,10.3l-0.26-.1-0.26-.59-0.59-.17L18.18,10l-0.49-.1-0.11-.53L17.3,9.32,17,9.41V10l-0.49.1,0.18-.6-0.59.17-0.19.61-0.24.09,0.11-.47-0.42.26-0.3.72,1.21,2.59a0.81,0.81,0,0,1-.09.29M18.71,11H19l-0.52,1.89L18.18,13Zm-1.07.13,0.51-.06-0.17,2-0.48.18Zm-0.22,2.53,1-.45-0.08.28-1,.45-1-.49-0.09-.28ZM17,11.15l0.28,2.11-0.47-.17-0.31-2Zm-0.82,1.7L15.57,11h0.35l0.67,2Zm4.55-6a0.18,0.18,0,1,0,.18.18,0.18,0.18,0,0,0-.18-0.18h0M17.79,2.34s1.48-.63,1.82.07c0,0,.17.33-0.3,0.32a4.85,4.85,0,0,0-1.24-.2H16.78V2.65a0.07,0.07,0,0,1,0,.06H16.7l-0.14-.09a0.57,0.57,0,0,1,.08.21H16.5a0.39,0.39,0,0,1-.2-0.06L16.38,2.9a0.26,0.26,0,0,1,.15.34l0,0.05v0a0.48,0.48,0,0,0-.23-0.16H16.19a1,1,0,0,1-.26-0.06l0.12,0a0.22,0.22,0,0,1,.13.09,0.28,0.28,0,0,1,0,.22v0A0.19,0.19,0,0,0,16,3.32H15.61a0.66,0.66,0,0,0,0,.1c0,1.11-.19,1.38-0.35,1.42a0.42,0.42,0,0,0-.19.4,0.3,0.3,0,0,1,.25-0.15h0a0.68,0.68,0,0,1,.15-0.17,0.2,0.2,0,0,0-.05.18,0.3,0.3,0,0,1,.17.16,0.4,0.4,0,0,0,.14-0.33,0.21,0.21,0,0,1,0-.12,0.29,0.29,0,0,1,.09.13,0.38,0.38,0,0,0,0-.35,0.15,0.15,0,0,1,.13.15A0.53,0.53,0,0,0,16,4.42a0.31,0.31,0,0,0,0-.14,0.2,0.2,0,0,1,.16.16,0.32,0.32,0,0,0,0-.3,0.12,0.12,0,0,1,0-.14s0.09-.06.12,0.14a0.63,0.63,0,0,0,0-.25,0.19,0.19,0,0,1,0-.19l0.32-.22a2.73,2.73,0,0,1,1.27-.23,0.37,0.37,0,0,1,.29-0.43,0.35,0.35,0,0,0-.17.47h0a0.76,0.76,0,0,0,.53.51s1.21,0.42.7,1a0.46,0.46,0,0,0-.39.25,0.29,0.29,0,0,1,.22.11A0.34,0.34,0,0,1,19.25,5a0.25,0.25,0,0,0,.17-0.14,0.25,0.25,0,0,0,.15.26,0.24,0.24,0,0,0,.06-0.28,0.45,0.45,0,0,0,.23,0,0.3,0.3,0,0,0-.08-0.23,0.37,0.37,0,0,0,.26,0,0.36,0.36,0,0,0-.18-0.24A0.17,0.17,0,0,0,20,4.37a0.33,0.33,0,0,0-.2-0.23l0.07-.19a0.49,0.49,0,0,0-.24,0,0.29,0.29,0,0,0-.23-0.22,0.24,0.24,0,0,1-.33-0.09l0-.06A6.11,6.11,0,0,0,18.76,3c0.12,0,1,.07,1.07-0.4A0.57,0.57,0,0,0,19.45,2H19.36a0.36,0.36,0,0,0-.1-0.15h0a0.07,0.07,0,0,1,0,.07A0.37,0.37,0,0,0,19.1,1.8h0a0.07,0.07,0,0,1,0,.06L19,1.8h0a0.08,0.08,0,0,1,0,.07,0.33,0.33,0,0,0-.16-0.1h0a0.07,0.07,0,0,1,0,.06,0.34,0.34,0,0,0-.17-0.1c-0.06,0-.08,0,0,0a0.07,0.07,0,0,1,0,.06,0.36,0.36,0,0,0-.17-0.09c-0.06,0-.08,0,0,0a0.07,0.07,0,0,1,0,.06,0.34,0.34,0,0,0-.2-0.09c-0.06,0-.08,0,0,0a0.07,0.07,0,0,1,0,.06h0a0.37,0.37,0,0,0-.18-0.07c-0.06,0-.08,0,0,0a0.07,0.07,0,0,1,0,0,5.31,5.31,0,0,0-.54.16S17,2.25,17,1.85V2c0-.43.53-0.43,0.65-0.42a2.26,2.26,0,0,1,.59.13A0.55,0.55,0,0,0,19,1.56a0.3,0.3,0,0,1-.23,0,0.39,0.39,0,0,1,.25,0,0.39,0.39,0,0,0,.46-0.14A0.64,0.64,0,0,1,19,1.33a0.44,0.44,0,0,0-.6.17l0,0s0,0.08-.37,0-1.35-.08-1.22.67c0,0,.07.5,0.88,0.24M13.9,6.69a0.18,0.18,0,1,0-.18-0.18,0.18,0.18,0,0,0,.18.18h0m1.62-5.87h0M20.37,6a0.18,0.18,0,1,0,.18-0.18h0a0.18,0.18,0,0,0-.18.18h0M15.3,3h0a0.77,0.77,0,0,0,0,.52,4.89,4.89,0,0,1,.13,1,2.88,2.88,0,0,0,.1-1,1.25,1.25,0,0,1,0-.28A0.4,0.4,0,0,1,15.3,3m4.95,2.76a0.18,0.18,0,1,0-.18-0.18,0.18,0.18,0,0,0,.18.18h0M15.57,0.26h0m-0.08.07h0m-0.05.09h0m0.33-.19h0m-0.35.29h0m0.25-.29h0M15.09,2.36a0.41,0.41,0,0,1-.11.23,0.15,0.15,0,0,0,.15-0.07,0.31,0.31,0,0,1,.2-0.09c-0.23.06-.17,0.32-0.17,0.46a0.18,0.18,0,0,1-.1.18c0.14,0,.2,0,0.21-0.18a0.3,0.3,0,0,1,.19-0.23,0.38,0.38,0,0,0-.12.32,0.33,0.33,0,0,0,.22.26H15.8a0.24,0.24,0,0,1,.26.16A0.19,0.19,0,0,0,16,3.15h0a0.52,0.52,0,0,1-.2-0.1L15.67,3a0.27,0.27,0,0,1,0-.09,0.48,0.48,0,0,1,.08-0.31,0.39,0.39,0,0,0,0,.33h0l0,0.07a0.86,0.86,0,0,0,.32.08h0a0.53,0.53,0,0,1,.31.19c0.13-.27-0.1-0.29-0.2-0.4h0a0.63,0.63,0,0,1-.11-0.21,0.27,0.27,0,0,1,0-.07h0a0.53,0.53,0,0,0,.16.19,0.35,0.35,0,0,0,.23.09h0.08a0.43,0.43,0,0,0-.18-0.29h0a0.72,0.72,0,0,1,.34.15h0a1,1,0,0,0,0-.13,0.52,0.52,0,0,0-.11-0.19l-0.22-.16h0.07a0.31,0.31,0,0,0,.16,0A0.33,0.33,0,0,0,16.52,2h0a0.15,0.15,0,0,0,.15-0.15h0c-0.2,0-.1-0.26-0.1-0.26h0.07a0.25,0.25,0,0,0,.26-0.24h0a0.33,0.33,0,0,0-.22-0.07H16.53a1.89,1.89,0,0,0-.83-0.17H15.57a0.24,0.24,0,0,0-.15,0,0.51,0.51,0,0,0-.18,0,0.23,0.23,0,0,0,.14.3h0.07a0.21,0.21,0,0,1-.13.22,0.27,0.27,0,0,0-.19.21,0.61,0.61,0,0,0,.22-0.09,0.39,0.39,0,0,1-.15.16,0.44,0.44,0,0,0-.12.28,0.4,0.4,0,0,1,.29-0.09h0.06a0.36,0.36,0,0,0-.33.24m1.48-1a0.29,0.29,0,0,1,.21,0,0.16,0.16,0,0,1-.18.14h0a0.4,0.4,0,0,0,0-.14m-0.66.89h0c-0.07,0-.26-0.06-0.24-0.15a0.33,0.33,0,0,0,.27.09h0.31s0,0.11-.28.07m0.19-.53H16.06a0.67,0.67,0,0,0-.06.15h0V2a0.08,0.08,0,0,1-.07.09h0a0.06,0.06,0,0,1,0,0,0.85,0.85,0,0,1,0-.19h0a0.06,0.06,0,0,0,.07,0h0a0.26,0.26,0,0,0-.1-0.09s0.12,0,0,0H15.83l0.26,0V1.89h0a0,0,0,0,0-.06,0h0M16.31,2h0a0.17,0.17,0,0,1-.11.2h0a0.15,0.15,0,0,0,0-.1,0.13,0.13,0,0,0,0-.09h0a0.11,0.11,0,0,0,0-.15h0a0.21,0.21,0,0,1,.08.15h0m0-.38a0.21,0.21,0,0,1-.15.11A0.13,0.13,0,0,1,16,1.62h0.25m-0.68-.1,0.25,0a0.13,0.13,0,0,1-.14.09,0.2,0.2,0,0,1-.11-0.15m0,0.23h0a0.11,0.11,0,0,0,0,.15h0a0.14,0.14,0,0,0-.05.08,0.15,0.15,0,0,0,0,.11h0a0.17,0.17,0,0,1-.07-0.22h0a0.22,0.22,0,0,1,.1-0.13m-0.32-.41a0.15,0.15,0,0,1,.18,0,0.8,0.8,0,0,0-.06.14,0.11,0.11,0,0,1-.13-0.15M15.83,2h0L16,1.89H15.91ZM14.07,6.21A0.18,0.18,0,1,0,13.89,6h0a0.18,0.18,0,0,0,.18.18h0M15.9,0.48a0.17,0.17,0,0,0-.13-0.2h0a0.18,0.18,0,0,0-.11,0,0.2,0.2,0,0,0-.06.14,0.42,0.42,0,0,0,.09.27h0a0.38,0.38,0,0,1-.1-0.23h0ZM14.81,5.6a0.18,0.18,0,1,0-.18-0.18,0.18,0.18,0,0,0,.18.18h0m1.07-5.34h0m-1.5,5.57a0.18,0.18,0,1,0-.18-0.18,0.18,0.18,0,0,0,.18.18h0M16.2,0.75a0.13,0.13,0,0,0,.07.13h0V0.64h0a0.13,0.13,0,0,0-.09.07h0m-0.12,0h0m0.18-.33a0.08,0.08,0,0,0-.06-0.1h0a0.08,0.08,0,1,0,.07.1m-0.68.47h0m0.36-.31V0.78h0a0.12,0.12,0,0,0,.08,0h0A0.12,0.12,0,0,0,16,.6h0m0.07,0.1h0.12A0.14,0.14,0,0,1,16.27.64L16,0.6a0.15,0.15,0,0,1,0,.1m0.13-.52a0.18,0.18,0,0,1-.09.1h0.18a0.18,0.18,0,0,1,0-.1,0.21,0.21,0,0,1,.1.1V0.1a0.14,0.14,0,0,1-.13,0A0.26,0.26,0,0,1,16.34,0H16.16a0.19,0.19,0,0,1,0,.14A0.14,0.14,0,0,1,16.1.05V0.23a0.2,0.2,0,0,1,.1,0M16,0.57h0.11L16,0.33H15.89Zm0-.27h0m0.23,0.31h0.11l0.14-.23H16.37Zm0.3-.24h0m-0.1,0h0"/></svg>