<svg id="Layer_1" data-name="Layer 1" xmlns="http://www.w3.org/2000/svg" viewBox="0 0 94.07 38.25"><defs><style>.cls-1{fill:#8c8c8c;}</style></defs><title>Ibas</title><path class="cls-1" d="M14.69,15.55a12.08,12.08,0,0,1,.58-3.73A10.67,10.67,0,0,0,14.11,9.4a13.71,13.71,0,0,0-1,2.64,9,9,0,0,1,.72,3.51,9.06,9.06,0,0,1-.75,3.52,13.14,13.14,0,0,0,1,2.64,11.5,11.5,0,0,0,1.23-2.54A11.71,11.71,0,0,1,14.69,15.55Z"/><path class="cls-1" d="M12.88,12.83a13.14,13.14,0,0,0-.29,2.71,14.08,14.08,0,0,0,.27,2.73A8.15,8.15,0,0,0,12.88,12.83Z"/><path class="cls-1" d="M14.34,22.25A12.14,12.14,0,0,0,15.57,24a12.14,12.14,0,0,0,1.23-1.77A12.16,12.16,0,0,1,15.57,20,12.16,12.16,0,0,1,14.34,22.25Z"/><path class="cls-1" d="M16.74,8.86a13.75,13.75,0,0,0-1.16-1.73,13.75,13.75,0,0,0-1.16,1.73A11.21,11.21,0,0,1,15.57,11,11.21,11.21,0,0,1,16.74,8.86Z"/><path class="cls-1" d="M15.57,18.15a11.13,11.13,0,0,0,.32-2.61,11.73,11.73,0,0,0-.32-2.71,11.73,11.73,0,0,0-.32,2.71A11.13,11.13,0,0,0,15.57,18.15Z"/><path class="cls-1" d="M17.81,15.55a8.45,8.45,0,0,0,.48,2.73,14.08,14.08,0,0,0,.27-2.73,13.14,13.14,0,0,0-.29-2.71A8.49,8.49,0,0,0,17.81,15.55Z"/><path class="cls-1" d="M18.06,12A13.7,13.7,0,0,0,17,9.4a10.67,10.67,0,0,0-1.17,2.41,12.08,12.08,0,0,1,.58,3.73,11.71,11.71,0,0,1-.58,3.62,11.5,11.5,0,0,0,1.23,2.54,13.14,13.14,0,0,0,1-2.64A8.76,8.76,0,0,1,18.06,12Z"/><path class="cls-1" d="M15.63,0L0,15.63,15.63,31.25,31.25,15.63ZM4.87,16.55a1,1,0,1,1,0-2A1,1,0,0,1,4.87,16.55Zm2.61,1.59L7.26,18a3.56,3.56,0,0,0,1-2.41,3.4,3.4,0,0,0-1-2.4l0.21-.21a3.69,3.69,0,0,1,1,2.6A3.88,3.88,0,0,1,7.48,18.14ZM9,19.71a5.85,5.85,0,0,0,0-8.33l0.27-.27a6.23,6.23,0,0,1,0,8.87Zm10.87,2.1a8.46,8.46,0,0,1-1.39-1.88,13.66,13.66,0,0,1-1,2.37,12,12,0,0,0,1,1.15l-0.4.38a12.66,12.66,0,0,1-.86-1A12.73,12.73,0,0,1,16,24.51c0.19,0.2.38,0.41,0.58,0.6l-0.44.47c-0.21-.19-0.39-0.4-0.58-0.6-0.19.2-.38,0.41-0.58,0.6l-0.44-.47c0.2-.19.39-0.4,0.58-0.6a12.73,12.73,0,0,1-1.2-1.69,12.66,12.66,0,0,1-.86,1l-0.4-.38a12,12,0,0,0,1-1.15,13.65,13.65,0,0,1-1-2.37,8.46,8.46,0,0,1-1.39,1.88l-0.33-.33a8.16,8.16,0,0,0,1.54-2.21,14.59,14.59,0,0,1-.5-3.73,13.85,13.85,0,0,1,.52-3.71,8.22,8.22,0,0,0-1.57-2.23l0.33-.33a8.64,8.64,0,0,1,1.43,1.91,14.41,14.41,0,0,1,1-2.37,11.2,11.2,0,0,0-1-1.18l0.39-.39A11.83,11.83,0,0,1,14,8.31a14.39,14.39,0,0,1,1.15-1.67c-0.2-.22-0.39-0.45-0.6-0.66L15,5.52c0.2,0.2.38,0.42,0.57,0.63,0.19-.21.37-0.43,0.57-0.63L16.6,6c-0.21.21-.4,0.44-0.6,0.66a14.39,14.39,0,0,1,1.15,1.67,11.83,11.83,0,0,1,.93-1.06l0.39,0.39a11.2,11.2,0,0,0-1,1.18,14.41,14.41,0,0,1,1,2.37,8.63,8.63,0,0,1,1.43-1.91l0.33,0.33a8.21,8.21,0,0,0-1.57,2.23,13.85,13.85,0,0,1,.52,3.71,14.59,14.59,0,0,1-.5,3.73,8.16,8.16,0,0,0,1.54,2.21Zm2.2-2.1L21.84,20a6.23,6.23,0,0,1,0-8.87l0.27,0.27A5.85,5.85,0,0,0,22.11,19.71Zm1.56-1.57a3.88,3.88,0,0,1-1-2.59,3.69,3.69,0,0,1,1-2.6l0.21,0.21a3.4,3.4,0,0,0-1,2.4,3.56,3.56,0,0,0,1,2.41Zm2.61-1.59a1,1,0,1,1,1-1A1.08,1.08,0,0,1,26.27,16.55Z"/><path class="cls-1" d="M52.27,25.85c0-.8-0.5-1.2-1.7-1.2h-1L49.47,27h1C51.67,27,52.27,26.75,52.27,25.85Z"/><path class="cls-1" d="M50.47,29h-1.2l0.2,2.4h1.2c1.6,0,2.1-.3,2.1-1.2S52.27,29,50.47,29Z"/><path class="cls-1" d="M31,18.35l-14.5,17.9L8.77,27v11.2h85.3V18.35H31Zm7.7,15h-2.6V23h2.6v10.3Zm4.2-4a1.3,1.3,0,1,1,1.3-1.3A1.32,1.32,0,0,1,42.87,29.35Zm10.7,3.9a5,5,0,0,1-1.9.2h-4.6V23h3.8a5,5,0,0,1,2,.2,2.54,2.54,0,0,1,2,2.4,2.48,2.48,0,0,1-1.4,2.1,2.57,2.57,0,0,1,2.1,2.7A3,3,0,0,1,53.57,33.25Zm5.7-3.9a1.3,1.3,0,1,1,1.3-1.3A1.32,1.32,0,0,1,59.27,29.35Zm11.3,3.9-0.8-2h-4.6l-0.8,2.1h-2.7L65.87,23h3l4.5,10.2h-2.8Zm5.1-3.9A1.3,1.3,0,1,1,77,28,1.32,1.32,0,0,1,75.67,29.35Zm7.6,4a9.72,9.72,0,0,1-2.7-.5,1.52,1.52,0,0,1-.9-0.5v-2.2a9.66,9.66,0,0,0,1.7.9,4.33,4.33,0,0,0,1.9.4q1.5,0,1.5-.9c0-.5-0.4-0.8-1.4-1.2l-0.5-.2a9.13,9.13,0,0,1-1.7-.8,3.91,3.91,0,0,1-1-.8,3.16,3.16,0,0,1-.7-1.9c0-1.8,1.5-2.9,3.9-2.9a8,8,0,0,1,3.5.8v2.1l-0.1.1-0.2-.1a7.07,7.07,0,0,0-3.1-.9c-0.9,0-1.5.3-1.5,0.8s0.5,0.8,1.7,1.2l0.8,0.3c2,0.7,2.8,1.7,2.8,3.2C87.27,32,85.67,33.35,83.27,33.35Z"/><polygon class="cls-1" points="65.87 29.45 68.97 29.45 67.27 25.45 65.87 29.45"/></svg>