<svg id="Layer_1" data-name="Layer 1" xmlns="http://www.w3.org/2000/svg" viewBox="0 0 314.78 169.97"><defs><style>.cls-1{fill:#8b8c8c;}</style></defs><title>Norton</title><path class="cls-1" d="M261.65,128.19H57.57a53.13,53.13,0,0,1,0-106.26H261.65a53.13,53.13,0,0,1,0,106.26M57.57,26.1a49,49,0,0,0,0,97.92H261.65a49,49,0,0,0,0-97.92H57.57Z"/><path class="cls-1" d="M237.17,45.33a14.35,14.35,0,1,0,14.35,14.35,14.35,14.35,0,0,0-14.35-14.35m0,21.71a7.36,7.36,0,1,1,7.36-7.36A7.36,7.36,0,0,1,237.17,67"/><path class="cls-1" d="M171.37,45.33a14.35,14.35,0,1,0,14.35,14.35,14.35,14.35,0,0,0-14.35-14.35m0,21.71a7.36,7.36,0,1,1,7.36-7.36A7.36,7.36,0,0,1,171.37,67"/><path class="cls-1" d="M221.9,67.44a14.29,14.29,0,0,1-2.82.52c-2.45,0-3-.84-3-3.19V51.52H222V46h-5.87V38.15h-6.6L208.1,46h-5c-3.76,0-6.6,2.31-8.41,5.9L192.42,46h-4.73V73.51h8.09v-12c0-6,3.57-9.89,7.79-10H208V65.2c0,6.44,3.3,8.84,8.68,8.84a19.38,19.38,0,0,0,6.18-1Z"/><polyline class="cls-1" points="261.31 54.69 261.31 73.51 253.45 73.51 253.45 45.98 258.22 45.98 259.82 50.18"/><path class="cls-1" d="M259.79,50.21c2.39-2.77,5.66-4.87,9.49-4.87,6.55,0,9.25,5.22,9.25,10.07V73.51h-8.1V55.63c0-2.36-2-3.64-4.09-3.64s-3.73,1.3-5,2.69"/><polygon class="cls-1" points="125.47 36.01 134.48 36.01 146.86 59.59 146.86 36.01 154.33 36.01 154.33 73.51 146.16 73.51 132.94 47.59 132.94 73.51 125.47 73.51 125.47 36.01"/><polygon class="cls-1" points="302.42 21.93 302.42 23.27 300.45 23.27 300.45 29.88 298.92 29.88 298.92 23.27 296.99 23.27 296.99 21.93 302.42 21.93"/><polygon class="cls-1" points="303.52 29.88 303.52 21.93 305.59 21.93 306.97 27.14 308.37 21.93 310.47 21.93 310.47 29.88 309.2 29.88 309.2 23.66 309.17 23.66 307.56 29.88 306.44 29.88 304.82 23.66 304.78 23.66 304.78 29.88 303.52 29.88"/><path class="cls-1" d="M123.22,106.74l1.87-2.91a11.14,11.14,0,0,0,6.58,2.17c2.7,0,4.37-1.23,4.37-3.35,0-2.45-2.11-3.09-5.57-4.3-3.11-1.09-6.16-2.66-6.16-7.06,0-4.13,3.25-6.37,7.63-6.37a13,13,0,0,1,6.78,1.59l-1.5,3.1A11.16,11.16,0,0,0,132,88.33c-2.44,0-3.9.92-3.9,2.85,0,2.27,1.69,2.85,4.88,3.9s7,2.62,7,7.49c0,4.13-3,6.85-8.24,6.85a13.81,13.81,0,0,1-8.51-2.68"/><polygon class="cls-1" points="147.07 85.28 161.24 85.28 161.24 88.58 151.1 88.58 151.1 95.08 159.11 95.08 159.11 98.31 151.1 98.31 151.1 105.82 161.86 105.82 161.86 109.11 147.07 109.11 147.07 85.28"/><path class="cls-1" d="M167.63,97.22c0-7,3.33-12.3,10-12.3a8.73,8.73,0,0,1,7,2.87l-2.35,2.72a5.94,5.94,0,0,0-4.57-2.07c-3.9,0-5.7,3.19-5.7,9.09,0,5.53,1.9,8.34,5.74,8.34a6.66,6.66,0,0,0,4.94-2.51L185,106a9,9,0,0,1-7.35,3.43c-6.85,0-10-5.22-10-12.21"/><path class="cls-1" d="M191.59,100V85.28h4.06v15.36c0,3.28.81,5.42,4.27,5.42s4.27-2.14,4.27-5.42V85.28h4.1V100c0,5.9-2.27,9.43-8.41,9.43s-8.3-3.53-8.3-9.43"/><path class="cls-1" d="M233.16,109.12h-4.41L224.18,99h-3.76v10.11h-4V85.28h7.77c4.81,0,8.57,1.73,8.57,6.95a6.21,6.21,0,0,1-4.51,6.2ZM224,95.9c3,0,4.57-1,4.57-3.73s-1.58-3.59-4.34-3.59h-3.83V95.9H224Z"/><polygon class="cls-1" points="240.06 85.28 254.24 85.28 254.24 88.58 244.09 88.58 244.09 95.08 252.09 95.08 252.09 98.31 244.09 98.31 244.09 105.82 254.84 105.82 254.84 109.11 240.06 109.11 240.06 85.28"/><path class="cls-1" d="M261.65,85.28h5.95c7.77,0,11.5,4.2,11.5,11.83s-3.8,12-11.29,12h-6.15V85.28Zm5.71,20.54c5.56,0,7.46-2.57,7.46-8.71,0-5.39-1.49-8.54-7-8.54h-2.17v17.25h1.66Z"/><path class="cls-1" d="M57.33,132.39a57.33,57.33,0,1,1,57.32-57.33,57.4,57.4,0,0,1-57.32,57.33m0-96.52A39.19,39.19,0,1,0,85,47.35,39,39,0,0,0,57.33,35.87"/><rect class="cls-1" x="119.77" y="8.91" width="4.47" height="4.47"/><rect class="cls-1" x="119.77" width="4.47" height="4.48"/><rect class="cls-1" x="107.2" y="13.35" width="4.17" height="4.36"/><rect class="cls-1" x="98.92" y="21.92" width="4.21" height="4.17"/><rect class="cls-1" x="111.37" y="17.71" width="4.68" height="4.2"/><rect class="cls-1" x="94.73" y="17.92" width="4.19" height="4"/><rect class="cls-1" x="107.2" y="21.92" width="4.17" height="4.17"/><rect class="cls-1" x="115.35" y="4.48" width="4.42" height="4.43"/><rect class="cls-1" x="107.2" y="8.91" width="8.15" height="4.44"/><rect class="cls-1" x="103.13" y="13.35" width="4.06" height="8.57"/><path class="cls-1" d="M103.13,26.09V30.3H98.92V26.09h-7v3H88.2v3.74h4.18V37H88.2V32.86H83.75v6.54h-4.2v4.17H76.77v4.19H73.7C70.26,52.87,61.63,68.83,59,75.33,49.61,62.25,42.31,57.06,36.56,55.18c-3.1-.93-6.84,2.44-1.69,7.76C46.71,76,50.43,86.73,54,95.32c1.9,4.53,10.43,5.24,12.14.62A139.59,139.59,0,0,1,81.35,66.23V61.57h3.34V57.36H88.2V52.49h4.19v-4.7H88.15V43.52h4.24v4.27h4.15V43.56h3.32v-5.1h3.74V35h3.6V26.09h-4.06Z"/><path class="cls-1" d="M22.26,152H25.4v2.28A5.47,5.47,0,0,1,30,151.76c3.24,0,6.38,2.57,6.38,7.11v0.05c0,4.54-3.11,7.11-6.38,7.11a5.58,5.58,0,0,1-4.64-2.41v6.28H22.26V152Zm11,6.87v-0.05c0-2.64-1.79-4.38-3.92-4.38a4.13,4.13,0,0,0-4,4.38v0.05a4.12,4.12,0,0,0,4,4.39c2.15,0,3.92-1.69,3.92-4.39"/><path class="cls-1" d="M39,159v-0.05a7.3,7.3,0,0,1,14.6-.05v0.05A7.16,7.16,0,0,1,46.25,166,7.08,7.08,0,0,1,39,159m11.47,0v-0.05a4.23,4.23,0,0,0-4.2-4.41,4.11,4.11,0,0,0-4.12,4.36v0.05a4.25,4.25,0,0,0,4.18,4.41A4.13,4.13,0,0,0,50.45,159"/><polygon class="cls-1" points="55.1 152.04 58.32 152.04 61.07 161.43 64.1 151.99 66.77 151.99 69.83 161.43 72.64 152.04 75.77 152.04 71.29 165.84 68.48 165.84 65.43 156.48 62.34 165.84 59.54 165.84 55.1 152.04"/><path class="cls-1" d="M77.39,158.94v-0.05c0-3.92,2.78-7.13,6.69-7.13,4.36,0,6.56,3.42,6.56,7.37,0,0.28,0,.57-0.05.88H80.53a3.82,3.82,0,0,0,3.94,3.47,5,5,0,0,0,3.71-1.63L90,163.48a6.92,6.92,0,0,1-5.6,2.57,6.84,6.84,0,0,1-7-7.11m10.14-1c-0.21-2-1.4-3.6-3.48-3.6-1.92,0-3.27,1.48-3.55,3.6h7Z"/><path class="cls-1" d="M93.91,152H97v3.09a4.86,4.86,0,0,1,4.85-3.35v3.32h-0.18c-2.75,0-4.67,1.79-4.67,5.42v5.21H93.91V152Z"/><path class="cls-1" d="M103.72,158.94v-0.05c0-3.92,2.78-7.13,6.69-7.13,4.36,0,6.56,3.42,6.56,7.37,0,0.28,0,.57,0,0.88H106.86a3.82,3.82,0,0,0,3.94,3.47,5,5,0,0,0,3.71-1.63l1.84,1.63a6.93,6.93,0,0,1-5.6,2.57,6.84,6.84,0,0,1-7-7.11m10.14-1c-0.21-2-1.4-3.6-3.48-3.6-1.92,0-3.27,1.48-3.55,3.6h7Z"/><path class="cls-1" d="M119.52,158.91v-0.05c0-4.54,3.09-7.11,6.35-7.11a5.67,5.67,0,0,1,4.67,2.41V146.8h3.14v18.94h-3.14v-2.28a5.48,5.48,0,0,1-4.67,2.57c-3.22,0-6.35-2.57-6.35-7.11m11.08,0v-0.05a4.11,4.11,0,0,0-4-4.38c-2.15,0-3.94,1.66-3.94,4.38v0.05a4.08,4.08,0,0,0,3.94,4.39,4.13,4.13,0,0,0,4-4.39"/><path class="cls-1" d="M148.51,163.61v2.13h-3.14V146.8h3.14v7.53a5.47,5.47,0,0,1,4.64-2.57c3.24,0,6.38,2.57,6.38,7.11v0.05c0,4.54-3.11,7.11-6.38,7.11a5.58,5.58,0,0,1-4.64-2.41m7.83-4.69v-0.05c0-2.64-1.79-4.38-3.92-4.38a4.13,4.13,0,0,0-4,4.38v0.05a4.12,4.12,0,0,0,4,4.39c2.15,0,3.92-1.69,3.92-4.39"/><path class="cls-1" d="M161.67,169.13l1.06-2.33a3.85,3.85,0,0,0,1.84.52c0.88,0,1.43-.39,1.95-1.58l-5.7-13.7h3.34l3.89,10.17L171.61,152h3.27l-5.45,14.09c-1.09,2.8-2.31,3.84-4.51,3.84a6.38,6.38,0,0,1-3.24-.83"/><polygon class="cls-1" points="184.15 147.58 187.68 147.58 193.15 161.53 198.6 147.58 202.05 147.58 194.5 165.87 191.7 165.87 184.15 147.58"/><path class="cls-1" d="M202.69,158.94v-0.05c0-3.92,2.78-7.13,6.69-7.13,4.36,0,6.56,3.42,6.56,7.37,0,0.28,0,.57-0.05.88H205.83a3.82,3.82,0,0,0,3.94,3.47,5,5,0,0,0,3.71-1.63l1.84,1.63a6.93,6.93,0,0,1-5.6,2.57,6.83,6.83,0,0,1-7-7.11m10.14-1c-0.21-2-1.4-3.6-3.47-3.6-1.92,0-3.27,1.48-3.55,3.6h7Z"/><path class="cls-1" d="M219.22,152h3.14v3.09a4.86,4.86,0,0,1,4.85-3.35v3.32H227c-2.75,0-4.67,1.79-4.67,5.42v5.21h-3.14V152Z"/><path class="cls-1" d="M229.77,147h3.37v3h-3.37v-3ZM229.9,152H233v13.7H229.9V152Z"/><path class="cls-1" d="M236.3,163.09l1.92-2.28a8.35,8.35,0,0,0,5.73,2.36c2,0,3.22-.91,3.22-2.28v-0.05c0-1.29-.73-2-4.1-2.77-3.87-.93-6-2.07-6-5.42v-0.05c0-3.11,2.59-5.26,6.2-5.26a10.06,10.06,0,0,1,6.59,2.28L248.1,152a8.26,8.26,0,0,0-4.93-1.87c-1.87,0-3,1-3,2.15v0.05c0,1.4.83,2,4.31,2.85,3.84,0.93,5.83,2.31,5.83,5.32v0c0,3.4-2.67,5.42-6.49,5.42a11.19,11.19,0,0,1-7.57-2.9"/><path class="cls-1" d="M253.82,147h3.37v3h-3.37v-3Zm0.13,5.08h3.14v13.7h-3.14V152Z"/><path class="cls-1" d="M261,168.31l1.17-2.36a8.93,8.93,0,0,0,4.88,1.45c2.8,0,4.33-1.45,4.33-4.2v-1.06a5.74,5.74,0,0,1-4.82,2.51,6.15,6.15,0,0,1-6.23-6.41v-0.05a6.18,6.18,0,0,1,6.23-6.43,5.91,5.91,0,0,1,4.8,2.33v-2h3.14v10.89a7,7,0,0,1-1.74,5.16c-1.25,1.24-3.16,1.84-5.63,1.84a11.8,11.8,0,0,1-6.12-1.63m10.4-10.07v-0.05a3.83,3.83,0,0,0-4-3.79,3.7,3.7,0,0,0-3.89,3.76v0.05a3.74,3.74,0,0,0,3.89,3.79,3.84,3.84,0,0,0,4-3.76"/><path class="cls-1" d="M278.56,152h3.14v2.13a4.93,4.93,0,0,1,4.28-2.41c3.09,0,4.88,2.08,4.88,5.26v8.72h-3.14V158c0-2.13-1.06-3.35-2.93-3.35s-3.09,1.27-3.09,3.4v7.73h-3.14V152Z"/></svg>