<svg id="Layer_1" data-name="Layer 1" xmlns="http://www.w3.org/2000/svg" viewBox="0 0 559.8 87.76"><defs><style>.cls-1{fill:#faea26;}.cls-2{fill:#1d1d1b;}.cls-3{fill:#fff;}</style></defs><title>Senet</title><rect class="cls-1" width="559.8" height="87.76"/><path class="cls-2" d="M371.72,47.59a4.25,4.25,0,0,1-3.48,1.69c-2.7,0-4.63-2.35-4.62-5.61s2-5.62,4.84-5.61a4.91,4.91,0,0,1,3.28,1.49V38.3h3.88v2.23h-1.05l0,8.84c0,2.75-2.07,4.37-5.52,4.37a5.84,5.84,0,0,1-3.93-1.19A3.94,3.94,0,0,1,363.73,50h2.77A2.27,2.27,0,0,0,369,51.56c1.65,0,2.73-.85,2.73-2.14V47.59Zm-5.16-3.87c0,2.06.89,3.22,2.52,3.23s2.66-1.37,2.67-3.3-1-3.2-2.46-3.2c-1.65,0-2.73,1.28-2.73,3.28"/><path class="cls-2" d="M386.16,47.58h1v2.23h-3.56V48.46A4.36,4.36,0,0,1,380.11,50a3.77,3.77,0,0,1-4-3.59c0-3.37,3.8-3.73,7.48-4.06,0-1.76-.45-2.21-2.12-2.21a1.85,1.85,0,0,0-2.06,1.73l-2.79-.09c0.15-2.3,2-3.77,4.73-3.77,3.18,0,4.89,1.45,4.88,4.06v5.47Zm-2.67-3.2c-2.7.25-4.46,0.48-4.47,2.07A1.65,1.65,0,0,0,380.91,48a2.51,2.51,0,0,0,2.58-2.53V44.38Z"/><path class="cls-2" d="M391.51,39.7c1.23-1.29,2-1.65,3.29-1.65a2.81,2.81,0,0,1,2.74,1.79A4.63,4.63,0,0,1,401,38.07a3,3,0,0,1,3.1,3.26v6.29h1.07v2.23h-3.88l0-7.72c0-1-.47-1.61-1.22-1.61-1.18,0-2.28,1.49-2.28,3.1v4h1.12v2.23H395V42.21c0-1.16-.38-1.72-1.2-1.72-1.26,0-2.34,1.54-2.3,3.36v3.73h1.11v2.23h-4.89V47.59h1l0-7h-1V38.34h3.79V39.7Z"/><path class="cls-2" d="M405.87,34h3.9v5.62A4.27,4.27,0,0,1,413,38c2.88,0,5,2.48,4.94,6,0,3.69-1.94,6.16-4.82,6.15a4.58,4.58,0,0,1-3.53-1.53v1.24h-3.88V47.63h1.2l0-11.37h-1.09V34Zm3.8,10.14c0,2.34,1,3.61,2.76,3.61,1.59,0,2.6-1.43,2.6-3.66s-1-3.67-2.59-3.67c-1.76,0-2.77,1.37-2.78,3.73"/><polygon class="cls-2" points="418.43 34.03 422.36 34.05 422.32 47.66 423.42 47.66 423.42 49.89 418.39 49.88 418.4 47.65 419.51 47.64 419.54 36.25 418.42 36.25 418.43 34.03"/><path class="cls-2" d="M434.88,46.14a5.12,5.12,0,0,1-5.39,4c-3.22,0-5.57-2.52-5.57-6s2.39-6,5.61-6A5.21,5.21,0,0,1,434,40.43a7.66,7.66,0,0,1,1.13,4.29l-8.28,0c0.27,3,2.22,3.14,2.76,3.14a2.32,2.32,0,0,0,2.34-1.71h3ZM432,42.74a2.31,2.31,0,0,0-2.42-2.26A2.67,2.67,0,0,0,427,42.73h5Z"/><path class="cls-2" d="M443.32,48.39a5.34,5.34,0,0,1-3.87,1.79,3.49,3.49,0,0,1-3.73-3.46,3.17,3.17,0,0,1,.86-2.23c0.88-.9,2.15-1.31,5.22-1.64l1.5-.17V42c0-1.33-.85-2.06-2.42-2.06a2,2,0,0,0-2.36,1.9h-2.38a3.55,3.55,0,0,1,1.12-2.44A5.47,5.47,0,0,1,441,38.15c2.86,0,4.52,1.42,4.52,3.83v6.13h1.37v1.82h-3.61V48.39Zm0-4.29-1,.15c-2.1.32-3,.62-3.56,1.19a1.7,1.7,0,0,0-.5,1.1,2,2,0,0,0,2,2,3.14,3.14,0,0,0,3.07-2.85V44.1Z"/><polygon class="cls-2" points="446.56 38.44 450.98 38.44 450.98 40.26 449.69 40.25 451.56 48.05 453.79 38.43 455.98 38.44 458.15 48.05 460.05 40.27 458.79 40.27 458.79 38.44 463.15 38.45 463.14 40.27 462.03 40.27 459.37 49.97 456.94 49.96 454.86 41.33 452.78 49.95 450.33 49.97 447.68 40.27 446.56 40.27 446.56 38.44"/><path class="cls-2" d="M471,48.45a5.34,5.34,0,0,1-3.87,1.79,3.49,3.49,0,0,1-3.73-3.46,3.16,3.16,0,0,1,.87-2.23c0.88-.9,2.15-1.31,5.21-1.64l1.5-.17V42c0-1.33-.85-2.06-2.42-2.06a2,2,0,0,0-2.36,1.9h-2.38A3.54,3.54,0,0,1,465,39.4a5.46,5.46,0,0,1,3.78-1.19c2.85,0,4.52,1.42,4.52,3.83v6.14h1.37V50H471V48.45Zm0-4.29-1,.15c-2.1.32-3,.62-3.56,1.19a1.69,1.69,0,0,0-.5,1.1,2,2,0,0,0,2,2A3.14,3.14,0,0,0,471,45.7V44.15Z"/><path class="cls-2" d="M479.14,41.06c0.62-1.37,1.34-2.83,3.36-2.82a4.11,4.11,0,0,1,1.09.15v2.16a4.53,4.53,0,0,0-1.11-.17c-2.57,0-3.33,2.55-3.33,3.43v4.38h1.31V50h-4.89V48.18h1.33V40.3h-1.29V38.48h3.54v2.57Z"/><path class="cls-2" d="M494,46.5a5.24,5.24,0,0,1-5,3.79c-3.26,0-5.47-2.5-5.46-6.15,0-3.41,2.35-5.9,5.55-5.89,1.86,0,5.08,1.06,5.07,6.49l-8.28,0c0.1,2.6,1.71,3.63,3.25,3.63a2.3,2.3,0,0,0,2.36-1.86H494Zm-2.33-3.37c-0.1-1.91-1-2.94-2.59-2.95-2.38,0-3.07,2.61-3.08,2.93h5.66Z"/><rect class="cls-2" x="494.8" y="47.6" width="2.45" height="2.45" transform="translate(446.25 544.76) rotate(-89.89)"/><path class="cls-2" d="M504.93,47.59a3.14,3.14,0,0,1-3.22,2.61,3.28,3.28,0,0,1-3.28-3.55c0-2.05,1.27-3.51,3.09-3.5a2.39,2.39,0,0,1,1.89.9V43.36h1.4v2.47h-1.47a2.14,2.14,0,0,0-.65-1,1.45,1.45,0,0,0-1-.31,1.78,1.78,0,0,0-1.62,2c0,1.35.63,2.22,1.65,2.22a1.53,1.53,0,0,0,1.51-1.2h1.65Z"/><path class="cls-2" d="M512.46,46.71a3.34,3.34,0,1,1-3.29-3.55,3.41,3.41,0,0,1,3.29,3.55m-4.94,0c0,1.27.62,2.12,1.57,2.12s1.62-.81,1.62-2.12a1.81,1.81,0,0,0-1.61-2.07c-0.94,0-1.58.84-1.58,2.06"/><rect class="cls-2" x="513.64" y="48.28" width="1.81" height="1.8" transform="translate(464.24 563.62) rotate(-89.88)"/><path class="cls-2" d="M516.69,43.38H519v4.33a1,1,0,0,0,1,1.17,1.73,1.73,0,0,0,1.54-1.75V44.7h-0.65V43.39h2.29v5.4h0.61v1.3h-2.22V49.28a3.19,3.19,0,0,1-2.17,1,1.91,1.91,0,0,1-2-2.18V44.69h-0.65v-1.3Z"/><polygon class="cls-2" points="524.63 40.85 526.88 40.86 526.87 45.74 529.29 43.41 530.72 43.41 530.72 44.72 530.07 44.72 528.92 45.74 530.77 48.81 531.33 48.82 531.33 50.12 529.77 50.12 527.81 46.8 526.87 47.59 526.87 48.8 527.55 48.81 527.55 50.11 524.68 50.06 524.69 48.72 525.23 48.72 525.24 42.12 524.63 42.14 524.63 40.85"/><path class="cls-2" d="M120.22,62.29h13.52V52.4h11.38V39.75H133.74v-2h11.38V25h-24.9V62.29Zm0.9-36.35h23.1V36.88H132.84v3.77h11.38V51.5H132.84v9.89H121.12V25.94Z"/><path class="cls-2" d="M143.65,41.22H132.27V36.31h11.38v-9.8h-22V60.82h10.59V50.93h11.38V41.22Zm-2.5-12.93a0.65,0.65,0,1,1-.65.65A0.65,0.65,0,0,1,141.15,28.29Zm0,2.45a0.65,0.65,0,1,1-.65.65A0.65,0.65,0,0,1,141.15,30.73Zm0,2.45a0.65,0.65,0,1,1-.65.65A0.65,0.65,0,0,1,141.15,33.18Zm-2.84-4.9a0.65,0.65,0,1,1-.65.65A0.65,0.65,0,0,1,138.31,28.29Zm0,2.45a0.65,0.65,0,1,1-.65.65A0.65,0.65,0,0,1,138.31,30.73Zm0,2.45a0.65,0.65,0,1,1-.65.65A0.65,0.65,0,0,1,138.31,33.18Zm-2.84-4.9a0.65,0.65,0,1,1-.65.65A0.65,0.65,0,0,1,135.47,28.29Zm0,2.45a0.65,0.65,0,1,1-.65.65A0.65,0.65,0,0,1,135.47,30.73Zm0,2.45a0.65,0.65,0,1,1-.65.65A0.65,0.65,0,0,1,135.47,33.18Zm-2.84-4.9a0.65,0.65,0,1,1-.65.65A0.65,0.65,0,0,1,132.63,28.29Zm0,2.45a0.65,0.65,0,1,1-.65.65A0.65,0.65,0,0,1,132.63,30.73Zm0,2.45a0.65,0.65,0,1,1-.65.65A0.65,0.65,0,0,1,132.63,33.18ZM124.12,59a0.65,0.65,0,1,1,.65-0.65A0.65,0.65,0,0,1,124.12,59Zm0-2.45a0.65,0.65,0,1,1,.65-0.65A0.65,0.65,0,0,1,124.12,56.52Zm0-2.45a0.65,0.65,0,1,1,.65-0.65A0.65,0.65,0,0,1,124.12,54.07Zm0-2.45a0.65,0.65,0,1,1,.65-0.65A0.65,0.65,0,0,1,124.12,51.63Zm0-2.45a0.65,0.65,0,1,1,.65-0.65A0.65,0.65,0,0,1,124.12,49.18Zm0-2.45a0.65,0.65,0,1,1,.65-0.65A0.65,0.65,0,0,1,124.12,46.73Zm0-2.45a0.65,0.65,0,1,1,.65-0.65A0.65,0.65,0,0,1,124.12,44.28Zm0-2.45a0.65,0.65,0,1,1,.65-0.65A0.65,0.65,0,0,1,124.12,41.83Zm0-2.45a0.65,0.65,0,1,1,.65-0.65A0.65,0.65,0,0,1,124.12,39.39Zm0-2.45a0.65,0.65,0,1,1,.65-0.65A0.65,0.65,0,0,1,124.12,36.94Zm0-2.45a0.65,0.65,0,1,1,.65-0.65A0.65,0.65,0,0,1,124.12,34.49Zm0-2.45a0.65,0.65,0,1,1,.65-0.65A0.65,0.65,0,0,1,124.12,32Zm0-2.45a0.65,0.65,0,1,1,.65-0.65A0.65,0.65,0,0,1,124.12,29.59ZM127,59a0.65,0.65,0,1,1,.65-0.65A0.65,0.65,0,0,1,127,59Zm0-2.45a0.65,0.65,0,1,1,.65-0.65A0.65,0.65,0,0,1,127,56.52Zm0-2.45a0.65,0.65,0,1,1,.65-0.65A0.65,0.65,0,0,1,127,54.07Zm0-2.45a0.65,0.65,0,1,1,.65-0.65A0.65,0.65,0,0,1,127,51.63Zm0-2.45a0.65,0.65,0,1,1,.65-0.65A0.65,0.65,0,0,1,127,49.18Zm0-2.45a0.65,0.65,0,1,1,.65-0.65A0.65,0.65,0,0,1,127,46.73Zm0-2.45a0.65,0.65,0,1,1,.65-0.65A0.65,0.65,0,0,1,127,44.28Zm0-2.45a0.65,0.65,0,1,1,.65-0.65A0.65,0.65,0,0,1,127,41.83Zm0-2.45a0.65,0.65,0,1,1,.65-0.65A0.65,0.65,0,0,1,127,39.39Zm0-2.45a0.65,0.65,0,1,1,.65-0.65A0.65,0.65,0,0,1,127,36.94Zm0-2.45a0.65,0.65,0,1,1,.65-0.65A0.65,0.65,0,0,1,127,34.49ZM127,32a0.65,0.65,0,1,1,.65-0.65A0.65,0.65,0,0,1,127,32Zm0-2.45a0.65,0.65,0,1,1,.65-0.65A0.65,0.65,0,0,1,127,29.59ZM129.79,59a0.65,0.65,0,1,1,.65-0.65A0.65,0.65,0,0,1,129.79,59Zm0-2.45a0.65,0.65,0,1,1,.65-0.65A0.65,0.65,0,0,1,129.79,56.52Zm0-2.45a0.65,0.65,0,1,1,.65-0.65A0.65,0.65,0,0,1,129.79,54.07Zm0-2.45a0.65,0.65,0,1,1,.65-0.65A0.65,0.65,0,0,1,129.79,51.63Zm0-2.45a0.65,0.65,0,1,1,.65-0.65A0.65,0.65,0,0,1,129.79,49.18Zm0-2.45a0.65,0.65,0,1,1,.65-0.65A0.65,0.65,0,0,1,129.79,46.73Zm0-2.45a0.65,0.65,0,1,1,.65-0.65A0.65,0.65,0,0,1,129.79,44.28Zm0-2.45a0.65,0.65,0,1,1,.65-0.65A0.65,0.65,0,0,1,129.79,41.83Zm0-2.45a0.65,0.65,0,1,1,.65-0.65A0.65,0.65,0,0,1,129.79,39.39Zm0-2.45a0.65,0.65,0,1,1,.65-0.65A0.65,0.65,0,0,1,129.79,36.94Zm0-2.45a0.65,0.65,0,1,1,.65-0.65A0.65,0.65,0,0,1,129.79,34.49Zm0-2.45a0.65,0.65,0,1,1,.65-0.65A0.65,0.65,0,0,1,129.79,32Zm0-2.45a0.65,0.65,0,1,1,.65-0.65A0.65,0.65,0,0,1,129.79,29.59Zm2.84,19.58a0.65,0.65,0,1,1,.65-0.65A0.65,0.65,0,0,1,132.63,49.18Zm0-2.45a0.65,0.65,0,1,1,.65-0.65A0.65,0.65,0,0,1,132.63,46.73Zm0-2.45a0.65,0.65,0,1,1,.65-0.65A0.65,0.65,0,0,1,132.63,44.28Zm2.84,4.9a0.65,0.65,0,1,1,.65-0.65A0.65,0.65,0,0,1,135.47,49.18Zm0-2.45a0.65,0.65,0,1,1,.65-0.65A0.65,0.65,0,0,1,135.47,46.73Zm0-2.45a0.65,0.65,0,1,1,.65-0.65A0.65,0.65,0,0,1,135.47,44.28Zm2.84,4.9a0.65,0.65,0,1,1,.65-0.65A0.65,0.65,0,0,1,138.31,49.18Zm0-2.45a0.65,0.65,0,1,1,.65-0.65A0.65,0.65,0,0,1,138.31,46.73Zm0-2.45a0.65,0.65,0,1,1,.65-0.65A0.65,0.65,0,0,1,138.31,44.28Zm2.84,4.9a0.65,0.65,0,1,1,.65-0.65A0.65,0.65,0,0,1,141.15,49.18Zm0-2.45a0.65,0.65,0,1,1,.65-0.65A0.65,0.65,0,0,1,141.15,46.73Zm0-2.45a0.65,0.65,0,1,1,.65-0.65A0.65,0.65,0,0,1,141.15,44.28Z"/><path class="cls-2" d="M201.37,25V36.53L194.5,26l-0.6-1H181V62.29h13.49V50.79l7,10.56,0.67,0.94h12.61V25h-13.4Zm12.5,36.35H202.63l-0.39-.55-8.61-13V61.4h-11.7V25.94h11.45l0.35,0.57,8.53,13V25.94h11.61V61.4Z"/><path class="cls-2" d="M193.07,26.51H182.51V60.83h10.56V45.9l9.65,14.62,0.21,0.3h10.38V26.51H202.84V41.45l-9.59-14.63Zm17.83,1.78a0.65,0.65,0,1,1-.65.65A0.65,0.65,0,0,1,210.9,28.29Zm0,2.45a0.65,0.65,0,1,1-.65.65A0.65,0.65,0,0,1,210.9,30.74Zm0,2.45a0.65,0.65,0,1,1-.65.65A0.65,0.65,0,0,1,210.9,33.19Zm0,2.45a0.65,0.65,0,1,1-.65.65A0.65,0.65,0,0,1,210.9,35.65Zm0,2.45a0.65,0.65,0,1,1-.65.65A0.65,0.65,0,0,1,210.9,38.1Zm0,2.45a0.65,0.65,0,1,1-.65.65A0.65,0.65,0,0,1,210.9,40.55Zm0,2.45a0.65,0.65,0,1,1-.65.65A0.65,0.65,0,0,1,210.9,43Zm0,2.45a0.65,0.65,0,1,1-.65.65A0.65,0.65,0,0,1,210.9,45.46Zm0,2.45a0.65,0.65,0,1,1-.65.65A0.65,0.65,0,0,1,210.9,47.91Zm0,2.45a0.65,0.65,0,1,1-.65.65A0.65,0.65,0,0,1,210.9,50.37Zm0,2.45a0.65,0.65,0,1,1-.65.65A0.65,0.65,0,0,1,210.9,52.82Zm0,2.45a0.65,0.65,0,1,1-.65.65A0.65,0.65,0,0,1,210.9,55.27Zm0,2.45a0.65,0.65,0,1,1-.65.65A0.65,0.65,0,0,1,210.9,57.73ZM208,28.29a0.65,0.65,0,1,1-.65.65A0.65,0.65,0,0,1,208,28.29Zm0,2.45a0.65,0.65,0,1,1-.65.65A0.65,0.65,0,0,1,208,30.74Zm0,2.45a0.65,0.65,0,1,1-.65.65A0.65,0.65,0,0,1,208,33.19Zm0,2.45a0.65,0.65,0,1,1-.65.65A0.65,0.65,0,0,1,208,35.65Zm0,2.45a0.65,0.65,0,1,1-.65.65A0.65,0.65,0,0,1,208,38.1Zm0,2.45a0.65,0.65,0,1,1-.65.65A0.65,0.65,0,0,1,208,40.55ZM208,43a0.65,0.65,0,1,1-.65.65A0.65,0.65,0,0,1,208,43Zm0,2.45a0.65,0.65,0,1,1-.65.65A0.65,0.65,0,0,1,208,45.46Zm0,2.45a0.65,0.65,0,1,1-.65.65A0.65,0.65,0,0,1,208,47.91Zm0,2.45a0.65,0.65,0,1,1-.65.65A0.65,0.65,0,0,1,208,50.37Zm0,2.45a0.65,0.65,0,1,1-.65.65A0.65,0.65,0,0,1,208,52.82Zm0,2.45a0.65,0.65,0,1,1-.65.65A0.65,0.65,0,0,1,208,55.27Zm0,2.45a0.65,0.65,0,1,1-.65.65A0.65,0.65,0,0,1,208,57.73Zm-2.89-29.44a0.65,0.65,0,1,1-.65.65A0.65,0.65,0,0,1,205.12,28.29Zm0,2.45a0.65,0.65,0,1,1-.65.65A0.65,0.65,0,0,1,205.12,30.74Zm0,2.45a0.65,0.65,0,1,1-.65.65A0.65,0.65,0,0,1,205.12,33.19Zm0,2.45a0.65,0.65,0,1,1-.65.65A0.65,0.65,0,0,1,205.12,35.65Zm0,2.45a0.65,0.65,0,1,1-.65.65A0.65,0.65,0,0,1,205.12,38.1Zm0,2.45a0.65,0.65,0,1,1-.65.65A0.65,0.65,0,0,1,205.12,40.55Zm0,2.45a0.65,0.65,0,1,1-.65.65A0.65,0.65,0,0,1,205.12,43Zm0,2.45a0.65,0.65,0,1,1-.65.65A0.65,0.65,0,0,1,205.12,45.46Zm0,2.45a0.65,0.65,0,1,1-.65.65A0.65,0.65,0,0,1,205.12,47.91Zm0,2.45a0.65,0.65,0,1,1-.65.65A0.65,0.65,0,0,1,205.12,50.37Zm0,2.45a0.65,0.65,0,1,1-.65.65A0.65,0.65,0,0,1,205.12,52.82Zm0,2.45a0.65,0.65,0,1,1-.65.65A0.65,0.65,0,0,1,205.12,55.27Zm0,2.45a0.65,0.65,0,1,1-.65.65A0.65,0.65,0,0,1,205.12,57.73ZM184.87,59a0.65,0.65,0,1,1,.65-0.65A0.65,0.65,0,0,1,184.87,59Zm0-2.45a0.65,0.65,0,1,1,.65-0.65A0.65,0.65,0,0,1,184.87,56.58Zm0-2.45a0.65,0.65,0,1,1,.65-0.65A0.65,0.65,0,0,1,184.87,54.13Zm0-2.45a0.65,0.65,0,1,1,.65-0.65A0.65,0.65,0,0,1,184.87,51.67Zm0-2.45a0.65,0.65,0,1,1,.65-0.65A0.65,0.65,0,0,1,184.87,49.22Zm0-2.45a0.65,0.65,0,1,1,.65-0.65A0.65,0.65,0,0,1,184.87,46.77Zm0-2.45a0.65,0.65,0,1,1,.65-0.65A0.65,0.65,0,0,1,184.87,44.31Zm0-2.45a0.65,0.65,0,1,1,.65-0.65A0.65,0.65,0,0,1,184.87,41.86Zm0-2.45a0.65,0.65,0,1,1,.65-0.65A0.65,0.65,0,0,1,184.87,39.41Zm0-2.45a0.65,0.65,0,1,1,.65-0.65A0.65,0.65,0,0,1,184.87,37Zm0-2.45a0.65,0.65,0,1,1,.65-0.65A0.65,0.65,0,0,1,184.87,34.5Zm0-2.45a0.65,0.65,0,1,1,.65-0.65A0.65,0.65,0,0,1,184.87,32Zm0-2.45a0.65,0.65,0,1,1,.65-0.65A0.65,0.65,0,0,1,184.87,29.59ZM187.77,59a0.65,0.65,0,1,1,.65-0.65A0.65,0.65,0,0,1,187.77,59Zm0-2.45a0.65,0.65,0,1,1,.65-0.65A0.65,0.65,0,0,1,187.77,56.58Zm0-2.45a0.65,0.65,0,1,1,.65-0.65A0.65,0.65,0,0,1,187.77,54.13Zm0-2.45a0.65,0.65,0,1,1,.65-0.65A0.65,0.65,0,0,1,187.77,51.67Zm0-2.45a0.65,0.65,0,1,1,.65-0.65A0.65,0.65,0,0,1,187.77,49.22Zm0-2.45a0.65,0.65,0,1,1,.65-0.65A0.65,0.65,0,0,1,187.77,46.77Zm0-2.45a0.65,0.65,0,1,1,.65-0.65A0.65,0.65,0,0,1,187.77,44.31Zm0-2.45a0.65,0.65,0,1,1,.65-0.65A0.65,0.65,0,0,1,187.77,41.86Zm0-2.45a0.65,0.65,0,1,1,.65-0.65A0.65,0.65,0,0,1,187.77,39.41Zm0-2.45a0.65,0.65,0,1,1,.65-0.65A0.65,0.65,0,0,1,187.77,37Zm0-2.45a0.65,0.65,0,1,1,.65-0.65A0.65,0.65,0,0,1,187.77,34.5Zm0-2.45a0.65,0.65,0,1,1,.65-0.65A0.65,0.65,0,0,1,187.77,32Zm0-2.45a0.65,0.65,0,1,1,.65-0.65A0.65,0.65,0,0,1,187.77,29.59ZM190.66,59a0.65,0.65,0,1,1,.65-0.65A0.65,0.65,0,0,1,190.66,59Zm0-2.45a0.65,0.65,0,1,1,.65-0.65A0.65,0.65,0,0,1,190.66,56.58Zm0-2.45a0.65,0.65,0,1,1,.65-0.65A0.65,0.65,0,0,1,190.66,54.13Zm0-2.45a0.65,0.65,0,1,1,.65-0.65A0.65,0.65,0,0,1,190.66,51.67Zm0-2.45a0.65,0.65,0,1,1,.65-0.65A0.65,0.65,0,0,1,190.66,49.22Zm0-2.45a0.65,0.65,0,1,1,.65-0.65A0.65,0.65,0,0,1,190.66,46.77Zm0-2.45a0.65,0.65,0,1,1,.65-0.65A0.65,0.65,0,0,1,190.66,44.31Zm0-2.45a0.65,0.65,0,1,1,.65-0.65A0.65,0.65,0,0,1,190.66,41.86Zm0-2.45a0.65,0.65,0,1,1,.65-0.65A0.65,0.65,0,0,1,190.66,39.41Zm0-2.45a0.65,0.65,0,1,1,.65-0.65A0.65,0.65,0,0,1,190.66,37Zm0-2.45a0.65,0.65,0,1,1,.65-0.65A0.65,0.65,0,0,1,190.66,34.5Zm0-2.45a0.65,0.65,0,1,1,.65-0.65A0.65,0.65,0,0,1,190.66,32Zm0-2.45a0.65,0.65,0,1,1,.65-0.65A0.65,0.65,0,0,1,190.66,29.59Zm2.89,14.72a0.65,0.65,0,1,1,.65-0.65A0.65,0.65,0,0,1,193.55,44.31Zm0-2.45a0.65,0.65,0,1,1,.65-0.65A0.65,0.65,0,0,1,193.55,41.86Zm0-2.45a0.65,0.65,0,1,1,.65-0.65A0.65,0.65,0,0,1,193.55,39.41Zm0-2.45a0.65,0.65,0,1,1,.65-0.65A0.65,0.65,0,0,1,193.55,37Zm0-2.45a0.65,0.65,0,1,1,.65-0.65A0.65,0.65,0,0,1,193.55,34.5ZM202.23,43a0.65,0.65,0,1,1-.65.65A0.65,0.65,0,0,1,202.23,43Zm0,2.45a0.65,0.65,0,1,1-.65.65A0.65,0.65,0,0,1,202.23,45.46Zm0,2.45a0.65,0.65,0,1,1-.65.65A0.65,0.65,0,0,1,202.23,47.91Zm0,2.45a0.65,0.65,0,1,1-.65.65A0.65,0.65,0,0,1,202.23,50.37Zm0,2.45a0.65,0.65,0,1,1-.65.65A0.65,0.65,0,0,1,202.23,52.82Zm0,2.45a0.65,0.65,0,1,1-.65.65A0.65,0.65,0,0,1,202.23,55.27Zm-2.89-14.72a0.65,0.65,0,1,1-.65.65A0.65,0.65,0,0,1,199.33,40.55Zm0,2.45a0.65,0.65,0,1,1-.65.65A0.65,0.65,0,0,1,199.33,43Zm0,2.45a0.65,0.65,0,1,1-.65.65A0.65,0.65,0,0,1,199.33,45.46Zm0,2.45a0.65,0.65,0,1,1-.65.65A0.65,0.65,0,0,1,199.33,47.91Zm0,2.45a0.65,0.65,0,1,1-.65.65A0.65,0.65,0,0,1,199.33,50.37Zm-2.89-14.72a0.65,0.65,0,1,1-.65.65A0.65,0.65,0,0,1,196.44,35.65Zm0,2.45a0.65,0.65,0,1,1-.65.65A0.65,0.65,0,0,1,196.44,38.1Zm0,2.45a0.65,0.65,0,1,1-.65.65A0.65,0.65,0,0,1,196.44,40.55Zm0,2.45a0.65,0.65,0,1,1-.65.65A0.65,0.65,0,0,1,196.44,43Zm0,2.45a0.65,0.65,0,1,1-.65.65A0.65,0.65,0,0,1,196.44,45.46ZM194.2,31.39a0.65,0.65,0,1,1-.65-0.65A0.65,0.65,0,0,1,194.2,31.39Z"/><path class="cls-2" d="M165.43,47.2c0,0.74-.3,2-2.27,2s-2.27-1.25-2.27-2V25H147.21V47.2a15.54,15.54,0,0,0,15.87,15.52h0.17A15.54,15.54,0,0,0,179.12,47.2V25H165.43V47.2Zm0.9,0V25.94h11.89V47.2a14.65,14.65,0,0,1-15,14.62h-0.17a14.65,14.65,0,0,1-15-14.62V25.94H160V47.2c0,0.68.23,2.89,3.17,2.89S166.33,47.88,166.33,47.2Z"/><path class="cls-2" d="M160.27,49.55a3.48,3.48,0,0,1-.84-2.35V26.51H148.68V47.2a14.09,14.09,0,0,0,14.4,14.05h0.17a14.09,14.09,0,0,0,14.4-14.05V26.51H166.9V47.2a3.48,3.48,0,0,1-.85,2.35A4.32,4.32,0,0,1,160.27,49.55Zm-9.37,2.06a0.65,0.65,0,1,1,.65-0.65A0.65,0.65,0,0,1,150.9,51.61Zm0-2.45a0.65,0.65,0,1,1,.65-0.65A0.65,0.65,0,0,1,150.9,49.17Zm0-2.45a0.65,0.65,0,1,1,.65-0.65A0.65,0.65,0,0,1,150.9,46.72Zm0-2.45a0.65,0.65,0,1,1,.65-0.65A0.65,0.65,0,0,1,150.9,44.27Zm0-2.45a0.65,0.65,0,1,1,.65-0.65A0.65,0.65,0,0,1,150.9,41.82Zm0-2.45a0.65,0.65,0,1,1,.65-0.65A0.65,0.65,0,0,1,150.9,39.37Zm0-2.45a0.65,0.65,0,1,1,.65-0.65A0.65,0.65,0,0,1,150.9,36.93Zm0-2.45a0.65,0.65,0,1,1,.65-0.65A0.65,0.65,0,0,1,150.9,34.48Zm0-2.45a0.65,0.65,0,1,1,.65-0.65A0.65,0.65,0,0,1,150.9,32Zm0-2.45a0.65,0.65,0,1,1,.65-0.65A0.65,0.65,0,0,1,150.9,29.58Zm24.43-1.31a0.65,0.65,0,1,1-.65.65A0.65,0.65,0,0,1,175.32,28.27Zm0,2.45a0.65,0.65,0,1,1-.65.65A0.65,0.65,0,0,1,175.32,30.72Zm0,2.45a0.65,0.65,0,1,1-.65.65A0.65,0.65,0,0,1,175.32,33.17Zm0,2.45a0.65,0.65,0,1,1-.65.65A0.65,0.65,0,0,1,175.32,35.62Zm0,2.45a0.65,0.65,0,1,1-.65.65A0.65,0.65,0,0,1,175.32,38.07Zm0,2.45a0.65,0.65,0,1,1-.65.65A0.65,0.65,0,0,1,175.32,40.51Zm0,2.45a0.65,0.65,0,1,1-.65.65A0.65,0.65,0,0,1,175.32,43Zm0,2.45a0.65,0.65,0,1,1-.65.65A0.65,0.65,0,0,1,175.32,45.41Zm0,2.45a0.65,0.65,0,1,1-.65.65A0.65,0.65,0,0,1,175.32,47.86Zm0,2.45a0.65,0.65,0,1,1-.65.65A0.65,0.65,0,0,1,175.32,50.31Zm-3.05-22a0.65,0.65,0,1,1-.65.65A0.65,0.65,0,0,1,172.27,28.27Zm0,2.45a0.65,0.65,0,1,1-.65.65A0.65,0.65,0,0,1,172.27,30.72Zm0,2.45a0.65,0.65,0,1,1-.65.65A0.65,0.65,0,0,1,172.27,33.17Zm0,2.45a0.65,0.65,0,1,1-.65.65A0.65,0.65,0,0,1,172.27,35.62Zm0,2.45a0.65,0.65,0,1,1-.65.65A0.65,0.65,0,0,1,172.27,38.07Zm0,2.45a0.65,0.65,0,1,1-.65.65A0.65,0.65,0,0,1,172.27,40.51Zm0,2.45a0.65,0.65,0,1,1-.65.65A0.65,0.65,0,0,1,172.27,43Zm0,2.45a0.65,0.65,0,1,1-.65.65A0.65,0.65,0,0,1,172.27,45.41Zm0,2.45a0.65,0.65,0,1,1-.65.65A0.65,0.65,0,0,1,172.27,47.86Zm0,2.45a0.65,0.65,0,1,1-.65.65A0.65,0.65,0,0,1,172.27,50.31Zm0,2.45a0.65,0.65,0,1,1-.65.65A0.65,0.65,0,0,1,172.27,52.75Zm0,2.45a0.65,0.65,0,1,1-.65.65A0.65,0.65,0,0,1,172.27,55.2Zm-3.05-26.93a0.65,0.65,0,1,1-.65.65A0.65,0.65,0,0,1,169.22,28.27Zm0,2.45a0.65,0.65,0,1,1-.65.65A0.65,0.65,0,0,1,169.22,30.72Zm0,2.45a0.65,0.65,0,1,1-.65.65A0.65,0.65,0,0,1,169.22,33.17Zm0,2.45a0.65,0.65,0,1,1-.65.65A0.65,0.65,0,0,1,169.22,35.62Zm0,2.45a0.65,0.65,0,1,1-.65.65A0.65,0.65,0,0,1,169.22,38.07Zm0,2.45a0.65,0.65,0,1,1-.65.65A0.65,0.65,0,0,1,169.22,40.51Zm0,2.45a0.65,0.65,0,1,1-.65.65A0.65,0.65,0,0,1,169.22,43Zm0,2.45a0.65,0.65,0,1,1-.65.65A0.65,0.65,0,0,1,169.22,45.41Zm0,2.45a0.65,0.65,0,1,1-.65.65A0.65,0.65,0,0,1,169.22,47.86Zm0,2.45a0.65,0.65,0,1,1-.65.65A0.65,0.65,0,0,1,169.22,50.31Zm0,2.45a0.65,0.65,0,1,1-.65.65A0.65,0.65,0,0,1,169.22,52.75Zm0,2.45a0.65,0.65,0,1,1-.65.65A0.65,0.65,0,0,1,169.22,55.2Zm0,2.45a0.65,0.65,0,1,1-.65.65A0.65,0.65,0,0,1,169.22,57.65Zm-15.27-1.14a0.65,0.65,0,1,1,.65-0.65A0.65,0.65,0,0,1,153.95,56.51Zm0-2.45a0.65,0.65,0,1,1,.65-0.65A0.65,0.65,0,0,1,153.95,54.06Zm0-2.45A0.65,0.65,0,1,1,154.6,51,0.65,0.65,0,0,1,153.95,51.61Zm0-2.45a0.65,0.65,0,1,1,.65-0.65A0.65,0.65,0,0,1,153.95,49.17Zm0-2.45a0.65,0.65,0,1,1,.65-0.65A0.65,0.65,0,0,1,153.95,46.72Zm0-2.45a0.65,0.65,0,1,1,.65-0.65A0.65,0.65,0,0,1,153.95,44.27Zm0-2.45a0.65,0.65,0,1,1,.65-0.65A0.65,0.65,0,0,1,153.95,41.82Zm0-2.45a0.65,0.65,0,1,1,.65-0.65A0.65,0.65,0,0,1,153.95,39.37Zm0-2.45a0.65,0.65,0,1,1,.65-0.65A0.65,0.65,0,0,1,153.95,36.93Zm0-2.45a0.65,0.65,0,1,1,.65-0.65A0.65,0.65,0,0,1,153.95,34.48Zm0-2.45a0.65,0.65,0,1,1,.65-0.65A0.65,0.65,0,0,1,153.95,32Zm0-2.45a0.65,0.65,0,1,1,.65-0.65A0.65,0.65,0,0,1,153.95,29.58ZM157,59a0.65,0.65,0,1,1,.65-0.65A0.65,0.65,0,0,1,157,59Zm0-2.45a0.65,0.65,0,1,1,.65-0.65A0.65,0.65,0,0,1,157,56.51Zm0-2.45a0.65,0.65,0,1,1,.65-0.65A0.65,0.65,0,0,1,157,54.06Zm0-2.45a0.65,0.65,0,1,1,.65-0.65A0.65,0.65,0,0,1,157,51.61Zm0-2.45a0.65,0.65,0,1,1,.65-0.65A0.65,0.65,0,0,1,157,49.17Zm0-2.45a0.65,0.65,0,1,1,.65-0.65A0.65,0.65,0,0,1,157,46.72Zm0-2.45a0.65,0.65,0,1,1,.65-0.65A0.65,0.65,0,0,1,157,44.27Zm0-2.45a0.65,0.65,0,1,1,.65-0.65A0.65,0.65,0,0,1,157,41.82Zm0-2.45a0.65,0.65,0,1,1,.65-0.65A0.65,0.65,0,0,1,157,39.37Zm0-2.45a0.65,0.65,0,1,1,.65-0.65A0.65,0.65,0,0,1,157,36.93Zm0-2.45a0.65,0.65,0,1,1,.65-0.65A0.65,0.65,0,0,1,157,34.48ZM157,32a0.65,0.65,0,1,1,.65-0.65A0.65,0.65,0,0,1,157,32Zm0-2.45a0.65,0.65,0,1,1,.65-0.65A0.65,0.65,0,0,1,157,29.58ZM160.06,59a0.65,0.65,0,1,1,.65-0.65A0.65,0.65,0,0,1,160.06,59Zm0-2.45a0.65,0.65,0,1,1,.65-0.65A0.65,0.65,0,0,1,160.06,56.51Zm0-2.45a0.65,0.65,0,1,1,.65-0.65A0.65,0.65,0,0,1,160.06,54.06Zm3.05,4.9a0.65,0.65,0,1,1,.65-0.65A0.65,0.65,0,0,1,163.11,59Zm0-2.45a0.65,0.65,0,1,1,.65-0.65A0.65,0.65,0,0,1,163.11,56.51Zm3.05-3.76a0.65,0.65,0,1,1-.65.65A0.65,0.65,0,0,1,166.16,52.75Zm0,2.45a0.65,0.65,0,1,1-.65.65A0.65,0.65,0,0,1,166.16,55.2Zm0,2.45a0.65,0.65,0,1,1-.65.65A0.65,0.65,0,0,1,166.16,57.65Zm-2.4-4.24a0.65,0.65,0,1,1-.65-0.65A0.65,0.65,0,0,1,163.76,53.41Z"/><circle class="cls-3" cx="124.12" cy="43.63" r="0.65"/><circle class="cls-3" cx="124.12" cy="55.87" r="0.65"/><circle class="cls-3" cx="124.12" cy="58.32" r="0.65"/><circle class="cls-3" cx="124.12" cy="48.52" r="0.65"/><circle class="cls-3" cx="124.12" cy="46.08" r="0.65"/><circle class="cls-3" cx="126.96" cy="31.39" r="0.65"/><circle class="cls-3" cx="124.12" cy="50.97" r="0.65"/><circle class="cls-3" cx="124.12" cy="53.42" r="0.65"/><circle class="cls-3" cx="126.96" cy="43.63" r="0.65"/><circle class="cls-3" cx="126.96" cy="41.18" r="0.65"/><circle class="cls-3" cx="126.96" cy="46.08" r="0.65"/><circle class="cls-3" cx="126.96" cy="33.84" r="0.65"/><circle class="cls-3" cx="126.96" cy="28.94" r="0.65"/><circle class="cls-3" cx="126.96" cy="38.73" r="0.65"/><circle class="cls-3" cx="126.96" cy="36.28" r="0.65"/><circle class="cls-3" cx="141.15" cy="48.52" r="0.65"/><circle class="cls-3" cx="124.12" cy="41.18" r="0.65"/><circle class="cls-3" cx="135.47" cy="46.08" r="0.65"/><circle class="cls-3" cx="138.31" cy="43.63" r="0.65"/><circle class="cls-3" cx="138.31" cy="48.52" r="0.65"/><circle class="cls-3" cx="141.15" cy="46.08" r="0.65"/><circle class="cls-3" cx="141.15" cy="43.63" r="0.65"/><circle class="cls-3" cx="126.96" cy="48.52" r="0.65"/><circle class="cls-3" cx="138.31" cy="46.08" r="0.65"/><circle class="cls-3" cx="135.47" cy="48.52" r="0.65"/><circle class="cls-3" cx="124.12" cy="33.84" r="0.65"/><circle class="cls-3" cx="124.12" cy="38.73" r="0.65"/><circle class="cls-3" cx="124.12" cy="36.28" r="0.65"/><circle class="cls-3" cx="135.47" cy="43.63" r="0.65"/><circle class="cls-3" cx="124.12" cy="31.39" r="0.65"/><circle class="cls-3" cx="124.12" cy="28.94" r="0.65"/><circle class="cls-3" cx="132.63" cy="43.63" r="0.65"/><circle class="cls-3" cx="132.63" cy="28.94" r="0.65"/><circle class="cls-3" cx="132.63" cy="33.84" r="0.65"/><circle class="cls-3" cx="135.47" cy="31.39" r="0.65"/><circle class="cls-3" cx="132.63" cy="48.52" r="0.65"/><circle class="cls-3" cx="132.63" cy="31.39" r="0.65"/><circle class="cls-3" cx="129.79" cy="58.32" r="0.65"/><circle class="cls-3" cx="132.63" cy="46.08" r="0.65"/><circle class="cls-3" cx="135.47" cy="28.94" r="0.65"/><circle class="cls-3" cx="141.15" cy="28.94" r="0.65"/><circle class="cls-3" cx="135.47" cy="33.84" r="0.65"/><circle class="cls-3" cx="141.15" cy="31.39" r="0.65"/><circle class="cls-3" cx="141.15" cy="33.84" r="0.65"/><circle class="cls-3" cx="138.31" cy="31.39" r="0.65"/><circle class="cls-3" cx="138.31" cy="28.94" r="0.65"/><circle class="cls-3" cx="138.31" cy="33.84" r="0.65"/><circle class="cls-3" cx="129.79" cy="50.97" r="0.65"/><circle class="cls-3" cx="129.79" cy="28.94" r="0.65"/><circle class="cls-3" cx="129.79" cy="36.28" r="0.65"/><circle class="cls-3" cx="129.79" cy="33.84" r="0.65"/><circle class="cls-3" cx="129.79" cy="31.39" r="0.65"/><circle class="cls-3" cx="126.96" cy="53.42" r="0.65"/><circle class="cls-3" cx="126.96" cy="55.87" r="0.65"/><circle class="cls-3" cx="126.96" cy="58.32" r="0.65"/><circle class="cls-3" cx="129.79" cy="46.08" r="0.65"/><circle class="cls-3" cx="126.96" cy="50.97" r="0.65"/><circle class="cls-3" cx="129.79" cy="38.73" r="0.65"/><circle class="cls-3" cx="129.79" cy="53.42" r="0.65"/><circle class="cls-3" cx="129.79" cy="48.52" r="0.65"/><circle class="cls-3" cx="129.79" cy="41.18" r="0.65"/><circle class="cls-3" cx="129.79" cy="43.63" r="0.65"/><circle class="cls-3" cx="129.79" cy="55.87" r="0.65"/><circle class="cls-3" cx="208.01" cy="58.38" r="0.65"/><circle class="cls-3" cx="210.9" cy="31.39" r="0.65"/><circle class="cls-3" cx="210.9" cy="33.85" r="0.65"/><circle class="cls-3" cx="208.01" cy="41.21" r="0.65"/><circle class="cls-3" cx="210.9" cy="36.3" r="0.65"/><circle class="cls-3" cx="208.01" cy="55.93" r="0.65"/><circle class="cls-3" cx="208.01" cy="46.11" r="0.65"/><circle class="cls-3" cx="208.01" cy="43.66" r="0.65"/><circle class="cls-3" cx="208.01" cy="48.57" r="0.65"/><circle class="cls-3" cx="208.01" cy="51.02" r="0.65"/><circle class="cls-3" cx="210.9" cy="38.75" r="0.65"/><circle class="cls-3" cx="208.01" cy="53.47" r="0.65"/><circle class="cls-3" cx="210.9" cy="28.94" r="0.65"/><circle class="cls-3" cx="199.33" cy="48.57" r="0.65"/><circle class="cls-3" cx="199.33" cy="51.02" r="0.65"/><circle class="cls-3" cx="210.9" cy="58.38" r="0.65"/><circle class="cls-3" cx="199.33" cy="43.66" r="0.65"/><circle class="cls-3" cx="210.9" cy="55.93" r="0.65"/><circle class="cls-3" cx="199.33" cy="46.11" r="0.65"/><circle class="cls-3" cx="210.9" cy="43.66" r="0.65"/><circle class="cls-3" cx="210.9" cy="53.47" r="0.65"/><circle class="cls-3" cx="210.9" cy="41.21" r="0.65"/><circle class="cls-3" cx="210.9" cy="46.11" r="0.65"/><circle class="cls-3" cx="210.9" cy="48.57" r="0.65"/><circle class="cls-3" cx="210.9" cy="51.02" r="0.65"/><circle class="cls-3" cx="202.23" cy="51.02" r="0.65"/><circle class="cls-3" cx="205.12" cy="28.94" r="0.65"/><circle class="cls-3" cx="205.12" cy="31.39" r="0.65"/><circle class="cls-3" cx="205.12" cy="33.85" r="0.65"/><circle class="cls-3" cx="205.12" cy="41.21" r="0.65"/><circle class="cls-3" cx="202.23" cy="55.93" r="0.65"/><circle class="cls-3" cx="205.12" cy="36.3" r="0.65"/><circle class="cls-3" cx="205.12" cy="38.75" r="0.65"/><circle class="cls-3" cx="202.23" cy="43.66" r="0.65"/><circle class="cls-3" cx="202.23" cy="46.11" r="0.65"/><circle class="cls-3" cx="199.33" cy="41.21" r="0.65"/><circle class="cls-3" cx="202.23" cy="48.57" r="0.65"/><circle class="cls-3" cx="202.23" cy="53.47" r="0.65"/><circle class="cls-3" cx="208.01" cy="36.3" r="0.65"/><circle class="cls-3" cx="208.01" cy="31.39" r="0.65"/><circle class="cls-3" cx="208.01" cy="28.94" r="0.65"/><circle class="cls-3" cx="208.01" cy="38.75" r="0.65"/><circle class="cls-3" cx="208.01" cy="33.85" r="0.65"/><circle class="cls-3" cx="205.12" cy="58.38" r="0.65"/><circle class="cls-3" cx="205.12" cy="55.93" r="0.65"/><circle class="cls-3" cx="205.12" cy="48.57" r="0.65"/><circle class="cls-3" cx="205.12" cy="43.66" r="0.65"/><circle class="cls-3" cx="205.12" cy="46.11" r="0.65"/><circle class="cls-3" cx="205.12" cy="51.02" r="0.65"/><circle class="cls-3" cx="205.12" cy="53.47" r="0.65"/><circle class="cls-3" cx="184.87" cy="28.94" r="0.65"/><circle class="cls-3" cx="184.87" cy="53.47" r="0.65"/><circle class="cls-3" cx="184.87" cy="51.02" r="0.65"/><circle class="cls-3" cx="184.87" cy="58.38" r="0.65"/><circle class="cls-3" cx="184.87" cy="46.11" r="0.65"/><circle class="cls-3" cx="184.87" cy="55.93" r="0.65"/><circle class="cls-3" cx="184.87" cy="48.57" r="0.65"/><circle class="cls-3" cx="187.77" cy="28.94" r="0.65"/><circle class="cls-3" cx="187.77" cy="38.75" r="0.65"/><circle class="cls-3" cx="187.77" cy="36.3" r="0.65"/><circle class="cls-3" cx="184.87" cy="43.66" r="0.65"/><circle class="cls-3" cx="187.77" cy="33.85" r="0.65"/><circle class="cls-3" cx="187.77" cy="31.39" r="0.65"/><circle class="cls-3" cx="193.55" cy="31.39" r="0.65"/><circle class="cls-3" cx="193.55" cy="41.21" r="0.65"/><circle class="cls-3" cx="193.55" cy="36.3" r="0.65"/><circle class="cls-3" cx="193.55" cy="38.75" r="0.65"/><circle class="cls-3" cx="187.77" cy="41.21" r="0.65"/><circle class="cls-3" cx="193.55" cy="33.85" r="0.65"/><circle class="cls-3" cx="184.87" cy="41.21" r="0.65"/><circle class="cls-3" cx="193.55" cy="43.66" r="0.65"/><circle class="cls-3" cx="184.87" cy="38.75" r="0.65"/><circle class="cls-3" cx="184.87" cy="36.3" r="0.65"/><circle class="cls-3" cx="196.44" cy="43.66" r="0.65"/><circle class="cls-3" cx="184.87" cy="33.85" r="0.65"/><circle class="cls-3" cx="184.87" cy="31.39" r="0.65"/><circle class="cls-3" cx="190.66" cy="48.57" r="0.65"/><circle class="cls-3" cx="190.66" cy="51.02" r="0.65"/><circle class="cls-3" cx="190.66" cy="58.38" r="0.65"/><circle class="cls-3" cx="190.66" cy="53.47" r="0.65"/><circle class="cls-3" cx="190.66" cy="41.21" r="0.65"/><circle class="cls-3" cx="190.66" cy="46.11" r="0.65"/><circle class="cls-3" cx="190.66" cy="43.66" r="0.65"/><circle class="cls-3" cx="196.44" cy="41.21" r="0.65"/><circle class="cls-3" cx="190.66" cy="55.93" r="0.65"/><circle class="cls-3" cx="196.44" cy="46.11" r="0.65"/><circle class="cls-3" cx="196.44" cy="38.75" r="0.65"/><circle class="cls-3" cx="196.44" cy="36.3" r="0.65"/><circle class="cls-3" cx="187.77" cy="55.93" r="0.65"/><circle class="cls-3" cx="187.77" cy="51.02" r="0.65"/><circle class="cls-3" cx="187.77" cy="53.47" r="0.65"/><circle class="cls-3" cx="187.77" cy="46.11" r="0.65"/><circle class="cls-3" cx="187.77" cy="58.38" r="0.65"/><circle class="cls-3" cx="190.66" cy="38.75" r="0.65"/><circle class="cls-3" cx="187.77" cy="48.57" r="0.65"/><circle class="cls-3" cx="187.77" cy="43.66" r="0.65"/><circle class="cls-3" cx="190.66" cy="36.3" r="0.65"/><circle class="cls-3" cx="190.66" cy="33.85" r="0.65"/><circle class="cls-3" cx="190.66" cy="31.39" r="0.65"/><circle class="cls-3" cx="190.66" cy="28.94" r="0.65"/><polygon class="cls-2" points="34.84 49.23 34.79 49.23 31.88 34.52 30.22 34.52 27.41 49.23 27.36 49.23 25.13 34.52 23.26 34.52 26.38 53.24 28.09 53.24 31.05 38.53 31.1 38.53 34.06 53.24 35.77 53.24 38.79 34.52 36.92 34.52 34.84 49.23"/><polygon class="cls-2" points="47.99 42.55 42.38 42.55 42.38 34.52 40.5 34.52 40.5 53.24 42.38 53.24 42.38 44.42 47.99 44.42 47.99 53.24 49.87 53.24 49.87 34.52 47.99 34.52 47.99 42.55"/><polygon class="cls-2" points="53.73 44.42 58.54 44.42 58.54 42.55 53.73 42.55 53.73 36.39 60.14 36.39 60.14 34.52 51.58 34.52 51.58 53.24 60.41 53.24 60.41 51.64 53.73 51.64 53.73 44.42"/><polygon class="cls-2" points="70.15 48.43 69.98 48.43 65.16 34.52 61.86 34.52 61.86 53.24 64 53.24 64 36.93 64.07 36.93 69.88 53.24 72.02 53.24 72.02 34.52 70.15 34.52 70.15 48.43"/><polygon class="cls-2" points="79.78 36.39 83.53 36.39 83.53 53.24 85.67 53.24 85.67 36.39 89.41 36.39 89.41 34.52 79.78 34.52 79.78 36.39"/><polygon class="cls-2" points="98.89 42.55 93.27 42.55 93.27 34.52 91.13 34.52 91.13 53.24 93.27 53.24 93.27 44.42 98.89 44.42 98.89 53.24 100.76 53.24 100.76 34.52 98.89 34.52 98.89 42.55"/><polygon class="cls-2" points="104.62 51.64 104.62 44.42 109.43 44.42 109.43 42.55 104.62 42.55 104.62 36.39 111.04 36.39 111.04 34.52 102.48 34.52 102.48 53.24 111.3 53.24 111.3 51.64 104.62 51.64"/><path class="cls-2" d="M225.72,38.43A2.41,2.41,0,0,1,228.29,36c1.95,0,2.72,1.48,2.88,3.35H233c-0.16-3.21-1.92-5.07-4.62-5.07a4.2,4.2,0,0,0-4.52,4.38c0,5.35,7.53,5.83,7.53,10.08,0,2-1.09,3.06-2.78,3.06-2,0-3-1.23-3.09-3.63h-1.87c0.05,3.21,1.82,5.34,4.75,5.34,3.09,0,4.8-1.74,4.8-4.73C233.24,42.72,225.72,42.67,225.72,38.43Z"/><polygon class="cls-2" points="234.16 36.36 237.91 36.36 237.91 53.21 240.04 53.21 240.04 36.36 243.79 36.36 243.79 34.49 234.16 34.49 234.16 36.36"/><path class="cls-2" d="M249.71,34.27c-3.17,0-5.29,2.65-5.29,9.63s2.13,9.63,5.29,9.63S255,50.88,255,43.9,252.88,34.27,249.71,34.27Zm0,17.54c-1.82,0-3.27-1.56-3.27-7.91S247.9,36,249.71,36,253,37.54,253,43.9,251.53,51.81,249.71,51.81Z"/><path class="cls-2" d="M261.45,34.49H257V53.21h2.14V44.92h2.29c3,0,5-2.1,5-5.21S264.46,34.49,261.45,34.49ZM261.19,43h-2V36.36h2c2,0,3.22,1,3.22,3.34S263.22,43,261.19,43Z"/><path class="cls-2" d="M270,38.43A2.41,2.41,0,0,1,272.52,36c1.95,0,2.73,1.48,2.88,3.35h1.87c-0.16-3.21-1.92-5.07-4.62-5.07a4.2,4.2,0,0,0-4.52,4.38c0,5.35,7.53,5.83,7.53,10.08,0,2-1.09,3.06-2.78,3.06-2,0-3-1.23-3.09-3.63h-1.87c0.05,3.21,1.82,5.34,4.75,5.34,3.09,0,4.8-1.74,4.8-4.73C277.48,42.72,270,42.67,270,38.43Z"/><path class="cls-2" d="M328.21,37.25H327V43h1.25c2.11,0,2.76-.65,2.76-2.89S330.32,37.25,328.21,37.25Z"/><path class="cls-2" d="M316.68,37c-1.3,0-1.72.68-1.72,2.08v9.53c0,1.41.41,2.08,1.72,2.08s1.72-.68,1.72-2.08V39.05C318.4,37.65,318,37,316.68,37Z"/><path class="cls-2" d="M322.66,17.51H300.72L285.29,33V54.92l15.42,15.34h21.95l13.43-13.38h0l2-2V33ZM294.28,53.67c-3,0-4.72-2.4-4.85-5.21L292.5,48c0.13,1.9.89,2.84,1.93,2.84a1.66,1.66,0,0,0,1.88-1.72c0-3.73-6.57-4.72-6.57-10.11,0-3,1.82-4.69,5-4.69,2.63,0,4.2,1.9,4.49,4.56l-3.08.34c-0.13-1.62-1-2.09-1.72-2.09A1.58,1.58,0,0,0,292.82,39c0,3.21,6.57,4.75,6.57,9.85C299.39,51.95,297.3,53.67,294.28,53.67Zm15.8-16.27H307v16h-3.23v-16h-3.13V34.59h9.49V37.4Zm11.55,11.44c0,2.66-1.56,4.82-5,4.82s-5-2.17-5-4.82v-9.7c0-2.66,1.56-4.82,5-4.82s5,2.16,5,4.82v9.7Zm6.74-3.15H327v7.71h-3.23V34.59h4.64c4,0,5.84,1.54,5.84,5.55S332.36,45.69,328.38,45.69Z"/><polygon class="cls-2" points="333.93 21.26 334.34 21.26 334.34 17.85 335.11 17.85 335.11 17.5 333.16 17.5 333.16 17.85 333.93 17.85 333.93 21.26"/><polygon class="cls-2" points="335.81 17.82 335.82 17.82 336.6 21.26 336.87 21.26 337.65 17.82 337.66 17.82 337.66 21.26 338.03 21.26 338.03 17.5 337.39 17.5 336.75 20.34 336.74 20.34 336.08 17.5 335.44 17.5 335.44 21.26 335.81 21.26 335.81 17.82"/><circle class="cls-3" cx="169.22" cy="58.3" r="0.65"/><circle class="cls-3" cx="169.22" cy="46.06" r="0.65"/><circle class="cls-3" cx="169.22" cy="53.41" r="0.65"/><circle class="cls-3" cx="169.22" cy="55.86" r="0.65"/><circle class="cls-3" cx="169.22" cy="48.51" r="0.65"/><circle class="cls-3" cx="169.22" cy="43.62" r="0.65"/><circle class="cls-3" cx="169.22" cy="36.27" r="0.65"/><circle class="cls-3" cx="169.22" cy="38.72" r="0.65"/><circle class="cls-3" cx="169.22" cy="41.17" r="0.65"/><circle class="cls-3" cx="172.27" cy="33.82" r="0.65"/><circle class="cls-3" cx="172.27" cy="48.51" r="0.65"/><circle class="cls-3" cx="172.27" cy="46.06" r="0.65"/><circle class="cls-3" cx="172.27" cy="43.62" r="0.65"/><circle class="cls-3" cx="172.27" cy="50.96" r="0.65"/><circle class="cls-3" cx="172.27" cy="41.17" r="0.65"/><circle class="cls-3" cx="172.27" cy="36.27" r="0.65"/><circle class="cls-3" cx="172.27" cy="31.38" r="0.65"/><circle class="cls-3" cx="172.27" cy="38.72" r="0.65"/><circle class="cls-3" cx="169.22" cy="33.82" r="0.65"/><circle class="cls-3" cx="169.22" cy="50.96" r="0.65"/><circle class="cls-3" cx="175.32" cy="38.72" r="0.65"/><circle class="cls-3" cx="175.32" cy="41.17" r="0.65"/><circle class="cls-3" cx="175.32" cy="43.62" r="0.65"/><circle class="cls-3" cx="175.32" cy="36.27" r="0.65"/><circle class="cls-3" cx="172.27" cy="53.41" r="0.65"/><circle class="cls-3" cx="175.32" cy="48.51" r="0.65"/><circle class="cls-3" cx="175.32" cy="50.96" r="0.65"/><circle class="cls-3" cx="175.32" cy="46.06" r="0.65"/><circle class="cls-3" cx="175.32" cy="33.82" r="0.65"/><circle class="cls-3" cx="163.11" cy="53.41" r="0.65"/><circle class="cls-3" cx="166.16" cy="55.86" r="0.65"/><circle class="cls-3" cx="166.16" cy="53.41" r="0.65"/><circle class="cls-3" cx="166.16" cy="58.3" r="0.65"/><circle class="cls-3" cx="169.22" cy="31.38" r="0.65"/><circle class="cls-3" cx="169.22" cy="28.93" r="0.65"/><circle class="cls-3" cx="163.11" cy="55.86" r="0.65"/><circle class="cls-3" cx="175.32" cy="28.93" r="0.65"/><circle class="cls-3" cx="175.32" cy="31.38" r="0.65"/><circle class="cls-3" cx="163.11" cy="58.3" r="0.65"/><circle class="cls-3" cx="160.06" cy="55.86" r="0.65"/><circle class="cls-3" cx="150.9" cy="48.51" r="0.65"/><circle class="cls-3" cx="153.95" cy="31.38" r="0.65"/><circle class="cls-3" cx="153.95" cy="28.93" r="0.65"/><circle class="cls-3" cx="150.9" cy="50.96" r="0.65"/><circle class="cls-3" cx="153.95" cy="33.82" r="0.65"/><circle class="cls-3" cx="153.95" cy="41.17" r="0.65"/><circle class="cls-3" cx="153.95" cy="38.72" r="0.65"/><circle class="cls-3" cx="153.95" cy="36.27" r="0.65"/><circle class="cls-3" cx="150.9" cy="46.06" r="0.65"/><circle class="cls-3" cx="153.95" cy="43.62" r="0.65"/><circle class="cls-3" cx="160.06" cy="58.3" r="0.65"/><circle class="cls-3" cx="150.9" cy="31.38" r="0.65"/><circle class="cls-3" cx="150.9" cy="43.62" r="0.65"/><circle class="cls-3" cx="160.06" cy="53.41" r="0.65"/><circle class="cls-3" cx="150.9" cy="28.93" r="0.65"/><circle class="cls-3" cx="150.9" cy="38.72" r="0.65"/><circle class="cls-3" cx="150.9" cy="41.17" r="0.65"/><circle class="cls-3" cx="150.9" cy="33.82" r="0.65"/><circle class="cls-3" cx="150.9" cy="36.27" r="0.65"/><circle class="cls-3" cx="157" cy="48.51" r="0.65"/><circle class="cls-3" cx="172.27" cy="55.86" r="0.65"/><circle class="cls-3" cx="157" cy="46.06" r="0.65"/><circle class="cls-3" cx="153.95" cy="46.06" r="0.65"/><circle class="cls-3" cx="157" cy="50.96" r="0.65"/><circle class="cls-3" cx="157" cy="41.17" r="0.65"/><circle class="cls-3" cx="157" cy="53.41" r="0.65"/><circle class="cls-3" cx="172.27" cy="28.93" r="0.65"/><circle class="cls-3" cx="157" cy="55.86" r="0.65"/><circle class="cls-3" cx="157" cy="58.3" r="0.65"/><circle class="cls-3" cx="157" cy="43.62" r="0.65"/><circle class="cls-3" cx="153.95" cy="53.41" r="0.65"/><circle class="cls-3" cx="153.95" cy="50.96" r="0.65"/><circle class="cls-3" cx="153.95" cy="55.86" r="0.65"/><circle class="cls-3" cx="153.95" cy="48.51" r="0.65"/><circle class="cls-3" cx="157" cy="36.27" r="0.65"/><circle class="cls-3" cx="157" cy="38.72" r="0.65"/><circle class="cls-3" cx="157" cy="33.82" r="0.65"/><circle class="cls-3" cx="157" cy="28.93" r="0.65"/><circle class="cls-3" cx="157" cy="31.38" r="0.65"/></svg>