<svg id="Layer_2" xmlns="http://www.w3.org/2000/svg" viewBox="0 0 24 24"><style>.st0{fill:#666}</style><path class="st0" d="M19.98 9.07h-.87c-.73 0-1.41-.4-1.77-1.05-.17-.31-.26-.64-.26-.98v-.87c0-1.12.91-2.03 2.03-2.03h.87c1.12 0 2.03.91 2.03 2.03v.87c0 1.12-.91 2.03-2.03 2.03zM19.11 5c-.64 0-1.17.52-1.17 1.17v.87c0 .19.05.38.15.56.21.38.6.61 1.01.61h.87c.64 0 1.17-.52 1.17-1.17v-.87c0-.64-.52-1.17-1.17-1.17h-.86zM19.98 15.02h-.87c-.73 0-1.41-.4-1.77-1.05l.76-.42c.21.37.6.61 1.01.61h.87c.64 0 1.17-.52 1.17-1.17v-.87c0-.64-.52-1.17-1.17-1.17h-.87c-.4 0-.77.21-.99.56l-.74-.45a2.03 2.03 0 0 1 1.73-.98h.87c1.12 0 2.03.91 2.03 2.03v.87c0 1.12-.91 2.04-2.03 2.04z"/><path class="st0" d="M17.34 13.96c-.17-.31-.26-.64-.26-.98v-.87c0-.37.1-.73.3-1.06l.74.45c-.12.19-.18.39-.18.6v.87c0 .19.05.38.15.56l-.75.43zM19.98 20.96h-.87c-1.12 0-2.03-.91-2.03-2.03v-.87c0-.34.09-.67.26-.98.36-.65 1.04-1.05 1.77-1.05h.87c1.12 0 2.03.91 2.03 2.03v.87c0 1.12-.91 2.03-2.03 2.03zm-.87-4.06c-.42 0-.81.23-1.01.61-.1.18-.15.37-.15.56v.87c0 .64.52 1.17 1.17 1.17h.87c.64 0 1.17-.52 1.17-1.17v-.87c0-.64-.52-1.17-1.17-1.17h-.88zM4.89 9.07h-.87c-1.12 0-2.03-.91-2.03-2.03v-.87c0-1.12.91-2.03 2.03-2.03h.87c1.12 0 2.03.91 2.03 2.03v.87c0 .33-.09.66-.25.97-.36.65-1.05 1.06-1.78 1.06zM4.02 5c-.64 0-1.16.53-1.16 1.17v.87c0 .64.52 1.17 1.17 1.17h.87c.42 0 .81-.24 1.02-.62.08-.18.13-.37.13-.55v-.87C6.05 5.53 5.53 5 4.89 5h-.87zM6.66 13.96l-.76-.42c.1-.18.15-.37.15-.56v-.87c0-.19-.05-.38-.15-.56l.76-.42c.17.31.26.64.26.98v.87c0 .34-.09.67-.26.98z"/><path class="st0" d="M4.89 15.02h-.87c-1.12 0-2.03-.91-2.03-2.03v-.87c0-1.12.91-2.03 2.03-2.03h.87c.73 0 1.41.4 1.77 1.05l-.76.42c-.21-.38-.6-.61-1.01-.61h-.87c-.64 0-1.17.52-1.17 1.17v.87c0 .64.52 1.17 1.17 1.17h.87c.42 0 .81-.23 1.01-.61l.76.42c-.36.64-1.04 1.05-1.77 1.05zM4.89 20.96h-.87c-1.12 0-2.03-.91-2.03-2.03v-.87c0-1.12.91-2.03 2.03-2.03h.87c.73 0 1.41.4 1.77 1.05.17.31.26.64.26.98v.87c0 1.12-.91 2.03-2.03 2.03zm-.87-4.06c-.64 0-1.17.52-1.17 1.17v.87c0 .64.52 1.17 1.17 1.17h.87c.64 0 1.17-.52 1.17-1.17v-.87c0-.19-.05-.38-.15-.56-.21-.37-.6-.61-1.01-.61h-.88z"/><path transform="rotate(-41.615 14.572 15.908)" class="st0" d="M14.14 11.52H15v8.77h-.86z"/><path transform="rotate(-48.381 9.38 15.907)" class="st0" d="M4.99 15.48h8.77v.86H4.99z"/><path transform="rotate(-48.381 14.57 9.774)" class="st0" d="M10.19 9.34h8.77v.86h-8.77z"/><path transform="rotate(-41.615 9.381 9.774)" class="st0" d="M8.95 5.39h.86v8.77h-.86z"/><path transform="matrix(.00388 -1 1 .00388 -1.046 24.405)" class="st0" d="M11.29 7.18h.86v11.1h-.86z"/><g><path class="st0" d="M9.68 3.82h-.02l-.86.41-.17-.79 1.19-.55h.87v4.49H9.68V3.82zM15.32 5.11c0 1.39-.56 2.34-1.71 2.34-1.16 0-1.67-1.04-1.68-2.32 0-1.3.55-2.33 1.71-2.33 1.21.01 1.68 1.08 1.68 2.31zm-2.33.03c-.01 1.03.24 1.52.65 1.52.41 0 .63-.51.63-1.53 0-1-.21-1.52-.64-1.52-.39-.01-.65.49-.64 1.53z"/></g></svg>