<svg id="Layer_2" xmlns="http://www.w3.org/2000/svg" viewBox="0 0 24 24"><style>.st0{fill:#666}</style><path class="st0" d="M6.39 6.4l-.87.87.3.4c.04-.06.08-.1.14-.15.21-.22.48-.39.75-.44.29-.05.58.03.84.3.42.42.43 1.15-.18 1.76-.27.27-.56.44-.75.49l-.3-.49c.15-.05.42-.19.62-.4.22-.22.35-.56.11-.79-.24-.23-.56-.19-1.01.26-.12.12-.2.22-.28.33L4.72 7.21l1.24-1.24.43.43zM9.16 5c.7.7.9 1.46.32 2.03-.58.58-1.36.31-2-.32-.66-.65-.9-1.45-.31-2.03.6-.6 1.37-.3 1.99.32zM8.01 6.18c.51.52.88.64 1.09.44.2-.2.06-.57-.45-1.09-.5-.5-.87-.66-1.08-.44-.21.19-.09.57.44 1.09z"/><path class="st0" d="M4.98 13.79c-.1 0-.2-.03-.28-.1A6.675 6.675 0 0 1 2.46 8.7c0-3.68 3-6.68 6.68-6.68 2.16 0 4.2 1.05 5.45 2.82a.416.416 0 1 1-.68.48 5.86 5.86 0 0 0-4.78-2.47c-3.23 0-5.85 2.62-5.85 5.85 0 1.67.72 3.26 1.96 4.37.17.15.19.42.03.59-.06.09-.17.13-.29.13z"/><path class="st0" d="M6.07 10.97c-.03 0-.05 0-.08-.01-.71-.14-1.35-.48-1.85-.98-1.53-1.53-1.37-4.19.37-5.93 1.74-1.74 4.39-1.9 5.93-.37.7.7 1.08 1.67 1.05 2.72-.01.23-.2.42-.42.41a.427.427 0 0 1-.41-.42c.02-.82-.27-1.58-.81-2.12-1.21-1.2-3.34-1.04-4.76.37-1.41 1.41-1.57 3.55-.36 4.75.38.38.87.64 1.42.75.23.04.37.26.33.49-.04.2-.21.34-.41.34z"/><g><path class="st0" d="M14.08 21.99c-1.99 0-3.86-.78-5.27-2.18a7.466 7.466 0 0 1 0-10.55 7.397 7.397 0 0 1 5.27-2.18c1.99 0 3.86.78 5.27 2.18a7.466 7.466 0 0 1 0 10.55 7.421 7.421 0 0 1-5.27 2.18zm0-14.09c-1.77 0-3.43.69-4.69 1.94-2.58 2.58-2.58 6.79 0 9.37 1.25 1.25 2.92 1.94 4.69 1.94s3.43-.69 4.69-1.94c2.58-2.58 2.58-6.79 0-9.37a6.596 6.596 0 0 0-4.69-1.94z"/><path class="st0" d="M12.88 13.34v-.85h-1.59v-.55l1.36-2.18h1.03v2.1h.43v.63h-.43v.85h-.8zm0-1.48v-.79c0-.22.01-.44.03-.67h-.02c-.12.23-.21.44-.33.67l-.48.78v.01h.8zM16.82 11.53c0 1.11-.45 1.87-1.36 1.87-.93 0-1.33-.83-1.34-1.85 0-1.04.44-1.86 1.37-1.86.96.01 1.33.86 1.33 1.84zm-1.86.02c-.01.82.19 1.21.52 1.21s.5-.41.5-1.22c0-.79-.17-1.21-.51-1.21-.3 0-.51.39-.51 1.22z"/><path class="st0" d="M14.08 15.94c-2.73 0-4.95-1.96-4.95-4.37s2.22-4.37 4.95-4.37 4.95 1.96 4.95 4.37-2.22 4.37-4.95 4.37zm0-7.9c-2.27 0-4.12 1.59-4.12 3.54s1.85 3.54 4.12 3.54 4.12-1.59 4.12-3.54-1.85-3.54-4.12-3.54zM14.08 20.21c-.23 0-.42-.19-.42-.42 0-.23.19-.42.42-.42 2.67 0 4.85-2.18 4.85-4.85 0-.23.19-.42.42-.42s.42.19.42.42c-.01 3.14-2.56 5.69-5.69 5.69z"/></g></svg>