<svg id="Layer_2" xmlns="http://www.w3.org/2000/svg" viewBox="0 0 24 24"><style>.st0{fill:#666}</style><path class="st0" d="M6.06 9.17c-.27-.27-.3-.61-.16-.97l-.02-.01c-.33.11-.62.03-.82-.17-.38-.38-.29-.98.16-1.43.53-.53 1.06-.44 1.33-.17.2.2.28.49.17.83l.01.01c.3-.14.69-.14.98.15.41.41.34 1.03-.18 1.56-.58.57-1.16.51-1.47.2zm-.52-1.66c.16.15.39.11.63-.02.09-.16.08-.38-.06-.52s-.36-.2-.55 0c-.18.18-.16.39-.02.54zm1.67.47c-.2-.2-.46-.17-.73-.02-.13.22-.1.45.06.61.16.17.44.2.64 0 .19-.18.19-.43.03-.59zM9.15 4.98c.7.7.9 1.46.32 2.04-.59.59-1.37.32-2.01-.32-.66-.65-.9-1.45-.31-2.04.6-.6 1.38-.3 2 .32zM7.99 6.17c.51.52.89.64 1.09.44s.06-.58-.46-1.09c-.5-.5-.87-.66-1.09-.45-.19.2-.07.58.46 1.1z"/><path class="st0" d="M4.95 13.82c-.1 0-.2-.03-.28-.11a6.717 6.717 0 0 1-2.25-5.02c0-3.7 3.01-6.71 6.71-6.71 2.17 0 4.22 1.06 5.48 2.83.14.19.09.45-.1.59-.19.13-.45.09-.58-.1a5.905 5.905 0 0 0-4.8-2.48A5.89 5.89 0 0 0 3.25 8.7c0 1.68.72 3.28 1.97 4.39.17.15.19.42.03.59-.07.09-.18.14-.3.14z"/><path class="st0" d="M6.04 10.98c-.03 0-.05 0-.08-.01-.71-.14-1.36-.48-1.86-.98-1.54-1.54-1.37-4.21.37-5.96 1.74-1.74 4.41-1.91 5.95-.37.71.71 1.08 1.68 1.06 2.74-.01.23-.2.42-.43.41a.43.43 0 0 1-.41-.43c.02-.83-.27-1.58-.81-2.13-1.21-1.21-3.35-1.04-4.77.38-1.42 1.41-1.58 3.55-.37 4.77.38.38.88.64 1.43.75a.42.42 0 0 1-.08.83z"/><g><path class="st0" d="M14.09 22c-2 0-3.88-.78-5.3-2.19-2.92-2.92-2.92-7.67 0-10.59a7.459 7.459 0 0 1 5.3-2.19c2 0 3.88.78 5.3 2.19 2.92 2.92 2.92 7.67 0 10.59a7.476 7.476 0 0 1-5.3 2.19zm0-14.15c-1.78 0-3.45.69-4.71 1.95-2.6 2.6-2.6 6.82 0 9.41 1.26 1.26 2.93 1.95 4.71 1.95s3.45-.69 4.71-1.95c2.6-2.6 2.6-6.82 0-9.41a6.652 6.652 0 0 0-4.71-1.95z"/><path class="st0" d="M14.04 9.71v.53l-1.48 3.07h-.89l1.48-2.9v-.01H11.5v-.69h2.54zM16.66 10.41h-1.4l-.08.55c.08-.01.14-.01.23-.01.34 0 .69.08.95.26.27.18.44.48.44.9 0 .67-.58 1.26-1.54 1.26-.44 0-.8-.1-1-.2l.15-.63c.16.08.49.18.81.18.35 0 .72-.17.72-.55 0-.37-.29-.6-1.01-.6-.2 0-.34.01-.49.03l.24-1.89h1.98v.7z"/><path class="st0" d="M14.09 15.93c-2.74 0-4.97-1.97-4.97-4.39s2.23-4.39 4.97-4.39 4.97 1.97 4.97 4.39-2.23 4.39-4.97 4.39zm0-7.94c-2.28 0-4.14 1.59-4.14 3.55s1.86 3.55 4.14 3.55 4.14-1.59 4.14-3.55-1.86-3.55-4.14-3.55zM14.09 20.21c-.23 0-.42-.19-.42-.42s.19-.42.42-.42a4.87 4.87 0 0 0 4.87-4.87c0-.23.19-.42.42-.42.23 0 .42.19.42.42 0 3.16-2.56 5.71-5.71 5.71z"/></g></svg>