<svg id="Layer_2" xmlns="http://www.w3.org/2000/svg" viewBox="0 0 24 24"><style>.st0{fill:#666}</style><path class="st0" d="M7.93 12.73c.11-.09.2-.18.35-.35.23-.26.41-.58.47-.89.07-.38-.01-.75-.2-1.07l-.02.01c.01.31-.13.62-.44.94-.58.58-1.48.67-2.15 0-.68-.68-.7-1.78.06-2.54.88-.88 1.98-.62 2.79.18.72.72 1.01 1.47.98 2.19-.03.63-.32 1.24-.83 1.8-.13.15-.27.28-.37.37l-.64-.64zm-1.24-2.22c.3.3.71.39 1.04.06.22-.21.27-.47.22-.66a.518.518 0 0 0-.16-.25c-.36-.36-.86-.59-1.23-.22-.27.28-.23.72.13 1.07zM12.01 6.35c1.06 1.06 1.37 2.22.49 3.1-.89.89-2.08.48-3.06-.49-1-1-1.36-2.21-.47-3.1.91-.92 2.09-.46 3.04.49zm-1.77 1.8c.78.79 1.35.98 1.66.67.31-.31.09-.87-.69-1.66-.76-.76-1.33-1-1.65-.68-.3.3-.12.88.68 1.67z"/><path class="st0" d="M12 22.02c-5.52 0-10.01-4.49-10.01-10.01S6.48 2 12 2s10.01 4.49 10.01 10.01S17.52 22.02 12 22.02zm0-19.15c-5.04 0-9.13 4.1-9.13 9.14s4.1 9.14 9.13 9.14c5.04 0 9.14-4.1 9.14-9.14S17.04 2.87 12 2.87z"/><path class="st0" d="M12 19.6c-.24 0-.44-.2-.44-.44s.2-.44.44-.44c3.71 0 6.72-3.01 6.72-6.72 0-.24.2-.44.44-.44s.44.2.44.44c-.01 4.19-3.41 7.6-7.6 7.6zM8.36 15.38c-1.45 0-2.83-.51-3.87-1.55-2.26-2.26-2.01-6.2.56-8.77 2.57-2.57 6.51-2.83 8.77-.56 2.26 2.26 2.01 6.2-.56 8.77-1.39 1.4-3.18 2.11-4.9 2.11zM9.95 3.82c-1.49 0-3.06.63-4.28 1.85-2.23 2.23-2.48 5.62-.56 7.54s5.31 1.67 7.54-.56c2.23-2.23 2.48-5.62.56-7.54-.87-.86-2.03-1.29-3.26-1.29z"/></svg>