<svg id="Layer_2" xmlns="http://www.w3.org/2000/svg" viewBox="0 0 24 24"><style>.st0{fill:#666}</style><path class="st0" d="M10.22 8.96H7.34c-.45 0-.82-.37-.82-.82V5.62c0-.32.31-.52.82-.52s.82.2.82.52v1.69h2.07v.62H7.54V5.74c-.05-.01-.13-.02-.2-.02s-.15.01-.2.02v2.39c0 .11.09.2.2.2h2.89v.63z"/><path class="st0" d="M7.82 13.37c-3.13 0-5.68-2.55-5.68-5.68s2.55-5.68 5.68-5.68 5.68 2.55 5.68 5.68-2.55 5.68-5.68 5.68zm0-10.76c-2.8 0-5.08 2.28-5.08 5.08 0 2.8 2.28 5.08 5.08 5.08 2.8 0 5.08-2.28 5.08-5.08.01-2.8-2.27-5.08-5.08-5.08z"/><g><path transform="rotate(90 18.563 7.752)" class="st0" d="M18.25 4.66h.63v6.19h-.63z"/><path transform="rotate(90 21.37 14.693)" class="st0" d="M14.14 14.38H28.6v.63H14.14z"/><path class="st0" d="M19.35 7.57h.12v.12h-.12z"/><path class="st0" d="M19.35 7.57h.12v.12h-.12z"/><path transform="rotate(90 14.904 21.643)" class="st0" d="M14.59 14.86h.63v13.57h-.63z"/><path transform="rotate(90 8.438 18.64)" class="st0" d="M5.16 18.32h6.56v.63H5.16z"/></g><path class="st0" d="M15.04 18.61c-.94 0-1.83-.37-2.49-1.03a3.486 3.486 0 0 1-1.03-2.49c0-.94.37-1.83 1.03-2.49.67-.67 1.55-1.03 2.49-1.03s1.83.37 2.49 1.03c.67.67 1.03 1.55 1.03 2.49 0 .94-.37 1.83-1.03 2.49a3.51 3.51 0 0 1-2.49 1.03zm-.66-.54c.22.05.44.07.66.07.22 0 .44-.02.65-.07l.49-.92-.53-.81h-1.24l-.53.81.5.92zm1.97-.22c.31-.15.6-.35.85-.6l-.58.1-.27.5zm-3.47-.61c.25.25.53.45.85.6l-.26-.5-.59-.1zm3.69-.36l1.07-.19c.22-.35.36-.74.42-1.15l-.8-.84-.83.19-.38 1.18.52.81zm-3.06 0l.53-.81-.38-1.18-.83-.19-.8.83c.06.41.2.79.41 1.15l1.07.2zm2.11-1.01l.36-1.09-.93-.68-.93.68.36 1.09h1.14zm2.46-.99c-.03-.46-.16-.91-.39-1.31l-.11.78.5.53zm-5.69-1.31c-.23.4-.36.84-.39 1.3l.5-.52-.11-.78zm1.39.86l1.02-.74v-.77l-1.15-.55c-.28.14-.54.33-.77.56-.03.03-.06.06-.09.1l.16 1.22.83.18zm2.52 0l.83-.19.16-1.22c-.03-.03-.06-.06-.09-.1-.23-.23-.49-.42-.77-.56l-1.15.55v.77l1.02.75zm-1.26-1.92l.78-.37c-.25-.07-.51-.1-.78-.1s-.53.03-.78.1l.78.37z"/></svg>