<svg id="Layer_2" xmlns="http://www.w3.org/2000/svg" viewBox="0 0 24 24"><style>.st0{fill:#666}</style><path class="st0" d="M15.53 10.12L12 6.79l-3.54 3.32 7.07.01zm.36.75l-7.79-.02 3.93 8.35 3.86-8.33zm-3.85 9.58c-.09 0-.19-.04-.26-.11l-9.68-9.6a.378.378 0 0 1-.06-.45l2.34-4.2c.06-.12.19-.19.32-.19l14.6.02c.14 0 .26.07.33.19l2.33 4.2c.08.15.06.33-.06.44l-9.59 9.58c-.08.09-.18.12-.27.12zM4.73 6.99L2.99 10.1l3.82.01-2.08-3.12zm6.33-.33L5.4 6.64 7.58 9.9l3.48-3.24zm7.54.01l-5.65-.01 3.47 3.26 2.18-3.25zm2.39 3.46l-1.73-3.12-2.09 3.11 3.82.01zm-7.74 8.21l7.48-7.47-4.02-.01-3.46 7.48zm-9.98-7.49l7.53 7.48-3.52-7.48H3.27z"/></svg>