<svg id="Layer_2" xmlns="http://www.w3.org/2000/svg" viewBox="0 0 24 24"><style>.st0{fill:#666}</style><path class="st0" d="M15.21 8.88a.325.325 0 0 0-.24-.1.35.35 0 0 0-.24.1l-1.01 1.01-.97-.97a.31.31 0 0 0-.24-.1.35.35 0 0 0-.24.1c-.06.07-.1.15-.1.24s.04.18.1.24l.97.97L12 11.6l-.97-.97a.325.325 0 0 0-.24-.1.35.35 0 0 0-.24.1c-.06.07-.1.15-.1.24s.04.18.1.24l.97.97-1.22 1.22-.97-.97a.31.31 0 0 0-.24-.1.35.35 0 0 0-.24.1c-.13.13-.13.35 0 .49l.95.98-1.01 1.01c-.07.07-.1.15-.1.24s.04.18.1.24c.06.07.15.1.24.1s.18-.04.24-.1l1.01-1.01.97.97c.07.07.15.1.24.1s.18-.04.24-.1c.07-.06.1-.15.1-.24s-.04-.18-.1-.24l-.97-.97L12 12.58l.97.97c.07.07.15.1.24.1s.18-.04.24-.1c.06-.07.1-.15.1-.24a.35.35 0 0 0-.1-.24l-.97-.97 1.22-1.22.97.97c.07.07.15.1.24.1s.18-.04.24-.1c.07-.06.1-.15.1-.24a.35.35 0 0 0-.1-.24l-.97-.97 1.01-1.01c.15-.15.15-.37.02-.51z"/><path class="st0" d="M21.8 4.65c-.16-1.16-1.2-2.2-2.36-2.36-.03 0-.76-.11-1.92-.11-2.63 0-7.59.54-11.24 4.19-5.13 5.14-4.13 12.84-4.08 13.16.16 1.16 1.2 2.2 2.36 2.36.08.01.79.11 1.92.11 2.63 0 7.59-.55 11.24-4.19 5.13-5.14 4.13-12.84 4.08-13.16zM10.5 20.67l-.12-.01-5.78-5.78c-.06.37-.1.67-.12.88-.01.1-.02.17-.04.19l4.93 4.93-.37.05c-.87.12-1.75.18-2.64.18-.99 0-1.63-.08-1.7-.09-.76-.11-1.52-.86-1.62-1.62.01-.06-1-7.56 3.86-12.42 3.42-3.42 7.93-3.93 10.32-3.93.9 0 1.49.07 1.6.09.76.11 2.02.85 2.13 1.62 0 .02.25 1.9-.09 4.34l-.06.37-4.85-4.89c-.22.01-.65.04-1.15.12l5.79 5.84-.01.06c-.61 2.67-1.78 4.89-3.48 6.59-1.7 1.7-3.92 2.87-6.6 3.48z"/></svg>