<svg id="Layer_2" xmlns="http://www.w3.org/2000/svg" viewBox="0 0 24 24"><style>.st0{fill:#666}</style><path class="st0" d="M6.44 7.8h.76v1.24h-.76zM6.44 4.9h.76v1.24h-.76zM6.44 2h.76v1.24h-.76zM17.19 7.8h.76v1.24h-.76zM17.19 4.9h.76v1.24h-.76zM17.19 2h.76v1.24h-.76zM12.2 15.62c-.36 0-1.21-.26-1.21-2.62 0-1.15.25-3.11 1.21-3.11s1.2 1.96 1.2 3.11c0 2.37-.84 2.62-1.2 2.62zm0-4.93c-.16.2-.45.99-.45 2.31 0 1.52.38 1.86.45 1.86s.45-.34.45-1.86c-.01-1.32-.29-2.1-.45-2.31z"/><path class="st0" d="M17.6 18.74l-.31-.35c-.38-.43-1.11-1.48-1.29-2.35h-1.87c-.12.32-.31.84-.45 1.06l-.11.17h-2.72l-.11-.17c-.14-.22-.34-.73-.45-1.06H8.4c-.19.87-.91 1.92-1.29 2.35l-.31.35-.28-.37C5.5 17.03 5.2 16.11 5.2 14.42c0-3.34 1.33-4.4 1.39-4.44l.3-.22.23.29c.05.06 1.16 1.46 1.31 3.17h.91v-.03c0-1.3.55-3.78 1.02-5.51 1.08-3.97 1.58-3.97 1.84-3.97s.76 0 1.84 3.97c.47 1.73 1.02 4.21 1.02 5.51v.03h.91c.15-1.7 1.26-3.1 1.31-3.17l.23-.29.3.22c.06.04 1.39 1.1 1.39 4.44 0 1.7-.31 2.62-1.32 3.95l-.28.37zM6.78 10.9c-.32.47-.83 1.53-.83 3.52 0 1.36.2 2.1.87 3.09.44-.61.85-1.41.85-1.85v-.38h3.14l.09.26c.1.29.26.72.37.97h1.85c.12-.25.27-.68.37-.97l.09-.26h3.14v.38c0 .45.4 1.24.85 1.85.68-.99.87-1.73.87-3.09 0-1.99-.5-3.04-.83-3.52-.34.54-.89 1.58-.89 2.69v.38H14.3v-.79c0-2.1-1.45-7.34-2.1-8.55-.65 1.21-2.1 6.45-2.1 8.55v.78l-.38.01H7.68v-.38c0-1.11-.55-2.15-.9-2.69z"/><path class="st0" d="M12.19 22l-1.6-3.71.7-.3.9 2.08.9-2.08.7.3z"/></svg>