<svg id="Layer_2" xmlns="http://www.w3.org/2000/svg" viewBox="0 0 24 24"><style>.st0{fill:#666}</style><path class="st0" d="M16.58 8.5c-.16.12-.2.34-.08.51a7.676 7.676 0 0 1-.78 10.01c-3.01 3.01-7.91 3.01-10.93 0s-3.01-7.91 0-10.93a7.676 7.676 0 0 1 10.01-.78c.16.12.39.08.51-.08s.08-.39-.08-.51c-3.38-2.46-7.98-2.1-10.95.86-3.29 3.29-3.29 8.66 0 11.95C5.93 21.18 8.1 22 10.26 22s4.33-.82 5.97-2.47a8.417 8.417 0 0 0 .86-10.95.366.366 0 0 0-.51-.08z"/><path class="st0" d="M13.73 8.81c.11-.17.06-.39-.11-.5-2.44-1.57-5.71-1.21-7.76.84a6.172 6.172 0 0 0-1.82 4.4 6.217 6.217 0 0 0 6.22 6.22c1.59 0 3.19-.61 4.4-1.82 2.05-2.05 2.41-5.32.84-7.76a.359.359 0 0 0-.5-.11c-.17.11-.22.33-.11.5 1.38 2.16 1.07 5.04-.74 6.86-2.15 2.15-5.64 2.15-7.78 0-1.04-1.04-1.61-2.42-1.61-3.89s.57-2.85 1.61-3.89a5.521 5.521 0 0 1 6.86-.74c.17.11.39.06.5-.11z"/><path class="st0" d="M12.12 10.4c.08-.18 0-.4-.18-.48-1.52-.7-3.33-.38-4.51.8a3.998 3.998 0 1 0 2.83 6.83c1.03 0 2.05-.39 2.83-1.17 1.18-1.18 1.51-3 .8-4.51-.08-.18-.3-.26-.48-.18-.18.08-.26.3-.18.48a3.283 3.283 0 0 1-5.3 3.7 3.283 3.283 0 0 1 0-4.64c.97-.97 2.46-1.23 3.7-.66.19.09.4.01.49-.17z"/><path class="st0" d="M9.95 12.54a.36.36 0 1 0-.21-.69A1.774 1.774 0 0 0 9 14.81c.35.35.8.52 1.26.52a1.763 1.763 0 0 0 1.7-1.26.36.36 0 1 0-.69-.21c-.05.17-.14.31-.26.44-.41.41-1.09.41-1.5 0s-.41-1.09 0-1.5c.12-.12.27-.21.44-.26z"/><path class="st0" d="M21.82 5.39a.37.37 0 0 0-.24-.26l-1.78-.56.93-.93c.14-.14.14-.37 0-.51a.362.362 0 0 0-.51 0l-.92.9-.54-1.73a.37.37 0 0 0-.26-.24.362.362 0 0 0-.34.1l-2.38 2.38c-.1.1-.13.24-.09.36l.64 2.04c0 .01.01.02.02.04l-6.24 6.24c-.14.14-.14.37 0 .51a.363.363 0 0 0 .52 0l6.22-6.22c.03.02.06.03.09.04l2.04.64c.04.01.07.02.11.02.09 0 .19-.04.26-.11l2.38-2.38c.08-.08.12-.21.09-.33zm-5.38-.49l1.81-1.81.46 1.47c0 .01.01.03.02.04l-1.81 1.81-.48-1.51zm2.54 2.54l-1.57-.49 1.82-1.82c.03.02.06.03.09.04l1.47.46-1.81 1.81z"/></svg>