<svg id="Layer_2" xmlns="http://www.w3.org/2000/svg" viewBox="0 0 24 24"><style>.st0{fill:#666}</style><path class="st0" d="M19.89 6.22c-.08-.38-.3-.69-.66-.91-.34-.21-.68-.28-1.02-.2-.7.17-1.16.93-1.56 1.61-.19.32-.52.86-.66.89-.36-.09-.8-.24-1.26-.39-.28-.09-.57-.19-.86-.28.98-.36 1.68-1.29 1.68-2.39C15.55 3.15 14.41 2 13 2c-1.4 0-2.55 1.14-2.55 2.55 0 .8.37 1.51.95 1.98h-.07c-.68.09-1.49.32-2.2.52-.15.04-.31.08-.45.12-.19.06-.39.09-.58.13-.71.14-1.52.3-1.65 1.4-.02.16-.06.38-.1.64-.2 1.12-.48 2.66.22 3.39.29.31.71.43 1.23.36 1.01-.14 1.12-1.3 1.19-1.99.01-.11.01-.2.03-.28l.03-.3c.01-.11.02-.33.06-.36l.04-.02c.11-.02.24-.06.38-.09.13-.03.27-.07.41-.1l-1.96 6.84a34.1 34.1 0 0 0-1.08-.26c-.13-.03-.26-.06-.38-.08-.09-.02-.19-.05-.29-.07-.6-.16-1.43-.38-2.08.27-.27.27-.43.66-.42 1.07v.05l.04.31c0 .02.01.03.01.05.1.38.35.7.68.9.28.17.93.34 1.68.53.14.04.27.07.35.09.21.06.45.14.69.22 1.07.37 2.68.92 3.22-.63l1.26-3.29 2.34.94c-.01.37-.13.96-.25 1.54-.29 1.42-.45 2.38-.12 2.89.28.43.78.69 1.3.69h.06l.3-.04c.02 0 .03-.01.05-.01.31-.08.57-.26.78-.51.43-.53 1.02-4.41 1.02-4.45.01-.11.03-.22.05-.32.12-.71.27-1.6-.62-2.14l-.06-.03-3.54-1.36c.11-.35.29-.76.44-1.13.08-.2.16-.38.23-.56.03-.08.07-.2.11-.34.07-.24.29-.92.46-1.12.36.14.69.3.98.45 1.04.52 2.02 1.01 3.15-.81.1-.16.23-.35.38-.56.6-.87 1.36-1.94 1.17-2.86zm-6.88-3.47c.99 0 1.79.8 1.79 1.79s-.8 1.79-1.79 1.79-1.79-.8-1.79-1.79.8-1.79 1.79-1.79zm5.09 5.89c-.15.21-.29.42-.4.59-.76 1.23-1.12 1.06-2.17.53-.33-.17-.7-.35-1.14-.51a.555.555 0 0 0-.47.03c-.41.2-.64.85-.88 1.61-.04.12-.07.22-.1.29-.07.17-.14.35-.22.54-.21.51-.46 1.09-.57 1.56-.04.18.06.37.23.44l3.83 1.47c.38.25.37.61.24 1.36-.02.12-.04.23-.05.35-.13.98-.65 3.74-.86 4.07-.1.12-.22.21-.37.25l-.25.03c-.27-.01-.52-.14-.65-.35-.19-.29.07-1.57.23-2.33.17-.84.32-1.56.25-2.01a.38.38 0 0 0-.23-.29L11.6 15.1a.32.32 0 0 0-.14-.03c-.05 0-.1.01-.15.03a.41.41 0 0 0-.2.21l-1.4 3.66c-.26.73-.88.65-2.27.17-.26-.09-.5-.17-.74-.24-.09-.03-.22-.06-.37-.1-.44-.11-1.27-.32-1.48-.45a.734.734 0 0 1-.33-.42l-.03-.25c0-.2.08-.38.21-.51.3-.32.71-.24 1.33-.07.11.03.21.06.31.08.12.03.25.06.38.09.47.1 1.01.22 1.37.35.1.03.21.03.3-.02s.16-.13.19-.23L10.8 9.6a.38.38 0 0 0-.06-.33.404.404 0 0 0-.31-.15c-.32.01-.74.11-1.11.21-.12.02-.24.05-.34.08-.63.14-.67.72-.69 1.07-.01.08-.01.17-.02.25l-.03.29c-.07.67-.16 1.27-.54 1.32-.41.06-.54-.09-.58-.13-.43-.45-.17-1.88-.02-2.74.04-.27.08-.5.1-.69.06-.52.31-.6 1.04-.74.2-.04.42-.08.64-.14.15-.04.3-.08.46-.13.69-.2 1.48-.42 2.1-.5.79-.1 2 .3 3.06.65.48.16.93.31 1.32.41.65.16 1.06-.51 1.49-1.23.31-.52.7-1.17 1.09-1.26.08-.02.22-.03.44.11.19.12.29.25.32.42.12.6-.56 1.56-1.06 2.27z"/></svg>