<svg id="Layer_2" xmlns="http://www.w3.org/2000/svg" viewBox="0 0 24 24"><style>.st0{fill:#231f20}</style><path class="st0" d="M19.53 22H10.3c-.39 0-.71-.32-.71-.71V9.08c0-.39.32-.71.71-.71h9.23c.39 0 .71.32.71.71V21.3c-.01.38-.32.7-.71.7zm-9.09-.85h8.95V9.22h-8.95v11.93z"/><path class="st0" d="M8.74 16.04H4.48a.85.85 0 0 1-.85-.85V2.83c0-.47.38-.85.85-.85h8.95c.47 0 .85.38.85.85v4.69h-.85V2.83H4.48v12.36h4.26v.85zM15.98 18.59c-.03 0-.06 0-.1-.01l-.12-.03c-.2-.05-.58-.15-.85-.15s-.65.1-.85.15l-.12.03a.425.425 0 1 1-.19-.83l.1-.03c.25-.06.68-.17 1.06-.17s.8.11 1.06.17l.11.03c.23.05.37.28.32.51-.05.2-.23.33-.42.33zM15.85 17.24c-.32 0-.66-.06-.94-.19-.55.27-1.37.23-1.76.04-.66-.32-1.01-.9-1.01-1.66 0-.88.8-1.52 1.5-2.08.37-.3.79-.63.86-.85a.42.42 0 1 1 .8 0c.07.22.49.55.86.85.7.56 1.5 1.2 1.5 2.08 0 .76-.35 1.33-1 1.66-.18.1-.48.15-.81.15zm-.94-1.11c.1 0 .2.04.28.11.21.19.88.2 1.1.09.37-.18.53-.46.53-.9 0-.47-.63-.98-1.19-1.42-.27-.21-.53-.42-.73-.64-.21.22-.47.42-.73.64-.56.44-1.19.95-1.19 1.42 0 .44.16.72.53.9.22.11.89.1 1.1-.09.1-.08.2-.11.3-.11z"/><path class="st0" d="M8.74 13.91h-1.7v-.42a.85.85 0 0 0-.85-.85h-.43V5.39h.42c.47 0 .85-.38.85-.85v-.43h3.83v.42c0 .47.38.85.85.85h.42v2.13h-.85V6.19c-.6-.15-1.07-.63-1.22-1.22H7.83c-.16.59-.63 1.06-1.23 1.22v5.65c.6.15 1.07.63 1.22 1.22h.91v.85zM5.33 3.69h.85v.85h-.85zM5.33 13.48h.85v.85h-.85zM11.72 3.69h.85v.85h-.85z"/></svg>