<svg id="Layer_2" xmlns="http://www.w3.org/2000/svg" viewBox="0 0 24 24"><style>.st0{fill:#666}</style><path class="st0" d="M12.71 3.01c-4.64 0-8.41 3.77-8.41 8.41s3.77 8.41 8.41 8.41 8.41-3.77 8.41-8.41-3.77-8.41-8.41-8.41zm0 .62c.51 0 1.01.05 1.5.14-3.21.86-5.66 2.78-7.66 4.95-.3-.18-.59-.4-.88-.64a7.79 7.79 0 0 1 7.04-4.45zm2.76.51c.74.28 1.42.67 2.03 1.14-2.78.75-5.49 2.5-7.83 4.88-.88-.28-1.74-.61-2.59-1.1 2.17-2.33 4.81-4.29 8.39-4.92zm2.61 1.64c.44.42.83.89 1.17 1.4-2.7.79-4.87 2.14-6.62 3.88-.77-.26-1.53-.47-2.28-.7 2.34-2.31 5.04-3.96 7.73-4.58zm1.49 1.96c.59 1.1.92 2.35.92 3.69 0 1.93-.7 3.69-1.85 5.05.78-3.07.06-5.54-.5-8.26.47-.18.94-.34 1.43-.48zm-2.01.71c.62 3.02 1.38 5.55.14 8.95-.64.53-1.36.97-2.15 1.28.76-2.75.75-5.86-.14-9.07.67-.44 1.38-.82 2.15-1.16zm-12.15.23c2.29 1.85 4.71 2.21 6.99 2.98.04.82.08 1.64.08 2.44-3.21-.84-5.56-1.96-7.45-4 .08-.5.21-.97.38-1.42zm9.46 1.3c.84 3.2.79 6.27-.04 8.94-.68.19-1.39.29-2.12.29-.14 0-.29 0-.43-.01.99-2.46.88-5.08.75-7.66.56-.56 1.18-1.09 1.84-1.56zm-9.93.91c1.96 1.94 4.39 3.04 7.54 3.84-.02.87-.1 1.72-.27 2.56-2.1-.42-4.72-1.12-7.03-3.89-.17-.63-.25-1.3-.25-1.98-.01-.18-.01-.35.01-.53zm.79 4.02c2.16 2 4.49 2.62 6.32 2.99-.11.42-.25.83-.43 1.24a7.832 7.832 0 0 1-5.89-4.23zm0 0"/><ellipse transform="rotate(-24.632 14.813 20.467)" class="st0" cx="14.81" cy="20.47" rx=".32" ry=".32"/><ellipse transform="rotate(-24.632 19.415 10.573)" class="st0" cx="19.42" cy="10.57" rx=".32" ry=".32"/><ellipse transform="rotate(-24.632 17.114 14.714)" class="st0" cx="17.11" cy="14.71" rx=".32" ry=".32"/><ellipse transform="rotate(-24.632 13.893 17.476)" class="st0" cx="13.89" cy="17.48" rx=".32" ry=".32"/><ellipse transform="rotate(-24.632 21.256 15.175)" class="st0" cx="21.26" cy="15.17" rx=".32" ry=".32"/><ellipse transform="rotate(-24.632 14.123 12.414)" class="st0" cx="14.12" cy="12.41" rx=".32" ry=".32"/><ellipse transform="rotate(-24.632 16.884 9.882)" class="st0" cx="16.88" cy="9.88" rx=".32" ry=".32"/><ellipse transform="rotate(-24.632 11.362 12.413)" class="st0" cx="11.36" cy="12.41" rx=".32" ry=".32"/><ellipse transform="rotate(-24.632 4.229 15.175)" class="st0" cx="4.23" cy="15.17" rx=".32" ry=".32"/><ellipse transform="rotate(-24.632 5.84 12.644)" class="st0" cx="5.84" cy="12.64" rx=".32" ry=".32"/><ellipse transform="rotate(-24.632 20.105 17.245)" class="st0" cx="20.11" cy="17.25" rx=".32" ry=".32"/><ellipse transform="rotate(-24.632 9.981 7.582)" class="st0" cx="9.98" cy="7.58" rx=".32" ry=".32"/><ellipse transform="rotate(-24.632 16.884 19.777)" class="st0" cx="16.88" cy="19.78" rx=".32" ry=".32"/><ellipse transform="rotate(-24.632 2.618 13.564)" class="st0" cx="2.62" cy="13.56" rx=".32" ry=".32"/><ellipse transform="rotate(-24.632 21.486 16.555)" class="st0" cx="21.49" cy="16.56" rx=".32" ry=".32"/><ellipse transform="rotate(-24.632 19.185 18.396)" class="st0" cx="19.19" cy="18.4" rx=".32" ry=".32"/><ellipse transform="rotate(-24.632 19.185 4.13)" class="st0" cx="19.19" cy="4.13" rx=".32" ry=".32"/><ellipse transform="rotate(-24.632 2.158 14.945)" class="st0" cx="2.16" cy="14.94" rx=".32" ry=".32"/><ellipse transform="rotate(-24.632 16.884 16.325)" class="st0" cx="16.88" cy="16.33" rx=".32" ry=".32"/><ellipse transform="rotate(-24.632 18.495 20.237)" class="st0" cx="18.49" cy="20.24" rx=".32" ry=".32"/></svg>