<svg id="Layer_2" xmlns="http://www.w3.org/2000/svg" viewBox="0 0 24 24"><style>.st0{fill:#666}</style><path class="st0" d="M18.21 6.7a7.929 7.929 0 0 0-5.63-2.33c-2.13 0-4.13.83-5.63 2.33s-2.33 3.51-2.33 5.63.83 4.13 2.33 5.63 3.51 2.33 5.63 2.33c2.13 0 4.13-.83 5.63-2.33s2.33-3.51 2.33-5.63-.83-4.13-2.33-5.63zm1.69 5.74l-1.65-1.72.35-2.56a7.26 7.26 0 0 1 1.3 4.18v.1zm-1.14 3.83l-2.73.49-1.37-2.1.97-2.98 2.18-.49 2.03 2.12a7.353 7.353 0 0 1-1.08 2.96zm-9.64.48l-2.75-.52c-.56-.89-.93-1.9-1.06-2.95l2.03-2.11 2.18.49.97 2.98-1.37 2.11zm1.95-2.37l-.93-2.86 2.43-1.77L15 11.52l-.93 2.86h-3zm6.98-6.92l-.42 3.1-2.18.49-2.55-1.86V7.15l2.9-1.4a7.252 7.252 0 0 1 2.25 1.71zm-3.04-2.04l-2.44 1.17-2.44-1.17c.77-.27 1.59-.41 2.44-.41.85 0 1.67.14 2.44.41zm-5.66.33l2.9 1.4V9.2L9.7 11.05l-2.18-.49-.42-3.1c.1-.1.19-.21.29-.31a7.41 7.41 0 0 1 1.96-1.4zm-2.8 2.41l.35 2.56-1.65 1.71v-.09c0-1.52.45-2.96 1.3-4.18zm.36 8.83l2.15.4.96 1.82c-.98-.36-1.88-.93-2.64-1.69-.16-.17-.31-.35-.47-.53zm3.98 2.48l-1.24-2.35 1.37-2.11h3.12l1.37 2.11-1.26 2.35c-.54.13-1.1.19-1.67.19-.58 0-1.14-.06-1.69-.19zm6.87-1.95a7.34 7.34 0 0 1-2.65 1.7l.98-1.82 2.13-.38c-.15.17-.3.33-.46.5z"/><ellipse transform="rotate(-24.632 13.248 18.397)" class="st0" cx="13.25" cy="18.4" rx=".32" ry=".32"/><ellipse transform="rotate(-24.632 20.843 8.5)" class="st0" cx="20.84" cy="8.5" rx=".32" ry=".32"/><ellipse transform="rotate(-24.632 17.39 12.643)" class="st0" cx="17.39" cy="12.64" rx=".32" ry=".32"/><ellipse transform="rotate(-24.632 13.708 15.865)" class="st0" cx="13.71" cy="15.87" rx=".32" ry=".32"/><ellipse transform="rotate(-24.632 21.533 13.104)" class="st0" cx="21.53" cy="13.1" rx=".32" ry=".32"/><ellipse transform="rotate(-24.632 14.398 8.961)" class="st0" cx="14.4" cy="8.96" rx=".32" ry=".32"/><ellipse transform="rotate(-24.632 17.16 7.81)" class="st0" cx="17.16" cy="7.81" rx=".32" ry=".32"/><ellipse transform="rotate(-24.632 11.637 11.263)" class="st0" cx="11.64" cy="11.26" rx=".32" ry=".32"/><ellipse transform="rotate(-24.632 4.041 13.104)" class="st0" cx="4.04" cy="13.1" rx=".32" ry=".32"/><ellipse transform="rotate(-24.632 6.113 10.572)" class="st0" cx="6.11" cy="10.57" rx=".32" ry=".32"/><ellipse transform="rotate(-24.632 20.843 15.866)" class="st0" cx="20.84" cy="15.87" rx=".32" ry=".32"/><ellipse transform="rotate(-24.632 12.097 5.509)" class="st0" cx="12.1" cy="5.51" rx=".32" ry=".32"/><ellipse transform="rotate(-24.632 16.7 17.707)" class="st0" cx="16.7" cy="17.71" rx=".32" ry=".32"/><ellipse transform="rotate(-24.632 2.89 11.493)" class="st0" cx="2.89" cy="11.49" rx=".32" ry=".32"/><ellipse transform="rotate(-24.632 21.763 14.485)" class="st0" cx="21.76" cy="14.48" rx=".32" ry=".32"/><ellipse transform="rotate(-24.632 19.922 17.707)" class="st0" cx="19.92" cy="17.71" rx=".32" ry=".32"/><ellipse transform="rotate(-24.632 18.08 3.897)" class="st0" cx="18.08" cy="3.9" rx=".32" ry=".32"/><ellipse transform="rotate(-24.632 2.43 12.873)" class="st0" cx="2.43" cy="12.87" rx=".32" ry=".32"/><ellipse transform="rotate(-24.632 17.16 14.255)" class="st0" cx="17.16" cy="14.25" rx=".32" ry=".32"/><ellipse transform="rotate(-24.632 17.85 19.318)" class="st0" cx="17.85" cy="19.32" rx=".32" ry=".32"/></svg>