<svg id="Layer_2" xmlns="http://www.w3.org/2000/svg" viewBox="0 0 24 24"><style>.st0{fill:#666}</style><path class="st0" d="M11.96 22c-5.51 0-9.98-4.48-9.98-9.98s4.48-9.98 9.98-9.98 9.98 4.48 9.98 9.98S17.46 22 11.96 22zm0-19.21c-5.09 0-9.23 4.14-9.23 9.23s4.14 9.23 9.23 9.23 9.23-4.14 9.23-9.23-4.14-9.23-9.23-9.23z"/><path class="st0" d="M11.96 17.2a5.181 5.181 0 0 1 0-10.36c2.86 0 5.18 2.32 5.18 5.18s-2.33 5.18-5.18 5.18zm0-9.61c-2.44 0-4.43 1.99-4.43 4.43s1.99 4.43 4.43 4.43 4.43-1.99 4.43-4.43-1.99-4.43-4.43-4.43z"/><path class="st0" d="M11.94 14.86c-1.22 0-1.86-.76-1.86-1.52 0-.64.35-1.14 1.01-1.45-.51-.26-.81-.71-.81-1.22 0-.86.72-1.49 1.72-1.49 1.12 0 1.62.72 1.62 1.38 0 .54-.3.98-.84 1.27.67.29 1.03.79 1.03 1.41.02.93-.77 1.62-1.87 1.62zm-.09-2.67c-.58.17-.91.56-.91 1.05-.01.26.08.49.25.67.19.2.46.3.77.3.61 0 1.02-.36 1.02-.91s-.34-.88-1.13-1.11zm.12-2.38c-.61 0-.88.4-.88.81 0 .46.31.76.97.94.49-.17.77-.5.77-.92-.01-.41-.23-.83-.86-.83z"/></svg>