<svg id="Layer_2" xmlns="http://www.w3.org/2000/svg" viewBox="0 0 24 24"><style>.st0{fill:#666}</style><path class="st0" d="M15.23 22.01c-.03 0-.07 0-.1-.01-.09-.02-.18-.04-.28-.07-.62-.15-1.47-.36-2.66-.36-1.19 0-2.04.21-2.66.36-.1.02-.19.05-.28.07-.14.03-.28 0-.39-.09-.59-.5-.59-1.53-.59-1.65 0-.21.15-.39.36-.43.4-.08 1.73-.65 2.13-2.13-1.46.73-3.38.66-4.6.07-2.06-1-3.1-2.7-3.1-5.07 0-2.7 2.74-4.86 5.16-6.76 1.64-1.29 3.19-2.51 3.56-3.63a.454.454 0 0 1 .86 0c.36 1.12 1.91 2.34 3.56 3.63 2.42 1.9 5.16 4.06 5.16 6.76 0 2.37-1.04 4.07-3.1 5.07-1.22.59-3.14.66-4.6-.07.4 1.48 1.73 2.05 2.13 2.13.21.04.36.22.36.43 0 .12 0 1.15-.59 1.65-.12.06-.23.1-.33.1zm-6.05-1.43c.02.16.07.34.13.48.66-.16 1.57-.38 2.87-.38s2.21.22 2.87.38c.07-.14.11-.31.13-.48a4.01 4.01 0 0 1-2.58-3.8c0-.18.1-.34.26-.41.16-.07.35-.04.48.07 1.25 1.12 3.44 1.01 4.48.51 1.75-.85 2.6-2.24 2.6-4.27 0-2.26-2.56-4.28-4.82-6.06-1.39-1.09-2.71-2.14-3.43-3.21-.71 1.07-2.04 2.11-3.43 3.21-2.26 1.78-4.82 3.79-4.82 6.06 0 2.02.85 3.42 2.6 4.27 1.04.5 3.23.61 4.48-.51.13-.12.32-.15.48-.07.16.07.26.23.26.41.03 2.22-1.53 3.42-2.56 3.8z"/><path class="st0" d="M5.23 12.88a.45.45 0 0 1-.45-.43c-.03-.76.52-1.71 1.08-2.25l.02-.02 4.48-3.8c.44-.34.83-.8 1.06-1.08.06-.08.12-.14.16-.19.16-.18.45-.2.63-.03s.2.45.03.63c-.04.04-.08.1-.14.16-.26.31-.69.82-1.19 1.2l-4.45 3.77c-.44.46-.8 1.16-.78 1.58.01.25-.18.46-.43.47 0-.01-.01-.01-.02-.01z"/></svg>