<svg id="Layer_2" xmlns="http://www.w3.org/2000/svg" viewBox="0 0 24 24"><style>.st0{fill:#666}</style><path class="st0" d="M21.95 8.63c0 .77-.54 1.41-1.25 1.57l-.02 4.91c0 1.31-1.07 2.38-2.39 2.38h-.86v1.76c0 1.31-1.07 2.38-2.39 2.38l-10.66-.02C3.07 21.61 2 20.54 2 19.22L2.02 7c0-1.31 1.06-2.37 2.37-2.38V3.41c0-.57.47-1.04 1.04-1.04l8.61.01c.57 0 1.04.47 1.04 1.04v1.21a2.39 2.39 0 0 1 2.36 2.39l-.02 9.72h.86c.91 0 1.65-.74 1.65-1.64l.02-4.91c-.71-.17-1.24-.81-1.24-1.57 0-.89.73-1.62 1.62-1.62s1.62.73 1.62 1.63zM5.43 3.11c-.17 0-.3.13-.3.3v1.21l9.22.01V3.42c0-.17-.13-.3-.3-.3l-8.62-.01zm11.25 16.14l.02-12.22c0-.91-.74-1.65-1.64-1.65L4.4 5.36c-.9 0-1.64.74-1.64 1.64l-.02 12.22c0 .91.74 1.65 1.64 1.65l10.65.02c.91 0 1.65-.74 1.65-1.64zm3.65-9.75c.48 0 .88-.39.88-.88 0-.48-.39-.88-.88-.88-.48 0-.88.39-.88.88s.39.88.88.88zM9.71 17.57c.41 0 .75-.33.75-.74s-.33-.75-.74-.75-.75.33-.75.74c0 .42.33.75.74.75zm0-2.23a1.485 1.485 0 1 1-1.49 1.48c.01-.82.67-1.48 1.49-1.48zm-3.79-.01a1.485 1.485 0 1 1-1.49 1.48c.01-.81.67-1.48 1.49-1.48zm0 2.23c.41 0 .75-.33.75-.74s-.33-.75-.74-.75-.75.33-.75.74c0 .42.33.75.74.75zm7.58-2.21a1.485 1.485 0 1 1-1.49 1.48c.01-.82.67-1.49 1.49-1.48zm0 2.23c.41 0 .75-.33.75-.74s-.33-.75-.74-.75-.75.33-.75.74.33.75.74.75z"/><path class="st0" d="M7.06 11.58c-.06 0-.11-.01-.16-.04l-.75-.38-.75.38c-.12.06-.27.05-.38-.04a.375.375 0 0 1-.14-.36l.15-.78-.62-.61c-.1-.1-.13-.25-.09-.38.06-.13.18-.23.32-.24l.82-.07.36-.79a.363.363 0 0 1 .66 0l.36.79.82.07c.14.01.26.11.31.24.04.13.01.28-.09.38l-.62.61.15.79a.363.363 0 0 1-.35.43zm-.91-1.02c.04 0 .09.01.13.03l.5.25-.1-.52c-.02-.09.01-.19.08-.26l.4-.4-.54-.05a.28.28 0 0 1-.23-.16l-.24-.53-.24.53c-.04.09-.13.15-.24.16l-.53.05.41.4c.07.07.1.16.08.26l-.1.52.5-.25c.03-.02.07-.03.12-.03zM4.69 9.7zm2.79-.36z"/><path class="st0" d="M10.63 11.58c-.06 0-.11-.01-.16-.04l-.75-.38-.75.38c-.12.06-.27.05-.38-.04a.375.375 0 0 1-.14-.36l.15-.78-.62-.61c-.1-.1-.13-.25-.08-.38s.17-.22.31-.24l.82-.07.36-.79a.363.363 0 1 1 .66 0l.36.79.82.07c.14.01.26.11.31.24.05.13.01.28-.09.38l-.62.61.15.79a.363.363 0 0 1-.35.43zm-.91-1.02c.04 0 .09.01.13.03l.5.25-.1-.52c-.02-.09.01-.19.08-.26l.4-.4-.54-.05a.28.28 0 0 1-.23-.16l-.24-.53-.24.53c-.05.09-.14.15-.24.16l-.54.05.41.4c.07.07.1.16.08.26l-.1.52.5-.25c.04-.02.08-.03.13-.03zM8.26 9.7zm2.79-.36zM9.53 8.5z"/><path class="st0" d="M14.2 11.58c-.06 0-.11-.01-.16-.04l-.75-.38-.75.38a.35.35 0 0 1-.38-.04.375.375 0 0 1-.14-.36l.15-.78-.62-.61c-.1-.1-.13-.25-.09-.38.05-.13.17-.22.31-.24l.82-.07.36-.79a.363.363 0 0 1 .66 0l.36.79.82.07c.14.01.26.11.31.24.05.13.01.28-.09.38l-.62.61.15.79a.363.363 0 0 1-.34.43zm-1.63-.33zm.71-.69c.04 0 .09.01.13.03l.5.25-.1-.52c-.02-.09.01-.19.08-.26l.4-.4-.54-.05a.273.273 0 0 1-.23-.17l-.24-.53-.24.53c-.04.1-.13.16-.23.17l-.54.05.41.4c.07.07.1.16.08.26l-.1.52.5-.25c.04-.02.08-.03.12-.03zm-1.46-.86zm1.65-1.2zm-.38 0z"/></svg>