<svg id="Layer_2" xmlns="http://www.w3.org/2000/svg" viewBox="0 0 24 24"><style>.st0{fill:#666}</style><path class="st0" d="M7.33 18.53c-.04 0-.07 0-.11-.01-.78-.22-1.33-.64-1.72-1.32-.33-.59-.56-1.4-.76-2.71v-.02l-.92-8.06v-.05c0-2.37 1.93-4.29 4.29-4.29h5.21c.22 0 .4.18.4.4 0 .22-.18.4-.4.4H8.11c-1.91 0-3.47 1.55-3.48 3.46l.92 8.02c.19 1.21.39 1.93.67 2.44.28.5.65.78 1.23.94a.4.4 0 0 1 .28.5c-.06.19-.22.3-.4.3z"/><path class="st0" d="M19.2 9.89h-.05a.419.419 0 0 1-.36-.45l.36-3.1a3.485 3.485 0 0 0-3.48-3.46h-5.21c-.22 0-.4-.18-.4-.4 0-.22.18-.4.4-.4h5.21c2.37 0 4.29 1.93 4.29 4.29v.05l-.36 3.11a.4.4 0 0 1-.4.36zM17.27 21.91H6.51c-.22 0-.4-.18-.4-.4v-3.7c0-.22.18-.4.4-.4.22 0 .4.18.4.4v3.3h9.96v-3.15c0-.22.18-.4.4-.4.22 0 .4.18.4.4v3.55c0 .22-.18.4-.4.4z"/><path class="st0" d="M13.51 18.7h-3.24c-.22 0-.4-.18-.4-.4 0-.22.18-.4.4-.4h3.24c.22 0 .4.18.4.4 0 .22-.18.4-.4.4zM13.51 20.1h-3.24c-.22 0-.4-.18-.4-.4 0-.22.18-.4.4-.4h3.24c.22 0 .4.18.4.4 0 .22-.18.4-.4.4zM16.11 18.54c-.22 0-.4-.18-.4-.4 0-.22.18-.4.4-.4.45 0 1.83 0 2.46-2.54l.78-3.93c.08-.49-.02-.91-.32-1.26-.38-.45-1.05-.73-1.76-.73h-1.14c-1.09 0-1.98.89-1.98 1.98v2.21c0 .16-.09.3-.23.37l-1.91.9a.405.405 0 1 1-.35-.73l1.67-.79v-1.96c0-1.54 1.25-2.79 2.79-2.79h1.14c.95 0 1.84.38 2.38 1.02.45.53.62 1.2.49 1.92v.01l-.79 3.95v.02c-.24.97-.6 1.72-1.09 2.25-.55.6-1.27.9-2.14.9z"/></svg>