<svg id="Layer_2" xmlns="http://www.w3.org/2000/svg" viewBox="0 0 24 24"><style>.st0{fill:#666}</style><path class="st0" d="M14.93 19.04l-3.61-.01c-.92 0-1.67-.75-1.66-1.67l.02-13.1-2.07.42a.889.889 0 0 0-.7 1.05l2.65 13.46c.09.48.57.8 1.05.71l4.32-.86zM11.35 2.76c-.49 0-.9.4-.9.9l-.02 13.72c0 .49.4.9.89.9l8.41.01c.49 0 .9-.4.9-.9l.02-13.72c0-.49-.4-.9-.9-.9l-8.4-.01zm4.39 16.91l-5.44 2.24c-.2.08-.42.13-.64.13-.68 0-1.28-.41-1.54-1.03L2.9 8.32c-.35-.85.05-1.82.9-2.17l2.36-.97c.05-.2.13-.38.24-.55.25-.37.63-.62 1.06-.71l2.22-.44c.09-.84.8-1.5 1.66-1.5l8.42.02c.92 0 1.67.75 1.67 1.67l-.03 13.72c0 .92-.75 1.67-1.67 1.67h-.85l-3.14.61zM6.17 6l-2.07.86c-.46.19-.68.71-.49 1.17l5.23 12.68c.14.34.46.55.83.56.12 0 .23-.02.34-.07l1.85-.76-1.1.22a1.67 1.67 0 0 1-1.96-1.32L6.17 6zm9.36 9.63c-.1 0-.2-.04-.27-.11l-2.3-2.3c-.39-.4-.61-.9-.61-1.42 0-.5.2-.97.56-1.32.36-.36.83-.55 1.34-.55.48 0 .94.18 1.29.51.35-.33.81-.5 1.29-.5.5 0 .98.2 1.34.55.36.36.55.83.55 1.33 0 .52-.22 1.03-.61 1.42l-2.3 2.3c-.08.05-.18.09-.28.09zm-1.28-4.94c-.3 0-.58.12-.79.33-.21.21-.33.49-.33.78 0 .31.14.63.38.87l2.02 2.03 2.03-2.02c.25-.25.39-.56.39-.87 0-.29-.12-.57-.33-.78-.21-.21-.49-.33-.79-.33-.3 0-.59.12-.8.33l-.22.22a.386.386 0 0 1-.54 0l-.22-.22c-.21-.22-.5-.34-.8-.34zm-1.06-4.74l-.37-.89-.37.89h.74zm-1.55 1.33c-.05 0-.1-.01-.15-.03a.382.382 0 0 1-.21-.5l1.18-2.84c.06-.14.2-.24.36-.24.16 0 .3.09.36.24l1.17 2.85c.08.2-.01.42-.21.5-.2.08-.42-.01-.5-.21l-.14-.32h-1.37l-.13.31a.39.39 0 0 1-.36.24z"/></svg>