<svg id="Layer_2" xmlns="http://www.w3.org/2000/svg" viewBox="0 0 24 24"><style>.st0{fill:#666}</style><path class="st0" d="M11.96 2.06C6.47 2.06 2 6.53 2 12.02c0 5.49 4.47 9.96 9.96 9.96s9.96-4.47 9.96-9.96c0-5.5-4.47-9.96-9.96-9.96zm0 15.77c-3.2 0-5.81-2.61-5.81-5.81 0-3.2 2.61-5.81 5.81-5.81 3.2 0 5.81 2.61 5.81 5.81 0 3.2-2.61 5.81-5.81 5.81zm4.38-10.79a6.577 6.577 0 0 0-3.97-1.65V2.9c2.21.1 4.21.98 5.74 2.38l-1.77 1.76zm-4.8-1.65c-1.52.09-2.9.7-3.97 1.65L5.8 5.28a9.102 9.102 0 0 1 5.74-2.38v2.49zM6.98 7.63a6.552 6.552 0 0 0-1.65 3.97h-2.5c.1-2.21.98-4.21 2.38-5.74l1.77 1.77zm-1.65 4.8c.09 1.52.7 2.9 1.65 3.97l-1.76 1.76a9.08 9.08 0 0 1-2.38-5.74h2.49zm2.24 4.56c1.07.95 2.46 1.56 3.97 1.65v2.49a9.08 9.08 0 0 1-5.74-2.38l1.77-1.76zm4.8 1.65c1.52-.09 2.9-.7 3.97-1.65l1.76 1.76a9.08 9.08 0 0 1-5.74 2.38v-2.49zm4.56-2.23a6.577 6.577 0 0 0 1.65-3.97h2.49a9.08 9.08 0 0 1-2.38 5.74l-1.76-1.77zm1.65-4.81c-.09-1.52-.7-2.9-1.65-3.97l1.76-1.76a9.08 9.08 0 0 1 2.38 5.74h-2.49z"/><path class="st0" d="M14.01 9.38l-2.05 2.05L9.9 9.38l-.59.58 2.06 2.06-2.06 2.05.59.59 2.06-2.06 2.05 2.06.59-.59-2.06-2.05 2.06-2.06z"/></svg>