<svg id="Layer_2" xmlns="http://www.w3.org/2000/svg" viewBox="0 0 24 24"><style>.st0{fill:#666}</style><path class="st0" d="M6.98 19.98a4.97 4.97 0 0 1-3.53-1.46A4.947 4.947 0 0 1 1.99 15c0-1.33.52-2.59 1.46-3.53a4.947 4.947 0 0 1 4.94-1.25l.21.06 6.35-6.35 2.76.01h.31v3.09l-1.34 1.34h-1.79v1.98h-1.98v1.81l-1.21 1.21.06.21c.52 1.75.04 3.65-1.25 4.94a4.97 4.97 0 0 1-3.53 1.46zm0-9.34c-1.16 0-2.26.45-3.08 1.28-.83.82-1.28 1.91-1.28 3.08s.45 2.26 1.28 3.08c.82.82 1.92 1.27 3.08 1.27 1.17 0 2.26-.45 3.08-1.27a4.332 4.332 0 0 0 .97-4.67.307.307 0 0 1 .07-.34l1.18-1.18V9.73h1.99V7.74h2.17l.97-.97v-2.2h-2.2l-6.3 6.3a.31.31 0 0 1-.33.07c-.52-.2-1.06-.3-1.6-.3z"/><path class="st0" d="M5.41 16.58l1.13-1.54-1.82-.59.17-.53 1.81.59v-1.9h.58v1.9l1.81-.59.17.53-1.82.59 1.12 1.54-.45.33-1.12-1.54-1.12 1.54zM14.44 15.6l.8-1.09-1.29-.41.12-.38 1.28.42v-1.35h.41v1.35l1.28-.42.12.38-1.28.41.79 1.09-.32.23-.79-1.08-.79 1.08zM19.24 15.6l.8-1.09-1.29-.41.12-.38 1.28.42v-1.35h.41v1.35l1.28-.42.12.38-1.29.41.8 1.09-.32.23-.79-1.08-.79 1.08z"/></svg>