<svg id="Layer_2" xmlns="http://www.w3.org/2000/svg" viewBox="0 0 24 24"><style>.st0{fill:#666}</style><path class="st0" d="M17.09 18.5c-.88-.54-1.66-1.77-2.21-3.51-.56-1.75-.86-3.91-.85-6.07.3-.09.51-.47.51-.95 0-.43-.17-.77-.42-.91.09-.93.24-1.8.44-2.57.01-.03.01-.05.01-.08V4.4c0-.04-.01-.07-.02-.11v-.01c-.01-.02-.02-.05-.04-.07l-.02-.02c0-.01-.01-.01-.01-.02-.03-.02-.05-.04-.09-.06-.01 0-.01 0-.02-.01-.03.01-.07 0-.1 0h-1.04v-.02h.26c.17 0 .31-.14.31-.31v-.9c0-.17-.14-.31-.31-.31h-.26V2.3c0-.17-.14-.31-.31-.31h-.9c-.17 0-.31.14-.31.31v.26h-.26c-.17 0-.31.14-.31.31v.9c0 .17.14.31.31.31h.26v.02h-1.04a.36.36 0 0 0-.11.02c-.01 0-.01 0-.02.01-.03.01-.06.03-.09.06-.01 0-.01.01-.01.01l-.02.02c-.02.02-.03.04-.04.07v.01a.36.36 0 0 0-.02.11v.01c0 .03 0 .05.01.08.21.77.36 1.64.44 2.57-.25.14-.42.48-.42.91 0 .48.21.85.51.95.01 2.16-.29 4.31-.85 6.07-.55 1.72-1.32 2.96-2.19 3.5-.3.06-.53.33-.53.65v2.16c0 .37.3.66.66.66h8.93c.37 0 .66-.3.66-.66v-2.16a.66.66 0 0 0-.49-.65zm-6-10.18c-.03-.04-.08-.16-.08-.35 0-.19.05-.31.08-.35h2.74c.03.04.08.16.08.35 0 .19-.05.31-.08.35h-2.74zm.92-4.86h-.26v-.28h.26c.17 0 .31-.14.31-.31v-.26h.28v.26c0 .17.14.31.31.31h.26v.28h-.26c-.17 0-.31.14-.31.31v.33h-.28v-.33c.01-.17-.13-.31-.31-.31zm1.86 1.26c-.17.7-.29 1.47-.37 2.28h-2.07c-.08-.81-.2-1.57-.36-2.27h2.8zm-3.22 10.45c.57-1.81.88-4.02.88-6.23h1.88c-.01 2.21.3 4.42.88 6.23.46 1.46 1.07 2.57 1.79 3.3H8.86c.71-.72 1.32-1.84 1.79-3.3zm6.27 6.17H7.99c-.02 0-.04-.02-.04-.04v-2.15h.01c.03-.02.06-.03.09-.05h8.83c.03.01.05.03.08.04v2.15c0 .03-.02.05-.04.05z"/></svg>