<svg id="Layer_2" xmlns="http://www.w3.org/2000/svg" viewBox="0 0 24 24"><style>.st0{fill:#666}</style><path class="st0" d="M19.24 17.06a.365.365 0 0 0-.36-.3c-.91 0-2.24-1.19-3.85-3.45.89-.15 1.68-.37 2.35-.64.16-.07.26-.24.22-.41a.365.365 0 0 0-.36-.3c-.67 0-1.7-.95-2.91-2.67.61-.11 1.15-.26 1.61-.45.16-.07.26-.24.22-.41a.365.365 0 0 0-.36-.3c-.67 0-1.89-1.57-2.82-3.15.09-.15.29-.35.44-.43l.36-.2c.22-.12.35-.31.35-.53 0-.22-.13-.41-.35-.53l-.36-.2c-.15-.08-.36-.3-.44-.44l-.2-.36a.594.594 0 0 0-.53-.33c-.22 0-.41.13-.53.33l-.2.36c-.08.15-.3.36-.44.44l-.36.2c-.22.12-.35.31-.35.53 0 .22.13.41.35.53l.36.2c.14.08.35.28.44.43-.93 1.59-2.15 3.17-2.82 3.17-.18 0-.33.12-.36.3-.03.16.06.33.23.4.46.19 1 .34 1.61.45-1.22 1.73-2.25 2.67-2.91 2.67-.18 0-.33.12-.36.3-.03.17.06.34.22.41.67.27 1.46.49 2.35.64-1.61 2.26-2.94 3.45-3.85 3.45-.17 0-.33.12-.36.3-.03.17.06.34.22.41 2.24.9 4.96 1.12 6.17 1.17v2.52h-1.35a.37.37 0 1 0 0 .74h3.9a.37.37 0 1 0 0-.74h-1.35v-2.52c1.2-.05 3.93-.26 6.17-1.17.15-.08.25-.25.21-.42zm-8.95-3.63c1.1.14 1.93.14 1.96.14s.86 0 1.96-.14c1.32 1.9 2.5 3.15 3.51 3.71-2.58.77-5.44.78-5.47.78-.03 0-2.89-.01-5.47-.78 1.01-.56 2.19-1.81 3.51-3.71zm.7-4.02c.72.08 1.24.08 1.27.08s.55 0 1.27-.08c.97 1.43 1.86 2.41 2.63 2.9-1.87.52-3.87.52-3.89.52-.02 0-2.02-.01-3.89-.52.75-.49 1.64-1.46 2.61-2.9zm1.35-4.75l-.09.16-.09-.16c-.15-.27-.46-.59-.73-.73l-.16-.09.16-.09c.27-.15.59-.46.73-.73l.09-.16.09.16c.15.27.46.59.73.73l.16.09-.16.09c-.26.14-.58.46-.73.73zm-.35.98c.17.1.37.1.54 0 .6.98 1.43 2.19 2.26 2.81-1.25.31-2.51.31-2.53.31-.01 0-1.27 0-2.53-.31.83-.62 1.66-1.82 2.26-2.81z"/></svg>