<svg id="Layer_2" xmlns="http://www.w3.org/2000/svg" viewBox="0 0 24 24"><style>.st0{fill:#666}</style><path class="st0" d="M14.64 17c-.13 0-.26-.01-.39-.03-.89-.14-1.67-.69-2.09-1.48l-2.67-5.02c-.42-.8-.44-1.75-.06-2.56.23-.5.63-.92 1.12-1.18l.27-.14c.16-.08.33-.13.51-.13a1.106 1.106 0 0 1 .97.58l.5.94c.29.55.08 1.23-.46 1.52-.21.11-.36.29-.43.52-.07.23-.05.46.06.67l1.4 2.63c.11.2.29.36.51.42.08.02.17.04.25.04.14 0 .28-.04.41-.1.16-.09.35-.13.53-.13.11 0 .22.02.33.05.29.09.53.28.67.55l.49.93c.14.26.17.55.08.83-.08.28-.27.51-.53.65l-.27.14c-.37.19-.79.3-1.2.3zm-3.31-9.86c-.07 0-.14.02-.2.05l-.27.14c-.36.19-.65.5-.82.87-.29.62-.27 1.35.05 1.95l2.67 5.02c.32.6.92 1.03 1.59 1.13a1.985 1.985 0 0 0 1.18-.2l.27-.14c.1-.05.17-.14.2-.25.03-.11.02-.22-.03-.32l-.49-.93a.447.447 0 0 0-.4-.24c-.07 0-.15.02-.21.05-.23.12-.47.18-.72.18-.15 0-.31-.02-.45-.07-.39-.12-.72-.39-.91-.75L11.39 11c-.2-.37-.24-.79-.11-1.18.12-.4.39-.72.76-.92.11-.06.18-.15.22-.27.03-.11.02-.23-.03-.34l-.5-.94a.388.388 0 0 0-.25-.2c-.07 0-.11-.01-.15-.01z"/><path class="st0" d="M6.93 21.97c-.95 0-1.72-.78-1.72-1.75v-4.48H4.14c-.19 0-.34-.15-.34-.34 0-.19.15-.34.34-.34H5.2V8.59H4.14c-.19 0-.34-.15-.34-.34s.15-.34.34-.34H5.2V3.75C5.21 2.78 5.98 2 6.93 2h11.55c.95 0 1.72.78 1.72 1.75v16.48c0 .96-.77 1.75-1.72 1.75H6.93zm-1.05-1.75c0 .59.47 1.07 1.04 1.07h11.55c.58 0 1.04-.48 1.04-1.07V3.75c0-.59-.47-1.07-1.04-1.07H6.93c-.58 0-1.04.48-1.04 1.07v4.17h1.06c.19 0 .34.15.34.34s-.16.33-.35.33H5.88v6.48h1.06c.19 0 .34.15.34.34 0 .19-.15.34-.34.34H5.88v4.47z"/></svg>