<svg id="Layer_2" xmlns="http://www.w3.org/2000/svg" viewBox="0 0 24 24"><style>.st0{fill:#666}</style><path class="st0" d="M22.12 5.01c0 .12-.07.25-.19.34l-4.35 3.33c-.17.13-.33.26-.5.39-.34.27-.69.55-1.05.8-.07.05-.14.1-.22.14l-.05.03.27.36c.11.14.17.33.17.52s-.06.38-.16.53c-.1.14-.24.25-.38.35l-9.45 7.02c-.09.07-.17.13-.24.19-.38.3-.77.61-1.23.52-.38-.07-.61-.41-.84-.73-.04-.06-.08-.12-.13-.18l-1.03-1.38a2.8 2.8 0 0 0-.16-.2c-.19-.24-.41-.51-.45-.78a.508.508 0 0 1-.03-.17c0-.31.14-.58.41-.78 0 0 10.34-7.68 10.35-7.69.01-.01.02-.02.03-.02.41-.25.95-.13 1.25.28l.26.35.05-.04c.11-.1.23-.19.34-.27l5.82-4.46c.08-.06.17-.06.24-.05.11.02.22.1.28.19.03.06.05.12.05.18 0 .12-.07.25-.19.34l-5.77 4.42a8.2 8.2 0 0 1-.13.11c-.06.05-.12.11-.17.16l-.03.03.23.31.19.25.04-.02c.05-.03.09-.05.14-.08.1-.06.19-.13.28-.2l5.79-4.43c.06-.05.15-.06.24-.05.11.02.22.1.28.19.02.07.04.14.04.2zm-6.72 6.03c.01-.01.01-.02.01-.02l.02-.02-.01-.02v-.08l-.01-.04h-.01l-.03-.06-.94-1.26-.02-.04c-.03-.04-.06-.08-.1-.12-.09-.1-.18-.21-.23-.32l-.09-.13-.45-.6c0-.01-.01-.01-.02-.02l.02-.03-.08-.02-.02-.01-.03.01v-.02l-.03-.02-.04.02.02.11-.04-.01-.02-.05.02-.04c-.01.01-.07.04-.07.04l-10.38 7.7-.02.05v.02l-.02.03.02.04.11-.01-.04.06-.06-.02c.01.01.04.07.04.07l1.85 2.49c.01.01.01.01.01.02.03.03.05.06.07.06l.01.01h.04V18.74c0-.01 0-.02-.01-.03v-.01l.01.01v-.02l.04.05-.01.02.02.03c.04-.02.06-.03.09-.05l10.38-7.7zm-1.18-.03c0 .13-.07.25-.19.34l-.75.55c-.07.05-.15.06-.24.05a.413.413 0 0 1-.27-.19.407.407 0 0 1-.05-.18c0-.12.07-.25.19-.34l.75-.55c.07-.05.15-.06.24-.05.11.02.22.1.27.19.03.05.05.12.05.18zm-.2 7.99c-.02.88-.75 1.61-1.59 1.59-.88-.02-1.59-.72-1.59-1.56V19c.02-.86.68-1.54 1.54-1.59h.12c.85.05 1.54.75 1.54 1.56l-.02.03zm-2.42.01c0 .23.09.44.25.59.17.16.38.25.59.24.23 0 .44-.09.59-.24.15-.16.24-.37.24-.58a.845.845 0 0 0-.83-.85c-.23 0-.45.09-.59.24-.15.16-.24.37-.24.58v.02zm1.81-10.69l.01-.07.02-.01.01.03-.04.05zm-.95 3.98c0 .13-.07.25-.19.34l-6.54 4.85c-.07.05-.15.06-.24.05a.413.413 0 0 1-.27-.19.407.407 0 0 1-.05-.18c0-.12.07-.25.19-.34l6.54-4.85c.07-.05.15-.06.24-.05.11.02.22.1.27.19.03.06.05.12.05.18zm-9.5 3.76s.01 0 0 0z"/></svg>