<svg id="Layer_2" xmlns="http://www.w3.org/2000/svg" viewBox="0 0 24 24"><style>.st0{fill:#666}</style><path class="st0" d="M11.49 21.88c-1.35 0-2.71-.29-3.92-.85-3.03-1.4-5.16-4.46-5.41-7.79-.27-3.37 1.4-6.74 4.22-8.58a9.394 9.394 0 0 1 5.13-1.51c1.6 0 3.16.4 4.52 1.16.14.08.27.15.4.24l.03.02 1.62-1.62c.07-.07.14-.14.21-.22.17-.18.34-.36.53-.5.12-.08.29-.13.46-.13.22 0 .42.07.54.19.09.09.13.2.13.33l-.01 1.52 1.53-.02c.15 0 .26.09.33.16.13.15.21.37.19.54-.03.25-.1.42-.24.56L19.5 7.66l.02.03a9.524 9.524 0 0 1 1.36 4.83c-.01 2.91-1.4 5.7-3.72 7.47-1.6 1.22-3.61 1.89-5.67 1.89zm-.01-17.95c-.71 0-1.41.09-2.08.26-3.13.8-5.6 3.34-6.29 6.47-.36 1.62-.24 3.3.34 4.85.26.71.66 1.45 1.12 2.08.43.6 1.03 1.21 1.63 1.68 1.48 1.17 3.38 1.81 5.33 1.81 1.32 0 2.62-.3 3.75-.87 1.44-.72 2.64-1.8 3.46-3.11a8.613 8.613 0 0 0 .16-8.93v-.02l-.03.01c-.14.04-.3.05-.44.05-.12 0-.24.01-.36.01-.17 0-.34 0-.51-.01-.35-.01-.69-.03-1.04-.05l-.52.49.03.03c.9 1.07 1.4 2.43 1.41 3.83-.01 2.26-1.36 4.41-3.37 5.35-.81.38-1.7.58-2.58.58-.86 0-1.69-.18-2.47-.54a5.953 5.953 0 0 1-3.19-3.65c-.51-1.67-.25-3.52.68-4.94.94-1.44 2.46-2.43 4.08-2.66.3-.04.6-.06.9-.06 1.46 0 2.86.52 3.93 1.45l.03.03.05-.01.42-.42V7.6c-.04-.67-.07-1.36-.02-2.03v-.05c.01-.1.02-.21.04-.31l.01-.03-.03-.02c-.54-.32-1.09-.58-1.65-.77-.91-.31-1.85-.46-2.79-.46zm.02 3.44c-.22 0-.45.01-.67.04-1.53.19-2.97 1.13-3.75 2.47a5.12 5.12 0 0 0-.72 2.9c.01.2.03.4.05.54.07.43.19.83.34 1.2.59 1.42 1.88 2.55 3.36 2.96.45.12.92.19 1.39.19a5.15 5.15 0 0 0 3.6-1.45c.14-.14.27-.28.4-.43a5.153 5.153 0 0 0 0-6.54l-.03-.04-1.91 1.9.02.03c.27.41.42.88.42 1.38a2.52 2.52 0 0 1-1.12 2.08c-.4.26-.87.4-1.35.4-.35 0-.71-.08-1.03-.22a2.52 2.52 0 0 1-1.45-2.06 2.5 2.5 0 0 1 1.11-2.28 2.522 2.522 0 0 1 2.56-.1c.09.05.18.11.27.17l.01.03 1.9-1.89-.04-.03c-.17-.15-.35-.28-.55-.41-.35-.22-.71-.4-1.04-.52a5.06 5.06 0 0 0-1.77-.32zm.01 3.45c-.5 0-.97.21-1.3.59-.49.56-.54 1.42-.14 2.04a1.713 1.713 0 0 0 1.91.7c.71-.22 1.2-.87 1.2-1.62 0-.28-.07-.55-.19-.79l-.03-.06-1.19 1.19c-.08.08-.17.12-.26.12a.42.42 0 0 1-.38-.27.342.342 0 0 1 .09-.4l1.21-1.21-.05-.03c-.06-.03-.11-.07-.17-.1-.21-.1-.45-.16-.7-.16zm5.16-5.18c-.02.29-.01.58-.01.87 0 .28.01.56.02.84v.04h.04l.75.03c.2.01.39.01.59.01h.27c.09 0 .18-.01.28-.01l.04-.04.01.03.04-.01.03-.02V7.3l.79-.78 1.6-1.6-1.56.02c-.11 0-.2-.04-.28-.12a.442.442 0 0 1-.12-.28l.01-1.58-2.49 2.49c-.01.02-.01.04-.01.06l-.02-.01-.03.03-.01.05.01.03h.05v.03z"/></svg>