<svg id="Layer_2" xmlns="http://www.w3.org/2000/svg" viewBox="0 0 24 24"><style>.st0{fill:#666}</style><path class="st0" d="M8.52 15.26c-.59 0-1.11-.32-1.37-.83L4.47 9.17A1.53 1.53 0 0 1 4.39 8c.14-.4.42-.72.79-.91l9.57-4.87c.23-.12.48-.18.73-.18.59 0 1.11.32 1.37.83l2.67 5.26c.19.36.21.78.08 1.17-.13.39-.42.72-.79.91l-9.57 4.87c-.22.11-.47.18-.72.18zm-.73-1.15c.14.28.43.45.75.45.14 0 .27-.03.4-.1L18.5 9.6c.2-.1.36-.28.43-.5a.86.86 0 0 0-.04-.65l-1.84-3.62-11.11 5.65 1.85 3.63zm7.67-11.37c-.14 0-.27.03-.4.1L5.5 7.7c-.21.11-.37.29-.44.51-.07.21-.05.44.05.64l.34.68 11.11-5.65-.34-.68a.865.865 0 0 0-.76-.46z"/><path class="st0" d="M8.5 12.84l2.3-1.18.08-.02.26.51-2.31 1.18-.07.02zM15.01 10.06c-.39 0-.74-.21-.92-.55-.26-.5-.04-1.13.48-1.39.15-.08.32-.12.49-.12h.08l.17.02.09-.15c.1-.17.25-.3.43-.39.15-.08.32-.12.49-.12.39 0 .74.21.92.55.12.24.14.52.05.79a1.095 1.095 0 0 1-1.02.73h-.08l-.18-.03-.09.14c-.1.17-.25.3-.43.39-.15.09-.32.13-.48.13zM15.42 21.95c-.26 0-.52-.06-.75-.18l-9.51-4.98c-.37-.2-.65-.52-.78-.92-.13-.39-.1-.81.09-1.17l.53-.99.39.76-.27.56a.88.88 0 0 0-.06.64c.07.22.22.4.43.51L15 21.16c.13.07.27.1.41.1.32 0 .6-.17.75-.45l1.89-3.6-4.26-2.23 1.16-.59 3.6 1.87.35-.67a.86.86 0 0 0-.37-1.15l-1.81-.95.73-.37 1.4.71c.37.2.65.52.78.92.13.39.1.81-.09 1.17l-2.74 5.23c-.28.49-.8.8-1.38.8z"/></svg>