<svg id="Layer_2" xmlns="http://www.w3.org/2000/svg" viewBox="0 0 24 24"><style>.st0{fill:#666}</style><path class="st0" d="M14.72 3.35c-.11-.77-.77-1.36-1.56-1.36-.8 0-1.45.59-1.56 1.36-3.43.72-6.01 3.77-6.01 7.4v1.32l-1.96 1.68c-.09.08-.14.2-.13.33.01.07.07.46.58.8.43.29 1.16.51 2.39.51.45 0 .97-.03 1.56-.1.17 1.37 1.11 6.57 5.39 6.61.06.01.2.03.39.03.45 0 1.19-.11 1.95-.72 1.65-1.31 2.51-4.16 2.57-8.48 1.2.43 1.63 1.92 1.65 2 .05.17.2.28.37.28h.05c.19-.03.33-.19.33-.38v-3.89c-.01-3.62-2.59-6.67-6.01-7.39zm-1.56-.6c.33 0 .61.19.74.47l-.37-.03c-.07 0-.14 0-.21-.01h-.16c-.07 0-.14 0-.22.01h-.16l-.37.03c.14-.27.42-.47.75-.47zm.26 18.4c-3.67-.04-4.49-4.75-4.64-5.95 1.46-.22 3.32-.65 5.69-1.38.02-.01.04-.01.06-.02l1.86-.93c.01.78-.02 2.23-.26 3.7-.3 1.89-1.02 4.21-2.71 4.58zm2.35-1.01c1.37-2.34 1.4-6.25 1.37-7.51h.42c-.05 4.33-.91 6.47-1.79 7.51zm4.19-7.07c-.41-.53-1-1.02-1.85-1.16a.329.329 0 0 0-.17-.04c-.03 0-.06.01-.1.01-.07 0-.13-.01-.2-.01h-2.4a.38.38 0 0 0-.09.75l-.95.47c-6.63 2.04-8.89 1.63-9.64 1.21-.1-.06-.17-.11-.22-.16l1.76-1.51h7.94c.1 0 .2-.04.27-.11l.3-.3a.38.38 0 0 0 0-.54.38.38 0 0 0-.54 0l-.19.19H6.35v-1.12c0-3.37 2.46-6.18 5.69-6.71.18-.03.36-.05.53-.07h.06c.35-.03.7-.03 1.05 0h.06c.18.02.36.04.53.07 3.22.54 5.69 3.34 5.69 6.71v2.32z"/><path class="st0" d="M16.62 5.62l-1.2-.6a.38.38 0 1 0-.34.68l1.2.6c.05.03.11.04.17.04.14 0 .27-.08.34-.21.1-.18.02-.41-.17-.51zM16.32 6.52l-.6-.3a.38.38 0 1 0-.34.68l.6.3c.05.03.11.04.17.04.14 0 .27-.08.34-.21.1-.19.02-.41-.17-.51z"/></svg>