<svg id="Layer_2" xmlns="http://www.w3.org/2000/svg" viewBox="0 0 24 24"><style>.st0{fill:#666}</style><path class="st0" d="M18.55 9.98l-3.47-1.33c.51-.45 1.07-.89 1.61-1.31.72-.57 1.47-1.16 2.14-1.8l.05-.05c.23-.32.13-.59.07-.69-.23-.41-.9-.63-3.57-.45h-.07c-.19-.37-.56-.63-1-.63-.46 0-.85.28-1.03.68-.13 0-.26.01-.39.01-.59-1.03-3.01-2.43-4.18-2.39-.12 0-.49.02-.67.31-.17.29-.03.59.07.81 0 .01.01.02.01.02-.08 0-.2 0-.37-.02l-.03-.02c-1.8-.91-2.34-.9-2.63-.6-.21.23-.21.53.01.92.08.14.26.46.26.54 0 0-.12.12-.72.13-1.33.05-1.79.19-1.91.59-.13.42.25.69.63.96.11.08.3.21.39.31-.03.03-.05.06-.08.08-.59.64-1.57 1.7-.96 3.98a.3.3 0 0 0 .04.08c-.91 2.1-.94 4.2-.03 5.94 1.09 2.11 3.41 3.37 6.36 3.47.44.27.78.61 1.13.96.74.73 1.5 1.49 3.07 1.49h.2c.12 0 .24-.06.31-.16.5-.68.17-2.45-.93-3.84 1.4-1.04 1.7-3.44 1.35-4.57a.414.414 0 0 0-.24-.26.392.392 0 0 0-.35.04c-.28.18-.57.34-.85.5-.95.54-1.93 1.09-2.95 2.39-.42.31-.66.21-.74.18-.76-.3-1.27-2.15-1.4-3a.412.412 0 0 0-.1-.21c1.46-1.03 4.19-1.25 5.7-1.38.16-.01.31-.02.44-.04.54-.01 1.24 0 1.91.01.49.01.99.02 1.44.02.18 0 .36 0 .52-.01.43.02.76-.08.98-.31.32-.33.28-.8.26-1.03a.473.473 0 0 0-.28-.32zm-4.26-5.46c.18 0 .33.15.33.34s-.15.34-.33.34c-.17 0-.3-.14-.32-.31.01-.03.02-.07.01-.11v-.02c.05-.13.17-.24.31-.24zM4.26 6.6c.06-.06.11-.12.17-.18.12-.14.18-.32.16-.5-.04-.38-.41-.65-.77-.91-.01-.01-.03-.02-.04-.03.19-.02.47-.05.89-.06.51-.02 1.13-.1 1.38-.54.22-.38.04-.81-.16-1.17.26.07.71.25 1.47.63.12.06.15.07.22.08.53.07 1.05.09 1.29-.25.22-.3.08-.63-.03-.85.79.06 2.37.93 3.06 1.64-3.2.21-6.26 1.01-8.18 3.87-.14.21-.26.42-.39.62-.09-1.24.47-1.85.93-2.35zm4.5 10.38c.35.14.9.19 1.57-.32.03-.02.05-.04.07-.07.93-1.2 1.81-1.7 2.74-2.22.13-.07.25-.14.38-.22.07 1.11-.36 2.84-1.46 3.34a.402.402 0 0 0-.13.64c1.06 1.11 1.35 2.5 1.25 3.03-1.19-.02-1.74-.57-2.43-1.25-.4-.4-.81-.81-1.38-1.14-.03-.01-.05-.03-.08-.03l-.06-.06c-1.54-1.25-2.92-2.64-2.64-4.25.05-.28.16-.53.32-.76.17.77.69 2.85 1.85 3.31zm9.21-6.19c-.04.04-.15.08-.38.06h-.03c-.54.01-1.25 0-1.93-.01-.67-.01-1.37-.03-1.92-.01-1.32-.25-2.96-1.01-3.47-2.13-.29-.64-.2-1.38.29-2.18.11-.19.05-.44-.14-.55a.393.393 0 0 0-.55.13c-.46.77-.64 1.5-.54 2.19l-4.17.63c-.16.03-.28.13-.33.28-.04.14 0 .3.1.41 1.22 1.19 1.87 1.67 2.62 1.67.49 0 1.03-.21 1.79-.55.33-.15.71-.32 1.16-.5.38.31.8.57 1.24.77-2.36.27-5.49.96-5.89 3.28-.3 1.7.75 3.08 2.11 4.32-2.08-.33-3.69-1.36-4.5-2.92-1.02-1.96-.67-4.47.96-6.89 1.98-2.95 5.39-3.49 8.84-3.58.14.46.56.79 1.06.79.52 0 .96-.36 1.09-.85h.04c1.61-.11 2.32-.05 2.63.01-.58.54-1.23 1.05-1.86 1.55-.72.57-1.47 1.16-2.14 1.8-.1.1-.14.23-.11.37.03.13.12.25.25.29l3.83 1.47a.37.37 0 0 1-.05.15zM9.53 9.07c.09.19.2.37.33.54-.33.14-.62.27-.87.38-1.44.65-1.69.76-2.94-.4l3.48-.52z"/><path class="st0" d="M21.42 6.69c-.59-.5-.57-.63-.52-.99l.07-.5c.46-.1.83-.47.89-.96.04-.3-.03-.61-.22-.85a1.15 1.15 0 0 0-2.06.53c-.04.3.03.61.22.85.1.14.23.24.38.32l-.08.51c-.08.56-.07.98.8 1.71.22.19.33.5.29.82-.08.55-.59.94-1.14.86a1.006 1.006 0 0 1-.85-1.14c.02-.15.07-.28.15-.41.02-.03.03-.06.04-.09l.26-.24c.16-.15.17-.4.02-.57a.407.407 0 0 0-.57-.02l-1.18 1.09c-.16.15-.17.4-.02.57.08.09.19.13.29.13.07 0 .14-.03.2-.06.04.3.16.58.34.83.29.39.72.64 1.2.7.08.01.17.02.25.02.89 0 1.67-.66 1.8-1.56.09-.59-.13-1.18-.56-1.55zm-.7-2.96h.05c.09.01.17.06.23.14.06.07.08.17.07.26-.03.19-.21.33-.4.3a.334.334 0 0 1-.23-.14.346.346 0 0 1-.07-.26c.03-.17.18-.3.35-.3z"/></svg>