<svg id="Layer_2" xmlns="http://www.w3.org/2000/svg" viewBox="0 0 24 24"><style>.st0{fill:#666}</style><path class="st0" d="M21.74 4.28c-.22-.27-.58-.43-.96-.43-.42 0-.81.21-1.04.57-.01.01-.02.03-.02.05-.04.1-4.26 9.54-5.41 10.85-.01.01-1.24 1.34-3.37 1.34-.18 0-.36-.01-.56-.03L4.2 15.44c-.1-.02-.21-.03-.31-.03-.92 0-1.61.67-1.82 1.75-.01.04-.15.88.36 1.6.35.5.92.81 1.68.93h.03l6.31.45s.15.01.39.01c.95 0 3.29-.16 4.52-1.61.07-.08.74-.86 1.24-2.02.69-1.6 4.54-9.79 5.31-11.41l.02-.04c.01-.02.02-.05.02-.08.04-.25-.03-.5-.21-.71zm-10.11 15.2a.21.21 0 0 1-.11-.04.185.185 0 0 1-.05-.12l.04-1.91c0-.08.06-.15.14-.16 1.61-.2 2.64-1.03 3.01-1.38a.15.15 0 0 1 .11-.04c.02 0 .05.01.07.02l.98.47c.08.04.11.13.08.22a7.6 7.6 0 0 1-1.02 1.61c-.81.92-2.21 1.23-3.25 1.33zm3.4-3.97a.19.19 0 0 1 .02-.13c.06-.09.13-.2.2-.31a.16.16 0 0 1 .14-.08c.02 0 .05.01.07.02l.78.37c.08.04.11.13.08.21l-.15.34c-.02.04-.05.07-.09.09-.02.01-.04.01-.06.01-.02 0-.05-.01-.07-.02l-.83-.39c-.05-.03-.08-.06-.09-.11zm1.39-.41c-.02 0-.05-.01-.07-.02l-.72-.34a.137.137 0 0 1-.08-.1.195.195 0 0 1 .01-.13c1.62-2.86 4.4-9.06 4.71-9.76 0-.01.01-.02.02-.03.12-.16.29-.25.49-.25.19 0 .37.08.47.2.02.03.04.05.05.08.02.04.01.09 0 .13-.56 1.19-3.42 7.26-4.73 10.12-.02.04-.05.07-.09.08-.02.02-.04.02-.06.02zM2.95 18.4c-.36-.5-.26-1.12-.26-1.12.15-.78.58-1.23 1.19-1.23.07 0 .14.01.2.02l.11.02c.08.02.14.09.13.17l-.14 2.62c0 .05-.03.09-.06.12-.03.02-.06.03-.1.03h-.04c-.46-.12-.81-.33-1.03-.63z"/><path class="st0" d="M8.31 12.37c1.5 0 2.72-1.22 2.72-2.72 0-1.5-1.22-2.72-2.72-2.72-1.5 0-2.72 1.22-2.72 2.72 0 1.5 1.22 2.72 2.72 2.72zm0-4.77c1.13 0 2.06.92 2.06 2.06 0 1.13-.92 2.06-2.06 2.06-1.13 0-2.05-.92-2.05-2.06 0-1.14.92-2.06 2.05-2.06z"/><ellipse transform="rotate(-24.632 8.172 8.857)" class="st0" cx="8.17" cy="8.86" rx=".44" ry=".44"/><ellipse transform="rotate(-24.632 9.466 9.935)" class="st0" cx="9.47" cy="9.94" rx=".44" ry=".44"/><ellipse transform="rotate(-24.632 7.31 10.15)" class="st0" cx="7.31" cy="10.15" rx=".44" ry=".44"/></svg>