<svg id="Layer_2" xmlns="http://www.w3.org/2000/svg" viewBox="0 0 24 24"><style>.st0{fill:#666}</style><path class="st0" d="M19.04 4.94A9.885 9.885 0 0 0 12 2.03c-2.66 0-5.16 1.04-7.04 2.92a9.895 9.895 0 0 0-2.92 7.04c0 2.66 1.04 5.16 2.92 7.04A9.895 9.895 0 0 0 12 21.95c2.66 0 5.16-1.04 7.04-2.92a9.895 9.895 0 0 0 2.92-7.04 9.9 9.9 0 0 0-2.92-7.05zm2.12 7.18L19.1 9.96l.43-3.2a9.094 9.094 0 0 1 1.63 5.22v.14zm-1.43 4.78l-3.41.61-1.71-2.63 1.21-3.73 2.72-.61 2.54 2.65a8.936 8.936 0 0 1-1.35 3.71zm-12.04.61l-3.44-.64a9.16 9.16 0 0 1-1.33-3.69l2.54-2.63 2.73.61 1.21 3.73-1.71 2.62zm2.43-2.97l-1.16-3.57L12 8.75l3.04 2.21-1.16 3.57h-3.76zm8.72-8.65l-.52 3.88-2.72.61-3.2-2.32V5.5l3.63-1.75c.9.44 1.72 1.03 2.45 1.75l.36.39zm-3.8-2.55L12 4.81 8.96 3.34c.96-.34 1.99-.51 3.04-.51s2.08.17 3.04.51zm-7.07.41L11.6 5.5v2.56l-3.2 2.32-2.72-.61-.52-3.88c.12-.13.24-.26.36-.38.73-.73 1.56-1.32 2.45-1.76zm-3.5 3.02l.43 3.2-2.06 2.13v-.12c0-1.89.57-3.69 1.63-5.21zm.46 11.03l2.69.5 1.21 2.27a9.118 9.118 0 0 1-3.29-2.12c-.23-.2-.43-.42-.61-.65zm4.96 3.1l-1.56-2.93 1.71-2.63h3.9l1.71 2.63-1.58 2.94c-.68.16-1.37.24-2.09.24-.7-.01-1.4-.09-2.09-.25zm8.59-2.44a9.11 9.11 0 0 1-3.31 2.12l1.22-2.28 2.66-.47c-.18.22-.37.43-.57.63z"/></svg>