<svg id="Layer_2" xmlns="http://www.w3.org/2000/svg" viewBox="0 0 24 24"><style>.st0{fill:#666}</style><path class="st0" d="M12 2.02c-5.5 0-9.97 4.47-9.97 9.97 0 5.5 4.47 9.97 9.97 9.97 5.5 0 9.97-4.47 9.97-9.97 0-5.5-4.47-9.97-9.97-9.97zm0 19.25c-5.12 0-9.28-4.16-9.28-9.28C2.72 6.87 6.88 2.7 12 2.7c5.12 0 9.28 4.16 9.28 9.28 0 5.12-4.16 9.29-9.28 9.29z"/><path class="st0" d="M5.97 16.3h1.3l.44-3.49h2.95l.14-1.05H7.83l.34-2.72h3.48l.13-1.06H6.99zM17.63 8.49c-.21-.16-.47-.29-.79-.38-.32-.09-.71-.13-1.15-.13h-2.57L12.1 16.3h2.84c.48 0 .91-.07 1.28-.2.38-.13.7-.32.96-.55.26-.24.47-.52.61-.84.14-.32.21-.68.21-1.06 0-.42-.12-.77-.36-1.04s-.6-.47-1.08-.58c.28-.09.53-.21.74-.36.21-.15.38-.31.52-.5s.24-.39.31-.61c.07-.22.1-.45.1-.69 0-.28-.05-.54-.14-.77-.1-.25-.25-.45-.46-.61zm-.92 5.17c0 .24-.03.46-.1.66s-.17.36-.31.51c-.14.14-.31.25-.53.33-.21.08-.46.12-.75.12h-1.51l.33-2.7h1.51c.47 0 .81.1 1.03.29.23.19.33.46.33.79zm-.24-2.41c-.29.27-.72.41-1.29.41h-1.21L14.29 9h1.28c.45 0 .79.09 1.01.26.22.17.33.45.33.82 0 .51-.15.89-.44 1.17z"/></svg>