<svg id="Layer_2" xmlns="http://www.w3.org/2000/svg" viewBox="0 0 24 24"><style>.st0{fill:#666}</style><path class="st0" d="M2.01 17.37V5.92h7.21v11.45H2.01zm.81-10.64v9.82H8.4V6.73H2.82z"/><path class="st0" d="M8.4 17.37V5.92h7.21v11.45H8.4zm.81-10.64v9.82h5.58V6.73H9.21z"/><path class="st0" d="M14.79 17.37V5.92H22v11.45h-7.21zm.81-10.64v9.82h5.58V6.73H15.6zM7.34 8.65v.78l-1.86 5.14H4.31l1.82-4.86V9.7H4.11V8.65h3.23zM13.61 8.65v.78l-1.86 5.14h-1.17l1.82-4.86V9.7h-2.02V8.65h3.23z"/><path class="st0" d="M19.89 8.65v.78l-1.86 5.14h-1.17l1.82-4.86V9.7h-2.02V8.65h3.23z"/></svg>