<svg id="Layer_2" xmlns="http://www.w3.org/2000/svg" viewBox="0 0 24 24"><style>.st0{fill:#666}</style><path class="st0" d="M11.38 22.02c-1.84 0-3.56-.67-5.22-2.02-1.12.03-2.15-.64-2.55-1.71-.4-1.06-.07-2.25.79-2.97.56-3.28 2.31-5.43 5.37-6.58 3.06-1.15 5.8-.69 8.38 1.4a2.637 2.637 0 0 1 1.76 4.67c-.56 3.28-2.31 5.43-5.37 6.58-1.09.42-2.14.63-3.16.63zm-4.93-2.94l.14.12c1.5 1.26 3.92 2.76 7.63 1.37 3.71-1.4 4.54-4.13 4.84-6.06l.03-.19.15-.11c.65-.46.91-1.3.63-2.04a1.745 1.745 0 0 0-1.82-1.12l-.19.02-.14-.12c-1.5-1.26-3.92-2.76-7.63-1.37-3.71 1.4-4.54 4.13-4.84 6.06l-.03.19-.15.11c-.65.46-.91 1.3-.63 2.04s1.03 1.21 1.82 1.12l.19-.02zM18.69 9.62l-.36-.12c-.1-.03-2.51-.87-3.3-2.85s.39-4.24.44-4.34l.18-.34.35.13c.1.03 2.51.87 3.3 2.85s-.39 4.24-.44 4.34l-.17.33zm-2.83-3.3c.47 1.19 1.75 1.9 2.39 2.18.26-.65.7-2.04.23-3.23-.47-1.18-1.75-1.89-2.39-2.18-.26.66-.7 2.05-.23 3.23z"/><path class="st0" d="M10.38 11.51c-.11 0-.23-.04-.31-.13a.444.444 0 0 1 0-.63c.65-.65 2.04-1.02 3.09-1.04h.05c1.09 0 2.14.34 2.84.93.19.16.21.44.06.63-.16.19-.44.21-.63.06-.54-.45-1.42-.74-2.31-.72-.96.02-2.07.37-2.47.78a.55.55 0 0 1-.32.12z"/></svg>