<svg id="Layer_2" xmlns="http://www.w3.org/2000/svg" viewBox="0 0 24 24"><style>.st0{fill:#231f20}</style><path class="st0" d="M19.74 18.24a9.934 9.934 0 0 0 2.21-6.25c0-.18-.01-.37-.02-.55v-.01c-.1-1.77-.66-3.42-1.57-4.83-.01-.02-.02-.04-.03-.05a10.003 10.003 0 0 0-5.8-4.2c-.81-.22-1.67-.33-2.55-.33-3.49 0-6.57 1.81-8.35 4.53-.01.02-.02.03-.03.05a9.916 9.916 0 0 0-1.57 4.83v.01c-.01.18-.02.36-.02.55 0 2.37.83 4.54 2.21 6.25.01.02.03.04.04.05 1.09 1.33 2.51 2.36 4.13 2.99.01 0 .02.01.03.01 1.1.42 2.3.65 3.55.65s2.44-.23 3.55-.65c.01 0 .02-.01.03-.01 1.62-.63 3.05-1.67 4.13-2.99.04-.01.05-.03.06-.05zm.98-6.18l-1.76-2.34.05-2.93.83.25a9.11 9.11 0 0 1 1.41 4.34l-.53.68zm-6.46-9.08l.49.72-2.77.95-2.77-.95.49-.72c.74-.18 1.5-.28 2.29-.28.78 0 1.54.1 2.27.28zm-9.3 3.81l.05 2.93-1.76 2.34-.53-.69c.1-1.59.61-3.07 1.41-4.34l.83-.24zm-.11 11.13l.02-.86 2.8.86 1.68 2.4-.82.29a9.376 9.376 0 0 1-3.68-2.69zm4.75 3.04l.39-.14c.16-.03.28-.16.28-.33 0-.12-.06-.21-.15-.28l-1.88-2.68a.341.341 0 0 0-.15-.22c-.07-.05-.15-.06-.22-.05l-3.13-.96c-.02-.02-.04-.03-.06-.04a.32.32 0 0 0 .03-.27l-.02-.05a.34.34 0 0 0-.43-.22.34.34 0 0 0-.22.43l.02.05c.03.09.1.16.18.2-.04.06-.05.14-.04.21l-.01.41a9.195 9.195 0 0 1-1.48-4.53l.25.32c.06.12.17.19.3.19.04 0 .07 0 .11-.02.11-.04.18-.13.22-.23l1.97-2.62c.08-.04.14-.12.16-.21.02-.08 0-.15-.03-.22l-.05-3.28c.01-.02.02-.04.02-.07.02 0 .04.01.07.01.07 0 .14-.02.2-.07l.04-.03c.15-.11.19-.33.07-.48-.1-.15-.32-.18-.47-.07l-.04.03c-.08.06-.13.15-.14.24-.07-.01-.14 0-.21.03l-.39.12a9.369 9.369 0 0 1 3.85-2.8l-.23.34c-.11.11-.14.29-.04.43.07.09.17.14.28.14h.02l3.09 1.06c.06.06.14.09.23.09s.17-.04.23-.09l3.09-1.06h.02c.11 0 .21-.05.28-.14.1-.14.08-.32-.04-.43l-.23-.34c1.52.59 2.84 1.56 3.85 2.8l-.39-.12c-.07-.03-.14-.05-.21-.03a.354.354 0 0 0-.14-.24l-.05-.03a.34.34 0 0 0-.48.08.35.35 0 0 0 .08.48l.04.03c.06.04.13.06.2.06.02 0 .04 0 .07-.01 0 .02.01.05.02.07l-.05 3.28a.33.33 0 0 0-.02.22c.02.09.08.17.16.21l1.97 2.62c.03.1.11.19.22.23.03.02.06.02.1.02.13 0 .25-.08.3-.19l.25-.32a9.161 9.161 0 0 1-1.48 4.53l-.01-.41c.01-.07 0-.15-.04-.21.08-.04.15-.11.18-.2l.02-.05a.34.34 0 0 0-.22-.43.34.34 0 0 0-.43.22l-.02.05a.32.32 0 0 0 .03.27c-.02.01-.04.03-.06.04l-3.16.97a.316.316 0 0 0-.28.04c-.12.08-.17.21-.15.34l-1.79 2.56c-.02.01-.04.03-.06.05a.325.325 0 0 0-.25-.11h-.05c-.19 0-.34.15-.34.34 0 .19.15.34.34.34h.05c.1 0 .19-.04.25-.11.05.05.12.09.19.1l.39.14a9.355 9.355 0 0 1-4.77 0zm5.83-.35l-.82-.29 1.68-2.4 2.8-.86.02.86a9.235 9.235 0 0 1-3.68 2.69z"/><path class="st0" d="M11.99 6.33c.19 0 .34-.15.34-.34v-.05c0-.19-.15-.34-.34-.34s-.34.15-.34.34v.05c-.01.18.15.34.34.34zM11.99 7.11c.19 0 .34-.15.34-.34v-.05c0-.19-.15-.34-.34-.34s-.34.15-.34.34v.05c-.01.19.15.34.34.34zM7.2 9.94l-.05-.02a.336.336 0 0 0-.41.25c-.05.18.07.37.25.41l.05.01a.34.34 0 0 0 .41-.25.338.338 0 0 0-.25-.4zM6.41 9.74l-.05-.01a.336.336 0 0 0-.41.25c-.05.18.07.37.25.41l.05.01a.34.34 0 0 0 .41-.25c.05-.18-.07-.36-.25-.41zM16.59 9.97l-.05.01c-.18.04-.3.23-.25.41.04.16.18.26.33.26.03 0 .05 0 .08-.01l.05-.01c.18-.04.3-.23.25-.41a.344.344 0 0 0-.41-.25zM17.4 9.77l-.05.01c-.18.04-.3.23-.25.41.04.16.18.26.33.26.03 0 .05 0 .08-.01l.05-.01c.18-.04.3-.23.25-.41a.344.344 0 0 0-.41-.25zM8.76 16.31a.339.339 0 0 0-.47.1l-.03.04c-.1.16-.06.37.1.47.06.04.12.06.19.06.11 0 .22-.05.29-.15l.03-.04c.09-.16.04-.37-.11-.48zM9.22 15.61a.339.339 0 0 0-.47.1l-.03.04c-.1.16-.06.37.1.47.06.04.12.06.19.06.11 0 .22-.05.29-.15l.03-.04c.09-.16.05-.38-.11-.48zM14.33 15.44a.344.344 0 0 0 .33-.42l1.42-4.37c.05-.14 0-.3-.12-.38l-3.77-2.74a.33.33 0 0 0-.4 0L8.1 10.21c-.11.03-.21.12-.24.24-.03.11.01.21.07.29l1.35 4.16c-.1.16-.06.37.1.47a.337.337 0 0 0 .45-.06h4.25c.05.08.15.13.25.13zm-2.34-7.21l3.37 2.45-1.29 3.96H9.9l-1.29-3.96 3.38-2.45zM15.6 16.41a.34.34 0 0 0-.57.37l.03.04a.334.334 0 0 0 .47.09c.16-.1.2-.32.1-.47l-.03-.03zM15.17 15.75l-.03-.04a.34.34 0 0 0-.57.37l.03.04c.07.1.17.15.29.15.06 0 .13-.02.19-.06.15-.09.19-.3.09-.46zM6.74 5.28a.335.335 0 0 0-.47-.07l-.05.03a.346.346 0 0 0 .21.62c.07 0 .14-.02.2-.07l.04-.03c.15-.11.18-.33.07-.48zM6.96 4.7l-.04.03a.34.34 0 0 0 .2.62c.07 0 .14-.02.2-.07l.04-.03c.15-.11.19-.32.08-.48a.347.347 0 0 0-.48-.07zM8.06 4.75c.15-.11.19-.32.08-.48-.12-.15-.33-.19-.48-.07l-.05.03a.346.346 0 0 0 .2.62c.07 0 .14-.02.2-.07l.05-.03zM17.3 5.76l.04.03c.06.04.13.07.2.07.11 0 .21-.05.28-.14.11-.15.08-.37-.07-.48l-.04-.03a.347.347 0 0 0-.48.07c-.11.15-.08.37.07.48zM16.61 5.25l.04.03c.06.04.13.06.2.06a.34.34 0 0 0 .2-.62l-.04-.02a.34.34 0 0 0-.48.08c-.11.15-.07.36.08.47zM15.96 4.78c.06.04.13.07.2.07a.34.34 0 0 0 .2-.62l-.05-.03a.34.34 0 0 0-.48.08.34.34 0 0 0 .08.48l.05.02zM20.28 13.97c.03.01.07.02.11.02.14 0 .28-.09.33-.24l.02-.05a.34.34 0 0 0-.22-.43.34.34 0 0 0-.43.22l-.02.05c-.06.17.03.37.21.43zM19.75 15.6c.03.01.07.02.11.02.14 0 .28-.09.33-.24l.02-.05a.34.34 0 0 0-.22-.43.34.34 0 0 0-.43.22l-.02.05c-.07.18.03.37.21.43zM20.02 14.78c.03.01.07.02.11.02.14 0 .28-.09.33-.24l.02-.05a.34.34 0 0 0-.22-.43.34.34 0 0 0-.43.22l-.02.05c-.07.18.03.38.21.43zM3.95 14.78a.34.34 0 0 0 .22-.43l-.01-.05a.34.34 0 0 0-.43-.22.34.34 0 0 0-.22.43l.02.05c.05.14.18.24.33.24.02 0 .06-.01.09-.02zM3.69 13.97a.34.34 0 0 0 .22-.43l-.02-.05a.34.34 0 0 0-.43-.22.34.34 0 0 0-.22.43l.02.05c.05.14.18.24.33.24.03-.01.06-.01.1-.02zM4.42 15.12a.34.34 0 0 0-.43-.22.34.34 0 0 0-.22.43l.02.05c.05.14.18.24.32.24.04 0 .07-.01.11-.02a.34.34 0 0 0 .22-.43l-.02-.05zM12.68 20.15h-.05c-.19 0-.34.15-.34.34 0 .19.15.34.34.34h.05c.19 0 .34-.15.34-.34 0-.19-.15-.34-.34-.34zM10.96 20.15h-.05c-.19 0-.34.15-.34.34 0 .19.15.34.34.34h.05c.19 0 .34-.15.34-.34 0-.19-.15-.34-.34-.34zM11.82 20.15h-.05c-.19 0-.34.15-.34.34 0 .19.15.34.34.34h.05c.19 0 .34-.15.34-.34 0-.19-.15-.34-.34-.34z"/></svg>