<svg id="Layer_2" xmlns="http://www.w3.org/2000/svg" viewBox="0 0 24 24"><style>.st0{fill:#666}</style><path class="st0" d="M12.08 10.82c1.18 0 2.3-.46 3.13-1.3.84-.84 1.3-1.95 1.3-3.13s-.46-2.3-1.3-3.13c-.84-.84-1.95-1.3-3.13-1.3s-2.3.46-3.13 1.3c-.84.84-1.3 1.95-1.3 3.13s.46 2.3 1.3 3.13c.83.83 1.94 1.3 3.13 1.3zm-.81-.73l-.6-1.12.65-.99h1.52l.64.99-.6 1.12c-.26.06-.53.09-.8.09-.28 0-.55-.03-.81-.09zM8.33 6.94l.98-1.02 1.01.23.47 1.46-.64.99-1.31-.25c-.26-.43-.44-.9-.51-1.41zm6.98 1.43L14 8.6l-.64-.99.47-1.46 1.01-.23.98 1.03c-.07.51-.25.99-.51 1.42zM13.21 6l-.43 1.33h-1.4L10.94 6l1.13-.82 1.14.82zm-3.12 3.24l.29.54c-.34-.18-.65-.4-.93-.67l.64.13zm3.97 0l.64-.11c-.28.27-.59.48-.92.65l.28-.54zm1.22-3.77l.12-.9c.25.46.4.96.45 1.49l-.57-.59zm-.62-.16l-1 .23-1.26-.92v-.93l1.41-.68c.35.18.67.41.95.69.04.04.07.08.11.12l-.21 1.49zm-2.58-2.17l-.9-.43c.29-.07.59-.11.9-.11.31 0 .61.04.9.11l-.9.43zm-1.73-.13l1.41.68v.93l-1.26.92-1-.23-.2-1.49c.03-.04.06-.08.1-.12.28-.28.6-.51.95-.69zM8.87 5.47l-.57.58c.05-.53.2-1.03.45-1.48l.12.9z"/><path class="st0" d="M22.07 12.22V4.94c0-.15-.16-.28-.36-.28-.2 0-.36.13-.36.28v6.92H2.65V4.94c0-.15-.16-.28-.36-.28-.2 0-.36.13-.36.28v16.74c0 .2.16.36.36.36.2 0 .36-.16.36-.36v-8.62l1.89 1.87v7.08h.65v-1.17h1.34v1.17h.65v-1.17h1.41v1.17h.65v-1.17h1.4v1.17h.65v-1.17h1.41v1.17h.65v-1.17h1.4v1.17h.65v-1.17h1.4v1.17h.65v-1.17h1.34v1.17h.65v-7.08l1.91-1.88v8.63c0 .2.16.36.36.36.2 0 .36-.16.36-.36v-9.46zm-3.28 4.19h-1.34v-1.28h1.34v1.28zm-11.61.65h1.41v1.25H7.18v-1.25zm2.06 0h1.4v1.25h-1.4v-1.25zm2.05 0h1.41v1.25h-1.41v-1.25zm2.05 0h1.4v1.25h-1.4v-1.25zm2.05 0h1.4v1.25h-1.4v-1.25zm1.41-.65h-1.4v-1.28h1.4v1.28zm-2.05 0h-1.4v-1.28h1.4v1.28zm-2.06 0h-1.41v-1.28h1.41v1.28zm-2.05 0h-1.4v-1.28h1.4v1.28zm-2.05 0H7.18v-1.28h1.41v1.28zm-2.06-1.28v1.28H5.19v-1.28h1.34zm0 1.93v1.25H5.19v-1.25h1.34zm10.91 1.25v-1.25h1.34v1.25h-1.34zm-12.25.65h1.34v1.24H5.19v-1.24zm1.99 0h1.41v1.24H7.18v-1.24zm2.06 0h1.4v1.24h-1.4v-1.24zm2.05 0h1.41v1.24h-1.41v-1.24zm2.05 0h1.4v1.24h-1.4v-1.24zm2.05 0h1.4v1.24h-1.4v-1.24zm2.05 0h1.34v1.24h-1.34v-1.24zm1.54-4.48H5l-1.82-1.79H20.8l-1.82 1.79z"/></svg>