<svg id="Layer_2" xmlns="http://www.w3.org/2000/svg" viewBox="0 0 24 24"><style>.st0{fill:#666}</style><path class="st0" d="M14.06 5.69l-2.34 1.14c0-.04.01-.09.01-.13 0-2.59-2.1-4.69-4.69-4.69-2.59 0-4.69 2.11-4.69 4.69a4.7 4.7 0 0 0 4.24 4.67c0 .01-.01.02-.01.02v6.93l7.49 3.65 7.47-3.5V9.06l-7.48-3.37zm2.37 11.11v-2.2l1.91-.9v2.2l-1.91.9zm1.91-.29v2.87l-1.91.87v-2.83l1.91-.91zm-4.23 1.39l-1.67-.8v-2.2l1.55.74c.01 0 .02.01.03.01.03.01.06.02.09.02s.05 0 .08-.01h.01c.01 0 .02-.01.04-.01l.01-.01c.01 0 .01-.01.02-.01l1.62-.77v2.2l-1.78.84zm-4.13-1.96v-2.2l1.91.91v2.2l-1.91-.91zm1.91 1.52v2.82l-1.91-.94v-2.78l1.91.9zm-.25-9.62l1.92.91-1.95.95-.74-.32c.33-.47.57-1.01.71-1.59.02.02.04.03.06.05zm7.27.6l-2.36 1.12-1.72-.82 2.27-1.12 1.81.82zM15.9 9.86l-1.86.88-1.75-.75 1.91-.94 1.7.81zm2.44 3.23l-1.91.9v-2.05a.28.28 0 0 0-.19-.26l-1.53-.65 1.83-.86 1.79.85v2.07zm-4.22 2l-1.68-.8v-2.18l1.62-.77 1.83.78v2.13l-1.77.84zm-4.14-3.96l1.66-.82 1.74.74-1.34.64c-.01.01-.02.02-.04.03-.02.01-.03.02-.04.04l-.01.01c-.02.02-.04.05-.05.08v.02c-.01.02-.01.05-.01.07v2.09l-1.91-.91v-1.99zm.54-1.3l.45.19-1.39.68c-.01.01-.02.02-.04.03-.02.01-.03.02-.04.04l-.01.01c-.02.02-.04.05-.05.08v.02c-.01.02-.01.05-.01.07v1.91l-2.32-1.1v-.36c1.35-.03 2.56-.63 3.41-1.57zm-3.41 2.54l2.32 1.1v2.2l-2.32-1.1v-2.2zm11.78 1.07l2.16-1.03v2.19l-2.16 1.03v-2.19zm2.16-1.64l-2.16 1.03v-1.96-.03-.01c0-.03-.01-.06-.02-.09l-.01-.01c-.01-.03-.03-.05-.05-.07-.01-.01-.01-.01-.02-.01-.02-.02-.03-.03-.06-.04l-1.55-.73 2.38-1.12 1.48.67v2.37zm-6.94-5.54l2.34 1.06-2.26 1.11-2.3-1.09h-.02l2.24-1.08zm-11.28.45c0-2.31 1.88-4.2 4.2-4.2 2.31 0 4.19 1.88 4.19 4.2 0 1.29-.58 2.48-1.59 3.29-.75.59-1.65.91-2.61.91a4.21 4.21 0 0 1-4.19-4.2zm4.28 8.48l2.32 1.1v2.77l-2.32-1.15v-2.72zm6.92 6.15l-1.59-.79v-2.83l1.55.74c.01 0 .02.01.03.01.03.01.06.02.09.02.04 0 .08-.01.11-.02h.01l.02-.01 1.62-.77v2.82l-1.84.83zm4.86-2.21v-2.88l2.16-1.03v2.93l-2.16.98z"/><path class="st0" d="M7.05 7.59l1.29.92-.42-1.49 1.16-.9-1.47-.03-.6-1.52-.56 1.54-1.47.05 1.18.89-.39 1.49z"/></svg>