<svg id="Layer_2" xmlns="http://www.w3.org/2000/svg" viewBox="0 0 24 24"><style>.st0{fill:#666}</style><path class="st0" d="M21.92 7.55c-.08-.11-.4-.18-.52-.19l-2.74-.19-.13-.09a.494.494 0 0 0-.41-.36h-.05l-.93-.31-1.08-.18a.385.385 0 0 0-.24-.04c-.05.01-.09.02-.14.04-.12.06-.2-.01-.22.12-.04.29-.07.67.22 1.18l-.21.47-.23.1c-1.52.55-7.1 2.06-8.84 3.7a.347.347 0 0 1-.19-.12l-.42.57-.23.31-.04.05c.09.06.19.12.29.18L4.1 14.08l-1.2.83c-.13.1-.22.24-.25.4L2 17.74c-.02.11 0 .22.08.3.07.08.17.12.28.1l.87-.1c.15-.02.28-.11.34-.25l.86-1.86c0-.01.01-.02.02-.02l1.15-.61 2.11-.99c.12-.03.22-.15.31-.28.1-.09.18-.2.22-.32l.37-.56 5.87-1.24c.01 0 .02 0 .03.01.01.01.02.02.02.03l3.35 2.21c0 .1.04.19.12.25.07.06.17.09.27.08l.82-.1c.17-.02.31-.71.34-.88.01-.07-.05-.13-.15-.19-.41-.38-2.07-.87-2.3-2.24l.03-.2.61-.97c.08-.36.13-.58.15-.72l3.58-.41c.2-.03.37-.18.42-.38l.22-.48c.04-.11.01-.26-.07-.37zM6.48 12.31h.1l.07-.07C8.29 10.63 14 9.07 15.4 8.57l.32-.12c.06-.02.15-.08.21-.22l.3-.78-.07-.1c-.21-.32-.23-.35-.21-.6l1.08.19 1.01.3.13.1c.04.16.16.28.32.33l.03.01 2.96.19-.22.44-4.52.56c-.07.01-.12.05-.16.1-.04.05-.05.12-.04.19.02.13.14.22.29.21l.41-.07c-.09.43-.5.47-.73 1.49l-.02.1c-.2.9.4 1.51 1.04 1.98.48.39.99.68 1.19.92.03.06.04.11.03.16l-.38.04-3.35-2.04c0-.17-.08-.32-.21-.42a.501.501 0 0 0-.39-.11c-.02 0-.04.01-.07.01l-2.96.5-2.6.66.13-.37a.248.248 0 0 0-.15-.32c-.04-.01-.07-.02-.11-.01-.1.01-.18.08-.21.17l-.28.81c-.01.02-.02.03-.02.05l-.39.64c-.01.02-.02.08-.03.15-.03.03-.08.05-.12.07L4.7 15.29l-.39.14c-.16.04-.28.15-.35.3l-.84 1.83-.57.06.59-2.19a.24.24 0 0 1 .07-.12l1.25-.87c.08-.07.15.02.16-.09l1.72-1.42v-.05l.03-.18-.19-.27c-.07-.03.03-.07.12-.12h.18z"/><path class="st0" d="M5.77 12.25l.01.01v-.01z"/></svg>