<svg id="Layer_2" xmlns="http://www.w3.org/2000/svg" viewBox="0 0 24 24"><style>.st0{fill:#666}</style><path class="st0" d="M21.68 1.99H2.56c-.22 0-.4.18-.4.4 0 .22.18.4.4.4H5.8v7.9h.3v3.59c-1.93.2-3.45 1.84-3.45 3.83 0 2.12 1.73 3.85 3.85 3.85s3.85-1.73 3.85-3.85a3.85 3.85 0 0 0-3.45-3.83v-3.59h.29v-7.9h9.88v7.9h.29v3.59c-1.93.2-3.45 1.84-3.45 3.83 0 2.12 1.73 3.85 3.85 3.85s3.85-1.73 3.85-3.85a3.85 3.85 0 0 0-3.45-3.83v-3.59h.29v-7.9h3.24c.22 0 .4-.18.4-.4a.417.417 0 0 0-.41-.4zM9.54 18.11c0 1.68-1.37 3.05-3.05 3.05-1.68 0-3.05-1.37-3.05-3.05a3.05 3.05 0 1 1 6.1 0zm11.26 0c0 1.68-1.37 3.05-3.05 3.05-1.68 0-3.05-1.37-3.05-3.05 0-1.68 1.37-3.05 3.05-3.05 1.68 0 3.05 1.37 3.05 3.05z"/></svg>