<svg id="Layer_2" xmlns="http://www.w3.org/2000/svg" viewBox="0 0 24 24"><style>.st0{fill:#666}</style><path class="st0" d="M3.32 5.3v2.24h2.17V5.3h1.32v5.84H5.49V8.69H3.32v2.44H1.99V5.3h1.33zM9.29 5.3v5.84H7.97V5.3h1.32zM12.56 12.39h1.33v4.73h2.32v1.11h-3.65v-5.84zM22.01 15.25c0 1.92-1.16 3.08-2.87 3.08-1.73 0-2.75-1.31-2.75-2.97 0-1.75 1.12-3.06 2.84-3.06 1.8-.01 2.78 1.33 2.78 2.95zm-4.22.07c0 1.14.54 1.95 1.42 1.95.89 0 1.4-.85 1.4-1.98 0-1.05-.5-1.95-1.41-1.95-.89 0-1.41.85-1.41 1.98z"/><g><path class="st0" d="M4.84 18.54L15.86 4.56l.96.57L5.8 19.11l-.96-.57z"/></g></svg>