<svg id="Layer_2" xmlns="http://www.w3.org/2000/svg" viewBox="0 0 24 24"><style>.st0{fill:#666}</style><path class="st0" d="M12.01 20.16c-1.15 0-2.09-.94-2.09-2.09s.94-2.09 2.09-2.09 2.09.94 2.09 2.09-.94 2.09-2.09 2.09zm0-3.49c-.77 0-1.4.63-1.4 1.4s.63 1.4 1.4 1.4c.77 0 1.4-.63 1.4-1.4s-.63-1.4-1.4-1.4zM7.84 4.65l.59-.36 1.84 2.97-.42.62z"/><path class="st0" d="M18.41 18.49c-1.44 0-2.49-.73-3.42-2.35l-2.87-4.62c-.02-.04-.06-.06-.1-.06s-.08.02-.1.06l-2.88 4.63c-.93 1.62-1.98 2.34-3.42 2.34-.1 0-.19 0-.29-.01-.79-.01-1.53-.35-2.15-.99-1.01-1.05-1.21-2.52-1.14-3.06.08-.69.59-1.28 1.24-1.43a1.523 1.523 0 0 1 1.39.38c.26.25.41.61.45 1.02.03.36.16.77.28.87.05.04.1.08.18.08.04 0 .07-.01.12-.02.16-.06.43-.2.85-.8L14.2 3.39l.57.39-5.04 7.31c-.02.03-.03.06-.02.09.01.03.03.06.05.08l.97.61c.02.01.04.02.06.02h.03c.03-.01.06-.03.07-.05l4.69-7.54.59.36-2.56 4.12c-.03.04-.02.09 0 .13l3.87 5.62c.47.67.75.77.85.8.04.02.08.02.12.02.08 0 .14-.04.18-.07.12-.11.25-.52.28-.88.03-.42.19-.77.45-1.02.28-.27.66-.42 1.06-.43.11 0 .22.01.33.04.65.16 1.16.75 1.24 1.43.06.55-.13 2.01-1.14 3.06-.62.64-1.36.99-2.15.99-.1.01-.2.02-.29.02zm-2.83-5.43c-.02 0-.04.01-.06.02l-1.07.67c-.06.03-.07.11-.04.16l1.17 1.87c.81 1.41 1.66 2.02 2.84 2.02.08 0 .17 0 .26-.01h.03c.6 0 1.16-.26 1.66-.78.84-.87 1-2.16.96-2.51-.05-.4-.35-.75-.72-.84-.06-.01-.12-.02-.18-.02-.22 0-.42.09-.57.23-.14.14-.22.33-.24.59-.01.1-.1 1-.53 1.36-.18.15-.39.23-.62.23-.12 0-.23-.02-.35-.06-.4-.14-.78-.48-1.18-1.06l-1.25-1.81a.138.138 0 0 0-.11-.06zm-11.98.58c-.06 0-.12.01-.18.02-.37.09-.67.44-.71.84-.04.35.12 1.63.96 2.51.5.52 1.06.78 1.66.78h.03c.08.01.17.01.25.01 1.18 0 2.02-.6 2.83-2.01l1.17-1.88c.03-.06.02-.13-.04-.16l-1.07-.67c-.02-.01-.04-.02-.06-.02-.04 0-.08.02-.1.05l-1.24 1.8c-.4.58-.78.92-1.18 1.06-.12.04-.23.06-.35.06-.22 0-.43-.08-.62-.23-.36-.29-.5-.99-.53-1.36-.03-.24-.11-.44-.25-.58a.764.764 0 0 0-.55-.23c0 .01-.02.01-.02.01zm5.7-1.83c-.04 0-.08.02-.1.05l-.33.48c-.02.03-.03.06-.02.09.01.03.03.06.05.08l1.03.64c.02.01.04.02.06.02h.03c.03-.01.06-.03.07-.05l.31-.5c.03-.06.02-.13-.04-.17l-1.01-.63c-.01-.01-.03-.01-.05-.01zm5.42 0c-.02 0-.04.01-.06.02l-1.01.63c-.06.04-.07.11-.04.17l.31.5c.02.03.04.05.07.05h.03c.02 0 .04-.01.06-.02l1.03-.64c.03-.02.05-.05.05-.08.01-.03 0-.07-.02-.09l-.33-.48c-.02-.04-.05-.06-.09-.06zm-1.54-2.23a.11.11 0 0 0-.1.06l-.62 1c-.02.04-.02.09 0 .13l.66 1.07c.02.03.04.05.07.05h.03c.02 0 .04-.01.06-.02l.97-.61c.03-.02.05-.05.05-.08.01-.03 0-.07-.02-.09l-1.01-1.47c-.01-.02-.05-.04-.09-.04z"/><path class="st0" d="M9.25 3.78l.56-.39 1.57 2.27-.42.61z"/></svg>