<svg id="Layer_2" xmlns="http://www.w3.org/2000/svg" viewBox="0 0 24 24"><style>.st0{fill:#666}</style><path class="st0" d="M15.68 21.81H8.41V20.6l.11-.13c.65-.78 1.21-1.61 1.66-2.48-.86.46-1.83.72-2.77.72-2.57 0-4.67-2.09-4.67-4.67 0-2.81 2.49-5.05 5.39-4.61-.51-.88-.8-1.85-.8-2.76C7.33 4.1 9.43 2 12 2s4.67 2.09 4.67 4.67c0 .95-.25 1.95-.7 2.82.21-.02.41-.04.62-.04 2.57 0 4.67 2.09 4.67 4.67 0 2.57-2.09 4.67-4.67 4.67-.88 0-1.8-.27-2.63-.73.45.85.99 1.65 1.62 2.41l.11.13v1.21zm-6.29-.93h5.32a14.28 14.28 0 0 1-2.36-4.17l-.3-.84-.31.87c-.54 1.49-1.33 2.88-2.35 4.14zm2.87-5.6l.87.95c.91.99 2.26 1.63 3.46 1.63 2.06 0 3.74-1.68 3.74-3.74 0-2.06-1.68-3.74-3.74-3.74-.48 0-.98.08-1.47.23l-1.45.45.94-1.19c.7-.89 1.13-2.09 1.13-3.21 0-2.06-1.68-3.74-3.74-3.74-2.06 0-3.74 1.68-3.74 3.74 0 1.1.54 2.34 1.42 3.26l1.55 1.62-2.06-.87c-.58-.25-1.19-.38-1.74-.38-2.06 0-3.74 1.68-3.74 3.74 0 2.06 1.68 3.74 3.74 3.74 1.26 0 2.66-.59 3.55-1.51l.9-.92.23-.24.15.18z"/></svg>