<svg id="Layer_2" xmlns="http://www.w3.org/2000/svg" viewBox="0 0 24 24"><style>.st0{fill:#666}</style><circle class="st0" cx="7.92" cy="9.48" r=".53"/><path class="st0" d="M21.94 6.57h-.22c-.84 0-1.58.16-2.08.31A2.988 2.988 0 0 0 16.7 3.4c-1.32 0-2.49.88-2.86 2.14-.05.19-.09.38-.11.57L12.35 7l-.9.6 2.53-.01.17.46-.31 1.62.8-.18.53 1.32 1.55-.73.6.26-.88 1.52-3.19-1.5-9.96 4.36-.51-.28.24-.82 5.63-6.33c.12-.1.16-.26.09-.4-.11-.23-.17-.48-.17-.73 0-.5.22-.96.59-1.28.38.32.59.78.59 1.28 0 .23-.05.46-.14.67-.06.14-.02.3.1.4l.82.65.81-.22-1.03-.8a2.352 2.352 0 0 0-.24-1.9c-.17-.33-.42-.58-.73-.78a.345.345 0 0 0-.36 0C8.3 4.61 7.9 5.35 7.9 6.16c0 .27.04.53.13.78L2.4 13.38l-.41 1.42 2.48 1.38 5.96-2.57c.25.51 2.48 6.54 2.48 6.54.05.1.14.17.24.19.02 0 .04.01.06.01.09 0 .17-.04.24-.1l4.85-4.96c.13-.13.13-.33 0-.47l-1.28-1.04-.44.49 1.05.85-4.32 4.32s-2.17-5.9-2.41-6.38a.337.337 0 0 0-.3-.18c-.03 0-.06 0-.1.02l-5.96 2.5-.54-.3 9.22-4.05 3.47 1.63 1.55-2.65-1.53-.66-1.2.56-.48-1.19-.37.08.15-.82-.39-1.05h-.81l.75-.49.01-.17c.01-.2.04-.39.09-.58.18-.6.57-1.09 1.12-1.39.34-.19.73-.29 1.12-.29.22 0 .44.03.66.1.6.18 1.09.57 1.39 1.12.29.53.36 1.15.2 1.74-.09.1-.44.4-.78.66l-.04.05.37.52.82-.55c.19-.07 1.19-.45 2.39-.45h.27l.02-.64-.06-.01z"/></svg>