<svg id="Layer_2" xmlns="http://www.w3.org/2000/svg" viewBox="0 0 24 24"><style>.st0{fill:#666}</style><path class="st0" d="M16.05 21.95c-3.15 0-5.71-2.56-5.71-5.71s2.56-5.71 5.71-5.71 5.71 2.56 5.71 5.71-2.56 5.71-5.71 5.71zm0-10.49a4.78 4.78 0 1 0 0 9.56 4.78 4.78 0 0 0 0-9.56z"/><path class="st0" d="M16.05 20.04a.47.47 0 1 1 0-.94c1.58 0 2.87-1.29 2.87-2.87a.47.47 0 1 1 .94 0c0 2.1-1.71 3.81-3.81 3.81zM7.95 20.04a.47.47 0 1 1 0-.94c.59 0 1.16-.18 1.64-.51.21-.15.5-.1.65.12.15.21.1.5-.12.65-.64.44-1.39.68-2.17.68z"/><path class="st0" d="M8 22.06c-3.18 0-5.77-2.59-5.77-5.77S4.82 10.53 8 10.53c1.31 0 2.55.43 3.57 1.24a.463.463 0 1 1-.57.73c-.86-.68-1.9-1.04-2.99-1.04-2.67 0-4.83 2.17-4.83 4.83a4.833 4.833 0 0 0 7.74 3.86c.21-.15.5-.11.65.09.15.21.11.5-.09.65A5.723 5.723 0 0 1 8 22.06zM15.81 14.18a.47.47 0 0 1-.47-.47c0-.29-.11-.72-.24-1.22-.25-.98-.6-2.33-.4-3.86.14-1.09.54-2.14 1.19-3.14.14-.22.43-.28.64-.14.23.15.29.43.15.65-.58.89-.92 1.79-1.05 2.75-.18 1.36.13 2.55.38 3.51.14.56.27 1.04.27 1.45a.47.47 0 0 1-.47.47z"/><path class="st0" d="M8.2 13.84c-.06 0-.12-.01-.18-.03a.463.463 0 0 1-.25-.61c1.79-4.36 4.68-7.02 6.75-7.73 1.91-.65 3.84-.66 5.26-.66h.09a.47.47 0 1 1 0 .94h-.05c-1.35 0-3.22 0-5 .61-2.21.76-4.76 3.72-6.19 7.21a.49.49 0 0 1-.43.27z"/><path class="st0" d="M9.38 9.18c-.03 0-.06 0-.1-.01-2.9-.61-5.07-2.92-5.16-3.02l-.28-.3.26-.31c.12-.14 2.88-3.48 6.52-3.59 2.12-.08 4.01.98 5.24 1.87.21.15.25.44.1.65-.15.21-.44.25-.65.1-1.1-.81-2.81-1.76-4.66-1.69-2.6.08-4.79 2.13-5.55 2.93.67.62 2.35 2.02 4.37 2.45.25.05.41.3.36.55a.46.46 0 0 1-.45.37z"/></svg>