<svg id="Layer_2" xmlns="http://www.w3.org/2000/svg" viewBox="0 0 24 24"><style>.st0{fill:#666}</style><path class="st0" d="M14.24 11.79c.12 0 .23-.05.31-.13l.28-.28c.25-.25.57-.43.93-.51.54-.13 1.13-.41 1.71-.81.54-.38 1.16-.63 1.84-.74.72-.12 1.36-.44 1.86-.93 1.47-1.47.72-3.26-.46-4.45-.24-.24-.5-.45-.75-.63l-.01-.01h-.01c-.6-.41-1.24-.63-1.84-.63-.68 0-1.3.27-1.83.8-.5.5-.83 1.16-.94 1.9-.1.65-.32 1.22-.67 1.7-.44.61-.74 1.23-.88 1.8-.08.36-.26.68-.51.93l-.28.28c-.09.09-.14.22-.13.34l-.86.88-.86-.86a.41.41 0 0 0-.13-.34l-.28-.28c-.25-.25-.43-.57-.51-.93-.13-.57-.44-1.19-.88-1.8a3.81 3.81 0 0 1-.66-1.71c-.11-.74-.43-1.4-.94-1.9-.53-.53-1.15-.8-1.83-.8-.61 0-1.24.22-1.84.63h-.01l-.01.01c-.26.17-.52.38-.76.62-1.18 1.19-1.93 2.98-.46 4.45.49.49 1.13.81 1.85.93.68.11 1.3.36 1.84.74.58.4 1.17.69 1.71.81.36.08.68.26.93.51l.28.28c.08.08.2.13.31.13h.03l.86.86-4.59 4.58c-.08.02-.16.05-.23.11l-.96.77a.66.66 0 0 0-.18.81c.11.22.26.42.44.6s.38.33.6.44c.09.04.19.07.29.07.2 0 .39-.09.52-.25l.77-.96c.06-.07.09-.15.11-.23L12 14l4.58 4.58c.02.08.05.16.11.23l.77.96a.668.668 0 0 0 .82.18c.22-.11.42-.26.6-.44s.33-.38.44-.6c.13-.28.06-.61-.18-.81l-.96-.77a.696.696 0 0 0-.23-.11l-4.59-4.59.86-.86c0 .02.01.02.02.02zm1.56-2.46c-.09-.07-.17-.15-.25-.23-.08-.08-.16-.16-.23-.25-.02-.02-.03-.04-.05-.06.92-.78 1.97-1.8 2.1-1.92.08-.07.15-.15.23-.23a2.198 2.198 0 0 1 .43.43l-.23.23c-.2.2-1.17 1.2-1.92 2.1-.03-.04-.06-.05-.08-.07zm-.7-1.92c.16-.22.29-.45.4-.69.04-.03.08-.05.13-.08.34-.19.65-.3.95-.32.17-.01.33.01.49.05l-.09.09c-.12.12-1.14 1.11-2.04 1.88-.01-.01-.02-.02-.02-.03-.07-.1-.13-.21-.18-.32.1-.19.22-.39.36-.58zm4.29-3.79c-.21.3-.43.58-.65.86-.2-.17-.41-.33-.62-.48.17-.36.26-.61.31-.74.31.05.64.17.96.36zm-1.74.07c-.14-.09-.28-.17-.43-.25.2-.1.4-.17.62-.2-.04.12-.1.27-.19.45zm.75 1.22c-.02.02-.03.04-.05.06-.29.35-.57.67-.85.97-.14-.06-.29-.11-.44-.14.3-.45.57-.89.79-1.31.19.13.37.27.55.42zm.7.64c.09.09.19.19.28.29-.02.01-.03.03-.05.04-.33.26-.63.53-.91.79-.06-.08-.13-.16-.21-.23-.08-.08-.15-.14-.23-.21.26-.28.52-.58.79-.91.01-.02.03-.03.04-.05.1.09.2.18.29.28zm2.3.67c-.13.04-.38.13-.75.31-.15-.21-.31-.42-.48-.63.28-.22.57-.44.86-.65.17.3.31.62.37.97zm-.19 1.21c-.08-.14-.16-.29-.25-.43.19-.09.34-.15.45-.19-.03.2-.09.41-.2.62zm-1.05-.64c-.42.23-.86.5-1.31.8-.03-.15-.07-.29-.13-.44.29-.28.62-.56.97-.85.02-.02.04-.03.06-.05.14.18.28.36.41.54zm-3 2.82c-.16.12-.33.22-.49.31-.11-.06-.22-.12-.32-.18-.01-.01-.02-.02-.03-.02.58-.68 1.35-1.51 1.88-2.05l.09-.09c.04.16.06.32.05.49-.02.3-.13.61-.31.94-.03.06-.07.11-.1.17-.28.12-.53.26-.77.43zm2.07-.83c-.19.03-.37.07-.55.12.09-.22.15-.44.18-.65.56-.38 1.09-.71 1.61-.99.14.22.27.45.38.67-.02.02-.04.05-.07.07-.41.41-.95.68-1.55.78zm1.5-3.98c-.32.23-.62.46-.92.69-.1-.11-.21-.22-.32-.33-.11-.11-.22-.21-.33-.32.23-.29.46-.6.69-.92.16.12.32.26.47.41.1.11.25.27.41.47zm-4.08-.93c.02-.02.05-.04.07-.07.23.11.45.24.68.38-.27.51-.61 1.04-.99 1.6-.21.03-.42.09-.64.18.04-.16.08-.33.1-.5.09-.62.36-1.17.78-1.59zm-2.99 6.34c.32-.32.55-.74.66-1.2.03-.13.07-.27.13-.41v.01c.07.11.14.21.22.32v.01l.01.01c.07.09.14.18.22.27.08.1.17.2.26.29a6.641 6.641 0 0 0 .56.49h.01c.1.08.21.15.31.22h.01c-.14.05-.28.1-.41.13-.46.11-.88.33-1.2.66l-.22.22c-.1-.05-.25-.16-.44-.34-.19-.19-.29-.34-.34-.44l.22-.24zm-5.47-.88c-.02.02-.04.04-.06.05-.59-.7-1.38-1.55-1.92-2.1-.08-.07-.15-.15-.23-.22.06-.08.12-.16.2-.23.07-.07.15-.14.23-.2l.23.23c.12.12 1.17 1.14 2.09 1.92-.02.03-.04.05-.06.07-.07.09-.14.17-.22.25-.08.08-.16.16-.26.23zM3.84 6.79c.13-.18.27-.36.42-.54.02.02.04.04.06.05.35.29.67.57.97.85-.06.14-.1.29-.13.44-.46-.3-.89-.57-1.32-.8zm-1.25.02c.11.04.26.1.45.19-.09.14-.17.29-.25.43-.11-.21-.17-.42-.2-.62zm.01-.59c.06-.35.2-.68.36-.97.3.22.59.43.86.65-.16.21-.32.42-.47.63-.37-.17-.62-.26-.75-.31zm2.07-.34c-.02-.02-.03-.03-.05-.04.09-.1.18-.2.28-.29.09-.09.19-.19.29-.28.01.02.02.03.04.05.27.33.53.63.79.91-.08.06-.16.13-.23.21-.08.07-.15.15-.21.23-.28-.26-.58-.53-.91-.79zm.91-2.62c.04.13.13.38.3.74-.21.15-.42.31-.62.48-.22-.28-.44-.57-.65-.86.32-.19.65-.31.97-.36zm.77.43c-.09-.18-.15-.33-.19-.44.22.03.42.1.62.2-.15.07-.29.15-.43.24zm-.21.8c.23.42.49.86.79 1.31-.15.03-.29.07-.43.14a17.305 17.305 0 0 1-.9-1.03c.18-.15.36-.29.54-.42zm2.95 3.82l-.03.03c-.9-.77-1.92-1.76-2.05-1.88l-.09-.09c.16-.04.32-.06.5-.05.29.02.61.13.95.32.04.02.08.05.13.08.11.25.25.48.4.69.14.19.26.39.37.58-.06.11-.12.21-.18.32zm-.96-2.85c.03.17.06.34.1.5-.22-.09-.43-.15-.64-.17-.39-.56-.72-1.1-.99-1.6.22-.15.45-.27.68-.39.02.03.05.05.07.07.42.42.69.97.78 1.59zM3.68 4.33c.15-.15.31-.29.47-.41.23.32.46.62.69.92-.11.1-.22.21-.33.32-.11.11-.22.22-.32.33-.29-.23-.6-.46-.92-.69.16-.2.31-.36.41-.47zM3.22 8c-.03-.02-.05-.05-.07-.07.12-.23.24-.45.38-.68.51.28 1.05.61 1.61.99.03.22.09.43.18.66-.18-.05-.36-.09-.55-.12-.6-.1-1.14-.37-1.55-.78zm2.87 1.18c-.04-.05-.07-.11-.1-.16-.19-.34-.3-.66-.32-.95-.01-.17.01-.34.05-.49l.09.09c.52.54 1.3 1.36 1.88 2.05-.01 0-.02.01-.03.02-.1.06-.21.12-.32.18-.17-.09-.33-.19-.5-.31-.24-.17-.49-.31-.75-.43zm2.27 1.16c-.13-.03-.27-.08-.41-.13h.01c.1-.07.21-.14.31-.22h.01v-.01c.09-.07.19-.14.27-.22.1-.08.2-.17.29-.27a6.641 6.641 0 0 0 .49-.56l.01-.01v-.01c.08-.1.15-.21.22-.32v-.01c.05.14.1.28.13.41.11.46.33.88.66 1.2l.22.22c-.05.1-.16.26-.34.44-.19.19-.34.29-.44.34l-.22-.22c-.34-.3-.75-.53-1.21-.63zm-1.4 7.92s0 .01 0 0c-.02.03-.04.05-.05.08 0 .01-.01.01-.01.02-.02.04-.03.08-.02.12l-.77.96c-.03.04-.09.06-.13.03-.17-.08-.32-.2-.46-.34s-.25-.29-.33-.45c-.02-.05-.01-.1.03-.14l.96-.77h.02c.07 0 .13-.03.18-.08l4.65-4.65.57.57-4.64 4.65zm11.82.28c.04.03.05.09.03.13-.08.17-.2.32-.34.46s-.29.25-.45.33c-.05.02-.1.01-.14-.03l-.77-.96v-.01c0-.02-.01-.04-.01-.07 0-.01 0-.03-.01-.04a.076.076 0 0 1-.02-.04c-.01-.02-.02-.04-.03-.05v-.01l-4.84-4.84v-.01h-.01l-.95-.95v-.01h-.01l-.92-.92c.09-.07.19-.16.3-.27.11-.11.2-.21.27-.3l6.74 6.74s.01 0 .01.01c.01.01.02.01.03.02.02.01.04.03.06.04.02.01.05.01.08.02h.03l.95.76zm-6.39-6.85l.73-.73c.07.09.16.2.27.3.11.11.21.2.3.27l-.73.73-.57-.57z"/><path class="st0" d="M12 17.45c-1.07 0-1.94.87-1.94 1.94 0 1.07.87 1.94 1.94 1.94 1.07 0 1.94-.87 1.94-1.94 0-1.07-.87-1.94-1.94-1.94zm0 3.32c-.76 0-1.39-.62-1.39-1.39 0-.76.62-1.39 1.39-1.39.76 0 1.39.62 1.39 1.39 0 .77-.63 1.39-1.39 1.39z"/></svg>