<svg id="Layer_2" xmlns="http://www.w3.org/2000/svg" viewBox="0 0 24 24"><style>.st0{fill:#666}</style><path class="st0" d="M8.61 8.67a4.641 4.641 0 0 0 0 6.36l.53-.53a3.894 3.894 0 0 1 0-5.3l-.53-.53zM9.98 10.03c-.45.5-.69 1.13-.69 1.81s.24 1.31.69 1.81l.57-.57c-.29-.34-.46-.78-.46-1.23 0-.46.16-.89.46-1.23l-.57-.59z"/><circle class="st0" cx="12.02" cy="11.84" r=".74"/><path class="st0" d="M13.48 10.61c.29.34.46.78.46 1.23s-.16.89-.46 1.23l.57.57c.45-.5.69-1.13.69-1.81s-.24-1.31-.69-1.81l-.57.59zM15.42 8.67l-.53.53a3.894 3.894 0 0 1 0 5.3l.53.53c.81-.86 1.26-1.99 1.26-3.18 0-1.2-.44-2.32-1.26-3.18z"/><path class="st0" d="M11.96 2.02C6.45 2.02 1.98 6.5 1.98 12c0 5.51 4.48 9.98 9.98 9.98s9.98-4.48 9.98-9.98c0-5.51-4.48-9.98-9.98-9.98zm0 15.8c-3.21 0-5.82-2.61-5.82-5.82 0-3.21 2.61-5.82 5.82-5.82 3.21 0 5.82 2.61 5.82 5.82 0 3.21-2.61 5.82-5.82 5.82zm4.4-10.81a6.605 6.605 0 0 0-3.98-1.65v-2.5c2.21.1 4.22.99 5.75 2.39l-1.77 1.76zm-4.82-1.65c-1.52.09-2.91.7-3.98 1.65L5.79 5.24a9.116 9.116 0 0 1 5.75-2.39v2.51zM6.97 7.6a6.605 6.605 0 0 0-1.65 3.98h-2.5c.09-2.21.98-4.22 2.38-5.75L6.97 7.6zm-1.66 4.82c.09 1.52.7 2.91 1.65 3.98L5.2 18.17a9.116 9.116 0 0 1-2.39-5.75h2.5zm2.25 4.57c1.08.95 2.46 1.56 3.98 1.65v2.5c-2.21-.1-4.22-.99-5.75-2.39l1.77-1.76zm4.81 1.65a6.58 6.58 0 0 0 3.98-1.65l1.77 1.77a9.116 9.116 0 0 1-5.75 2.39v-2.51zm4.57-2.24a6.605 6.605 0 0 0 1.65-3.98h2.5c-.1 2.21-.99 4.22-2.39 5.75l-1.76-1.77zm1.66-4.82a6.58 6.58 0 0 0-1.65-3.98l1.77-1.77a9.116 9.116 0 0 1 2.39 5.75H18.6z"/></svg>