<svg id="Layer_2" xmlns="http://www.w3.org/2000/svg" viewBox="0 0 24 24"><style>.st0{fill:#666}</style><path class="st0" d="M16.83 10.99c-.2 0-.39.01-.58.03.71-.89 1.13-2.01 1.13-3.24 0-2.89-2.35-5.23-5.23-5.23S6.91 4.9 6.91 7.78c0 1.15.38 2.21 1 3.07a5.234 5.234 0 0 0-5.81 5.2 5.24 5.24 0 0 0 5.23 5.23c2.07 0 3.86-1.21 4.71-2.97a5.237 5.237 0 0 0 4.79 3.13c2.89 0 5.23-2.35 5.23-5.23.01-2.88-2.34-5.22-5.23-5.22zm-5.23 5.27a4.283 4.283 0 0 1-4.27 4.07c-2.36 0-4.28-1.92-4.28-4.28 0-2.36 1.92-4.28 4.28-4.28 2.34 0 4.25 1.89 4.28 4.23 0 .07-.01.14-.01.21v.05zm.55-4.2c-2.36 0-4.28-1.92-4.28-4.28 0-2.36 1.92-4.28 4.28-4.28s4.28 1.92 4.28 4.28c0 2.36-1.92 4.28-4.28 4.28zm-.03 1.89a4.9 4.9 0 0 0-.56-.97 5.633 5.633 0 0 0 1.16 0c-.23.3-.43.62-.6.97zm.45 2.05a4.274 4.274 0 0 1 4.27-4.06c2.36 0 4.28 1.92 4.28 4.28 0 2.36-1.92 4.28-4.28 4.28-2.34 0-4.25-1.89-4.28-4.23 0-.07.01-.14.01-.22V16z"/><path class="st0" d="M9.85 6.39l.14.63.68-.33h.01v2.83h.81V5.95h-.69zM13.42 5.89c-.92 0-1.36.82-1.36 1.85.01 1.01.41 1.84 1.33 1.84.91 0 1.36-.76 1.36-1.86 0-.98-.37-1.83-1.33-1.83zm0 3.06c-.32 0-.52-.39-.52-1.21-.01-.83.2-1.22.51-1.22.34 0 .51.42.51 1.21 0 .81-.18 1.22-.5 1.22zM8.15 15.7c-.25-.18-.6-.26-.94-.26-.09 0-.15 0-.23.01l.08-.55h1.38v-.69H6.47l-.24 1.87c.15-.02.29-.03.48-.03.71 0 1.01.23 1.01.59 0 .38-.37.54-.71.54-.32 0-.65-.1-.81-.18l-.15.63c.2.1.56.2.99.2.96 0 1.53-.59 1.53-1.25.01-.4-.15-.7-.42-.88zM15.15 15.25h.01v2.82h.81V14.5h-.69l-.95.44.14.63zM19.12 16.88c0-.42-.16-.71-.43-.9-.25-.18-.6-.26-.94-.26-.09 0-.15 0-.23.01l.08-.55h1.38v-.68h-1.97l-.24 1.87c.15-.02.29-.03.48-.03.71 0 1.01.23 1.01.59 0 .38-.37.54-.71.54-.32 0-.65-.1-.81-.18l-.15.63c.2.1.56.2.99.2.97.01 1.54-.57 1.54-1.24z"/></svg>