<svg id="Layer_2" xmlns="http://www.w3.org/2000/svg" viewBox="0 0 24 24"><style>.st0{fill:#666}</style><path class="st0" d="M7.95 8.49c0-.9-.74-1.64-1.64-1.64-.9 0-1.64.74-1.64 1.64 0 .9.74 1.64 1.64 1.64.9 0 1.64-.73 1.64-1.64zm-2.58 0a.939.939 0 1 1 1.88 0 .939.939 0 1 1-1.88 0z"/><circle class="st0" cx="7.1" cy="17.93" r=".62"/><path class="st0" d="M21.76 12.62a.35.35 0 0 0-.22-.08c-.02 0-.05 0-.07.01l-3.34.7v-.76c1.58-.7 2.6-2.27 2.6-3.99 0-2.41-1.96-4.37-4.37-4.37s-4.37 1.96-4.37 4.37c0 .82.23 1.63.67 2.32h-2.65c.44-.7.67-1.5.67-2.32 0-2.41-1.96-4.37-4.37-4.37S1.94 6.08 1.94 8.49c0 1.91 1.22 3.57 3.03 4.16v5.92c0 .82.67 1.49 1.49 1.49h10.18c.82 0 1.49-.67 1.49-1.49v-.94l3.34.7c.02.01.05.01.07.01.08 0 .16-.03.22-.08.08-.07.13-.17.13-.27v-5.1c0-.11-.05-.21-.13-.27zM2.64 8.49c0-2.02 1.64-3.67 3.67-3.67s3.66 1.64 3.66 3.67c0 2.02-1.64 3.66-3.66 3.66s-3.67-1.64-3.67-3.66zm14.78 10.08c0 .43-.35.79-.79.79H6.46c-.43 0-.79-.35-.79-.79v-5.76a4.365 4.365 0 0 0 3.79-1.29h3.75c.83.87 1.95 1.34 3.15 1.34.36 0 .72-.04 1.07-.13v5.84zm-1.07-6.41a3.67 3.67 0 0 1-3.67-3.66 3.664 3.664 0 1 1 7.33 0c.01 2.01-1.64 3.66-3.66 3.66zm4.83 5.39l-3.06-.64v-2.94l3.06-.64v4.22z"/><path class="st0" d="M16.35 6.85c-.9 0-1.64.74-1.64 1.64 0 .9.74 1.64 1.64 1.64.9 0 1.64-.74 1.64-1.64 0-.9-.73-1.64-1.64-1.64zm0 2.58a.939.939 0 1 1 0-1.88.939.939 0 1 1 0 1.88zM12.48 17.5H10.7c-.15 0-.28.13-.28.28v.31c0 .15.13.28.28.28h1.78c.15 0 .28-.13.28-.28v-.31c0-.16-.12-.28-.28-.28z"/><circle class="st0" cx="9.07" cy="17.93" r=".62"/></svg>