<svg id="Layer_2" xmlns="http://www.w3.org/2000/svg" viewBox="0 0 24 24"><style>.st0{fill:#666}</style><path class="st0" d="M19.98 8.37h-.87c-.73 0-1.41-.4-1.77-1.05-.17-.31-.26-.64-.26-.98v-.86c0-1.12.91-2.03 2.03-2.03h.87c1.12 0 2.03.91 2.03 2.03v.87c0 1.11-.91 2.02-2.03 2.02zm-.87-4.06c-.64 0-1.17.52-1.17 1.17v.87c0 .19.05.38.15.56.21.38.6.61 1.01.61h.87c.64 0 1.17-.52 1.17-1.17v-.87c0-.64-.52-1.17-1.17-1.17h-.86zM19.98 14.32h-.87c-.73 0-1.41-.4-1.77-1.05l.76-.42c.21.37.6.61 1.01.61h.87c.64 0 1.17-.52 1.17-1.17v-.87c0-.64-.52-1.17-1.17-1.17h-.87c-.4 0-.77.21-.99.56l-.74-.45a2.03 2.03 0 0 1 1.73-.98h.87c1.12 0 2.03.91 2.03 2.03v.87c0 1.13-.91 2.04-2.03 2.04z"/><path class="st0" d="M17.34 13.27c-.17-.31-.26-.64-.26-.98v-.87c0-.37.1-.73.3-1.06l.74.45c-.12.19-.18.39-.18.6v.87c0 .19.05.38.15.56l-.75.43zM19.98 20.27h-.87c-1.12 0-2.03-.91-2.03-2.03v-.87c0-.34.09-.67.26-.98.36-.65 1.04-1.05 1.77-1.05h.87c1.12 0 2.03.91 2.03 2.03v.87c0 1.12-.91 2.03-2.03 2.03zm-.87-4.06c-.42 0-.81.23-1.01.61-.1.18-.15.37-.15.56v.87c0 .64.52 1.17 1.17 1.17h.87c.64 0 1.17-.52 1.17-1.17v-.87c0-.64-.52-1.17-1.17-1.17h-.88zM4.89 8.37h-.87c-1.12 0-2.03-.91-2.03-2.03v-.86c0-1.12.91-2.03 2.03-2.03h.87c1.12 0 2.03.91 2.03 2.03v.87c0 .33-.09.66-.25.97-.36.64-1.05 1.05-1.78 1.05zm-.87-4.06c-.64 0-1.17.52-1.17 1.17v.87c0 .64.52 1.17 1.17 1.17h.87c.42 0 .81-.24 1.02-.62.09-.19.14-.37.14-.56v-.86c0-.64-.52-1.17-1.17-1.17h-.86zM6.66 13.27l-.76-.42c.1-.18.15-.37.15-.56v-.87c0-.19-.05-.38-.15-.56l.76-.42c.17.31.26.64.26.98v.87c0 .34-.09.67-.26.98z"/><path class="st0" d="M4.89 14.32h-.87c-1.12 0-2.03-.91-2.03-2.03v-.87c0-1.12.91-2.03 2.03-2.03h.87c.73 0 1.41.4 1.77 1.05l-.76.43c-.21-.38-.6-.61-1.01-.61h-.87c-.64 0-1.17.52-1.17 1.17v.87c0 .64.52 1.17 1.17 1.17h.87c.42 0 .81-.23 1.01-.61l.76.42c-.36.64-1.04 1.04-1.77 1.04zM4.89 20.27h-.87c-1.12 0-2.03-.91-2.03-2.03v-.87c0-1.12.91-2.03 2.03-2.03h.87c.73 0 1.41.4 1.77 1.05.17.31.26.64.26.98v.87c0 1.12-.91 2.03-2.03 2.03zm-.87-4.06c-.64 0-1.17.52-1.17 1.17v.87c0 .64.52 1.17 1.17 1.17h.87c.64 0 1.17-.52 1.17-1.17v-.87c-.01-.2-.06-.38-.16-.57-.21-.37-.6-.61-1.01-.61h-.87z"/><path transform="rotate(-41.615 14.572 15.213)" class="st0" d="M14.14 10.83H15v8.77h-.86z"/><path transform="rotate(-48.381 9.38 15.212)" class="st0" d="M4.99 14.78h8.77v.86H4.99z"/><path transform="rotate(-48.381 14.57 9.078)" class="st0" d="M10.19 8.65h8.77v.86h-8.77z"/><path transform="rotate(-41.615 9.381 9.079)" class="st0" d="M8.95 4.69h.86v8.77h-.86z"/><path transform="matrix(.00388 -1 1 .00388 -.35 23.712)" class="st0" d="M11.29 6.48h.86v11.1h-.86z"/></svg>