<svg id="Layer_2" xmlns="http://www.w3.org/2000/svg" viewBox="0 0 24 24"><style>.st0{fill:#666}</style><path class="st0" d="M11.1 3.83c-5.01 0-9.09 4.07-9.09 9.09S6.09 22 11.1 22s9.09-4.07 9.09-9.09-4.07-9.08-9.09-9.08zm0 .67c.55 0 1.1.05 1.62.16-3.47.93-6.11 3-8.28 5.35-.31-.21-.63-.45-.94-.71a8.413 8.413 0 0 1 7.6-4.8zm2.98.54c.8.3 1.54.72 2.2 1.24-3 .81-5.93 2.7-8.46 5.27-.95-.31-1.88-.66-2.79-1.19 2.34-2.51 5.19-4.63 9.05-5.32zm2.82 1.78c.48.45.9.96 1.26 1.52-2.92.86-5.25 2.31-7.15 4.19-.83-.28-1.65-.51-2.46-.75C11.08 9.27 14 7.49 16.9 6.82zm1.62 2.11c.64 1.18 1 2.54 1 3.98 0 2.08-.75 3.98-2 5.45.85-3.31.06-5.99-.54-8.92.49-.19 1-.36 1.54-.51zm-2.17.77c.67 3.26 1.49 5.99.15 9.67-.69.58-1.47 1.05-2.32 1.38.82-2.97.81-6.33-.15-9.8.72-.47 1.49-.89 2.32-1.25zm-13.12.25c2.47 2 5.08 2.39 7.55 3.21.04.89.08 1.77.08 2.64-3.47-.91-6.01-2.12-8.05-4.32.09-.53.23-1.04.42-1.53zm10.21 1.4c.91 3.46.85 6.78-.04 9.66-.73.21-1.5.32-2.29.32-.16 0-.31 0-.46-.01 1.07-2.66.95-5.49.81-8.27.6-.62 1.26-1.19 1.98-1.7zm-10.73.99c2.11 2.09 4.74 3.28 8.14 4.15-.03.94-.11 1.86-.29 2.76-2.26-.45-5.09-1.21-7.59-4.2-.18-.68-.27-1.4-.27-2.14-.01-.19 0-.38.01-.57zm.86 4.33c2.33 2.16 4.85 2.83 6.83 3.23-.12.45-.27.9-.46 1.34a8.405 8.405 0 0 1-6.37-4.57zm0 0M20.1 2.08c-1.04 0-1.89.85-1.89 1.89 0 .92.67 1.69 1.54 1.85v.57h-.49c-.17 0-.32.14-.32.32s.14.32.32.32h.49v.36c0 .17.14.32.32.32s.32-.14.32-.32v-.37h.52c.18 0 .32-.14.32-.32s-.14-.32-.32-.32h-.52v-.55c.91-.14 1.6-.92 1.6-1.87a1.893 1.893 0 0 0-1.89-1.88zm0 3.14c-.69 0-1.26-.56-1.26-1.25s.56-1.26 1.26-1.26c.69 0 1.25.56 1.25 1.26 0 .69-.56 1.25-1.25 1.25zm0 0"/></svg>