<svg id="Layer_2" xmlns="http://www.w3.org/2000/svg" viewBox="0 0 24 24"><style>.st0{fill:#666}</style><path class="st0" d="M17.66 21.5a.89.89 0 0 1-.39-.09l-5.25-2.64-5.25 2.62c-.3.15-.65.12-.92-.09a.864.864 0 0 1-.33-.86L6.6 14.9l-4.31-4.28a.877.877 0 0 1-.21-.91c.12-.32.4-.54.74-.57l5.85-.52 2.56-5.6a.868.868 0 0 1 1.58 0l2.56 5.6 5.85.52c.34.03.63.25.74.57.12.32.04.67-.21.92l-4.31 4.28 1.08 5.56c.06.33-.06.66-.33.86-.16.11-.35.17-.53.17zm-5.64-3.58c.06 0 .12.01.18.04l5.43 2.73c.01 0 .04.02.07-.01.03-.03.03-.06.03-.07l-1.12-5.77c-.03-.13.02-.27.11-.36l4.47-4.43c.01-.01.03-.03.02-.07-.02-.04-.05-.04-.06-.05l-6.08-.54a.401.401 0 0 1-.33-.23l-2.65-5.82c0-.01-.02-.04-.06-.04-.04 0-.06.03-.06.04L9.3 9.16c-.06.13-.18.22-.33.23l-6.08.54c-.01 0-.04 0-.06.05-.01.04.01.06.02.07l4.47 4.43c.1.09.14.23.11.36l-1.12 5.75c0 .01-.01.04.03.07.03.03.06.01.07.01l5.43-2.71c.05-.02.11-.04.18-.04z"/><path class="st0" d="M10.6 9.94c-.05 0-.11-.01-.16-.03-.2-.09-.3-.32-.21-.53l1.41-3.3a.404.404 0 0 1 .74.32l-1.41 3.3c-.06.15-.21.24-.37.24z"/><g><path class="st0" d="M8.19 14.68v-2.53h.67l.52.93c.15.27.3.58.41.87h.01c-.04-.33-.05-.67-.05-1.05v-.74h.52v2.53h-.6l-.54-.98c-.15-.27-.32-.6-.44-.89h-.01c.01.33.02.69.02 1.1v.76h-.51zM12.28 13.61h-.93v.6h1.04v.47h-1.61v-2.53h1.56v.47h-.99v.52h.93v.47zM13.21 14.68l-.6-2.53h.61l.19 1.04c.06.3.11.63.15.88h.01c.04-.27.1-.58.17-.89l.21-1.03h.61l.2 1.06c.06.3.1.57.14.85h.01c.04-.28.09-.58.15-.88l.21-1.03h.58l-.65 2.53h-.62l-.21-1.09c-.05-.25-.09-.49-.12-.78h-.01c-.04.28-.09.52-.15.78l-.24 1.09h-.64z"/></g></svg>