<svg id="Layer_2" xmlns="http://www.w3.org/2000/svg" viewBox="0 0 24 24"><style>.st0{fill:#666}</style><path class="st0" d="M12.1 13.63c-.27 0-.44-.17-.44-.44 0-1.08.5-2.08 1.37-2.73.5-.37.67-.89.53-1.58-.12-.49-.5-1.05-1.19-1.19-.13-.03-.26-.05-.39-.05-.31 0-.59.1-.92.31-.51.34-.54 1-.54 1.2 0 .27-.17.44-.44.44s-.44-.17-.44-.44c0-.76.32-1.44.89-1.9.43-.34.95-.54 1.45-.54.19 0 .37.03.54.09.98.25 1.71.98 1.92 1.91.22.89-.11 1.78-.9 2.46-.7.56-1.12 1.32-1.12 2.02v.03l.01.02c.03.08.04.18-.02.27-.05.07-.17.12-.31.12zM12.1 17.2c-.07 0-.27-.09-.37-.19-.07-.07-.07-.13-.07-.25 0-.08 0-.29.07-.37.09-.09.19-.13.31-.13.11 0 .22.05.31.13.11.11.19.19.19.37 0 .06-.07.18-.1.21h-.16l.02.15c-.01.01-.14.08-.2.08z"/><path class="st0" d="M12.1 21.95c-5.49 0-9.95-4.47-9.95-9.95s4.47-9.95 9.95-9.95 9.95 4.47 9.95 9.95-4.46 9.95-9.95 9.95zm0-19.03C7.1 2.92 3.03 7 3.03 12s4.07 9.08 9.08 9.08S21.18 17 21.18 12s-4.07-9.08-9.08-9.08z"/></svg>