<svg id="Layer_2" xmlns="http://www.w3.org/2000/svg" viewBox="0 0 24 24"><style>.st0{fill:#666}</style><path class="st0" d="M20.73 5.48l-2.76-3.34a.35.35 0 0 0-.34-.14H5.91a.382.382 0 0 0-.35.13L2.8 5.48c-.1.13-.12.3-.04.44l4.55 7.89c-.54.83-.86 1.82-.86 2.88 0 2.93 2.38 5.32 5.32 5.32 2.93 0 5.32-2.38 5.32-5.32 0-1.06-.32-2.05-.86-2.88l4.55-7.89c.07-.14.06-.32-.05-.44zm-3.8-2.71l-1.8 3.15h-6.7L6.6 2.77h10.33zm-5.16 8.61c-.06 0-.12.01-.18.01L8.87 6.7h5.8l-2.69 4.69c-.07-.01-.14-.01-.21-.01zm-8.2-5.61l2.27-2.75L7.8 6.39c.02.08.06.15.12.2l2.82 4.88c-1.15.23-2.16.83-2.92 1.66L3.57 5.77zm8.2 15.46c-2.5 0-4.54-2.03-4.54-4.54s2.03-4.54 4.54-4.54 4.54 2.03 4.54 4.54-2.04 4.54-4.54 4.54zm3.94-8.09a5.324 5.324 0 0 0-2.88-1.66l2.81-4.91c.04-.04.07-.1.09-.16l1.95-3.4 2.27 2.75-4.24 7.38z"/><path class="st0" d="M11.77 12.87a3.82 3.82 0 1 0 3.82 3.82c-.01-2.1-1.72-3.82-3.82-3.82zm0 6.86c-1.67 0-3.04-1.36-3.04-3.04 0-1.67 1.36-3.04 3.04-3.04s3.04 1.36 3.04 3.04a3.052 3.052 0 0 1-3.04 3.04z"/><path class="st0" d="M11.77 14.25l-.74 1.5-1.66.24 1.2 1.17-.28 1.65 1.48-.78 1.48.78-.28-1.65 1.2-1.17-1.66-.24-.74-1.5zm.59 2.71l.14.82-.73-.39-.73.39.14-.82-.59-.58.82-.12.37-.74.37.74.82.12-.61.58z"/></svg>