<svg id="Layer_2" xmlns="http://www.w3.org/2000/svg" viewBox="0 0 24 24"><style>.st0{fill:#666}</style><path class="st0" d="M2.38 21.92c-.18 0-.33-.15-.33-.33v-9.62c0-.18.15-.33.33-.33h2.95l6.17-9.46c.06-.1.17-.16.28-.16.12 0 .22.06.28.16l5.65 9.46h3.89c.18 0 .33.15.33.33v9.62c0 .18-.15.33-.33.33H2.38zm.34-.67h18.56V12.3H2.72v8.95zm3.4-9.62h10.81l-5.15-8.65-5.66 8.65z"/><path class="st0" d="M8.34 16.37c0 .79-.28 1.61-.81 2.13-.4.4-.94.63-1.59.63-1.15 0-1.75-.84-1.75-1.84 0-.79.3-1.62.83-2.14.4-.39.96-.62 1.56-.62 1.2 0 1.76.83 1.76 1.84zm-2.72-.81c-.39.39-.62 1.12-.62 1.69 0 .67.3 1.23 1.05 1.23.32 0 .63-.14.87-.38.38-.38.6-1.14.6-1.7 0-.59-.2-1.22-1.02-1.22-.35 0-.64.14-.88.38zM9.41 14.68c.27-.07.67-.11 1.08-.11.41 0 .85.09 1.14.32.26.2.41.49.41.88 0 .53-.24.95-.57 1.21-.36.28-.87.42-1.39.42-.16 0-.3-.02-.42-.03l-.32 1.68h-.76l.83-4.37zm.36 2.06c.13.03.24.04.4.04.65 0 1.08-.42 1.08-.94 0-.47-.34-.64-.77-.64-.19 0-.34.01-.42.04l-.29 1.5zM14.87 17.07h-1.6l-.25 1.33h1.8l-.13.65h-2.57l.85-4.45h2.47l-.13.65h-1.7l-.22 1.17H15l-.13.65zM15.4 19.05l.85-4.45h.88l.78 2.07c.19.54.3.95.4 1.39h.01c.03-.44.08-.87.2-1.51l.37-1.95h.73l-.85 4.45h-.79l-.8-2.11c-.2-.58-.32-.94-.42-1.43l-.03.01c-.05.42-.14.97-.26 1.63l-.36 1.9h-.71z"/></svg>