<svg id="Layer_2" xmlns="http://www.w3.org/2000/svg" viewBox="0 0 24 24"><style>.st0{fill:#666}</style><path class="st0" d="M12.01 22c-.97 0-1.77-.79-1.77-1.77 0-.97.79-1.77 1.77-1.77.97 0 1.77.79 1.77 1.77S12.98 22 12.01 22zm0-2.62a.86.86 0 1 0 0 1.72.86.86 0 0 0 0-1.72zM12.45 18.06h-1.31c-.49 0-.89-.4-.89-.89v-1.31c0-1.13 1.19-2.18 2.06-2.94.21-.18.41-.36.55-.5.2-.2.29-.47.27-.74a.951.951 0 0 0-.41-.69c-.29-.2-.7-.21-.99-.02-.25.16-.41.4-.44.68 0 .4-.02 1.17-1.01 1.17H8.95c-.2 0-.48-.02-.68-.23-.22-.23-.22-.53-.21-.82v-.15c.05-1.24.64-2.38 1.61-3.13 1.39-1.08 3.37-1.15 4.82-.18 1.07.72 1.75 1.86 1.85 3.13.11 1.23-.34 2.42-1.22 3.26-.16.15-.38.33-.61.51-.38.3-1.07.86-1.17 1.14v.82c0 .49-.4.89-.89.89zm-.26-8.13c.36 0 .72.11 1.03.31a1.835 1.835 0 0 1 .27 2.82c-.16.16-.37.34-.59.54-.7.61-1.75 1.54-1.75 2.26v1.31l1.29-.02-.02-.9.01-.05c.11-.55.69-1.05 1.5-1.7.21-.17.42-.33.55-.46.68-.65 1.02-1.57.94-2.53a3.27 3.27 0 0 0-1.46-2.45c-1.13-.76-2.67-.7-3.75.14-.75.6-1.21 1.48-1.25 2.44v.27H10.35c.01-.05.01-.13.01-.28v-.05c.06-.56.37-1.06.86-1.37.3-.19.63-.28.97-.28z"/><path class="st0" d="M18.82 19.13c-.07 0-.15-.02-.22-.06l-.9-.5c-.77-.42-1.66-.54-2.51-.31a.467.467 0 0 1-.56-.32c-.06-.24.08-.49.32-.56.93-.24 1.9-.17 2.77.2a4.3 4.3 0 0 1-.01-3.34c.45-1.08 1.3-1.92 2.37-2.35a4.303 4.303 0 0 1-2.37-2.35 4.3 4.3 0 0 1 .01-3.34 4.3 4.3 0 0 1-3.34.01 4.317 4.317 0 0 1-2.35-2.36 4.255 4.255 0 0 1-2.35 2.36c-1.07.45-2.27.44-3.33-.01a4.3 4.3 0 0 1 .01 3.34 4.303 4.303 0 0 1-2.37 2.35c1.07.43 1.92 1.27 2.37 2.35a4.3 4.3 0 0 1-.01 3.34c.85-.36 1.8-.44 2.71-.21.24.06.39.31.33.55-.06.24-.31.39-.55.33-.83-.2-1.71-.09-2.46.33l-.9.5c-.18.1-.4.07-.54-.08a.47.47 0 0 1-.08-.54l.5-.9c.5-.92.56-1.99.16-2.96-.4-.96-1.2-1.68-2.21-1.98l-.99-.29c-.19-.06-.33-.23-.33-.44s.13-.38.33-.44l.99-.29c1-.29 1.81-1.01 2.21-1.98.4-.96.34-2.04-.16-2.96l-.5-.9a.44.44 0 0 1 .08-.54c.14-.13.36-.16.54-.07l.9.5c.91.5 1.99.56 2.96.16.96-.4 1.69-1.2 1.98-2.21l.29-.99a.459.459 0 0 1 .88 0l.29.99c.29 1 1.01 1.81 1.98 2.21.96.4 2.04.34 2.96-.16l.9-.5c.18-.1.4-.07.54.08.14.14.17.36.08.54l-.5.9c-.5.91-.56 1.99-.16 2.96.4.96 1.2 1.68 2.21 1.98l.99.29c.19.06.33.23.33.44s-.13.38-.33.44l-.99.29c-1 .29-1.81 1.01-2.21 1.98-.4.96-.34 2.04.16 2.96l.5.9c.1.18.07.4-.08.54-.1.08-.22.12-.34.12z"/><path class="st0" d="M12.01 22c-.97 0-1.77-.79-1.77-1.77 0-.97.79-1.77 1.77-1.77.97 0 1.77.79 1.77 1.77S12.98 22 12.01 22zm0-2.62a.86.86 0 1 0 0 1.72.86.86 0 0 0 0-1.72zM12.45 18.06h-1.31c-.49 0-.89-.4-.89-.89v-1.31c0-1.13 1.19-2.18 2.06-2.94.21-.18.41-.36.55-.5.2-.2.29-.47.27-.74a.951.951 0 0 0-.41-.69c-.29-.2-.7-.21-.99-.02-.25.16-.41.4-.44.68 0 .4-.02 1.17-1.01 1.17H8.95c-.2 0-.48-.02-.68-.23-.22-.23-.22-.53-.21-.82v-.15c.05-1.24.64-2.38 1.61-3.13 1.39-1.08 3.37-1.15 4.82-.18 1.07.72 1.75 1.86 1.85 3.13.11 1.23-.34 2.42-1.22 3.26-.16.15-.38.33-.61.51-.38.3-1.07.86-1.17 1.14v.82c0 .49-.4.89-.89.89zm-.26-8.13c.36 0 .72.11 1.03.31a1.835 1.835 0 0 1 .27 2.82c-.16.16-.37.34-.59.54-.7.61-1.75 1.54-1.75 2.26v1.31l1.29-.02-.02-.9.01-.05c.11-.55.69-1.05 1.5-1.7.21-.17.42-.33.55-.46.68-.65 1.02-1.57.94-2.53a3.27 3.27 0 0 0-1.46-2.45c-1.13-.76-2.67-.7-3.75.14-.75.6-1.21 1.48-1.25 2.44v.27H10.35c.01-.05.01-.13.01-.28v-.05c.06-.56.37-1.06.86-1.37.3-.19.63-.28.97-.28z"/></svg>