<svg id="Layer_2" xmlns="http://www.w3.org/2000/svg" viewBox="0 0 24 24"><style>.st0{fill:#666}</style><path class="st0" d="M10.35 8.07a3.037 3.037 0 0 0 3.04-3.04c0-.81-.32-1.57-.89-2.15a3.054 3.054 0 0 0-4.3 0c-.57.58-.89 1.34-.89 2.15a3.037 3.037 0 0 0 3.04 3.04zM8.36 3.93a5.914 5.914 0 0 0 .22.48c.07.13.21.21.36.2-.07.13-.06.29.03.41s.19.24.3.37c.1.11.25.15.38.11-.04.13 0 .28.1.39.12.11.24.21.35.31.12.1.27.11.4.06a.4.4 0 0 0 .17.37c.14.09.28.17.42.24a.377.377 0 0 0 .51-.17c.1-.19.02-.42-.17-.51-.11-.06-.23-.12-.35-.2a.386.386 0 0 0-.36-.03.39.39 0 0 0-.14-.34c-.1-.09-.21-.18-.31-.28a.394.394 0 0 0-.36-.09.37.37 0 0 0-.08-.36c-.08-.12-.16-.23-.24-.33a.407.407 0 0 0-.33-.16c.06-.11.06-.24-.01-.36-.06-.12-.12-.24-.16-.35a.335.335 0 0 0-.15-.18c.04-.06.07-.12.07-.19 0-.04.01-.06.01-.06a.38.38 0 0 0 .09-.13c.37-.24.81-.37 1.24-.37.58 0 1.16.22 1.61.66a2.262 2.262 0 0 1 .3 2.85.38.38 0 0 0-.13.09s-.02.01-.06.01a.39.39 0 0 0-.36.41c0 .02.01.04.02.06-.89.68-2.17.61-2.98-.2-.74-.74-.86-1.85-.39-2.71zM21.22 2.8a2.752 2.752 0 0 0-3.9 0l-1.95 1.95a29.908 29.908 0 0 0-3.06 3.59l-2.09 2.88c-.89 1.23-1.89 2.4-2.96 3.47l-3.69 3.69c-.39-.2-.91-.13-1.23.2a1.11 1.11 0 0 0 0 1.58l1.52 1.52c.22.22.5.33.79.33s.57-.11.79-.33c.33-.33.4-.83.19-1.23l3.69-3.69c1.07-1.07 2.24-2.07 3.47-2.96l2.88-2.09c1.27-.92 2.48-1.95 3.59-3.06l1.95-1.95c.52-.52.81-1.21.81-1.95s-.28-1.43-.8-1.95zM8.79 16.21l-3.65 3.65-.26-.27a.38.38 0 0 0-.54-.01.38.38 0 0 0-.01.54l.47.48c.01.01.02.01.03.02.01.02.02.03.03.05l.04.04c.11.11.11.3 0 .42a.35.35 0 0 1-.5 0l-1.52-1.52a.35.35 0 0 1 0-.5.288.288 0 0 1 .42 0l.04.04c.15.15.39.15.54 0l3.93-3.93c.18-.18.35-.37.53-.55l1 1.01c-.19.18-.37.35-.55.53zM20.68 6.16L18.73 8.1a29.298 29.298 0 0 1-3.5 2.98l-2.88 2.09c-.85.62-1.67 1.29-2.46 1.99l-1.04-1.05c.71-.78 1.37-1.6 1.99-2.45l2.09-2.88c.9-1.24 1.9-2.41 2.98-3.5l1.95-1.95a1.98 1.98 0 0 1 2.81 0c.38.38.58.88.58 1.41.01.54-.19 1.04-.57 1.42z"/></svg>