<svg id="Layer_2" xmlns="http://www.w3.org/2000/svg" xmlns:xlink="http://www.w3.org/1999/xlink" viewBox="0 0 24 24"><style>.st0,.st1{fill:#666}.st1{clip-path:url(#SVGID_2_)}</style><path class="st0" d="M13.91 19.29v-1.65c0-.13-.08-.25-.2-.31a.34.34 0 0 0-.36.07l-.66.66a.332.332 0 1 0 .47.47l.1-.1v.85c-.18 0-.33.15-.33.33 0 .18.15.33.33.33h.66c.18 0 .33-.15.33-.33a.34.34 0 0 0-.34-.32zm0 0"/><defs><path id="SVGID_1_" d="M2.02 2.09h19.84v19.89H2.02z"/></defs><clipPath id="SVGID_2_"><use xlink:href="#SVGID_1_" overflow="visible"/></clipPath><path class="st1" d="M4.99 8.72V7.07c0-.13-.08-.25-.2-.31a.336.336 0 0 0-.36.07l-.67.66a.332.332 0 1 0 .47.47l.1-.1v.85c-.18.01-.33.16-.33.34 0 .18.15.33.33.33h.66c.18 0 .33-.15.33-.33 0-.18-.15-.33-.33-.33zm0 0"/><path class="st1" d="M20.76 5.8L10.9 2.21a1.646 1.646 0 0 0-2.11.96l-.1.25-1.6-.27c-.44-.07-.87.02-1.24.28-.36.25-.6.63-.68 1.06l-.04.26H3.67c-.91 0-1.65.74-1.65 1.65v13.88c0 .91.74 1.65 1.65 1.65H14.9c.9 0 1.78-.13 2.13-1.08L21.74 7.9c.31-.85-.13-1.79-.98-2.1zm-5.53 14.49c0 .55-.44.99-.99.99H3.67c-.55 0-.99-.44-.99-.99V6.41c0-.55.44-.99.99-.99H5.4c.16 0 .3-.11.32-.27l.1-.54c.05-.26.19-.49.41-.64.22-.15.48-.21.75-.17l1.87.32c.15.02.3-.06.36-.2l.21-.51c.08-.24.26-.44.5-.55.24-.11.5-.12.75-.03l5.08 1.85-5.12-.9a.33.33 0 1 0-.11.65l1.84.32H6.64c-.18 0-.33.15-.33.33 0 .18.15.33.33.33h7.6c.55 0 .99.44.99.99v13.89zm.23-14.99l1.93.34c.54.09.9.61.8 1.15l-2.3 13.03V6.41c.01-.43-.16-.82-.43-1.11zm5.66 2.38l-4.69 12.88L18.84 6.9c.08-.43-.03-.85-.25-1.19l1.94.71c.52.19.78.75.59 1.26zm0 0"/><path class="st0" d="M10.62 11.63c-.5-.4-1.01-.82-1.38-1.43-.12-.2-.45-.2-.57 0-.38.63-.85 1.05-1.32 1.46-.71.63-1.37 1.22-1.37 2.35 0 .91.74 1.65 1.65 1.65.44 0 .75-.12.99-.3v.96c0 .18.15.33.33.33.18 0 .33-.15.33-.33v-.96c.24.19.55.3.99.3.82 0 1.45-.61 1.65-1.59.24-1.19-.54-1.82-1.3-2.44zm.66 2.31c-.05.25-.27 1.06-1 1.06-.54 0-.71-.18-1.03-.81a.555.555 0 0 0-.06-.08c0-.01-.01-.01-.02-.01a.218.218 0 0 0-.08-.05c-.01 0-.02-.01-.03-.01a.169.169 0 0 0-.1-.03.36.36 0 0 0-.11.02c-.01 0-.02.01-.03.01-.03.01-.05.03-.08.05-.01.01-.01.01-.02.01-.02.02-.04.05-.06.08-.31.64-.49.82-1.03.82-.55 0-.99-.44-.99-.99 0-.83.48-1.26 1.15-1.85.38-.33.79-.7 1.17-1.2.38.49.83.85 1.24 1.19.81.65 1.23 1.03 1.08 1.79zm0 0"/></svg>