<svg id="Layer_2" xmlns="http://www.w3.org/2000/svg" viewBox="0 0 24 24"><style>.st0{fill:#666}</style><path class="st0" d="M21.95 10.03v-.32l-3.29.13c-.44-.27-2.78-1.68-4.68-1.88l-.4-.04.08.39c0 .01.16.82-.56 1.74l-1.96.08-.32-1.41-.57.13.29 1.3-3.81.15V8.86H2.05v3.08h1.8l.85 1.15c-.07.13-.14.33-.17.56-.05.41.04 1.03.72 1.69l.26.25 1.3-2.02c.35.02 1.16.06 1.75.06 5.82 0 9.86-.63 12-1.86 1.4-.79 1.39-1.5 1.39-1.74zm-7.7-1.44c1.16.21 2.47.84 3.3 1.29l-3.73.14c.34-.57.42-1.09.43-1.43zm-11.61.86h3.5v1.91h-3.5V9.45zm18.61.99c-.16.27-.49.55-.97.81-1.16.67-2.96 1.16-5.35 1.45-1.8.22-3.94.33-6.36.33-.74 0-1.88-.06-1.89-.06l-.17-.01-1.08 1.68c-.23-.3-.33-.6-.3-.9.03-.3.17-.49.17-.49l.14-.18-.84-1.14h2.14v-1.05l14.58-.57c-.02.05-.04.09-.07.13z"/></svg>