<svg id="Layer_2" xmlns="http://www.w3.org/2000/svg" viewBox="0 0 24 24"><style>.st0{fill:#666}</style><path class="st0" d="M13.89 21.95c-2.83 0-4.85-.98-6.17-2.99-1-1.52-3.36-5.09-3.36-5.09-.3-.47-.41-1.04-.29-1.57.11-.49.4-.9.81-1.17.3-.18.63-.28.98-.28.58 0 1.16.28 1.56.74l.54.63v-7.1a1.673 1.673 0 0 1 2.45-1.48l.38.2.07-.43C10.99 2.6 11.7 2 12.51 2c.63 0 1.2.35 1.49.9l.16.31.29-.2c.28-.19.61-.3.95-.3.92 0 1.67.75 1.67 1.67v.9l.45-.23c.24-.12.49-.18.76-.18.93 0 1.68.75 1.68 1.67v9.74c0 1.46-.48 2.81-1.35 3.8-1.06 1.26-2.65 1.87-4.72 1.87zM5.87 11.6c-.21 0-.41.06-.59.16-.25.16-.43.41-.49.71-.07.33-.01.7.19 1 0 0 2.36 3.57 3.36 5.09 1.19 1.81 2.96 2.66 5.56 2.66 4.96 0 5.35-3.76 5.35-4.91V6.57a.939.939 0 1 0-1.88 0v4.69c0 .28-.22.5-.5.5s-.5-.22-.5-.5V4.41a.939.939 0 1 0-1.88 0v6.13c0 .28-.22.5-.5.5s-.5-.22-.5-.5V3.69a.939.939 0 1 0-1.88 0v6.85c0 .28-.23.5-.5.5-.28 0-.5-.22-.5-.5V5.13a.939.939 0 1 0-1.88 0v9.02c0 .06-.04.12-.1.13-.01 0-.03.01-.04.01-.04 0-.09-.02-.11-.06L7 12.21c-.27-.37-.7-.61-1.13-.61z"/></svg>