<svg id="Layer_2" xmlns="http://www.w3.org/2000/svg" viewBox="0 0 24 24"><style>.st0{fill:#666}</style><path class="st0" d="M12.1 21.8c-5.46 0-9.91-4.44-9.91-9.91s4.44-9.91 9.91-9.91 9.91 4.44 9.91 9.91-4.45 9.91-9.91 9.91zm0-18.99c-5.01 0-9.08 4.07-9.08 9.08s4.07 9.08 9.08 9.08 9.08-4.07 9.08-9.08-4.07-9.08-9.08-9.08z"/><path class="st0" d="M12.1 18.5c-3.64 0-6.61-2.96-6.61-6.61 0-3.64 2.96-6.61 6.61-6.61s6.61 2.96 6.61 6.61c0 3.64-2.97 6.61-6.61 6.61zm0-12.39c-3.19 0-5.78 2.59-5.78 5.78 0 3.19 2.59 5.78 5.78 5.78s5.78-2.59 5.78-5.78c0-3.19-2.59-5.78-5.78-5.78z"/><path class="st0" d="M11.69 2.4h.83v3.3h-.83zM11.69 18.08h.83v3.3h-.83z"/><path transform="rotate(-45.001 6.554 6.346)" class="st0" d="M6.14 4.69h.83v3.3h-.83z"/><path transform="rotate(-45.001 17.646 17.438)" class="st0" d="M17.23 15.79h.83v3.3h-.83z"/><path class="st0" d="M2.61 11.48h3.3v.83h-3.3zM18.29 11.48h3.3v.83h-3.3z"/><g><path transform="rotate(-45.001 6.554 17.439)" class="st0" d="M4.9 17.03h3.3v.83H4.9z"/><path transform="rotate(-45.001 17.647 6.346)" class="st0" d="M16 5.93h3.3v.83H16z"/></g><g><path class="st0" d="M8.8 11.48h6.61v.83H8.8z"/></g><g><path class="st0" d="M11.69 8.59h.83v6.61h-.83z"/></g></svg>