<svg id="Layer_2" xmlns="http://www.w3.org/2000/svg" viewBox="0 0 24 24"><style>.st0{fill:#666}</style><path class="st0" d="M13.17 12.6h-.83V7.31c0-.5-.41-.91-.91-.91s-.91.41-.91.91v5.29h-.83V7.31a1.741 1.741 0 0 1 3.48 0v5.29zM16.38 22.01H8.11v-2.58h8.27v2.58zm-7.44-.84h6.6v-.91h-6.6v.91z"/><path class="st0" d="M12.34 10.05V7.31c0-.5-.41-.91-.91-.91s-.91.41-.91.91v2.74l-.56-.23a4.018 4.018 0 0 1-2.58-3.77c0-2.24 1.82-4.06 4.06-4.06s4.06 1.82 4.06 4.06c0 1.68-1.01 3.16-2.58 3.77l-.58.23zm-.91-4.48c.96 0 1.74.78 1.74 1.74v1.45a3.18 3.18 0 0 0 1.48-2.71c0-1.78-1.45-3.22-3.22-3.22-1.78 0-3.22 1.45-3.22 3.22 0 1.12.57 2.13 1.48 2.71V7.31c0-.96.78-1.74 1.74-1.74z"/><path class="st0" d="M16.22 18.52H8.23L5.9 11.8c-.19-.6-.08-1.24.28-1.74l1.98-3.45.34.76c.34.76.99 1.38 1.77 1.68l.26.1v3.45h-.84V9.71a4.1 4.1 0 0 1-1.58-1.34l-1.25 2.17c-.21.28-.28.66-.17 1l2.12 6.14h6.87c1.13-2.72-.86-6.91-1.71-8.48-.32.26-.68.47-1.07.62l-.3-.78c.45-.18.86-.45 1.18-.8l.38-.41.28.49c.86 1.49 3.55 6.63 1.89 9.96l-.11.24z"/><path class="st0" d="M16.78 9.4c-.88 0-2.07-.38-2.71-.61l-.56-.2.39-.46c.49-.58.76-1.32.76-2.08 0-.05 0-.1-.01-.16l-.05-.74 2.48 1.11c.47.21.84.61 1.01 1.1.17.49.13 1.03-.11 1.49-.2.36-.6.55-1.2.55zm-1.9-1.22c.56.18 1.33.38 1.9.38.33 0 .44-.07.45-.1.14-.26.16-.55.06-.83-.09-.27-.29-.49-.55-.61l-1.27-.57c-.06.61-.26 1.21-.59 1.73z"/></svg>