<svg id="Layer_2" xmlns="http://www.w3.org/2000/svg" viewBox="0 0 24 24"><style>.st0{fill:#666}</style><path class="st0" d="M20.96 9.8h-1.87c-.3 0-.55-.17-.66-.44a.69.69 0 0 1 .16-.78l1.32-1.32c.19-.19.3-.45.3-.73 0-.27-.11-.53-.3-.73l-1.68-1.68c-.39-.39-1.07-.39-1.45 0l-1.32 1.32c-.21.21-.5.27-.78.16a.693.693 0 0 1-.44-.66V3.06c0-.57-.46-1.03-1.03-1.03h-2.38c-.57 0-1.03.46-1.03 1.03v1.87c0 .3-.17.55-.44.66-.3.12-.59.06-.8-.16L7.24 4.11c-.39-.39-1.07-.39-1.45 0L4.1 5.8c-.2.19-.3.45-.3.73 0 .27.11.53.3.73l1.32 1.32c.21.21.27.5.16.78a.72.72 0 0 1-.67.44H3.04c-.57 0-1.03.46-1.03 1.03v2.38c0 .57.46 1.03 1.03 1.03h1.87c.3 0 .55.17.66.44.12.28.06.57-.16.78L4.1 16.78c-.19.19-.3.45-.3.73 0 .28.11.53.3.73l1.68 1.68c.39.39 1.07.39 1.45 0l1.32-1.32c.21-.21.5-.27.78-.16.28.12.44.36.44.66v1.87c0 .57.46 1.03 1.03 1.03h2.38c.57 0 1.03-.46 1.03-1.03V19.1c0-.3.17-.55.44-.66.28-.12.57-.06.78.16l1.32 1.32c.39.39 1.07.39 1.45 0l1.68-1.68c.19-.19.3-.45.3-.73 0-.27-.11-.53-.3-.73l-1.32-1.32a.707.707 0 0 1-.16-.78c.11-.28.36-.44.66-.44h1.87c.57 0 1.03-.46 1.03-1.03v-2.38a.997.997 0 0 0-1-1.03zm.29 3.41c0 .16-.13.29-.29.29h-1.87c-.6 0-1.12.34-1.35.9-.23.55-.11 1.16.32 1.59l1.32 1.32c.11.11.11.29 0 .41L17.7 19.4c-.11.11-.3.11-.41 0l-1.32-1.32c-.42-.43-1.03-.55-1.59-.32-.55.23-.9.75-.9 1.35v1.87c0 .16-.13.29-.29.29h-2.38a.29.29 0 0 1-.29-.29V19.1c0-.6-.34-1.12-.9-1.35-.19-.08-.38-.12-.57-.12-.37 0-.74.15-1.02.43l-1.32 1.32c-.11.11-.3.11-.41 0L4.62 17.7a.296.296 0 0 1 0-.41l1.32-1.32c.42-.42.55-1.03.31-1.59-.23-.55-.74-.9-1.35-.9H3.04a.29.29 0 0 1-.29-.29v-2.38c0-.16.13-.29.29-.29h1.87c.6 0 1.12-.34 1.35-.9.23-.55.11-1.16-.31-1.59l-1.33-1.3a.296.296 0 0 1 0-.41L6.3 4.64c.11-.11.3-.11.41 0l1.32 1.32c.43.42 1.04.54 1.59.31.56-.23.9-.74.9-1.35V3.06c0-.16.13-.29.29-.29h2.38c.16 0 .29.13.29.29v1.87c0 .6.34 1.12.9 1.35.55.23 1.16.11 1.59-.31l1.32-1.32c.11-.11.3-.11.41 0l1.68 1.68c.11.11.11.3 0 .41l-1.32 1.32c-.42.42-.55 1.03-.32 1.59.23.55.75.9 1.35.9h1.87c.16 0 .29.13.29.29v2.37zm0 0"/><path class="st0" d="M12 8.69a3.329 3.329 0 1 0 3.33 3.33c0-1.84-1.49-3.33-3.33-3.33zm0 5.91a2.59 2.59 0 1 1 .001-5.181A2.59 2.59 0 0 1 12 14.6zm0 0"/></svg>