<svg id="Layer_2" xmlns="http://www.w3.org/2000/svg" viewBox="0 0 24 24"><style>.st0{fill:#666}</style><path class="st0" d="M7.42 13.58c1.06 0 1.93-.87 1.93-1.93s-.86-1.93-1.93-1.93c-1.06 0-1.93.87-1.93 1.93s.87 1.93 1.93 1.93zm-1.28-1.93c0-.71.58-1.28 1.28-1.28.71 0 1.28.58 1.28 1.28 0 .71-.58 1.28-1.28 1.28-.7 0-1.28-.57-1.28-1.28z"/><path class="st0" d="M21.86 4.59a.363.363 0 0 0-.51.03l-8.56 9.63c-.61.6-1.42.94-2.25.94H3.86c-.98 0-1.79.81-1.84 1.85-.03.57.18 1.13.58 1.52.35.34.79.53 1.26.53h.11l3.86-.23c1.25-.08 2.41-.65 3.27-1.61l2.22-2.5c.05-.05.11-.11.16-.17l.52-.6c.02-.02.03-.04.05-.06l7.85-8.83c.13-.15.11-.37-.04-.5zM7.31 18.16l-1.62.1v-2.35h1.62v2.25zm-3.38.2c-.3.02-.6-.09-.82-.32-.25-.25-.39-.6-.37-.97.03-.65.53-1.16 1.13-1.16h1.11v2.39l-1.05.06zm6.63-1.6c-.68.76-1.57 1.22-2.53 1.34v-2.2h2.52c.29 0 .58-.03.86-.1l-.85.96z"/></svg>