<svg id="Layer_2" xmlns="http://www.w3.org/2000/svg" viewBox="0 0 24 24"><style>.st0{fill:#666}</style><path class="st0" d="M5.92 18.76L2.15 21.5c-.14.1-.17.29-.07.43s.29.17.43.07l3.77-2.74c.05-.03.08-.08.1-.13.04-.09.03-.21-.03-.3-.11-.13-.3-.17-.43-.07zM20.36 9.06c.04-.1.03-.21-.04-.3a.306.306 0 0 0-.43-.07l-4.69 3.42-1.12-3.21a.284.284 0 0 0-.3-.2l-3 .08.02.61 2.78-.08 1.11 3.19-.57.42-1.02-2.46a.305.305 0 0 0-.38-.17l-3.09 1.05c-.32.13-.66-.24-.75-.34-.16-.38-.28-.75-.38-1.09l2.63-2.01.4.17c.09.04.19.03.27-.02l2.62-1.56-.31-.52-2.49 1.48-2.11-.88-.23.57 1.2.5-2.13 1.61c-.4-2.04.12-3.36.15-3.43.11-.27.62-.32.85-.31l2.21.91c.07.03.16.03.23 0l1.99-.83-.23-.56-1.88.78-2.14-.88c-.03-.01-.06-.02-.09-.02-.13-.01-1.2-.07-1.5.68-.08.2-.67 1.74-.12 4.07l-3.65 2.78c-.14.11-.17.3-.07.44.1.13.29.16.43.06l3.45-2.63c.09.31.21.63.35.97.01.02.02.04.04.06.25.34.84.83 1.47.57l2.8-.95.97 2.33-6.44 4.69c-.14.09-.17.29-.07.42.1.14.29.17.43.07L20.26 9.2a.45.45 0 0 0 .1-.14zM8.8 4.3c.62.26 1.34-.04 1.59-.66.26-.62-.04-1.34-.66-1.59-.62-.27-1.34.03-1.59.65-.26.63.04 1.34.66 1.6zm-.1-1.36c.13-.32.49-.46.8-.34.31.13.46.49.33.8s-.49.46-.8.33a.603.603 0 0 1-.33-.79zM14.8 15.36c.04-.1.03-.21-.04-.3-.1-.14-.29-.16-.43-.06l-4.28 3.18c-.14.1-.16.29-.06.43s.29.16.43.06l4.28-3.18c.05-.04.08-.09.1-.13zM19.12 13l-2.34 1.67c-.14.1-.17.29-.07.43s.29.17.43.07l2.34-1.67c.05-.03.08-.08.1-.13a.308.308 0 0 0-.46-.37zM21.92 13.72a.306.306 0 0 0-.43-.07l-6.63 4.86c-.14.1-.17.29-.07.43s.29.17.43.07l6.63-4.86c.05-.03.08-.08.1-.13.05-.1.04-.21-.03-.3z"/></svg>