<svg id="Layer_2" xmlns="http://www.w3.org/2000/svg" viewBox="0 0 24 24"><style>.st0{fill:#666}</style><path class="st0" d="M18.05 22H2.2V5.7c0-2.05 1.67-3.72 3.72-3.72h8.41c2.05 0 3.72 1.67 3.72 3.72V22zm-15.02-.83h14.18V5.7a2.88 2.88 0 0 0-2.88-2.88H5.92A2.88 2.88 0 0 0 3.04 5.7v15.47z"/><path class="st0" d="M12.46 18.66H7.79c-.62 0-1.17-.31-1.39-.8l-1.18-2.58c-.16-.34-.13-.72.08-1.04.26-.4.76-.65 1.31-.65h7.03c.55 0 1.05.25 1.31.65.21.32.23.7.08 1.04l-1.18 2.58c-.22.49-.77.8-1.39.8zm-5.85-4.23c-.32 0-.53.14-.61.27-.07.11-.04.19-.02.24l1.18 2.58c.08.18.35.31.63.31h4.67c.28 0 .55-.13.63-.31l1.18-2.58c.02-.05.05-.13-.02-.24-.08-.12-.29-.27-.61-.27H6.61zM9.71 5.32h.83v4.17h-.83zM6.37 5.32h.83v4.17h-.83zM13.04 5.32h.83v4.17h-.83zM20.55 17h-2.92v-.84h2.08V9.91h.84z"/><path class="st0" d="M20.13 10.32c-.92 0-1.67-.75-1.67-1.67s.75-1.67 1.67-1.67 1.67.75 1.67 1.67-.75 1.67-1.67 1.67zm0-2.5c-.46 0-.83.37-.83.83 0 .46.37.83.83.83.46 0 .83-.37.83-.83a.828.828 0 0 0-.83-.83z"/></svg>