<svg id="Layer_2" xmlns="http://www.w3.org/2000/svg" viewBox="0 0 24 24"><style>.st0{fill:#666}</style><path class="st0" d="M3.97 21.78l.96-3.64-2.94-2.22 3.67-.13 1.28-3.46 1.34 3.43 3.68.06-2.89 2.27 1.03 3.63-3.08-2.18-3.05 2.24zm.48-5.09l1.46 1.1-.49 1.84L7 18.47l1.6 1.13-.52-1.84 1.44-1.13-1.83-.03-.73-1.86-.69 1.88-1.82.07zM20.58 10.16l-1.54-1.09-1.53 1.12.48-1.81-1.45-1.09 1.81-.07.65-1.76.68 1.75 1.82.03-1.43 1.12zM9.5 6.9L7.96 5.81 6.44 6.93l.48-1.81-1.46-1.09 1.81-.07.65-1.75.68 1.74 1.81.03L8.99 5.1zM21.58 20.59c-.11 0-.22-.04-.3-.13l-6.07-6.07c-.17-.17-.17-.44 0-.61s.44-.17.61 0l6.07 6.07c.17.17.17.44 0 .61-.09.09-.2.13-.31.13z"/><path class="st0" d="M13.26 14.68c-.76 0-1.47-.3-2.01-.83a2.83 2.83 0 0 1 0-4.01 2.83 2.83 0 0 1 4.01 0 2.83 2.83 0 0 1 0 4.01c-.53.53-1.25.83-2 .83zm0-4.82c-.51 0-1.01.19-1.4.58-.77.77-.77 2.02 0 2.8.37.37.87.58 1.4.58.53 0 1.02-.21 1.4-.58.77-.77.77-2.02 0-2.8-.39-.39-.9-.58-1.4-.58z"/></svg>