<svg id="Layer_2" xmlns="http://www.w3.org/2000/svg" viewBox="0 0 24 24"><style>.st0{fill:#666}</style><path class="st0" d="M2.3 19.18c-.15 0-.28-.13-.28-.28V8.04c0-.15.13-.28.28-.28h6.19V4.6c0-.15.13-.28.28-.28h6.47c.15 0 .28.13.28.28v5.96h6.19c.15 0 .28.13.28.28v8.05c0 .15-.13.28-.28.28H2.3zm13.21-.56h5.91v-7.49h-5.91v7.49zm-6.47 0h5.91V4.88H9.04v13.74zm-6.46 0h5.91V8.32H2.58v10.3z"/><path class="st0" d="M10.35 11.68c-.15 0-.28-.13-.28-.28v-.51c0-.15.13-.28.28-.28.15 0 .28.13.28.28v.51c0 .15-.13.28-.28.28zM10.35 9.55c-.15 0-.28-.13-.28-.28V6.23c0-.15.13-.28.28-.28.15 0 .28.13.28.28v3.04c0 .16-.13.28-.28.28zM12.29 17.1c-.15 0-.28-.13-.28-.28v-2.54l-.7.7a.28.28 0 0 1-.2.08c-.07 0-.15-.03-.2-.08a.28.28 0 0 1-.08-.2c0-.07.03-.14.08-.2l1.18-1.18a.28.28 0 0 1 .2-.08c.04 0 .07.01.11.02.1.04.17.14.17.26v3.21c0 .16-.12.29-.28.29zM4.78 17.1c-.11 0-.22-.07-.26-.17a.28.28 0 0 1 .06-.3l1.47-1.47c.25-.25.17-.56.13-.64a.567.567 0 0 0-.5-.37h-.03a.77.77 0 0 0-.77.77c0 .15-.13.28-.28.28s-.28-.13-.28-.28c0-.73.59-1.33 1.33-1.33h.06c.45.02.84.3 1 .72.17.44.07.91-.26 1.24l-.99.99h1.13c.15 0 .28.13.28.28 0 .15-.13.28-.28.28H4.78zM18.49 17.1c-.6 0-1.09-.49-1.09-1.09 0-.15.13-.28.28-.28.15 0 .28.13.28.28 0 .29.24.53.53.53.29 0 .53-.24.53-.53 0-.29-.23-.52-.53-.52-.15 0-.28-.13-.28-.28 0-.15.13-.28.28-.28.3 0 .53-.23.53-.52 0-.29-.24-.53-.53-.53-.29 0-.53.24-.53.53 0 .15-.13.28-.28.28-.15 0-.28-.13-.28-.28 0-.6.49-1.09 1.09-1.09.6 0 1.09.49 1.09 1.09 0 .26-.1.52-.28.71l-.07.08.07.08c.18.2.28.45.28.71 0 .62-.49 1.11-1.09 1.11z"/></svg>