<svg id="Layer_2" xmlns="http://www.w3.org/2000/svg" viewBox="0 0 24 24"><style>.st0{fill:#666}</style><path class="st0" d="M19 21.83c-.95 0-1.83-.44-2.39-1.17-.57.73-1.44 1.17-2.39 1.17s-1.83-.44-2.39-1.17c-.57.73-1.44 1.17-2.39 1.17s-1.83-.44-2.39-1.17a3.03 3.03 0 0 1-5.19-.7.35.35 0 0 1 .2-.47c.19-.08.4.01.47.2.36.87 1.19 1.43 2.13 1.43.88 0 1.68-.49 2.07-1.29.06-.12.19-.2.32-.2.14 0 .26.08.32.2.39.79 1.18 1.29 2.07 1.29s1.68-.49 2.07-1.29c.06-.12.19-.2.32-.2.14 0 .26.08.32.2.39.79 1.18 1.29 2.07 1.29s1.68-.49 2.07-1.29c.06-.12.19-.2.32-.2.14 0 .26.08.32.2.39.79 1.18 1.29 2.07 1.29.94 0 1.77-.56 2.13-1.43.08-.18.29-.27.47-.2.19.08.27.29.2.47a3.03 3.03 0 0 1-2.8 1.87zm0-3.49c-.95 0-1.83-.44-2.39-1.17-.57.73-1.44 1.17-2.39 1.17s-1.83-.44-2.39-1.17c-.57.73-1.44 1.17-2.39 1.17s-1.83-.44-2.39-1.17a3.03 3.03 0 0 1-5.19-.7.35.35 0 0 1 .2-.47c.19-.08.4.01.47.2.36.87 1.19 1.43 2.13 1.43.88 0 1.68-.49 2.07-1.29.06-.12.19-.2.32-.2.14 0 .26.08.32.2.39.79 1.18 1.29 2.07 1.29s1.68-.49 2.07-1.29c.06-.12.19-.2.32-.2.14 0 .26.08.32.2.39.79 1.18 1.29 2.07 1.29s1.68-.49 2.07-1.29c.06-.12.19-.2.32-.2.14 0 .26.08.32.2.39.79 1.18 1.29 2.07 1.29.94 0 1.77-.56 2.13-1.43.08-.18.29-.27.47-.2.19.08.27.29.2.47a3.015 3.015 0 0 1-2.8 1.87zm-.69-2.22c-.2 0-.36-.16-.36-.36V13.7h-7.69v2.06c0 .2-.16.36-.36.36s-.36-.16-.36-.36V3.95c0-.98.8-1.78 1.78-1.78s1.78.8 1.78 1.78c0 .2-.16.36-.36.36s-.36-.16-.36-.36c0-.58-.47-1.05-1.06-1.05s-1.05.47-1.05 1.05v4.93h7.69V3.95c0-.98.8-1.78 1.78-1.78s1.78.8 1.78 1.78c0 .2-.16.36-.36.36s-.36-.16-.36-.36c0-.58-.47-1.05-1.06-1.05s-1.05.47-1.05 1.05v11.8c-.01.2-.18.37-.38.37zm-8.05-3.15h7.69V9.61h-7.69v3.36z"/></svg>