<svg id="Layer_2" xmlns="http://www.w3.org/2000/svg" viewBox="0 0 24 24"><style>.st0{fill:#666}</style><path class="st0" d="M10.29 17.44H3.72c-.95 0-1.72-.77-1.72-1.72V9.14c0-.95.77-1.72 1.72-1.72h6.58c.95 0 1.72.77 1.72 1.72v6.58c0 .95-.78 1.72-1.73 1.72zM3.72 8.25c-.49 0-.89.4-.89.89v6.58c0 .49.4.89.89.89h6.58c.49 0 .89-.4.89-.89V9.14c0-.49-.4-.89-.89-.89H3.72z"/><circle class="st0" cx="5.33" cy="9.92" r=".84"/><circle class="st0" cx="5.33" cy="12.43" r=".84"/><circle class="st0" cx="5.33" cy="14.94" r=".84"/><circle class="st0" cx="8.68" cy="9.92" r=".84"/><circle class="st0" cx="8.68" cy="12.43" r=".84"/><circle class="st0" cx="8.68" cy="14.94" r=".84"/><path class="st0" d="M14.63 17.44c-.62 0-1.19-.33-1.5-.86l-1.95-3.37V9.14c0-.16-.04-.31-.13-.46l-.22-.36 5.34-3.08a1.722 1.722 0 0 1 2.35.63l3.29 5.7c.48.82.19 1.88-.63 2.36l-5.7 3.29c-.26.14-.55.22-.85.22zm-2.61-4.46l1.84 3.18c.24.41.8.56 1.21.33l5.7-3.29c.42-.24.57-.79.33-1.21l-3.29-5.7a.916.916 0 0 0-1.21-.33l-4.64 2.68c.05.16.08.33.08.5v3.84z"/><g><path class="st0" d="M17.9 12.31c-.3 0-.58-.16-.72-.42a.84.84 0 0 1 .31-1.14c.39-.22.92-.08 1.14.31a.84.84 0 0 1-.31 1.14c-.13.07-.27.11-.42.11z"/></g><g><path class="st0" d="M16.65 10.14c-.3 0-.58-.16-.72-.42-.23-.4-.09-.91.31-1.14.39-.22.92-.08 1.14.31a.84.84 0 0 1-.31 1.14c-.13.07-.27.11-.42.11z"/></g><g><path class="st0" d="M15.01 13.98c-.3 0-.58-.16-.72-.42a.84.84 0 0 1 .31-1.14c.39-.22.92-.08 1.14.31a.84.84 0 0 1-.31 1.14.8.8 0 0 1-.42.11z"/></g><g><path class="st0" d="M13.75 11.81c-.3 0-.58-.16-.72-.42-.23-.4-.09-.91.31-1.14.39-.22.92-.08 1.14.31a.84.84 0 0 1-.31 1.14c-.12.07-.27.11-.42.11z"/></g></svg>