<svg id="Layer_2" xmlns="http://www.w3.org/2000/svg" viewBox="0 0 24 24"><style>.st0{fill:#666}</style><path class="st0" d="M5.18 6.39c1.21 0 2.2-.99 2.2-2.2 0-1.21-.99-2.2-2.2-2.2s-2.2.99-2.2 2.2c0 1.21.99 2.2 2.2 2.2zm0-3.53c.73 0 1.33.6 1.33 1.33 0 .73-.6 1.33-1.33 1.33s-1.33-.6-1.33-1.33c0-.74.59-1.33 1.33-1.33zM20.91 2.96c-.26-.32-.63-.52-1.04-.57-.41-.04-.81.08-1.13.33L13.81 6.7l1.49-1.84a1.54 1.54 0 0 0-1.35-2.51c-.41.04-.78.24-1.04.56L11.55 4.6l-2.24-.1c-.37-.02-.74.1-1.04.34L6.3 6.44c-.05.06-.1.11-.15.16L3.38 9.62c-.45.49-.54 1.22-.21 1.8.32.57 1 .88 1.64.76l3.22-.64s.01 0 .01.01l1.88.74v8.14c0 .85.69 1.54 1.54 1.54s1.54-.7 1.54-1.55v-9.11l7.67-6.18c.67-.54.77-1.51.24-2.17zm-8.61 7.81c-.1.08-.16.21-.16.34v9.31a.67.67 0 0 1-1.34 0v-8.44c0-.18-.11-.34-.27-.4l-1.01-.4c.61-.3.96-.99.83-1.68-.17-.83-.98-1.37-1.81-1.21l-2 .41c-.23.05-.38.28-.33.51.03.11.09.21.19.27.1.06.21.08.32.06l1.96-.41c.37-.07.73.17.8.53.07.36-.16.72-.53.79l-4.31.86a.679.679 0 0 1-.72-.33.68.68 0 0 1 .09-.79l2.77-3.02.07-.07 1.97-1.6c.13-.1.29-.16.45-.15l2.45.1c.14.01.28-.05.37-.16l1.5-1.84c.11-.14.27-.23.45-.25.18-.02.36.03.5.15.14.11.23.27.25.45.02.18-.03.36-.15.5l-1.85 2.28c-.13.16-.34.26-.55.25l-1.08-.03a.361.361 0 0 0-.25.06c-.12.02-.22.09-.29.19-.06.1-.08.21-.06.33.02.11.09.21.19.27l1.56 1.01c.16.1.36.09.51-.03l6.48-5.22c.14-.11.32-.17.5-.15a.68.68 0 0 1 .35 1.2l-7.85 6.31zm.13-3.07l.19-.03-.11.09-.08-.06z"/></svg>