<svg id="Layer_2" xmlns="http://www.w3.org/2000/svg" viewBox="0 0 24 24"><style>.st0{fill:#666}</style><path class="st0" d="M20.94 12.4c-.01-.29-.08-.56-.19-.82 1.69-2.79 1.53-6.06-.43-8.02-1.19-1.19-2.85-1.74-4.7-1.56-1.82.17-3.59 1.04-4.99 2.45-1.4 1.4-2.27 3.18-2.45 4.99-.12 1.23.09 2.39.6 3.37 0 .02-.01.04-.01.06 0 .01-.04.53-.27 1.03-.13.27-.27.47-.38.61a1.136 1.136 0 0 0-1.33.2L2.4 19.1c-.44.44-.44 1.16 0 1.6l.78.78a1.136 1.136 0 0 0 1.6 0l4.39-4.39c.36-.36.43-.9.2-1.33.14-.11.34-.25.61-.38.49-.23 1.02-.27 1.03-.27.02 0 .04 0 .06-.01.82.42 1.75.63 2.72.63 1.32 0 2.71-.39 4-1.18.26.11.53.18.82.18h.08c.6 0 1.16-.23 1.59-.66.42-.42.66-.99.66-1.59v-.07-.01zm-2.63 1.58a1.546 1.546 0 0 1-1.1-1.09c.47-.07.92-.29 1.26-.63.34-.34.56-.79.63-1.26a1.546 1.546 0 0 1 1.09 1.1 2.236 2.236 0 0 0-1.88 1.88zm.39-3.74c-.6 0-1.16.23-1.59.66a2.248 2.248 0 0 0-.64 1.88c-.87.49-1.83.75-2.72.72-.96-.03-1.79-.36-2.4-.97-1.57-1.57-1.2-4.51.83-6.54 1-1 2.23-1.62 3.48-1.77 1.22-.14 2.31.19 3.06.94 1.2 1.2 1.3 3.24.26 5.1-.09-.01-.19-.02-.28-.02zm-.31.74a1.535 1.535 0 0 1-1.2 1.2c.06-.29.2-.57.42-.78.22-.22.49-.36.78-.42zm-9.71 5.61L4.3 20.97a.423.423 0 0 1-.6.01l-.78-.78a.417.417 0 0 1 0-.6l4.38-4.4c.08-.08.19-.12.3-.12.11 0 .22.04.3.12l.78.78c.17.17.17.44 0 .61zm1.01-1.85c-.34.16-.6.34-.77.49l-.26-.26c.14-.17.33-.43.49-.77.08-.18.15-.36.19-.52.13.16.27.32.41.47.15.15.3.29.47.41-.17.03-.35.1-.53.18zm.56-1.1c-1.03-1.03-1.52-2.5-1.36-4.13.16-1.66.96-3.28 2.24-4.56 2.64-2.64 6.54-3.04 8.7-.88 1.66 1.66 1.84 4.43.49 6.87l-.03-.03c-.18-.18-.39-.33-.61-.44.51-.96.76-1.97.72-2.96-.04-1.13-.44-2.11-1.18-2.84-.91-.91-2.2-1.31-3.64-1.14-1.41.17-2.79.87-3.9 1.97-1.11 1.11-1.81 2.49-1.97 3.9-.17 1.44.24 2.73 1.14 3.64.74.74 1.74 1.15 2.88 1.18h.14c.94 0 1.9-.25 2.81-.74.11.22.25.43.43.61.01.01.03.02.04.04-2.45 1.35-5.23 1.18-6.9-.49zm8.77.36c.06-.29.2-.56.42-.77.22-.22.48-.36.77-.42-.06.29-.2.56-.42.77-.22.21-.48.36-.77.42z"/></svg>