<svg id="Layer_2" xmlns="http://www.w3.org/2000/svg" viewBox="0 0 24 24"><style>.st0{fill:#666}</style><path class="st0" d="M12.08 21.99c-3.54 0-6.84-1.9-8.61-4.97a9.822 9.822 0 0 1-.99-7.53c.69-2.56 2.33-4.7 4.63-6.03a9.937 9.937 0 0 1 4.96-1.33c3.54 0 6.84 1.9 8.61 4.97 1.33 2.3 1.68 4.97.99 7.53a9.889 9.889 0 0 1-4.63 6.03 9.937 9.937 0 0 1-4.96 1.33zm-.01-19.03c-1.59 0-3.16.42-4.54 1.22A9.022 9.022 0 0 0 3.29 9.7a9.03 9.03 0 0 0 .91 6.91 9.121 9.121 0 0 0 7.89 4.55c1.59 0 3.16-.42 4.54-1.22a9.042 9.042 0 0 0 4.24-5.53c.63-2.35.31-4.8-.91-6.91a9.145 9.145 0 0 0-7.89-4.54z"/><path class="st0" d="M12.08 18.56c-2.32 0-4.48-1.25-5.63-3.25-.87-1.5-1.1-3.25-.65-4.93a6.443 6.443 0 0 1 3.03-3.95c.99-.57 2.11-.87 3.24-.87 2.32 0 4.48 1.25 5.63 3.25.87 1.5 1.1 3.25.65 4.93a6.443 6.443 0 0 1-3.03 3.95c-.98.57-2.1.87-3.24.87zm-.01-12.17c-.99 0-1.97.26-2.83.76a5.639 5.639 0 0 0-2.64 3.44c-.39 1.46-.19 2.99.57 4.3a5.69 5.69 0 0 0 4.92 2.84c.99 0 1.97-.26 2.83-.76a5.639 5.639 0 0 0 2.64-3.44c.39-1.46.19-2.99-.57-4.3a5.682 5.682 0 0 0-4.92-2.84z"/><path transform="rotate(-12.006 4.461 13.676)" class="st0" d="M2.73 13.26h3.46v.83H2.73z"/><path transform="rotate(-84.002 11.263 19.801)" class="st0" d="M9.53 19.39h3.46v.83H9.53z"/><path transform="rotate(-66.003 19.186 15.225)" class="st0" d="M18.77 13.5h.83v3.46h-.83z"/><path transform="rotate(-48.012 17.283 6.274)" class="st0" d="M15.55 5.86h3.46v.83h-3.46z"/><path transform="rotate(-30 8.184 5.319)" class="st0" d="M7.77 3.59h.83v3.46h-.83z"/><g><path class="st0" d="M14.67 15.96l-2.6-1.36-2.6 1.36.5-2.89-2.1-2.05 2.9-.42 1.3-2.63 1.3 2.63 2.9.42-2.1 2.05.5 2.89zm-2.59-2.3l1.5.79-.29-1.67 1.21-1.18-1.67-.24-.75-1.52-.75 1.52-1.67.24 1.21 1.18-.29 1.67 1.5-.79z"/></g></svg>