<svg id="Layer_2" xmlns="http://www.w3.org/2000/svg" viewBox="0 0 24 24"><style>.st0{fill:#666}</style><path class="st0" d="M8.22 5.6c0-.32-.32-.52-.83-.52s-.82.19-.82.52v2.53c0 .46.37.83.82.83h2.9v-.63h-2.9a.2.2 0 0 1-.2-.2V5.72c.06-.02.13-.02.2-.02s.15.01.2.02v2.21h2.7V7.3H8.22V5.6z"/><path class="st0" d="M13.59 7.68c0-3.15-2.56-5.71-5.71-5.71S2.17 4.53 2.17 7.68s2.56 5.71 5.71 5.71 5.71-2.56 5.71-5.71zm-5.71 5.11c-2.82 0-5.12-2.29-5.12-5.11 0-2.82 2.29-5.12 5.12-5.12 2.82 0 5.12 2.3 5.12 5.12 0 2.82-2.3 5.11-5.12 5.11z"/><path class="st0" d="M21.8 7.45v-.03h-6.23v.64h5.62V21.4H8.82v-6.01h-.64v6.64h13.65V7.45z"/><path class="st0" d="M18.54 15.64v-2.03H11.14V15.74h7.4v-.1zm-6.78-1.31h6.15v.69h-6.15v-.69zM11.13 16.97V19H18.53v-2.02H11.13zm6.78.63v.79h-6.15v-.79h6.15zM18.22 12.48h.31V10.45H14.1V12.48h4.12zm-3.5-1.41h3.19v.79h-3.19v-.79z"/></svg>