<svg id="Layer_2" xmlns="http://www.w3.org/2000/svg" viewBox="0 0 24 24"><style>.st0{fill:#666}</style><path class="st0" d="M22.01 8.61c0 .77-.54 1.41-1.26 1.58l-.02 4.92c0 1.32-1.08 2.39-2.4 2.39h-.87v1.77c0 1.32-1.08 2.39-2.4 2.39l-10.68-.03c-1.32 0-2.39-1.08-2.39-2.4l.02-12.25c0-1.31 1.06-2.38 2.37-2.39V3.38c0-.58.47-1.04 1.05-1.04l8.64.01c.58 0 1.04.47 1.04 1.05v1.21c1.31.01 2.37 1.08 2.37 2.39l-.02 9.75h.87c.91 0 1.65-.74 1.65-1.65l.02-4.92a1.63 1.63 0 0 1-1.25-1.58 1.63 1.63 0 0 1 3.26.01zM5.43 3.08a.3.3 0 0 0-.3.3v1.21l9.24.01V3.39c0-.17-.13-.3-.3-.3l-8.64-.01zm11.29 16.18L16.74 7c0-.91-.74-1.65-1.65-1.65L4.41 5.33c-.91 0-1.65.74-1.65 1.65l-.02 12.26c0 .91.74 1.65 1.65 1.65l10.69.02c.9 0 1.64-.74 1.64-1.65zm3.66-9.77c.49 0 .88-.39.88-.88s-.39-.88-.88-.88-.88.39-.88.88c0 .48.4.88.88.88zM9.73 17.58c.41 0 .75-.33.75-.75s-.33-.75-.75-.75a.749.749 0 1 0 0 1.5zm0-2.24c.82 0 1.49.67 1.49 1.49s-.67 1.49-1.49 1.49-1.49-.67-1.49-1.49.67-1.49 1.49-1.49zm4.94-8.29c.2 0 .37.17.37.37l-.01 4.98c0 .2-.17.37-.37.37l-9.84-.02c-.2 0-.37-.17-.37-.37l.01-4.98c0-.21.17-.37.37-.37l9.84.02zm-.38 2.49V7.79h-2.54v1.75h2.54zm-3.28 2.49l.01-4.24H8.48l-.01 4.24h2.54zM5.2 7.78l-.01 4.24h2.54l.01-4.24H5.2zm6.55 4.25h2.54v-1.75h-2.54v1.75zm-5.82 3.31c.82 0 1.49.67 1.49 1.49s-.67 1.49-1.49 1.49-1.49-.67-1.49-1.49c0-.83.67-1.5 1.49-1.49zm0 2.23c.41 0 .75-.33.75-.75s-.33-.75-.75-.75a.749.749 0 1 0 0 1.5zm7.61-2.22c.82 0 1.49.67 1.49 1.49s-.67 1.49-1.49 1.49-1.49-.67-1.49-1.49c0-.83.66-1.49 1.49-1.49zm-.01 2.24a.749.749 0 1 0 0-1.5c-.41 0-.75.33-.75.75.01.41.34.74.75.75z"/></svg>