<svg id="Layer_2" xmlns="http://www.w3.org/2000/svg" viewBox="0 0 24 24"><style>.st0{fill:#666}</style><path class="st0" d="M12 19.86c-5.48 0-9.93-4.46-9.93-9.93V6.66c0-1.39 1.13-2.52 2.52-2.52h14.83c1.39 0 2.52 1.13 2.52 2.52v3.28c-.01 5.47-4.46 9.92-9.94 9.92zM4.59 4.97c-.93 0-1.69.76-1.69 1.69v3.28c0 5.02 4.08 9.1 9.1 9.1s9.1-4.08 9.1-9.1V6.66c0-.93-.76-1.69-1.69-1.69H4.59z"/><path class="st0" d="M12 14.48c-3.42 0-6.21-2.78-6.21-6.21h.83c0 2.97 2.41 5.38 5.38 5.38 2.97 0 5.38-2.41 5.38-5.38h.83c0 3.43-2.79 6.21-6.21 6.21z"/><path class="st0" d="M17.61 8.28h1.24v.83h-1.24z"/><path transform="rotate(-60 17.695 11.173)" class="st0" d="M17.28 10.55h.83v1.24h-.83z"/><path transform="rotate(-44.992 16.147 13.656)" class="st0" d="M15.73 13.03h.83v1.24h-.83z"/><g><path class="st0" d="M5.15 8.28h1.24v.83H5.15z"/><path transform="rotate(-29.991 6.306 11.173)" class="st0" d="M5.68 10.76h1.24v.83H5.68z"/><path transform="rotate(-45.001 7.853 13.656)" class="st0" d="M7.23 13.24h1.24v.83H7.23z"/></g><g><path class="st0" d="M9.52 6.62h4.97v.83H9.52z"/></g></svg>