<svg id="Layer_2" xmlns="http://www.w3.org/2000/svg" viewBox="0 0 24 24"><style>.st0{stroke:#000;stroke-width:2;stroke-miterlimit:10}.st0,.st1{fill:#666}</style><path class="st1" d="M21.79 21.72H2.21V7.85h19.58v13.87zm-18.76-.81h17.95V8.67H3.03v12.24z"/><path class="st1" d="M14.35 20.09H6.39c-1.4 0-2.54-1.14-2.54-2.54v-5.52c0-1.4 1.14-2.54 2.54-2.54h7.96c1.4 0 2.54 1.14 2.54 2.54v5.52c0 1.4-1.14 2.54-2.54 2.54zM6.39 10.3c-.95 0-1.73.78-1.73 1.73v5.52c0 .95.78 1.73 1.73 1.73h7.96c.95 0 1.73-.78 1.73-1.73v-5.52c0-.95-.78-1.73-1.73-1.73H6.39z"/><circle class="st1" cx="19.34" cy="12.34" r=".82"/><circle class="st1" cx="19.34" cy="15.6" r=".82"/><path class="st1" d="M14.96 8.67H9.04l.07-.47A2.942 2.942 0 0 1 12 5.71c1.43 0 2.68 1.07 2.89 2.49l.07.47zm-4.92-.82h3.91A2.105 2.105 0 0 0 12 6.53c-.87 0-1.64.54-1.96 1.32z"/><path transform="rotate(-45.001 9.011 4.458)" class="st1" d="M8.6 1.76h.82v5.39H8.6z"/><path transform="rotate(-45.001 14.913 4.533)" class="st1" d="M12.11 4.13h5.61v.82h-5.61z"/><g><path class="st1" d="M10.4 17.72c-.03.01-.07.01-.1.01-.51-.02-2.73-2.75-2.69-4.07a1.6 1.6 0 0 1 1.23-1.51c.14-.03.28-.05.42-.04.48.01.91.24 1.19.59.3-.33.76-.53 1.22-.51.88.03 1.58.77 1.55 1.65-.03 1.36-2.36 3.77-2.82 3.88zm-1.39-4.87c-.39.09-.67.44-.68.84-.03.91 1.47 2.74 2 3.25.56-.48 2.16-2.22 2.19-3.13.01-.49-.37-.9-.86-.91a.9.9 0 0 0-.88.65c-.04.16-.19.27-.36.26-.17 0-.31-.12-.34-.28a.876.876 0 0 0-.84-.7c-.08-.01-.16 0-.23.02z"/></g></svg>