<svg id="Layer_2" xmlns="http://www.w3.org/2000/svg" viewBox="0 0 24 24"><style>.st0,.st1{fill:#666}.st1{stroke:#000;stroke-width:2;stroke-miterlimit:10}</style><path class="st0" d="M10.89 16.47c-.32 0-.61-.23-.73-.57l-.01-.03H5.37c-.19 0-.35-.16-.35-.35 0-.19.16-.35.35-.35h5.09c.19 0 .35.16.35.35v.09c0 .09.04.14.05.15l.01.01h2.14l.01-.01c.02-.02.05-.08.05-.15v-.09c0-.19.16-.35.35-.35h5.09c.19 0 .35.16.35.35 0 .19-.16.35-.35.35h-4.78l-.01.03c-.11.34-.4.57-.73.57h-2.1z"/><path class="st0" d="M3.75 18.58c-.99 0-1.8-.8-1.8-1.79v-.96c0-.19.16-.35.35-.35h1.12V6.05c0-.65.53-1.17 1.17-1.17h14.66c.63 0 1.16.49 1.22 1.14v9.45h1.12c.19 0 .35.16.35.35v.96c0 .99-.81 1.8-1.8 1.8H3.75zm-1.1-1.8c0 .61.49 1.1 1.1 1.1h16.4c.61 0 1.1-.49 1.1-1.1v-.61h-1.12c-.19 0-.35-.16-.35-.35V6.07c-.03-.28-.26-.5-.52-.5H4.59a.48.48 0 0 0-.48.48v9.76c0 .19-.16.35-.35.35H2.65v.62z"/><path class="st0" d="M12.57 16.05c-.52-.58-1.46-2.19-1.81-3.31l-.99.16a.742.742 0 0 1-.85-.76c0-.22.1-.42.26-.56l1.06-.89.3-.76a.47.47 0 0 1 .29-.35c.18-.07.37-.02.5.12l.05.06c.65 1.1 1.81 1.86 2.36 2.17h4.59v.68h-4.76l-.08-.04c-.5-.28-1.65-1-2.44-2.08l-.25.62-1.19 1c-.01-.01-.01.02-.01.04s0 .04.03.07c.01.01.03.02.05.02l1.6-.26.07.31c.22.98 1.48 3 1.98 3.56l-.76.2z"/><path class="st0" d="M13.64 11.08c-.56 0-1.02-.46-1.02-1.02s.46-1.02 1.02-1.02 1.02.46 1.02 1.02-.46 1.02-1.02 1.02zm0-1.36c-.19 0-.34.15-.34.34 0 .19.15.34.34.34.19 0 .34-.15.34-.34 0-.19-.15-.34-.34-.34z"/><path class="st0" d="M16.09 14.88h-.03l-.63-.04.04-.67.47.03-.27-1.64c-.05-.19 0-.39.14-.53l.05-.05.07-.03c.66-.24.97-.67.94-.95-.04-.3-.48-.53-1.14-.6H14.6c-.07.19-.19.36-.36.48l.31.62c.09.18.07.4-.04.56l-.16.46-.64-.22.2-.57-.36-.71a.605.605 0 0 1-.04-.4l.05-.18.17-.05c.14-.04.23-.17.24-.31l.01-.18.16-.09c.09-.05.18-.08.28-.08h1.34c1.5.15 1.74.88 1.78 1.19.08.62-.4 1.24-1.2 1.59l.28 1.68c.05.16.01.34-.09.48a.55.55 0 0 1-.44.21zM5.76 6.52l-.04.01v8.92c0 .19-.16.35-.35.35-.19 0-.35-.16-.35-.35V6.71"/><path class="st0" d="M14.3 7.07l-.01-.03H5.37c-.19 0-.35-.16-.35-.35 0-.19.16-.35.35-.35h8.99M18.26 6.52l.03.01v8.92c0 .19.16.35.35.35.19 0 .35-.16.35-.35V6.71"/><path class="st0" d="M9.72 7.07l.01-.03h8.92c.19 0 .35-.16.35-.35 0-.19-.16-.35-.35-.35h-9"/></svg>