<svg id="Layer_2" xmlns="http://www.w3.org/2000/svg" viewBox="0 0 24 24"><style>.st0{fill:#666}</style><path class="st0" d="M20.33 4.32H3.75c-.92 0-1.66.74-1.66 1.66v11.6c0 .92.74 1.66 1.66 1.66h16.58c.92 0 1.66-.74 1.66-1.66V5.98c-.01-.92-.75-1.66-1.66-1.66zM8.52 9.77H8.1c-.23 0-.41-.19-.41-.41v-.42c0-.23.19-.41.41-.41h.41c.23 0 .41.19.41.41v.41c.01.24-.17.42-.4.42zm-5.6-3.79c0-.46.37-.83.83-.83H7.9v2.57c-.07.01-.13.03-.18.04l-1.4-.99c-.27-.19-.58-.29-.9-.29-.92 0-1.67.83-1.67 1.84v.4h-.83V5.98zm4.1 3.98l-1.31.59c-.1.04-.19.06-.29.06-.4 0-.83-.39-.83-1.01V8.32c0-.63.43-1.01.84-1.01.15 0 .29.05.42.14l1.2.86c-.12.18-.19.4-.19.63v.41c0 .23.06.43.16.61zm-3.27 8.45c-.46 0-.83-.37-.83-.83V9.54h.83v.07c0 1.01.75 1.84 1.66 1.84.22 0 .43-.05.63-.14l1.69-.76c.05.02.1.03.16.04v7.83H3.75zm17.41-.83c0 .46-.37.83-.83.83H8.72v-7.83c.05-.01.11-.02.16-.04l1.69.76c.2.09.42.14.63.14.44 0 .87-.2 1.18-.54.31-.35.48-.81.48-1.3v-.06h8.29v8.04zM9.58 8.3l1.2-.86a.73.73 0 0 1 .42-.14c.4 0 .84.39.84 1.01V9.6c0 .29-.1.55-.27.74-.23.26-.56.34-.86.2L9.6 9.96c.1-.18.16-.38.16-.6v-.42c0-.23-.07-.45-.18-.64zm11.58.41h-8.29v-.4c0-1.02-.75-1.84-1.67-1.84-.32 0-.63.1-.9.29l-1.4 1c-.05-.01-.11-.03-.18-.04V5.15h11.6c.46 0 .83.37.83.83v2.73z"/></svg>