<svg id="Layer_2" xmlns="http://www.w3.org/2000/svg" viewBox="0 0 24 24"><style>.st0{fill:#666}</style><path class="st0" d="M16.18 8.05c-.55 0-1.37.05-2.17.11-.79.05-1.61.1-2.14.1-.5 0-1.26-.05-2-.1-.76-.05-1.53-.11-2.05-.11-1.07 0-2.09.42-2.85 1.19-.06.06-.12.13-.18.19-.65.74-1.01 1.68-1.01 2.66 0 2.23 1.81 4.04 4.04 4.04 1.31 0 2.23-.65 2.97-1.17.47-.33.88-.62 1.24-.62s.78.3 1.28.64c.74.51 1.65 1.15 2.87 1.15.62 0 1.21-.14 1.76-.41.4-.2.77-.46 1.09-.78.76-.76 1.19-1.78 1.19-2.85-.01-2.23-1.82-4.04-4.04-4.04zm2.5 6.54c-.28.28-.6.51-.96.69-.48.24-1 .36-1.55.36-1.06 0-1.87-.56-2.59-1.06-.56-.39-1.04-.73-1.56-.73-.51 0-.98.33-1.52.71-.72.51-1.53 1.08-2.69 1.08-1.95 0-3.55-1.59-3.55-3.55 0-.86.31-1.69.88-2.34.05-.06.1-.11.16-.17.67-.67 1.56-1.04 2.5-1.04.5 0 1.26.05 2 .1.75.05 1.52.11 2.04.11.55 0 1.37-.05 2.17-.11.79-.05 1.61-.1 2.14-.1a3.55 3.55 0 0 1 3.55 3.55c.02.94-.35 1.83-1.02 2.5z"/><path class="st0" d="M21.9 9.79a.221.221 0 0 0-.19-.06l-1.05.09a5.035 5.035 0 0 0-3.08-2.56c-.47-.14-2.71-.41-5.73-.41-3.04 0-4.97.27-5.43.41a5.084 5.084 0 0 0-3.1 2.56l-1.04-.1c-.07 0-.13.02-.18.07-.06.04-.08.11-.08.18v3.79c0 .13.1.23.22.24l.97.09c.8 1.85 2.6 3.03 4.62 3.03 1.67 0 2.8-.75 3.54-1.24.52-.35.83-.34 1.38.02.74.49 1.86 1.22 3.43 1.22a5.01 5.01 0 0 0 4.61-3.03l.97-.09a.24.24 0 0 0 .22-.24V9.97c0-.07-.02-.14-.08-.18zm-19.39.44l.62.05c-.13.34-.22.69-.28 1.05-.04.24-.06.5-.06.75 0 .16.01.32.02.48.03.34.1.68.2 1.01l-.51-.05v-3.29zm13.67 6.4c-1.43 0-2.47-.69-3.16-1.14-.36-.24-.67-.36-.98-.36-.3 0-.6.11-.94.34-.69.46-1.74 1.16-3.27 1.16-1.87 0-3.53-1.12-4.22-2.86a4.477 4.477 0 0 1-.32-1.69 4.548 4.548 0 0 1 3.28-4.37c.42-.12 2.34-.39 5.29-.39 3.03 0 5.2.28 5.59.39a4.595 4.595 0 0 1 3.02 2.87 4.561 4.561 0 0 1-.07 3.17c-.06.16-.13.31-.21.45a4.51 4.51 0 0 1-4.01 2.43zm5.31-3.1l-.51.05c.15-.48.23-.98.23-1.49 0-.57-.09-1.13-.28-1.66l-.06-.15.62-.05v3.3z"/><path class="st0" d="M16.37 13.9l-.66-.32a.248.248 0 0 0-.33.11c-.06.12-.01.27.11.33l.66.32c.03.02.07.02.11.02.09 0 .18-.05.22-.14.07-.11.02-.26-.11-.32zM14.4 12.92c-1.1-.55-2.22-1.08-3.3-1.59l-.76-.36a.244.244 0 0 0-.33.12c-.06.12-.01.27.11.33l4.01 1.95c.03.02.07.02.11.02h.04c.11 0 .21-.07.24-.18a.23.23 0 0 0-.12-.29zM10.19 12.6c-.48-.24-1.97-.95-2.32-1.12a.244.244 0 0 0-.22.01.26.26 0 0 0-.13.18c-.02.12.01.18.14.25.02.01.03.02.05.03.05.03.11.05.18.09l.57.28c.52.25 1.15.56 1.51.74.03.02.07.03.11.03.05 0 .09-.01.13-.04.07-.05.12-.13.11-.21v-.01c.01-.1-.05-.19-.13-.23zM8.63 10.69c.04.02.08.03.11.03.06 0 .13-.03.17-.08.06-.06.09-.14.07-.22a.242.242 0 0 0-.13-.18l-1.07-.52a.248.248 0 0 0-.33.11c-.06.12-.01.27.11.33.36.18.72.36 1.07.53z"/></svg>