<svg id="Layer_2" xmlns="http://www.w3.org/2000/svg" viewBox="0 0 24 24"><style>.st0{fill:#666}</style><path class="st0" d="M20.95 8.4h-.46V4.89a2.1 2.1 0 0 0-2.1-2.1H4.05a2.1 2.1 0 0 0-2.1 2.1v14.16c0 1.16.94 2.1 2.1 2.1H18.4a2.1 2.1 0 0 0 2.1-2.1v-3.52h.46c.57 0 1.03-.46 1.03-1.03V9.43c-.01-.57-.47-1.03-1.04-1.03zm-1.19 10.64c0 .75-.61 1.36-1.36 1.36H4.05c-.75 0-1.36-.61-1.36-1.36V4.89c0-.75.61-1.36 1.36-1.36H18.4c.75 0 1.36.61 1.36 1.36V8.4h-4.2c-1.76 0-3.2 1.43-3.2 3.2v.73c0 1.76 1.43 3.2 3.2 3.2h4.2v3.51zm1.49-4.55a.3.3 0 0 1-.3.3h-5.39c-1.36 0-2.46-1.1-2.46-2.46v-.73c0-1.36 1.1-2.46 2.46-2.46h5.39c.16 0 .3.13.3.3v5.05z"/><path class="st0" d="M15.9 10.26c-.94 0-1.7.76-1.7 1.7s.76 1.7 1.7 1.7 1.7-.76 1.7-1.7-.77-1.7-1.7-1.7zm0 2.67a.97.97 0 1 1 .97-.97c-.01.54-.44.97-.97.97z"/></svg>