<svg id="Layer_2" xmlns="http://www.w3.org/2000/svg" viewBox="0 0 24 24"><style>.st0{fill:#666}</style><path class="st0" d="M20.39 10.29L18.8 9.03V2.69c0-.36-.3-.66-.66-.66H5.86c-.36 0-.66.3-.66.66v6.34l-1.58 1.25c-.08.06-.12.15-.12.25v10.24c0 .55.45 1 1 1h15.01c.55 0 1-.45 1-1V10.54c0-.1-.05-.19-.12-.25zm-.52 10.48v.02L13.81 16l6.06-4.8v9.57zm-15.74 0V11.2l6.06 4.8-6.06 4.8v-.03zm9.15-5.17c-.76.6-1.81.6-2.57 0l-1.24-.99h5.06l-1.25.99zm-2.56.8c.01-.01.02-.02.03-.02.39.21.82.31 1.25.31.43 0 .86-.1 1.25-.31.01.01.02.01.03.02l5.99 4.74H4.73l5.99-4.74zm8.95-5.86l-.87.69V9.85l.87.69zM5.86 2.67h12.28c.01 0 .02.01.02.02v9.04l-2.83 2.24H8.66l-2.83-2.24V2.69c.01-.01.02-.02.03-.02zm-.66 8.56l-.87-.69.87-.69v1.38z"/><path class="st0" d="M7.91 5.06h2.39c.18 0 .32-.14.32-.32s-.14-.32-.32-.32H7.91c-.18 0-.32.14-.32.32 0 .17.14.32.32.32zM7.91 6.76h3.75c.18 0 .32-.14.32-.32s-.14-.32-.32-.32H7.91c-.18 0-.32.14-.32.32s.14.32.32.32zM9.63 9.17c0 .18.14.32.32.32h4.09c.18 0 .32-.14.32-.32s-.14-.32-.32-.32H9.95c-.17 0-.32.15-.32.32zM7.91 11.2h8.19c.18 0 .32-.14.32-.32s-.14-.32-.32-.32H7.91c-.18 0-.32.14-.32.32s.14.32.32.32zM7.91 12.9h8.19c.18 0 .32-.14.32-.32s-.14-.32-.32-.32H7.91c-.18 0-.32.14-.32.32s.14.32.32.32z"/></svg>