<svg id="Layer_1" data-name="Layer 1" xmlns="http://www.w3.org/2000/svg" viewBox="0 0 58.84473 70.91992"><defs><style>.cls-1{fill:#41494f;}</style></defs><title>Baccarat</title><path class="cls-1" d="M56.34473,22.64063H23.62988a2.50232,2.50232,0,0,0-2.5,2.5v43.2793a2.50232,2.50232,0,0,0,2.5,2.5H56.34473a2.50232,2.50232,0,0,0,2.5-2.5V25.14063A2.50232,2.50232,0,0,0,56.34473,22.64063Zm-.5,45.2793H24.12988V25.64063H55.84473Z"/><path class="cls-1" d="M3.00879,3l31.70508.00977V19.6123h3V3.00977A3.01287,3.01287,0,0,0,34.70508,0H3.00879A3.01287,3.01287,0,0,0,0,3.00977V46.78027a3.012,3.012,0,0,0,3.00879,3.00879H18.10254v-3L3,46.78027Z"/><path class="cls-1" d="M44.09961,55.88379l-.37012-.09277a16.16617,16.16617,0,0,0-3.74219-.61328,16.16617,16.16617,0,0,0-3.74219.61328l-.37012.09277a1.49972,1.49972,0,0,0,.67773,2.92188l.43262-.10742a14.06927,14.06927,0,0,1,3.002-.52051,14.06927,14.06927,0,0,1,3.002.52051l.43262.10742a1.49972,1.49972,0,1,0,.67773-2.92187Z"/><path class="cls-1" d="M33.74707,53.52051a6.99666,6.99666,0,0,0,2.90918.5459,7.86991,7.86991,0,0,0,3.33105-.67578,8.28722,8.28722,0,0,0,6.24023.12988,6.14215,6.14215,0,0,0,3.56055-5.86914c0-3.124-2.83008-5.38477-5.32715-7.37891-1.31152-1.04687-2.79687-2.2334-3.04492-3.00684a1.5,1.5,0,0,0-2.85645-.001c-.249.77441-1.73535,1.96094-3.0459,3.00781-2.49707,1.99414-5.32812,4.25488-5.32812,7.37891A6.14331,6.14331,0,0,0,33.74707,53.52051Zm3.63867-10.9043a27.4135,27.4135,0,0,0,2.60156-2.25293,27.4356,27.4356,0,0,0,2.60156,2.25391c1.96777,1.57227,4.19922,3.35352,4.19922,5.03418a3.15838,3.15838,0,0,1-1.88281,3.17578c-.78125.38281-3.1709.3457-3.91113-.32324a1.49981,1.49981,0,0,0-2.01367,0c-.74023.668-3.12891.707-3.91113.32324a3.15777,3.15777,0,0,1-1.88379-3.17578C33.18555,45.9707,35.417,44.18848,37.38574,42.61621Z"/><path class="cls-1" d="M10.5459,34.90332V14.88672a6.05416,6.05416,0,0,0,4.33984-4.33984h7.94238A6.05451,6.05451,0,0,0,27.167,14.88672V19.6123h3V12.0752h-1.5a3.03141,3.03141,0,0,1-3.02734-3.02832v-1.5H12.07422v1.5A3.03162,3.03162,0,0,1,9.0459,12.0752h-1.5V37.71484h1.5a3.03162,3.03162,0,0,1,3.02832,3.02832v1.5h6.02832v-3h-3.2168A6.05416,6.05416,0,0,0,10.5459,34.90332Z"/><rect class="cls-1" x="6.03711" y="6.02832" width="3" height="3.01855"/><rect class="cls-1" x="6.03711" y="40.74316" width="3" height="3.01855"/><rect class="cls-1" x="28.67676" y="6.02832" width="3" height="3.01855"/></svg>