<svg id="Layer_1" data-name="Layer 1" xmlns="http://www.w3.org/2000/svg" viewBox="0 0 61.33301 67.16699"><defs><style>.cls-1{fill:#41494f;}</style></defs><title>Blackjack</title><path class="cls-1" d="M44.02344,13.21143C38.51465,8.874,33.311,4.77734,32.09277,1.03564a1.49994,1.49994,0,0,0-2.85254,0C28.022,4.77734,22.81836,8.874,17.30957,13.21143,9.1958,19.59961,0,26.84033,0,35.89258c0,7.94678,3.50244,13.67285,10.41064,17.01855A18.78239,18.78239,0,0,0,25.856,52.688a10.3127,10.3127,0,0,1-7.14111,7.13135A1.5,1.5,0,0,0,17.5,61.27c-.00537.38965.002,3.855,1.98779,5.54053a1.50121,1.50121,0,0,0,1.30615.31836c.29883-.06836.61572-.14551.95264-.22705A35.16158,35.16158,0,0,1,30.6665,65.7085a35.1626,35.1626,0,0,1,8.92041,1.19336c.33691.08154.65332.15869.95215.22705a1.50013,1.50013,0,0,0,1.30664-.31836C43.832,65.125,43.83887,61.65918,43.833,61.27a1.5,1.5,0,0,0-1.21484-1.45068,10.31131,10.31131,0,0,1-7.14062-7.13086,18.78415,18.78415,0,0,0,15.44531.22266C57.83008,49.56543,61.333,43.83936,61.333,35.89258,61.333,26.84033,52.13672,19.59961,44.02344,13.21143Zm5.59082,36.99951C46.1377,51.896,38.7832,52.25781,34.58252,48.50635a1.49983,1.49983,0,0,0-2.499,1.11865A13.47574,13.47574,0,0,0,40.751,62.39111a5.47581,5.47581,0,0,1-.45117,1.59668l-.00684-.00146a36.89909,36.89909,0,0,0-19.25293,0l-.00635.00146a5.46506,5.46506,0,0,1-.45117-1.59668A13.4764,13.4764,0,0,0,29.25,49.625a1.49983,1.49983,0,0,0-2.499-1.11865c-4.20215,3.751-11.55469,3.38916-15.03271,1.70459C5.85156,47.36963,3,42.686,3,35.89258c0-7.59619,8.58838-14.35791,16.16553-20.32373,4.65527-3.666,9.10645-7.17041,11.501-10.75879C33.061,8.39844,37.51221,11.90283,42.168,15.56885c7.57715,5.96582,16.165,12.72754,16.165,20.32373C58.333,42.686,55.48145,47.36963,49.61426,50.21094Z"/><path class="cls-1" d="M28.67529,10.4751c-.13623.15186-.31592.36572-.53223.62354A24.07071,24.07071,0,0,1,24.56934,14.731L9.52686,27.47266c-.02588.022-.05078.04492-.07568.06885-1.87939,1.82568-3.72656,5.00977-3.61963,7.563A1.49974,1.49974,0,0,0,7.3291,36.542c.021,0,.04248-.00049.06348-.00146a1.49951,1.49951,0,0,0,1.436-1.561c-.05811-1.394,1.14014-3.74072,2.67822-5.252L26.44922,17.06787a26.426,26.426,0,0,0,3.99316-4.04248c.18945-.22607.34619-.41357.46533-.54639a1.49995,1.49995,0,1,0-2.23242-2.00391Z"/></svg>