<svg id="Layer_1" data-name="Layer 1" xmlns="http://www.w3.org/2000/svg" viewBox="0 0 55.45801 40.31592"><defs><style>.cls-1{fill:#41494f;}</style></defs><title>HiLo</title><polygon class="cls-1" points="9.699 18.232 13.349 18.232 13.349 2.047 9.699 2.047 9.699 8.266 3.674 8.266 3.674 2.047 0 2.047 0 18.232 3.674 18.232 3.674 11.461 9.699 11.461 9.699 18.232"/><rect class="cls-1" x="16.55188" y="2.04718" width="3.67365" height="16.18433"/><polygon class="cls-1" points="32.955 21.693 29.281 21.693 29.281 37.877 39.389 37.877 39.389 34.804 32.955 34.804 32.955 21.693"/><path class="cls-1" d="M47.77441,21.42883c-4.77828,0-7.87518,3.62671-7.87518,8.47736,0,4.61011,2.80951,8.23486,7.61127,8.23486,4.72937,0,7.94751-3.21808,7.94751-8.52423C55.458,25.15137,52.74432,21.42883,47.77441,21.42883Zm-.07233,13.80695c-2.44781,0-3.93756-2.23273-3.93756-5.402,0-3.14575,1.44092-5.49969,3.91412-5.49969,2.52008,0,3.91412,2.49866,3.91412,5.40393C51.59277,32.88379,50.17529,35.23578,47.70209,35.23578Z"/><polygon class="cls-1" points="38.416 0 7.878 38.74 10.542 40.316 41.077 1.575 38.416 0"/></svg>