<svg id="Layer_1" data-name="Layer 1" xmlns="http://www.w3.org/2000/svg" viewBox="0 0 59.75104 63.9292"><defs><style>.cls-1{fill:#41494f;}</style></defs><title>Holdem</title><path class="cls-1" d="M44.68121,24.05811a17.72467,17.72467,0,0,0-2.001.11426,20.28263,20.28263,0,0,0,2.2666-9.1026,15.07132,15.07132,0,0,0-30.14264,0,17.681,17.681,0,0,0,2.60065,8.85944,15.07179,15.07179,0,1,0-2.334,29.96191,19.31405,19.31405,0,0,0,8.93414-2.31543,43.39519,43.39519,0,0,1-5.35254,8.01758l-.35156.41895v3.917h23.4585v-3.918l-.35162-.41791a43.42483,43.42483,0,0,1-5.22119-7.76569,17.57816,17.57816,0,0,0,8.49469,2.37213,15.0708,15.0708,0,0,0,0-30.1416ZM38.62012,60.9292H21.44a45.6151,45.6151,0,0,0,7.57953-13.37213l1.01416-2.8222.97223,2.72363A45.59569,45.59569,0,0,0,38.62012,60.9292Zm6.0611-9.72949A16.03183,16.03183,0,0,1,33.5249,45.94189l-2.8183-3.0791-.5415-.5918-.73926.75977-2.89313,2.97363A16.78885,16.78885,0,0,1,15.0708,50.89111a12.0708,12.0708,0,1,1,0-24.1416,14.64641,14.64641,0,0,1,5.63281,1.21875l6.6651,2.82031-4.99518-5.2373A16.03784,16.03784,0,0,1,17.8042,15.06976a12.07132,12.07132,0,0,1,24.14264,0,17.21405,17.21405,0,0,1-3.63184,10.377l-3.044,3.8291L39.93854,27.812a15.85167,15.85167,0,0,1,4.74268-.75391,12.0708,12.0708,0,0,1,0,24.1416Z"/></svg>