<svg id="Layer_1" data-name="Layer 1" xmlns="http://www.w3.org/2000/svg" viewBox="0 0 187.09 112.77"><defs><style>.cls-1,.cls-2{fill:#8ea8c1;fill-rule:evenodd}.cls-2{fill:#fff}</style></defs><title>Maestro</title><path class="cls-1" d="M106.49 54c0 1.08.34 1.35 3.3 2.52a12.31 12.31 0 0 1 2.12 1.07v-1.26c0-1.4-.07-2.79-.17-4.17-.66 0-1.29-.06-1.83-.06-2.25.05-3.42.7-3.42 1.9zM59 63.51a2.28 2.28 0 0 0 2.5 2.37c2.84 0 4.88-2.38 5-5.81A12.78 12.78 0 0 0 65 60c-4 0-6 1.16-6 3.51zM90.83 54.91c0-1.89-1.22-3-3.3-3s-3.8 1.49-4.44 4.17h7.68q.05-.71.06-1.17z"/><path class="cls-1" d="M103.88 70.8q-1.37 0-3.89-.19-1.22-.09-1.84-.2l-1.29-.24-.31-.05 1-5.36a22.54 22.54 0 0 0 6.32.92c2.79 0 4-.65 4-2.1 0-1.06-.44-1.4-3.29-2.57-3.72-1.52-5.37-3.54-5.37-6.48 0-4.29 2.7-7.86 10.59-7.86h1.3a56.41 56.41 0 0 0-17.56-32.1A55.54 55.54 0 0 0 56 0C25.06 0 0 25.25 0 56.39s25.06 56.39 56 56.39a55.54 55.54 0 0 0 37.54-14.6 56.43 56.43 0 0 0 16.77-28.34 18.1 18.1 0 0 1-6.43.96zM42 70.43l4.14-22-9.53 22h-6.34l-1.16-21.85L25 70.43h-6.37L24 41.84h10.9l.58 17.7 7.66-17.7h11.33L49 70.43h-7zm31.69-12.35l-1.46 8.25-.23 1.48-.19 1.19-.12.81-.07.63h-5.78L66 68c-1.76 1.91-4.11 2.81-7.31 2.81a6.06 6.06 0 0 1-6.37-6.35c0-5.66 4.5-9 12.24-9a26.72 26.72 0 0 1 2.84.18 5.08 5.08 0 0 0 .27-1.51c0-1.54-1.22-2.11-4.47-2.11a25.58 25.58 0 0 0-5.79.65l-1 .25-.63.15 1-5.23a31.31 31.31 0 0 1 8.34-1.23c6 0 9.15 2.36 9.15 6.82a24.08 24.08 0 0 1-.58 4.65zm14.71 7.51a18.44 18.44 0 0 0 7.23-1.47l-1.16 5.81a27 27 0 0 1-7.14.94c-7.79 0-11.85-3.58-11.85-10.42 0-8 5.16-13.86 12.17-13.86 5.74 0 9.4 3.29 9.4 8.45a22.14 22.14 0 0 1-.86 5.74H82.36a4.48 4.48 0 0 0-.07.73c0 2.7 2.07 4.08 6.11 4.08z"/><path class="cls-2" d="M179.63 87.82a1.81 1.81 0 1 1 1.81 1.82 1.81 1.81 0 0 1-1.81-1.82zm1.81 1.38a1.38 1.38 0 1 0-1.37-1.38 1.38 1.38 0 0 0 1.37 1.38zm-.24-.58h-.37V87h.67a.72.72 0 0 1 .4.08.48.48 0 0 1 .2.4.44.44 0 0 1-.27.41l.29.71h-.41l-.24-.6h-.27v-.29h.2a.46.46 0 0 0 .23 0 .22.22 0 0 0 .09-.18.2.2 0 0 0-.09-.16.5.5 0 0 0-.24 0h-.2v1.31zM169.56 68.09h-.2v.41h.2a.45.45 0 0 0 .23 0 .22.22 0 0 0 .09-.18.2.2 0 0 0-.09-.16.49.49 0 0 0-.23-.07z"/><path class="cls-2" d="M169.6 67.22a1.38 1.38 0 1 0 1.4 1.39 1.38 1.38 0 0 0-1.4-1.39zm.27 2.18l-.24-.63h-.27v.63H169v-1.6h.67a.72.72 0 0 1 .4.08.48.48 0 0 1 .2.4.43.43 0 0 1-.28.41l.29.71h-.41zM157.82 52.18c-3.55 0-5.76 4.23-5.76 8 0 3.15 1.51 5.27 4 5.22 1.51 0 4.73-2.07 5.37-5.69a16 16 0 0 0 .23-2.78c0-2.45-.98-4.75-3.84-4.75z"/><path class="cls-2" d="M131.12 0a55.54 55.54 0 0 0-37.58 14.59 56.68 56.68 0 0 0-5.65 6h11.3a56.69 56.69 0 0 1 4.27 6H83.63a56.43 56.43 0 0 0-3.23 6h26.28a56 56 0 0 1 2.37 6H78a56.35 56.35 0 0 0-1.63 6h34.28c.16.74.29 1.5.42 2.25 1.56.07 3.5.23 4.9.42l-1 5.38c-1.09-.13-2.2-.23-3.23-.29.1 1.38.17 2.77.17 4.17v1.26a5.82 5.82 0 0 1 2.84 5.22c0 3.41-1.43 5.63-4.42 6.79q-.55 2.27-1.28 4.46H78a56 56 0 0 0 2.37 6h26.28a56.61 56.61 0 0 1-3.22 6h-19.8a56.6 56.6 0 0 0 4.27 6h11.3a56.67 56.67 0 0 1-5.65 6 55.54 55.54 0 0 0 37.57 14.59c30.91 0 56-25.25 56-56.39S162 0 131.12 0zm-5.24 65.22a6.52 6.52 0 0 0 1.88-.22l-.92 5.14a17.92 17.92 0 0 1-5 .76c-3.57 0-5.51-1.8-5.51-5.11a11.68 11.68 0 0 1 .21-2.09l.42-2.27.33-1.84 3.23-17.75h6.93l-1 5.34H130l-1 5.65h-3.57l-1.84 9.7a5.53 5.53 0 0 0-.12 1c.02 1.16.75 1.69 2.4 1.69zM143 53.72c-3.34 0-4.41 2.49-6.91 16.71h-7l4.25-23.25h6.31L139 50.7c2.13-2.75 3.78-3.78 6.07-3.78a3.9 3.9 0 0 1 .7.06l.6.14a3.75 3.75 0 0 1 .79.25l-2.52 6.57-.82-.17a7.87 7.87 0 0 0-.82-.05zm12.3 17.33c-7.88 0-11.07-4.82-11.07-10.72 0-8.24 5.39-13.82 13.72-13.82C165.18 46.51 169 51.1 169 57a14.79 14.79 0 0 1-.19 2.88c-1.02 7.74-6.38 11.17-13.51 11.17zm14.31-.62a1.82 1.82 0 1 1 1.81-1.82 1.81 1.81 0 0 1-1.82 1.82z"/></svg>