<svg id="Layer_1" data-name="Layer 1" xmlns="http://www.w3.org/2000/svg" viewBox="0 0 211.51 126.56"><defs><style>.cls-1{fill:#8ea8c1}.cls-2{fill:#fff}</style></defs><title>MasterCard</title><path class="cls-1" d="M43.08 72.17a2.4 2.4 0 0 0 2.46 2.66c2.8 0 4.82-2.66 4.93-6.53a11.45 11.45 0 0 0-1.53-.11c-3.89.01-5.86 1.34-5.86 3.98zM99.93 59.62c-2.17 0-3.73 1.66-4.36 4.66h7.54c.03-1 .72-4.66-3.18-4.66z"/><path class="cls-1" d="M124.59 66.53a25.5 25.5 0 0 1 1.66-9.35 63.25 63.25 0 1 0-.48 16 18 18 0 0 1-1.18-6.65zm-97.9 13.75l3.94-24.67-8.79 24.67h-4.68l-.58-24.53-4.13 24.53H6l5.37-32h9.88l.28 19.87 6.67-19.87h10.68l-5.31 32h-6.88zm23.09 0l.13-2.88c-1.74 2.13-4.05 3.07-7.2 3.07-3.72 0-6.28-3-6.28-7.18 0-6.36 4.44-10.08 12.06-10.08a22.76 22.76 0 0 1 2.8.19 6.47 6.47 0 0 0 .27-1.7c0-1.73-1.2-2.37-4.41-2.37a22.82 22.82 0 0 0-7.27 1.17c.07-.43 1-5.87 1-5.87a27.38 27.38 0 0 1 8.22-1.38c5.9 0 9 2.65 9 7.65a35.24 35.24 0 0 1-.56 5.35c-.6 3.78-1.88 12-2.05 14h-5.7zM69.9 64.39c3.44 1.58 4.84 3.68 4.84 7.27 0 6-3.35 8.72-10.6 8.72a31.82 31.82 0 0 1-7.14-.77l.94-6a19.36 19.36 0 0 0 6.16 1c2.72 0 3.95-.73 3.95-2.36 0-1.19-.43-1.57-3.21-2.88-3.63-1.71-5.23-4-5.23-7.29 0-4.82 2.64-8.84 10.32-8.84a46.74 46.74 0 0 1 6 .51l-1 6.05a38.18 38.18 0 0 0-4.94-.4c-2.22 0-3.36.73-3.36 2.14.06 1.23.37 1.52 3.27 2.85zM85.07 74a5.5 5.5 0 0 0 1.85-.25L86 79.54a15.7 15.7 0 0 1-4.93.85c-3.51 0-5.43-2-5.43-5.73a58.48 58.48 0 0 1 .94-6.76c.4-2.44 3-17.61 3-17.61h6.83l-.8 4h3.5l-.93 6h-3.53c-.79 5-1.92 11.06-1.94 11.88 0 1.34.72 1.83 2.36 1.83zm15.93.56a16.24 16.24 0 0 0 7.1-1.69l-1.14 6.47a23.38 23.38 0 0 1-7 1c-7.65 0-11.63-4-11.63-11.65 0-8.93 5.07-15.5 11.95-15.5 5.63 0 9.23 3.76 9.23 9.53a31.63 31.63 0 0 1-.84 6.5H95c-.42 4.06 2 5.34 6 5.34zm15.33 5.71h-6.87l.31-1.71c1.19-8.08 2.72-16.29 3.59-24.29h6.31a24.88 24.88 0 0 1-.41 3.74c2.1-3.09 3.71-4.83 6.59-4.23a26.74 26.74 0 0 0-2.61 7.69c-3.88-.39-4.47 2.81-6.93 18.81z"/><path class="cls-2" d="M191.73 60c-3.12 0-5.33 3.64-5.33 8.77 0 3.42 1.19 5.14 3.52 5.14 3.2 0 5.45-3.62 5.45-8.79 0-3.33-1.28-5.12-3.64-5.12zM205.07 77.31h-.22v.46h.23a.51.51 0 0 0 .26 0 .25.25 0 0 0 .1-.21.24.24 0 0 0-.1-.19.59.59 0 0 0-.27-.06z"/><path class="cls-2" d="M148.23 0a63.14 63.14 0 0 0-42.48 16.48 33.67 33.67 0 0 0-6.39 6.8h12.78a30.32 30.32 0 0 1 4.82 7H94.54c-1.34 2-2.56 4-3.65 6h29.72c1 2 1.91 5 2.68 7H88.22a35.75 35.75 0 0 0-1.84 7h38.76c.27 1 .49 2 .68 3v.2c.18 1.16.32 2.43.43 3.61 2.46-6.25 7.47-10.09 13.82-10.09a23.64 23.64 0 0 1 7.55 1.69l-1.12 7a13.1 13.1 0 0 0-6.14-1.73c-5.13 0-8.73 5-8.73 12 0 4.87 2.42 7.82 6.41 7.82a13.3 13.3 0 0 0 5.83-1.65l-1.21 7.31a21.42 21.42 0 0 1-6.07.94 11 11 0 0 1-10.82-7.22 56 56 0 0 1-2.48 10.11H88.22c.77 2 1.66 5 2.68 7h29.73c-1.09 2-2.3 4-3.65 7H94.54q2.2 3 4.83 6h12.78a33.42 33.42 0 0 1-6.39 6.8A63.25 63.25 0 1 0 148.23 0zm15.47 80.28H158l.13-2.88c-1.74 2.13-4.05 3.07-7.2 3.07-3.73 0-6.28-3-6.28-7.18 0-6.36 4.44-10.08 12.06-10.08a22.7 22.7 0 0 1 2.8.19 6.48 6.48 0 0 0 .27-1.7c0-1.73-1.19-2.37-4.4-2.37a22.85 22.85 0 0 0-7.27 1.17c.07-.43 1-5.87 1-5.87a27.38 27.38 0 0 1 8.22-1.38c5.9 0 9 2.65 9 7.65a35 35 0 0 1-.55 5.35c-.63 3.75-1.9 12.03-2.08 14.03zm9.16 0H166l.31-1.71c1.2-8.08 2.72-16.29 3.58-24.29h6.31a25.2 25.2 0 0 1-.41 3.74c2.11-3.09 3.71-4.83 6.59-4.23a26.58 26.58 0 0 0-2.61 7.69c-3.86-.4-4.45 2.8-6.91 18.8zm20.7 0l.32-2.6a8 8 0 0 1-6.33 2.8c-5 0-8.29-4.35-8.29-10.88 0-8.68 5.12-16 11.18-16 2.66 0 4.68 1.3 6.56 3.77l1.52-9.07h6.78l-5.23 32h-6.5zm11.56-.35a2 2 0 1 1 2-2 2 2 0 0 1-2 2z"/><path class="cls-2" d="M205.12 76.34a1.55 1.55 0 1 0 1.56 1.55 1.55 1.55 0 0 0-1.56-1.55zm.31 2.45l-.28-.71h-.31v.71h-.42V77h.76a.84.84 0 0 1 .46.09.53.53 0 0 1 .23.45.49.49 0 0 1-.31.46l.33.79h-.46zM151.31 72.17a2.4 2.4 0 0 0 2.46 2.66c2.8 0 4.82-2.66 4.93-6.53a11.38 11.38 0 0 0-1.53-.11c-3.89.01-5.86 1.34-5.86 3.98zM203.08 98.55a2 2 0 1 1 2 2 2 2 0 0 1-2-2zm2 1.55a1.55 1.55 0 1 0-1.55-1.55 1.56 1.56 0 0 0 1.59 1.56zm-.28-.66h-.42v-1.78h.76a.85.85 0 0 1 .46.09.56.56 0 0 1 .23.45.49.49 0 0 1-.31.46l.33.79h-.46l-.28-.71h-.31v.71zm0-1h.23a.54.54 0 0 0 .26 0 .25.25 0 0 0 .11-.21.24.24 0 0 0-.1-.18.57.57 0 0 0-.27 0h-.22v.46z"/><path class="cls-2" d="M205.12 75.85a2 2 0 1 0 2 2 2 2 0 0 0-2-2zm0 3.6a1.55 1.55 0 1 1 1.56-1.55 1.55 1.55 0 0 1-1.56 1.54z"/><path class="cls-2" d="M205.87 77.53a.53.53 0 0 0-.23-.45.84.84 0 0 0-.46-.09h-.76v1.79h.42v-.71h.31l.28.71h.46l-.33-.78a.49.49 0 0 0 .31-.47zm-.54.2a.51.51 0 0 1-.26 0h-.23v-.42h.22a.59.59 0 0 1 .27 0 .24.24 0 0 1 .1.19.25.25 0 0 1-.1.23z"/></svg>