<svg id="Layer_1" data-name="Layer 1" xmlns="http://www.w3.org/2000/svg" viewBox="0 0 782.24 132.55"><defs><style>.cls-1{fill:#8ea8c1}</style></defs><title>PaySafeCard</title><path class="cls-1" d="M101.92 55.82q.13-8.95 4-13.61a17.08 17.08 0 0 1 5.1-3.29 15.12 15.12 0 0 1 6.22-1.41h24.34q16.11.13 16.42 17.62V91a14.83 14.83 0 0 1-4.85 10.75 15.54 15.54 0 0 1-11.15 4.91h-23v25.89h-17V55.82zm39 3.38q-.13-4.06-3.85-4.21h-13.28c-3.14.19-4.76 1.92-4.84 5.16V84c.08 3.34 1.87 5 5.36 5.15h12.16a4 4 0 0 0 3.15-1.43 3.41 3.41 0 0 0 1.29-2.78V59.2zM210.81 58.78c.08-2.62-1.43-3.87-4.59-3.78h-34.3V37.51h38.62q16.87.27 17.15 16.35v36.6a17 17 0 0 1-4.26 11.48 14.4 14.4 0 0 1-11.13 4.73H189q-17-.15-17.3-15.6V76.94q.13-16.16 16.49-16.44h22.66v-1.72zM188.69 85.7a2.71 2.71 0 0 0 1.36 2.38 4.43 4.43 0 0 0 3.08 1.09h13.09c3 0 4.49-1.15 4.58-3.46v-4.9c0-2.67-1.56-4-4.7-4h-13a5.77 5.77 0 0 0-3.53.82c-.61.64-.92 1.88-.92 3.73v4.34zM275.54 115.05a5.56 5.56 0 0 0 3.47-1.44 3.67 3.67 0 0 0 1.37-2.8v-4.15h-21.81a17.73 17.73 0 0 1-6.82-1.09 15.72 15.72 0 0 1-5.37-3.62 17.42 17.42 0 0 1-3.67-5.79 18.15 18.15 0 0 1-1.18-7V37.5h17v46.11c0 3.7 1.51 5.55 4.56 5.55h12a5.28 5.28 0 0 0 3.71-1.43 3.61 3.61 0 0 0 1.51-2.9V37.5h16.89v76.21q-.14 8.46-4.33 13.58c-2.84 3.43-6.7 5.17-11.64 5.26h-39.69v-17.5h34zM310.64 89.16H341c2.78-.1 4.22-1.21 4.3-3.34v-1.57a3.53 3.53 0 0 0-.4-1.51c-.68-1.32-1.51-2-2.5-2h-15a16.81 16.81 0 0 1-11.48-4.6 13.15 13.15 0 0 1-5-10.08V53q.26-15.27 16.6-15.54h35.2V55h-29.87c-3.51 0-5.27 1.08-5.27 3.22v1.7c0 2.22 1.8 3.33 5.39 3.33h15a14.1 14.1 0 0 1 10.24 4.6 15.57 15.57 0 0 1 4.45 10.73v12.76q-.15 5.38-4.94 10.74a13.92 13.92 0 0 1-4.74 3.64 19.51 19.51 0 0 1-6.75.94h-35.59v-17.5zM413.95 58.78c.07-2.62-1.45-3.87-4.6-3.79h-34.3V37.51h38.63q16.87.26 17.13 16.35v36.6a17 17 0 0 1-4.25 11.48 14.35 14.35 0 0 1-11.12 4.72h-23.36q-17-.14-17.28-15.6V76.94q.12-16.16 16.49-16.44h22.66v-1.72zM391.81 85.7a2.69 2.69 0 0 0 1.38 2.38 4.39 4.39 0 0 0 3.07 1.09h13.1c3 0 4.49-1.15 4.58-3.46v-4.9c0-2.67-1.59-4-4.72-4h-13a5.73 5.73 0 0 0-3.52.82c-.6.64-.93 1.88-.93 3.73v4.34zM444.66 27.58a14.48 14.48 0 0 1 5.26-11.36q5-4.33 13-4.45h10.82v16.9h-6.55c-3.6.07-5.44 1.8-5.51 5.13v3.7h12.06V55H461.7v51.65h-17V27.58zM501.12 83.19v1.08a4.71 4.71 0 0 0 1.1 3.32 2.44 2.44 0 0 0 2.21 1.56h35v17.5h-37.2a25.86 25.86 0 0 1-7.91-1 14.41 14.41 0 0 1-5.48-3.3 14.57 14.57 0 0 1-3.84-5.62 25.22 25.22 0 0 1-1-8.05l-.14-35q.28-15.88 16.58-16.15h23q15.92.27 16.16 16.74v13.81zm21.09-24.74V58a2.7 2.7 0 0 0-1.1-2.23 5 5 0 0 0-2.93-.82h-11.86a5.22 5.22 0 0 0-3.69 1.3 3.7 3.7 0 0 0-1.78 3.18v7zM575.59 106.66a35.53 35.53 0 0 1-7.07-.67 15.15 15.15 0 0 1-6.75-3.16 16.14 16.14 0 0 1-4.83-6.83 23.79 23.79 0 0 1-1.38-8.45V54.89a21.21 21.21 0 0 1 .79-7 14.6 14.6 0 0 1 3.6-5.94 15.54 15.54 0 0 1 6.42-4.06 30 30 0 0 1 7.28-.81h26.1v4.09h-25.5q-6.74 0-10.62 2.78c-2.65 2-4 5.5-4 10.41V87a21.64 21.64 0 0 0 1 6.69 11.8 11.8 0 0 0 9.17 8.31 28.58 28.58 0 0 0 6 .6h24.33v4.1h-24.54zM671 87.82a42.27 42.27 0 0 1-.53 7 15.79 15.79 0 0 1-3.41 6.37 17.13 17.13 0 0 1-13.29 5.5h-20.4c-5.29 0-9.57-1.58-12.89-4.72s-5.11-7.43-5.11-13V78.44q.26-17.82 17.75-18.24H667v-4.6a16 16 0 0 0-3.28-10 10.37 10.37 0 0 0-4.9-3.74 25.16 25.16 0 0 0-6.36-.74h-37V37h35.06a52.28 52.28 0 0 1 8.73.67 10.22 10.22 0 0 1 3.75 1.6 12.23 12.23 0 0 1 3.35 3.17 21.74 21.74 0 0 1 4.61 14v31.38zm-4.06-23.53h-34.28q-6.15.14-9.62 3.8t-3.57 10.2v10.42a21.88 21.88 0 0 0 .64 5.53 8.63 8.63 0 0 0 3.2 4.66 15 15 0 0 0 9.81 3.66h20.74c8.67-.09 13-4.65 13-13.72V64.29zM709.23 41.14q-14.24.27-14 15.55v50h-4.08V56.71q-.28-19.71 18.73-19.65h4.53v4.08h-5.18zM782.24 87.31q-.54 19.78-20.94 19.37h-15.11a42 42 0 0 1-8.58-.8 16.27 16.27 0 0 1-7.48-4.73 15.69 15.69 0 0 1-3.42-6.76 25.63 25.63 0 0 1-.8-7.63V57q.26-20.09 20.25-19.94h32V14.5h4.08v72.81zm-4.08-46.15h-32.25a24.73 24.73 0 0 0-6.29.75A11.09 11.09 0 0 0 734 45.5a12.19 12.19 0 0 0-3.23 5.27 17.77 17.77 0 0 0-.76 6.36V89c0 5.29 1.53 8.9 4.64 10.83a18.29 18.29 0 0 0 5.11 2 24.59 24.59 0 0 0 6.29.75h14.1c5.26 0 9.58-1.21 12.89-3.66 3.33-2.29 5-6.25 5.14-11.89V41.16zM7.32 34.87a20.9 20.9 0 0 1 4-1.34 25.88 25.88 0 0 1 50.65 0 18.67 18.67 0 0 1 9.46 4.58 37.24 37.24 0 0 0-.25-6.47 34.7 34.7 0 0 0-69.24 1.65 49.76 49.76 0 0 0-.09 5 22.19 22.19 0 0 1 5.46-3.42"/><path class="cls-1" d="M56.91 37.5h-41.6a15.12 15.12 0 0 0-6.21 1.42A17.22 17.22 0 0 0 4 42.2Q.12 46.86 0 55.81v32.53q.13 9 4 13.6a16.9 16.9 0 0 0 5.1 3.31 15.4 15.4 0 0 0 6.21 1.41h41.6Q73 106.51 73.29 89V55.14Q73 37.63 56.91 37.5"/></svg>