<svg id="Layer_1" data-name="Layer 1" xmlns="http://www.w3.org/2000/svg" viewBox="0 0 225.53 69.9"><defs><style>.cls-1{fill:#8ea8c1}</style></defs><title>Visa</title><path class="cls-1" d="M76.09 68.89L87.03 1.18h17.49L93.58 68.89H76.09M157 2.84A43.29 43.29 0 0 0 141.33 0C124 0 111.88 9.19 111.78 22.35c-.11 9.73 8.68 15.16 15.31 18.4 6.81 3.32 9.1 5.44 9.07 8.4 0 4.54-5.44 6.61-10.46 6.61a35.09 35.09 0 0 1-16.47-3.55L107 51.13l-2.45 15.16c4.08 1.89 11.64 3.52 19.48 3.61 18.37 0 30.31-9.08 30.45-23.13.06-7.72-4.6-13.57-14.69-18.4-6.11-3.14-9.86-5.22-9.82-8.4 0-2.81 3.17-5.83 10-5.83a30.73 30.73 0 0 1 13.08 2.6l1.57.77L157 2.84M201.85 1.25h-13.51c-4.19 0-7.33 1.2-9.16 5.61l-26 62.05h18.36s3-8.35 3.68-10.18h22.39c.52 2.36 2.13 10.14 2.13 10.14H216L201.85 1.25m-21.57 43.64c1.45-3.89 7-18.93 7-18.93-.1.18 1.44-3.92 2.32-6.46l1.18 5.84s3.36 16.16 4 19.55h-14.5zM28.43 1.19H.23L0 2.59C21.94 8.2 36.46 21.74 42.48 38L36.35 6.9c-1.05-4.29-4.13-5.56-7.92-5.71z"/><path class="cls-1" d="M61.43 1.45L44.31 47.51l-1.2-6.22a60.78 60.78 0 0 0-24.34-29.72l15.15 57.28 18.5.09L80 1.45H61.43zM221.67 60.84a3.86 3.86 0 1 1-3.86 3.86 3.84 3.84 0 0 1 3.86-3.86zm0 7.14a3.28 3.28 0 1 0-3.13-3.28 3.18 3.18 0 0 0 3.13 3.3zm-1.41-5.23H222a1.11 1.11 0 0 1 1.27 1.11.91.91 0 0 1-.65.88.81.81 0 0 1 .55.92 1.49 1.49 0 0 0 .16.92h-.74a1.26 1.26 0 0 1-.14-.88c0-.36 0-.72-.85-.72h-.6v1.6h-.71v-3.84zm.74 1.72h.83a.59.59 0 0 0 .71-.62c0-.47-.31-.58-.78-.58H221v1.2z"/></svg>