<svg id="Layer_1" data-name="Layer 1" xmlns="http://www.w3.org/2000/svg" viewBox="0 0 19.97003 16.04999"><defs><style>.cls-1{fill:#41494e;}</style></defs><title>Change_Pass</title><path class="cls-1" d="M12.96,0,6.61,6.35,6.4,6.29a4.88494,4.88494,0,0,0-1.42-.21A4.98808,4.98808,0,1,0,9.77,9.65l-.06-.21,1.21-1.21V6.42H12.9V4.44h1.79L16.03,3.1V.01h-.31Zm2.46,2.84-.97.97H12.28V5.8H10.29V7.96L9.11,9.14A.30728.30728,0,0,0,9.04,9.48a4.35491,4.35491,0,0,1-7.13,4.67,4.3456,4.3456,0,0,1,0-6.16A4.30258,4.30258,0,0,1,4.99,6.71a4.448,4.448,0,0,1,1.6.3.359.359,0,0,0,.11.02.31016.31016,0,0,0,.22-.09l6.3-6.3h2.2Z"/><polygon class="cls-1" points="7.1 9.99 5.29 10.58 5.29 8.68 4.71 8.68 4.71 10.58 2.9 9.99 2.73 10.52 4.55 11.11 3.42 12.65 3.88 12.98 5 11.44 6.12 12.98 6.57 12.65 5.45 11.11 7.27 10.52 7.1 9.99"/><polygon class="cls-1" points="15.05 9.79 13.77 10.21 13.77 8.86 13.36 8.86 13.36 10.21 12.08 9.79 11.96 10.17 13.25 10.58 12.45 11.67 12.78 11.9 13.57 10.82 14.36 11.9 14.68 11.67 13.89 10.58 15.17 10.17 15.05 9.79"/><polygon class="cls-1" points="19.97 10.17 19.85 9.79 18.57 10.21 18.57 8.86 18.16 8.86 18.16 10.21 16.88 9.79 16.76 10.17 18.05 10.58 17.25 11.67 17.58 11.9 18.37 10.82 19.16 11.9 19.48 11.67 18.68 10.58 19.97 10.17"/></svg>