<svg id="Layer_1" data-name="Layer 1" xmlns="http://www.w3.org/2000/svg" viewBox="0 0 16.40002 19.97998"><defs><style>.cls-1{fill:#41494e;}</style></defs><title>Contact_Us</title><path class="cls-1" d="M12.27,12.15a1.11309,1.11309,0,0,0-.67-.55,1.25915,1.25915,0,0,0-.33-.05,1.09484,1.09484,0,0,0-.53.13.98991.98991,0,0,1-.41.1,1.08456,1.08456,0,0,1-.25-.04.8506.8506,0,0,1-.51-.42L8.17,8.69a.86724.86724,0,0,1-.06-.67A.85768.85768,0,0,1,8.54,7.5,1.12962,1.12962,0,0,0,9,5.98l-.5-.94a1.106,1.106,0,0,0-.65-.53,1.05927,1.05927,0,0,0-.83.08l-.27.14A2.56,2.56,0,0,0,5.63,5.91a2.88214,2.88214,0,0,0,.06,2.56l2.67,5.02a2.876,2.876,0,0,0,2.09,1.48,2.559,2.559,0,0,0,.39.03,2.66508,2.66508,0,0,0,1.2-.3l.27-.14a1.07128,1.07128,0,0,0,.53-.65,1.04722,1.04722,0,0,0-.08-.83Zm-.07,1.56a.388.388,0,0,1-.2.25l-.27.14a1.98454,1.98454,0,0,1-.89.22,2.63971,2.63971,0,0,1-.29-.02,2.19243,2.19243,0,0,1-1.59-1.13L6.29,8.15A2.19268,2.19268,0,0,1,6.24,6.2a1.86976,1.86976,0,0,1,.82-.87l.27-.14a.4548.4548,0,0,1,.2-.05c.04,0,.08.01.15.01a.38783.38783,0,0,1,.25.2l.5.94a.50215.50215,0,0,1,.03.34.45582.45582,0,0,1-.22.27A1.54248,1.54248,0,0,0,7.48,7.82,1.47863,1.47863,0,0,0,7.59,9l1.4,2.63a1.5424,1.5424,0,0,0,.91.75,1.367,1.367,0,0,0,.45.07,1.53648,1.53648,0,0,0,.72-.18.49864.49864,0,0,1,.21-.05.44736.44736,0,0,1,.4.24005l.49005.93A.44228.44228,0,0,1,12.2,13.71Z"/><path class="cls-1" d="M14.68,0H3.13A1.74781,1.74781,0,0,0,1.4,1.75V5.91H.34A.34.34,0,1,0,.34,6.59H1.4v6.47H.34a.34.34,0,1,0,0,.68H1.41v4.48a1.73287,1.73287,0,0,0,1.72,1.75v.01H14.68a1.73931,1.73931,0,0,0,1.72-1.75V1.75A1.733,1.733,0,0,0,14.68,0Zm1.03,18.22a1.05231,1.05231,0,0,1-1.04,1.07H3.12a1.05873,1.05873,0,0,1-1.04-1.07V13.75H3.14a.34.34,0,1,0,0-.68H2.08V6.59H3.14a.3352.3352,0,1,0,.01-.67H2.09V1.75A1.05227,1.05227,0,0,1,3.13.68H14.67a1.05877,1.05877,0,0,1,1.04,1.07Z"/></svg>