<svg id="Layer_1" data-name="Layer 1" xmlns="http://www.w3.org/2000/svg" viewBox="0 0 15.40844 19.91"><defs><style>.cls-1{fill:#41494e;}</style></defs><title>Deposit</title><path class="cls-1" d="M4.21922,13.22a1.52233,1.52233,0,0,1-1.37-.83l-2.68-5.26a1.53086,1.53086,0,0,1-.08-1.17,1.61308,1.61308,0,0,1,.79-.91l9.57-4.87a1.57608,1.57608,0,0,1,.73-.18,1.52233,1.52233,0,0,1,1.37.83l2.67,5.26a1.487,1.487,0,0,1,.08,1.17,1.60831,1.60831,0,0,1-.79.91l-9.57,4.87a1.632,1.632,0,0,1-.72.18Zm-.73-1.15a.82877.82877,0,0,0,.75.45.8187.8187,0,0,0,.4-.1l9.56-4.86a.87064.87064,0,0,0,.39-1.15l-1.84-3.62-11.11,5.65ZM11.15922.7a.81871.81871,0,0,0-.4.1l-9.56,4.86a.88359.88359,0,0,0-.44.51.83871.83871,0,0,0,.05.64l.34.68,11.11-5.65-.34-.68A.86451.86451,0,0,0,11.15922.7Z"/><polygon class="cls-1" points="4.199 10.8 6.499 9.62 6.579 9.6 6.839 10.11 4.529 11.29 4.459 11.31 4.199 10.8"/><path class="cls-1" d="M10.70922,8.02a1.01619,1.01619,0,0,1-.44-1.94,1.04423,1.04423,0,0,1,.49-.12h.08l.17.02.09-.15a1.01521,1.01521,0,0,1,.43-.39,1.04423,1.04423,0,0,1,.49-.12,1.00355,1.00355,0,0,1,.97,1.34,1.095,1.095,0,0,1-.53.61,1.04423,1.04423,0,0,1-.49.12h-.08l-.18-.03-.09.14a1.01522,1.01522,0,0,1-.43.39A.93759.93759,0,0,1,10.70922,8.02Z"/><path class="cls-1" d="M11.11922,19.91a1.62641,1.62641,0,0,1-.75-.18l-9.51-4.98a1.61086,1.61086,0,0,1-.78-.92,1.48855,1.48855,0,0,1,.09-1.17l.53-.99.39.76-.27.56a.87983.87983,0,0,0-.06.64.86694.86694,0,0,0,.43.51l9.51,4.98a.85664.85664,0,0,0,.41.1.83989.83989,0,0,0,.75-.45l1.89-3.6-4.26-2.23,1.16-.59,3.6,1.87.35-.67a.86287.86287,0,0,0-.37-1.15l-1.81-.95.73-.37,1.4.71a1.61086,1.61086,0,0,1,.78.92,1.48855,1.48855,0,0,1-.09,1.17l-2.74,5.23A1.58426,1.58426,0,0,1,11.11922,19.91Z"/></svg>