<svg id="Layer_1" data-name="Layer 1" xmlns="http://www.w3.org/2000/svg" viewBox="0 0 19.94 19.94"><defs><style>.cls-1{fill:#41494e;}</style></defs><title>Free_Bets</title><path class="cls-1" d="M9.97,0a9.97,9.97,0,1,0,9.97,9.97A9.97805,9.97805,0,0,0,9.97,0Zm0,19.25a9.285,9.285,0,1,1,9.28-9.29A9.28667,9.28667,0,0,1,9.97,19.25Z"/><polygon class="cls-1" points="3.94 14.28 5.24 14.28 5.68 10.79 8.63 10.79 8.77 9.74 5.8 9.74 6.14 7.02 9.62 7.02 9.75 5.96 4.96 5.96 3.94 14.28"/><path class="cls-1" d="M15.6,6.47a2.32562,2.32562,0,0,0-.79-.38,4.3362,4.3362,0,0,0-1.15-.13H11.09l-1.02,8.32h2.84a3.86443,3.86443,0,0,0,1.28-.2,2.81041,2.81041,0,0,0,.96-.55,2.51982,2.51982,0,0,0,.61-.84,2.63917,2.63917,0,0,0,.21-1.06,1.51272,1.51272,0,0,0-.36-1.04,2.003,2.003,0,0,0-1.08-.58,2.68188,2.68188,0,0,0,.74-.36,2.25591,2.25591,0,0,0,.52-.5,2.06783,2.06783,0,0,0,.31-.61,2.25924,2.25924,0,0,0,.1-.69,2.11039,2.11039,0,0,0-.14-.77A1.39663,1.39663,0,0,0,15.6,6.47Zm-.92,5.17a1.98715,1.98715,0,0,1-.1.66,1.31741,1.31741,0,0,1-.84.84,2.10688,2.10688,0,0,1-.75.12H11.48l.33-2.7h1.51a1.54461,1.54461,0,0,1,1.03.29A.96676.96676,0,0,1,14.68,11.64Zm-.24-2.41a1.8318,1.8318,0,0,1-1.29.41H11.94l.32-2.66h1.28a1.64892,1.64892,0,0,1,1.01.26.9801.9801,0,0,1,.33.82A1.5378,1.5378,0,0,1,14.44,9.23Z"/></svg>