<svg id="Layer_1" data-name="Layer 1" xmlns="http://www.w3.org/2000/svg" viewBox="0 0 19.95064 19.96997"><defs><style>.cls-1{fill:#41494e;}</style></defs><title>Manage_MyAccount</title><path class="cls-1" d="M18.95,7.77H17.08a.69728.69728,0,0,1-.66-.44.68966.68966,0,0,1,.16-.78L17.9,5.23a1.02828,1.02828,0,0,0,.3-.73,1.06414,1.06414,0,0,0-.3-.73L16.22,2.09a1.04472,1.04472,0,0,0-1.45,0L13.45,3.41a.70654.70654,0,0,1-.78.16.69258.69258,0,0,1-.44-.66V1.03A1.02851,1.02851,0,0,0,11.2,0H8.82A1.02852,1.02852,0,0,0,7.79,1.03V2.9a.72294.72294,0,0,1-1.24.5L5.23,2.08a1.04472,1.04472,0,0,0-1.45,0L2.09,3.77a.98852.98852,0,0,0-.3.73,1.064,1.064,0,0,0,.3.73L3.41,6.55a.70657.70657,0,0,1,.16.78.72082.72082,0,0,1-.67.44H1.03A1.02852,1.02852,0,0,0,0,8.8v2.38a1.02847,1.02847,0,0,0,1.03,1.03H2.9a.69728.69728,0,0,1,.66.44.6739.6739,0,0,1-.16.78L2.09,14.75a1.028,1.028,0,0,0-.3.73,1.04587,1.04587,0,0,0,.3.73L3.77,17.89a1.04465,1.04465,0,0,0,1.45,0l1.32-1.32a.70675.70675,0,0,1,.78-.16.69258.69258,0,0,1,.44.66v1.87a1.02852,1.02852,0,0,0,1.03,1.03h2.38a1.02858,1.02858,0,0,0,1.03-1.03v-1.87a.69725.69725,0,0,1,.44-.66.6739.6739,0,0,1,.78.16l1.32,1.32a1.04472,1.04472,0,0,0,1.45,0l1.68-1.68a1.02823,1.02823,0,0,0,.3-.73,1.06382,1.06382,0,0,0-.3-.73l-1.32-1.32a.70654.70654,0,0,1-.16-.78.68329.68329,0,0,1,.66-.44h1.87a1.02852,1.02852,0,0,0,1.03-1.03V8.8A.9973.9973,0,0,0,18.95,7.77Zm.29,3.41a.29021.29021,0,0,1-.29.29H17.08a1.45633,1.45633,0,0,0-1.03,2.49l1.32,1.32a.29588.29588,0,0,1,0,.41L15.69,17.37a.296.296,0,0,1-.41,0l-1.32-1.32a1.42616,1.42616,0,0,0-1.59-.32,1.44809,1.44809,0,0,0-.9,1.35v1.87a.29022.29022,0,0,1-.29.29H8.8a.29022.29022,0,0,1-.29-.29v-1.88a1.43323,1.43323,0,0,0-.9-1.35,1.42107,1.42107,0,0,0-1.59.31L4.7,17.35a.296.296,0,0,1-.41,0L2.61,15.67a.296.296,0,0,1,0-.41l1.32-1.32a1.42313,1.42313,0,0,0,.31-1.59,1.43811,1.43811,0,0,0-1.35-.9H1.03a.29021.29021,0,0,1-.29-.29V8.78a.29021.29021,0,0,1,.29-.29H2.9A1.46207,1.46207,0,0,0,3.94,6L2.61,4.7a.29594.29594,0,0,1,0-.41L4.29,2.61a.296.296,0,0,1,.41,0L6.02,3.93a1.44738,1.44738,0,0,0,1.59.31,1.42362,1.42362,0,0,0,.9-1.35V1.03A.29021.29021,0,0,1,8.8.74h2.38a.29021.29021,0,0,1,.29.29V2.9a1.462,1.462,0,0,0,2.49,1.04L15.28,2.62a.2959.2959,0,0,1,.41,0L17.37,4.3a.29594.29594,0,0,1,0,.41L16.05,6.03a1.45632,1.45632,0,0,0,1.03,2.49h1.87a.29022.29022,0,0,1,.29.29Z"/><path class="cls-1" d="M9.99,6.66a3.33,3.33,0,1,0,3.33,3.33A3.32885,3.32885,0,0,0,9.99,6.66Zm0,5.91a2.59,2.59,0,1,1,2.59-2.59A2.59054,2.59054,0,0,1,9.99,12.56995Z"/></svg>