<svg id="Layer_1" data-name="Layer 1" xmlns="http://www.w3.org/2000/svg" viewBox="0 0 19.88 19.9"><defs><style>.cls-1{fill:#41494e;}</style></defs><title>Open_Bets</title><path class="cls-1" d="M.33,19.9A.33293.33293,0,0,1,0,19.57V9.95a.33293.33293,0,0,1,.33-.33H3.28L9.45.16A.33142.33142,0,0,1,9.73,0a.31918.31918,0,0,1,.28.16l5.65,9.46h3.89a.33293.33293,0,0,1,.33.33v9.62a.33293.33293,0,0,1-.33.33Zm.34-.67H19.23V10.28H.67Zm3.4-9.62H14.88L9.73.96Z"/><path class="cls-1" d="M6.29,14.35a3.03682,3.03682,0,0,1-.81,2.13,2.18576,2.18576,0,0,1-1.59.63,1.69686,1.69686,0,0,1-1.75-1.84,3.07755,3.07755,0,0,1,.83-2.14,2.2341,2.2341,0,0,1,1.56-.62A1.67333,1.67333,0,0,1,6.29,14.35Zm-2.72-.81a2.60275,2.60275,0,0,0-.62,1.69c0,.67.3,1.23,1.05,1.23a1.23928,1.23928,0,0,0,.87-.38,2.66782,2.66782,0,0,0,.6-1.7c0-.59-.2-1.22-1.02-1.22A1.20982,1.20982,0,0,0,3.57,13.54Z"/><path class="cls-1" d="M7.36,12.66a4.66324,4.66324,0,0,1,1.08-.11,1.88643,1.88643,0,0,1,1.14.32,1.05164,1.05164,0,0,1,.41.88,1.515,1.515,0,0,1-.57,1.21,2.29209,2.29209,0,0,1-1.39.42c-.16,0-.3-.02-.42-.03l-.32,1.68H6.53Zm.36,2.06a1.64249,1.64249,0,0,0,.4.04.98444.98444,0,0,0,1.08-.94c0-.47-.34-.64-.77-.64a1.4277,1.4277,0,0,0-.42.04Z"/><path class="cls-1" d="M12.82,15.05h-1.6l-.25,1.33h1.8l-.13.65H10.07l.85-4.45h2.47l-.13.65h-1.7l-.22,1.17h1.61Z"/><path class="cls-1" d="M13.35,17.03l.85-4.45h.88l.78,2.07a11.8174,11.8174,0,0,1,.4,1.39h.01a12.164,12.164,0,0,1,.2-1.51l.37-1.95h.73l-.85,4.45h-.79l-.8-2.11a10.46835,10.46835,0,0,1-.42-1.43l-.03.01c-.05.42-.14.97-.26,1.63l-.36,1.9Z"/></svg>