<svg id="Layer_1" data-name="Layer 1" xmlns="http://www.w3.org/2000/svg" viewBox="0 0 19.98771 19.28998"><defs><style>.cls-1{fill:#41494e;}</style></defs><title>Redeem_Points</title><path class="cls-1" d="M8.15936,4.17a.43551.43551,0,0,0,.11.09c.04.02.07.04.09.05l.57-.45V6.19h.76V3.03c-.01,0-.02-.01-.04-.02a.47092.47092,0,0,0-.09-.03l-.12-.03a.66367.66367,0,0,0-.14-.00995.80553.80553,0,0,0-.32.06995,1.09838,1.09838,0,0,0-.15.08,1.36547,1.36547,0,0,0-.17.12l-.28.21a2.24853,2.24853,0,0,0-.26.22.383.383,0,0,0-.09.27.28213.28213,0,0,0,.04.15A.735.735,0,0,0,8.15936,4.17Z"/><path class="cls-1" d="M19.78936,12.44a1.33471,1.33471,0,0,0-1.09-.55h-.04a2.01466,2.01466,0,0,0-.68.14l-.29.1-.12-.29a1.22971,1.22971,0,0,0-.19-.31,1.07215,1.07215,0,0,0-.83-.36,1.64254,1.64254,0,0,0-.37.05,2.46278,2.46278,0,0,0-.64.26l-.23.13-.17-.2a.90869.90869,0,0,0-.21-.18.99236.99236,0,0,0-.53-.13,5.17888,5.17888,0,0,0-2.2.86l-1.76.94a.32008.32008,0,0,0-.17.21,3.85786,3.85786,0,0,1-1.13-.31,13.04792,13.04792,0,0,1-2.21-1.47c-.33-.26-.68-.52-1.03-.77a2.06505,2.06505,0,0,0-1.22-.34,2.93814,2.93814,0,0,0-.65.07,8.75932,8.75932,0,0,0-1.81995.65c-.2.09-.4.18005-.6.26l-1.39.56a.34548.34548,0,0,0-.19.46.34769.34769,0,0,0,.32.22.27641.27641,0,0,0,.13-.03l1.39-.56.57-.24.05-.02a8.27511,8.27511,0,0,1,1.68-.6,2.34531,2.34531,0,0,1,.52-.05,1.41133,1.41133,0,0,1,.81.22c.34.24.67.5,1,.75a13.674,13.674,0,0,0,2.33,1.55,7.08974,7.08974,0,0,0,2.97.46c.22,0,.44,0,.65.01a2.58324,2.58324,0,0,1,.32.02l.50995.06-.28.43c-.04.07-.14.17-.45.32a6.218,6.218,0,0,1-2.59.59,5.82281,5.82281,0,0,1-.59-.03,9.17166,9.17166,0,0,1-3.12-1.16.29306.29306,0,0,0-.16-.04.3359.3359,0,0,0-.15.64,10.08228,10.08228,0,0,0,3.36,1.23c.21.02.44.04.66.04a6.947,6.947,0,0,0,2.88-.66,1.34977,1.34977,0,0,0,.9-1.01,1.0218,1.0218,0,0,0-.66-1.07,1.96123,1.96123,0,0,0-.61-.09c-.22-.00995-.43994-.00995-.67-.00995h-.41l.87-.46c.07-.04.16-.09.28-.16a4.22644,4.22644,0,0,1,1.81-.75995h.29l.04.28a.6176.6176,0,0,1,.01.15.34331.34331,0,0,0,.19.31.31685.31685,0,0,0,.16.04.36076.36076,0,0,0,.2-.06l.44-.3a2.06454,2.06454,0,0,1,.66-.31.88007.88007,0,0,1,.21-.03.32027.32027,0,0,1,.16.03l.08.03.05.06a.75946.75946,0,0,1,.03.73v.01a.33716.33716,0,0,0,.01.25995.38962.38962,0,0,0,.19.19.27424.27424,0,0,0,.13.02.35132.35132,0,0,0,.29-.15l.02-.03v-.08l.1-.1.07.05c.08-.04.22-.1.46-.2a1.423,1.423,0,0,1,.52-.12h.06a.6157.6157,0,0,1,.52.28l.07.11-.03.13c-.05.22-.32.47-.85.77-.72.41-1.42.86-2.1,1.29l-1.65,1.05c-.74.47-1.5.97-2.28,1.42l-.09.05a6.48513,6.48513,0,0,1-1.53.73,4.53387,4.53387,0,0,1-1.25.17,3.91647,3.91647,0,0,1-.49005-.03,9.74518,9.74518,0,0,1-1.59-.4l-.4-.13c-.22-.07-.43-.14-.65-.21l-.02-.00995a17.30748,17.30748,0,0,0-1.94-.54,9.33405,9.33405,0,0,0-1.66-.16,9.20224,9.20224,0,0,0-1.17.08.34777.34777,0,0,0-.3.39.356.356,0,0,0,.35.31h.05a7.83565,7.83565,0,0,1,1.08-.07,8.79947,8.79947,0,0,1,1.53.14,14.67437,14.67437,0,0,1,1.85.52c.23.07.46.15.69.22l.39.12a8.91828,8.91828,0,0,0,1.71.43,5.6471,5.6471,0,0,0,.59.04,5.47884,5.47884,0,0,0,1.43-.2,7.07738,7.07738,0,0,0,1.71-.81l.08-.05c.8-.47,1.58-.97,2.34-1.46l1.61-1.03c.67-.43,1.37-.87,2.06995-1.27a2.18622,2.18622,0,0,0,1.18005-1.21A1.10373,1.10373,0,0,0,19.78936,12.44Z"/><path class="cls-1" d="M9.09936,9.31995a4.66,4.66,0,1,0-4.66-4.66A4.66467,4.66467,0,0,0,9.09936,9.31995Zm0-8.61a3.96,3.96,0,1,1-3.96,3.96A3.96262,3.96262,0,0,1,9.09936.71Z"/><path class="cls-1" d="M15.2594,6.6c.02.02.05.04.07.06a.20682.20682,0,0,0,.06.04l.38-.3V7.96h.51V5.84a.04384.04384,0,0,0-.03-.01c-.02-.01-.04-.01-.06-.02s-.05-.01-.08-.02a.27639.27639,0,0,0-.09-.01.48612.48612,0,0,0-.12.01c-.03.01-.07.02-.1.03a.46677.46677,0,0,0-.1.05c-.03.02-.07.05-.11.08l-.19.14a1.3807,1.3807,0,0,0-.17.15.24448.24448,0,0,0-.06.18.16873.16873,0,0,0,.03.1A.1554.1554,0,0,0,15.2594,6.6Z"/><path class="cls-1" d="M15.8894,10.17a3.23363,3.23363,0,0,0,.33-6.45h-.04a.356.356,0,0,0-.35.31.34737.34737,0,0,0,.31.38,2.53178,2.53178,0,0,1-.26,5.05,2.558,2.558,0,0,1-1.35-.39.31988.31988,0,0,0-.18994-.05.36568.36568,0,0,0-.3.16.37822.37822,0,0,0,.12.49A3.19983,3.19983,0,0,0,15.8894,10.17Z"/></svg>