<svg id="Layer_1" data-name="Layer 1" xmlns="http://www.w3.org/2000/svg" viewBox="0 0 19.66003 20.06006"><defs><style>.cls-1{fill:#41494e;}</style></defs><title>Transactions_History</title><path class="cls-1" d="M6.05,3.63c0-.31995-.31995-.52-.83-.52s-.82.19-.82.52V6.16a.82586.82586,0,0,0,.82.83h2.9V6.36H5.22a.20063.20063,0,0,1-.2-.2V3.75a.64916.64916,0,0,1,.2-.02,1.13015,1.13015,0,0,1,.2.02V5.96h2.7V5.33H6.05Z"/><path class="cls-1" d="M11.42,5.71a5.71,5.71,0,1,0-5.71,5.71A5.71459,5.71459,0,0,0,11.42,5.71ZM5.71,10.82a5.115,5.115,0,1,1,5.12-5.11A5.12131,5.12131,0,0,1,5.71,10.82Z"/><polygon class="cls-1" points="19.63 5.48 19.63 5.45 13.4 5.45 13.4 6.09 19.02 6.09 19.02 19.43 6.65 19.43 6.65 13.42 6.01 13.42 6.01 19.43 6.01 20.02 6.01 20.06 19.66 20.06 19.66 20.02 19.66 19.43 19.66 5.48 19.63 5.48"/><path class="cls-1" d="M16.37,13.67V11.64H8.97v2.13h7.4Zm-.63-.62H9.59v-.69h6.15Z"/><path class="cls-1" d="M8.96,15.62006v1.41h7.4V15.01H8.96v.61Zm.63.00995h6.15v.79H9.59Z"/><path class="cls-1" d="M16.05,10.51H16.36V8.48H11.93v2.03h4.12ZM12.55,9.1h3.19v.79H12.55Z"/></svg>