<svg id="Layer_1" data-name="Layer 1" xmlns="http://www.w3.org/2000/svg" viewBox="0 0 19.89996 14.91998"><defs><style>.cls-1{fill:#41494e;}</style></defs><title>Voucher_Codes</title><path class="cls-1" d="M18.24,0H1.66A1.65589,1.65589,0,0,0,0,1.66v11.6a1.65589,1.65589,0,0,0,1.66,1.66H18.24a1.65589,1.65589,0,0,0,1.66-1.66V1.66A1.66874,1.66874,0,0,0,18.24,0Zm-11.61.83h11.6a.82794.82794,0,0,1,.83.83V4.39H10.78v-.4A1.76033,1.76033,0,0,0,9.11,2.15a1.556,1.556,0,0,0-.9.29l-1.4,1c-.05-.01-.11-.03-.18005-.04Zm.86,3.15,1.2-.86a.729.729,0,0,1,.42-.14.93978.93978,0,0,1,.84,1.01V5.28A1.10161,1.10161,0,0,1,9.68,6.02a.71686.71686,0,0,1-.86.2l-1.31-.58a1.22146,1.22146,0,0,0,.16-.6V4.62A1.28429,1.28429,0,0,0,7.49,3.98ZM.83,1.66A.82794.82794,0,0,1,1.66.83H5.81V3.4c-.07.01-.13.03-.18005.04l-1.4-.99a1.556,1.556,0,0,0-.9-.29A1.76669,1.76669,0,0,0,1.66,4v.4H.83Zm4.1,3.98-1.31.59a.75281.75281,0,0,1-.29.06A.93278.93278,0,0,1,2.5,5.28V4a.92658.92658,0,0,1,.84-1.01.72917.72917,0,0,1,.42.14l1.2.86a1.14014,1.14014,0,0,0-.19.63v.41A1.23092,1.23092,0,0,0,4.93,5.64ZM5.8,14.1H1.66v-.01a.82794.82794,0,0,1-.83-.83V5.22h.83v.07a1.76547,1.76547,0,0,0,1.66,1.84,1.52248,1.52248,0,0,0,.63-.14l1.69-.76a.74962.74962,0,0,0,.16.04Zm.21-8.65a.41183.41183,0,0,1-.41-.41V4.62a.41182.41182,0,0,1,.41-.41h.41a.41178.41178,0,0,1,.41.41v.41a.39405.39405,0,0,1-.4.42Zm12.23,8.64h-11.61V6.26a.93448.93448,0,0,0,.16-.04l1.69.76a1.55839,1.55839,0,0,0,.63.14,1.6132,1.6132,0,0,0,1.18-.54,1.95,1.95,0,0,0,.48-1.3V5.22h8.29v8.04h.00995A.82793.82793,0,0,1,18.24,14.09Z"/></svg>