<svg id="Layer_1" data-name="Layer 1" xmlns="http://www.w3.org/2000/svg" viewBox="0 0 20.03998 18.36005"><defs><style>.cls-1{fill:#41494e;}</style></defs><title>Withdraw</title><path class="cls-1" d="M19,5.61h-.46V2.1A2.09975,2.09975,0,0,0,16.44,0H2.1A2.09975,2.09975,0,0,0,0,2.1V16.26a2.09975,2.09975,0,0,0,2.1,2.1H16.45a2.09975,2.09975,0,0,0,2.1-2.1V12.74h.46a1.02847,1.02847,0,0,0,1.03-1.03V6.64A1.04354,1.04354,0,0,0,19,5.61ZM17.81,16.25a1.36145,1.36145,0,0,1-1.36,1.36H2.1A1.36145,1.36145,0,0,1,.74,16.25V2.1A1.3614,1.3614,0,0,1,2.1.74005H16.45A1.3614,1.3614,0,0,1,17.81,2.1V5.61h-4.2a3.203,3.203,0,0,0-3.2,3.2v.73a3.203,3.203,0,0,0,3.2,3.2h4.2ZM19.3,11.7a.30082.30082,0,0,1-.3.3H13.61a2.45824,2.45824,0,0,1-2.46-2.46V8.81a2.45824,2.45824,0,0,1,2.46-2.46H19a.30086.30086,0,0,1,.3.3Z"/><path class="cls-1" d="M13.95,7.47a1.7,1.7,0,1,0,1.7,1.7A1.69859,1.69859,0,0,0,13.95,7.47Zm0,2.67a.97.97,0,1,1,.97-.97A.97091.97091,0,0,1,13.95,10.14Z"/></svg>