<svg id="Layer_1" data-name="Layer 1" xmlns="http://www.w3.org/2000/svg" viewBox="0 0 17.01001 19.73999"><defs><style>.cls-1{fill:#41494e;}</style></defs><title>Your_Messages</title><path class="cls-1" d="M16.89,8.25995,15.3,7V.66A.66583.66583,0,0,0,14.64,0H2.36A.66583.66583,0,0,0,1.7.66V7L.12,8.25A.30329.30329,0,0,0,0,8.5V18.74a1.003,1.003,0,0,0,1,1H16.01a1.003,1.003,0,0,0,1-1v-10.23A.33377.33377,0,0,0,16.89,8.25995Zm-1.59-.44.87.69-.87.69ZM2.33,7.16V.66c.01-.01.02-.02.03-.02H14.64a.02147.02147,0,0,1,.02.02V9.7l-2.83,2.24H5.16L2.33,9.7Zm8.7,5.42-1.25.99a2.05961,2.05961,0,0,1-2.57,0L5.97,12.58Zm-9.33-4.76V9.2l-.87-.69ZM.63,18.77V9.17l6.06,4.8Zm.6.34,5.99-4.74c.01-.01.02-.02.03-.02a2.67518,2.67518,0,0,0,2.5,0c.01.01.02.01.03.02l5.99,4.74Zm15.14-.37v.02l-6.06-4.79,6.06-4.8Z"/><path class="cls-1" d="M4.41,3.03H6.8a.32.32,0,0,0,0-.64H4.41A.31588.31588,0,0,0,4.09,2.71.32219.32219,0,0,0,4.41,3.03Z"/><path class="cls-1" d="M4.41,4.73H8.16a.32.32,0,0,0,0-.64H4.41a.32.32,0,0,0,0,.64Z"/><path class="cls-1" d="M6.13,7.14a.31593.31593,0,0,0,.32.32h4.09a.32.32,0,0,0,0-.64H6.45A.32907.32907,0,0,0,6.13,7.14Z"/><path class="cls-1" d="M4.41,9.17H12.6a.32.32,0,0,0,0-.64H4.41a.32.32,0,0,0,0,.64Z"/><path class="cls-1" d="M12.92,10.55a.31589.31589,0,0,0-.32-.32H4.41a.32.32,0,0,0,0,.64H12.6A.31589.31589,0,0,0,12.92,10.55Z"/></svg>