<svg id="Layer_1" data-name="Layer 1" xmlns="http://www.w3.org/2000/svg" xmlns:xlink="http://www.w3.org/1999/xlink" viewBox="0 0 48 30"><defs><style>.cls-1{fill:url(#linear-gradient);}.cls-2{fill:#fff;}</style><linearGradient id="linear-gradient" y1="15" x2="48" y2="15" gradientUnits="userSpaceOnUse"><stop offset="0.003" stop-color="#127cc0"/><stop offset="0.48661" stop-color="#1b5c9d"/><stop offset="1" stop-color="#253773"/></linearGradient></defs><title>CardPayPal</title><rect class="cls-1" width="48" height="30" rx="4" ry="4"/><polygon class="cls-2" points="39.603 11.288 39.603 10.62 39.355 10.62 39.355 10.531 39.952 10.531 39.952 10.62 39.703 10.62 39.703 11.288 39.603 11.288"/><path class="cls-2" d="M40.05128,11.28793v-.7568h.14884l.18013.53558c.01614.04944.02823.08752.03505.11149.00933-.02774.02346-.06812.04112-.12107l.18263-.526h.1342v.7568h-.09609V10.655l-.221.63293h-.09057l-.21794-.6405v.6405Z"/><path class="cls-2" d="M28.72564,13.439a2.05014,2.05014,0,0,1-1.229.32238h-.24142A.29084.29084,0,0,1,26.96,13.389l.29262-1.26736a.50239.50239,0,0,1,.46567-.3711h.31887a1.53029,1.53029,0,0,1,.8446.19.64552.64552,0,0,1,.28353.5792,1.0702,1.0702,0,0,1-.43968.91925m2.10388-1.952a1.47155,1.47155,0,0,0-.53658-.57414,2.41094,2.41094,0,0,0-.84584-.3113,6.42006,6.42006,0,0,0-1.14755-.09082H26.26606a.499.499,0,0,0-.46518.37133l-1.3756,5.9716a.28969.28969,0,0,0,.29415.37133h.97626a.503.503,0,0,0,.46642-.37133l.334-1.44723a.50321.50321,0,0,1,.46544-.37159h.27976a4.60276,4.60276,0,0,0,2.77995-.73357,2.294,2.294,0,0,0,.99342-1.9331,1.882,1.882,0,0,0-.18516-.88118"/><path class="cls-2" d="M33.80547,15.90564a2.43059,2.43059,0,0,1-.50881.28229,1.34039,1.34039,0,0,1-.50806.11149,1.15247,1.15247,0,0,1-.55422-.10646.38212.38212,0,0,1-.19023-.36552.736.736,0,0,1,.1443-.477.91941.91941,0,0,1,.41424-.27826,3.21851,3.21851,0,0,1,.64125-.14453q.37651-.04809.80774-.085ZM33.50025,17.225h1.22448a.50192.50192,0,0,0,.46593-.37133l.71012-3.07435a1.83582,1.83582,0,0,0,.04138-.25377c.01033-.09609.01689-.17406.01689-.23308a1.03112,1.03112,0,0,0-.55523-.96516,3.69346,3.69346,0,0,0-1.73836-.311,7.77759,7.77759,0,0,0-1.17984.09031c-.39554.061-.68666.11552-.87534.16372l-.1655.83827c-.04009.20534-.00656.37436.07543.37436.16-.05954.4006-.134.72123-.225a3.27772,3.27772,0,0,1,.87991-.13572,2.35919,2.35919,0,0,1,.88267.12614.44815.44815,0,0,1,.2959.44046.717.717,0,0,1-.01464.13874c-.01033.0406-.0179.07088-.02144.08878q-.83626.04995-1.557.15388a4.63682,4.63682,0,0,0-1.23686.338,1.93782,1.93782,0,0,0-.83651.66623,1.77693,1.77693,0,0,0-.28252,1.01765,1.17906,1.17906,0,0,0,.39781.92354,1.48475,1.48475,0,0,0,1.02622.35392,2.687,2.687,0,0,0,.611-.05474,3.38689,3.38689,0,0,0,.47073-.1607,2.76051,2.76051,0,0,0,.40083-.22528c.143-.09359.2664-.17581.36805-.24318l-.12536.53934"/><path class="cls-2" d="M39.07275,10.56469l-1.39048,6.29a.50428.50428,0,0,1-.46642.37159h-.87033a.29.29,0,0,1-.29464-.37159l1.30546-5.91911a.50258.50258,0,0,1,.46619-.37084h1.25021"/><path class="cls-2" d="M11.53672,13.44934a2.04527,2.04527,0,0,1-1.22867.3229h-.24179a.29157.29157,0,0,1-.2959-.37208l.29337-1.26788a.50311.50311,0,0,1,.46567-.3711H10.849a1.52745,1.52745,0,0,1,.84421.19048.64752.64752,0,0,1,.28417.58044,1.07009,1.07009,0,0,1-.44069.91724m2.10413-1.95152a1.474,1.474,0,0,0-.53645-.57339,2.43169,2.43169,0,0,0-.84622-.31231,6.41807,6.41807,0,0,0-1.14766-.08979H9.0774a.50173.50173,0,0,0-.46645.37082L7.23636,16.86449a.29031.29031,0,0,0,.29464.37234h.97626a.50226.50226,0,0,0,.4658-.37182l.33452-1.44752a.503.503,0,0,1,.46593-.37107h.27875a4.5995,4.5995,0,0,0,2.77933-.73409,2.29172,2.29172,0,0,0,.99455-1.93333,1.88232,1.88232,0,0,0-.18529-.88118"/><path class="cls-2" d="M16.61682,15.91675a2.4775,2.4775,0,0,1-.5092.28252,1.34011,1.34011,0,0,1-.50858.111,1.16469,1.16469,0,0,1-.55358-.1062.38162.38162,0,0,1-.18922-.366.74233.74233,0,0,1,.14215-.47654.93567.93567,0,0,1,.41625-.279,3.18876,3.18876,0,0,1,.6406-.14355q.3769-.04917.80676-.08527ZM16.312,17.23683H17.5363a.504.504,0,0,0,.46632-.37182l.70911-3.07461a1.55725,1.55725,0,0,0,.04138-.25377,2.19258,2.19258,0,0,0,.017-.23334,1.03256,1.03256,0,0,0-.55549-.96541,3.69288,3.69288,0,0,0-1.7391-.31081,7.74722,7.74722,0,0,0-1.17884.09057q-.59462.0916-.87472.16372l-.16587.838c-.04025.20534-.00656.37436.07582.37436.16031-.05928.40034-.13471.72123-.22453a3.26218,3.26218,0,0,1,.87976-.13621,2.36651,2.36651,0,0,1,.88293.12614.44789.44789,0,0,1,.296.44121.75249.75249,0,0,1-.01465.13722c-.01134.04239-.01852.07166-.02193.09031q-.83664.04882-1.55622.15313a4.65119,4.65119,0,0,0-1.2375.33778,1.95219,1.95219,0,0,0-.837.66675,1.77006,1.77006,0,0,0-.2833,1.01739,1.17533,1.17533,0,0,0,.39934.92377,1.48522,1.48522,0,0,0,1.02558.3547,2.66131,2.66131,0,0,0,.611-.05575,3.25537,3.25537,0,0,0,.47048-.16122,2.70013,2.70013,0,0,0,.40135-.2245c.143-.0946.26651-.17532.36692-.2437l-.124.54061"/><path class="cls-2" d="M23.72663,12.01975a.82354.82354,0,0,0-.61072.37185l-1.72247,2.95881L20.921,12.39615a.50292.50292,0,0,0-.46632-.37211h-.86955a.28974.28974,0,0,0-.29464.37211l.75326,4.879c.01374.10568.02736.19524.04061.26966l-.938,1.57262c-.12552.20433-.0584.37182.15148.37182h1.00855a.81937.81937,0,0,0,.60948-.37182l4.2007-7.09772Z"/></svg>