<svg id="Layer_1" data-name="Layer 1" xmlns="http://www.w3.org/2000/svg" viewBox="0 0 48 30"><defs><style>.cls-1{fill:#89be44;}.cls-2{fill:#fff;}.cls-3{fill:#16427c;}</style></defs><title>CardEco</title><rect class="cls-1" width="48" height="30" rx="4" ry="4"/><path class="cls-2" d="M11.02623,15.97164c.04832-3.60457,4.98938-6.46129,11.03741-6.38075a14.87664,14.87664,0,0,1,8.228,2.35357c-1.97035-1.755-5.34136-2.93692-9.1844-2.99C14.974,8.87386,9.96272,11.70532,9.91675,15.27874a4.99876,4.99876,0,0,0,2.13275,3.88334A5.6874,5.6874,0,0,1,11.02623,15.97164Z"/><path class="cls-3" d="M21.601,16.29845a1.00288,1.00288,0,0,1-.31308.85075,1.62257,1.62257,0,0,1-.97143.23692H15.54476a1.175,1.175,0,0,0,.71019,1.08325,3.02482,3.02482,0,0,0,1.40294.29908,4.01534,4.01534,0,0,0,1.54806-.39362,4.23242,4.23242,0,0,1,1.16011-.39233,1.07225,1.07225,0,0,1,.778.313,1.02316,1.02316,0,0,1,.32341.755q0,1.00835-1.6263,1.57232a7.68587,7.68587,0,0,1-2.5227.42446,4.52156,4.52156,0,0,1-3.33892-1.27291,4.33125,4.33125,0,0,1-1.27874-3.20755,4.26225,4.26225,0,0,1,1.32945-3.15009,4.48312,4.48312,0,0,1,3.28821-1.31443A4.124,4.124,0,0,1,20.374,13.343,4.06164,4.06164,0,0,1,21.601,16.29845Zm-2.65626-.61212A1.39538,1.39538,0,0,0,18.39,14.6677a1.67783,1.67783,0,0,0-2.30646,0,1.32852,1.32852,0,0,0-.53875,1.01863Z"/><path class="cls-3" d="M29.41922,19.33343q0,.834-1.16695,1.32253a5.01191,5.01191,0,0,1-1.96347.39128,4.24163,4.24163,0,0,1-3.248-1.33507,4.41088,4.41088,0,0,1-1.20143-3.14539,4.43427,4.43427,0,0,1,1.22668-3.1685,4.23058,4.23058,0,0,1,3.22273-1.296,5.59093,5.59093,0,0,1,1.97961.31423q1.15136.42306,1.1508,1.32013a1.17575,1.17575,0,0,1-.30378.80211.9924.9924,0,0,1-.77575.34643,3.31574,3.31574,0,0,1-.9276-.19794,3.36417,3.36417,0,0,0-.961-.19568,1.8104,1.8104,0,0,0-1.46753.62273,2.13692,2.13692,0,0,0-.4891,1.45251A2.28878,2.28878,0,0,0,24.933,17.987a1.5923,1.5923,0,0,0,1.36619.671,3.73831,3.73831,0,0,0,1.06108-.2128,3.79226,3.79226,0,0,1,.97941-.212,1.00477,1.00477,0,0,1,.75847.34643A1.09213,1.09213,0,0,1,29.41922,19.33343Z"/><path class="cls-3" d="M38.08356,16.56677a4.41748,4.41748,0,0,1-1.20277,3.14539,4.61968,4.61968,0,0,1-6.497,0,4.41053,4.41053,0,0,1-1.20038-3.14539,4.40639,4.40639,0,0,1,1.20038-3.14438,4.65693,4.65693,0,0,1,6.497,0A4.41332,4.41332,0,0,1,38.08356,16.56677Zm-2.65755,0a2.29466,2.29466,0,0,0-.43628-1.42022,1.73412,1.73412,0,0,0-2.71494,0,2.28657,2.28657,0,0,0-.43627,1.42022,2.35208,2.35208,0,0,0,.43627,1.43507,1.73232,1.73232,0,0,0,2.71494,0A2.36052,2.36052,0,0,0,35.426,16.56677Z"/></svg>