<svg id="Layer_1" data-name="Layer 1" xmlns="http://www.w3.org/2000/svg" xmlns:xlink="http://www.w3.org/1999/xlink" viewBox="0 0 48 30"><defs><style>.cls-1{fill:#222323;}.cls-2{fill:url(#radial-gradient);}.cls-3{fill:url(#radial-gradient-2);}.cls-4{fill:#e73a1f;}.cls-5{fill:#f28c1c;}.cls-6{fill:#e94290;}.cls-7{fill:#8abe29;}.cls-8{fill:#f5e83c;}.cls-9{fill:#4c99d4;}.cls-10{fill:#3a57a4;}.cls-11{fill:#fff;}</style><radialGradient id="radial-gradient" cx="26.8807" cy="13.32397" r="6.94217" gradientUnits="userSpaceOnUse"><stop offset="0.00562" stop-color="#8f4a97"/><stop offset="0.38172" stop-color="#8d4995"/><stop offset="0.56667" stop-color="#85458f"/><stop offset="0.70986" stop-color="#783f84"/><stop offset="0.83163" stop-color="#653674"/><stop offset="0.93867" stop-color="#4e2a61"/><stop offset="1" stop-color="#3c2252"/></radialGradient><radialGradient id="radial-gradient-2" cx="27.34797" cy="14.06663" r="11.65104" gradientUnits="userSpaceOnUse"><stop offset="0.00562" stop-color="#e94290"/><stop offset="0.31445" stop-color="#e7418e"/><stop offset="0.46637" stop-color="#df3f89"/><stop offset="0.58403" stop-color="#d23a7f"/><stop offset="0.68405" stop-color="#bf3472"/><stop offset="0.77296" stop-color="#a72c60"/><stop offset="0.85389" stop-color="#89224a"/><stop offset="0.92725" stop-color="#671731"/><stop offset="0.99566" stop-color="#3f0a14"/><stop offset="1" stop-color="#3c0912"/></radialGradient></defs><title>CardConnect</title><rect class="cls-1" width="48" height="30" rx="4" ry="4"/><path class="cls-2" d="M30.8396,7.94522a10.8998,10.8998,0,0,0-11.26846.85962A10.35808,10.35808,0,0,1,33.25228,19.87819a10.37209,10.37209,0,0,0-2.41269-11.933Z"/><path class="cls-3" d="M25.8209,25.24756a10.6364,10.6364,0,0,0,7.99515-13.51333A10.6245,10.6245,0,0,1,25.3561,22.08566,10.44923,10.44923,0,0,1,13.2589,14.881a10.65963,10.65963,0,0,0,.20395,2.121A10.45481,10.45481,0,0,0,25.8209,25.24756Z"/><path class="cls-4" d="M29.5427,5.64289a10.89418,10.89418,0,0,0-11.1293.02616,11.044,11.044,0,0,0-.92143.61472,10.90346,10.90346,0,0,1,14.464,9.47691A10.91532,10.91532,0,0,0,29.5427,5.64289Z"/><path class="cls-5" d="M33.3555,9.441a10.84594,10.84594,0,0,1,1.541,5.556,10.88192,10.88192,0,0,0-4.4899-8.82,11.05621,11.05621,0,0,0-.92755-.60537c.02152.02356.04264.04752.06369.07131A10.84806,10.84806,0,0,1,33.3555,9.441Z"/><path class="cls-6" d="M34.86551,15.81975c.00911-.12518.0165-.25051.02143-.37613l.00195-.04151c.00471-.13482.00782-.27.00757-.40513A10.907,10.907,0,0,0,29.5427,5.64289,10.91532,10.91532,0,0,1,31.956,15.76068a10.904,10.904,0,0,1-4.27454,9.48776c-.02928.02221-.05816.0448-.08776.0668a10.91188,10.91188,0,0,0,7.27-9.471Z"/><path class="cls-5" d="M18.63142,24.4757c-.03167-.0181-.06347-.03616-.09486-.05467Z"/><path class="cls-5" d="M31.956,15.76068a10.908,10.908,0,0,1-9.77321,8.03383,10.8865,10.8865,0,0,0,5.81212,1.20691A10.90772,10.90772,0,0,0,31.956,15.76068Z"/><path class="cls-7" d="M18.53656,24.421l-.0629-.03651Z"/><path class="cls-7" d="M22.1828,23.79451A10.89705,10.89705,0,0,1,22.735,4.19621a10.902,10.902,0,0,0-6.744,18.16844A10.84988,10.84988,0,0,0,22.1828,23.79451Z"/><path class="cls-8" d="M27.99492,25.00142a10.8865,10.8865,0,0,1-5.81212-1.20691,10.84988,10.84988,0,0,1-6.1918-1.42986,10.89766,10.89766,0,0,0,2.48266,2.01987l.0629.03651c.03139.01851.06319.03657.09486.05467a10.86889,10.86889,0,0,0,8.8588.87785,11.04311,11.04311,0,0,0,1.03165-.40281Q28.25836,24.98279,27.99492,25.00142Z"/><path class="cls-9" d="M13.557,14.27932A10.36218,10.36218,0,0,1,26.16118,5.48143,10.30719,10.30719,0,0,1,30.8396,7.94522a10.82137,10.82137,0,0,1,2.89728,2.13608A10.898,10.898,0,1,0,15.44772,21.73263c.23144.29321.48293.576.73712.83876A10.90517,10.90517,0,0,1,19.16066,9.11352q.2028-.16.41047-.30869A10.36666,10.36666,0,0,0,13.557,14.27932Z"/><path class="cls-10" d="M30.8396,7.94522A10.35769,10.35769,0,0,0,13.742,13.24305a10.45536,10.45536,0,0,0-.185,1.03627,10.36666,10.36666,0,0,1,6.01408-5.47448A10.8998,10.8998,0,0,1,30.8396,7.94522Z"/><path class="cls-11" d="M11.50674,18.19555a3.61821,3.61821,0,0,1-.92024-.10375,1.47923,1.47923,0,0,1-.68954-.39306,1.68176,1.68176,0,0,1-.40446-.74311,4.24333,4.24333,0,0,1-.12356-1.1151v-.51031a4.12211,4.12211,0,0,1,.1282-1.11635,1.70957,1.70957,0,0,1,.40446-.73678,1.4716,1.4716,0,0,1,.69-.38842,3.63864,3.63864,0,0,1,.91516-.10376,2.38556,2.38556,0,0,1,1.47758.38483A1.59116,1.59116,0,0,1,13.494,14.698a.14549.14549,0,0,1-.14571.14509h-.73637a.14522.14522,0,0,1-.14571-.14509,1.31937,1.31937,0,0,0-.05-.39053.49539.49539,0,0,0-.14193-.22815.64482.64482,0,0,0-.27391-.13265,2.53666,2.53666,0,0,0-1.04509.01349.58682.58682,0,0,0-.31315.19717.99431.99431,0,0,0-.183.42049,3.66382,3.66382,0,0,0-.06284.75237v.51031a3.74173,3.74173,0,0,0,.06284.75788,1.004,1.004,0,0,0,.183.42489.58794.58794,0,0,0,.31315.197,2.55124,2.55124,0,0,0,1.04509.01369.63922.63922,0,0,0,.27391-.13327.48831.48831,0,0,0,.14193-.22772,1.35568,1.35568,0,0,0,.05-.39982.14556.14556,0,0,1,.14571-.1455h.73637a.14584.14584,0,0,1,.14571.1455,1.60306,1.60306,0,0,1-.50969,1.33777,2.387,2.387,0,0,1-1.47758.38464Z"/><path class="cls-11" d="M15.90259,18.19555a3.54974,3.54974,0,0,1-.93585-.10924,1.44888,1.44888,0,0,1-.68533-.399,1.6931,1.6931,0,0,1-.38885-.74227,4.36575,4.36575,0,0,1-.11853-1.10454v-.51031a4.18045,4.18045,0,0,1,.12317-1.09653,1.7424,1.7424,0,0,1,.39347-.74058,1.45633,1.45633,0,0,1,.68576-.39939,4.00982,4.00982,0,0,1,1.85736.00043,1.489,1.489,0,0,1,.68427.3977,1.719,1.719,0,0,1,.39917.74184,4.18385,4.18385,0,0,1,.12317,1.09653v.51031a4.223,4.223,0,0,1-.12317,1.1056,1.738,1.738,0,0,1-.39347.74164,1.45121,1.45121,0,0,1-.68513.39855,3.55355,3.55355,0,0,1-.936.10924Zm0-4.29673a2.01556,2.01556,0,0,0-.5584.06517.6022.6022,0,0,0-.31081.19758.96656.96656,0,0,0-.17335.4188,3.9533,3.9533,0,0,0-.05882.74985v.51031a4.01665,4.01665,0,0,0,.05882.75978.9654.9654,0,0,0,.17335.41878.59935.59935,0,0,0,.31062.1976,2.44135,2.44135,0,0,0,1.117,0,.629.629,0,0,0,.31695-.1995.93019.93019,0,0,0,.1767-.41688,4.04213,4.04213,0,0,0,.05884-.75978v-.51031a3.98674,3.98674,0,0,0-.05884-.75028.9312.9312,0,0,0-.17691-.41668.62829.62829,0,0,0-.31651-.19926,2.01932,2.01932,0,0,0-.5586-.06517Z"/><path class="cls-11" d="M21.509,18.0918a.14525.14525,0,0,1-.14528-.14508V14.80179a1.68837,1.68837,0,0,0-.05526-.47319.61556.61556,0,0,0-.143-.26022.50252.50252,0,0,0-.23912-.12654,1.723,1.723,0,0,0-.40867-.043,1.80789,1.80789,0,0,0-.625.11429,2.03221,2.03221,0,0,0-.52338.284v3.64956a.145.145,0,0,1-.14552.14508h-.73635a.145.145,0,0,1-.1453-.14508V13.22487a.14508.14508,0,0,1,.1453-.1455h.49133a.14449.14449,0,0,1,.1358.09531l.10417.28257a3.00539,3.00539,0,0,1,.5993-.32094,2.44344,2.44344,0,0,1,.88839-.15141,2.67923,2.67923,0,0,1,.73953.09067,1.19589,1.19589,0,0,1,.54173.318,1.35293,1.35293,0,0,1,.3085.57568,3.15579,3.15579,0,0,1,.09512.83253v3.14493a.14535.14535,0,0,1-.14571.14508Z"/><path class="cls-11" d="M25.92868,18.0918a.14508.14508,0,0,1-.14508-.14508V14.80179a1.68664,1.68664,0,0,0-.05567-.47319.61369.61369,0,0,0-.14319-.26022.49973.49973,0,0,0-.23891-.12654,1.72314,1.72314,0,0,0-.40868-.043,1.8109,1.8109,0,0,0-.62523.11429,2.02181,2.02181,0,0,0-.52275.284v3.64956a.1454.1454,0,0,1-.14593.14508H22.9069a.14494.14494,0,0,1-.14508-.14508V13.22487a.145.145,0,0,1,.14508-.1455h.49133a.145.145,0,0,1,.13621.09531l.10417.28257a2.98046,2.98046,0,0,1,.59889-.32094,2.44463,2.44463,0,0,1,.88861-.15141,2.6825,2.6825,0,0,1,.73953.09067,1.194,1.194,0,0,1,.54152.318,1.3532,1.3532,0,0,1,.30872.57568,3.16569,3.16569,0,0,1,.0949.83253v3.14493a.14535.14535,0,0,1-.14571.14508Z"/><path class="cls-11" d="M29.32581,18.18627a3.86172,3.86172,0,0,1-.92277-.09868,1.48454,1.48454,0,0,1-.69483-.37747,1.68658,1.68658,0,0,1-.415-.73214,4.05732,4.05732,0,0,1-.1339-1.13745v-.51031a4.1212,4.1212,0,0,1,.12863-1.11635,1.6866,1.6866,0,0,1,.41014-.73784,1.50557,1.50557,0,0,1,.68345-.387,3.47193,3.47193,0,0,1,.89726-.10417,3.28454,3.28454,0,0,1,.87438.10417,1.46689,1.46689,0,0,1,.66.38337,1.6583,1.6583,0,0,1,.39475.733,4.23538,4.23538,0,0,1,.12358,1.11553v.54784a.14517.14517,0,0,1-.14508.1455H28.1888a3.41313,3.41313,0,0,0,.05672.58581.88327.88327,0,0,0,.17987.4074.657.657,0,0,0,.33066.19948,2.18361,2.18361,0,0,0,.57948.065,6.55663,6.55663,0,0,0,.87247-.05062c.2505-.03416.496-.0759.73087-.12567a.16458.16458,0,0,1,.03038-.003.145.145,0,0,1,.14506.14552v.63007a.14532.14532,0,0,1-.11218.14172,6.94221,6.94221,0,0,1-.75239.12736,7.9901,7.9901,0,0,1-.92393.04893Zm.97707-3.02938a4.3165,4.3165,0,0,0-.04386-.559,1.01459,1.01459,0,0,0-.15057-.41858.555.555,0,0,0-.283-.20874,1.70931,1.70931,0,0,0-.54668-.07171,1.90986,1.90986,0,0,0-.5565.06875.60423.60423,0,0,0-.31062.20811.9784.9784,0,0,0-.17059.41712,3.46451,3.46451,0,0,0-.0523.56408Z"/><path class="cls-11" d="M33.75022,18.19555a3.617,3.617,0,0,1-.92067-.10375,1.48386,1.48386,0,0,1-.69-.39306,1.68531,1.68531,0,0,1-.404-.74311,4.26076,4.26076,0,0,1-.12358-1.1151v-.51031a4.11263,4.11263,0,0,1,.12863-1.11635,1.70907,1.70907,0,0,1,.404-.73678,1.472,1.472,0,0,1,.6904-.38842,3.634,3.634,0,0,1,.91519-.10376,2.38615,2.38615,0,0,1,1.47737.38483,1.59283,1.59283,0,0,1,.509,1.32828.14508.14508,0,0,1-.14508.14509h-.73635a.14526.14526,0,0,1-.14593-.14509,1.29841,1.29841,0,0,0-.05018-.39053.49457.49457,0,0,0-.14128-.22815.64775.64775,0,0,0-.27456-.13265,2.5367,2.5367,0,0,0-1.04509.01349.58262.58262,0,0,0-.3125.19717.99956.99956,0,0,0-.18346.42049,3.68327,3.68327,0,0,0-.06243.75237v.51031a3.72766,3.72766,0,0,0,.06284.75788,1.0042,1.0042,0,0,0,.18261.42489.58653.58653,0,0,0,.31293.197,2.55128,2.55128,0,0,0,1.04509.01369.64336.64336,0,0,0,.27456-.13327.49093.49093,0,0,0,.14128-.22772,1.3344,1.3344,0,0,0,.05018-.39982.14561.14561,0,0,1,.14593-.1455h.73635a.14543.14543,0,0,1,.14508.1455,1.60474,1.60474,0,0,1-.509,1.33777,2.3868,2.3868,0,0,1-1.47737.38464Z"/><path class="cls-11" d="M37.72051,18.19555a1.25206,1.25206,0,0,1-.9717-.345,1.48125,1.48125,0,0,1-.3066-1.01851V13.99329h-.46855a.14476.14476,0,0,1-.14508-.1455v-.50988a.14456.14456,0,0,1,.11894-.143l.4947-.0911V12.07268a.14551.14551,0,0,1,.12146-.1436l.73635-.123.02405-.00168a.14572.14572,0,0,1,.1455.14571v1.12922h.92151a.14526.14526,0,0,1,.1455.1455v.62292a.14512.14512,0,0,1-.1455.1455h-.92151v2.85605a.54383.54383,0,0,0,.08687.33655.36391.36391,0,0,0,.29606.09553,1.50851,1.50851,0,0,0,.31841-.02954l.28425-.06156a.14541.14541,0,0,1,.17588.14234V17.948a.14587.14587,0,0,1-.10039.13832,2.11715,2.11715,0,0,1-.36985.08013,3.24121,3.24121,0,0,1-.44031.02911Z"/></svg>