<svg id="Layer_1" data-name="Layer 1" xmlns="http://www.w3.org/2000/svg" xmlns:xlink="http://www.w3.org/1999/xlink" viewBox="0 0 48.06249 30"><defs><style>.cls-1{fill:none;}.cls-2{fill:#fff;}.cls-3{clip-path:url(#clip-path);}.cls-4{fill:#ffa000;}.cls-5{fill:#0023a0;}</style><clipPath id="clip-path"><rect class="cls-1" width="48" height="30" rx="4" ry="4"/></clipPath></defs><title>CardVisa</title><rect class="cls-2" y="6.06251" width="48.06249" height="17.875"/><g class="cls-3"><rect class="cls-4" x="0.06249" y="23.93751" width="48" height="6.06249"/></g><g class="cls-3"><rect class="cls-5" width="48" height="6.06251"/></g><polyline class="cls-5" points="19.032 19.598 20.514 10.425 22.882 10.425 21.401 19.598 19.032 19.598"/><path class="cls-5" d="M29.99227,10.65051a5.86455,5.86455,0,0,0-2.12242-.385c-2.34164,0-3.99,1.24491-4.0038,3.02746-.01482,1.31846,1.17637,2.05389,2.0744,2.49205.92289.44928,1.233.73676,1.22929,1.1384-.00635.61439-.73662.89591-1.41767.89591a4.75314,4.75314,0,0,1-2.231-.481l-.30467-.14605-.33127,2.05322a7.16021,7.16021,0,0,0,2.6389.489c2.48875,0,4.10579-1.22982,4.12484-3.13329.00847-1.04554-.62272-1.83812-1.98959-2.49245-.82765-.42534-1.33566-.70713-1.32984-1.13762.00053-.38128.42916-.78942,1.35682-.78942a4.16238,4.16238,0,0,1,1.77264.35244l.21273.10491.32069-1.98854"/><path class="cls-5" d="M36.06834,10.43461H34.2379a1.17056,1.17056,0,0,0-1.24147.76042L29.479,19.60164h2.48769s.40588-1.13086.498-1.37905c.27147,0,2.68877.00477,3.0338.00477.07091.32016.2884,1.37428.2884,1.37428h2.19835l-1.91683-9.167M33.1462,16.34625c.19632-.52733.94354-2.564.94354-2.564-.01377.02421.19527-.53144.31486-.87526l.15981.79126s.45456,2.18949.54822,2.648Z"/><path class="cls-5" d="M17.045,10.433,14.72666,16.6869l-.24832-1.27123a7.04812,7.04812,0,0,0-3.28106-3.84782l2.12084,8.02268,2.50686-.00159L19.55493,10.433H17.045"/><path class="cls-4" d="M12.57462,10.4268H8.755l-.0315.19012a7.94621,7.94621,0,0,1,5.75487,4.79876l-.83-4.21494A.99471.99471,0,0,0,12.57462,10.4268Z"/><path class="cls-5" d="M38.75341,18.50743a.52309.52309,0,1,1-.52282.52309A.5207.5207,0,0,1,38.75341,18.50743Zm0,.96681a.44417.44417,0,1,0-.42413-.44372A.43135.43135,0,0,0,38.75341,19.47424Zm-.191-.70911h.23125a.15.15,0,0,1,.17212.15029.12271.12271,0,0,1-.088.11986v.0029c.06668.01138.07026.0745.07422.1253.00489.081,0,.09551.021.12409h-.10028c-.01918-.01932-.01482-.03427-.01918-.1192,0-.0483-.00608-.0975-.1147-.0975h-.07964v.2167h-.09683Zm.09683.2339h.11218c.07925,0,.09552-.0463.09552-.08361,0-.064-.04167-.079-.1061-.079h-.1016Z"/></svg>