<svg id="Layer_1" data-name="Layer 1" xmlns="http://www.w3.org/2000/svg" viewBox="0 0 48 30"><defs><style>.cls-1{fill:#232856;}.cls-2{fill:#cc1417;}.cls-3{fill:#f49819;}.cls-4{fill:#fff;}</style></defs><title>CardMasterCard</title><rect class="cls-1" width="48" height="30" rx="4" ry="4"/><circle class="cls-2" cx="16.41545" cy="15.00013" r="11.29886"/><path class="cls-3" d="M31.58493,3.70116a11.25935,11.25935,0,0,0-7.5855,2.92458,11.51839,11.51839,0,0,0-1.14022,1.1962h2.28263a11.58765,11.58765,0,0,1,.8614,1.19673H21.99746a11.33117,11.33117,0,0,0-.65093,1.19663H26.654a11.2477,11.2477,0,0,1,.47848,1.19621H20.868a11.2026,11.2026,0,0,0-.32833,1.196h6.9206a11.37921,11.37921,0,0,1-.32783,5.982H20.868a11.3581,11.3581,0,0,0,.47814,1.19689H26.654a11.32606,11.32606,0,0,1-.65179,1.19655H21.99746a11.42141,11.42141,0,0,0,.86176,1.1955h2.28193A11.30627,11.30627,0,0,1,24,23.375a11.29893,11.29893,0,1,0,7.585-19.6738Z"/><path class="cls-3" d="M41.3777,21.29852a.365.365,0,1,1,.36515.36515A.36494.36494,0,0,1,41.3777,21.29852Zm.36515.2776a.27743.27743,0,1,0-.27761-.2776A.2778.2778,0,0,0,41.74286,21.57613Zm-.04953-.11753h-.075v-.32014h.136a.15154.15154,0,0,1,.082.01534.09928.09928,0,0,1,.04046.08057.0873.0873,0,0,1-.0558.083l.05928.14124h-.083l-.04916-.1266h-.05476Zm0-.1817h.0415a.09663.09663,0,0,0,.04569-.00627.0439.0439,0,0,0,.01884-.037.04243.04243,0,0,0-.0185-.03278.10166.10166,0,0,0-.04776-.00593h-.03976Z"/><path class="cls-1" d="M13.777,16.23717a2.10661,2.10661,0,0,0-.27393-.01918c-.69523,0-1.04676.23854-1.04676.7097a.42777.42777,0,0,0,.43941.47464C13.39546,17.40234,13.75572,16.92666,13.777,16.23717Zm.89227,2.07679H13.65268l.02336-.483a1.54,1.54,0,0,1-1.28565.56358,1.14642,1.14642,0,0,1-1.12052-1.27292c0-1.13518.79271-1.7971,2.15352-1.7971a4.20236,4.20236,0,0,1,.50011.03593,1.1524,1.1524,0,0,0,.04794-.30228c0-.30846-.21361-.42425-.7866-.42425a4.09545,4.09545,0,0,0-1.29854.21013c.01289-.07742.17018-1.04815.17018-1.04815a4.87069,4.87069,0,0,1,1.46787-.24691c1.05356,0,1.61156.47289,1.61034,1.36674a5.96989,5.96989,0,0,1-.0994.92356C14.9289,16.51408,14.70029,17.96172,14.66926,18.314Z"/><polygon class="cls-1" points="10.757 18.314 9.53 18.314 10.233 13.909 8.664 18.314 7.828 18.314 7.724 13.933 6.986 18.314 5.838 18.314 6.797 12.583 8.561 12.583 8.667 15.791 9.743 12.583 11.705 12.583 10.757 18.314"/><path class="cls-1" d="M33.10058,16.23717a2.09694,2.09694,0,0,0-.27307-.01918c-.69575,0-1.04694.23854-1.04694.7097a.42741.42741,0,0,0,.43941.47464C32.71939,17.40234,33.07965,16.92666,33.10058,16.23717Zm.89279,2.07679H32.97712l.023-.483a1.53968,1.53968,0,0,1-1.28513.56358,1.14617,1.14617,0,0,1-1.12086-1.27292c0-1.13518.793-1.7971,2.1535-1.7971a4.204,4.204,0,0,1,.49975.03593,1.14289,1.14289,0,0,0,.04778-.30228c0-.30846-.21343-.42425-.78642-.42425a4.10272,4.10272,0,0,0-1.29908.21013c.01361-.07742.17124-1.04815.17124-1.04815a4.86827,4.86827,0,0,1,1.46717-.24691c1.05426,0,1.61156.47289,1.6105,1.36674a5.92532,5.92532,0,0,1-.09939.92356C34.25317,16.51408,34.024,17.96172,33.99337,18.314Z"/><path class="cls-1" d="M20.12069,18.24317a2.80469,2.80469,0,0,1-.88129.15136.89752.89752,0,0,1-.96934-1.02392,10.74585,10.74585,0,0,1,.16809-1.24223c.071-.43559.532-3.18065.532-3.18065h1.21905l-.14211.70534h.73637l-.16618,1.12034h-.73916c-.1416.88626-.34351,1.99039-.34578,2.13686,0,.24028.12833.34526.42006.34526a.99736.99736,0,0,0,.33062-.04394Z"/><path class="cls-1" d="M23.85906,18.20551a4.1501,4.1501,0,0,1-1.25094.189,1.85374,1.85374,0,0,1-2.07661-2.07924c0-1.59315.90482-2.76633,2.134-2.76633a1.55753,1.55753,0,0,1,1.64739,1.68627,4.98437,4.98437,0,0,1-.15056,1.14668H21.73415c-.082.67622.35049.95766,1.06037.95766a2.89188,2.89188,0,0,0,1.26735-.293ZM23.1736,15.4424c.00716-.09731.12922-.832-.56758-.832-.38815,0-.66593.29608-.77857.832Z"/><path class="cls-1" d="M15.40494,15.12687a1.36083,1.36083,0,0,0,.93395,1.30108c.49662.23366.57387.30271.57387.51441,0,.29016-.21936.422-.70446.422a3.447,3.447,0,0,1-1.09926-.18449l-.16845,1.07694a5.72032,5.72032,0,0,0,1.27642.13776c1.29419,0,1.89212-.49279,1.89212-1.55785a1.27643,1.27643,0,0,0-.86472-1.29908c-.51405-.23575-.57351-.28876-.57351-.50612,0-.252.20418-.38065.60037-.38065a6.77407,6.77407,0,0,1,.88163.06974l.17436-1.08094a8.27594,8.27594,0,0,0-1.07954-.09067C15.87558,13.549,15.40058,14.26563,15.40494,15.12687Z"/><path class="cls-1" d="M29.82481,13.67206a2.334,2.334,0,0,1,1.0961.30934l.20088-1.2438a3.60434,3.60434,0,0,0-1.34824-.48511,2.44358,2.44358,0,0,0-2.00285,1.07936c-.71214-.23557-1.0051.24082-1.36361.71564l-.31874.07428a2.38356,2.38356,0,0,0,.03905-.46871H25.00025c-.15343,1.44293-.42616,2.90391-.63959,4.34737l-.0558.31353h1.22723c.20472-1.33081.31667-2.1828.385-2.76l.46209-.256c.0694-.25728.28492-.34378.71841-.33315a5.23,5.23,0,0,0-.08719.9553c0,1.52508.82374,2.47437,2.14375,2.47437a3.83159,3.83159,0,0,0,1.0846-.16776l.21482-1.306a2.38664,2.38664,0,0,1-1.04169.294c-.7132,0-1.14459-.5266-1.14459-1.39638C28.2673,14.55614,28.90865,13.67206,29.82481,13.67206Z"/><path class="cls-1" d="M40.21011,12.58293l-.27273,1.65568a1.53291,1.53291,0,0,0-1.17073-.7608,1.90031,1.90031,0,0,0-1.55122,1.16029,10.068,10.068,0,0,1-1.04449-.28789l-.00036.00454a6.90288,6.90288,0,0,0,.05407-.70168H35.09784c-.1531,1.44293-.42616,2.90391-.63925,4.34737l-.0565.31353h1.22759c.16567-1.07553.29225-1.96973.38572-2.678.41954-.37908.62949-.70891,1.05251-.68747a3.99519,3.99519,0,0,0-.29712,1.51226c0,1.1648.589,1.9338,1.48112,1.9338a1.44592,1.44592,0,0,0,1.131-.51441l-.05791.43349h1.16063l.9343-5.73067ZM38.676,17.23738c-.41745,0-.62879-.30969-.62879-.91895,0-.91615.39513-1.56561.95137-1.56561.42163,0,.65006.32067.65006.91277C39.64862,16.58975,39.24686,17.23738,38.676,17.23738Z"/><polygon class="cls-4" points="11.109 17.974 9.883 17.974 10.586 13.568 9.017 17.974 8.181 17.974 8.077 13.594 7.339 17.974 6.191 17.974 7.15 12.243 8.914 12.243 8.963 15.791 10.153 12.243 12.058 12.243 11.109 17.974"/><path class="cls-4" d="M14.1301,15.89784a2.04393,2.04393,0,0,0-.27377-.01918c-.69523,0-1.04712.2382-1.04712.709a.42868.42868,0,0,0,.43977.47534C13.74874,17.063,14.10882,16.58733,14.1301,15.89784Zm.89209,2.07609H14.006l.02319-.48266a1.54067,1.54067,0,0,1-1.28549.56356,1.14683,1.14683,0,0,1-1.12052-1.27362c0-1.13516.79271-1.79629,2.15352-1.79629a4.10088,4.10088,0,0,1,.49993.03627,1.14971,1.14971,0,0,0,.048-.30324c0-.30828-.21361-.423-.7866-.423a4.07347,4.07347,0,0,0-1.29856.20889c.01291-.07724.17018-1.048.17018-1.048a4.88952,4.88952,0,0,1,1.468-.24691c1.05338,0,1.61122.47325,1.61016,1.36674a5.95619,5.95619,0,0,1-.09922.92356C15.282,16.17371,15.05341,17.62205,15.0222,17.97394Z"/><path class="cls-4" d="M31.47472,12.39757l-.20088,1.24364a2.34212,2.34212,0,0,0-1.09576-.30935c-.91581,0-1.5582.88513-1.5582,2.1475,0,.86977.43175,1.39532,1.14493,1.39532a2.37473,2.37473,0,0,0,1.04171-.294l-.21552,1.306a3.82542,3.82542,0,0,1-1.0839.1681c-1.3207,0-2.14339-.94962-2.14339-2.47435,0-2.04879,1.13725-3.48057,2.76276-3.48057A4.24521,4.24521,0,0,1,31.47472,12.39757Z"/><path class="cls-4" d="M33.4535,15.89784a2.03095,2.03095,0,0,0-.27307-.01918c-.695,0-1.04694.2382-1.04694.709a.42852.42852,0,0,0,.43943.47534C33.07233,17.063,33.43293,16.58733,33.4535,15.89784Zm.89279,2.07609H33.33l.023-.48266a1.5406,1.5406,0,0,1-1.28512.56356,1.14653,1.14653,0,0,1-1.12052-1.27362c0-1.13516.792-1.79629,2.15316-1.79629a4.0901,4.0901,0,0,1,.49939.03627,1.1518,1.1518,0,0,0,.04814-.30324c0-.30828-.21309-.423-.78642-.423a4.078,4.078,0,0,0-1.29838.20889c.01291-.07724.17018-1.048.17018-1.048a4.88926,4.88926,0,0,1,1.46787-.24691c1.05322,0,1.61156.47325,1.61016,1.36674a5.90833,5.90833,0,0,1-.099.92356C34.60611,16.17371,34.37768,17.62205,34.34629,17.97394Z"/><path class="cls-4" d="M20.47362,17.90314a2.80318,2.80318,0,0,1-.88111.1517.89768.89768,0,0,1-.96951-1.02357,10.80209,10.80209,0,0,1,.16845-1.24258c.07062-.43593.53183-3.18065.53183-3.18065H20.5425L20.4,13.31338h.62583l-.16652,1.11983h-.6281c-.14158.88713-.34369,1.99056-.346,2.137,0,.241.12853.34526.42024.34526a.98183.98183,0,0,0,.3308-.04394Z"/><path class="cls-4" d="M24.21243,17.86618a4.17648,4.17648,0,0,1-1.25139.18866,1.85332,1.85332,0,0,1-2.07643-2.07922c0-1.59368.905-2.76668,2.13328-2.76668a1.55765,1.55765,0,0,1,1.64791,1.68741,5.0509,5.0509,0,0,1-.15,1.14588H22.08761c-.08248.67621.35049.95836,1.05949.95836a2.88845,2.88845,0,0,0,1.2683-.294Zm-.68538-2.7639c.00662-.09747.12922-.83194-.56758-.83194-.38815,0-.66593.2966-.7791.83194Z"/><path class="cls-4" d="M15.75787,14.78666a1.36079,1.36079,0,0,0,.93429,1.3016c.49662.23366.57351.30273.57351.51441,0,.29051-.219.42163-.70446.42163a3.45616,3.45616,0,0,1-1.09924-.18343s-.16077,1.027-.16827,1.07552a5.6819,5.6819,0,0,0,1.27622.13846c1.29454,0,1.8923-.49277,1.8923-1.55785a1.275,1.275,0,0,0-.86472-1.29838c-.51423-.23671-.57333-.289-.57333-.50682,0-.252.20384-.38152.60037-.38152a6.81687,6.81687,0,0,1,.88127.07062l.17474-1.08076a8.34591,8.34591,0,0,0-1.07972-.09119C16.2285,13.20894,15.7537,13.9256,15.75787,14.78666Z"/><path class="cls-4" d="M40.83855,17.97394H39.67828l.05753-.43384a1.4451,1.4451,0,0,1-1.131.51475c-.8914,0-1.48112-.76828-1.48112-1.93414,0-1.55026.91441-2.857,1.99587-2.857a1.38422,1.38422,0,0,1,1.17145.63576l.272-1.65618h1.2098ZM39.0289,16.897c.5716,0,.97266-.64727.97266-1.5704,0-.59226-.22843-.914-.65006-.914-.55626,0-.95137.64954-.95137,1.56613C38.40012,16.58872,38.61181,16.897,39.0289,16.897Z"/><path class="cls-4" d="M35.45112,13.31338c-.15343,1.44259-.42616,2.90358-.63959,4.347l-.0558.31353h1.22689c.43872-2.85021.54439-3.40646,1.23282-3.33689a4.57289,4.57289,0,0,1,.46557-1.35174c-.51369-.10706-.80073.18327-1.17666.735a4.25206,4.25206,0,0,0,.07392-.70691Z"/><path class="cls-4" d="M25.35388,13.31338c-.15415,1.44259-.42722,2.90358-.64029,4.347l-.0558.31353H25.885c.43907-2.85021.54439-3.40646,1.23176-3.33689a4.60084,4.60084,0,0,1,.46629-1.35174c-.51335-.10706-.80073.18327-1.176.735a4.21318,4.21318,0,0,0,.07324-.70691Z"/><path class="cls-4" d="M41.37736,17.60914a.36462.36462,0,1,1,.36444.36479A.36486.36486,0,0,1,41.37736,17.60914Zm.36444.27726a.27743.27743,0,1,0-.27691-.27726A.27766.27766,0,0,0,41.7418,17.88641Zm-.04917-.11788H41.618v-.32015h.13567a.14977.14977,0,0,1,.0816.01639.09468.09468,0,0,1,.0408.07987.08765.08765,0,0,1-.05509.083l.05892.1409h-.083l-.04917-.1266h-.0551Zm0-.18134h.0415a.09186.09186,0,0,0,.04569-.00629.04407.04407,0,0,0,.01848-.037.04307.04307,0,0,0-.01778-.03314.1056.1056,0,0,0-.04778-.00523h-.0401Z"/></svg>