<svg id="Layer_1" data-name="Layer 1" xmlns="http://www.w3.org/2000/svg" viewBox="0 0 48 30"><defs><style>.cls-1{fill:#232856;}.cls-2,.cls-4{fill:#fff;}.cls-3{fill:#0386c7;}.cls-3,.cls-4,.cls-5{fill-rule:evenodd;}.cls-5{fill:#e52332;}</style></defs><title>CardMaestro</title><rect class="cls-1" width="48" height="30" rx="4" ry="4"/><rect class="cls-2" x="8.375" y="11.56251" width="32.25" height="8.125"/><path class="cls-3" d="M26.64144,14.63058c0,.21923.06886.272.666.50973a2.4876,2.4876,0,0,1,.42933.21706c.00185-.08491.0068-.169.0068-.25441,0-.28393-.014-.56436-.03428-.84307-.13352-.00759-.26126-.0127-.37079-.0127C26.87826,14.24719,26.64144,14.37745,26.64144,14.63058Z"/><path class="cls-3" d="M17.05231,16.54281a.46042.46042,0,0,0,.505.47932,1.08008,1.08008,0,0,0,1.01153-1.17487,2.58362,2.58362,0,0,0-.31459-.01941C17.45634,15.82784,17.05231,16.06837,17.05231,16.54281Z"/><path class="cls-3" d="M23.47618,14.80371a.58372.58372,0,0,0-.666-.60539c-.44779,0-.76812.3003-.89817.8422l1.55243.003Q23.476,14.89656,23.47618,14.80371Z"/><path class="cls-3" d="M26.1143,18.01578q-.27686,0-.78542-.039-.24618-.01915-.372-.04125l-.261-.04783-.06314-.01077.19518-1.08378a4.55513,4.55513,0,0,0,1.2767.18573c.56311,0,.81733-.13187.81733-.42443,0-.21321-.08918-.28258-.66586-.51837-.75261-.307-1.08446-.716-1.08446-1.30959-.00493-.86672.5466-1.58856,2.13986-1.58856.0764,0,.16645.00245.26318.0066a11.399,11.399,0,0,0-3.54913-6.48753,11.22405,11.22405,0,0,0-7.59305-2.94931,11.39535,11.39535,0,0,0,0,22.79007,11.22381,11.22381,0,0,0,7.59305-2.949,11.40392,11.40392,0,0,0,3.38988-5.72657A3.65681,3.65681,0,0,1,26.1143,18.01578Zm-12.50263-.07522.83659-4.44117-1.92637,4.44117H11.23829l-.23458-4.41574-.83939,4.41574H8.88659l1.0919-5.77717h2.19665L12.29142,15.74l1.54875-3.57658h2.289l-1.10977,5.77717Zm6.40192-2.49528-.29428,1.66677-.0495.29925-.036.23877-.0241.16321-.01381.12728H18.426l.02721-.48709a1.8805,1.8805,0,0,1-1.47668.56821,1.22375,1.22375,0,0,1-1.28639-1.28318c0-1.14438.90957-1.81159,2.47288-1.81159a5.40061,5.40061,0,0,1,.57364.03626,1.026,1.026,0,0,0,.05551-.30514c0-.31106-.24558-.42735-.90291-.42735a5.16915,5.16915,0,0,0-1.16992.131l-.19512.04983-.12632.03042.19518-1.05639a6.32759,6.32759,0,0,1,1.68543-.24948c1.20979,0,1.84938.47729,1.84938,1.37816A4.86651,4.86651,0,0,1,20.01359,15.44529Zm2.97279,1.517a3.72716,3.72716,0,0,0,1.462-.2972l-.234,1.17382a5.44842,5.44842,0,0,1-1.44271.19059c-1.57373-.00091-2.394-.72282-2.394-2.10482a2.57017,2.57017,0,0,1,2.46026-2.80037,1.69089,1.69089,0,0,1,1.89883,1.70783,4.47448,4.47448,0,0,1-.17283,1.16h-2.799a.90456.90456,0,0,0-.01352.14768C21.75138,16.68465,22.16876,16.96232,22.98639,16.96232Z"/><path class="cls-4" d="M41.42332,21.45492a.36534.36534,0,1,1,.3653.36783.36677.36677,0,0,1-.3653-.36783Zm.3653.27955a.2797.2797,0,1,0-.27777-.27955.27859.27859,0,0,0,.27777.27955Zm-.04926-.11818h-.075v-.32343h.1357a.14522.14522,0,0,1,.08175.0165.09674.09674,0,0,1,.041.08083.08839.08839,0,0,1-.05557.08352l.05913.14259h-.083l-.04915-.12786h-.05488v-.05534h.04135a.09274.09274,0,0,0,.04555-.00652.044.044,0,0,0,.01879-.03707.041.041,0,0,0-.01809-.03293.10156.10156,0,0,0-.04789-.0059h-.03969v.26563Z"/><path class="cls-4" d="M39.3869,17.46842h-.03975v.08231h.04135a.09125.09125,0,0,0,.04555-.00635.04417.04417,0,0,0,.019-.037.041.041,0,0,0-.01827-.03293A.1.1,0,0,0,39.3869,17.46842Z"/><path class="cls-4" d="M39.39646,17.2929a.27961.27961,0,1,0,.27749.2796A.27853.27853,0,0,0,39.39646,17.2929Zm.05472.441-.04915-.12762h-.05488v.12762h-.07493v-.32314h.1357a.14489.14489,0,0,1,.08169.0165.09676.09676,0,0,1,.041.0807.08778.08778,0,0,1-.05558.08342l.05912.14251Z"/><path class="cls-5" d="M37.01468,14.25359c-.718,0-1.16345.85549-1.16345,1.61064,0,.637.3052,1.065.80852,1.05581A1.39847,1.39847,0,0,0,37.74426,15.77a3.23182,3.23182,0,0,0,.04577-.56086C37.79,14.71773,37.592,14.25359,37.01468,14.25359Z"/><path class="cls-5" d="M31.61839,3.70775a11.22357,11.22357,0,0,0-7.59292,2.94931,11.45524,11.45524,0,0,0-1.14209,1.20642h2.28342a11.45641,11.45641,0,0,1,.8626,1.20664H22.02108a11.40318,11.40318,0,0,0-.652,1.20671h5.31172a11.32277,11.32277,0,0,1,.47977,1.20641H20.89a11.38712,11.38712,0,0,0-.32848,1.20648h6.92757c.03212.15025.05871.30249.08492.45485.3151.01351.70827.04665.99059.08547l-.20278,1.0876c-.22037-.02677-.44531-.046-.65269-.05776.02031.27869.03436.55913.03436.84309,0,.08554-.00331.17027-.00517.25536a1.17588,1.17588,0,0,1,.573,1.08969,1.32622,1.32622,0,0,1-.89252,1.37294q-.11138.45814-.25827.90143H20.89a11.31165,11.31165,0,0,0,.479,1.2066h5.31172a11.43949,11.43949,0,0,1-.65137,1.20669H22.02108a11.4381,11.4381,0,0,0,.86214,1.20642h2.28359a11.45142,11.45142,0,0,1-1.14133,1.20671,11.22332,11.22332,0,0,0,7.59292,2.949,11.39535,11.39535,0,0,0,0-22.79007ZM30.55885,16.88716a1.31754,1.31754,0,0,0,.37952-.044L30.752,17.88271a3.6224,3.6224,0,0,1-1.01154.1526c-.72047,0-1.11351-.36388-1.11351-1.03182a2.36115,2.36115,0,0,1,.04159-.42151l.08548-.45971.06593-.37183.65247-3.58752h1.4l-.20284,1.07891h.7184l-.19327,1.14226h-.72133l-.371,1.96011a1.11774,1.11774,0,0,0-.02419.1947C30.07829,16.78147,30.22391,16.88716,30.55885,16.88716ZM34.011,14.56363c-.67581,0-.89193.50336-1.39581,3.37693H31.2064l.85818-4.69872h1.27483l-.12426.71193c.43107-.55543.76395-.76292,1.22623-.76292a.78838.78838,0,0,1,.14167.01174c.0067.0011.04669.01094.12127.02744a.75854.75854,0,0,1,.15924.05076l-.51017,1.3286-.16475-.03391A1.58954,1.58954,0,0,0,34.011,14.56363Zm2.4944,3.5029a2.0068,2.0068,0,0,1-2.23623-2.16582,2.6247,2.6247,0,0,1,2.77212-2.7935A2.03932,2.03932,0,0,1,39.2772,15.2275a2.98987,2.98987,0,0,1-.03747.58271A2.47972,2.47972,0,0,1,36.50536,18.06653Zm2.8911-.126a.36806.36806,0,1,1,.36531-.36806A.36668.36668,0,0,1,39.39646,17.94056Z"/></svg>