<svg id="Layer_1" data-name="Layer 1" xmlns="http://www.w3.org/2000/svg" viewBox="0 0 48 30"><defs><style>.cls-1{fill:#0f8fcf;}.cls-2{fill:#fff;}.cls-3{fill:#e30f13;}</style></defs><title>CardPaysafe</title><rect class="cls-1" width="48" height="30" rx="4" ry="4"/><path class="cls-2" d="M9.43731,14.47354a1.07529,1.07529,0,0,1,.20125-.68524.86.86,0,0,1,.25667-.16567.76137.76137,0,0,1,.313-.07113h1.22585q.81143.00664.82478.88762v1.80846a.74669.74669,0,0,1-.24416.54113.78231.78231,0,0,1-.56033.24482H10.2949v1.3037h-.8576Zm1.96309.17039q-.00638-.20447-.194-.21185h-.66781a.23522.23522,0,0,0-.24369.25962v1.20148a.24176.24176,0,0,0,.26992.2593h.61209a.20093.20093,0,0,0,.15857-.072.1719.1719,0,0,0,.06491-.14Z"/><path class="cls-2" d="M14.92026,14.62291c.00423-.13189-.07224-.19486-.23091-.19053H12.96211V13.5515h1.945a.76117.76117,0,0,1,.86355.82315v1.84287a.8549.8549,0,0,1-.21451.57818.72517.72517,0,0,1-.5604.238H13.81981q-.85776-.00737-.87095-.78555v-.7111a.74444.74444,0,0,1,.83038-.82779h1.141ZM13.8067,15.97809a.13637.13637,0,0,0,.06868.11962.223.223,0,0,0,.15532.05478h.659c.149,0,.22618-.05771.23061-.1744v-.24617c0-.13423-.07848-.20187-.23688-.20187H14.0307a.29061.29061,0,0,0-.17792.04108.28026.28026,0,0,0-.04608.1879Z"/><path class="cls-2" d="M18.17971,17.45643a.2801.2801,0,0,0,.17472-.07263.18459.18459,0,0,0,.069-.14114v-.20895H17.32536a.89264.89264,0,0,1-.34347-.05483.79148.79148,0,0,1-.27027-.18208.87708.87708,0,0,1-.1849-.29168.914.914,0,0,1-.0592-.35264V13.5512h.85784v2.32187c0,.1864.076.27941.22972.27941h.60555a.26589.26589,0,0,0,.18692-.072.1818.1818,0,0,0,.07588-.14618V13.5512h.85034v3.83746a1.07814,1.07814,0,0,1-.2181.68368.73675.73675,0,0,1-.586.26486H16.46752v-.88078Z"/><path class="cls-2" d="M19.94722,16.15249h1.52833c.13985-.005.21249-.06088.21657-.1683v-.079a.17792.17792,0,0,0-.02-.07588c-.03428-.06653-.07615-.0995-.126-.0995h-.75784a.8466.8466,0,0,1-.578-.23164.66227.66227,0,0,1-.25119-.50747V14.3338q.01295-.76913.83574-.78231h1.77251v.88059H21.06587c-.17661,0-.26527.05424-.26527.16191v.08549c0,.11167.09088.16773.27157.16773h.75529a.71.71,0,0,1,.51587.23184.7838.7838,0,0,1,.22407.54049v.6427a.85356.85356,0,0,1-.24885.54074.70071.70071,0,0,1-.2386.18323.98261.98261,0,0,1-.33965.0473H19.94722Z"/><path class="cls-2" d="M25.14941,14.62291c.00364-.13189-.07322-.19486-.23147-.19082H23.19079V13.5515H25.136a.75993.75993,0,0,1,.86258.82315v1.84287a.85671.85671,0,0,1-.21421.57818.72258.72258,0,0,1-.56006.23781h-1.1762q-.858-.00708-.87038-.78536v-.7111a.74364.74364,0,0,1,.8304-.82779h1.14124ZM24.035,15.97809a.13551.13551,0,0,0,.06964.11962.22115.22115,0,0,0,.15443.05478h.65979c.1494,0,.226-.05771.23058-.1744v-.24617c0-.13423-.07981-.20187-.23752-.20187H24.259a.28832.28832,0,0,0-.17747.04108.28058.28058,0,0,0-.04659.1879Z"/><path class="cls-2" d="M26.69578,13.0515a.7294.7294,0,0,1,.26505-.572.9877.9877,0,0,1,.65605-.22431h.54471v.8515h-.32992c-.18136.00374-.27391.09063-.2775.25839v.1864h.60742v.88176h-.60742v2.6008h-.8584Z"/><path class="cls-2" d="M29.539,15.852v.05451a.23735.23735,0,0,0,.05557.1672.123.123,0,0,0,.11143.07873h1.762v.881H29.59453a1.30224,1.30224,0,0,1-.39817-.0479.72582.72582,0,0,1-.276-.16631.73381.73381,0,0,1-.19085-.28583,1.27006,1.27006,0,0,1-.05286-.40545l-.00713-1.76361a.744.744,0,0,1,.8349-.81322h1.15572a.7467.7467,0,0,1,.81366.84295v.69691Zm1.0619-1.24576V14.5858a.13576.13576,0,0,0-.05537-.11227.25158.25158,0,0,0-.14753-.04145h-.59714a.2628.2628,0,0,0-.186.06567.18643.18643,0,0,0-.0896.16016v.35343Z"/><path class="cls-2" d="M33.28918,17.03371a1.789,1.789,0,0,1-.356-.03383.76287.76287,0,0,1-.3397-.159.81255.81255,0,0,1-.24367-.34447,1.198,1.198,0,0,1-.06973-.42532V14.42682a1.06821,1.06821,0,0,1,.03983-.35377.73506.73506,0,0,1,.18106-.2993.78243.78243,0,0,1,.32342-.20442,1.50806,1.50806,0,0,1,.3668-.04094h1.31441v.206H33.22142a.90357.90357,0,0,0-.535.14.62082.62082,0,0,0-.20118.52416V16.044a1.08966,1.08966,0,0,0,.05267.33688.5944.5944,0,0,0,.4595.416,1.43893,1.43893,0,0,0,.30356.03037h1.22521v.20653Z"/><path class="cls-2" d="M38.09108,16.08512a2.12849,2.12849,0,0,1-.02685.35062.79532.79532,0,0,1-.17158.32057.86278.86278,0,0,1-.66923.2772H36.19851a.90525.90525,0,0,1-.64927-.23781.84245.84245,0,0,1-.25733-.65315v-.52962a.82011.82011,0,0,1,.89381-.91835h1.70693v-.23211a.80436.80436,0,0,0-.16537-.50262.522.522,0,0,0-.24652-.18815,1.26682,1.26682,0,0,0-.32043-.03727H35.2982v-.206h1.76535a2.6327,2.6327,0,0,1,.43973.03388.51441.51441,0,0,1,.187.07792A.6158.6158,0,0,1,37.859,13.8a1.095,1.095,0,0,1,.23211.70525Zm-.20462-1.18488H36.163a.6589.6589,0,0,0-.48452.19139.7081.7081,0,0,0-.17994.5134v.52475a1.10159,1.10159,0,0,0,.03246.27858.43462.43462,0,0,0,.16134.23476.75567.75567,0,0,0,.49377.18426h1.04424a.59967.59967,0,0,0,.65615-.69092Z"/><path class="cls-2" d="M40.01856,13.73443q-.71727.0135-.70473.78317v2.51592h-.20555V14.51843q-.01424-.99064.943-.98966h.22827v.20565Z"/><path class="cls-2" d="M43.69517,16.05948a.9019.9019,0,0,1-1.05422.97532h-.76129a2.11274,2.11274,0,0,1-.43191-.04052.81936.81936,0,0,1-.37664-.2383.78991.78991,0,0,1-.17236-.34042,1.29063,1.29063,0,0,1-.04028-.38443V14.5339a.89744.89744,0,0,1,1.0197-1.00426H43.49V12.3929h.20521ZM43.49,13.73554H41.86564a1.24542,1.24542,0,0,0-.31664.03794.55841.55841,0,0,0-.28369.18028.614.614,0,0,0-.16262.26518.89466.89466,0,0,0-.03846.32023v1.6043a.58979.58979,0,0,0,.23378.54548.92089.92089,0,0,0,.25729.10209,1.23836,1.23836,0,0,0,.317.03762h.70994a1.06515,1.06515,0,0,0,.649-.18431.69232.69232,0,0,0,.25876-.59893Z"/><path class="cls-3" d="M4.67323,13.41877a1.05257,1.05257,0,0,1,.20184-.06737,1.303,1.303,0,0,1,2.55029.00054.94015.94015,0,0,1,.47646.23041,1.87538,1.87538,0,0,0-.01281-.32574,1.74733,1.74733,0,0,0-3.48647.08259,2.5058,2.5058,0,0,0-.00438.2517,1.11736,1.11736,0,0,1,.27506-.17214"/><path class="cls-3" d="M7.17059,13.5512H5.07578a.76134.76134,0,0,0-.31268.07143.86717.86717,0,0,0-.25684.1654,1.07339,1.07339,0,0,0-.20142.68526v1.6378a1.07,1.07,0,0,0,.20142.68489.85112.85112,0,0,0,.25684.16658.77527.77527,0,0,0,.31268.07116h2.0948q.81136-.00737.82487-.88823v-1.7061q-.01291-.88158-.82487-.88818"/></svg>