<?xml version="1.0" encoding="utf-8"?>
<!-- Generator: Adobe Illustrator 19.2.1, SVG Export Plug-In . SVG Version: 6.00 Build 0)  -->
<svg version="1.1" id="Layer_2" xmlns="http://www.w3.org/2000/svg" xmlns:xlink="http://www.w3.org/1999/xlink" x="0px" y="0px"
	 viewBox="0 0 24 24" style="enable-background:new 0 0 24 24;" xml:space="preserve">
<style type="text/css">
	.st0{fill:#666666;}
</style>
<g>
	<path class="st0" d="M19.98,9.07h-0.87c-0.73,0-1.41-0.4-1.77-1.05l0,0c-0.17-0.31-0.26-0.64-0.26-0.98V6.17
		c0-1.12,0.91-2.03,2.03-2.03h0.87c1.12,0,2.03,0.91,2.03,2.03v0.87C22.01,8.16,21.1,9.07,19.98,9.07z M19.11,5
		c-0.64,0-1.17,0.52-1.17,1.17v0.87c0,0.19,0.05,0.38,0.15,0.56l0,0c0.21,0.38,0.6,0.61,1.01,0.61h0.87c0.64,0,1.17-0.52,1.17-1.17
		V6.17c0-0.64-0.52-1.17-1.17-1.17H19.11z"/>
	<path class="st0" d="M19.98,15.02h-0.87c-0.73,0-1.41-0.4-1.77-1.05l0.76-0.42c0.21,0.37,0.6,0.61,1.01,0.61h0.87
		c0.64,0,1.17-0.52,1.17-1.17v-0.87c0-0.64-0.52-1.17-1.17-1.17h-0.87c-0.4,0-0.77,0.21-0.99,0.56l-0.74-0.45
		c0.38-0.61,1.02-0.98,1.73-0.98h0.87c1.12,0,2.03,0.91,2.03,2.03v0.87C22.01,14.1,21.1,15.02,19.98,15.02z"/>
	<path class="st0" d="M17.34,13.96c-0.17-0.31-0.26-0.64-0.26-0.98v-0.87c0-0.37,0.1-0.73,0.3-1.06l0.74,0.45
		c-0.12,0.19-0.18,0.39-0.18,0.6v0.87c0,0.19,0.05,0.38,0.15,0.56L17.34,13.96z"/>
	<path class="st0" d="M19.98,20.96h-0.87c-1.12,0-2.03-0.91-2.03-2.03v-0.87c0-0.34,0.09-0.67,0.26-0.98
		c0.36-0.65,1.04-1.05,1.77-1.05h0.87c1.12,0,2.03,0.91,2.03,2.03v0.87C22.01,20.05,21.1,20.96,19.98,20.96z M19.11,16.9
		c-0.42,0-0.81,0.23-1.01,0.61l0,0c-0.1,0.18-0.15,0.37-0.15,0.56v0.87c0,0.64,0.52,1.17,1.17,1.17h0.87c0.64,0,1.17-0.52,1.17-1.17
		v-0.87c0-0.64-0.52-1.17-1.17-1.17H19.11z"/>
	<path class="st0" d="M4.89,9.07H4.02c-1.12,0-2.03-0.91-2.03-2.03V6.17c0-1.12,0.91-2.03,2.03-2.03h0.87
		c1.12,0,2.03,0.91,2.03,2.03v0.87c0,0.33-0.09,0.66-0.25,0.97l0,0C6.31,8.66,5.62,9.07,4.89,9.07z M4.02,5
		C3.38,5,2.86,5.53,2.86,6.17v0.87c0,0.64,0.52,1.17,1.17,1.17h0.87c0.42,0,0.81-0.24,1.02-0.62l0,0C6,7.41,6.05,7.22,6.05,7.04
		V6.17C6.05,5.53,5.53,5,4.89,5H4.02z"/>
	<path class="st0" d="M6.66,13.96L5.9,13.54c0.1-0.18,0.15-0.37,0.15-0.56v-0.87c0-0.19-0.05-0.38-0.15-0.56l0.76-0.42
		c0.17,0.31,0.26,0.64,0.26,0.98v0.87C6.92,13.32,6.83,13.65,6.66,13.96z"/>
	<path class="st0" d="M4.89,15.02H4.02c-1.12,0-2.03-0.91-2.03-2.03v-0.87c0-1.12,0.91-2.03,2.03-2.03h0.87
		c0.73,0,1.41,0.4,1.77,1.05L5.9,11.56c-0.21-0.38-0.6-0.61-1.01-0.61H4.02c-0.64,0-1.17,0.52-1.17,1.17v0.87
		c0,0.64,0.52,1.17,1.17,1.17h0.87c0.42,0,0.81-0.23,1.01-0.61l0.76,0.42C6.3,14.61,5.62,15.02,4.89,15.02z"/>
	<path class="st0" d="M4.89,20.96H4.02c-1.12,0-2.03-0.91-2.03-2.03v-0.87c0-1.12,0.91-2.03,2.03-2.03h0.87
		c0.73,0,1.41,0.4,1.77,1.05l0,0c0.17,0.31,0.26,0.64,0.26,0.98v0.87C6.92,20.05,6.01,20.96,4.89,20.96z M4.02,16.9
		c-0.64,0-1.17,0.52-1.17,1.17v0.87c0,0.64,0.52,1.17,1.17,1.17h0.87c0.64,0,1.17-0.52,1.17-1.17v-0.87c0-0.19-0.05-0.38-0.15-0.56
		c-0.21-0.37-0.6-0.61-1.01-0.61H4.02z"/>
	
		<rect x="14.14" y="11.52" transform="matrix(0.7476 -0.6641 0.6641 0.7476 -6.8873 13.6918)" class="st0" width="0.86" height="8.77"/>
	
		<rect x="4.99" y="15.48" transform="matrix(0.6642 -0.7476 0.7476 0.6642 -8.7419 12.3547)" class="st0" width="8.77" height="0.86"/>
	
		<rect x="10.19" y="9.34" transform="matrix(0.6642 -0.7476 0.7476 0.6642 -2.4135 14.175)" class="st0" width="8.77" height="0.86"/>
	
		<rect x="8.95" y="5.39" transform="matrix(0.7476 -0.6641 0.6641 0.7476 -4.1235 8.6968)" class="st0" width="0.86" height="8.77"/>
	
		<rect x="11.29" y="7.18" transform="matrix(3.877511e-03 -1 1 3.877511e-03 -1.0458 24.4052)" class="st0" width="0.86" height="11.1"/>
</g>
<g>
	<path class="st0" d="M9.68,3.82H9.66L8.8,4.23L8.63,3.44l1.19-0.55h0.87v4.49H9.68V3.82z"/>
	<path class="st0" d="M15.32,5.11c0,1.39-0.56,2.34-1.71,2.34c-1.16,0-1.67-1.04-1.68-2.32c0-1.3,0.55-2.33,1.71-2.33
		C14.85,2.81,15.32,3.88,15.32,5.11z M12.99,5.14c-0.01,1.03,0.24,1.52,0.65,1.52c0.41,0,0.63-0.51,0.63-1.53
		c0-1-0.21-1.52-0.64-1.52C13.24,3.6,12.98,4.1,12.99,5.14z"/>
</g>
</svg>
