<?xml version="1.0" encoding="utf-8"?>
<!-- Generator: Adobe Illustrator 19.2.1, SVG Export Plug-In . SVG Version: 6.00 Build 0)  -->
<svg version="1.1" id="Layer_2" xmlns="http://www.w3.org/2000/svg" xmlns:xlink="http://www.w3.org/1999/xlink" x="0px" y="0px"
	 viewBox="0 0 24 24" style="enable-background:new 0 0 24 24;" xml:space="preserve">
<style type="text/css">
	.st0{fill:#666666;}
</style>
<g>
	<g>
		<g>
			<path class="st0" d="M6.39,6.4L5.52,7.27l0.3,0.4c0.04-0.06,0.08-0.1,0.14-0.15C6.17,7.3,6.44,7.13,6.71,7.08
				C7,7.03,7.29,7.11,7.55,7.38c0.42,0.42,0.43,1.15-0.18,1.76C7.1,9.41,6.81,9.58,6.62,9.63l-0.3-0.49
				c0.15-0.05,0.42-0.19,0.62-0.4c0.22-0.22,0.35-0.56,0.11-0.79C6.81,7.72,6.49,7.76,6.04,8.21c-0.12,0.12-0.2,0.22-0.28,0.33
				L4.72,7.21l1.24-1.24L6.39,6.4z"/>
			<path class="st0" d="M9.16,5c0.7,0.7,0.9,1.46,0.32,2.03C8.9,7.61,8.12,7.34,7.48,6.71C6.82,6.06,6.58,5.26,7.17,4.68
				C7.77,4.08,8.54,4.38,9.16,5z M8.01,6.18C8.52,6.7,8.89,6.82,9.1,6.62c0.2-0.2,0.06-0.57-0.45-1.09c-0.5-0.5-0.87-0.66-1.08-0.44
				C7.36,5.28,7.48,5.66,8.01,6.18z"/>
		</g>
		<path class="st0" d="M4.98,13.79c-0.1,0-0.2-0.03-0.28-0.1c-1.43-1.27-2.24-3.09-2.24-4.99c0-3.68,3-6.68,6.68-6.68
			c2.16,0,4.2,1.05,5.45,2.82c0.13,0.19,0.09,0.45-0.1,0.58c-0.19,0.13-0.45,0.09-0.58-0.1c-1.1-1.55-2.88-2.47-4.78-2.47
			c-3.23,0-5.85,2.62-5.85,5.85c0,1.67,0.72,3.26,1.96,4.37c0.17,0.15,0.19,0.42,0.03,0.59C5.21,13.75,5.1,13.79,4.98,13.79z"/>
		<path class="st0" d="M6.07,10.97c-0.03,0-0.05,0-0.08-0.01c-0.71-0.14-1.35-0.48-1.85-0.98C2.61,8.45,2.77,5.79,4.51,4.05
			c1.74-1.74,4.39-1.9,5.93-0.37c0.7,0.7,1.08,1.67,1.05,2.72c-0.01,0.23-0.2,0.42-0.42,0.41c-0.23-0.01-0.41-0.2-0.41-0.42
			c0.02-0.82-0.27-1.58-0.81-2.12C8.64,3.07,6.51,3.23,5.09,4.64C3.68,6.05,3.52,8.19,4.73,9.39c0.38,0.38,0.87,0.64,1.42,0.75
			c0.23,0.04,0.37,0.26,0.33,0.49C6.44,10.83,6.27,10.97,6.07,10.97z"/>
	</g>
	<g>
		<g>
			<path class="st0" d="M14.08,21.99c-1.99,0-3.86-0.78-5.27-2.18c-2.91-2.91-2.91-7.64,0-10.55c1.41-1.41,3.28-2.18,5.27-2.18
				c1.99,0,3.86,0.78,5.27,2.18c2.91,2.91,2.91,7.64,0,10.55l0,0l0,0C17.95,21.21,16.07,21.99,14.08,21.99z M14.08,7.9
				c-1.77,0-3.43,0.69-4.69,1.94c-2.58,2.58-2.58,6.79,0,9.37c1.25,1.25,2.92,1.94,4.69,1.94s3.43-0.69,4.69-1.94l0,0
				c2.58-2.58,2.58-6.79,0-9.37C17.52,8.59,15.85,7.9,14.08,7.9z"/>
			<g>
				<path class="st0" d="M12.88,13.34v-0.85h-1.59v-0.55l1.36-2.18h1.03v2.1h0.43v0.63h-0.43v0.85H12.88z M12.88,11.86v-0.79
					c0-0.22,0.01-0.44,0.03-0.67h-0.02c-0.12,0.23-0.21,0.44-0.33,0.67l-0.48,0.78v0.01H12.88z"/>
				<path class="st0" d="M16.82,11.53c0,1.11-0.45,1.87-1.36,1.87c-0.93,0-1.33-0.83-1.34-1.85c0-1.04,0.44-1.86,1.37-1.86
					C16.45,9.7,16.82,10.55,16.82,11.53z M14.96,11.55c-0.01,0.82,0.19,1.21,0.52,1.21c0.33,0,0.5-0.41,0.5-1.22
					c0-0.79-0.17-1.21-0.51-1.21C15.17,10.33,14.96,10.72,14.96,11.55z"/>
			</g>
			<path class="st0" d="M14.08,15.94c-2.73,0-4.95-1.96-4.95-4.37s2.22-4.37,4.95-4.37s4.95,1.96,4.95,4.37S16.81,15.94,14.08,15.94
				z M14.08,8.04c-2.27,0-4.12,1.59-4.12,3.54s1.85,3.54,4.12,3.54s4.12-1.59,4.12-3.54S16.35,8.04,14.08,8.04z"/>
		</g>
		<path class="st0" d="M14.08,20.21c-0.23,0-0.42-0.19-0.42-0.42c0-0.23,0.19-0.42,0.42-0.42c2.67,0,4.85-2.18,4.85-4.85
			c0-0.23,0.19-0.42,0.42-0.42s0.42,0.19,0.42,0.42C19.76,17.66,17.21,20.21,14.08,20.21z"/>
	</g>
</g>
</svg>
