<?xml version="1.0" encoding="utf-8"?>
<!-- Generator: Adobe Illustrator 19.2.1, SVG Export Plug-In . SVG Version: 6.00 Build 0)  -->
<svg version="1.1" id="Layer_2" xmlns="http://www.w3.org/2000/svg" xmlns:xlink="http://www.w3.org/1999/xlink" x="0px" y="0px"
	 viewBox="0 0 24 24" style="enable-background:new 0 0 24 24;" xml:space="preserve">
<style type="text/css">
	.st0{fill:#666666;}
</style>
<g>
	<g>
		<g>
			<path class="st0" d="M6.06,9.17C5.79,8.9,5.76,8.56,5.9,8.2L5.88,8.19C5.55,8.3,5.26,8.22,5.06,8.02
				C4.68,7.64,4.77,7.04,5.22,6.59c0.53-0.53,1.06-0.44,1.33-0.17c0.2,0.2,0.28,0.49,0.17,0.83l0.01,0.01
				c0.3-0.14,0.69-0.14,0.98,0.15c0.41,0.41,0.34,1.03-0.18,1.56C6.95,9.54,6.37,9.48,6.06,9.17z M5.54,7.51
				C5.7,7.66,5.93,7.62,6.17,7.49c0.09-0.16,0.08-0.38-0.06-0.52c-0.14-0.14-0.36-0.2-0.55,0C5.38,7.15,5.4,7.36,5.54,7.51z
				 M7.21,7.98c-0.2-0.2-0.46-0.17-0.73-0.02c-0.13,0.22-0.1,0.45,0.06,0.61c0.16,0.17,0.44,0.2,0.64,0
				C7.37,8.39,7.37,8.14,7.21,7.98z"/>
			<path class="st0" d="M9.15,4.98c0.7,0.7,0.9,1.46,0.32,2.04C8.88,7.61,8.1,7.34,7.46,6.7C6.8,6.05,6.56,5.25,7.15,4.66
				C7.75,4.06,8.53,4.36,9.15,4.98z M7.99,6.17C8.5,6.69,8.88,6.81,9.08,6.61s0.06-0.58-0.46-1.09c-0.5-0.5-0.87-0.66-1.09-0.45
				C7.34,5.27,7.46,5.65,7.99,6.17z"/>
		</g>
		<path class="st0" d="M4.95,13.82c-0.1,0-0.2-0.03-0.28-0.11c-1.43-1.27-2.25-3.1-2.25-5.02c0-3.7,3.01-6.71,6.71-6.71
			c2.17,0,4.22,1.06,5.48,2.83C14.75,5,14.7,5.26,14.51,5.4c-0.19,0.13-0.45,0.09-0.58-0.1c-1.1-1.55-2.9-2.48-4.8-2.48
			c-3.24,0-5.88,2.64-5.88,5.88c0,1.68,0.72,3.28,1.97,4.39c0.17,0.15,0.19,0.42,0.03,0.59C5.18,13.77,5.07,13.82,4.95,13.82z"/>
		<path class="st0" d="M6.04,10.98c-0.03,0-0.05,0-0.08-0.01C5.25,10.83,4.6,10.49,4.1,9.99C2.56,8.45,2.73,5.78,4.47,4.03
			c1.74-1.74,4.41-1.91,5.95-0.37c0.71,0.71,1.08,1.68,1.06,2.74c-0.01,0.23-0.2,0.42-0.43,0.41c-0.23-0.01-0.41-0.2-0.41-0.43
			c0.02-0.83-0.27-1.58-0.81-2.13C8.62,3.04,6.48,3.21,5.06,4.63C3.64,6.04,3.48,8.18,4.69,9.4c0.38,0.38,0.88,0.64,1.43,0.75
			c0.23,0.05,0.37,0.26,0.33,0.49C6.41,10.84,6.24,10.98,6.04,10.98z"/>
	</g>
	<g>
		<g>
			<path class="st0" d="M14.09,22c-2,0-3.88-0.78-5.3-2.19c-2.92-2.92-2.92-7.67,0-10.59c1.41-1.41,3.3-2.19,5.3-2.19
				c2,0,3.88,0.78,5.3,2.19c2.92,2.92,2.92,7.67,0,10.59l0,0l0,0C17.97,21.22,16.09,22,14.09,22z M14.09,7.85
				c-1.78,0-3.45,0.69-4.71,1.95c-2.6,2.6-2.6,6.82,0,9.41c1.26,1.26,2.93,1.95,4.71,1.95s3.45-0.69,4.71-1.95l0,0
				c2.6-2.6,2.6-6.82,0-9.41C17.54,8.55,15.87,7.85,14.09,7.85z"/>
			<g>
				<path class="st0" d="M14.04,9.71v0.53l-1.48,3.07h-0.89l1.48-2.9v-0.01H11.5V9.71H14.04z"/>
				<path class="st0" d="M16.66,10.41h-1.4l-0.08,0.55c0.08-0.01,0.14-0.01,0.23-0.01c0.34,0,0.69,0.08,0.95,0.26
					c0.27,0.18,0.44,0.48,0.44,0.9c0,0.67-0.58,1.26-1.54,1.26c-0.44,0-0.8-0.1-1-0.2l0.15-0.63c0.16,0.08,0.49,0.18,0.81,0.18
					c0.35,0,0.72-0.17,0.72-0.55c0-0.37-0.29-0.6-1.01-0.6c-0.2,0-0.34,0.01-0.49,0.03l0.24-1.89h1.98V10.41z"/>
			</g>
			<path class="st0" d="M14.09,15.93c-2.74,0-4.97-1.97-4.97-4.39s2.23-4.39,4.97-4.39s4.97,1.97,4.97,4.39S16.83,15.93,14.09,15.93
				z M14.09,7.99c-2.28,0-4.14,1.59-4.14,3.55s1.86,3.55,4.14,3.55s4.14-1.59,4.14-3.55S16.37,7.99,14.09,7.99z"/>
		</g>
		<path class="st0" d="M14.09,20.21c-0.23,0-0.42-0.19-0.42-0.42s0.19-0.42,0.42-0.42c2.69,0,4.87-2.18,4.87-4.87
			c0-0.23,0.19-0.42,0.42-0.42c0.23,0,0.42,0.19,0.42,0.42C19.8,17.66,17.24,20.21,14.09,20.21z"/>
	</g>
</g>
</svg>
