<?xml version="1.0" encoding="utf-8"?>
<!-- Generator: Adobe Illustrator 19.2.1, SVG Export Plug-In . SVG Version: 6.00 Build 0)  -->
<svg version="1.1" id="Layer_2" xmlns="http://www.w3.org/2000/svg" xmlns:xlink="http://www.w3.org/1999/xlink" x="0px" y="0px"
	 viewBox="0 0 24 24" style="enable-background:new 0 0 24 24;" xml:space="preserve">
<style type="text/css">
	.st0{fill:#666666;}
</style>
<g>
	<path class="st0" d="M15.88,21.01H6.33v-0.44c0-1.62,0.16-4.64,1.21-6.64c1.17-2.22,2.42-3.39,3.74-4.28
		C10.8,9.6,10.33,9.49,9.86,9.39C9.01,9.2,8.21,9.02,7.47,9.12c-1.24,0.18-2,1.42-2,1.91v0.44H1.99V3.66h3.48v0.3
		c3.13-1.8,7.02-1.03,8.75-0.32c1.71,0.71,4.39,0.12,5.21-0.43l0.26-0.17l2.33,1.84l-0.31,0.35c-3.54,3.89-4.46,6.76-5.23,9.84
		c-0.39,1.58-0.6,4.61-0.6,5.51V21.01z M7.21,20.14h7.81c0.05-1.24,0.26-3.84,0.62-5.28c0.77-3.1,1.7-6,5.12-9.87L19.63,4.1
		c-1.27,0.65-3.95,1.09-5.75,0.35c-1.7-0.71-5.68-1.47-8.59,0.67l-0.7,0.51v-1.1H2.87v6.07h1.8c0.26-0.93,1.26-2.13,2.68-2.34h0
		c0.9-0.13,1.82,0.08,2.71,0.28c1.14,0.26,2.21,0.5,3.07,0l0.44,0.76c0,0,0,0,0,0l-0.23,0.13c-1.88,1.09-3.5,2.02-5.03,4.92
		C7.41,16.05,7.23,18.71,7.21,20.14z"/>
</g>
</svg>
