<?xml version="1.0" encoding="utf-8"?>
<!-- Generator: Adobe Illustrator 19.2.1, SVG Export Plug-In . SVG Version: 6.00 Build 0)  -->
<svg version="1.1" id="Layer_2" xmlns="http://www.w3.org/2000/svg" xmlns:xlink="http://www.w3.org/1999/xlink" x="0px" y="0px"
	 viewBox="0 0 24 24" style="enable-background:new 0 0 24 24;" xml:space="preserve">
<style type="text/css">
	.st0{fill:#666666;}
</style>
<g>
	<g>
		<path class="st0" d="M7.93,12.73c0.11-0.09,0.2-0.18,0.35-0.35c0.23-0.26,0.41-0.58,0.47-0.89c0.07-0.38-0.01-0.75-0.2-1.07
			l-0.02,0.01c0.01,0.31-0.13,0.62-0.44,0.94c-0.58,0.58-1.48,0.67-2.15,0C5.26,10.69,5.24,9.59,6,8.83
			c0.88-0.88,1.98-0.62,2.79,0.18c0.72,0.72,1.01,1.47,0.98,2.19c-0.03,0.63-0.32,1.24-0.83,1.8c-0.13,0.15-0.27,0.28-0.37,0.37
			L7.93,12.73z M6.69,10.51c0.3,0.3,0.71,0.39,1.04,0.06C7.95,10.36,8,10.1,7.95,9.91C7.93,9.83,7.89,9.76,7.79,9.66
			C7.43,9.3,6.93,9.07,6.56,9.44C6.29,9.72,6.33,10.16,6.69,10.51z"/>
		<path class="st0" d="M12.01,6.35c1.06,1.06,1.37,2.22,0.49,3.1c-0.89,0.89-2.08,0.48-3.06-0.49c-1-1-1.36-2.21-0.47-3.1
			C9.88,4.94,11.06,5.4,12.01,6.35z M10.24,8.15c0.78,0.79,1.35,0.98,1.66,0.67c0.31-0.31,0.09-0.87-0.69-1.66
			c-0.76-0.76-1.33-1-1.65-0.68C9.26,6.78,9.44,7.36,10.24,8.15z"/>
	</g>
	<path class="st0" d="M12,22.02c-5.52,0-10.01-4.49-10.01-10.01S6.48,2,12,2c5.52,0,10.01,4.49,10.01,10.01S17.52,22.02,12,22.02z
		 M12,2.87c-5.04,0-9.13,4.1-9.13,9.14s4.1,9.14,9.13,9.14c5.04,0,9.14-4.1,9.14-9.14S17.04,2.87,12,2.87z"/>
	<path class="st0" d="M12,19.6c-0.24,0-0.44-0.2-0.44-0.44s0.2-0.44,0.44-0.44c3.71,0,6.72-3.01,6.72-6.72
		c0-0.24,0.2-0.44,0.44-0.44c0.24,0,0.44,0.2,0.44,0.44C19.59,16.19,16.19,19.6,12,19.6z"/>
	<path class="st0" d="M8.36,15.38c-1.45,0-2.83-0.51-3.87-1.55c-2.26-2.26-2.01-6.2,0.56-8.77c2.57-2.57,6.51-2.83,8.77-0.56l0,0
		c2.26,2.26,2.01,6.2-0.56,8.77C11.87,14.67,10.08,15.38,8.36,15.38z M9.95,3.82c-1.49,0-3.06,0.63-4.28,1.85
		c-2.23,2.23-2.48,5.62-0.56,7.54c1.92,1.92,5.31,1.67,7.54-0.56c2.23-2.23,2.48-5.62,0.56-7.54C12.34,4.25,11.18,3.82,9.95,3.82z"
		/>
</g>
</svg>
