<?xml version="1.0" encoding="utf-8"?>
<!-- Generator: Adobe Illustrator 19.2.1, SVG Export Plug-In . SVG Version: 6.00 Build 0)  -->
<svg version="1.1" id="Layer_2" xmlns="http://www.w3.org/2000/svg" xmlns:xlink="http://www.w3.org/1999/xlink" x="0px" y="0px"
	 viewBox="0 0 24 24" style="enable-background:new 0 0 24 24;" xml:space="preserve">
<style type="text/css">
	.st0{fill:#666666;}
</style>
<g>
	<g>
		<path class="st0" d="M10.22,8.96H7.34c-0.45,0-0.82-0.37-0.82-0.82V5.62c0-0.32,0.31-0.52,0.82-0.52s0.82,0.2,0.82,0.52v1.69h2.07
			v0.62H7.85H7.54V7.63V5.74c-0.05-0.01-0.13-0.02-0.2-0.02s-0.15,0.01-0.2,0.02v2.39c0,0.11,0.09,0.2,0.2,0.2h2.89V8.96z"/>
		<path class="st0" d="M18.4,20.37"/>
		<path class="st0" d="M18.4,20.37"/>
		<path class="st0" d="M7.82,13.37c-3.13,0-5.68-2.55-5.68-5.68c0-3.13,2.55-5.68,5.68-5.68c3.13,0,5.68,2.55,5.68,5.68
			C13.5,10.82,10.95,13.37,7.82,13.37z M7.82,2.61c-2.8,0-5.08,2.28-5.08,5.08c0,2.8,2.28,5.08,5.08,5.08c2.8,0,5.08-2.28,5.08-5.08
			C12.91,4.89,10.63,2.61,7.82,2.61z"/>
	</g>
	<g>
		<path class="st0" d="M18.41,14"/>
		<path class="st0" d="M18.41,14"/>
		
			<rect x="18.25" y="4.66" transform="matrix(-1.836970e-16 1 -1 -1.836970e-16 26.3148 -10.8115)" class="st0" width="0.63" height="6.19"/>
		
			<rect x="14.14" y="14.38" transform="matrix(-1.836970e-16 1 -1 -1.836970e-16 36.0634 -6.678)" class="st0" width="14.46" height="0.63"/>
		<rect x="19.35" y="7.57" class="st0" width="0.12" height="0.12"/>
		<rect x="19.35" y="7.57" class="st0" width="0.12" height="0.12"/>
		
			<rect x="14.59" y="14.86" transform="matrix(-1.836970e-16 1 -1 -1.836970e-16 36.547 6.7384)" class="st0" width="0.63" height="13.57"/>
		
			<rect x="5.16" y="18.32" transform="matrix(-1.836970e-16 1 -1 -1.836970e-16 27.0779 10.2021)" class="st0" width="6.56" height="0.63"/>
	</g>
</g>
<path class="st0" d="M15.04,18.61c-0.94,0-1.83-0.37-2.49-1.03c-0.67-0.67-1.03-1.55-1.03-2.49c0-0.94,0.37-1.83,1.03-2.49
	c0.67-0.67,1.55-1.03,2.49-1.03s1.83,0.37,2.49,1.03c0.67,0.67,1.03,1.55,1.03,2.49c0,0.94-0.37,1.83-1.03,2.49
	C16.87,18.24,15.98,18.61,15.04,18.61z M14.38,18.07c0.22,0.05,0.44,0.07,0.66,0.07c0.22,0,0.44-0.02,0.65-0.07l0.49-0.92
	l-0.53-0.81h-1.24l-0.53,0.81L14.38,18.07z M16.35,17.85c0.31-0.15,0.6-0.35,0.85-0.6l-0.58,0.1L16.35,17.85z M12.88,17.24
	c0.25,0.25,0.53,0.45,0.85,0.6l-0.26-0.5L12.88,17.24C12.88,17.24,12.88,17.24,12.88,17.24z M16.57,16.88l1.07-0.19
	c0.22-0.35,0.36-0.74,0.42-1.15l-0.8-0.84l-0.83,0.19l-0.38,1.18L16.57,16.88z M13.51,16.88l0.53-0.81l-0.38-1.18l-0.83-0.19
	l-0.8,0.83c0.06,0.41,0.2,0.79,0.41,1.15L13.51,16.88z M15.62,15.87l0.36-1.09l-0.93-0.68l-0.93,0.68l0.36,1.09H15.62z M18.08,14.88
	c-0.03-0.46-0.16-0.91-0.39-1.31l-0.11,0.78L18.08,14.88z M12.39,13.57c-0.23,0.4-0.36,0.84-0.39,1.3l0.5-0.52L12.39,13.57z
	 M13.78,14.43l1.02-0.74v-0.77l-1.15-0.55c-0.28,0.14-0.54,0.33-0.77,0.56c-0.03,0.03-0.06,0.06-0.09,0.1l0.16,1.22L13.78,14.43z
	 M16.3,14.43l0.83-0.19l0.16-1.22c-0.03-0.03-0.06-0.06-0.09-0.1c-0.23-0.23-0.49-0.42-0.77-0.56l-1.15,0.55v0.77L16.3,14.43z
	 M15.04,12.51l0.78-0.37c-0.25-0.07-0.51-0.1-0.78-0.1s-0.53,0.03-0.78,0.1L15.04,12.51z"/>
</svg>
