<?xml version="1.0" encoding="utf-8"?>
<!-- Generator: Adobe Illustrator 19.2.1, SVG Export Plug-In . SVG Version: 6.00 Build 0)  -->
<svg version="1.1" id="Layer_2" xmlns="http://www.w3.org/2000/svg" xmlns:xlink="http://www.w3.org/1999/xlink" x="0px" y="0px"
	 viewBox="0 0 24 24" style="enable-background:new 0 0 24 24;" xml:space="preserve">
<style type="text/css">
	.st0{fill:#666666;}
</style>
<path class="st0" d="M15.53,10.12L12,6.79l-3.54,3.32L15.53,10.12L15.53,10.12z M15.89,10.87L8.1,10.85l3.93,8.35L15.89,10.87
	L15.89,10.87z M12.04,20.45c-0.09,0-0.19-0.04-0.26-0.11L2.1,10.74c-0.12-0.12-0.14-0.3-0.06-0.45l2.34-4.2
	C4.44,5.97,4.57,5.9,4.7,5.9L19.3,5.92c0.14,0,0.26,0.07,0.33,0.19l2.33,4.2c0.08,0.15,0.06,0.33-0.06,0.44l-9.59,9.58
	C12.23,20.42,12.13,20.45,12.04,20.45L12.04,20.45z M4.73,6.99L2.99,10.1l3.82,0.01L4.73,6.99L4.73,6.99z M11.06,6.66L5.4,6.64
	l2.18,3.26L11.06,6.66L11.06,6.66z M18.6,6.67l-5.65-0.01l3.47,3.26L18.6,6.67L18.6,6.67z M20.99,10.13l-1.73-3.12l-2.09,3.11
	L20.99,10.13L20.99,10.13z M13.25,18.34l7.48-7.47l-4.02-0.01L13.25,18.34L13.25,18.34z M3.27,10.85l7.53,7.48l-3.52-7.48
	L3.27,10.85L3.27,10.85z"/>
</svg>
