<?xml version="1.0" encoding="utf-8"?>
<!-- Generator: Adobe Illustrator 19.2.1, SVG Export Plug-In . SVG Version: 6.00 Build 0)  -->
<svg version="1.1" id="Layer_2" xmlns="http://www.w3.org/2000/svg" xmlns:xlink="http://www.w3.org/1999/xlink" x="0px" y="0px"
	 viewBox="0 0 24 24" style="enable-background:new 0 0 24 24;" xml:space="preserve">
<style type="text/css">
	.st0{fill:#666666;}
</style>
<g>
	<path class="st0" d="M15.21,8.88c-0.07-0.07-0.15-0.1-0.24-0.1c-0.09,0-0.18,0.04-0.24,0.1l-1.01,1.01l-0.97-0.97
		c-0.06-0.07-0.15-0.1-0.24-0.1c-0.09,0-0.18,0.04-0.24,0.1c-0.06,0.07-0.1,0.15-0.1,0.24c0,0.09,0.04,0.18,0.1,0.24l0.97,0.97
		L12,11.6l-0.97-0.97c-0.07-0.07-0.15-0.1-0.24-0.1c-0.09,0-0.18,0.04-0.24,0.1c-0.06,0.07-0.1,0.15-0.1,0.24s0.04,0.18,0.1,0.24
		l0.97,0.97l-1.22,1.22l-0.97-0.97c-0.06-0.07-0.15-0.1-0.24-0.1c-0.09,0-0.18,0.04-0.24,0.1c-0.13,0.13-0.13,0.35,0,0.49L9.8,13.8
		l-1.01,1.01c-0.07,0.07-0.1,0.15-0.1,0.24c0,0.09,0.04,0.18,0.1,0.24c0.06,0.07,0.15,0.1,0.24,0.1c0.09,0,0.18-0.04,0.24-0.1
		l1.01-1.01l0.97,0.97c0.07,0.07,0.15,0.1,0.24,0.1c0.09,0,0.18-0.04,0.24-0.1c0.07-0.06,0.1-0.15,0.1-0.24s-0.04-0.18-0.1-0.24
		l-0.97-0.97L12,12.58l0.97,0.97c0.07,0.07,0.15,0.1,0.24,0.1s0.18-0.04,0.24-0.1c0.06-0.07,0.1-0.15,0.1-0.24
		c0-0.09-0.04-0.18-0.1-0.24l-0.97-0.97l1.22-1.22l0.97,0.97c0.07,0.07,0.15,0.1,0.24,0.1s0.18-0.04,0.24-0.1
		c0.07-0.06,0.1-0.15,0.1-0.24c0-0.09-0.04-0.18-0.1-0.24l-0.97-0.97l1.01-1.01C15.34,9.24,15.34,9.02,15.21,8.88z"/>
	<path class="st0" d="M21.8,4.65c-0.16-1.16-1.2-2.2-2.36-2.36c-0.03,0-0.76-0.11-1.92-0.11c-2.63,0-7.59,0.54-11.24,4.19
		C1.15,11.51,2.15,19.21,2.2,19.53c0.16,1.16,1.2,2.2,2.36,2.36C4.64,21.9,5.35,22,6.48,22c2.63,0,7.59-0.55,11.24-4.19
		C22.85,12.67,21.85,4.97,21.8,4.65z M10.5,20.67l-0.12-0.01L4.6,14.88c-0.06,0.37-0.1,0.67-0.12,0.88
		c-0.01,0.1-0.02,0.17-0.04,0.19l4.93,4.93l-0.37,0.05c-0.87,0.12-1.75,0.18-2.64,0.18c-0.99,0-1.63-0.08-1.7-0.09
		c-0.76-0.11-1.52-0.86-1.62-1.62C3.05,19.34,2.04,11.84,6.9,6.98c3.42-3.42,7.93-3.93,10.32-3.93c0.9,0,1.49,0.07,1.6,0.09
		c0.76,0.11,2.02,0.85,2.13,1.62c0,0.02,0.25,1.9-0.09,4.34L20.8,9.47l-4.85-4.89c-0.22,0.01-0.65,0.04-1.15,0.12l5.79,5.84
		l-0.01,0.06c-0.61,2.67-1.78,4.89-3.48,6.59C15.4,18.89,13.18,20.06,10.5,20.67z"/>
</g>
</svg>
