<?xml version="1.0" encoding="utf-8"?>
<!-- Generator: Adobe Illustrator 19.2.1, SVG Export Plug-In . SVG Version: 6.00 Build 0)  -->
<svg version="1.1" id="Layer_2" xmlns="http://www.w3.org/2000/svg" xmlns:xlink="http://www.w3.org/1999/xlink" x="0px" y="0px"
	 viewBox="0 0 24 24" style="enable-background:new 0 0 24 24;" xml:space="preserve">
<style type="text/css">
	.st0{fill:#666666;}
</style>
<g>
	<rect x="6.44" y="7.8" class="st0" width="0.76" height="1.24"/>
	<rect x="6.44" y="4.9" class="st0" width="0.76" height="1.24"/>
	<rect x="6.44" y="2" class="st0" width="0.76" height="1.24"/>
	<rect x="17.19" y="7.8" class="st0" width="0.76" height="1.24"/>
	<rect x="17.19" y="4.9" class="st0" width="0.76" height="1.24"/>
	<rect x="17.19" y="2" class="st0" width="0.76" height="1.24"/>
	<path class="st0" d="M12.2,15.62c-0.36,0-1.21-0.26-1.21-2.62c0-1.15,0.25-3.11,1.21-3.11S13.4,11.85,13.4,13
		C13.4,15.37,12.56,15.62,12.2,15.62z M12.2,10.69c-0.16,0.2-0.45,0.99-0.45,2.31c0,1.52,0.38,1.86,0.45,1.86s0.45-0.34,0.45-1.86
		C12.64,11.68,12.36,10.9,12.2,10.69z"/>
	<path class="st0" d="M17.6,18.74l-0.31-0.35c-0.38-0.43-1.11-1.48-1.29-2.35h-1.87c-0.12,0.32-0.31,0.84-0.45,1.06l-0.11,0.17
		h-2.72l-0.11-0.17c-0.14-0.22-0.34-0.73-0.45-1.06H8.4c-0.19,0.87-0.91,1.92-1.29,2.35L6.8,18.74l-0.28-0.37
		C5.5,17.03,5.2,16.11,5.2,14.42c0-3.34,1.33-4.4,1.39-4.44l0.3-0.22l0.23,0.29c0.05,0.06,1.16,1.46,1.31,3.17h0.91v-0.03
		c0-1.3,0.55-3.78,1.02-5.51c1.08-3.97,1.58-3.97,1.84-3.97s0.76,0,1.84,3.97c0.47,1.73,1.02,4.21,1.02,5.51v0.03h0.91
		c0.15-1.7,1.26-3.1,1.31-3.17l0.23-0.29l0.3,0.22c0.06,0.04,1.39,1.1,1.39,4.44c0,1.7-0.31,2.62-1.32,3.95L17.6,18.74z M6.78,10.9
		c-0.32,0.47-0.83,1.53-0.83,3.52c0,1.36,0.2,2.1,0.87,3.09c0.44-0.61,0.85-1.41,0.85-1.85v-0.38h3.14l0.09,0.26
		c0.1,0.29,0.26,0.72,0.37,0.97h1.85c0.12-0.25,0.27-0.68,0.37-0.97l0.09-0.26h3.14v0.38c0,0.45,0.4,1.24,0.85,1.85
		c0.68-0.99,0.87-1.73,0.87-3.09c0-1.99-0.5-3.04-0.83-3.52c-0.34,0.54-0.89,1.58-0.89,2.69v0.38H14.3v-0.79
		c0-2.1-1.45-7.34-2.1-8.55c-0.65,1.21-2.1,6.45-2.1,8.55v0.78l-0.38,0.01H7.68v-0.38C7.68,12.48,7.13,11.44,6.78,10.9z"/>
	<polygon class="st0" points="12.19,22 10.59,18.29 11.29,17.99 12.19,20.07 13.09,17.99 13.79,18.29 	"/>
</g>
</svg>
