<?xml version="1.0" encoding="utf-8"?>
<!-- Generator: Adobe Illustrator 19.2.1, SVG Export Plug-In . SVG Version: 6.00 Build 0)  -->
<svg version="1.1" id="Layer_2" xmlns="http://www.w3.org/2000/svg" xmlns:xlink="http://www.w3.org/1999/xlink" x="0px" y="0px"
	 viewBox="0 0 24 24" style="enable-background:new 0 0 24 24;" xml:space="preserve">
<style type="text/css">
	.st0{fill:#666666;}
</style>
<path class="st0" d="M19.89,6.22c-0.08-0.38-0.3-0.69-0.66-0.91c-0.34-0.21-0.68-0.28-1.02-0.2c-0.7,0.17-1.16,0.93-1.56,1.61
	c-0.19,0.32-0.52,0.86-0.66,0.89c-0.36-0.09-0.8-0.24-1.26-0.39c-0.28-0.09-0.57-0.19-0.86-0.28c0.98-0.36,1.68-1.29,1.68-2.39
	c0-1.4-1.14-2.55-2.55-2.55c-1.4,0-2.55,1.14-2.55,2.55c0,0.8,0.37,1.51,0.95,1.98c-0.02,0-0.05,0-0.07,0
	c-0.68,0.09-1.49,0.32-2.2,0.52C8.98,7.09,8.82,7.13,8.68,7.17C8.49,7.23,8.29,7.26,8.1,7.3C7.39,7.44,6.58,7.6,6.45,8.7
	c-0.02,0.16-0.06,0.38-0.1,0.64c-0.2,1.12-0.48,2.66,0.22,3.39c0.29,0.31,0.71,0.43,1.23,0.36c1.01-0.14,1.12-1.3,1.19-1.99
	C9,10.99,9,10.9,9.02,10.82c0.01-0.1,0.02-0.2,0.03-0.3c0.01-0.11,0.02-0.33,0.06-0.36c0,0,0.02-0.01,0.04-0.02
	c0.11-0.02,0.24-0.06,0.38-0.09c0.13-0.03,0.27-0.07,0.41-0.1l-1.96,6.84c-0.34-0.09-0.73-0.18-1.08-0.26
	c-0.13-0.03-0.26-0.06-0.38-0.08c-0.09-0.02-0.19-0.05-0.29-0.07c-0.6-0.16-1.43-0.38-2.08,0.27c-0.27,0.27-0.43,0.66-0.42,1.07
	c0,0.02,0,0.03,0,0.05l0.04,0.31c0,0.02,0.01,0.03,0.01,0.05c0.1,0.38,0.35,0.7,0.68,0.9c0.28,0.17,0.93,0.34,1.68,0.53
	c0.14,0.04,0.27,0.07,0.35,0.09c0.21,0.06,0.45,0.14,0.69,0.22c1.07,0.37,2.68,0.92,3.22-0.63l1.26-3.29l2.34,0.94
	c-0.01,0.37-0.13,0.96-0.25,1.54c-0.29,1.42-0.45,2.38-0.12,2.89c0.28,0.43,0.78,0.69,1.3,0.69c0.02,0,0.04,0,0.06,0l0.3-0.04
	c0.02,0,0.03-0.01,0.05-0.01c0.31-0.08,0.57-0.26,0.78-0.51c0.43-0.53,1.02-4.41,1.02-4.45c0.01-0.11,0.03-0.22,0.05-0.32
	c0.12-0.71,0.27-1.6-0.62-2.14c-0.02-0.01-0.04-0.02-0.06-0.03l-3.54-1.36c0.11-0.35,0.29-0.76,0.44-1.13
	c0.08-0.2,0.16-0.38,0.23-0.56c0.03-0.08,0.07-0.2,0.11-0.34c0.07-0.24,0.29-0.92,0.46-1.12c0.36,0.14,0.69,0.3,0.98,0.45
	c1.04,0.52,2.02,1.01,3.15-0.81c0.1-0.16,0.23-0.35,0.38-0.56C19.32,8.21,20.08,7.14,19.89,6.22z M13.01,2.75
	c0.99,0,1.79,0.8,1.79,1.79S14,6.33,13.01,6.33c-0.99,0-1.79-0.8-1.79-1.79S12.02,2.75,13.01,2.75z M18.1,8.64
	c-0.15,0.21-0.29,0.42-0.4,0.59c-0.76,1.23-1.12,1.06-2.17,0.53c-0.33-0.17-0.7-0.35-1.14-0.51c-0.15-0.06-0.32-0.05-0.47,0.03
	c-0.41,0.2-0.64,0.85-0.88,1.61c-0.04,0.12-0.07,0.22-0.1,0.29c-0.07,0.17-0.14,0.35-0.22,0.54c-0.21,0.51-0.46,1.09-0.57,1.56
	c-0.04,0.18,0.06,0.37,0.23,0.44l3.83,1.47c0.38,0.25,0.37,0.61,0.24,1.36c-0.02,0.12-0.04,0.23-0.05,0.35
	c-0.13,0.98-0.65,3.74-0.86,4.07c-0.1,0.12-0.22,0.21-0.37,0.25l-0.25,0.03c-0.27-0.01-0.52-0.14-0.65-0.35
	c-0.19-0.29,0.07-1.57,0.23-2.33c0.17-0.84,0.32-1.56,0.25-2.01c-0.02-0.13-0.11-0.24-0.23-0.29l-2.92-1.17
	c-0.04-0.02-0.09-0.03-0.14-0.03c-0.05,0-0.1,0.01-0.15,0.03c-0.09,0.04-0.16,0.12-0.2,0.21l-1.4,3.66
	c-0.26,0.73-0.88,0.65-2.27,0.17c-0.26-0.09-0.5-0.17-0.74-0.24c-0.09-0.03-0.22-0.06-0.37-0.1c-0.44-0.11-1.27-0.32-1.48-0.45
	c-0.2-0.12-0.29-0.29-0.33-0.42l-0.03-0.25c0-0.2,0.08-0.38,0.21-0.51C5,16.85,5.41,16.93,6.03,17.1c0.11,0.03,0.21,0.06,0.31,0.08
	c0.12,0.03,0.25,0.06,0.38,0.09c0.47,0.1,1.01,0.22,1.37,0.35c0.1,0.03,0.21,0.03,0.3-0.02c0.09-0.05,0.16-0.13,0.19-0.23l2.22-7.77
	c0.03-0.12,0.01-0.24-0.06-0.33c-0.07-0.09-0.19-0.15-0.31-0.15c-0.32,0.01-0.74,0.11-1.11,0.21C9.2,9.35,9.08,9.38,8.98,9.41
	c-0.63,0.14-0.67,0.72-0.69,1.07c-0.01,0.08-0.01,0.17-0.02,0.25c-0.01,0.09-0.02,0.19-0.03,0.29c-0.07,0.67-0.16,1.27-0.54,1.32
	c-0.41,0.06-0.54-0.09-0.58-0.13c-0.43-0.45-0.17-1.88-0.02-2.74C7.14,9.2,7.18,8.97,7.2,8.78c0.06-0.52,0.31-0.6,1.04-0.74
	C8.44,8,8.66,7.96,8.88,7.9c0.15-0.04,0.3-0.08,0.46-0.13c0.69-0.2,1.48-0.42,2.1-0.5c0.79-0.1,2,0.3,3.06,0.65
	c0.48,0.16,0.93,0.31,1.32,0.41c0.65,0.16,1.06-0.51,1.49-1.23c0.31-0.52,0.7-1.17,1.09-1.26c0.08-0.02,0.22-0.03,0.44,0.11
	c0.19,0.12,0.29,0.25,0.32,0.42C19.28,6.97,18.6,7.93,18.1,8.64z"/>
</svg>
