<?xml version="1.0" encoding="utf-8"?>
<!-- Generator: Adobe Illustrator 19.2.1, SVG Export Plug-In . SVG Version: 6.00 Build 0)  -->
<svg version="1.1" id="Layer_2" xmlns="http://www.w3.org/2000/svg" xmlns:xlink="http://www.w3.org/1999/xlink" x="0px" y="0px"
	 viewBox="0 0 24 24" style="enable-background:new 0 0 24 24;" xml:space="preserve">
<style type="text/css">
	.st0{fill:#231F20;}
</style>
<g>
	<path class="st0" d="M19.53,22H10.3c-0.39,0-0.71-0.32-0.71-0.71V9.08c0-0.39,0.32-0.71,0.71-0.71h9.23c0.39,0,0.71,0.32,0.71,0.71
		v12.22C20.23,21.68,19.92,22,19.53,22z M10.44,21.15h8.95V9.22h-8.95V21.15z"/>
	<path class="st0" d="M8.74,16.04H4.48c-0.47,0-0.85-0.38-0.85-0.85V2.83c0-0.47,0.38-0.85,0.85-0.85h8.95
		c0.47,0,0.85,0.38,0.85,0.85v4.69h-0.85V2.83l-8.95,0l0,12.36l4.26,0V16.04z"/>
	<path class="st0" d="M15.98,18.59c-0.03,0-0.06,0-0.1-0.01l-0.12-0.03c-0.2-0.05-0.58-0.15-0.85-0.15c-0.27,0-0.65,0.1-0.85,0.15
		l-0.12,0.03c-0.23,0.05-0.46-0.09-0.51-0.32c-0.05-0.23,0.09-0.46,0.32-0.51l0.1-0.03c0.25-0.06,0.68-0.17,1.06-0.17
		c0.38,0,0.8,0.11,1.06,0.17l0.11,0.03c0.23,0.05,0.37,0.28,0.32,0.51C16.35,18.46,16.17,18.59,15.98,18.59z"/>
	<path class="st0" d="M15.85,17.24c-0.32,0-0.66-0.06-0.94-0.19c-0.55,0.27-1.37,0.23-1.76,0.04c-0.66-0.32-1.01-0.9-1.01-1.66
		c0-0.88,0.8-1.52,1.5-2.08c0.37-0.3,0.79-0.63,0.86-0.85c0.06-0.18,0.22-0.29,0.4-0.29l0,0c0.18,0,0.35,0.12,0.4,0.29
		c0.07,0.22,0.49,0.55,0.86,0.85c0.7,0.56,1.5,1.2,1.5,2.08c0,0.76-0.35,1.33-1,1.66C16.48,17.19,16.18,17.24,15.85,17.24z
		 M14.91,16.13c0.1,0,0.2,0.04,0.28,0.11c0.21,0.19,0.88,0.2,1.1,0.09c0.37-0.18,0.53-0.46,0.53-0.9c0-0.47-0.63-0.98-1.19-1.42
		c-0.27-0.21-0.53-0.42-0.73-0.64c-0.21,0.22-0.47,0.42-0.73,0.64c-0.56,0.44-1.19,0.95-1.19,1.42c0,0.44,0.16,0.72,0.53,0.9
		c0.22,0.11,0.89,0.1,1.1-0.09C14.71,16.16,14.81,16.13,14.91,16.13z"/>
	<path class="st0" d="M8.74,13.91h-1.7v-0.42c0-0.47-0.38-0.85-0.85-0.85H5.76V5.39h0.42c0.47,0,0.85-0.38,0.85-0.85V4.11h3.83v0.42
		c0,0.47,0.38,0.85,0.85,0.85h0.42v2.13h-0.85V6.19c-0.6-0.15-1.07-0.63-1.22-1.22H7.83C7.67,5.56,7.2,6.03,6.6,6.19v5.65
		c0.6,0.15,1.07,0.63,1.22,1.22h0.91V13.91z"/>
	<rect x="5.33" y="3.69" class="st0" width="0.85" height="0.85"/>
	<rect x="5.33" y="13.48" class="st0" width="0.85" height="0.85"/>
	<rect x="11.72" y="3.69" class="st0" width="0.85" height="0.85"/>
</g>
</svg>
