<?xml version="1.0" encoding="utf-8"?>
<!-- Generator: Adobe Illustrator 19.2.1, SVG Export Plug-In . SVG Version: 6.00 Build 0)  -->
<svg version="1.1" id="Layer_2" xmlns="http://www.w3.org/2000/svg" xmlns:xlink="http://www.w3.org/1999/xlink" x="0px" y="0px"
	 viewBox="0 0 24 24" style="enable-background:new 0 0 24 24;" xml:space="preserve">
<style type="text/css">
	.st0{fill:#666666;}
</style>
<g>
	<path class="st0" d="M21.88,4.25c-0.22-0.27-0.58-0.43-0.96-0.43c-0.42,0-0.81,0.21-1.04,0.57c-0.01,0.01-0.02,0.03-0.02,0.05
		c-0.04,0.1-4.26,9.54-5.41,10.85c-0.01,0.01-1.24,1.34-3.37,1.34c-0.18,0-0.36-0.01-0.56-0.03l-6.18-1.18
		c-0.1-0.02-0.21-0.03-0.31-0.03c-0.92,0-1.61,0.67-1.82,1.75c-0.01,0.04-0.15,0.88,0.36,1.6c0.35,0.5,0.92,0.81,1.68,0.93l0.03,0
		l6.3,0.45c0,0,0.15,0.01,0.39,0.01c0.95,0,3.29-0.16,4.52-1.61c0.07-0.08,0.74-0.86,1.23-2.02c0.69-1.6,4.54-9.78,5.31-11.41
		l0.02-0.04c0.01-0.02,0.02-0.05,0.02-0.08C22.13,4.72,22.06,4.46,21.88,4.25z M11.77,19.45c-0.04,0-0.08-0.02-0.11-0.04
		c-0.03-0.03-0.05-0.08-0.05-0.12l0.04-1.91c0-0.08,0.06-0.15,0.14-0.16c1.61-0.2,2.64-1.03,3.01-1.38
		c0.03-0.03,0.07-0.04,0.11-0.04c0.02,0,0.05,0.01,0.07,0.02l0.98,0.46c0.08,0.04,0.11,0.13,0.08,0.22c-0.45,0.95-1,1.59-1.02,1.61
		C14.21,19.04,12.81,19.35,11.77,19.45z M15.17,15.48c-0.01-0.05,0-0.09,0.02-0.13c0.06-0.09,0.13-0.2,0.2-0.31
		c0.03-0.05,0.08-0.08,0.14-0.08c0.02,0,0.05,0.01,0.07,0.02l0.78,0.37c0.08,0.04,0.11,0.13,0.08,0.21L16.3,15.9
		c-0.02,0.04-0.05,0.07-0.09,0.09c-0.02,0.01-0.04,0.01-0.06,0.01c-0.02,0-0.05-0.01-0.07-0.02l-0.83-0.39
		C15.21,15.57,15.18,15.53,15.17,15.48z M16.56,15.07c-0.02,0-0.05-0.01-0.07-0.02l-0.72-0.34c-0.04-0.02-0.07-0.05-0.08-0.1
		c-0.01-0.04-0.01-0.09,0.01-0.13c1.62-2.85,4.4-9.06,4.71-9.75c0-0.01,0.01-0.02,0.02-0.03c0.12-0.16,0.29-0.25,0.49-0.25
		c0.19,0,0.37,0.08,0.47,0.2c0.02,0.03,0.04,0.05,0.05,0.08c0.02,0.04,0.01,0.09,0,0.13c-0.56,1.19-3.42,7.26-4.73,10.11
		c-0.02,0.04-0.05,0.07-0.09,0.08C16.6,15.07,16.58,15.07,16.56,15.07z M3.1,18.37c-0.36-0.5-0.26-1.12-0.26-1.12
		c0.15-0.78,0.58-1.23,1.19-1.23c0.07,0,0.14,0.01,0.2,0.02l0.11,0.02c0.08,0.02,0.13,0.09,0.13,0.17l-0.14,2.62
		c0,0.05-0.03,0.09-0.06,0.12c-0.03,0.02-0.06,0.03-0.1,0.03c-0.01,0-0.02,0-0.04,0C3.66,18.88,3.31,18.67,3.1,18.37z"/>
	<path class="st0" d="M8.45,12.35c1.5,0,2.72-1.22,2.72-2.72c0-1.5-1.22-2.72-2.72-2.72c-1.5,0-2.72,1.22-2.72,2.72
		C5.73,11.13,6.95,12.35,8.45,12.35z M8.45,7.57c1.13,0,2.06,0.92,2.06,2.05c0,1.13-0.92,2.05-2.06,2.05
		c-1.13,0-2.05-0.92-2.05-2.05C6.4,8.49,7.32,7.57,8.45,7.57z"/>
</g>
</svg>
