<?xml version="1.0" encoding="utf-8"?>
<!-- Generator: Adobe Illustrator 19.2.1, SVG Export Plug-In . SVG Version: 6.00 Build 0)  -->
<svg version="1.1" id="Layer_2" xmlns="http://www.w3.org/2000/svg" xmlns:xlink="http://www.w3.org/1999/xlink" x="0px" y="0px"
	 viewBox="0 0 24 24" style="enable-background:new 0 0 24 24;" xml:space="preserve">
<style type="text/css">
	.st0{fill:#666666;}
</style>
<path class="st0" d="M17.26,3.63c-0.34-0.24-0.74-0.37-1.15-0.37c-0.64,0-1.24,0.31-1.6,0.82c-0.31,0.43-0.43,0.95-0.34,1.47
	c0.09,0.52,0.37,0.98,0.8,1.28c0.34,0.24,0.74,0.37,1.15,0.37c0.64,0,1.23-0.31,1.6-0.82C18.35,5.5,18.15,4.27,17.26,3.63z
	 M17.12,5.96c-0.23,0.32-0.61,0.52-1.01,0.52c-0.26,0-0.51-0.08-0.72-0.23c-0.27-0.19-0.45-0.48-0.5-0.8
	c-0.05-0.33,0.02-0.65,0.22-0.92C15.34,4.19,15.71,4,16.11,4c0.26,0,0.51,0.08,0.72,0.23C17.39,4.63,17.51,5.4,17.12,5.96z
	 M8.12,17.54c0.02,0.02,0.03,0.03,0.03,0.03C8.15,17.56,8.13,17.56,8.12,17.54C8.12,17.55,8.12,17.54,8.12,17.54z M16.29,11.93
	c-0.73-0.83-1.45-1.66-2.18-2.49c0.1-0.6,0.19-1.21,0.29-1.81c0.04-0.25-0.15-0.5-0.27-0.72c-0.12-0.22-0.28-0.42-0.48-0.57
	c-0.58-0.45-1.31-0.5-2.01-0.38C10.77,6.1,9.95,6.51,9.19,6.93C8.96,7.06,8.74,7.19,8.53,7.35C8.46,7.31,8.38,7.26,8.31,7.22
	C7.85,6.95,7.38,6.67,6.91,6.4C6.98,6.3,7.04,6.2,7.1,6.1c0.25-0.4-0.38-0.77-0.64-0.37c-0.06,0.1-0.12,0.2-0.19,0.3
	c-0.07-0.04-0.13-0.08-0.2-0.12C5.67,5.66,5.3,6.3,5.71,6.54l0.17,0.1C5.81,6.77,5.73,6.89,5.65,7.01C5.4,7.42,6.04,7.79,6.29,7.39
	c0.08-0.12,0.15-0.24,0.23-0.37C7,7.31,7.49,7.59,7.97,7.88c-0.15,0.2-0.28,0.42-0.36,0.67c-0.15,0.48-0.09,1.02,0.1,1.48
	c0.09,0.23,0.21,0.48,0.38,0.67c0.66,0.72,1.31,1.44,1.97,2.16c-0.89,0.99-1.78,1.99-2.67,2.98c-0.08,0.09-0.16,0.18-0.21,0.28
	c-0.46-0.26-0.92-0.52-1.38-0.77c-1.02-0.57-2.04-1.14-3.06-1.71c0,0,0,0,0,0c-0.42-0.23-0.79,0.4-0.37,0.64
	c0.96,0.54,1.93,1.08,2.89,1.62c0.78,0.44,4.59,2.57,5.23,2.92c0.63,0.35,1.25,0.7,1.88,1.04c0.16,0.09,0.32,0.17,0.48,0.26
	c0.43,0.23,0.93,0.19,1.33-0.08c0.1-0.07,0.2-0.15,0.28-0.24c0.13-0.15,0.15-0.37,0-0.52c-0.14-0.14-0.39-0.15-0.52,0
	c-0.03,0.04-0.07,0.07-0.11,0.1c0.05-0.04-0.08,0.05-0.11,0.07c-0.03,0.02-0.06,0.03-0.09,0.05c0.06-0.03-0.07,0.02-0.08,0.02
	c-0.08,0.02-0.07,0.02-0.18,0.01c0.02,0-0.14-0.05-0.11-0.03c0,0-0.01,0-0.01-0.01c-0.14-0.07-0.28-0.15-0.42-0.23
	c-0.61-0.33-1.21-0.67-1.81-1c-0.55-0.3-1.1-0.61-1.64-0.92c0.02-0.02,0.04-0.04,0.06-0.07c0.24-0.26,0.48-0.52,0.72-0.79
	c1.04-1.14,2.09-2.29,3.13-3.43c0,0,0,0,0,0c0.02-0.02,0.03-0.04,0.05-0.06c0.07-0.12,0.09-0.27,0.01-0.38c0,0,0,0,0,0
	c-0.01-0.02-0.03-0.04-0.05-0.06c-0.66-0.87-1.32-1.75-1.97-2.62c0.02-0.02,0.05-0.03,0.07-0.05c0.75,0.44,1.49,0.88,2.24,1.32
	c0.73,0.43,1.46,0.86,2.19,1.29c0.04,0.03,0.08,0.05,0.13,0.06c0.08,0.02,0.17,0.01,0.23-0.02c0.05-0.02,0.09-0.04,0.12-0.08
	c0.09-0.09,0.12-0.19,0.1-0.3C16.39,12.08,16.36,12,16.29,11.93z M12.54,12.78c-0.95,1.04-1.91,2.09-2.86,3.13l-0.74,0.81
	c-0.07,0.07-0.13,0.15-0.2,0.22c-0.01,0.01-0.02,0.02-0.03,0.03c-0.24-0.14-0.49-0.27-0.73-0.41c-0.04-0.03-0.09-0.06-0.13-0.08
	c0-0.01-0.01-0.01-0.01-0.01c0-0.01,0-0.01-0.01-0.01c0,0,0-0.01,0.01-0.04c0,0.06,0.02,0,0.01,0.01c0.01-0.01,0.03-0.03,0.04-0.04
	c0.07-0.08,0.15-0.17,0.22-0.25c0.91-1.01,1.82-2.03,2.73-3.04c0.13-0.15,0.15-0.37,0-0.52c-0.03-0.03-0.06-0.05-0.09-0.07
	c-0.48-0.53-0.97-1.06-1.45-1.59c-0.22-0.24-0.44-0.48-0.66-0.72c-0.01-0.01-0.01-0.02-0.02-0.03c-0.07-0.11-0.13-0.22-0.19-0.34
	c0-0.01-0.03-0.08-0.04-0.1C8.36,9.68,8.35,9.63,8.33,9.59c-0.01-0.05-0.03-0.1-0.04-0.15C8.29,9.41,8.28,9.38,8.28,9.36
	c0-0.01,0-0.02,0-0.02c0,0,0-0.01,0-0.01c-0.01-0.11-0.01-0.23,0-0.34c0-0.01,0-0.01,0-0.01c0,0,0,0,0-0.01
	c0-0.03,0.01-0.06,0.02-0.09c0.02-0.07,0.04-0.14,0.06-0.21c0-0.01,0-0.01,0-0.01c0-0.01,0.01-0.01,0.01-0.02
	C8.38,8.59,8.4,8.56,8.42,8.53c0.03-0.06,0.07-0.12,0.12-0.18c0.01-0.01,0.01-0.01,0.01-0.02c0-0.01,0.01-0.01,0.02-0.03
	c0.01-0.02,0.03-0.03,0.04-0.05c0.69,0.41,1.38,0.81,2.07,1.22c-0.03,0.02-0.05,0.04-0.08,0.06c-0.15,0.1-0.26,0.33-0.13,0.5
	C11.16,10.95,11.85,11.86,12.54,12.78z M11.35,9.01c-0.71-0.42-1.42-0.84-2.13-1.25c0.26-0.16,0.55-0.3,0.81-0.43
	c0.38-0.19,0.77-0.36,1.18-0.49c0.36-0.11,0.67-0.18,1.02-0.19c0.08,0,0.15,0,0.23,0.01c0.03,0,0.07,0.01,0.1,0.01
	c-0.05-0.01,0.05,0.01,0.06,0.01c0.07,0.01,0.14,0.03,0.21,0.05c0.03,0.01,0.07,0.02,0.1,0.04C12.86,6.72,12.98,6.78,13,6.78
	c0.19,0.1,0.36,0.24,0.45,0.42c0.04,0.08,0.08,0.16,0.13,0.24C12.83,7.96,12.09,8.49,11.35,9.01z M13.38,10.21
	c-0.45-0.26-0.9-0.53-1.34-0.79c0.5-0.35,0.99-0.7,1.49-1.05c-0.06,0.36-0.11,0.72-0.17,1.08c-0.03,0.21,0.07,0.33,0.19,0.47
	c0.1,0.12,0.21,0.24,0.31,0.36c0.13,0.15,0.26,0.29,0.39,0.44C13.96,10.55,13.67,10.38,13.38,10.21z"/>
<g>
	<path class="st0" d="M13.95,15.85l0.65,0.17c-0.27,1.58,0.64,3.15,2.15,3.69l-0.17,0.65c-0.04,0.16,0.05,0.33,0.22,0.37
		c0.16,0.04,0.33-0.05,0.37-0.22l0.17-0.65c1.58,0.27,3.15-0.64,3.69-2.15l0.65,0.17c0.16,0.04,0.33-0.05,0.37-0.22
		c0.04-0.16-0.05-0.33-0.22-0.37l-0.65-0.17c0.27-1.58-0.64-3.15-2.15-3.69l0.17-0.65c0.04-0.16-0.05-0.33-0.22-0.37
		c-0.16-0.04-0.33,0.05-0.37,0.22l-0.17,0.65c-1.58-0.27-3.15,0.64-3.69,2.15l-0.65-0.17c-0.16-0.04-0.33,0.05-0.37,0.22
		C13.69,15.64,13.79,15.8,13.95,15.85L13.95,15.85z M16.52,15.9l-1.18-0.31c0.46-1.19,1.69-1.91,2.95-1.71l-0.31,1.18
		c-0.04,0.16,0.05,0.33,0.22,0.37c0.16,0.04,0.33-0.05,0.37-0.22l0.31-1.18c1.19,0.46,1.91,1.69,1.71,2.95l-1.18-0.31
		c-0.16-0.04-0.33,0.05-0.37,0.22c-0.04,0.16,0.05,0.33,0.22,0.37l1.18,0.31c-0.46,1.19-1.7,1.91-2.95,1.71l0.31-1.18
		c0.04-0.16-0.05-0.33-0.22-0.37c-0.16-0.04-0.33,0.05-0.37,0.22l-0.31,1.18c-1.19-0.46-1.91-1.7-1.71-2.95l1.18,0.31
		c0.16,0.04,0.33-0.05,0.37-0.22C16.78,16.11,16.68,15.94,16.52,15.9L16.52,15.9z M16.52,15.9"/>
</g>
</svg>
