<?xml version="1.0" encoding="utf-8"?>
<!-- Generator: Adobe Illustrator 19.2.1, SVG Export Plug-In . SVG Version: 6.00 Build 0)  -->
<svg version="1.1" id="Layer_2" xmlns="http://www.w3.org/2000/svg" xmlns:xlink="http://www.w3.org/1999/xlink" x="0px" y="0px"
	 viewBox="0 0 24 24" style="enable-background:new 0 0 24 24;" xml:space="preserve">
<style type="text/css">
	.st0{fill:#666666;}
</style>
<g>
	<path class="st0" d="M11.96,22c-5.51,0-9.98-4.48-9.98-9.98s4.48-9.98,9.98-9.98s9.98,4.48,9.98,9.98S17.46,22,11.96,22z
		 M11.96,2.79c-5.09,0-9.23,4.14-9.23,9.23s4.14,9.23,9.23,9.23s9.23-4.14,9.23-9.23S17.05,2.79,11.96,2.79z"/>
	<path class="st0" d="M11.96,17.2c-2.86,0-5.18-2.32-5.18-5.18s2.32-5.18,5.18-5.18s5.18,2.32,5.18,5.18S14.81,17.2,11.96,17.2z
		 M11.96,7.59c-2.44,0-4.43,1.99-4.43,4.43s1.99,4.43,4.43,4.43s4.43-1.99,4.43-4.43S14.4,7.59,11.96,7.59z"/>
	<path class="st0" d="M11.94,14.86c-1.22,0-1.86-0.76-1.86-1.52c0-0.64,0.35-1.14,1.01-1.45c-0.51-0.26-0.81-0.71-0.81-1.22
		c0-0.86,0.72-1.49,1.72-1.49c1.12,0,1.62,0.72,1.62,1.38c0,0.54-0.3,0.98-0.84,1.27c0.67,0.29,1.03,0.79,1.03,1.41
		C13.83,14.17,13.04,14.86,11.94,14.86z M11.85,12.19c-0.58,0.17-0.91,0.56-0.91,1.05c-0.01,0.26,0.08,0.49,0.25,0.67
		c0.19,0.2,0.46,0.3,0.77,0.3c0.61,0,1.02-0.36,1.02-0.91C12.98,12.75,12.64,12.42,11.85,12.19z M11.97,9.81
		c-0.61,0-0.88,0.4-0.88,0.81c0,0.46,0.31,0.76,0.97,0.94c0.49-0.17,0.77-0.5,0.77-0.92C12.82,10.23,12.6,9.81,11.97,9.81z"/>
</g>
</svg>
