<?xml version="1.0" encoding="utf-8"?>
<!-- Generator: Adobe Illustrator 19.2.1, SVG Export Plug-In . SVG Version: 6.00 Build 0)  -->
<svg version="1.1" id="Layer_2" xmlns="http://www.w3.org/2000/svg" xmlns:xlink="http://www.w3.org/1999/xlink" x="0px" y="0px"
	 viewBox="0 0 24 24" style="enable-background:new 0 0 24 24;" xml:space="preserve">
<style type="text/css">
	.st0{fill:#666666;}
</style>
<g>
	<path class="st0" d="M15.23,22.01c-0.03,0-0.07,0-0.1-0.01c-0.09-0.02-0.18-0.04-0.28-0.07c-0.62-0.15-1.47-0.36-2.66-0.36
		c-1.19,0-2.04,0.21-2.66,0.36c-0.1,0.02-0.19,0.05-0.28,0.07c-0.14,0.03-0.28,0-0.39-0.09c-0.59-0.5-0.59-1.53-0.59-1.65
		c0-0.21,0.15-0.39,0.36-0.43c0.4-0.08,1.73-0.65,2.13-2.13c-1.46,0.73-3.38,0.66-4.6,0.07c-2.06-1-3.1-2.7-3.1-5.07
		c0-2.7,2.74-4.86,5.16-6.76c1.64-1.29,3.19-2.51,3.56-3.63c0.06-0.18,0.23-0.31,0.43-0.31c0.19,0,0.37,0.12,0.43,0.31
		c0.36,1.12,1.91,2.34,3.56,3.63c2.42,1.9,5.16,4.06,5.16,6.76c0,2.37-1.04,4.07-3.1,5.07c-1.22,0.59-3.14,0.66-4.6-0.07
		c0.4,1.48,1.73,2.05,2.13,2.13c0.21,0.04,0.36,0.22,0.36,0.43c0,0.12,0,1.15-0.59,1.65C15.44,21.97,15.33,22.01,15.23,22.01z
		 M9.18,20.58c0.02,0.16,0.07,0.34,0.13,0.48c0,0,0,0,0,0c0.66-0.16,1.57-0.38,2.87-0.38c1.3,0,2.21,0.22,2.87,0.38c0,0,0,0,0,0
		c0.07-0.14,0.11-0.31,0.13-0.48c-1.03-0.38-2.58-1.58-2.58-3.8c0-0.18,0.1-0.34,0.26-0.41c0.16-0.07,0.35-0.04,0.48,0.07
		c1.25,1.12,3.44,1.01,4.48,0.51c1.75-0.85,2.6-2.24,2.6-4.27c0-2.26-2.56-4.28-4.82-6.06c-1.39-1.09-2.71-2.14-3.43-3.21
		c-0.71,1.07-2.04,2.11-3.43,3.21c-2.26,1.78-4.82,3.79-4.82,6.06c0,2.02,0.85,3.42,2.6,4.27c1.04,0.5,3.23,0.61,4.48-0.51
		c0.13-0.12,0.32-0.15,0.48-0.07c0.16,0.07,0.26,0.23,0.26,0.41C11.77,19,10.21,20.2,9.18,20.58z"/>
	<path class="st0" d="M5.23,12.88c-0.24,0-0.44-0.19-0.45-0.43c-0.03-0.76,0.52-1.71,1.08-2.25c0.01-0.01,0.01-0.01,0.02-0.02
		l4.48-3.8c0.44-0.34,0.83-0.8,1.06-1.08c0.06-0.08,0.12-0.14,0.16-0.19c0.16-0.18,0.45-0.2,0.63-0.03c0.18,0.17,0.2,0.45,0.03,0.63
		c-0.04,0.04-0.08,0.1-0.14,0.16c-0.26,0.31-0.69,0.82-1.19,1.2l-4.45,3.77C6.02,11.3,5.66,12,5.68,12.42
		c0.01,0.25-0.18,0.46-0.43,0.47C5.25,12.88,5.24,12.88,5.23,12.88z"/>
</g>
</svg>
