<?xml version="1.0" encoding="utf-8"?>
<!-- Generator: Adobe Illustrator 19.2.1, SVG Export Plug-In . SVG Version: 6.00 Build 0)  -->
<svg version="1.1" id="Layer_2" xmlns="http://www.w3.org/2000/svg" xmlns:xlink="http://www.w3.org/1999/xlink" x="0px" y="0px"
	 viewBox="0 0 24 24" style="enable-background:new 0 0 24 24;" xml:space="preserve">
<style type="text/css">
	.st0{fill:#666666;}
</style>
<g>
	<path class="st0" d="M21.95,8.63c0,0.77-0.54,1.41-1.25,1.57l-0.02,4.91c0,1.31-1.07,2.38-2.39,2.38l-0.86,0l0,1.76
		c0,1.31-1.07,2.38-2.39,2.38L4.38,21.61c-1.31,0-2.38-1.07-2.38-2.39L2.02,7c0-1.31,1.06-2.37,2.37-2.38l0-1.21
		c0-0.57,0.47-1.04,1.04-1.04l8.61,0.01c0.57,0,1.04,0.47,1.04,1.04l0,1.21c1.3,0.01,2.36,1.08,2.36,2.39l-0.02,9.72l0.86,0
		c0.91,0,1.65-0.74,1.65-1.64l0.02-4.91c-0.71-0.17-1.24-0.81-1.24-1.57c0-0.89,0.73-1.62,1.62-1.62S21.95,7.73,21.95,8.63
		L21.95,8.63z M5.43,3.11c-0.17,0-0.3,0.13-0.3,0.3l0,1.21l9.22,0.01l0-1.21c0-0.17-0.13-0.3-0.3-0.3L5.43,3.11L5.43,3.11z
		 M16.68,19.25L16.7,7.03c0-0.91-0.74-1.65-1.64-1.65L4.4,5.36C3.5,5.36,2.76,6.1,2.76,7L2.74,19.22c0,0.91,0.74,1.65,1.64,1.65
		l10.65,0.02C15.94,20.89,16.68,20.15,16.68,19.25L16.68,19.25z M20.33,9.5c0.48,0,0.88-0.39,0.88-0.88c0-0.48-0.39-0.88-0.88-0.88
		c-0.48,0-0.88,0.39-0.88,0.88C19.45,9.11,19.84,9.5,20.33,9.5L20.33,9.5z M9.71,17.57c0.41,0,0.75-0.33,0.75-0.74
		c0-0.41-0.33-0.75-0.74-0.75c-0.41,0-0.75,0.33-0.75,0.74C8.97,17.24,9.3,17.57,9.71,17.57L9.71,17.57z M9.71,15.34
		c0.82,0,1.48,0.67,1.48,1.49c0,0.82-0.67,1.48-1.49,1.48c-0.82,0-1.48-0.67-1.48-1.49C8.23,16,8.89,15.34,9.71,15.34L9.71,15.34z
		 M5.92,15.33c0.82,0,1.48,0.67,1.48,1.49c0,0.82-0.67,1.48-1.49,1.48c-0.82,0-1.48-0.67-1.48-1.49C4.44,16,5.1,15.33,5.92,15.33
		L5.92,15.33z M5.92,17.56c0.41,0,0.75-0.33,0.75-0.74s-0.33-0.75-0.74-0.75c-0.41,0-0.75,0.33-0.75,0.74
		C5.18,17.23,5.51,17.56,5.92,17.56L5.92,17.56z M13.5,15.35c0.82,0,1.48,0.67,1.48,1.49c0,0.82-0.67,1.48-1.49,1.48
		c-0.82,0-1.48-0.67-1.48-1.49C12.02,16.01,12.68,15.34,13.5,15.35L13.5,15.35z M13.5,17.58c0.41,0,0.75-0.33,0.75-0.74
		c0-0.41-0.33-0.75-0.74-0.75c-0.41,0-0.75,0.33-0.75,0.74C12.76,17.24,13.09,17.58,13.5,17.58L13.5,17.58z"/>
	<g>
		<path class="st0" d="M7.06,11.58c-0.06,0-0.11-0.01-0.16-0.04l-0.75-0.38l-0.75,0.38c-0.12,0.06-0.27,0.05-0.38-0.04
			c-0.11-0.08-0.16-0.22-0.14-0.36l0.15-0.78L4.41,9.75c-0.1-0.1-0.13-0.25-0.09-0.38C4.38,9.24,4.5,9.14,4.64,9.13l0.82-0.07
			l0.36-0.79c0.06-0.13,0.19-0.21,0.33-0.21c0.14,0,0.27,0.08,0.33,0.21c0,0,0,0,0,0l0.36,0.79l0.82,0.07
			C7.8,9.14,7.92,9.24,7.97,9.37C8.01,9.5,7.98,9.65,7.88,9.75l-0.62,0.61l0.15,0.79c0.03,0.14-0.03,0.27-0.14,0.36
			C7.22,11.55,7.14,11.58,7.06,11.58z M6.15,10.56c0.04,0,0.09,0.01,0.13,0.03l0.5,0.25l-0.1-0.52c-0.02-0.09,0.01-0.19,0.08-0.26
			l0.4-0.4L6.62,9.61C6.52,9.6,6.43,9.54,6.39,9.45L6.15,8.92L5.91,9.45C5.87,9.54,5.78,9.6,5.67,9.61L5.14,9.66l0.41,0.4
			c0.07,0.07,0.1,0.16,0.08,0.26l-0.1,0.52l0.5-0.25C6.06,10.57,6.1,10.56,6.15,10.56z M4.69,9.7L4.69,9.7
			C4.69,9.7,4.69,9.7,4.69,9.7z M7.48,9.34C7.48,9.34,7.48,9.34,7.48,9.34L7.48,9.34z"/>
	</g>
	<g>
		<path class="st0" d="M10.63,11.58c-0.06,0-0.11-0.01-0.16-0.04l-0.75-0.38l-0.75,0.38c-0.12,0.06-0.27,0.05-0.38-0.04
			c-0.11-0.08-0.16-0.22-0.14-0.36l0.15-0.78L7.98,9.75C7.88,9.65,7.85,9.5,7.9,9.37c0.05-0.13,0.17-0.22,0.31-0.24l0.82-0.07
			l0.36-0.79c0.06-0.13,0.19-0.21,0.33-0.21c0,0,0,0,0,0c0.14,0,0.27,0.08,0.33,0.21l0.36,0.79l0.82,0.07
			c0.14,0.01,0.26,0.11,0.31,0.24c0.05,0.13,0.01,0.28-0.09,0.38l-0.62,0.61l0.15,0.79c0.03,0.14-0.03,0.27-0.14,0.36
			C10.78,11.55,10.71,11.58,10.63,11.58z M9.72,10.56c0.04,0,0.09,0.01,0.13,0.03l0.5,0.25l-0.1-0.52
			c-0.02-0.09,0.01-0.19,0.08-0.26l0.4-0.4l-0.54-0.05C10.09,9.6,10,9.54,9.96,9.45L9.72,8.92L9.48,9.45
			C9.43,9.54,9.34,9.6,9.24,9.61L8.7,9.66l0.41,0.4c0.07,0.07,0.1,0.16,0.08,0.26l-0.1,0.52l0.5-0.25
			C9.63,10.57,9.67,10.56,9.72,10.56z M8.26,9.7L8.26,9.7C8.26,9.7,8.26,9.7,8.26,9.7z M11.05,9.34L11.05,9.34L11.05,9.34z
			 M9.53,8.5L9.53,8.5L9.53,8.5L9.53,8.5z"/>
	</g>
	<g>
		<path class="st0" d="M14.2,11.58c-0.06,0-0.11-0.01-0.16-0.04l-0.75-0.38l-0.75,0.38c-0.13,0.06-0.27,0.05-0.38-0.04
			c-0.11-0.08-0.16-0.22-0.14-0.36l0.15-0.78l-0.62-0.61c-0.1-0.1-0.13-0.25-0.09-0.38c0.05-0.13,0.17-0.22,0.31-0.24l0.82-0.07
			l0.36-0.79c0.06-0.13,0.19-0.21,0.33-0.21c0.14,0,0.27,0.08,0.33,0.21l0.36,0.79l0.82,0.07c0.14,0.01,0.26,0.11,0.31,0.24
			c0.05,0.13,0.01,0.28-0.09,0.38l-0.62,0.61l0.15,0.79c0.03,0.14-0.03,0.27-0.14,0.36C14.35,11.55,14.28,11.58,14.2,11.58z
			 M12.57,11.25L12.57,11.25C12.57,11.25,12.57,11.25,12.57,11.25z M13.28,10.56c0.04,0,0.09,0.01,0.13,0.03l0.5,0.25l-0.1-0.52
			c-0.02-0.09,0.01-0.19,0.08-0.26l0.4-0.4l-0.54-0.05c-0.1-0.01-0.19-0.07-0.23-0.17l-0.24-0.53l-0.24,0.53
			C13,9.54,12.91,9.6,12.81,9.61l-0.54,0.05l0.41,0.4c0.07,0.07,0.1,0.16,0.08,0.26l-0.1,0.52l0.5-0.25
			C13.2,10.57,13.24,10.56,13.28,10.56z M11.82,9.7L11.82,9.7C11.82,9.7,11.82,9.7,11.82,9.7z M13.47,8.5L13.47,8.5
			C13.47,8.5,13.47,8.5,13.47,8.5z M13.09,8.5L13.09,8.5L13.09,8.5L13.09,8.5z"/>
	</g>
</g>
</svg>
