<?xml version="1.0" encoding="utf-8"?>
<!-- Generator: Adobe Illustrator 19.2.1, SVG Export Plug-In . SVG Version: 6.00 Build 0)  -->
<svg version="1.1" id="Layer_2" xmlns="http://www.w3.org/2000/svg" xmlns:xlink="http://www.w3.org/1999/xlink" x="0px" y="0px"
	 viewBox="0 0 24 24" style="enable-background:new 0 0 24 24;" xml:space="preserve">
<style type="text/css">
	.st0{fill:none;}
	.st1{fill:#666666;}
</style>
<g>
	<path class="st0" d="M12.36,14.97c-0.56-0.55-0.91-0.9-0.99-1.24c-0.01-0.04-0.01-0.09,0-0.13c0.12-0.64,1.56-2.61,2.04-3.23
		l-0.06-0.07c-0.12-0.13-0.12-0.33,0.01-0.45c0.13-0.12,0.33-0.12,0.45,0.01l0.37,0.39c0,0,0,0,0,0c0.14,0.14,0.3,0.36,0.55,0.69
		c0.48,0.65,1.14,1.53,1.86,2.07c0.69,0.52,2.15,1.15,2.91,1.15c0.21,0,0.26-0.05,0.26-0.05c0.07-0.2-0.76-0.83-1.21-1.17
		c-0.59-0.45-1.26-0.96-1.66-1.51c-0.39-0.54-0.52-0.79-0.67-1.11c-0.11-0.22-0.24-0.48-0.5-0.91c-0.58-0.97-2.65-2.25-4.18-2.58
		c-0.18-0.04-0.38-0.06-0.6-0.06c-1.66,0-4.08,1.08-4.7,2.1c-0.88,1.43-1.49,2.92-1.5,3.36c0.59-0.1,1.24-1.08,1.73-1.8
		C6.78,9.99,7.05,9.6,7.29,9.4C7.9,8.9,9.82,8.2,10.31,8.03l0.13-0.18c0.1-0.14,0.3-0.17,0.44-0.07c0.14,0.1,0.17,0.3,0.07,0.44
		l-0.23,0.32c0,0,0,0,0,0c-0.37,0.53-2.9,4.14-3.55,5.19c-0.28,0.45-0.57,0.95-0.87,1.46c-0.46,0.78-0.93,1.58-1.34,2.2
		c-0.18,0.28-0.5,0.65-0.86,1.07c-0.47,0.56-1.44,1.69-1.46,2.05c0.02,0,0.06,0.01,0.12,0.01c1.32,0,3.38-2.06,4-2.79
		c0.5-0.59,1.79-2.53,2.05-2.91c0,0,0,0,0,0c0-0.01,0.02-0.02,0.03-0.04c0.01-0.01,0.02-0.03,0.02-0.03c0,0,0,0,0,0
		c0.09-0.13,0.27-0.39,0.42-0.53c0.13-0.12,0.33-0.12,0.45,0c0.12,0.12,0.12,0.33,0,0.45c-0.04,0.04-0.1,0.11-0.15,0.18
		c0.69,0.46,2.33,1.65,2.61,2.6c0.12,0.4,0.15,0.94,0.17,1.47c0.03,0.68,0.08,1.61,0.38,1.61c0.03,0,0.09-0.03,0.16-0.12
		c0.56-0.69,0.9-3.15,0.77-3.79C13.56,16.13,12.9,15.49,12.36,14.97z"/>
	<circle class="st0" cx="15.45" cy="4.81" r="1.66"/>
	<path class="st1" d="M12.81,14.51c-0.3-0.29-0.69-0.67-0.79-0.87c0.18-0.51,1.3-2.12,1.83-2.81c0.11,0.13,0.24,0.32,0.37,0.49
		c0.5,0.68,1.19,1.61,1.99,2.2c0.8,0.6,2.38,1.28,3.3,1.28c0.57,0,0.78-0.26,0.85-0.47c0.23-0.64-0.54-1.22-1.42-1.89
		c-0.56-0.42-1.19-0.9-1.53-1.37c-0.36-0.5-0.47-0.72-0.62-1.02c-0.11-0.22-0.25-0.5-0.52-0.95c-0.74-1.24-3.03-2.53-4.59-2.87
		c-0.22-0.05-0.47-0.07-0.74-0.07c-1.91,0-4.5,1.19-5.24,2.4c-0.08,0.13-1.97,3.24-1.5,4.08c0.09,0.16,0.25,0.26,0.45,0.26
		c0.95,0,1.73-1.16,2.36-2.09c0.27-0.4,0.52-0.77,0.69-0.91c0.32-0.26,1.21-0.64,1.97-0.94c-0.89,1.27-2.51,3.61-3.03,4.45
		c-0.28,0.45-0.58,0.96-0.88,1.47c-0.46,0.77-0.93,1.57-1.33,2.17c-0.16,0.25-0.48,0.62-0.82,1.01c-1.14,1.34-1.82,2.19-1.56,2.75
		c0.07,0.16,0.26,0.36,0.7,0.36c1.89,0,4.45-2.98,4.48-3.01c0.47-0.55,1.54-2.15,1.97-2.79c0.91,0.61,2.18,1.64,2.37,2.26
		c0.1,0.33,0.12,0.83,0.15,1.32c0.05,1.04,0.11,2.21,1.02,2.21c0.24,0,0.46-0.12,0.65-0.36c0.75-0.91,1.05-3.6,0.9-4.32
		C14.14,15.82,13.43,15.12,12.81,14.51z M12.88,20.4c-0.07,0.09-0.13,0.12-0.16,0.12c-0.3,0-0.35-0.93-0.38-1.61
		c-0.03-0.52-0.05-1.06-0.17-1.47c-0.28-0.95-1.93-2.14-2.61-2.6c0.05-0.07,0.11-0.13,0.15-0.18c0.12-0.12,0.13-0.32,0-0.45
		c-0.12-0.12-0.32-0.13-0.45,0c-0.15,0.15-0.33,0.41-0.42,0.53c0,0,0,0,0,0c0,0-0.01,0.01-0.02,0.03c-0.01,0.02-0.02,0.04-0.03,0.04
		c0,0,0,0,0,0c-0.25,0.38-1.54,2.32-2.05,2.91c-0.62,0.72-2.68,2.79-4,2.79c-0.06,0-0.1-0.01-0.12-0.01
		c0.02-0.36,0.99-1.49,1.46-2.05c0.36-0.43,0.68-0.8,0.86-1.07c0.41-0.61,0.88-1.42,1.34-2.2c0.3-0.5,0.59-1.01,0.87-1.46
		c0.65-1.05,3.17-4.65,3.55-5.19c0,0,0,0,0,0l0.23-0.32c0.1-0.14,0.07-0.34-0.07-0.44c-0.14-0.1-0.34-0.07-0.44,0.07l-0.13,0.18
		C9.82,8.2,7.9,8.9,7.29,9.4c-0.25,0.2-0.51,0.59-0.82,1.05c-0.49,0.72-1.15,1.7-1.73,1.8c0.01-0.45,0.62-1.93,1.5-3.36
		c0.62-1.02,3.04-2.1,4.7-2.1c0.22,0,0.42,0.02,0.6,0.06c1.53,0.33,3.59,1.6,4.18,2.58c0.26,0.43,0.39,0.69,0.5,0.91
		c0.16,0.31,0.28,0.56,0.67,1.11c0.4,0.55,1.07,1.06,1.66,1.51c0.45,0.34,1.28,0.97,1.21,1.17c0,0-0.05,0.05-0.26,0.05
		c-0.77,0-2.22-0.63-2.91-1.15c-0.72-0.54-1.38-1.43-1.86-2.07c-0.24-0.33-0.41-0.55-0.55-0.69c0,0,0,0,0,0L13.8,9.86
		c-0.12-0.13-0.32-0.13-0.45-0.01c-0.13,0.12-0.13,0.32-0.01,0.45l0.06,0.07c-0.48,0.62-1.91,2.59-2.04,3.23
		c-0.01,0.04-0.01,0.09,0,0.13c0.08,0.33,0.43,0.69,0.99,1.24c0.53,0.52,1.19,1.17,1.29,1.64C13.78,17.25,13.44,19.71,12.88,20.4z"
		/>
	<path class="st1" d="M15.45,7.11c1.27,0,2.3-1.03,2.3-2.3c0-1.27-1.03-2.3-2.3-2.3s-2.3,1.03-2.3,2.3
		C13.15,6.08,14.18,7.11,15.45,7.11z M15.45,3.15c0.92,0,1.66,0.75,1.66,1.66c0,0.92-0.75,1.66-1.66,1.66
		c-0.92,0-1.66-0.75-1.66-1.66C13.78,3.89,14.53,3.15,15.45,3.15z"/>
	<path class="st1" d="M17.76,20.52h-2.53c-0.17,0-0.32,0.14-0.32,0.32s0.14,0.32,0.32,0.32h2.53c0.17,0,0.32-0.14,0.32-0.32
		S17.94,20.52,17.76,20.52z"/>
	<path class="st1" d="M17.76,19.16H16.5c-0.17,0-0.32,0.14-0.32,0.32c0,0.17,0.14,0.32,0.32,0.32h1.27c0.17,0,0.32-0.14,0.32-0.32
		C18.08,19.3,17.94,19.16,17.76,19.16z"/>
	<path class="st1" d="M20.49,18.44c-0.83,0-1.51,0.68-1.51,1.51c0,0.83,0.68,1.51,1.51,1.51c0.83,0,1.51-0.68,1.51-1.51
		C22.01,19.12,21.33,18.44,20.49,18.44z M21.48,19.96c0,0.55-0.44,0.99-0.99,0.99s-0.99-0.44-0.99-0.99s0.44-0.99,0.99-0.99
		S21.48,19.41,21.48,19.96z"/>
</g>
</svg>
