<?xml version="1.0" encoding="utf-8"?>
<!-- Generator: Adobe Illustrator 19.2.1, SVG Export Plug-In . SVG Version: 6.00 Build 0)  -->
<svg version="1.1" id="Layer_2" xmlns="http://www.w3.org/2000/svg" xmlns:xlink="http://www.w3.org/1999/xlink" x="0px" y="0px"
	 viewBox="0 0 24 24" style="enable-background:new 0 0 24 24;" xml:space="preserve">
<style type="text/css">
	.st0{fill:#666666;}
</style>
<g>
	<g>
		<path class="st0" d="M7.33,18.53c-0.04,0-0.07,0-0.11-0.01C6.44,18.3,5.89,17.88,5.5,17.2c-0.33-0.59-0.56-1.4-0.76-2.71
			c0-0.01,0-0.01,0-0.02L3.82,6.41c0-0.02,0-0.03,0-0.05c0-2.37,1.93-4.29,4.29-4.29h5.21c0.22,0,0.4,0.18,0.4,0.4
			c0,0.22-0.18,0.4-0.4,0.4H8.11c-1.91,0-3.47,1.55-3.48,3.46l0.92,8.02c0.19,1.21,0.39,1.93,0.67,2.44
			c0.28,0.5,0.65,0.78,1.23,0.94c0.22,0.06,0.34,0.28,0.28,0.5C7.67,18.42,7.51,18.53,7.33,18.53z"/>
		<path class="st0" d="M19.2,9.89c-0.02,0-0.03,0-0.05,0c-0.22-0.03-0.38-0.23-0.36-0.45l0.36-3.1c-0.01-1.91-1.57-3.46-3.48-3.46
			h-5.21c-0.22,0-0.4-0.18-0.4-0.4c0-0.22,0.18-0.4,0.4-0.4h5.21c2.37,0,4.29,1.93,4.29,4.29c0,0.02,0,0.03,0,0.05L19.6,9.53
			C19.58,9.74,19.4,9.89,19.2,9.89z"/>
	</g>
	<path class="st0" d="M17.27,21.91H6.51c-0.22,0-0.4-0.18-0.4-0.4v-3.7c0-0.22,0.18-0.4,0.4-0.4c0.22,0,0.4,0.18,0.4,0.4v3.3h9.96
		v-3.15c0-0.22,0.18-0.4,0.4-0.4c0.22,0,0.4,0.18,0.4,0.4v3.55C17.67,21.73,17.49,21.91,17.27,21.91z"/>
	<path class="st0" d="M13.51,18.7h-3.24c-0.22,0-0.4-0.18-0.4-0.4c0-0.22,0.18-0.4,0.4-0.4h3.24c0.22,0,0.4,0.18,0.4,0.4
		C13.91,18.52,13.73,18.7,13.51,18.7z"/>
	<path class="st0" d="M13.51,20.1h-3.24c-0.22,0-0.4-0.18-0.4-0.4c0-0.22,0.18-0.4,0.4-0.4h3.24c0.22,0,0.4,0.18,0.4,0.4
		C13.91,19.92,13.73,20.1,13.51,20.1z"/>
	<path class="st0" d="M16.11,18.54c-0.22,0-0.4-0.18-0.4-0.4c0-0.22,0.18-0.4,0.4-0.4c0.45,0,1.83,0,2.46-2.54l0.78-3.93
		c0.08-0.49-0.02-0.91-0.32-1.26c-0.38-0.45-1.05-0.73-1.76-0.73h-1.14c-1.09,0-1.98,0.89-1.98,1.98v2.21c0,0.16-0.09,0.3-0.23,0.37
		l-1.91,0.9c-0.2,0.1-0.44,0.01-0.54-0.19c-0.1-0.2-0.01-0.44,0.19-0.54l1.67-0.79v-1.96c0-1.54,1.25-2.79,2.79-2.79h1.14
		c0.95,0,1.84,0.38,2.38,1.02c0.45,0.53,0.62,1.2,0.49,1.92c0,0,0,0.01,0,0.01l-0.79,3.95c0,0.01,0,0.01,0,0.02
		c-0.24,0.97-0.6,1.72-1.09,2.25C17.7,18.24,16.98,18.54,16.11,18.54z"/>
</g>
</svg>
