<?xml version="1.0" encoding="utf-8"?>
<!-- Generator: Adobe Illustrator 19.2.1, SVG Export Plug-In . SVG Version: 6.00 Build 0)  -->
<svg version="1.1" id="Layer_2" xmlns="http://www.w3.org/2000/svg" xmlns:xlink="http://www.w3.org/1999/xlink" x="0px" y="0px"
	 viewBox="0 0 24 24" style="enable-background:new 0 0 24 24;" xml:space="preserve">
<style type="text/css">
	.st0{fill:#666666;}
</style>
<g>
	<path class="st0" d="M8.84,2.03c-1.84,0-3.57,4.84-3.57,9.97c0,5.12,1.74,9.97,3.57,9.97c1.57,0,3.57-4.69,3.57-9.97
		C12.41,6.97,10.64,2.03,8.84,2.03z M8.84,21.16c-0.95,0-2.76-3.87-2.76-9.16c0-5.29,1.82-9.16,2.76-9.16c0.8,0,2.76,3.65,2.76,9.16
		C11.6,17.46,9.53,21.16,8.84,21.16z"/>
	<path class="st0" d="M7.18,11.82c0,1.9,0.7,3.27,1.66,3.27c0.96,0,1.66-1.38,1.66-3.27c0-1.9-0.7-3.27-1.66-3.27
		C7.88,8.55,7.18,9.92,7.18,11.82z M8.84,14.36c-0.38,0-0.93-0.99-0.93-2.54s0.55-2.54,0.93-2.54c0.38,0,0.93,0.99,0.93,2.54
		S9.22,14.36,8.84,14.36z"/>
	<path class="st0" d="M8.84,5.61c0.2,0,0.37-0.16,0.37-0.37V3.83c0-0.2-0.16-0.37-0.37-0.37S8.48,3.63,8.48,3.83v1.42
		C8.48,5.45,8.64,5.61,8.84,5.61z"/>
	<path class="st0" d="M8.84,18.34c-0.2,0-0.37,0.16-0.37,0.37v1.42c0,0.2,0.16,0.37,0.37,0.37s0.37-0.16,0.37-0.37V18.7
		C9.21,18.5,9.04,18.34,8.84,18.34z"/>
	<path class="st0" d="M17.33,7.48l0.48-0.55c0.26-0.29,0.4-0.67,0.4-1.06V2.82c0-0.06-0.01-0.12-0.04-0.17
		c-0.37-0.76-2.35-0.4-2.37-0.39c-0.42,0.1-0.64,0.29-0.64,0.57v3.06c0,0.38,0.13,0.75,0.37,1.04L16,7.47
		c0.07,0.08,0.17,0.13,0.28,0.14v8.93c-0.11,0.01-0.21,0.06-0.28,0.14l-0.46,0.56c-0.24,0.29-0.37,0.66-0.37,1.04v3.06
		c0,0.28,0.21,0.47,0.64,0.57c0.01,0,0.49,0.09,1.03,0.09c0.55,0,1.16-0.1,1.34-0.48c0.03-0.05,0.04-0.11,0.04-0.17v-3.05
		c0-0.39-0.14-0.77-0.4-1.06l-0.48-0.55c-0.06-0.07-0.15-0.12-0.24-0.13V7.61C17.18,7.6,17.26,7.55,17.33,7.48z M15.97,5.88V3.03
		c0.35-0.08,1.11-0.1,1.43-0.01v2.84c0,0.19-0.07,0.38-0.2,0.53l-0.15,0.17V3.96c0-0.2-0.16-0.37-0.37-0.37
		c-0.2,0-0.37,0.16-0.37,0.37v2.63L16.15,6.4C16.03,6.25,15.97,6.07,15.97,5.88z M17.39,18.29v2.84c-0.31,0.09-1.08,0.07-1.43-0.01
		v-2.85c0-0.19,0.07-0.37,0.19-0.52l0.16-0.19v2.82c0,0.2,0.16,0.37,0.37,0.37c0.2,0,0.37-0.16,0.37-0.37v-2.8l0.15,0.17
		C17.32,17.91,17.39,18.1,17.39,18.29z"/>
</g>
</svg>
