<?xml version="1.0" encoding="utf-8"?>
<!-- Generator: Adobe Illustrator 19.2.1, SVG Export Plug-In . SVG Version: 6.00 Build 0)  -->
<svg version="1.1" id="Layer_2" xmlns="http://www.w3.org/2000/svg" xmlns:xlink="http://www.w3.org/1999/xlink" x="0px" y="0px"
	 viewBox="0 0 24 24" style="enable-background:new 0 0 24 24;" xml:space="preserve">
<style type="text/css">
	.st0{fill:#666666;}
</style>
<path class="st0" d="M14.93,19.04l-3.61-0.01c-0.92,0-1.67-0.75-1.66-1.67l0.02-13.1L7.61,4.68C7.38,4.72,7.18,4.86,7.04,5.06
	c-0.13,0.2-0.18,0.44-0.13,0.67l2.65,13.46c0.09,0.48,0.57,0.8,1.05,0.71L14.93,19.04L14.93,19.04z M11.35,2.76
	c-0.49,0-0.9,0.4-0.9,0.9l-0.02,13.72c0,0.49,0.4,0.9,0.89,0.9l8.41,0.01c0.49,0,0.9-0.4,0.9-0.9l0.02-13.72c0-0.49-0.4-0.9-0.9-0.9
	L11.35,2.76L11.35,2.76z M15.74,19.67l-5.44,2.24c-0.2,0.08-0.42,0.13-0.64,0.13c-0.68,0-1.28-0.41-1.54-1.03L2.9,8.32
	C2.55,7.47,2.95,6.5,3.8,6.15l2.36-0.97C6.21,4.98,6.29,4.8,6.4,4.63c0.25-0.37,0.63-0.62,1.06-0.71l2.22-0.44
	c0.09-0.84,0.8-1.5,1.66-1.5L19.76,2c0.92,0,1.67,0.75,1.67,1.67L21.4,17.39c0,0.92-0.75,1.67-1.67,1.67l-0.85,0L15.74,19.67
	L15.74,19.67z M6.17,6L4.1,6.86C3.64,7.05,3.42,7.57,3.61,8.03l5.23,12.68c0.14,0.34,0.46,0.55,0.83,0.56
	c0.12,0,0.23-0.02,0.34-0.07l1.85-0.76l-1.1,0.22c-0.11,0.02-0.22,0.03-0.33,0.03c-0.79,0-1.48-0.57-1.63-1.35L6.17,6L6.17,6z
	 M15.53,15.63c-0.1,0-0.2-0.04-0.27-0.11l-2.3-2.3c-0.39-0.4-0.61-0.9-0.61-1.42c0-0.5,0.2-0.97,0.56-1.32
	c0.36-0.36,0.83-0.55,1.34-0.55c0.48,0,0.94,0.18,1.29,0.51c0.35-0.33,0.81-0.5,1.29-0.5c0.5,0,0.98,0.2,1.34,0.55
	c0.36,0.36,0.55,0.83,0.55,1.33c0,0.52-0.22,1.03-0.61,1.42l-2.3,2.3C15.73,15.59,15.63,15.63,15.53,15.63L15.53,15.63z
	 M14.25,10.69c-0.3,0-0.58,0.12-0.79,0.33c-0.21,0.21-0.33,0.49-0.33,0.78c0,0.31,0.14,0.63,0.38,0.87l2.02,2.03l2.03-2.02
	c0.25-0.25,0.39-0.56,0.39-0.87c0-0.29-0.12-0.57-0.33-0.78c-0.21-0.21-0.49-0.33-0.79-0.33c-0.3,0-0.59,0.12-0.8,0.33l-0.22,0.22
	c-0.07,0.07-0.17,0.11-0.27,0.11c-0.1,0-0.2-0.04-0.27-0.11l-0.22-0.22C14.84,10.81,14.55,10.69,14.25,10.69L14.25,10.69z
	 M13.19,5.95l-0.37-0.89l-0.37,0.89L13.19,5.95L13.19,5.95z M11.64,7.28c-0.05,0-0.1-0.01-0.15-0.03c-0.2-0.08-0.29-0.31-0.21-0.5
	l1.18-2.84c0.06-0.14,0.2-0.24,0.36-0.24c0.16,0,0.3,0.09,0.36,0.24l1.17,2.85c0.08,0.2-0.01,0.42-0.21,0.5
	c-0.2,0.08-0.42-0.01-0.5-0.21l-0.14-0.32l-1.37,0L12,7.04C11.94,7.19,11.79,7.28,11.64,7.28L11.64,7.28z"/>
</svg>
