<?xml version="1.0" encoding="utf-8"?>
<!-- Generator: Adobe Illustrator 19.2.1, SVG Export Plug-In . SVG Version: 6.00 Build 0)  -->
<svg version="1.1" id="Layer_2" xmlns="http://www.w3.org/2000/svg" xmlns:xlink="http://www.w3.org/1999/xlink" x="0px" y="0px"
	 viewBox="0 0 24 24" style="enable-background:new 0 0 24 24;" xml:space="preserve">
<style type="text/css">
	.st0{fill:#666666;}
</style>
<g>
	<path class="st0" d="M11.96,2.06c-5.49,0-9.96,4.47-9.96,9.96c0,5.49,4.47,9.96,9.96,9.96s9.96-4.47,9.96-9.96
		C21.92,6.52,17.45,2.06,11.96,2.06z M11.96,17.83c-3.2,0-5.81-2.61-5.81-5.81c0-3.2,2.61-5.81,5.81-5.81c3.2,0,5.81,2.61,5.81,5.81
		C17.77,15.22,15.16,17.83,11.96,17.83z M16.34,7.04c-1.07-0.95-2.46-1.56-3.97-1.65V2.9c2.21,0.1,4.21,0.98,5.74,2.38L16.34,7.04z
		 M11.54,5.39c-1.52,0.09-2.9,0.7-3.97,1.65L5.8,5.28C7.33,3.88,9.34,3,11.54,2.9V5.39z M6.98,7.63C6.03,8.7,5.42,10.08,5.33,11.6
		H2.83c0.1-2.21,0.98-4.21,2.38-5.74L6.98,7.63z M5.33,12.43c0.09,1.52,0.7,2.9,1.65,3.97l-1.76,1.76c-1.4-1.53-2.28-3.53-2.38-5.74
		H5.33z M7.57,16.99c1.07,0.95,2.46,1.56,3.97,1.65v2.49c-2.21-0.1-4.21-0.98-5.74-2.38L7.57,16.99z M12.37,18.64
		c1.52-0.09,2.9-0.7,3.97-1.65l1.76,1.76c-1.53,1.4-3.53,2.28-5.74,2.38V18.64z M16.93,16.41c0.95-1.07,1.56-2.46,1.65-3.97h2.49
		c-0.1,2.21-0.98,4.21-2.38,5.74L16.93,16.41z M18.58,11.6c-0.09-1.52-0.7-2.9-1.65-3.97l1.76-1.76c1.4,1.53,2.28,3.53,2.38,5.74
		H18.58z"/>
	<polygon class="st0" points="14.01,9.38 11.96,11.43 9.9,9.38 9.31,9.96 11.37,12.02 9.31,14.07 9.9,14.66 11.96,12.6 14.01,14.66 
		14.6,14.07 12.54,12.02 14.6,9.96 	"/>
</g>
</svg>
