<?xml version="1.0" encoding="utf-8"?>
<!-- Generator: Adobe Illustrator 19.2.1, SVG Export Plug-In . SVG Version: 6.00 Build 0)  -->
<svg version="1.1" id="Layer_2" xmlns="http://www.w3.org/2000/svg" xmlns:xlink="http://www.w3.org/1999/xlink" x="0px" y="0px"
	 viewBox="0 0 24 24" style="enable-background:new 0 0 24 24;" xml:space="preserve">
<style type="text/css">
	.st0{fill:#666666;}
</style>
<g>
	<path class="st0" d="M6.98,19.98c-1.33,0-2.59-0.52-3.53-1.46C2.51,17.58,1.99,16.33,1.99,15c0-1.33,0.52-2.59,1.46-3.53
		c0.94-0.94,2.19-1.46,3.52-1.46c0.48,0,0.96,0.07,1.42,0.21l0.21,0.06l6.35-6.35l2.76,0.01h0.31v3.09l-1.34,1.34l-0.13,0h-1.66
		v1.98l-1.98,0v1.67l0,0.14l-1.21,1.21l0.06,0.21c0.52,1.75,0.04,3.65-1.25,4.94C9.57,19.46,8.31,19.98,6.98,19.98z M6.98,10.64
		c-1.16,0-2.26,0.45-3.08,1.28C3.07,12.74,2.62,13.83,2.62,15s0.45,2.26,1.28,3.08c0.82,0.82,1.92,1.27,3.08,1.27
		c1.17,0,2.26-0.45,3.08-1.27c1.23-1.23,1.61-3.06,0.97-4.67c-0.05-0.12-0.02-0.25,0.07-0.34l1.18-1.18V9.73l0.32,0h1.67V7.74
		l2.17,0l0.97-0.97v-2.2h-2.2l-6.3,6.3c-0.06,0.06-0.14,0.09-0.22,0.09c-0.04,0-0.08-0.01-0.11-0.02
		C8.06,10.74,7.52,10.64,6.98,10.64z"/>
	<g>
		<polygon class="st0" points="5.41,16.58 6.54,15.04 4.72,14.45 4.89,13.92 6.7,14.51 6.7,12.61 7.28,12.61 7.28,14.51 9.09,13.92 
			9.26,14.45 7.44,15.04 8.56,16.58 8.11,16.91 6.99,15.37 5.87,16.91 		"/>
	</g>
	<g>
		<polygon class="st0" points="14.44,15.6 15.24,14.51 13.95,14.1 14.07,13.72 15.35,14.14 15.35,12.79 15.76,12.79 15.76,14.14 
			17.04,13.72 17.16,14.1 15.88,14.51 16.67,15.6 16.35,15.83 15.56,14.75 14.77,15.83 		"/>
	</g>
	<g>
		<polygon class="st0" points="19.24,15.6 20.04,14.51 18.75,14.1 18.87,13.72 20.15,14.14 20.15,12.79 20.56,12.79 20.56,14.14 
			21.84,13.72 21.96,14.1 20.67,14.51 21.47,15.6 21.15,15.83 20.36,14.75 19.57,15.83 		"/>
	</g>
</g>
</svg>
