<?xml version="1.0" encoding="utf-8"?>
<!-- Generator: Adobe Illustrator 19.2.1, SVG Export Plug-In . SVG Version: 6.00 Build 0)  -->
<svg version="1.1" id="Layer_2" xmlns="http://www.w3.org/2000/svg" xmlns:xlink="http://www.w3.org/1999/xlink" x="0px" y="0px"
	 viewBox="0 0 24 24" style="enable-background:new 0 0 24 24;" xml:space="preserve">
<style type="text/css">
	.st0{fill:#666666;}
</style>
<g>
	<path class="st0" d="M14.64,17c-0.13,0-0.26-0.01-0.39-0.03c-0.89-0.14-1.67-0.69-2.09-1.48l-2.67-5.02
		C9.07,9.67,9.05,8.72,9.43,7.91c0.23-0.5,0.63-0.92,1.12-1.18l0.27-0.14c0.16-0.08,0.33-0.13,0.51-0.13c0.11,0,0.22,0.02,0.32,0.05
		c0.28,0.09,0.51,0.27,0.65,0.53l0.5,0.94c0.29,0.55,0.08,1.23-0.46,1.52c-0.21,0.11-0.36,0.29-0.43,0.52
		c-0.07,0.23-0.05,0.46,0.06,0.67l1.4,2.63c0.11,0.2,0.29,0.36,0.51,0.42c0.08,0.02,0.17,0.04,0.25,0.04c0.14,0,0.28-0.04,0.41-0.1
		c0.16-0.09,0.35-0.13,0.53-0.13c0.11,0,0.22,0.02,0.33,0.05c0.29,0.09,0.53,0.28,0.67,0.55l0.49,0.93
		c0.14,0.26,0.17,0.55,0.08,0.83c-0.08,0.28-0.27,0.51-0.53,0.65l-0.27,0.14C15.47,16.89,15.05,17,14.64,17z M11.33,7.14
		c-0.07,0-0.14,0.02-0.2,0.05l-0.27,0.14c-0.36,0.19-0.65,0.5-0.82,0.87c-0.29,0.62-0.27,1.35,0.05,1.95l2.67,5.02
		c0.32,0.6,0.92,1.03,1.59,1.13c0.09,0.01,0.19,0.02,0.29,0.02c0.31,0,0.61-0.08,0.89-0.22l0.27-0.14c0.1-0.05,0.17-0.14,0.2-0.25
		c0.03-0.11,0.02-0.22-0.03-0.32l-0.49-0.93c-0.08-0.15-0.23-0.24-0.4-0.24c-0.07,0-0.15,0.02-0.21,0.05
		c-0.23,0.12-0.47,0.18-0.72,0.18c-0.15,0-0.31-0.02-0.45-0.07c-0.39-0.12-0.72-0.39-0.91-0.75l-1.4-2.63
		c-0.2-0.37-0.24-0.79-0.11-1.18c0.12-0.4,0.39-0.72,0.76-0.92c0.11-0.06,0.18-0.15,0.22-0.27c0.03-0.11,0.02-0.23-0.03-0.34
		l-0.5-0.94c-0.05-0.1-0.14-0.17-0.25-0.2C11.41,7.15,11.37,7.14,11.33,7.14z"/>
	<path class="st0" d="M6.93,21.97c-0.95,0-1.72-0.78-1.72-1.75v-4.48H4.14c-0.19,0-0.34-0.15-0.34-0.34c0-0.19,0.15-0.34,0.34-0.34
		h1.06V8.59H4.14c-0.19,0-0.34-0.15-0.34-0.34s0.15-0.34,0.34-0.34h1.06V3.75C5.21,2.78,5.98,2,6.93,2h11.55
		c0.95,0,1.72,0.78,1.72,1.75v16.48c0,0.96-0.77,1.75-1.72,1.75H6.93z M5.88,20.22c0,0.59,0.47,1.07,1.04,1.07h11.55
		c0.58,0,1.04-0.48,1.04-1.07V3.75c0-0.59-0.47-1.07-1.04-1.07H6.93c-0.58,0-1.04,0.48-1.04,1.07v4.17h1.06
		c0.19,0,0.34,0.15,0.34,0.34S7.13,8.59,6.94,8.59H5.88v6.48h1.06c0.19,0,0.34,0.15,0.34,0.34c0,0.19-0.15,0.34-0.34,0.34H5.88
		V20.22z"/>
</g>
</svg>
