<?xml version="1.0" encoding="utf-8"?>
<!-- Generator: Adobe Illustrator 19.2.1, SVG Export Plug-In . SVG Version: 6.00 Build 0)  -->
<svg version="1.1" id="Layer_2" xmlns="http://www.w3.org/2000/svg" xmlns:xlink="http://www.w3.org/1999/xlink" x="0px" y="0px"
	 viewBox="0 0 24 24" style="enable-background:new 0 0 24 24;" xml:space="preserve">
<style type="text/css">
	.st0{fill:#666666;}
</style>
<path class="st0" d="M22.12,5.01c0,0.12-0.07,0.25-0.19,0.34l-4.35,3.33c-0.17,0.13-0.33,0.26-0.5,0.39
	c-0.34,0.27-0.69,0.55-1.05,0.8c-0.07,0.05-0.14,0.1-0.22,0.14l-0.05,0.03l0.27,0.36c0.11,0.14,0.17,0.33,0.17,0.52
	c0,0.19-0.06,0.38-0.16,0.53c-0.1,0.14-0.24,0.25-0.38,0.35l-9.45,7.02c-0.09,0.07-0.17,0.13-0.24,0.19
	c-0.38,0.3-0.77,0.61-1.23,0.52c-0.38-0.07-0.61-0.41-0.84-0.73c-0.04-0.06-0.08-0.12-0.13-0.18l-1.03-1.38
	c-0.05-0.07-0.1-0.13-0.16-0.2c-0.19-0.24-0.41-0.51-0.45-0.78C2.11,16.2,2.1,16.15,2.1,16.09c0-0.31,0.14-0.58,0.41-0.78
	c0,0,10.34-7.68,10.35-7.69c0.01-0.01,0.02-0.02,0.03-0.02c0.41-0.25,0.95-0.13,1.25,0.28l0.26,0.35l0.05-0.04
	c0.11-0.1,0.23-0.19,0.34-0.27l5.82-4.46c0.08-0.06,0.17-0.06,0.24-0.05c0.11,0.02,0.22,0.1,0.28,0.19
	c0.03,0.06,0.05,0.12,0.05,0.18c0,0.12-0.07,0.25-0.19,0.34l-5.77,4.42l0,0c-0.01,0.01-0.13,0.11-0.13,0.11
	c-0.06,0.05-0.12,0.11-0.17,0.16l-0.03,0.03l0.23,0.31l0.19,0.25l0.04-0.02c0.05-0.03,0.09-0.05,0.14-0.08
	c0.1-0.06,0.19-0.13,0.28-0.2l5.79-4.43c0.06-0.05,0.15-0.06,0.24-0.05c0.11,0.02,0.22,0.1,0.28,0.19
	C22.1,4.88,22.12,4.95,22.12,5.01z M15.4,11.04c0.01-0.01,0.01-0.02,0.01-0.02L15.43,11l-0.01-0.02l0-0.06l0-0.02l-0.01-0.04
	l-0.01,0c-0.01-0.02-0.03-0.06-0.03-0.06l-0.94-1.26L14.41,9.5c-0.03-0.04-0.06-0.08-0.1-0.12c-0.09-0.1-0.18-0.21-0.23-0.32
	l-0.09-0.13l-0.45-0.6c0-0.01-0.01-0.01-0.02-0.02l0.02-0.03l-0.08-0.02l-0.02-0.01l-0.03,0.01l0-0.02l-0.03-0.02l-0.04,0.02
	l0.02,0.11l-0.04-0.01L13.3,8.29l0.02-0.04c-0.01,0.01-0.07,0.04-0.07,0.04l-10.38,7.7l-0.02,0.05v0.02l-0.02,0.03l0.02,0.04
	l0.11-0.01l-0.04,0.06l-0.06-0.02c0.01,0.01,0.04,0.07,0.04,0.07l1.85,2.49c0.01,0.01,0.01,0.01,0.01,0.02l0,0
	c0.03,0.03,0.05,0.06,0.07,0.06l0.01,0.01l0.04,0l0-0.03l0,0l0-0.01l0-0.02v-0.01c0-0.01,0-0.02-0.01-0.03l0-0.01l0.01,0.01l0-0.02
	l0.04,0.05l-0.01,0.02l0.02,0.03c0.04-0.02,0.06-0.03,0.09-0.05L15.4,11.04L15.4,11.04L15.4,11.04z M14.22,11.01
	c0,0.13-0.07,0.25-0.19,0.34l-0.75,0.55c-0.07,0.05-0.15,0.06-0.24,0.05c-0.11-0.02-0.22-0.1-0.27-0.19
	c-0.03-0.06-0.05-0.12-0.05-0.18c0-0.12,0.07-0.25,0.19-0.34l0.75-0.55c0.07-0.05,0.15-0.06,0.24-0.05c0.11,0.02,0.22,0.1,0.27,0.19
	C14.2,10.88,14.22,10.95,14.22,11.01z M14.02,19c-0.02,0.88-0.75,1.61-1.59,1.59c-0.88-0.02-1.59-0.72-1.59-1.56l0-0.03
	c0.02-0.86,0.68-1.54,1.54-1.59c0.02,0,0.04,0,0.06,0c0.02,0,0.04,0,0.06,0c0.85,0.05,1.54,0.75,1.54,1.56L14.02,19z M11.6,19.01
	c0,0.23,0.09,0.44,0.25,0.59c0.17,0.16,0.38,0.25,0.59,0.24c0.23,0,0.44-0.09,0.59-0.24c0.15-0.16,0.24-0.37,0.24-0.58
	c-0.01-0.48-0.37-0.84-0.83-0.85c-0.23,0-0.45,0.09-0.59,0.24c-0.15,0.16-0.24,0.37-0.24,0.58v0V19.01z M13.41,8.32l0.01-0.07
	l0.02-0.01l0.01,0.03L13.41,8.32z M12.46,12.3c0,0.13-0.07,0.25-0.19,0.34l-6.54,4.85c-0.07,0.05-0.15,0.06-0.24,0.05
	c-0.11-0.02-0.22-0.1-0.27-0.19c-0.03-0.06-0.05-0.12-0.05-0.18c0-0.12,0.07-0.25,0.19-0.34l6.54-4.85
	c0.07-0.05,0.15-0.06,0.24-0.05c0.11,0.02,0.22,0.1,0.27,0.19C12.44,12.18,12.46,12.24,12.46,12.3L12.46,12.3z M2.96,16.06
	C2.96,16.06,2.97,16.06,2.96,16.06L2.96,16.06L2.96,16.06z"/>
</svg>
