<?xml version="1.0" encoding="utf-8"?>
<!-- Generator: Adobe Illustrator 19.2.1, SVG Export Plug-In . SVG Version: 6.00 Build 0)  -->
<svg version="1.1" id="Layer_2" xmlns="http://www.w3.org/2000/svg" xmlns:xlink="http://www.w3.org/1999/xlink" x="0px" y="0px"
	 viewBox="0 0 24 24" style="enable-background:new 0 0 24 24;" xml:space="preserve">
<style type="text/css">
	.st0{fill:#666666;}
</style>
<path class="st0" d="M11.49,21.88c-1.35,0-2.71-0.29-3.92-0.85c-3.03-1.4-5.16-4.46-5.41-7.79C1.89,9.87,3.56,6.5,6.38,4.66
	c1.51-0.98,3.28-1.51,5.13-1.51c1.6,0,3.16,0.4,4.52,1.16c0.14,0.08,0.27,0.15,0.4,0.24l0.03,0.02l1.62-1.62
	c0.07-0.07,0.14-0.14,0.21-0.22c0.17-0.18,0.34-0.36,0.53-0.5c0.12-0.08,0.29-0.13,0.46-0.13c0.22,0,0.42,0.07,0.54,0.19
	c0.09,0.09,0.13,0.2,0.13,0.33l-0.01,1.52l1.53-0.02c0.15,0,0.26,0.09,0.33,0.16c0.13,0.15,0.21,0.37,0.19,0.54
	c-0.03,0.25-0.1,0.42-0.24,0.56L19.5,7.66l0.02,0.03c0.88,1.47,1.35,3.14,1.36,4.83c-0.01,2.91-1.4,5.7-3.72,7.47
	C15.56,21.21,13.55,21.88,11.49,21.88C11.49,21.88,11.49,21.88,11.49,21.88z M11.48,3.93c-0.71,0-1.41,0.09-2.08,0.26
	c-3.13,0.8-5.6,3.34-6.29,6.47c-0.36,1.62-0.24,3.3,0.34,4.85c0.26,0.71,0.66,1.45,1.12,2.08c0.43,0.6,1.03,1.21,1.63,1.68
	c1.48,1.17,3.38,1.81,5.33,1.81c1.32,0,2.62-0.3,3.75-0.87c1.44-0.72,2.64-1.8,3.46-3.11c0.87-1.38,1.33-2.97,1.33-4.6
	c0-1.53-0.41-3.02-1.17-4.33L18.9,8.15l-0.03,0.01c-0.14,0.04-0.3,0.05-0.44,0.05c-0.12,0-0.24,0.01-0.36,0.01
	c-0.17,0-0.34,0-0.51-0.01c-0.35-0.01-0.69-0.03-1.04-0.05L16,8.65l0.03,0.03c0.9,1.07,1.4,2.43,1.41,3.83
	c-0.01,2.26-1.36,4.41-3.37,5.35c-0.81,0.38-1.7,0.58-2.58,0.58c-0.86,0-1.69-0.18-2.47-0.54c-1.52-0.69-2.71-2.06-3.19-3.65
	c-0.51-1.67-0.25-3.52,0.68-4.94c0.94-1.44,2.46-2.43,4.08-2.66c0.3-0.04,0.6-0.06,0.9-0.06c1.46,0,2.86,0.52,3.93,1.45l0.03,0.03
	l0.05-0.01l0.42-0.42l0-0.04c-0.04-0.67-0.07-1.36-0.02-2.03l0-0.05c0.01-0.1,0.02-0.21,0.04-0.31l0.01-0.03l-0.03-0.02
	c-0.54-0.32-1.09-0.58-1.65-0.77C13.36,4.08,12.42,3.93,11.48,3.93z M11.5,7.37c-0.22,0-0.45,0.01-0.67,0.04
	C9.3,7.6,7.86,8.54,7.08,9.88c-0.41,0.69-0.66,1.48-0.71,2.23c-0.02,0.24-0.02,0.46-0.01,0.67c0.01,0.2,0.03,0.4,0.05,0.54
	c0.07,0.43,0.19,0.83,0.34,1.2c0.59,1.42,1.88,2.55,3.36,2.96c0.45,0.12,0.92,0.19,1.39,0.19c1.15,0,2.25-0.37,3.17-1.08
	c0.1-0.07,0.3-0.25,0.43-0.37c0.14-0.14,0.27-0.28,0.4-0.43c0.23-0.27,0.46-0.63,0.63-0.97c0.35-0.7,0.54-1.49,0.54-2.3
	c0-1.2-0.42-2.36-1.17-3.27l-0.03-0.04l-1.91,1.9l0.02,0.03c0.27,0.41,0.42,0.88,0.42,1.38c-0.01,0.85-0.43,1.62-1.12,2.08
	c-0.4,0.26-0.87,0.4-1.35,0.4c-0.35,0-0.71-0.08-1.03-0.22c-0.8-0.36-1.37-1.16-1.45-2.06c-0.08-0.89,0.36-1.79,1.11-2.28
	c0.4-0.26,0.88-0.4,1.37-0.4c0.42,0,0.83,0.11,1.19,0.3c0.09,0.05,0.18,0.11,0.27,0.17L13,10.54l1.9-1.89l-0.04-0.03
	c-0.17-0.15-0.35-0.28-0.55-0.41c-0.35-0.22-0.71-0.4-1.04-0.52C12.67,7.47,12.09,7.37,11.5,7.37z M11.51,10.82
	c-0.5,0-0.97,0.21-1.3,0.59c-0.49,0.56-0.54,1.42-0.14,2.04c0.31,0.48,0.86,0.77,1.43,0.77c0.16,0,0.33-0.02,0.48-0.07
	c0.71-0.22,1.2-0.87,1.2-1.62c0-0.28-0.07-0.55-0.19-0.79l-0.03-0.06l-1.19,1.19c-0.08,0.08-0.17,0.12-0.26,0.12
	c-0.16,0-0.32-0.11-0.38-0.27c-0.06-0.14-0.03-0.29,0.09-0.4l1.21-1.21l-0.05-0.03c-0.06-0.03-0.11-0.07-0.17-0.1
	C12,10.88,11.76,10.82,11.51,10.82z M16.67,5.64c-0.02,0.29-0.01,0.58-0.01,0.87c0,0.28,0.01,0.56,0.02,0.84l0,0.04l0.04,0
	c0.25,0.01,0.5,0.02,0.75,0.03c0.2,0.01,0.39,0.01,0.59,0.01c0.09,0,0.18,0,0.27,0c0.09,0,0.18-0.01,0.28-0.01l0.04-0.04l0.01,0.03
	l0.04-0.01l0.03-0.02l0-0.04L18.73,7.3l0.79-0.78l1.6-1.6l-1.56,0.02c-0.11,0-0.2-0.04-0.28-0.12c-0.07-0.08-0.12-0.18-0.12-0.28
	l0.01-1.58l-2.49,2.49c-0.01,0.02-0.01,0.04-0.01,0.06L16.65,5.5l-0.03,0.03l-0.01,0.05l0.01,0.03c0,0,0.04,0,0.05,0
	C16.67,5.62,16.67,5.63,16.67,5.64z"/>
</svg>
