<?xml version="1.0" encoding="utf-8"?>
<!-- Generator: Adobe Illustrator 19.2.1, SVG Export Plug-In . SVG Version: 6.00 Build 0)  -->
<svg version="1.1" id="Layer_2" xmlns="http://www.w3.org/2000/svg" xmlns:xlink="http://www.w3.org/1999/xlink" x="0px" y="0px"
	 viewBox="0 0 24 24" style="enable-background:new 0 0 24 24;" xml:space="preserve">
<style type="text/css">
	.st0{fill:#666666;}
</style>
<g>
	<g>
		<path class="st0" d="M8.52,15.26c-0.59,0-1.11-0.32-1.37-0.83L4.47,9.17C4.29,8.81,4.26,8.39,4.39,8C4.53,7.6,4.81,7.28,5.18,7.09
			l9.57-4.87c0.23-0.12,0.48-0.18,0.73-0.18c0.59,0,1.11,0.32,1.37,0.83l2.67,5.26c0.19,0.36,0.21,0.78,0.08,1.17
			c-0.13,0.39-0.42,0.72-0.79,0.91l-9.57,4.87C9.02,15.19,8.77,15.26,8.52,15.26L8.52,15.26z M7.79,14.11
			c0.14,0.28,0.43,0.45,0.75,0.45c0.14,0,0.27-0.03,0.4-0.1L18.5,9.6c0.2-0.1,0.36-0.28,0.43-0.5c0.07-0.22,0.06-0.45-0.04-0.65
			l-1.84-3.62L5.94,10.48L7.79,14.11z M15.46,2.74c-0.14,0-0.27,0.03-0.4,0.1L5.5,7.7C5.29,7.81,5.13,7.99,5.06,8.21
			C4.99,8.42,5.01,8.65,5.11,8.85l0.34,0.68l11.11-5.65L16.22,3.2C16.07,2.92,15.78,2.74,15.46,2.74z"/>
		<polygon class="st0" points="8.5,12.84 10.8,11.66 10.88,11.64 11.14,12.15 8.83,13.33 8.76,13.35 		"/>
		<path class="st0" d="M15.01,10.06c-0.39,0-0.74-0.21-0.92-0.55c-0.26-0.5-0.04-1.13,0.48-1.39c0.15-0.08,0.32-0.12,0.49-0.12
			c0.03,0,0.05,0,0.08,0l0.17,0.02l0.09-0.15c0.1-0.17,0.25-0.3,0.43-0.39c0.15-0.08,0.32-0.12,0.49-0.12
			c0.39,0,0.74,0.21,0.92,0.55c0.12,0.24,0.14,0.52,0.05,0.79c-0.09,0.26-0.28,0.48-0.53,0.61c-0.15,0.08-0.32,0.12-0.49,0.12
			c-0.03,0-0.06,0-0.08,0L16.01,9.4l-0.09,0.14c-0.1,0.17-0.25,0.3-0.43,0.39C15.34,10.02,15.17,10.06,15.01,10.06z"/>
	</g>
	<path class="st0" d="M15.42,21.95c-0.26,0-0.52-0.06-0.75-0.18l-9.51-4.98c-0.37-0.2-0.65-0.52-0.78-0.92
		c-0.13-0.39-0.1-0.81,0.09-1.17L5,13.71l0.39,0.76l-0.27,0.56c-0.1,0.19-0.12,0.42-0.06,0.64c0.07,0.22,0.22,0.4,0.43,0.51
		l9.51,4.98c0.13,0.07,0.27,0.1,0.41,0.1c0.32,0,0.6-0.17,0.75-0.45l1.89-3.6l-4.26-2.23l1.16-0.59l3.6,1.87l0.35-0.67
		c0.1-0.2,0.12-0.43,0.05-0.65c-0.07-0.22-0.22-0.39-0.42-0.5l-1.81-0.95l0.73-0.37l1.4,0.71c0.37,0.2,0.65,0.52,0.78,0.92
		c0.13,0.39,0.1,0.81-0.09,1.17l-2.74,5.23C16.52,21.64,16,21.95,15.42,21.95z"/>
</g>
</svg>
