<?xml version="1.0" encoding="utf-8"?>
<!-- Generator: Adobe Illustrator 19.2.1, SVG Export Plug-In . SVG Version: 6.00 Build 0)  -->
<svg version="1.1" id="Layer_2" xmlns="http://www.w3.org/2000/svg" xmlns:xlink="http://www.w3.org/1999/xlink" x="0px" y="0px"
	 viewBox="0 0 24 24" style="enable-background:new 0 0 24 24;" xml:space="preserve">
<style type="text/css">
	.st0{fill:#666666;}
</style>
<g>
	<path class="st0" d="M20.93,19.81c-0.17-0.07-0.36,0.01-0.43,0.18c-0.32,0.78-1.08,1.29-1.92,1.29c-0.8,0-1.51-0.44-1.86-1.16
		c-0.06-0.11-0.17-0.18-0.29-0.18c-0.12,0-0.24,0.07-0.29,0.18c-0.35,0.71-1.07,1.16-1.87,1.16s-1.51-0.44-1.86-1.16
		c-0.06-0.11-0.17-0.18-0.29-0.18s-0.24,0.07-0.29,0.18c-0.35,0.71-1.07,1.16-1.86,1.16s-1.51-0.44-1.87-1.16
		c-0.06-0.11-0.17-0.18-0.29-0.18s-0.24,0.07-0.29,0.18c-0.35,0.71-1.07,1.16-1.86,1.16c-0.84,0-1.6-0.5-1.92-1.29
		c-0.07-0.17-0.26-0.25-0.43-0.18c-0.17,0.07-0.25,0.26-0.18,0.43c0.42,1.03,1.42,1.69,2.53,1.69c0.86,0,1.65-0.39,2.16-1.05
		c0.51,0.66,1.3,1.05,2.16,1.05s1.65-0.39,2.16-1.05c0.51,0.66,1.3,1.05,2.16,1.05s1.65-0.39,2.16-1.05
		c0.51,0.66,1.3,1.05,2.16,1.05c1.11,0,2.1-0.66,2.53-1.69C21.18,20.07,21.1,19.88,20.93,19.81z"/>
	<path class="st0" d="M5.64,18.66c0.86,0,1.65-0.39,2.16-1.05c0.51,0.66,1.3,1.05,2.16,1.05s1.65-0.39,2.16-1.05
		c0.51,0.66,1.3,1.05,2.16,1.05s1.65-0.39,2.16-1.05c0.51,0.66,1.3,1.05,2.16,1.05c1.11,0,2.1-0.66,2.53-1.69
		c0.07-0.17-0.01-0.36-0.18-0.43c-0.17-0.07-0.36,0.01-0.43,0.18c-0.32,0.78-1.08,1.29-1.92,1.29c-0.8,0-1.51-0.44-1.86-1.16
		c-0.06-0.11-0.17-0.18-0.29-0.18c-0.12,0-0.24,0.07-0.29,0.18c-0.35,0.71-1.07,1.16-1.87,1.16c-0.7,0-1.34-0.34-1.72-0.91
		c0.36-0.1,0.69-0.31,0.94-0.6c0.46-0.53,0.58-1.3,0.33-1.95c0,0,0,0,0-0.01c-0.03-0.1-0.1-0.29-0.15-0.3l-0.01,0
		c-0.35-0.56-0.97-0.91-1.65-0.91c-0.08,0-0.17,0.01-0.25,0.02c-0.94,0.13-1.67,0.97-1.67,1.91c0,0.63,0.32,1.24,0.86,1.6
		c0.24,0.07,0.47,0.16,0.7,0.29c-0.39,0.55-1.01,0.88-1.7,0.88c-0.8,0-1.51-0.44-1.87-1.16c-0.06-0.11-0.17-0.18-0.29-0.18
		s-0.24,0.07-0.29,0.18c-0.35,0.71-1.07,1.16-1.86,1.16c-0.84,0-1.6-0.5-1.92-1.29c-0.07-0.17-0.26-0.25-0.43-0.18
		c-0.17,0.07-0.25,0.26-0.18,0.43C3.53,18,4.52,18.66,5.64,18.66z M12.03,13.98c0.15,0,0.3,0.03,0.44,0.08
		c0.55,0.21,0.89,0.79,0.8,1.37c-0.08,0.52-0.49,0.95-1.01,1.05c-0.08,0.02-0.16,0.02-0.24,0.02c-0.45,0-0.86-0.24-1.09-0.62
		c-0.27-0.45-0.22-1.05,0.11-1.45C11.28,14.15,11.65,13.98,12.03,13.98z"/>
	<path class="st0" d="M8.62,17.18l0.06-0.02C8.84,17.09,9.02,17.04,9.2,17l0.05-0.01l-0.01-0.05c-0.17-0.76-0.23-1.37-0.17-1.91
		C9.13,14.5,9.36,14,9.8,13.47c0.1-0.13,0.22-0.25,0.36-0.34l0.02-0.01c0.11-0.07,0.22-0.14,0.27-0.29
		c0.06-0.16,0.05-0.35,0.04-0.51c0-0.04,0-0.08,0-0.12c-0.01-0.27-0.01-0.54-0.01-0.81c0-1.06-0.08-2.13-0.16-3.16
		c-0.08-1.1-0.17-2.23-0.16-3.35c0-0.45,0.01-0.92,0.08-1.38c0.02-0.13,0.05-0.31,0.11-0.47c0.02-0.06,0.09-0.23,0.17-0.27
		c0.04,0.07,0.05,0.18,0.06,0.28l0.01,0.06c0.03,0.21,0.04,0.42,0.05,0.67l0.01,0.29c0.01,0.28,0.03,0.56,0.05,0.85
		c0.08,1.02,0.23,1.89,0.48,2.66c0.08,0.24,0.16,0.47,0.26,0.7c0.05,0.12,0.1,0.23,0.16,0.35c0.01,0.02,0.02,0.05,0.03,0.07
		c0.04,0.09,0.08,0.19,0.15,0.25c0.07,0.08,0.15,0.12,0.23,0.12c0.31,0,0.51-0.6,0.6-0.9l0.03-0.08c0.28-0.8,0.45-1.69,0.54-2.8
		c0.03-0.36,0.04-0.74,0.06-1.1l0.01-0.28c0.01-0.23,0.02-0.49,0.05-0.74l0.01-0.07c0.01-0.11,0.02-0.25,0.08-0.33
		c0.1,0.04,0.18,0.24,0.2,0.31c0.07,0.18,0.11,0.37,0.13,0.52c0.09,0.51,0.11,1.04,0.12,1.54c0.02,1.23-0.05,2.46-0.13,3.72
		c-0.01,0.22-0.03,0.44-0.04,0.66c-0.04,0.56-0.08,1.14-0.1,1.71c0,0.19,0,0.39-0.01,0.58c-0.01,0.25-0.01,0.49-0.01,0.74
		c0,0.21,0.02,0.41,0.2,0.53c0.04,0.03,0.08,0.05,0.11,0.07c0.04,0.02,0.07,0.04,0.11,0.07c0.28,0.21,0.49,0.55,0.69,0.86
		c0.23,0.36,0.34,0.82,0.33,1.41c0,0.54-0.09,1.11-0.27,1.81l-0.03,0.12l0.11-0.06c0.19-0.1,0.39-0.18,0.62-0.24l0.03-0.01
		l0.01-0.03c0.17-0.77,0.36-1.92-0.02-2.91c-0.14-0.36-0.37-0.73-0.72-1.14c-0.11-0.13-0.25-0.28-0.44-0.4
		c-0.01-0.03-0.04-0.06-0.07-0.07c-0.01-0.25,0-0.5,0.01-0.75c0.01-0.19,0.01-0.38,0.01-0.56c0.03-0.7,0.07-1.4,0.12-2.08
		c0.04-0.62,0.08-1.26,0.11-1.89c0.05-1.15,0.09-2.18-0.02-3.23c-0.03-0.34-0.09-0.73-0.21-1.11c-0.14-0.41-0.33-0.66-0.59-0.77
		c-0.11-0.05-0.22-0.07-0.31-0.07c-0.69,0-0.72,1.19-0.74,1.76c0,0.06,0,0.11,0,0.15c-0.05,1.16-0.11,2.6-0.58,3.91
		c-0.49-1.22-0.62-2.55-0.68-3.81l-0.01-0.14c-0.01-0.26-0.02-0.53-0.05-0.79c-0.02-0.23-0.06-0.47-0.16-0.69
		C11,2.23,10.79,2.09,10.54,2.09c-0.2,0-0.41,0.09-0.55,0.26c-0.21,0.23-0.3,0.55-0.35,0.8C9.54,3.58,9.51,4.03,9.5,4.41
		C9.46,5.6,9.54,6.8,9.62,7.97l0.06,0.78c0.04,0.59,0.09,1.19,0.11,1.79c0.01,0.3,0.02,0.61,0.02,0.91l0,0.19
		c0,0.11,0,0.22,0.01,0.34c0.01,0.19,0.01,0.38,0.01,0.57c-0.16,0.1-0.32,0.23-0.48,0.42C9,13.37,8.76,13.74,8.62,14.1
		c-0.41,1.01-0.21,2.21-0.02,3.02L8.62,17.18z"/>
	<path class="st0" d="M9.61,19.05l-0.02-0.04l-0.04,0.01c-0.16,0.02-0.32,0.07-0.46,0.13l-0.05,0.02l0.02,0.05
		c0.07,0.2,0.16,0.39,0.24,0.58l0.01,0.02l0.03,0.01c0.21,0.05,0.42,0.13,0.61,0.22l0.15,0.08l-0.08-0.15
		C9.87,19.68,9.73,19.37,9.61,19.05z"/>
	<path class="st0" d="M10.32,20.25l0.03,0.04l0.09,0.07c0.12,0.08,0.25,0.14,0.41,0.18l0.08,0.02l-0.01-0.08
		c-0.03-0.27-0.09-0.64-0.2-1.18l0-0.02l-0.07-0.05c-0.14-0.09-0.3-0.16-0.49-0.2l-0.08-0.02l0.02,0.08
		C10.17,19.41,10.26,19.87,10.32,20.25z"/>
	<path class="st0" d="M14.77,19.77l0.03-0.01l0.01-0.02c0.08-0.18,0.16-0.36,0.23-0.54l0.02-0.05l-0.05-0.02
		c-0.14-0.06-0.29-0.1-0.45-0.12L14.52,19l-0.02,0.04c-0.12,0.3-0.26,0.59-0.4,0.87l-0.08,0.15l0.15-0.07
		C14.37,19.89,14.57,19.82,14.77,19.77z"/>
	<path class="st0" d="M13.74,20.19l0.06,0.02l0.02-0.01l0-0.02c0.06-0.36,0.15-0.79,0.21-1.08l0.02-0.08l-0.08,0.02
		c-0.18,0.04-0.34,0.1-0.48,0.19l-0.06,0.05l0,0.02c-0.1,0.51-0.16,0.85-0.19,1.11l-0.01,0.08l0.08-0.02
		c0.15-0.04,0.28-0.1,0.4-0.17l0.07-0.05L13.74,20.19L13.74,20.19C13.74,20.19,13.74,20.19,13.74,20.19z"/>
</g>
</svg>
