<?xml version="1.0" encoding="utf-8"?>
<!-- Generator: Adobe Illustrator 19.2.1, SVG Export Plug-In . SVG Version: 6.00 Build 0)  -->
<svg version="1.1" id="Layer_2" xmlns="http://www.w3.org/2000/svg" xmlns:xlink="http://www.w3.org/1999/xlink" x="0px" y="0px"
	 viewBox="0 0 24 24" style="enable-background:new 0 0 24 24;" xml:space="preserve">
<style type="text/css">
	.st0{fill:#666666;}
</style>
<g>
	<path class="st0" d="M14.72,3.35c-0.11-0.77-0.77-1.36-1.56-1.36c-0.8,0-1.45,0.59-1.56,1.36c-3.43,0.72-6.01,3.77-6.01,7.4v1.32
		l-1.96,1.68c-0.09,0.08-0.14,0.2-0.13,0.33c0.01,0.07,0.07,0.46,0.58,0.8c0.43,0.29,1.16,0.51,2.39,0.51c0.45,0,0.97-0.03,1.56-0.1
		c0.17,1.37,1.11,6.57,5.39,6.61c0.06,0.01,0.2,0.03,0.39,0.03c0.45,0,1.19-0.11,1.95-0.72c1.65-1.31,2.51-4.16,2.57-8.48
		c1.2,0.43,1.63,1.92,1.65,2c0.05,0.17,0.2,0.28,0.37,0.28c0.02,0,0.03,0,0.05,0c0.19-0.03,0.33-0.19,0.33-0.38v-3.89
		C20.72,7.12,18.14,4.07,14.72,3.35z M13.16,2.75c0.33,0,0.61,0.19,0.74,0.47c-0.12-0.01-0.24-0.02-0.37-0.03
		c-0.07,0-0.14,0-0.21-0.01c-0.05,0-0.11,0-0.16,0c-0.07,0-0.14,0-0.22,0.01c-0.05,0-0.1,0-0.16,0c-0.12,0.01-0.25,0.02-0.37,0.03
		C12.55,2.95,12.83,2.75,13.16,2.75z M13.42,21.15c-3.67-0.04-4.49-4.75-4.64-5.95c1.46-0.22,3.32-0.65,5.69-1.38
		c0.02-0.01,0.04-0.01,0.06-0.02l1.86-0.93c0.01,0.78-0.02,2.23-0.26,3.7C15.83,18.46,15.11,20.78,13.42,21.15z M15.77,20.14
		c1.37-2.34,1.4-6.25,1.37-7.51h0.42C17.51,16.96,16.65,19.1,15.77,20.14z M19.96,13.07c-0.41-0.53-1-1.02-1.85-1.16
		c-0.05-0.03-0.11-0.04-0.17-0.04c-0.03,0-0.06,0.01-0.1,0.01c-0.07,0-0.13-0.01-0.2-0.01h-2.4c-0.21,0-0.38,0.17-0.38,0.38
		c0,0.18,0.12,0.33,0.29,0.37l-0.95,0.47c-6.63,2.04-8.89,1.63-9.64,1.21c-0.1-0.06-0.17-0.11-0.22-0.16l1.76-1.51h7.94
		c0.1,0,0.2-0.04,0.27-0.11l0.3-0.3c0.15-0.15,0.15-0.39,0-0.54c-0.15-0.15-0.39-0.15-0.54,0l-0.19,0.19H6.35v-1.12
		c0-3.37,2.46-6.18,5.69-6.71c0.18-0.03,0.36-0.05,0.53-0.07c0.02,0,0.04,0,0.06,0c0.35-0.03,0.7-0.03,1.05,0c0.02,0,0.04,0,0.06,0
		c0.18,0.02,0.36,0.04,0.53,0.07c3.22,0.54,5.69,3.34,5.69,6.71V13.07z"/>
	<path class="st0" d="M16.62,5.62l-1.2-0.6c-0.19-0.09-0.42-0.02-0.51,0.17c-0.09,0.19-0.02,0.42,0.17,0.51l1.2,0.6
		c0.05,0.03,0.11,0.04,0.17,0.04c0.14,0,0.27-0.08,0.34-0.21C16.89,5.95,16.81,5.72,16.62,5.62z"/>
	<path class="st0" d="M16.32,6.52l-0.6-0.3c-0.19-0.09-0.42-0.02-0.51,0.17c-0.09,0.19-0.02,0.42,0.17,0.51l0.6,0.3
		c0.05,0.03,0.11,0.04,0.17,0.04c0.14,0,0.27-0.08,0.34-0.21C16.59,6.84,16.51,6.62,16.32,6.52z"/>
</g>
</svg>
