<?xml version="1.0" encoding="utf-8"?>
<!-- Generator: Adobe Illustrator 19.2.1, SVG Export Plug-In . SVG Version: 6.00 Build 0)  -->
<svg version="1.1" id="Layer_2" xmlns="http://www.w3.org/2000/svg" xmlns:xlink="http://www.w3.org/1999/xlink" x="0px" y="0px"
	 viewBox="0 0 24 24" style="enable-background:new 0 0 24 24;" xml:space="preserve">
<style type="text/css">
	.st0{fill:#666666;}
</style>
<g>
	<path class="st0" d="M7.63,17.71c-0.7,0-1.28,0.57-1.28,1.27c0,0.7,0.57,1.28,1.28,1.28c0.7,0,1.28-0.57,1.28-1.28
		C8.91,18.28,8.33,17.71,7.63,17.71L7.63,17.71z M7.63,19.58c-0.33,0-0.6-0.27-0.6-0.6c0-0.33,0.27-0.6,0.6-0.6
		c0.33,0,0.6,0.27,0.6,0.6C8.23,19.32,7.96,19.58,7.63,19.58L7.63,19.58z M7.63,19.58"/>
	<path class="st0" d="M17.7,17.22c-0.19,0-0.34,0.15-0.34,0.34c0,1.31-1.06,2.37-2.37,2.37c-0.19,0-0.34,0.15-0.34,0.34
		c0,0.19,0.15,0.34,0.34,0.34c1.68,0,3.04-1.37,3.04-3.05C18.04,17.37,17.89,17.22,17.7,17.22L17.7,17.22z M17.7,17.22"/>
	<path class="st0" d="M9.92,6.05c0.19,0,0.34-0.15,0.34-0.34c0-0.75,0.61-1.35,1.35-1.35c0.19,0,0.34-0.15,0.34-0.34
		c0-0.19-0.15-0.34-0.34-0.34c-1.12,0-2.03,0.91-2.03,2.03C9.58,5.9,9.74,6.05,9.92,6.05L9.92,6.05z M9.92,6.05"/>
	<path class="st0" d="M17.26,7.4h-1.88c0.22-0.48,0.35-1.02,0.35-1.58c0-2.08-1.69-3.78-3.78-3.78c-2.08,0-3.78,1.69-3.78,3.78
		c0,0.56,0.13,1.1,0.35,1.58H6.99c-1.18,0-2.14,0.96-2.14,2.14v10.27c0,1.18,0.96,2.14,2.14,2.14h10.27c1.18,0,2.14-0.96,2.14-2.14
		V9.54C19.39,8.36,18.44,7.4,17.26,7.4L17.26,7.4z M11.95,2.72c1.71,0,3.1,1.39,3.1,3.1c0,0.67-0.21,1.29-0.57,1.79
		c-0.05,0.07-0.1,0.14-0.16,0.2c-0.03,0.04-0.07,0.08-0.11,0.12c-0.04,0.04-0.08,0.09-0.13,0.13c-0.04,0.04-0.08,0.07-0.12,0.11
		c-0.05,0.04-0.1,0.08-0.15,0.12c-0.04,0.03-0.08,0.06-0.12,0.09c-0.09,0.06-0.18,0.12-0.28,0.17c-0.03,0.02-0.06,0.03-0.09,0.04
		c-0.07,0.04-0.15,0.07-0.22,0.1c-0.04,0.01-0.08,0.03-0.12,0.04c-0.06,0.02-0.13,0.04-0.2,0.06c-0.09,0.03-0.19,0.05-0.29,0.07
		c-0.03,0.01-0.06,0.01-0.1,0.02c-0.01,0-0.03,0-0.04,0.01c-0.28,0.04-0.56,0.04-0.84,0c-0.01,0-0.03-0.01-0.04-0.01
		c-0.03-0.01-0.06-0.01-0.1-0.02c-0.1-0.02-0.19-0.04-0.29-0.07c-0.07-0.02-0.13-0.04-0.19-0.06c-0.04-0.01-0.08-0.03-0.12-0.04
		c-0.08-0.03-0.15-0.07-0.22-0.1c-0.03-0.02-0.06-0.03-0.09-0.04c-0.09-0.05-0.18-0.11-0.27-0.17c-0.04-0.03-0.08-0.06-0.12-0.09
		c-0.05-0.04-0.1-0.08-0.15-0.12C9.9,8.14,9.86,8.1,9.82,8.07C9.77,8.02,9.73,7.98,9.69,7.93C9.65,7.9,9.62,7.86,9.58,7.82
		c-0.05-0.06-0.11-0.13-0.16-0.2C9.07,7.11,8.85,6.49,8.85,5.82C8.85,4.11,10.24,2.72,11.95,2.72L11.95,2.72z M11.95,15.58
		c0.74,0,1.35-0.61,1.35-1.35v-2.7c0.91,0.49,1.49,1.45,1.49,2.5c0,1.57-1.28,2.85-2.85,2.85c-1.57,0-2.85-1.28-2.85-2.85
		c0-1.06,0.58-2.01,1.49-2.5v2.7C10.6,14.97,11.21,15.58,11.95,15.58L11.95,15.58z M12.63,10.54v3.69c0,0.37-0.3,0.68-0.68,0.68
		c-0.37,0-0.68-0.3-0.68-0.68V9.54c0.05,0.01,0.1,0.01,0.15,0.02c0.04,0.01,0.07,0.01,0.1,0.01c0.02,0,0.04,0.01,0.06,0.01
		c0.1,0.01,0.21,0.01,0.31,0.02c0.02,0,0.04,0,0.05,0c0.02,0,0.03,0,0.05,0c0.1,0,0.2-0.01,0.31-0.02c0.02,0,0.04,0,0.06-0.01
		c0.03,0,0.07-0.01,0.1-0.01c0.05-0.01,0.1-0.01,0.15-0.02V10.54z M10.6,10.78c-1.31,0.54-2.17,1.82-2.17,3.25
		c0,1.94,1.58,3.53,3.53,3.53c1.94,0,3.52-1.58,3.52-3.53c0-1.43-0.86-2.71-2.17-3.25v-0.43c1.61,0.57,2.71,2.08,2.71,3.82
		c0,2.24-1.82,4.06-4.06,4.06c-2.24,0-4.06-1.82-4.06-4.06c0-1.74,1.09-3.26,2.71-3.82V10.78z M18.72,19.81
		c0,0.81-0.66,1.46-1.46,1.46H6.99c-0.8,0-1.46-0.66-1.46-1.46V9.54c0-0.81,0.66-1.46,1.46-1.46h1.94c0.02,0.03,0.04,0.05,0.07,0.08
		c0.04,0.05,0.09,0.1,0.13,0.15c0.05,0.05,0.09,0.1,0.14,0.15C9.3,8.51,9.35,8.56,9.4,8.6c0.07,0.07,0.15,0.14,0.23,0.2
		C9.7,8.85,9.77,8.91,9.85,8.96C9.9,8.99,9.95,9.02,10,9.05c0.06,0.04,0.13,0.08,0.2,0.11c0.05,0.03,0.1,0.05,0.16,0.08
		c0.07,0.03,0.15,0.07,0.22,0.1c0,0,0.01,0.01,0.02,0.01v0.29c-2,0.6-3.38,2.42-3.38,4.53c0,2.61,2.12,4.74,4.74,4.74
		c2.61,0,4.74-2.12,4.74-4.74c0-2.11-1.38-3.94-3.38-4.53V9.35c0.01,0,0.01-0.01,0.02-0.01c0.08-0.03,0.15-0.06,0.22-0.1
		c0.05-0.02,0.1-0.05,0.16-0.08c0.07-0.03,0.13-0.07,0.2-0.11c0.05-0.03,0.1-0.06,0.15-0.09c0.08-0.05,0.15-0.11,0.22-0.16
		c0.08-0.06,0.16-0.13,0.23-0.2c0.05-0.04,0.1-0.09,0.14-0.13c0.05-0.05,0.09-0.1,0.14-0.15c0.04-0.05,0.09-0.1,0.13-0.16
		c0.02-0.03,0.04-0.05,0.07-0.08h2.28c0.81,0,1.46,0.66,1.46,1.46L18.72,19.81L18.72,19.81z M18.72,19.81"/>
</g>
</svg>
