<?xml version="1.0" encoding="utf-8"?>
<!-- Generator: Adobe Illustrator 19.2.1, SVG Export Plug-In . SVG Version: 6.00 Build 0)  -->
<svg version="1.1" id="Layer_2" xmlns="http://www.w3.org/2000/svg" xmlns:xlink="http://www.w3.org/1999/xlink" x="0px" y="0px"
	 viewBox="0 0 24 24" style="enable-background:new 0 0 24 24;" xml:space="preserve">
<style type="text/css">
	.st0{fill:#666666;}
</style>
<g>
	<path class="st0" d="M20.01,21.32l-2.3-2.31l1.22-1.21c0.09-0.09,0.13-0.22,0.11-0.35c-0.02-0.13-0.11-0.24-0.23-0.29
		c-0.94-0.41-2.01-0.25-2.78,0.4l-3.6-3.6l7.63-7.65c0.09-0.09,0.09-0.23,0-0.32c-0.09-0.09-0.23-0.09-0.32,0l-7.63,7.65L4.48,5.99
		c-0.09-0.09-0.23-0.09-0.32,0c-0.09,0.09-0.09,0.23,0,0.32l7.63,7.65l-3.6,3.6c-0.77-0.65-1.84-0.81-2.78-0.4
		c-0.12,0.05-0.2,0.16-0.23,0.29c-0.02,0.13,0.02,0.26,0.11,0.35l1.22,1.21l-2.3,2.31c-0.15,0.15-0.15,0.4,0,0.55
		c0.08,0.08,0.18,0.11,0.28,0.11c0.1,0,0.2-0.04,0.28-0.12l2.3-2.31l1.22,1.21c0.07,0.07,0.17,0.11,0.28,0.11
		c0.02,0,0.05,0,0.07-0.01c0.13-0.02,0.23-0.11,0.29-0.23c0.41-0.94,0.25-2.01-0.41-2.78l3.59-3.6l3.59,3.6
		c-0.65,0.77-0.82,1.83-0.41,2.78c0.05,0.12,0.16,0.21,0.29,0.23c0.02,0,0.05,0.01,0.07,0.01c0.1,0,0.2-0.04,0.28-0.11l1.22-1.21
		l2.3,2.31c0.08,0.08,0.18,0.12,0.28,0.12c0.1,0,0.2-0.04,0.28-0.11C20.16,21.72,20.16,21.47,20.01,21.32z M8.35,19.73l-2.01-2.01
		c0.54-0.04,1.07,0.15,1.47,0.54C8.21,18.66,8.4,19.19,8.35,19.73z M15.87,19.73c-0.04-0.54,0.15-1.07,0.54-1.47
		c0.36-0.36,0.83-0.55,1.32-0.55c0.05,0,0.1,0,0.15,0.01L15.87,19.73z"/>
	<path class="st0" d="M12.11,9.56c1.6,0,2.91-1.69,2.91-3.77c0-2.08-1.31-3.77-2.91-3.77c-1.6,0-2.91,1.69-2.91,3.77
		C9.2,7.87,10.51,9.56,12.11,9.56z M10.24,4.37l0.23,0v0.78l-0.43,0C10.08,4.87,10.15,4.61,10.24,4.37z M13.99,7.18h-0.24v-0.8h0.44
		C14.15,6.67,14.08,6.93,13.99,7.18z M13.33,8.22h-0.6V7.4h0.8v0.6C13.47,8.09,13.4,8.16,13.33,8.22z M13.53,5.4v0.76h-0.8V5.4
		L13.53,5.4z M12.73,5.17V4.39l0.8,0v0.79L12.73,5.17z M13.53,6.38v0.8h-0.8v-0.8H13.53z M13.75,7.68V7.4h0.14
		C13.85,7.5,13.8,7.59,13.75,7.68z M13.75,6.16V5.41l0.47,0c0.01,0.12,0.02,0.25,0.02,0.38c0,0.13-0.01,0.25-0.02,0.37H13.75z
		 M13.75,5.18V4.39l0.24,0c0.09,0.25,0.16,0.51,0.2,0.79L13.75,5.18z M13.89,4.17l-0.14,0V3.89C13.8,3.98,13.85,4.07,13.89,4.17z
		 M13.53,4.17l-0.8,0V3.37l0.61-0.01c0.06,0.06,0.13,0.14,0.19,0.21V4.17z M12.73,3.15V2.93c0.12,0.05,0.24,0.12,0.36,0.21
		L12.73,3.15z M13.07,8.45c-0.11,0.08-0.22,0.14-0.34,0.2v-0.2H13.07z M12.51,5.39v0.77h-0.8V5.39L12.51,5.39z M11.71,5.16V4.38
		l0.8,0v0.78L11.71,5.16z M12.51,6.38v0.8h-0.8v-0.8H12.51z M12.51,7.4v0.82h-0.8V7.4H12.51z M12.51,4.16l-0.8,0V3.39l0.8-0.02V4.16
		z M11.49,5.38v0.78h-0.79V5.38L11.49,5.38z M10.69,5.15V4.38l0.79,0v0.78L10.69,5.15z M11.49,6.38v0.8h-0.79v-0.8H11.49z
		 M11.49,7.4v0.82h-0.6c-0.07-0.07-0.13-0.14-0.19-0.22V7.4H11.49z M11.49,8.45v0.2c-0.12-0.05-0.23-0.12-0.34-0.2H11.49z
		 M10.82,3.42l0.66-0.02v0.76l-0.79,0V3.57C10.73,3.51,10.78,3.46,10.82,3.42z M11.07,3.19c0.13-0.1,0.27-0.19,0.42-0.25v0.24
		L11.07,3.19z M10.47,3.89v0.26l-0.13,0C10.38,4.06,10.42,3.97,10.47,3.89z M10.47,5.37v0.79H10C9.99,6.04,9.98,5.91,9.98,5.79
		c0-0.14,0.01-0.28,0.02-0.42L10.47,5.37z M10.47,6.38v0.8h-0.24c-0.09-0.25-0.16-0.51-0.2-0.8H10.47z M10.47,7.4v0.28
		c-0.05-0.09-0.1-0.18-0.14-0.28H10.47z M11.71,8.72V8.45h0.8v0.27c-0.13,0.03-0.26,0.05-0.4,0.05C11.97,8.78,11.84,8.76,11.71,8.72
		z M12.51,2.85v0.3l-0.8,0.02V2.85c0.13-0.03,0.26-0.05,0.4-0.05C12.25,2.8,12.38,2.82,12.51,2.85z"/>
</g>
</svg>
