<?xml version="1.0" encoding="utf-8"?>
<!-- Generator: Adobe Illustrator 19.2.1, SVG Export Plug-In . SVG Version: 6.00 Build 0)  -->
<svg version="1.1" id="Layer_2" xmlns="http://www.w3.org/2000/svg" xmlns:xlink="http://www.w3.org/1999/xlink" x="0px" y="0px"
	 viewBox="0 0 24 24" style="enable-background:new 0 0 24 24;" xml:space="preserve">
<style type="text/css">
	.st0{fill:#666666;}
</style>
<g>
	<path class="st0" d="M18.55,9.98l-3.47-1.33c0.51-0.45,1.07-0.89,1.61-1.31c0.72-0.57,1.47-1.16,2.14-1.8
		c0.02-0.02,0.03-0.03,0.05-0.05c0.23-0.32,0.13-0.59,0.07-0.69c-0.23-0.41-0.9-0.63-3.57-0.45l-0.07,0c-0.19-0.37-0.56-0.63-1-0.63
		c-0.46,0-0.85,0.28-1.03,0.68c-0.13,0-0.26,0.01-0.39,0.01C12.3,3.38,9.88,1.98,8.71,2.02c-0.12,0-0.49,0.02-0.67,0.31
		C7.87,2.62,8.01,2.92,8.11,3.14c0,0.01,0.01,0.02,0.01,0.02c-0.08,0-0.2,0-0.37-0.02L7.72,3.12c-1.8-0.91-2.34-0.9-2.63-0.6
		C4.88,2.75,4.88,3.05,5.1,3.44C5.18,3.58,5.36,3.9,5.36,3.98c0,0-0.12,0.12-0.72,0.13C3.31,4.16,2.85,4.3,2.73,4.7
		C2.6,5.12,2.98,5.39,3.36,5.66c0.11,0.08,0.3,0.21,0.39,0.31C3.72,6,3.7,6.03,3.67,6.05c-0.59,0.64-1.57,1.7-0.96,3.98
		c0.01,0.03,0.02,0.05,0.04,0.08c-0.91,2.1-0.94,4.2-0.03,5.94c1.09,2.11,3.41,3.37,6.36,3.47c0.44,0.27,0.78,0.61,1.13,0.96
		c0.74,0.73,1.5,1.49,3.07,1.49c0.06,0,0.13,0,0.2,0c0.12,0,0.24-0.06,0.31-0.16c0.5-0.68,0.17-2.45-0.93-3.84
		c1.4-1.04,1.7-3.44,1.35-4.57c-0.04-0.12-0.13-0.22-0.24-0.26c-0.12-0.04-0.25-0.03-0.35,0.04c-0.28,0.18-0.57,0.34-0.85,0.5
		c-0.95,0.54-1.93,1.09-2.95,2.39c-0.42,0.31-0.66,0.21-0.74,0.18c-0.76-0.3-1.27-2.15-1.4-3c-0.01-0.08-0.05-0.15-0.1-0.21
		c1.46-1.03,4.19-1.25,5.7-1.38c0.16-0.01,0.31-0.02,0.44-0.04c0.54-0.01,1.24,0,1.91,0.01c0.49,0.01,0.99,0.02,1.44,0.02
		c0.18,0,0.36,0,0.52-0.01c0.43,0.02,0.76-0.08,0.98-0.31c0.32-0.33,0.28-0.8,0.26-1.03C18.79,10.16,18.69,10.03,18.55,9.98z
		 M14.29,4.52c0.18,0,0.33,0.15,0.33,0.34S14.47,5.2,14.29,5.2c-0.17,0-0.3-0.14-0.32-0.31c0.01-0.03,0.02-0.07,0.01-0.11
		c0-0.01,0-0.01,0-0.02C14.03,4.63,14.15,4.52,14.29,4.52z M4.26,6.6c0.06-0.06,0.11-0.12,0.17-0.18c0.12-0.14,0.18-0.32,0.16-0.5
		C4.55,5.54,4.18,5.27,3.82,5.01C3.81,5,3.79,4.99,3.78,4.98c0.19-0.02,0.47-0.05,0.89-0.06C5.18,4.9,5.8,4.82,6.05,4.38
		C6.27,4,6.09,3.57,5.89,3.21C6.15,3.28,6.6,3.46,7.36,3.84C7.48,3.9,7.51,3.91,7.58,3.92c0.53,0.07,1.05,0.09,1.29-0.25
		c0.22-0.3,0.08-0.63-0.03-0.85c0.79,0.06,2.37,0.93,3.06,1.64C8.7,4.67,5.64,5.47,3.72,8.33C3.58,8.54,3.46,8.75,3.33,8.95
		C3.24,7.71,3.8,7.1,4.26,6.6z M8.76,16.98c0.35,0.14,0.9,0.19,1.57-0.32c0.03-0.02,0.05-0.04,0.07-0.07
		c0.93-1.2,1.81-1.7,2.74-2.22c0.13-0.07,0.25-0.14,0.38-0.22c0.07,1.11-0.36,2.84-1.46,3.34c-0.12,0.05-0.2,0.16-0.23,0.29
		c-0.02,0.13,0.01,0.26,0.1,0.35c1.06,1.11,1.35,2.5,1.25,3.03c-1.19-0.02-1.74-0.57-2.43-1.25c-0.4-0.4-0.81-0.81-1.38-1.14
		c-0.03-0.01-0.05-0.03-0.08-0.03c-0.02-0.02-0.04-0.04-0.06-0.06c-1.54-1.25-2.92-2.64-2.64-4.25c0.05-0.28,0.16-0.53,0.32-0.76
		C7.08,14.44,7.6,16.52,8.76,16.98z M17.97,10.79c-0.04,0.04-0.15,0.08-0.38,0.06c-0.01,0-0.02,0-0.03,0
		c-0.54,0.01-1.25,0-1.93-0.01c-0.67-0.01-1.37-0.03-1.92-0.01c-1.32-0.25-2.96-1.01-3.47-2.13c-0.29-0.64-0.2-1.38,0.29-2.18
		c0.11-0.19,0.05-0.44-0.14-0.55C10.2,5.85,9.95,5.91,9.84,6.1C9.38,6.87,9.2,7.6,9.3,8.29L5.13,8.92C4.97,8.95,4.85,9.05,4.8,9.2
		C4.76,9.34,4.8,9.5,4.9,9.61c1.22,1.19,1.87,1.67,2.62,1.67c0.49,0,1.03-0.21,1.79-0.55c0.33-0.15,0.71-0.32,1.16-0.5
		c0.38,0.31,0.8,0.57,1.24,0.77c-2.36,0.27-5.49,0.96-5.89,3.28c-0.3,1.7,0.75,3.08,2.11,4.32c-2.08-0.33-3.69-1.36-4.5-2.92
		c-1.02-1.96-0.67-4.47,0.96-6.89c1.98-2.95,5.39-3.49,8.84-3.58C13.37,5.67,13.79,6,14.29,6c0.52,0,0.96-0.36,1.09-0.85l0.04,0
		c1.61-0.11,2.32-0.05,2.63,0.01c-0.58,0.54-1.23,1.05-1.86,1.55c-0.72,0.57-1.47,1.16-2.14,1.8c-0.1,0.1-0.14,0.23-0.11,0.37
		c0.03,0.13,0.12,0.25,0.25,0.29l3.83,1.47C18.01,10.71,17.99,10.76,17.97,10.79z M9.53,9.07c0.09,0.19,0.2,0.37,0.33,0.54
		C9.53,9.75,9.24,9.88,8.99,9.99c-1.44,0.65-1.69,0.76-2.94-0.4L9.53,9.07z"/>
	<path class="st0" d="M21.42,6.69c-0.59-0.5-0.57-0.63-0.52-0.99l0.07-0.5c0.46-0.1,0.83-0.47,0.89-0.96
		c0.04-0.3-0.03-0.61-0.22-0.85c-0.19-0.25-0.46-0.41-0.76-0.45c0,0,0,0,0,0c-0.63-0.09-1.21,0.35-1.3,0.98
		c-0.04,0.3,0.03,0.61,0.22,0.85c0.1,0.14,0.23,0.24,0.38,0.32L20.1,5.6c-0.08,0.56-0.07,0.98,0.8,1.71
		c0.22,0.19,0.33,0.5,0.29,0.82c-0.08,0.55-0.59,0.94-1.14,0.86c-0.27-0.04-0.5-0.18-0.66-0.39c-0.16-0.21-0.23-0.48-0.19-0.75
		c0.02-0.15,0.07-0.28,0.15-0.41c0.02-0.03,0.03-0.06,0.04-0.09l0.26-0.24c0.16-0.15,0.17-0.4,0.02-0.57
		c-0.15-0.16-0.4-0.17-0.57-0.02l-1.18,1.09c-0.16,0.15-0.17,0.4-0.02,0.57c0.08,0.09,0.19,0.13,0.29,0.13
		c0.07,0,0.14-0.03,0.2-0.06c0.04,0.3,0.16,0.58,0.34,0.83c0.29,0.39,0.72,0.64,1.2,0.7c0.08,0.01,0.17,0.02,0.25,0.02
		c0.89,0,1.67-0.66,1.8-1.56C22.07,7.65,21.85,7.06,21.42,6.69z M20.72,3.73c0.02,0,0.03,0,0.05,0c0.09,0.01,0.17,0.06,0.23,0.14
		c0.06,0.07,0.08,0.17,0.07,0.26c-0.03,0.19-0.21,0.33-0.4,0.3c-0.09-0.01-0.17-0.06-0.23-0.14c-0.06-0.07-0.08-0.17-0.07-0.26
		C20.4,3.86,20.55,3.73,20.72,3.73z"/>
</g>
</svg>
