<?xml version="1.0" encoding="utf-8"?>
<!-- Generator: Adobe Illustrator 19.2.1, SVG Export Plug-In . SVG Version: 6.00 Build 0)  -->
<svg version="1.1" id="Layer_2" xmlns="http://www.w3.org/2000/svg" xmlns:xlink="http://www.w3.org/1999/xlink" x="0px" y="0px"
	 viewBox="0 0 24 24" style="enable-background:new 0 0 24 24;" xml:space="preserve">
<style type="text/css">
	.st0{fill:#666666;}
</style>
<g>
	<g>
		<g>
			<g>
				<path class="st0" d="M2.01,17.37V5.92h7.21v11.45H2.01z M2.82,6.73v9.82H8.4V6.73H2.82z"/>
			</g>
		</g>
	</g>
	<g>
		<g>
			<g>
				<path class="st0" d="M8.4,17.37V5.92h7.21v11.45H8.4z M9.21,6.73v9.82h5.58V6.73H9.21z"/>
			</g>
		</g>
	</g>
	<g>
		<g>
			<g>
				<path class="st0" d="M14.79,17.37V5.92h7.21v11.45H14.79z M15.6,6.73v9.82h5.58V6.73H15.6z"/>
			</g>
		</g>
	</g>
	<g>
		<path class="st0" d="M7.34,8.65v0.78l-1.86,5.14H4.31l1.82-4.86V9.7H4.11V8.65H7.34z"/>
	</g>
	<g>
		<path class="st0" d="M13.61,8.65v0.78l-1.86,5.14h-1.17l1.82-4.86V9.7h-2.02V8.65H13.61z"/>
	</g>
	<g>
		<path class="st0" d="M19.89,8.65v0.78l-1.86,5.14h-1.17l1.82-4.86V9.7h-2.02V8.65H19.89z"/>
	</g>
</g>
</svg>
