<?xml version="1.0" encoding="utf-8"?>
<!-- Generator: Adobe Illustrator 19.2.1, SVG Export Plug-In . SVG Version: 6.00 Build 0)  -->
<svg version="1.1" id="Layer_2" xmlns="http://www.w3.org/2000/svg" xmlns:xlink="http://www.w3.org/1999/xlink" x="0px" y="0px"
	 viewBox="0 0 24 24" style="enable-background:new 0 0 24 24;" xml:space="preserve">
<style type="text/css">
	.st0{fill:#666666;}
</style>
<g>
	<path class="st0" d="M11.38,22.02c-1.84,0-3.56-0.67-5.22-2.02c-1.12,0.03-2.15-0.64-2.55-1.71c-0.4-1.06-0.07-2.25,0.79-2.97
		c0.56-3.28,2.31-5.43,5.37-6.58c3.06-1.15,5.8-0.69,8.38,1.4c1.12-0.04,2.15,0.65,2.55,1.71c0.4,1.06,0.07,2.25-0.79,2.96
		c-0.56,3.28-2.31,5.43-5.37,6.58C13.45,21.81,12.4,22.02,11.38,22.02z M6.45,19.08l0.14,0.12c1.5,1.26,3.92,2.76,7.63,1.37
		c3.71-1.4,4.54-4.13,4.84-6.06l0.03-0.19l0.15-0.11c0.65-0.46,0.91-1.3,0.63-2.04c-0.28-0.74-1.03-1.21-1.82-1.12l-0.19,0.02
		l-0.14-0.12c-1.5-1.26-3.92-2.76-7.63-1.37c-3.71,1.4-4.54,4.13-4.84,6.06l-0.03,0.19l-0.15,0.11c-0.65,0.46-0.91,1.3-0.63,2.04
		c0.28,0.74,1.03,1.21,1.82,1.12L6.45,19.08z"/>
	<path class="st0" d="M18.69,9.62L18.33,9.5c-0.1-0.03-2.51-0.87-3.3-2.85l0,0c-0.79-1.98,0.39-4.24,0.44-4.34l0.18-0.34L16,2.1
		c0.1,0.03,2.51,0.87,3.3,2.85c0.79,1.98-0.39,4.24-0.44,4.34L18.69,9.62z M15.86,6.32c0.47,1.19,1.75,1.9,2.39,2.18
		c0.26-0.65,0.7-2.04,0.23-3.23c-0.47-1.18-1.75-1.89-2.39-2.18C15.83,3.75,15.39,5.14,15.86,6.32L15.86,6.32z"/>
	<path class="st0" d="M10.38,11.51c-0.11,0-0.23-0.04-0.31-0.13c-0.17-0.17-0.18-0.46,0-0.63c0.65-0.65,2.04-1.02,3.09-1.04
		c0.02,0,0.04,0,0.05,0c1.09,0,2.14,0.34,2.84,0.93c0.19,0.16,0.21,0.44,0.06,0.63c-0.16,0.19-0.44,0.21-0.63,0.06
		c-0.54-0.45-1.42-0.74-2.31-0.72c-0.96,0.02-2.07,0.37-2.47,0.78C10.61,11.46,10.49,11.51,10.38,11.51z"/>
</g>
</svg>
