<?xml version="1.0" encoding="utf-8"?>
<!-- Generator: Adobe Illustrator 19.2.1, SVG Export Plug-In . SVG Version: 6.00 Build 0)  -->
<svg version="1.1" id="Layer_2" xmlns="http://www.w3.org/2000/svg" xmlns:xlink="http://www.w3.org/1999/xlink" x="0px" y="0px"
	 viewBox="0 0 24 24" style="enable-background:new 0 0 24 24;" xml:space="preserve">
<style type="text/css">
	.st0{fill:#231F20;}
</style>
<g>
	<path class="st0" d="M19.74,18.24c1.38-1.71,2.21-3.89,2.21-6.25c0-0.18-0.01-0.37-0.02-0.55c0,0,0,0,0-0.01
		c-0.1-1.77-0.66-3.42-1.57-4.83c-0.01-0.02-0.02-0.04-0.03-0.05c-1.33-2.04-3.39-3.56-5.8-4.2c0,0,0,0,0,0
		c-0.81-0.22-1.67-0.33-2.55-0.33c-3.49,0-6.57,1.81-8.35,4.53C3.62,6.57,3.61,6.58,3.6,6.6c-0.91,1.41-1.47,3.06-1.57,4.83
		c0,0,0,0,0,0.01c-0.01,0.18-0.02,0.36-0.02,0.55c0,2.37,0.83,4.54,2.21,6.25c0.01,0.02,0.03,0.04,0.04,0.05
		c1.09,1.33,2.51,2.36,4.13,2.99c0.01,0,0.02,0.01,0.03,0.01c1.1,0.42,2.3,0.65,3.55,0.65c1.25,0,2.44-0.23,3.55-0.65
		c0.01,0,0.02-0.01,0.03-0.01c1.62-0.63,3.05-1.67,4.13-2.99C19.72,18.28,19.73,18.26,19.74,18.24z M20.72,12.06l-1.76-2.34
		l0.05-2.93l0.83,0.25c0.81,1.27,1.31,2.75,1.41,4.34L20.72,12.06z M14.26,2.98l0.49,0.72l-2.77,0.95L9.21,3.7l0.49-0.72
		C10.44,2.8,11.2,2.7,11.99,2.7C12.77,2.7,13.53,2.8,14.26,2.98z M4.96,6.79l0.05,2.93l-1.76,2.34l-0.53-0.69
		c0.1-1.59,0.61-3.07,1.41-4.34L4.96,6.79z M4.85,17.92l0.02-0.86l2.8,0.86l1.68,2.4l-0.82,0.29C7.1,20.03,5.83,19.1,4.85,17.92z
		 M9.6,20.96l0.39-0.14c0.16-0.03,0.28-0.16,0.28-0.33c0-0.12-0.06-0.21-0.15-0.28l-1.88-2.68c-0.02-0.09-0.07-0.17-0.15-0.22
		c-0.07-0.05-0.15-0.06-0.22-0.05L4.74,16.3c-0.02-0.02-0.04-0.03-0.06-0.04c0.05-0.08,0.06-0.18,0.03-0.27l-0.02-0.05
		c-0.06-0.18-0.25-0.28-0.43-0.22c-0.18,0.06-0.28,0.25-0.22,0.43l0.02,0.05c0.03,0.09,0.1,0.16,0.18,0.2
		c-0.04,0.06-0.05,0.14-0.04,0.21l-0.01,0.41c-0.86-1.32-1.39-2.87-1.48-4.53l0.25,0.32C3.02,12.93,3.13,13,3.26,13
		C3.3,13,3.33,13,3.37,12.98c0.11-0.04,0.18-0.13,0.22-0.23l1.97-2.62c0.08-0.04,0.14-0.12,0.16-0.21C5.74,9.84,5.72,9.77,5.69,9.7
		L5.64,6.42C5.65,6.4,5.66,6.38,5.66,6.35c0.02,0,0.04,0.01,0.07,0.01c0.07,0,0.14-0.02,0.2-0.07l0.04-0.03
		c0.15-0.11,0.19-0.33,0.07-0.48C5.94,5.63,5.72,5.6,5.57,5.71L5.53,5.74C5.45,5.8,5.4,5.89,5.39,5.98c-0.07-0.01-0.14,0-0.21,0.03
		L4.79,6.13c1.01-1.24,2.34-2.21,3.85-2.8L8.41,3.67C8.3,3.78,8.27,3.96,8.37,4.1c0.07,0.09,0.17,0.14,0.28,0.14
		c0.01,0,0.01,0,0.02,0l3.09,1.06c0.06,0.06,0.14,0.09,0.23,0.09c0.09,0,0.17-0.04,0.23-0.09l3.09-1.06c0.01,0,0.01,0,0.02,0
		c0.11,0,0.21-0.05,0.28-0.14c0.1-0.14,0.08-0.32-0.04-0.43l-0.23-0.34c1.52,0.59,2.84,1.56,3.85,2.8l-0.39-0.12
		c-0.07-0.03-0.14-0.05-0.21-0.03c-0.01-0.09-0.06-0.18-0.14-0.24L18.4,5.71c-0.15-0.11-0.37-0.08-0.48,0.08
		C17.81,5.94,17.85,6.16,18,6.27l0.04,0.03c0.06,0.04,0.13,0.06,0.2,0.06c0.02,0,0.04,0,0.07-0.01c0,0.02,0.01,0.05,0.02,0.07
		L18.28,9.7c-0.03,0.07-0.04,0.14-0.02,0.22c0.02,0.09,0.08,0.17,0.16,0.21l1.97,2.62c0.03,0.1,0.11,0.19,0.22,0.23
		C20.64,13,20.67,13,20.71,13c0.13,0,0.25-0.08,0.3-0.19l0.25-0.32c-0.09,1.67-0.62,3.21-1.48,4.53l-0.01-0.41
		c0.01-0.07,0-0.15-0.04-0.21c0.08-0.04,0.15-0.11,0.18-0.2l0.02-0.05c0.06-0.18-0.04-0.37-0.22-0.43
		c-0.18-0.06-0.37,0.04-0.43,0.22l-0.02,0.05c-0.03,0.09-0.02,0.19,0.03,0.27c-0.02,0.01-0.04,0.03-0.06,0.04l-3.16,0.97
		c-0.09-0.03-0.19-0.02-0.28,0.04c-0.12,0.08-0.17,0.21-0.15,0.34l-1.79,2.56c-0.02,0.01-0.04,0.03-0.06,0.05
		c-0.06-0.07-0.15-0.11-0.25-0.11h-0.05c-0.19,0-0.34,0.15-0.34,0.34c0,0.19,0.15,0.34,0.34,0.34h0.05c0.1,0,0.19-0.04,0.25-0.11
		c0.05,0.05,0.12,0.09,0.19,0.1l0.39,0.14c-0.76,0.2-1.56,0.31-2.39,0.31C11.16,21.27,10.36,21.16,9.6,20.96z M15.43,20.61
		l-0.82-0.29l1.68-2.4l2.8-0.86l0.02,0.86C18.14,19.1,16.87,20.03,15.43,20.61z"/>
	<path class="st0" d="M11.99,6.33c0.19,0,0.34-0.15,0.34-0.34V5.94c0-0.19-0.15-0.34-0.34-0.34s-0.34,0.15-0.34,0.34v0.05
		C11.64,6.17,11.8,6.33,11.99,6.33z"/>
	<path class="st0" d="M11.99,7.11c0.19,0,0.34-0.15,0.34-0.34V6.72c0-0.19-0.15-0.34-0.34-0.34s-0.34,0.15-0.34,0.34v0.05
		C11.64,6.96,11.8,7.11,11.99,7.11z"/>
	<path class="st0" d="M7.2,9.94L7.15,9.92c-0.18-0.05-0.37,0.07-0.41,0.25c-0.05,0.18,0.07,0.37,0.25,0.41l0.05,0.01
		c0.03,0.01,0.06,0.01,0.08,0.01c0.15,0,0.29-0.1,0.33-0.26C7.49,10.17,7.38,9.98,7.2,9.94z"/>
	<path class="st0" d="M6.41,9.74L6.36,9.73C6.18,9.68,5.99,9.8,5.95,9.98c-0.05,0.18,0.07,0.37,0.25,0.41l0.05,0.01
		c0.03,0.01,0.06,0.01,0.08,0.01c0.15,0,0.29-0.1,0.33-0.26C6.71,9.97,6.59,9.79,6.41,9.74z"/>
	<path class="st0" d="M16.59,9.97l-0.05,0.01c-0.18,0.04-0.3,0.23-0.25,0.41c0.04,0.16,0.18,0.26,0.33,0.26c0.03,0,0.05,0,0.08-0.01
		l0.05-0.01c0.18-0.04,0.3-0.23,0.25-0.41C16.96,10.04,16.77,9.93,16.59,9.97z"/>
	<path class="st0" d="M17.4,9.77l-0.05,0.01c-0.18,0.04-0.3,0.23-0.25,0.41c0.04,0.16,0.18,0.26,0.33,0.26c0.03,0,0.05,0,0.08-0.01
		l0.05-0.01c0.18-0.04,0.3-0.23,0.25-0.41C17.77,9.84,17.58,9.73,17.4,9.77z"/>
	<path class="st0" d="M8.76,16.31c-0.16-0.1-0.37-0.06-0.47,0.1l-0.03,0.04c-0.1,0.16-0.06,0.37,0.1,0.47
		c0.06,0.04,0.12,0.06,0.19,0.06c0.11,0,0.22-0.05,0.29-0.15l0.03-0.04C8.96,16.63,8.91,16.42,8.76,16.31z"/>
	<path class="st0" d="M9.22,15.61c-0.16-0.1-0.37-0.06-0.47,0.1l-0.03,0.04c-0.1,0.16-0.06,0.37,0.1,0.47
		c0.06,0.04,0.12,0.06,0.19,0.06c0.11,0,0.22-0.05,0.29-0.15l0.03-0.04C9.42,15.93,9.38,15.71,9.22,15.61z"/>
	<path class="st0" d="M14.33,15.44c0.06,0,0.13-0.02,0.19-0.06c0.12-0.08,0.17-0.23,0.14-0.36l1.42-4.37c0.05-0.14,0-0.3-0.12-0.38
		l-3.77-2.74c-0.12-0.09-0.28-0.09-0.4,0l-3.69,2.68c-0.11,0.03-0.21,0.12-0.24,0.24c-0.03,0.11,0.01,0.21,0.07,0.29l1.35,4.16l0,0
		c-0.1,0.16-0.06,0.37,0.1,0.47c0.06,0.04,0.12,0.06,0.19,0.06c0.1,0,0.19-0.04,0.26-0.12h4.25C14.13,15.39,14.23,15.44,14.33,15.44
		z M11.99,8.23l3.37,2.45l-1.29,3.96H9.9l-1.29-3.96L11.99,8.23z"/>
	<path class="st0" d="M15.6,16.41c-0.1-0.16-0.32-0.2-0.47-0.1c-0.16,0.1-0.2,0.32-0.1,0.47l0.03,0.04c0.07,0.1,0.17,0.15,0.28,0.15
		c0.07,0,0.13-0.02,0.19-0.06c0.16-0.1,0.2-0.32,0.1-0.47L15.6,16.41z"/>
	<path class="st0" d="M15.17,15.75l-0.03-0.04c-0.1-0.16-0.32-0.2-0.47-0.1c-0.16,0.1-0.2,0.32-0.1,0.47l0.03,0.04
		c0.07,0.1,0.17,0.15,0.29,0.15c0.06,0,0.13-0.02,0.19-0.06C15.23,16.12,15.27,15.91,15.17,15.75z"/>
	<path class="st0" d="M6.74,5.28C6.63,5.13,6.42,5.1,6.27,5.21L6.22,5.24C6.07,5.35,6.04,5.56,6.15,5.72
		c0.07,0.09,0.17,0.14,0.28,0.14c0.07,0,0.14-0.02,0.2-0.07l0.04-0.03C6.82,5.65,6.85,5.43,6.74,5.28z"/>
	<path class="st0" d="M6.96,4.7L6.92,4.73C6.76,4.84,6.73,5.06,6.84,5.21C6.91,5.3,7.01,5.35,7.12,5.35c0.07,0,0.14-0.02,0.2-0.07
		l0.04-0.03c0.15-0.11,0.19-0.32,0.08-0.48C7.33,4.62,7.11,4.59,6.96,4.7z"/>
	<path class="st0" d="M8.06,4.75c0.15-0.11,0.19-0.32,0.08-0.48C8.02,4.12,7.81,4.08,7.66,4.2L7.61,4.23
		C7.46,4.34,7.43,4.55,7.54,4.71C7.6,4.8,7.71,4.85,7.81,4.85c0.07,0,0.14-0.02,0.2-0.07L8.06,4.75z"/>
	<path class="st0" d="M17.3,5.76l0.04,0.03c0.06,0.04,0.13,0.07,0.2,0.07c0.11,0,0.21-0.05,0.28-0.14c0.11-0.15,0.08-0.37-0.07-0.48
		l-0.04-0.03c-0.15-0.11-0.37-0.08-0.48,0.07C17.12,5.43,17.15,5.65,17.3,5.76z"/>
	<path class="st0" d="M16.61,5.25l0.04,0.03c0.06,0.04,0.13,0.06,0.2,0.06c0.11,0,0.21-0.05,0.28-0.14
		c0.11-0.15,0.08-0.37-0.08-0.48L17.01,4.7c-0.15-0.11-0.37-0.08-0.48,0.08C16.42,4.93,16.46,5.14,16.61,5.25z"/>
	<path class="st0" d="M15.96,4.78c0.06,0.04,0.13,0.07,0.2,0.07c0.11,0,0.21-0.05,0.28-0.14c0.11-0.15,0.08-0.37-0.08-0.48
		L16.31,4.2c-0.15-0.11-0.37-0.08-0.48,0.08c-0.11,0.15-0.08,0.37,0.08,0.48L15.96,4.78z"/>
	<path class="st0" d="M20.28,13.97c0.03,0.01,0.07,0.02,0.11,0.02c0.14,0,0.28-0.09,0.33-0.24l0.02-0.05
		c0.06-0.18-0.04-0.37-0.22-0.43c-0.18-0.06-0.37,0.04-0.43,0.22l-0.02,0.05C20.01,13.71,20.1,13.91,20.28,13.97z"/>
	<path class="st0" d="M19.75,15.6c0.03,0.01,0.07,0.02,0.11,0.02c0.14,0,0.28-0.09,0.33-0.24l0.02-0.05
		c0.06-0.18-0.04-0.37-0.22-0.43c-0.18-0.06-0.37,0.04-0.43,0.22l-0.02,0.05C19.47,15.35,19.57,15.54,19.75,15.6z"/>
	<path class="st0" d="M20.02,14.78c0.03,0.01,0.07,0.02,0.11,0.02c0.14,0,0.28-0.09,0.33-0.24l0.02-0.05
		c0.06-0.18-0.04-0.37-0.22-0.43c-0.18-0.06-0.37,0.04-0.43,0.22l-0.02,0.05C19.74,14.53,19.84,14.73,20.02,14.78z"/>
	<path class="st0" d="M3.95,14.78c0.18-0.06,0.28-0.25,0.22-0.43L4.16,14.3c-0.06-0.18-0.25-0.28-0.43-0.22
		c-0.18,0.06-0.28,0.25-0.22,0.43l0.02,0.05c0.05,0.14,0.18,0.24,0.33,0.24C3.88,14.8,3.92,14.79,3.95,14.78z"/>
	<path class="st0" d="M3.69,13.97c0.18-0.06,0.28-0.25,0.22-0.43l-0.02-0.05c-0.06-0.18-0.25-0.28-0.43-0.22
		c-0.18,0.06-0.28,0.25-0.22,0.43l0.02,0.05c0.05,0.14,0.18,0.24,0.33,0.24C3.62,13.98,3.65,13.98,3.69,13.97z"/>
	<path class="st0" d="M4.42,15.12c-0.06-0.18-0.25-0.28-0.43-0.22c-0.18,0.06-0.28,0.25-0.22,0.43l0.02,0.05
		c0.05,0.14,0.18,0.24,0.32,0.24c0.04,0,0.07-0.01,0.11-0.02c0.18-0.06,0.28-0.25,0.22-0.43L4.42,15.12z"/>
	<path class="st0" d="M12.68,20.15h-0.05c-0.19,0-0.34,0.15-0.34,0.34c0,0.19,0.15,0.34,0.34,0.34h0.05c0.19,0,0.34-0.15,0.34-0.34
		C13.02,20.3,12.87,20.15,12.68,20.15z"/>
	<path class="st0" d="M10.96,20.15h-0.05c-0.19,0-0.34,0.15-0.34,0.34c0,0.19,0.15,0.34,0.34,0.34h0.05c0.19,0,0.34-0.15,0.34-0.34
		C11.3,20.3,11.15,20.15,10.96,20.15z"/>
	<path class="st0" d="M11.82,20.15h-0.05c-0.19,0-0.34,0.15-0.34,0.34c0,0.19,0.15,0.34,0.34,0.34h0.05c0.19,0,0.34-0.15,0.34-0.34
		C12.16,20.3,12.01,20.15,11.82,20.15z"/>
</g>
</svg>
