<?xml version="1.0" encoding="utf-8"?>
<!-- Generator: Adobe Illustrator 19.2.1, SVG Export Plug-In . SVG Version: 6.00 Build 0)  -->
<svg version="1.1" id="Layer_2" xmlns="http://www.w3.org/2000/svg" xmlns:xlink="http://www.w3.org/1999/xlink" x="0px" y="0px"
	 viewBox="0 0 24 24" style="enable-background:new 0 0 24 24;" xml:space="preserve">
<style type="text/css">
	.st0{fill:#666666;}
</style>
<g>
	<path class="st0" d="M12.08,10.82c1.18,0,2.3-0.46,3.13-1.3c0.84-0.84,1.3-1.95,1.3-3.13s-0.46-2.3-1.3-3.13
		c-0.84-0.84-1.95-1.3-3.13-1.3s-2.3,0.46-3.13,1.3c-0.84,0.84-1.3,1.95-1.3,3.13s0.46,2.3,1.3,3.13
		C9.78,10.35,10.89,10.82,12.08,10.82z M11.27,10.09l-0.6-1.12l0.65-0.99h1.52l0.64,0.99l-0.6,1.12c-0.26,0.06-0.53,0.09-0.8,0.09
		C11.8,10.18,11.53,10.15,11.27,10.09z M8.33,6.94l0.98-1.02l1.01,0.23l0.47,1.46L10.15,8.6L8.84,8.35C8.58,7.92,8.4,7.45,8.33,6.94
		z M15.31,8.37L14,8.6l-0.64-0.99l0.47-1.46l1.01-0.23l0.98,1.03C15.75,7.46,15.57,7.94,15.31,8.37z M13.21,6l-0.43,1.33h-1.4
		L10.94,6l1.13-0.82L13.21,6z M10.09,9.24l0.29,0.54C10.04,9.6,9.73,9.38,9.45,9.11L10.09,9.24z M14.06,9.24l0.64-0.11
		c-0.28,0.27-0.59,0.48-0.92,0.65L14.06,9.24z M15.28,5.47l0.12-0.9c0.25,0.46,0.4,0.96,0.45,1.49L15.28,5.47z M14.66,5.31l-1,0.23
		L12.4,4.62V3.69l1.41-0.68c0.35,0.18,0.67,0.41,0.95,0.69c0.04,0.04,0.07,0.08,0.11,0.12L14.66,5.31z M12.08,3.14l-0.9-0.43
		c0.29-0.07,0.59-0.11,0.9-0.11c0.31,0,0.61,0.04,0.9,0.11L12.08,3.14z M10.35,3.01l1.41,0.68v0.93L10.5,5.54l-1-0.23l-0.2-1.49
		C9.33,3.78,9.36,3.74,9.4,3.7C9.68,3.42,10,3.19,10.35,3.01z M8.87,5.47L8.3,6.05c0.05-0.53,0.2-1.03,0.45-1.48L8.87,5.47z"/>
	<path class="st0" d="M22.07,12.22V4.94c0-0.15-0.16-0.28-0.36-0.28c-0.2,0-0.36,0.13-0.36,0.28v6.92H2.65V4.94
		c0-0.15-0.16-0.28-0.36-0.28c-0.2,0-0.36,0.13-0.36,0.28v7.46c0,0,0,0,0,0v9.28c0,0.2,0.16,0.36,0.36,0.36
		c0.2,0,0.36-0.16,0.36-0.36v-8.62l1.89,1.87v7.08h0.65v-1.17h1.34v1.17h0.65v-1.17h1.41v1.17h0.65v-1.17h1.4v1.17h0.65v-1.17h1.41
		v1.17h0.65v-1.17h1.4v1.17h0.65v-1.17h1.4v1.17h0.65v-1.17h1.34v1.17h0.65v-7.08l1.91-1.88v8.63c0,0.2,0.16,0.36,0.36,0.36
		c0.2,0,0.36-0.16,0.36-0.36L22.07,12.22C22.07,12.22,22.07,12.22,22.07,12.22z M18.79,16.41h-1.34v-1.28h1.34V16.41z M7.18,17.06
		h1.41v1.25H7.18V17.06z M9.24,17.06h1.4v1.25h-1.4V17.06z M11.29,17.06h1.41v1.25h-1.41V17.06z M13.34,17.06h1.4v1.25h-1.4V17.06z
		 M15.39,17.06h1.4v1.25h-1.4V17.06z M16.8,16.41h-1.4v-1.28h1.4V16.41z M14.75,16.41h-1.4v-1.28h1.4V16.41z M12.69,16.41h-1.41
		v-1.28h1.41V16.41z M10.64,16.41h-1.4v-1.28h1.4V16.41z M8.59,16.41H7.18v-1.28h1.41V16.41z M6.53,15.13v1.28H5.19v-1.28H6.53z
		 M6.53,17.06v1.25H5.19v-1.25H6.53z M17.44,18.31v-1.25h1.34v1.25H17.44z M5.19,18.96h1.34v1.24H5.19V18.96z M7.18,18.96h1.41v1.24
		H7.18V18.96z M9.24,18.96h1.4v1.24h-1.4V18.96z M11.29,18.96h1.41v1.24h-1.41V18.96z M13.34,18.96h1.4v1.24h-1.4V18.96z
		 M15.39,18.96h1.4v1.24h-1.4V18.96z M17.44,18.96h1.34v1.24h-1.34V18.96z M18.98,14.48H5l-1.82-1.79H20.8L18.98,14.48z"/>
</g>
</svg>
