<?xml version="1.0" encoding="utf-8"?>
<!-- Generator: Adobe Illustrator 19.2.1, SVG Export Plug-In . SVG Version: 6.00 Build 0)  -->
<svg version="1.1" id="Layer_2" xmlns="http://www.w3.org/2000/svg" xmlns:xlink="http://www.w3.org/1999/xlink" x="0px" y="0px"
	 viewBox="0 0 24 24" style="enable-background:new 0 0 24 24;" xml:space="preserve">
<style type="text/css">
	.st0{fill:#666666;}
</style>
<g>
	<path class="st0" d="M14.06,5.69l-2.34,1.14c0-0.04,0.01-0.09,0.01-0.13c0-2.59-2.1-4.69-4.69-4.69c-2.59,0-4.69,2.11-4.69,4.69
		c0,2.43,1.86,4.44,4.24,4.67c0,0.01-0.01,0.02-0.01,0.02v6.93l7.49,3.65l7.47-3.5V9.06L14.06,5.69z M16.43,16.8v-2.2l1.91-0.9v2.2
		L16.43,16.8z M18.34,16.51v2.87l-1.91,0.87v-2.83L18.34,16.51z M14.11,17.9l-1.67-0.8v-2.2l1.55,0.74c0.01,0,0.02,0.01,0.03,0.01
		c0.03,0.01,0.06,0.02,0.09,0.02c0.03,0,0.05,0,0.08-0.01c0,0,0.01,0,0.01,0c0.01,0,0.02-0.01,0.04-0.01l0.01-0.01
		c0.01,0,0.01-0.01,0.02-0.01l1.62-0.77v2.2L14.11,17.9z M9.98,15.94v-2.2l1.91,0.91v2.2L9.98,15.94z M11.89,17.46v2.82l-1.91-0.94
		v-2.78L11.89,17.46z M11.64,7.84l1.92,0.91L11.61,9.7l-0.74-0.32c0.33-0.47,0.57-1.01,0.71-1.59C11.6,7.81,11.62,7.82,11.64,7.84z
		 M18.91,8.44l-2.36,1.12l-1.72-0.82l2.27-1.12L18.91,8.44z M15.9,9.86l-1.86,0.88l-1.75-0.75l1.91-0.94L15.9,9.86z M18.34,13.09
		l-1.91,0.9v-2.05c0-0.12-0.08-0.22-0.19-0.26l-1.53-0.65l1.83-0.86l1.79,0.85V13.09z M14.12,15.09l-1.68-0.8v-2.18l1.62-0.77
		l1.83,0.78v2.13L14.12,15.09z M9.98,11.13l1.66-0.82l1.74,0.74l-1.34,0.64c-0.01,0.01-0.02,0.02-0.04,0.03
		c-0.02,0.01-0.03,0.02-0.04,0.04c0,0-0.01,0.01-0.01,0.01c-0.02,0.02-0.04,0.05-0.05,0.08c0,0.01,0,0.01,0,0.02
		c-0.01,0.02-0.01,0.05-0.01,0.07v2.09l-1.91-0.91V11.13z M10.52,9.83l0.45,0.19L9.58,10.7c-0.01,0.01-0.02,0.02-0.04,0.03
		c-0.02,0.01-0.03,0.02-0.04,0.04c0,0-0.01,0.01-0.01,0.01c-0.02,0.02-0.04,0.05-0.05,0.08c0,0.01,0,0.01,0,0.02
		c-0.01,0.02-0.01,0.05-0.01,0.07v1.91l-2.32-1.1V11.4C8.46,11.37,9.67,10.77,10.52,9.83z M7.11,12.37l2.32,1.1v2.2l-2.32-1.1V12.37
		z M18.89,13.44l2.16-1.03v2.19l-2.16,1.03V13.44z M21.05,11.8l-2.16,1.03v-1.96c0-0.01,0-0.01,0-0.02v-0.01c0,0,0-0.01,0-0.01
		c0-0.03-0.01-0.06-0.02-0.09c0,0-0.01-0.01-0.01-0.01c-0.01-0.03-0.03-0.05-0.05-0.07c-0.01-0.01-0.01-0.01-0.02-0.01
		c-0.02-0.02-0.03-0.03-0.06-0.04l-1.55-0.73l2.38-1.12l1.48,0.67V11.8z M14.11,6.26l2.34,1.06l-2.26,1.11l-2.3-1.09
		c-0.01,0-0.01,0-0.02,0L14.11,6.26z M2.83,6.71c0-2.31,1.88-4.2,4.2-4.2c2.31,0,4.19,1.88,4.19,4.2c0,1.29-0.58,2.48-1.59,3.29
		c-0.75,0.59-1.65,0.91-2.61,0.91C4.71,10.9,2.83,9.02,2.83,6.71z M7.11,15.19l2.32,1.1v2.77l-2.32-1.15V15.19z M14.03,21.34
		l-1.59-0.79v-2.83l1.55,0.74c0.01,0,0.02,0.01,0.03,0.01c0.03,0.01,0.06,0.02,0.09,0.02c0.04,0,0.08-0.01,0.11-0.02
		c0,0,0.01,0,0.01,0l0.02-0.01c0,0,0,0,0,0l1.62-0.77v2.82L14.03,21.34z M18.89,19.13v-2.88l2.16-1.03v2.93L18.89,19.13z"/>
	<polygon class="st0" points="7.05,7.59 8.34,8.51 7.92,7.02 9.08,6.12 7.61,6.09 7.01,4.57 6.45,6.11 4.98,6.16 6.16,7.05 
		5.77,8.54 	"/>
</g>
</svg>
