<?xml version="1.0" encoding="utf-8"?>
<!-- Generator: Adobe Illustrator 19.2.1, SVG Export Plug-In . SVG Version: 6.00 Build 0)  -->
<svg version="1.1" id="Layer_2" xmlns="http://www.w3.org/2000/svg" xmlns:xlink="http://www.w3.org/1999/xlink" x="0px" y="0px"
	 viewBox="0 0 24 24" style="enable-background:new 0 0 24 24;" xml:space="preserve">
<style type="text/css">
	.st0{fill:#666666;}
</style>
<g>
	<path class="st0" d="M21.92,7.55c-0.08-0.11-0.4-0.18-0.52-0.19l-2.74-0.19l-0.13-0.09c-0.05-0.19-0.21-0.33-0.41-0.36l-0.05,0
		l-0.93-0.31l-1.08-0.18c-0.07-0.04-0.15-0.05-0.24-0.04c-0.05,0.01-0.09,0.02-0.14,0.04c-0.12,0.06-0.2-0.01-0.22,0.12
		c-0.04,0.29-0.07,0.67,0.22,1.18l-0.21,0.47L15.24,8.1c-1.52,0.55-7.1,2.06-8.84,3.7c-0.08-0.02-0.14-0.06-0.19-0.12l-0.42,0.57
		l0,0l0,0c0,0,0,0,0,0l-0.23,0.31c0,0,0,0,0,0l-0.04,0.05c0.09,0.06,0.19,0.12,0.29,0.18L4.1,14.08l-1.2,0.83
		c-0.13,0.1-0.22,0.24-0.25,0.4L2,17.74c-0.02,0.11,0,0.22,0.08,0.3c0.07,0.08,0.17,0.12,0.28,0.1l0.87-0.1
		c0.15-0.02,0.28-0.11,0.34-0.25l0.86-1.86c0-0.01,0.01-0.02,0.02-0.02L5.6,15.3l2.11-0.99c0.12-0.03,0.22-0.15,0.31-0.28
		c0.1-0.09,0.18-0.2,0.22-0.32l0.37-0.56l5.87-1.24c0.01,0,0.02,0,0.03,0.01c0.01,0.01,0.02,0.02,0.02,0.03l3.35,2.21
		c0,0.1,0.04,0.19,0.12,0.25c0.07,0.06,0.17,0.09,0.27,0.08l0.82-0.1c0.17-0.02,0.31-0.71,0.34-0.88c0.01-0.07-0.05-0.13-0.15-0.19
		c-0.41-0.38-2.07-0.87-2.3-2.24c0.01-0.07,0.02-0.13,0.03-0.2l0.61-0.97c0.08-0.36,0.13-0.58,0.15-0.72l3.58-0.41
		c0.2-0.03,0.37-0.18,0.42-0.38l0.22-0.48C22.03,7.81,22,7.66,21.92,7.55z M6.48,12.31l0.1,0l0.07-0.07
		c1.64-1.61,7.35-3.17,8.75-3.67l0.32-0.12c0.06-0.02,0.15-0.08,0.21-0.22l0.3-0.78l-0.07-0.1C15.95,7.03,15.93,7,15.95,6.75
		l1.08,0.19l1.01,0.3l0.13,0.1c0.04,0.16,0.16,0.28,0.32,0.33l0.03,0.01l2.96,0.19l-0.22,0.44l-4.52,0.56
		c-0.07,0.01-0.12,0.05-0.16,0.1c-0.04,0.05-0.05,0.12-0.04,0.19c0.02,0.13,0.14,0.22,0.29,0.21c0,0,0.41-0.07,0.41-0.07
		c-0.09,0.43-0.5,0.47-0.73,1.49l-0.02,0.1c-0.2,0.9,0.4,1.51,1.04,1.98c0.48,0.39,0.99,0.68,1.19,0.92
		c0.03,0.06,0.04,0.11,0.03,0.16l-0.38,0.04l-3.35-2.04c0-0.17-0.08-0.32-0.21-0.42c-0.11-0.09-0.25-0.13-0.39-0.11
		c-0.02,0-0.04,0.01-0.07,0.01l-2.96,0.5l-2.6,0.66l0.13-0.37c0.05-0.13-0.02-0.27-0.15-0.32c-0.04-0.01-0.07-0.02-0.11-0.01
		c-0.1,0.01-0.18,0.08-0.21,0.17l-0.28,0.81c-0.01,0.02-0.02,0.03-0.02,0.05l-0.39,0.64c-0.01,0.02-0.02,0.08-0.03,0.15
		c-0.03,0.03-0.08,0.05-0.12,0.07L4.7,15.29l-0.39,0.14c-0.16,0.04-0.28,0.15-0.35,0.3l-0.84,1.83l-0.57,0.06l0.59-2.19
		c0.01-0.05,0.04-0.09,0.07-0.12l1.25-0.87c0.08-0.07,0.15,0.02,0.16-0.09l1.72-1.42c0-0.02,0-0.03,0-0.05l0.03-0.18l-0.19-0.27
		c-0.07-0.03,0.03-0.07,0.12-0.12L6.48,12.31z"/>
	<polygon class="st0" points="5.77,12.25 5.78,12.26 5.78,12.25 	"/>
</g>
</svg>
