<?xml version="1.0" encoding="utf-8"?>
<!-- Generator: Adobe Illustrator 19.2.1, SVG Export Plug-In . SVG Version: 6.00 Build 0)  -->
<svg version="1.1" id="Layer_2" xmlns="http://www.w3.org/2000/svg" xmlns:xlink="http://www.w3.org/1999/xlink" x="0px" y="0px"
	 viewBox="0 0 24 24" style="enable-background:new 0 0 24 24;" xml:space="preserve">
<style type="text/css">
	.st0{fill:#666666;}
</style>
<path class="st0" d="M21.68,1.99H2.56c-0.22,0-0.4,0.18-0.4,0.4c0,0.22,0.18,0.4,0.4,0.4h3.24v7.9H6.1v3.59
	c-1.93,0.2-3.45,1.84-3.45,3.83c0,2.12,1.73,3.85,3.85,3.85c2.12,0,3.85-1.73,3.85-3.85c0-1.99-1.51-3.63-3.45-3.83v-3.59h0.29v-7.9
	h9.88v7.9h0.29v3.59c-1.93,0.2-3.45,1.84-3.45,3.83c0,2.12,1.73,3.85,3.85,3.85c2.12,0,3.85-1.73,3.85-3.85
	c0-1.99-1.51-3.63-3.45-3.83v-3.59h0.29v-7.9h3.24c0.22,0,0.4-0.18,0.4-0.4C22.08,2.17,21.9,1.99,21.68,1.99z M9.54,18.11
	c0,1.68-1.37,3.05-3.05,3.05c-1.68,0-3.05-1.37-3.05-3.05c0-1.68,1.37-3.05,3.05-3.05C8.18,15.06,9.54,16.43,9.54,18.11z
	 M20.8,18.11c0,1.68-1.37,3.05-3.05,3.05c-1.68,0-3.05-1.37-3.05-3.05c0-1.68,1.37-3.05,3.05-3.05
	C19.43,15.06,20.8,16.43,20.8,18.11z"/>
</svg>
