<?xml version="1.0" encoding="utf-8"?>
<!-- Generator: Adobe Illustrator 19.2.1, SVG Export Plug-In . SVG Version: 6.00 Build 0)  -->
<svg version="1.1" id="Layer_2" xmlns="http://www.w3.org/2000/svg" xmlns:xlink="http://www.w3.org/1999/xlink" x="0px" y="0px"
	 viewBox="0 0 24 24" style="enable-background:new 0 0 24 24;" xml:space="preserve">
<style type="text/css">
	.st0{fill:#666666;}
</style>
<g>
	<g>
		<path class="st0" d="M3.32,5.3v2.24h2.17V5.3h1.32v5.84H5.49V8.69H3.32v2.44H1.99V5.3H3.32z"/>
		<path class="st0" d="M9.29,5.3v5.84H7.97V5.3H9.29z"/>
	</g>
	<g>
		<path class="st0" d="M12.56,12.39h1.33v4.73h2.32v1.11h-3.65V12.39z"/>
		<path class="st0" d="M22.01,15.25c0,1.92-1.16,3.08-2.87,3.08c-1.73,0-2.75-1.31-2.75-2.97c0-1.75,1.12-3.06,2.84-3.06
			C21.03,12.29,22.01,13.63,22.01,15.25z M17.79,15.32c0,1.14,0.54,1.95,1.42,1.95c0.89,0,1.4-0.85,1.4-1.98
			c0-1.05-0.5-1.95-1.41-1.95C18.31,13.34,17.79,14.19,17.79,15.32z"/>
	</g>
	<g>
		<path class="st0" d="M4.84,18.54L15.86,4.56l0.96,0.57L5.8,19.11L4.84,18.54z"/>
	</g>
</g>
</svg>
