<?xml version="1.0" encoding="utf-8"?>
<!-- Generator: Adobe Illustrator 19.2.1, SVG Export Plug-In . SVG Version: 6.00 Build 0)  -->
<svg version="1.1" id="Layer_2" xmlns="http://www.w3.org/2000/svg" xmlns:xlink="http://www.w3.org/1999/xlink" x="0px" y="0px"
	 viewBox="0 0 24 24" style="enable-background:new 0 0 24 24;" xml:space="preserve">
<style type="text/css">
	.st0{fill:#666666;}
</style>
<g>
	<path class="st0" d="M15.68,21.81H8.41v-1.21l0.11-0.13c0.65-0.78,1.21-1.61,1.66-2.48c-0.86,0.46-1.83,0.72-2.77,0.72
		c-2.57,0-4.67-2.09-4.67-4.67c0-2.81,2.49-5.05,5.39-4.61C7.62,8.55,7.33,7.58,7.33,6.67C7.33,4.1,9.43,2,12,2
		c2.57,0,4.67,2.09,4.67,4.67c0,0.95-0.25,1.95-0.7,2.82c0.21-0.02,0.41-0.04,0.62-0.04c2.57,0,4.67,2.09,4.67,4.67
		c0,2.57-2.09,4.67-4.67,4.67c-0.88,0-1.8-0.27-2.63-0.73c0.45,0.85,0.99,1.65,1.62,2.41l0.11,0.13V21.81z M9.39,20.88h5.32
		c-1.03-1.27-1.82-2.67-2.36-4.17l-0.3-0.84l-0.31,0.87C11.2,18.23,10.41,19.62,9.39,20.88z M12.26,15.28l0.87,0.95
		c0.91,0.99,2.26,1.63,3.46,1.63c2.06,0,3.74-1.68,3.74-3.74c0-2.06-1.68-3.74-3.74-3.74c-0.48,0-0.98,0.08-1.47,0.23l-1.45,0.45
		l0.94-1.19c0.7-0.89,1.13-2.09,1.13-3.21c0-2.06-1.68-3.74-3.74-3.74c-2.06,0-3.74,1.68-3.74,3.74C8.26,7.76,8.8,9,9.68,9.92
		l1.55,1.62l-2.06-0.87c-0.58-0.25-1.19-0.38-1.74-0.38c-2.06,0-3.74,1.68-3.74,3.74c0,2.06,1.68,3.74,3.74,3.74
		c1.26,0,2.66-0.59,3.55-1.51l0.9-0.92l0.23-0.24L12.26,15.28z"/>
</g>
</svg>
