<svg id="Isolation_Mode" data-name="Isolation Mode" xmlns="http://www.w3.org/2000/svg" viewBox="0 0 139.99 126.58"><defs><style>.cls-1{fill:#fff;}</style></defs><title>HOME</title><polygon class="cls-1" points="109.76 16.62 109.76 7.59 120.98 7.59 120.98 27.14 109.76 16.62"/><path class="cls-1" d="M3.94,68.61a3.94,3.94,0,0,1-2.63-6.88L70.51,0l68.17,61a3.93,3.93,0,1,1-5.22,5.87l-63-55.35-64,56.1A3.94,3.94,0,0,1,3.94,68.61Z" transform="translate(0.01 0)"/><path class="cls-1" d="M19.61,126.58a3.6,3.6,0,0,1-2.49-1A3.68,3.68,0,0,1,16,123V81.43a3.61,3.61,0,0,1,7.23,0v37.93h94.54V81.43a3.61,3.61,0,1,1,7.23,0V123a4.76,4.76,0,0,1-.16,1.08l-.25.6a3.68,3.68,0,0,1-3.21,1.93Z" transform="translate(0.01 0)"/></svg>