<?xml version="1.0" encoding="utf-8"?>
<!-- Generator: Adobe Illustrator 19.2.1, SVG Export Plug-In . SVG Version: 6.00 Build 0)  -->
<svg version="1.1" id="Layer_2" xmlns="http://www.w3.org/2000/svg" xmlns:xlink="http://www.w3.org/1999/xlink" x="0px" y="0px"
	 viewBox="0 0 24 24" style="enable-background:new 0 0 24 24;" xml:space="preserve">
<style type="text/css">
	.st0{fill:#666666;}
</style>
<g>
	<path class="st0" d="M12,22.01c-4.87,0-8.83-3.96-8.83-8.83c0-2.4,0.95-4.65,2.66-6.32l0.04-0.04L4.25,5.19l0.52-0.52l1.66,1.66
		L6.47,6.3c1.46-1.18,3.23-1.84,5.1-1.93l0.06,0V2.79h-1.62V2.05h3.94v0.74h-1.58v1.57l0.06,0c1.87,0.09,3.64,0.75,5.1,1.93
		l0.04,0.03l1.66-1.66l0.52,0.52l-1.63,1.63l0.04,0.04c1.72,1.68,2.67,3.92,2.67,6.33C20.83,18.05,16.87,22.01,12,22.01z M12,5.1
		c-4.46,0-8.09,3.63-8.09,8.09c0,4.46,3.63,8.09,8.09,8.09c4.46,0,8.09-3.63,8.09-8.09C20.09,8.72,16.46,5.1,12,5.1z"/>
	<path class="st0" d="M12,20c-3.78,0-6.86-3.08-6.86-6.86c0-3.76,3.08-6.82,6.86-6.82c3.78,0,6.86,3.08,6.86,6.86
		C18.86,16.94,15.78,20,12,20z M12,7.06c-3.38,0-6.12,2.75-6.12,6.12c0,3.38,2.75,6.12,6.12,6.12c3.38,0,6.12-2.75,6.12-6.12
		C18.12,9.81,15.38,7.06,12,7.06z"/>
	<polygon class="st0" points="11.63,13.55 11.63,7.9 12.37,7.9 12.37,12.82 15.96,12.82 15.96,13.55 	"/>
</g>
</svg>
