<?xml version="1.0" encoding="utf-8"?>
<!-- Generator: Adobe Illustrator 19.2.1, SVG Export Plug-In . SVG Version: 6.00 Build 0)  -->
<svg version="1.1" id="Layer_2" xmlns="http://www.w3.org/2000/svg" xmlns:xlink="http://www.w3.org/1999/xlink" x="0px" y="0px"
	 viewBox="0 0 24 24" style="enable-background:new 0 0 24 24;" xml:space="preserve">
<style type="text/css">
	.st0{fill:#666666;}
</style>
<g>
	<path class="st0" d="M4.56,20.99h5.66c0.2,0,0.37-0.17,0.37-0.37s-0.17-0.37-0.37-0.37H4.56c-1.01,0-1.83-0.82-1.83-1.83V6.68h2.53
		v1.57c0,0.2,0.17,0.37,0.37,0.37C5.84,8.62,6,8.45,6,8.25V6.68h4.96v1.57c0,0.2,0.17,0.37,0.37,0.37c0.2,0,0.37-0.17,0.37-0.37
		V6.68h2.53v0.83c0,0.2,0.17,0.37,0.37,0.37c0.2,0,0.37-0.17,0.37-0.37V6.31c0-0.2-0.17-0.37-0.37-0.37h-2.9
		c-0.05-1.74-1.47-3.13-3.22-3.13c-1.75,0-3.17,1.4-3.22,3.13H2.36c-0.2,0-0.37,0.17-0.37,0.37v12.11
		C1.99,19.84,3.14,20.99,4.56,20.99L4.56,20.99z M8.48,3.55c1.33,0,2.43,1.06,2.48,2.39H6C6.05,4.62,7.15,3.55,8.48,3.55L8.48,3.55z
		 M8.48,3.55"/>
	<path class="st0" d="M14.11,10.95v0.5h-2.27c-0.2,0-0.37,0.17-0.37,0.37v7.44c0,0.96,0.78,1.74,1.74,1.74h7.07
		c0.96,0,1.74-0.78,1.74-1.74v-7.44c0-0.2-0.17-0.37-0.37-0.37h-2.27v-0.5c0-1.45-1.18-2.63-2.63-2.63
		C15.29,8.32,14.11,9.5,14.11,10.95L14.11,10.95z M21.27,12.19v7.07c0,0.55-0.45,0.99-0.99,0.99h-7.07c-0.55,0-0.99-0.45-0.99-0.99
		v-7.07h1.9v1.04c0,0.2,0.17,0.37,0.37,0.37s0.37-0.17,0.37-0.37v-1.04h3.77v1.04c0,0.2,0.17,0.37,0.37,0.37s0.37-0.17,0.37-0.37
		v-1.04H21.27z M16.74,9.06c1.04,0,1.89,0.85,1.89,1.89v0.5h-3.77v-0.5C14.86,9.91,15.7,9.06,16.74,9.06L16.74,9.06z M16.74,9.06"/>
</g>
</svg>
