<?xml version="1.0" encoding="utf-8"?>
<!-- Generator: Adobe Illustrator 19.2.1, SVG Export Plug-In . SVG Version: 6.00 Build 0)  -->
<svg version="1.1" id="Layer_2" xmlns="http://www.w3.org/2000/svg" xmlns:xlink="http://www.w3.org/1999/xlink" x="0px" y="0px"
	 viewBox="0 0 24 24" style="enable-background:new 0 0 24 24;" xml:space="preserve">
<style type="text/css">
	.st0{fill:#666666;}
</style>
<g>
	<path class="st0" d="M16.05,21.95c-3.15,0-5.71-2.56-5.71-5.71s2.56-5.71,5.71-5.71s5.71,2.56,5.71,5.71S19.2,21.95,16.05,21.95z
		 M16.05,11.46c-2.64,0-4.78,2.14-4.78,4.78c0,2.64,2.14,4.78,4.78,4.78s4.78-2.14,4.78-4.78C20.83,13.6,18.69,11.46,16.05,11.46z"
		/>
	<path class="st0" d="M16.05,20.04c-0.26,0-0.47-0.21-0.47-0.47c0-0.26,0.21-0.47,0.47-0.47c1.58,0,2.87-1.29,2.87-2.87
		c0-0.26,0.21-0.47,0.47-0.47s0.47,0.21,0.47,0.47C19.86,18.33,18.15,20.04,16.05,20.04z"/>
	<path class="st0" d="M7.95,20.04c-0.26,0-0.47-0.21-0.47-0.47c0-0.26,0.21-0.47,0.47-0.47c0.59,0,1.16-0.18,1.64-0.51
		c0.21-0.15,0.5-0.1,0.65,0.12c0.15,0.21,0.1,0.5-0.12,0.65C9.48,19.8,8.73,20.04,7.95,20.04z"/>
	<path class="st0" d="M8,22.06c-3.18,0-5.77-2.59-5.77-5.77S4.82,10.53,8,10.53c1.31,0,2.55,0.43,3.57,1.24
		c0.2,0.16,0.24,0.45,0.08,0.65c-0.16,0.2-0.45,0.24-0.65,0.08c-0.86-0.68-1.9-1.04-2.99-1.04c-2.67,0-4.83,2.17-4.83,4.83
		c0,2.67,2.17,4.83,4.83,4.83c1.06,0,2.06-0.34,2.91-0.97c0.21-0.15,0.5-0.11,0.65,0.09c0.15,0.21,0.11,0.5-0.09,0.65
		C10.46,21.66,9.26,22.06,8,22.06z"/>
	<path class="st0" d="M15.81,14.18C15.81,14.18,15.81,14.18,15.81,14.18c-0.26,0-0.47-0.21-0.47-0.47c0-0.29-0.11-0.72-0.24-1.22
		c-0.25-0.98-0.6-2.33-0.4-3.86c0.14-1.09,0.54-2.14,1.19-3.14c0.14-0.22,0.43-0.28,0.64-0.14C16.76,5.5,16.82,5.78,16.68,6
		c-0.58,0.89-0.92,1.79-1.05,2.75c-0.18,1.36,0.13,2.55,0.38,3.51c0.14,0.56,0.27,1.04,0.27,1.45
		C16.27,13.98,16.07,14.18,15.81,14.18z"/>
	<path class="st0" d="M8.2,13.84c-0.06,0-0.12-0.01-0.18-0.03c-0.24-0.1-0.35-0.37-0.25-0.61c1.79-4.36,4.68-7.02,6.75-7.73
		c1.91-0.65,3.84-0.66,5.26-0.66c0.02,0,0.03,0,0.05,0h0.04c0.26,0,0.47,0.21,0.47,0.47c0,0.26-0.21,0.47-0.47,0.47h-0.05
		c-1.35,0-3.22,0-5,0.61c-2.21,0.76-4.76,3.72-6.19,7.21C8.55,13.73,8.38,13.84,8.2,13.84z"/>
	<path class="st0" d="M9.38,9.18c-0.03,0-0.06,0-0.1-0.01c-2.9-0.61-5.07-2.92-5.16-3.02l-0.28-0.3L4.1,5.54
		c0.12-0.14,2.88-3.48,6.52-3.59c2.12-0.08,4.01,0.98,5.24,1.87c0.21,0.15,0.25,0.44,0.1,0.65c-0.15,0.21-0.44,0.25-0.65,0.1
		c-1.1-0.81-2.81-1.76-4.66-1.69C8.05,2.96,5.86,5.01,5.1,5.81c0.67,0.62,2.35,2.02,4.37,2.45c0.25,0.05,0.41,0.3,0.36,0.55
		C9.79,9.03,9.59,9.18,9.38,9.18z"/>
</g>
</svg>
