<?xml version="1.0" encoding="utf-8"?>
<!-- Generator: Adobe Illustrator 19.2.1, SVG Export Plug-In . SVG Version: 6.00 Build 0)  -->
<svg version="1.1" id="Layer_2" xmlns="http://www.w3.org/2000/svg" xmlns:xlink="http://www.w3.org/1999/xlink" x="0px" y="0px"
	 viewBox="0 0 24 24" style="enable-background:new 0 0 24 24;" xml:space="preserve">
<style type="text/css">
	.st0{fill:#666666;}
</style>
<g>
	<path class="st0" d="M14.24,11.79c0.12,0,0.23-0.05,0.31-0.13l0.28-0.28c0.25-0.25,0.57-0.43,0.93-0.51
		c0.54-0.13,1.13-0.41,1.71-0.81c0.54-0.38,1.16-0.63,1.84-0.74c0.72-0.12,1.36-0.44,1.86-0.93c1.47-1.47,0.72-3.26-0.46-4.45
		c-0.24-0.24-0.5-0.45-0.75-0.63c0,0,0,0-0.01-0.01c0,0-0.01,0-0.01,0c-0.6-0.41-1.24-0.63-1.84-0.63c-0.68,0-1.3,0.27-1.83,0.8
		c-0.5,0.5-0.83,1.16-0.94,1.9c-0.1,0.65-0.32,1.22-0.67,1.7c-0.44,0.61-0.74,1.23-0.88,1.8c-0.08,0.36-0.26,0.68-0.51,0.93
		l-0.28,0.28c-0.09,0.09-0.14,0.22-0.13,0.34L12,11.3l-0.86-0.86c0.01-0.12-0.03-0.25-0.13-0.34l-0.28-0.28
		c-0.25-0.25-0.43-0.57-0.51-0.93c-0.13-0.57-0.44-1.19-0.88-1.8C9,6.61,8.77,6.04,8.68,5.38c-0.11-0.74-0.43-1.4-0.94-1.9
		c-0.53-0.53-1.15-0.8-1.83-0.8c-0.61,0-1.24,0.22-1.84,0.63c0,0-0.01,0-0.01,0c0,0,0,0-0.01,0.01C3.79,3.49,3.53,3.7,3.29,3.94
		C2.11,5.13,1.36,6.92,2.83,8.39C3.32,8.88,3.96,9.2,4.68,9.32c0.68,0.11,1.3,0.36,1.84,0.74c0.58,0.4,1.17,0.69,1.71,0.81
		c0.36,0.08,0.68,0.26,0.93,0.51l0.28,0.28c0.08,0.08,0.2,0.13,0.31,0.13c0.01,0,0.02,0,0.03,0l0.86,0.86l-4.59,4.58
		c-0.08,0.02-0.16,0.05-0.23,0.11l-0.96,0.77c-0.24,0.19-0.32,0.53-0.18,0.81c0.11,0.22,0.26,0.42,0.44,0.6
		c0.18,0.18,0.38,0.33,0.6,0.44c0.09,0.04,0.19,0.07,0.29,0.07c0.2,0,0.39-0.09,0.52-0.25l0.77-0.96c0.06-0.07,0.09-0.15,0.11-0.23
		L12,14l4.58,4.58c0.02,0.08,0.05,0.16,0.11,0.23l0.77,0.96c0.13,0.16,0.32,0.25,0.52,0.25c0.1,0,0.2-0.02,0.3-0.07
		c0.22-0.11,0.42-0.26,0.6-0.44c0.18-0.18,0.33-0.38,0.44-0.6c0.13-0.28,0.06-0.61-0.18-0.81l-0.96-0.77
		c-0.07-0.05-0.15-0.09-0.23-0.11l-4.59-4.59l0.86-0.86C14.22,11.79,14.23,11.79,14.24,11.79z M15.8,9.33
		c-0.09-0.07-0.17-0.15-0.25-0.23c-0.08-0.08-0.16-0.16-0.23-0.25c-0.02-0.02-0.03-0.04-0.05-0.06c0.92-0.78,1.97-1.8,2.1-1.92
		c0.08-0.07,0.15-0.15,0.23-0.23c0.08,0.06,0.15,0.12,0.23,0.2c0.07,0.07,0.14,0.15,0.2,0.23c-0.08,0.08-0.15,0.15-0.23,0.23
		c-0.2,0.2-1.17,1.2-1.92,2.1C15.85,9.36,15.82,9.35,15.8,9.33z M15.1,7.41c0.16-0.22,0.29-0.45,0.4-0.69
		c0.04-0.03,0.08-0.05,0.13-0.08c0.34-0.19,0.65-0.3,0.95-0.32c0.17-0.01,0.33,0.01,0.49,0.05c-0.03,0.03-0.06,0.06-0.09,0.09
		c-0.12,0.12-1.14,1.11-2.04,1.88c-0.01-0.01-0.02-0.02-0.02-0.03c-0.07-0.1-0.13-0.21-0.18-0.32C14.84,7.8,14.96,7.6,15.1,7.41z
		 M19.39,3.62c-0.21,0.3-0.43,0.58-0.65,0.86C18.54,4.31,18.33,4.15,18.12,4c0.17-0.36,0.26-0.61,0.31-0.74
		C18.74,3.31,19.07,3.43,19.39,3.62z M17.65,3.69c-0.14-0.09-0.28-0.17-0.43-0.25c0.2-0.1,0.4-0.17,0.62-0.2
		C17.8,3.36,17.74,3.51,17.65,3.69z M18.4,4.91c-0.02,0.02-0.03,0.04-0.05,0.06c-0.29,0.35-0.57,0.67-0.85,0.97
		c-0.14-0.06-0.29-0.11-0.44-0.14c0.3-0.45,0.57-0.89,0.79-1.31C18.04,4.62,18.22,4.76,18.4,4.91z M19.1,5.55
		c0.09,0.09,0.19,0.19,0.28,0.29c-0.02,0.01-0.03,0.03-0.05,0.04C19,6.14,18.7,6.41,18.42,6.67c-0.06-0.08-0.13-0.16-0.21-0.23
		c-0.08-0.08-0.15-0.14-0.23-0.21c0.26-0.28,0.52-0.58,0.79-0.91c0.01-0.02,0.03-0.03,0.04-0.05C18.91,5.36,19.01,5.45,19.1,5.55z
		 M21.4,6.22c-0.13,0.04-0.38,0.13-0.75,0.31c-0.15-0.21-0.31-0.42-0.48-0.63c0.28-0.22,0.57-0.44,0.86-0.65
		C21.2,5.55,21.34,5.87,21.4,6.22z M21.21,7.43C21.13,7.29,21.05,7.14,20.96,7c0.19-0.09,0.34-0.15,0.45-0.19
		C21.38,7.01,21.32,7.22,21.21,7.43z M20.16,6.79c-0.42,0.23-0.86,0.5-1.31,0.8c-0.03-0.15-0.07-0.29-0.13-0.44
		c0.29-0.28,0.62-0.56,0.97-0.85c0.02-0.02,0.04-0.03,0.06-0.05C19.89,6.43,20.03,6.61,20.16,6.79z M17.16,9.61
		c-0.16,0.12-0.33,0.22-0.49,0.31c-0.11-0.06-0.22-0.12-0.32-0.18c-0.01-0.01-0.02-0.02-0.03-0.02c0.58-0.68,1.35-1.51,1.88-2.05
		c0.03-0.03,0.06-0.06,0.09-0.09c0.04,0.16,0.06,0.32,0.05,0.49c-0.02,0.3-0.13,0.61-0.31,0.94c-0.03,0.06-0.07,0.11-0.1,0.17
		C17.65,9.3,17.4,9.44,17.16,9.61z M19.23,8.78c-0.19,0.03-0.37,0.07-0.55,0.12c0.09-0.22,0.15-0.44,0.18-0.65
		c0.56-0.38,1.09-0.71,1.61-0.99c0.14,0.22,0.27,0.45,0.38,0.67c0,0,0,0,0,0C20.83,7.95,20.81,7.98,20.78,8
		C20.37,8.41,19.83,8.68,19.23,8.78z M20.73,4.8c-0.32,0.23-0.62,0.46-0.92,0.69c-0.1-0.11-0.21-0.22-0.32-0.33
		c-0.11-0.11-0.22-0.21-0.33-0.32c0.23-0.29,0.46-0.6,0.69-0.92c0.16,0.12,0.32,0.26,0.47,0.41C20.42,4.44,20.57,4.6,20.73,4.8z
		 M16.65,3.87c0.02-0.02,0.05-0.04,0.07-0.07c0.23,0.11,0.45,0.24,0.68,0.38c-0.27,0.51-0.61,1.04-0.99,1.6
		c-0.21,0.03-0.42,0.09-0.64,0.18c0.04-0.16,0.08-0.33,0.1-0.5C15.96,4.84,16.23,4.29,16.65,3.87z M13.66,10.21
		c0.32-0.32,0.55-0.74,0.66-1.2c0.03-0.13,0.07-0.27,0.13-0.41c0,0,0,0,0,0.01c0.07,0.11,0.14,0.21,0.22,0.32c0,0,0,0,0,0.01
		c0,0,0,0,0.01,0.01c0.07,0.09,0.14,0.18,0.22,0.27c0.08,0.1,0.17,0.2,0.26,0.29c0.09,0.09,0.19,0.18,0.28,0.26
		c0.09,0.08,0.19,0.16,0.28,0.23c0,0,0,0,0,0c0,0,0,0,0.01,0c0.1,0.08,0.21,0.15,0.31,0.22c0,0,0,0,0.01,0
		c-0.14,0.05-0.28,0.1-0.41,0.13c-0.46,0.11-0.88,0.33-1.2,0.66l-0.22,0.22c-0.1-0.05-0.25-0.16-0.44-0.34
		c-0.19-0.19-0.29-0.34-0.34-0.44L13.66,10.21z M8.19,9.33C8.17,9.35,8.15,9.37,8.13,9.38c-0.59-0.7-1.38-1.55-1.92-2.1
		C6.13,7.21,6.06,7.13,5.98,7.06C6.04,6.98,6.1,6.9,6.18,6.83c0.07-0.07,0.15-0.14,0.23-0.2c0.08,0.08,0.15,0.15,0.23,0.23
		C6.76,6.98,7.81,8,8.73,8.78C8.71,8.81,8.69,8.83,8.67,8.85C8.6,8.94,8.53,9.02,8.45,9.1C8.37,9.18,8.29,9.26,8.19,9.33z
		 M3.84,6.79c0.13-0.18,0.27-0.36,0.42-0.54C4.28,6.27,4.3,6.29,4.32,6.3c0.35,0.29,0.67,0.57,0.97,0.85
		c-0.06,0.14-0.1,0.29-0.13,0.44C4.7,7.29,4.27,7.02,3.84,6.79z M2.59,6.81C2.7,6.85,2.85,6.91,3.04,7
		C2.95,7.14,2.87,7.29,2.79,7.43C2.68,7.22,2.62,7.01,2.59,6.81z M2.6,6.22c0.06-0.35,0.2-0.68,0.36-0.97
		c0.3,0.22,0.59,0.43,0.86,0.65C3.66,6.11,3.5,6.32,3.35,6.53C2.98,6.36,2.73,6.27,2.6,6.22z M4.67,5.88
		C4.65,5.86,4.64,5.85,4.62,5.84C4.71,5.74,4.8,5.64,4.9,5.55c0.09-0.09,0.19-0.19,0.29-0.28C5.2,5.29,5.21,5.3,5.23,5.32
		c0.27,0.33,0.53,0.63,0.79,0.91C5.94,6.29,5.86,6.36,5.79,6.44C5.71,6.51,5.64,6.59,5.58,6.67C5.3,6.41,5,6.14,4.67,5.88z
		 M5.58,3.26C5.62,3.39,5.71,3.64,5.88,4C5.67,4.15,5.46,4.31,5.26,4.48C5.04,4.2,4.82,3.91,4.61,3.62
		C4.93,3.43,5.26,3.31,5.58,3.26z M6.35,3.69C6.26,3.51,6.2,3.36,6.16,3.25c0.22,0.03,0.42,0.1,0.62,0.2
		C6.63,3.52,6.49,3.6,6.35,3.69z M6.14,4.49C6.37,4.91,6.63,5.35,6.93,5.8C6.78,5.83,6.64,5.87,6.5,5.94
		C6.22,5.65,5.94,5.32,5.65,4.97C5.64,4.95,5.62,4.93,5.6,4.91C5.78,4.76,5.96,4.62,6.14,4.49z M9.09,8.31
		C9.08,8.32,9.07,8.33,9.06,8.34c-0.9-0.77-1.92-1.76-2.05-1.88C6.98,6.43,6.95,6.4,6.92,6.37c0.16-0.04,0.32-0.06,0.5-0.05
		c0.29,0.02,0.61,0.13,0.95,0.32C8.41,6.66,8.45,6.69,8.5,6.72c0.11,0.25,0.25,0.48,0.4,0.69C9.04,7.6,9.16,7.8,9.27,7.99
		C9.21,8.1,9.15,8.2,9.09,8.31z M8.13,5.46c0.03,0.17,0.06,0.34,0.1,0.5C8.01,5.87,7.8,5.81,7.59,5.79c-0.39-0.56-0.72-1.1-0.99-1.6
		C6.82,4.04,7.05,3.92,7.28,3.8C7.3,3.83,7.33,3.85,7.35,3.87C7.77,4.29,8.04,4.84,8.13,5.46z M3.68,4.33
		c0.15-0.15,0.31-0.29,0.47-0.41c0.23,0.32,0.46,0.62,0.69,0.92c-0.11,0.1-0.22,0.21-0.33,0.32C4.4,5.27,4.29,5.38,4.19,5.49
		C3.9,5.26,3.59,5.03,3.27,4.8C3.43,4.6,3.58,4.44,3.68,4.33z M3.22,8C3.19,7.98,3.17,7.95,3.15,7.93c0,0,0,0,0,0
		C3.27,7.7,3.39,7.48,3.53,7.25c0.51,0.28,1.05,0.61,1.61,0.99C5.17,8.46,5.23,8.67,5.32,8.9C5.14,8.85,4.96,8.81,4.77,8.78
		C4.17,8.68,3.63,8.41,3.22,8z M6.09,9.18c-0.04-0.05-0.07-0.11-0.1-0.16C5.8,8.68,5.69,8.36,5.67,8.07
		C5.66,7.9,5.68,7.73,5.72,7.58c0.03,0.03,0.06,0.06,0.09,0.09c0.52,0.54,1.3,1.36,1.88,2.05C7.68,9.72,7.67,9.73,7.66,9.74
		C7.56,9.8,7.45,9.86,7.34,9.92C7.17,9.83,7.01,9.73,6.84,9.61C6.6,9.44,6.35,9.3,6.09,9.18z M8.36,10.34
		c-0.13-0.03-0.27-0.08-0.41-0.13c0,0,0,0,0.01,0c0.1-0.07,0.21-0.14,0.31-0.22c0,0,0,0,0.01,0c0,0,0,0,0-0.01
		c0.09-0.07,0.19-0.14,0.27-0.22c0.1-0.08,0.2-0.17,0.29-0.27C8.93,9.4,9.02,9.3,9.1,9.21c0.08-0.09,0.16-0.18,0.23-0.28
		c0,0,0,0,0.01-0.01c0,0,0,0,0-0.01c0.08-0.1,0.15-0.21,0.22-0.32c0,0,0,0,0-0.01c0.05,0.14,0.1,0.28,0.13,0.41
		c0.11,0.46,0.33,0.88,0.66,1.2l0.22,0.22c-0.05,0.1-0.16,0.26-0.34,0.44c-0.19,0.19-0.34,0.29-0.44,0.34l-0.22-0.22
		C9.23,10.67,8.82,10.44,8.36,10.34z M6.96,18.26C6.96,18.26,6.96,18.27,6.96,18.26c-0.02,0.03-0.04,0.05-0.05,0.08
		c0,0.01-0.01,0.01-0.01,0.02c-0.02,0.04-0.03,0.08-0.02,0.12l-0.77,0.96c-0.03,0.04-0.09,0.06-0.13,0.03
		c-0.17-0.08-0.32-0.2-0.46-0.34c-0.14-0.14-0.25-0.29-0.33-0.45c-0.02-0.05-0.01-0.1,0.03-0.14l0.96-0.77c0,0,0.01,0,0.01,0
		c0,0,0,0,0,0c0.01,0,0.01,0,0.01,0c0.07,0,0.13-0.03,0.18-0.08c0,0,0,0,0,0l4.65-4.65l0.57,0.57L6.96,18.26z M18.78,18.54
		c0.04,0.03,0.05,0.09,0.03,0.13c-0.08,0.17-0.2,0.32-0.34,0.46c-0.14,0.14-0.29,0.25-0.45,0.33c-0.05,0.02-0.1,0.01-0.14-0.03
		l-0.77-0.96c0,0,0,0,0-0.01c0-0.02-0.01-0.04-0.01-0.07c0-0.01,0-0.03-0.01-0.04c-0.01-0.01-0.02-0.03-0.02-0.04
		c-0.01-0.02-0.02-0.04-0.03-0.05c0,0,0,0,0-0.01l-4.84-4.84c0,0,0,0,0-0.01c0,0,0,0-0.01,0l-0.95-0.95c0,0,0,0,0-0.01
		c0,0,0,0-0.01,0l-0.92-0.92c0.09-0.07,0.19-0.16,0.3-0.27c0.11-0.11,0.2-0.21,0.27-0.3l6.74,6.74c0,0,0.01,0,0.01,0.01
		c0.01,0.01,0.02,0.01,0.03,0.02c0.02,0.01,0.04,0.03,0.06,0.04c0.02,0.01,0.05,0.01,0.08,0.02c0.01,0,0.01,0,0.02,0c0,0,0,0,0,0
		c0,0,0.01,0,0.01,0L18.78,18.54z M12.39,11.69l0.73-0.73c0.07,0.09,0.16,0.2,0.27,0.3c0.11,0.11,0.21,0.2,0.3,0.27l-0.73,0.73
		L12.39,11.69z"/>
	<path class="st0" d="M12,17.45c-1.07,0-1.94,0.87-1.94,1.94c0,1.07,0.87,1.94,1.94,1.94c1.07,0,1.94-0.87,1.94-1.94
		C13.94,18.32,13.07,17.45,12,17.45z M12,20.77c-0.76,0-1.39-0.62-1.39-1.39c0-0.76,0.62-1.39,1.39-1.39c0.76,0,1.39,0.62,1.39,1.39
		C13.39,20.15,12.76,20.77,12,20.77z"/>
</g>
</svg>
