<?xml version="1.0" encoding="utf-8"?>
<!-- Generator: Adobe Illustrator 19.2.1, SVG Export Plug-In . SVG Version: 6.00 Build 0)  -->
<svg version="1.1" id="Layer_2" xmlns="http://www.w3.org/2000/svg" xmlns:xlink="http://www.w3.org/1999/xlink" x="0px" y="0px"
	 viewBox="0 0 24 24" style="enable-background:new 0 0 24 24;" xml:space="preserve">
<style type="text/css">
	.st0{fill:#666666;}
</style>
<g>
	<path class="st0" d="M8.61,8.67c-0.81,0.86-1.26,1.99-1.26,3.18s0.45,2.31,1.26,3.18l0.53-0.53c-0.67-0.72-1.04-1.66-1.04-2.65
		c0-0.99,0.37-1.92,1.04-2.65L8.61,8.67z"/>
	<path class="st0" d="M9.98,10.03c-0.45,0.5-0.69,1.13-0.69,1.81s0.24,1.31,0.69,1.81l0.57-0.57c-0.29-0.34-0.46-0.78-0.46-1.23
		c0-0.46,0.16-0.89,0.46-1.23L9.98,10.03z"/>
	<circle class="st0" cx="12.02" cy="11.84" r="0.74"/>
	<path class="st0" d="M13.48,10.61c0.29,0.34,0.46,0.78,0.46,1.23s-0.16,0.89-0.46,1.23l0.57,0.57c0.45-0.5,0.69-1.13,0.69-1.81
		s-0.24-1.31-0.69-1.81L13.48,10.61z"/>
	<path class="st0" d="M15.42,8.67L14.89,9.2c0.67,0.72,1.04,1.66,1.04,2.65s-0.37,1.92-1.04,2.65l0.53,0.53
		c0.81-0.86,1.26-1.99,1.26-3.18C16.68,10.65,16.24,9.53,15.42,8.67z"/>
	<path class="st0" d="M11.96,2.02c-5.51,0-9.98,4.48-9.98,9.98c0,5.51,4.48,9.98,9.98,9.98s9.98-4.48,9.98-9.98
		C21.94,6.49,17.46,2.02,11.96,2.02z M11.96,17.82c-3.21,0-5.82-2.61-5.82-5.82c0-3.21,2.61-5.82,5.82-5.82
		c3.21,0,5.82,2.61,5.82,5.82C17.78,15.21,15.17,17.82,11.96,17.82z M16.36,7.01c-1.08-0.95-2.46-1.56-3.98-1.65v-2.5
		c2.21,0.1,4.22,0.99,5.75,2.39L16.36,7.01z M11.54,5.36c-1.52,0.09-2.91,0.7-3.98,1.65L5.79,5.24c1.53-1.4,3.54-2.29,5.75-2.39
		V5.36z M6.97,7.6c-0.95,1.08-1.56,2.46-1.65,3.98h-2.5C2.91,9.37,3.8,7.36,5.2,5.83L6.97,7.6z M5.31,12.42
		c0.09,1.52,0.7,2.91,1.65,3.98L5.2,18.17c-1.4-1.53-2.29-3.54-2.39-5.75H5.31z M7.56,16.99c1.08,0.95,2.46,1.56,3.98,1.65v2.5
		c-2.21-0.1-4.22-0.99-5.75-2.39L7.56,16.99z M12.37,18.64c1.52-0.09,2.91-0.7,3.98-1.65l1.77,1.77c-1.53,1.4-3.54,2.29-5.75,2.39
		V18.64z M16.94,16.4c0.95-1.08,1.56-2.46,1.65-3.98h2.5c-0.1,2.21-0.99,4.22-2.39,5.75L16.94,16.4z M18.6,11.58
		c-0.09-1.52-0.7-2.91-1.65-3.98l1.77-1.77c1.4,1.53,2.29,3.54,2.39,5.75H18.6z"/>
</g>
</svg>
