<?xml version="1.0" encoding="utf-8"?>
<!-- Generator: Adobe Illustrator 19.2.1, SVG Export Plug-In . SVG Version: 6.00 Build 0)  -->
<svg version="1.1" id="Layer_2" xmlns="http://www.w3.org/2000/svg" xmlns:xlink="http://www.w3.org/1999/xlink" x="0px" y="0px"
	 viewBox="0 0 24 24" style="enable-background:new 0 0 24 24;" xml:space="preserve">
<style type="text/css">
	.st0{fill:#666666;}
</style>
<g>
	<path class="st0" d="M16.83,10.99c-0.2,0-0.39,0.01-0.58,0.03c0.71-0.89,1.13-2.01,1.13-3.24c0-2.89-2.35-5.23-5.23-5.23
		S6.91,4.9,6.91,7.78c0,1.15,0.38,2.21,1,3.07c-0.19-0.02-0.39-0.03-0.58-0.03c-2.89,0-5.23,2.35-5.23,5.23s2.35,5.23,5.23,5.23
		c2.07,0,3.86-1.21,4.71-2.97c0.81,1.84,2.65,3.13,4.79,3.13c2.89,0,5.23-2.35,5.23-5.23C22.07,13.33,19.72,10.99,16.83,10.99z
		 M11.6,16.26c-0.11,2.26-1.98,4.07-4.27,4.07c-2.36,0-4.28-1.92-4.28-4.28c0-2.36,1.92-4.28,4.28-4.28c2.34,0,4.25,1.89,4.28,4.23
		c0,0.07-0.01,0.14-0.01,0.21C11.6,16.23,11.6,16.25,11.6,16.26z M12.15,12.06c-2.36,0-4.28-1.92-4.28-4.28
		c0-2.36,1.92-4.28,4.28-4.28s4.28,1.92,4.28,4.28C16.43,10.14,14.51,12.06,12.15,12.06z M12.12,13.95
		c-0.15-0.35-0.34-0.67-0.56-0.97c0.19,0.02,0.39,0.03,0.58,0.03c0.2,0,0.39-0.01,0.58-0.03C12.49,13.28,12.29,13.6,12.12,13.95z
		 M12.57,16c0.11-2.26,1.98-4.06,4.27-4.06c2.36,0,4.28,1.92,4.28,4.28c0,2.36-1.92,4.28-4.28,4.28c-2.34,0-4.25-1.89-4.28-4.23
		c0-0.07,0.01-0.14,0.01-0.22C12.57,16.03,12.57,16.02,12.57,16z"/>
	<polygon class="st0" points="9.85,6.39 9.99,7.02 10.67,6.69 10.68,6.69 10.68,9.52 11.49,9.52 11.49,5.95 10.8,5.95 	"/>
	<path class="st0" d="M13.42,5.89c-0.92,0-1.36,0.82-1.36,1.85c0.01,1.01,0.41,1.84,1.33,1.84c0.91,0,1.36-0.76,1.36-1.86
		C14.75,6.74,14.38,5.89,13.42,5.89z M13.42,8.95c-0.32,0-0.52-0.39-0.52-1.21c-0.01-0.83,0.2-1.22,0.51-1.22
		c0.34,0,0.51,0.42,0.51,1.21C13.92,8.54,13.74,8.95,13.42,8.95z"/>
	<path class="st0" d="M8.15,15.7c-0.25-0.18-0.6-0.26-0.94-0.26c-0.09,0-0.15,0-0.23,0.01l0.08-0.55h1.38v-0.69H6.47l-0.24,1.87
		c0.15-0.02,0.29-0.03,0.48-0.03c0.71,0,1.01,0.23,1.01,0.59c0,0.38-0.37,0.54-0.71,0.54c-0.32,0-0.65-0.1-0.81-0.18l-0.15,0.63
		c0.2,0.1,0.56,0.2,0.99,0.2c0.96,0,1.53-0.59,1.53-1.25C8.58,16.18,8.42,15.88,8.15,15.7z"/>
	<polygon class="st0" points="15.15,15.25 15.16,15.25 15.16,18.07 15.97,18.07 15.97,14.5 15.28,14.5 14.33,14.94 14.47,15.57 	"/>
	<path class="st0" d="M19.12,16.88c0-0.42-0.16-0.71-0.43-0.9c-0.25-0.18-0.6-0.26-0.94-0.26c-0.09,0-0.15,0-0.23,0.01l0.08-0.55
		h1.38V14.5h-1.97l-0.24,1.87c0.15-0.02,0.29-0.03,0.48-0.03c0.71,0,1.01,0.23,1.01,0.59c0,0.38-0.37,0.54-0.71,0.54
		c-0.32,0-0.65-0.1-0.81-0.18l-0.15,0.63c0.2,0.1,0.56,0.2,0.99,0.2C18.55,18.13,19.12,17.55,19.12,16.88z"/>
</g>
</svg>
