<?xml version="1.0" encoding="utf-8"?>
<!-- Generator: Adobe Illustrator 19.2.1, SVG Export Plug-In . SVG Version: 6.00 Build 0)  -->
<svg version="1.1" id="Layer_2" xmlns="http://www.w3.org/2000/svg" xmlns:xlink="http://www.w3.org/1999/xlink" x="0px" y="0px"
	 viewBox="0 0 24 24" style="enable-background:new 0 0 24 24;" xml:space="preserve">
<style type="text/css">
	.st0{fill-rule:evenodd;clip-rule:evenodd;fill:#666666;}
</style>
<path class="st0" d="M19.55,9.54c-0.38,0-0.73,0.1-1.05,0.26l-4.76-4.13c0.15-0.3,0.24-0.63,0.24-0.99c0-1.22-1-2.22-2.22-2.22
	c-1.22,0-2.22,1-2.22,2.22c0,0.4,0.11,0.78,0.3,1.1l-4.7,4.09C4.8,9.67,4.41,9.54,3.98,9.54c-1.22,0-2.22,1-2.22,2.22
	s1,2.22,2.22,2.22c0.15,0,0.3-0.02,0.44-0.04l1.19,3.38c-0.74,0.36-1.25,1.12-1.25,1.99c0,1.22,1,2.22,2.22,2.22
	c1.04,0,1.91-0.72,2.15-1.69h6.31c0.24,0.97,1.11,1.69,2.15,1.69c1.22,0,2.22-1,2.22-2.22c0-0.89-0.53-1.66-1.29-2.01l1.18-3.33
	c0.08,0.01,0.17,0.02,0.25,0.02c1.22,0,2.22-1,2.22-2.22S20.78,9.54,19.55,9.54z M18.11,11.76c0-0.8,0.65-1.45,1.45-1.45
	c0.8,0,1.45,0.65,1.45,1.45c0,0.8-0.65,1.45-1.45,1.45C18.76,13.21,18.11,12.56,18.11,11.76z M10.32,4.68c0-0.8,0.65-1.45,1.45-1.45
	c0.8,0,1.45,0.65,1.45,1.45c0,0.8-0.65,1.45-1.45,1.45C10.97,6.13,10.32,5.48,10.32,4.68z M5.42,11.76c0,0.8-0.65,1.45-1.45,1.45
	s-1.45-0.65-1.45-1.45c0-0.8,0.65-1.45,1.45-1.45S5.42,10.97,5.42,11.76z M8.02,19.32c0,0.8-0.65,1.45-1.45,1.45
	s-1.45-0.65-1.45-1.45c0-0.8,0.65-1.45,1.45-1.45S8.02,18.52,8.02,19.32z M17.19,17.87c0.8,0,1.45,0.65,1.45,1.45
	c0,0.8-0.65,1.45-1.45,1.45c-0.8,0-1.45-0.65-1.45-1.45C15.75,18.52,16.4,17.87,17.19,17.87z M17.49,17.12
	c-0.1-0.01-0.2-0.02-0.3-0.02c-1.13,0-2.07,0.86-2.2,1.96H8.78c-0.13-1.1-1.07-1.96-2.2-1.96c-0.11,0-0.22,0.01-0.33,0.03
	l-1.17-3.43c0.67-0.38,1.12-1.1,1.12-1.93c0-0.55-0.2-1.05-0.53-1.43l4.56-4.05c0.4,0.38,0.94,0.62,1.53,0.62
	c0.64,0,1.22-0.27,1.62-0.71l4.56,4.04c-0.38,0.4-0.61,0.94-0.61,1.53c0,0.89,0.53,1.66,1.29,2.01L17.49,17.12z"/>
</svg>
