<?xml version="1.0" encoding="utf-8"?>
<!-- Generator: Adobe Illustrator 19.2.1, SVG Export Plug-In . SVG Version: 6.00 Build 0)  -->
<svg version="1.1" id="Layer_2" xmlns="http://www.w3.org/2000/svg" xmlns:xlink="http://www.w3.org/1999/xlink" x="0px" y="0px"
	 viewBox="0 0 24 24" style="enable-background:new 0 0 24 24;" xml:space="preserve">
<style type="text/css">
	.st0{fill:#666666;}
</style>
<g>
	<path class="st0" d="M16.02,7.65c0.02,0,0.03,0.01,0.05,0.01c0.13,0,0.24-0.09,0.26-0.21l0.15-0.74l0.31-0.15
		c1.48,0.65,2.73,1.34,2.95,3.16L19.6,9.82c-0.14-0.01-0.28-0.02-0.43-0.02c-0.75,0-1.76,0.17-2.38,0.67
		c-0.06,0.04-0.09,0.11-0.1,0.18c-0.01,0.07,0.01,0.14,0.06,0.19c0.05,0.06,0.13,0.1,0.21,0.1c0.06,0,0.12-0.02,0.17-0.06
		c0.4-0.32,1.25-0.55,2.05-0.55c0.16,0,0.32,0.01,0.47,0.03c0.07,0.01,0.14-0.01,0.19-0.05l0.35-0.26c0.07-0.05,0.11-0.14,0.11-0.24
		c-0.22-2.41-1.98-3.18-3.4-3.8c-0.07-0.03-0.15-0.03-0.22,0l-0.54,0.26C16.05,6.32,16,6.39,15.98,6.47l-0.17,0.87
		C15.78,7.48,15.87,7.62,16.02,7.65z"/>
	<path class="st0" d="M5.53,8.2C5.51,8.27,5.51,8.34,5.55,8.4C5.58,8.46,5.64,8.51,5.7,8.53l3.59,1.11
		c0.08,0.02,0.17,0.03,0.25,0.03c0.28,0,0.54-0.12,0.72-0.34l0.91-1.1c0.09-0.1,0.21-0.16,0.35-0.15L13.8,8.3
		c0.07,0.01,0.14,0.03,0.2,0.07l1.05,0.75c0.09,0.06,0.21,0.06,0.3,0L16,8.69c0.06-0.04,0.1-0.1,0.11-0.17l0.04-0.21
		c0.02-0.08-0.01-0.17-0.07-0.23l-0.75-0.8c-0.05-0.05-0.12-0.08-0.19-0.08h-0.57V6.85h0.96c0.15,0,0.26-0.12,0.26-0.26
		s-0.12-0.26-0.26-0.26h-1.22c-0.15,0-0.26,0.12-0.26,0.26v0.87c0,0.15,0.12,0.26,0.26,0.26h0.72l0.56,0.6l-0.39,0.26l-0.9-0.64
		c-0.13-0.1-0.29-0.15-0.46-0.17l-2.27-0.21c-0.31-0.03-0.61,0.1-0.81,0.33L9.86,9c-0.1,0.12-0.27,0.18-0.42,0.14L5.86,8.02
		C5.73,7.98,5.57,8.06,5.53,8.2z"/>
	<path class="st0" d="M18.78,10.87c-0.69,0-1.38,0.23-1.94,0.65l-0.21-0.18c-0.11-0.09-0.28-0.08-0.37,0.02
		c-0.1,0.11-0.09,0.28,0.02,0.37l0.38,0.33c0.1,0.08,0.25,0.09,0.35,0c0.49-0.43,1.12-0.66,1.77-0.66c1.48,0,2.69,1.21,2.69,2.69
		c0,1.48-1.21,2.69-2.69,2.69c-1.48,0-2.69-1.21-2.69-2.69c0-0.22,0.03-0.44,0.08-0.66c0.01-0.02,0.01-0.05,0.01-0.07
		c0-0.04-0.01-0.08-0.03-0.11c-0.02-0.03-0.04-0.07-0.07-0.09c-0.02-0.02-0.04-0.03-0.07-0.04l-0.42-0.17
		c0.05-0.14,0.11-0.26,0.18-0.34c0.04-0.06,0.06-0.12,0.06-0.19c-0.01-0.07-0.04-0.13-0.1-0.18c-0.11-0.09-0.28-0.07-0.37,0.04
		c-0.45,0.56-0.61,1.86-0.38,2.97h-4.52c-0.28,0-0.55-0.12-0.74-0.34c-0.32-0.37-0.33-1.66-0.24-2.45c0.02-0.14-0.09-0.28-0.23-0.29
		c-0.14-0.02-0.28,0.09-0.29,0.23c-0.01,0.06-0.03,0.24-0.04,0.48l-0.92,0.4c-0.11,0.05-0.18,0.17-0.16,0.29
		c0.03,0.17,0.05,0.35,0.05,0.52c0,1.48-1.21,2.69-2.69,2.69c-1.48,0-2.69-1.21-2.69-2.69c0-1.48,1.21-2.69,2.69-2.69
		c0.63,0,1.25,0.22,1.73,0.63l-0.17,0.14c-0.05,0.04-0.09,0.11-0.1,0.18c-0.01,0.07,0.01,0.14,0.06,0.19
		c0.09,0.11,0.26,0.13,0.37,0.04l1.24-1.01c0.06-0.05,0.1-0.13,0.1-0.22c0-0.08-0.05-0.16-0.12-0.21L2.88,7.56V7.48l3.3-0.01
		L6.14,7.65C6.1,7.79,6.18,7.93,6.32,7.97c0.14,0.04,0.29-0.05,0.32-0.19L6.7,7.6c0.04-0.16,0.01-0.33-0.09-0.46
		c-0.1-0.13-0.26-0.2-0.42-0.2l-3.4,0.02c-0.24,0-0.43,0.2-0.43,0.43v0.22c0,0.15,0.07,0.28,0.2,0.36l5.17,3.41l-0.37,0.3
		C6.76,11.16,6,10.87,5.21,10.87c-1.78,0-3.22,1.45-3.22,3.22s1.45,3.22,3.22,3.22c1.78,0,3.22-1.45,3.22-3.22
		c0-0.14-0.01-0.27-0.03-0.41l0.5-0.22c0,0.61,0.08,1.4,0.42,1.8c0.29,0.33,0.7,0.52,1.14,0.52h4.86c0.08,0,0.16-0.04,0.21-0.11
		c0.05-0.07,0.07-0.15,0.04-0.23c-0.18-0.6-0.22-1.34-0.11-1.98l0.15,0.06c-0.03,0.19-0.05,0.38-0.05,0.57
		c0,1.78,1.45,3.22,3.22,3.22c1.78,0,3.22-1.45,3.22-3.22S20.56,10.87,18.78,10.87z"/>
	<path class="st0" d="M17.34,13.61c-0.13-0.06-0.29,0-0.35,0.13c-0.06,0.13,0,0.29,0.13,0.35l0.04,0.02
		c0.01,0.89,0.74,1.62,1.63,1.62c0.9,0,1.63-0.73,1.63-1.63c0-0.9-0.73-1.63-1.63-1.63c-0.24,0-0.47,0.05-0.69,0.15
		c-0.03,0.01-0.06,0.03-0.08,0.06l-0.28-0.21c-0.11-0.09-0.29-0.06-0.37,0.05c-0.09,0.12-0.07,0.28,0.05,0.37l1.26,0.96l-0.19,0.3
		L17.34,13.61z M18.89,14.49l0.28-0.44c0.12-0.19,0.08-0.42-0.09-0.57l-0.59-0.45c0.1-0.03,0.2-0.04,0.3-0.04
		c0.61,0,1.1,0.5,1.1,1.11c0,0.61-0.5,1.11-1.1,1.11c-0.51,0-0.95-0.34-1.07-0.83l0.64,0.29C18.55,14.74,18.78,14.66,18.89,14.49z"
		/>
	<path class="st0" d="M5.21,12.98c0.15,0,0.26-0.12,0.26-0.26s-0.12-0.26-0.26-0.26c-0.9,0-1.63,0.73-1.63,1.63
		c0,0.9,0.73,1.63,1.63,1.63c0.86,0,1.57-0.67,1.63-1.53c0.01-0.09-0.04-0.18-0.11-0.23c-0.08-0.05-0.17-0.06-0.26-0.03L5.8,14.22
		L5.48,13.7L6.4,13c0.06-0.04,0.09-0.11,0.1-0.18c0.01-0.07-0.01-0.14-0.05-0.2c-0.09-0.11-0.26-0.14-0.37-0.05l-0.98,0.75
		c-0.18,0.13-0.22,0.37-0.11,0.56l0.4,0.68c0.11,0.18,0.35,0.26,0.54,0.18l0.24-0.1c-0.2,0.34-0.56,0.55-0.95,0.55
		c-0.61,0-1.11-0.5-1.11-1.11C4.11,13.48,4.6,12.98,5.21,12.98z"/>
</g>
</svg>
