<?xml version="1.0" encoding="utf-8"?>
<!-- Generator: Adobe Illustrator 19.2.1, SVG Export Plug-In . SVG Version: 6.00 Build 0)  -->
<svg version="1.1" id="Layer_2" xmlns="http://www.w3.org/2000/svg" xmlns:xlink="http://www.w3.org/1999/xlink" x="0px" y="0px"
	 viewBox="0 0 24 24" style="enable-background:new 0 0 24 24;" xml:space="preserve">
<style type="text/css">
	.st0{fill:#666666;}
</style>
<g>
	<path class="st0" d="M19.98,8.37h-0.87c-0.73,0-1.41-0.4-1.77-1.05l0,0c-0.17-0.31-0.26-0.64-0.26-0.98V5.48
		c0-1.12,0.91-2.03,2.03-2.03h0.87c1.12,0,2.03,0.91,2.03,2.03v0.87C22.01,7.46,21.1,8.37,19.98,8.37z M19.11,4.31
		c-0.64,0-1.17,0.52-1.17,1.17v0.87c0,0.19,0.05,0.38,0.15,0.56l0,0c0.21,0.38,0.6,0.61,1.01,0.61h0.87c0.64,0,1.17-0.52,1.17-1.17
		V5.48c0-0.64-0.52-1.17-1.17-1.17H19.11z"/>
	<path class="st0" d="M19.98,14.32h-0.87c-0.73,0-1.41-0.4-1.77-1.05l0.76-0.42c0.21,0.37,0.6,0.61,1.01,0.61h0.87
		c0.64,0,1.17-0.52,1.17-1.17v-0.87c0-0.64-0.52-1.17-1.17-1.17h-0.87c-0.4,0-0.77,0.21-0.99,0.56l-0.74-0.45
		c0.38-0.61,1.02-0.98,1.73-0.98h0.87c1.12,0,2.03,0.91,2.03,2.03v0.87C22.01,13.41,21.1,14.32,19.98,14.32z"/>
	<path class="st0" d="M17.34,13.27c-0.17-0.31-0.26-0.64-0.26-0.98v-0.87c0-0.37,0.1-0.73,0.3-1.06l0.74,0.45
		c-0.12,0.19-0.18,0.39-0.18,0.6v0.87c0,0.19,0.05,0.38,0.15,0.56L17.34,13.27z"/>
	<path class="st0" d="M19.98,20.27h-0.87c-1.12,0-2.03-0.91-2.03-2.03v-0.87c0-0.34,0.09-0.67,0.26-0.98
		c0.36-0.65,1.04-1.05,1.77-1.05h0.87c1.12,0,2.03,0.91,2.03,2.03v0.87C22.01,19.36,21.1,20.27,19.98,20.27z M19.11,16.21
		c-0.42,0-0.81,0.23-1.01,0.61l0,0c-0.1,0.18-0.15,0.37-0.15,0.56v0.87c0,0.64,0.52,1.17,1.17,1.17h0.87c0.64,0,1.17-0.52,1.17-1.17
		v-0.87c0-0.64-0.52-1.17-1.17-1.17H19.11z"/>
	<path class="st0" d="M4.89,8.37H4.02c-1.12,0-2.03-0.91-2.03-2.03V5.48c0-1.12,0.91-2.03,2.03-2.03h0.87
		c1.12,0,2.03,0.91,2.03,2.03v0.87c0,0.33-0.09,0.66-0.25,0.97l0,0C6.31,7.96,5.62,8.37,4.89,8.37z M4.02,4.31
		c-0.64,0-1.17,0.52-1.17,1.17v0.87c0,0.64,0.52,1.17,1.17,1.17h0.87c0.42,0,0.81-0.24,1.02-0.62l0,0C6,6.71,6.05,6.53,6.05,6.34
		V5.48c0-0.64-0.52-1.17-1.17-1.17H4.02z"/>
	<path class="st0" d="M6.66,13.27L5.9,12.85c0.1-0.18,0.15-0.37,0.15-0.56v-0.87c0-0.19-0.05-0.38-0.15-0.56l0.76-0.42
		c0.17,0.31,0.26,0.64,0.26,0.98v0.87C6.92,12.63,6.83,12.96,6.66,13.27z"/>
	<path class="st0" d="M4.89,14.32H4.02c-1.12,0-2.03-0.91-2.03-2.03v-0.87c0-1.12,0.91-2.03,2.03-2.03h0.87
		c0.73,0,1.41,0.4,1.77,1.05L5.9,10.87c-0.21-0.38-0.6-0.61-1.01-0.61H4.02c-0.64,0-1.17,0.52-1.17,1.17v0.87
		c0,0.64,0.52,1.17,1.17,1.17h0.87c0.42,0,0.81-0.23,1.01-0.61l0.76,0.42C6.3,13.92,5.62,14.32,4.89,14.32z"/>
	<path class="st0" d="M4.89,20.27H4.02c-1.12,0-2.03-0.91-2.03-2.03v-0.87c0-1.12,0.91-2.03,2.03-2.03h0.87
		c0.73,0,1.41,0.4,1.77,1.05l0,0c0.17,0.31,0.26,0.64,0.26,0.98v0.87C6.92,19.36,6.01,20.27,4.89,20.27z M4.02,16.21
		c-0.64,0-1.17,0.52-1.17,1.17v0.87c0,0.64,0.52,1.17,1.17,1.17h0.87c0.64,0,1.17-0.52,1.17-1.17v-0.87C6.05,17.18,6,17,5.9,16.81
		c-0.21-0.37-0.6-0.61-1.01-0.61H4.02z"/>
	
		<rect x="14.14" y="10.83" transform="matrix(0.7476 -0.6641 0.6641 0.7476 -6.4255 13.5163)" class="st0" width="0.86" height="8.77"/>
	
		<rect x="4.99" y="14.78" transform="matrix(0.6642 -0.7476 0.7476 0.6642 -8.222 12.1211)" class="st0" width="8.77" height="0.86"/>
	
		<rect x="10.19" y="8.65" transform="matrix(0.6642 -0.7476 0.7476 0.6642 -1.8936 13.9415)" class="st0" width="8.77" height="0.86"/>
	
		<rect x="8.95" y="4.69" transform="matrix(0.7476 -0.6641 0.6641 0.7476 -3.6617 8.5213)" class="st0" width="0.86" height="8.77"/>
	
		<rect x="11.29" y="6.48" transform="matrix(3.877511e-03 -1 1 3.877511e-03 -0.3504 23.7125)" class="st0" width="0.86" height="11.1"/>
</g>
</svg>
