<?xml version="1.0" encoding="utf-8"?>
<!-- Generator: Adobe Illustrator 19.2.1, SVG Export Plug-In . SVG Version: 6.00 Build 0)  -->
<svg version="1.1" id="Layer_2" xmlns="http://www.w3.org/2000/svg" xmlns:xlink="http://www.w3.org/1999/xlink" x="0px" y="0px"
	 viewBox="0 0 24 24" style="enable-background:new 0 0 24 24;" xml:space="preserve">
<style type="text/css">
	.st0{fill:#666666;}
</style>
<g>
	<g>
		<path class="st0" d="M6.1,21.85c-0.84,0-1.64-0.25-2.25-0.69c-0.64-0.47-0.99-1.11-0.99-1.8c0-0.69,0.35-1.33,0.99-1.8
			c0.61-0.45,1.4-0.69,2.24-0.69c0.79,0,1.55,0.22,2.14,0.62l0.22,0.15V6.12c0-0.19,0.12-0.35,0.31-0.41l11.7-3.65
			c0.04-0.01,0.09-0.02,0.13-0.02c0.09,0,0.19,0.03,0.27,0.09c0.11,0.08,0.18,0.21,0.18,0.35v13.21c0,0.69-0.35,1.33-0.99,1.81
			c-0.61,0.45-1.41,0.69-2.24,0.69c-0.84,0-1.64-0.25-2.25-0.69c-0.64-0.47-0.99-1.11-0.99-1.8c0-0.69,0.35-1.33,0.99-1.8
			c0.61-0.45,1.4-0.69,2.24-0.69c0.79,0,1.55,0.22,2.14,0.62l0.22,0.15V6.92L9.34,10.29v9.06c0,0.69-0.35,1.33-0.99,1.81
			C7.74,21.6,6.94,21.85,6.1,21.85z M6.1,17.71c-1.28,0-2.36,0.75-2.36,1.64s1.08,1.64,2.36,1.64c1.28,0,2.36-0.75,2.36-1.64
			S7.38,17.71,6.1,17.71z M17.8,14.05c-1.28,0-2.36,0.75-2.36,1.64s1.08,1.64,2.36,1.64c1.27,0,2.35-0.75,2.36-1.63
			C20.16,14.8,19.08,14.05,17.8,14.05z M9.34,6.43v2.96l10.82-3.37V3.06L9.34,6.43z"/>
	</g>
</g>
</svg>
