<?xml version="1.0" encoding="utf-8"?>
<!-- Generator: Adobe Illustrator 19.2.1, SVG Export Plug-In . SVG Version: 6.00 Build 0)  -->
<svg version="1.1" id="Layer_2" xmlns="http://www.w3.org/2000/svg" xmlns:xlink="http://www.w3.org/1999/xlink" x="0px" y="0px"
	 viewBox="0 0 24 24" style="enable-background:new 0 0 24 24;" xml:space="preserve">
<style type="text/css">
	.st0{fill:#666666;}
</style>
<g>
	<path class="st0" d="M17.66,21.5c-0.13,0-0.27-0.03-0.39-0.09l-5.25-2.64l-5.25,2.62c-0.3,0.15-0.65,0.12-0.92-0.09
		c-0.27-0.2-0.39-0.53-0.33-0.86L6.6,14.9l-4.31-4.28c-0.24-0.24-0.32-0.59-0.21-0.91c0.12-0.32,0.4-0.54,0.74-0.57l5.85-0.52
		l2.56-5.6c0.14-0.31,0.45-0.51,0.79-0.51c0.35,0,0.65,0.2,0.79,0.51l2.56,5.6l5.85,0.52c0.34,0.03,0.63,0.25,0.74,0.57
		c0.12,0.32,0.04,0.67-0.21,0.92l-4.31,4.28l1.08,5.56c0.06,0.33-0.06,0.66-0.33,0.86C18.03,21.44,17.84,21.5,17.66,21.5z
		 M12.02,17.92c0.06,0,0.12,0.01,0.18,0.04l5.43,2.73c0.01,0,0.04,0.02,0.07-0.01c0.03-0.03,0.03-0.06,0.03-0.07l-1.12-5.77
		c-0.03-0.13,0.02-0.27,0.11-0.36l4.47-4.43c0.01-0.01,0.03-0.03,0.02-0.07c-0.02-0.04-0.05-0.04-0.06-0.05l-6.08-0.54
		c-0.14-0.01-0.27-0.1-0.33-0.23l-2.65-5.82l0,0c0-0.01-0.02-0.04-0.06-0.04c-0.04,0-0.06,0.03-0.06,0.04L9.3,9.16
		C9.24,9.29,9.12,9.38,8.97,9.39L2.89,9.93c-0.01,0-0.04,0-0.06,0.05c-0.01,0.04,0.01,0.06,0.02,0.07l4.47,4.43
		c0.1,0.09,0.14,0.23,0.11,0.36l-1.12,5.75c0,0.01-0.01,0.04,0.03,0.07c0.03,0.03,0.06,0.01,0.07,0.01l5.43-2.71
		C11.89,17.94,11.95,17.92,12.02,17.92z"/>
	<path class="st0" d="M10.6,9.94c-0.05,0-0.11-0.01-0.16-0.03c-0.2-0.09-0.3-0.32-0.21-0.53l1.41-3.3c0.09-0.2,0.32-0.3,0.53-0.21
		c0.2,0.09,0.3,0.32,0.21,0.53l-1.41,3.3C10.91,9.85,10.76,9.94,10.6,9.94z"/>
</g>
<g>
	<path class="st0" d="M8.19,14.68v-2.53h0.67l0.52,0.93c0.15,0.27,0.3,0.58,0.41,0.87h0.01c-0.04-0.33-0.05-0.67-0.05-1.05v-0.74
		h0.52v2.53h-0.6l-0.54-0.98c-0.15-0.27-0.32-0.6-0.44-0.89l-0.01,0c0.01,0.33,0.02,0.69,0.02,1.1v0.76H8.19z"/>
	<path class="st0" d="M12.28,13.61h-0.93v0.6h1.04v0.47h-1.61v-2.53h1.56v0.47h-0.99v0.52h0.93V13.61z"/>
	<path class="st0" d="M13.21,14.68l-0.6-2.53h0.61l0.19,1.04c0.06,0.3,0.11,0.63,0.15,0.88h0.01c0.04-0.27,0.1-0.58,0.17-0.89
		l0.21-1.03h0.61l0.2,1.06c0.06,0.3,0.1,0.57,0.14,0.85h0.01c0.04-0.28,0.09-0.58,0.15-0.88l0.21-1.03h0.58l-0.65,2.53h-0.62
		l-0.21-1.09c-0.05-0.25-0.09-0.49-0.12-0.78h-0.01c-0.04,0.28-0.09,0.52-0.15,0.78l-0.24,1.09H13.21z"/>
</g>
</svg>
