<?xml version="1.0" encoding="utf-8"?>
<!-- Generator: Adobe Illustrator 19.2.1, SVG Export Plug-In . SVG Version: 6.00 Build 0)  -->
<svg version="1.1" id="Layer_2" xmlns="http://www.w3.org/2000/svg" xmlns:xlink="http://www.w3.org/1999/xlink" x="0px" y="0px"
	 viewBox="0 0 24 24" style="enable-background:new 0 0 24 24;" xml:space="preserve">
<style type="text/css">
	.st0{fill:#666666;}
</style>
<g>
	<path class="st0" d="M12.1,13.63c-0.27,0-0.44-0.17-0.44-0.44c0-1.08,0.5-2.08,1.37-2.73c0.5-0.37,0.67-0.89,0.53-1.58
		c-0.12-0.49-0.5-1.05-1.19-1.19c-0.13-0.03-0.26-0.05-0.39-0.05c-0.31,0-0.59,0.1-0.92,0.31c-0.51,0.34-0.54,1-0.54,1.2
		c0,0.27-0.17,0.44-0.44,0.44c-0.27,0-0.44-0.17-0.44-0.44c0-0.76,0.32-1.44,0.89-1.9c0.43-0.34,0.95-0.54,1.45-0.54
		c0.19,0,0.37,0.03,0.54,0.09c0.98,0.25,1.71,0.98,1.92,1.91c0.22,0.89-0.11,1.78-0.9,2.46c-0.7,0.56-1.12,1.32-1.12,2.02v0.03
		l0.01,0.02c0.03,0.08,0.04,0.18-0.02,0.27C12.36,13.58,12.24,13.63,12.1,13.63z"/>
	<path class="st0" d="M12.1,17.2c-0.07,0-0.27-0.09-0.37-0.19c-0.07-0.07-0.07-0.13-0.07-0.25c0-0.08,0-0.29,0.07-0.37
		c0.09-0.09,0.19-0.13,0.31-0.13c0.11,0,0.22,0.05,0.31,0.13c0.11,0.11,0.19,0.19,0.19,0.37c0,0.06-0.07,0.18-0.1,0.21h-0.16
		l0.02,0.15C12.29,17.13,12.16,17.2,12.1,17.2z"/>
	<path class="st0" d="M12.1,21.95c-5.49,0-9.95-4.47-9.95-9.95s4.47-9.95,9.95-9.95s9.95,4.47,9.95,9.95S17.59,21.95,12.1,21.95z
		 M12.1,2.92C7.1,2.92,3.03,7,3.03,12s4.07,9.08,9.08,9.08S21.18,17,21.18,12S17.11,2.92,12.1,2.92z"/>
</g>
</svg>
