<?xml version="1.0" encoding="utf-8"?>
<!-- Generator: Adobe Illustrator 19.2.1, SVG Export Plug-In . SVG Version: 6.00 Build 0)  -->
<svg version="1.1" id="Layer_2" xmlns="http://www.w3.org/2000/svg" xmlns:xlink="http://www.w3.org/1999/xlink" x="0px" y="0px"
	 viewBox="0 0 24 24" style="enable-background:new 0 0 24 24;" xml:space="preserve">
<style type="text/css">
	.st0{fill:#666666;}
</style>
<g>
	<path class="st0" d="M2.38,21.92c-0.18,0-0.33-0.15-0.33-0.33v-9.62c0-0.18,0.15-0.33,0.33-0.33h2.95l6.17-9.46
		c0.06-0.1,0.17-0.16,0.28-0.16c0.12,0,0.22,0.06,0.28,0.16l5.65,9.46h3.89c0.18,0,0.33,0.15,0.33,0.33v9.62
		c0,0.18-0.15,0.33-0.33,0.33H2.38z M2.72,21.25h18.56V12.3H2.72V21.25z M6.12,11.63h10.81l-5.15-8.65L6.12,11.63z"/>
</g>
<g>
	<path class="st0" d="M8.34,16.37c0,0.79-0.28,1.61-0.81,2.13c-0.4,0.4-0.94,0.63-1.59,0.63c-1.15,0-1.75-0.84-1.75-1.84
		c0-0.79,0.3-1.62,0.83-2.14c0.4-0.39,0.96-0.62,1.56-0.62C7.78,14.53,8.34,15.36,8.34,16.37z M5.62,15.56
		C5.23,15.95,5,16.68,5,17.25c0,0.67,0.3,1.23,1.05,1.23c0.32,0,0.63-0.14,0.87-0.38c0.38-0.38,0.6-1.14,0.6-1.7
		c0-0.59-0.2-1.22-1.02-1.22C6.15,15.18,5.86,15.32,5.62,15.56z"/>
	<path class="st0" d="M9.41,14.68c0.27-0.07,0.67-0.11,1.08-0.11c0.41,0,0.85,0.09,1.14,0.32c0.26,0.2,0.41,0.49,0.41,0.88
		c0,0.53-0.24,0.95-0.57,1.21c-0.36,0.28-0.87,0.42-1.39,0.42c-0.16,0-0.3-0.02-0.42-0.03l-0.32,1.68H8.58L9.41,14.68z M9.77,16.74
		c0.13,0.03,0.24,0.04,0.4,0.04c0.65,0,1.08-0.42,1.08-0.94c0-0.47-0.34-0.64-0.77-0.64c-0.19,0-0.34,0.01-0.42,0.04L9.77,16.74z"/>
	<path class="st0" d="M14.87,17.07h-1.6l-0.25,1.33h1.8l-0.13,0.65h-2.57l0.85-4.45h2.47l-0.13,0.65h-1.7l-0.22,1.17H15L14.87,17.07
		z"/>
	<path class="st0" d="M15.4,19.05l0.85-4.45h0.88l0.78,2.07c0.19,0.54,0.3,0.95,0.4,1.39h0.01c0.03-0.44,0.08-0.87,0.2-1.51
		l0.37-1.95h0.73l-0.85,4.45h-0.79l-0.8-2.11c-0.2-0.58-0.32-0.94-0.42-1.43l-0.03,0.01c-0.05,0.42-0.14,0.97-0.26,1.63l-0.36,1.9
		H15.4z"/>
</g>
</svg>
