<?xml version="1.0" encoding="utf-8"?>
<!-- Generator: Adobe Illustrator 19.2.1, SVG Export Plug-In . SVG Version: 6.00 Build 0)  -->
<svg version="1.1" id="Layer_2" xmlns="http://www.w3.org/2000/svg" xmlns:xlink="http://www.w3.org/1999/xlink" x="0px" y="0px"
	 viewBox="0 0 24 24" style="enable-background:new 0 0 24 24;" xml:space="preserve">
<style type="text/css">
	.st0{fill:#666666;}
</style>
<g>
	<path class="st0" d="M12.01,22c-0.97,0-1.77-0.79-1.77-1.77c0-0.97,0.79-1.77,1.77-1.77c0.97,0,1.77,0.79,1.77,1.77
		C13.78,21.21,12.98,22,12.01,22z M12.01,19.38c-0.47,0-0.86,0.38-0.86,0.86c0,0.47,0.38,0.86,0.86,0.86c0.47,0,0.86-0.38,0.86-0.86
		C12.87,19.76,12.48,19.38,12.01,19.38z"/>
	<path class="st0" d="M12.45,18.06h-1.31c-0.49,0-0.89-0.4-0.89-0.89v-1.31c0-1.13,1.19-2.18,2.06-2.94
		c0.21-0.18,0.41-0.36,0.55-0.5c0.2-0.2,0.29-0.47,0.27-0.74c-0.03-0.28-0.17-0.52-0.41-0.69c-0.29-0.2-0.7-0.21-0.99-0.02
		c-0.25,0.16-0.41,0.4-0.44,0.68c0,0.4-0.02,1.17-1.01,1.17H8.95c-0.2,0-0.48-0.02-0.68-0.23c-0.22-0.23-0.22-0.53-0.21-0.82l0-0.15
		c0.05-1.24,0.64-2.38,1.61-3.13c1.39-1.08,3.37-1.15,4.82-0.18c1.07,0.72,1.75,1.86,1.85,3.13c0.11,1.23-0.34,2.42-1.22,3.26
		c-0.16,0.15-0.38,0.33-0.61,0.51c-0.38,0.3-1.07,0.86-1.17,1.14v0.82C13.34,17.66,12.94,18.06,12.45,18.06z M12.19,9.93
		c0.36,0,0.72,0.11,1.03,0.31c0.46,0.31,0.75,0.81,0.8,1.35c0.05,0.55-0.14,1.08-0.53,1.47c-0.16,0.16-0.37,0.34-0.59,0.54
		c-0.7,0.61-1.75,1.54-1.75,2.26v1.31l1.29-0.02l-0.02-0.9l0.01-0.05c0.11-0.55,0.69-1.05,1.5-1.7c0.21-0.17,0.42-0.33,0.55-0.46
		c0.68-0.65,1.02-1.57,0.94-2.53c-0.08-0.99-0.62-1.89-1.46-2.45c-1.13-0.76-2.67-0.7-3.75,0.14C9.46,9.8,9,10.68,8.96,11.64l0,0.15
		c0,0.04,0,0.08,0,0.12h1.3c0.04,0,0.07,0,0.09,0c0.01-0.05,0.01-0.13,0.01-0.28l0-0.05c0.06-0.56,0.37-1.06,0.86-1.37
		C11.52,10.02,11.85,9.93,12.19,9.93z"/>
	<path class="st0" d="M18.82,19.13c-0.07,0-0.15-0.02-0.22-0.06l-0.9-0.5c-0.77-0.42-1.66-0.54-2.51-0.31
		c-0.24,0.06-0.49-0.08-0.56-0.32c-0.06-0.24,0.08-0.49,0.32-0.56c0.93-0.24,1.9-0.17,2.77,0.2c-0.45-1.06-0.46-2.26-0.01-3.34
		c0.45-1.08,1.3-1.92,2.37-2.35c-1.07-0.43-1.92-1.27-2.37-2.35c-0.45-1.08-0.44-2.27,0.01-3.34c-1.06,0.45-2.25,0.46-3.34,0.01
		c-1.08-0.45-1.92-1.3-2.35-2.36c-0.43,1.07-1.27,1.92-2.35,2.36C8.61,6.66,7.41,6.65,6.35,6.2C6.8,7.27,6.81,8.46,6.36,9.54
		c-0.45,1.08-1.3,1.92-2.37,2.35c1.07,0.43,1.92,1.27,2.37,2.35c0.45,1.08,0.44,2.27-0.01,3.34c0.85-0.36,1.8-0.44,2.71-0.21
		c0.24,0.06,0.39,0.31,0.33,0.55c-0.06,0.24-0.31,0.39-0.55,0.33c-0.83-0.2-1.71-0.09-2.46,0.33l-0.9,0.5
		c-0.18,0.1-0.4,0.07-0.54-0.08c-0.14-0.14-0.17-0.36-0.08-0.54l0.5-0.9c0.5-0.92,0.56-1.99,0.16-2.96c-0.4-0.96-1.2-1.68-2.21-1.98
		l-0.99-0.29c-0.19-0.06-0.33-0.23-0.33-0.44s0.13-0.38,0.33-0.44l0.99-0.29c1-0.29,1.81-1.01,2.21-1.98
		c0.4-0.96,0.34-2.04-0.16-2.96l-0.5-0.9c-0.1-0.18-0.07-0.4,0.08-0.54C5.08,4.65,5.3,4.62,5.48,4.71l0.9,0.5
		c0.91,0.5,1.99,0.56,2.96,0.16c0.96-0.4,1.69-1.2,1.98-2.21l0.29-0.99c0.06-0.19,0.23-0.33,0.44-0.33c0.2,0,0.38,0.13,0.44,0.33
		l0.29,0.99c0.29,1,1.01,1.81,1.98,2.21c0.96,0.4,2.04,0.34,2.96-0.16l0.9-0.5c0.18-0.1,0.4-0.07,0.54,0.08
		c0.14,0.14,0.17,0.36,0.08,0.54l-0.5,0.9c-0.5,0.91-0.56,1.99-0.16,2.96c0.4,0.96,1.2,1.68,2.21,1.98l0.99,0.29
		c0.19,0.06,0.33,0.23,0.33,0.44s-0.13,0.38-0.33,0.44l-0.99,0.29c-1,0.29-1.81,1.01-2.21,1.98c-0.4,0.96-0.34,2.04,0.16,2.96
		l0.5,0.9c0.1,0.18,0.07,0.4-0.08,0.54C19.06,19.09,18.94,19.13,18.82,19.13z"/>
	<path class="st0" d="M12.01,22c-0.97,0-1.77-0.79-1.77-1.77c0-0.97,0.79-1.77,1.77-1.77c0.97,0,1.77,0.79,1.77,1.77
		C13.78,21.21,12.98,22,12.01,22z M12.01,19.38c-0.47,0-0.86,0.38-0.86,0.86c0,0.47,0.38,0.86,0.86,0.86c0.47,0,0.86-0.38,0.86-0.86
		C12.87,19.76,12.48,19.38,12.01,19.38z"/>
	<path class="st0" d="M12.45,18.06h-1.31c-0.49,0-0.89-0.4-0.89-0.89v-1.31c0-1.13,1.19-2.18,2.06-2.94
		c0.21-0.18,0.41-0.36,0.55-0.5c0.2-0.2,0.29-0.47,0.27-0.74c-0.03-0.28-0.17-0.52-0.41-0.69c-0.29-0.2-0.7-0.21-0.99-0.02
		c-0.25,0.16-0.41,0.4-0.44,0.68c0,0.4-0.02,1.17-1.01,1.17H8.95c-0.2,0-0.48-0.02-0.68-0.23c-0.22-0.23-0.22-0.53-0.21-0.82l0-0.15
		c0.05-1.24,0.64-2.38,1.61-3.13c1.39-1.08,3.37-1.15,4.82-0.18c1.07,0.72,1.75,1.86,1.85,3.13c0.11,1.23-0.34,2.42-1.22,3.26
		c-0.16,0.15-0.38,0.33-0.61,0.51c-0.38,0.3-1.07,0.86-1.17,1.14v0.82C13.34,17.66,12.94,18.06,12.45,18.06z M12.19,9.93
		c0.36,0,0.72,0.11,1.03,0.31c0.46,0.31,0.75,0.81,0.8,1.35c0.05,0.55-0.14,1.08-0.53,1.47c-0.16,0.16-0.37,0.34-0.59,0.54
		c-0.7,0.61-1.75,1.54-1.75,2.26v1.31l1.29-0.02l-0.02-0.9l0.01-0.05c0.11-0.55,0.69-1.05,1.5-1.7c0.21-0.17,0.42-0.33,0.55-0.46
		c0.68-0.65,1.02-1.57,0.94-2.53c-0.08-0.99-0.62-1.89-1.46-2.45c-1.13-0.76-2.67-0.7-3.75,0.14C9.46,9.8,9,10.68,8.96,11.64l0,0.15
		c0,0.04,0,0.08,0,0.12h1.3c0.04,0,0.07,0,0.09,0c0.01-0.05,0.01-0.13,0.01-0.28l0-0.05c0.06-0.56,0.37-1.06,0.86-1.37
		C11.52,10.02,11.85,9.93,12.19,9.93z"/>
</g>
</svg>
