<?xml version="1.0" encoding="utf-8"?>
<!-- Generator: Adobe Illustrator 19.2.1, SVG Export Plug-In . SVG Version: 6.00 Build 0)  -->
<svg version="1.1" id="Layer_2" xmlns="http://www.w3.org/2000/svg" xmlns:xlink="http://www.w3.org/1999/xlink" x="0px" y="0px"
	 viewBox="0 0 24 24" style="enable-background:new 0 0 24 24;" xml:space="preserve">
<style type="text/css">
	.st0{fill:#666666;}
</style>
<path class="st0" d="M21.86,4.47c-0.21-0.98-0.68-1.65-1.32-1.9c-0.94-0.36-1.56-0.41-2-0.15c-0.56,0.34-0.65,1.02-0.76,1.89
	c-0.14,1.14-0.34,2.7-1.75,4.12c-1.36,1.36-4.22,3.01-6.52,4.34c-1.58,0.91-2.83,1.63-3.27,2.07l-1.12,1.12
	C5.09,15.98,5.08,16,5.07,16.02c-0.05,0.04-0.1,0.07-0.14,0.12l-2.38,2.38c-0.71,0.71-0.71,1.86,0,2.56
	c0.35,0.35,0.82,0.53,1.28,0.53c0.46,0,0.93-0.18,1.28-0.53l2.38-2.38c0.03-0.03,0.06-0.07,0.09-0.1c0.02-0.02,0.05-0.03,0.07-0.05
	l1.12-1.12c0.34-0.34,1.81-0.9,3.24-1.44c2.53-0.96,5.68-2.15,7.14-3.62C21.52,9.99,22.31,6.59,21.86,4.47z M4.51,20.48
	c-0.38,0.38-0.99,0.38-1.37,0c-0.38-0.38-0.38-0.99,0-1.37l2.38-2.38c0.15-0.15,0.39-0.15,0.54,0l0.83,0.83
	C6.96,17.64,7,17.73,7,17.83c0,0.1-0.04,0.2-0.11,0.27L4.51,20.48z M18.54,11.78c-1.34,1.34-4.39,2.49-6.84,3.42
	c-1.96,0.74-3.09,1.19-3.54,1.63l-0.46,0.46c-0.06-0.12-0.13-0.23-0.23-0.32l-0.83-0.83c-0.09-0.09-0.2-0.16-0.32-0.22l0.49-0.49
	c0.36-0.36,1.69-1.13,3.1-1.94c2.34-1.35,5.26-3.03,6.7-4.47c1.62-1.62,1.84-3.42,1.99-4.61c0.07-0.59,0.14-1.15,0.35-1.27
	c0.1-0.06,0.41-0.12,1.26,0.21c0.37,0.14,0.66,0.61,0.8,1.29C21.43,6.5,20.69,9.63,18.54,11.78z"/>
</svg>
