<?xml version="1.0" encoding="utf-8"?>
<!-- Generator: Adobe Illustrator 19.2.1, SVG Export Plug-In . SVG Version: 6.00 Build 0)  -->
<svg version="1.1" id="Layer_2" xmlns="http://www.w3.org/2000/svg" xmlns:xlink="http://www.w3.org/1999/xlink" x="0px" y="0px"
	 viewBox="0 0 24 24" style="enable-background:new 0 0 24 24;" xml:space="preserve">
<style type="text/css">
	.st0{fill:#666666;}
	.st1{clip-path:url(#SVGID_2_);fill:#666666;}
</style>
<g>
	<path class="st0" d="M13.91,19.29v-1.65c0-0.13-0.08-0.25-0.2-0.31c-0.12-0.05-0.27-0.02-0.36,0.07l-0.66,0.66
		c-0.13,0.13-0.13,0.34,0,0.47c0.13,0.13,0.34,0.13,0.47,0l0.1-0.1v0.85c-0.18,0-0.33,0.15-0.33,0.33c0,0.18,0.15,0.33,0.33,0.33
		h0.66c0.18,0,0.33-0.15,0.33-0.33C14.24,19.44,14.1,19.29,13.91,19.29L13.91,19.29z M13.91,19.29"/>
	<g>
		<defs>
			<rect id="SVGID_1_" x="2.02" y="2.09" width="19.84" height="19.89"/>
		</defs>
		<clipPath id="SVGID_2_">
			<use xlink:href="#SVGID_1_"  style="overflow:visible;"/>
		</clipPath>
		<path class="st1" d="M4.99,8.72V7.07c0-0.13-0.08-0.25-0.2-0.31C4.66,6.71,4.52,6.74,4.43,6.83L3.76,7.49
			c-0.13,0.13-0.13,0.34,0,0.47c0.13,0.13,0.34,0.13,0.47,0l0.1-0.1v0.85C4.15,8.72,4,8.87,4,9.05c0,0.18,0.15,0.33,0.33,0.33h0.66
			c0.18,0,0.33-0.15,0.33-0.33C5.32,8.87,5.17,8.72,4.99,8.72L4.99,8.72z M4.99,8.72"/>
		<path class="st1" d="M20.76,5.8L10.9,2.21c-0.41-0.15-0.86-0.13-1.26,0.05c-0.4,0.19-0.7,0.51-0.85,0.91l-0.1,0.25l-1.6-0.27
			C6.65,3.08,6.22,3.17,5.85,3.43c-0.36,0.25-0.6,0.63-0.68,1.06L5.13,4.75H3.67c-0.91,0-1.65,0.74-1.65,1.65v13.88
			c0,0.91,0.74,1.65,1.65,1.65H14.9c0.9,0,1.78-0.13,2.13-1.08l4.71-12.95C22.05,7.05,21.61,6.11,20.76,5.8L20.76,5.8z M15.23,20.29
			c0,0.55-0.44,0.99-0.99,0.99H3.67c-0.55,0-0.99-0.44-0.99-0.99V6.41c0-0.55,0.44-0.99,0.99-0.99H5.4c0.16,0,0.3-0.11,0.32-0.27
			l0.1-0.54c0.05-0.26,0.19-0.49,0.41-0.64C6.45,3.82,6.71,3.76,6.98,3.8l1.87,0.32c0.15,0.02,0.3-0.06,0.36-0.2l0.21-0.51
			C9.5,3.17,9.68,2.97,9.92,2.86c0.24-0.11,0.5-0.12,0.75-0.03l5.08,1.85l-5.12-0.9c-0.18-0.03-0.35,0.09-0.38,0.27
			c-0.03,0.18,0.09,0.35,0.27,0.38l1.84,0.32H6.64c-0.18,0-0.33,0.15-0.33,0.33c0,0.18,0.15,0.33,0.33,0.33h7.6
			c0.55,0,0.99,0.44,0.99,0.99V20.29z M15.46,5.3l1.93,0.34c0.54,0.09,0.9,0.61,0.8,1.15l-2.3,13.03V6.41
			C15.9,5.98,15.73,5.59,15.46,5.3L15.46,5.3z M21.12,7.68l-4.69,12.88L18.84,6.9c0.08-0.43-0.03-0.85-0.25-1.19l1.94,0.71
			C21.05,6.61,21.31,7.17,21.12,7.68L21.12,7.68z M21.12,7.68"/>
	</g>
	<path class="st0" d="M10.62,11.63c-0.5-0.4-1.01-0.82-1.38-1.43c-0.12-0.2-0.45-0.2-0.57,0c-0.38,0.63-0.85,1.05-1.32,1.46
		c-0.71,0.63-1.37,1.22-1.37,2.35c0,0.91,0.74,1.65,1.65,1.65c0.44,0,0.75-0.12,0.99-0.3v0.96c0,0.18,0.15,0.33,0.33,0.33
		c0.18,0,0.33-0.15,0.33-0.33v-0.96c0.24,0.19,0.55,0.3,0.99,0.3c0.82,0,1.45-0.61,1.65-1.59C12.16,12.88,11.38,12.25,10.62,11.63
		L10.62,11.63z M11.28,13.94c-0.05,0.25-0.27,1.06-1,1.06c-0.54,0-0.71-0.18-1.03-0.81c-0.02-0.03-0.04-0.06-0.06-0.08
		c0-0.01-0.01-0.01-0.02-0.01c-0.02-0.02-0.05-0.04-0.08-0.05c-0.01,0-0.02-0.01-0.03-0.01C9.03,14.02,9,14.01,8.96,14.01
		c-0.04,0-0.08,0.01-0.11,0.02c-0.01,0-0.02,0.01-0.03,0.01c-0.03,0.01-0.05,0.03-0.08,0.05c-0.01,0.01-0.01,0.01-0.02,0.01
		c-0.02,0.02-0.04,0.05-0.06,0.08C8.35,14.82,8.17,15,7.63,15c-0.55,0-0.99-0.44-0.99-0.99c0-0.83,0.48-1.26,1.15-1.85
		c0.38-0.33,0.79-0.7,1.17-1.2c0.38,0.49,0.83,0.85,1.24,1.19C11.01,12.8,11.43,13.18,11.28,13.94L11.28,13.94z M11.28,13.94"/>
</g>
</svg>
