<?xml version="1.0" encoding="utf-8"?>
<!-- Generator: Adobe Illustrator 19.2.1, SVG Export Plug-In . SVG Version: 6.00 Build 0)  -->
<svg version="1.1" id="Layer_2" xmlns="http://www.w3.org/2000/svg" xmlns:xlink="http://www.w3.org/1999/xlink" x="0px" y="0px"
	 viewBox="0 0 24 24" style="enable-background:new 0 0 24 24;" xml:space="preserve">
<style type="text/css">
	.st0{fill:#666666;}
</style>
<path class="st0" d="M21.95,10.03l0-0.32l-3.29,0.13c-0.44-0.27-2.78-1.68-4.68-1.88l-0.4-0.04l0.08,0.39
	c0,0.01,0.16,0.82-0.56,1.74l-1.96,0.08l-0.32-1.41l-0.57,0.13l0.29,1.3L6.73,10.3V8.86H2.05v3.08h1.8l0.85,1.15
	c-0.07,0.13-0.14,0.33-0.17,0.56c-0.05,0.41,0.04,1.03,0.72,1.69l0.26,0.25l1.3-2.02c0.35,0.02,1.16,0.06,1.75,0.06
	c5.82,0,9.86-0.63,12-1.86C21.96,10.98,21.95,10.27,21.95,10.03z M14.25,8.59c1.16,0.21,2.47,0.84,3.3,1.29l-3.73,0.14
	C14.16,9.45,14.24,8.93,14.25,8.59z M2.64,9.45h3.5v1.91h-3.5V9.45z M21.25,10.44c-0.16,0.27-0.49,0.55-0.97,0.81l0,0
	c-1.16,0.67-2.96,1.16-5.35,1.45c-1.8,0.22-3.94,0.33-6.36,0.33c-0.74,0-1.88-0.06-1.89-0.06l-0.17-0.01l-1.08,1.68
	c-0.23-0.3-0.33-0.6-0.3-0.9c0.03-0.3,0.17-0.49,0.17-0.49l0.14-0.18l-0.84-1.14h2.14v-1.05l14.58-0.57
	C21.3,10.36,21.28,10.4,21.25,10.44z"/>
</svg>
