<?xml version="1.0" encoding="utf-8"?>
<!-- Generator: Adobe Illustrator 19.2.1, SVG Export Plug-In . SVG Version: 6.00 Build 0)  -->
<svg version="1.1" id="Layer_2" xmlns="http://www.w3.org/2000/svg" xmlns:xlink="http://www.w3.org/1999/xlink" x="0px" y="0px"
	 viewBox="0 0 24 24" style="enable-background:new 0 0 24 24;" xml:space="preserve">
<style type="text/css">
	.st0{fill:#666666;}
</style>
<g>
	<path class="st0" d="M10.16,6.51c0.04,0.04,0.07,0.07,0.11,0.09c0.04,0.02,0.07,0.04,0.09,0.05l0.57-0.45v2.33h0.76V5.37
		c-0.01,0-0.02-0.01-0.04-0.02c-0.02-0.01-0.05-0.02-0.09-0.03c-0.04-0.01-0.08-0.02-0.12-0.03c-0.05-0.01-0.09-0.01-0.14-0.01
		c-0.06,0-0.12,0.01-0.17,0.02c-0.05,0.01-0.1,0.03-0.15,0.05c-0.05,0.02-0.1,0.05-0.15,0.08c-0.05,0.03-0.11,0.07-0.17,0.12
		l-0.28,0.21c-0.11,0.08-0.2,0.16-0.26,0.22c-0.06,0.07-0.09,0.15-0.09,0.27c0,0.05,0.01,0.1,0.04,0.15
		C10.09,6.43,10.12,6.47,10.16,6.51z"/>
	<path class="st0" d="M21.79,14.78c-0.22-0.33-0.65-0.55-1.09-0.55l-0.04,0c-0.21,0-0.43,0.05-0.68,0.14l-0.29,0.1l-0.12-0.29
		c-0.05-0.11-0.11-0.22-0.19-0.31c-0.2-0.23-0.49-0.36-0.83-0.36c-0.12,0-0.24,0.02-0.37,0.05c-0.21,0.05-0.43,0.14-0.64,0.26
		l-0.23,0.13l-0.17-0.2c-0.06-0.07-0.13-0.13-0.21-0.18c-0.15-0.09-0.32-0.13-0.53-0.13c-0.65,0-1.47,0.44-2.2,0.86l-1.76,0.94
		c-0.09,0.05-0.15,0.12-0.17,0.21c-0.4-0.05-0.78-0.15-1.13-0.31c-0.78-0.37-1.47-0.91-2.21-1.47c-0.33-0.26-0.68-0.52-1.03-0.77
		c-0.32-0.23-0.74-0.34-1.22-0.34c-0.21,0-0.43,0.02-0.65,0.07c-0.64,0.13-1.24,0.39-1.82,0.65c-0.2,0.09-0.4,0.18-0.6,0.26
		l-1.39,0.56c-0.18,0.07-0.27,0.28-0.19,0.46c0.05,0.13,0.18,0.22,0.32,0.22c0.05,0,0.09-0.01,0.13-0.03l1.39-0.56
		c0.19-0.08,0.38-0.16,0.57-0.24l0.05-0.02c0.57-0.25,1.12-0.49,1.68-0.6c0.18-0.04,0.35-0.05,0.52-0.05c0.33,0,0.61,0.08,0.81,0.22
		c0.34,0.24,0.67,0.5,1,0.75c0.73,0.56,1.48,1.14,2.33,1.55c0.93,0.44,2.01,0.45,2.97,0.46c0.22,0,0.44,0,0.65,0.01
		c0.12,0,0.25,0.01,0.32,0.02l0.51,0.06l-0.28,0.43c-0.04,0.07-0.14,0.17-0.45,0.32c-0.84,0.39-1.74,0.59-2.59,0.59
		c-0.2,0-0.39-0.01-0.59-0.03c-1.11-0.12-2.18-0.67-3.12-1.16c-0.05-0.03-0.1-0.04-0.16-0.04c-0.13,0-0.25,0.07-0.31,0.19
		C7.7,16.8,7.77,17.01,7.94,17.1c1,0.51,2.13,1.09,3.36,1.23c0.21,0.02,0.44,0.04,0.66,0.04c0.95,0,1.95-0.23,2.88-0.66
		c0.36-0.17,0.84-0.45,0.9-1.01c0.05-0.47-0.23-0.92-0.66-1.07c-0.21-0.08-0.43-0.08-0.61-0.09c-0.22-0.01-0.44-0.01-0.67-0.01
		c-0.14,0-0.27,0-0.41,0l0.87-0.46c0.07-0.04,0.16-0.09,0.28-0.16c1.19-0.68,1.6-0.76,1.81-0.76l0.29,0l0.04,0.28
		c0.01,0.04,0.01,0.08,0.01,0.15c0,0.13,0.07,0.25,0.19,0.31c0.05,0.03,0.11,0.04,0.16,0.04c0.07,0,0.14-0.02,0.2-0.06l0.44-0.3
		c0.22-0.15,0.45-0.26,0.66-0.31c0.08-0.02,0.15-0.03,0.21-0.03c0.09,0,0.15,0.02,0.16,0.03l0.08,0.03l0.05,0.06
		c0.13,0.15,0.14,0.44,0.03,0.73l0,0.01c-0.03,0.08-0.03,0.17,0.01,0.26c0.04,0.09,0.11,0.15,0.19,0.19
		c0.04,0.02,0.08,0.02,0.13,0.02c0.11,0,0.22-0.05,0.29-0.15l0.02-0.03V15.3l0.1-0.1l0.07,0.05c0.08-0.04,0.22-0.1,0.46-0.2
		c0.2-0.08,0.37-0.12,0.52-0.12c0.02,0,0.04,0,0.06,0c0.21,0,0.4,0.1,0.52,0.28l0.07,0.11l-0.03,0.13
		c-0.05,0.22-0.32,0.47-0.85,0.77c-0.72,0.41-1.42,0.86-2.1,1.29l-1.65,1.05c-0.74,0.47-1.5,0.97-2.28,1.42l-0.09,0.05
		c-0.51,0.3-0.99,0.58-1.53,0.73c-0.42,0.12-0.84,0.17-1.25,0.17c-0.17,0-0.33-0.01-0.49-0.03c-0.53-0.07-1.04-0.23-1.59-0.4
		l-0.4-0.13c-0.22-0.07-0.43-0.14-0.65-0.21l-0.02-0.01c-0.63-0.2-1.27-0.41-1.94-0.54c-0.55-0.1-1.11-0.16-1.66-0.16
		c-0.39,0-0.78,0.03-1.17,0.08c-0.19,0.03-0.33,0.2-0.3,0.39c0.02,0.17,0.17,0.31,0.35,0.31c0.02,0,0.03,0,0.05,0
		c0.36-0.05,0.72-0.07,1.08-0.07c0.51,0,1.02,0.05,1.53,0.14c0.62,0.12,1.22,0.31,1.85,0.52c0.23,0.07,0.46,0.15,0.69,0.22
		l0.39,0.12c0.55,0.18,1.12,0.36,1.71,0.43c0.19,0.02,0.39,0.04,0.59,0.04c0.47,0,0.95-0.07,1.43-0.2c0.63-0.17,1.18-0.5,1.71-0.81
		l0.08-0.05c0.8-0.47,1.58-0.97,2.34-1.46l1.61-1.03c0.67-0.43,1.37-0.87,2.07-1.27c0.48-0.27,1.05-0.65,1.18-1.21
		C22.02,15.34,21.97,15.06,21.79,14.78z"/>
	<path class="st0" d="M11.1,11.66c2.57,0,4.66-2.09,4.66-4.66c0-2.57-2.09-4.66-4.66-4.66c-2.57,0-4.66,2.09-4.66,4.66
		C6.44,9.58,8.53,11.66,11.1,11.66z M11.1,3.05c2.18,0,3.96,1.77,3.96,3.96s-1.78,3.96-3.96,3.96S7.14,9.19,7.14,7.01
		S8.92,3.05,11.1,3.05z"/>
	<path class="st0" d="M17.26,8.94c0.02,0.02,0.05,0.04,0.07,0.06c0.02,0.02,0.04,0.03,0.06,0.04l0.38-0.3v1.56h0.51V8.18
		c0,0-0.01-0.01-0.03-0.01c-0.02-0.01-0.04-0.01-0.06-0.02c-0.02-0.01-0.05-0.01-0.08-0.02c-0.03-0.01-0.06-0.01-0.09-0.01
		c-0.04,0-0.08,0-0.12,0.01c-0.03,0.01-0.07,0.02-0.1,0.03c-0.03,0.01-0.07,0.03-0.1,0.05c-0.03,0.02-0.07,0.05-0.11,0.08L17.4,8.43
		c-0.07,0.06-0.13,0.1-0.17,0.15c-0.04,0.04-0.06,0.1-0.06,0.18c0,0.04,0.01,0.07,0.03,0.1C17.21,8.89,17.23,8.92,17.26,8.94z"/>
	<path class="st0" d="M16.16,12.01c0.52,0.33,1.11,0.5,1.73,0.5c1.78,0,3.23-1.45,3.23-3.23c0-1.66-1.25-3.05-2.9-3.22
		c-0.01,0-0.02,0-0.04,0c-0.18,0-0.33,0.14-0.35,0.31c-0.02,0.19,0.12,0.36,0.31,0.38c1.29,0.13,2.27,1.21,2.27,2.52
		c0,1.4-1.14,2.53-2.53,2.53c-0.48,0-0.95-0.14-1.35-0.39c-0.06-0.04-0.12-0.05-0.19-0.05c-0.12,0-0.23,0.06-0.3,0.16
		C15.95,11.69,16,11.9,16.16,12.01z"/>
</g>
</svg>
