<?xml version="1.0" encoding="utf-8"?>
<!-- Generator: Adobe Illustrator 19.2.1, SVG Export Plug-In . SVG Version: 6.00 Build 0)  -->
<svg version="1.1" id="Layer_2" xmlns="http://www.w3.org/2000/svg" xmlns:xlink="http://www.w3.org/1999/xlink" x="0px" y="0px"
	 viewBox="0 0 24 24" style="enable-background:new 0 0 24 24;" xml:space="preserve">
<style type="text/css">
	.st0{fill:#666666;}
</style>
<g>
	<path class="st0" d="M13.89,21.95c-2.83,0-4.85-0.98-6.17-2.99c-1-1.52-3.36-5.09-3.36-5.09c-0.3-0.47-0.41-1.04-0.29-1.57
		c0.11-0.49,0.4-0.9,0.81-1.17c0.3-0.18,0.63-0.28,0.98-0.28c0.58,0,1.16,0.28,1.56,0.74l0.54,0.63v-7.1c0-0.92,0.75-1.67,1.67-1.67
		c0.27,0,0.54,0.07,0.78,0.19l0.38,0.2l0.07-0.43c0.13-0.81,0.84-1.41,1.65-1.41c0.63,0,1.2,0.35,1.49,0.9l0.16,0.31l0.29-0.2
		c0.28-0.19,0.61-0.3,0.95-0.3c0.92,0,1.67,0.75,1.67,1.67v0.9l0.45-0.23c0.24-0.12,0.49-0.18,0.76-0.18c0.93,0,1.68,0.75,1.68,1.67
		v9.74c0,1.46-0.48,2.81-1.35,3.8C17.55,21.34,15.96,21.95,13.89,21.95z M5.87,11.6c-0.21,0-0.41,0.06-0.59,0.16
		c-0.25,0.16-0.43,0.41-0.49,0.71c-0.07,0.33-0.01,0.7,0.19,1c0,0,2.36,3.57,3.36,5.09c1.19,1.81,2.96,2.66,5.56,2.66
		c4.96,0,5.35-3.76,5.35-4.91V6.57c0-0.52-0.42-0.94-0.94-0.94c-0.52,0-0.94,0.42-0.94,0.94v4.69c0,0.28-0.22,0.5-0.5,0.5
		c-0.28,0-0.5-0.22-0.5-0.5V4.41c0-0.52-0.42-0.94-0.94-0.94c-0.52,0-0.94,0.42-0.94,0.94v6.13c0,0.28-0.22,0.5-0.5,0.5
		c-0.28,0-0.5-0.22-0.5-0.5V3.69c0-0.52-0.42-0.94-0.94-0.94s-0.94,0.42-0.94,0.94v6.85c0,0.28-0.23,0.5-0.5,0.5
		c-0.28,0-0.5-0.22-0.5-0.5V5.13c0-0.52-0.42-0.94-0.94-0.94c-0.52,0-0.94,0.42-0.94,0.94v9.02c0,0.06-0.04,0.12-0.1,0.13
		c-0.01,0-0.03,0.01-0.04,0.01c-0.04,0-0.09-0.02-0.11-0.06l-1.48-2.02C6.73,11.84,6.3,11.6,5.87,11.6z"/>
</g>
</svg>
