<?xml version="1.0" encoding="utf-8"?>
<!-- Generator: Adobe Illustrator 19.2.1, SVG Export Plug-In . SVG Version: 6.00 Build 0)  -->
<svg version="1.1" id="Layer_2" xmlns="http://www.w3.org/2000/svg" xmlns:xlink="http://www.w3.org/1999/xlink" x="0px" y="0px"
	 viewBox="0 0 24 24" style="enable-background:new 0 0 24 24;" xml:space="preserve">
<style type="text/css">
	.st0{fill:#666666;}
</style>
<g>
	<g>
		<path class="st0" d="M12.1,21.8c-5.46,0-9.91-4.44-9.91-9.91s4.44-9.91,9.91-9.91s9.91,4.44,9.91,9.91S17.56,21.8,12.1,21.8z
			 M12.1,2.81c-5.01,0-9.08,4.07-9.08,9.08c0,5.01,4.07,9.08,9.08,9.08c5.01,0,9.08-4.07,9.08-9.08C21.18,6.88,17.11,2.81,12.1,2.81
			z"/>
	</g>
	<g>
		<path class="st0" d="M12.1,18.5c-3.64,0-6.61-2.96-6.61-6.61c0-3.64,2.96-6.61,6.61-6.61s6.61,2.96,6.61,6.61
			C18.71,15.53,15.74,18.5,12.1,18.5z M12.1,6.11c-3.19,0-5.78,2.59-5.78,5.78c0,3.19,2.59,5.78,5.78,5.78s5.78-2.59,5.78-5.78
			C17.88,8.7,15.29,6.11,12.1,6.11z"/>
	</g>
	<g>
		<g>
			<rect x="11.69" y="2.4" class="st0" width="0.83" height="3.3"/>
		</g>
		<g>
			<rect x="11.69" y="18.08" class="st0" width="0.83" height="3.3"/>
		</g>
	</g>
	<g>
		<g>
			
				<rect x="6.14" y="4.69" transform="matrix(0.7071 -0.7071 0.7071 0.7071 -2.5673 6.4928)" class="st0" width="0.83" height="3.3"/>
		</g>
		<g>
			
				<rect x="17.23" y="15.79" transform="matrix(0.7071 -0.7071 0.7071 0.7071 -7.162 17.5855)" class="st0" width="0.83" height="3.3"/>
		</g>
	</g>
	<g>
		<g>
			<rect x="2.61" y="11.48" class="st0" width="3.3" height="0.83"/>
		</g>
		<g>
			<rect x="18.29" y="11.48" class="st0" width="3.3" height="0.83"/>
		</g>
	</g>
	<g>
		<g>
			
				<rect x="4.9" y="17.03" transform="matrix(0.7071 -0.7071 0.7071 0.7071 -10.4112 9.7424)" class="st0" width="3.3" height="0.83"/>
		</g>
		<g>
			<rect x="16" y="5.93" transform="matrix(0.7071 -0.7071 0.7071 0.7071 0.6817 14.3365)" class="st0" width="3.3" height="0.83"/>
		</g>
	</g>
	<g>
		<rect x="8.8" y="11.48" class="st0" width="6.61" height="0.83"/>
	</g>
	<g>
		<rect x="11.69" y="8.59" class="st0" width="0.83" height="6.61"/>
	</g>
</g>
</svg>
