<?xml version="1.0" encoding="utf-8"?>
<!-- Generator: Adobe Illustrator 19.2.1, SVG Export Plug-In . SVG Version: 6.00 Build 0)  -->
<svg version="1.1" id="Layer_2" xmlns="http://www.w3.org/2000/svg" xmlns:xlink="http://www.w3.org/1999/xlink" x="0px" y="0px"
	 viewBox="0 0 24 24" style="enable-background:new 0 0 24 24;" xml:space="preserve">
<style type="text/css">
	.st0{fill:#666666;}
</style>
<g>
	<circle class="st0" cx="12" cy="17.12" r="0.6"/>
	<circle class="st0" cx="8.48" cy="17.12" r="0.6"/>
	<g>
		<circle class="st0" cx="15.52" cy="17.12" r="0.6"/>
		<path class="st0" d="M4.57,20.02v-5.41L3.73,8.08L3.58,8.04c-0.9-0.24-1.52-1.07-1.52-1.99c0-1.14,0.93-2.07,2.07-2.07
			c1.14,0,2.07,0.93,2.07,2.07c0,0.7-0.35,1.34-0.94,1.73L4.98,7.95l3.08,2.63l3.06-2.64l-0.27-0.18c-0.58-0.39-0.92-1.03-0.92-1.72
			c0-1.14,0.93-2.07,2.07-2.07c1.14,0,2.07,0.93,2.07,2.07c0,0.69-0.34,1.33-0.92,1.72l-0.27,0.18l3.06,2.64l3.08-2.63l-0.27-0.18
			c-0.59-0.38-0.94-1.03-0.94-1.73c0-1.14,0.93-2.07,2.07-2.07c1.14,0,2.07,0.93,2.07,2.07c0,0.93-0.63,1.75-1.52,1.99l-0.16,0.04
			l-0.83,6.54v5.41H4.57z M5.34,19.25h13.32v-4.27H5.34V19.25z M5.3,14.21H18.7l0.71-5.58l-3.48,2.97L12,8.2l-3.94,3.4L4.58,8.63
			L5.3,14.21z M19.88,4.75c-0.71,0-1.29,0.58-1.29,1.29s0.58,1.29,1.29,1.29s1.29-0.58,1.29-1.29S20.59,4.75,19.88,4.75z M12,4.75
			c-0.71,0-1.29,0.58-1.29,1.29S11.29,7.34,12,7.34c0.71,0,1.29-0.58,1.29-1.29S12.71,4.75,12,4.75z M4.12,4.75
			c-0.71,0-1.29,0.58-1.29,1.29s0.58,1.29,1.29,1.29s1.29-0.58,1.29-1.29S4.83,4.75,4.12,4.75z"/>
	</g>
</g>
</svg>
