<?xml version="1.0" encoding="utf-8"?>
<!-- Generator: Adobe Illustrator 19.2.1, SVG Export Plug-In . SVG Version: 6.00 Build 0)  -->
<svg version="1.1" id="Layer_2" xmlns="http://www.w3.org/2000/svg" xmlns:xlink="http://www.w3.org/1999/xlink" x="0px" y="0px"
	 viewBox="0 0 24 24" style="enable-background:new 0 0 24 24;" xml:space="preserve">
<style type="text/css">
	.st0{fill:#666666;}
</style>
<g>
	<path class="st0" d="M7.25,20.29c-0.35,0-0.68-0.08-1-0.25c-0.73-0.7-1.4-1.53-1.59-1.77c-0.1-0.13-0.11-0.3-0.02-0.44
		c0.07-0.11,0.19-0.18,0.32-0.18c0.03,0,0.05,0,0.08,0.01c0.43,0.09,1.91,0.17,4.4,0.23c0,0,0,0,0,0c0.03,0,0.06-0.02,0.08-0.04
		l0.77-1.34c0,0,0.3,0.01,0.3,0.01c0.02,0,0.05-0.01,0.06-0.03c0.02-0.02,0.03-0.04,0.03-0.06v-0.21c0-0.04-0.03-0.08-0.07-0.09
		c-0.53-0.11-1.08-0.16-1.63-0.16c-2.3,0-3.99,0.92-4.01,0.93c-0.06,0.03-0.12,0.05-0.19,0.05c-0.05,0-0.1-0.01-0.15-0.03
		c-0.11-0.05-0.19-0.14-0.22-0.25c-2.33-8.57,6.05-13.6,6.13-13.65c0.02-0.01,0.04-0.02,0.07-0.03c0.04-0.01,0.06-0.05,0.06-0.08
		V2.49c0-0.05,0.01-0.11,0.04-0.16c0.04-0.21,0.2-0.34,0.38-0.34h1.3c0.21,0,0.38,0.17,0.38,0.38v0.24c0,0.05,0.04,0.09,0.09,0.09
		h0.94c0.21,0,0.38,0.17,0.38,0.38S14,3.47,13.79,3.47h-1.41C12.17,3.47,12,3.3,12,3.09V2.84c0-0.05-0.04-0.09-0.09-0.09h-0.39
		c-0.05,0-0.09,0.04-0.09,0.09v1.52c0,0.01,0,0.03,0.01,0.04l5.22,10.36c0.02,0.03,0.05,0.05,0.08,0.05h0.3
		c0.21,0,0.38,0.17,0.38,0.38s-0.17,0.38-0.38,0.38h-5.52c-0.05,0-0.09,0.04-0.09,0.09v0.77c0,0.05,0.04,0.09,0.09,0.09l2.87,0.06
		L15,17.93c0.01,0.03,0.05,0.05,0.08,0.05c1.06,0.01,2,0.02,2.69,0.02c0.16,0,0.29,0.1,0.35,0.24l0.58,1.44
		c-0.23,0.16-0.45,0.28-0.67,0.38l-0.5-1.24c-0.01-0.03-0.05-0.06-0.08-0.06c-1.94-0.01-8.5-0.07-11.39-0.25c0,0,0,0-0.01,0
		c-0.03,0-0.07,0.02-0.08,0.05C5.97,18.6,5.98,18.64,6,18.67c0.34,0.38,1.12,1.22,1.7,1.57C7.55,20.27,7.4,20.29,7.25,20.29z
		 M10.77,17.27c-0.03,0-0.06,0.02-0.08,0.04l-0.26,0.46c-0.02,0.03-0.02,0.06,0,0.09c0.02,0.03,0.04,0.04,0.08,0.04
		c1.17,0.03,2.39,0.04,3.53,0.06c0,0,0,0,0,0c0.03,0,0.06-0.02,0.07-0.04c0.02-0.03,0.02-0.06,0.01-0.09l-0.21-0.46
		c-0.01-0.03-0.04-0.05-0.08-0.05C13.84,17.34,10.77,17.27,10.77,17.27z M9.41,4.79c-0.02,0-0.04,0.01-0.06,0.02
		c-2.14,1.78-5.56,5.59-4.34,11.1c0.01,0.03,0.02,0.05,0.05,0.06c0.01,0.01,0.03,0.01,0.04,0.01c0.01,0,0.02,0,0.03-0.01
		c0.68-0.29,2.08-0.77,3.82-0.77c0.2,0,0.4,0.01,0.6,0.02c0,0,0,0,0.01,0c0.03,0,0.06-0.02,0.08-0.05c0.02-0.03,0.01-0.07-0.01-0.09
		C8.68,13.75,7.4,10.66,9.49,4.91c0.01-0.04,0-0.08-0.03-0.1C9.44,4.8,9.43,4.79,9.41,4.79z M10.58,4.36
		c-0.04,0-0.07,0.02-0.08,0.06c-2.57,6.44-0.85,9.52,0.01,10.55c0.02,0.02,0.04,0.03,0.07,0.03c0.01,0,0.02,0,0.03-0.01
		c0.03-0.01,0.06-0.05,0.06-0.08V4.45c0-0.04-0.03-0.08-0.07-0.09C10.59,4.36,10.59,4.36,10.58,4.36z M11.5,6.36
		c-0.04,0.01-0.07,0.05-0.07,0.09v8.27c0,0.05,0.04,0.09,0.09,0.09h4.17c0.03,0,0.06-0.02,0.08-0.04c0.02-0.03,0.02-0.06,0-0.09
		L11.6,6.41c-0.02-0.03-0.05-0.05-0.08-0.05C11.52,6.36,11.51,6.36,11.5,6.36z"/>
	<path class="st0" d="M17.06,21.95c-1.1,0-1.94-0.49-2.34-0.78c-0.02-0.01-0.03-0.02-0.05-0.02c-0.02,0-0.03,0-0.05,0.01
		c-0.8,0.52-1.62,0.79-2.43,0.79c-1.11,0-1.95-0.5-2.36-0.8c-0.02-0.01-0.03-0.02-0.05-0.02c-0.02,0-0.03,0-0.05,0.01
		c-0.81,0.53-1.63,0.8-2.44,0.8c-1.59,0-2.63-1.02-2.64-1.03c-0.15-0.15-0.15-0.39,0-0.54c0.07-0.07,0.17-0.11,0.27-0.11
		c0.1,0,0.2,0.04,0.27,0.11c0.03,0.03,0.83,0.81,2.07,0.81c0.76,0,1.54-0.28,2.3-0.85c0.06-0.05,0.14-0.07,0.23-0.07l0.03,0
		c0.1,0,0.2,0.04,0.27,0.11c0.03,0.03,0.83,0.81,2.07,0.81c0.76,0,1.52-0.28,2.28-0.83c0.05-0.04,0.1-0.06,0.15-0.08
		c0.02-0.01,0.04-0.01,0.06-0.01l0.03,0c0.04,0,0.06,0,0.08,0.01c0.08,0.02,0.16,0.06,0.21,0.12c0.15,0.14,0.9,0.79,2.06,0.79
		c0,0,0,0,0,0c0.76,0,1.54-0.28,2.3-0.85c0.07-0.05,0.14-0.07,0.23-0.07c0.12,0,0.24,0.06,0.31,0.16c0.12,0.17,0.09,0.41-0.08,0.53
		C18.89,21.62,17.97,21.95,17.06,21.95z"/>
</g>
</svg>
