<?xml version="1.0" encoding="utf-8"?>
<!-- Generator: Adobe Illustrator 19.2.1, SVG Export Plug-In . SVG Version: 6.00 Build 0)  -->
<svg version="1.1" id="Layer_2" xmlns="http://www.w3.org/2000/svg" xmlns:xlink="http://www.w3.org/1999/xlink" x="0px" y="0px"
	 viewBox="0 0 24 24" style="enable-background:new 0 0 24 24;" xml:space="preserve">
<style type="text/css">
	.st0{fill:#666666;}
</style>
<g>
	<g>
		<path class="st0" d="M13.17,12.6h-0.83V7.31c0-0.5-0.41-0.91-0.91-0.91c-0.5,0-0.91,0.41-0.91,0.91v5.29H9.69V7.31
			c0-0.96,0.78-1.74,1.74-1.74c0.96,0,1.74,0.78,1.74,1.74V12.6z"/>
	</g>
	<g>
		<path class="st0" d="M16.38,22.01H8.11v-2.58h8.27V22.01z M8.94,21.17h6.6v-0.91h-6.6V21.17z"/>
	</g>
	<g>
		<path class="st0" d="M12.34,10.05V7.31c0-0.5-0.41-0.91-0.91-0.91c-0.5,0-0.91,0.41-0.91,0.91v2.74L9.96,9.82
			C8.39,9.21,7.38,7.73,7.38,6.05c0-2.24,1.82-4.06,4.06-4.06s4.06,1.82,4.06,4.06c0,1.68-1.01,3.16-2.58,3.77L12.34,10.05z
			 M11.43,5.57c0.96,0,1.74,0.78,1.74,1.74v1.45c0.92-0.58,1.48-1.59,1.48-2.71c0-1.78-1.45-3.22-3.22-3.22
			c-1.78,0-3.22,1.45-3.22,3.22c0,1.12,0.57,2.13,1.48,2.71V7.31C9.69,6.35,10.47,5.57,11.43,5.57z"/>
	</g>
	<g>
		<path class="st0" d="M16.22,18.52H8.23L5.9,11.8c-0.19-0.6-0.08-1.24,0.28-1.74l1.98-3.45L8.5,7.37c0.34,0.76,0.99,1.38,1.77,1.68
			l0.26,0.1v3.45H9.69V9.71c-0.63-0.3-1.18-0.77-1.58-1.34l-1.25,2.17c-0.21,0.28-0.28,0.66-0.17,1l2.12,6.14h6.87
			c1.13-2.72-0.86-6.91-1.71-8.48c-0.32,0.26-0.68,0.47-1.07,0.62L12.6,9.04c0.45-0.18,0.86-0.45,1.18-0.8l0.38-0.41l0.28,0.49
			c0.86,1.49,3.55,6.63,1.89,9.96L16.22,18.52z"/>
	</g>
	<g>
		<path class="st0" d="M16.78,9.4C16.78,9.4,16.78,9.4,16.78,9.4c-0.88,0-2.07-0.38-2.71-0.61l-0.56-0.2l0.39-0.46
			c0.49-0.58,0.76-1.32,0.76-2.08c0-0.05,0-0.1-0.01-0.16L14.6,5.15l2.48,1.11c0.47,0.21,0.84,0.61,1.01,1.1
			c0.17,0.49,0.13,1.03-0.11,1.49C17.78,9.21,17.38,9.4,16.78,9.4z M14.88,8.18c0.56,0.18,1.33,0.38,1.9,0.38h0
			c0.33,0,0.44-0.07,0.45-0.1c0.14-0.26,0.16-0.55,0.06-0.83C17.2,7.36,17,7.14,16.74,7.02l-1.27-0.57
			C15.41,7.06,15.21,7.66,14.88,8.18z"/>
	</g>
</g>
</svg>
