<?xml version="1.0" encoding="utf-8"?>
<!-- Generator: Adobe Illustrator 19.2.1, SVG Export Plug-In . SVG Version: 6.00 Build 0)  -->
<svg version="1.1" id="Layer_2" xmlns="http://www.w3.org/2000/svg" xmlns:xlink="http://www.w3.org/1999/xlink" x="0px" y="0px"
	 viewBox="0 0 24 24" style="enable-background:new 0 0 24 24;" xml:space="preserve">
<style type="text/css">
	.st0{fill:#666666;}
</style>
<g>
	<path class="st0" d="M20.96,9.8h-1.87c-0.3,0-0.55-0.17-0.66-0.44c-0.11-0.28-0.06-0.57,0.16-0.78l1.32-1.32
		c0.19-0.19,0.3-0.45,0.3-0.73c0-0.27-0.11-0.53-0.3-0.73l-1.68-1.68c-0.39-0.39-1.07-0.39-1.45,0l-1.32,1.32
		c-0.21,0.21-0.5,0.27-0.78,0.16c-0.28-0.12-0.44-0.36-0.44-0.66V3.06c0-0.57-0.46-1.03-1.03-1.03h-2.38
		c-0.57,0-1.03,0.46-1.03,1.03v1.87c0,0.3-0.17,0.55-0.44,0.66C9.06,5.71,8.77,5.65,8.56,5.43L7.24,4.11
		c-0.39-0.39-1.07-0.39-1.45,0L4.1,5.8C3.9,5.99,3.8,6.25,3.8,6.53c0,0.27,0.11,0.53,0.3,0.73l1.32,1.32
		c0.21,0.21,0.27,0.5,0.16,0.78C5.46,9.63,5.21,9.8,4.91,9.8H3.04c-0.57,0-1.03,0.46-1.03,1.03v2.38c0,0.57,0.46,1.03,1.03,1.03
		h1.87c0.3,0,0.55,0.17,0.66,0.44c0.12,0.28,0.06,0.57-0.16,0.78L4.1,16.78c-0.19,0.19-0.3,0.45-0.3,0.73c0,0.28,0.11,0.53,0.3,0.73
		l1.68,1.68c0.39,0.39,1.07,0.39,1.45,0l1.32-1.32c0.21-0.21,0.5-0.27,0.78-0.16c0.28,0.12,0.44,0.36,0.44,0.66v1.87
		c0,0.57,0.46,1.03,1.03,1.03h2.38c0.57,0,1.03-0.46,1.03-1.03V19.1c0-0.3,0.17-0.55,0.44-0.66c0.28-0.12,0.57-0.06,0.78,0.16
		l1.32,1.32c0.39,0.39,1.07,0.39,1.45,0l1.68-1.68c0.19-0.19,0.3-0.45,0.3-0.73c0-0.27-0.11-0.53-0.3-0.73l-1.32-1.32
		c-0.21-0.21-0.27-0.5-0.16-0.78c0.11-0.28,0.36-0.44,0.66-0.44h1.87c0.57,0,1.03-0.46,1.03-1.03v-2.38
		C21.98,10.26,21.52,9.8,20.96,9.8L20.96,9.8z M21.25,13.21c0,0.16-0.13,0.29-0.29,0.29h-1.87c-0.6,0-1.12,0.34-1.35,0.9
		c-0.23,0.55-0.11,1.16,0.32,1.59l1.32,1.32c0.11,0.11,0.11,0.29,0,0.41l-1.68,1.68c-0.11,0.11-0.3,0.11-0.41,0l-1.32-1.32
		c-0.42-0.43-1.03-0.55-1.59-0.32c-0.55,0.23-0.9,0.75-0.9,1.35v1.87c0,0.16-0.13,0.29-0.29,0.29h-2.38c-0.16,0-0.29-0.13-0.29-0.29
		V19.1c0-0.6-0.34-1.12-0.9-1.35c-0.19-0.08-0.38-0.12-0.57-0.12c-0.37,0-0.74,0.15-1.02,0.43l-1.32,1.32
		c-0.11,0.11-0.3,0.11-0.41,0l-1.68-1.68c-0.11-0.11-0.11-0.3,0-0.41l1.32-1.32c0.42-0.42,0.55-1.03,0.31-1.59
		c-0.23-0.55-0.74-0.9-1.35-0.9H3.04c-0.16,0-0.29-0.13-0.29-0.29v-2.38c0-0.16,0.13-0.29,0.29-0.29h1.87c0.6,0,1.12-0.34,1.35-0.9
		c0.23-0.55,0.11-1.16-0.31-1.59L4.62,6.73c-0.11-0.11-0.11-0.3,0-0.41L6.3,4.64c0.11-0.11,0.3-0.11,0.41,0l1.32,1.32
		C8.46,6.38,9.07,6.5,9.62,6.27c0.56-0.23,0.9-0.74,0.9-1.35V3.06c0-0.16,0.13-0.29,0.29-0.29h2.38c0.16,0,0.29,0.13,0.29,0.29v1.87
		c0,0.6,0.34,1.12,0.9,1.35c0.55,0.23,1.16,0.11,1.59-0.31l1.32-1.32c0.11-0.11,0.3-0.11,0.41,0l1.68,1.68
		c0.11,0.11,0.11,0.3,0,0.41l-1.32,1.32c-0.42,0.42-0.55,1.03-0.32,1.59c0.23,0.55,0.75,0.9,1.35,0.9h1.87
		c0.16,0,0.29,0.13,0.29,0.29V13.21z M21.25,13.21"/>
	<path class="st0" d="M12,8.69c-1.84,0-3.33,1.49-3.33,3.33c0,1.83,1.49,3.33,3.33,3.33c1.83,0,3.33-1.49,3.33-3.33
		C15.33,10.18,13.84,8.69,12,8.69L12,8.69z M12,14.6c-1.43,0-2.59-1.16-2.59-2.59c0-1.43,1.16-2.59,2.59-2.59
		c1.43,0,2.59,1.16,2.59,2.59C14.59,13.44,13.43,14.6,12,14.6L12,14.6z M12,14.6"/>
</g>
</svg>
