<?xml version="1.0" encoding="utf-8"?>
<!-- Generator: Adobe Illustrator 19.2.1, SVG Export Plug-In . SVG Version: 6.00 Build 0)  -->
<svg version="1.1" id="Layer_2" xmlns="http://www.w3.org/2000/svg" xmlns:xlink="http://www.w3.org/1999/xlink" x="0px" y="0px"
	 viewBox="0 0 24 24" style="enable-background:new 0 0 24 24;" xml:space="preserve">
<style type="text/css">
	.st0{fill:#666666;}
</style>
<g>
	<g>
		<path class="st0" d="M4.66,20.95c-0.09,0-0.17-0.05-0.23-0.12l-2.25-3.15c-0.05-0.06-0.06-0.14-0.05-0.22
			c0.01-0.08,0.06-0.14,0.12-0.19l5.53-3.95L7.6,13.07l-0.77-0.13c-0.16-0.03-0.26-0.18-0.24-0.33c0.02-0.14,0.14-0.24,0.29-0.24
			c0.02,0,0.03,0,0.05,0L7.7,12.5l12.16-8.69l-0.13-0.18c-0.09-0.13-0.06-0.31,0.07-0.4c0.05-0.04,0.11-0.05,0.17-0.05
			c0.09,0,0.18,0.05,0.24,0.12l0.13,0.18l0.59-0.42c0.05-0.04,0.11-0.05,0.17-0.05c0.09,0,0.18,0.05,0.24,0.12l0.71,1
			c0.04,0.06,0.06,0.14,0.05,0.22c-0.01,0.08-0.05,0.14-0.12,0.19l-8.21,5.86l0.01,0.03c0.09,0.41-0.07,0.83-0.41,1.08l-2.73,1.95
			l0.03,0.04c0.03,0.04,0.07,0.08,0.1,0.12c0.23,0.32,0.32,0.71,0.26,1.11c-0.07,0.39-0.28,0.73-0.6,0.96
			c-0.25,0.18-0.55,0.28-0.86,0.28c-0.2,0-0.39-0.04-0.58-0.12l-0.03-0.01l-4.05,5.04C4.84,20.91,4.76,20.95,4.66,20.95L4.66,20.95z
			 M2.82,17.58l1.86,2.61l3.9-4.85l0-0.9l-0.46-0.64L2.82,17.58z M9.16,15.27l0.03,0.01c0.12,0.05,0.24,0.08,0.37,0.08
			c0.19,0,0.37-0.06,0.52-0.17c0.2-0.14,0.33-0.35,0.37-0.59s-0.02-0.48-0.16-0.67c-0.03-0.04-0.07-0.08-0.11-0.13l-0.03-0.03
			l-0.62,0.44l0.11,0.03c0.07,0.02,0.14,0.07,0.18,0.14c0.04,0.07,0.05,0.15,0.03,0.22c-0.03,0.13-0.15,0.21-0.28,0.21
			c-0.03,0-0.05,0-0.08-0.01l-0.33-0.09L9.16,15.27z M8.17,12.87l0.76,1.06l4.09-2.92c0.21-0.15,0.26-0.44,0.11-0.65l-0.49-0.69
			L8.17,12.87z M13.11,9.34l0.37,0.52l7.91-5.65l-0.38-0.52L13.11,9.34z"/>
	</g>
</g>
</svg>
