<?xml version="1.0" encoding="utf-8"?>
<!-- Generator: Adobe Illustrator 19.2.1, SVG Export Plug-In . SVG Version: 6.00 Build 0)  -->
<svg version="1.1" id="Layer_2" xmlns="http://www.w3.org/2000/svg" xmlns:xlink="http://www.w3.org/1999/xlink" x="0px" y="0px"
	 viewBox="0 0 24 24" style="enable-background:new 0 0 24 24;" xml:space="preserve">
<style type="text/css">
	.st0{fill:#666666;}
</style>
<g>
	<g>
		<path class="st0" d="M18.05,22H2.2V5.7c0-2.05,1.67-3.72,3.72-3.72h8.41c2.05,0,3.72,1.67,3.72,3.72V22z M3.03,21.17h14.18V5.7
			c0-1.59-1.29-2.88-2.88-2.88H5.92c-1.59,0-2.88,1.29-2.88,2.88V21.17z"/>
	</g>
	<g>
		<path class="st0" d="M12.46,18.66H7.79c-0.62,0-1.17-0.31-1.39-0.8l-1.18-2.58c-0.16-0.34-0.13-0.72,0.08-1.04
			c0.26-0.4,0.76-0.65,1.31-0.65h7.03c0.55,0,1.05,0.25,1.31,0.65c0.21,0.32,0.23,0.7,0.08,1.04l-1.18,2.58
			C13.63,18.35,13.08,18.66,12.46,18.66z M6.61,14.43c-0.32,0-0.53,0.14-0.61,0.27c-0.07,0.11-0.04,0.19-0.02,0.24l1.18,2.58
			c0.08,0.18,0.35,0.31,0.63,0.31h4.67c0.28,0,0.55-0.13,0.63-0.31l1.18-2.58c0.02-0.05,0.05-0.13-0.02-0.24
			c-0.08-0.12-0.29-0.27-0.61-0.27H6.61z"/>
	</g>
	<g>
		<rect x="9.71" y="5.32" class="st0" width="0.83" height="4.17"/>
	</g>
	<g>
		<rect x="6.37" y="5.32" class="st0" width="0.83" height="4.17"/>
	</g>
	<g>
		<rect x="13.04" y="5.32" class="st0" width="0.83" height="4.17"/>
	</g>
	<g>
		<g>
			<polygon class="st0" points="20.55,17 17.63,17 17.63,16.16 19.71,16.16 19.71,9.91 20.55,9.91 			"/>
		</g>
		<g>
			<path class="st0" d="M20.13,10.32c-0.92,0-1.67-0.75-1.67-1.67s0.75-1.67,1.67-1.67s1.67,0.75,1.67,1.67S21.05,10.32,20.13,10.32
				z M20.13,7.82c-0.46,0-0.83,0.37-0.83,0.83c0,0.46,0.37,0.83,0.83,0.83c0.46,0,0.83-0.37,0.83-0.83
				C20.97,8.2,20.59,7.82,20.13,7.82z"/>
		</g>
	</g>
</g>
</svg>
