<?xml version="1.0" encoding="utf-8"?>
<!-- Generator: Adobe Illustrator 19.2.1, SVG Export Plug-In . SVG Version: 6.00 Build 0)  -->
<svg version="1.1" id="Layer_2" xmlns="http://www.w3.org/2000/svg" xmlns:xlink="http://www.w3.org/1999/xlink" x="0px" y="0px"
	 viewBox="0 0 24 24" style="enable-background:new 0 0 24 24;" xml:space="preserve">
<style type="text/css">
	.st0{fill:#666666;}
</style>
<g>
	<path class="st0" d="M2.3,19.18c-0.15,0-0.28-0.13-0.28-0.28V8.04c0-0.15,0.13-0.28,0.28-0.28h6.19V4.6c0-0.15,0.13-0.28,0.28-0.28
		h6.47c0.15,0,0.28,0.13,0.28,0.28v5.96h6.19c0.15,0,0.28,0.13,0.28,0.28v8.05c0,0.15-0.13,0.28-0.28,0.28H2.3z M15.51,18.62h5.91
		v-7.49h-5.91V18.62z M9.04,18.62h5.91V4.88H9.04V18.62z M2.58,18.62h5.91V8.32H2.58V18.62z"/>
	<path class="st0" d="M10.35,11.68c-0.15,0-0.28-0.13-0.28-0.28v-0.51c0-0.15,0.13-0.28,0.28-0.28c0.15,0,0.28,0.13,0.28,0.28v0.51
		C10.63,11.55,10.5,11.68,10.35,11.68z"/>
	<path class="st0" d="M10.35,9.55c-0.15,0-0.28-0.13-0.28-0.28V6.23c0-0.15,0.13-0.28,0.28-0.28c0.15,0,0.28,0.13,0.28,0.28v3.04
		C10.63,9.43,10.5,9.55,10.35,9.55z"/>
	<path class="st0" d="M12.29,17.1c-0.15,0-0.28-0.13-0.28-0.28v-2.54l-0.7,0.7c-0.05,0.05-0.12,0.08-0.2,0.08
		c-0.07,0-0.15-0.03-0.2-0.08c-0.05-0.05-0.08-0.12-0.08-0.2c0-0.07,0.03-0.14,0.08-0.2l1.18-1.18c0.05-0.05,0.12-0.08,0.2-0.08
		c0.04,0,0.07,0.01,0.11,0.02c0.1,0.04,0.17,0.14,0.17,0.26v3.21C12.57,16.97,12.45,17.1,12.29,17.1z"/>
	<path class="st0" d="M4.78,17.1c-0.11,0-0.22-0.07-0.26-0.17c-0.04-0.1-0.02-0.22,0.06-0.3l1.47-1.47
		c0.25-0.25,0.17-0.56,0.13-0.64c-0.03-0.08-0.16-0.35-0.5-0.37l-0.03,0c-0.42,0-0.77,0.34-0.77,0.77c0,0.15-0.13,0.28-0.28,0.28
		s-0.28-0.13-0.28-0.28c0-0.73,0.59-1.33,1.33-1.33c0.02,0,0.04,0,0.06,0c0.45,0.02,0.84,0.3,1,0.72c0.17,0.44,0.07,0.91-0.26,1.24
		l-0.99,0.99h1.13c0.15,0,0.28,0.13,0.28,0.28c0,0.15-0.13,0.28-0.28,0.28H4.78z"/>
	<path class="st0" d="M18.49,17.1c-0.6,0-1.09-0.49-1.09-1.09c0-0.15,0.13-0.28,0.28-0.28c0.15,0,0.28,0.13,0.28,0.28
		c0,0.29,0.24,0.53,0.53,0.53c0.29,0,0.53-0.24,0.53-0.53c0-0.29-0.23-0.52-0.53-0.52c-0.15,0-0.28-0.13-0.28-0.28
		c0-0.15,0.13-0.28,0.28-0.28c0.3,0,0.53-0.23,0.53-0.52c0-0.29-0.24-0.53-0.53-0.53c-0.29,0-0.53,0.24-0.53,0.53
		c0,0.15-0.13,0.28-0.28,0.28c-0.15,0-0.28-0.13-0.28-0.28c0-0.6,0.49-1.09,1.09-1.09c0.6,0,1.09,0.49,1.09,1.09
		c0,0.26-0.1,0.52-0.28,0.71l-0.07,0.08l0.07,0.08c0.18,0.2,0.28,0.45,0.28,0.71C19.58,16.61,19.09,17.1,18.49,17.1z"/>
</g>
</svg>
