<?xml version="1.0" encoding="utf-8"?>
<!-- Generator: Adobe Illustrator 19.2.1, SVG Export Plug-In . SVG Version: 6.00 Build 0)  -->
<svg version="1.1" id="Layer_2" xmlns="http://www.w3.org/2000/svg" xmlns:xlink="http://www.w3.org/1999/xlink" x="0px" y="0px"
	 viewBox="0 0 24 24" style="enable-background:new 0 0 24 24;" xml:space="preserve">
<style type="text/css">
	.st0{fill:#666666;}
</style>
<path class="st0" d="M19,21.83c-0.95,0-1.83-0.44-2.39-1.17c-0.57,0.73-1.44,1.17-2.39,1.17s-1.83-0.44-2.39-1.17
	c-0.57,0.73-1.44,1.17-2.39,1.17s-1.83-0.44-2.39-1.17c-0.57,0.73-1.44,1.17-2.39,1.17c-1.23,0-2.33-0.74-2.8-1.87
	c-0.08-0.19,0.01-0.4,0.2-0.47c0.19-0.08,0.4,0.01,0.47,0.2c0.36,0.87,1.19,1.43,2.13,1.43c0.88,0,1.68-0.49,2.07-1.29
	c0.06-0.12,0.19-0.2,0.32-0.2c0.14,0,0.26,0.08,0.32,0.2c0.39,0.79,1.18,1.29,2.07,1.29s1.68-0.49,2.07-1.29
	c0.06-0.12,0.19-0.2,0.32-0.2c0.14,0,0.26,0.08,0.32,0.2c0.39,0.79,1.18,1.29,2.07,1.29s1.68-0.49,2.07-1.29
	c0.06-0.12,0.19-0.2,0.32-0.2l0,0c0.14,0,0.26,0.08,0.32,0.2c0.39,0.79,1.18,1.29,2.07,1.29c0.94,0,1.77-0.56,2.13-1.43
	c0.08-0.18,0.29-0.27,0.47-0.2c0.19,0.08,0.27,0.29,0.2,0.47C21.33,21.09,20.23,21.83,19,21.83z M19,18.34
	c-0.95,0-1.83-0.44-2.39-1.17c-0.57,0.73-1.44,1.17-2.39,1.17s-1.83-0.44-2.39-1.17c-0.57,0.73-1.44,1.17-2.39,1.17
	s-1.83-0.44-2.39-1.17c-0.57,0.73-1.44,1.17-2.39,1.17c-1.23,0-2.33-0.74-2.8-1.87c-0.08-0.19,0.01-0.4,0.2-0.47
	c0.19-0.08,0.4,0.01,0.47,0.2c0.36,0.87,1.19,1.43,2.13,1.43c0.88,0,1.68-0.49,2.07-1.29c0.06-0.12,0.19-0.2,0.32-0.2
	c0.14,0,0.26,0.08,0.32,0.2c0.39,0.79,1.18,1.29,2.07,1.29s1.68-0.49,2.07-1.29c0.06-0.12,0.19-0.2,0.32-0.2
	c0.14,0,0.26,0.08,0.32,0.2c0.39,0.79,1.18,1.29,2.07,1.29s1.68-0.49,2.07-1.29c0.06-0.12,0.19-0.2,0.32-0.2l0,0
	c0.14,0,0.26,0.08,0.32,0.2c0.39,0.79,1.18,1.29,2.07,1.29c0.94,0,1.77-0.56,2.13-1.43c0.08-0.18,0.29-0.27,0.47-0.2
	c0.19,0.08,0.27,0.29,0.2,0.47C21.33,17.61,20.23,18.34,19,18.34z M18.31,16.12c-0.2,0-0.36-0.16-0.36-0.36v-2.06h-7.69v2.06
	c0,0.2-0.16,0.36-0.36,0.36s-0.36-0.16-0.36-0.36V3.95c0-0.98,0.8-1.78,1.78-1.78s1.78,0.8,1.78,1.78c0,0.2-0.16,0.36-0.36,0.36
	s-0.36-0.16-0.36-0.36c0-0.58-0.47-1.05-1.06-1.05s-1.05,0.47-1.05,1.05v4.93h7.69V3.95c0-0.98,0.8-1.78,1.78-1.78
	s1.78,0.8,1.78,1.78c0,0.2-0.16,0.36-0.36,0.36s-0.36-0.16-0.36-0.36c0-0.58-0.47-1.05-1.06-1.05s-1.05,0.47-1.05,1.05v11.8
	C18.68,15.95,18.51,16.12,18.31,16.12z M10.26,12.97h7.69V9.61h-7.69V12.97z"/>
</svg>
