<?xml version="1.0" encoding="utf-8"?>
<!-- Generator: Adobe Illustrator 19.2.1, SVG Export Plug-In . SVG Version: 6.00 Build 0)  -->
<svg version="1.1" id="Layer_2" xmlns="http://www.w3.org/2000/svg" xmlns:xlink="http://www.w3.org/1999/xlink" x="0px" y="0px"
	 viewBox="0 0 24 24" style="enable-background:new 0 0 24 24;" xml:space="preserve">
<style type="text/css">
	.st0{fill:#666666;}
</style>
<g>
	<g>
		<path class="st0" d="M10.29,17.44H3.72c-0.95,0-1.72-0.77-1.72-1.72V9.14c0-0.95,0.77-1.72,1.72-1.72h6.58
			c0.95,0,1.72,0.77,1.72,1.72v6.58C12.02,16.67,11.24,17.44,10.29,17.44z M3.72,8.25c-0.49,0-0.89,0.4-0.89,0.89v6.58
			c0,0.49,0.4,0.89,0.89,0.89h6.58c0.49,0,0.89-0.4,0.89-0.89V9.14c0-0.49-0.4-0.89-0.89-0.89H3.72z"/>
	</g>
	<g>
		<g>
			<circle class="st0" cx="5.33" cy="9.92" r="0.84"/>
		</g>
		<g>
			<circle class="st0" cx="5.33" cy="12.43" r="0.84"/>
		</g>
		<g>
			<circle class="st0" cx="5.33" cy="14.94" r="0.84"/>
		</g>
	</g>
	<g>
		<g>
			<circle class="st0" cx="8.68" cy="9.92" r="0.84"/>
		</g>
		<g>
			<circle class="st0" cx="8.68" cy="12.43" r="0.84"/>
		</g>
		<g>
			<circle class="st0" cx="8.68" cy="14.94" r="0.84"/>
		</g>
	</g>
	<g>
		<path class="st0" d="M14.63,17.44L14.63,17.44c-0.62,0-1.19-0.33-1.5-0.86l-1.95-3.37V9.14c0-0.16-0.04-0.31-0.13-0.46l-0.22-0.36
			l5.34-3.08c0.26-0.15,0.56-0.23,0.86-0.23c0.61,0,1.19,0.33,1.49,0.86l3.29,5.7c0.48,0.82,0.19,1.88-0.63,2.36l-5.7,3.29
			C15.22,17.36,14.93,17.44,14.63,17.44z M12.02,12.98l1.84,3.18c0.24,0.41,0.8,0.56,1.21,0.33l5.7-3.29
			c0.42-0.24,0.57-0.79,0.33-1.21l-3.29-5.7c-0.24-0.41-0.8-0.56-1.21-0.33l-4.64,2.68c0.05,0.16,0.08,0.33,0.08,0.5V12.98z"/>
	</g>
	<g>
		<path class="st0" d="M17.9,12.31L17.9,12.31c-0.3,0-0.58-0.16-0.72-0.42c-0.11-0.19-0.14-0.42-0.08-0.63
			c0.06-0.22,0.2-0.4,0.39-0.51c0.39-0.22,0.92-0.08,1.14,0.31c0.11,0.19,0.14,0.42,0.08,0.63c-0.06,0.22-0.2,0.4-0.39,0.51
			C18.19,12.27,18.05,12.31,17.9,12.31z"/>
	</g>
	<g>
		<path class="st0" d="M16.65,10.14c-0.3,0-0.58-0.16-0.72-0.42c-0.23-0.4-0.09-0.91,0.31-1.14c0.39-0.22,0.92-0.08,1.14,0.31
			c0.11,0.19,0.14,0.42,0.08,0.63c-0.06,0.22-0.2,0.4-0.39,0.51C16.94,10.1,16.8,10.14,16.65,10.14z"/>
	</g>
	<g>
		<path class="st0" d="M15.01,13.98c-0.3,0-0.58-0.16-0.72-0.42c-0.11-0.19-0.14-0.42-0.08-0.63c0.06-0.22,0.2-0.4,0.39-0.51
			c0.39-0.22,0.92-0.08,1.14,0.31c0.11,0.19,0.14,0.42,0.08,0.63c-0.06,0.22-0.2,0.4-0.39,0.51C15.3,13.95,15.15,13.98,15.01,13.98z
			"/>
	</g>
	<g>
		<path class="st0" d="M13.75,11.81L13.75,11.81c-0.3,0-0.58-0.16-0.72-0.42c-0.23-0.4-0.09-0.91,0.31-1.14
			c0.39-0.22,0.92-0.08,1.14,0.31c0.11,0.19,0.14,0.42,0.08,0.63c-0.06,0.22-0.2,0.4-0.39,0.51C14.05,11.77,13.9,11.81,13.75,11.81z
			"/>
	</g>
</g>
</svg>
