<?xml version="1.0" encoding="utf-8"?>
<!-- Generator: Adobe Illustrator 19.2.1, SVG Export Plug-In . SVG Version: 6.00 Build 0)  -->
<svg version="1.1" id="Layer_2" xmlns="http://www.w3.org/2000/svg" xmlns:xlink="http://www.w3.org/1999/xlink" x="0px" y="0px"
	 viewBox="0 0 24 24" style="enable-background:new 0 0 24 24;" xml:space="preserve">
<style type="text/css">
	.st0{fill:#666666;}
</style>
<path class="st0" d="M20.94,12.4c-0.01-0.29-0.08-0.56-0.19-0.82c1.69-2.79,1.53-6.06-0.43-8.02c-1.19-1.19-2.85-1.74-4.7-1.56
	c-1.82,0.17-3.59,1.04-4.99,2.45c-1.4,1.4-2.27,3.18-2.45,4.99c-0.12,1.23,0.09,2.39,0.6,3.37c0,0.02-0.01,0.04-0.01,0.06
	c0,0.01-0.04,0.53-0.27,1.03c-0.13,0.27-0.27,0.47-0.38,0.61c-0.16-0.08-0.34-0.13-0.53-0.13c-0.3,0-0.59,0.12-0.8,0.33l-4.39,4.39
	c-0.44,0.44-0.44,1.16,0,1.6l0.78,0.78c0.21,0.21,0.5,0.33,0.8,0.33c0.3,0,0.59-0.12,0.8-0.33l4.39-4.39
	c0.36-0.36,0.43-0.9,0.2-1.33c0.14-0.11,0.34-0.25,0.61-0.38c0.49-0.23,1.02-0.27,1.03-0.27c0.02,0,0.04,0,0.06-0.01
	c0.82,0.42,1.75,0.63,2.72,0.63c1.32,0,2.71-0.39,4-1.18c0.26,0.11,0.53,0.18,0.82,0.18c0,0,0.01,0,0.01,0c0,0,0.01,0,0.01,0
	c0.02,0,0.04,0,0.06,0c0.6,0,1.16-0.23,1.59-0.66c0.42-0.42,0.66-0.99,0.66-1.59c0-0.02,0-0.05,0-0.07
	C20.94,12.41,20.94,12.4,20.94,12.4z M18.31,13.98c-0.26-0.07-0.5-0.2-0.7-0.4c-0.19-0.19-0.33-0.43-0.4-0.69
	c0.47-0.07,0.92-0.29,1.26-0.63c0.34-0.34,0.56-0.79,0.63-1.26c0.26,0.07,0.49,0.2,0.69,0.4c0.2,0.2,0.33,0.44,0.4,0.7
	c-0.47,0.07-0.91,0.29-1.25,0.63C18.6,13.07,18.38,13.51,18.31,13.98z M18.7,10.24c-0.6,0-1.16,0.23-1.59,0.66
	c-0.42,0.42-0.66,0.99-0.66,1.59c0,0.1,0.01,0.2,0.02,0.29c-0.87,0.49-1.83,0.75-2.72,0.72c-0.96-0.03-1.79-0.36-2.4-0.97
	c-1.57-1.57-1.2-4.51,0.83-6.54c1-1,2.23-1.62,3.48-1.77c1.22-0.14,2.31,0.19,3.06,0.94c1.2,1.2,1.3,3.24,0.26,5.1
	C18.89,10.25,18.79,10.24,18.7,10.24z M18.39,10.98c-0.06,0.29-0.2,0.56-0.42,0.78c-0.22,0.22-0.49,0.36-0.78,0.42
	c0.06-0.29,0.2-0.57,0.42-0.78C17.83,11.18,18.1,11.04,18.39,10.98z M8.68,16.59L4.3,20.97C4.22,21.05,4.11,21.1,4,21.1
	c-0.11,0-0.22-0.04-0.3-0.12l-0.78-0.78c-0.17-0.17-0.17-0.44,0-0.6L7.3,15.2c0.08-0.08,0.19-0.12,0.3-0.12
	c0.11,0,0.22,0.04,0.3,0.12l0.78,0.78C8.85,16.15,8.85,16.42,8.68,16.59z M9.69,14.74c-0.34,0.16-0.6,0.34-0.77,0.49l-0.26-0.26
	c0.14-0.17,0.33-0.43,0.49-0.77c0.08-0.18,0.15-0.36,0.19-0.52c0.13,0.16,0.27,0.32,0.41,0.47c0.15,0.15,0.3,0.29,0.47,0.41
	C10.05,14.59,9.87,14.66,9.69,14.74z M10.25,13.64c-1.03-1.03-1.52-2.5-1.36-4.13c0.16-1.66,0.96-3.28,2.24-4.56
	c2.64-2.64,6.54-3.04,8.7-0.88c1.66,1.66,1.84,4.43,0.49,6.87c-0.01-0.01-0.02-0.02-0.03-0.03c-0.18-0.18-0.39-0.33-0.61-0.44
	c0.51-0.96,0.76-1.97,0.72-2.96c-0.04-1.13-0.44-2.11-1.18-2.84c-0.91-0.91-2.2-1.31-3.64-1.14c-1.41,0.17-2.79,0.87-3.9,1.97
	c-1.11,1.11-1.81,2.49-1.97,3.9c-0.17,1.44,0.24,2.73,1.14,3.64c0.74,0.74,1.74,1.15,2.88,1.18c0.05,0,0.09,0,0.14,0
	c0.94,0,1.9-0.25,2.81-0.74c0.11,0.22,0.25,0.43,0.43,0.61c0.01,0.01,0.03,0.02,0.04,0.04C14.7,15.48,11.92,15.31,10.25,13.64z
	 M19.02,14c0.06-0.29,0.2-0.56,0.42-0.77c0.22-0.22,0.48-0.36,0.77-0.42c-0.06,0.29-0.2,0.56-0.42,0.77
	C19.57,13.79,19.31,13.94,19.02,14z"/>
</svg>
