<?xml version="1.0" encoding="utf-8"?>
<!-- Generator: Adobe Illustrator 19.2.1, SVG Export Plug-In . SVG Version: 6.00 Build 0)  -->
<svg version="1.1" id="Layer_2" xmlns="http://www.w3.org/2000/svg" xmlns:xlink="http://www.w3.org/1999/xlink" x="0px" y="0px"
	 viewBox="0 0 24 24" style="enable-background:new 0 0 24 24;" xml:space="preserve">
<style type="text/css">
	.st0{fill:#666666;}
</style>
<g>
	<g>
		<g>
			<path class="st0" d="M12.08,21.99c-3.54,0-6.84-1.9-8.61-4.97c-1.33-2.3-1.68-4.97-0.99-7.53c0.69-2.56,2.33-4.7,4.63-6.03
				c1.51-0.87,3.22-1.33,4.96-1.33c3.54,0,6.84,1.9,8.61,4.97c1.33,2.3,1.68,4.97,0.99,7.53c-0.69,2.56-2.33,4.7-4.63,6.03
				C15.53,21.53,13.82,21.99,12.08,21.99z M12.07,2.96c-1.59,0-3.16,0.42-4.54,1.22C5.42,5.39,3.92,7.36,3.29,9.7
				c-0.63,2.35-0.31,4.8,0.91,6.91c1.62,2.81,4.64,4.55,7.89,4.55c1.59,0,3.16-0.42,4.54-1.22c2.11-1.22,3.61-3.18,4.24-5.53
				c0.63-2.35,0.31-4.8-0.91-6.91C18.34,4.7,15.31,2.96,12.07,2.96z"/>
		</g>
		<g>
			<path class="st0" d="M12.08,18.56c-2.32,0-4.48-1.25-5.63-3.25c-0.87-1.5-1.1-3.25-0.65-4.93C6.25,8.7,7.32,7.3,8.83,6.43
				c0.99-0.57,2.11-0.87,3.24-0.87c2.32,0,4.48,1.25,5.63,3.25c0.87,1.5,1.1,3.25,0.65,4.93c-0.45,1.68-1.52,3.08-3.03,3.95
				C14.34,18.26,13.22,18.56,12.08,18.56z M12.07,6.39c-0.99,0-1.97,0.26-2.83,0.76C7.93,7.91,6.99,9.13,6.6,10.59
				c-0.39,1.46-0.19,2.99,0.57,4.3c1.01,1.75,2.89,2.84,4.92,2.84c0.99,0,1.97-0.26,2.83-0.76c1.31-0.76,2.25-1.98,2.64-3.44
				c0.39-1.46,0.19-2.99-0.57-4.3C15.98,7.47,14.09,6.39,12.07,6.39z"/>
		</g>
		<g>
			
				<rect x="2.73" y="13.26" transform="matrix(0.9781 -0.208 0.208 0.9781 -2.747 1.2271)" class="st0" width="3.46" height="0.83"/>
		</g>
		<g>
			
				<rect x="9.53" y="19.39" transform="matrix(0.1045 -0.9945 0.9945 0.1045 -9.6067 28.9326)" class="st0" width="3.46" height="0.83"/>
		</g>
		<g>
			
				<rect x="18.77" y="13.5" transform="matrix(0.4067 -0.9136 0.9136 0.4067 -2.5259 26.5614)" class="st0" width="0.83" height="3.46"/>
		</g>
		<g>
			
				<rect x="15.55" y="5.86" transform="matrix(0.669 -0.7433 0.7433 0.669 1.0575 14.9238)" class="st0" width="3.46" height="0.83"/>
		</g>
		<g>
			<rect x="7.77" y="3.59" transform="matrix(0.866 -0.5 0.5 0.866 -1.5626 4.8049)" class="st0" width="0.83" height="3.46"/>
		</g>
	</g>
	<g>
		<path class="st0" d="M14.67,15.96l-2.6-1.36l-2.6,1.36l0.5-2.89l-2.1-2.05l2.9-0.42l1.3-2.63l1.3,2.63l2.9,0.42l-2.1,2.05
			L14.67,15.96z M12.08,13.66l1.5,0.79l-0.29-1.67l1.21-1.18l-1.67-0.24l-0.75-1.52l-0.75,1.52l-1.67,0.24l1.21,1.18l-0.29,1.67
			L12.08,13.66z"/>
	</g>
</g>
</svg>
