<?xml version="1.0" encoding="utf-8"?>
<!-- Generator: Adobe Illustrator 19.2.1, SVG Export Plug-In . SVG Version: 6.00 Build 0)  -->
<svg version="1.1" id="Layer_2" xmlns="http://www.w3.org/2000/svg" xmlns:xlink="http://www.w3.org/1999/xlink" x="0px" y="0px"
	 viewBox="0 0 24 24" style="enable-background:new 0 0 24 24;" xml:space="preserve">
<style type="text/css">
	.st0{fill:#666666;}
</style>
<g>
	<path class="st0" d="M8.22,5.6c0-0.32-0.32-0.52-0.83-0.52S6.57,5.27,6.57,5.6v2.53c0,0.46,0.37,0.83,0.82,0.83h2.9V8.33h-2.9
		c-0.11,0-0.2-0.09-0.2-0.2V5.72C7.25,5.7,7.32,5.7,7.39,5.7c0.07,0,0.15,0.01,0.2,0.02v1.9v0.31h0.31h2.39V7.3H8.22V5.6z"/>
	<path class="st0" d="M13.59,7.68c0-3.15-2.56-5.71-5.71-5.71c-3.15,0-5.71,2.56-5.71,5.71c0,3.15,2.56,5.71,5.71,5.71
		C11.03,13.39,13.59,10.83,13.59,7.68z M7.88,12.79c-2.82,0-5.12-2.29-5.12-5.11c0-2.82,2.29-5.12,5.12-5.12
		C10.7,2.56,13,4.86,13,7.68C13,10.5,10.7,12.79,7.88,12.79z"/>
	<polygon class="st0" points="21.8,7.45 21.8,7.42 15.57,7.42 15.57,8.06 21.19,8.06 21.19,21.4 8.82,21.4 8.82,15.39 8.18,15.39 
		8.18,21.4 8.18,21.99 8.18,22.03 21.83,22.03 21.83,21.99 21.83,21.4 21.83,7.45 	"/>
	<path class="st0" d="M18.54,15.64v-0.12v-0.19v0v-0.21v-0.79v-0.41v-0.21v-0.1h-0.31h-7.09v0.1v0.31v0.21v0.79v0.41v0.21v0.1h0.31
		h0.34h6.75V15.64z M11.76,14.33h6.15v0.69h-6.15V14.33z"/>
	<path class="st0" d="M11.13,16.97v0.31v0.31v0.79v0.31v0.31h0.31h6.78h0.31V18.7v-0.31V17.6v-0.31v-0.31h-0.31h-6.78H11.13z
		 M17.91,17.6v0.79h-6.15V17.6H17.91z"/>
	<path class="st0" d="M18.22,12.48h0.31v-0.31v-0.31v-0.79v-0.31v-0.31h-0.31h-3.81H14.1v0.31v0.31v0.79v0.31v0.31h0.31H18.22z
		 M14.72,11.07h3.19v0.79h-3.19V11.07z"/>
</g>
</svg>
