<?xml version="1.0" encoding="utf-8"?>
<!-- Generator: Adobe Illustrator 19.2.1, SVG Export Plug-In . SVG Version: 6.00 Build 0)  -->
<svg version="1.1" id="Layer_2" xmlns="http://www.w3.org/2000/svg" xmlns:xlink="http://www.w3.org/1999/xlink" x="0px" y="0px"
	 viewBox="0 0 24 24" style="enable-background:new 0 0 24 24;" xml:space="preserve">
<style type="text/css">
	.st0{fill:#666666;}
</style>
<path class="st0" d="M22.01,8.61c0,0.77-0.54,1.41-1.26,1.58l-0.02,4.92c0,1.32-1.08,2.39-2.4,2.39l-0.87,0l0,1.77
	c0,1.32-1.08,2.39-2.4,2.39L4.38,21.63c-1.32,0-2.39-1.08-2.39-2.4L2.01,6.98c0-1.31,1.06-2.38,2.37-2.39l0-1.21
	c0-0.58,0.47-1.04,1.05-1.04l8.64,0.01c0.58,0,1.04,0.47,1.04,1.05l0,1.21c1.31,0.01,2.37,1.08,2.37,2.39l-0.02,9.75l0.87,0
	c0.91,0,1.65-0.74,1.65-1.65l0.02-4.92c-0.71-0.17-1.25-0.81-1.25-1.58c0-0.89,0.73-1.62,1.63-1.62S22.01,7.71,22.01,8.61
	L22.01,8.61z M5.43,3.08c-0.17,0-0.3,0.14-0.3,0.3l0,1.21l9.24,0.01l0-1.21c0-0.17-0.13-0.3-0.3-0.3L5.43,3.08L5.43,3.08z
	 M16.72,19.26L16.74,7c0-0.91-0.74-1.65-1.65-1.65L4.41,5.33c-0.91,0-1.65,0.74-1.65,1.65L2.74,19.24c0,0.91,0.74,1.65,1.65,1.65
	l10.69,0.02C15.98,20.91,16.72,20.17,16.72,19.26L16.72,19.26z M20.38,9.49c0.49,0,0.88-0.39,0.88-0.88c0-0.49-0.39-0.88-0.88-0.88
	c-0.49,0-0.88,0.39-0.88,0.88C19.5,9.09,19.9,9.49,20.38,9.49L20.38,9.49z M9.73,17.58c0.41,0,0.75-0.33,0.75-0.75
	s-0.33-0.75-0.75-0.75c-0.41,0-0.75,0.33-0.75,0.75S9.32,17.58,9.73,17.58L9.73,17.58z M9.73,15.34c0.82,0,1.49,0.67,1.49,1.49
	c0,0.82-0.67,1.49-1.49,1.49c-0.82,0-1.49-0.67-1.49-1.49C8.24,16.01,8.91,15.34,9.73,15.34L9.73,15.34z M14.67,7.05
	c0.2,0,0.37,0.17,0.37,0.37l-0.01,4.98c0,0.2-0.17,0.37-0.37,0.37l-9.84-0.02c-0.2,0-0.37-0.17-0.37-0.37l0.01-4.98
	c0-0.21,0.17-0.37,0.37-0.37L14.67,7.05L14.67,7.05z M14.29,9.54l0-1.75l-2.54,0l0,1.75L14.29,9.54L14.29,9.54z M11.01,12.03
	l0.01-4.24l-2.54,0l-0.01,4.24L11.01,12.03L11.01,12.03z M5.2,7.78l-0.01,4.24l2.54,0l0.01-4.24L5.2,7.78L5.2,7.78z M11.75,12.03
	l2.54,0l0-1.75l-2.54,0L11.75,12.03L11.75,12.03z M5.93,15.34c0.82,0,1.49,0.67,1.49,1.49c0,0.82-0.67,1.49-1.49,1.49
	c-0.82,0-1.49-0.67-1.49-1.49C4.44,16,5.11,15.33,5.93,15.34L5.93,15.34z M5.93,17.57c0.41,0,0.75-0.33,0.75-0.75
	s-0.33-0.75-0.75-0.75c-0.41,0-0.75,0.33-0.75,0.75S5.52,17.57,5.93,17.57L5.93,17.57z M13.54,15.35c0.82,0,1.49,0.67,1.49,1.49
	c0,0.82-0.67,1.49-1.49,1.49c-0.82,0-1.49-0.67-1.49-1.49C12.05,16.01,12.71,15.35,13.54,15.35L13.54,15.35z M13.53,17.59
	c0.41,0,0.75-0.33,0.75-0.75c0-0.41-0.33-0.75-0.75-0.75c-0.41,0-0.75,0.33-0.75,0.75C12.79,17.25,13.12,17.58,13.53,17.59
	L13.53,17.59z"/>
</svg>
