<?xml version="1.0" encoding="utf-8"?>
<!-- Generator: Adobe Illustrator 19.2.1, SVG Export Plug-In . SVG Version: 6.00 Build 0)  -->
<svg version="1.1" id="Layer_2" xmlns="http://www.w3.org/2000/svg" xmlns:xlink="http://www.w3.org/1999/xlink" x="0px" y="0px"
	 viewBox="0 0 24 24" style="enable-background:new 0 0 24 24;" xml:space="preserve">
<style type="text/css">
	.st0{fill:#666666;}
</style>
<g>
	<g>
		<path class="st0" d="M12,19.86c-5.48,0-9.93-4.46-9.93-9.93V6.66c0-1.39,1.13-2.52,2.52-2.52h14.83c1.39,0,2.52,1.13,2.52,2.52
			v3.28C21.93,15.41,17.48,19.86,12,19.86z M4.59,4.97c-0.93,0-1.69,0.76-1.69,1.69v3.28c0,5.02,4.08,9.1,9.1,9.1
			c5.02,0,9.1-4.08,9.1-9.1V6.66c0-0.93-0.76-1.69-1.69-1.69H4.59z"/>
	</g>
	<g>
		<path class="st0" d="M12,14.48c-3.42,0-6.21-2.78-6.21-6.21h0.83c0,2.97,2.41,5.38,5.38,5.38c2.97,0,5.38-2.41,5.38-5.38h0.83
			C18.21,11.7,15.42,14.48,12,14.48z"/>
	</g>
	<g>
		<g>
			<g>
				<rect x="17.61" y="8.28" class="st0" width="1.24" height="0.83"/>
			</g>
			<g>
				<rect x="17.28" y="10.55" transform="matrix(0.5 -0.866 0.866 0.5 -0.8282 20.9102)" class="st0" width="0.83" height="1.24"/>
			</g>
			<g>
				
					<rect x="15.73" y="13.03" transform="matrix(0.7072 -0.707 0.707 0.7072 -4.9269 15.4144)" class="st0" width="0.83" height="1.24"/>
			</g>
		</g>
		<g>
			<g>
				<rect x="5.15" y="8.28" class="st0" width="1.24" height="0.83"/>
			</g>
			<g>
				
					<rect x="5.68" y="10.76" transform="matrix(0.8661 -0.4999 0.4999 0.8661 -4.7409 4.6485)" class="st0" width="1.24" height="0.83"/>
			</g>
			<g>
				
					<rect x="7.23" y="13.24" transform="matrix(0.7071 -0.7071 0.7071 0.7071 -7.3557 9.5528)" class="st0" width="1.24" height="0.83"/>
			</g>
		</g>
	</g>
	<g>
		<rect x="9.52" y="6.62" class="st0" width="4.97" height="0.83"/>
	</g>
</g>
</svg>
