<?xml version="1.0" encoding="utf-8"?>
<!-- Generator: Adobe Illustrator 19.2.1, SVG Export Plug-In . SVG Version: 6.00 Build 0)  -->
<svg version="1.1" id="Layer_2" xmlns="http://www.w3.org/2000/svg" xmlns:xlink="http://www.w3.org/1999/xlink" x="0px" y="0px"
	 viewBox="0 0 24 24" style="enable-background:new 0 0 24 24;" xml:space="preserve">
<style type="text/css">
	.st0{fill:#666666;stroke:#000000;stroke-width:2;stroke-miterlimit:10;}
	.st1{fill:#666666;}
</style>
<g>
	<g>
		<path class="st0" d="M14,14.87"/>
	</g>
	<g>
		<path class="st0" d="M12.21,14.8"/>
	</g>
	<g>
		<path class="st0" d="M14.72,16.14"/>
	</g>
	<g>
		<path class="st1" d="M21.79,21.72H2.21V7.85h19.58V21.72z M3.03,20.91h17.95V8.67H3.03V20.91z"/>
	</g>
	<g>
		<path class="st1" d="M14.35,20.09H6.39c-1.4,0-2.54-1.14-2.54-2.54v-5.52c0-1.4,1.14-2.54,2.54-2.54h7.96
			c1.4,0,2.54,1.14,2.54,2.54v5.52C16.89,18.95,15.75,20.09,14.35,20.09z M6.39,10.3c-0.95,0-1.73,0.78-1.73,1.73v5.52
			c0,0.95,0.78,1.73,1.73,1.73h7.96c0.95,0,1.73-0.78,1.73-1.73v-5.52c0-0.95-0.78-1.73-1.73-1.73H6.39z"/>
	</g>
	<g>
		<circle class="st1" cx="19.34" cy="12.34" r="0.82"/>
	</g>
	<g>
		<circle class="st1" cx="19.34" cy="15.6" r="0.82"/>
	</g>
	<g>
		<g>
			<path class="st1" d="M14.96,8.67H9.04L9.11,8.2C9.32,6.78,10.57,5.71,12,5.71c1.43,0,2.68,1.07,2.89,2.49L14.96,8.67z
				 M10.04,7.85h3.91C13.64,7.07,12.87,6.53,12,6.53C11.13,6.53,10.36,7.07,10.04,7.85z"/>
		</g>
		<g>
			
				<rect x="8.6" y="1.76" transform="matrix(0.7071 -0.7071 0.7071 0.7071 -0.5125 7.6776)" class="st1" width="0.82" height="5.39"/>
		</g>
		<g>
			
				<rect x="12.11" y="4.13" transform="matrix(0.7071 -0.7071 0.7071 0.7071 1.1624 11.8727)" class="st1" width="5.61" height="0.82"/>
		</g>
	</g>
	<g>
		<path class="st1" d="M10.4,17.72L10.4,17.72c-0.03,0.01-0.07,0.01-0.1,0.01c-0.51-0.02-2.73-2.75-2.69-4.07
			c0.02-0.72,0.53-1.35,1.23-1.51c0.14-0.03,0.28-0.05,0.42-0.04c0.48,0.01,0.91,0.24,1.19,0.59c0.3-0.33,0.76-0.53,1.22-0.51
			c0.88,0.03,1.58,0.77,1.55,1.65C13.19,15.2,10.86,17.61,10.4,17.72z M9.01,12.85c-0.39,0.09-0.67,0.44-0.68,0.84
			c-0.03,0.91,1.47,2.74,2,3.25c0.56-0.48,2.16-2.22,2.19-3.13c0.01-0.49-0.37-0.9-0.86-0.91c-0.4-0.01-0.77,0.26-0.88,0.65
			c-0.04,0.16-0.19,0.27-0.36,0.26c-0.17,0-0.31-0.12-0.34-0.28c-0.08-0.4-0.43-0.69-0.84-0.7C9.16,12.82,9.08,12.83,9.01,12.85z"/>
	</g>
</g>
</svg>
