<?xml version="1.0" encoding="utf-8"?>
<!-- Generator: Adobe Illustrator 19.2.1, SVG Export Plug-In . SVG Version: 6.00 Build 0)  -->
<svg version="1.1" id="Layer_2" xmlns="http://www.w3.org/2000/svg" xmlns:xlink="http://www.w3.org/1999/xlink" x="0px" y="0px"
	 viewBox="0 0 24 24" style="enable-background:new 0 0 24 24;" xml:space="preserve">
<style type="text/css">
	.st0{fill:#666666;}
</style>
<g>
	<path class="st0" d="M20.33,4.32H8.72v0H7.9v0H3.75c-0.92,0-1.66,0.74-1.66,1.66v2.73v0.83v8.04c0,0.92,0.74,1.66,1.66,1.66h16.58
		c0.92,0,1.66-0.74,1.66-1.66V9.54V8.71V5.98C21.98,5.06,21.24,4.32,20.33,4.32z M8.52,9.77H8.1c-0.23,0-0.41-0.19-0.41-0.41V8.94
		c0-0.23,0.19-0.41,0.41-0.41h0.41c0.23,0,0.41,0.19,0.41,0.41v0.41C8.93,9.59,8.75,9.77,8.52,9.77z M2.92,5.98
		c0-0.46,0.37-0.83,0.83-0.83H7.9v2.57C7.83,7.73,7.77,7.75,7.72,7.76l-1.4-0.99c-0.27-0.19-0.58-0.29-0.9-0.29
		c-0.92,0-1.67,0.83-1.67,1.84v0.4H2.92V5.98z M7.02,9.96l-1.31,0.59c-0.1,0.04-0.19,0.06-0.29,0.06c-0.4,0-0.83-0.39-0.83-1.01
		V8.32c0-0.63,0.43-1.01,0.84-1.01c0.15,0,0.29,0.05,0.42,0.14l1.2,0.86C6.93,8.49,6.86,8.71,6.86,8.94v0.41
		C6.86,9.58,6.92,9.78,7.02,9.96z M3.75,18.41c-0.46,0-0.83-0.37-0.83-0.83V9.54h0.83v0.07c0,1.01,0.75,1.84,1.66,1.84
		c0.22,0,0.43-0.05,0.63-0.14l1.69-0.76c0.05,0.02,0.1,0.03,0.16,0.04v7.83H3.75z M21.16,17.58c0,0.46-0.37,0.83-0.83,0.83H8.72
		v-7.83c0.05-0.01,0.11-0.02,0.16-0.04l1.69,0.76c0.2,0.09,0.42,0.14,0.63,0.14c0,0,0,0,0,0c0.44,0,0.87-0.2,1.18-0.54
		c0.31-0.35,0.48-0.81,0.48-1.3V9.54h8.29V17.58z M9.58,8.3l1.2-0.86c0.13-0.09,0.27-0.14,0.42-0.14c0.4,0,0.84,0.39,0.84,1.01v1.29
		c0,0.29-0.1,0.55-0.27,0.74c-0.23,0.26-0.56,0.34-0.86,0.2L9.6,9.96c0.1-0.18,0.16-0.38,0.16-0.6V8.94
		C9.76,8.71,9.69,8.49,9.58,8.3z M21.16,8.71h-8.29v-0.4c0-1.02-0.75-1.84-1.67-1.84c-0.32,0-0.63,0.1-0.9,0.29L8.9,7.76
		C8.85,7.75,8.79,7.73,8.72,7.72V5.15h11.6c0.46,0,0.83,0.37,0.83,0.83V8.71z"/>
</g>
</svg>
