<?xml version="1.0" encoding="utf-8"?>
<!-- Generator: Adobe Illustrator 19.2.1, SVG Export Plug-In . SVG Version: 6.00 Build 0)  -->
<svg version="1.1" id="Layer_2" xmlns="http://www.w3.org/2000/svg" xmlns:xlink="http://www.w3.org/1999/xlink" x="0px" y="0px"
	 viewBox="0 0 24 24" style="enable-background:new 0 0 24 24;" xml:space="preserve">
<style type="text/css">
	.st0{fill:#666666;}
</style>
<g>
	<path class="st0" d="M18.4,18.23c-0.07,0-0.14,0-0.22-0.01c1.13-1.24,1.84-2.77,2.07-4.42c0.01-0.08-0.03-0.16-0.1-0.19
		c-0.22-0.12-0.6-0.29-1.11-0.47c-0.02-0.01-0.04-0.01-0.06-0.01c-0.03,0-0.06,0.01-0.09,0.02c-0.05,0.03-0.08,0.07-0.09,0.12
		c-0.22,0.95-0.75,2.81-1.79,4.62c-0.3-0.15-0.47-0.3-0.5-0.33c-0.03-0.03-0.06-0.06-0.09-0.08c1.02-1.8,1.53-3.69,1.7-4.42
		c0.01-0.05,0-0.1-0.02-0.14c-0.03-0.04-0.07-0.07-0.12-0.08c-0.59-0.14-1.2-0.23-1.82-0.28c0,0,0,0,0,0c-0.1,0-0.18,0.06-0.2,0.15
		c-0.15,0.78-0.66,2.85-2.23,5.07c-0.41,0.21-0.82,0.35-1.22,0.42c1.87-2.28,2.52-4.56,2.72-5.44c0.01-0.06,0-0.11-0.04-0.16
		c-0.04-0.04-0.09-0.07-0.15-0.07c-0.83,0.02-1.67,0.12-2.51,0.29c-0.07,0.01-0.13,0.07-0.14,0.14c-0.16,0.61-0.79,2.72-2.25,4.62
		c-0.03-0.03-0.05-0.04-0.05-0.04c-0.16-0.15-0.35-0.27-0.55-0.35c0.27-0.35,0.54-0.74,0.78-1.15c0.05-0.08,0.03-0.18-0.04-0.24
		c-2.64-2.14-3.7-4.82-4.12-6.71c0.17-0.28,0.37-0.56,0.58-0.81c0.28,1.64,1.15,4.58,3.82,6.83c0.03,0.03,0.08,0.04,0.12,0.04
		c0.01,0,0.03,0,0.04,0c0.06-0.01,0.11-0.05,0.13-0.1c0.45-0.94,0.71-1.76,0.82-2.16c0.02-0.06,0-0.13-0.04-0.18
		c-2.54-2.89-3.1-5.7-3.2-7.12c0-0.06-0.04-0.12-0.1-0.15C8.29,5.41,8.26,5.4,8.23,5.4c-0.03,0-0.06,0.01-0.09,0.02
		c-2.66,1.45-4.32,4.23-4.32,7.25c0,2.05,0.76,4.01,2.13,5.53c-0.14,0.02-0.28,0.03-0.41,0.03c-0.18,0-0.35-0.02-0.55-0.06
		c-1.24-1.59-1.89-3.49-1.89-5.5c0-4.94,4.02-8.96,8.96-8.96c2.69,0,5.22,1.19,6.93,3.27c0,0.01,0.01,0.01,0.01,0.02
		c0.01,0.01,0.01,0.02,0.02,0.03c1.29,1.59,2,3.6,2,5.65c0,1.99-0.64,3.88-1.85,5.46C18.92,18.2,18.65,18.23,18.4,18.23z
		 M15.31,11.8c2.28,0,3.95,0.61,4.75,0.97c0.02,0.01,0.05,0.02,0.08,0.02c0.04,0,0.07-0.01,0.1-0.03c0.05-0.04,0.09-0.09,0.09-0.16
		c-0.01-0.63-0.08-1.26-0.23-1.87c-0.01-0.05-0.05-0.1-0.1-0.12c-0.75-0.39-2.76-1.29-5.37-1.29c-0.94,0-1.87,0.12-2.76,0.35
		c-0.13-0.2-0.25-0.42-0.36-0.64c1.03-0.29,2.09-0.44,3.16-0.44c1.98,0,3.64,0.5,4.68,0.93c0.02,0.01,0.05,0.01,0.07,0.01
		c0.05,0,0.1-0.02,0.14-0.06c0.05-0.06,0.07-0.14,0.04-0.21C19.32,8.68,19,8.14,18.61,7.64c-0.02-0.03-0.05-0.05-0.08-0.06
		c-0.84-0.34-3.05-1.13-5.41-1.13c-0.88,0-1.7,0.11-2.43,0.34c-0.06-0.24-0.12-0.47-0.16-0.7c0.79-0.24,1.67-0.36,2.61-0.36
		c1.07,0,2.22,0.15,3.41,0.46c0.01,0,0.03,0.01,0.05,0.01c0.07,0,0.14-0.04,0.17-0.11c0.04-0.08,0.01-0.18-0.07-0.23
		c-1.37-0.93-2.97-1.42-4.63-1.42c-0.97,0-1.93,0.17-2.84,0.5c-0.07,0.03-0.12,0.1-0.12,0.18c0.01,0.85,0.26,3.86,2.93,6.98
		c0.04,0.04,0.09,0.07,0.14,0.07c0.01,0,0.03,0,0.04,0C13.26,11.91,14.3,11.8,15.31,11.8z"/>
	<path class="st0" d="M7.62,17.57c-0.85-0.72-1.58-1.68-2.18-2.85c-0.2-0.66-0.31-1.35-0.31-2.05c0-0.22,0.01-0.44,0.03-0.66
		c0.49,1.69,1.41,3.84,3.11,5.17c-0.12,0.05-0.24,0.11-0.34,0.18C7.84,17.44,7.73,17.5,7.62,17.57z"/>
	<path class="st0" d="M18.45,20.24c-1.44,0-2.52-0.62-3.03-0.99c-0.03-0.02-0.07-0.04-0.11-0.04c-0.04,0-0.07,0.01-0.1,0.03
		c-1.05,0.66-2.11,0.99-3.16,0.99c-1.45,0-2.54-0.63-3.06-1c-0.03-0.02-0.07-0.04-0.11-0.04c-0.04,0-0.07,0.01-0.1,0.03
		c-1.06,0.67-2.13,1.01-3.18,1.01c-2.03,0-3.35-1.24-3.36-1.25c-0.14-0.14-0.14-0.36-0.01-0.5c0.07-0.07,0.16-0.11,0.26-0.11
		c0.09,0,0.18,0.04,0.25,0.1c0.11,0.11,1.17,1.06,2.84,1.06c1.04,0,2.09-0.37,3.12-1.09c0.06-0.04,0.13-0.06,0.2-0.06l0.04,0
		c0.09,0,0.18,0.03,0.24,0.1c0.05,0.04,1.14,1.05,2.84,1.05c1.03,0,2.07-0.36,3.09-1.07c0.07-0.06,0.15-0.08,0.22-0.08
		c0.11,0,0.2,0.04,0.27,0.12c0.2,0.18,1.24,1.04,2.81,1.04c1.04,0,2.09-0.37,3.12-1.09c0.06-0.04,0.13-0.06,0.2-0.06
		c0.12,0,0.23,0.06,0.29,0.15c0.11,0.16,0.07,0.38-0.09,0.5C20.79,19.83,19.62,20.24,18.45,20.24z"/>
</g>
</svg>
