<?xml version="1.0" encoding="utf-8"?>
<!-- Generator: Adobe Illustrator 19.2.1, SVG Export Plug-In . SVG Version: 6.00 Build 0)  -->
<svg version="1.1" id="Layer_2" xmlns="http://www.w3.org/2000/svg" xmlns:xlink="http://www.w3.org/1999/xlink" x="0px" y="0px"
	 viewBox="0 0 24 24" style="enable-background:new 0 0 24 24;" xml:space="preserve">
<style type="text/css">
	.st0{fill:#666666;}
</style>
<g>
	<path class="st0" d="M5.39,15.47c-1.2,0-2.26-1.12-2.26-2.39c0-0.21,0.03-0.44,0.08-0.63c0.26-1.01,1.18-1.74,2.18-1.74
		c0.29,0,0.56,0.05,0.8,0.14c0.07,0.02,0.13,0.05,0.2,0.09c0.01-0.31,0.07-0.6,0.17-0.89c0.41-1.13,1.49-1.89,2.7-1.89
		c1.02,0,1.96,0.54,2.48,1.42c0.31-0.16,0.65-0.23,1-0.23c1.21,0,2.21,0.97,2.25,2.17c0.91,0.13,1.62,0.95,1.62,1.9
		c0,0.76-0.46,1.52-1.09,1.82c-0.02,0.01-0.03,0.01-0.05,0.02c-0.02,0-0.03,0.01-0.04,0.02c-0.19,0.1-0.41,0.2-0.67,0.2H5.39z
		 M5.39,11.38c-0.7,0-1.34,0.53-1.53,1.25c-0.03,0.13-0.06,0.32-0.06,0.48c0,0.93,0.74,1.75,1.59,1.75h9.36
		c0.08,0,0.2-0.06,0.31-0.12l0.05-0.03l0.05-0.03c0.02-0.01,0.04-0.03,0.07-0.04c0.41-0.2,0.72-0.72,0.72-1.23
		c0-0.68-0.55-1.25-1.19-1.25c-0.01,0-0.03,0-0.04,0l-0.05,0l-0.02,0c-0.09,0-0.18-0.04-0.24-0.11c-0.07-0.07-0.1-0.18-0.08-0.28
		c0.01-0.06,0.01-0.12,0.01-0.19c0-0.88-0.71-1.59-1.59-1.59c-0.34,0-0.66,0.11-0.94,0.31c-0.06,0.04-0.13,0.07-0.2,0.07
		c-0.03,0-0.06,0-0.09-0.01c-0.1-0.03-0.18-0.1-0.22-0.19c-0.35-0.82-1.15-1.35-2.04-1.35c-0.93,0-1.76,0.58-2.07,1.46
		c-0.09,0.24-0.13,0.49-0.13,0.75c0,0.17,0.02,0.35,0.07,0.55c0.03,0.15-0.03,0.3-0.17,0.37c-0.05,0.03-0.1,0.04-0.16,0.04
		c-0.09,0-0.18-0.04-0.25-0.11c-0.17-0.18-0.37-0.32-0.6-0.4C5.79,11.41,5.61,11.38,5.39,11.38z"/>
	<path class="st0" d="M13.91,8.23c-1.2,0-2.18-1-2.18-2.22c0-0.07,0-0.29,0.05-0.48c0.2-1,1.1-1.72,2.13-1.72
		c0.19,0,0.36,0.02,0.52,0.05c0.36-1.07,1.34-1.78,2.46-1.78c1.39,0,2.53,1.08,2.6,2.46c0.86,0.15,1.49,0.87,1.49,1.74
		c0,0.74-0.45,1.44-1.1,1.7C19.86,8,19.85,8.01,19.83,8.02c-0.02,0.01-0.04,0.02-0.06,0.03l-0.05,0.02
		c-0.15,0.07-0.34,0.16-0.56,0.16H13.91z M13.91,4.47c-0.72,0-1.35,0.5-1.48,1.19c-0.02,0.09-0.03,0.26-0.03,0.38
		c0,0.86,0.69,1.58,1.52,1.58h5.25c0.06,0,0.13-0.04,0.21-0.09c0.04-0.02,0.08-0.05,0.12-0.06c0.02-0.01,0.04-0.02,0.06-0.04
		c0.02-0.02,0.05-0.03,0.08-0.04c0.4-0.16,0.68-0.61,0.68-1.1c0-0.6-0.49-1.09-1.12-1.1c-0.01,0-0.02,0-0.04,0
		c-0.09,0-0.18-0.04-0.24-0.11c-0.06-0.07-0.1-0.16-0.09-0.25l0-0.06c0-0.04,0-0.07,0-0.09c0-1.07-0.87-1.94-1.94-1.94
		c-0.85,0-1.58,0.54-1.84,1.35c-0.03,0.07-0.05,0.15-0.06,0.25c-0.02,0.1-0.08,0.19-0.18,0.24c-0.05,0.02-0.1,0.04-0.15,0.04
		c-0.05,0-0.1-0.01-0.14-0.03c-0.04-0.02-0.08-0.03-0.13-0.05C14.24,4.49,14.08,4.47,13.91,4.47z"/>
	<path class="st0" d="M18.33,10.86c-0.09,0-0.17-0.03-0.24-0.1l-0.18-0.18l-0.18,0.18c-0.06,0.06-0.15,0.1-0.24,0.1
		c-0.09,0-0.17-0.03-0.24-0.1c-0.13-0.13-0.13-0.34,0-0.47l0.18-0.18l-0.18-0.18c-0.13-0.13-0.13-0.34,0-0.47
		c0.06-0.06,0.15-0.1,0.24-0.1s0.17,0.03,0.24,0.1l0.18,0.18l0.18-0.18c0.06-0.06,0.15-0.1,0.24-0.1c0.09,0,0.17,0.03,0.24,0.1
		c0.13,0.13,0.13,0.34,0,0.47l-0.18,0.18l0.18,0.18c0.13,0.13,0.13,0.34,0,0.47C18.5,10.82,18.42,10.86,18.33,10.86z"/>
	<path class="st0" d="M7.17,19.14c-0.09,0-0.17-0.03-0.24-0.1l-0.18-0.18l-0.18,0.18c-0.06,0.06-0.15,0.1-0.24,0.1
		s-0.17-0.03-0.24-0.1c-0.13-0.13-0.13-0.34,0-0.47l0.18-0.18L6.1,18.21c-0.13-0.13-0.13-0.34,0-0.47c0.06-0.06,0.15-0.1,0.24-0.1
		c0.09,0,0.17,0.03,0.24,0.1l0.18,0.18l0.18-0.18c0.06-0.06,0.15-0.1,0.24-0.1c0.09,0,0.17,0.03,0.24,0.1
		c0.13,0.13,0.13,0.34,0,0.47l-0.18,0.18l0.18,0.18c0.13,0.13,0.13,0.34,0,0.47C7.34,19.11,7.26,19.14,7.17,19.14z"/>
	<path class="st0" d="M11.2,21.9c-0.09,0-0.17-0.03-0.24-0.1l-0.18-0.18L10.6,21.8c-0.06,0.06-0.15,0.1-0.24,0.1
		c-0.09,0-0.17-0.03-0.24-0.1c-0.13-0.13-0.13-0.34,0-0.47l0.18-0.18l-0.18-0.18c-0.13-0.13-0.13-0.34,0-0.47
		c0.06-0.06,0.15-0.1,0.24-0.1c0.09,0,0.17,0.03,0.24,0.1l0.18,0.18l0.18-0.18c0.06-0.06,0.15-0.1,0.24-0.1s0.17,0.03,0.24,0.1
		c0.13,0.13,0.13,0.34,0,0.47l-0.18,0.18l0.18,0.18c0.13,0.13,0.13,0.34,0,0.47C11.37,21.86,11.28,21.9,11.2,21.9z"/>
	<path class="st0" d="M13.32,18.01c-0.09,0-0.17-0.03-0.24-0.1l-0.18-0.18l-0.18,0.18c-0.06,0.06-0.15,0.1-0.24,0.1
		s-0.17-0.03-0.24-0.1c-0.13-0.13-0.13-0.34,0-0.47l0.18-0.18l-0.18-0.18c-0.13-0.13-0.13-0.34,0-0.47c0.06-0.06,0.15-0.1,0.24-0.1
		c0.09,0,0.17,0.03,0.24,0.1l0.18,0.18l0.18-0.18c0.06-0.06,0.15-0.1,0.24-0.1s0.17,0.03,0.24,0.1c0.13,0.13,0.13,0.34,0,0.47
		l-0.18,0.18l0.18,0.18c0.13,0.13,0.13,0.34,0,0.47C13.49,17.98,13.41,18.01,13.32,18.01z"/>
</g>
</svg>
