<?xml version="1.0" encoding="utf-8"?>
<!-- Generator: Adobe Illustrator 19.2.1, SVG Export Plug-In . SVG Version: 6.00 Build 0)  -->
<svg version="1.1" id="Layer_2" xmlns="http://www.w3.org/2000/svg" xmlns:xlink="http://www.w3.org/1999/xlink" x="0px" y="0px"
	 viewBox="0 0 24 24" style="enable-background:new 0 0 24 24;" xml:space="preserve">
<style type="text/css">
	.st0{fill:#666666;}
</style>
<g>
	<path class="st0" d="M16.18,8.05c-0.55,0-1.37,0.05-2.17,0.11c-0.79,0.05-1.61,0.1-2.14,0.1c-0.5,0-1.26-0.05-2-0.1
		C9.11,8.11,8.34,8.05,7.82,8.05c-1.07,0-2.09,0.42-2.85,1.19C4.91,9.3,4.85,9.37,4.79,9.43c-0.65,0.74-1.01,1.68-1.01,2.66
		c0,2.23,1.81,4.04,4.04,4.04c1.31,0,2.23-0.65,2.97-1.17c0.47-0.33,0.88-0.62,1.24-0.62c0.36,0,0.78,0.3,1.28,0.64
		c0.74,0.51,1.65,1.15,2.87,1.15c0.62,0,1.21-0.14,1.76-0.41c0.4-0.2,0.77-0.46,1.09-0.78c0.76-0.76,1.19-1.78,1.19-2.85
		C20.21,9.86,18.4,8.05,16.18,8.05z M18.68,14.59c-0.28,0.28-0.6,0.51-0.96,0.69c-0.48,0.24-1,0.36-1.55,0.36
		c-1.06,0-1.87-0.56-2.59-1.06c-0.56-0.39-1.04-0.73-1.56-0.73c-0.51,0-0.98,0.33-1.52,0.71c-0.72,0.51-1.53,1.08-2.69,1.08
		c-1.95,0-3.55-1.59-3.55-3.55c0-0.86,0.31-1.69,0.88-2.34c0.05-0.06,0.1-0.11,0.16-0.17c0.67-0.67,1.56-1.04,2.5-1.04
		c0.5,0,1.26,0.05,2,0.1c0.75,0.05,1.52,0.11,2.04,0.11c0.55,0,1.37-0.05,2.17-0.11c0.79-0.05,1.61-0.1,2.14-0.1
		c1.96,0,3.55,1.59,3.55,3.55C19.72,13.03,19.35,13.92,18.68,14.59z"/>
	<path class="st0" d="M21.9,9.79c-0.05-0.05-0.12-0.07-0.19-0.06l-1.05,0.09c-0.63-1.24-1.74-2.17-3.08-2.56
		c-0.47-0.14-2.71-0.41-5.73-0.41c-3.04,0-4.97,0.27-5.43,0.41c-1.36,0.39-2.47,1.34-3.1,2.56L2.28,9.72
		C2.21,9.72,2.15,9.74,2.1,9.79C2.04,9.83,2.02,9.9,2.02,9.97v3.79c0,0.13,0.1,0.23,0.22,0.24l0.97,0.09
		c0.8,1.85,2.6,3.03,4.62,3.03c1.67,0,2.8-0.75,3.54-1.24c0.52-0.35,0.83-0.34,1.38,0.02c0.74,0.49,1.86,1.22,3.43,1.22
		c1.86,0,3.57-1.02,4.44-2.67c0.06-0.11,0.12-0.24,0.17-0.36L21.76,14c0.13-0.01,0.22-0.12,0.22-0.24V9.97
		C21.98,9.9,21.96,9.83,21.9,9.79z M2.51,10.23l0.62,0.05c-0.13,0.34-0.22,0.69-0.28,1.05c-0.04,0.24-0.06,0.5-0.06,0.75
		c0,0.16,0.01,0.32,0.02,0.48c0.03,0.34,0.1,0.68,0.2,1.01l-0.51-0.05V10.23z M16.18,16.63c-1.43,0-2.47-0.69-3.16-1.14
		c-0.36-0.24-0.67-0.36-0.98-0.36c-0.3,0-0.6,0.11-0.94,0.34c-0.69,0.46-1.74,1.16-3.27,1.16c-1.87,0-3.53-1.12-4.22-2.86
		c-0.16-0.4-0.26-0.82-0.3-1.25c-0.01-0.14-0.02-0.29-0.02-0.44c0-0.23,0.02-0.46,0.05-0.68c0.26-1.75,1.53-3.2,3.23-3.69
		c0.42-0.12,2.34-0.39,5.29-0.39c3.03,0,5.2,0.28,5.59,0.39c1.25,0.37,2.29,1.26,2.85,2.45c0.06,0.13,0.12,0.27,0.17,0.42
		c0.17,0.48,0.25,0.98,0.25,1.49c0,0.58-0.11,1.15-0.32,1.68c-0.06,0.16-0.13,0.31-0.21,0.45C19.4,15.71,17.86,16.63,16.18,16.63z
		 M21.49,13.53l-0.51,0.05c0.15-0.48,0.23-0.98,0.23-1.49c0-0.57-0.09-1.13-0.28-1.66v0c-0.02-0.05-0.04-0.1-0.06-0.15l0.62-0.05
		V13.53z"/>
	<path class="st0" d="M16.37,13.9l-0.66-0.32c-0.12-0.06-0.27-0.01-0.33,0.11c-0.06,0.12-0.01,0.27,0.11,0.33l0.66,0.32
		c0.03,0.02,0.07,0.02,0.11,0.02c0.09,0,0.18-0.05,0.22-0.14C16.55,14.11,16.5,13.96,16.37,13.9z"/>
	<path class="st0" d="M14.4,12.92c-1.1-0.55-2.22-1.08-3.3-1.59l-0.76-0.36c-0.12-0.06-0.27-0.01-0.33,0.12
		c-0.06,0.12-0.01,0.27,0.11,0.33l4.01,1.95c0.03,0.02,0.07,0.02,0.11,0.02c0.01,0,0.03,0,0.04,0c0,0,0,0,0,0
		c0.11,0,0.21-0.07,0.24-0.18C14.56,13.09,14.51,12.97,14.4,12.92z"/>
	<path class="st0" d="M10.19,12.6c-0.48-0.24-1.97-0.95-2.32-1.12c-0.07-0.03-0.15-0.03-0.22,0.01c-0.07,0.04-0.12,0.11-0.13,0.18
		c-0.02,0.12,0.01,0.18,0.14,0.25l0,0c0.02,0.01,0.03,0.02,0.05,0.03c0.05,0.03,0.11,0.05,0.18,0.09l0.57,0.28
		c0.52,0.25,1.15,0.56,1.51,0.74c0.03,0.02,0.07,0.03,0.11,0.03c0.05,0,0.09-0.01,0.13-0.04c0.07-0.05,0.12-0.13,0.11-0.21
		c0,0,0,0,0-0.01C10.33,12.73,10.27,12.64,10.19,12.6z"/>
	<path class="st0" d="M8.63,10.69c0.04,0.02,0.08,0.03,0.11,0.03c0.06,0,0.13-0.03,0.17-0.08c0,0,0,0,0,0
		C8.97,10.58,9,10.5,8.98,10.42c-0.01-0.08-0.06-0.14-0.13-0.18L7.78,9.72C7.66,9.66,7.51,9.71,7.45,9.83
		c-0.06,0.12-0.01,0.27,0.11,0.33C7.92,10.34,8.28,10.52,8.63,10.69z"/>
</g>
</svg>
