<?xml version="1.0" encoding="utf-8"?>
<!-- Generator: Adobe Illustrator 19.2.1, SVG Export Plug-In . SVG Version: 6.00 Build 0)  -->
<svg version="1.1" id="Layer_2" xmlns="http://www.w3.org/2000/svg" xmlns:xlink="http://www.w3.org/1999/xlink" x="0px" y="0px"
	 viewBox="0 0 24 24" style="enable-background:new 0 0 24 24;" xml:space="preserve">
<style type="text/css">
	.st0{fill:#666666;}
</style>
<g>
	<path class="st0" d="M20.95,8.4h-0.46V4.89c0-1.16-0.94-2.1-2.1-2.1H4.05c-1.16,0-2.1,0.94-2.1,2.1v14.16c0,1.16,0.94,2.1,2.1,2.1
		H18.4c1.16,0,2.1-0.94,2.1-2.1v-3.52h0.46c0.57,0,1.03-0.46,1.03-1.03V9.43C21.98,8.86,21.52,8.4,20.95,8.4z M19.76,19.04
		c0,0.75-0.61,1.36-1.36,1.36H4.05c-0.75,0-1.36-0.61-1.36-1.36V4.89c0-0.75,0.61-1.36,1.36-1.36H18.4c0.75,0,1.36,0.61,1.36,1.36
		V8.4h-4.2c-1.76,0-3.2,1.43-3.2,3.2v0.73c0,1.76,1.43,3.2,3.2,3.2h4.2V19.04z M21.25,14.49c0,0.16-0.13,0.3-0.3,0.3h-5.39
		c-1.36,0-2.46-1.1-2.46-2.46V11.6c0-1.36,1.1-2.46,2.46-2.46h5.39c0.16,0,0.3,0.13,0.3,0.3V14.49z"/>
	<path class="st0" d="M15.9,10.26c-0.94,0-1.7,0.76-1.7,1.7c0,0.94,0.76,1.7,1.7,1.7s1.7-0.76,1.7-1.7
		C17.6,11.02,16.83,10.26,15.9,10.26z M15.9,12.93c-0.53,0-0.97-0.43-0.97-0.97c0-0.53,0.43-0.97,0.97-0.97s0.97,0.43,0.97,0.97
		C16.86,12.5,16.43,12.93,15.9,12.93z"/>
</g>
</svg>
