<?xml version="1.0" encoding="utf-8"?>
<!-- Generator: Adobe Illustrator 19.2.1, SVG Export Plug-In . SVG Version: 6.00 Build 0)  -->
<svg version="1.1" id="Layer_2" xmlns="http://www.w3.org/2000/svg" xmlns:xlink="http://www.w3.org/1999/xlink" x="0px" y="0px"
	 viewBox="0 0 24 24" style="enable-background:new 0 0 24 24;" xml:space="preserve">
<style type="text/css">
	.st0{fill:#666666;}
</style>
<path class="st0" d="M3.73,19.29c-0.23,0-0.51-0.07-0.8-0.22c-0.2-0.1-0.86-0.48-0.78-0.99c0.06-0.41,0.42-0.88,0.83-1.43
	c0.37-0.48,0.78-1.03,0.9-1.46c0.1-0.38,0.09-0.8,0.08-1.29c-0.01-0.53-0.03-1.13,0.1-1.77c0.3-1.42,4.67-3.19,5.75-3.61
	c0.01-0.05,0.02-0.16,0.03-0.24c0.06-0.44,0.15-1.17,1.19-1.46c0.48-0.14,0.99-0.08,1.43,0.17c0.44,0.25,0.76,0.65,0.89,1.14
	c0.13,0.49,0.07,0.99-0.17,1.43c-0.25,0.44-0.65,0.75-1.14,0.89c-0.43,0.12-0.89,0.08-1.29-0.1c0.17,0.3,0.44,0.71,0.76,1.02
	c0.18,0.06,0.8,0.08,0.99,0.01c0.44-0.53,1.94-2.48,2.19-3.2c0.03-0.08,0.04-0.16,0.05-0.22c-0.48-0.04-0.93-0.25-1.26-0.61
	c-0.35-0.38-0.53-0.87-0.51-1.38C13,5.46,13.22,4.98,13.6,4.64c0.38-0.35,0.89-0.54,1.41-0.51c0.51,0.03,0.97,0.25,1.31,0.63
	C17,5.53,16.7,6.3,16.54,6.72c-0.01,0.04-0.03,0.08-0.04,0.12l0.02,0.01c2.76,0.68,3.81,3.69,3.85,4.44c0.01,0.22,0,0.59-0.01,1.02
	c-0.02,0.72-0.05,1.71,0.03,2.1c0.16,0.78,1.21,2.39,1.6,2.95c0.01,0.02,0.02,0.04,0.03,0.06c0.22,0.48,0,0.98-0.6,1.34
	c-0.28,0.17-1.16,0.57-1.48,0.16c-0.02-0.02-0.03-0.04-0.04-0.07c-0.01-0.03-0.25-0.56-0.03-1.2c-0.77-0.75-1.62-1.75-1.92-2.42
	c-0.12-0.27-0.2-0.59-0.27-0.92c-0.17,0.24-0.34,0.5-0.48,0.71c-0.23,0.36-0.59,2.11-0.76,3.14c-0.08,0.66-1.31,0.77-1.75,0.73
	c-0.76-0.06-0.79-0.51-0.78-0.64c0.04-0.3,0.26-0.85,0.85-1.09c-0.05-1.28-0.05-2.61,0.2-3.26c0.1-0.28,0.38-0.72,0.7-1.23
	c0.32-0.51,0.76-1.22,0.81-1.47c0.05-0.26-0.18-0.67-0.35-0.83c-0.75,1.06-2.2,2.4-2.94,2.71c-0.68,0.28-2.1,0.45-2.98-0.07
	c-0.45-0.27-0.88-0.69-1.09-0.96c-0.2,0.05-0.59,0.3-0.79,0.49c0.4,0.44,1.1,1.29,1.51,1.96c0.44,0.72,0.82,2.05,1.05,2.85l0,0.01
	c0.04,0.02,0.1,0.05,0.15,0.08c0.29,0.14,0.77,0.38,0.81,0.95c0.04,0.21-0.04,0.49-0.41,0.63c-0.44,0.17-1.67,0.21-1.91-0.31
	c-0.01-0.03-1.03-2.32-1.69-3.08C7.64,15.41,7,14.89,6.51,14.5c-0.03,0.26-0.07,0.59-0.15,0.95c-0.19,0.82-1.39,1.99-2.02,2.52
	c0.09,0.17,0.15,0.35,0.15,0.53c0.01,0.23-0.08,0.45-0.23,0.6C4.13,19.23,3.95,19.29,3.73,19.29z M2.85,18.15
	c0.12,0.2,0.72,0.49,0.92,0.44c0.01-0.02,0.01-0.04,0.01-0.07c0-0.12-0.07-0.26-0.17-0.35c-0.08-0.07-0.12-0.17-0.11-0.28
	c0.01-0.11,0.06-0.2,0.15-0.27c0.61-0.44,1.89-1.73,2.03-2.33c0.1-0.43,0.13-0.81,0.16-1.09c0.03-0.36,0.05-0.6,0.31-0.68
	c0.11-0.04,0.23-0.01,0.32,0.06c0.16,0.12,1.54,1.18,1.9,1.6c0.67,0.78,1.59,2.79,1.77,3.19c0.19,0.09,0.75,0.09,0.99,0.02
	c-0.04-0.12-0.16-0.19-0.4-0.31c-0.2-0.1-0.43-0.21-0.5-0.45l-0.02-0.08c-0.22-0.76-0.59-2.04-0.98-2.68
	c-0.44-0.73-1.26-1.69-1.57-2.01c-0.11-0.11-0.15-0.28-0.1-0.44c0.13-0.41,1-0.99,1.48-1.07c0.33-0.05,0.51,0.1,0.58,0.2
	c0.15,0.21,0.56,0.62,0.95,0.85c0.61,0.36,1.78,0.26,2.35,0.02c0.55-0.23,2.04-1.53,2.76-2.64c0.04-0.06,0.09-0.1,0.15-0.13
	c0.13-0.06,0.39-0.12,0.72,0.15c0.39,0.32,0.74,1,0.63,1.54c-0.07,0.35-0.41,0.9-0.91,1.7c-0.27,0.44-0.56,0.9-0.64,1.11
	c-0.25,0.66-0.17,2.55-0.14,3.26c0.01,0.18-0.12,0.33-0.29,0.36c-0.32,0.06-0.46,0.27-0.53,0.41c0.29,0.05,0.91-0.04,1.09-0.17
	c0.09-0.55,0.49-2.79,0.86-3.37c0.23-0.37,0.69-1.03,0.93-1.33c-0.04-0.4-0.05-0.69-0.05-0.72c-0.01-0.19,0.14-0.36,0.34-0.36
	c0.2-0.01,0.36,0.14,0.37,0.34c0,0.02,0.06,1.57,0.41,2.37c0.27,0.63,1.19,1.67,1.93,2.36c0.12,0.11,0.14,0.28,0.07,0.42
	c-0.14,0.26-0.14,0.5-0.11,0.65c0.24-0.05,0.68-0.23,0.85-0.46c0.06-0.09,0.06-0.14,0.05-0.18c-0.2-0.28-1.48-2.15-1.69-3.18
	c-0.09-0.46-0.07-1.42-0.04-2.26c0.01-0.4,0.02-0.78,0.01-0.96c-0.02-0.36-0.82-3.2-3.36-3.8c-0.04-0.01-0.07-0.02-0.1-0.04
	l-0.26-0.16c-0.07-0.04-0.12-0.11-0.15-0.18c-0.08-0.22,0.01-0.44,0.1-0.67c0.18-0.46,0.28-0.83-0.09-1.25
	c-0.21-0.23-0.5-0.37-0.81-0.39c-0.32-0.02-0.65,0.1-0.89,0.32c-0.49,0.45-0.52,1.22-0.07,1.71c0.26,0.29,0.64,0.43,1.04,0.38
	c0.18-0.02,0.34,0.09,0.38,0.27c0.01,0.04,0.1,0.42-0.07,0.9c-0.35,1.01-2.32,3.43-2.34,3.45c-0.13,0.16-0.36,0.24-0.74,0.26
	c-0.04,0-0.93,0.06-1.22-0.21c-0.72-0.66-1.16-1.66-1.18-1.7c-0.07-0.16-0.01-0.34,0.13-0.44l0.37-0.24
	c0.13-0.08,0.29-0.07,0.41,0.02c0.3,0.24,0.69,0.32,1.05,0.22c0.3-0.08,0.56-0.28,0.71-0.56c0.16-0.27,0.19-0.59,0.11-0.9
	c-0.08-0.31-0.28-0.56-0.56-0.71c-0.27-0.15-0.59-0.19-0.89-0.11c-0.59,0.17-0.63,0.48-0.68,0.88c-0.03,0.26-0.07,0.55-0.31,0.73
	c-0.03,0.02-0.06,0.04-0.09,0.05C8,9.97,4.92,11.48,4.75,12.28c-0.12,0.56-0.1,1.09-0.09,1.61c0.01,0.52,0.03,1.02-0.1,1.49
	c-0.15,0.56-0.59,1.14-1.02,1.7C3.25,17.47,2.92,17.9,2.85,18.15z M10.1,18.34 M9.04,11.96C9.04,11.96,9.04,11.96,9.04,11.96
	C9.04,11.96,9.04,11.96,9.04,11.96z"/>
</svg>
