<?xml version="1.0" encoding="utf-8"?>
<!-- Generator: Adobe Illustrator 19.2.1, SVG Export Plug-In . SVG Version: 6.00 Build 0)  -->
<svg version="1.1" id="Layer_2" xmlns="http://www.w3.org/2000/svg" xmlns:xlink="http://www.w3.org/1999/xlink" x="0px" y="0px"
	 viewBox="0 0 24 24" style="enable-background:new 0 0 24 24;" xml:space="preserve">
<style type="text/css">
	.st0{fill:#666666;}
</style>
<g>
	<g>
		<path class="st0" d="M20.39,10.29L18.8,9.03V2.69c0-0.36-0.3-0.66-0.66-0.66H5.86c-0.36,0-0.66,0.3-0.66,0.66v6.34l-1.58,1.25
			c-0.08,0.06-0.12,0.15-0.12,0.25v10.24c0,0.55,0.45,1,1,1h15.01c0.55,0,1-0.45,1-1V10.54C20.51,10.44,20.46,10.35,20.39,10.29z
			 M19.87,20.77c0,0.01,0,0.01,0,0.02L13.81,16l6.06-4.8V20.77z M4.13,20.77V11.2l6.06,4.8l-6.06,4.8
			C4.13,20.79,4.13,20.78,4.13,20.77z M13.28,15.6c-0.76,0.6-1.81,0.6-2.57,0l-1.24-0.99h5.06L13.28,15.6z M10.72,16.4
			c0.01-0.01,0.02-0.02,0.03-0.02c0.39,0.21,0.82,0.31,1.25,0.31c0.43,0,0.86-0.1,1.25-0.31c0.01,0.01,0.02,0.01,0.03,0.02
			l5.99,4.74H4.73L10.72,16.4z M19.67,10.54l-0.87,0.69V9.85L19.67,10.54z M5.86,2.67h12.28c0.01,0,0.02,0.01,0.02,0.02v9.04
			l-2.83,2.24H8.66l-2.83-2.24V9.19c0,0,0,0,0,0v-6.5C5.84,2.68,5.85,2.67,5.86,2.67z M5.2,11.23l-0.87-0.69L5.2,9.85V11.23z"/>
		<path class="st0" d="M7.91,5.06h2.39c0.18,0,0.32-0.14,0.32-0.32c0-0.18-0.14-0.32-0.32-0.32H7.91c-0.18,0-0.32,0.14-0.32,0.32
			C7.59,4.91,7.73,5.06,7.91,5.06z"/>
		<path class="st0" d="M7.91,6.76h3.75c0.18,0,0.32-0.14,0.32-0.32c0-0.18-0.14-0.32-0.32-0.32H7.91c-0.18,0-0.32,0.14-0.32,0.32
			C7.59,6.62,7.73,6.76,7.91,6.76z"/>
		<path class="st0" d="M9.63,9.17c0,0.18,0.14,0.32,0.32,0.32h4.09c0.18,0,0.32-0.14,0.32-0.32c0-0.18-0.14-0.32-0.32-0.32H9.95
			C9.78,8.85,9.63,9,9.63,9.17z"/>
		<path class="st0" d="M7.91,11.2h8.19c0.18,0,0.32-0.14,0.32-0.32s-0.14-0.32-0.32-0.32H7.91c-0.18,0-0.32,0.14-0.32,0.32
			S7.73,11.2,7.91,11.2z"/>
		<path class="st0" d="M7.91,12.9h8.19c0.18,0,0.32-0.14,0.32-0.32c0-0.18-0.14-0.32-0.32-0.32H7.91c-0.18,0-0.32,0.14-0.32,0.32
			C7.59,12.76,7.73,12.9,7.91,12.9z"/>
	</g>
</g>
</svg>
