<svg id="Layer_1" data-name="Layer 1" xmlns="http://www.w3.org/2000/svg" viewBox="0 0 71.87 60.5"><defs><style>.cls-1{fill:#41494f;}</style></defs><title>ICNLottoResults</title><path class="cls-1" d="M47.15,27a16.79,16.79,0,0,0-1.87.11,16.75,16.75,0,1,0-26.67-.53,16.75,16.75,0,1,0,13.2,23.89A16.74,16.74,0,1,0,47.15,27ZM30.41,43.9a13.53,13.53,0,1,1,0-.84c0,.23,0,.45,0,.69C30.4,43.8,30.41,43.85,30.41,43.9Zm-12-27.15a13.7,13.7,0,1,1,13.7,13.69A13.71,13.71,0,0,1,18.45,16.75ZM32.08,36.49a16.74,16.74,0,0,0-1.8-3.11,15.79,15.79,0,0,0,3.74,0A16.77,16.77,0,0,0,32.08,36.49Zm1.41,6.57a13.53,13.53,0,1,1,0,.84c0-.23,0-.45,0-.69C33.5,43.16,33.49,43.11,33.49,43.06Z"/><polygon class="cls-1" points="24.81 12.3 25.25 14.3 27.43 13.26 27.47 13.26 27.47 22.32 30.05 22.32 30.05 10.89 27.84 10.89 24.81 12.3"/><path class="cls-1" d="M36.24,10.7c-3,0-4.36,2.62-4.36,5.92s1.32,5.89,4.27,5.89,4.34-2.43,4.34-6C40.49,13.42,39.29,10.7,36.24,10.7Zm0,9.79c-1,0-1.67-1.25-1.65-3.87s.65-3.9,1.63-3.9,1.62,1.34,1.62,3.87S37.26,20.49,36.22,20.49Z"/><path class="cls-1" d="M19.35,42.1a5.23,5.23,0,0,0-3-.83,5,5,0,0,0-.74,0l.25-1.76h4.43v-2.2H14l-.76,6a9.86,9.86,0,0,1,1.55-.11c2.29,0,3.22.72,3.22,1.9s-1.18,1.74-2.29,1.74a6.57,6.57,0,0,1-2.58-.56l-.47,2a7.26,7.26,0,0,0,3.18.65c3.08,0,4.9-1.88,4.9-4A3.25,3.25,0,0,0,19.35,42.1Z"/><polygon class="cls-1" points="41.76 40.64 41.8 40.64 41.8 49.69 44.38 49.69 44.38 38.27 42.17 38.27 39.14 39.67 39.58 41.68 41.76 40.64"/><path class="cls-1" d="M54.47,45.88A3.25,3.25,0,0,0,53.08,43a5.23,5.23,0,0,0-3-.83,5,5,0,0,0-.74,0l.25-1.76H54v-2.2H47.72l-.76,6a9.86,9.86,0,0,1,1.55-.11c2.29,0,3.22.72,3.22,1.9s-1.18,1.74-2.29,1.74a6.57,6.57,0,0,1-2.58-.56l-.47,2a7.26,7.26,0,0,0,3.18.65C52.64,49.88,54.47,48,54.47,45.88Z"/><polygon class="cls-1" points="58.87 24.49 58.87 24.49 71.87 11.49 69.39 9 58.87 19.52 54.73 15.38 52.24 17.87 58.87 24.49 58.87 24.49"/></svg>