<svg id="Layer_1" data-name="Layer 1" xmlns="http://www.w3.org/2000/svg" viewBox="0 0 69.75488 68.2149"><defs><style>.cls-1{fill:#41494f;}</style></defs><title>Specials</title><path class="cls-1" d="M21.90625,47.23151,17.2373,35.26373,12.78613,47.33014,0,47.79205l10.248,7.72168L6.90039,68.2149,17.502,60.39752,28.2207,68.00494,24.6416,55.35162l10.07812-7.91016Zm1.11133,13.40234L17.46875,56.6944l-5.498,4.05371,1.69141-6.418L8.55859,50.48541l6.34668-.22949,2.41016-6.53711,2.52832,6.47949,6.37207.10449L21.208,54.23248Z"/><polygon class="cls-1" points="54.094 27.833 59.404 23.917 64.77 27.725 62.993 21.44 67.969 17.535 61.64 17.431 59.266 11.346 57.003 17.483 50.692 17.711 55.756 21.526 54.094 27.833"/><polygon class="cls-1" points="15.497 16.461 20.799 12.551 26.157 16.354 24.382 10.078 29.35 6.179 23.032 6.075 20.662 0 18.402 6.127 12.101 6.355 17.156 10.164 15.497 16.461"/><path class="cls-1" d="M69.31543,61.50787,48.15137,40.34381a1.47385,1.47385,0,0,0-1.36035-.3811,9.89576,9.89576,0,1,0-1.14185,1.14178,1.47392,1.47392,0,0,0,.3811,1.36041L67.19434,63.629a1.49984,1.49984,0,0,0,2.12109-2.12109ZM34.38379,38.44147a6.89015,6.89015,0,1,1,9.74414,0A6.89785,6.89785,0,0,1,34.38379,38.44147Z"/></svg>