<svg id="Layer_1" data-name="Layer 1" xmlns="http://www.w3.org/2000/svg" viewBox="0 0 78.84434 67.40161"><defs><style>.cls-1{fill:#41494f;}</style></defs><title>Cycling</title><path class="cls-1" d="M36.766,31.02246l12.60547-6.92627,5.84521,6.34229c.13208.14478.27515.31506.4248.49561.5791.6897,1.2998,1.54724,2.04907,1.54724L69.362,32.36768a1.30341,1.30341,0,0,0,1.31262-1.38892,1.26466,1.26466,0,0,0-1.28394-1.33887l-11.20374.00159L44.09734,14.35132c-.15112-.16223-.2959-.33252-.48364-.55127a6.2543,6.2543,0,0,0-1.57031-1.47,2.21556,2.21556,0,0,0-1.0946-.2832,6.43389,6.43389,0,0,0-2.99744,1.20276c-.31335.18689-.61084.36353-.90674.52112L22.13714,21.6897a6.63747,6.63747,0,0,0-3.40308,6.80859,8.46086,8.46086,0,0,0,3.158,4.88916L35.21014,44.82019l.07642.15112L34.2094,58.715l-.0509.42957a3.52933,3.52933,0,0,0,.03662.87585c.30872,2.194,2.81116,2.73328,4.82544,3.16687.37073.07947.71912.155,1.04529.23706a4.49407,4.49407,0,0,0,1.08667.13916,3.16209,3.16209,0,0,0,2.85254-1.60376,3.76025,3.76025,0,0,0,.37073-1.4939l2.13342-18.41394a2.0907,2.0907,0,0,1,.06372-.32776,1.18649,1.18649,0,0,0-.17822-1.61475Zm7.09583,10.73669a2.10689,2.10689,0,0,0-.0907.40967L41.7586,59.55347l.06531-.05884-.16711.9585-.06531.1106-.09058.23145-.14014.07788-.14307.04858h-.20215l-.17017.0144-.02856-.12744-.0271-.015-3.49072-.879a.60626.60626,0,0,1-.3324-.18384l-.10022-.12561,1.14233-14.56067a3.861,3.861,0,0,0-.01758-.44775A1.245,1.245,0,0,0,37.6635,43.327L22.97869,30.73926a5.72254,5.72254,0,0,1-1.365-2.01343,3.36371,3.36371,0,0,1-.183-2.02612,4.43989,4.43989,0,0,1,1.99353-2.60754l16.1626-8.58582c.17822-.093.35168-.20117.54419-.32129a.42966.42966,0,0,1-.07007-.44153l.06848-.11292.16711-.07886h.09229a.51173.51173,0,0,1,.39136.24988l.01587-.00964,6.67261,7.239L33.7719,29.55554a1.37687,1.37687,0,0,0-.27527,2.13025L43.873,41.51733l.0144.16455Z" transform="translate(0)"/><path class="cls-1" d="M51.16277,16.04578A8.35385,8.35385,0,0,0,62.19939,5.2478a8.35376,8.35376,0,1,0-15.50562,6.22229A8.30242,8.30242,0,0,0,51.16277,16.04578ZM49.26958,6.14832a5.63336,5.63336,0,1,1-.04614,4.306A5.62638,5.62638,0,0,1,49.26958,6.14832Z" transform="translate(0)"/><path class="cls-1" d="M74.49139,41.82666a15.00729,15.00729,0,1,0-10.73755,25.575h.07642a15.00636,15.00636,0,0,0,10.66113-25.575ZM63.76824,64.674a12.28676,12.28676,0,0,1,.0603-24.57336h.06055A12.29937,12.29937,0,0,1,76.11565,52.44727,12.34385,12.34385,0,0,1,63.76824,64.674Z" transform="translate(0)"/><path class="cls-1" d="M15.01263,37.1a15.01413,15.01413,0,0,0-.07312,30.02808h.07629A15.014,15.014,0,1,0,15.01263,37.1ZM14.9555,64.40039a12.28682,12.28682,0,0,1,.05713-24.57349l.06213.00073a12.28652,12.28652,0,0,1-.11926,24.57275Z" transform="translate(0)"/></svg>