<svg id="Layer_1" data-name="Layer 1" xmlns="http://www.w3.org/2000/svg" viewBox="0 0 106.62742 63.65687"><defs><style>.cls-1{fill:#41494f;}</style></defs><title>Greyhounds</title><path class="cls-1" d="M106.19133,7.22819c-.41821-.59619-2.10547-.9707-2.79541-.99585L88.80119,5.23771,88.12,4.75651a2.63714,2.63714,0,0,0-2.20947-1.91772l-.25049-.00623L80.72184,1.20231,74.99333.24406A2.172,2.172,0,0,0,73.73674.01481a2.20228,2.20228,0,0,0-.7384.2207C72.3715.56266,71.93376.16765,71.829.85392A8.858,8.858,0,0,0,72.9904,7.1486L71.88688,9.67717l-1.31409.47729C62.49553,13.07048,32.726,21.125,23.467,29.88273a1.58371,1.58371,0,0,1-1.01172-.66052l-2.25793,3.05994.006.00049-.0144.01978-.00452-.00281-1.20032,1.62671.00671.00427-.19324.2627a15.27464,15.27464,0,0,0,1.553.9502l-9.12964,6.84314-6.379,4.42346A3.69619,3.69619,0,0,0,3.527,48.54191L.04338,61.52092A1.75661,1.75661,0,0,0,.44487,63.0944a1.7287,1.7287,0,0,0,1.47156.55115L6.53605,63.111a2.31019,2.31019,0,0,0,1.82471-1.3252L12.917,51.862a.18974.18974,0,0,1,.12659-.10913l6.20068-3.26257L30.47746,43.221a3.21179,3.21179,0,0,0,1.63477-1.51306,3.92943,3.92943,0,0,0,1.16748-1.72217l1.95361-3.00635L66.512,30.3549a.23547.23547,0,0,1,.16687.04395.22392.22392,0,0,1,.08435.17529L84.63481,42.371a1.82028,1.82028,0,0,0,2.03174,1.79321l4.392-.5083c.90405-.10474,1.62805-3.78186,1.799-4.68579.06812-.363-.23987-.69434-.79626-1.032-2.17407-2.04492-11.02026-4.62378-12.26721-11.908a10.35469,10.35469,0,0,1,.17957-1.08655l3.2627-5.14771c.42651-1.93286.68176-3.09.79382-3.82361l19.09265-2.16321a2.776,2.776,0,0,0,2.23157-2.04333l1.175-2.54346A2.30015,2.30015,0,0,0,106.19133,7.22819ZM23.93718,32.60307l.5564.006.39551-.38916c8.73828-8.57983,39.1532-16.86914,46.59106-19.5542l1.71826-.62415a1.89116,1.89116,0,0,0,1.10779-1.16687l1.60535-4.12915-.3595-.53247c-1.20715-1.78064-1.28015-1.91992-1.16321-3.27563l5.77979.986,5.39063,1.59473.693.5144a2.553,2.553,0,0,0,1.68921,1.75354l.1582.03857L103.86454,8.8372,102.685,11.17546,78.61784,14.16911a1.33663,1.33663,0,0,0-1.09875,1.53577,1.33854,1.33854,0,0,0,1.52844,1.098l2.19189-.36584c-.50159,2.30823-2.66089,2.50037-3.87012,7.924l-.11646.51709c-1.06641,4.77954,2.15552,8.04822,5.53992,10.53125,2.55554,2.07019,5.28711,3.61084,6.35413,4.88354a1.27647,1.27647,0,0,1,.175.87573l-2.02368.23413L69.43474,30.54753a2.89385,2.89385,0,0,0-3.21411-2.8479,2.955,2.955,0,0,0-.35767.06372l-15.74219,2.6626-13.844,3.53052.68945-1.9873a1.337,1.337,0,0,0-.82446-1.69824,1.30472,1.30472,0,0,0-.59082-.067,1.34276,1.34276,0,0,0-1.10913.89148L32.9445,35.42814a1.604,1.604,0,0,0-.1272.271l-2.0647,3.42993a7.24059,7.24059,0,0,0-.14258.7832,1.60443,1.60443,0,0,1-.65308.35974L14.45207,48.42961l-2.09448.74316a2.85579,2.85579,0,0,0-1.87036,1.5802L6.01017,60.50432l-3.02185.33533,3.1344-11.67957a1.10684,1.10684,0,0,1,.38745-.66479l6.66162-4.65161c.4469-.36.822.10034.83-.46826l9.13928-7.5907a2.14333,2.14333,0,0,1,.02271-.26123l.14111-.97974-1.01233-1.41321c-.399-.18628.1759-.39526.64258-.61353Z" transform="translate(0)"/><path class="cls-1" d="M20.15043,32.27812c.01013.0072.02356.01428.03394.02148l.01294-.01746Z" transform="translate(0)"/></svg>