<svg id="Layer_1" data-name="Layer 1" xmlns="http://www.w3.org/2000/svg" viewBox="0 0 83.63098 70.77588"><defs><style>.cls-1{fill:#41494f;}</style></defs><title>Horse_Racing</title><circle class="cls-1" cx="24.77415" cy="25.4411" r="2.21523"/><path class="cls-1" d="M83.34558,13.29138c-.306-.01086-.608-.01477-.90814-.01477a31.57292,31.57292,0,0,0-8.69843,1.2771,12.45636,12.45636,0,1,0-24.68384-3.2301c-2.60229,1.69617-5.7616,3.76636-5.7616,3.76636l-3.78595,2.47937,10.55017-.02954.71039,1.94214-1.27606,6.75049,3.32739-.75269,2.22662,5.501,6.48676-3.03833,2.499,1.07251-3.69641,6.33423L47.01666,29.10229,5.394,47.30212,3.27435,46.146l1.00757-3.44238L27.80719,16.27246a1.39513,1.39513,0,0,0,.372-1.69019A6.999,6.999,0,0,1,29.96,6.20447a6.99908,6.99908,0,0,1,1.89691,8.1239,1.40316,1.40316,0,0,0,.41425,1.65588l3.44458,2.72437,3.39148-.93274L34.80365,14.418a9.76647,9.76647,0,0,0,.429-2.876A9.89927,9.89927,0,0,0,33.8208,6.4751a9.7219,9.7219,0,0,0-3.10718-3.18445,1.39641,1.39641,0,0,0-1.50726,0,9.80373,9.80373,0,0,0-3.96411,11.509L1.70215,41.70581,0,47.65723l10.3689,5.7511L35.26013,42.65845C36.30115,44.79736,45.6156,69.975,45.6156,69.975a1.39417,1.39417,0,0,0,1.02222.77917,1.25884,1.25884,0,0,0,.243.02173,1.41151,1.41151,0,0,0,.99182-.41125L68.12878,49.65088a1.40274,1.40274,0,0,0-.0177-1.9707l-5.35229-4.3468-1.8241,2.05725,4.397,3.55579L47.29608,66.98206S38.23743,42.31982,37.20929,40.3147a1.39219,1.39219,0,0,0-1.24463-.76147,1.437,1.437,0,0,0-.43585.0708L10.66272,50.176,8.372,48.92651l38.54333-16.902,14.50244,6.80359,6.467-11.08252-6.399-2.74695-5.013,2.34558L54.45477,22.355l-1.56232.35315.65228-3.45447L51.93506,14.8479l-3.37762.00977c.84607-.55383,3.11389-2.03076,3.11389-2.03076l.02472-.69849a9.76915,9.76915,0,1,1,19.18665,2.90552,35.3554,35.3554,0,0,1-3.23993,2.77441l-.21637.16919,1.56134,2.16064,3.43182-2.3042a29.07682,29.07682,0,0,1,9.99921-1.87134q.41483,0,.83636.01477l.28528.00977.09058-2.68591Z"/></svg>