<svg id="Layer_1" data-name="Layer 1" xmlns="http://www.w3.org/2000/svg" viewBox="0 0 90.19445 63.48047"><defs><style>.cls-1{fill:#41494f;}</style></defs><title>Motor_Sports</title><path class="cls-1" d="M43.9133,51.97559a1.30308,1.30308,0,0,0-1.67871.64551l-3.647,8.20508a.18945.18945,0,0,1-.17139.11035H34.05735l6.87012-15.45215a1.275,1.275,0,0,0-.64551-1.67969,1.304,1.304,0,0,0-1.67969.64551l-7.27979,16.374a1.88865,1.88865,0,0,0,1.72559,2.65625h5.36816a2.73692,2.73692,0,0,0,2.49756-1.62109l3.64648-8.2041A1.27581,1.27581,0,0,0,43.9133,51.97559Z"/><path class="cls-1" d="M89.883,20.90039a1.89808,1.89808,0,0,0-1.585-.85547c-2.91064-.01074-6.96631-.65527-9.76074-3.668a27.22231,27.22231,0,0,1-2.56006-3.43555A31.125,31.125,0,0,0,73.40549,9.46a16.78139,16.78139,0,0,0-7.11816-4.74512,2.21833,2.21833,0,0,0-1.24023-2.6084L60.71311.18066A2.1166,2.1166,0,0,0,59.84836,0a2.277,2.277,0,0,0-2.06689,1.30664L47.50461,24.42773,45.092,29.82617,32.4133,1.30664A2.27484,2.27484,0,0,0,30.34787,0a2.1274,2.1274,0,0,0-.8667.18066L25.1511,2.10645A2.218,2.218,0,0,0,23.90744,4.7168a16.33825,16.33825,0,0,0-1.75732.71484A17.10649,17.10649,0,0,0,16.79075,9.46a31.17732,31.17732,0,0,0-2.604,3.5293,26.79347,26.79347,0,0,1-2.5293,3.3877c-2.793,3.0127-6.84961,3.65723-9.76123,3.668a1.89365,1.89365,0,0,0-1.584.85645A1.87135,1.87135,0,0,0,.15012,22.6709L8.83518,43.04883a2.71556,2.71556,0,0,0,2.498,1.66406c4.89941-.01758,8.9165-1.56738,11.6167-4.48145a29.33181,29.33181,0,0,0,2.80664-3.74707,28.778,28.778,0,0,1,2.35986-3.207A14.53756,14.53756,0,0,1,32.98362,29.708a13.20847,13.20847,0,0,1,1.72461-.63281L49.281,61.85938a2.73692,2.73692,0,0,0,2.49756,1.62109H57.1467a1.8887,1.8887,0,0,0,1.72607-2.65527L50.12131,41.14258,55.487,29.07617a14.3672,14.3672,0,0,1,6.59277,4.20117A29.06591,29.06591,0,0,1,64.446,36.49512a29.11233,29.11233,0,0,0,2.79834,3.73633c2.70166,2.91406,6.72217,4.46387,11.62891,4.48145a2.71437,2.71437,0,0,0,2.48779-1.66211l8.68359-20.38184A1.8741,1.8741,0,0,0,89.883,20.90039ZM53.59446,27.06934,47.56809,40.625a1.27962,1.27962,0,0,0-.00049,1.03418l8.56982,19.27734H51.77854a.19048.19048,0,0,1-.17187-.11133L36.60032,27.06934a1.27369,1.27369,0,0,0-1.1626-.75488,1.22215,1.22215,0,0,0-.25293.02637,15.55831,15.55831,0,0,0-3.24072,1.04492A17.068,17.068,0,0,0,26.219,31.585a31.06956,31.06956,0,0,0-2.58691,3.501,26.96023,26.96023,0,0,1-2.54639,3.416c-2.79443,3.0127-6.85254,3.65723-9.76367,3.668a.17758.17758,0,0,1-.14551-.11621L2.86985,22.56445c4.457-.20508,8.13916-1.74512,10.65234-4.457a29.042,29.042,0,0,0,2.8042-3.74512,28.95267,28.95267,0,0,1,2.3623-3.21,14.59854,14.59854,0,0,1,4.55664-3.4248A13.20721,13.20721,0,0,1,25.927,6.78027a1.27033,1.27033,0,0,0,.87256-1.75391l-.32129-.72656,3.73145-1.68359,13.48682,30.334-1.019,2.2832a1.26859,1.26859,0,0,0,.64209,1.67773,1.29613,1.29613,0,0,0,1.6792-.64258L59.97532,2.63672l3.74121,1.66211-.32178.72754a1.26972,1.26972,0,0,0,.87451,1.75391,14.12123,14.12123,0,0,1,7.23682,4.37207A29.12085,29.12085,0,0,1,73.87571,14.374a28.95132,28.95132,0,0,0,2.79688,3.73242c2.51367,2.71191,6.19629,4.25293,10.65234,4.458L79.02121,42.05078a.18437.18437,0,0,1-.1499.11914c-2.91113-.01074-6.96777-.65527-9.76172-3.668a27.13236,27.13236,0,0,1-2.56348-3.44043A30.80434,30.80434,0,0,0,63.97727,31.585,16.566,16.566,0,0,0,55.0134,26.3418,1.289,1.289,0,0,0,53.59446,27.06934Z"/></svg>