<svg id="Layer_1" data-name="Layer 1" xmlns="http://www.w3.org/2000/svg" viewBox="0 0 82.33221 66.08447"><defs><style>.cls-1{fill:#41494f;}</style></defs><title>Speedway</title><path class="cls-1" d="M69.8645,41.20789a12.41944,12.41944,0,0,0-4.90979,1.00854l-4.88654-8.76062a12.5196,12.5196,0,0,1,14.27655,2.147,1.27938,1.27938,0,0,0,1.76837-1.84937,15.09319,15.09319,0,0,0-14.78229-3.54761c-.23029-.27942-.47076-.5498-.73022-.80859a7.937,7.937,0,0,0-1.52527-7.19678A2.57047,2.57047,0,0,0,57.30139,21.3l-.17261-.00562a2.56976,2.56976,0,0,0-1.70874.64673l-1.37225,1.22168-1.30615-2.228a2.09461,2.09461,0,0,0-1.82245-1.05,2.14414,2.14414,0,0,0-1.027.26575l-2.599,1.43091a1.22578,1.22578,0,0,0,.06775-.21863,1.28105,1.28105,0,0,0-1.12164-1.41992l-5.06726-.59253a1.605,1.605,0,0,1-1.167-.767l-.11212-.15344-4.1413-4.65234q1.6712,1.45972,4.02673,3.32715a2.14106,2.14106,0,0,0,1.32684.46216h.01434l2.10565-.01587a1.77267,1.77267,0,0,0,1.424-.73462L45.90125,15.077a1.25473,1.25473,0,0,0,.09308-1.32776,1.23708,1.23708,0,0,0-.45532-.481,8.347,8.347,0,0,0,.66211-.8114c.13489-.18689.26813-.38171.39783-.58167l.0556.03906a3.04479,3.04479,0,0,0,1.76361.56006,3.194,3.194,0,0,0,.4248-.0293l.42957-.06006a1.49757,1.49757,0,0,0,1.18848-.93213,1.48085,1.48085,0,0,0-.23785-1.48657L47.29968,6.486a8.66712,8.66712,0,0,0-3.4198-4.8446A8.79846,8.79846,0,0,0,38.788,0a7.399,7.399,0,0,0-6.11731,3.004,7.24609,7.24609,0,0,0-1.04047,6.18811,5.28707,5.28707,0,0,0,1.20557,1.79077,6.136,6.136,0,0,0-3.92615-.71472,18.54719,18.54719,0,0,0-13.19794,8.83545A7.00148,7.00148,0,0,0,20.14093,29.519l3.94244.91821-4.66949,1.37036a3.49084,3.49084,0,0,0-2.39362,3.96069l.07874.39136A31.04749,31.04749,0,0,0,5.32019,34.00317a30.51462,30.51462,0,0,0-3.95276.22754,1.27936,1.27936,0,0,0,.17578,2.54639l.17584-.012a29.39916,29.39916,0,0,1,3.52875-.1886,27.00559,27.00559,0,0,1,12.48792,2.74377l.30194,1.4906A1.28377,1.28377,0,0,0,19.09808,41.822c.045.00757,4.29272.75806,6.1673,6.08948l-1.4975.51282a12.52058,12.52058,0,1,0,.8363,2.41846l5.58459-1.91235a1.02392,1.02392,0,0,1,.32532-.05322,1.01012,1.01012,0,0,1,.57355.17578l2.47717,1.69287a4.30987,4.30987,0,0,0,2.44373.75562H49.75061a3.349,3.349,0,0,0,3.33789-3.28613c.02386-1.71191.03577-2.91785.03577-3.58447a12.46786,12.46786,0,0,1,4.77814-9.80322l4.81927,8.6394a12.45659,12.45659,0,1,0,7.14282-2.25916Zm-47.489,12.43823a9.92174,9.92174,0,1,1-1.04388-4.38757l-6.15833,2.10864A3.541,3.541,0,1,0,16.011,53.7854l6.16541-2.11121A9.859,9.859,0,0,1,22.37549,53.64612ZM58.1283,27.48242l.08264-1.2937a5.6759,5.6759,0,0,1,.08417,1.38452C58.24176,27.54053,58.18231,27.51465,58.1283,27.48242Zm-2.41235-2.38L55.6391,26.308c-.30627-.11194-.619-.20959-.93585-.30359ZM40.87457,21.89185l4.82953.56445-.21887.12048A1.27934,1.27934,0,0,0,46.719,24.81836l4.03235-2.22021,1.34784,2.29956-.543.4834c-.56-.05457-1.12592-.09094-1.69983-.09094a15.83539,15.83539,0,0,0-9.53717,3.03015A4.27794,4.27794,0,0,0,37.053,24.09058l-6.88019-1.70715a1.57831,1.57831,0,0,1-.68652-2.70068L33.96362,15.615l3.92072,4.40027A4.15113,4.15113,0,0,0,40.87457,21.89185Zm3.24554-10.91211a4.754,4.754,0,0,1-1.2254,1.21436,2.5303,2.5303,0,0,1-.20886-.2356L40.97321,9.47583l1.95532-.16821,1.57758,1.10352C44.39124,10.59521,44.262,10.78271,44.12012,10.97974ZM34.7525,4.4812a4.86334,4.86334,0,0,1,4.02991-1.94409,6.33794,6.33794,0,0,1,3.61548,1.17554A6.271,6.271,0,0,1,44.467,6.14551a1.26033,1.26033,0,0,0,.24023,1.162l.26727.32312-.9538-.66748a1.34265,1.34265,0,0,0-.817-.22681c-.00952,0-3.10162.26465-3.10162.26465a2.18409,2.18409,0,0,0-1.78027,1.22681,2.14893,2.14893,0,0,0,.17023,2.14612l2.08258,3.0199a5.08555,5.08555,0,0,0,1.42053,1.37744l.00879.00537c.12921.08374.25854.16748.39551.23962l-1.14307.00793c-4.63928-3.68506-6.98364-6.03259-7.15784-6.50024A4.734,4.734,0,0,1,34.7525,4.4812Zm-5.46185,8.31665a3.61824,3.61824,0,0,1,.541-.03979,4.12549,4.12549,0,0,1,2.49939.882l.00067.0011-4.56519,4.14844a4.11766,4.11766,0,0,0-1.29871,3.69287l-7.96942-1.93909A15.98637,15.98637,0,0,1,29.29065,12.79785ZM17.63037,24.43335a4.44384,4.44384,0,0,1-.27887-2.53613l12.19281,2.96667.012.00378,6.88019,1.70642a1.75724,1.75724,0,0,1,1.08826.80261,1.73869,1.73869,0,0,1,.19806,1.33081L34.07153,43.24438a.52174.52174,0,0,1-.56958.36829c-.01587,0-.03259,0-.04932-.00085l-2.51215-.62769a.50536.50536,0,0,1-.36908-.61084l2.33868-9.30957a3.06322,3.06322,0,0,0-2.27826-3.72852l-9.91016-2.30847A4.46862,4.46862,0,0,1,17.63037,24.43335Zm2.50342,9.8291,9.01642-2.645.90173.21008a.51268.51268,0,0,1,.31818.22827.505.505,0,0,1,.0589.38416l-.30658,1.22046L19.84308,36.82532l-.31384-1.5614A.91776.91776,0,0,1,20.13379,34.26245Zm30.4314,10.36841c0,.6571-.0119,1.85034-.03577,3.54956a.77871.77871,0,0,1-.77881.762H36.00854a1.76509,1.76509,0,0,1-.99994-.30859l-2.47711-1.69287a3.58474,3.58474,0,0,0-3.17242-.43115l-1.66974.57178A11.425,11.425,0,0,0,20.386,39.51514l-.035-.1687,9.04248-2.78418-1.30316,5.18738a3.06194,3.06194,0,0,0,2.23053,3.71643l2.51135.62769a3.06662,3.06662,0,0,0,3.72052-2.22583l2.507-9.97852a1.27466,1.27466,0,0,0,.16272-.26562c1.47241-3.4541,5.74579-5.77454,10.634-5.77454a12.66629,12.66629,0,0,1,8.96375,3.37109A15.0658,15.0658,0,0,0,50.56519,44.63086ZM69.8645,63.52539a9.86113,9.86113,0,0,1-5.88708-17.80713l3.05487,5.47632a3.72269,3.72269,0,0,0-.93439,2.45154,3.85456,3.85456,0,1,0,3.16882-3.6991l-3.05438-5.476A9.88213,9.88213,0,1,1,69.8645,63.52539Z"/></svg>