<svg id="Layer_1" data-name="Layer 1" xmlns="http://www.w3.org/2000/svg" viewBox="0 0 70.55163 70.55823"><defs><style>.cls-1{fill:#41494f;}</style></defs><title>Tennis</title><path class="cls-1" d="M67.08495,37.11768a7.9441,7.9441,0,0,0-.66949-2.90112c6.02692-9.917,5.427-21.57446-1.53546-28.53687C60.6624,1.462,54.72935-.5144,48.17412.11451A29.365,29.365,0,0,0,30.408,8.81641a29.36553,29.36553,0,0,0-8.70209,17.76611A21.52259,21.52259,0,0,0,23.83806,38.582a1.2538,1.2538,0,0,0-.03156.19946,11.73115,11.73115,0,0,1-.96246,3.65112,10.47175,10.47175,0,0,1-1.35535,2.165,4.035,4.035,0,0,0-4.7135.71484l-15.6,15.6001a4.02319,4.02319,0,0,0,0,5.68335l2.78864,2.78857a4.02693,4.02693,0,0,0,5.68341,0L25.24718,53.78467a4.026,4.026,0,0,0,.71448-4.71436,10.471,10.471,0,0,1,2.16553-1.35461,11.88624,11.88624,0,0,1,3.65112-.96252,1.246,1.246,0,0,0,.2132-.03467,21.18292,21.18292,0,0,0,9.68243,2.2478A27.40808,27.40808,0,0,0,55.91185,44.7605a7.94568,7.94568,0,0,0,2.914.658c.01624.00073.03217.00244.04852.00244l.02936-.00049c.06781.00171.13531.005.20343.005a7.9857,7.9857,0,0,0,7.9856-7.9856c0-.08728-.00354-.17419-.00635-.26111C67.086,37.15845,67.08635,37.1377,67.08495,37.11768ZM23.47649,52.01392l-15.6,15.59985a1.52236,1.52236,0,0,1-2.142,0L2.94591,64.8252a1.51625,1.51625,0,0,1,0-2.142l15.6-15.6a1.52266,1.52266,0,0,1,2.142,0l2.78864,2.78857A1.5164,1.5164,0,0,1,23.47649,52.01392ZM27.06511,45.448a12.96529,12.96529,0,0,0-2.74237,1.72876l-.9397-.9397a12.97,12.97,0,0,0,1.72876-2.74243,12.51445,12.51445,0,0,0,.68781-1.86072,18.90565,18.90565,0,0,0,1.47162,1.65466,18.57113,18.57113,0,0,0,1.65912,1.47021A12.52219,12.52219,0,0,0,27.06511,45.448Zm24.12482-6.972a19.09563,19.09563,0,0,1-9.69147,2.57471,12.24112,12.24112,0,0,1-8.532-3.4574c-5.59784-5.5979-4.27136-16.03284,2.957-23.26123A21.34935,21.34935,0,0,1,48.3134,8.02735,12.84655,12.84655,0,0,1,59.18474,11.375c4.27893,4.27905,4.62732,11.514.9256,18.14355a8.11293,8.11293,0,0,0-1.00317-.06445,7.986,7.986,0,0,0-7.98566,7.98572A8.11342,8.11342,0,0,0,51.18993,38.476Zm4.0412-4.91223a5.44466,5.44466,0,0,1,2.78662-1.49756,5.48917,5.48917,0,0,1-4.28436,4.28467A5.44351,5.44351,0,0,1,55.23112,33.56373Zm2.48169,9.17847a5.48965,5.48965,0,0,1-3.897-3.86755,7.97038,7.97038,0,0,0,6.72369-6.72681,5.48915,5.48915,0,0,1,3.86993,3.89709,7.96542,7.96542,0,0,0-6.69666,6.69727Zm5.27032-1.42651a5.44327,5.44327,0,0,1-2.74335,1.488A5.49087,5.49087,0,0,1,64.47118,38.572,5.44255,5.44255,0,0,1,62.98314,41.31568Zm1.77069-9.52246A7.99652,7.99652,0,0,0,62.57,30.24073a21.08406,21.08406,0,0,0,2.57172-10.52026,14.67951,14.67951,0,0,0-4.18634-10.116c-3.225-3.22522-7.81921-4.6687-12.93573-4.064a23.85883,23.85883,0,0,0-13.86688,7.02075,23.85927,23.85927,0,0,0-7.02081,13.86694c-.60437,5.1167.83881,9.71069,4.06378,12.93567A14.69728,14.69728,0,0,0,41.43193,43.554q.24527.00659.49091.00635A21.29126,21.29126,0,0,0,51.92137,40.929a7.99291,7.99291,0,0,0,1.53912,2.15747c.04407.04419.09.08569.13495.12866-8.71649,4.86035-18.61285,4.24365-24.55353-1.69714-3.67944-3.67944-5.39948-8.89856-4.84338-14.69617A26.85961,26.85961,0,0,1,32.1787,10.58716C41.57121,1.19471,55.4467-.2124,63.1093,7.45045c5.90851,5.90845,6.54791,15.76587,1.75146,24.45508C64.82487,31.86817,64.79051,31.82984,64.75383,31.79322Z"/></svg>