<svg id="Layer_1" data-name="Layer 1" xmlns="http://www.w3.org/2000/svg" viewBox="0 0 66.28 66.26"><defs><style>.cls-1{fill:#41494f}</style></defs><title>ICNA-ZSports</title><path class="cls-1" d="M33.17 66.26A33.24 33.24 0 0 1 4.45 49.69 33.13 33.13 0 0 1 33.11 0a33.24 33.24 0 0 1 28.72 16.57 33.13 33.13 0 0 1-28.66 49.69m-.06-63.5a30.37 30.37 0 1 0 26.32 15.19A30.35 30.35 0 0 0 33.11 2.76"/><path class="cls-1" d="M33.16 58.07A25 25 0 0 1 11.54 45.6 24.94 24.94 0 0 1 33.12 8.19a25 25 0 0 1 21.61 12.47 24.94 24.94 0 0 1-21.57 37.4m0-46.7A21.76 21.76 0 1 0 52 22.25a21.75 21.75 0 0 0-18.88-10.88"/><path class="cls-1" d="M31.36 40h-2a.86.86 0 0 1-.55-.17.94.94 0 0 1-.31-.41l-1-2.81h-5.72l-1 2.81a.91.91 0 0 1-.3.4.85.85 0 0 1-.55.18h-2l5.41-13.78h2.62zm-8.92-5.2h4.39l-1.68-4.58q-.11-.3-.25-.72c-.09-.28-.18-.58-.27-.9q-.13.49-.26.91c-.08.28-.17.52-.25.73zM31.7 33.28h4.94v1.96H31.7zM48.37 26.24v.94a1.39 1.39 0 0 1-.25.8L41 38h7.2v2H37.72v-1a1 1 0 0 1 .07-.37 1.56 1.56 0 0 1 .17-.33l7.09-10h-6.88v-2z"/></svg>