<svg id="Layer_2" xmlns="http://www.w3.org/2000/svg" viewBox="0 0 24 24"><style>.st0{fill:#666}</style><path class="st0" d="M21.96 11.9V4.69c0-.15-.16-.28-.36-.28-.2 0-.36.12-.36.28v6.86H2.71V4.69c0-.15-.16-.28-.36-.28-.19 0-.35.13-.35.28v16.59c0 .19.16.35.36.35.2 0 .36-.16.36-.35v-8.92h18.53v8.92c0 .19.16.35.36.35.2 0 .36-.16.36-.35l-.01-9.38z"/><path class="st0" d="M14.04 5.57h-.51v-.49a.31.31 0 0 0-.09-.22.294.294 0 0 0-.22-.09c-.08 0-.16.03-.21.09a.31.31 0 0 0-.09.22v.49h-.51v-.49a.31.31 0 0 0-.09-.22.294.294 0 0 0-.22-.09c-.17 0-.3.14-.31.3v.49h-.51v-.49a.31.31 0 0 0-.09-.22.294.294 0 0 0-.22-.09c-.17 0-.3.14-.31.3v.49h-.52c-.08 0-.16.03-.21.09-.03.06-.07.14-.07.22 0 .08.03.16.09.22s.13.09.22.09h.51v.49c0 .08.03.16.09.22s.13.09.22.09c.08 0 .16-.03.22-.09s.09-.13.09-.22v-.49h.51v.49c0 .08.03.16.09.22s.13.09.22.09c.17 0 .3-.14.31-.3v-.49h.51v.49c0 .08.03.16.09.22s.13.09.22.09c.08 0 .16-.03.21-.09.06-.06.09-.13.09-.22v-.49h.52c.17 0 .3-.14.31-.3a.31.31 0 0 0-.09-.22.45.45 0 0 0-.25-.09z"/><path class="st0" d="M6.95 7.38c.87.88 2.7 2.36 5.14 2.37h.03c3.42 0 5.65-2.87 5.74-3 .37-.48.37-1.24.01-1.72 0 0-.21-.28-.6-.68-.87-.88-2.7-2.36-5.17-2.37-3.43 0-5.65 2.87-5.74 3-.37.48-.38 1.24-.01 1.72 0 0 .21.28.6.68zm9.01-2.77c-.1-.09-.26-.22-.45-.36l-.21-.15-.03 4c-1.03.63-2.1.96-3.18.96-1.08-.01-2.15-.34-3.18-1l.02-4-.21.15c-.16.11-.28.21-.37.28-.03.02-.05.04-.06.05l-.06.04-.01 3c-.28-.22-.55-.46-.8-.72-.3-.3-.47-.52-.52-.57-.17-.23-.17-.66 0-.88.02-.03 2.11-2.72 5.21-2.72 2.18.01 3.78 1.3 4.54 2.07.29.29.45.5.48.54.18.25.33.83.16 1.05 0 .01-.5.64-1.33 1.28L16 4.65l-.04-.04zM10.17 18.41h.51v.49c0 .08.03.16.09.22s.13.09.22.09c.08 0 .16-.03.21-.09.06-.06.09-.13.09-.22v-.49h.51v.49c0 .08.03.16.09.22s.13.09.22.09c.17 0 .3-.14.31-.3v-.49h.51v.49c0 .08.03.16.09.22s.13.09.22.09c.17 0 .3-.14.31-.3v-.49h.52c.08 0 .16-.03.21-.09.06-.06.09-.13.09-.22a.31.31 0 0 0-.09-.22.294.294 0 0 0-.22-.09h-.51v-.49a.31.31 0 0 0-.09-.22.294.294 0 0 0-.22-.09.31.31 0 0 0-.22.09c-.06.06-.09.13-.09.22v.49h-.51v-.49a.31.31 0 0 0-.09-.22.294.294 0 0 0-.22-.09c-.17 0-.3.14-.31.3v.49h-.51v-.49a.31.31 0 0 0-.09-.22.294.294 0 0 0-.22-.09c-.08 0-.16.03-.21.09-.06.06-.09.13-.09.22v.49h-.52c-.17 0-.3.14-.31.3 0 .08.03.16.09.22.07.06.14.09.23.09z"/><path class="st0" d="M17.26 16.6c-.87-.88-2.7-2.36-5.14-2.37h-.03c-3.42 0-5.65 2.87-5.74 3-.37.48-.37 1.24-.01 1.72 0 0 .21.29.6.68.87.88 2.7 2.36 5.17 2.37 3.43 0 5.65-2.87 5.74-3 .37-.48.37-1.23.01-1.72 0 0-.21-.28-.6-.68zm-9.01 2.77c.1.09.26.22.45.36l.21.15.03-4c1.03-.63 2.1-.96 3.18-.96 1.08.01 2.15.34 3.18 1l-.02 4 .21-.14c.16-.11.28-.21.37-.28a.38.38 0 0 0 .06-.05l.06-.04.01-3c.28.22.55.46.8.72.29.29.47.51.51.57.17.23.17.66 0 .88-.02.03-2.11 2.72-5.21 2.72-2.18-.01-3.78-1.3-4.54-2.07-.29-.29-.45-.5-.48-.54-.18-.25-.33-.83-.16-1.05 0-.01.5-.64 1.33-1.28l-.02 2.96.03.05z"/></svg>