<svg id="Layer_2" xmlns="http://www.w3.org/2000/svg" viewBox="0 0 24 24"><style>.st0{fill:#666}</style><path class="st0" d="M12 22C6.48 22 1.99 17.51 1.99 11.99c0-5.51 4.49-10 10.01-10S22.01 6.48 22.01 12c0 5.51-4.5 10-10.01 10zm0-19.19c-5.06 0-9.19 4.12-9.19 9.18s4.12 9.18 9.19 9.18c5.07 0 9.19-4.12 9.19-9.18-.01-5.06-4.13-9.18-9.19-9.18z"/><path class="st0" d="M14.29 12.32c-.18 0-.32-.15-.32-.32 0-.18.15-.32.32-.32h2.06c.18 0 .32.15.32.32 0 .18-.15.32-.32.32h-2.06zM16.51 10.48h-.06l-2.03-.35a.317.317 0 0 1-.21-.13.348.348 0 0 1-.06-.24c.03-.15.16-.27.32-.27h.05l2.03.35c.08.01.16.06.21.13.05.07.07.16.06.24-.02.16-.16.27-.31.27zM16.92 8.7c-.04 0-.08-.01-.12-.03l-1.9-.79a.323.323 0 0 1 .13-.62c.04 0 .08.01.12.02l1.9.79c.08.03.14.1.18.18.03.08.03.17 0 .25-.06.13-.18.2-.31.2zM17.65 7.05c-.06 0-.13-.02-.18-.05l-1.72-1.13c-.15-.1-.19-.3-.09-.45.06-.09.16-.15.27-.15.06 0 .12.02.18.05l1.72 1.13c.15.1.19.3.09.45-.05.09-.16.15-.27.15zM14.48 14.42c-.16 0-.29-.11-.32-.27-.01-.08 0-.17.06-.24.05-.07.12-.12.21-.13l2.03-.35h.06c.16 0 .29.11.32.27.01.09 0 .17-.06.24-.05.07-.12.12-.21.13l-2.03.35h-.06zM15.02 16.64a.323.323 0 0 1-.13-.62l1.9-.79c.04-.02.08-.03.12-.03.13 0 .25.08.3.2.07.17-.01.36-.17.42l-1.9.79c-.04.03-.08.03-.12.03zM15.94 18.64c-.11 0-.21-.05-.27-.15-.1-.15-.06-.35.09-.45l1.72-1.13c.05-.03.11-.05.18-.05.11 0 .21.05.27.15.1.15.06.35-.09.45l-1.72 1.13c-.06.03-.12.05-.18.05zM7.65 12.32c-.18 0-.32-.15-.32-.32 0-.18.15-.32.32-.32H9.7c.18 0 .32.15.32.32 0 .18-.15.32-.32.32H7.65zM7.49 10.48c-.16 0-.29-.11-.32-.27-.01-.09 0-.17.06-.24.05-.07.12-.12.2-.13l2.03-.35h.05c.16 0 .29.11.32.27.01.09 0 .17-.05.24-.05.07-.12.12-.21.13l-2.03.35h-.05zM7.08 8.7a.323.323 0 0 1-.13-.62l1.9-.79c.04-.02.08-.03.12-.03.13 0 .25.08.3.2.07.17-.01.36-.17.43l-1.9.79c-.04.02-.08.02-.12.02zM6.34 7.05c-.11 0-.21-.05-.27-.15-.1-.15-.06-.35.09-.45l1.72-1.13c.05-.03.11-.05.18-.05.11 0 .21.05.27.15.1.15.06.35-.09.45L6.52 6.99a.3.3 0 0 1-.18.06zM9.52 14.42h-.05l-2.03-.35a.317.317 0 0 1-.21-.13.348.348 0 0 1-.06-.24c.03-.15.16-.27.32-.27h.05l2.03.35c.09.01.16.06.21.13.05.07.07.16.05.24-.02.16-.16.27-.31.27zM8.97 16.64c-.04 0-.08-.01-.12-.03l-1.9-.79a.323.323 0 0 1 .13-.62c.04 0 .08.01.12.02l1.9.79c.08.03.14.1.17.18.03.08.03.17 0 .25-.05.13-.16.2-.3.2zM8.06 18.64c-.06 0-.13-.02-.18-.05l-1.72-1.13c-.15-.1-.19-.3-.09-.45.06-.09.16-.15.27-.15.06 0 .13.02.18.05l1.72 1.13c.15.1.19.3.09.45-.06.1-.16.15-.27.15z"/></svg>