<svg id="Layer_2" xmlns="http://www.w3.org/2000/svg" viewBox="0 0 24 24"><style>.st0{fill:#666}</style><path class="st0" d="M17.26 3.63c-.34-.24-.74-.37-1.15-.37-.64 0-1.24.31-1.6.82-.31.43-.43.95-.34 1.47.09.52.37.98.8 1.28.34.24.74.37 1.15.37.64 0 1.23-.31 1.6-.82.63-.88.43-2.11-.46-2.75zm-.14 2.33c-.23.32-.61.52-1.01.52a1.234 1.234 0 0 1-1.22-1.03c-.05-.33.02-.65.22-.92.23-.34.6-.53 1-.53.26 0 .51.08.72.23.56.4.68 1.17.29 1.73zm-9 11.58l.03.03c0-.01-.02-.01-.03-.03 0 .01 0 0 0 0zm8.17-5.61c-.73-.83-1.45-1.66-2.18-2.49.1-.6.19-1.21.29-1.81.04-.25-.15-.5-.27-.72-.12-.22-.28-.42-.48-.57-.58-.45-1.31-.5-2.01-.38-.87.14-1.69.55-2.45.97-.23.13-.45.26-.66.42-.07-.04-.15-.09-.22-.13-.46-.27-.93-.55-1.4-.82.07-.1.13-.2.19-.3.25-.4-.38-.77-.64-.37-.06.1-.12.2-.19.3-.07-.04-.13-.08-.2-.12-.4-.25-.77.39-.36.63l.17.1c-.07.13-.15.25-.23.37-.25.41.39.78.64.38.08-.12.15-.24.23-.37.48.29.97.57 1.45.86-.15.2-.28.42-.36.67-.15.48-.09 1.02.1 1.48.09.23.21.48.38.67.66.72 1.31 1.44 1.97 2.16-.89.99-1.78 1.99-2.67 2.98-.08.09-.16.18-.21.28-.46-.26-.92-.52-1.38-.77l-3.06-1.71c-.42-.23-.79.4-.37.64.96.54 1.93 1.08 2.89 1.62.78.44 4.59 2.57 5.23 2.92.63.35 1.25.7 1.88 1.04.16.09.32.17.48.26.43.23.93.19 1.33-.08.1-.07.2-.15.28-.24.13-.15.15-.37 0-.52-.14-.14-.39-.15-.52 0-.03.04-.07.07-.11.1.05-.04-.08.05-.11.07-.03.02-.06.03-.09.05.06-.03-.07.02-.08.02-.08.02-.07.02-.18.01.02 0-.14-.05-.11-.03 0 0-.01 0-.01-.01-.14-.07-.28-.15-.42-.23-.61-.33-1.21-.67-1.81-1-.55-.3-1.1-.61-1.64-.92.02-.02.04-.04.06-.07.24-.26.48-.52.72-.79l3.13-3.43c.02-.02.03-.04.05-.06.07-.12.09-.27.01-.38a.265.265 0 0 0-.05-.06c-.66-.87-1.32-1.75-1.97-2.62.02-.02.05-.03.07-.05.75.44 1.49.88 2.24 1.32l2.19 1.29c.04.03.08.05.13.06.08.02.17.01.23-.02.05-.02.09-.04.12-.08.09-.09.12-.19.1-.3a.483.483 0 0 0-.12-.22zm-3.75.85l-2.86 3.13-.74.81c-.07.07-.13.15-.2.22l-.03.03c-.24-.14-.49-.27-.73-.41a.913.913 0 0 0-.13-.08c0-.01-.01-.01-.01-.01 0-.01 0-.01-.01-.01 0 0 0-.01.01-.04 0 .06.02 0 .01.01l.04-.04.22-.25c.91-1.01 1.82-2.03 2.73-3.04.13-.15.15-.37 0-.52a.55.55 0 0 0-.09-.07c-.48-.53-.97-1.06-1.45-1.59l-.66-.72c-.01-.01-.01-.02-.02-.03-.07-.11-.13-.22-.19-.34a.69.69 0 0 0-.04-.1c-.03-.05-.04-.1-.06-.14-.01-.05-.03-.1-.04-.15 0-.03-.01-.06-.01-.08v-.02-.01a1.93 1.93 0 0 1 0-.34v-.01-.01c0-.03.01-.06.02-.09l.06-.21v-.01c0-.01.01-.01.01-.02.01-.05.03-.08.05-.11a.94.94 0 0 1 .12-.18c.01-.01.01-.01.01-.02s.01-.01.02-.03c.01-.02.03-.03.04-.05.69.41 1.38.81 2.07 1.22-.03.02-.05.04-.08.06-.15.1-.26.33-.13.5.69.92 1.38 1.83 2.07 2.75zm-1.19-3.77c-.71-.42-1.42-.84-2.13-1.25.26-.16.55-.3.81-.43.38-.19.77-.36 1.18-.49.36-.11.67-.18 1.02-.19.08 0 .15 0 .23.01.03 0 .07.01.1.01-.05-.01.05.01.06.01.07.01.14.03.21.05.03.01.07.02.1.04-.07-.05.05.01.07.01.19.1.36.24.45.42.04.08.08.16.13.24-.75.52-1.49 1.05-2.23 1.57zm2.03 1.2c-.45-.26-.9-.53-1.34-.79.5-.35.99-.7 1.49-1.05-.06.36-.11.72-.17 1.08-.03.21.07.33.19.47.1.12.21.24.31.36.13.15.26.29.39.44l-.87-.51z"/><path class="st0" d="M13.95 15.85l.65.17c-.27 1.58.64 3.15 2.15 3.69l-.17.65a.3.3 0 0 0 .22.37.3.3 0 0 0 .37-.22l.17-.65c1.58.27 3.15-.64 3.69-2.15l.65.17a.3.3 0 0 0 .37-.22.3.3 0 0 0-.22-.37l-.65-.17c.27-1.58-.64-3.15-2.15-3.69l.17-.65a.3.3 0 0 0-.22-.37.3.3 0 0 0-.37.22l-.17.65c-1.58-.27-3.15.64-3.69 2.15l-.65-.17a.3.3 0 0 0-.37.22c-.04.16.06.32.22.37zm2.57.05l-1.18-.31a2.717 2.717 0 0 1 2.95-1.71l-.31 1.18a.3.3 0 0 0 .22.37.3.3 0 0 0 .37-.22l.31-1.18c1.19.46 1.91 1.69 1.71 2.95l-1.18-.31a.3.3 0 0 0-.37.22.3.3 0 0 0 .22.37l1.18.31a2.724 2.724 0 0 1-2.95 1.71l.31-1.18a.3.3 0 0 0-.22-.37.3.3 0 0 0-.37.22l-.31 1.18a2.724 2.724 0 0 1-1.71-2.95l1.18.31a.3.3 0 0 0 .37-.22.309.309 0 0 0-.22-.37zm0 0"/></svg>