<svg id="Layer_2" xmlns="http://www.w3.org/2000/svg" viewBox="0 0 24 24"><style>.st0{fill:#666}</style><path class="st0" d="M17.96 9.73c0-.99-.81-1.79-1.8-1.79h-.02v-.51c0-1.72-1.4-3.13-3.13-3.13H8.85c-.57 0-1.03.46-1.03 1.03 0 .57.46 1.03 1.03 1.03h4.17c.59 0 1.06.48 1.06 1.06v.51H8.05c-.99 0-1.8.8-1.8 1.79a4.74 4.74 0 0 0-4.13 4.7v.48a4.75 4.75 0 0 0 4.74 4.74h10.49a4.75 4.75 0 0 0 4.74-4.74v-.48c0-2.4-1.8-4.39-4.13-4.69zm-4.94-4.18H8.85c-.12 0-.22-.1-.22-.22s.1-.22.22-.22h4.17c1.28 0 2.31 1.04 2.31 2.31v.5h-.44v-.5c0-1.02-.84-1.87-1.87-1.87zm-4.97 3.2h8.11c.53 0 .96.42.98.94H7.07c.03-.52.46-.94.98-.94zm-1.19 1.76h10.49c1.79 0 3.3 1.21 3.77 2.85H3.09a3.92 3.92 0 0 1 3.77-2.85zm14.42 3.92v.48c0 .09 0 .18-.01.26H2.95c-.01-.09-.01-.17-.01-.26v-.48c0-.09 0-.18.01-.26h18.32c.01.09.01.17.01.26zm-3.92 4.4H6.86c-1.79 0-3.3-1.21-3.77-2.85h18.04a3.92 3.92 0 0 1-3.77 2.85zm0 0"/></svg>