<svg id="Layer_2" xmlns="http://www.w3.org/2000/svg" viewBox="0 0 24 24"><style>.st0{fill:#666}</style><path class="st0" d="M14.55 13.38c-.06 0-.11-.01-.16-.04l-2.27-1.1-2.27 1.1a.39.39 0 0 1-.39-.03.381.381 0 0 1-.15-.36l.35-2.5-1.77-1.82c-.1-.1-.13-.25-.09-.38.05-.13.16-.23.3-.25l2.49-.44 1.19-2.23c.07-.12.19-.2.33-.2s.27.08.33.2l1.19 2.23 2.49.44c.14.02.25.12.29.25.04.13.01.28-.09.38l-1.75 1.82.35 2.5c.02.14-.04.28-.15.36-.07.05-.15.07-.22.07zM8.93 8.62l1.39 1.44c.08.08.12.2.1.31l-.28 1.98 1.8-.87c.1-.05.23-.05.33 0l1.8.87-.28-1.98c-.02-.11.02-.23.1-.31l1.39-1.44-1.97-.35a.403.403 0 0 1-.27-.19l-.94-1.77-.94 1.77c-.05.1-.15.17-.27.19l-1.96.35z"/><path class="st0" d="M12.11 21.98c-.15 0-.29-.09-.35-.24-.79-2.01-2.66-4.06-4.16-5.71-1.04-1.15-1.94-2.14-2.34-2.93a7.648 7.648 0 0 1-.81-3.42c0-4.22 3.43-7.65 7.65-7.65 2.04 0 3.97.8 5.41 2.24a7.594 7.594 0 0 1 2.24 5.41c0 1.2-.27 2.35-.81 3.42-.37.74-1.25 1.64-2.27 2.68-1.65 1.68-3.71 3.78-4.21 5.91-.04.16-.18.28-.34.29h-.01zm0-19.2c-3.81 0-6.9 3.1-6.9 6.9 0 1.08.24 2.12.73 3.08.35.7 1.22 1.65 2.22 2.76 1.33 1.46 2.93 3.23 3.89 5.05.82-1.98 2.62-3.81 4.1-5.33.97-.99 1.81-1.85 2.13-2.49.48-.96.73-2 .73-3.08 0-1.84-.72-3.58-2.02-4.88s-3.04-2.01-4.88-2.01z"/><path class="st0" d="M12.11 15.8c-3.42 0-6.2-2.78-6.2-6.2 0-3.42 2.78-6.2 6.2-6.2 3.42 0 6.2 2.78 6.2 6.2 0 3.41-2.78 6.2-6.2 6.2zm0-11.65c-3 0-5.45 2.44-5.45 5.45a5.45 5.45 0 1 0 5.45-5.45z"/></svg>