<svg id="Layer_2" xmlns="http://www.w3.org/2000/svg" viewBox="0 0 24 24"><style>.st0{fill:#666}</style><path class="st0" d="M18.27 20.51a3.803 3.803 0 0 1-2.68-1.13 3.732 3.732 0 0 1-1.1-2.69 3.807 3.807 0 0 1 3.8-3.78c1.03 0 1.99.41 2.7 1.13.72.72 1.11 1.68 1.1 2.69a3.807 3.807 0 0 1-3.8 3.78h-.02zm.02-6.91a3.115 3.115 0 0 0-.01 6.23c1.72 0 3.12-1.39 3.13-3.1 0-.83-.32-1.61-.9-2.2-.59-.59-1.37-.92-2.2-.92h-.02zM5.91 20.44a3.785 3.785 0 0 1-2.68-1.13 3.773 3.773 0 0 1-1.1-2.69 3.807 3.807 0 0 1 3.8-3.78c2.11.01 3.81 1.72 3.8 3.82a3.807 3.807 0 0 1-3.8 3.78h-.02zm.02-6.91c-1.71 0-3.1 1.39-3.11 3.1 0 .83.32 1.61.9 2.2.59.59 1.37.92 2.2.92 1.72 0 3.12-1.39 3.13-3.1a3.115 3.115 0 0 0-3.1-3.13l-.02.01zm6.62 6.01c-.09 0-.18-.01-.28-.04-.08-.02-.17-.04-.26-.06-.51-.11-1.14-.25-1.22-.8-.01-.08-.02-.15-.01-.22l.01-.11.27-3.48-.02-.04-3.37-2.9c-.46-.4-.72-.8-.8-1.24-.12-.67.25-1.4.86-1.72l3.78-2.01c.07-.04.15-.08.23-.13.25-.15.51-.3.76-.3.1 0 .19.02.28.07.15.08.28.23.4.37.05.06.08.1.12.14l3.57 3.87h2.84c.22 0 .32.18.33.34 0 .17-.1.35-.33.35l-2.96.03c-.19 0-.37-.22-.52-.39-.04-.05-.07-.09-.11-.13l-1.48-1.61-3.19 1.75 2.44 2.3c.18.17.08.36.05.41-.01.05-.01.07-.02.08l-.54 4.66c-.01.13-.03.27-.09.38a.84.84 0 0 1-.74.43zm-.09-.7l.01.03h.09l.04-.01.04-.02.02-.06.02-.03.04-.24-.02.01.51-4.4c0-.04.01-.07.02-.1l.01-.02v-.04l-2.63-2.49a.332.332 0 0 1-.09-.29c.01-.11.08-.21.16-.25l3.47-1.91-1.69-1.83c-.03-.04-.26.15-.3.18l-4.1 2.17c-.23.12-.45.41-.5.66-.04.17-.02.33.05.51.06.15.2.38.35.51l3.72 3.19c.08.07.12.2.08.32 0 .06.01.09 0 .11l-.29 3.69.03.03c.04.03.06.04.08.05l.88.23zm3.45-11.17c-.29 0-.57-.06-.83-.17-.52-.22-.92-.63-1.13-1.16-.21-.52-.21-1.1.02-1.62a2.12 2.12 0 0 1 2.78-1.12c.52.22.92.63 1.13 1.16.21.53.2 1.1-.02 1.62-.33.79-1.1 1.29-1.95 1.29zm.01-3.54c-.57 0-1.09.34-1.31.87-.15.35-.15.74-.01 1.09.14.35.41.63.76.78.18.08.37.12.56.12.57 0 1.09-.34 1.31-.87.15-.35.15-.74.01-1.09-.14-.35-.41-.63-.76-.78-.18-.08-.37-.12-.56-.12z"/></svg>