<svg id="Layer_2" xmlns="http://www.w3.org/2000/svg" viewBox="0 0 24 24"><style>.st0{fill:#666}</style><path class="st0" d="M20.01 21.32l-2.3-2.31 1.22-1.21c.09-.09.13-.22.11-.35a.38.38 0 0 0-.23-.29 2.65 2.65 0 0 0-2.78.4l-3.6-3.6 7.63-7.65c.09-.09.09-.23 0-.32a.223.223 0 0 0-.32 0l-7.63 7.65-7.63-7.65a.223.223 0 0 0-.32 0c-.09.09-.09.23 0 .32l7.63 7.65-3.6 3.6a2.65 2.65 0 0 0-2.78-.4c-.12.05-.2.16-.23.29-.02.13.02.26.11.35l1.22 1.21-2.3 2.31c-.15.15-.15.4 0 .55.08.08.18.11.28.11.1 0 .2-.04.28-.12l2.3-2.31 1.22 1.21c.07.07.17.11.28.11.02 0 .05 0 .07-.01.13-.02.23-.11.29-.23.41-.94.25-2.01-.41-2.78l3.59-3.6 3.59 3.6a2.65 2.65 0 0 0-.41 2.78c.05.12.16.21.29.23.02 0 .05.01.07.01.1 0 .2-.04.28-.11l1.22-1.21 2.3 2.31c.08.08.18.12.28.12.1 0 .2-.04.28-.11.15-.15.15-.4 0-.55zM8.35 19.73l-2.01-2.01c.54-.04 1.07.15 1.47.54.4.4.59.93.54 1.47zm7.52 0c-.04-.54.15-1.07.54-1.47.36-.36.83-.55 1.32-.55.05 0 .1 0 .15.01l-2.01 2.01z"/><path class="st0" d="M12.11 9.56c1.6 0 2.91-1.69 2.91-3.77s-1.31-3.77-2.91-3.77S9.2 3.71 9.2 5.79s1.31 3.77 2.91 3.77zm-1.87-5.19h.23v.78h-.43c.04-.28.11-.54.2-.78zm3.75 2.81h-.24v-.8h.44c-.04.29-.11.55-.2.8zm-.66 1.04h-.6V7.4h.8V8c-.06.09-.13.16-.2.22zm.2-2.82v.76h-.8V5.4h.8zm-.8-.23v-.78h.8v.79l-.8-.01zm.8 1.21v.8h-.8v-.8h.8zm.22 1.3V7.4h.14c-.04.1-.09.19-.14.28zm0-1.52v-.75h.47c.01.12.02.25.02.38s-.01.25-.02.37h-.47zm0-.98v-.79h.24c.09.25.16.51.2.79h-.44zm.14-1.01h-.14v-.28c.05.09.1.18.14.28zm-.36 0h-.8v-.8l.61-.01c.06.06.13.14.19.21v.6zm-.8-1.02v-.22c.12.05.24.12.36.21l-.36.01zm.34 5.3c-.11.08-.22.14-.34.2v-.2h.34zm-.56-3.06v.77h-.8v-.77h.8zm-.8-.23v-.78h.8v.78h-.8zm.8 1.22v.8h-.8v-.8h.8zm0 1.02v.82h-.8V7.4h.8zm0-3.24h-.8v-.77l.8-.02v.79zm-1.02 1.22v.78h-.79v-.78h.79zm-.8-.23v-.77h.79v.78l-.79-.01zm.8 1.23v.8h-.79v-.8h.79zm0 1.02v.82h-.6A2 2 0 0 1 10.7 8v-.6h.79zm0 1.05v.2c-.12-.05-.23-.12-.34-.2h.34zm-.67-5.03l.66-.02v.76h-.79v-.59c.04-.06.09-.11.13-.15zm.25-.23c.13-.1.27-.19.42-.25v.24l-.42.01zm-.6.7v.26h-.13c.04-.09.08-.18.13-.26zm0 1.48v.79H10c-.01-.12-.02-.25-.02-.37 0-.14.01-.28.02-.42h.47zm0 1.01v.8h-.24c-.09-.25-.16-.51-.2-.8h.44zm0 1.02v.28c-.05-.09-.1-.18-.14-.28h.14zm1.24 1.32v-.27h.8v.27c-.13.03-.26.05-.4.05-.14.01-.27-.01-.4-.05zm.8-5.87v.3l-.8.02v-.32c.13-.03.26-.05.4-.05s.27.02.4.05z"/></svg>