<svg id="Layer_2" xmlns="http://www.w3.org/2000/svg" viewBox="0 0 24 24"><style>.st0{fill:#666}</style><path class="st0" d="M15.99 16.23c-.94 0-1.78-.56-2.14-1.43h-7.2a2.31 2.31 0 0 1-2.14 1.43 2.311 2.311 0 0 1-2.29-2.6c.02-.17.06-.34.13-.51l-.04-.04a1.11 1.11 0 0 1-.34-.68c-.1-.99.45-2.27.88-3.16.19-.4.59-.67 1.04-.69l1.7-.08c.2 0 .37.07.48.2.13.14.18.32.16.5l-.14 1.01a.27.27 0 0 1-.27.23h-.04a.272.272 0 0 1-.23-.31l.14-1.01c0-.02 0-.04-.02-.06 0-.02-.02-.03-.04-.03l-1.7.08c-.25.02-.47.16-.58.39-.4.82-.92 2.01-.83 2.86.01.1.05.19.1.27.43-.63 1.14-1 1.9-1 1.28 0 2.31 1.04 2.31 2.31 0 .11-.01.22-.03.34h6.89a2.041 2.041 0 0 1-.01-.63 2.318 2.318 0 0 1 2.29-2.02c1.28 0 2.31 1.04 2.31 2.31 0 .18-.03.38-.08.57.2.1.38.24.53.39l2.64-.01-.15-.23c-.27-.41-.67-.7-1.15-.82l-.08-.02a.262.262 0 0 1-.18-.16.313.313 0 0 1 .02-.25l.28-.44c.02-.03.01-.08-.02-.1-1.36-.89-2.72-1.31-4.27-1.31-.66 0-1.29.08-1.85.14l-.1.01a.27.27 0 0 1-.21-.08c-.54-.53-1.53-.76-2.34-.91H9.37c-.15 0-.27-.12-.27-.27 0-.15.12-.27.27-.27h1.71v-1.4l-.99.01c-.91 0-1.8.39-2.42 1.06l-.82.89c-.28.3-.68.48-1.09.48l-.84.01a.269.269 0 0 1-.19-.46c.05-.05.12-.08.19-.08l.84-.01c.26 0 .52-.12.69-.31l.82-.89c.72-.78 1.75-1.23 2.81-1.23h1.03c.28 0 .5.22.5.5v1.48c.76.15 1.71.39 2.33.94.52-.07 1.15-.15 1.84-.15 1.68 0 3.13.44 4.59 1.39.28.18.36.56.18.85l-.09.14c.49.19.9.52 1.19.96l.22.34a.472.472 0 1 1-.39.73h-2.9c-.08 0-.15-.03-.21-.09-.11-.13-.24-.23-.39-.32-.04.07-.08.15-.13.21-.37.65-1.09 1.03-1.86 1.03zm0-4.09c-.89 0-1.64.67-1.76 1.55-.01.07-.02.15-.02.22 0 .98.79 1.77 1.77 1.77a1.768 1.768 0 0 0 1.77-1.77c.01-.97-.78-1.77-1.76-1.77zm-11.46 0c-.89 0-1.64.67-1.76 1.55-.01.07-.02.15-.02.22 0 .98.79 1.77 1.77 1.77a1.768 1.768 0 0 0 1.77-1.77c.01-.97-.79-1.77-1.76-1.77z"/><path class="st0" d="M9.88 13.95c-.06 0-.11-.02-.16-.05a.272.272 0 0 1-.06-.38l.68-.92c.05-.07.13-.11.22-.11.06 0 .11.02.16.05.12.09.15.26.06.38l-.68.92c-.06.07-.14.11-.22.11zM11.1 13.95c-.06 0-.11-.02-.16-.05a.272.272 0 0 1-.06-.38l.68-.92c.05-.07.13-.11.22-.11.06 0 .11.02.16.05.12.09.15.26.06.38l-.68.92a.28.28 0 0 1-.22.11zM12.32 13.95c-.06 0-.11-.02-.16-.05a.272.272 0 0 1-.06-.38l.68-.92c.05-.07.13-.11.22-.11.06 0 .11.02.16.05.12.09.15.26.06.38l-.68.92c-.05.07-.13.11-.22.11z"/></svg>