<svg id="Layer_2" xmlns="http://www.w3.org/2000/svg" viewBox="0 0 24 24"><style>.st0{fill:#666}</style><path class="st0" d="M6.26 13.15c0-1.18-.96-2.13-2.13-2.13-1.18 0-2.13.96-2.13 2.13s.96 2.13 2.13 2.13c1.17.01 2.13-.95 2.13-2.13zm-3.56 0c0-.78.64-1.42 1.42-1.42.78 0 1.42.64 1.42 1.42 0 .78-.64 1.42-1.42 1.42-.78 0-1.42-.64-1.42-1.42zM21.1 5.48l-1.15-1.49L6.6 15.5l-1.89.81-.05.04c-.52.45-.86 1.22-.8 1.82.09.92.79 1.66 1.71 1.81.12.02.24.03.36.03.59 0 1.13-.23 1.52-.67l.88-1.47L19.44 7.32l.4-.08.47.63L22 6.59l-.9-1.11zm-7.42 4.97l.86-.74.76.47-.81.77-.81-.5zm.41.87l-.78.74-.87-.54.82-.71.83.51zm.86-1.97l.82-.71.69.43-.78.73-.73-.45zm-7.24 8.02l-.87 1.46c-.29.3-.7.43-1.14.36-.56-.09-.99-.54-1.04-1.11-.03-.33.18-.82.48-1.1l1.89-.81 5-4.31.9.56-5.22 4.95zM20.47 6.76l-.29-.39-1.12.22-2.21 2.11-.66-.41 3.65-3.15.64.83.4.49-.41.3z"/></svg>