<svg id="Layer_2" xmlns="http://www.w3.org/2000/svg" viewBox="0 0 24 24"><style>.st0{fill:#666}</style><path class="st0" d="M12 22.01c-4.87 0-8.83-3.96-8.83-8.83 0-2.4.95-4.65 2.66-6.32l.04-.04-1.62-1.63.52-.52 1.66 1.66.04-.03a8.73 8.73 0 0 1 5.1-1.93h.06V2.79h-1.62v-.74h3.94v.74h-1.58v1.57h.06c1.87.09 3.64.75 5.1 1.93l.04.03 1.66-1.66.52.52-1.63 1.63.04.04a8.77 8.77 0 0 1 2.67 6.33c0 4.87-3.96 8.83-8.83 8.83zM12 5.1c-4.46 0-8.09 3.63-8.09 8.09s3.63 8.09 8.09 8.09 8.09-3.63 8.09-8.09c0-4.47-3.63-8.09-8.09-8.09z"/><path class="st0" d="M12 20c-3.78 0-6.86-3.08-6.86-6.86 0-3.76 3.08-6.82 6.86-6.82 3.78 0 6.86 3.08 6.86 6.86 0 3.76-3.08 6.82-6.86 6.82zm0-12.94c-3.38 0-6.12 2.75-6.12 6.12 0 3.38 2.75 6.12 6.12 6.12 3.38 0 6.12-2.75 6.12-6.12S15.38 7.06 12 7.06z"/><path class="st0" d="M11.63 13.55V7.9h.74v4.92h3.59v.73z"/></svg>