<svg id="Layer_2" xmlns="http://www.w3.org/2000/svg" viewBox="0 0 24 24"><style>.st0{fill:#666}</style><path class="st0" d="M14.88 7.77c-.18-.65-.58-1.21-1.11-1.6l3.53-3.53-.59-.59L13 5.76c-.32-.11-.65-.18-1-.18s-.69.06-1 .18L7.3 2.05l-.6.59 3.53 3.53c-.53.39-.93.95-1.11 1.6H1.99v14.18h20.02V7.77h-7.13zM12 6.41c.89 0 1.68.56 2 1.36h-4a2.17 2.17 0 0 1 2-1.36zm9.17 14.7H2.83V8.6h18.35v12.51z"/><path class="st0" d="M6.26 9.44c-1.43 0-2.6 1.17-2.6 2.6v5.64c0 1.43 1.17 2.6 2.6 2.6h8.14c1.43 0 2.6-1.17 2.6-2.6v-5.64c0-1.43-1.17-2.6-2.6-2.6H6.26zm8.14 10H9.98c-.65-.8-1.78-2.82-2.03-3.95l-.09-.39-1.97.33c-.02 0-.04 0-.06-.02-.03-.03-.03-.06-.03-.08 0-.02.01-.05.03-.07l1.47-1.23.31-.77c.97 1.34 2.4 2.23 3.01 2.57l.09.05h2.59l.33 1.97-.58-.03-.05.83.78.04h.04c.21 0 .41-.1.54-.27a.66.66 0 0 0 .11-.59l-.32-1.96h2.03v1.8c-.01.98-.8 1.77-1.78 1.77zm-2.49-4.92l-.38-.76c.1-.07.18-.16.26-.25l.01-.01c.03-.04.06-.09.08-.13.01-.02.02-.03.03-.05.02-.04.04-.09.06-.14 0 0 0-.01.01-.01h1.39c.82.08 1.37.36 1.41.73.04.34-.33.84-1.09 1.14h-1.73c.05-.16.04-.35-.05-.52zm-1.12-1.34c-.23 0-.42-.19-.42-.42a.42.42 0 0 1 .84-.01v.03c-.01.18-.13.33-.3.38l-.05.02c-.02-.01-.05 0-.07 0zm5.38-1.14v3.01h-1.02c.33-.38.51-.81.45-1.25-.05-.38-.35-1.28-2.2-1.46h-1.43c-.17-.49-.63-.84-1.18-.84-.69 0-1.26.56-1.26 1.26 0 .67.53 1.21 1.19 1.25l.41.8-.08.24h-.12c-.67-.38-2.11-1.32-2.91-2.68l-.06-.08a.558.558 0 0 0-.62-.14c-.19.07-.32.24-.36.43l-.38.94-1.31 1.1c-.2.17-.31.43-.32.69 0 .27.1.52.3.7.2.19.47.27.75.24l1.22-.2c.33 1.06 1.08 2.47 1.71 3.39H6.26c-.97 0-1.77-.79-1.77-1.77v-5.64c0-.97.79-1.77 1.77-1.77h8.14c.98.01 1.77.8 1.77 1.78z"/><circle class="st0" cx="19.51" cy="12.36" r=".83"/><circle class="st0" cx="19.51" cy="15.69" r=".83"/></svg>