<svg id="Layer_2" xmlns="http://www.w3.org/2000/svg" viewBox="0 0 24 24"><style>.st0{fill:#666}</style><path class="st0" d="M16.02 7.65c.02 0 .03.01.05.01.13 0 .24-.09.26-.21l.15-.74.31-.15c1.48.65 2.73 1.34 2.95 3.16l-.14.1c-.14-.01-.28-.02-.43-.02-.75 0-1.76.17-2.38.67-.06.04-.09.11-.1.18-.01.07.01.14.06.19a.272.272 0 0 0 .38.04c.4-.32 1.25-.55 2.05-.55.16 0 .32.01.47.03.07.01.14-.01.19-.05l.35-.26a.29.29 0 0 0 .11-.24c-.22-2.41-1.98-3.18-3.4-3.8a.28.28 0 0 0-.22 0l-.54.26a.31.31 0 0 0-.16.2l-.17.87c-.03.14.06.28.21.31z"/><path class="st0" d="M5.53 8.2c-.02.07-.02.14.02.2.03.06.09.11.15.13l3.59 1.11c.08.02.17.03.25.03.28 0 .54-.12.72-.34l.91-1.1c.09-.1.21-.16.35-.15l2.28.22c.07.01.14.03.2.07l1.05.75c.09.06.21.06.3 0l.65-.43c.06-.04.1-.1.11-.17l.04-.21a.25.25 0 0 0-.07-.23l-.75-.8a.273.273 0 0 0-.19-.08h-.57v-.35h.96c.15 0 .26-.12.26-.26s-.12-.26-.26-.26h-1.22c-.15 0-.26.12-.26.26v.87c0 .15.12.26.26.26h.72l.56.6-.39.26-.9-.64a.918.918 0 0 0-.46-.17l-2.27-.21c-.31-.03-.61.1-.81.33L9.86 9c-.1.12-.27.18-.42.14L5.86 8.02a.272.272 0 0 0-.33.18z"/><path class="st0" d="M18.78 10.87c-.69 0-1.38.23-1.94.65l-.21-.18c-.11-.09-.28-.08-.37.02-.1.11-.09.28.02.37l.38.33c.1.08.25.09.35 0 .49-.43 1.12-.66 1.77-.66 1.48 0 2.69 1.21 2.69 2.69s-1.21 2.69-2.69 2.69a2.697 2.697 0 0 1-2.61-3.35c.01-.02.01-.05.01-.07 0-.04-.01-.08-.03-.11-.02-.03-.04-.07-.07-.09a.161.161 0 0 0-.07-.04l-.42-.17c.05-.14.11-.26.18-.34a.33.33 0 0 0 .06-.19.274.274 0 0 0-.1-.18.267.267 0 0 0-.37.04c-.45.56-.61 1.86-.38 2.97h-4.52c-.28 0-.55-.12-.74-.34-.32-.37-.33-1.66-.24-2.45a.26.26 0 0 0-.23-.29.26.26 0 0 0-.29.23c-.01.06-.03.24-.04.48l-.92.4c-.11.05-.18.17-.16.29a2.697 2.697 0 0 1-2.64 3.21c-1.48 0-2.69-1.21-2.69-2.69S3.72 11.4 5.2 11.4c.63 0 1.25.22 1.73.63l-.17.14c-.05.04-.09.11-.1.18-.01.07.01.14.06.19.09.11.26.13.37.04l1.24-1.01c.06-.05.1-.13.1-.22 0-.08-.05-.16-.12-.21L2.88 7.56v-.08l3.3-.01-.04.18a.258.258 0 1 0 .5.13l.06-.18c.04-.16.01-.33-.09-.46a.53.53 0 0 0-.42-.2l-3.4.02c-.24 0-.43.2-.43.43v.22c0 .15.07.28.2.36l5.17 3.41-.37.3c-.6-.52-1.36-.81-2.15-.81-1.78 0-3.22 1.45-3.22 3.22s1.45 3.22 3.22 3.22c1.78 0 3.22-1.45 3.22-3.22 0-.14-.01-.27-.03-.41l.5-.22c0 .61.08 1.4.42 1.8.29.33.7.52 1.14.52h4.86c.08 0 .16-.04.21-.11.05-.07.07-.15.04-.23-.18-.6-.22-1.34-.11-1.98l.15.06a3.224 3.224 0 0 0 3.17 3.79c1.78 0 3.22-1.45 3.22-3.22s-1.44-3.22-3.22-3.22z"/><path class="st0" d="M17.34 13.61c-.13-.06-.29 0-.35.13s0 .29.13.35l.04.02c.01.89.74 1.62 1.63 1.62a1.63 1.63 0 1 0-.69-3.11c-.03.01-.06.03-.08.06l-.28-.21c-.11-.09-.29-.06-.37.05-.09.12-.07.28.05.37l1.26.96-.19.3-1.15-.54zm1.55.88l.28-.44c.12-.19.08-.42-.09-.57l-.59-.45a1.105 1.105 0 0 1 1.4 1.07c0 .61-.5 1.11-1.1 1.11-.51 0-.95-.34-1.07-.83l.64.29c.19.07.42-.01.53-.18zM5.21 12.98c.15 0 .26-.12.26-.26s-.12-.26-.26-.26a1.63 1.63 0 1 0 1.63 1.73.259.259 0 0 0-.11-.23.298.298 0 0 0-.26-.03l-.67.29-.32-.52.92-.7c.06-.04.09-.11.1-.18a.288.288 0 0 0-.05-.2c-.09-.11-.26-.14-.37-.05l-.98.75c-.18.13-.22.37-.11.56l.4.68c.11.18.35.26.54.18l.24-.1c-.2.34-.56.55-.95.55-.61 0-1.11-.5-1.11-1.11 0-.6.49-1.1 1.1-1.1z"/></svg>