<svg id="Layer_2" xmlns="http://www.w3.org/2000/svg" viewBox="0 0 24 24"><style>.st0{fill:#666}</style><path class="st0" d="M13.89 12.59c.1.13.26.18.42.14 1.64-.48 2.63-1.25 2.96-2.29.33-1.03-.05-2.25-1.08-3.55-.44-.55-.96-.93-1.42-1.26-1.01-.73-1.67-1.21-1.2-3.16a.39.39 0 0 0-.18-.43.376.376 0 0 0-.46.05c-3.26 2.97-4.06 5.01-4.2 6.1-.28-.44-.2-1.14-.2-1.15a.404.404 0 0 0-.25-.42c-.17-.06-.36 0-.46.15-.83 1.26-1.11 2.5-.84 3.69.43 1.91 2.12 2.96 2.19 3 .01.01.09.05.23.12-.55.09-1.11.2-1.68.34a.387.387 0 0 0-.14.69l.11.08c1.08.81 2.42 1.82 2.73 2.9.03.33.03 2.6.03 3.99 0 .1.04.2.11.28.07.07.17.11.28.11h2.77a.395.395 0 0 0 .39-.4c-.01-1.4-.01-3.68.01-4v-.01c.13-.66 1.05-1.44 1.95-2.19.31-.26.62-.52.92-.79.11-.1.15-.24.12-.38a.397.397 0 0 0-.27-.29c-1.55-.44-3.16-.64-4.84-.59a.374.374 0 0 0-.13-.12.646.646 0 0 1-.31-.41c-.07-.25-.08-.68.23-1.35l.45.32c.13.09.3.1.44.02s.21-.24.18-.4c-.01-.09-.04-.19-.07-.3-.16-.58-.39-1.43.53-2.56.52.67 1.39 2.38.68 3.6-.11.17-.1.34 0 .47zm-3.21 3.84c.89-.06 2.13-.06 3.07 0-.19.25-.34.5-.43.75-.77-.07-1.51-.07-2.23 0-.11-.26-.25-.51-.41-.75zm2.52 4.79h-1.99c.01-2.77 0-3.53-.06-3.8h.01c0-.01 0-.01-.01-.02.67-.06 1.37-.06 2.09 0 0 .02-.01.03-.01.05h.01c-.05.29-.05 1.1-.04 3.77zm2.59-6.71c-.11.1-.23.19-.34.29-.49.41-.96.81-1.34 1.21-1.08-.1-2.73-.1-3.76-.01-.47-.55-1.06-1.04-1.64-1.49 2.54-.51 4.87-.51 7.08 0zM13.4 7.65a.373.373 0 0 0-.51.05c-1.08 1.13-1.21 2.14-1.14 2.86-.09-.06-.19-.08-.3-.06-.11.02-.2.09-.26.19-.52.91-.69 1.7-.51 2.35.02.06.04.11.06.16a3.6 3.6 0 0 1-1.17-.39c-.01-.01-1.48-.93-1.83-2.51-.14-.64-.08-1.31.18-2 .17.46.51.87 1.11 1 .13.03.27-.01.36-.1.1-.09.14-.23.11-.36-.07-.34-.2-2.09 3.13-5.4-.05 1.58.82 2.21 1.67 2.82.44.31.89.64 1.26 1.11.86 1.08 1.19 2.06.95 2.82-.19.61-.77 1.13-1.67 1.51.34-1.69-.84-3.61-1.44-4.05z"/></svg>