<svg id="Layer_2" xmlns="http://www.w3.org/2000/svg" viewBox="0 0 24 24"><style>.st0{fill:#666}</style><path class="st0" d="M21.86 4.47c-.21-.98-.68-1.65-1.32-1.9-.94-.36-1.56-.41-2-.15-.56.34-.65 1.02-.76 1.89-.14 1.14-.34 2.7-1.75 4.12-1.36 1.36-4.22 3.01-6.52 4.34-1.58.91-2.83 1.63-3.27 2.07l-1.12 1.12c-.03.02-.04.04-.05.06-.05.04-.1.07-.14.12l-2.38 2.38c-.71.71-.71 1.86 0 2.56.35.35.82.53 1.28.53.46 0 .93-.18 1.28-.53l2.38-2.38c.03-.03.06-.07.09-.1.02-.02.05-.03.07-.05l1.12-1.12c.34-.34 1.81-.9 3.24-1.44 2.53-.96 5.68-2.15 7.14-3.62 2.37-2.38 3.16-5.78 2.71-7.9zM4.51 20.48c-.38.38-.99.38-1.37 0a.966.966 0 0 1 0-1.37l2.38-2.38a.38.38 0 0 1 .54 0l.83.83c.07.08.11.17.11.27s-.04.2-.11.27l-2.38 2.38zm14.03-8.7c-1.34 1.34-4.39 2.49-6.84 3.42-1.96.74-3.09 1.19-3.54 1.63l-.46.46c-.06-.12-.13-.23-.23-.32l-.83-.83c-.09-.09-.2-.16-.32-.22l.49-.49c.36-.36 1.69-1.13 3.1-1.94 2.34-1.35 5.26-3.03 6.7-4.47 1.62-1.62 1.84-3.42 1.99-4.61.07-.59.14-1.15.35-1.27.1-.06.41-.12 1.26.21.37.14.66.61.8 1.29.42 1.86-.32 4.99-2.47 7.14z"/></svg>