<svg id="Layer_2" xmlns="http://www.w3.org/2000/svg" viewBox="0 0 24 24"><style>.st0{fill:#666}</style><path class="st0" d="M9.32 14.6c-.23 0-.41-.18-.41-.41V8.64c0-.23.18-.41.41-.41s.41.18.41.41v5.55c0 .23-.18.41-.41.41z"/><path class="st0" d="M18.3 20.49h-.19c-.34 0-.62-.28-1.55-1.25-1.55-1.62-4.44-4.64-7.34-4.64H3.91c-1.09 0-1.97-.89-1.97-1.97V10.2c0-1.09.89-1.97 1.97-1.97h5.31c2.9 0 5.79-3.02 7.34-4.64.93-.97 1.21-1.25 1.55-1.25h.19c.86 0 1.56.7 1.56 1.56v15.02c0 .87-.7 1.57-1.56 1.57zm-.12-.82h.12c.41 0 .75-.34.75-.75V3.9c0-.41-.33-.75-.75-.75h-.12c-.17.11-.62.58-1.02 1-1.64 1.71-4.68 4.89-7.93 4.89H3.91c-.64 0-1.16.52-1.16 1.16v2.42c0 .64.52 1.16 1.16 1.16h5.31c3.25 0 6.29 3.18 7.93 4.89.4.42.85.89 1.03 1zm.02-16.53z"/><path class="st0" d="M19.44 14.63c-.18 0-.34-.12-.39-.29-.06-.22.06-.44.28-.51 1.07-.31 1.81-1.3 1.81-2.42s-.75-2.1-1.82-2.41a.41.41 0 0 1-.28-.51.41.41 0 0 1 .51-.28c1.41.41 2.4 1.73 2.4 3.2 0 1.47-.99 2.79-2.4 3.2-.04.02-.07.02-.11.02zM9.2 21.64H7.3c-.77 0-1.54-.61-1.72-1.36l-1.42-6c-.03-.12 0-.25.08-.35.08-.1.2-.16.32-.16h3.49c.2 0 .37.14.4.34.08.44.09.88.1 1.3.02.8.05 1.55.49 2.24l1.26 1.99c.23.36.22.83-.03 1.27-.23.46-.65.73-1.07.73zM5.08 14.6l1.3 5.5c.09.38.53.73.92.73h1.9c.12 0 .27-.13.37-.3.09-.17.11-.34.05-.44L8.36 18.1c-.56-.88-.59-1.78-.61-2.65-.01-.29-.02-.57-.05-.84H5.08z"/></svg>