<svg id="Layer_2" xmlns="http://www.w3.org/2000/svg" viewBox="0 0 24 24"><style>.st0{fill:#666}</style><path class="st0" d="M9.11 2.05c-1.84 0-3.57 4.84-3.57 9.97 0 5.12 1.74 9.97 3.57 9.97 1.57 0 3.57-4.69 3.57-9.97 0-5.03-1.77-9.97-3.57-9.97zm0 19.13c-.95 0-2.76-3.87-2.76-9.16s1.82-9.16 2.76-9.16c.8 0 2.76 3.65 2.76 9.16 0 5.46-2.08 9.16-2.76 9.16z"/><path class="st0" d="M9.11 12.48c-.95 0-1.66.97-1.66 2.26S8.16 17 9.11 17s1.66-.97 1.66-2.26-.72-2.26-1.66-2.26zm0 3.93c-.39 0-.93-.64-.93-1.68s.54-1.68.93-1.68.93.64.93 1.68-.55 1.68-.93 1.68zM9.11 5.63c.2 0 .37-.16.37-.37V3.85c0-.2-.16-.37-.37-.37s-.37.16-.37.37v1.42c0 .2.16.36.37.36zM9.11 18.35c-.2 0-.37.16-.37.37v1.42c0 .2.16.37.37.37s.37-.16.37-.37v-1.42c-.01-.2-.17-.37-.37-.37zM7.49 9.33c0 1.29.71 2.26 1.66 2.26s1.66-.97 1.66-2.26-.71-2.26-1.66-2.26-1.66.98-1.66 2.26zm2.58 0c0 1.04-.54 1.68-.93 1.68s-.93-.64-.93-1.68.54-1.68.93-1.68.93.65.93 1.68zM17.59 7.5l.48-.55c.26-.29.4-.67.4-1.06V2.83c0-.06-.01-.12-.04-.17-.37-.76-2.35-.4-2.37-.39-.42.1-.64.29-.64.57V5.9c0 .38.13.75.37 1.04l.46.56c.07.08.17.13.28.14v8.93a.42.42 0 0 0-.28.14l-.46.56c-.24.29-.37.66-.37 1.04v3.06c0 .28.21.47.64.57.01 0 .49.09 1.03.09.55 0 1.16-.1 1.34-.48.03-.05.04-.11.04-.17v-3.05c0-.39-.14-.77-.4-1.06l-.48-.55a.383.383 0 0 0-.24-.13V7.63c.09-.02.18-.06.24-.13zm-1.36-1.6V3.05c.35-.08 1.11-.1 1.43-.01v2.84c0 .19-.07.38-.2.53l-.15.17v-2.6c0-.2-.16-.37-.37-.37s-.37.16-.37.37v2.63l-.16-.19a.884.884 0 0 1-.18-.52zm1.43 12.41v2.84c-.31.09-1.08.07-1.43-.01V18.3c0-.19.07-.37.19-.52l.16-.19v2.82c0 .2.16.37.37.37s.37-.16.37-.37v-2.8l.15.17c.12.15.19.34.19.53z"/></svg>