<svg id="Layer_2" xmlns="http://www.w3.org/2000/svg" viewBox="0 0 24 24"><style>.st0{fill:#666}</style><path class="st0" d="M19.76 4.67c-.15-.15-.3-.29-.44-.43-1.29-1.29-3.21-2.89-4.95-1.93-1.02.57-1.5 1.12-2.3 2.02l-.45.51c-.06.07-.24.28-.44.52-.28.33-.7.84-.79.93-.14.14-.14.38 0 .52s.38.14.52 0c.11-.11.41-.47.83-.98.19-.23.36-.43.42-.5l.45-.51c.77-.88 1.2-1.36 2.11-1.87 1.31-.73 2.96.68 4.08 1.8.14.14.3.29.45.44 1.02.99 2.19 2.12 1.91 3.11-.27.96-1.24 1.99-2.18 2.99-.25.27-.5.53-.73.79-.16.18-.82.85-1.02 1.05-.97.97-4.5 1.84-6.89 1.94-.71.03-1.15.05-1.42.07H8.9c-.13-1.24-.28-5.91 1.04-7.37.14-.15.12-.38-.03-.52a.363.363 0 0 0-.51.03C8 8.83 7.98 13.14 8.14 14.92c-.29.48-.48.52-.77.57-.32.06-.71.13-1.2.62l-.92.92c-.26.01-.52.11-.72.3l-2.01 2.01c-.6.6-.6 1.58 0 2.18a1.545 1.545 0 0 0 2.18 0l2.01-2.01c.2-.2.3-.46.3-.72l.92-.92c.46-.46.56-.97.63-1.34.09-.46.12-.57.48-.62.05-.01.09-.02.13-.04.26-.01.64-.03 1.21-.06 2.23-.1 6.14-.92 7.38-2.16.18-.18.86-.87 1.05-1.08l.72-.78c1-1.06 2.04-2.17 2.35-3.3.38-1.4-.95-2.68-2.12-3.82zM6.19 19l-2.01 2.01c-.32.32-.83.32-1.15 0a.809.809 0 0 1 0-1.15l2.01-2.01c.12-.12.32-.12.45 0l.7.7c.12.13.12.33 0 .45zm1.22-1.64l-.69.69c0-.01-.01-.01-.01-.02l-.7-.7h-.02l.69-.69c.33-.33.56-.37.82-.42.14-.03.27-.05.4-.1-.03.1-.05.2-.06.29-.07.33-.13.65-.43.95zM4.86 9.2c1.54 0 2.8-1.26 2.8-2.8S6.4 3.6 4.86 3.6s-2.8 1.26-2.8 2.8 1.26 2.8 2.8 2.8zm2.07-2.8c0 .17-.02.33-.06.49a2.074 2.074 0 0 1-2.56-2.01c0-.17.03-.33.07-.49.16-.04.32-.06.49-.06 1.13 0 2.06.93 2.06 2.07zM3.58 4.78v.1c0 1.54 1.26 2.8 2.8 2.8h.1c-.38.48-.96.79-1.62.79-1.14 0-2.07-.93-2.07-2.07 0-.65.31-1.24.79-1.62z"/></svg>