<svg id="Layer_2" xmlns="http://www.w3.org/2000/svg" viewBox="0 0 24 24"><style>.st0{fill:#666}</style><path class="st0" d="M21.27 17.81h-.08c.01 0-.06-.01-.07-.01l-.1-.03h-.01s-.01 0-.01-.01c-.06-.03-.12-.07-.18-.1a.555.555 0 0 1-.08-.06.138.138 0 0 0-.04-.03l-.01-.01c-.29-.23-.57-.45-.92-.59-.79-.31-1.65-.11-2.3.39-.12.09-.23.18-.35.26-.06.04-.12.08-.19.11-.01 0-.04.02-.05.02-.04.02-.08.03-.13.04-.04.01-.07.02-.11.02.06-.01-.07 0-.08 0-.1 0-.18 0-.23-.01-.22-.04-.28-.08-.47-.18-.31-.18-.57-.42-.89-.58-.42-.2-.88-.26-1.33-.16-.38.08-.68.33-.96.58-.05.04-.09.08-.14.12 0 0-.05.04-.06.05-.04.03-.08.06-.13.08-.13.07-.27.11-.45.11-.05 0-.09.01-.13.02a.507.507 0 0 0-.13-.02h-.08c.01 0-.06-.01-.07-.01l-.1-.03h-.01s-.01 0-.01-.01c-.06-.03-.12-.07-.18-.1a.555.555 0 0 1-.08-.06.138.138 0 0 0-.04-.03l-.01-.01c-.29-.23-.57-.45-.92-.59-.79-.31-1.65-.11-2.3.39-.12.09-.23.18-.35.26-.06.04-.12.08-.19.11-.01 0-.04.02-.05.02-.04.02-.08.03-.13.04-.05-.01-.08 0-.12 0 .06-.01-.07 0-.08 0-.1 0-.18 0-.23-.01-.22-.04-.28-.08-.47-.18-.31-.18-.57-.42-.89-.58-.42-.2-.88-.26-1.33-.16-.38.08-.68.33-.96.58-.04.04-.09.08-.14.12 0 0-.05.04-.06.05-.04.03-.08.06-.13.08-.13.07-.27.11-.45.11-.56.01-.56.88 0 .87.41-.01.79-.13 1.11-.38.14-.11.27-.22.4-.33.03-.02.06-.05.08-.07l.01-.01c.01 0 .01-.01.02-.02.06-.05.13-.08.2-.12-.01.01.06-.03.07-.03l.12-.03c.01 0 .02 0 .02-.01h.19c.1 0 .1 0 .22.03.13.03.14.04.22.08.32.16.59.4.89.58.72.43 1.57.37 2.24-.13.12-.09.23-.18.35-.27.06-.04.13-.09.19-.12.03-.02.07-.04.1-.06.02-.01.03-.01.05-.02 0 0 .02-.01.04-.01.35-.13.68-.12 1.03.01l.07.03c.04.02.07.04.11.06.08.04.15.09.22.15.01 0 .04.03.06.04.02.02.04.03.06.05.08.07.17.13.25.2.3.23.65.37 1.03.38.05 0 .09-.01.13-.02.04.01.08.02.13.02.41-.01.79-.13 1.11-.38.14-.11.27-.22.4-.33.03-.02.06-.05.08-.07l.01-.01c.01 0 .01-.01.02-.02.06-.05.13-.08.2-.12-.01.01.06-.03.07-.03l.12-.03c.01 0 .02 0 .02-.01h.19c.1 0 .1 0 .22.03.13.03.14.04.22.08.32.16.59.4.89.58.72.43 1.57.37 2.24-.13.12-.09.23-.18.35-.27.06-.04.13-.09.19-.12.03-.02.07-.04.1-.06.02-.01.03-.01.05-.02 0 0 .02-.01.04-.01.35-.13.68-.12 1.03.01l.07.03c.04.02.07.04.11.06.08.04.15.09.22.15.01 0 .04.03.06.04.02.02.04.03.06.05.08.07.17.13.25.2.3.23.65.37 1.03.38.61.01.61-.86.05-.87zm0-2.98h-.08c.01 0-.06-.01-.07-.01l-.1-.03h-.01s-.01 0-.01-.01c-.06-.03-.12-.07-.18-.1a.555.555 0 0 1-.08-.06.138.138 0 0 0-.04-.03l-.01-.01c-.29-.23-.57-.45-.92-.59-.79-.31-1.65-.11-2.3.39-.12.09-.23.18-.35.26-.06.04-.12.08-.19.11-.01 0-.04.02-.05.02-.04.02-.08.03-.13.04-.04.01-.07.02-.11.02.06-.01-.07 0-.08 0-.1 0-.18 0-.23-.01-.22-.04-.28-.08-.47-.18-.31-.18-.57-.42-.89-.58-.42-.2-.88-.26-1.33-.16-.38.08-.68.33-.96.58-.05.04-.09.08-.14.12 0 0-.05.04-.06.05-.04.03-.08.06-.13.08-.13.07-.27.11-.45.11-.05 0-.09.01-.13.02a.507.507 0 0 0-.13-.02h-.08c.01 0-.06-.01-.07-.01l-.1-.03h-.01s-.01 0-.01-.01c-.06-.03-.12-.07-.18-.1a.555.555 0 0 1-.08-.06.138.138 0 0 0-.04-.03l-.01-.01c-.29-.23-.57-.45-.92-.59-.79-.31-1.65-.11-2.3.39-.12.09-.23.18-.35.26-.06.04-.12.08-.19.11-.01 0-.04.02-.05.02-.04.02-.08.03-.13.04-.05-.01-.08 0-.12 0 .06-.01-.07 0-.08 0-.1 0-.18 0-.23-.01-.22-.04-.28-.08-.47-.18-.31-.18-.57-.42-.89-.58-.42-.2-.88-.26-1.33-.16-.38.08-.68.33-.96.58-.04.04-.09.08-.14.12 0 0-.05.04-.06.05-.04.03-.08.06-.13.08-.13.07-.27.11-.45.11-.56.01-.56.88 0 .87.41-.01.79-.13 1.11-.38.14-.11.27-.22.4-.33.03-.02.06-.05.08-.07l.01-.01c.01 0 .01-.01.02-.02.06-.05.13-.08.2-.12-.01.01.06-.03.07-.03l.12-.03c.01 0 .02 0 .02-.01h.19c.1 0 .1 0 .22.03.13.03.14.04.22.08.32.16.59.4.89.58.72.43 1.57.37 2.24-.13.12-.09.23-.18.35-.27.06-.04.13-.09.19-.12.03-.02.07-.04.1-.06.02-.01.03-.01.05-.02 0 0 .02-.01.04-.01.35-.13.68-.12 1.03.01l.07.03c.04.02.07.04.11.06.08.04.15.09.22.15.01 0 .04.03.06.04.02.02.04.03.06.05.08.07.17.13.25.2.3.23.65.37 1.03.38.05 0 .09-.01.13-.02.04.01.08.02.13.02.41-.01.79-.13 1.11-.38.14-.11.27-.22.4-.33.03-.02.06-.05.08-.07l.01-.01c.01 0 .01-.01.02-.02.06-.05.13-.08.2-.12-.01.01.06-.03.07-.03l.12-.03c.01 0 .02 0 .02-.01h.19c.1 0 .1 0 .22.03.13.03.14.04.22.08.32.16.59.4.89.58.72.43 1.57.37 2.24-.13.12-.09.23-.18.35-.27.06-.04.13-.09.19-.12.03-.02.07-.04.1-.06.02-.01.03-.01.05-.02 0 0 .02-.01.04-.01.35-.13.68-.12 1.03.01l.07.03c.04.02.07.04.11.06.08.04.15.09.22.15.01 0 .04.03.06.04.02.02.04.03.06.05.08.07.17.13.25.2.3.23.65.37 1.03.38.61.01.61-.86.05-.87zm-5.46-4.18c1.38-.26 2.36-1.55 2.37-2.92-.01-.87-.39-1.72-1.07-2.28-.71-.59-1.62-.8-2.53-.64-1.79.33-2.84 2.37-2.15 4.04a3.032 3.032 0 0 0 3.38 1.8zm-2.69-3.24c.03-.18.11-.42.16-.54.07-.14.2-.35.26-.43.11-.14.29-.31.39-.38a2.177 2.177 0 0 1 1.08-.42c.42-.04.81.05 1.15.22.36.18.63.44.83.76.22.34.32.72.32 1.12-.01.73-.38 1.4-.99 1.79-.31.2-.67.3-1.02.32-.38.02-.74-.07-1.05-.22-.33-.17-.59-.41-.78-.68a2.13 2.13 0 0 1-.36-1c-.02-.19-.01-.43.01-.54zM3.29 9.92c.71.04 1.33-.42 1.63-1.04.05-.11.11-.21.18-.3l.01-.01.06-.06c.03-.03.06-.06.1-.09 0 .01.08-.05.1-.07l.03-.03c.01 0 .02-.01.02-.01.05-.02.1-.03.15-.04H5.78c.07.01.13.03.2.05.06.02.12.04.18.07a1.093 1.093 0 0 1 .22.11c.39.21.73.49 1.05.79.3.26.57.56.83.86L3.79 11.8c-.26.1-.52.19-.78.29-.22.08-.37.29-.3.54.06.21.31.39.54.3 1.7-.63 3.41-1.25 5.11-1.88.26-.1.52-.19.78-.29.31-.11.43-.47.19-.73-.81-.89-1.61-1.89-2.73-2.4-.56-.25-1.23-.35-1.77.02-.24.16-.43.38-.58.63-.07.11-.12.24-.19.35-.01.03-.03.05-.04.07.02-.03-.03.04-.04.05l-.08.08c-.01.01-.03.03-.05.04-.05.04-.11.07-.17.11-.01 0-.01.01-.02.01-.03.01-.06.02-.1.03-.03.01-.06.01-.09.02-.01 0-.03 0-.04.01-.06.01-.13 0-.19 0h-.01a.811.811 0 0 1-.11-.03c-.01 0-.03-.01-.04-.01 0 0-.05-.02-.06-.03-.02-.01-.05-.03-.08-.05 0 0-.01 0-.01-.01-.02-.02-.05-.04-.07-.07-.01 0-.01-.01-.02-.02l-.02-.02c-.01-.03-.03-.06-.04-.09 0-.01-.01-.01-.01-.02v-.01c-.02-.07-.04-.13-.05-.2 0 .03-.02-.07-.02-.08v-.13c0-.04 0-.08.01-.12 0-.02 0-.04.01-.06v-.02c.03-.15.07-.3.13-.45-.02.02.02-.08.03-.08.02-.04.04-.07.06-.11.05-.09.1-.17.16-.25.16-.22.47-.49.74-.66.36-.22.7-.35 1.12-.44.84-.19 1.63-.08 2.39.3.85.41 1.58 1.02 2.26 1.67.73.69 1.41 1.43 2.11 2.15.72.74 1.45 1.48 2.28 2.08.59.43 1.22.71 1.96.64.73-.07 1.45-.24 2.15-.43.64-.17 1.27-.39 1.91-.53.01 0 .02 0 .03-.01.03 0 .06 0 .09-.01H20.28c.06.01.11.03.17.05 0 0 .01.01.02.01.03.01.06.03.09.05.02.01.04.02.06.04l.01.01.12.12c-.03-.03.05.07.06.09.02.03.03.06.05.08 0 .01.01.03.02.04.01.04.03.08.04.12.01.03.01.06.02.09v.18c0 .02-.01.04-.02.07-.01.02-.01.04-.02.06v.01c-.01.02-.06.09-.07.11-.03.03-.07.06-.08.07-.05.03-.15.08-.08.05-.22.09-.37.29-.3.54.06.21.32.39.54.3.69-.27 1-.92.86-1.64-.12-.64-.68-1.2-1.33-1.3-.39-.06-.73.03-1.1.14-.37.11-.74.21-1.12.31-.42.11-.83.22-1.26.31-.19.04-.38.08-.57.11-.23.04-.28.05-.48.07-.13.01-.25.02-.38.01.01 0-.13-.02-.16-.03-.07-.02-.15-.05-.22-.07.03.01-.06-.03-.07-.03-.04-.02-.07-.04-.11-.06-.08-.04-.15-.09-.23-.13-.16-.1-.34-.23-.47-.33-.83-.65-1.57-1.43-2.3-2.19-.68-.7-1.35-1.42-2.07-2.07-.69-.63-1.47-1.24-2.35-1.63-.89-.4-1.81-.47-2.77-.28-.83.17-1.64.59-2.21 1.22-.53.6-.83 1.4-.72 2.2.12.74.71 1.24 1.44 1.27zM5.4 8.33c-.05.02-.03.01 0 0z"/></svg>