<svg id="Layer_2" xmlns="http://www.w3.org/2000/svg" viewBox="0 0 24 24"><style>.st0{fill:#666}</style><path class="st0" d="M12.55 7.78l4.95-4.95-.56-.56-4.99 4.99-5-4.99-.55.56 4.95 4.95H1.93v13.94h20.04V7.78h-9.42zm8.63 13.15H2.72V8.57h18.46v12.36z"/><path class="st0" d="M19.71 10.09H4.18v9.23h15.53v-9.23zM4.99 18.6v-7.79H18.9v7.79H4.99z"/><path class="st0" d="M14.62 13.54h-1.63l-.5-1.55a.387.387 0 0 0-.74 0l-.5 1.55H9.61c-.17 0-.32.11-.37.27-.05.16 0 .33.14.43l1.32.96-.5 1.55a.38.38 0 0 0 .37.5c.08 0 .16-.03.23-.07l1.32-.96 1.32.96c.14.1.32.1.45 0 .14-.1.19-.27.14-.43l-.5-1.55 1.32-.96c.14-.1.19-.27.14-.43a.397.397 0 0 0-.37-.27zm-1.69 1.32c-.08.06-.12.17-.09.27l.36 1.11-.95-.69a.239.239 0 0 0-.14-.05c-.05 0-.1.02-.14.05l-.95.69.36-1.11c.03-.1 0-.21-.09-.27l-.95-.69h1.17c.1 0 .2-.07.23-.17l.36-1.11.38 1.11c.03.1.12.17.23.17h1.17l-.95.69z"/></svg>