<svg id="Layer_2" xmlns="http://www.w3.org/2000/svg" viewBox="0 0 24 24"><style>.st0{fill:#666}</style><path class="st0" d="M11.56 20.72c-.65 0-1.24-.22-1.72-.64l-.38-.11c-.13-.03-.26-.07-.37-.11l-.27-.08c-.12-.03-.24-.05-.37-.07-.48-.07-1.28-.2-1.63-1.15-.23-.64-.63-1.31-1.03-1.74-.72-.78-.37-1.48-.2-1.82.07-.13.12-.23.14-.34.02-.12.04-.26.05-.4l.05-.47-.28-.21a17.7 17.7 0 0 1-.81-.65c-.29-.24-.53-.44-.79-.63-.77-.57-1.4-1.35-1.67-2.08C1.45 8 2.95 5.21 4.89 4l.02-.01.02-.01c1.1-.59 2.29-.71 3.1-.71.77 0 1.54.11 2.17.32 1.47.48 2.36.98 3.05 1.7l.12.13h.06c3.05.32 4.85 1.51 5.06 1.8l.18.24h.02c.16.04.3.1.43.17.79.45 1.46 1.11 1.92 1.93.62 1.09.95 2.16.97 3.17.02 1-.29 2.07-.92 3.19-.5.89-1.05 1.53-2.09 1.77l-.31.07-.01.02c-.52.67-1.29 1.07-2.05 1.07h-.21l-.02.02c-.56.59-1.37.93-2.22.94h-.14l-.02.01c-.42.4-.98.58-1.39.71l-.14.05c-.31.09-.62.14-.93.14zM6.8 10.11c-.46 1.06-.37 2.21-.23 2.98v.01l.6.65c.2.22.43.4.69.54.09.05.27.11.44.17.67.24 1.8.64 1.89 1.75l.3 3.43.02.01c.3.2.66.3 1.03.3.23 0 .46-.04.69-.12l.15-.05c.46-.15 1.03-.33 1.28-.76.11-.35.24-.75.37-1.15.16-.51.33-1.02.46-1.43.05.15.13.73-.08 1.52-.12.46-.14.52-.18.63a2.8 2.8 0 0 0-.12.36l-.02.07h.07c.8-.01 1.56-.41 1.93-1.02l.31-.95c.17-.52.34-1.05.47-1.47.05.15.13.73-.08 1.52-.12.46-.14.51-.18.62-.02.06-.05.13-.1.29l-.02.07h.13c.64 0 1.29-.43 1.65-1.08l-.01.01c.11-.11.39-.71.64-1.88.05.16.12.74-.08 1.51l-.09.33.09-.02c.68-.15 1.1-.52 1.59-1.4.56-1 .84-1.95.83-2.8-.02-.88-.31-1.82-.87-2.81-.31-.54-.71-1-1.2-1.36l-.01-.01-1.37-.07c-.1-.01-.2-.01-.31-.01-1.95 0-5.05.91-6.68 2.39l-.09.08-.09.04c-.14.07-.29.1-.46.1-.33 0-.76-.13-1.42-.34l-.29-.09c-.49-.15-.99-.34-1.32-.48-.15-.06-.24-.1-.25-.1l-.05-.02-.03.04zm-.28 4.29c-.01.11-.03.22-.04.33l-.01.07c-.04.22-.13.39-.2.55-.16.31-.29.57.08.98.47.51.91 1.26 1.18 1.99.2.54.59.6 1.03.66.13.02.28.04.43.08.09.02.19.05.29.08l.05.02c.12.04.22.07.32.09l.07.02-.26-2.97c-.05-.63-.8-.89-1.4-1.1-.21-.07-.41-.15-.55-.22a.666.666 0 0 0-.12-.06c-.09-.04-.19-.09-.29-.15-.15-.1-.49-.38-.5-.39l-.07-.08-.01.1zM8.03 4.02c-.72 0-1.78.11-2.74.62-1.65 1.03-3 3.47-2.3 5.32.27.71.91 1.36 1.42 1.74.28.2.54.43.8.64.15.12.3.25.45.37l.1.08-.01-.13c-.12-1.04.01-2.03.36-2.85.03-.06.05-.11.07-.15l.11-.23.23-.49c.93-1.62 3.67-2.96 5.78-3.4l.11-.02-.09-.07c-.56-.45-1.27-.79-2.36-1.15-.56-.18-1.24-.28-1.93-.28zm5.31 2.15c-1.41 0-4.96 1.28-6.1 3.03-.03.05-.05.08-.08.12l-.03.06.06.02s.13.05.32.13c.3.12.74.29 1.17.42l.29.09c.47.15.96.3 1.2.3.05 0 .09-.01.12-.02 1.79-1.62 5.06-2.59 7.19-2.59.12 0 .24 0 .35.01l.11.01-.07-.09c-.02-.03-.22-.17-.52-.33-.48-.26-1.51-.74-3-1.02-.33-.05-.66-.1-1.01-.14z"/></svg>