<svg id="Layer_2" xmlns="http://www.w3.org/2000/svg" viewBox="0 0 24 24"><style>.st0{fill:#666}</style><path class="st0" d="M18.4 18.23c-.07 0-.14 0-.22-.01a8.215 8.215 0 0 0 2.07-4.42c.01-.08-.03-.16-.1-.19-.22-.12-.6-.29-1.11-.47-.02-.01-.04-.01-.06-.01-.03 0-.06.01-.09.02-.05.03-.08.07-.09.12-.22.95-.75 2.81-1.79 4.62-.3-.15-.47-.3-.5-.33-.03-.03-.06-.06-.09-.08 1.02-1.8 1.53-3.69 1.7-4.42.01-.05 0-.1-.02-.14a.2.2 0 0 0-.12-.08c-.59-.14-1.2-.23-1.82-.28-.1 0-.18.06-.2.15-.15.78-.66 2.85-2.23 5.07-.41.21-.82.35-1.22.42 1.87-2.28 2.52-4.56 2.72-5.44.01-.06 0-.11-.04-.16a.213.213 0 0 0-.15-.07c-.83.02-1.67.12-2.51.29a.17.17 0 0 0-.14.14c-.16.61-.79 2.72-2.25 4.62-.03-.03-.05-.04-.05-.04-.16-.15-.35-.27-.55-.35.27-.35.54-.74.78-1.15.05-.08.03-.18-.04-.24-2.64-2.14-3.7-4.82-4.12-6.71.17-.28.37-.56.58-.81.28 1.64 1.15 4.58 3.82 6.83.03.03.08.04.12.04h.04a.17.17 0 0 0 .13-.1c.45-.94.71-1.76.82-2.16.02-.06 0-.13-.04-.18-2.54-2.89-3.1-5.7-3.2-7.12 0-.06-.04-.12-.1-.15-.04-.03-.07-.04-.1-.04s-.06.01-.09.02a8.266 8.266 0 0 0-4.32 7.25c0 2.05.76 4.01 2.13 5.53a2.718 2.718 0 0 1-.96-.03 8.857 8.857 0 0 1-1.89-5.5c0-4.94 4.02-8.96 8.96-8.96 2.69 0 5.22 1.19 6.93 3.27 0 .01.01.01.01.02.01.01.01.02.02.03a9 9 0 0 1 2 5.65c0 1.99-.64 3.88-1.85 5.46-.25.06-.52.09-.77.09zm-3.09-6.43c2.28 0 3.95.61 4.75.97.02.01.05.02.08.02.04 0 .07-.01.1-.03.05-.04.09-.09.09-.16-.01-.63-.08-1.26-.23-1.87a.172.172 0 0 0-.1-.12c-.75-.39-2.76-1.29-5.37-1.29-.94 0-1.87.12-2.76.35-.13-.2-.25-.42-.36-.64 1.03-.29 2.09-.44 3.16-.44 1.98 0 3.64.5 4.68.93.02.01.05.01.07.01.05 0 .1-.02.14-.06.05-.06.07-.14.04-.21-.28-.58-.6-1.12-.99-1.62a.156.156 0 0 0-.08-.06c-.84-.34-3.05-1.13-5.41-1.13-.88 0-1.7.11-2.43.34-.06-.24-.12-.47-.16-.7.79-.24 1.67-.36 2.61-.36 1.07 0 2.22.15 3.41.46.01 0 .03.01.05.01.07 0 .14-.04.17-.11a.18.18 0 0 0-.07-.23 8.208 8.208 0 0 0-4.63-1.42c-.97 0-1.93.17-2.84.5-.07.03-.12.1-.12.18.01.85.26 3.86 2.93 6.98.04.04.09.07.14.07h.04c1.04-.26 2.08-.37 3.09-.37z"/><path class="st0" d="M7.62 17.57c-.85-.72-1.58-1.68-2.18-2.85a7.071 7.071 0 0 1-.28-2.71c.49 1.69 1.41 3.84 3.11 5.17-.12.05-.24.11-.34.18-.09.08-.2.14-.31.21zM18.45 20.24c-1.44 0-2.52-.62-3.03-.99a.21.21 0 0 0-.11-.04c-.04 0-.07.01-.1.03-1.05.66-2.11.99-3.16.99-1.45 0-2.54-.63-3.06-1a.21.21 0 0 0-.11-.04c-.04 0-.07.01-.1.03-1.06.67-2.13 1.01-3.18 1.01-2.03 0-3.35-1.24-3.36-1.25a.36.36 0 0 1-.01-.5c.07-.07.16-.11.26-.11.09 0 .18.04.25.1.11.11 1.17 1.06 2.84 1.06 1.04 0 2.09-.37 3.12-1.09a.36.36 0 0 1 .2-.06h.04c.09 0 .18.03.24.1.05.04 1.14 1.05 2.84 1.05 1.03 0 2.07-.36 3.09-1.07.07-.06.15-.08.22-.08.11 0 .2.04.27.12.2.18 1.24 1.04 2.81 1.04 1.04 0 2.09-.37 3.12-1.09a.36.36 0 0 1 .49.09c.11.16.07.38-.09.5-1.14.79-2.31 1.2-3.48 1.2z"/></svg>