<svg id="Layer_2" xmlns="http://www.w3.org/2000/svg" viewBox="0 0 24 24"><style>.st0{fill:#666}</style><path class="st0" d="M5.39 15.47c-1.2 0-2.26-1.12-2.26-2.39 0-.21.03-.44.08-.63.26-1.01 1.18-1.74 2.18-1.74.29 0 .56.05.8.14.07.02.13.05.2.09.01-.31.07-.6.17-.89a2.875 2.875 0 0 1 5.18-.47c.31-.16.65-.23 1-.23 1.21 0 2.21.97 2.25 2.17.91.13 1.62.95 1.62 1.9 0 .76-.46 1.52-1.09 1.82-.02.01-.03.01-.05.02-.02 0-.03.01-.04.02-.19.1-.41.2-.67.2H5.39zm0-4.09c-.7 0-1.34.53-1.53 1.25-.03.13-.06.32-.06.48 0 .93.74 1.75 1.59 1.75h9.36c.08 0 .2-.06.31-.12l.05-.03.05-.03c.02-.01.04-.03.07-.04.41-.2.72-.72.72-1.23 0-.68-.55-1.25-1.19-1.25h-.11a.32.32 0 0 1-.24-.11.316.316 0 0 1-.08-.28c.01-.06.01-.12.01-.19a1.588 1.588 0 0 0-2.53-1.28c-.06.04-.13.07-.2.07-.03 0-.06 0-.09-.01-.1-.03-.18-.1-.22-.19a2.216 2.216 0 0 0-2.04-1.35c-.93 0-1.76.58-2.07 1.46-.09.24-.13.49-.13.75 0 .17.02.35.07.55.03.15-.03.3-.17.37-.05.03-.1.04-.16.04-.09 0-.18-.04-.25-.11a1.51 1.51 0 0 0-.6-.4c-.16-.07-.34-.1-.56-.1zM13.91 8.23c-1.2 0-2.18-1-2.18-2.22 0-.07 0-.29.05-.48.2-1 1.1-1.72 2.13-1.72.19 0 .36.02.52.05a2.588 2.588 0 0 1 2.46-1.78c1.39 0 2.53 1.08 2.6 2.46.86.15 1.49.87 1.49 1.74 0 .74-.45 1.44-1.1 1.7-.02.02-.03.03-.05.04l-.06.03-.05.02c-.15.07-.34.16-.56.16h-5.25zm0-3.76c-.72 0-1.35.5-1.48 1.19-.02.09-.03.26-.03.38 0 .86.69 1.58 1.52 1.58h5.25c.06 0 .13-.04.21-.09.04-.02.08-.05.12-.06a.21.21 0 0 0 .06-.04c.02-.02.05-.03.08-.04.4-.16.68-.61.68-1.1 0-.6-.49-1.09-1.12-1.1h-.04a.32.32 0 0 1-.24-.11.338.338 0 0 1-.09-.25v-.06-.09c0-1.07-.87-1.94-1.94-1.94-.85 0-1.58.54-1.84 1.35-.03.07-.05.15-.06.25-.02.1-.08.19-.18.24-.05.02-.1.04-.15.04a.32.32 0 0 1-.14-.03c-.04-.02-.08-.03-.13-.05-.15-.05-.31-.07-.48-.07zM18.33 10.86c-.09 0-.17-.03-.24-.1l-.18-.18-.18.18a.35.35 0 0 1-.24.1c-.09 0-.17-.03-.24-.1a.332.332 0 0 1 0-.47l.18-.18-.18-.18a.332.332 0 0 1 0-.47c.06-.06.15-.1.24-.1s.17.03.24.1l.18.18.18-.18c.06-.06.15-.1.24-.1s.17.03.24.1c.13.13.13.34 0 .47l-.18.18.18.18c.13.13.13.34 0 .47-.07.06-.15.1-.24.1zM7.17 19.14c-.09 0-.17-.03-.24-.1l-.18-.18-.18.18c-.06.06-.15.1-.24.1s-.17-.03-.24-.1a.332.332 0 0 1 0-.47l.18-.18-.17-.18a.332.332 0 0 1 0-.47c.06-.06.15-.1.24-.1s.17.03.24.1l.18.18.18-.18c.06-.06.15-.1.24-.1s.17.03.24.1c.13.13.13.34 0 .47l-.18.18.18.18c.13.13.13.34 0 .47-.08.07-.16.1-.25.1zM11.2 21.9c-.09 0-.17-.03-.24-.1l-.18-.18-.18.18a.35.35 0 0 1-.24.1c-.09 0-.17-.03-.24-.1a.332.332 0 0 1 0-.47l.18-.18-.18-.18a.332.332 0 0 1 0-.47c.06-.06.15-.1.24-.1s.17.03.24.1l.18.18.18-.18c.06-.06.15-.1.24-.1s.17.03.24.1c.13.13.13.34 0 .47l-.18.18.18.18c.13.13.13.34 0 .47-.07.06-.16.1-.24.1zM13.32 18.01c-.09 0-.17-.03-.24-.1l-.18-.18-.18.18c-.06.06-.15.1-.24.1s-.17-.03-.24-.1a.332.332 0 0 1 0-.47l.18-.18-.18-.18a.332.332 0 0 1 0-.47c.06-.06.15-.1.24-.1s.17.03.24.1l.18.18.18-.18c.06-.06.15-.1.24-.1s.17.03.24.1c.13.13.13.34 0 .47l-.18.18.18.18c.13.13.13.34 0 .47-.07.07-.15.1-.24.1z"/></svg>