<svg id="Layer_2" xmlns="http://www.w3.org/2000/svg" viewBox="0 0 24 24"><style>.st0{fill:#666}</style><path class="st0" d="M3.73 19.29c-.23 0-.51-.07-.8-.22-.2-.1-.86-.48-.78-.99.06-.41.42-.88.83-1.43.37-.48.78-1.03.9-1.46.1-.38.09-.8.08-1.29-.01-.53-.03-1.13.1-1.77.3-1.42 4.67-3.19 5.75-3.61.01-.05.02-.16.03-.24.06-.44.15-1.17 1.19-1.46.48-.14.99-.08 1.43.17.44.25.76.65.89 1.14.13.49.07.99-.17 1.43-.25.44-.65.75-1.14.89-.43.12-.89.08-1.29-.1.17.3.44.71.76 1.02.18.06.8.08.99.01.44-.53 1.94-2.48 2.19-3.2.03-.08.04-.16.05-.22-.48-.04-.93-.25-1.26-.61-.35-.38-.53-.87-.51-1.38.03-.51.25-.99.63-1.33.38-.35.89-.54 1.41-.51.51.03.97.25 1.31.63.68.77.38 1.54.22 1.96-.01.04-.03.08-.04.12l.02.01c2.76.68 3.81 3.69 3.85 4.44.01.22 0 .59-.01 1.02-.02.72-.05 1.71.03 2.1.16.78 1.21 2.39 1.6 2.95l.03.06c.22.48 0 .98-.6 1.34-.28.17-1.16.57-1.48.16a.161.161 0 0 1-.04-.07c-.01-.03-.25-.56-.03-1.2-.77-.75-1.62-1.75-1.92-2.42-.12-.27-.2-.59-.27-.92-.17.24-.34.5-.48.71-.23.36-.59 2.11-.76 3.14-.08.66-1.31.77-1.75.73-.76-.06-.79-.51-.78-.64.04-.3.26-.85.85-1.09-.05-1.28-.05-2.61.2-3.26.1-.28.38-.72.7-1.23.32-.51.76-1.22.81-1.47.05-.26-.18-.67-.35-.83-.75 1.06-2.2 2.4-2.94 2.71-.68.28-2.1.45-2.98-.07-.45-.27-.88-.69-1.09-.96-.2.05-.59.3-.79.49.4.44 1.1 1.29 1.51 1.96.44.72.82 2.05 1.05 2.85v.01c.04.02.1.05.15.08.29.14.77.38.81.95.04.21-.04.49-.41.63-.44.17-1.67.21-1.91-.31-.01-.03-1.03-2.32-1.69-3.08-.19-.22-.83-.74-1.32-1.13-.03.26-.07.59-.15.95-.19.82-1.39 1.99-2.02 2.52.09.17.15.35.15.53.01.23-.08.45-.23.6-.13.13-.31.19-.53.19zm-.88-1.14c.12.2.72.49.92.44.01-.02.01-.04.01-.07 0-.12-.07-.26-.17-.35a.325.325 0 0 1-.11-.28c.01-.11.06-.2.15-.27.61-.44 1.89-1.73 2.03-2.33.1-.43.13-.81.16-1.09.03-.36.05-.6.31-.68.11-.04.23-.01.32.06.16.12 1.54 1.18 1.9 1.6.67.78 1.59 2.79 1.77 3.19.19.09.75.09.99.02-.04-.12-.16-.19-.4-.31-.2-.1-.43-.21-.5-.45l-.02-.08c-.22-.76-.59-2.04-.98-2.68-.44-.73-1.26-1.69-1.57-2.01a.437.437 0 0 1-.1-.44c.13-.41 1-.99 1.48-1.07.33-.05.51.1.58.2.15.21.56.62.95.85.61.36 1.78.26 2.35.02.55-.23 2.04-1.53 2.76-2.64.04-.06.09-.1.15-.13.13-.06.39-.12.72.15.39.32.74 1 .63 1.54-.07.35-.41.9-.91 1.7-.27.44-.56.9-.64 1.11-.25.66-.17 2.55-.14 3.26.01.18-.12.33-.29.36-.32.06-.46.27-.53.41.29.05.91-.04 1.09-.17.09-.55.49-2.79.86-3.37.23-.37.69-1.03.93-1.33-.04-.4-.05-.69-.05-.72-.01-.19.14-.36.34-.36.2-.01.36.14.37.34 0 .02.06 1.57.41 2.37.27.63 1.19 1.67 1.93 2.36.12.11.14.28.07.42-.14.26-.14.5-.11.65.24-.05.68-.23.85-.46.06-.09.06-.14.05-.18-.2-.28-1.48-2.15-1.69-3.18-.09-.46-.07-1.42-.04-2.26.01-.4.02-.78.01-.96-.02-.36-.82-3.2-3.36-3.8a.3.3 0 0 1-.1-.04l-.26-.16a.376.376 0 0 1-.15-.18c-.08-.22.01-.44.1-.67.18-.46.28-.83-.09-1.25-.21-.23-.5-.37-.81-.39a1.214 1.214 0 0 0-.96 2.03c.26.29.64.43 1.04.38.18-.02.34.09.38.27.01.04.1.42-.07.9-.35 1.01-2.32 3.43-2.34 3.45-.13.16-.36.24-.74.26-.04 0-.93.06-1.22-.21-.72-.66-1.16-1.66-1.18-1.7a.362.362 0 0 1 .13-.44l.37-.24c.13-.08.29-.07.41.02.3.24.69.32 1.05.22.3-.08.56-.28.71-.56.16-.27.19-.59.11-.9-.08-.31-.28-.56-.56-.71a1.2 1.2 0 0 0-.89-.11c-.59.17-.63.48-.68.88-.03.26-.07.55-.31.73-.03.02-.06.04-.09.05-2.18.81-5.26 2.32-5.43 3.12-.12.56-.1 1.09-.09 1.61.01.52.03 1.02-.1 1.49-.15.56-.59 1.14-1.02 1.7-.29.39-.62.82-.69 1.07zM9.04 11.96z"/></svg>