<svg id="Layer_1" data-name="Layer 1" xmlns="http://www.w3.org/2000/svg" viewBox="0 0 66.28 66.26"><defs><style>.cls-1{fill:#41494f;}</style></defs><title>ICNAll</title><path class="cls-1" d="M33.17,66.26A33.24,33.24,0,0,1,4.45,49.69,33.13,33.13,0,0,1,33.11,0,33.24,33.24,0,0,1,61.83,16.57,33.13,33.13,0,0,1,33.17,66.26m-.06-63.5A30.37,30.37,0,1,0,59.43,17.95,30.35,30.35,0,0,0,33.11,2.76" transform="translate(0)"/><path class="cls-1" d="M33.16,58.07A25,25,0,0,1,11.54,45.6,24.94,24.94,0,0,1,33.12,8.19,25,25,0,0,1,54.73,20.66a24.94,24.94,0,0,1-21.57,37.4m0-46.7A21.76,21.76,0,1,0,52,22.25,21.75,21.75,0,0,0,33.12,11.37" transform="translate(0)"/><path class="cls-1" d="M30.88,38.4H29.36a.66.66,0,0,1-.42-.13A.72.72,0,0,1,28.7,38l-.79-2.15H23.55L22.76,38a.69.69,0,0,1-.23.31.65.65,0,0,1-.42.14H20.58l4.14-10.55h2Zm-6.83-4h3.36l-1.28-3.51-.19-.55q-.11-.32-.21-.69c-.07.25-.13.48-.2.69s-.13.4-.19.56Z" transform="translate(0)"/><path class="cls-1" d="M33.93,36.78h4.22V38.4H32V27.86h2Z" transform="translate(0)"/><path class="cls-1" d="M41.47,36.78h4.22V38.4H39.51V27.86h2Z" transform="translate(0)"/></svg>