<svg id="Layer_1" data-name="Layer 1" xmlns="http://www.w3.org/2000/svg" viewBox="0 0 92.73193 53.36914"><defs><style>.cls-1{fill:#41494f;}</style></defs><title>Gaming</title><path class="cls-1" d="M1.271,13.53027A1.27044,1.27044,0,0,0,0,14.79688V36.98047a1.27076,1.27076,0,0,0,2.5415,0V14.79688A1.27,1.27,0,0,0,1.271,13.53027Z"/><path class="cls-1" d="M37.71826,13.21533a1.27349,1.27349,0,0,0,1.272-1.23535,1.5955,1.5955,0,0,1,.58643-1.08594,1.43488,1.43488,0,0,1,.9375-.39551h.01953a1.33574,1.33574,0,0,0,.16992.01123A1.2788,1.2788,0,0,0,41.9668,9.4165,1.25168,1.25168,0,0,0,41.73,8.48a1.26763,1.26763,0,0,0-.84033-.50049,3.11,3.11,0,0,0-.4248-.02881A3.96543,3.96543,0,0,0,37.90771,8.981a4.07,4.07,0,0,0-1.45361,2.92773,1.27694,1.27694,0,0,0,1.23779,1.30664Z"/><path class="cls-1" d="M13.27979,12.92773A1.27906,1.27906,0,0,0,14.5459,11.689a1.54522,1.54522,0,0,1,.58643-1.08008,1.42346,1.42346,0,0,1,.938-.40088h.01611a1.25285,1.25285,0,0,0,.18018.01318,1.26873,1.26873,0,0,0,.17432-2.52539,3.10356,3.10356,0,0,0-.4292-.02979A3.9784,3.9784,0,0,0,13.4585,8.69678,4.05977,4.05977,0,0,0,12.00879,11.625a1.26742,1.26742,0,0,0,1.23633,1.30225Z"/><path class="cls-1" d="M29.43848,15.97363H13.95313a1.267,1.267,0,0,0-1.271,1.27539l.02881,5.38525a1.276,1.276,0,0,0,1.27637,1.26367,1.24684,1.24684,0,0,0,.79492-.28613,3.86831,3.86831,0,0,1,2.604-1.03174,8.49086,8.49086,0,0,1,1.11132.0918l.63819.09668a20.96865,20.96865,0,0,0,2.8916.30176l-.40576.52832A16.53521,16.53521,0,0,0,18.15088,36.79a1.27232,1.27232,0,0,0,1.26074,1.11816h5.62207a1.26961,1.26961,0,0,0,1.24707-1.49365c-.75244-4.21875,1.5127-9.15234,3.8252-13.418a1.195,1.195,0,0,0,.15283-.50146l.44141-5.146a1.27009,1.27009,0,0,0-1.26172-1.37549Zm-1.67236,6.01514-.88037,1.68018c-2.32227,4.59229-3.36768,8.20215-3.28955,11.36865l.02.333H20.56689c-.36377-4.88965.98633-8.16553,5.32617-12.94971a1.24792,1.24792,0,0,0,.22217-1.36133,1.26249,1.26249,0,0,0-1.147-.76123,1.31519,1.31519,0,0,0-.23975.022,12.91912,12.91912,0,0,1-2.32324.21533,17.963,17.963,0,0,1-2.81885-.26709c-.25-.03809-.49707-.07568-.74414-.10937a10.83812,10.83812,0,0,0-1.4751-.11475,6.03708,6.03708,0,0,0-1.96729.3125l-.16162.06836-.01318-1.9126H28.05273Z"/><path class="cls-1" d="M81.34863,0H11.22412C7.30859,0,4.12255,2.854,4.12255,6.36182V47.00488c0,3.50928,3.186,6.36426,7.10157,6.36426H81.34863c3.91309,0,7.09717-2.855,7.09717-6.36426V6.36182C88.4458,2.854,85.26172,0,81.34863,0Zm4.56006,47.00488c0,2.10889-2.04541,3.82471-4.56006,3.82471H11.22412c-2.51465,0-4.56006-1.71582-4.56006-3.82471V6.36182c0-2.10889,2.04541-3.82422,4.56006-3.82422H81.34863c2.51465,0,4.56006,1.71533,4.56006,3.82422Z"/><path class="cls-1" d="M91.46094,13.53027a1.27,1.27,0,0,0-1.27051,1.2666V36.98047a1.27076,1.27076,0,0,0,2.5415,0V14.79688A1.27044,1.27044,0,0,0,91.46094,13.53027Z"/><path class="cls-1" d="M78.00635,4.27148H63.24023a6.34587,6.34587,0,0,0-4.853,2.187,6.33928,6.33928,0,0,0-4.85889-2.187h-14.77a6.37159,6.37159,0,0,0-4.88281,2.21094,6.34909,6.34909,0,0,0-4.88232-2.21094H14.22656c-3.34521,0-6.06689,2.45068-6.06689,5.46289v34.186c0,3.01318,2.72168,5.46484,6.06689,5.46484h14.7666a6.35,6.35,0,0,0,4.88037-2.2085,6.36891,6.36891,0,0,0,4.88477,2.2085h14.77a6.33731,6.33731,0,0,0,4.84814-2.188,6.34263,6.34263,0,0,0,4.86377,2.188H78.00635c3.34766,0,6.07178-2.45166,6.07178-5.46484V9.73438C84.07813,6.72217,81.354,4.27148,78.00635,4.27148ZM32.52295,43.92041a3.26223,3.26223,0,0,1-3.52979,2.92529H14.22656a3.26223,3.26223,0,0,1-3.52979-2.92529V9.73438a3.26223,3.26223,0,0,1,3.52979-2.92529h14.7666a3.26223,3.26223,0,0,1,3.52979,2.92529Zm24.53125,0a3.25986,3.25986,0,0,1-3.52588,2.92529h-14.77A3.2624,3.2624,0,0,1,35.228,43.92041V9.73438A3.2624,3.2624,0,0,1,38.7583,6.80908h14.77A3.25986,3.25986,0,0,1,57.0542,9.73438Zm24.48682,0a3.26495,3.26495,0,0,1-3.53467,2.92529H63.24023a3.26223,3.26223,0,0,1-3.52979-2.92529V9.73438a3.26223,3.26223,0,0,1,3.52979-2.92529H78.00635A3.26495,3.26495,0,0,1,81.541,9.73438Z"/><path class="cls-1" d="M78.33392,15.97437H62.85248a1.27054,1.27054,0,0,0-.90771.377,1.25612,1.25612,0,0,0-.36719.89893l.03711,5.38477a1.27467,1.27467,0,0,0,1.27441,1.26367,1.237,1.237,0,0,0,.792-.28613,3.87025,3.87025,0,0,1,2.606-1.03174,8.5365,8.5365,0,0,1,1.11377.0918l.62939.0957a20.9816,20.9816,0,0,0,2.89795.30273l-.40332.52832a16.52056,16.52056,0,0,0-3.4707,13.19043,1.2664,1.2664,0,0,0,1.26123,1.11914H73.933a1.27073,1.27073,0,0,0,1.25146-1.49365c-.75781-4.22168,1.50977-9.15381,3.82764-13.42236a1.35883,1.35883,0,0,0,.15039-.49707l.44092-5.146a1.27066,1.27066,0,0,0-1.26953-1.37549ZM76.66937,21.9895l-.87988,1.68018c-2.32275,4.583-3.36816,8.19336-3.28955,11.36816l.01953.3335H69.46234c-.35693-4.89551.99512-8.17139,5.334-12.94971A1.24805,1.24805,0,0,0,75.019,21.0603a1.26265,1.26265,0,0,0-1.14746-.76123,1.31519,1.31519,0,0,0-.23975.022,12.911,12.911,0,0,1-2.32324.21533,17.97454,17.97454,0,0,1-2.81885-.26709c-.25146-.03809-.5-.07568-.748-.10937A10.76452,10.76452,0,0,0,66.27,20.04517a6.03119,6.03119,0,0,0-1.96631.3125l-.16553.06934-.00977-1.91357H76.956Z"/><path class="cls-1" d="M53.65527,15.97363H38.17383a1.27054,1.27054,0,0,0-.90771.377,1.25612,1.25612,0,0,0-.36719.89893l.03711,5.38477a1.27467,1.27467,0,0,0,1.27441,1.26367,1.237,1.237,0,0,0,.792-.28613,3.87025,3.87025,0,0,1,2.606-1.03174,8.5365,8.5365,0,0,1,1.11377.0918l.62939.0957a20.98159,20.98159,0,0,0,2.89795.30273l-.40332.52832a16.52056,16.52056,0,0,0-3.4707,13.19043,1.2664,1.2664,0,0,0,1.26123,1.11914h5.61768a1.27073,1.27073,0,0,0,1.25146-1.49365c-.75781-4.22168,1.50977-9.15381,3.82764-13.42236a1.35883,1.35883,0,0,0,.15039-.49707l.44092-5.146a1.27066,1.27066,0,0,0-1.26953-1.37549Zm-1.66455,6.01514-.87988,1.68018c-2.32275,4.583-3.36816,8.19336-3.28955,11.36816l.01953.3335H44.78369c-.35693-4.89551.99512-8.17139,5.334-12.94971a1.24805,1.24805,0,0,0,.22266-1.36133,1.26265,1.26265,0,0,0-1.14746-.76123,1.31519,1.31519,0,0,0-.23975.022,12.911,12.911,0,0,1-2.32324.21533,17.97454,17.97454,0,0,1-2.81885-.26709c-.25146-.03809-.5-.07568-.748-.10937a10.76452,10.76452,0,0,0-1.47168-.11475,6.03119,6.03119,0,0,0-1.96631.3125l-.16553.06934-.00977-1.91357H52.27734Z"/><path class="cls-1" d="M62.21777,13.07227A1.28622,1.28622,0,0,0,63.498,11.83447a1.55009,1.55009,0,0,1,.5752-1.08252,1.45879,1.45879,0,0,1,.94092-.397l.02148.00049a1.27093,1.27093,0,0,0,.35742-2.5166,3.12457,3.12457,0,0,0-.43066-.02979,3.97464,3.97464,0,0,0-2.55615,1.03076,4.09434,4.09434,0,0,0-1.45361,2.92676,1.27909,1.27909,0,0,0,1.2373,1.30566Z"/></svg>