<svg id="Layer_1" data-name="Layer 1" xmlns="http://www.w3.org/2000/svg" viewBox="0 0 74.23474 74.23929"><defs><style>.cls-1{fill:#41494f;}</style></defs><title>Poker</title><path class="cls-1" d="M44.54241,64.34093V58.1546a1.23762,1.23762,0,0,0-2.11274-.875l-2.47432,2.47449a1.237,1.237,0,0,0,1.74935,1.74935l.36248-.36248v3.2a1.23725,1.23725,0,0,0,0,2.47451h2.47522a1.23725,1.23725,0,0,0,0-2.47451Zm0,0" transform="translate(0 0)"/><path class="cls-1" d="M32.19674,35.64742a20.79671,20.79671,0,0,1-5.15344-5.35027,1.28681,1.28681,0,0,0-2.1218,0,23.03844,23.03844,0,0,1-4.93033,5.46626c-2.64577,2.34074-5.14347,4.55171-5.14347,8.78118A6.19331,6.19331,0,0,0,21.034,50.73075a5.72643,5.72643,0,0,0,3.71184-1.13693v3.61143a1.23725,1.23725,0,1,0,2.4745,0V49.59382a5.72181,5.72181,0,0,0,3.71184,1.13693c3.06625,0,5.428-2.27749,6.16151-5.944.89062-4.44895-2.05167-6.83355-4.897-9.13931Zm2.47069,8.65431c-.18541.92814-1.0039,3.9547-3.73522,3.9547-2.02339,0-2.67042-.68183-3.84287-3.028a1.18467,1.18467,0,0,0-.22094-.303c-.01831-.02048-.04314-.03462-.06307-.05455a1.26174,1.26174,0,0,0-.28527-.19175c-.03607-.017-.07069-.03335-.10893-.04821a1.10664,1.10664,0,0,0-.85673,0c-.03824.01486-.07359.03118-.10965.04821a1.18872,1.18872,0,0,0-.28328.19175c-.02266.02066-.046.03407-.06579.05455a1.21807,1.21807,0,0,0-.22021.303c-1.17318,2.34618-1.82021,3.028-3.84143,3.028a3.7152,3.7152,0,0,1-3.712-3.71184c0-3.11446,1.80753-4.71374,4.30957-6.92761a29.82539,29.82539,0,0,0,4.3625-4.48647,27.77233,27.77233,0,0,0,4.64361,4.4397c3.04,2.46308,4.60046,3.88184,4.02973,6.73151Zm0,0" transform="translate(0 0)"/><path class="cls-1" d="M11.13569,24.74806V18.56173a1.23765,1.23765,0,0,0-2.11255-.875L6.54882,20.16119a1.23723,1.23723,0,0,0,1.74935,1.75007l.36248-.36248v3.19928a1.23716,1.23716,0,0,0,0,2.47432h2.475a1.23716,1.23716,0,0,0,0-2.47432Zm0,0" transform="translate(0 0)"/><path class="cls-1" d="M70.18743,13.82044,33.2494.37392a6.15254,6.15254,0,0,0-7.86772,3.63117l-.38024.93177L18.99579,3.90741a6.18639,6.18639,0,0,0-7.16486,5.011l-.1798.982H6.18633A6.19346,6.19346,0,0,0,0,16.08669V68.053a6.19346,6.19346,0,0,0,6.18633,6.18633H48.25352c3.36929,0,6.66572-.49134,7.96341-4.0533L73.86465,21.703a6.16073,6.16073,0,0,0-3.67722-7.88258ZM49.491,68.053a3.71645,3.71645,0,0,1-3.71184,3.71184H6.18633a3.71613,3.71613,0,0,1-3.712-3.71184V16.08669a3.71613,3.71613,0,0,1,3.712-3.71183H12.682a1.23646,1.23646,0,0,0,1.21631-1.0146l.36883-2.00435a3.70836,3.70836,0,0,1,4.3045-3.01026l6.98906,1.19784a1.25173,1.25173,0,0,0,1.35514-.75106l.77445-1.89525a3.678,3.678,0,0,1,4.71229-2.19756L51.4374,9.6285,32.26326,6.24724a1.23726,1.23726,0,0,0-.43045,2.4368l6.89771,1.21632H17.32058a1.23725,1.23725,0,1,0,0,2.47449H45.7792A3.71644,3.71644,0,0,1,49.491,16.08669Zm.85255-56.10439,7.21344,1.2716a3.71752,3.71752,0,0,1,3.01242,4.29943l-8.60393,48.798V16.08669a6.13918,6.13918,0,0,0-1.62194-4.13812Zm21.19608,8.90914L53.99236,69.06392l9.01335-51.1146a6.15315,6.15315,0,0,0-.93031-4.44949l7.26672,2.64486a3.68461,3.68461,0,0,1,2.19755,4.713Zm0,0" transform="translate(0 0)"/></svg>