<svg id="Layer_1" data-name="Layer 1" xmlns="http://www.w3.org/2000/svg" viewBox="0 0 66.27832 66.47363"><defs><style>.cls-1{fill:#41494f;}</style></defs><title>Other_Games</title><path class="cls-1" d="M65.19727,31.69873l-3.27161-.9502a11.28639,11.28639,0,0,1-6.74109-16.27393l1.6416-2.98437a1.50023,1.50023,0,0,0-2.03711-2.0376l-2.98437,1.64063a11.232,11.232,0,0,1-9.75586.53711A11.23147,11.23147,0,0,1,35.5293,4.35205l-.9502-3.27051a1.49988,1.49988,0,0,0-2.88086.00049l-.94922,3.27a11.23147,11.23147,0,0,1-6.51953,7.27832,11.23683,11.23683,0,0,1-9.75586-.53711L11.48926,9.45264a1.50007,1.50007,0,0,0-2.03711,2.03711l1.64063,2.98438a11.22924,11.22924,0,0,1,.53711,9.75537,11.22978,11.22978,0,0,1-7.27832,6.519l-3.27051.9502a1.50016,1.50016,0,0,0,0,2.88086l3.27148.9502a11.23092,11.23092,0,0,1,7.27734,6.51855,11.23128,11.23128,0,0,1-.53711,9.75635L9.45215,54.78906a1.50007,1.50007,0,0,0,2.03711,2.03711l2.98438-1.64111a11.23617,11.23617,0,0,1,8.1123-1.07617,1.49974,1.49974,0,1,0,.71472-2.91309,14.20417,14.20417,0,0,0-8.92664.709,14.20881,14.20881,0,0,0,.02734-11.00439,14.20462,14.20462,0,0,0-7.80078-7.76123,14.20719,14.20719,0,0,0,7.80176-7.76172A14.2107,14.2107,0,0,0,14.374,14.374a14.20321,14.20321,0,0,0,11.00391.02783,14.2032,14.2032,0,0,0,7.76074-7.7998,14.20951,14.20951,0,0,0,7.76172,7.7998,14.20512,14.20512,0,0,0,11.00293-.02734,14.2915,14.2915,0,0,0,7.77441,18.76465,14.2898,14.2898,0,0,0-7.77441,18.76465,14.18736,14.18736,0,0,0-9.14551-.65234,1.49985,1.49985,0,1,0,.76172,2.90137,11.21944,11.21944,0,0,1,8.28516,1.03223l2.98438,1.64111a1.50007,1.50007,0,0,0,2.03711-2.03711l-1.6416-2.98486a11.2863,11.2863,0,0,1,6.74219-16.27441l3.27051-.9502a1.50016,1.50016,0,0,0,0-2.88086Z"/><path class="cls-1" d="M33.041,54.81787A5.82788,5.82788,0,1,0,38.86816,60.646,5.83443,5.83443,0,0,0,33.041,54.81787Zm0,8.65576A2.82788,2.82788,0,1,1,35.86816,60.646,2.831,2.831,0,0,1,33.041,63.47363Z"/><path class="cls-1" d="M47.30273,31.63965a13.68457,13.68457,0,0,0-27.31738.59131l-.00586.49023a3.44718,3.44718,0,0,0,.707,2.69385,3.05631,3.05631,0,0,0,2.25586.76514h4.32813c3.26074,0,3.333-2.54834,3.335-3.8584a3.0626,3.0626,0,1,1,5.20215,2.5625c-.46289.46289-1.11426,1.03564-1.80371,1.6416-2.86523,2.521-6.791,5.97314-6.791,9.69531v4.32813a2.94587,2.94587,0,0,0,2.94238,2.94238H34.4834a2.94577,2.94577,0,0,0,2.94226-2.94238V47.85938c.338-.94043,2.61047-2.76611,3.85364-3.76416.75879-.60937,1.47559-1.18506,2.00293-1.68994A13.24964,13.24964,0,0,0,47.30273,31.63965ZM41.208,40.23779c-.43359.415-1.10059.95068-1.80762,1.51855C36.74219,43.89111,34.832,45.543,34.457,47.36084l-.03137.1499.05774,2.981-4.27051.05762V46.22119c0-2.36523,3.47363-5.4209,5.77246-7.44287.72656-.63867,1.41211-1.24219,1.94336-1.77295a6.065,6.065,0,0,0-4.2959-10.354,5.96323,5.96323,0,0,0-3.16895.89795,6.08983,6.08983,0,0,0-2.84961,4.52686l-.00879.1582a7.012,7.012,0,0,1-.042.93213,2.76314,2.76314,0,0,1-.293.01367H22.97363c0-.13184.00293-.27588.00488-.40625l.00586-.479A10.67107,10.67107,0,0,1,39.50977,23.7998,10.85344,10.85344,0,0,1,44.31445,31.895,10.26323,10.26323,0,0,1,41.208,40.23779Z"/></svg>