<svg id="Layer_1" data-name="Layer 1" xmlns="http://www.w3.org/2000/svg" viewBox="0 0 71.75433 71.75305"><defs><style>.cls-1{fill:#41494f;}</style></defs><title>Casino</title><circle class="cls-1" cx="36.15681" cy="6.98564" r="2.55243"/><circle class="cls-1" cx="15.45862" cy="56.67557" r="2.55232" transform="translate(-35.55066 27.53553) rotate(-45.00533)"/><circle class="cls-1" cx="15.72797" cy="15.44745" r="2.55277" transform="translate(-6.3164 15.64394) rotate(-44.99516)"/><circle class="cls-1" cx="9.27548" cy="25.03238" r="2.55236" transform="translate(-17.40092 24.02028) rotate(-67.49559)"/><circle class="cls-1" cx="6.98463" cy="35.96884" r="2.55214"/><circle class="cls-1" cx="46.87527" cy="9.82664" r="2.55238" transform="translate(19.85477 49.37088) rotate(-67.49496)"/><circle class="cls-1" cx="9.17111" cy="47.1324" r="2.55221" transform="translate(-17.3422 7.0997) rotate(-22.50504)"/><circle class="cls-1" cx="56.31848" cy="15.81488" r="2.55213" transform="translate(5.31249 44.45525) rotate(-45)"/><circle class="cls-1" cx="24.76158" cy="63.21146" r="2.55236" transform="translate(-43.11394 61.89298) rotate(-67.49559)"/><circle class="cls-1" cx="25.08003" cy="9.07913" r="2.55211" transform="translate(-1.56522 10.29129) rotate(-22.5053)"/><circle class="cls-1" cx="62.65805" cy="47.14272" r="2.5524" transform="translate(-4.87872 86.98304) rotate(-67.4937)"/><path class="cls-1" d="M35.87708,0A35.87653,35.87653,0,1,0,71.75433,35.87646,35.91707,35.91707,0,0,0,35.87708,0Zm0,68.99347a33.11694,33.11694,0,1,1,33.11627-33.117A33.15427,33.15427,0,0,1,35.87708,68.99347Z"/><circle class="cls-1" cx="62.55476" cy="25.01926" r="2.55294" transform="translate(-4.81261 25.85537) rotate(-22.51039)"/><circle class="cls-1" cx="64.76895" cy="35.96794" r="2.55272"/><circle class="cls-1" cx="56.58661" cy="56.3056" r="2.55256" transform="translate(-23.24027 56.49081) rotate(-44.99031)"/><circle class="cls-1" cx="36.15681" cy="64.76741" r="2.55243"/><circle class="cls-1" cx="47.1916" cy="62.4603" r="2.55298" transform="translate(-20.30562 22.80603) rotate(-22.49327)"/><path class="cls-1" d="M35.87714,13.77655a22.1,22.1,0,1,0,22.1,22.2A22.107,22.107,0,0,0,35.87714,13.77655ZM47.31342,51.7049,45.37714,48.9765c-.4.3-.9.6-1.4.9-.5.2-1,.5-1.5.7l1.43085,3.13A19.23034,19.23034,0,0,1,37.94409,55.362l-.36694-3.48547a18.19179,18.19179,0,0,1-3.3,0l-.36847,3.50031a19.32716,19.32716,0,0,1-5.98285-1.61627l1.45129-3.084c-.5-.3-1-.5-1.5-.8s-1-.6-1.4-.9L24.493,51.7724A19.64356,19.64356,0,0,1,20.08356,47.369l2.79358-1.89246c-.3-.5-.6-.9-.9-1.4-.2-.5-.5-1-.7-1.5l-3.18311,1.3642a19.29838,19.29838,0,0,1-1.617-5.99579l3.50012-.36841a8.08024,8.08024,0,0,1-.1-1.6,8.59866,8.59866,0,0,1,.1-1.6l-3.50037-.36847a19.32716,19.32716,0,0,1,1.62158-5.9939l3.17877,1.36237c.2-.5.5-1,.7-1.4.3-.5.6-1,.9-1.4L20.0813,24.59235A19.64538,19.64538,0,0,1,24.49115,20.178l1.986,2.79846c.5-.3.9-.6,1.4-.9.5-.2,1-.5,1.5-.7l-1.45673-3.18671a19.29983,19.29983,0,0,1,5.99878-1.614l.358,3.40063a18.19179,18.19179,0,0,1,3.3,0l.357-3.391a19.51641,19.51641,0,0,1,5.87073,1.56781l-1.42773,3.12317c.5.3,1,.5,1.5.8s1,.6,1.4.9l1.96735-2.86157a19.46657,19.46657,0,0,1,4.46356,4.42352l-2.7309,1.938c.3.5.6.9.9,1.4.2.5.5,1,.7,1.5l3.11285-1.423a19.02548,19.02548,0,0,1,1.60492,6.06323l-3.41779.3598a8.07992,8.07992,0,0,1,.1,1.6,8.59931,8.59931,0,0,1-.1,1.6l3.39978.35785A19.23192,19.23192,0,0,1,53.665,43.88812L50.57715,42.4765c-.3.5-.5,1-.8,1.5s-.6,1-.9,1.4l2.77728,1.971A19.8,19.8,0,0,1,47.31342,51.7049Z"/><path class="cls-1" d="M44.73682,30.42651A2.3,2.3,0,1,0,40.86163,29.27L37.882,32.20306a4.27884,4.27884,0,0,0-3.97717.0011l-2.9552-2.9552a2.29767,2.29767,0,1,0-1.81287,1.78711l2.96814,2.96814a4.27914,4.27914,0,0,0-.0119,3.95648L29.1228,40.93091a2.30152,2.30152,0,1,0,1.80634,1.79364l2.95313-2.95312a4.27919,4.27919,0,0,0,4.02246.001l2.95245,2.90631a2.29371,2.29371,0,1,0,1.796-1.72626L39.684,37.9834a4.27931,4.27931,0,0,0-.01184-4.00189l2.94073-2.94073A2.29345,2.29345,0,0,0,44.73682,30.42651Z"/></svg>