<svg id="Layer_1" data-name="Layer 1" xmlns="http://www.w3.org/2000/svg" viewBox="0 0 63.92072 39.63611"><defs><style>.cls-1{fill:#41494f;}</style></defs><title>Table_Games</title><circle class="cls-1" cx="10.65373" cy="15.66521" r="2.66342"/><circle class="cls-1" cx="10.65373" cy="23.6555" r="2.66342"/><circle class="cls-1" cx="10.65373" cy="31.6458" r="2.66342"/><circle class="cls-1" cx="21.30743" cy="15.66521" r="2.66344"/><circle class="cls-1" cx="21.30743" cy="23.6555" r="2.66344"/><circle class="cls-1" cx="21.30743" cy="31.6458" r="2.66344"/><path class="cls-1" d="M63.18567,20.90552,52.70294,2.74982A5.496,5.496,0,0,0,45.19244.73737l-14.8313,8.563a5.47984,5.47984,0,0,0-3.89789-1.62549H5.49854A5.50439,5.50439,0,0,0,0,13.17346V34.13812a5.50439,5.50439,0,0,0,5.49854,5.498H26.46326a5.5043,5.5043,0,0,0,5.49792-5.498v-3.3913l3.54449,6.13928a5.49741,5.49741,0,0,0,7.511,2.01312L61.173,28.41663A5.506,5.506,0,0,0,63.18567,20.90552ZM29.29773,34.13812a2.83731,2.83731,0,0,1-2.83447,2.83453H5.49854a2.83783,2.83783,0,0,1-2.83508-2.83453V13.17346a2.83836,2.83836,0,0,1,2.83508-2.83514H26.46326a2.82767,2.82767,0,0,1,2.30664,1.19879l.111.1842a2.956,2.956,0,0,1,.28967.65814c.00885.03.02.05908.02783.08954a2.68055,2.68055,0,0,1,.0993.70447V34.13812Zm30.54358-8.02869L41.685,36.59216a2.90873,2.90873,0,0,1-3.87225-1.03778L31.96118,25.41962V13.17346a5.49836,5.49836,0,0,0-.05688-.74738c-.00488-.03442-.01013-.06854-.01575-.10291a5.46321,5.46321,0,0,0-.16272-.73553L46.52417,3.04376a2.90995,2.90995,0,0,1,3.8717,1.03778l10.4826,18.1557A2.83781,2.83781,0,0,1,59.84131,26.10944Z"/><path class="cls-1" d="M49.38336,18.30774a2.66353,2.66353,0,1,0,3.63812.97412A2.7352,2.7352,0,0,0,49.38336,18.30774Z"/><path class="cls-1" d="M49.29291,14.38409a2.646,2.646,0,0,0-.2666-2.02087,2.73275,2.73275,0,0,0-3.63873-.97485,2.66333,2.66333,0,1,0,3.90533,2.99573Z"/><path class="cls-1" d="M40.157,23.63458a2.66356,2.66356,0,1,0,3.63812.97418A2.73469,2.73469,0,0,0,40.157,23.63458Z"/><path class="cls-1" d="M40.06653,19.71094a2.64608,2.64608,0,0,0-.2666-2.02087,2.732,2.732,0,0,0-3.63879-.97479,2.66331,2.66331,0,1,0,3.9054,2.99567Z"/></svg>