<svg id="Layer_1" data-name="Layer 1" xmlns="http://www.w3.org/2000/svg" viewBox="0 0 64.14563 63.75415"><defs><style>.cls-1{fill:#41494f;}</style></defs><title>Video_Poker</title><path class="cls-1" d="M41.29407,18.31763a9.62663,9.62663,0,0,0-3.54456-5.12384L49.054,1.88965,47.16431,0,35.29041,11.87341a9.341,9.341,0,0,0-6.43616.00024L16.9812,0,15.09155,1.88965,26.39526,13.19409a9.62671,9.62671,0,0,0-3.545,5.12354H0V63.75415H64.14563V18.31763Zm-9.22131-4.3432a6.96632,6.96632,0,0,1,6.41187,4.3432H25.65991A6.9674,6.9674,0,0,1,32.07275,13.97443Zm29.40015,47.107H2.67261V20.99036H61.4729Z"/><path class="cls-1" d="M13.67944,23.66309a8.34451,8.34451,0,0,0-8.33533,8.33533v18.075a8.34443,8.34443,0,0,0,8.33533,8.33533h26.093a8.34446,8.34446,0,0,0,8.33545-8.33533v-18.075a8.34454,8.34454,0,0,0-8.33545-8.33533Zm31.75562,8.33533v18.075a5.66865,5.66865,0,0,1-5.6626,5.6626h-26.093a5.66865,5.66865,0,0,1-5.6626-5.6626v-18.075a5.66865,5.66865,0,0,1,5.6626-5.6626h26.093A5.66865,5.66865,0,0,1,45.43506,31.99841Z"/><circle class="cls-1" cx="56.12741" cy="33.01768" r="2.67278"/><circle class="cls-1" cx="56.12741" cy="43.70862" r="2.67276"/><path class="cls-1" d="M31.00171,32.49274a5.30715,5.30715,0,0,0-4.009,1.67914,5.25264,5.25264,0,0,0-9.31177,3.17194c-.12964,4.32025,7.13379,13.28613,8.811,13.33643a1.41466,1.41466,0,0,0,.33472-.03418c1.51733-.35779,9.12939-8.25067,9.26514-12.74542A5.25876,5.25876,0,0,0,31.00171,32.49274Zm-4.43115,15.579c-1.72571-1.66492-6.63208-7.68738-6.54309-10.65637a2.90163,2.90163,0,0,1,5.73914-.51593,1.17391,1.17391,0,0,0,2.28.069,2.90229,2.90229,0,0,1,5.69873.86115C33.65515,40.799,28.39417,46.51459,26.57056,48.07178Z"/></svg>