<svg id="Layer_1" data-name="Layer 1" xmlns="http://www.w3.org/2000/svg" viewBox="0 0 103.79921 118.8233"><defs><style>.cls-1{fill:#41494e;}</style></defs><title>BettingLine</title><path class="cls-1" d="M59.52187,74.83112a7.83991,7.83991,0,0,0-4.628,1.43359L50.82845,79.2041C44.65468,78.084,38.20937,72.77051,33.723,64.99713c-4.49213-7.77148-5.875-16.00879-3.76068-21.916l4.57617-2.05182c4.8457-2.17865,6.37793-8.6709,4.31543-18.28027C37.1664,14.88092,31.50038,0,22.1332,0a8.27,8.27,0,0,0-2.55573.40631l-7.07611,2.292a16.78841,16.78841,0,0,0-11.24121,12.541C-2.4918,33.2901,2.225,55.53625,14.20155,76.27051c11.9765,20.73639,28.88861,35.93854,46.40234,41.709a16.76269,16.76269,0,0,0,16.47748-3.4707l5.52252-4.98633c1.76758-1.59277,4.332-5.31842,1.62988-12.3526C80.84609,88.35065,68.42806,74.834,59.52187,74.83112Zm20.40228,31.7226-5.52338,4.98444a12.76014,12.76014,0,0,1-12.54492,2.64258C44.42024,108.43561,28.40657,92.86725,17.6664,74.27051,6.92415,55.6748,1.44179,34.02441,5.17806,16.0498a12.76681,12.76681,0,0,1,8.5567-9.5459L20.81288,4.211A4.249,4.249,0,0,1,22.1332,4C31.36757,4,40.516,33.95514,32.90175,37.37994L26.8832,40.07721c-3.67383,7.7168-1.666,18.1972,3.375,26.91992,5.037,8.72662,13.11127,15.70117,21.63281,16.375l5.34375-3.86328a3.80144,3.80144,0,0,1,2.2851-.67773C68.26405,78.834,86.77187,100.37994,79.92415,106.55371Z"/><path class="cls-1" d="M71.935,29.56354a19.667,19.667,0,1,0,19.667,19.667A19.68866,19.68866,0,0,0,71.935,29.56354Zm0,35.334a15.667,15.667,0,1,1,15.667-15.667A15.68408,15.68408,0,0,1,71.935,64.89752Z"/><path class="cls-1" d="M56.233,31.59955a15.49439,15.49439,0,0,1-1.216-5.98328A15.656,15.656,0,0,1,81.69856,14.49109a23.419,23.419,0,0,1,5.21869.04456A19.65144,19.65144,0,0,0,53.28584,34.75452,23.75,23.75,0,0,1,56.233,31.59955Z"/><path class="cls-1" d="M84.13222,18.31354a19.62525,19.62525,0,0,0-15.44409,7.53094,23.50674,23.50674,0,0,1,5.6897-.10236A15.64466,15.64466,0,0,1,95.53566,48.69c.00409.18036.01367.35931.01367.54065a23.67878,23.67878,0,0,1-.56714,5.13788,19.657,19.657,0,0,0-10.85-36.055Z"/></svg>