<svg id="Layer_1" data-name="Layer 1" xmlns="http://www.w3.org/2000/svg" viewBox="0 0 34.32275 33.57654"><defs><style>.cls-1{fill:#41494e;}</style></defs><title>ContactHelp</title><path class="cls-1" d="M34.30347,32.9516a.67375.67375,0,0,0,.01929-.09528V12.76794a.7191.7191,0,0,0-.29443-.58057L17.5874.13953a.71942.71942,0,0,0-.85156,0L.29443,12.18738A.7191.7191,0,0,0,0,12.76794V32.85632a.67891.67891,0,0,0,.01935.09564.69123.69123,0,0,0,.029.14368.69159.69159,0,0,0,.07043.13306.6693.6693,0,0,0,.04431.08368c.00769.0094.019.01324.0271.02216a.70582.70582,0,0,0,.118.09644.71354.71354,0,0,0,.10547.07117.7115.7115,0,0,0,.12677.03809.70621.70621,0,0,0,.14447.02917c.01239.00061.02283.00714.03534.00714H33.60254a.711.711,0,0,0,.29169-.06439.72162.72162,0,0,0,.06183-.04169.71025.71025,0,0,0,.1781-.13824c.00745-.0083.01837-.01111.02551-.01984a.68016.68016,0,0,0,.04437-.08386.51825.51825,0,0,0,.09943-.27692ZM1.44043,14.442l10.7157,8.11963L1.44043,31.336ZM17.16162,20.3241l14.42493,11.812H2.73621Zm5.005,2.23718,10.7157-8.11938V31.336Zm-5.005-20.94861,15.3866,11.27563L21.02057,21.62286,17.61768,18.8363a.72087.72087,0,0,0-.91211,0l-3.40344,2.78687L1.77454,12.88831Z"/></svg>