<svg id="Layer_1" data-name="Layer 1" xmlns="http://www.w3.org/2000/svg" viewBox="0 0 110.59999 118.8233"><defs><style>.cls-1{fill:#41494e;}</style></defs><title>Support</title><path class="cls-1" d="M59.52187,74.83112a7.83991,7.83991,0,0,0-4.628,1.43359L50.82845,79.2041C44.65468,78.084,38.20937,72.77051,33.723,64.99713c-4.49213-7.77148-5.875-16.00879-3.76068-21.916l4.57617-2.05182c4.8457-2.17865,6.37793-8.6709,4.31543-18.28027C37.1664,14.88092,31.50038,0,22.1332,0a8.27,8.27,0,0,0-2.55573.40631l-7.07611,2.292a16.78841,16.78841,0,0,0-11.24121,12.541C-2.4918,33.2901,2.225,55.53625,14.20155,76.27051c11.9765,20.73639,28.88861,35.93854,46.40234,41.709a16.76269,16.76269,0,0,0,16.47748-3.4707l5.52252-4.98633c1.76758-1.59277,4.332-5.31842,1.62988-12.3526C80.84609,88.35065,68.42806,74.834,59.52187,74.83112Zm20.40228,31.7226-5.52338,4.98444a12.76014,12.76014,0,0,1-12.54492,2.64258C44.42024,108.43561,28.40657,92.86725,17.6664,74.27051,6.92415,55.6748,1.44179,34.02441,5.17806,16.0498a12.76681,12.76681,0,0,1,8.5567-9.5459L20.81288,4.211A4.249,4.249,0,0,1,22.1332,4C31.36757,4,40.516,33.95514,32.90175,37.37994L26.8832,40.07721c-3.67383,7.7168-1.666,18.1972,3.375,26.91992,5.037,8.72662,13.11127,15.70117,21.63281,16.375l5.34375-3.86328a3.80144,3.80144,0,0,1,2.2851-.67773C68.26405,78.834,86.77187,100.37994,79.92415,106.55371Z"/><path class="cls-1" d="M101.34407,15.709H57.35585A9.2657,9.2657,0,0,0,48.1,24.96393V47.1543a9.27239,9.27239,0,0,0,6.92578,8.958V61.2959a4.77673,4.77673,0,0,0,2.67767,4.30963,4.80761,4.80761,0,0,0,5.03522-.47852L74.262,56.40924h27.082A9.26581,9.26581,0,0,0,110.6,47.1543V24.96393A9.26575,9.26575,0,0,0,101.34407,15.709ZM106.6,47.1543a5.25492,5.25492,0,0,1-5.25592,5.25494H72.91927l-12.5976,9.53027a.80858.80858,0,0,1-1.2959-.64362V52.40924H57.35585A5.25487,5.25487,0,0,1,52.1,47.1543V24.96393A5.25423,5.25423,0,0,1,57.35585,19.709h43.98822A5.25428,5.25428,0,0,1,106.6,24.96393Z"/><path class="cls-1" d="M64.73567,29.64655a6.4126,6.4126,0,1,0,6.41119,6.41309A6.42037,6.42037,0,0,0,64.73567,29.64655Zm0,8.8252a2.4126,2.4126,0,1,1,2.41119-2.41211A2.41562,2.41562,0,0,1,64.73567,38.47174Z"/><path class="cls-1" d="M93.96517,29.64655a6.4126,6.4126,0,1,0,6.41022,6.41309A6.41962,6.41962,0,0,0,93.96517,29.64655Zm0,8.8252a2.4126,2.4126,0,1,1,2.41022-2.41211A2.41483,2.41483,0,0,1,93.96517,38.47174Z"/><path class="cls-1" d="M79.35,29.64655a6.4126,6.4126,0,1,0,6.412,6.41309A6.42017,6.42017,0,0,0,79.35,29.64655Zm0,8.8252a2.4126,2.4126,0,1,1,2.412-2.41211A2.41476,2.41476,0,0,1,79.35,38.47174Z"/></svg>