<svg id="Layer_1" data-name="Layer 1" xmlns="http://www.w3.org/2000/svg" viewBox="0 0 63.06 74.26"><defs><style>.cls-1{fill:#41494f}</style></defs><title>ICNRooms</title><path class="cls-1" d="M32.23 40.63h4.21v2.81h-4.21z"/><path class="cls-1" d="M57.45 71.47V1.4a1.35 1.35 0 0 0-.1-.49.45.45 0 0 0 0-.08 1.33 1.33 0 0 0-.26-.38L57 .38l-.13-.11a1.5 1.5 0 0 0-.26-.15A1.35 1.35 0 0 0 56.1 0H8.41A1.4 1.4 0 0 0 7 1.4v70.07H0v2.8h63.06v-2.8zm-28-5.36V11.53l25.22-8.2v67.83zM9.81 2.81H47.2L27.59 9.17a1.4 1.4 0 0 0-1 1.33v56.76a1.4 1.4 0 0 0 1.13 1.38l14.18 2.83H9.81zm0 0"/></svg>