<svg id="Layer_1" data-name="Layer 1" xmlns="http://www.w3.org/2000/svg" viewBox="0 0 12.38577 20.02002"><defs><style>.cls-1{fill:#41494e}</style></defs><title>Scratchcards</title><path class="cls-1" d="M2.302 20.02h8.27v-2.58h-8.27zm.83-1.75h6.6v.91h-6.6zM12.282 5.37a1.889 1.889 0 0 0-1.01-1.1l-1.633-.73a4.05 4.05 0 1 0-7.794 1.963L.372 8.07a1.957 1.957 0 0 0-.28 1.74l2.33 6.72h7.99l.11-.24c1.453-2.914-.426-7.214-1.494-9.242a7.334 7.334 0 0 0 1.944.362 1.254 1.254 0 0 0 1.2-.55 1.887 1.887 0 0 0 .11-1.49zM5.622.84a3.224 3.224 0 0 1 3.22 3.22 3.276 3.276 0 0 1-.097.776l-.022.082a3.191 3.191 0 0 1-.267.677l-.014.029a3.153 3.153 0 0 1-.396.546l-.074.08a2.998 2.998 0 0 1-.528.452l-.015.013c-.02.014-.046.021-.067.035V5.32a1.74 1.74 0 0 0-3.48 0v1.44c-.072-.046-.135-.106-.203-.158a3.19 3.19 0 0 1-.306-.255 3.277 3.277 0 0 1-.256-.294 3.18 3.18 0 0 1-.186-.255 3.135 3.135 0 0 1-.192-.337A3.194 3.194 0 0 1 5.622.84zm4.25 14.85h-6.87L.882 9.55a1.115 1.115 0 0 1 .17-1l1.25-2.169a3.994 3.994 0 0 0 .551.623c.062.058.121.118.187.173.055.045.114.085.172.128a4.036 4.036 0 0 0 .334.227l.107.06c.076.042.15.09.229.128v2.89h.84V7.16l-.01-.004V5.32a.91.91 0 0 1 1.82 0v5.29h.83v-2.9a4.085 4.085 0 0 0 .808-.485c.854 1.58 2.829 5.753 1.702 8.465zm1.55-9.22c-.01.03-.12.1-.45.1a7.026 7.026 0 0 1-1.892-.378 4.013 4.013 0 0 0 .582-1.732l1.27.57a1.034 1.034 0 0 1 .55.61 1.004 1.004 0 0 1-.06.83z"/></svg>