<svg id="Layer_1" data-name="Layer 1" xmlns="http://www.w3.org/2000/svg" viewBox="0 0 84.42 78.12"><defs><style>.cls-1{fill:#41494f}</style></defs><title>ICNSlots-Games</title><path class="cls-1" d="M77.06 37.56a7.35 7.35 0 1 1 7.35-7.35 7.36 7.36 0 0 1-7.35 7.35zm0-11.58a4.23 4.23 0 1 0 4.23 4.23A4.23 4.23 0 0 0 77.06 26zM16 78.12A10.87 10.87 0 0 1 5.13 67.26v-3.6a1.56 1.56 0 0 1 3.13 0v3.6A7.74 7.74 0 0 0 16 75h41.5a7.74 7.74 0 0 0 7.73-7.73v-27.5a1.56 1.56 0 1 1 3.13 0v27.49A10.87 10.87 0 0 1 57.5 78.12zm-9.31-49.3a1.56 1.56 0 0 1-1.56-1.56v-7.63a10.84 10.84 0 0 1 8.29-10.55l.92-.22V5.62A5.63 5.63 0 0 1 20 0h33.53a5.63 5.63 0 0 1 5.62 5.62v3.24l.92.22a10.83 10.83 0 0 1 8.29 10.54v.42a1.56 1.56 0 1 1-3.12 0v-.42a7.76 7.76 0 0 0-7.65-7.73H15.91a7.76 7.76 0 0 0-7.66 7.73v7.63a1.56 1.56 0 0 1-1.56 1.57zM20 3.13a2.5 2.5 0 0 0-2.5 2.5v3.15H56V5.62a2.5 2.5 0 0 0-2.5-2.5z"/><path class="cls-1" d="M69.7 59.43a1.56 1.56 0 0 1 0-3.12 5.81 5.81 0 0 0 5.8-5.8V36a1.56 1.56 0 0 1 3.13 0v14.5a8.94 8.94 0 0 1-8.93 8.93zM12.41 47.58a1.13 1.13 0 0 1-.81-.33 1.14 1.14 0 0 1 0-1.62l11.28-11.27A1.14 1.14 0 1 1 24.49 36L13.22 47.25a1.13 1.13 0 0 1-.81.33zM23.69 47.58a1.14 1.14 0 0 1-.81-1.95l11.27-11.27A1.14 1.14 0 1 1 35.77 36L24.49 47.25a1.13 1.13 0 0 1-.8.33z"/><path class="cls-1" d="M23.69 70.13a1.14 1.14 0 0 1-.81-.33L.33 47.25a1.14 1.14 0 0 1 0-1.61l11.28-11.28a1.13 1.13 0 0 1 .81-.33H35a1.13 1.13 0 0 1 .81.33L47 45.63a1.14 1.14 0 0 1 0 1.61L24.49 69.79a1.14 1.14 0 0 1-.8.34zm0-2.76l20.93-20.93-10.13-10.13h-21.6L2.76 46.44zM51.31 64.8a6.93 6.93 0 1 1 6.93-6.93 6.94 6.94 0 0 1-6.93 6.93zm0-11.58A4.65 4.65 0 1 0 56 57.86a4.65 4.65 0 0 0-4.69-4.64zM55.47 42.77a1.14 1.14 0 0 1-.26-2.25l.54-.13V21H17.84l-.13.54a1.14 1.14 0 0 1-2.25-.27A2.56 2.56 0 0 1 18 18.71h37.47A2.56 2.56 0 0 1 58 21.26v19a2.56 2.56 0 0 1-2.53 2.51z"/><path class="cls-1" d="M30 29.1a1.14 1.14 0 0 1-1.17-1.1v-7.16a1.14 1.14 0 1 1 2.28 0V28A1.14 1.14 0 0 1 30 29.1zM43.51 29.1a1.14 1.14 0 0 1-1.14-1.1v-7.16a1.14 1.14 0 0 1 2.28 0V28a1.14 1.14 0 0 1-1.14 1.1z"/></svg>