<svg id="Layer_1" data-name="Layer 1" xmlns="http://www.w3.org/2000/svg" viewBox="0 0 58.84473 70.91992"><defs><style>.cls-1{fill:#41494f}</style></defs><title>Baccarat</title><path class="cls-1" d="M56.345 22.64H23.63a2.502 2.502 0 0 0-2.5 2.5v43.28a2.502 2.502 0 0 0 2.5 2.5h32.715a2.502 2.502 0 0 0 2.5-2.5V25.14a2.502 2.502 0 0 0-2.5-2.5zm-.5 45.28H24.13V25.64h31.715z"/><path class="cls-1" d="M3.009 3l31.705.01v16.602h3V3.01A3.013 3.013 0 0 0 34.705 0H3.01A3.013 3.013 0 0 0 0 3.01v43.77a3.012 3.012 0 0 0 3.009 3.01h15.094v-3L3 46.78zM44.1 55.884l-.37-.093a16.166 16.166 0 0 0-3.743-.613 16.166 16.166 0 0 0-3.742.613l-.37.093a1.5 1.5 0 0 0 .678 2.922l.432-.108a14.07 14.07 0 0 1 3.002-.52 14.07 14.07 0 0 1 3.002.52l.433.108a1.5 1.5 0 1 0 .678-2.922zM33.747 53.52a6.997 6.997 0 0 0 2.91.546 7.87 7.87 0 0 0 3.33-.675 8.287 8.287 0 0 0 6.24.13 6.142 6.142 0 0 0 3.561-5.87c0-3.124-2.83-5.384-5.327-7.379-1.312-1.046-2.797-2.233-3.045-3.006a1.5 1.5 0 0 0-2.856-.001c-.25.774-1.736 1.96-3.046 3.007-2.497 1.995-5.328 4.255-5.328 7.38a6.143 6.143 0 0 0 3.561 5.869zm3.639-10.904a27.413 27.413 0 0 0 2.601-2.253 27.436 27.436 0 0 0 2.602 2.254c1.968 1.572 4.2 3.354 4.2 5.034a3.158 3.158 0 0 1-1.884 3.176c-.781.383-3.17.346-3.91-.323a1.5 1.5 0 0 0-2.015 0c-.74.668-3.128.707-3.91.323a3.158 3.158 0 0 1-1.884-3.176c0-1.68 2.231-3.463 4.2-5.035z"/><path class="cls-1" d="M10.546 34.903V14.887a6.054 6.054 0 0 0 4.34-4.34h7.942a6.055 6.055 0 0 0 4.339 4.34v4.725h3v-7.537h-1.5a3.031 3.031 0 0 1-3.027-3.028v-1.5H12.074v1.5a3.032 3.032 0 0 1-3.028 3.028h-1.5v25.64h1.5a3.032 3.032 0 0 1 3.028 3.028v1.5h6.029v-3h-3.217a6.054 6.054 0 0 0-4.34-4.34zM6.037 6.028h3v3.019h-3zM6.037 40.743h3v3.019h-3zM28.677 6.028h3v3.019h-3z"/></svg>