<svg id="Layer_1" data-name="Layer 1" xmlns="http://www.w3.org/2000/svg" viewBox="0 0 61.33301 67.16699"><defs><style>.cls-1{fill:#41494f}</style></defs><title>Blackjack</title><path class="cls-1" d="M44.023 13.211c-5.508-4.337-10.712-8.434-11.93-12.175a1.5 1.5 0 0 0-2.853 0c-1.218 3.741-6.422 7.838-11.93 12.175C9.196 19.6 0 26.841 0 35.893c0 7.946 3.502 13.672 10.41 17.018a18.782 18.782 0 0 0 15.446-.223 10.313 10.313 0 0 1-7.141 7.131A1.5 1.5 0 0 0 17.5 61.27c-.005.39.002 3.855 1.988 5.54a1.501 1.501 0 0 0 1.306.319c.299-.068.616-.146.953-.227a35.162 35.162 0 0 1 8.92-1.194 35.163 35.163 0 0 1 8.92 1.194c.337.081.653.159.952.227a1.5 1.5 0 0 0 1.307-.318c1.986-1.686 1.993-5.152 1.987-5.541a1.5 1.5 0 0 0-1.215-1.45 10.311 10.311 0 0 1-7.14-7.132 18.784 18.784 0 0 0 15.445.223c6.907-3.346 10.41-9.072 10.41-17.018 0-9.053-9.196-16.293-17.31-22.682zm5.591 37c-3.476 1.685-10.83 2.047-15.031-1.705a1.5 1.5 0 0 0-2.5 1.119 13.476 13.476 0 0 0 8.668 12.766 5.476 5.476 0 0 1-.451 1.597l-.007-.002a36.9 36.9 0 0 0-19.253 0l-.006.002a5.465 5.465 0 0 1-.451-1.597 13.476 13.476 0 0 0 8.667-12.766 1.5 1.5 0 0 0-2.499-1.119c-4.202 3.751-11.555 3.39-15.033 1.705C5.852 47.37 3 42.686 3 35.893c0-7.597 8.588-14.358 16.166-20.324 4.655-3.666 9.106-7.17 11.5-10.759 2.395 3.588 6.846 7.093 11.502 10.759 7.577 5.966 16.165 12.727 16.165 20.324 0 6.793-2.852 11.477-8.719 14.318z"/><path class="cls-1" d="M28.675 10.475c-.136.152-.316.366-.532.624a24.07 24.07 0 0 1-3.574 3.632L9.527 27.473c-.026.022-.05.045-.076.069-1.88 1.825-3.726 5.01-3.62 7.563a1.5 1.5 0 0 0 1.498 1.437l.064-.001a1.5 1.5 0 0 0 1.436-1.561c-.059-1.394 1.14-3.741 2.678-5.252l14.942-12.66a26.426 26.426 0 0 0 3.993-4.043c.19-.226.347-.413.466-.546a1.5 1.5 0 1 0-2.233-2.004z"/></svg>