<svg id="Layer_1" data-name="Layer 1" xmlns="http://www.w3.org/2000/svg" viewBox="0 0 66.78 61.55"><defs><style>.cls-1{fill:#41494f}</style></defs><title>ICNDownload</title><path class="cls-1" d="M66.78 49.07A12.39 12.39 0 0 1 54.5 61.55H12.27A12.39 12.39 0 0 1 0 49.07V31a1.74 1.74 0 0 1 1.72-1.75A1.72 1.72 0 0 1 3.45 31v18.07a8.91 8.91 0 0 0 8.83 9H54.5a8.91 8.91 0 0 0 8.82-9v-17.8a1.72 1.72 0 1 1 3.45 0z"/><path class="cls-1" d="M21 33.71a1.77 1.77 0 0 1 .51-1.23 1.7 1.7 0 0 1 2.44 0l9.3 9.44V1.75A1.74 1.74 0 0 1 35 0a1.72 1.72 0 0 1 1.72 1.75v40.17L46 32.47a1.71 1.71 0 0 1 2.44 0 1.77 1.77 0 0 1 0 2.48L36.23 47.38a1.67 1.67 0 0 1-1.2.51 1.74 1.74 0 0 1-1.25-.53L21.54 34.94a1.72 1.72 0 0 1-.54-1.23z"/></svg>