<svg id="Layer_1" data-name="Layer 1" xmlns="http://www.w3.org/2000/svg" viewBox="0 0 55.45801 40.31592"><defs><style>.cls-1{fill:#41494f}</style></defs><title>HiLo</title><path class="cls-1" d="M9.699 18.232h3.65V2.047h-3.65v6.219H3.674V2.047H0v16.185h3.674v-6.771h6.025v6.771zM16.552 2.047h3.674v16.184h-3.674zM32.955 21.693h-3.674v16.184h10.108v-3.073h-6.434V21.693zM47.774 21.429c-4.778 0-7.875 3.627-7.875 8.477 0 4.61 2.81 8.235 7.612 8.235 4.729 0 7.947-3.218 7.947-8.524 0-4.466-2.714-8.188-7.684-8.188zm-.072 13.807c-2.448 0-3.937-2.233-3.937-5.402 0-3.146 1.44-5.5 3.914-5.5 2.52 0 3.914 2.499 3.914 5.404 0 3.146-1.418 5.498-3.89 5.498zM38.416 0L7.878 38.74l2.664 1.576L41.077 1.575 38.416 0z"/></svg>