<svg id="Layer_1" data-name="Layer 1" xmlns="http://www.w3.org/2000/svg" viewBox="0 0 59.75104 63.9292"><defs><style>.cls-1{fill:#41494f}</style></defs><title>Holdem</title><path class="cls-1" d="M44.681 24.058a17.725 17.725 0 0 0-2 .114 20.283 20.283 0 0 0 2.266-9.102 15.071 15.071 0 0 0-30.143 0 17.681 17.681 0 0 0 2.6 8.86 15.072 15.072 0 1 0-2.333 29.961 19.314 19.314 0 0 0 8.934-2.315 43.395 43.395 0 0 1-5.353 8.017l-.351.42v3.916h23.458v-3.918l-.351-.418a43.425 43.425 0 0 1-5.221-7.765A17.578 17.578 0 0 0 44.68 54.2a15.07 15.07 0 0 0 0-30.142zm-6.06 36.871H21.44a45.615 45.615 0 0 0 7.58-13.372l1.014-2.822.972 2.724a45.596 45.596 0 0 0 7.614 13.47zm6.06-9.73a16.032 16.032 0 0 1-11.156-5.257l-2.818-3.08-.542-.591-.74.76-2.892 2.973a16.789 16.789 0 0 1-11.462 4.887 12.07 12.07 0 1 1 0-24.141 14.646 14.646 0 0 1 5.633 1.218l6.665 2.82-4.995-5.237a16.038 16.038 0 0 1-4.57-10.481 12.071 12.071 0 0 1 24.143 0 17.214 17.214 0 0 1-3.632 10.377l-3.044 3.829 4.668-1.464a15.852 15.852 0 0 1 4.742-.754 12.07 12.07 0 0 1 0 24.142z"/></svg>