<svg id="Layer_1" data-name="Layer 1" xmlns="http://www.w3.org/2000/svg" viewBox="0 0 48 30"><defs><style>.cls-1{fill:#222323}.cls-2{fill:url(#radial-gradient)}.cls-3{fill:url(#radial-gradient-2)}.cls-4{fill:#e73a1f}.cls-5{fill:#f28c1c}.cls-6{fill:#e94290}.cls-7{fill:#8abe29}.cls-8{fill:#f5e83c}.cls-9{fill:#4c99d4}.cls-10{fill:#3a57a4}.cls-11{fill:#fff}</style><radialGradient id="radial-gradient" cx="26.881" cy="13.324" r="6.942" gradientUnits="userSpaceOnUse"><stop offset=".006" stop-color="#8f4a97"/><stop offset=".382" stop-color="#8d4995"/><stop offset=".567" stop-color="#85458f"/><stop offset=".71" stop-color="#783f84"/><stop offset=".832" stop-color="#653674"/><stop offset=".939" stop-color="#4e2a61"/><stop offset="1" stop-color="#3c2252"/></radialGradient><radialGradient id="radial-gradient-2" cx="27.348" cy="14.067" r="11.651" gradientUnits="userSpaceOnUse"><stop offset=".006" stop-color="#e94290"/><stop offset=".314" stop-color="#e7418e"/><stop offset=".466" stop-color="#df3f89"/><stop offset=".584" stop-color="#d23a7f"/><stop offset=".684" stop-color="#bf3472"/><stop offset=".773" stop-color="#a72c60"/><stop offset=".854" stop-color="#89224a"/><stop offset=".927" stop-color="#671731"/><stop offset=".996" stop-color="#3f0a14"/><stop offset="1" stop-color="#3c0912"/></radialGradient></defs><title>CardConnect</title><rect class="cls-1" width="48" height="30" rx="4" ry="4"/><path class="cls-2" d="M30.84 7.945a10.9 10.9 0 0 0-11.269.86 10.358 10.358 0 0 1 13.681 11.073A10.372 10.372 0 0 0 30.84 7.945z"/><path class="cls-3" d="M25.82 25.248a10.636 10.636 0 0 0 7.996-13.514 10.624 10.624 0 0 1-8.46 10.352A10.45 10.45 0 0 1 13.26 14.88a10.66 10.66 0 0 0 .204 2.121 10.455 10.455 0 0 0 12.358 8.246z"/><path class="cls-4" d="M29.543 5.643a10.894 10.894 0 0 0-11.13.026 11.044 11.044 0 0 0-.921.615 10.903 10.903 0 0 1 14.464 9.477 10.915 10.915 0 0 0-2.413-10.118z"/><path class="cls-5" d="M33.355 9.441a10.846 10.846 0 0 1 1.542 5.556 10.882 10.882 0 0 0-4.49-8.82 11.056 11.056 0 0 0-.928-.605l.064.07a10.848 10.848 0 0 1 3.813 3.799z"/><path class="cls-6" d="M34.866 15.82c.009-.125.016-.25.02-.376l.003-.042c.005-.135.008-.27.007-.405a10.907 10.907 0 0 0-5.353-9.354 10.915 10.915 0 0 1 2.413 10.118 10.904 10.904 0 0 1-4.275 9.487l-.087.067a10.912 10.912 0 0 0 7.27-9.47z"/><path class="cls-5" d="M18.631 24.476l-.094-.055zM31.956 15.76a10.908 10.908 0 0 1-9.773 8.035A10.886 10.886 0 0 0 27.995 25a10.908 10.908 0 0 0 3.961-9.24z"/><path class="cls-7" d="M18.537 24.421l-.063-.037zM22.183 23.795a10.897 10.897 0 0 1 .552-19.599 10.902 10.902 0 0 0-6.744 18.169 10.85 10.85 0 0 0 6.192 1.43z"/><path class="cls-8" d="M27.995 25.001a10.886 10.886 0 0 1-5.812-1.206 10.85 10.85 0 0 1-6.192-1.43 10.898 10.898 0 0 0 2.483 2.02l.063.036c.03.019.063.037.094.055a10.869 10.869 0 0 0 8.86.878 11.043 11.043 0 0 0 1.03-.403q-.263.032-.526.05z"/><path class="cls-9" d="M13.557 14.28A10.362 10.362 0 0 1 26.161 5.48a10.307 10.307 0 0 1 4.679 2.464 10.821 10.821 0 0 1 2.897 2.136 10.898 10.898 0 1 0-18.29 11.652c.232.293.484.576.738.838A10.905 10.905 0 0 1 19.16 9.114q.202-.16.41-.31a10.367 10.367 0 0 0-6.014 5.475z"/><path class="cls-10" d="M30.84 7.945a10.358 10.358 0 0 0-17.098 5.298 10.455 10.455 0 0 0-.185 1.036 10.367 10.367 0 0 1 6.014-5.474 10.9 10.9 0 0 1 11.269-.86z"/><path class="cls-11" d="M11.507 18.196a3.618 3.618 0 0 1-.92-.104 1.48 1.48 0 0 1-.69-.393 1.682 1.682 0 0 1-.405-.743 4.243 4.243 0 0 1-.123-1.115v-.51a4.122 4.122 0 0 1 .128-1.117 1.71 1.71 0 0 1 .405-.737 1.472 1.472 0 0 1 .69-.388 3.639 3.639 0 0 1 .915-.104 2.386 2.386 0 0 1 1.477.385 1.591 1.591 0 0 1 .51 1.328.145.145 0 0 1-.146.145h-.736a.145.145 0 0 1-.146-.145 1.32 1.32 0 0 0-.05-.39.495.495 0 0 0-.142-.229.645.645 0 0 0-.274-.132 2.537 2.537 0 0 0-1.045.013.587.587 0 0 0-.313.197.994.994 0 0 0-.183.42 3.664 3.664 0 0 0-.063.753v.51a3.742 3.742 0 0 0 .063.758 1.004 1.004 0 0 0 .183.425.588.588 0 0 0 .313.197 2.551 2.551 0 0 0 1.045.014.64.64 0 0 0 .274-.133.488.488 0 0 0 .142-.228 1.356 1.356 0 0 0 .05-.4.146.146 0 0 1 .146-.145h.736a.146.146 0 0 1 .146.145 1.603 1.603 0 0 1-.51 1.338 2.387 2.387 0 0 1-1.477.385zM15.903 18.196a3.55 3.55 0 0 1-.936-.11 1.449 1.449 0 0 1-.686-.399 1.693 1.693 0 0 1-.388-.742 4.366 4.366 0 0 1-.119-1.105v-.51a4.18 4.18 0 0 1 .123-1.096 1.742 1.742 0 0 1 .394-.74 1.456 1.456 0 0 1 .685-.4 4.01 4.01 0 0 1 1.858 0 1.489 1.489 0 0 1 .684.398 1.719 1.719 0 0 1 .4.742 4.184 4.184 0 0 1 .122 1.096v.51a4.223 4.223 0 0 1-.123 1.106 1.738 1.738 0 0 1-.393.742 1.451 1.451 0 0 1-.685.398 3.554 3.554 0 0 1-.936.11zm0-4.297a2.016 2.016 0 0 0-.559.065.602.602 0 0 0-.31.198.967.967 0 0 0-.174.418 3.953 3.953 0 0 0-.059.75v.51a4.017 4.017 0 0 0 .059.76.965.965 0 0 0 .173.42.6.6 0 0 0 .311.197 2.441 2.441 0 0 0 1.117 0 .629.629 0 0 0 .317-.2.93.93 0 0 0 .177-.417 4.042 4.042 0 0 0 .058-.76v-.51a3.987 3.987 0 0 0-.058-.75.931.931 0 0 0-.177-.417.628.628 0 0 0-.317-.199 2.02 2.02 0 0 0-.558-.065zM21.509 18.092a.145.145 0 0 1-.145-.145v-3.145a1.688 1.688 0 0 0-.056-.473.616.616 0 0 0-.143-.26.503.503 0 0 0-.239-.127 1.723 1.723 0 0 0-.408-.043 1.808 1.808 0 0 0-.625.114 2.032 2.032 0 0 0-.524.284v3.65a.145.145 0 0 1-.145.145h-.737a.145.145 0 0 1-.145-.145v-4.722a.145.145 0 0 1 .145-.146h.492a.144.144 0 0 1 .136.096l.104.282a3.005 3.005 0 0 1 .599-.32 2.443 2.443 0 0 1 .888-.152 2.68 2.68 0 0 1 .74.09 1.196 1.196 0 0 1 .542.319 1.353 1.353 0 0 1 .308.575 3.156 3.156 0 0 1 .095.833v3.145a.145.145 0 0 1-.145.145zM25.929 18.092a.145.145 0 0 1-.145-.145v-3.145a1.687 1.687 0 0 0-.056-.473.614.614 0 0 0-.143-.26.5.5 0 0 0-.24-.127 1.723 1.723 0 0 0-.408-.043 1.81 1.81 0 0 0-.625.114 2.022 2.022 0 0 0-.523.284v3.65a.145.145 0 0 1-.146.145h-.736a.145.145 0 0 1-.145-.145v-4.722a.145.145 0 0 1 .145-.146h.491a.145.145 0 0 1 .136.096l.105.282a2.98 2.98 0 0 1 .599-.32 2.445 2.445 0 0 1 .888-.152 2.683 2.683 0 0 1 .74.09 1.194 1.194 0 0 1 .541.319 1.353 1.353 0 0 1 .309.575 3.166 3.166 0 0 1 .095.833v3.145a.145.145 0 0 1-.146.145zM29.326 18.186a3.862 3.862 0 0 1-.923-.098 1.485 1.485 0 0 1-.695-.378 1.687 1.687 0 0 1-.415-.732 4.057 4.057 0 0 1-.134-1.137v-.51a4.121 4.121 0 0 1 .129-1.117 1.687 1.687 0 0 1 .41-.738 1.506 1.506 0 0 1 .684-.387 3.472 3.472 0 0 1 .897-.104 3.285 3.285 0 0 1 .874.104 1.467 1.467 0 0 1 .66.383 1.658 1.658 0 0 1 .395.733 4.235 4.235 0 0 1 .123 1.116v.548a.145.145 0 0 1-.145.145H28.19a3.413 3.413 0 0 0 .057.586.883.883 0 0 0 .18.407.657.657 0 0 0 .33.2 2.184 2.184 0 0 0 .58.065 6.557 6.557 0 0 0 .872-.05c.25-.035.496-.077.73-.126a.165.165 0 0 1 .031-.003.145.145 0 0 1 .145.145v.63a.145.145 0 0 1-.112.142 6.942 6.942 0 0 1-.752.127 7.99 7.99 0 0 1-.924.05zm.977-3.03a4.316 4.316 0 0 0-.044-.558 1.015 1.015 0 0 0-.15-.419.555.555 0 0 0-.284-.208 1.71 1.71 0 0 0-.546-.072 1.91 1.91 0 0 0-.557.069.604.604 0 0 0-.31.208.978.978 0 0 0-.17.417 3.465 3.465 0 0 0-.053.564zM33.75 18.196a3.617 3.617 0 0 1-.92-.104 1.484 1.484 0 0 1-.69-.393 1.685 1.685 0 0 1-.404-.743 4.26 4.26 0 0 1-.124-1.115v-.51a4.113 4.113 0 0 1 .129-1.117 1.71 1.71 0 0 1 .404-.737 1.472 1.472 0 0 1 .69-.388 3.634 3.634 0 0 1 .915-.104 2.386 2.386 0 0 1 1.478.385 1.593 1.593 0 0 1 .509 1.328.145.145 0 0 1-.146.145h-.736a.145.145 0 0 1-.146-.145 1.298 1.298 0 0 0-.05-.39.495.495 0 0 0-.141-.229.648.648 0 0 0-.275-.132 2.537 2.537 0 0 0-1.045.013.583.583 0 0 0-.312.197 1 1 0 0 0-.184.42 3.683 3.683 0 0 0-.062.753v.51a3.728 3.728 0 0 0 .063.758 1.004 1.004 0 0 0 .182.425.587.587 0 0 0 .313.197 2.551 2.551 0 0 0 1.045.014.643.643 0 0 0 .275-.133.49.49 0 0 0 .141-.228 1.334 1.334 0 0 0 .05-.4.146.146 0 0 1 .146-.145h.736a.145.145 0 0 1 .146.145 1.605 1.605 0 0 1-.51 1.338 2.387 2.387 0 0 1-1.477.385zM37.72 18.196a1.252 1.252 0 0 1-.971-.345 1.481 1.481 0 0 1-.307-1.019v-2.839h-.468a.145.145 0 0 1-.145-.145v-.51a.145.145 0 0 1 .119-.143l.494-.091v-1.031a.146.146 0 0 1 .122-.144l.736-.123.024-.002a.146.146 0 0 1 .146.146v1.13h.921a.145.145 0 0 1 .146.145v.623a.145.145 0 0 1-.146.145h-.921v2.856a.544.544 0 0 0 .086.337.364.364 0 0 0 .297.095 1.509 1.509 0 0 0 .318-.03l.284-.06a.145.145 0 0 1 .176.142v.615a.146.146 0 0 1-.1.138 2.117 2.117 0 0 1-.37.08 3.241 3.241 0 0 1-.44.03z"/></svg>