<svg id="Layer_1" data-name="Layer 1" xmlns="http://www.w3.org/2000/svg" viewBox="0 0 48 30"><defs><style>.cls-1{fill:#232856}.cls-2{fill:#cc1417}.cls-3{fill:#f49819}.cls-4{fill:#fff}</style></defs><title>CardMasterCard</title><rect class="cls-1" width="48" height="30" rx="4" ry="4"/><circle class="cls-2" cx="16.415" cy="15" r="11.299"/><path class="cls-3" d="M31.585 3.701a11.26 11.26 0 0 0-7.586 2.925 11.518 11.518 0 0 0-1.14 1.196h2.283a11.588 11.588 0 0 1 .861 1.197h-4.006a11.331 11.331 0 0 0-.65 1.196h5.307a11.248 11.248 0 0 1 .478 1.197h-6.264a11.203 11.203 0 0 0-.328 1.196h6.92a11.38 11.38 0 0 1-.328 5.982h-6.264a11.358 11.358 0 0 0 .478 1.196h5.308a11.326 11.326 0 0 1-.652 1.197h-4.005a11.421 11.421 0 0 0 .862 1.195h2.282A11.306 11.306 0 0 1 24 23.375a11.299 11.299 0 1 0 7.585-19.674z"/><path class="cls-3" d="M41.378 21.299a.365.365 0 1 1 .365.365.365.365 0 0 1-.365-.365zm.365.277a.277.277 0 1 0-.278-.277.278.278 0 0 0 .278.277zm-.05-.117h-.075v-.32h.136a.152.152 0 0 1 .082.015.1.1 0 0 1 .04.08.087.087 0 0 1-.055.083l.06.142h-.084l-.049-.127h-.055zm0-.182h.042a.097.097 0 0 0 .046-.006.044.044 0 0 0 .018-.037.042.042 0 0 0-.018-.033.102.102 0 0 0-.048-.006h-.04z"/><path class="cls-1" d="M13.777 16.237a2.107 2.107 0 0 0-.274-.019c-.695 0-1.047.239-1.047.71a.428.428 0 0 0 .44.474c.5 0 .86-.475.881-1.165zm.892 2.077h-1.016l.023-.483a1.54 1.54 0 0 1-1.286.564 1.146 1.146 0 0 1-1.12-1.273c0-1.136.793-1.797 2.153-1.797a4.202 4.202 0 0 1 .5.035 1.152 1.152 0 0 0 .048-.302c0-.308-.213-.424-.786-.424a4.095 4.095 0 0 0-1.299.21l.17-1.048a4.87 4.87 0 0 1 1.468-.247c1.054 0 1.612.473 1.61 1.367a5.97 5.97 0 0 1-.099.923c-.106.675-.335 2.123-.366 2.475zM10.757 18.314H9.53l.703-4.405-1.569 4.405h-.836l-.104-4.381-.738 4.381H5.838l.959-5.731h1.764l.106 3.208 1.076-3.208h1.962l-.948 5.731zM33.1 16.237a2.097 2.097 0 0 0-.272-.019c-.696 0-1.047.239-1.047.71a.427.427 0 0 0 .439.474c.5 0 .86-.475.88-1.165zm.893 2.077h-1.016l.023-.483a1.54 1.54 0 0 1-1.285.564 1.146 1.146 0 0 1-1.12-1.273c0-1.136.792-1.797 2.153-1.797a4.204 4.204 0 0 1 .5.035 1.143 1.143 0 0 0 .047-.302c0-.308-.213-.424-.786-.424a4.103 4.103 0 0 0-1.3.21c.014-.077.172-1.048.172-1.048a4.868 4.868 0 0 1 1.467-.247c1.054 0 1.612.473 1.61 1.367a5.925 5.925 0 0 1-.099.923c-.106.675-.335 2.123-.366 2.475zM20.12 18.243a2.805 2.805 0 0 1-.88.152.898.898 0 0 1-.97-1.024 10.746 10.746 0 0 1 .168-1.243c.071-.435.532-3.18.532-3.18h1.22l-.143.705h.736l-.166 1.12h-.739c-.141.887-.343 1.99-.346 2.137 0 .24.129.346.42.346a.997.997 0 0 0 .331-.044zM23.86 18.206a4.15 4.15 0 0 1-1.252.189 1.854 1.854 0 0 1-2.076-2.08c0-1.593.904-2.766 2.134-2.766a1.558 1.558 0 0 1 1.647 1.686 4.984 4.984 0 0 1-.15 1.147h-2.429c-.082.676.35.958 1.06.958a2.892 2.892 0 0 0 1.268-.293zm-.686-2.764c.007-.097.129-.832-.568-.832-.388 0-.666.296-.779.832zM15.405 15.127a1.36 1.36 0 0 0 .934 1.3c.497.235.574.304.574.515 0 .29-.22.422-.705.422a3.447 3.447 0 0 1-1.099-.184l-.168 1.077a5.72 5.72 0 0 0 1.276.138c1.294 0 1.892-.493 1.892-1.558a1.276 1.276 0 0 0-.865-1.3c-.514-.235-.573-.288-.573-.505 0-.252.204-.381.6-.381a6.774 6.774 0 0 1 .882.07l.174-1.081a8.276 8.276 0 0 0-1.08-.091c-1.371 0-1.846.717-1.842 1.578zM29.825 13.672a2.334 2.334 0 0 1 1.096.31l.2-1.244a3.604 3.604 0 0 0-1.347-.486 2.444 2.444 0 0 0-2.003 1.08c-.712-.236-1.005.24-1.364.715l-.319.075a2.384 2.384 0 0 0 .04-.469H25c-.153 1.443-.426 2.904-.64 4.347l-.055.314h1.227c.205-1.33.317-2.183.385-2.76l.462-.256c.07-.257.285-.344.719-.333a5.23 5.23 0 0 0-.088.955c0 1.525.824 2.474 2.144 2.474a3.832 3.832 0 0 0 1.085-.167l.215-1.306a2.387 2.387 0 0 1-1.042.294c-.713 0-1.145-.527-1.145-1.397 0-1.262.642-2.146 1.558-2.146zM40.21 12.583l-.273 1.656a1.533 1.533 0 0 0-1.17-.761 1.9 1.9 0 0 0-1.552 1.16 10.068 10.068 0 0 1-1.044-.288v.005a6.903 6.903 0 0 0 .054-.702h-1.127c-.153 1.443-.426 2.904-.64 4.347l-.056.314h1.228c.165-1.076.292-1.97.385-2.678.42-.38.63-.709 1.053-.687a3.995 3.995 0 0 0-.297 1.512c0 1.165.589 1.934 1.48 1.934a1.446 1.446 0 0 0 1.132-.515l-.058.434h1.16l.935-5.731zm-1.534 4.654c-.417 0-.629-.31-.629-.919 0-.916.395-1.565.952-1.565.421 0 .65.32.65.913 0 .924-.402 1.571-.973 1.571z"/><path class="cls-4" d="M11.109 17.974H9.883l.703-4.406-1.569 4.406h-.836l-.104-4.38-.738 4.38H6.191l.959-5.731h1.764l.049 3.548 1.19-3.548h1.905l-.949 5.731zM14.13 15.898a2.044 2.044 0 0 0-.274-.02c-.695 0-1.047.239-1.047.71a.429.429 0 0 0 .44.475c.5 0 .86-.476.881-1.165zm.892 2.076h-1.016l.023-.483a1.54 1.54 0 0 1-1.285.564 1.147 1.147 0 0 1-1.12-1.274c0-1.135.792-1.796 2.153-1.796a4.1 4.1 0 0 1 .5.036 1.15 1.15 0 0 0 .048-.303c0-.308-.214-.423-.787-.423a4.073 4.073 0 0 0-1.299.209l.17-1.048a4.89 4.89 0 0 1 1.469-.247c1.053 0 1.61.473 1.61 1.367a5.956 5.956 0 0 1-.1.923c-.106.675-.335 2.123-.366 2.475zM31.475 12.398l-.201 1.243a2.342 2.342 0 0 0-1.096-.31c-.916 0-1.558.886-1.558 2.148 0 .87.432 1.396 1.145 1.396a2.375 2.375 0 0 0 1.042-.294l-.216 1.306a3.825 3.825 0 0 1-1.084.168c-1.32 0-2.143-.95-2.143-2.475 0-2.048 1.137-3.48 2.762-3.48a4.245 4.245 0 0 1 1.349.298zM33.453 15.898a2.031 2.031 0 0 0-.273-.02c-.695 0-1.047.239-1.047.71a.429.429 0 0 0 .44.475c.5 0 .86-.476.88-1.165zm.893 2.076H33.33l.023-.483a1.54 1.54 0 0 1-1.285.564 1.147 1.147 0 0 1-1.12-1.274c0-1.135.791-1.796 2.153-1.796a4.09 4.09 0 0 1 .499.036 1.152 1.152 0 0 0 .048-.303c0-.308-.213-.423-.786-.423a4.078 4.078 0 0 0-1.299.209l.17-1.048a4.89 4.89 0 0 1 1.468-.247c1.054 0 1.612.473 1.61 1.367a5.908 5.908 0 0 1-.099.923c-.106.675-.334 2.123-.366 2.475zM20.474 17.903a2.803 2.803 0 0 1-.881.152.898.898 0 0 1-.97-1.024 10.802 10.802 0 0 1 .168-1.242c.071-.436.532-3.181.532-3.181h1.22l-.143.705h.626l-.167 1.12h-.628c-.141.887-.343 1.99-.346 2.137 0 .241.129.345.42.345a.982.982 0 0 0 .331-.043zM24.212 17.866a4.176 4.176 0 0 1-1.251.189 1.853 1.853 0 0 1-2.076-2.08c0-1.593.905-2.766 2.133-2.766a1.558 1.558 0 0 1 1.648 1.687 5.05 5.05 0 0 1-.15 1.146h-2.428c-.083.676.35.959 1.06.959a2.888 2.888 0 0 0 1.267-.294zm-.685-2.764c.007-.097.13-.832-.568-.832-.388 0-.665.297-.779.832zM15.758 14.787a1.36 1.36 0 0 0 .934 1.301c.497.234.574.303.574.515 0 .29-.22.421-.705.421a3.456 3.456 0 0 1-1.099-.183l-.168 1.075a5.682 5.682 0 0 0 1.276.139c1.294 0 1.892-.493 1.892-1.558a1.275 1.275 0 0 0-.865-1.298c-.514-.237-.573-.29-.573-.507 0-.252.204-.382.6-.382a6.817 6.817 0 0 1 .882.07l.175-1.08a8.346 8.346 0 0 0-1.08-.091c-1.372 0-1.847.717-1.843 1.578zM40.839 17.974h-1.16l.057-.434a1.445 1.445 0 0 1-1.131.515c-.892 0-1.481-.768-1.481-1.934 0-1.55.914-2.857 1.996-2.857a1.384 1.384 0 0 1 1.171.635l.272-1.656h1.21zm-1.81-1.077c.571 0 .973-.647.973-1.57 0-.593-.229-.914-.65-.914-.557 0-.952.65-.952 1.566 0 .61.212.918.629.918zM35.451 13.313c-.153 1.443-.426 2.904-.64 4.347l-.055.314h1.227c.438-2.85.544-3.407 1.232-3.337a4.573 4.573 0 0 1 .466-1.352c-.514-.107-.8.184-1.177.735a4.252 4.252 0 0 0 .074-.707zM25.354 13.313c-.154 1.443-.427 2.904-.64 4.347l-.056.314h1.227c.44-2.85.544-3.407 1.232-3.337a4.6 4.6 0 0 1 .466-1.352c-.513-.107-.8.184-1.176.735a4.213 4.213 0 0 0 .073-.707zM41.377 17.61a.365.365 0 1 1 .365.364.365.365 0 0 1-.365-.365zm.365.276a.277.277 0 1 0-.277-.277.278.278 0 0 0 .277.277zm-.05-.117h-.074v-.32h.136a.15.15 0 0 1 .081.016.095.095 0 0 1 .041.08.088.088 0 0 1-.055.083l.059.14h-.083l-.05-.126h-.054zm0-.182h.042a.092.092 0 0 0 .046-.006.044.044 0 0 0 .018-.037.043.043 0 0 0-.017-.033.106.106 0 0 0-.048-.005h-.04z"/></svg>