<svg id="Layer_1" data-name="Layer 1" xmlns="http://www.w3.org/2000/svg" viewBox="0 0 48 30"><defs><style>.cls-1{fill:#89be44}.cls-2{fill:#fff}.cls-3{fill:#16427c}</style></defs><title>CardEco</title><rect class="cls-1" width="48" height="30" rx="4" ry="4"/><path class="cls-2" d="M11.026 15.972c.049-3.605 4.99-6.462 11.038-6.381a14.877 14.877 0 0 1 8.228 2.353c-1.97-1.755-5.342-2.936-9.185-2.99-6.133-.08-11.144 2.751-11.19 6.325a4.999 4.999 0 0 0 2.133 3.883 5.687 5.687 0 0 1-1.024-3.19z"/><path class="cls-3" d="M21.601 16.298a1.003 1.003 0 0 1-.313.851 1.623 1.623 0 0 1-.972.237h-4.771a1.175 1.175 0 0 0 .71 1.083 3.025 3.025 0 0 0 1.403.3 4.015 4.015 0 0 0 1.548-.394 4.232 4.232 0 0 1 1.16-.392 1.072 1.072 0 0 1 .778.313 1.023 1.023 0 0 1 .323.755q0 1.008-1.626 1.572a7.686 7.686 0 0 1-2.523.424 4.522 4.522 0 0 1-3.338-1.273 4.331 4.331 0 0 1-1.28-3.207 4.262 4.262 0 0 1 1.33-3.15 4.483 4.483 0 0 1 3.288-1.315 4.124 4.124 0 0 1 3.056 1.241 4.062 4.062 0 0 1 1.227 2.955zm-2.656-.612a1.395 1.395 0 0 0-.555-1.018 1.678 1.678 0 0 0-2.306 0 1.329 1.329 0 0 0-.54 1.018zM29.42 19.333q0 .834-1.168 1.323a5.012 5.012 0 0 1-1.963.391 4.242 4.242 0 0 1-3.248-1.335 4.41 4.41 0 0 1-1.202-3.145 4.434 4.434 0 0 1 1.227-3.169 4.23 4.23 0 0 1 3.223-1.296 5.59 5.59 0 0 1 1.98.315q1.15.423 1.15 1.32a1.176 1.176 0 0 1-.304.802.992.992 0 0 1-.775.346 3.316 3.316 0 0 1-.928-.198 3.364 3.364 0 0 0-.96-.195 1.81 1.81 0 0 0-1.468.622 2.137 2.137 0 0 0-.49 1.453 2.289 2.289 0 0 0 .439 1.42 1.592 1.592 0 0 0 1.366.671 3.738 3.738 0 0 0 1.061-.213 3.792 3.792 0 0 1 .98-.212 1.005 1.005 0 0 1 .758.347 1.092 1.092 0 0 1 .321.753z"/><path class="cls-3" d="M38.084 16.567a4.417 4.417 0 0 1-1.203 3.145 4.62 4.62 0 0 1-6.497 0 4.41 4.41 0 0 1-1.2-3.145 4.406 4.406 0 0 1 1.2-3.145 4.657 4.657 0 0 1 6.497 0 4.413 4.413 0 0 1 1.203 3.145zm-2.658 0a2.295 2.295 0 0 0-.436-1.42 1.734 1.734 0 0 0-2.715 0 2.287 2.287 0 0 0-.436 1.42 2.352 2.352 0 0 0 .436 1.435 1.732 1.732 0 0 0 2.715 0 2.36 2.36 0 0 0 .436-1.435z"/></svg>