<svg id="Layer_1" data-name="Layer 1" xmlns="http://www.w3.org/2000/svg" viewBox="0 0 48.06249 30"><defs><style>.cls-1{fill:none}.cls-2{fill:#fff}.cls-3{clip-path:url(#clip-path)}.cls-4{fill:#ffa000}.cls-5{fill:#0023a0}</style><clipPath id="clip-path"><rect class="cls-1" width="48" height="30" rx="4" ry="4"/></clipPath></defs><title>CardVisa</title><path class="cls-2" d="M0 6.063h48.062v17.875H0z"/><g class="cls-3"><path class="cls-4" d="M.062 23.938h48V30h-48z"/></g><g class="cls-3"><path class="cls-5" d="M0 0h48v6.063H0z"/></g><path class="cls-5" d="M19.032 19.598l1.482-9.173h2.368l-1.481 9.173h-2.369M29.992 10.65a5.865 5.865 0 0 0-2.122-.384c-2.342 0-3.99 1.244-4.004 3.027-.015 1.318 1.176 2.054 2.074 2.492.923.45 1.233.737 1.23 1.138-.007.615-.737.896-1.418.896a4.753 4.753 0 0 1-2.23-.48l-.306-.147-.33 2.054a7.16 7.16 0 0 0 2.638.489c2.489 0 4.106-1.23 4.125-3.134.008-1.045-.623-1.838-1.99-2.492-.827-.426-1.335-.707-1.33-1.138.001-.381.43-.79 1.357-.79a4.162 4.162 0 0 1 1.773.353l.213.105.32-1.988M36.068 10.435h-1.83a1.17 1.17 0 0 0-1.242.76l-3.517 8.407h2.488s.406-1.131.498-1.38l3.033.005c.071.32.289 1.375.289 1.375h2.198l-1.917-9.167m-2.922 5.911c.197-.527.944-2.564.944-2.564-.014.024.195-.531.315-.875l.16.791s.454 2.19.548 2.648zM17.045 10.433l-2.318 6.254-.249-1.271a7.048 7.048 0 0 0-3.28-3.848l2.12 8.023 2.507-.002 3.73-9.156h-2.51"/><path class="cls-4" d="M12.575 10.427h-3.82l-.032.19a7.946 7.946 0 0 1 5.755 4.799l-.83-4.215a.995.995 0 0 0-1.073-.774z"/><path class="cls-5" d="M38.753 18.507a.523.523 0 1 1-.522.524.52.52 0 0 1 .522-.524zm0 .967a.444.444 0 1 0-.424-.443.431.431 0 0 0 .424.443zm-.19-.709h.23a.15.15 0 0 1 .173.15.123.123 0 0 1-.088.12v.003c.066.012.07.075.074.125.005.081 0 .096.021.125h-.1c-.02-.02-.015-.035-.02-.12 0-.048-.006-.097-.114-.097h-.08v.217h-.097zm.096.234h.112c.08 0 .096-.046.096-.084 0-.064-.042-.079-.106-.079h-.102z"/></svg>