<svg id="Layer_1" data-name="Layer 1" xmlns="http://www.w3.org/2000/svg" viewBox="0 0 48 30"><defs><style>.cls-1{fill:url(#linear-gradient)}.cls-2{fill:#fff}</style><linearGradient id="linear-gradient" y1="15" x2="48" y2="15" gradientUnits="userSpaceOnUse"><stop offset=".003" stop-color="#127cc0"/><stop offset=".487" stop-color="#1b5c9d"/><stop offset="1" stop-color="#253773"/></linearGradient></defs><title>CardPayPal</title><rect class="cls-1" width="48" height="30" rx="4" ry="4"/><path class="cls-2" d="M39.603 11.288v-.668h-.248v-.089h.597v.089h-.249v.668h-.1zM40.051 11.288v-.757h.15l.18.536.034.111.041-.12.183-.527h.134v.757h-.096v-.633l-.22.633h-.091l-.218-.64v.64zM28.726 13.439a2.05 2.05 0 0 1-1.23.322h-.24a.29.29 0 0 1-.296-.372l.293-1.267a.502.502 0 0 1 .465-.371h.32a1.53 1.53 0 0 1 .844.19.646.646 0 0 1 .283.579 1.07 1.07 0 0 1-.44.919m2.104-1.952a1.472 1.472 0 0 0-.536-.574 2.41 2.41 0 0 0-.846-.311 6.42 6.42 0 0 0-1.147-.091h-2.034a.499.499 0 0 0-.465.371l-1.376 5.972a.29.29 0 0 0 .294.371h.977a.503.503 0 0 0 .466-.371l.334-1.448a.503.503 0 0 1 .466-.371h.28a4.603 4.603 0 0 0 2.78-.734 2.294 2.294 0 0 0 .993-1.933 1.882 1.882 0 0 0-.185-.881M33.805 15.906a2.43 2.43 0 0 1-.508.282 1.34 1.34 0 0 1-.508.111 1.152 1.152 0 0 1-.555-.106.382.382 0 0 1-.19-.366.736.736 0 0 1 .144-.477.92.92 0 0 1 .415-.278 3.219 3.219 0 0 1 .64-.144q.377-.048.809-.085zm-.305 1.319h1.225a.502.502 0 0 0 .466-.371l.71-3.075a1.836 1.836 0 0 0 .041-.253c.01-.097.017-.175.017-.234a1.031 1.031 0 0 0-.555-.965 3.693 3.693 0 0 0-1.739-.31 7.778 7.778 0 0 0-1.18.09 10.08 10.08 0 0 0-.875.163l-.165.839c-.04.205-.007.374.075.374.16-.06.4-.134.721-.225a3.278 3.278 0 0 1 .88-.136 2.36 2.36 0 0 1 .883.126.448.448 0 0 1 .296.44.717.717 0 0 1-.015.14c-.01.04-.018.07-.021.088q-.836.05-1.557.154a4.637 4.637 0 0 0-1.237.338 1.938 1.938 0 0 0-.837.666 1.777 1.777 0 0 0-.282 1.018 1.18 1.18 0 0 0 .398.924 1.485 1.485 0 0 0 1.026.354 2.687 2.687 0 0 0 .611-.055 3.387 3.387 0 0 0 .47-.16 2.76 2.76 0 0 0 .402-.226l.368-.243-.126.539M39.073 10.565l-1.39 6.29a.504.504 0 0 1-.467.371h-.87a.29.29 0 0 1-.295-.371l1.305-5.92a.503.503 0 0 1 .467-.37h1.25M11.537 13.45a2.045 2.045 0 0 1-1.229.322h-.242a.292.292 0 0 1-.296-.372l.294-1.268a.503.503 0 0 1 .465-.37h.32a1.527 1.527 0 0 1 .844.19.648.648 0 0 1 .284.58 1.07 1.07 0 0 1-.44.917m2.104-1.951a1.474 1.474 0 0 0-.537-.574 2.432 2.432 0 0 0-.846-.312 6.418 6.418 0 0 0-1.148-.09H9.077a.502.502 0 0 0-.466.371l-1.375 5.971a.29.29 0 0 0 .295.373h.976a.502.502 0 0 0 .466-.372l.335-1.448a.503.503 0 0 1 .466-.37h.278a4.6 4.6 0 0 0 2.78-.735 2.292 2.292 0 0 0 .994-1.933 1.882 1.882 0 0 0-.185-.881M16.617 15.917a2.478 2.478 0 0 1-.51.282 1.34 1.34 0 0 1-.508.111 1.165 1.165 0 0 1-.554-.106.382.382 0 0 1-.189-.366.742.742 0 0 1 .142-.476.936.936 0 0 1 .417-.28 3.189 3.189 0 0 1 .64-.143q.377-.05.807-.085zm-.305 1.32h1.224a.504.504 0 0 0 .467-.372l.709-3.075a1.557 1.557 0 0 0 .041-.253 2.193 2.193 0 0 0 .017-.234 1.033 1.033 0 0 0-.555-.965 3.693 3.693 0 0 0-1.74-.31 7.747 7.747 0 0 0-1.178.09q-.595.091-.875.163l-.166.838c-.04.206-.006.375.076.375.16-.06.4-.135.721-.225a3.262 3.262 0 0 1 .88-.136 2.367 2.367 0 0 1 .883.126.448.448 0 0 1 .296.441.752.752 0 0 1-.015.138 1.313 1.313 0 0 0-.022.09q-.836.049-1.556.153a4.651 4.651 0 0 0-1.237.338 1.952 1.952 0 0 0-.837.667 1.77 1.77 0 0 0-.284 1.017 1.175 1.175 0 0 0 .4.924 1.485 1.485 0 0 0 1.025.354 2.661 2.661 0 0 0 .611-.055 3.255 3.255 0 0 0 .47-.162 2.7 2.7 0 0 0 .402-.224c.143-.095.266-.175.367-.244l-.124.54M23.727 12.02a.824.824 0 0 0-.611.372l-1.723 2.958-.472-2.954a.503.503 0 0 0-.466-.372h-.87a.29.29 0 0 0-.295.372l.754 4.88c.013.105.027.194.04.269l-.938 1.572c-.125.205-.058.372.152.372h1.008a.82.82 0 0 0 .61-.372l4.2-7.097z"/></svg>