<svg id="Layer_1" data-name="Layer 1" xmlns="http://www.w3.org/2000/svg" viewBox="0 0 48 30"><defs><style>.cls-1{fill:#0f8fcf}.cls-2{fill:#fff}.cls-3{fill:#e30f13}</style></defs><title>CardPaysafe</title><rect class="cls-1" width="48" height="30" rx="4" ry="4"/><path class="cls-2" d="M9.437 14.474a1.075 1.075 0 0 1 .202-.686.86.86 0 0 1 .256-.165.761.761 0 0 1 .313-.072h1.226q.812.007.825.888v1.809a.747.747 0 0 1-.244.54.782.782 0 0 1-.56.246h-1.16v1.303h-.858zm1.963.17q-.006-.205-.194-.212h-.667a.235.235 0 0 0-.244.26v1.201a.242.242 0 0 0 .27.26h.612a.2.2 0 0 0 .158-.073.172.172 0 0 0 .065-.14zM14.92 14.623c.004-.132-.072-.195-.23-.19h-1.728v-.881h1.945a.761.761 0 0 1 .864.823v1.843a.855.855 0 0 1-.215.578.725.725 0 0 1-.56.238H13.82q-.858-.008-.871-.786v-.711a.744.744 0 0 1 .83-.828h1.141zm-1.113 1.355a.136.136 0 0 0 .068.12.223.223 0 0 0 .156.054h.659c.149 0 .226-.057.23-.174v-.246c0-.134-.078-.202-.237-.202h-.652a.29.29 0 0 0-.178.041.28.28 0 0 0-.046.188zM18.18 17.456a.28.28 0 0 0 .174-.072.185.185 0 0 0 .07-.141v-.21h-1.099a.893.893 0 0 1-.343-.054.791.791 0 0 1-.27-.182.877.877 0 0 1-.185-.292.914.914 0 0 1-.06-.353v-2.6h.858v2.321c0 .186.076.28.23.28h.606a.266.266 0 0 0 .187-.073.182.182 0 0 0 .075-.146v-2.383h.85v3.838a1.078 1.078 0 0 1-.217.683.737.737 0 0 1-.586.265h-2.002v-.88zM19.947 16.152h1.529c.14-.005.212-.06.216-.168v-.079a.178.178 0 0 0-.02-.076c-.034-.066-.076-.1-.126-.1h-.758a.847.847 0 0 1-.578-.23.662.662 0 0 1-.25-.508v-.657q.012-.77.835-.783h1.772v.881h-1.501c-.177 0-.265.054-.265.162v.085c0 .112.09.168.271.168h.755a.71.71 0 0 1 .516.232.784.784 0 0 1 .224.54v.643a.854.854 0 0 1-.248.541.7.7 0 0 1-.24.183.983.983 0 0 1-.339.048h-1.793zM25.15 14.623c.003-.132-.074-.195-.232-.19H23.19v-.881h1.945a.76.76 0 0 1 .863.823v1.843a.857.857 0 0 1-.215.578.723.723 0 0 1-.56.238h-1.176q-.858-.008-.87-.786v-.711a.744.744 0 0 1 .83-.828h1.141zm-1.115 1.355a.136.136 0 0 0 .07.12.221.221 0 0 0 .154.054h.66c.15 0 .226-.057.23-.174v-.246c0-.134-.08-.202-.237-.202h-.653a.288.288 0 0 0-.177.041.28.28 0 0 0-.047.188zM26.696 13.052a.73.73 0 0 1 .265-.572.988.988 0 0 1 .656-.225h.545v.852h-.33c-.182.003-.274.09-.278.258v.186h.608v.882h-.608v2.601h-.858zM29.539 15.852v.055a.237.237 0 0 0 .056.167.123.123 0 0 0 .111.078h1.762v.881h-1.873a1.302 1.302 0 0 1-.399-.047.726.726 0 0 1-.276-.167.734.734 0 0 1-.19-.286 1.27 1.27 0 0 1-.053-.405l-.007-1.764a.744.744 0 0 1 .834-.813h1.156a.747.747 0 0 1 .814.843v.697zm1.062-1.246v-.02a.136.136 0 0 0-.055-.112.252.252 0 0 0-.148-.042h-.597a.263.263 0 0 0-.186.066.186.186 0 0 0-.09.16v.353zM33.29 17.034a1.789 1.789 0 0 1-.357-.034.763.763 0 0 1-.34-.16.813.813 0 0 1-.243-.344 1.198 1.198 0 0 1-.07-.425v-1.644a1.068 1.068 0 0 1 .04-.354.735.735 0 0 1 .181-.3.782.782 0 0 1 .323-.204 1.508 1.508 0 0 1 .367-.04h1.315v.205H33.22a.904.904 0 0 0-.535.14.62.62 0 0 0-.2.525v1.645a1.09 1.09 0 0 0 .052.337.594.594 0 0 0 .46.416 1.439 1.439 0 0 0 .303.03h1.225v.207zM38.091 16.085a2.128 2.128 0 0 1-.027.35.795.795 0 0 1-.171.321.863.863 0 0 1-.67.278H36.2a.905.905 0 0 1-.65-.238.842.842 0 0 1-.257-.653v-.53a.82.82 0 0 1 .894-.918h1.707v-.233a.804.804 0 0 0-.166-.502.522.522 0 0 0-.246-.188 1.267 1.267 0 0 0-.32-.038h-1.863v-.206h1.766a2.633 2.633 0 0 1 .44.034.514.514 0 0 1 .186.078.616.616 0 0 1 .169.16 1.095 1.095 0 0 1 .232.705zm-.205-1.185h-1.723a.659.659 0 0 0-.485.192.708.708 0 0 0-.18.513v.525a1.102 1.102 0 0 0 .033.278.435.435 0 0 0 .161.235.756.756 0 0 0 .494.184h1.044a.6.6 0 0 0 .656-.69zM40.019 13.734q-.718.014-.705.784v2.516h-.206v-2.516q-.014-.99.943-.99h.229v.206zM43.695 16.06a.902.902 0 0 1-1.054.975h-.761a2.113 2.113 0 0 1-.432-.04.82.82 0 0 1-.377-.239.79.79 0 0 1-.172-.34 1.29 1.29 0 0 1-.04-.385v-1.497a.897.897 0 0 1 1.02-1.004h1.611v-1.137h.205zm-.205-2.324h-1.624a1.245 1.245 0 0 0-.317.037.558.558 0 0 0-.284.18.614.614 0 0 0-.162.266.895.895 0 0 0-.039.32v1.604a.59.59 0 0 0 .234.546.92.92 0 0 0 .257.102 1.238 1.238 0 0 0 .317.038h.71a1.065 1.065 0 0 0 .65-.185.692.692 0 0 0 .258-.599z"/><path class="cls-3" d="M4.673 13.419a1.053 1.053 0 0 1 .202-.068 1.303 1.303 0 0 1 2.55 0 .94.94 0 0 1 .477.231 1.875 1.875 0 0 0-.013-.325 1.747 1.747 0 0 0-3.486.082 2.506 2.506 0 0 0-.005.252 1.117 1.117 0 0 1 .275-.172"/><path class="cls-3" d="M7.17 13.551H5.077a.761.761 0 0 0-.313.072.867.867 0 0 0-.257.165 1.073 1.073 0 0 0-.201.685v1.638a1.07 1.07 0 0 0 .201.685.851.851 0 0 0 .257.167.775.775 0 0 0 .313.07H7.17q.81-.007.824-.888V14.44q-.012-.881-.824-.888"/></svg>