<svg id="Layer_1" data-name="Layer 1" xmlns="http://www.w3.org/2000/svg" viewBox="0 0 48 30"><defs><style>.cls-1{fill:#232856}.cls-2,.cls-4{fill:#fff}.cls-3{fill:#0386c7}.cls-3,.cls-4,.cls-5{fill-rule:evenodd}.cls-5{fill:#e52332}</style></defs><title>CardMaestro</title><rect class="cls-1" width="48" height="30" rx="4" ry="4"/><path class="cls-2" d="M8.375 11.563h32.25v8.125H8.375z"/><path class="cls-3" d="M26.641 14.63c0 .22.07.273.666.51a2.488 2.488 0 0 1 .43.217c.002-.085.007-.169.007-.254 0-.284-.014-.564-.035-.843a6.768 6.768 0 0 0-.37-.013c-.46 0-.698.13-.698.384zM17.052 16.543a.46.46 0 0 0 .505.48 1.08 1.08 0 0 0 1.012-1.176 2.584 2.584 0 0 0-.315-.02c-.798 0-1.202.241-1.202.716zM23.476 14.804a.584.584 0 0 0-.666-.606c-.448 0-.768.3-.898.843l1.552.003q.012-.147.012-.24z"/><path class="cls-3" d="M26.114 18.016q-.277 0-.785-.04-.246-.018-.372-.04l-.261-.048-.063-.011.195-1.084a4.555 4.555 0 0 0 1.277.186c.563 0 .817-.132.817-.425 0-.213-.09-.282-.666-.518-.753-.307-1.084-.716-1.084-1.31-.005-.866.546-1.588 2.14-1.588.076 0 .166.002.263.007a11.399 11.399 0 0 0-3.55-6.488 11.224 11.224 0 0 0-7.593-2.95 11.395 11.395 0 0 0 0 22.79 11.224 11.224 0 0 0 7.594-2.948 11.404 11.404 0 0 0 3.39-5.727 3.657 3.657 0 0 1-1.302.194zm-12.502-.075l.836-4.442-1.926 4.442h-1.284l-.234-4.416-.84 4.416H8.887l1.091-5.778h2.197l.116 3.577 1.55-3.577h2.288l-1.11 5.778zm6.402-2.496l-.295 1.667-.05.3-.035.238-.024.163-.014.128h-1.17l.027-.488a1.88 1.88 0 0 1-1.476.569 1.224 1.224 0 0 1-1.287-1.284c0-1.144.91-1.811 2.473-1.811a5.4 5.4 0 0 1 .574.036 1.026 1.026 0 0 0 .055-.305c0-.311-.245-.427-.903-.427a5.17 5.17 0 0 0-1.17.13l-.195.05-.126.03.195-1.055a6.328 6.328 0 0 1 1.686-.25c1.21 0 1.849.477 1.849 1.378a4.867 4.867 0 0 1-.114.931zm2.972 1.517a3.727 3.727 0 0 0 1.462-.297l-.234 1.174a5.448 5.448 0 0 1-1.442.19c-1.574 0-2.394-.722-2.394-2.104a2.57 2.57 0 0 1 2.46-2.8 1.69 1.69 0 0 1 1.899 1.707 4.474 4.474 0 0 1-.173 1.16h-2.8a.905.905 0 0 0-.013.148c0 .545.418.822 1.235.822z"/><path class="cls-4" d="M41.423 21.455a.365.365 0 1 1 .366.368.367.367 0 0 1-.366-.368zm.366.28a.28.28 0 1 0-.278-.28.279.279 0 0 0 .278.28zm-.05-.119h-.075v-.323h.136a.145.145 0 0 1 .082.016.097.097 0 0 1 .04.081.088.088 0 0 1-.055.084l.06.142h-.084l-.049-.128h-.055v-.055h.042a.093.093 0 0 0 .045-.006.044.044 0 0 0 .019-.037.041.041 0 0 0-.018-.033.102.102 0 0 0-.048-.006h-.04v.265zM39.387 17.468h-.04v.083h.041a.091.091 0 0 0 .046-.007.044.044 0 0 0 .02-.037.041.041 0 0 0-.02-.033.1.1 0 0 0-.047-.006z"/><path class="cls-4" d="M39.396 17.293a.28.28 0 1 0 .278.28.279.279 0 0 0-.278-.28zm.055.44l-.049-.127h-.055v.128h-.075v-.323h.136a.145.145 0 0 1 .082.016.097.097 0 0 1 .04.081.088.088 0 0 1-.055.083l.06.143z"/><path class="cls-5" d="M37.015 14.254c-.718 0-1.164.855-1.164 1.61 0 .637.305 1.065.809 1.056a1.398 1.398 0 0 0 1.084-1.15 3.232 3.232 0 0 0 .046-.56c0-.492-.198-.956-.775-.956z"/><path class="cls-5" d="M31.618 3.708a11.224 11.224 0 0 0-7.593 2.95 11.455 11.455 0 0 0-1.142 1.205h2.284a11.456 11.456 0 0 1 .862 1.207h-4.008a11.403 11.403 0 0 0-.652 1.207h5.312a11.323 11.323 0 0 1 .48 1.206H20.89a11.387 11.387 0 0 0-.328 1.207h6.927c.032.15.059.302.085.455.315.013.708.046.99.085l-.202 1.088c-.22-.027-.445-.046-.653-.058.02.279.034.559.034.843 0 .086-.003.17-.005.255a1.176 1.176 0 0 1 .573 1.09 1.326 1.326 0 0 1-.892 1.373q-.112.458-.258.901H20.89a11.312 11.312 0 0 0 .479 1.207h5.312a11.44 11.44 0 0 1-.652 1.207h-4.008a11.438 11.438 0 0 0 .862 1.206h2.284a11.451 11.451 0 0 1-1.142 1.207 11.223 11.223 0 0 0 7.593 2.949 11.395 11.395 0 0 0 0-22.79zm-1.06 13.18a1.318 1.318 0 0 0 .38-.045l-.186 1.04a3.622 3.622 0 0 1-1.012.152c-.72 0-1.113-.364-1.113-1.032a2.361 2.361 0 0 1 .042-.421l.085-.46.066-.372.652-3.587h1.4l-.202 1.079h.718l-.193 1.142h-.722l-.37 1.96a1.118 1.118 0 0 0-.025.195c0 .242.146.348.48.348zm3.453-2.324c-.676 0-.892.503-1.396 3.377h-1.409l.859-4.7h1.274l-.124.713c.431-.556.764-.763 1.226-.763a.788.788 0 0 1 .142.012c.007 0 .047.01.121.027a.759.759 0 0 1 .16.05l-.51 1.33-.165-.035a1.59 1.59 0 0 0-.178-.011zm2.494 3.503A2.007 2.007 0 0 1 34.27 15.9a2.625 2.625 0 0 1 2.772-2.794 2.04 2.04 0 0 1 2.236 2.12 2.99 2.99 0 0 1-.037.583 2.48 2.48 0 0 1-2.735 2.257zm2.891-.126a.368.368 0 1 1 .366-.369.367.367 0 0 1-.366.369z"/></svg>