<svg id="Layer_1" data-name="Layer 1" xmlns="http://www.w3.org/2000/svg" viewBox="0 0 19.07248 19.96997"><defs><style>.cls-1{fill:#41494e}</style></defs><title>50-40Ball</title><path class="cls-1" d="M5.09 5.36a.907.907 0 0 0-.84-.3 1.455 1.455 0 0 0-.75.44.657.657 0 0 0-.14.15l-.3-.4.87-.87-.43-.43-1.24 1.24L3.3 6.52a2.596 2.596 0 0 1 .28-.33c.45-.45.77-.49 1.01-.26s.11.57-.11.79a1.682 1.682 0 0 1-.62.4l.3.49a1.886 1.886 0 0 0 .75-.49 1.215 1.215 0 0 0 .18-1.76zM4.71 2.66c-.59.58-.35 1.38.31 2.03.64.63 1.42.9 2 .32.58-.57.38-1.33-.32-2.03-.62-.62-1.39-.92-1.99-.32zM6.64 4.6c-.21.2-.58.08-1.09-.44-.53-.52-.65-.9-.44-1.09.21-.22.58-.06 1.08.44.51.52.65.89.45 1.09z"/><path class="cls-1" d="M3.69 8.12a2.761 2.761 0 0 1-1.42-.75 3.391 3.391 0 0 1 .36-4.75 3.414 3.414 0 0 1 4.76-.37 2.871 2.871 0 0 1 .81 2.12.427.427 0 0 0 .41.42.42.42 0 0 0 .42-.41 3.661 3.661 0 0 0-1.05-2.72A3.548 3.548 0 0 0 6.655.83h.015a5.86 5.86 0 0 1 4.78 2.47.416.416 0 0 0 .68-.48 6.679 6.679 0 1 0-9.89 8.85.42.42 0 0 0 .28.1.335.335 0 0 0 .29-.13.414.414 0 0 0-.03-.59A5.875 5.875 0 0 1 .82 6.68c0-.045.006-.09.007-.135A3.515 3.515 0 0 0 1.68 7.96a3.587 3.587 0 0 0 1.85.98.221.221 0 0 0 .08.01.419.419 0 0 0 .08-.83z"/><path class="cls-1" d="M16.89 7.24a7.455 7.455 0 1 0 0 10.55 7.438 7.438 0 0 0 0-10.55zm-5.27-1.22a3.87 3.87 0 0 1 4.12 3.54 3.87 3.87 0 0 1-4.12 3.54A3.87 3.87 0 0 1 7.5 9.56a3.87 3.87 0 0 1 4.12-3.54zm4.69 11.17a6.63 6.63 0 0 1-9.38-9.37c.107-.106.22-.202.333-.3a3.925 3.925 0 0 0-.593 2.03 4.692 4.692 0 0 0 4.95 4.37 4.692 4.692 0 0 0 4.95-4.37 3.925 3.925 0 0 0-.595-2.034c.113.099.228.197.335.304a6.64 6.64 0 0 1 0 9.37z"/><path class="cls-1" d="M10.42 11.32h.8v-.85h.43v-.63h-.43v-2.1h-1.03L8.83 9.92v.55h1.59zm-.8-1.48v-.01l.48-.78c.12-.23.21-.44.33-.67h.02c-.02.23-.03.45-.03.67v.79zM13 11.38c.91 0 1.36-.76 1.36-1.87 0-.98-.37-1.83-1.33-1.84-.93 0-1.37.82-1.37 1.86.01 1.02.41 1.85 1.34 1.85zm.01-3.07c.34 0 .51.42.51 1.21 0 .81-.17 1.22-.5 1.22s-.53-.39-.52-1.21c0-.83.21-1.22.51-1.22zM16.89 12.08a.423.423 0 0 0-.42.42 4.861 4.861 0 0 1-4.85 4.85.42.42 0 1 0 0 .84 5.706 5.706 0 0 0 5.69-5.69.423.423 0 0 0-.42-.42z"/></svg>