<svg id="Layer_1" data-name="Layer 1" xmlns="http://www.w3.org/2000/svg" viewBox="0 0 19.16002 20.02002"><defs><style>.cls-1{fill:#41494e}</style></defs><title>80-75Ball</title><path class="cls-1" d="M3.64 7.19c.31.31.89.37 1.47-.2.52-.53.59-1.15.18-1.56a.847.847 0 0 0-.98-.15l-.01-.01a.78.78 0 0 0-.17-.83c-.27-.27-.8-.36-1.33.17a.994.994 0 0 0-.16 1.43.769.769 0 0 0 .82.17l.02.01a.847.847 0 0 0 .16.97zm.42-1.21a.57.57 0 0 1 .73.02.399.399 0 0 1-.03.59.438.438 0 0 1-.64 0 .48.48 0 0 1-.06-.61zm-.94-.45a.365.365 0 0 1 .02-.54.36.36 0 0 1 .55 0 .439.439 0 0 1 .06.52c-.24.13-.47.17-.63.02zM7.05 5.04c.58-.58.38-1.34-.32-2.04-.62-.62-1.4-.92-2-.32-.59.59-.35 1.39.31 2.04.64.64 1.42.91 2.01.32zM5.11 3.09c.22-.21.59-.05 1.09.45.52.51.66.89.46 1.09s-.58.08-1.09-.44c-.53-.52-.65-.9-.46-1.1z"/><path class="cls-1" d="M3.7 8.17a2.792 2.792 0 0 1-1.43-.75 3.407 3.407 0 0 1 .37-4.77 3.41 3.41 0 0 1 4.77-.38 2.895 2.895 0 0 1 .81 2.13.43.43 0 0 0 .41.43.422.422 0 0 0 .43-.41A3.715 3.715 0 0 0 8 1.68 3.53 3.53 0 0 0 6.661.842L6.71.84a5.905 5.905 0 0 1 4.8 2.48.416.416 0 0 0 .58.1.42.42 0 0 0 .1-.59 6.714 6.714 0 1 0-9.94 8.9.384.384 0 0 0 .28.11.375.375 0 0 0 .3-.14.414.414 0 0 0-.03-.59A5.875 5.875 0 0 1 .83 6.72c0-.028.004-.055.004-.084A3.53 3.53 0 0 0 1.68 8.01a3.616 3.616 0 0 0 1.86.98.22.22 0 0 0 .08.01.419.419 0 0 0 .08-.83z"/><path class="cls-1" d="M16.97 7.24a7.485 7.485 0 1 0 0 10.59 7.476 7.476 0 0 0 0-10.59zm-5.3-1.23c2.28 0 4.14 1.59 4.14 3.55s-1.86 3.55-4.14 3.55-4.14-1.59-4.14-3.55 1.86-3.55 4.14-3.55zm4.71 11.22a6.657 6.657 0 0 1-9.42-9.41c.11-.11.227-.21.343-.311A3.944 3.944 0 0 0 6.7 9.56a4.713 4.713 0 0 0 4.97 4.39 4.713 4.713 0 0 0 4.97-4.39 3.944 3.944 0 0 0-.6-2.047c.115.1.23.199.34.307a6.651 6.651 0 0 1 0 9.41z"/><path class="cls-1" d="M10.73 8.43l-1.48 2.9h.89l1.48-3.07v-.53H9.08v.69h1.65v.01zM14.38 10.13a1.022 1.022 0 0 0-.44-.9 1.973 1.973 0 0 0-1.18-.25l.08-.55h1.4v-.7h-1.98l-.24 1.89a3.482 3.482 0 0 1 .49-.03c.72 0 1.01.23 1.01.6 0 .38-.37.55-.72.55a2.024 2.024 0 0 1-.81-.18l-.15.63a2.357 2.357 0 0 0 1 .2 1.371 1.371 0 0 0 1.54-1.26zM16.96 12.1a.423.423 0 0 0-.42.42 4.87 4.87 0 0 1-4.87 4.87.42.42 0 1 0 0 .84 5.708 5.708 0 0 0 5.71-5.71.423.423 0 0 0-.42-.42z"/></svg>