<svg id="Layer_1" data-name="Layer 1" xmlns="http://www.w3.org/2000/svg" viewBox="0 0 39.33 39.35"><defs><style>.cls-1{fill:#fff}.cls-2{fill:#78bd43}.cls-3{fill:#ffcd03}</style></defs><title>Betslip</title><path class="cls-1" d="M33.74 39.35H5.59A5.6 5.6 0 0 1 0 33.75V5.59A5.6 5.6 0 0 1 5.59 0h28.15a5.6 5.6 0 0 1 5.59 5.59v28.16a5.6 5.6 0 0 1-5.59 5.6zM5.59 3.05a2.54 2.54 0 0 0-2.54 2.54v28.16a2.54 2.54 0 0 0 2.54 2.54h28.15a2.54 2.54 0 0 0 2.54-2.54V5.59a2.54 2.54 0 0 0-2.54-2.54H5.59z"/><path class="cls-2" d="M19.416 10.5L16.97 8.053l-5.66 5.661-2.23-2.231-2.446 2.447 2.23 2.23 2.446 2.447 2.446-2.446 5.66-5.661zM32.416 10.5L29.97 8.053l-5.66 5.661-2.23-2.231-2.446 2.447 2.23 2.23 2.446 2.447 2.446-2.446 5.66-5.661z"/><path class="cls-3" d="M13.756 28.361l5.66-5.661-2.446-2.446-5.66 5.66-2.229-2.23-2.447 2.445 2.23 2.231.887.887 1.558 1.56v-.001l.001.001 1.222-1.223 1.224-1.223z"/></svg>