<svg id="Layer_1" data-name="Layer 1" xmlns="http://www.w3.org/2000/svg" viewBox="0 0 40 40.00002"><defs><style>.cls-1{fill:#78be20}.cls-2{fill:#ffcd00}.cls-3{fill:#ef3340}.cls-4{fill:#fff}</style></defs><title>MyAccount</title><path class="cls-1" d="M23 27h17v3H23z"/><path class="cls-2" d="M23 32h17v3H23z"/><path class="cls-3" d="M23 37h17v3H23z"/><path class="cls-4" d="M29.45 25a18 18 0 0 0-5.55-3.34A11.72 11.72 0 0 0 17.68 0a11.72 11.72 0 0 0-6.23 21.66A17.91 17.91 0 0 0 .06 35.2C0 36 0 40 0 40h2.88s0-4.12.17-4.8A14.92 14.92 0 0 1 24.22 25zm-11.79-4.47a8.8 8.8 0 1 1 8.78-8.82v.02a8.81 8.81 0 0 1-8.78 8.8z"/></svg>