<svg id="Layer_1" data-name="Layer 1" xmlns="http://www.w3.org/2000/svg" viewBox="0 0 40 40"><defs><style>.cls-1{fill:#78bd43}.cls-2{fill:#ffcd00}.cls-3{fill:none}.cls-4{fill:#fff}</style></defs><title>MyBets</title><path class="cls-1" d="M20 8.22a11.77 11.77 0 1 0 0 23.54 1.55 1.55 0 1 0 0-3.1A8.67 8.67 0 1 1 28.67 20a1.55 1.55 0 0 0 3.1-.01A11.783 11.783 0 0 0 20 8.22z"/><path class="cls-1" d="M18.257 20.384l-2.272-2.262-2.484 2.493 3.486 3.472 1.273 1.272.002-.002.003.002 1.301-1.306 6.933-6.933-2.489-2.489-5.753 5.753z"/><path class="cls-2" d="M38.976 33.6a3.705 3.705 0 0 0 .938-1.961l.021-.148-.021-.148a3.718 3.718 0 0 0-.944-1.976 3.708 3.708 0 0 0 .944-1.969l.01-.148c0-2.426-3.324-4.255-7.734-4.255s-7.735 1.83-7.735 4.255l.01.15a3.696 3.696 0 0 0 .942 1.96 3.719 3.719 0 0 0-.941 1.973l-.022.148.022.149a3.71 3.71 0 0 0 .943 1.965 3.703 3.703 0 0 0-.943 1.98l-.022.147.022.147a3.72 3.72 0 0 0 2.237 2.883l.008.006.052.022.032.015.006.001a11.761 11.761 0 0 0 5.09 1.183c.086 0 .17-.001.256-.003a11.87 11.87 0 0 0 5.358-1.166c.026-.008.054-.005.08-.015a3.72 3.72 0 0 0 2.33-2.927l.02-.146-.02-.148a3.703 3.703 0 0 0-.939-1.974zm-2.141 3.265l-.01.007a.971.971 0 0 0-.114.03 9.623 9.623 0 0 1-4.565 1.003 9.63 9.63 0 0 1-4.517-1.003c-.015-.007-.03-.005-.045-.012s-.024-.019-.04-.025a1.647 1.647 0 0 1-1.001-1.147 1.643 1.643 0 0 1 .674-.977 11.634 11.634 0 0 0 4.93 1.004q.133.003.266.003a11.783 11.783 0 0 0 4.734-1.016 1.641 1.641 0 0 1 .69.986 1.645 1.645 0 0 1-1.002 1.147zm0-4.23l-.01.006a.972.972 0 0 0-.115.03 9.682 9.682 0 0 1-4.564 1.004 9.548 9.548 0 0 1-4.517-1.003c-.006-.003-.013-.002-.019-.005-.009-.004-.015-.012-.024-.016-.016-.007-.026-.02-.041-.026a1.648 1.648 0 0 1-1.002-1.146 1.656 1.656 0 0 1 .677-.978 11.675 11.675 0 0 0 4.658 1.007c.09 0 .179-.001.267-.003a11.921 11.921 0 0 0 4.988-1.009 1.652 1.652 0 0 1 .704.993 1.644 1.644 0 0 1-1.002 1.146zm-.001-4.239l-.01.006a.95.95 0 0 0-.114.032 9.65 9.65 0 0 1-4.565 1 9.577 9.577 0 0 1-4.515-1 .086.086 0 0 0-.025-.007l-.043-.02a.067.067 0 0 0-.016-.01 1.653 1.653 0 0 1-1.017-1.211c.103-.888 2.286-2.12 5.661-2.12s5.558 1.232 5.66 2.12a1.649 1.649 0 0 1-1.016 1.21z"/><path class="cls-3" d="M0 34.31V40h5.69A5.69 5.69 0 0 1 0 34.31zM5.69 0h28.62A5.7 5.7 0 0 1 40 5.68V0H0v5.68A5.69 5.69 0 0 1 5.69 0z"/><path class="cls-4" d="M5.69 36.9a2.59 2.59 0 0 1-2.59-2.59V5.68a2.59 2.59 0 0 1 2.59-2.59h28.62a2.59 2.59 0 0 1 2.59 2.59v15.48H40V5.68A5.7 5.7 0 0 0 34.31 0H5.69A5.69 5.69 0 0 0 0 5.68v28.63A5.69 5.69 0 0 0 5.69 40h15.64v-3.1z"/></svg>