<svg id="Layer_1" data-name="Layer 1" xmlns="http://www.w3.org/2000/svg" viewBox="0 0 38.29004 39.59473"><defs><style>.cls-1{fill:#78bd43}.cls-2{fill:#ffcd00}.cls-3{fill:#fff}</style></defs><title>Quick_Deposit</title><path class="cls-1" d="M17.895 5.6a1.48 1.48 0 0 1-.4 2.1 1.477 1.477 0 0 1-2-.2c-.6-.5-2.4-2.3-2.4-2.3v6.7a1.5 1.5 0 0 1-3 0V5.1l-2.1 2.2a1.205 1.205 0 0 1-.5.5 1.445 1.445 0 0 1-.7.2 1.538 1.538 0 0 1-1.5-1.5 1.425 1.425 0 0 1 .6-1.2 44.516 44.516 0 0 1 4.8-4.9 1.284 1.284 0 0 1 1-.4 1.606 1.606 0 0 1 1.1.5c1 .9 3.8 3.8 4.8 4.8l.3.3"/><path class="cls-2" d="M24.495 27.7a3.188 3.188 0 0 1 1-2.6 3.848 3.848 0 0 1 2.7-.9 8.752 8.752 0 0 1 1.6.2 3.128 3.128 0 0 1 1 .5l.3.3a.601.601 0 0 1 .1.4.902.902 0 0 1-.1.5c-.1.1-.1.3-.2.4l-.3.3-.3.2a2.485 2.485 0 0 0-2-.7 2.01 2.01 0 0 0-1.3.4 1.504 1.504 0 0 0-.4 1.1v.2h2.4a2.92 2.92 0 0 1 .9.2 1.08 1.08 0 0 1 .3.7 1.702 1.702 0 0 1-.1.7.758.758 0 0 1-.2.4h-3.3v1.7h4.5v2.1h-6.7v-6.1z"/><path class="cls-2" d="M27.995 39.595A10.295 10.295 0 1 1 38.29 29.3a10.306 10.306 0 0 1-10.295 10.295zm0-17.6A7.305 7.305 0 1 0 35.3 29.3a7.312 7.312 0 0 0-7.305-7.305z"/><path class="cls-3" d="M23.39 13.9c0-1.769-1.28-3.465-3.427-4.537a1.495 1.495 0 0 0-1.337 2.675c1.22.608 1.774 1.392 1.774 1.862 0 .53-.695 1.25-1.817 1.884a13.9 13.9 0 0 1-6.83 1.522l-.058-.002-.057.002a14.196 14.196 0 0 1-6.504-1.372 1.479 1.479 0 0 0-.37-.271c-1.22-.61-1.774-1.393-1.774-1.863 0-.532.704-1.26 1.838-1.897a1.495 1.495 0 1 0-1.466-2.606C.583 10.86 0 12.608 0 13.8a4.542 4.542 0 0 0 1.59 3.268A4.386 4.386 0 0 0 0 20.3a4.516 4.516 0 0 0 1.539 3.222A4.367 4.367 0 0 0 0 26.7c0 1.634 1.104 3.2 2.964 4.276a1.488 1.488 0 0 0 .463.36 17.296 17.296 0 0 0 7.68 1.87c.196 0 .393-.003.588-.01a18.933 18.933 0 0 0 3.467-.325 1.495 1.495 0 1 0-.534-2.941 16.133 16.133 0 0 1-2.99.276 14.03 14.03 0 0 1-6.504-1.371 1.479 1.479 0 0 0-.37-.272C3.545 27.953 2.99 27.17 2.99 26.7c0-.425.454-.973 1.212-1.502a17.15 17.15 0 0 0 6.904 1.508c.197 0 .393-.003.59-.01a16.424 16.424 0 0 0 4.061-.446 1.495 1.495 0 1 0-.724-2.9 13.587 13.587 0 0 1-3.395.356 14.144 14.144 0 0 1-6.868-1.54l-.01-.005c-1.216-.61-1.77-1.391-1.77-1.861 0-.425.455-.975 1.214-1.503a17.219 17.219 0 0 0 7.491 1.499c.186.007.373.01.56.01a17.007 17.007 0 0 0 6.94-1.499 3.222 3.222 0 0 1 .444.35 1.487 1.487 0 0 0 2.168-2.032A4.384 4.384 0 0 0 23.39 13.9z"/></svg>