<svg id="Layer_1" data-name="Layer 1" xmlns="http://www.w3.org/2000/svg" viewBox="0 0 34.32275 33.57654"><defs><style>.cls-1{fill:#41494e}</style></defs><title>ContactHelp</title><path class="cls-1" d="M34.303 32.952a.674.674 0 0 0 .02-.096V12.768a.72.72 0 0 0-.295-.58L17.588.14a.72.72 0 0 0-.852 0L.294 12.187a.72.72 0 0 0-.294.58v20.09a.679.679 0 0 0 .02.095.691.691 0 0 0 .028.144.692.692 0 0 0 .07.133.67.67 0 0 0 .045.083c.008.01.02.014.027.023a.706.706 0 0 0 .118.096.714.714 0 0 0 .106.071.712.712 0 0 0 .126.038.706.706 0 0 0 .145.03c.012 0 .023.007.035.007h32.883a.711.711 0 0 0 .291-.065.722.722 0 0 0 .062-.042.71.71 0 0 0 .178-.138c.008-.008.019-.01.026-.02a.68.68 0 0 0 .044-.083.518.518 0 0 0 .1-.277zM1.44 14.442l10.716 8.12L1.44 31.336zm15.722 5.882l14.425 11.812H2.737zm5.005 2.237l10.715-8.12v16.895zM17.162 1.613l15.386 11.275-11.527 8.735-3.403-2.787a.72.72 0 0 0-.912 0l-3.404 2.787-11.527-8.735z"/></svg>