<svg id="Layer_1" data-name="Layer 1" xmlns="http://www.w3.org/2000/svg" viewBox="0 0 110.59999 118.8233"><defs><style>.cls-1{fill:#41494e}</style></defs><title>Support</title><path class="cls-1" d="M59.522 74.831a7.84 7.84 0 0 0-4.628 1.434l-4.066 2.94c-6.173-1.121-12.619-6.434-17.105-14.208-4.492-7.771-5.875-16.009-3.76-21.916l4.575-2.052c4.846-2.178 6.378-8.67 4.316-18.28C37.166 14.881 31.5 0 22.134 0a8.27 8.27 0 0 0-2.557.406l-7.076 2.292A16.788 16.788 0 0 0 1.261 15.24c-3.753 18.051.964 40.297 12.94 61.032 11.977 20.736 28.89 35.938 46.403 41.709a16.763 16.763 0 0 0 16.477-3.471l5.523-4.987c1.767-1.592 4.332-5.318 1.63-12.352-3.388-8.82-15.806-22.336-24.712-22.339zm20.402 31.723l-5.523 4.984a12.76 12.76 0 0 1-12.545 2.643c-17.436-5.745-33.45-21.314-44.19-39.91C6.924 55.675 1.442 34.024 5.178 16.05a12.767 12.767 0 0 1 8.557-9.546l7.078-2.293A4.249 4.249 0 0 1 22.133 4c9.235 0 18.383 29.955 10.769 33.38l-6.019 2.697c-3.674 7.717-1.666 18.197 3.375 26.92 5.037 8.727 13.111 15.701 21.633 16.375l5.344-3.863a3.801 3.801 0 0 1 2.285-.678c8.744.003 27.252 21.549 20.404 27.723z"/><path class="cls-1" d="M101.344 15.709H57.356a9.266 9.266 0 0 0-9.256 9.255v22.19a9.272 9.272 0 0 0 6.926 8.958v5.184a4.777 4.777 0 0 0 2.677 4.31 4.808 4.808 0 0 0 5.036-.479l11.523-8.718h27.082a9.266 9.266 0 0 0 9.256-9.255v-22.19a9.266 9.266 0 0 0-9.256-9.255zm5.256 31.445a5.255 5.255 0 0 1-5.256 5.255H72.92l-12.597 9.53a.809.809 0 0 1-1.296-.643v-8.887h-1.67a5.255 5.255 0 0 1-5.256-5.255v-22.19a5.254 5.254 0 0 1 5.256-5.255h43.988a5.254 5.254 0 0 1 5.256 5.255z"/><path class="cls-1" d="M64.736 29.647a6.413 6.413 0 1 0 6.41 6.413 6.42 6.42 0 0 0-6.41-6.413zm0 8.825a2.413 2.413 0 1 1 2.41-2.412 2.416 2.416 0 0 1-2.41 2.412zM93.965 29.647a6.413 6.413 0 1 0 6.41 6.413 6.42 6.42 0 0 0-6.41-6.413zm0 8.825a2.413 2.413 0 1 1 2.41-2.412 2.415 2.415 0 0 1-2.41 2.412zM79.35 29.647a6.413 6.413 0 1 0 6.412 6.413 6.42 6.42 0 0 0-6.412-6.413zm0 8.825a2.413 2.413 0 1 1 2.412-2.412 2.415 2.415 0 0 1-2.412 2.412z"/></svg>