<svg id="Layer_1" data-name="Layer 1" xmlns="http://www.w3.org/2000/svg" viewBox="0 0 73.76 81.02"><defs><style>.cls-1{fill:#41494f;}</style></defs><title>ICN6+Holdem</title><path class="cls-1" d="M64.31,15.62V4.37A4.34,4.34,0,0,0,64,2.66,4.4,4.4,0,0,0,59.9,0H15.35a4.39,4.39,0,0,0-4.41,4.37V73.3A4.31,4.31,0,0,0,11.29,75a4.39,4.39,0,0,0,3.78,2.64l-4,.37a1.41,1.41,0,0,1-1.54-1.24L3,8.16a1.35,1.35,0,0,1,.31-1,1.44,1.44,0,0,1,1-.51l3.32-.41-.37-3L4,3.68A4.39,4.39,0,0,0,1,5.26,4.33,4.33,0,0,0,0,8.45L6.6,77.06A4.4,4.4,0,0,0,11,81l.41,0,36-3.33H59.9a4.39,4.39,0,0,0,4.4-4.37V62.13h-3V73.3a1.39,1.39,0,0,1-1.4,1.37H48.38v-.1l-1.11.1H15.35a1.4,1.4,0,0,1-1.3-.85,1.32,1.32,0,0,1-.11-.53V4.37A1.39,1.39,0,0,1,15.35,3H59.9a1.4,1.4,0,0,1,1.3.84,1.35,1.35,0,0,1,.11.53V15.62Z"/><path class="cls-1" d="M38.27,34.21a10.65,10.65,0,0,1,3.73.65,8.85,8.85,0,0,1,5.19,5A10.49,10.49,0,0,1,48,44a10.68,10.68,0,0,1-.82,4.21,10.29,10.29,0,0,1-2.3,3.38,10.61,10.61,0,0,1-3.56,2.26,12.33,12.33,0,0,1-4.57.82,12.11,12.11,0,0,1-4.47-.79,9.66,9.66,0,0,1-3.42-2.24,9.85,9.85,0,0,1-2.18-3.52,13.27,13.27,0,0,1-.77-4.63,12.44,12.44,0,0,1,1-4.57,23.24,23.24,0,0,1,3-5.21l8.3-11.18a2.54,2.54,0,0,1,.89-.7,2.86,2.86,0,0,1,1.3-.29H44L32.62,35.9a9.65,9.65,0,0,1,2.58-1.25A10.18,10.18,0,0,1,38.27,34.21Zm-8.46,10a8.66,8.66,0,0,0,.46,2.88A6.25,6.25,0,0,0,31.6,49.3a6,6,0,0,0,2.15,1.45,7.64,7.64,0,0,0,2.89.51,8,8,0,0,0,3-.53,6.72,6.72,0,0,0,2.28-1.46,6.47,6.47,0,0,0,1.46-2.22,7.42,7.42,0,0,0,.51-2.79,7.93,7.93,0,0,0-.5-2.89,6,6,0,0,0-3.61-3.58,8,8,0,0,0-2.81-.48,7.58,7.58,0,0,0-3,.56,6.82,6.82,0,0,0-2.25,1.51,6.56,6.56,0,0,0-1.42,2.2A7,7,0,0,0,29.8,44.18Z"/><path class="cls-1" d="M64.45,27.62v9.77h9.31v3.09H64.45v9.83H61.12V40.48H51.85V37.39h9.26V27.62Z"/></svg>