<svg id="Layer_1" data-name="Layer 1" xmlns="http://www.w3.org/2000/svg" viewBox="0 0 38.22 74.75"><defs><style>.cls-1{fill:#41494f;}</style></defs><title>ICNInstantPlay</title><path class="cls-1" d="M1.5,74.75A1.5,1.5,0,0,1,.15,72.59L15.31,41.82,1.49,41.76A1.5,1.5,0,0,1,.36,39.29L33.29.53a1.5,1.5,0,0,1,2.49,1.63L21.5,31.59H36.72a1.5,1.5,0,0,1,1.13,2.49L2.63,74.24A1.5,1.5,0,0,1,1.5,74.75Zm3.23-36,13,.05A1.5,1.5,0,0,1,19.06,41L7.87,63.72,33.41,34.6H19.11a1.5,1.5,0,0,1-1.35-2.16l10.17-21Z" transform="translate(0 0)"/></svg>