<svg id="Layer_1" data-name="Layer 1" xmlns="http://www.w3.org/2000/svg" viewBox="0 0 89.06 79.48"><defs><style>.cls-1{fill:#41494f;}</style></defs><title>ICNSchedule</title><path class="cls-1" d="M82.37,79.48H6.69A6.7,6.7,0,0,1,0,72.79V12.46A6.7,6.7,0,0,1,6.69,5.77H16.82V1.5a1.5,1.5,0,0,1,3,0V5.77H34.29V1.5a1.5,1.5,0,0,1,3,0V5.77H51.76V1.5a1.5,1.5,0,0,1,3,0V5.77H69.23V1.5a1.5,1.5,0,0,1,3,0V5.77H82.37a6.7,6.7,0,0,1,6.69,6.69V72.79A6.7,6.7,0,0,1,82.37,79.48ZM6.69,8.77A3.7,3.7,0,0,0,3,12.46V72.79a3.7,3.7,0,0,0,3.69,3.69H82.37a3.7,3.7,0,0,0,3.69-3.69V12.46a3.7,3.7,0,0,0-3.69-3.69H72.23v4.77a1.5,1.5,0,1,1-3,0V8.77H54.76v4.77a1.5,1.5,0,1,1-3,0V8.77H37.29v4.77a1.5,1.5,0,1,1-3,0V8.77H19.82v4.77a1.5,1.5,0,0,1-3,0V8.77ZM44.57,67.71a1.5,1.5,0,0,1-1.5-1.5V63.14a1.5,1.5,0,0,1,3,0v3.08A1.5,1.5,0,0,1,44.57,67.71Zm-13.81,0a1.5,1.5,0,0,1-1.5-1.5V63.14a1.5,1.5,0,1,1,3,0v3.08A1.5,1.5,0,0,1,30.75,67.71Zm-13.81,0a1.5,1.5,0,0,1-1.5-1.5V63.14a1.5,1.5,0,1,1,3,0v3.08A1.5,1.5,0,0,1,16.94,67.71ZM61.21,56.48h-6a4,4,0,0,1-4-4v-6a4,4,0,0,1,4-4h6a4,4,0,0,1,4,4v6A4,4,0,0,1,61.21,56.48Zm-6-11a1,1,0,0,0-1,1v6a1,1,0,0,0,1,1h6a1,1,0,0,0,1-1v-6a1,1,0,0,0-1-1Zm16.92,7a1.5,1.5,0,0,1-1.5-1.5V47.87a1.5,1.5,0,0,1,3,0v3.08A1.5,1.5,0,0,1,72.11,52.44Zm-27.62,0a1.5,1.5,0,0,1-1.5-1.5V47.87a1.5,1.5,0,0,1,3,0v3.08A1.5,1.5,0,0,1,44.49,52.44Zm-13.81,0a1.5,1.5,0,0,1-1.5-1.5V47.87a1.5,1.5,0,0,1,3,0v3.08A1.5,1.5,0,0,1,30.68,52.44Zm-13.73,0a1.5,1.5,0,0,1-1.5-1.5V47.87a1.5,1.5,0,0,1,3,0v3.08A1.5,1.5,0,0,1,16.94,52.44Zm41.44-15.3a1.5,1.5,0,0,1-1.5-1.5v-3a1.5,1.5,0,0,1,3,0v3A1.5,1.5,0,0,1,58.38,37.14Zm-13.81,0a1.5,1.5,0,0,1-1.5-1.5v-3a1.5,1.5,0,0,1,3,0v3A1.5,1.5,0,0,1,44.57,37.14Zm-13.81,0a1.5,1.5,0,0,1-1.5-1.5v-3a1.5,1.5,0,0,1,3,0v3A1.5,1.5,0,0,1,30.75,37.14Zm-13.81,0a1.5,1.5,0,0,1-1.5-1.5v-3a1.5,1.5,0,0,1,3,0v3A1.5,1.5,0,0,1,16.94,37.14Zm55.17,0a1.5,1.5,0,0,1-1.5-1.5v-3a1.5,1.5,0,0,1,3,0v3A1.5,1.5,0,0,1,72.12,37.09Z"/><rect class="cls-1" x="1.5" y="19.39" width="86.06" height="3"/></svg>