<svg id="Layer_1" data-name="Layer 1" xmlns="http://www.w3.org/2000/svg" viewBox="0 0 76.28 73.41"><defs><style>.cls-1{fill:#41494f;}</style></defs><title>ICNTournaments</title><path class="cls-1" d="M76,6.16a1.5,1.5,0,0,0-1.23-.64h-13v-4A1.5,1.5,0,0,0,60.32,0H16a1.5,1.5,0,0,0-1.5,1.5v4H1.5a1.5,1.5,0,0,0-1.41,2c3,8,7.79,13.73,14.37,17.17v11c0,11.23,9.82,20.44,22.18,21.13V70.41H17.89a1.5,1.5,0,1,0,0,3H58.39a1.5,1.5,0,1,0,0-3H39.64V56.84C52,56.15,61.82,46.94,61.82,35.71v-11c6.58-3.43,11.42-9.21,14.37-17.17A1.5,1.5,0,0,0,76,6.16ZM3.72,8.52H14.46V21.27A27.11,27.11,0,0,1,3.72,8.52Zm55.1,27.19c0,10-9.28,18.18-20.68,18.18S17.46,45.73,17.46,35.71V3H58.82Zm3-14.44V8.52H72.56A27.12,27.12,0,0,1,61.82,21.27Z"/></svg>