<svg id="Layer_1" data-name="Layer 1" xmlns="http://www.w3.org/2000/svg" viewBox="0 0 68.12879 68.1097"><defs><style>.cls-1{fill:#41494f;}</style></defs><title>Basketball</title><path class="cls-1" d="M34.058,68.1097A34.05485,34.05485,0,1,1,68.12879,34.05564,34.09445,34.09445,0,0,1,34.058,68.1097Zm9.62063-35.093c-7.32167,8.16728-17.803,15.71169-31.15291,22.424l-.82094.41286.66026.638a31.18157,31.18157,0,0,0,32.58956,6.82927l.63957-.23865-.26728-.62764c-5.42364-12.69679,1.66416-21.28965,1.968-21.64921.4232-.50354.85117-.96334,1.28074-1.40324l.358-.36433-.26888-.43434a51.04462,51.04462,0,0,0-3.99812-5.566l-.48207-.58548Zm5.77365,9.61347c-.25456.30865-6.17935,7.67248-1.56393,18.63033l.27683.66026.63162-.33967a31.3578,31.3578,0,0,0,6.36709-4.52394l.19569-.18058.00636-.40968a50.49827,50.49827,0,0,0-4.55656-14.00536l-.43434-.8631S49.51118,42.561,49.45232,42.63021ZM62.41877,36.209a15.96915,15.96915,0,0,0-9.41222,3.10559l-.4582.33172.26251.50036a52.65058,52.65058,0,0,1,4.7427,12.81611l.30547,1.33562.84322-1.08027a31.06446,31.06446,0,0,0,6.45141-16.14523l.05887-.6173L64.6,36.36495A15.10683,15.10683,0,0,0,62.41877,36.209Zm-59.232-6.90722a31.69806,31.69806,0,0,0-.35956,4.75384A30.886,30.886,0,0,0,9.43926,53.238l.32774.41763.47411-.23387C49.78324,33.87984,52.19993,13.042,52.28266,9.063l.00636-.25933-.2816-.28717A31.29126,31.29126,0,0,0,38.89619,3.20184l-.94663-.14876.21.93629a25.0193,25.0193,0,0,1-1.871,16.60741l-.24342.48684.43752.32695c1.486,1.1113,2.82557,2.19634,4.0904,3.31321-.59662.82253-1.17732,1.57427-1.73257,2.2385-1.21391-1.08186-2.48988-2.12475-3.8963-3.18513l-.47729-.358-.39934.44309c-2.74125,3.04036-8.65809,8.141-17.49278,8.14182A28.15218,28.15218,0,0,1,4.119,28.81576L3.322,28.4212ZM54.8155,12.12563c-.66026,3.97744-2.66329,10.27771-8.46081,17.70359l-.32615.41763.34365.4049a54.01147,54.01147,0,0,1,4.37041,5.92639l.36433.57355.55843-.389a18.2631,18.2631,0,0,1,10.6484-3.38082,18.75128,18.75128,0,0,1,2.229.13285l.7589.09148-.03023-.76367a31.08188,31.08188,0,0,0-9.35653-21.07487l-.89413-.87663Zm-43.42729.48207A31.39436,31.39436,0,0,0,4.154,25.05231l-.15432.51309.47252.25137a26.2708,26.2708,0,0,0,12.25529,3.37446,20.18429,20.18429,0,0,0,14.96154-6.8237,16.4669,16.4669,0,0,0,2.31805-3.50015,22.6376,22.6376,0,0,0,1.05-15.56213l-.13364-.463-.86231-.01671A30.91806,30.91806,0,0,0,15.02677,9.31676l-.97527.75253,1.171.38343a77.22963,77.22963,0,0,1,14.36015,6.41641,11.513,11.513,0,0,1-1.57188,2.33635,72.07875,72.07875,0,0,0-15.97181-6.77835l-.38024-.1066Z"/></svg>