<svg id="Layer_1" data-name="Layer 1" xmlns="http://www.w3.org/2000/svg" viewBox="0 0 69.23409 69.23424"><defs><style>.cls-1{fill:#41494f;}</style></defs><title>Football</title><path class="cls-1" d="M59.095,10.13919A34.61706,34.61706,0,0,0,10.13905,59.095,34.61706,34.61706,0,0,0,59.095,10.13919Zm7.35659,24.94233-7.16106-7.49118,1.502-11.11364a31.6087,31.6087,0,0,1,5.66469,18.14043C66.45727,34.77221,66.45382,34.92677,66.45162,35.08151ZM61.492,51.7102l-11.86883,2.111-5.94189-9.1436L47.8915,31.71974l9.47214-2.12657,8.81858,9.22509A31.49393,31.49393,0,0,1,61.492,51.7102ZM19.61582,53.81349,7.654,51.57248A31.49611,31.49611,0,0,1,3.04305,38.753l8.824-9.1606,9.4755,2.12734L25.55282,44.6776ZM28.08677,43.4902l-4.036-12.42153L34.617,23.39187l10.56629,7.6768L41.14738,43.4902Zm30.313-30.04214L56.57855,26.92358l-9.45479,2.12266-11.11837-8.0779V12.07754l12.61639-6.071a31.88683,31.88683,0,0,1,8.50968,6.09613Q57.78809,12.75926,58.39977,13.44806ZM45.20047,4.57134,34.617,9.66416,24.03352,4.57133a32.10623,32.10623,0,0,1,21.16695,0ZM20.61224,6.00649l12.61633,6.07105v8.89081l-11.1183,8.07789-9.45479-2.12267L10.8342,13.44817q.61338-.68735,1.26842-1.34555A31.8866,31.8866,0,0,1,20.61224,6.00649ZM8.4415,16.47669l1.50163,11.1104L2.78174,35.02166c-.00167-.13484-.00492-.26944-.00492-.40454A31.60875,31.60875,0,0,1,8.4415,16.47669Zm1.57993,38.36448,9.33922,1.74967,4.19089,7.89752A31.74036,31.74036,0,0,1,12.10262,57.1316Q11.00065,56.02963,10.02143,54.84117ZM27.29218,65.61339,21.88324,55.42051,27.83155,46.267h13.571l5.94584,9.14968L41.866,65.63135a32.21263,32.21263,0,0,1-14.5738-.018Zm29.83928-8.4818a31.73833,31.73833,0,0,1-11.51311,7.38058l4.24747-7.91367,9.25282-1.64571Q58.18008,56.0796,57.13145,57.1316Z"/></svg>