<svg id="Layer_1" data-name="Layer 1" xmlns="http://www.w3.org/2000/svg" viewBox="0 0 64.87096 51.08643"><defs><style>.cls-1{fill:#41494f}</style></defs><title>Connect</title><path class="cls-1" d="M4.74 32.628a8.02 8.02 0 0 1-2.04-.23 3.28 3.28 0 0 1-1.53-.872 3.73 3.73 0 0 1-.896-1.647A9.409 9.409 0 0 1 0 27.406v-1.13A9.14 9.14 0 0 1 .284 23.8a3.79 3.79 0 0 1 .897-1.633 3.262 3.262 0 0 1 1.53-.861 8.066 8.066 0 0 1 2.028-.23 5.289 5.289 0 0 1 3.276.853 3.527 3.527 0 0 1 1.13 2.945.323.323 0 0 1-.323.321H7.189a.322.322 0 0 1-.323-.321 2.923 2.923 0 0 0-.11-.866 1.098 1.098 0 0 0-.315-.506 1.43 1.43 0 0 0-.607-.294 4.69 4.69 0 0 0-1.095-.106 4.686 4.686 0 0 0-1.222.136 1.3 1.3 0 0 0-.694.437 2.204 2.204 0 0 0-.406.932 8.123 8.123 0 0 0-.14 1.668v1.131a8.296 8.296 0 0 0 .14 1.68 2.224 2.224 0 0 0 .406.942 1.298 1.298 0 0 0 .694.437 4.67 4.67 0 0 0 1.222.135 4.714 4.714 0 0 0 1.095-.104 1.417 1.417 0 0 0 .607-.296 1.087 1.087 0 0 0 .315-.505 3.006 3.006 0 0 0 .11-.886.323.323 0 0 1 .323-.322h1.633a.323.323 0 0 1 .323.322 3.554 3.554 0 0 1-1.13 2.966 5.292 5.292 0 0 1-3.276.853zM14.484 32.628a7.87 7.87 0 0 1-2.074-.243 3.212 3.212 0 0 1-1.52-.884 3.754 3.754 0 0 1-.862-1.646 9.68 9.68 0 0 1-.262-2.449v-1.13a9.268 9.268 0 0 1 .273-2.432 3.863 3.863 0 0 1 .872-1.641 3.229 3.229 0 0 1 1.52-.886 7.847 7.847 0 0 1 2.053-.241 7.792 7.792 0 0 1 2.065.242 3.3 3.3 0 0 1 1.517.882 3.81 3.81 0 0 1 .885 1.644 9.277 9.277 0 0 1 .273 2.431v1.131a9.36 9.36 0 0 1-.273 2.451 3.855 3.855 0 0 1-.873 1.645 3.217 3.217 0 0 1-1.519.883 7.878 7.878 0 0 1-2.075.243zm0-9.526a4.468 4.468 0 0 0-1.238.144 1.335 1.335 0 0 0-.689.438 2.143 2.143 0 0 0-.384.929 8.76 8.76 0 0 0-.13 1.662v1.131a8.892 8.892 0 0 0 .13 1.685 2.137 2.137 0 0 0 .384.928 1.326 1.326 0 0 0 .689.438 4.538 4.538 0 0 0 1.238.144 4.532 4.532 0 0 0 1.238-.144 1.394 1.394 0 0 0 .703-.442 2.062 2.062 0 0 0 .392-.924 8.953 8.953 0 0 0 .13-1.685v-1.13a8.838 8.838 0 0 0-.13-1.664 2.065 2.065 0 0 0-.393-.924 1.393 1.393 0 0 0-.701-.442 4.477 4.477 0 0 0-1.239-.144zM26.913 32.398a.322.322 0 0 1-.322-.322v-6.972a3.743 3.743 0 0 0-.122-1.05 1.365 1.365 0 0 0-.317-.576 1.114 1.114 0 0 0-.53-.28 3.82 3.82 0 0 0-.906-.096 4.008 4.008 0 0 0-1.386.253 4.505 4.505 0 0 0-1.16.63v8.09a.322.322 0 0 1-.323.323h-1.632a.321.321 0 0 1-.322-.322V21.608a.322.322 0 0 1 .322-.323h1.089a.32.32 0 0 1 .3.212l.232.626a6.663 6.663 0 0 1 1.329-.711 5.417 5.417 0 0 1 1.969-.336 5.94 5.94 0 0 1 1.64.2 2.651 2.651 0 0 1 1.2.706 3 3 0 0 1 .684 1.276 6.996 6.996 0 0 1 .211 1.846v6.972a.322.322 0 0 1-.323.322zM36.711 32.398a.322.322 0 0 1-.322-.322v-6.972a3.739 3.739 0 0 0-.123-1.05 1.36 1.36 0 0 0-.317-.576 1.108 1.108 0 0 0-.53-.28 3.82 3.82 0 0 0-.906-.096 4.014 4.014 0 0 0-1.386.253 4.481 4.481 0 0 0-1.159.63v8.09a.322.322 0 0 1-.324.322h-1.632a.321.321 0 0 1-.322-.321V21.608a.322.322 0 0 1 .322-.323h1.09a.322.322 0 0 1 .301.212l.231.626a6.606 6.606 0 0 1 1.328-.711 5.42 5.42 0 0 1 1.97-.336 5.947 5.947 0 0 1 1.64.2 2.647 2.647 0 0 1 1.2.706 3 3 0 0 1 .684 1.276 7.018 7.018 0 0 1 .21 1.846v6.972a.322.322 0 0 1-.323.321zM44.242 32.607a8.561 8.561 0 0 1-2.046-.219 3.29 3.29 0 0 1-1.54-.837 3.739 3.739 0 0 1-.92-1.623 8.995 8.995 0 0 1-.297-2.522v-1.13a9.136 9.136 0 0 1 .285-2.476 3.738 3.738 0 0 1 .91-1.635 3.338 3.338 0 0 1 1.515-.858 7.697 7.697 0 0 1 1.989-.231 7.281 7.281 0 0 1 1.938.23 3.252 3.252 0 0 1 1.464.85 3.677 3.677 0 0 1 .875 1.626 9.391 9.391 0 0 1 .274 2.473v1.214a.322.322 0 0 1-.322.323h-6.646a7.568 7.568 0 0 0 .126 1.299 1.958 1.958 0 0 0 .399.903 1.46 1.46 0 0 0 .733.442 4.861 4.861 0 0 0 1.285.144 14.538 14.538 0 0 0 1.934-.112c.555-.076 1.1-.169 1.62-.279a.328.328 0 0 1 .068-.006.321.321 0 0 1 .321.322v1.397a.322.322 0 0 1-.248.314 15.387 15.387 0 0 1-1.668.283 17.714 17.714 0 0 1-2.049.108zm2.166-6.716a9.57 9.57 0 0 0-.097-1.24 2.249 2.249 0 0 0-.334-.927 1.23 1.23 0 0 0-.627-.463 3.79 3.79 0 0 0-1.212-.16 4.234 4.234 0 0 0-1.234.153 1.34 1.34 0 0 0-.688.462 2.169 2.169 0 0 0-.379.924 7.681 7.681 0 0 0-.116 1.25zM54.05 32.628a8.017 8.017 0 0 1-2.04-.23 3.289 3.289 0 0 1-1.53-.872 3.738 3.738 0 0 1-.896-1.647 9.449 9.449 0 0 1-.274-2.473v-1.13a9.117 9.117 0 0 1 .286-2.476 3.789 3.789 0 0 1 .895-1.633 3.263 3.263 0 0 1 1.53-.861 8.056 8.056 0 0 1 2.03-.23 5.29 5.29 0 0 1 3.275.853 3.531 3.531 0 0 1 1.128 2.945.322.322 0 0 1-.321.321H56.5a.322.322 0 0 1-.323-.321 2.877 2.877 0 0 0-.111-.866 1.096 1.096 0 0 0-.314-.506 1.435 1.435 0 0 0-.608-.294 5.623 5.623 0 0 0-2.317.03 1.292 1.292 0 0 0-.693.437 2.216 2.216 0 0 0-.407.932 8.166 8.166 0 0 0-.138 1.668v1.131a8.261 8.261 0 0 0 .14 1.68 2.224 2.224 0 0 0 .404.942 1.295 1.295 0 0 0 .694.437 5.668 5.668 0 0 0 2.317.03 1.426 1.426 0 0 0 .608-.295 1.092 1.092 0 0 0 .314-.504 2.959 2.959 0 0 0 .11-.887.323.323 0 0 1 .324-.322h1.633a.322.322 0 0 1 .321.322 3.557 3.557 0 0 1-1.128 2.966 5.291 5.291 0 0 1-3.275.853zM62.852 32.628a2.776 2.776 0 0 1-2.154-.765 3.284 3.284 0 0 1-.68-2.258V23.31H58.98a.32.32 0 0 1-.322-.322v-1.13a.32.32 0 0 1 .264-.317l1.097-.202v-2.286a.323.323 0 0 1 .269-.319l1.632-.272a.406.406 0 0 1 .054-.004.323.323 0 0 1 .322.323v2.503h2.043a.322.322 0 0 1 .323.323v1.38a.322.322 0 0 1-.323.323h-2.043v6.332a1.206 1.206 0 0 0 .193.746.807.807 0 0 0 .656.211 3.317 3.317 0 0 0 .706-.065l.63-.137a.322.322 0 0 1 .39.316v1.365a.323.323 0 0 1-.223.306 4.694 4.694 0 0 1-.82.178 7.184 7.184 0 0 1-.976.064zM56.152 36.994a19.415 19.415 0 0 1-26.084 10.984 20.716 20.716 0 0 0 7.432-2.649 20.91 20.91 0 0 0 12.03-7.797q.346-.262.681-.538h-2.413a19.424 19.424 0 0 1-3.472 1.862 20.946 20.946 0 0 0 1.1-1.862h-1.634a19.522 19.522 0 0 1-1.836 2.66 19.39 19.39 0 0 1-15.8-2.66h-2.398a20.818 20.818 0 0 0 16.487 4.487 19.552 19.552 0 0 1-3.276 2.497 19.365 19.365 0 0 1-15.264-3.1 19.363 19.363 0 0 1-1.963-3.884h-1.533c.146.423.3.842.471 1.252-.375-.401-.731-.82-1.072-1.252H15.82a21.062 21.062 0 0 0 4.827 4.893 21.038 21.038 0 0 0 4.507 4.806 19.463 19.463 0 0 1-15.085-9.699H8.435a20.885 20.885 0 0 0 18.495 11.22c.15 0 .296-.008.444-.011a20.845 20.845 0 0 0 30.3-11.209zm-13.388 3.922a20.7 20.7 0 0 0 2.273-.797 19.477 19.477 0 0 1-3.805 2.403 21.082 21.082 0 0 0 1.532-1.606zm-18.533 3.06a20.736 20.736 0 0 0 8.618 1.877 19.323 19.323 0 0 1-5.095.904 19.561 19.561 0 0 1-3.523-2.781zM12.748 14.092a19.528 19.528 0 0 1 5.817-4.284 21.053 21.053 0 0 0-3.481 4.284h1.703q.448-.658.946-1.278c-.175.419-.333.846-.481 1.278h1.521a19.433 19.433 0 0 1 2.573-4.744c.478-.353.972-.686 1.482-.995a19.361 19.361 0 0 1 11.975 1.232 20.77 20.77 0 0 0-10.09 4.507h2.409a19.306 19.306 0 0 1 9.995-3.286 19.58 19.58 0 0 1 4 3.286h1.914a21.087 21.087 0 0 0-3.315-3.222 19.292 19.292 0 0 1 9.032 3.222h2.414c-.327-.268-.66-.528-1.003-.776a20.853 20.853 0 0 0-25.347-7.58 19.406 19.406 0 0 1 30.376 8.356h1.528A20.848 20.848 0 0 0 21.15 7.298a20.935 20.935 0 0 0-10.323 6.794zm20.119-8.539a19.371 19.371 0 0 1 13.709 5.674A20.738 20.738 0 0 0 37.94 9.35c-.15 0-.296.008-.444.011a20.735 20.735 0 0 0-10.548-2.883 19.354 19.354 0 0 1 5.918-.924z"/></svg>