<svg id="Layer_1" data-name="Layer 1" xmlns="http://www.w3.org/2000/svg" viewBox="0 0 16.40002 19.97998"><defs><style>.cls-1{fill:#41494e}</style></defs><title>Contact_Us</title><path class="cls-1" d="M12.27 12.15a1.113 1.113 0 0 0-.67-.55 1.26 1.26 0 0 0-.33-.05 1.095 1.095 0 0 0-.53.13.99.99 0 0 1-.41.1 1.085 1.085 0 0 1-.25-.04.85.85 0 0 1-.51-.42l-1.4-2.63a.867.867 0 0 1-.06-.67.858.858 0 0 1 .43-.52A1.13 1.13 0 0 0 9 5.98l-.5-.94a1.106 1.106 0 0 0-.65-.53 1.06 1.06 0 0 0-.83.08l-.27.14a2.56 2.56 0 0 0-1.12 1.18 2.882 2.882 0 0 0 .06 2.56l2.67 5.02a2.876 2.876 0 0 0 2.09 1.48 2.559 2.559 0 0 0 .39.03 2.665 2.665 0 0 0 1.2-.3l.27-.14a1.071 1.071 0 0 0 .53-.65 1.047 1.047 0 0 0-.08-.83zm-.07 1.56a.388.388 0 0 1-.2.25l-.27.14a1.985 1.985 0 0 1-.89.22 2.64 2.64 0 0 1-.29-.02 2.192 2.192 0 0 1-1.59-1.13L6.29 8.15a2.193 2.193 0 0 1-.05-1.95 1.87 1.87 0 0 1 .82-.87l.27-.14a.455.455 0 0 1 .2-.05c.04 0 .08.01.15.01a.388.388 0 0 1 .25.2l.5.94a.502.502 0 0 1 .03.34.456.456 0 0 1-.22.27 1.542 1.542 0 0 0-.76.92A1.479 1.479 0 0 0 7.59 9l1.4 2.63a1.542 1.542 0 0 0 .91.75 1.367 1.367 0 0 0 .45.07 1.536 1.536 0 0 0 .72-.18.499.499 0 0 1 .21-.05.447.447 0 0 1 .4.24l.49.93a.442.442 0 0 1 .03.32z"/><path class="cls-1" d="M14.68 0H3.13A1.748 1.748 0 0 0 1.4 1.75v4.16H.34a.34.34 0 1 0 0 .68H1.4v6.47H.34a.34.34 0 1 0 0 .68h1.07v4.48a1.733 1.733 0 0 0 1.72 1.75v.01h11.55a1.74 1.74 0 0 0 1.72-1.75V1.75A1.733 1.733 0 0 0 14.68 0zm1.03 18.22a1.052 1.052 0 0 1-1.04 1.07H3.12a1.059 1.059 0 0 1-1.04-1.07v-4.47h1.06a.34.34 0 1 0 0-.68H2.08V6.59h1.06a.335.335 0 1 0 .01-.67H2.09V1.75A1.052 1.052 0 0 1 3.13.68h11.54a1.059 1.059 0 0 1 1.04 1.07z"/></svg>