<svg id="Layer_1" data-name="Layer 1" xmlns="http://www.w3.org/2000/svg" viewBox="0 0 76.97 76.97"><defs><style>.cls-1{fill:#41494f}</style></defs><title>ICNHelp</title><path class="cls-1" d="M37.43 77a6.76 6.76 0 0 1-5.95-3.56v-.07h-.08A35.52 35.52 0 0 1 2.82 45.09V45h-.05A6.78 6.78 0 0 1 0 39.55v-2.12A6.78 6.78 0 0 1 2.75 32h.05v-.07A35.52 35.52 0 0 1 31.36 3.64h.08v-.07A6.75 6.75 0 0 1 37.43 0h2.12a6.78 6.78 0 0 1 6.15 4v.08h.08a35.52 35.52 0 0 1 26.39 26.79v.09h.09A6.74 6.74 0 0 1 77 37.43v2.12A6.74 6.74 0 0 1 72.28 46h-.09v.09a35.52 35.52 0 0 1-26.38 26.83h-.08V73a6.78 6.78 0 0 1-6.15 4zm0-20.2a3.81 3.81 0 0 0-3.8 3.8v9.64a3.81 3.81 0 0 0 3.8 3.8h2.12a3.81 3.81 0 0 0 3.8-3.8v-9.66a3.81 3.81 0 0 0-3.8-3.8zM6.15 46.5a32.23 32.23 0 0 0 24.32 23.64h.21v-9.56a6.77 6.77 0 0 1 .13-1.31v-.15h-.14a22 22 0 0 1-13.31-12.76v-.12h-.13a6.64 6.64 0 0 1-.78 0H6.1zM58 46a21.74 21.74 0 0 1-11.88 12.46l-.14.06v.14a6.73 6.73 0 0 1 .28 1.91v9.17l.22-.06A32.47 32.47 0 0 0 69 46.51l.05-.21h-8.47a6.69 6.69 0 0 1-2.37-.43l-.21-.06zM32 20.58a19 19 0 0 0-11.87 11.06v.13l.11.08a6.76 6.76 0 0 1 3 5.59v2.12a6.76 6.76 0 0 1-3 5.59l-.11.08v.13A19 19 0 0 0 32 56.39h.11l.07-.09a6.73 6.73 0 0 1 5.25-2.52h2.12a6.7 6.7 0 0 1 4.84 2l.08.08h.1A18.65 18.65 0 0 0 55.5 44.12v-.09l-.04-.03a6.75 6.75 0 0 1-1.64-4.41v-2.16A6.73 6.73 0 0 1 55.46 33l.06-.07v-.09a18.65 18.65 0 0 0-10.95-11.78h-.1l-.08.08a6.69 6.69 0 0 1-4.84 2h-2.12a6.73 6.73 0 0 1-5.25-2.52l-.07-.09zm28.59 13a3.8 3.8 0 0 0-3.8 3.8v2.12a3.81 3.81 0 0 0 3.8 3.8h9.64a3.81 3.81 0 0 0 3.8-3.8v-2.07a3.81 3.81 0 0 0-3.8-3.8zm-53.82 0A3.81 3.81 0 0 0 3 37.43v2.12a3.81 3.81 0 0 0 3.8 3.8h9.6a3.81 3.81 0 0 0 3.8-3.8v-2.12a3.81 3.81 0 0 0-3.8-3.8zM46.3 16.4a6.71 6.71 0 0 1-.3 1.91v.14l.14.06A21.73 21.73 0 0 1 58 31l.06.16.16-.06a6.7 6.7 0 0 1 2.37-.43h8.52l-.11-.21A32.47 32.47 0 0 0 46.52 7.29l-.22-.06zM16.4 30.67a6.85 6.85 0 0 1 .79 0h.13v-.12A22 22 0 0 1 30.69 17.9h.14v-.15a6.74 6.74 0 0 1-.13-1.31V6.78h-.21a32.21 32.21 0 0 0-24.34 23.7l-.06.22H16.4zM37.43 3a3.81 3.81 0 0 0-3.8 3.8v9.6a3.81 3.81 0 0 0 3.8 3.8h2.12a3.81 3.81 0 0 0 3.8-3.8V6.75A3.81 3.81 0 0 0 39.55 3z"/></svg>