<svg id="Layer_1" data-name="Layer 1" xmlns="http://www.w3.org/2000/svg" viewBox="0 0 85.33 65.13"><defs><style>.cls-1{fill:#41494f}</style></defs><title>ICNLiveScores</title><path class="cls-1" d="M77 7.89h-3.88V1.73a1.73 1.73 0 0 0-3.47 0v6.16h-54V1.73a1.73 1.73 0 0 0-3.47 0v6.16H8.36A8.37 8.37 0 0 0 0 16.25v40.52a8.37 8.37 0 0 0 8.36 8.36H77a8.37 8.37 0 0 0 8.36-8.36V16.25A8.37 8.37 0 0 0 77 7.89zm4.9 8.36v6.82H44.4V11.35H77a4.9 4.9 0 0 1 4.9 4.89zm-73.54-4.9h32.57v11.72H3.47v-6.82a4.9 4.9 0 0 1 4.9-4.89zM3.47 56.77V26.54h37.46v35.12H8.36a4.9 4.9 0 0 1-4.9-4.9zM77 61.66H44.4V26.54h37.46v30.23a4.9 4.9 0 0 1-4.9 4.9zm0 0"/><path class="cls-1" d="M22.41 31.61H22a7.53 7.53 0 0 0-7.52 7.52V49A7.53 7.53 0 0 0 22 56.53h.42A7.53 7.53 0 0 0 29.93 49v-9.87a7.53 7.53 0 0 0-7.52-7.52zM26.47 49a4.06 4.06 0 0 1-4.06 4.05H22A4.06 4.06 0 0 1 17.94 49v-9.87A4.06 4.06 0 0 1 22 35.07h.42a4.06 4.06 0 0 1 4.06 4.05zm0 0M63.36 31.61h-.42a7.53 7.53 0 0 0-7.52 7.52V49a7.53 7.53 0 0 0 7.52 7.52h.42A7.53 7.53 0 0 0 70.88 49v-9.87a7.53 7.53 0 0 0-7.52-7.52zM67.41 49a4.06 4.06 0 0 1-4.05 4.05h-.42A4.06 4.06 0 0 1 58.88 49v-9.87a4.06 4.06 0 0 1 4.05-4.05h.42a4.06 4.06 0 0 1 4.05 4.05zm0 0"/></svg>