<svg id="Layer_1" data-name="Layer 1" xmlns="http://www.w3.org/2000/svg" viewBox="0 0 77.99 68.82"><defs><style>.cls-1{fill:#41494f}</style></defs><title>ICNNews-Blog</title><path class="cls-1" d="M30.17 54.7H12.35a1.76 1.76 0 1 0 0 3.53h17.82a1.76 1.76 0 0 0 0-3.53zm0 0M56.82 54.7H39a1.76 1.76 0 1 0 0 3.53h17.82a1.76 1.76 0 1 0 0-3.53zm0 0M56.82 10.59H12.35a1.76 1.76 0 0 0 0 3.53h44.47a1.76 1.76 0 1 0 0-3.53zm0 0M56.82 19.41H39a1.76 1.76 0 1 0 0 3.53h17.82a1.76 1.76 0 1 0 0-3.53zm0 0M56.82 28.23H39a1.76 1.76 0 1 0 0 3.53h17.82a1.76 1.76 0 1 0 0-3.53zm0 0M56.82 37.05H39a1.76 1.76 0 0 0 0 3.53h17.82a1.76 1.76 0 1 0 0-3.53zm0 0M56.82 45.88H39a1.76 1.76 0 1 0 0 3.53h17.82a1.76 1.76 0 1 0 0-3.53zm0 0M30.17 45.88H12.35a1.76 1.76 0 1 0 0 3.53h17.82a1.76 1.76 0 0 0 0-3.53zm0 0M30.17 19.41H12.35a1.76 1.76 0 0 0-1.76 1.76V39a1.76 1.76 0 0 0 1.76 1.76h17.82A1.76 1.76 0 0 0 31.94 39V21.17a1.76 1.76 0 0 0-1.76-1.76zm-1.76 17.82H14.12V22.94h14.29zm0 0"/><path class="cls-1" d="M74.46 8.82h-5.29V3.53A3.53 3.53 0 0 0 65.64 0H3.53A3.53 3.53 0 0 0 0 3.53V60a8.83 8.83 0 0 0 8.82 8.82h60.35A8.83 8.83 0 0 0 78 60V12.35a3.53 3.53 0 0 0-3.53-3.53zm0 51.17a5.3 5.3 0 0 1-5.29 5.29H8.82A5.3 5.3 0 0 1 3.53 60V3.53h62.11v53.82a4.42 4.42 0 0 0 4.41 4.41 1.76 1.76 0 1 0 0-3.53.88.88 0 0 1-.88-.88v-45h5.29zm0 0"/></svg>