<svg id="Layer_1" data-name="Layer 1" xmlns="http://www.w3.org/2000/svg" viewBox="0 0 62.43 74.31"><defs><style>.cls-1{fill:#41494f}</style></defs><title>ICNResults</title><path class="cls-1" d="M62.42 19.14v-.06V19v-.14-.06a.46.46 0 0 0-.06-.12v-.08L48.42.59l-.09-.1a.42.42 0 0 0-.12-.11L48 .24a.62.62 0 0 0-.11-.06H1.52A1.53 1.53 0 0 0 0 1.52v71.27a1.53 1.53 0 0 0 1.52 1.52h59.39a1.53 1.53 0 0 0 1.52-1.52V19.23v-.09zm-4.6-1.25h-9.06L48.73 6zm1.57 53.39H3V3.06h42.68v16.35a1.53 1.53 0 0 0 1.52 1.52h12.19zm0 0"/><path class="cls-1" d="M14.89 47v-2.21l2-1.82c3.41-3 5.06-4.8 5.11-6.62 0-1.27-.77-2.28-2.57-2.28a5.65 5.65 0 0 0-3.34 1.3l-1-2.62a8.63 8.63 0 0 1 5.11-1.61c3.53 0 5.47 2.06 5.47 4.9 0 2.62-1.9 4.7-4.15 6.72L20.07 44H26v3zM34.21 39.49v2.42h-6.29v-2.42zM47.46 39.13c0 4.83-1.94 8.14-5.93 8.14s-5.81-3.62-5.83-8 1.92-8.09 6-8.09 5.76 3.67 5.76 7.95zm-8.09.1c0 3.58.84 5.28 2.26 5.28s2.18-1.78 2.18-5.33-.74-5.28-2.21-5.28-2.25 1.7-2.23 5.32z"/></svg>