<svg id="Layer_1" data-name="Layer 1" xmlns="http://www.w3.org/2000/svg" viewBox="0 0 58.68 57.48"><defs><style>.cls-1{fill:#41494f}</style></defs><title>ICNStatistics</title><path class="cls-1" d="M52.75 12.84a.8.8 0 0 0 1.52 0l4.35-11.72a.8.8 0 0 0-1.09-1L46.19 5.46A.8.8 0 0 0 46.36 7l3.42.75L40 18.36l-9.84-5.07a2.1 2.1 0 0 0-2.15.13L2.61 30.7V1.31a1.31 1.31 0 1 0-2.61 0v54.86a1.31 1.31 0 0 0 1.31 1.31h54.86a1.31 1.31 0 0 0 0-2.61H2.61v-21l26.64-18.12 9.91 5.11a2.11 2.11 0 0 0 2.52-.45l10-10.92z"/><path class="cls-1" d="M13.78 34.13v14.34h-3.35V36.4l3.35-2.28m2-3.78l-7.35 5v15.13h7.35V30.35zM24.93 26.55v21.92h-3.35V28.83l3.35-2.28m2-3.78l-7.35 5v22.7h7.35v-27.7zM32.73 25.14l3.35 1.72v21.6h-3.35V25.14m-2-3.28v28.61h7.35V25.65l-7.35-3.79zM47.22 23.06v25.41h-3.35V26.7l3.35-3.64m2-5.13l-7.35 8v24.54h7.35V17.92z"/></svg>