<svg id="Layer_1" data-name="Layer 1" xmlns="http://www.w3.org/2000/svg" viewBox="0 0 140 139.99756"><defs><style>.cls-1{fill:#41494f}</style></defs><title>Alert</title><path class="cls-1" d="M70 0A69.999 69.999 0 1 1 0 69.999 70.078 70.078 0 0 1 70 0zm0 134.613A64.615 64.615 0 1 0 5.387 70 64.687 64.687 0 0 0 70 134.613z"/><path class="cls-1" d="M63.88 99.451a6.301 6.301 0 0 1 1.744-4.378 6.146 6.146 0 0 1 6.763-1.328 6.401 6.401 0 0 1 1.965 1.328 6.064 6.064 0 0 1 1.304 1.97 6.24 6.24 0 0 1 .465 2.408 6.03 6.03 0 0 1-1.77 4.378 5.942 5.942 0 0 1-1.964 1.304 6.493 6.493 0 0 1-4.822 0 5.682 5.682 0 0 1-1.94-1.304 6.26 6.26 0 0 1-1.277-1.945 6.162 6.162 0 0 1-.469-2.433zM74.303 34.4v28.124c0 1.472-.024 2.92-.076 4.33q-.072 2.112-.22 4.25c-.096 1.424-.22 2.888-.368 4.377s-.32 3.09-.517 4.794h-5.95q-.294-2.557-.516-4.794a138.43 138.43 0 0 1-.369-4.378q-.15-2.137-.22-4.25a117.683 117.683 0 0 1-.076-4.33V34.4z"/></svg>