<svg id="Layer_1" data-name="Layer 1" xmlns="http://www.w3.org/2000/svg" viewBox="0 0 30.06994 38"><defs><style>.cls-1{fill:#41494e}</style></defs><title>Bin</title><path id="Icon_-_Bin" data-name="Icon - Bin" class="cls-1" d="M24.784 34.622a1.13 1.13 0 0 1-1.067 1.074H6.931a1.226 1.226 0 0 1-1.136-1.119l-1.4-24.113h-2.2l1.4 24.253A3.461 3.461 0 0 0 6.931 38h16.786a3.374 3.374 0 0 0 3.263-3.284l.916-24.248h-2.2zM13.942 10.464v22.559h2.2V10.464zm5.673 0l-.588 22.559h2.2l.587-22.559h-2.199zm-9.013 0h-2.2l.608 22.559h2.2zm18.306-4.9H21.74V3.285A3.225 3.225 0 0 0 18.6 0h-7.2a3.225 3.225 0 0 0-3.139 3.285v2.279H1.093a1.151 1.151 0 0 0 0 2.3H28.91a1.151 1.151 0 1 0-.002-2.302zm-18.45-2.279a.977.977 0 0 1 .94-.986h7.2a.978.978 0 0 1 .943.986v2.279h-9.084V3.285z" transform="translate(.01)"/></svg>