<svg id="Layer_1" data-name="Layer 1" xmlns="http://www.w3.org/2000/svg" viewBox="0 0 30 27.99994"><defs><style>.cls-1{fill:#41494e}</style></defs><title>FavOff</title><path class="cls-1" d="M30 10.695L19.635 9.217 15 0l-4.635 9.217L0 10.695l7.5 7.174L5.73 28 15 23.218 24.27 28 22.5 17.87zM15.917 21.44L15 20.966l-.917.474-5.69 2.935 1.077-6.161.184-1.052-.771-.738-4.527-4.33 6.291-.897 1.035-.148.47-.933L15 4.45l2.849 5.665.47.933 1.034.148 6.291.897-4.527 4.33-.77.738.183 1.052 1.077 6.161z"/></svg>