<svg id="Layer_1" data-name="Layer 1" xmlns="http://www.w3.org/2000/svg" viewBox="0 0 20.06689 18.58594"><defs><style>.cls-1{fill:#41494e}</style></defs><title>Filters</title><path class="cls-1" d="M12.893 15.346H.75a.75.75 0 0 0 0 1.5h12.143a2.474 2.474 0 0 0 4.725 0h1.699a.75.75 0 0 0 0-1.5h-1.699a2.474 2.474 0 0 0-4.725 0zm3.353.75a.99.99 0 1 1-.99-.992.992.992 0 0 1 .99.992zM2.449 8.543H.75a.75.75 0 0 0 0 1.5h1.699a2.474 2.474 0 0 0 4.725 0h12.143a.75.75 0 0 0 0-1.5H7.174a2.474 2.474 0 0 0-4.725 0zm3.353.75a.99.99 0 1 1-.99-.99.992.992 0 0 1 .99.99zM11.774 0a2.485 2.485 0 0 0-2.362 1.741H.75a.75.75 0 0 0 0 1.5h8.662a2.474 2.474 0 0 0 4.725 0h5.18a.75.75 0 0 0 0-1.5h-5.18A2.485 2.485 0 0 0 11.774 0zm.99 2.491a.99.99 0 1 1-.99-.991.992.992 0 0 1 .99.991z"/></svg>