<svg id="Layer_1" data-name="Layer 1" xmlns="http://www.w3.org/2000/svg" viewBox="0 0 61.8672 66.77637"><defs><style>.cls-1{fill:#41494f}</style></defs><title>LogOut</title><path class="cls-1" d="M12.274 66.776A12.288 12.288 0 0 1 0 54.503V12.274A12.288 12.288 0 0 1 12.274 0h17.807a1.726 1.726 0 0 1 1.724 1.725 1.706 1.706 0 0 1-1.724 1.724H12.274a8.835 8.835 0 0 0-8.825 8.825v42.229a8.835 8.835 0 0 0 8.825 8.824h17.522a1.725 1.725 0 0 1 0 3.45z"/><path class="cls-1" d="M47.901 47.373a1.73 1.73 0 0 1-1.213-.512 1.715 1.715 0 0 1 0-2.438l9.294-9.296h-39.53a1.726 1.726 0 0 1-1.724-1.725 1.706 1.706 0 0 1 1.724-1.723h39.53l-9.294-9.295a1.726 1.726 0 1 1 2.44-2.44L61.36 32.175a1.678 1.678 0 0 1 .507 1.201 1.75 1.75 0 0 1-.52 1.253L49.114 46.86a1.683 1.683 0 0 1-1.213.512z"/></svg>