<svg id="Layer_1" data-name="Layer 1" xmlns="http://www.w3.org/2000/svg" viewBox="0 0 45.0434 80"><defs><style>.cls-1{fill:#41494e}</style></defs><title>Medal</title><path class="cls-1" d="M32.375 37.222V30.66a2.965 2.965 0 0 0-2.962-2.962H15.63a2.965 2.965 0 0 0-2.962 2.962v6.56a22.522 22.522 0 1 0 19.707 0zM15.484 30.66a.15.15 0 0 1 .146-.147h13.783a.15.15 0 0 1 .147.147v5.419a22.613 22.613 0 0 0-14.076 0zm7.038 45.116A18.299 18.299 0 1 1 40.82 57.478a18.299 18.299 0 0 1-18.3 18.3z"/><circle class="cls-1" cx="22.522" cy="57.478" r="14.076"/><path class="cls-1" d="M44.98 0H31.977l-7.865 13.623 6.501 11.26L44.98 0zM15.771 24.883H27.369L13.003 0H0l14.366 24.883h1.405z"/></svg>