<svg id="Layer_1" data-name="Layer 1" xmlns="http://www.w3.org/2000/svg" viewBox="0 0 21.44525 21.44531"><defs><style>.cls-1{fill:#41494e}</style></defs><title>Play</title><path class="cls-1" d="M10.723 0a10.723 10.723 0 1 0 10.722 10.723A10.723 10.723 0 0 0 10.723 0zm6.554 17.277a9.269 9.269 0 1 1 2.714-6.554 9.235 9.235 0 0 1-2.714 6.554z"/><path class="cls-1" d="M14.453 9.098L9.908 6.067a1.953 1.953 0 0 0-3.037 1.625v6.06a1.952 1.952 0 0 0 3.037 1.627l4.545-3.031a1.952 1.952 0 0 0 0-3.25zm-.831 2.002l-4.546 3.03a.454.454 0 0 1-.705-.377V7.692a.443.443 0 0 1 .24-.4.47.47 0 0 1 .217-.055.44.44 0 0 1 .248.078l4.546 3.03a.453.453 0 0 1 0 .755z"/></svg>