<svg id="Layer_1" data-name="Layer 1" xmlns="http://www.w3.org/2000/svg" viewBox="0 0 71.75433 71.75305"><defs><style>.cls-1{fill:#41494f}</style></defs><title>Casino</title><circle class="cls-1" cx="36.157" cy="6.986" r="2.552"/><circle class="cls-1" cx="15.459" cy="56.676" r="2.552" transform="rotate(-45.005 15.459 56.676)"/><circle class="cls-1" cx="15.728" cy="15.447" r="2.553" transform="rotate(-44.995 15.728 15.447)"/><circle class="cls-1" cx="9.275" cy="25.032" r="2.552" transform="rotate(-67.496 9.275 25.032)"/><circle class="cls-1" cx="6.985" cy="35.969" r="2.552"/><circle class="cls-1" cx="46.875" cy="9.827" r="2.552" transform="rotate(-67.495 46.875 9.827)"/><circle class="cls-1" cx="9.171" cy="47.132" r="2.552" transform="rotate(-22.505 9.171 47.132)"/><circle class="cls-1" cx="56.318" cy="15.815" r="2.552" transform="rotate(-45 56.318 15.815)"/><circle class="cls-1" cx="24.762" cy="63.211" r="2.552" transform="rotate(-67.496 24.762 63.211)"/><circle class="cls-1" cx="25.08" cy="9.079" r="2.552" transform="rotate(-22.505 25.08 9.08)"/><circle class="cls-1" cx="62.658" cy="47.143" r="2.552" transform="rotate(-67.494 62.658 47.143)"/><path class="cls-1" d="M35.877 0a35.877 35.877 0 1 0 35.877 35.876A35.917 35.917 0 0 0 35.877 0zm0 68.993a33.117 33.117 0 1 1 33.116-33.117 33.154 33.154 0 0 1-33.116 33.117z"/><circle class="cls-1" cx="62.555" cy="25.019" r="2.553" transform="rotate(-22.51 62.555 25.02)"/><circle class="cls-1" cx="64.769" cy="35.968" r="2.553"/><circle class="cls-1" cx="56.587" cy="56.306" r="2.553" transform="rotate(-44.99 56.587 56.306)"/><circle class="cls-1" cx="36.157" cy="64.767" r="2.552"/><circle class="cls-1" cx="47.192" cy="62.46" r="2.553" transform="rotate(-22.493 47.192 62.46)"/><path class="cls-1" d="M35.877 13.777a22.1 22.1 0 1 0 22.1 22.2 22.107 22.107 0 0 0-22.1-22.2zm11.436 37.928l-1.936-2.728c-.4.3-.9.6-1.4.9-.5.2-1 .5-1.5.7l1.431 3.13a19.23 19.23 0 0 1-5.964 1.655l-.367-3.485a18.192 18.192 0 0 1-3.3 0l-.368 3.5a19.327 19.327 0 0 1-5.983-1.616l1.451-3.084c-.5-.3-1-.5-1.5-.8s-1-.6-1.4-.9l-1.984 2.795a19.644 19.644 0 0 1-4.41-4.403l2.794-1.892c-.3-.5-.6-.9-.9-1.4-.2-.5-.5-1-.7-1.5l-3.183 1.364a19.298 19.298 0 0 1-1.617-5.996l3.5-.368a8.08 8.08 0 0 1-.1-1.6 8.599 8.599 0 0 1 .1-1.6l-3.5-.369a19.327 19.327 0 0 1 1.621-5.994l3.18 1.363c.2-.5.5-1 .7-1.4.3-.5.6-1 .9-1.4l-2.797-1.985a19.645 19.645 0 0 1 4.41-4.414l1.986 2.798c.5-.3.9-.6 1.4-.9.5-.2 1-.5 1.5-.7L27.92 18.19a19.3 19.3 0 0 1 6-1.614l.357 3.4a18.192 18.192 0 0 1 3.3 0l.357-3.39a19.516 19.516 0 0 1 5.87 1.567l-1.427 3.123c.5.3 1 .5 1.5.8s1 .6 1.4.9l1.968-2.861a19.467 19.467 0 0 1 4.463 4.423l-2.73 1.938c.3.5.6.9.9 1.4.2.5.5 1 .7 1.5l3.112-1.423a19.025 19.025 0 0 1 1.605 6.064l-3.418.36a8.08 8.08 0 0 1 .1 1.6 8.6 8.6 0 0 1-.1 1.6l3.4.357a19.232 19.232 0 0 1-1.612 5.954l-3.088-1.411c-.3.5-.5 1-.8 1.5s-.6 1-.9 1.4l2.777 1.97a19.8 19.8 0 0 1-4.34 4.358z"/><path class="cls-1" d="M44.737 30.427a2.3 2.3 0 1 0-3.875-1.157l-2.98 2.933a4.279 4.279 0 0 0-3.977.001L30.95 29.25a2.298 2.298 0 1 0-1.813 1.787l2.968 2.968a4.28 4.28 0 0 0-.012 3.957l-2.97 2.97a2.302 2.302 0 1 0 1.806 1.794l2.953-2.954a4.28 4.28 0 0 0 4.023.001l2.952 2.907a2.294 2.294 0 1 0 1.796-1.727l-2.969-2.969a4.28 4.28 0 0 0-.012-4.001l2.94-2.941a2.293 2.293 0 0 0 2.125-.614z"/></svg>