<svg id="Layer_1" data-name="Layer 1" xmlns="http://www.w3.org/2000/svg" viewBox="0 0 67.93 49.41"><defs><style>.cls-1{fill:#41494f}</style></defs><title>ICNGames</title><path class="cls-1" d="M46 14.33L34 3 22 14.29h24zm1.22 2.53H20.78l13.32 28.3 13.09-28.3zM34.11 49.41a1.26 1.26 0 0 1-.89-.37L.37 16.42a1.26 1.26 0 0 1-.21-1.51L8.12.65A1.27 1.27 0 0 1 9.22 0l49.54.09a1.26 1.26 0 0 1 1.1.65L67.77 15a1.26 1.26 0 0 1-.21 1.51L35 49a1.26 1.26 0 0 1-.9.37zM9.32 3.69l-5.9 10.57h13L9.32 3.69zm21.47-1.12h-19.2L19 13.61l11.8-11zm25.6 0H37.2L49 13.66l7.43-11zm8.14 11.74L58.65 3.77l-7.11 10.57h13zM38.24 42.24l25.38-25.35L50 16.87 38.24 42.24zM4.34 16.79l25.57 25.4L18 16.81H4.38z"/></svg>