<svg id="Layer_1" data-name="Layer 1" xmlns="http://www.w3.org/2000/svg" viewBox="0 0 63.89746 60.49707"><defs><style>.cls-1{fill:#41494f}</style></defs><title>Lotto</title><path class="cls-1" d="M47.15 27a16.785 16.785 0 0 0-1.868.11 16.752 16.752 0 1 0-26.665-.533A16.747 16.747 0 1 0 31.82 50.47 16.744 16.744 0 1 0 47.15 27zM30.408 43.902a13.529 13.529 0 1 1 .027-.839c-.01.23-.035.455-.035.686 0 .052.007.101.008.153zM18.454 16.749A13.695 13.695 0 1 1 32.15 30.443 13.711 13.711 0 0 1 18.454 16.75zm13.624 19.744a16.738 16.738 0 0 0-1.798-3.107 15.786 15.786 0 0 0 3.737 0 16.773 16.773 0 0 0-1.94 3.107zm1.41 6.57a13.527 13.527 0 1 1-.026.839c.01-.23.035-.455.035-.686 0-.052-.008-.101-.008-.153z"/><path class="cls-1" d="M24.812 12.297l.439 2.004 2.18-1.037h.035v9.052h2.584V10.891h-2.215l-3.023 1.406zM36.236 10.697c-2.953 0-4.36 2.62-4.36 5.924.018 3.234 1.319 5.889 4.272 5.889 2.918 0 4.342-2.426 4.342-5.96 0-3.128-1.196-5.853-4.254-5.853zm-.018 9.791c-1.037 0-1.67-1.248-1.652-3.867-.018-2.654.65-3.902 1.635-3.902 1.072 0 1.617 1.336 1.617 3.867 0 2.602-.563 3.902-1.6 3.902zM19.35 42.103a5.225 5.225 0 0 0-3.006-.827 4.951 4.951 0 0 0-.738.036l.246-1.758h4.43v-2.198h-6.293l-.756 5.995a9.865 9.865 0 0 1 1.547-.106c2.285 0 3.217.72 3.217 1.899 0 1.212-1.178 1.74-2.286 1.74a6.565 6.565 0 0 1-2.584-.563l-.474 2.004a7.261 7.261 0 0 0 3.181.65c3.077 0 4.905-1.88 4.905-4.007a3.252 3.252 0 0 0-1.389-2.865zM41.763 40.639h.035v9.052h2.584V38.266h-2.215l-3.023 1.406.439 2.004 2.18-1.037zM54.47 45.877a3.252 3.252 0 0 0-1.388-2.865 5.225 5.225 0 0 0-3.006-.826 4.951 4.951 0 0 0-.739.035l.246-1.758h4.43v-2.197H47.72l-.756 5.994a9.865 9.865 0 0 1 1.547-.106c2.285 0 3.217.721 3.217 1.899 0 1.213-1.178 1.74-2.285 1.74a6.565 6.565 0 0 1-2.584-.563l-.475 2.004a7.261 7.261 0 0 0 3.182.65c3.076 0 4.904-1.88 4.904-4.007z"/></svg>