<svg id="Layer_1" data-name="Layer 1" xmlns="http://www.w3.org/2000/svg" viewBox="0 0 63.92181 65.28186"><defs><style>.cls-1{fill:#41494f}</style></defs><title>Slots</title><path class="cls-1" d="M37.304 37.872H14.377A5.051 5.051 0 0 0 10.1 40a3.487 3.487 0 0 0-.253 3.392l3.849 8.415a4.87 4.87 0 0 0 4.531 2.595h15.228a4.87 4.87 0 0 0 4.532-2.594l3.849-8.416A3.485 3.485 0 0 0 41.583 40a5.05 5.05 0 0 0-4.279-2.129zm2.058 4.388l-3.849 8.416a2.283 2.283 0 0 1-2.059 1.006H18.226a2.279 2.279 0 0 1-2.058-1.006L12.32 42.26a.76.76 0 0 1 .068-.79 2.337 2.337 0 0 1 1.99-.878h22.927a2.337 2.337 0 0 1 1.99.879.76.76 0 0 1 .068.79zM24.481 10.88h2.72v13.6h-2.72zM13.6 10.88h2.72v13.6H13.6zM35.361 10.88h2.72v13.6h-2.72z"/><path class="cls-1" d="M63.922 21.76a5.44 5.44 0 1 0-6.8 5.262v19.22h-5.44V12.126A12.14 12.14 0 0 0 39.554 0H12.127A12.14 12.14 0 0 0 0 12.127v53.155h51.681v-16.32h8.16v-21.94a5.445 5.445 0 0 0 4.08-5.261zm-14.96 40.802H2.72V12.127a9.417 9.417 0 0 1 9.407-9.407h27.428a9.417 9.417 0 0 1 9.406 9.407zm9.52-38.081a2.72 2.72 0 1 1 2.72-2.72 2.723 2.723 0 0 1-2.72 2.72z"/></svg>