<svg id="Layer_1" data-name="Layer 1" xmlns="http://www.w3.org/2000/svg" viewBox="0 0 92.43 70.96"><defs><style>.cls-1{fill:#41494f}</style></defs><title>ICNVegas</title><path class="cls-1" d="M46.21 48.78a139.74 139.74 0 0 1 5.71-17.05c.64-1.48-1.44-3.45-1.77-4.29-.74-1.85-2.84-1.85-4.77-1.17-.3.11-1.09.6-1.37.75-3.39 1.83-11.91 12.36-14.84 15.15-1.53 1.46-3.95 2.8-4.34.7-.28-1.47-.22-2.37.53-2.55 3.88-.93 6.17-2 8.33-5.29a4.08 4.08 0 0 0 .31-4.77c-2.22-3.25-3.53-4.43-7.11-1-6.2 5.95-7.49 12.46-5.34 15.89a5.47 5.47 0 0 0 7.35 2.07c1.66-.82 6.7-7 8.1-8.74-.07 2-.58 3.72.67 5.17.29.34 2.58 2.92 6.15-1.17a62.31 62.31 0 0 1-3.63 6.85c-6.29.71-11.77.56-14 1.93-1 .61-3.7 4.17-2.07 4.77.56.21 9.36-1.15 13.85-1.73a112.65 112.65 0 0 0-5.3 10.09 5.14 5.14 0 0 0 5.9 6.53c3.74-.47 3.63-6.8 6.54-17.79 20.42-3.89 20.43-3.89 47.35-8.53-.03-.01-39.82 3.49-46.25 4.18zM30.77 29.91c0 2-3.57 7.17-5.27 7.66-.16-2.02 2.9-6.52 5.27-7.66zm8 35.35c-.18 1.36-.57 2-1.13 2-1.86 0-1.82-1.45-1.34-2.5S40.47 57 40.47 57s-1.54 6.9-1.72 8.25zm2.18-24.16c-.32-1.72.5-3.68 1.2-5.21a19 19 0 0 1 3.65-5.45 8.08 8.08 0 0 1 1.54-1.25.81.81 0 0 1 .3-.14 7.91 7.91 0 0 1-.86 3.59c-1.37 3.49-4.12 7.75-5.85 8.45z"/><path class="cls-1" d="M52.35 39.81a4.9 4.9 0 0 0 3.22 3.42c1.55.48 2.74-.62 3.57-1.73a16.08 16.08 0 0 0 1.53-3.28 16.22 16.22 0 0 0 .76 3.29c1.41 2.89 4.33 2 6.23-.44a43.33 43.33 0 0 0 3.78-5.48 41.47 41.47 0 0 0 2.19-3.75c.42 2.49 3.15 3.76 1.2 4.09s-2.34.45-3 1.4a3.61 3.61 0 0 0-.27 3 4.21 4.21 0 0 0 5.08 2.28 4.74 4.74 0 0 0 3.64-3.64 1.4 1.4 0 0 1 1-.87c2.47-.2 3.69.47 4.74-1.76.53-1.12.09-2.84-1.07-2.87s-1.12.43-3.93.91c-.62.11-.92.15-1.11-.6-.75-2.83-2.38-3.48-3.16-6.3-.5-1.8 1.63-3.24 2-5 .45-2.27-2.12-3.22-3.5-1.4a14.45 14.45 0 0 0-2 4.36 13 13 0 0 1-1.28 3.26c-1.31 2.17-2.49 4.45-3.84 6.59-.87 1.38-3.66 5.34-3.16 2.68.45-2.38.85-4.77 1.32-7.15a3.66 3.66 0 0 0-.93-3.54 11 11 0 0 1-1.46-1.82c-.79-1.26-1.82-1.69-3.07-1.13a8.23 8.23 0 0 0-2.29 1.41 21.17 21.17 0 0 0-5.78 9.17 7.92 7.92 0 0 0-.41 4.9zm23.55-.42c.08.33-.37.78-.63.8a1.35 1.35 0 0 1-1.14-.36A.55.55 0 0 1 74 39c.22-.26.73-.47 1.58-.13.08.13.34.13.32.52zm-13.46-11.9a.72.72 0 0 1 .27-.13 7.08 7.08 0 0 1-.77 3.21c-1.22 3.14-3.67 7-5.22 7.58-.29-1.54.44-3.3 1.07-4.66a17 17 0 0 1 3.27-4.88 7.23 7.23 0 0 1 1.38-1.12zM50.27 4.94c3.24-1.43 2.36-2.13 1.84-2.52-1.8-1.32-5-3.36-8-1.94-24.34 11.61-32.68 45.43-32.66 45.24.48-7.31 1-14 5-31.56A7.27 7.27 0 0 0 15 7.6a1.25 1.25 0 0 0-2.07-.06C9 11.36 5.12 15.17.48 18.08c-.63.4-.63.94 0 1.42a3 3 0 0 0 .87.46 4.47 4.47 0 0 0 3.25-.26 21.15 21.15 0 0 0 6.23-3.4C9.85 20.55 7.3 46 7.55 52.07A5 5 0 0 0 10 56.15c1.32.89 3.52 1.08 3.76-.5.82-5.28 4.32-36.51 36.51-50.71z"/></svg>