<svg id="Layer_1" data-name="Layer 1" xmlns="http://www.w3.org/2000/svg" viewBox="0 0 82.05859 56.22168"><defs><style>.cls-1{fill:#41494f}</style></defs><title>Virtuals</title><path class="cls-1" d="M80.621 43.451h-4.608V4.678a5.078 5.078 0 0 0-5-4.678H10.848a4.825 4.825 0 0 0-4.82 4.82v38.649h-4.59A1.438 1.438 0 0 0 0 44.906v3.958a7.384 7.384 0 0 0 7.393 7.358h67.29a7.384 7.384 0 0 0 7.376-7.376v-3.958a1.438 1.438 0 0 0-1.438-1.437zm-1.419 5.395a4.525 4.525 0 0 1-4.52 4.52H7.393a4.524 4.524 0 0 1-4.518-4.52v-2.52h4.572a1.438 1.438 0 0 0 1.437-1.438V4.819a1.966 1.966 0 0 1 1.964-1.964H71.03a2.26 2.26 0 0 1 2.143 2.054v39.979a1.439 1.439 0 0 0 1.437 1.437h4.591z"/><path class="cls-1" d="M68.502 5.992H14.051a1.437 1.437 0 0 0-1.437 1.433c0 .03.008.057.01.085l-.01.003v35.888c0 .041.009.08.013.121-.004.04-.013.08-.013.12a1.46 1.46 0 0 0 1.437 1.441h19.594l.044.139a3.222 3.222 0 0 0 2.976 2.344h8.727a3.213 3.213 0 0 0 2.976-2.344l.045-.139h19.61a2.3 2.3 0 0 0 1.915-1.682V7.513l-.01-.003c.003-.028.01-.056.01-.085a1.437 1.437 0 0 0-1.436-1.433zm-31.848 38.7l-.058-.058a.869.869 0 0 1-.22-.61v-.378a1.438 1.438 0 0 0-1.438-1.436h-19.45V8.865h16.364l.011.139.045-.139h18.737l.044.139.012-.139h16.364v20.046h-4.609a5.268 5.268 0 0 0 1.503-4.143c-.157-1.262-1.172-4.26-7.308-4.864h-4.77a4.169 4.169 0 1 0-4.156 5.542l1.352 2.67-.276.795h-.39c-2.232-1.277-7.002-4.385-9.669-8.903l-.188-.25a1.908 1.908 0 0 0-2.072-.472 1.928 1.928 0 0 0-1.205 1.444l-1.25 3.103-4.37 3.663a3.145 3.145 0 0 0-.073 4.646 3.047 3.047 0 0 0 2.502.788l4.065-.67a49.233 49.233 0 0 0 6.495 12.432zM51.706 27.17l-1.28-2.527.004-.003a4.196 4.196 0 0 0 .85-.843c.008-.012.018-.022.027-.034a4.152 4.152 0 0 0 .274-.432c.03-.053.06-.106.087-.16a4.131 4.131 0 0 0 .2-.453c.005-.015.013-.027.018-.042l4.627-.006c2.741.274 4.54 1.21 4.695 2.442.14 1.123-1.095 2.807-3.637 3.8h-5.748a2.245 2.245 0 0 0-.117-1.742zm-3.75-4.473a1.406 1.406 0 1 1 1.4-1.461l-.004.115a1.4 1.4 0 0 1-.982 1.27l-.162.05a1.39 1.39 0 0 1-.252.026zm-.837 19.513a1.438 1.438 0 0 0-1.437 1.437v.153c-2.391-3.202-6.397-9.917-7.165-13.41l-.281-1.285-6.555 1.082a.245.245 0 0 1-.203-.07.357.357 0 0 1-.11-.27.348.348 0 0 1 .094-.246l4.877-4.089 1.028-2.55a32.14 32.14 0 0 0 10.005 8.548l.314.174h8.621l1.087 6.564-1.921-.108-.157 2.769 2.594.146c.043.002.085.003.129.003a2.245 2.245 0 0 0 2.16-2.852l-1.081-6.522h7.948V42.21z"/></svg>