<svg id="Layer_1" data-name="Layer 1" xmlns="http://www.w3.org/2000/svg" viewBox="0 0 66.27832 66.47363"><defs><style>.cls-1{fill:#41494f}</style></defs><title>Other_Games</title><path class="cls-1" d="M65.197 31.699l-3.271-.95a11.286 11.286 0 0 1-6.741-16.274l1.641-2.985a1.5 1.5 0 0 0-2.037-2.037l-2.984 1.64a11.232 11.232 0 0 1-9.756.537 11.231 11.231 0 0 1-6.52-7.278l-.95-3.27a1.5 1.5 0 0 0-2.88 0l-.95 3.27a11.231 11.231 0 0 1-6.52 7.278 11.237 11.237 0 0 1-9.755-.537l-2.985-1.64a1.5 1.5 0 0 0-2.037 2.037l1.64 2.984a11.23 11.23 0 0 1 .538 9.755 11.23 11.23 0 0 1-7.278 6.52l-3.27.95a1.5 1.5 0 0 0 0 2.88l3.27.95a11.23 11.23 0 0 1 7.278 6.52 11.231 11.231 0 0 1-.537 9.756l-1.64 2.984a1.5 1.5 0 0 0 2.036 2.037l2.985-1.64a11.236 11.236 0 0 1 8.112-1.077 1.5 1.5 0 1 0 .715-2.913 14.204 14.204 0 0 0-8.927.709 14.209 14.209 0 0 0 .027-11.005 14.205 14.205 0 0 0-7.8-7.76 14.207 14.207 0 0 0 7.801-7.763 14.21 14.21 0 0 0-.028-11.003 14.203 14.203 0 0 0 11.004.028 14.203 14.203 0 0 0 7.76-7.8 14.21 14.21 0 0 0 7.762 7.8 14.205 14.205 0 0 0 11.003-.028 14.291 14.291 0 0 0 7.775 18.765 14.29 14.29 0 0 0-7.775 18.765 14.187 14.187 0 0 0-9.145-.653 1.5 1.5 0 1 0 .762 2.902 11.22 11.22 0 0 1 8.285 1.032l2.984 1.641a1.5 1.5 0 0 0 2.037-2.037l-1.641-2.985a11.286 11.286 0 0 1 6.742-16.274l3.27-.95a1.5 1.5 0 0 0 0-2.881z"/><path class="cls-1" d="M33.041 54.818a5.828 5.828 0 1 0 5.827 5.828 5.834 5.834 0 0 0-5.827-5.828zm0 8.656a2.828 2.828 0 1 1 2.827-2.828 2.831 2.831 0 0 1-2.827 2.828zM47.303 31.64a13.685 13.685 0 0 0-27.318.591l-.006.49a3.447 3.447 0 0 0 .707 2.694 3.056 3.056 0 0 0 2.256.765h4.328c3.261 0 3.333-2.548 3.335-3.858a3.063 3.063 0 1 1 5.203 2.562c-.463.463-1.115 1.036-1.804 1.642-2.865 2.52-6.791 5.973-6.791 9.695v4.328a2.946 2.946 0 0 0 2.942 2.943h4.328a2.946 2.946 0 0 0 2.943-2.943v-2.69c.338-.94 2.61-2.766 3.853-3.764.76-.61 1.476-1.185 2.003-1.69a13.25 13.25 0 0 0 4.02-10.765zm-6.095 8.598c-.434.415-1.1.95-1.808 1.518-2.658 2.135-4.568 3.787-4.943 5.605l-.031.15.057 2.98-4.27.058v-4.328c0-2.365 3.473-5.42 5.772-7.443.727-.638 1.412-1.242 1.944-1.773a6.065 6.065 0 0 0-4.296-10.354 5.963 5.963 0 0 0-3.17.898 6.09 6.09 0 0 0-2.849 4.527l-.009.158a7.012 7.012 0 0 1-.042.933 2.763 2.763 0 0 1-.293.013h-4.296c0-.132.003-.276.005-.406l.005-.48A10.671 10.671 0 0 1 39.51 23.8a10.853 10.853 0 0 1 4.804 8.095 10.263 10.263 0 0 1-3.106 8.343z"/></svg>