<svg id="Layer_1" data-name="Layer 1" xmlns="http://www.w3.org/2000/svg" viewBox="0 0 83.23 57.72"><defs><style>.cls-1{fill:#41494f;}</style></defs><title>ICNCommunity</title><path class="cls-1" d="M41.65,36.28c6.57,0,13-8.2,13-16.55,0-7.94-5.48-13.7-13-13.7s-13,5.76-13,13.7C28.62,28.24,35,36.28,41.65,36.28ZM31.83,19.73c0-6.17,4-10.49,9.81-10.49s9.82,4.31,9.82,10.49c0,6.48-5,13.34-9.82,13.34C36.69,33.07,31.83,26.46,31.83,19.73Z"/><path class="cls-1" d="M64.72,23.9c5.22,0,10.34-6.46,10.34-13C75.06,4.57,70.71,0,64.72,0S54.37,4.57,54.37,10.86C54.37,17.56,59.4,23.9,64.72,23.9Zm-7.13-13c0-4.5,2.93-7.65,7.13-7.65s7.13,3.14,7.13,7.65c0,4.69-3.73,9.83-7.13,9.83S57.58,15.73,57.58,10.86Z"/><path class="cls-1" d="M83,31.4c-.89-5.53-4.21-8.21-8.46-11.15A1.6,1.6,0,1,0,72.7,22.9c4,2.74,6.43,4.71,7.12,9,.33,2,.26,3.24-.22,3.8-1.19,1.39-6.51,1.39-13.87,1.39H60.1a41.56,41.56,0,0,0-5.92-4.68,1.6,1.6,0,0,0-1.81,2.65c5,3.42,8.56,6.28,9.5,12.09.46,2.85.34,4.51-.39,5.37-1.69,2-8,2-18.5,2H40.3c-10.56,0-16.94,0-18.6-2-.71-.85-.79-2.49-.27-5.32,1-5.45,3.87-8.26,9.5-12.13a1.6,1.6,0,0,0-1.82-2.65,40.42,40.42,0,0,0-5.88,4.67h-5.7c-7.42,0-12.78,0-13.94-1.39-.46-.55-.5-1.75-.12-3.76.75-4.06,2.79-6.08,7.1-9A1.61,1.61,0,0,0,10,20a1.59,1.59,0,0,0-1.2.26C4.6,23.12,1.35,25.75.31,31.36c-.43,2.3-.63,4.67.81,6.4C3.24,40.31,8,40.31,17.53,40.31h3.13a17.79,17.79,0,0,0-2.38,6.31c-.73,4-.45,6.26,1,8,2.62,3.15,8.79,3.15,21.06,3.15H43c12.18,0,18.29,0,20.95-3.12,1.43-1.68,1.76-4,1.12-8a16.74,16.74,0,0,0-2.33-6.34h3c9.43,0,14.16,0,16.31-2.52C83.5,36.08,83.35,33.71,83,31.4Z"/><path class="cls-1" d="M18.56,23.9c5.22,0,10.34-6.46,10.34-13C28.9,4.57,24.56,0,18.56,0S8.22,4.57,8.22,10.86C8.22,17.56,13.25,23.9,18.56,23.9Zm-7.13-13c0-4.5,2.93-7.65,7.13-7.65s7.13,3.14,7.13,7.65c0,4.69-3.73,9.83-7.13,9.83S11.43,15.73,11.43,10.86Z"/></svg>