<svg id="Layer_1" data-name="Layer 1" xmlns="http://www.w3.org/2000/svg" viewBox="0 0 63.06 74.26"><defs><style>.cls-1{fill:#41494f;}</style></defs><title>ICNRooms</title><rect class="cls-1" x="32.23" y="40.63" width="4.21" height="2.81"/><path class="cls-1" d="M57.45,71.47V1.4a1.35,1.35,0,0,0-.1-.49.45.45,0,0,0,0-.08,1.33,1.33,0,0,0-.26-.38L57,.38,56.87.27a1.5,1.5,0,0,0-.26-.15h0A1.35,1.35,0,0,0,56.1,0H8.41A1.4,1.4,0,0,0,7,1.4V71.47H0v2.8H63.06v-2.8Zm-28-5.36V11.53l25.22-8.2V71.16ZM9.81,2.81H47.2L27.59,9.17a1.4,1.4,0,0,0-1,1.33V67.26a1.4,1.4,0,0,0,1.13,1.38L41.9,71.47H9.81Zm0,0"/></svg>