<svg id="Layer_1" data-name="Layer 1" xmlns="http://www.w3.org/2000/svg" viewBox="0 0 84.42 78.12"><defs><style>.cls-1{fill:#41494f;}</style></defs><title>ICNSlots-Games</title><path class="cls-1" d="M77.06,37.56a7.35,7.35,0,1,1,7.35-7.35A7.36,7.36,0,0,1,77.06,37.56Zm0-11.58a4.23,4.23,0,1,0,4.23,4.23A4.23,4.23,0,0,0,77.06,26Z"/><path class="cls-1" d="M16,78.12A10.87,10.87,0,0,1,5.13,67.26v-3.6a1.56,1.56,0,0,1,3.13,0v3.6A7.74,7.74,0,0,0,16,75H57.5a7.74,7.74,0,0,0,7.73-7.73V39.77a1.56,1.56,0,1,1,3.13,0V67.26A10.87,10.87,0,0,1,57.5,78.12ZM6.69,28.82a1.56,1.56,0,0,1-1.56-1.56V19.63A10.84,10.84,0,0,1,13.42,9.08l.92-.22V5.62A5.63,5.63,0,0,1,20,0H53.53a5.63,5.63,0,0,1,5.62,5.62V8.86l.92.22a10.83,10.83,0,0,1,8.29,10.54v.42a1.56,1.56,0,1,1-3.12,0v-.42a7.76,7.76,0,0,0-7.65-7.73H15.91a7.76,7.76,0,0,0-7.66,7.73v7.63A1.56,1.56,0,0,1,6.69,28.82ZM20,3.13a2.5,2.5,0,0,0-2.5,2.5V8.78H56V5.62a2.5,2.5,0,0,0-2.5-2.5Z"/><path class="cls-1" d="M69.7,59.43a1.56,1.56,0,0,1,0-3.12,5.81,5.81,0,0,0,5.8-5.8V36a1.56,1.56,0,0,1,3.13,0V50.5A8.94,8.94,0,0,1,69.7,59.43Z"/><path class="cls-1" d="M12.41,47.58a1.13,1.13,0,0,1-.81-.33,1.14,1.14,0,0,1,0-1.62L22.88,34.36A1.14,1.14,0,1,1,24.49,36L13.22,47.25A1.13,1.13,0,0,1,12.41,47.58Z"/><path class="cls-1" d="M23.69,47.58a1.14,1.14,0,0,1-.81-1.95L34.15,34.36A1.14,1.14,0,1,1,35.77,36L24.49,47.25A1.13,1.13,0,0,1,23.69,47.58Z"/><path class="cls-1" d="M23.69,70.13a1.14,1.14,0,0,1-.81-.33L.33,47.25a1.14,1.14,0,0,1,0-1.61L11.61,34.36a1.13,1.13,0,0,1,.81-.33H35a1.13,1.13,0,0,1,.81.33L47,45.63a1.14,1.14,0,0,1,0,1.61L24.49,69.79A1.14,1.14,0,0,1,23.69,70.13Zm0-2.76L44.62,46.44,34.49,36.31H12.89L2.76,46.44Z"/><path class="cls-1" d="M51.31,64.8a6.93,6.93,0,1,1,6.93-6.93A6.94,6.94,0,0,1,51.31,64.8Zm0-11.58A4.65,4.65,0,1,0,56,57.86,4.65,4.65,0,0,0,51.31,53.22Z"/><path class="cls-1" d="M55.47,42.77a1.14,1.14,0,0,1-.26-2.25l.54-.13V21H17.84l-.13.54a1.14,1.14,0,0,1-2.25-.27A2.56,2.56,0,0,1,18,18.71H55.47A2.56,2.56,0,0,1,58,21.26v19A2.56,2.56,0,0,1,55.47,42.77Z"/><path class="cls-1" d="M30,29.1A1.14,1.14,0,0,1,28.83,28V20.84a1.14,1.14,0,1,1,2.28,0V28A1.14,1.14,0,0,1,30,29.1Z"/><path class="cls-1" d="M43.51,29.1A1.14,1.14,0,0,1,42.37,28V20.84a1.14,1.14,0,0,1,2.28,0V28A1.14,1.14,0,0,1,43.51,29.1Z"/></svg>