<svg id="Layer_1" data-name="Layer 1" xmlns="http://www.w3.org/2000/svg" viewBox="0 0 15 15"><defs><style>.cls-1{fill:#41494e;fill-rule:evenodd;}</style></defs><title>Calendar</title><path class="cls-1" d="M.32091,1.445H2.65944V2.73356A1.39975,1.39975,0,0,0,4.081,4.10872,1.39911,1.39911,0,0,0,5.50254,2.73356V1.445H9.51482V2.73356a1.42233,1.42233,0,0,0,2.8431,0V1.445h2.32121A.31674.31674,0,0,1,15,1.7555v8.94218a.66339.66339,0,0,1-.208.53779l-3.10561,3.45635A1.04759,1.04759,0,0,1,10.92484,15H.32091A.31673.31673,0,0,1,0,14.68942V1.7555A.31669.31669,0,0,1,.32091,1.445Zm13.50383,8.78353V5.41641a.18334.18334,0,0,0-.18345-.17738H1.35875a.18453.18453,0,0,0-.18345.17738v8.269a.18325.18325,0,0,0,.18345.17749h9.17974c.33574,0,.47925-.1702.50187-.4874v-1.856a.73583.73583,0,0,1,.83266-.80527h1.44973a.44608.44608,0,0,0,.502-.48566ZM10.01929.88722a.91759.91759,0,0,1,1.83417,0V2.73356a.91759.91759,0,0,1-1.83417,0V.88722Zm-6.8554,0a.91759.91759,0,0,1,1.83417,0V2.73356a.91759.91759,0,0,1-1.83417,0V.88722Zm2.02043,8.2183H2.62749v-2.437H5.18433v2.437Zm7.1881,0H9.81559v-2.437h2.55684v2.437Zm-3.594,3.32785H6.2217V9.99622H8.77842v2.43715Zm-3.5941,0H2.62749V9.99622H5.18433v2.43715Zm3.5941-3.32785H6.2217v-2.437H8.77842v2.437Z"/></svg>