<svg id="Layer_1" data-name="Layer 1" xmlns="http://www.w3.org/2000/svg" viewBox="0 0 86 60"><defs><style>.cls-1{fill:#41494e;}</style></defs><title>CVV</title><path class="cls-1" d="M84.06088,2.294A6.61214,6.61214,0,0,0,79.17194.45123H7.087A6.84614,6.84614,0,0,0,2.09872,2.294,6.58328,6.58328,0,0,0,.002,7.05859V53.377a7.03575,7.03575,0,0,0,2.09671,4.98245A6.92455,6.92455,0,0,0,7.087,60.45123h72.0849a6.69746,6.69746,0,0,0,4.88895-2.09177A6.90477,6.90477,0,0,0,86.002,53.377V7.05859A6.44581,6.44581,0,0,0,84.06088,2.294ZM82.002,53.377a2.32652,2.32652,0,0,1-.93311,1.53323,2.83533,2.83533,0,0,1-1.897.541H7.087A1.89215,1.89215,0,0,1,5.002,53.377V26.45123h77Zm0-38.92578h-77V7.05859a2.54859,2.54859,0,0,1,.54666-1.77142A2.20793,2.20793,0,0,1,7.087,4.45123h72.0849a3.06781,3.06781,0,0,1,1.897.83594A2.93607,2.93607,0,0,1,82.002,7.05859Z" transform="translate(-0.00201 -0.45123)"/><path class="cls-1" d="M59.4668,33H71.53424A2.46576,2.46576,0,0,1,74,35.46576V42.5332A2.4668,2.4668,0,0,1,71.5332,45H59.46576A2.46576,2.46576,0,0,1,57,42.53424V35.4668A2.4668,2.4668,0,0,1,59.4668,33Z"/></svg>