<svg id="Layer_1" data-name="Layer 1" xmlns="http://www.w3.org/2000/svg" viewBox="0 0 140 139.99756"><defs><style>.cls-1{fill:#41494f;}</style></defs><title>Info</title><path class="cls-1" d="M69.99988,0A69.99878,69.99878,0,1,1,0,69.99866,70.07809,70.07809,0,0,1,69.99988,0Zm0,134.6133A64.61453,64.61453,0,1,0,5.38669,69.99866,64.68739,64.68739,0,0,0,69.99988,134.6133Z"/><path class="cls-1" d="M52.478,41.61695a29.054,29.054,0,0,1,3.30664-2.65527,24.80346,24.80346,0,0,1,3.958-2.2207,24.19045,24.19045,0,0,1,4.63379-1.52051,24.73724,24.73724,0,0,1,5.38232-.55469,21.7898,21.7898,0,0,1,7.07129,1.11035,16.92178,16.92178,0,0,1,5.62354,3.1377,14.4567,14.4567,0,0,1,3.7168,4.92285,15.23977,15.23977,0,0,1,1.35156,6.5166,16.65577,16.65577,0,0,1-1.08643,6.32324,17.70109,17.70109,0,0,1-2.751,4.6582A21.635,21.635,0,0,1,80.064,64.81031q-1.95483,1.47217-3.69238,2.77539a23.3242,23.3242,0,0,0-2.96875,2.60645A5.04473,5.04473,0,0,0,71.979,73.08863l-.86865,7.38477H65.22119l-.5791-8.0127a5.94813,5.94813,0,0,1,.8208-3.78906,13.62726,13.62726,0,0,1,2.65479-3.041,42.54553,42.54553,0,0,1,3.62012-2.7998,28.05488,28.05488,0,0,0,3.69238-3.06543,16.05272,16.05272,0,0,0,2.87207-3.83691,10.68356,10.68356,0,0,0,1.15869-5.14062,8.50331,8.50331,0,0,0-.8208-3.76465,8.67429,8.67429,0,0,0-2.22021-2.87207,9.83684,9.83684,0,0,0-3.30664-1.81055,12.97842,12.97842,0,0,0-4.07861-.62793,15.54979,15.54979,0,0,0-5.04443.72461A18.909,18.909,0,0,0,60.44287,44.03a20.632,20.632,0,0,0-2.34131,1.59277,2.61656,2.61656,0,0,1-1.47217.72461,2.09931,2.09931,0,0,1-1.88232-1.11035Zm9.4126,57.68164a6.15675,6.15675,0,0,1,1.71387-4.2959A6.01334,6.01334,0,0,1,70.24121,93.699a6.121,6.121,0,0,1,3.23438,3.23438,6.09925,6.09925,0,0,1,0,4.75488,6.28725,6.28725,0,0,1-1.30371,1.90625,5.85469,5.85469,0,0,1-1.93066,1.2793,6.33625,6.33625,0,0,1-4.73047,0,5.58623,5.58623,0,0,1-1.90625-1.2793,6.04156,6.04156,0,0,1-1.71387-4.2959Z"/></svg>