<svg id="Layer_1" data-name="Layer 1" xmlns="http://www.w3.org/2000/svg" viewBox="0 0 140.11621 140.11621"><defs><style>.cls-1{fill:#41494f;}</style></defs><title>Location</title><circle class="cls-1" cx="70.05811" cy="69.99847" r="20.31378"/><path class="cls-1" d="M140.11621,67.55762H120.88684A50.95714,50.95714,0,0,0,72.55811,19.17084V0h-5V19.17084A50.95714,50.95714,0,0,0,19.22937,67.55762H0v5H19.23242a50.96013,50.96013,0,0,0,48.32568,48.26862v19.29h5v-19.29a50.96013,50.96013,0,0,0,48.32568-48.26862h19.23242Zm-70.05811,48.332A45.89111,45.89111,0,1,1,115.94873,69.998,45.94309,45.94309,0,0,1,70.05811,115.88965Z"/></svg>