<svg id="Layer_1" data-name="Layer 1" xmlns="http://www.w3.org/2000/svg" viewBox="0 0 32 24"><defs><style>.cls-1{fill:#41494e;}</style></defs><title>PassShow</title><path class="cls-1" d="M15.99866,24C9.05842,24,2.81523,19.49438.09788,12.51808a1.42147,1.42147,0,0,1,0-1.03669C2.81523,4.50776,9.05842,0,15.99866,0c6.94163,0,13.18607,4.50776,15.90357,11.48139a1.42288,1.42288,0,0,1,0,1.03669C29.18473,19.49438,22.94029,24,15.99866,24ZM2.90081,11.99963c2.3954,5.59488,7.47964,9.17675,13.09785,9.17675,5.61961,0,10.7051-3.58187,13.10051-9.17675-2.39541-5.592-7.4809-9.17675-13.10051-9.17675C10.38045,2.82288,5.2962,6.40763,2.90081,11.99963Z"/><path class="cls-1" d="M16.00005,18.35559a6.35381,6.35381,0,1,1,6.26086-6.35313A6.31347,6.31347,0,0,1,16.00005,18.35559Z"/></svg>