<svg id="Layer_1" data-name="Layer 1" xmlns="http://www.w3.org/2000/svg" viewBox="0 0 32.02509 27.89282"><defs><style>.cls-1{fill:#41494e;}</style></defs><title>PassHyde</title><path class="cls-1" d="M31.92708,12.76013a18.93617,18.93617,0,0,0-2.69263-4.72058l-1.99536,1.9953a16.17791,16.17791,0,0,1,1.8822,3.23743,14.46407,14.46407,0,0,1-13.11,9.06512q-.52112,0-1.0351-.04083l-2.442,2.44189a16.12089,16.12089,0,0,0,3.47711.38824c6.94727,0,13.196-4.45227,15.91583-11.34247A1.38666,1.38666,0,0,0,31.92708,12.76013Z"/><path class="cls-1" d="M29.42909,0,25.1758,4.26587a16.33719,16.33719,0,0,0-9.16455-2.84808c-6.946,0-13.1933,4.45215-15.91315,11.34235a1.38546,1.38546,0,0,0,0,1.02411A18.22439,18.22439,0,0,0,7.075,22.42L3.59157,25.91382l1.972,1.979L31.40126,1.97748ZM2.9037,13.27228A14.462,14.462,0,0,1,16.01125,4.20709a13.53918,13.53918,0,0,1,7.158,2.07123L20.5132,8.9422a6.19987,6.19987,0,0,0-4.50067-1.94586,6.28277,6.28277,0,0,0-6.27594,6.27594A6.1954,6.1954,0,0,0,11.697,17.78436L9.08772,20.40143A15.317,15.317,0,0,1,2.9037,13.27228Z"/></svg>