<svg id="Layer_1" data-name="Layer 1" xmlns="http://www.w3.org/2000/svg" viewBox="0 0 70.64 70.66"><defs><style>.cls-1{fill:#41494f}</style></defs><title>ICNEvents</title><path class="cls-1" d="M70.59 52.83a1.2 1.2 0 0 0-1-.82L60.3 50.7l-4.16-8.12a1.24 1.24 0 0 0-2.13 0l-4.16 8.12-9.31 1.3a1.2 1.2 0 0 0-.66 2.06l6.71 6.3L45 69.25a1.19 1.19 0 0 0 1.72 1.28l8.34-4.23 8.34 4.23a1.21 1.21 0 0 0 .54.13 1.19 1.19 0 0 0 .71-.23 1.21 1.21 0 0 0 .47-1.18l-1.58-8.89 6.71-6.3a1.21 1.21 0 0 0 .32-1.23zm-9.15 6.24a1.2 1.2 0 0 0-.36 1.08l1.28 7.17-6.75-3.42a1.2 1.2 0 0 0-1.08 0l-6.74 3.41 1.27-7.17a1.18 1.18 0 0 0-.36-1.08l-5.36-5 7.45-1a1.2 1.2 0 0 0 .9-.64l3.37-6.59 3.38 6.59a1.19 1.19 0 0 0 .89.64l7.45 1zm0 0"/><path class="cls-1" d="M43.1 38.31h10.78V25.14H8.38v34.72h23.95V49.09H43.1zm0-10.78h8.38v8.38H43.1zm-10.77 0h8.38v8.38h-8.38zm-10.78 0h8.38v8.38h-8.38zm8.38 19.16h-8.38v-8.38h8.38zM10.77 27.53h8.38v8.38h-8.38zm0 10.78h8.38v8.38h-8.38zm8.38 19.15h-8.38v-8.37h8.38zm10.77 0h-8.37v-8.37h8.38zm10.79-10.77h-8.38v-8.38h8.38zm0 0"/><path class="cls-1" d="M31.13 65.85H2.4V19.16h57.46v20.35a1.2 1.2 0 0 0 2.4 0V6a1.2 1.2 0 0 0-1.2-1.2h-6V1.2A1.2 1.2 0 0 0 53.88 0h-8.39a1.19 1.19 0 0 0-1.19 1.2v3.59H18V1.2A1.2 1.2 0 0 0 16.76 0H8.38a1.2 1.2 0 0 0-1.2 1.2v3.59h-6A1.2 1.2 0 0 0 0 6v61a1.2 1.2 0 0 0 1.2 1.2h29.93a1.2 1.2 0 1 0 0-2.4zM46.69 2.4h6v7.18h-6zm-37.11 0h6v7.18h-6zM2.4 7.19h4.79v3.59A1.2 1.2 0 0 0 8.38 12h8.38a1.2 1.2 0 0 0 1.2-1.2V7.19H44.3v3.59A1.19 1.19 0 0 0 45.49 12h8.38a1.2 1.2 0 0 0 1.2-1.2V7.19h4.79v9.58H2.4zm0 0"/></svg>