<svg id="Layer_1" data-name="Layer 1" xmlns="http://www.w3.org/2000/svg" viewBox="0 0 68.36 68.44"><defs><style>.cls-1{fill:#41494f}</style></defs><title>ICNLiveChat</title><rect class="cls-1" x="17.55" y="21.97" width="34.47" height="3.36" rx="1.68" ry="1.68"/><rect class="cls-1" x="17.55" y="32.54" width="34.47" height="3.36" rx="1.68" ry="1.68"/><rect class="cls-1" x="17.55" y="43.11" width="34.47" height="3.36" rx="1.68" ry="1.68"/><path class="cls-1" d="M34.11 68.44A34.16 34.16 0 0 1 18 64.37l-.33-.18-.3.22a20.25 20.25 0 0 1-11.9 3.95 17.29 17.29 0 0 1-2.66-.2 2.67 2.67 0 0 1-2.26-2.23A2.64 2.64 0 0 1 2 63.14c2.89-1.42 4.78-4.3 5.85-6.46l.15-.34-.22-.34a34.45 34.45 0 0 1 2.16-46 34.22 34.22 0 1 1 48.4 48.38 34 34 0 0 1-24.23 10.06zm-16.61-7.3a1.38 1.38 0 0 1 .7.19 31.44 31.44 0 1 0-7.64-6.29 1.47 1.47 0 0 1 .34.79 1.52 1.52 0 0 1-.06 1 19 19 0 0 1-5.77 7.67l-1.49 1.09h1.84a17.62 17.62 0 0 0 10.88-3.87l.09-.08a1.53 1.53 0 0 1 1.11-.5z"/></svg>