<svg id="Layer_1" data-name="Layer 1" xmlns="http://www.w3.org/2000/svg" viewBox="0 0 140.11 126.61"><defs><style>.cls-1{fill:#41494e}</style></defs><title>ICNHome</title><path class="cls-1" d="M109.76 16.62V7.59h11.22v19.55l-11.22-10.52zM3.95 68.61a3.94 3.94 0 0 1-2.63-6.88L70.52 0l68.17 61a3.93 3.93 0 1 1-5 6.05l-.2-.18-63-55.35-64 56.1a3.94 3.94 0 0 1-2.54.99zM19.62 126.58a3.6 3.6 0 0 1-2.49-1A3.68 3.68 0 0 1 16 123V81.43a3.61 3.61 0 0 1 7.23 0v37.93h94.54V81.43a3.62 3.62 0 0 1 7.23 0V123a4.76 4.76 0 0 1-.16 1.08l-.25.6a3.68 3.68 0 0 1-3.21 1.93z"/></svg>