<svg id="Layer_1" data-name="Layer 1" xmlns="http://www.w3.org/2000/svg" viewBox="0 0 62.93652 64.82714"><defs><style>.cls-1{fill:#41494f}</style></defs><title>Jackpots</title><path class="cls-1" d="M44.531 27.666c-.438 0-.868.036-1.3.066a22.13 22.13 0 0 1-.053-5.78 21.006 21.006 0 0 1 3.374-8.879 1.493 1.493 0 0 0 .153-.32 68.058 68.058 0 0 1 9.823-.532h.297a1.5 1.5 0 1 0 0-3h-.3c-4.573 0-10.784.023-16.94 2.132-5.237 1.793-12.094 7.485-17.595 16.632a18.814 18.814 0 0 0-3.41-.319 18.58 18.58 0 1 0 11.168 33.432 1.5 1.5 0 0 0-1.805-2.397 15.58 15.58 0 1 1-9.363-28.035 15.894 15.894 0 0 1 1.825.117 62.324 62.324 0 0 0-2.58 5.492 1.5 1.5 0 0 0 2.775 1.141 57.397 57.397 0 0 1 2.869-5.965 15.476 15.476 0 0 1 4.762 2.563 1.5 1.5 0 0 0 1.86-2.354 18.511 18.511 0 0 0-5.066-2.84c4.538-7.257 10.318-12.844 15.533-14.63a30.238 30.238 0 0 1 2.262-.671 23.572 23.572 0 0 0-2.617 8.048 25.219 25.219 0 0 0 .064 6.618 18.338 18.338 0 1 0 4.264-.519zm0 33.807a15.393 15.393 0 0 1-3.739-30.329c.226 1.038.47 2.006.693 2.877a18.725 18.725 0 0 1 .763 3.925 1.5 1.5 0 0 0 1.494 1.506h.006a1.5 1.5 0 0 0 1.5-1.494 20.2 20.2 0 0 0-.856-4.682 84.044 84.044 0 0 1-.628-2.571c.256-.013.508-.039.767-.039a15.403 15.403 0 1 1 0 30.807z"/><path class="cls-1" d="M55.288 44.57a1.5 1.5 0 0 0-1.5 1.5 9.267 9.267 0 0 1-9.257 9.255 1.5 1.5 0 0 0 0 3A12.27 12.27 0 0 0 56.788 46.07a1.5 1.5 0 0 0-1.5-1.5zM23.694 53.667a9.196 9.196 0 0 1-5.289 1.658 1.5 1.5 0 0 0 0 3 12.187 12.187 0 0 0 7.006-2.197 1.5 1.5 0 0 0-1.717-2.461zM22.706 23.294a1.567 1.567 0 0 0 .314.032 1.5 1.5 0 0 0 .31-2.968c-6.509-1.38-11.944-5.892-14.088-7.882 2.444-2.58 9.502-9.197 17.858-9.468 5.962-.192 11.452 2.862 15.008 5.46a1.5 1.5 0 0 0 1.77-2.422C39.94 3.17 33.83-.205 27.002.01c-11.716.38-20.625 11.127-21 11.584l-.826 1.013.891.958c.294.316 7.304 7.747 16.64 9.729z"/></svg>