<svg id="Layer_1" data-name="Layer 1" xmlns="http://www.w3.org/2000/svg" viewBox="0 0 92.73193 53.36914"><defs><style>.cls-1{fill:#41494f}</style></defs><title>Gaming</title><path class="cls-1" d="M1.271 13.53A1.27 1.27 0 0 0 0 14.797V36.98a1.27 1.27 0 0 0 2.542 0V14.797A1.27 1.27 0 0 0 1.27 13.53zM37.718 13.215a1.273 1.273 0 0 0 1.272-1.235 1.595 1.595 0 0 1 .587-1.086 1.435 1.435 0 0 1 .937-.395h.02a1.336 1.336 0 0 0 .17.01 1.279 1.279 0 0 0 1.263-1.093 1.252 1.252 0 0 0-.237-.936 1.268 1.268 0 0 0-.84-.5 3.11 3.11 0 0 0-.425-.03 3.965 3.965 0 0 0-2.557 1.031 4.07 4.07 0 0 0-1.454 2.928 1.277 1.277 0 0 0 1.238 1.306zM13.28 12.928a1.28 1.28 0 0 0 1.266-1.239 1.545 1.545 0 0 1 .586-1.08 1.423 1.423 0 0 1 .938-.401h.016a1.253 1.253 0 0 0 .18.013 1.269 1.269 0 0 0 .175-2.525 3.104 3.104 0 0 0-.43-.03 3.978 3.978 0 0 0-2.552 1.03 4.06 4.06 0 0 0-1.45 2.929 1.267 1.267 0 0 0 1.236 1.302zM29.438 15.974H13.953a1.267 1.267 0 0 0-1.27 1.275l.028 5.385a1.276 1.276 0 0 0 1.276 1.264 1.247 1.247 0 0 0 .795-.286 3.868 3.868 0 0 1 2.604-1.032 8.49 8.49 0 0 1 1.112.092l.638.097a20.969 20.969 0 0 0 2.891.301l-.405.529A16.535 16.535 0 0 0 18.15 36.79a1.272 1.272 0 0 0 1.26 1.118h5.623a1.27 1.27 0 0 0 1.247-1.493c-.753-4.22 1.512-9.153 3.825-13.418a1.195 1.195 0 0 0 .153-.502l.441-5.146a1.27 1.27 0 0 0-1.262-1.375zm-1.672 6.015l-.88 1.68c-2.323 4.592-3.368 8.202-3.29 11.369l.02.333h-3.05c-.363-4.89.987-8.166 5.327-12.95a1.248 1.248 0 0 0 .222-1.361 1.262 1.262 0 0 0-1.147-.762 1.315 1.315 0 0 0-.24.022 12.92 12.92 0 0 1-2.323.216 17.963 17.963 0 0 1-2.819-.267c-.25-.039-.497-.076-.744-.11a10.838 10.838 0 0 0-1.475-.115 6.037 6.037 0 0 0-1.967.313l-.162.068-.013-1.912h12.828z"/><path class="cls-1" d="M81.349 0H11.224C7.31 0 4.123 2.854 4.123 6.362v40.643c0 3.51 3.186 6.364 7.101 6.364H81.35c3.913 0 7.097-2.855 7.097-6.364V6.362C88.446 2.854 85.262 0 81.349 0zm4.56 47.005c0 2.109-2.046 3.825-4.56 3.825H11.224c-2.515 0-4.56-1.716-4.56-3.825V6.362c0-2.11 2.045-3.824 4.56-3.824H81.35c2.514 0 4.56 1.715 4.56 3.824zM91.46 13.53a1.27 1.27 0 0 0-1.27 1.267V36.98a1.27 1.27 0 0 0 2.542 0V14.797a1.27 1.27 0 0 0-1.271-1.267z"/><path class="cls-1" d="M78.006 4.271H63.24a6.346 6.346 0 0 0-4.853 2.187 6.34 6.34 0 0 0-4.859-2.187h-14.77a6.372 6.372 0 0 0-4.882 2.211 6.35 6.35 0 0 0-4.883-2.21H14.227c-3.346 0-6.067 2.45-6.067 5.462V43.92c0 3.014 2.721 5.465 6.067 5.465h14.766a6.35 6.35 0 0 0 4.88-2.208 6.369 6.369 0 0 0 4.885 2.208h14.77a6.337 6.337 0 0 0 4.848-2.188 6.343 6.343 0 0 0 4.864 2.188h14.766c3.348 0 6.072-2.451 6.072-5.465V9.734c0-3.012-2.724-5.463-6.072-5.463zm-45.483 39.65a3.262 3.262 0 0 1-3.53 2.925H14.227a3.262 3.262 0 0 1-3.53-2.926V9.734a3.262 3.262 0 0 1 3.53-2.925h14.766a3.262 3.262 0 0 1 3.53 2.925zm24.531 0a3.26 3.26 0 0 1-3.526 2.925h-14.77a3.262 3.262 0 0 1-3.53-2.926V9.734a3.262 3.262 0 0 1 3.53-2.925h14.77a3.26 3.26 0 0 1 3.526 2.925zm24.487 0a3.265 3.265 0 0 1-3.535 2.925H63.24a3.262 3.262 0 0 1-3.53-2.926V9.734a3.262 3.262 0 0 1 3.53-2.925h14.766a3.265 3.265 0 0 1 3.535 2.925z"/><path class="cls-1" d="M78.334 15.974H62.852a1.27 1.27 0 0 0-.907.377 1.256 1.256 0 0 0-.367.9l.037 5.384a1.275 1.275 0 0 0 1.274 1.264 1.237 1.237 0 0 0 .792-.286 3.87 3.87 0 0 1 2.606-1.032 8.537 8.537 0 0 1 1.114.092l.63.095a20.982 20.982 0 0 0 2.897.303l-.403.528a16.52 16.52 0 0 0-3.47 13.19 1.266 1.266 0 0 0 1.26 1.12h5.618a1.27 1.27 0 0 0 1.251-1.494c-.757-4.221 1.51-9.153 3.828-13.422a1.359 1.359 0 0 0 .15-.497l.441-5.146a1.27 1.27 0 0 0-1.27-1.376zm-1.665 6.015l-.88 1.68c-2.322 4.584-3.368 8.194-3.29 11.369l.02.333h-3.057c-.357-4.895.995-8.171 5.334-12.95a1.248 1.248 0 0 0 .223-1.36 1.263 1.263 0 0 0-1.147-.762 1.315 1.315 0 0 0-.24.022 12.911 12.911 0 0 1-2.323.215 17.975 17.975 0 0 1-2.82-.267c-.25-.038-.5-.075-.747-.11a10.765 10.765 0 0 0-1.472-.114 6.031 6.031 0 0 0-1.966.313l-.166.069-.01-1.914h12.828zM53.655 15.974H38.174a1.27 1.27 0 0 0-.908.377 1.256 1.256 0 0 0-.367.899l.037 5.384a1.275 1.275 0 0 0 1.274 1.264 1.237 1.237 0 0 0 .792-.286 3.87 3.87 0 0 1 2.606-1.032 8.537 8.537 0 0 1 1.114.092l.63.096a20.982 20.982 0 0 0 2.898.302l-.404.529a16.52 16.52 0 0 0-3.47 13.19 1.266 1.266 0 0 0 1.26 1.12h5.618a1.27 1.27 0 0 0 1.252-1.494c-.758-4.222 1.51-9.154 3.828-13.423a1.359 1.359 0 0 0 .15-.497l.44-5.146a1.27 1.27 0 0 0-1.269-1.375zm-1.664 6.015l-.88 1.68c-2.323 4.583-3.368 8.193-3.29 11.368l.02.334h-3.057c-.357-4.896.995-8.172 5.334-12.95a1.248 1.248 0 0 0 .222-1.361 1.263 1.263 0 0 0-1.147-.762 1.315 1.315 0 0 0-.24.022 12.911 12.911 0 0 1-2.323.216 17.975 17.975 0 0 1-2.819-.267c-.251-.039-.5-.076-.748-.11a10.765 10.765 0 0 0-1.472-.115 6.031 6.031 0 0 0-1.966.313l-.165.07-.01-1.914h12.827zM62.218 13.072a1.286 1.286 0 0 0 1.28-1.238 1.55 1.55 0 0 1 .575-1.082 1.459 1.459 0 0 1 .941-.397h.022a1.27 1.27 0 0 0 .357-2.516 3.125 3.125 0 0 0-.43-.03 3.975 3.975 0 0 0-2.557 1.03 4.094 4.094 0 0 0-1.453 2.928 1.28 1.28 0 0 0 1.237 1.305z"/></svg>