<svg id="Layer_1" data-name="Layer 1" xmlns="http://www.w3.org/2000/svg" viewBox="0 0 63.92072 39.63611"><defs><style>.cls-1{fill:#41494f}</style></defs><title>Table_Games</title><circle class="cls-1" cx="10.654" cy="15.665" r="2.663"/><circle class="cls-1" cx="10.654" cy="23.655" r="2.663"/><circle class="cls-1" cx="10.654" cy="31.646" r="2.663"/><circle class="cls-1" cx="21.307" cy="15.665" r="2.663"/><circle class="cls-1" cx="21.307" cy="23.655" r="2.663"/><circle class="cls-1" cx="21.307" cy="31.646" r="2.663"/><path class="cls-1" d="M63.186 20.906L52.703 2.75a5.496 5.496 0 0 0-7.51-2.013L30.36 9.3a5.48 5.48 0 0 0-3.898-1.625H5.5A5.504 5.504 0 0 0 0 13.173v20.965a5.504 5.504 0 0 0 5.499 5.498h20.964a5.504 5.504 0 0 0 5.498-5.498v-3.391l3.545 6.14a5.497 5.497 0 0 0 7.51 2.012l18.157-10.482a5.506 5.506 0 0 0 2.013-7.511zM29.298 34.138a2.837 2.837 0 0 1-2.835 2.835H5.5a2.838 2.838 0 0 1-2.836-2.835V13.173A2.838 2.838 0 0 1 5.5 10.338h20.964a2.828 2.828 0 0 1 2.307 1.2l.11.183a2.956 2.956 0 0 1 .29.658c.01.03.02.06.028.09a2.68 2.68 0 0 1 .1.704v20.965zM59.84 26.11L41.685 36.592a2.909 2.909 0 0 1-3.872-1.038L31.96 25.42V13.173a5.498 5.498 0 0 0-.057-.747 4.889 4.889 0 0 0-.015-.103 5.463 5.463 0 0 0-.163-.735l14.798-8.544a2.91 2.91 0 0 1 3.872 1.038l10.482 18.155a2.838 2.838 0 0 1-1.037 3.872z"/><path class="cls-1" d="M49.383 18.308a2.664 2.664 0 1 0 3.638.974 2.735 2.735 0 0 0-3.638-.974zM49.293 14.384a2.646 2.646 0 0 0-.267-2.02 2.733 2.733 0 0 0-3.638-.976 2.663 2.663 0 1 0 3.905 2.996zM40.157 23.635a2.664 2.664 0 1 0 3.638.974 2.735 2.735 0 0 0-3.638-.974zM40.067 19.71a2.646 2.646 0 0 0-.267-2.02 2.732 2.732 0 0 0-3.639-.975 2.663 2.663 0 1 0 3.906 2.996z"/></svg>