<svg id="Layer_1" data-name="Layer 1" xmlns="http://www.w3.org/2000/svg" viewBox="0 0 64.14563 63.75415"><defs><style>.cls-1{fill:#41494f}</style></defs><title>Video_Poker</title><path class="cls-1" d="M41.294 18.318a9.627 9.627 0 0 0-3.544-5.124L49.054 1.89 47.164 0 35.29 11.873a9.341 9.341 0 0 0-6.436 0L16.981 0l-1.89 1.89 11.304 11.304a9.627 9.627 0 0 0-3.545 5.124H0v45.436h64.146V18.318zm-9.221-4.344a6.966 6.966 0 0 1 6.412 4.344H25.66a6.967 6.967 0 0 1 6.413-4.344zm29.4 47.107h-58.8v-40.09h58.8z"/><path class="cls-1" d="M13.68 23.663a8.345 8.345 0 0 0-8.336 8.335v18.075a8.344 8.344 0 0 0 8.335 8.336h26.093a8.344 8.344 0 0 0 8.336-8.336V31.998a8.345 8.345 0 0 0-8.336-8.335zm31.755 8.335v18.075a5.669 5.669 0 0 1-5.663 5.663H13.68a5.669 5.669 0 0 1-5.662-5.663V31.998a5.669 5.669 0 0 1 5.662-5.662h26.093a5.669 5.669 0 0 1 5.663 5.662z"/><circle class="cls-1" cx="56.127" cy="33.018" r="2.673"/><circle class="cls-1" cx="56.127" cy="43.709" r="2.673"/><path class="cls-1" d="M31.002 32.493a5.307 5.307 0 0 0-4.01 1.679 5.253 5.253 0 0 0-9.311 3.172c-.13 4.32 7.134 13.286 8.81 13.336a1.415 1.415 0 0 0 .336-.034c1.517-.358 9.129-8.25 9.265-12.745a5.259 5.259 0 0 0-5.09-5.408zM26.57 48.072c-1.726-1.665-6.633-7.688-6.544-10.657a2.902 2.902 0 0 1 5.74-.516 1.174 1.174 0 0 0 2.28.07 2.902 2.902 0 0 1 5.698.86c-.09 2.97-5.35 8.686-7.174 10.243z"/></svg>