<svg id="Layer_1" data-name="Layer 1" xmlns="http://www.w3.org/2000/svg" viewBox="0 0 74.66 74.65"><defs><style>.cls-1{fill:#41494f;}</style></defs><title>ICNBenefits</title><path class="cls-1" d="M14.11,39.85H1.58A1.59,1.59,0,0,0,0,41.44V73.06a1.58,1.58,0,0,0,1.58,1.58H14.11a1.59,1.59,0,0,0,1.58-1.58V41.44a1.58,1.58,0,0,0-1.58-1.58ZM12.52,71.46H3.17V43h9.35Zm0,0" transform="translate(0 0)"/><path class="cls-1" d="M74.36,22.36,58.67.59a1.64,1.64,0,0,0-2.53,0L40.45,22.36a1.44,1.44,0,0,0,1.26,2.38h7.77V73a1.58,1.58,0,0,0,1.58,1.58H63.59A1.84,1.84,0,0,0,65.32,73V24.76h7.77a1.49,1.49,0,0,0,1.26-2.39Zm-10.79-.79A1.59,1.59,0,0,0,62,23.16V71.46H52.48V23.16a1.58,1.58,0,0,0-1.58-1.58H44.56L57.24,4.1,69.91,21.57Zm0,0" transform="translate(0 0)"/><path class="cls-1" d="M38.85,34.44H26.32A1.59,1.59,0,0,0,24.74,36V73a1.58,1.58,0,0,0,1.58,1.58H38.85A1.59,1.59,0,0,0,40.43,73V36a1.59,1.59,0,0,0-1.58-1.58Zm-1.58,37H27.91V37.63h9.35Zm0,0" transform="translate(0 0)"/></svg>