<svg id="Layer_1" data-name="Layer 1" xmlns="http://www.w3.org/2000/svg" viewBox="0 0 60.83 79.13"><defs><style>.cls-1{fill:#41494f;}</style></defs><title>ICNSignUp</title><path class="cls-1" d="M59.11,18.65a1.72,1.72,0,0,0-1.72,1.72V75.68h-54V9.87H35.27a1.72,1.72,0,0,0,0-3.44H1.72A1.72,1.72,0,0,0,0,8.15V77.41a1.72,1.72,0,0,0,1.72,1.72H59.11a1.72,1.72,0,0,0,1.72-1.72v-57a1.72,1.72,0,0,0-1.72-1.72Z"/><path class="cls-1" d="M45.73,6,18.46,33.3a1.7,1.7,0,0,0-.45.78l-2.34,9a1.72,1.72,0,0,0,1.66,2.15,1.76,1.76,0,0,0,.43-.05l9-2.34a1.72,1.72,0,0,0,.78-.45l27.27-27.3h0l5.49-5.5a1.72,1.72,0,0,0,0-2.43L53.65.5a1.72,1.72,0,0,0-2.43,0L45.73,6h0ZM25.46,39.65l-5.73,1.49,1.49-5.73L46.95,9.65l4.24,4.25Zm27-35.49L56.68,8.4l-3.06,3.06L49.38,7.22Zm0,0"/></svg>