<svg id="Layer_1" data-name="Layer 1" xmlns="http://www.w3.org/2000/svg" viewBox="0 0 64.87096 51.08643"><defs><style>.cls-1{fill:#41494f;}</style></defs><title>Connect</title><path class="cls-1" d="M4.73928,32.62752a8.02037,8.02037,0,0,1-2.04006-.23,3.27935,3.27935,0,0,1-1.52865-.87137,3.73079,3.73079,0,0,1-.89663-1.64739A9.409,9.409,0,0,1,0,27.40647v-1.1313a9.13913,9.13913,0,0,1,.28423-2.47482A3.79,3.79,0,0,1,1.18085,22.167a3.26246,3.26246,0,0,1,1.52959-.86108,8.0663,8.0663,0,0,1,2.02884-.23A5.28855,5.28855,0,0,1,8.0149,21.929a3.52743,3.52743,0,0,1,1.12992,2.94466.32254.32254,0,0,1-.32307.32164H7.18934a.32192.32192,0,0,1-.323-.32164,2.9234,2.9234,0,0,0-.11082-.86577,1.09777,1.09777,0,0,0-.3146-.50579,1.42982,1.42982,0,0,0-.60723-.29407,4.68914,4.68914,0,0,0-1.0944-.10612,4.68615,4.68615,0,0,0-1.22245.136,1.30083,1.30083,0,0,0-.69419.4371,2.20417,2.20417,0,0,0-.40577.93217,8.12289,8.12289,0,0,0-.13931,1.66792v1.1313a8.29648,8.29648,0,0,0,.13931,1.68037,2.22428,2.22428,0,0,0,.40577.9415,1.29785,1.29785,0,0,0,.69419.43661,4.66994,4.66994,0,0,0,1.22245.13557,4.71354,4.71354,0,0,0,1.0944-.10474,1.4175,1.4175,0,0,0,.60723-.29545,1.08728,1.08728,0,0,0,.3146-.50484,3.00588,3.00588,0,0,0,.11082-.88636.32269.32269,0,0,1,.323-.32254H8.82175a.32332.32332,0,0,1,.32307.32254A3.55385,3.55385,0,0,1,8.0149,31.77482a5.29177,5.29177,0,0,1-3.27563.8527Z"/><path class="cls-1" d="M14.48431,32.62752a7.86964,7.86964,0,0,1-2.07463-.24217,3.21246,3.21246,0,0,1-1.51934-.88449,3.75387,3.75387,0,0,1-.862-1.64552,9.67927,9.67927,0,0,1-.26276-2.44887v-1.1313a9.2679,9.2679,0,0,1,.273-2.43087,3.86322,3.86322,0,0,1,.87233-1.64179,3.22852,3.22852,0,0,1,1.52025-.8854,7.847,7.847,0,0,1,2.05313-.24122,7.79151,7.79151,0,0,1,2.06438.24217,3.30074,3.30074,0,0,1,1.517.88166,3.81077,3.81077,0,0,1,.88492,1.64456,9.27722,9.27722,0,0,1,.273,2.43087v1.1313a9.36068,9.36068,0,0,1-.273,2.45074,3.85511,3.85511,0,0,1-.87228,1.64461,3.21722,3.21722,0,0,1-1.51885.88354,7.87838,7.87838,0,0,1-2.07515.24217Zm0-9.52559a4.46816,4.46816,0,0,0-1.23787.14447,1.335,1.335,0,0,0-.689.438,2.14275,2.14275,0,0,0-.3843.92843,8.76,8.76,0,0,0-.1304,1.66232v1.1313a8.8922,8.8922,0,0,0,.1304,1.6841,2.13738,2.13738,0,0,0,.3843.92839,1.3261,1.3261,0,0,0,.68856.43849,4.53819,4.53819,0,0,0,1.23834.14308,4.53216,4.53216,0,0,0,1.23791-.14308,1.394,1.394,0,0,0,.70263-.44222,2.06228,2.06228,0,0,0,.39172-.92465,8.953,8.953,0,0,0,.13044-1.6841v-1.1313a8.8381,8.8381,0,0,0-.13044-1.66328,2.06491,2.06491,0,0,0-.3922-.92374,1.39288,1.39288,0,0,0-.70167-.44174,4.47676,4.47676,0,0,0-1.23839-.14447Z"/><path class="cls-1" d="M26.91315,32.39751a.322.322,0,0,1-.32207-.32163V25.1037a3.74288,3.74288,0,0,0-.1225-1.049,1.36453,1.36453,0,0,0-.31695-.57688,1.114,1.114,0,0,0-.53011-.28052,3.81967,3.81967,0,0,0-.906-.09536,4.00767,4.00767,0,0,0-1.38559.25337,4.50511,4.50511,0,0,0-1.16031.62973v8.09084a.32151.32151,0,0,1-.32255.32163H20.21469a.32142.32142,0,0,1-.32212-.32163v-10.468a.32162.32162,0,0,1,.32212-.32255h1.08918a.32027.32027,0,0,1,.30106.2113l.231.62642a6.66269,6.66269,0,0,1,1.32858-.71149,5.41684,5.41684,0,0,1,1.96946-.33566,5.94,5.94,0,0,1,1.63944.201,2.6511,2.6511,0,0,1,1.201.705,2.99924,2.99924,0,0,1,.68391,1.27621,6.996,6.996,0,0,1,.21087,1.84561v6.97218a.32224.32224,0,0,1-.32307.32163Z"/><path class="cls-1" d="M36.711,32.39751a.32162.32162,0,0,1-.32164-.32163V25.1037a3.739,3.739,0,0,0-.12341-1.049,1.3604,1.3604,0,0,0-.31743-.57688,1.10774,1.10774,0,0,0-.52963-.28052,3.81965,3.81965,0,0,0-.906-.09536,4.01434,4.01434,0,0,0-1.38607.25337A4.48113,4.48113,0,0,0,31.968,23.985v8.09084a.32233.32233,0,0,1-.3235.32163H30.012a.32131.32131,0,0,1-.32159-.32163v-10.468a.3215.3215,0,0,1,.32159-.32255h1.08923a.32151.32151,0,0,1,.302.2113l.23092.62642a6.606,6.606,0,0,1,1.32767-.71149,5.4193,5.4193,0,0,1,1.96993-.33566,5.94725,5.94725,0,0,1,1.63945.201,2.64693,2.64693,0,0,1,1.20048.705,2.99985,2.99985,0,0,1,.68439,1.27621,7.01824,7.01824,0,0,1,.21034,1.84561v6.97218a.3222.3222,0,0,1-.323.32163Z"/><path class="cls-1" d="M44.24208,32.60694a8.561,8.561,0,0,1-2.04566-.21876,3.29077,3.29077,0,0,1-1.54035-.83681,3.7389,3.7389,0,0,1-.92-1.62308,8.995,8.995,0,0,1-.29684-2.52182v-1.1313a9.13641,9.13641,0,0,1,.28516-2.47482,3.73848,3.73848,0,0,1,.90924-1.63571,3.33767,3.33767,0,0,1,1.51512-.85783,7.69658,7.69658,0,0,1,1.98909-.23092,7.28137,7.28137,0,0,1,1.93863.23092,3.25209,3.25209,0,0,1,1.46323.84988,3.67652,3.67652,0,0,1,.87511,1.62494,9.39136,9.39136,0,0,1,.274,2.473v1.2145a.32182.32182,0,0,1-.32164.32255H41.72146a7.56773,7.56773,0,0,0,.12575,1.29889,1.95819,1.95819,0,0,0,.39876.90316,1.45986,1.45986,0,0,0,.733.44222,4.86111,4.86111,0,0,0,1.28464.144,14.53776,14.53776,0,0,0,1.93442-.11221c.55538-.07573,1.09952-.16827,1.62029-.2786a.32766.32766,0,0,1,.0673-.00656.32145.32145,0,0,1,.32164.32259V31.902a.32215.32215,0,0,1-.24868.31417,15.38666,15.38666,0,0,1-1.668.28234,17.71352,17.71352,0,0,1-2.04849.10847Zm2.1663-6.716a9.56927,9.56927,0,0,0-.09722-1.2393,2.24872,2.24872,0,0,0-.3338-.92791,1.23069,1.23069,0,0,0-.62734-.4628,3.79025,3.79025,0,0,0-1.2122-.159,4.23357,4.23357,0,0,0-1.23365.15242,1.33929,1.33929,0,0,0-.68861.46142,2.16855,2.16855,0,0,0-.37817.92465,7.681,7.681,0,0,0-.11594,1.2505Z"/><path class="cls-1" d="M54.05068,32.62752a8.01745,8.01745,0,0,1-2.041-.23,3.289,3.289,0,0,1-1.52958-.87137,3.7383,3.7383,0,0,1-.89569-1.64739,9.44883,9.44883,0,0,1-.274-2.47228v-1.1313a9.11724,9.11724,0,0,1,.28516-2.47482,3.7888,3.7888,0,0,1,.89569-1.63336,3.26324,3.26324,0,0,1,1.53054-.86108,8.0558,8.0558,0,0,1,2.02881-.23,5.28976,5.28976,0,0,1,3.27515.85313,3.531,3.531,0,0,1,1.12853,2.94466.32162.32162,0,0,1-.32164.32164H56.50027a.322.322,0,0,1-.32346-.32164,2.877,2.877,0,0,0-.1113-.86577,1.09566,1.09566,0,0,0-.31321-.50579,1.4355,1.4355,0,0,0-.60866-.29407,5.62334,5.62334,0,0,0-2.3168.02992,1.29173,1.29173,0,0,0-.69282.4371,2.2165,2.2165,0,0,0-.4067.93217,8.16586,8.16586,0,0,0-.13834,1.66792v1.1313a8.26121,8.26121,0,0,0,.1393,1.68037,2.22389,2.22389,0,0,0,.40483.9415,1.29464,1.29464,0,0,0,.69373.43661,5.66754,5.66754,0,0,0,2.3168.03083,1.42587,1.42587,0,0,0,.60866-.29545,1.09249,1.09249,0,0,0,.31321-.50484,2.95871,2.95871,0,0,0,.1113-.88636.32276.32276,0,0,1,.32346-.32254h1.63245a.3224.3224,0,0,1,.32164.32254,3.55746,3.55746,0,0,1-1.12853,2.96567,5.29108,5.29108,0,0,1-3.27515.8527Z"/><path class="cls-1" d="M62.85239,32.62752a2.7756,2.7756,0,0,1-2.15414-.76481,3.28379,3.28379,0,0,1-.67975-2.25792V23.31136H58.97978a.32094.32094,0,0,1-.32164-.32255V21.85847a.32056.32056,0,0,1,.26367-.31695l1.0967-.202v-2.286a.32262.32262,0,0,1,.26927-.31833l1.63245-.27257a.406.406,0,0,1,.05328-.00373.323.323,0,0,1,.3226.323v2.50335h2.04284a.322.322,0,0,1,.32259.32255v1.38094a.32172.32172,0,0,1-.32259.32255H62.2961v6.33177a1.20627,1.20627,0,0,0,.19258.7461.80674.80674,0,0,0,.65634.21129,3.31683,3.31683,0,0,0,.70589-.06543l.63016-.13653a.32236.32236,0,0,1,.3899.316v1.3641a.32338.32338,0,0,1-.22254.30665,4.69356,4.69356,0,0,1-.82.17764,7.18392,7.18392,0,0,1-.97606.06453Z"/><path class="cls-1" d="M56.1517,36.99443a19.41485,19.41485,0,0,1-26.08338,10.9835,20.71634,20.71634,0,0,0,7.43126-2.64885A20.90966,20.90966,0,0,0,49.52988,37.532q.34658-.26155.68147-.5376H47.79793a19.42394,19.42394,0,0,1-3.472,1.86185,20.94616,20.94616,0,0,0,1.10079-1.86185H43.79218a19.52224,19.52224,0,0,1-1.83625,2.65925,19.38918,19.38918,0,0,1-15.79958-2.65925H23.75784a20.81785,20.81785,0,0,0,16.48677,4.48627,19.55243,19.55243,0,0,1-3.27527,2.49738,19.36462,19.36462,0,0,1-15.26408-3.09984,19.3629,19.3629,0,0,1-1.96346-3.8838H18.20923c.14574.42272.29965.84158.47122,1.25167-.37527-.40121-.73184-.82-1.07251-1.25167H15.82141a21.06176,21.06176,0,0,0,4.82677,4.89309,21.03844,21.03844,0,0,0,4.50719,4.806A19.46325,19.46325,0,0,1,10.07,36.99443H8.43538A20.88533,20.88533,0,0,0,26.93049,48.21424c.14889,0,.2958-.00818.444-.01122a20.8451,20.8451,0,0,0,30.299-11.20859Zm-13.38739,3.922a20.70056,20.70056,0,0,0,2.27253-.7974,19.47707,19.47707,0,0,1-3.8048,2.40307A21.0822,21.0822,0,0,0,42.76431,40.91645ZM24.23116,43.97586a20.73573,20.73573,0,0,0,8.6176,1.87762,19.32279,19.32279,0,0,1-5.09492.90375A19.561,19.561,0,0,1,24.23116,43.97586Z"/><path class="cls-1" d="M12.74751,14.092a19.52848,19.52848,0,0,1,5.81793-4.2835,21.05307,21.05307,0,0,0-3.4816,4.2835h1.70308q.44764-.65827.94641-1.27762c-.17577.41839-.33308.846-.48174,1.27762h1.52182a19.43344,19.43344,0,0,1,2.5727-4.74373c.47823-.3533.97212-.68661,1.48237-.99561A19.36108,19.36108,0,0,1,34.8027,9.5854,20.77,20.77,0,0,0,24.7136,14.092h2.40821a19.30644,19.30644,0,0,1,9.99549-3.2859,19.57943,19.57943,0,0,1,3.9991,3.2859h1.91508a21.08743,21.08743,0,0,0-3.3157-3.22221A19.29211,19.29211,0,0,1,48.74791,14.092h2.41382c-.32642-.2681-.66-.5279-1.00251-.77625a20.853,20.853,0,0,0-25.347-7.58027A19.40616,19.40616,0,0,1,55.18788,14.092h1.52818a20.84755,20.84755,0,0,0-35.5664-6.7942A20.93507,20.93507,0,0,0,10.82741,14.092Zm20.119-8.53883a19.371,19.371,0,0,1,13.70937,5.674,20.73822,20.73822,0,0,0-8.63536-1.87809c-.14889,0-.2958.00818-.44387.01122A20.73515,20.73515,0,0,0,26.94942,6.47737,19.35441,19.35441,0,0,1,32.86652,5.55317Z"/></svg>