<svg id="Layer_1" data-name="Layer 1" xmlns="http://www.w3.org/2000/svg" viewBox="0 0 76.97 76.97"><defs><style>.cls-1{fill:#41494f;}</style></defs><title>ICNHelp</title><path class="cls-1" d="M37.43,77a6.76,6.76,0,0,1-5.95-3.56l0-.07h-.08A35.52,35.52,0,0,1,2.82,45.09V45l-.05,0A6.78,6.78,0,0,1,0,39.55V37.43A6.78,6.78,0,0,1,2.75,32l.05,0v-.07A35.52,35.52,0,0,1,31.36,3.64h.08l0-.07A6.75,6.75,0,0,1,37.43,0h2.12A6.78,6.78,0,0,1,45.7,4l0,.08.08,0A35.52,35.52,0,0,1,72.17,30.87l0,.09.09,0A6.74,6.74,0,0,1,77,37.43v2.12A6.74,6.74,0,0,1,72.28,46l-.09,0,0,.09A35.52,35.52,0,0,1,45.81,72.92l-.08,0,0,.08a6.78,6.78,0,0,1-6.15,4Zm0-20.2a3.81,3.81,0,0,0-3.8,3.8v9.64a3.81,3.81,0,0,0,3.8,3.8h2.12a3.81,3.81,0,0,0,3.8-3.8V60.58a3.81,3.81,0,0,0-3.8-3.8ZM6.15,46.5A32.23,32.23,0,0,0,30.47,70.14l.21,0V60.58a6.77,6.77,0,0,1,.13-1.31l0-.15-.14,0A22,22,0,0,1,17.36,46.36l0-.12-.13,0a6.64,6.64,0,0,1-.78,0H6.33l-.23,0ZM58,46A21.74,21.74,0,0,1,46.12,58.46l-.14.06,0,.14a6.73,6.73,0,0,1,.28,1.91v9.17l.22-.06A32.47,32.47,0,0,0,69,46.51l.05-.21H60.58a6.69,6.69,0,0,1-2.37-.43L58,45.81ZM32,20.58A19,19,0,0,0,20.13,31.64l0,.13.11.08a6.76,6.76,0,0,1,3,5.59v2.12a6.76,6.76,0,0,1-3,5.59l-.11.08,0,.13A19,19,0,0,0,32,56.39l.11,0,.07-.09a6.73,6.73,0,0,1,5.25-2.52h2.12a6.7,6.7,0,0,1,4.84,2l.08.08.1,0A18.65,18.65,0,0,0,55.5,44.12l0-.09L55.46,44a6.75,6.75,0,0,1-1.64-4.41V37.43A6.73,6.73,0,0,1,55.46,33l.06-.07,0-.09A18.65,18.65,0,0,0,44.57,21.06l-.1,0-.08.08a6.69,6.69,0,0,1-4.84,2H37.43a6.73,6.73,0,0,1-5.25-2.52l-.07-.09Zm28.59,13a3.8,3.8,0,0,0-3.8,3.8v2.12a3.81,3.81,0,0,0,3.8,3.8h9.64a3.81,3.81,0,0,0,3.8-3.8V37.43a3.81,3.81,0,0,0-3.8-3.8Zm-53.82,0A3.81,3.81,0,0,0,3,37.43v2.12a3.81,3.81,0,0,0,3.8,3.8H16.4a3.81,3.81,0,0,0,3.8-3.8V37.43a3.81,3.81,0,0,0-3.8-3.8ZM46.3,16.4A6.71,6.71,0,0,1,46,18.31l0,.14.14.06A21.73,21.73,0,0,1,58,31l.06.16.16-.06a6.7,6.7,0,0,1,2.37-.43h8.52L69,30.46A32.47,32.47,0,0,0,46.52,7.29l-.22-.06ZM16.4,30.67a6.85,6.85,0,0,1,.79,0h.13l0-.12A22,22,0,0,1,30.69,17.9l.14,0,0-.15a6.74,6.74,0,0,1-.13-1.31V6.78l-.21,0A32.21,32.21,0,0,0,6.15,30.48l-.06.22H16.4ZM37.43,3a3.81,3.81,0,0,0-3.8,3.8V16.4a3.81,3.81,0,0,0,3.8,3.8h2.12a3.81,3.81,0,0,0,3.8-3.8V6.75A3.81,3.81,0,0,0,39.55,3Z"/></svg>