<svg id="Layer_1" data-name="Layer 1" xmlns="http://www.w3.org/2000/svg" viewBox="0 0 62.43 74.31"><defs><style>.cls-1{fill:#41494f;}</style></defs><title>ICNResults</title><path class="cls-1" d="M62.42,19.14s0,0,0-.06,0,0,0-.08,0,0,0-.06l0-.08s0,0,0-.06a.46.46,0,0,0-.06-.12l0,0,0-.08,0,0,0,0L48.42.59v0L48.33.49s0,0,0,0a.42.42,0,0,0-.12-.11h0L48,.24l0,0a.62.62,0,0,0-.11-.06l0,0-.11,0,0,0-.11,0h0l-.12,0H1.52A1.53,1.53,0,0,0,0,1.52V72.79a1.53,1.53,0,0,0,1.52,1.52H60.91a1.53,1.53,0,0,0,1.52-1.52V19.23s0-.06,0-.09Zm-4.6-1.25H48.76L48.73,6Zm1.57,53.39H3V3.06H45.68l0,16.35a1.53,1.53,0,0,0,1.52,1.52H59.39Zm0,0"/><path class="cls-1" d="M14.89,47V44.79l2-1.82c3.41-3,5.06-4.8,5.11-6.62,0-1.27-.77-2.28-2.57-2.28a5.65,5.65,0,0,0-3.34,1.3l-1-2.62a8.63,8.63,0,0,1,5.11-1.61c3.53,0,5.47,2.06,5.47,4.9,0,2.62-1.9,4.7-4.15,6.72L20.07,44v0H26v3Z"/><path class="cls-1" d="M34.21,39.49v2.42H27.92V39.49Z"/><path class="cls-1" d="M47.46,39.13c0,4.83-1.94,8.14-5.93,8.14s-5.81-3.62-5.83-8,1.92-8.09,6-8.09S47.46,34.85,47.46,39.13Zm-8.09.1c0,3.58.84,5.28,2.26,5.28s2.18-1.78,2.18-5.33-.74-5.28-2.21-5.28S39.35,35.6,39.37,39.22Z"/></svg>