<svg id="Layer_1" data-name="Layer 1" xmlns="http://www.w3.org/2000/svg" viewBox="0 0 58.68 57.48"><defs><style>.cls-1{fill:#41494f;}</style></defs><title>ICNStatistics</title><path class="cls-1" d="M52.75,12.84a.8.8,0,0,0,1.52,0L58.62,1.12a.8.8,0,0,0-1.09-1L46.19,5.46A.8.8,0,0,0,46.36,7l3.42.75L40,18.36l-9.84-5.07a2.1,2.1,0,0,0-2.15.13L2.61,30.7V1.31A1.31,1.31,0,1,0,0,1.31V56.17a1.31,1.31,0,0,0,1.31,1.31H56.17a1.31,1.31,0,0,0,0-2.61H2.61v-21L29.25,15.75l9.91,5.11a2.11,2.11,0,0,0,2.52-.45l10-10.92Z"/><path class="cls-1" d="M13.78,34.13V48.47H10.43V36.4l3.35-2.28m2-3.78-7.35,5V50.47h7.35V30.35Z"/><path class="cls-1" d="M24.93,26.55V48.47H21.58V28.83l3.35-2.28m2-3.78-7.35,5v22.7h7.35V22.77Z"/><path class="cls-1" d="M32.73,25.14l3.35,1.72v21.6H32.73V25.14m-2-3.28V50.47h7.35V25.65l-7.35-3.79Z"/><path class="cls-1" d="M47.22,23.06V48.47H43.87V26.7l3.35-3.64m2-5.13-7.35,8V50.47h7.35V17.92Z"/></svg>