<svg id="Layer_1" data-name="Layer 1" xmlns="http://www.w3.org/2000/svg" viewBox="0 0 68.82861 62.40381"><defs><style>.cls-1{fill:#41494f}</style></defs><title>7s&amp;amp;Gems</title><path class="cls-1" d="M47.707 62.404H14.902v-1.5c0-5.578.538-15.96 4.142-22.808 4.02-7.64 8.324-11.66 12.839-14.712-1.613-.195-3.237-.56-4.84-.92-2.917-.657-5.671-1.275-8.217-.905-4.271.624-6.865 4.862-6.865 6.56v1.5H0V2.775h11.941v1.043C22.695-2.376 36.066.263 41.995 2.724c5.878 2.44 15.07.402 17.915-1.477l.906-.598 8.013 6.335-1.081 1.189c-12.16 13.377-15.331 23.222-17.966 33.8-1.348 5.414-2.075 15.856-2.075 18.93zm-29.79-3H44.74c.162-4.272.897-13.205 2.13-18.155C49.527 30.586 52.708 20.64 64.456 7.35l-3.852-3.045C56.229 6.55 47.02 8.058 40.844 5.494c-5.835-2.422-19.512-5.06-29.513 2.3l-2.39 1.76V5.774H3V26.62h6.184a11.852 11.852 0 0 1 9.21-8.029c3.091-.45 6.252.26 9.307.947 3.902.877 7.588 1.706 10.556-.017l1.505 2.596-.015.009-.775.448c-6.453 3.73-12.027 6.952-17.273 16.92-3.076 5.845-3.69 15.008-3.783 19.91z"/></svg>