<svg id="Layer_1" data-name="Layer 1" xmlns="http://www.w3.org/2000/svg" viewBox="0 0 69.86837 67.4333"><defs><style>.cls-1{fill:#41494f}</style></defs><title>Bonus_Feature_Slots</title><path class="cls-1" d="M64.211 16.228A5.663 5.663 0 0 0 62.89 27.4l-.072 17.184a5.766 5.766 0 0 1-5.768 5.75l-3.028-.004.055-34.03a8.359 8.359 0 0 0-8.26-8.36l.006-4.239A3.652 3.652 0 0 0 42.181.048L12.014 0a3.65 3.65 0 0 0-3.653 3.642L8.355 7.88a8.357 8.357 0 0 0-8.287 8.333L0 59.01a8.36 8.36 0 0 0 8.338 8.365l37.306.06a8.362 8.362 0 0 0 8.365-8.339l.01-6.174 3.027.005a8.36 8.36 0 0 0 8.365-8.335l.072-17.183a5.663 5.663 0 0 0-1.272-11.18zM10.954 3.646A1.056 1.056 0 0 1 12.01 2.59l30.167.048a1.057 1.057 0 0 1 1.054 1.058l-.007 4.235-32.277-.051zM51.416 59.09a5.766 5.766 0 0 1-5.768 5.75l-37.306-.058a5.766 5.766 0 0 1-5.75-5.77l.067-42.795a5.766 5.766 0 0 1 5.77-5.75l37.305.059a5.766 5.766 0 0 1 5.75 5.769zm12.782-34.123a3.074 3.074 0 1 1 3.078-3.07 3.077 3.077 0 0 1-3.078 3.07z"/><path class="cls-1" d="M13.753 45.39a5.202 5.202 0 1 0 5.195 5.211 5.208 5.208 0 0 0-5.195-5.21zm-.013 7.814a2.61 2.61 0 1 1 2.615-2.607 2.613 2.613 0 0 1-2.615 2.607zM27.026 45.412a5.202 5.202 0 1 0 5.194 5.21 5.209 5.209 0 0 0-5.194-5.21zm-.012 7.813a2.61 2.61 0 1 1 2.615-2.607 2.614 2.614 0 0 1-2.615 2.607zM40.298 45.433a5.202 5.202 0 1 0 5.194 5.21 5.208 5.208 0 0 0-5.194-5.21zm-.012 7.813A2.61 2.61 0 1 1 42.9 50.64a2.613 2.613 0 0 1-2.615 2.607zM44.817 23.67l-2.874-.255-1.262-2.772a1.267 1.267 0 0 0-2.308-.002l-1.265 2.774-2.87.257a1.262 1.262 0 0 0-.959.601 1.266 1.266 0 0 0-.956-.602l-2.874-.256-1.263-2.772a1.268 1.268 0 0 0-1.151-.743h-.003a1.272 1.272 0 0 0-1.153.741l-1.265 2.774-2.869.257a1.264 1.264 0 0 0-.96.601 1.266 1.266 0 0 0-.956-.602l-2.873-.256-1.264-2.774a1.268 1.268 0 0 0-2.307 0l-1.265 2.774-2.87.257a1.267 1.267 0 0 0-.783 2.16l2.157 2.142-.532 2.74a1.268 1.268 0 0 0 1.81 1.376l2.635-1.314 2.637 1.324a1.267 1.267 0 0 0 1.811-1.374l-.533-2.755 2.155-2.136a1.243 1.243 0 0 0 .179-.236 1.254 1.254 0 0 0 .175.234l2.157 2.141-.532 2.74a1.268 1.268 0 0 0 1.81 1.376l2.634-1.314 2.636 1.323a1.268 1.268 0 0 0 1.813-1.373l-.534-2.754 2.156-2.137a1.243 1.243 0 0 0 .179-.236 1.25 1.25 0 0 0 .175.234l2.157 2.141-.532 2.737a1.268 1.268 0 0 0 1.81 1.379l2.634-1.314L42.16 32.1a1.268 1.268 0 0 0 1.813-1.373l-.534-2.754 2.158-2.14a1.268 1.268 0 0 0-.78-2.161zm-28.152 3.258a.998.998 0 0 0-.277.9l.351 1.815-1.75-.879a.996.996 0 0 0-.45-.106 1.011 1.011 0 0 0-.446.105l-1.754.874.35-1.804a1.003 1.003 0 0 0-.276-.902l-1.419-1.408 1.884-.168a1.001 1.001 0 0 0 .821-.58l.84-1.843.839 1.842a1.001 1.001 0 0 0 .821.581l1.882.168zm12.493 0a.998.998 0 0 0-.277.9l.351 1.815-1.752-.879a.992.992 0 0 0-.448-.106 1.011 1.011 0 0 0-.446.105l-1.753.874.35-1.804a1.003 1.003 0 0 0-.276-.902l-1.419-1.408 1.884-.168a1.001 1.001 0 0 0 .821-.58l.839-1.842.839 1.841a1.001 1.001 0 0 0 .821.581l1.883.168zm12.494 0a.998.998 0 0 0-.277.9l.351 1.815-1.752-.879a.992.992 0 0 0-.448-.106 1.011 1.011 0 0 0-.446.105l-1.753.874.35-1.804a1.003 1.003 0 0 0-.276-.902l-1.419-1.408 1.884-.168a1.001 1.001 0 0 0 .821-.58l.84-1.842.838 1.841a1.001 1.001 0 0 0 .821.581l1.883.168z"/></svg>