<svg id="Layer_1" data-name="Layer 1" xmlns="http://www.w3.org/2000/svg" viewBox="0 0 69.8683 67.43324"><defs><style>.cls-1{fill:#41494f}</style></defs><title>Free_Spins_Reel_Band_Action</title><path class="cls-1" d="M64.211 16.228A5.663 5.663 0 0 0 62.89 27.4l-.072 17.184a5.765 5.765 0 0 1-5.768 5.75l-3.027-.004.054-34.03a8.359 8.359 0 0 0-8.26-8.36l.006-4.239A3.652 3.652 0 0 0 42.181.048L12.014 0a3.65 3.65 0 0 0-3.653 3.642L8.355 7.88a8.357 8.357 0 0 0-8.287 8.333L0 59.01a8.36 8.36 0 0 0 8.338 8.365l37.306.06a8.361 8.361 0 0 0 8.364-8.339l.01-6.174 3.028.005a8.36 8.36 0 0 0 8.364-8.335l.072-17.183a5.663 5.663 0 0 0-1.27-11.18zM10.954 3.646A1.056 1.056 0 0 1 12.01 2.59l30.167.048a1.056 1.056 0 0 1 1.053 1.058l-.006 4.235-32.277-.051zM51.416 59.09a5.766 5.766 0 0 1-5.768 5.75l-37.306-.058a5.766 5.766 0 0 1-5.75-5.77l.067-42.795a5.766 5.766 0 0 1 5.77-5.75l37.305.059a5.766 5.766 0 0 1 5.75 5.769zm12.782-34.123a3.074 3.074 0 1 1 3.078-3.07 3.077 3.077 0 0 1-3.078 3.07z"/><path class="cls-1" d="M46.714 13.464H7.513a2.309 2.309 0 0 0-2.306 2.305v19.6a2.309 2.309 0 0 0 2.306 2.307h39.2a2.309 2.309 0 0 0 2.307-2.306v-19.6a2.309 2.309 0 0 0-2.306-2.306zM19.042 35.37H7.513v-19.6h11.53zm13.836 0h-11.53v-19.6h11.53zm13.836 0h-11.53v-19.6h11.53zM13.278 55.747a1.152 1.152 0 0 0-1.153 1.152 2.306 2.306 0 1 1-2.306-2.306 1.153 1.153 0 0 0 0-2.305 4.612 4.612 0 1 0 4.612 4.611 1.153 1.153 0 0 0-1.153-1.152zM24.807 55.747a1.152 1.152 0 0 0-1.152 1.152 2.306 2.306 0 1 1-2.306-2.306 1.153 1.153 0 1 0 0-2.305 4.612 4.612 0 1 0 4.612 4.611 1.153 1.153 0 0 0-1.154-1.152zM36.337 55.747a1.152 1.152 0 0 0-1.153 1.152 2.306 2.306 0 1 1-2.306-2.306 1.153 1.153 0 0 0 0-2.305 4.612 4.612 0 1 0 4.612 4.611 1.153 1.153 0 0 0-1.153-1.152zM47.866 55.747a1.152 1.152 0 0 0-1.152 1.152 2.306 2.306 0 1 1-2.306-2.306 1.153 1.153 0 0 0 0-2.305 4.612 4.612 0 1 0 4.612 4.611 1.153 1.153 0 0 0-1.154-1.152z"/><path class="cls-1" d="M9.819 23.84a1.152 1.152 0 0 0 1.153-1.153h3.28a12.283 12.283 0 0 0-2.127 6.918 1.153 1.153 0 1 0 2.306 0 9.914 9.914 0 0 1 3.054-7.193l.028-.027c.016-.015.033-.03.047-.045a.767.767 0 0 0 .038-.042l.037-.041a.913.913 0 0 0 .036-.05l.03-.041.031-.051c.009-.016.018-.03.025-.047.01-.017.017-.034.025-.05l.023-.053.019-.049.019-.058.012-.049.014-.059.008-.055c.003-.018.006-.036.007-.055l.004-.067.002-.039v-.008c0-.025-.003-.05-.005-.075 0-.013 0-.026-.002-.039a1.322 1.322 0 0 0-.012-.076l-.005-.036c-.005-.023-.012-.047-.019-.07l-.01-.04-.02-.056-.019-.049c-.005-.013-.012-.027-.019-.04-.01-.02-.019-.042-.03-.062l-.02-.032a1.123 1.123 0 0 0-.04-.065c-.006-.01-.015-.02-.022-.03-.015-.021-.03-.042-.046-.06l-.005-.006-.027-.03a.783.783 0 0 0-.045-.048.53.53 0 0 0-.043-.038 1.163 1.163 0 0 0-.04-.036 1.475 1.475 0 0 0-.05-.037l-.041-.03-.052-.031-.045-.026a.854.854 0 0 0-.052-.024.676.676 0 0 0-.101-.042l-.058-.019c-.016-.005-.033-.008-.05-.012a.839.839 0 0 0-.114-.022l-.055-.008c-.023-.002-.046-.002-.07-.003-.011-.001-.024-.003-.037-.003H9.82a1.153 1.153 0 0 0-1.153 1.153v1.153A1.152 1.152 0 0 0 9.82 23.84zM23.655 23.84a1.152 1.152 0 0 0 1.152-1.153h3.28a12.283 12.283 0 0 0-2.126 6.918 1.153 1.153 0 1 0 2.305 0 9.91 9.91 0 0 1 3.055-7.193l.027-.027.048-.045.038-.042.036-.041.037-.05.03-.041.03-.051a.784.784 0 0 0 .05-.097 1.04 1.04 0 0 0 .04-.101c.009-.02.015-.039.021-.059l.013-.049c.005-.02.01-.04.013-.059.004-.018.006-.036.009-.055l.007-.055a1.06 1.06 0 0 0 .003-.067l.002-.039v-.008c0-.025-.002-.05-.004-.075l-.003-.039c-.002-.025-.007-.05-.01-.076L31.7 21.3l-.018-.07-.01-.04-.02-.056-.019-.049-.02-.04c-.009-.02-.018-.042-.03-.062-.005-.011-.013-.022-.019-.032a1.193 1.193 0 0 0-.04-.065c-.006-.01-.016-.02-.023-.03-.015-.021-.03-.042-.046-.06l-.004-.006-.027-.03-.046-.048a.753.753 0 0 0-.042-.038 1.009 1.009 0 0 0-.04-.036 1.37 1.37 0 0 0-.05-.037l-.042-.03-.052-.031-.045-.026a.719.719 0 0 0-.052-.024.676.676 0 0 0-.051-.023l-.05-.019-.057-.019c-.016-.005-.033-.008-.05-.012a.765.765 0 0 0-.06-.014c-.017-.004-.036-.006-.055-.009l-.055-.007a1.167 1.167 0 0 0-.069-.003c-.012-.001-.024-.003-.037-.003h-6.917a1.154 1.154 0 0 0-1.154 1.153v1.153a1.153 1.153 0 0 0 1.154 1.153zM37.49 23.84a1.153 1.153 0 0 0 1.153-1.153h3.28a12.282 12.282 0 0 0-2.128 6.918 1.153 1.153 0 1 0 2.307 0 9.914 9.914 0 0 1 3.054-7.193l.028-.027.048-.045.038-.042.035-.041.037-.05.03-.041a1.793 1.793 0 0 0 .081-.149l.024-.052a1.04 1.04 0 0 0 .036-.107.557.557 0 0 0 .013-.049l.014-.059.008-.055.007-.055.004-.067.001-.039v-.008a.87.87 0 0 0-.004-.075c0-.013 0-.026-.002-.039l-.011-.076-.007-.036-.017-.07-.011-.04-.02-.056-.019-.049c-.005-.013-.012-.027-.019-.04-.01-.02-.018-.042-.03-.062-.005-.011-.013-.022-.02-.032-.012-.022-.025-.044-.039-.065l-.024-.03c-.015-.021-.03-.042-.046-.06l-.004-.006c-.008-.011-.018-.02-.027-.03a1.07 1.07 0 0 0-.088-.087l-.041-.035-.05-.037-.04-.03-.053-.031-.045-.026a.955.955 0 0 0-.051-.025l-.052-.022a.904.904 0 0 0-.107-.037c-.016-.006-.033-.01-.05-.014a.998.998 0 0 0-.059-.013c-.018-.004-.037-.006-.056-.009a1.194 1.194 0 0 0-.123-.01l-.037-.003H37.49a1.153 1.153 0 0 0-1.153 1.153v1.154a1.153 1.153 0 0 0 1.153 1.152z"/></svg>