<svg id="Layer_1" data-name="Layer 1" xmlns="http://www.w3.org/2000/svg" viewBox="0 0 58.72562 67.50293"><defs><style>.cls-1{fill:#41494f}</style></defs><title>Fruits</title><path class="cls-1" d="M58.156 33.273a8.874 8.874 0 0 0-8.593-5.748C40.88 20.465 31.64 18.92 21.338 22.8 11.036 26.679 5.11 33.934 3.238 44.966A8.88 8.88 0 0 0 9.163 60.7c5.588 4.544 11.404 6.804 17.588 6.803a30.103 30.103 0 0 0 10.637-2.076c10.303-3.88 16.229-11.134 18.1-22.167a8.886 8.886 0 0 0 2.669-9.987zm-4.92 7.934l-.52.367-.097.628c-1.005 6.51-3.788 15.711-16.289 20.417-12.5 4.703-20.66-.374-25.71-4.604l-.486-.41-.633.067A5.881 5.881 0 0 1 5.49 47.019l.519-.368.097-.628c1.006-6.51 3.789-15.71 16.29-20.416 12.502-4.707 20.659.375 25.708 4.604l.488.41.632-.067a5.881 5.881 0 0 1 4.012 10.653zM50.147 25.352l1.21.41.598-1.13c.17-.321 4.129-7.945 1.475-14.614C50.778 3.348 42.663.528 42.32.41L41.108 0l-.598 1.13c-.17.322-4.128 7.945-1.475 14.615s10.767 9.49 11.111 9.607zM42.61 3.77c2.148.981 6.45 3.375 8.034 7.356 1.585 3.983.1 8.68-.786 10.867-2.146-.974-6.443-3.358-8.034-7.358-1.584-3.982-.101-8.677.786-10.865z"/><path class="cls-1" d="M32.89 26.027l-.183.001c-3.523.08-8.229 1.313-10.408 3.514a1.5 1.5 0 0 0 2.131 2.111c1.361-1.375 5.104-2.552 8.326-2.625a12.191 12.191 0 0 1 7.769 2.42 1.5 1.5 0 1 0 1.922-2.303 15.246 15.246 0 0 0-9.557-3.118z"/></svg>