<svg id="Layer_1" data-name="Layer 1" xmlns="http://www.w3.org/2000/svg" viewBox="0 0 70.57336 55.87054"><defs><style>.cls-1{fill:#41494f}</style></defs><title>Vegas_Tables</title><path class="cls-1" d="M61.627 0H8.946A8.956 8.956 0 0 0 0 8.947v11.637a35.287 35.287 0 1 0 70.573 0V8.947A8.956 8.956 0 0 0 61.627 0zm6.006 20.584a32.346 32.346 0 1 1-64.692 0V8.947A6.012 6.012 0 0 1 8.946 2.94h52.681a6.012 6.012 0 0 1 6.006 6.007z"/><path class="cls-1" d="M55.224 14.703H54.4a19.114 19.114 0 0 1-38.227 0h-5.236v2.94h2.497a21.87 21.87 0 0 0 1.558 5.689l-2.584 1.492 1.47 2.547 2.451-1.415a22.212 22.212 0 0 0 4.568 5.439l-2.942 2.943 2.079 2.079 3.119-3.12-.615-.615a21.98 21.98 0 0 0 25.495.002l-.613.613 3.12 3.12 2.078-2.08-2.942-2.942a22.207 22.207 0 0 0 4.568-5.439l2.45 1.415 1.47-2.547-2.583-1.492a21.87 21.87 0 0 0 1.558-5.689h2.496v-2.94h-4.41zM26.465 8.822h17.643v2.941H26.465z"/></svg>