<svg id="Layer_1" data-name="Layer 1" xmlns="http://www.w3.org/2000/svg" viewBox="0 0 69.86837 67.4333"><defs><style>.cls-1{fill:#41494f}</style></defs><title>Vegas_Jackpots</title><path class="cls-1" d="M44.25 16.463l-34.358-.055a1.296 1.296 0 0 0-1.298 1.294l-.027 17.39a1.295 1.295 0 0 0 1.293 1.297l34.36.054a1.295 1.295 0 0 0 1.297-1.292l.027-17.39a1.296 1.296 0 0 0-1.293-1.298zM20.02 33.814l-8.859-.014.024-14.798 8.86.014zm11.454.018l-8.86-.014.023-14.798 8.86.014zm11.453.018l-8.86-.014.01-6.103 8.86.014zm.014-8.695l-8.86-.014.01-6.103 8.86.014z"/><path class="cls-1" d="M64.211 16.228A5.663 5.663 0 0 0 62.89 27.4l-.072 17.184a5.766 5.766 0 0 1-5.768 5.75l-3.028-.004.055-34.03a8.359 8.359 0 0 0-8.26-8.36l.006-4.239A3.652 3.652 0 0 0 42.181.048L12.014 0a3.65 3.65 0 0 0-3.653 3.642L8.355 7.88a8.357 8.357 0 0 0-8.287 8.333L0 59.01a8.36 8.36 0 0 0 8.338 8.365l37.306.06a8.362 8.362 0 0 0 8.365-8.339l.01-6.174 3.027.005a8.36 8.36 0 0 0 8.365-8.335l.072-17.183a5.663 5.663 0 0 0-1.272-11.18zM10.954 3.646A1.056 1.056 0 0 1 12.01 2.59l30.167.048a1.056 1.056 0 0 1 1.054 1.058l-.007 4.235-32.277-.051zM51.416 59.09a5.766 5.766 0 0 1-5.768 5.75l-37.306-.058a5.766 5.766 0 0 1-5.75-5.77l.067-42.795a5.766 5.766 0 0 1 5.77-5.75l37.305.059a5.766 5.766 0 0 1 5.75 5.769zm12.782-34.123a3.074 3.074 0 1 1 3.078-3.07 3.078 3.078 0 0 1-3.078 3.07z"/><path class="cls-1" d="M27.026 45.412a5.202 5.202 0 1 0 5.194 5.21 5.209 5.209 0 0 0-5.194-5.21zm-.012 7.813a2.61 2.61 0 1 1 2.615-2.607 2.614 2.614 0 0 1-2.615 2.607zM40.298 45.433a5.202 5.202 0 1 0 5.194 5.21 5.208 5.208 0 0 0-5.194-5.21zm-.012 7.813A2.61 2.61 0 1 1 42.9 50.64a2.614 2.614 0 0 1-2.615 2.607zM13.753 45.39a5.202 5.202 0 1 0 5.195 5.211 5.208 5.208 0 0 0-5.195-5.21zm-.013 7.814a2.61 2.61 0 1 1 2.615-2.607 2.613 2.613 0 0 1-2.615 2.607z"/></svg>