<svg id="Layer_1" data-name="Layer 1" xmlns="http://www.w3.org/2000/svg" viewBox="0 0 78.84434 67.40161"><defs><style>.cls-1{fill:#41494f}</style></defs><title>Cycling</title><path class="cls-1" d="M36.766 31.022l12.605-6.926 5.846 6.342c.132.145.275.316.424.496.58.69 1.3 1.547 2.05 1.547l11.671-.113a1.303 1.303 0 0 0 1.313-1.39 1.265 1.265 0 0 0-1.284-1.338l-11.204.001-14.09-15.29c-.15-.162-.296-.332-.483-.551a6.254 6.254 0 0 0-1.57-1.47 2.216 2.216 0 0 0-1.095-.283 6.434 6.434 0 0 0-2.998 1.203c-.313.186-.61.363-.906.52l-14.908 7.92a6.637 6.637 0 0 0-3.403 6.808 8.46 8.46 0 0 0 3.158 4.89L35.21 44.82l.077.151-1.078 13.744-.05.43a3.53 3.53 0 0 0 .036.875c.309 2.194 2.811 2.734 4.826 3.167.37.08.719.155 1.045.237a4.494 4.494 0 0 0 1.087.14 3.162 3.162 0 0 0 2.852-1.604 3.76 3.76 0 0 0 .37-1.494l2.134-18.414a2.09 2.09 0 0 1 .064-.328 1.186 1.186 0 0 0-.178-1.615zm7.096 10.737a2.107 2.107 0 0 0-.09.41l-2.013 17.384.065-.058-.167.958-.066.11-.09.232-.14.078-.143.049h-.202l-.17.014-.03-.127-.026-.015-3.491-.88a.606.606 0 0 1-.332-.183l-.1-.126 1.142-14.56a3.861 3.861 0 0 0-.018-.448 1.245 1.245 0 0 0-.328-1.27L22.98 30.739a5.723 5.723 0 0 1-1.365-2.013 3.364 3.364 0 0 1-.183-2.026 4.44 4.44 0 0 1 1.993-2.608l16.163-8.586a8.27 8.27 0 0 0 .544-.32.43.43 0 0 1-.07-.442l.068-.113.168-.08h.092a.512.512 0 0 1 .391.25l.016-.009 6.673 7.239-13.697 7.525a1.377 1.377 0 0 0-.275 2.13l10.376 9.831.014.165zM51.163 16.046A8.354 8.354 0 0 0 62.199 5.248a8.354 8.354 0 1 0-15.505 6.222 8.302 8.302 0 0 0 4.469 4.576zM49.27 6.148a5.633 5.633 0 1 1-.047 4.306 5.626 5.626 0 0 1 .047-4.306z"/><path class="cls-1" d="M74.491 41.827a15.007 15.007 0 1 0-10.737 25.575h.076a15.006 15.006 0 0 0 10.661-25.575zM63.768 64.674a12.287 12.287 0 0 1 .06-24.573h.061a12.3 12.3 0 0 1 12.227 12.346 12.344 12.344 0 0 1-12.348 12.227zM15.013 37.1a15.014 15.014 0 0 0-.073 30.028h.076a15.014 15.014 0 1 0-.003-30.028zm-.057 27.3a12.287 12.287 0 0 1 .057-24.573h.062a12.287 12.287 0 0 1-.12 24.573z"/></svg>