<svg id="Layer_1" data-name="Layer 1" xmlns="http://www.w3.org/2000/svg" viewBox="0 0 69.23409 69.23424"><defs><style>.cls-1{fill:#41494f}</style></defs><title>Football</title><path class="cls-1" d="M59.095 10.14a34.617 34.617 0 0 0-48.956 48.955 34.617 34.617 0 0 0 48.956-48.956zm7.357 24.942L59.29 27.59l1.502-11.113a31.609 31.609 0 0 1 5.664 18.14c0 .155-.003.31-.005.465zm-4.96 16.628l-11.869 2.111-5.942-9.143 4.21-12.958 9.473-2.127 8.818 9.225a31.494 31.494 0 0 1-4.69 12.892zm-41.876 2.103l-11.962-2.24a31.496 31.496 0 0 1-4.61-12.82l8.823-9.16 9.476 2.127 4.21 12.958zm8.47-10.323L24.052 31.07l10.566-7.677 10.566 7.677-4.036 12.421zM58.4 13.448l-1.821 13.476-9.455 2.122-11.119-8.078v-8.89l12.617-6.071a31.887 31.887 0 0 1 8.51 6.096q.656.656 1.268 1.345zM45.2 4.571L34.617 9.664 24.034 4.571a32.106 32.106 0 0 1 21.166 0zM20.612 6.006l12.617 6.072v8.89L22.11 29.046l-9.455-2.122-1.82-13.476q.613-.687 1.268-1.345a31.887 31.887 0 0 1 8.51-6.097zm-12.17 10.47l1.501 11.111-7.161 7.435c-.002-.135-.005-.27-.005-.405a31.609 31.609 0 0 1 5.664-18.14zm1.58 38.365l9.339 1.75 4.19 7.897a31.74 31.74 0 0 1-11.448-7.356Q11 56.03 10.02 54.842zm17.27 10.772l-5.409-10.192 5.949-9.154h13.57l5.946 9.15-5.482 10.214a32.213 32.213 0 0 1-14.574-.018zm29.84-8.481a31.738 31.738 0 0 1-11.514 7.38l4.248-7.914 9.253-1.645q-.939 1.127-1.988 2.179z"/></svg>