<svg id="Layer_1" data-name="Layer 1" xmlns="http://www.w3.org/2000/svg" viewBox="0 0 106.62742 63.65687"><defs><style>.cls-1{fill:#41494f}</style></defs><title>Greyhounds</title><path class="cls-1" d="M106.191 7.228c-.418-.596-2.105-.97-2.795-.996L88.8 5.238l-.681-.481a2.637 2.637 0 0 0-2.21-1.918l-.25-.006-4.938-1.63-5.729-.959a2.172 2.172 0 0 0-1.256-.23 2.202 2.202 0 0 0-.739.222c-.627.327-1.064-.068-1.169.618a8.858 8.858 0 0 0 1.161 6.295l-1.103 2.528-1.314.477c-8.077 2.916-37.847 10.971-47.106 19.729a1.584 1.584 0 0 1-1.012-.66l-2.258 3.06h.006l-.014.02-.005-.003-1.2 1.626.007.005-.193.262a15.275 15.275 0 0 0 1.553.95l-9.13 6.844-6.38 4.423a3.696 3.696 0 0 0-1.314 2.132L.043 61.52a1.757 1.757 0 0 0 .402 1.573 1.729 1.729 0 0 0 1.471.552l4.62-.535a2.31 2.31 0 0 0 1.825-1.325l4.556-9.924a.19.19 0 0 1 .127-.11l6.2-3.262 11.233-5.269a3.212 3.212 0 0 0 1.635-1.513 3.93 3.93 0 0 0 1.168-1.722l1.953-3.007 31.279-6.624a.235.235 0 0 1 .167.044.224.224 0 0 1 .084.175l17.872 11.797a1.82 1.82 0 0 0 2.032 1.793l4.392-.508c.904-.105 1.628-3.782 1.799-4.686.068-.363-.24-.694-.797-1.032-2.174-2.045-11.02-4.624-12.267-11.908a10.355 10.355 0 0 1 .18-1.086l3.262-5.148c.427-1.933.682-3.09.794-3.824l19.093-2.163a2.776 2.776 0 0 0 2.231-2.043l1.175-2.544a2.3 2.3 0 0 0-.338-1.994zM23.937 32.603l.557.006.395-.39c8.738-8.579 39.153-16.868 46.591-19.553l1.718-.624a1.891 1.891 0 0 0 1.108-1.167l1.606-4.13-.36-.532c-1.207-1.78-1.28-1.92-1.163-3.276l5.78.986 5.39 1.595.693.515a2.553 2.553 0 0 0 1.69 1.753l.158.039 15.765 1.012-1.18 2.338-24.067 2.994a1.337 1.337 0 0 0-1.099 1.536 1.339 1.339 0 0 0 1.529 1.098l2.191-.366c-.501 2.308-2.66 2.5-3.87 7.924l-.116.517c-1.067 4.78 2.155 8.048 5.54 10.531 2.555 2.07 5.287 3.611 6.354 4.884a1.276 1.276 0 0 1 .175.876l-2.024.234-17.863-10.855A2.894 2.894 0 0 0 66.22 27.7a2.955 2.955 0 0 0-.358.063l-15.742 2.663-13.844 3.53.69-1.987a1.337 1.337 0 0 0-.825-1.698 1.305 1.305 0 0 0-.591-.067 1.343 1.343 0 0 0-1.11.891l-1.497 4.333a1.604 1.604 0 0 0-.127.271l-2.064 3.43a7.24 7.24 0 0 0-.143.783 1.604 1.604 0 0 1-.653.36L14.452 48.43l-2.094.743a2.856 2.856 0 0 0-1.87 1.58L6.01 60.504l-3.022.336 3.135-11.68a1.107 1.107 0 0 1 .387-.665l6.662-4.651c.447-.36.822.1.83-.469l9.14-7.59a2.143 2.143 0 0 1 .022-.262l.14-.98-1.011-1.412c-.4-.187.175-.396.642-.614z"/><path class="cls-1" d="M20.15 32.278c.01.007.024.014.034.022l.013-.018z"/></svg>