<svg id="Layer_1" data-name="Layer 1" xmlns="http://www.w3.org/2000/svg" viewBox="0 0 83.63098 70.77588"><defs><style>.cls-1{fill:#41494f}</style></defs><title>Horse_Racing</title><circle class="cls-1" cx="24.774" cy="25.441" r="2.215"/><path class="cls-1" d="M83.346 13.291a25.55 25.55 0 0 0-.909-.014 31.573 31.573 0 0 0-8.698 1.277 12.456 12.456 0 1 0-24.684-3.23c-2.602 1.696-5.761 3.766-5.761 3.766l-3.786 2.48 10.55-.03.71 1.942-1.276 6.75 3.328-.752 2.226 5.5 6.487-3.038 2.499 1.073-3.697 6.334-13.318-6.247-41.623 18.2-2.12-1.156 1.008-3.442 23.525-26.432a1.395 1.395 0 0 0 .372-1.69 6.999 6.999 0 0 1 1.781-8.378 7 7 0 0 1 1.897 8.124 1.403 1.403 0 0 0 .414 1.656l3.445 2.725 3.391-.933-4.303-3.358a9.766 9.766 0 0 0 .429-2.876 9.9 9.9 0 0 0-1.412-5.067 9.722 9.722 0 0 0-3.107-3.184 1.396 1.396 0 0 0-1.508 0A9.804 9.804 0 0 0 25.242 14.8L1.702 41.706 0 47.657l10.369 5.751 24.891-10.75c1.041 2.14 10.356 27.317 10.356 27.317a1.394 1.394 0 0 0 1.022.78 1.259 1.259 0 0 0 .243.02 1.412 1.412 0 0 0 .992-.41L68.129 49.65a1.403 1.403 0 0 0-.018-1.97l-5.352-4.348-1.824 2.058 4.397 3.555-18.036 18.036S38.237 42.32 37.21 40.315a1.392 1.392 0 0 0-1.244-.762 1.437 1.437 0 0 0-.436.071L10.663 50.176l-2.291-1.25 38.543-16.901 14.503 6.803 6.467-11.082-6.4-2.747-5.012 2.345-2.018-4.989-1.563.353.653-3.454-1.61-4.406-3.378.01c.847-.554 3.114-2.031 3.114-2.031l.025-.699a9.77 9.77 0 1 1 19.187 2.906 35.355 35.355 0 0 1-3.24 2.774l-.217.17 1.562 2.16 3.432-2.304a29.077 29.077 0 0 1 9.999-1.871q.415 0 .836.014l.285.01.091-2.686z"/></svg>