<svg id="Layer_1" data-name="Layer 1" xmlns="http://www.w3.org/2000/svg" viewBox="0 0 90.19445 63.48047"><defs><style>.cls-1{fill:#41494f}</style></defs><title>Motor_Sports</title><path class="cls-1" d="M43.913 51.976a1.303 1.303 0 0 0-1.678.645l-3.647 8.205a.19.19 0 0 1-.172.11h-4.359l6.87-15.452a1.275 1.275 0 0 0-.645-1.68 1.304 1.304 0 0 0-1.68.646l-7.28 16.374a1.889 1.889 0 0 0 1.726 2.656h5.368a2.737 2.737 0 0 0 2.498-1.62l3.646-8.205a1.276 1.276 0 0 0-.647-1.68z"/><path class="cls-1" d="M89.883 20.9a1.898 1.898 0 0 0-1.585-.855c-2.91-.01-6.966-.655-9.76-3.668a27.222 27.222 0 0 1-2.56-3.436 31.125 31.125 0 0 0-2.573-3.481 16.781 16.781 0 0 0-7.118-4.745 2.218 2.218 0 0 0-1.24-2.609L60.713.181A2.117 2.117 0 0 0 59.848 0a2.277 2.277 0 0 0-2.067 1.307l-10.276 23.12-2.413 5.4-12.679-28.52A2.275 2.275 0 0 0 30.348 0a2.127 2.127 0 0 0-.867.18l-4.33 1.926a2.218 2.218 0 0 0-1.244 2.61 16.338 16.338 0 0 0-1.757.716 17.106 17.106 0 0 0-5.36 4.028 31.177 31.177 0 0 0-2.603 3.53 26.793 26.793 0 0 1-2.53 3.387c-2.793 3.013-6.85 3.657-9.76 3.668a1.894 1.894 0 0 0-1.585.856 1.871 1.871 0 0 0-.162 1.77l8.685 20.378a2.716 2.716 0 0 0 2.498 1.664c4.9-.018 8.917-1.567 11.617-4.482a29.332 29.332 0 0 0 2.807-3.747 28.778 28.778 0 0 1 2.36-3.207 14.538 14.538 0 0 1 4.867-3.569 13.208 13.208 0 0 1 1.724-.633L49.281 61.86a2.737 2.737 0 0 0 2.498 1.621h5.368a1.889 1.889 0 0 0 1.726-2.655L50.12 41.143l5.366-12.067a14.367 14.367 0 0 1 6.593 4.201 29.066 29.066 0 0 1 2.366 3.218 29.112 29.112 0 0 0 2.798 3.736c2.702 2.915 6.723 4.464 11.63 4.482a2.714 2.714 0 0 0 2.487-1.662l8.684-20.382a1.874 1.874 0 0 0-.162-1.769zm-36.289 6.17l-6.026 13.555a1.28 1.28 0 0 0 0 1.034l8.57 19.278h-4.36a.19.19 0 0 1-.171-.112L36.6 27.07a1.274 1.274 0 0 0-1.162-.755 1.222 1.222 0 0 0-.253.027 15.558 15.558 0 0 0-3.24 1.045 17.068 17.068 0 0 0-5.726 4.199 31.07 31.07 0 0 0-2.587 3.501 26.96 26.96 0 0 1-2.546 3.416c-2.795 3.013-6.853 3.657-9.764 3.668a.178.178 0 0 1-.145-.116L2.87 22.564c4.457-.205 8.139-1.745 10.652-4.457a29.042 29.042 0 0 0 2.804-3.745 28.953 28.953 0 0 1 2.363-3.21 14.599 14.599 0 0 1 4.556-3.424 13.207 13.207 0 0 1 2.682-.948 1.27 1.27 0 0 0 .873-1.754l-.322-.726 3.732-1.684L43.697 32.95l-1.02 2.283a1.269 1.269 0 0 0 .643 1.678 1.296 1.296 0 0 0 1.679-.642L59.975 2.637l3.742 1.662-.322.727a1.27 1.27 0 0 0 .874 1.754 14.121 14.121 0 0 1 7.237 4.372 29.12 29.12 0 0 1 2.37 3.222 28.951 28.951 0 0 0 2.797 3.732c2.513 2.712 6.196 4.253 10.652 4.458L79.02 42.051a.184.184 0 0 1-.15.119c-2.91-.01-6.967-.655-9.761-3.668a27.132 27.132 0 0 1-2.564-3.44 30.804 30.804 0 0 0-2.569-3.477 16.566 16.566 0 0 0-8.964-5.243 1.289 1.289 0 0 0-1.419.727z"/></svg>