<svg id="Layer_1" data-name="Layer 1" xmlns="http://www.w3.org/2000/svg" viewBox="0 0 82.33221 66.08447"><defs><style>.cls-1{fill:#41494f}</style></defs><title>Speedway</title><path class="cls-1" d="M69.865 41.208a12.42 12.42 0 0 0-4.91 1.008l-4.887-8.76a12.52 12.52 0 0 1 14.277 2.147 1.28 1.28 0 0 0 1.768-1.85 15.093 15.093 0 0 0-14.782-3.547c-.23-.28-.471-.55-.73-.809a7.937 7.937 0 0 0-1.526-7.197 2.57 2.57 0 0 0-1.774-.9l-.172-.006a2.57 2.57 0 0 0-1.709.647l-1.372 1.222-1.306-2.228a2.095 2.095 0 0 0-1.823-1.05 2.144 2.144 0 0 0-1.027.266l-2.599 1.43a1.226 1.226 0 0 0 .068-.218 1.281 1.281 0 0 0-1.122-1.42l-5.067-.593a1.605 1.605 0 0 1-1.167-.767l-.112-.153-4.141-4.652q1.67 1.46 4.026 3.327a2.141 2.141 0 0 0 1.327.462h.015l2.105-.016a1.773 1.773 0 0 0 1.424-.735l1.252-1.739a1.255 1.255 0 0 0 .093-1.328 1.237 1.237 0 0 0-.455-.48 8.347 8.347 0 0 0 .662-.812c.135-.187.268-.382.398-.582l.056.04a3.045 3.045 0 0 0 1.763.56 3.194 3.194 0 0 0 .425-.03l.43-.06a1.498 1.498 0 0 0 1.188-.932 1.48 1.48 0 0 0-.238-1.487L47.3 6.486a8.667 8.667 0 0 0-3.42-4.845A8.798 8.798 0 0 0 38.788 0a7.399 7.399 0 0 0-6.117 3.004 7.246 7.246 0 0 0-1.04 6.188 5.287 5.287 0 0 0 1.205 1.79 6.136 6.136 0 0 0-3.926-.714 18.547 18.547 0 0 0-13.198 8.836 7.001 7.001 0 0 0 4.429 10.415l3.942.918-4.67 1.37a3.49 3.49 0 0 0-2.393 3.961l.079.392A31.047 31.047 0 0 0 5.32 34.003a30.515 30.515 0 0 0-3.953.228 1.28 1.28 0 0 0 .176 2.546l.176-.012a29.4 29.4 0 0 1 3.529-.189 27.006 27.006 0 0 1 12.488 2.744l.302 1.49a1.284 1.284 0 0 0 1.06 1.012c.045.008 4.293.758 6.167 6.09l-1.497.512a12.52 12.52 0 1 0 .836 2.419l5.585-1.913a1.024 1.024 0 0 1 .325-.053 1.01 1.01 0 0 1 .574.176l2.477 1.693a4.31 4.31 0 0 0 2.444.755H49.75a3.349 3.349 0 0 0 3.338-3.286c.023-1.712.035-2.918.035-3.584a12.468 12.468 0 0 1 4.778-9.803l4.82 8.639a12.457 12.457 0 1 0 7.143-2.26zm-47.49 12.438a9.922 9.922 0 1 1-1.043-4.387l-6.159 2.108a3.541 3.541 0 1 0 .838 2.418l6.165-2.11a9.859 9.859 0 0 1 .2 1.971zm35.753-26.164l.083-1.293a5.676 5.676 0 0 1 .084 1.384c-.053-.032-.113-.058-.167-.09zm-2.412-2.38l-.077 1.206c-.306-.112-.619-.21-.936-.304zm-14.841-3.21l4.83.564-.22.12a1.28 1.28 0 0 0 1.234 2.242l4.032-2.22 1.348 2.3-.543.483c-.56-.054-1.126-.09-1.7-.09a15.835 15.835 0 0 0-9.537 3.03 4.278 4.278 0 0 0-3.266-4.23l-6.88-1.708a1.578 1.578 0 0 1-.687-2.7l4.478-4.068 3.92 4.4a4.151 4.151 0 0 0 2.99 1.877zM44.12 10.98a4.754 4.754 0 0 1-1.225 1.214 2.53 2.53 0 0 1-.21-.235l-1.712-2.483 1.956-.168 1.577 1.103c-.115.184-.244.372-.386.569zM34.753 4.48a4.863 4.863 0 0 1 4.03-1.944 6.338 6.338 0 0 1 3.615 1.176 6.271 6.271 0 0 1 2.069 2.433 1.26 1.26 0 0 0 .24 1.162l.267.323-.953-.668a1.343 1.343 0 0 0-.817-.227l-3.102.265a2.184 2.184 0 0 0-1.78 1.227 2.149 2.149 0 0 0 .17 2.146l2.083 3.02a5.086 5.086 0 0 0 1.42 1.377l.009.006c.13.083.258.167.395.24l-1.143.007c-4.639-3.685-6.983-6.032-7.157-6.5a4.734 4.734 0 0 1 .654-4.043zm-5.462 8.317a3.618 3.618 0 0 1 .54-.04 4.125 4.125 0 0 1 2.5.882v.001l-4.564 4.149a4.118 4.118 0 0 0-1.3 3.692l-7.969-1.939a15.986 15.986 0 0 1 10.793-6.745zM17.63 24.433a4.444 4.444 0 0 1-.28-2.536l12.193 2.967.012.004 6.88 1.706a1.757 1.757 0 0 1 1.089.803 1.739 1.739 0 0 1 .198 1.33l-3.651 14.537a.522.522 0 0 1-.57.369l-.05-.001-2.512-.628a.505.505 0 0 1-.369-.61l2.34-9.31a3.063 3.063 0 0 0-2.28-3.729l-9.91-2.308a4.469 4.469 0 0 1-3.09-2.594zm2.503 9.83l9.016-2.646.902.21a.513.513 0 0 1 .318.229.505.505 0 0 1 .059.384l-.307 1.22-10.279 3.165-.314-1.561a.918.918 0 0 1 .605-1.002zM50.565 44.63c0 .657-.012 1.85-.036 3.55a.779.779 0 0 1-.778.761H36.009a1.765 1.765 0 0 1-1-.308L32.53 46.94a3.585 3.585 0 0 0-3.172-.431l-1.67.572a11.425 11.425 0 0 0-7.303-7.567l-.035-.169 9.042-2.784-1.303 5.188a3.062 3.062 0 0 0 2.23 3.716l2.512.628a3.067 3.067 0 0 0 3.72-2.226l2.508-9.979a1.275 1.275 0 0 0 .162-.265c1.473-3.454 5.746-5.775 10.634-5.775a12.666 12.666 0 0 1 8.964 3.371 15.066 15.066 0 0 0-8.255 13.41zm19.3 18.894a9.861 9.861 0 0 1-5.888-17.807l3.055 5.477a3.723 3.723 0 0 0-.934 2.451 3.855 3.855 0 1 0 3.169-3.699l-3.055-5.476a9.882 9.882 0 1 1 3.653 19.054z"/></svg>