<svg id="Layer_1" data-name="Layer 1" xmlns="http://www.w3.org/2000/svg" viewBox="0 0 32 30"><defs><style>.cls-1{fill:#414a4f;}</style></defs><title>ICN Jackpot</title><path class="cls-1" d="M6.49,11.87a17,17,0,0,1-4.43-6.7c.59,0,1.53-.05,2.64-.06q-.14-1-.23-2c-.88,0-1.55,0-2.07,0C1.27,3.2,0,3.25,0,4.43,0,7.16,3.67,13.08,8.92,16.3L8.71,16A19.44,19.44,0,0,1,6.49,11.87Z"/><path class="cls-1" d="M29.6,3.16c-.51,0-1.19,0-2.06,0q-.09,1-.23,2c1.11,0,2,0,2.64.06A17.2,17.2,0,0,1,25.47,12a19.36,19.36,0,0,1-2.17,4l-.3.48c5.29-3.2,9-9.23,9-12C32,3.25,30.72,3.2,29.6,3.16Z"/><path class="cls-1" d="M22.29,28a4.93,4.93,0,0,1-4.15-3.7H13.86A4.93,4.93,0,0,1,9.71,28a.66.66,0,0,0-.57.66v1a.33.33,0,0,0,.32.33H22.54a.33.33,0,0,0,.32-.33v-1A.66.66,0,0,0,22.29,28Z"/><path class="cls-1" d="M14,22.27h4c.21-2.88,1.74-4.19,3.68-7.45C24,11.62,25.6,6.5,25.72.68A.67.67,0,0,0,25.54.2a.64.64,0,0,0-.46-.2H6.92a.64.64,0,0,0-.46.2.67.67,0,0,0-.18.48c.13,5.83,1.7,11,4,14.15C12.27,18.09,13.78,19.4,14,22.27Z"/></svg>