<svg id="Layer_1" data-name="Layer 1" xmlns="http://www.w3.org/2000/svg" viewBox="0 0 19.34581 19.33915"><defs><style>.cls-1{fill:#41494e;}</style></defs><title>Price</title><path class="cls-1" d="M18.99,6.39458l-6.04-6.04a1.2227,1.2227,0,0,0-1.15-.32,1.11841,1.11841,0,0,0-.57.32,1.21921,1.21921,0,0,0-.3.5,5.57563,5.57563,0,0,1-1.45,2.36,16.68122,16.68122,0,0,1-3.45,2.39,18.12784,18.12784,0,0,0-3.93,2.76,7.94839,7.94839,0,0,0-2.05,3.36,1.18512,1.18512,0,0,0-.05.32v.03a1.25064,1.25064,0,0,0,.35.87l6.04,6.04a1.2227,1.2227,0,0,0,1.15.32,1.16031,1.16031,0,0,0,.57-.32,1.12067,1.12067,0,0,0,.3-.5,5.47839,5.47839,0,0,1,1.45-2.36,16.41679,16.41679,0,0,1,3.45-2.39,18.63611,18.63611,0,0,0,3.94-2.78,8.0784,8.0784,0,0,0,2.05-3.35A1.24279,1.24279,0,0,0,18.99,6.39458Zm-11.74,11.72c-2.01-2-4.05-4.05-6.04-6.04,1.72-5.56,9.16-5.32,10.88-10.88,2,2,4.05,4.04,6.04,6.04C16.42,12.80458,8.97,12.56458,7.25,18.11458Z"/><path class="cls-1" d="M11.82,8.99458a1.59924,1.59924,0,0,0-.59-.33,2.052,2.052,0,0,0-.6-.07,1.86829,1.86829,0,0,0-.6.14,5.41115,5.41115,0,0,0-.61.27c-.33-.38-.65-.74-.98-1.08a.67469.67469,0,0,1,.42-.2,1.32786,1.32786,0,0,1,.4.04c.13.03.24.06.35.08a.33911.33911,0,0,0,.29-.07.36959.36959,0,0,0,.14-.29.46574.46574,0,0,0-.14-.35.73344.73344,0,0,0-.46-.27,1.51063,1.51063,0,0,0-.56.01,1.979,1.979,0,0,0-.55.22,1.75474,1.75474,0,0,0-.41.31l-.12-.12a.2271.2271,0,0,0-.16-.06.20876.20876,0,0,0-.16.08.19176.19176,0,0,0-.06.17.22386.22386,0,0,0,.08.15c.04.03.08.07.12.1a2.5902,2.5902,0,0,0-.38.61,2.06691,2.06691,0,0,0-.18.64,1.43329,1.43329,0,0,0,.06.59,1.14893,1.14893,0,0,0,.36.48,1.39074,1.39074,0,0,0,1.01.31,3.1628,3.1628,0,0,0,1.26-.38c.35.42.72.83,1.07,1.2a1.05606,1.05606,0,0,1-.4.23.53534.53534,0,0,1-.31-.01,2.2067,2.2067,0,0,1-.27-.12c-.08-.05-.16-.1-.24-.14a.54214.54214,0,0,0-.25-.06.453.453,0,0,0-.27.12.38334.38334,0,0,0-.15.3.48774.48774,0,0,0,.16.34,1.21457,1.21457,0,0,0,.4.29,1.49244,1.49244,0,0,0,1.18.04,1.76867,1.76867,0,0,0,.66-.45c.11.1.21.2.32.29a.19413.19413,0,0,0,.16.05.19215.19215,0,0,0,.16-.09.20356.20356,0,0,0,.05-.18.22386.22386,0,0,0-.08-.15c-.11-.09-.21-.18-.32-.27a3.47607,3.47607,0,0,0,.44-.69,2.01879,2.01879,0,0,0,.19-.66,1.07434,1.07434,0,0,0-.08-.57A1.10681,1.10681,0,0,0,11.82,8.99458Zm-3.38.41a.56749.56749,0,0,1-.45-.18.47376.47376,0,0,1-.12-.19.523.523,0,0,1-.02-.25.796.796,0,0,1,.08-.28,1.0091,1.0091,0,0,1,.2-.29c.31.31.61.63.92.98A1.34394,1.34394,0,0,1,8.44,9.40458Zm2.96.91a.91236.91236,0,0,1-.11.3,1.309,1.309,0,0,1-.19.27c-.34-.34-.68-.72-1.02-1.11l.27-.12a1.90481,1.90481,0,0,1,.29-.09,1.00726,1.00726,0,0,1,.3.01.61688.61688,0,0,1,.28.16.47861.47861,0,0,1,.16.27A.66168.66168,0,0,1,11.4,10.31458Zm-2.5,3.08a10.63075,10.63075,0,0,0-1.09.94,8.2982,8.2982,0,0,0-.88,1.03l-.42.57a.30387.30387,0,0,0,.47.38c.02-.02.03-.04.05-.06l.39-.53a8.13943,8.13943,0,0,1,.83-.96,9.77129,9.77129,0,0,1,1.04-.89c.01-.01.02-.01.03-.03a.30181.30181,0,0,0,0-.43A.33306.33306,0,0,0,8.9,13.39458Zm3.48-10.32a.21774.21774,0,0,0-.05.08l-.4.55a9.07449,9.07449,0,0,1-.82.96,9.53891,9.53891,0,0,1-1.02.87.30387.30387,0,0,0-.07.05.31383.31383,0,0,0,0,.44.29906.29906,0,0,0,.42.01,12.02933,12.02933,0,0,0,1.09-.94,10.16786,10.16786,0,0,0,.88-1.02l.41-.57a.30932.30932,0,0,0-.02-.42A.28144.28144,0,0,0,12.38,3.07458Z"/></svg>