<svg id="Layer_1" data-name="Layer 1" xmlns="http://www.w3.org/2000/svg" viewBox="0 0 54.49 50.04"><defs><style>.cls-1{fill:#41494f}</style></defs><title>ICNHealthLottery</title><path class="cls-1" d="M27.25 50a2.35 2.35 0 0 1-1-.21A54.2 54.2 0 0 1 8.58 36C3 29.43 0 22.67 0 16.94A16.94 16.94 0 0 1 27.25 3.5a16.94 16.94 0 0 1 27.24 13.44c0 5.74-3 12.49-8.58 19a54.17 54.17 0 0 1-17.68 13.89 2.33 2.33 0 0 1-.98.17zM16.94 3A14 14 0 0 0 3 16.94C3 22 5.79 28 10.87 34a51.32 51.32 0 0 0 16.38 13 51.3 51.3 0 0 0 16.37-13c5.08-6 7.87-12 7.87-17.06A13.94 13.94 0 0 0 28.25 6.56l-1 .9-1-.9A13.89 13.89 0 0 0 16.94 3z"/></svg>