<svg id="Layer_1" data-name="Layer 1" xmlns="http://www.w3.org/2000/svg" viewBox="0 0 71.87 60.5"><defs><style>.cls-1{fill:#41494f}</style></defs><title>ICNLottoResults</title><path class="cls-1" d="M47.15 27a16.79 16.79 0 0 0-1.87.11 16.75 16.75 0 1 0-26.67-.53 16.75 16.75 0 1 0 13.2 23.89A16.74 16.74 0 1 0 47.15 27zM30.41 43.9a13.53 13.53 0 1 1 0-.84v.69c-.01.05 0 .1 0 .15zm-12-27.15a13.7 13.7 0 1 1 13.7 13.69 13.71 13.71 0 0 1-13.66-13.69zm13.67 19.74a16.74 16.74 0 0 0-1.8-3.11 15.79 15.79 0 0 0 3.74 0 16.77 16.77 0 0 0-1.94 3.11zm1.41 6.57a13.53 13.53 0 1 1 0 .84v-.69c.01-.05 0-.1 0-.15z"/><path class="cls-1" d="M24.81 12.3l.44 2 2.18-1.04h.04v9.06h2.58V10.89h-2.21l-3.03 1.41zM36.24 10.7c-3 0-4.36 2.62-4.36 5.92s1.32 5.89 4.27 5.89 4.34-2.43 4.34-6c0-3.09-1.2-5.81-4.25-5.81zm0 9.79c-1 0-1.67-1.25-1.65-3.87s.65-3.9 1.63-3.9 1.62 1.34 1.62 3.87-.58 3.9-1.62 3.9zM19.35 42.1a5.23 5.23 0 0 0-3-.83 5 5 0 0 0-.74 0l.25-1.76h4.43v-2.2H14l-.76 6a9.86 9.86 0 0 1 1.55-.11c2.29 0 3.22.72 3.22 1.9s-1.18 1.74-2.29 1.74a6.57 6.57 0 0 1-2.58-.56l-.47 2a7.26 7.26 0 0 0 3.18.65c3.08 0 4.9-1.88 4.9-4a3.25 3.25 0 0 0-1.4-2.83zM41.76 40.64h.04v9.05h2.58V38.27h-2.21l-3.03 1.4.44 2.01 2.18-1.04zM54.47 45.88A3.25 3.25 0 0 0 53.08 43a5.23 5.23 0 0 0-3-.83 5 5 0 0 0-.74 0l.25-1.76H54v-2.2h-6.28l-.76 6a9.86 9.86 0 0 1 1.55-.11c2.29 0 3.22.72 3.22 1.9s-1.18 1.74-2.29 1.74a6.57 6.57 0 0 1-2.58-.56l-.47 2a7.26 7.26 0 0 0 3.18.65c3.07.05 4.9-1.83 4.9-3.95zM58.87 24.49l13-13L69.39 9 58.87 19.52l-4.14-4.14-2.49 2.49 6.63 6.62z"/></svg>