<svg id="Layer_1" data-name="Layer 1" xmlns="http://www.w3.org/2000/svg" viewBox="0 0 89.06 79.48"><defs><style>.cls-1{fill:#41494f}</style></defs><title>ICNSchedule</title><path class="cls-1" d="M82.37 79.48H6.69A6.7 6.7 0 0 1 0 72.79V12.46a6.7 6.7 0 0 1 6.69-6.69h10.13V1.5a1.5 1.5 0 0 1 3 0v4.27h14.47V1.5a1.5 1.5 0 0 1 3 0v4.27h14.47V1.5a1.5 1.5 0 0 1 3 0v4.27h14.47V1.5a1.5 1.5 0 0 1 3 0v4.27h10.14a6.7 6.7 0 0 1 6.69 6.69v60.33a6.7 6.7 0 0 1-6.69 6.69zM6.69 8.77A3.7 3.7 0 0 0 3 12.46v60.33a3.7 3.7 0 0 0 3.69 3.69h75.68a3.7 3.7 0 0 0 3.69-3.69V12.46a3.7 3.7 0 0 0-3.69-3.69H72.23v4.77a1.5 1.5 0 1 1-3 0V8.77H54.76v4.77a1.5 1.5 0 1 1-3 0V8.77H37.29v4.77a1.5 1.5 0 1 1-3 0V8.77H19.82v4.77a1.5 1.5 0 0 1-3 0V8.77zm37.88 58.94a1.5 1.5 0 0 1-1.5-1.5v-3.07a1.5 1.5 0 0 1 3 0v3.08a1.5 1.5 0 0 1-1.5 1.49zm-13.81 0a1.5 1.5 0 0 1-1.5-1.5v-3.07a1.5 1.5 0 1 1 3 0v3.08a1.5 1.5 0 0 1-1.51 1.49zm-13.81 0a1.5 1.5 0 0 1-1.5-1.5v-3.07a1.5 1.5 0 1 1 3 0v3.08a1.5 1.5 0 0 1-1.51 1.49zm44.26-11.23h-6a4 4 0 0 1-4-4v-6a4 4 0 0 1 4-4h6a4 4 0 0 1 4 4v6a4 4 0 0 1-4 4zm-6-11a1 1 0 0 0-1 1v6a1 1 0 0 0 1 1h6a1 1 0 0 0 1-1v-6a1 1 0 0 0-1-1zm16.92 7a1.5 1.5 0 0 1-1.5-1.5v-3.11a1.5 1.5 0 0 1 3 0v3.08a1.5 1.5 0 0 1-1.52 1.49zm-27.62 0a1.5 1.5 0 0 1-1.5-1.5v-3.11a1.5 1.5 0 0 1 3 0v3.08a1.5 1.5 0 0 1-1.52 1.49zm-13.81 0a1.5 1.5 0 0 1-1.5-1.5v-3.11a1.5 1.5 0 0 1 3 0v3.08a1.5 1.5 0 0 1-1.52 1.49zm-13.73 0a1.5 1.5 0 0 1-1.5-1.5v-3.11a1.5 1.5 0 0 1 3 0v3.08a1.5 1.5 0 0 1-1.53 1.49zm41.44-15.3a1.5 1.5 0 0 1-1.5-1.5v-3a1.5 1.5 0 0 1 3 0v3a1.5 1.5 0 0 1-1.53 1.46zm-13.81 0a1.5 1.5 0 0 1-1.5-1.5v-3a1.5 1.5 0 0 1 3 0v3a1.5 1.5 0 0 1-1.53 1.46zm-13.81 0a1.5 1.5 0 0 1-1.5-1.5v-3a1.5 1.5 0 0 1 3 0v3a1.5 1.5 0 0 1-1.54 1.46zm-13.81 0a1.5 1.5 0 0 1-1.5-1.5v-3a1.5 1.5 0 0 1 3 0v3a1.5 1.5 0 0 1-1.54 1.46zm55.17 0a1.5 1.5 0 0 1-1.5-1.5v-3a1.5 1.5 0 0 1 3 0v3a1.5 1.5 0 0 1-1.53 1.41z"/><path class="cls-1" d="M1.5 19.39h86.06v3H1.5z"/></svg>