<svg id="Layer_1" data-name="Layer 1" xmlns="http://www.w3.org/2000/svg" viewBox="0 0 69.75488 68.2149"><defs><style>.cls-1{fill:#41494f}</style></defs><title>Specials</title><path class="cls-1" d="M21.906 47.232l-4.669-11.968-4.45 12.066L0 47.792l10.248 7.722-3.348 12.7 10.602-7.816 10.719 7.607-3.58-12.653 10.079-7.91zm1.112 13.402l-5.55-3.94-5.497 4.054 1.691-6.418-5.103-3.845 6.346-.23 2.41-6.536 2.529 6.48 6.372.104-5.008 3.93zM54.094 27.833l5.31-3.916 5.366 3.808-1.777-6.285 4.976-3.905-6.329-.104-2.374-6.085-2.263 6.137-6.311.228 5.064 3.815-1.662 6.307zM15.497 16.461l5.302-3.91 5.358 3.803-1.775-6.276 4.968-3.899-6.318-.104L20.662 0l-2.26 6.127-6.301.228 5.055 3.809-1.659 6.297zM69.315 61.508L48.151 40.344a1.474 1.474 0 0 0-1.36-.381 9.896 9.896 0 1 0-1.142 1.141 1.474 1.474 0 0 0 .381 1.36L67.194 63.63a1.5 1.5 0 0 0 2.121-2.121zM34.384 38.44a6.89 6.89 0 1 1 9.744 0 6.898 6.898 0 0 1-9.744 0z"/></svg>