<svg id="Layer_1" data-name="Layer 1" xmlns="http://www.w3.org/2000/svg" viewBox="0 0 66.28 66.26"><defs><style>.cls-1{fill:#41494f;}</style></defs><title>ICNA-ZSports</title><path class="cls-1" d="M33.17,66.26A33.24,33.24,0,0,1,4.45,49.69,33.13,33.13,0,0,1,33.11,0,33.24,33.24,0,0,1,61.83,16.57,33.13,33.13,0,0,1,33.17,66.26m-.06-63.5A30.37,30.37,0,1,0,59.43,17.95,30.35,30.35,0,0,0,33.11,2.76" transform="translate(0)"/><path class="cls-1" d="M33.16,58.07A25,25,0,0,1,11.54,45.6,24.94,24.94,0,0,1,33.12,8.19,25,25,0,0,1,54.73,20.66a24.94,24.94,0,0,1-21.57,37.4m0-46.7A21.76,21.76,0,1,0,52,22.25,21.75,21.75,0,0,0,33.12,11.37" transform="translate(0)"/><path class="cls-1" d="M31.36,40h-2a.86.86,0,0,1-.55-.17.94.94,0,0,1-.31-.41l-1-2.81H21.78l-1,2.81a.91.91,0,0,1-.3.4.85.85,0,0,1-.55.18h-2l5.41-13.78h2.62Zm-8.92-5.2h4.39l-1.68-4.58q-.11-.3-.25-.72c-.09-.28-.18-.58-.27-.9q-.13.49-.26.91c-.08.28-.17.52-.25.73Z" transform="translate(0)"/><rect class="cls-1" x="31.7" y="33.28" width="4.94" height="1.96"/><path class="cls-1" d="M48.37,26.24v.94a1.39,1.39,0,0,1-.25.8L41,38H48.2v2H37.72V39a1,1,0,0,1,.07-.37,1.56,1.56,0,0,1,.17-.33l7.09-10H38.17v-2Z" transform="translate(0)"/></svg>