<?xml version="1.0" encoding="utf-8"?>
<!-- Generator: Adobe Illustrator 19.2.1, SVG Export Plug-In . SVG Version: 6.00 Build 0)  -->
<svg version="1.1" id="Layer_2" xmlns="http://www.w3.org/2000/svg" xmlns:xlink="http://www.w3.org/1999/xlink" x="0px" y="0px"
	 viewBox="0 0 24 24" style="enable-background:new 0 0 24 24;" xml:space="preserve">
<style type="text/css">
	.st0{fill:#666666;}
</style>
<g>
	<path class="st0" d="M21.96,11.9V4.69c0-0.15-0.16-0.28-0.36-0.28c-0.2,0-0.36,0.12-0.36,0.28v6.86H2.71V4.69
		c0-0.15-0.16-0.28-0.36-0.28C2.16,4.41,2,4.54,2,4.69v7.39c0,0,0,0,0,0v9.2c0,0.19,0.16,0.35,0.36,0.35c0.2,0,0.36-0.16,0.36-0.35
		v-8.92h18.53v8.92c0,0.19,0.16,0.35,0.36,0.35c0.2,0,0.36-0.16,0.36-0.35L21.96,11.9C21.96,11.9,21.96,11.9,21.96,11.9z"/>
	<path class="st0" d="M14.04,5.57l-0.51,0l0-0.49c0-0.08-0.03-0.16-0.09-0.22c-0.06-0.06-0.13-0.09-0.22-0.09
		c-0.08,0-0.16,0.03-0.21,0.09C12.95,4.92,12.92,5,12.92,5.08l0,0.49l-0.51,0l0-0.49c0-0.08-0.03-0.16-0.09-0.22
		c-0.06-0.06-0.13-0.09-0.22-0.09c-0.17,0-0.3,0.14-0.31,0.3l0,0.49l-0.51,0l0-0.49c0-0.08-0.03-0.16-0.09-0.22
		c-0.06-0.06-0.13-0.09-0.22-0.09c-0.17,0-0.3,0.14-0.31,0.3l0,0.49l-0.52,0c-0.08,0-0.16,0.03-0.21,0.09
		C9.9,5.7,9.86,5.78,9.86,5.86c0,0.08,0.03,0.16,0.09,0.22c0.06,0.06,0.13,0.09,0.22,0.09l0.51,0l0,0.49c0,0.08,0.03,0.16,0.09,0.22
		c0.06,0.06,0.13,0.09,0.22,0.09c0.08,0,0.16-0.03,0.22-0.09c0.06-0.06,0.09-0.13,0.09-0.22l0-0.49l0.51,0l0,0.49
		c0,0.08,0.03,0.16,0.09,0.22c0.06,0.06,0.13,0.09,0.22,0.09c0.17,0,0.3-0.14,0.31-0.3l0-0.49l0.51,0l0,0.49
		c0,0.08,0.03,0.16,0.09,0.22c0.06,0.06,0.13,0.09,0.22,0.09h0c0.08,0,0.16-0.03,0.21-0.09c0.06-0.06,0.09-0.13,0.09-0.22l0-0.49
		l0.52,0c0.17,0,0.3-0.14,0.31-0.3c0-0.08-0.03-0.16-0.09-0.22C14.2,5.6,14.12,5.57,14.04,5.57z"/>
	<path class="st0" d="M6.95,7.38c0.87,0.88,2.7,2.36,5.14,2.37h0.03c3.42,0,5.65-2.87,5.74-3c0.37-0.48,0.37-1.24,0.01-1.72
		c0,0-0.21-0.28-0.6-0.68c-0.87-0.88-2.7-2.36-5.17-2.37c-3.43,0-5.65,2.87-5.74,3C5.99,5.46,5.98,6.22,6.35,6.7
		C6.35,6.7,6.56,6.98,6.95,7.38z M15.96,4.61c-0.1-0.09-0.26-0.22-0.45-0.36L15.3,4.1l-0.03,4c-1.03,0.63-2.1,0.96-3.18,0.96
		c-1.08-0.01-2.15-0.34-3.18-1l0.02-4L8.72,4.21C8.56,4.32,8.44,4.42,8.35,4.49C8.32,4.51,8.3,4.53,8.29,4.54L8.23,4.58l-0.01,3
		c-0.28-0.22-0.55-0.46-0.8-0.72C7.12,6.56,6.95,6.34,6.9,6.29c-0.17-0.23-0.17-0.66,0-0.88c0.02-0.03,2.11-2.72,5.21-2.72
		c2.18,0.01,3.78,1.3,4.54,2.07c0.29,0.29,0.45,0.5,0.48,0.54c0.18,0.25,0.33,0.83,0.16,1.05c0,0.01-0.5,0.64-1.33,1.28L16,4.65
		L15.96,4.61z"/>
	<path class="st0" d="M10.17,18.41l0.51,0l0,0.49c0,0.08,0.03,0.16,0.09,0.22c0.06,0.06,0.13,0.09,0.22,0.09
		c0.08,0,0.16-0.03,0.21-0.09c0.06-0.06,0.09-0.13,0.09-0.22l0-0.49l0.51,0l0,0.49c0,0.08,0.03,0.16,0.09,0.22
		c0.06,0.06,0.13,0.09,0.22,0.09c0.17,0,0.3-0.14,0.31-0.3l0-0.49l0.51,0l0,0.49c0,0.08,0.03,0.16,0.09,0.22
		c0.06,0.06,0.13,0.09,0.22,0.09h0c0.17,0,0.3-0.14,0.31-0.3l0-0.49l0.52,0c0.08,0,0.16-0.03,0.21-0.09
		c0.06-0.06,0.09-0.13,0.09-0.22c0-0.08-0.03-0.16-0.09-0.22c-0.06-0.06-0.13-0.09-0.22-0.09l-0.51,0l0-0.49
		c0-0.08-0.03-0.16-0.09-0.22c-0.06-0.06-0.13-0.09-0.22-0.09c-0.08,0-0.16,0.03-0.22,0.09c-0.06,0.06-0.09,0.13-0.09,0.22l0,0.49
		l-0.51,0l0-0.49c0-0.08-0.03-0.16-0.09-0.22c-0.06-0.06-0.13-0.09-0.22-0.09c-0.17,0-0.3,0.14-0.31,0.3l0,0.49l-0.51,0l0-0.49
		c0-0.08-0.03-0.16-0.09-0.22c-0.06-0.06-0.13-0.09-0.22-0.09c-0.08,0-0.16,0.03-0.21,0.09c-0.06,0.06-0.09,0.13-0.09,0.22l0,0.49
		l-0.52,0c-0.17,0-0.3,0.14-0.31,0.3c0,0.08,0.03,0.16,0.09,0.22C10.01,18.38,10.08,18.41,10.17,18.41z"/>
	<path class="st0" d="M17.26,16.6c-0.87-0.88-2.7-2.36-5.14-2.37h-0.03c-3.42,0-5.65,2.87-5.74,3c-0.37,0.48-0.37,1.24-0.01,1.72
		c0,0,0.21,0.29,0.6,0.68c0.87,0.88,2.7,2.36,5.17,2.37h0c3.43,0,5.65-2.87,5.74-3c0.37-0.48,0.37-1.23,0.01-1.72
		C17.86,17.28,17.65,17,17.26,16.6z M8.25,19.37c0.1,0.09,0.26,0.22,0.45,0.36l0.21,0.15l0.03-4c1.03-0.63,2.1-0.96,3.18-0.96
		c1.08,0.01,2.15,0.34,3.18,1l-0.02,4l0.21-0.14c0.16-0.11,0.28-0.21,0.37-0.28c0.03-0.02,0.05-0.04,0.06-0.05l0.06-0.04l0.01-3
		c0.28,0.22,0.55,0.46,0.8,0.72c0.29,0.29,0.47,0.51,0.51,0.57c0.17,0.23,0.17,0.66,0,0.88c-0.02,0.03-2.11,2.72-5.21,2.72
		c-2.18-0.01-3.78-1.3-4.54-2.07c-0.29-0.29-0.45-0.5-0.48-0.54c-0.18-0.25-0.33-0.83-0.16-1.05c0-0.01,0.5-0.64,1.33-1.28
		l-0.02,2.96L8.25,19.37z"/>
</g>
</svg>
