<?xml version="1.0" encoding="utf-8"?>
<!-- Generator: Adobe Illustrator 19.2.1, SVG Export Plug-In . SVG Version: 6.00 Build 0)  -->
<svg version="1.1" id="Layer_2" xmlns="http://www.w3.org/2000/svg" xmlns:xlink="http://www.w3.org/1999/xlink" x="0px" y="0px"
	 viewBox="0 0 24 24" style="enable-background:new 0 0 24 24;" xml:space="preserve">
<style type="text/css">
	.st0{fill:#666666;}
</style>
<path class="st0" d="M19.9,20.21l-0.55-1.46c-0.8-2.12-1.61-4.23-2.41-6.35c-0.35-0.92-0.7-1.84-1.05-2.77V7.67
	c0-0.23,0-0.44-0.1-0.65c0-0.01-0.01-0.01-0.01-0.02c0.1-0.07,0.16-0.18,0.16-0.34c0-1.26-0.23-2.6-1.1-3.57
	c-0.49-0.55-1.19-0.88-1.9-1.01c-0.85-0.16-1.79-0.12-2.59,0.2C9.44,2.64,8.82,3.34,8.45,4.24c-0.31,0.76-0.39,1.61-0.4,2.42
	c0,0.16,0.07,0.27,0.16,0.34C8.19,7.04,8.18,7.08,8.16,7.12C8.1,7.31,8.11,7.5,8.11,7.7v1.91c0,0.01,0,0.02,0,0.03
	C8.1,9.66,8.09,9.68,8.09,9.7l-0.7,1.84c-0.81,2.14-1.62,4.28-2.44,6.42c-0.26,0.69-0.52,1.37-0.78,2.06
	c-0.02,0.06-0.05,0.12-0.07,0.18c-0.07,0.18,0.01,0.42,0.07,0.6c0.12,0.39,0.36,0.72,0.71,0.94c0.42,0.27,0.97,0.28,1.45,0.2
	c0.29-0.05,0.55-0.18,0.76-0.38c0.66,0.57,1.77,0.57,2.43,0c0.36,0.31,0.84,0.44,1.34,0.42c0.45-0.02,0.84-0.19,1.13-0.47
	c0.02,0.02,0.05,0.05,0.08,0.07c0.31,0.26,0.68,0.37,1.08,0.4c0.49,0.04,0.98-0.11,1.34-0.42c0.66,0.57,1.77,0.57,2.43,0
	c0.51,0.45,1.3,0.55,1.94,0.3c0.39-0.15,0.7-0.43,0.87-0.82C19.82,20.84,19.99,20.45,19.9,20.21z M8.97,5.8
	c0-0.03,0.02-0.16,0.02-0.16C9,5.57,9.01,5.51,9.02,5.45c0.03-0.16,0.06-0.31,0.1-0.46c0.15-0.57,0.39-1.04,0.8-1.44
	c0.05-0.04,0.09-0.08,0.14-0.12c0,0,0.05-0.04,0.06-0.05c0.03-0.02,0.06-0.04,0.1-0.06c0.07-0.04,0.14-0.08,0.21-0.12
	c0.04-0.02,0.07-0.04,0.11-0.05c0.02-0.01,0.04-0.02,0.06-0.03c0.01,0,0.01-0.01,0.02-0.01C11,2.96,11.36,2.9,11.72,2.88
	c0.78-0.04,1.5,0.07,2.11,0.48c0.02,0.01,0.04,0.03,0.06,0.05c0.01,0.01,0.05,0.04,0.06,0.05c0.07,0.06,0.13,0.12,0.19,0.18
	c0.06,0.06,0.12,0.13,0.17,0.19c0,0.01,0.01,0.01,0.01,0.01c0,0,0.01,0.01,0.01,0.01c0.03,0.04,0.06,0.08,0.08,0.12
	c0.09,0.14,0.18,0.29,0.25,0.44c0.01,0.02,0.02,0.04,0.03,0.07c-0.01-0.01,0.03,0.08,0.04,0.1c0.03,0.08,0.06,0.16,0.08,0.24
	c0.05,0.15,0.09,0.3,0.12,0.46c0.02,0.08,0.03,0.17,0.05,0.25C14.99,5.56,15,5.59,15,5.63c0,0,0,0.01,0,0.01
	c0,0.02,0,0.03,0.01,0.05c0.03,0.26,0.05,0.53,0.05,0.79c-0.05-0.01-0.1-0.01-0.15-0.01H9.08c-0.05,0-0.1,0-0.15,0.01
	C8.94,6.25,8.95,6.02,8.97,5.8z M8.11,9.64C8.1,9.71,8.08,9.72,8.11,9.64L8.11,9.64z M18.99,20.53c0,0.01-0.04,0.11-0.04,0.11
	c-0.02,0.05-0.05,0.1-0.08,0.14c-0.01,0.02-0.02,0.03-0.03,0.05c0,0-0.01,0.01-0.01,0.01c-0.02,0.02-0.15,0.14-0.09,0.09
	c-0.13,0.1-0.17,0.1-0.3,0.14c-0.13,0.03-0.27,0.04-0.44,0.03c-0.06,0-0.09-0.01-0.15-0.02c-0.03-0.01-0.06-0.02-0.1-0.03
	c0,0-0.14-0.05-0.07-0.02c-0.15-0.07-0.16-0.09-0.25-0.18c-0.01-0.02-0.02-0.03-0.03-0.03c-0.01-0.01-0.02-0.03-0.03-0.04
	c-0.04-0.06-0.07-0.11-0.09-0.17c-0.13-0.29-0.63-0.29-0.76,0c-0.04,0.08-0.08,0.15-0.12,0.22c0.01-0.02-0.05,0.05-0.05,0.06
	c-0.02,0.02-0.04,0.04-0.06,0.06c0.04-0.03,0.03-0.02-0.01,0.01c-0.17,0.12-0.36,0.15-0.59,0.16c-0.22,0-0.4-0.04-0.56-0.13
	c0,0-0.05-0.04-0.06-0.05c-0.03-0.03-0.06-0.05-0.08-0.08c0.02,0.02-0.05-0.07-0.06-0.09c-0.03-0.04-0.05-0.09-0.07-0.14
	c-0.13-0.29-0.63-0.29-0.76,0c-0.04,0.08-0.08,0.15-0.13,0.22c0.02-0.03-0.06,0.07-0.08,0.08c-0.02,0.02-0.03,0.03-0.03,0.03
	c-0.02,0.01-0.03,0.02-0.05,0.03c-0.11,0.07-0.11,0.06-0.23,0.1c-0.13,0.04-0.24,0.04-0.38,0.04c-0.11,0-0.2-0.02-0.31-0.05
	c-0.02-0.01-0.05-0.02-0.07-0.02c0,0-0.02-0.01-0.04-0.02c-0.01-0.01-0.11-0.07-0.1-0.06c-0.03-0.02-0.05-0.05-0.08-0.07
	c-0.02-0.02-0.03-0.03-0.05-0.05c0,0-0.01-0.01-0.01-0.01c-0.03-0.04-0.06-0.09-0.08-0.14c-0.01-0.01-0.01-0.03-0.02-0.04
	c0,0-0.01-0.02-0.01-0.04c-0.15-0.42-0.7-0.42-0.85,0c-0.01,0.02-0.01,0.03-0.01,0.03c0,0,0,0.01,0,0.01
	c-0.02,0.05-0.05,0.09-0.08,0.14c-0.01,0.02-0.02,0.03-0.03,0.05c0,0.01-0.01,0.01-0.02,0.02c-0.03,0.04-0.07,0.07-0.1,0.1
	c0.03-0.02-0.06,0.04-0.07,0.04c-0.02,0.01-0.05,0.03-0.08,0.04c-0.01,0-0.02,0.01-0.03,0.01c-0.13,0.05-0.24,0.06-0.36,0.06
	c-0.24,0.01-0.45-0.03-0.62-0.13c0,0-0.05-0.04-0.06-0.05c-0.03-0.03-0.06-0.05-0.08-0.08c0.02,0.02-0.05-0.07-0.06-0.09
	c-0.03-0.04-0.05-0.09-0.07-0.14c-0.13-0.29-0.63-0.29-0.76,0c-0.04,0.08-0.08,0.15-0.12,0.22c0.01-0.02-0.05,0.05-0.05,0.06
	c-0.02,0.02-0.04,0.04-0.06,0.06c0.04-0.03,0.03-0.02-0.01,0.01c-0.17,0.12-0.36,0.15-0.59,0.16c-0.22,0-0.4-0.04-0.56-0.13
	c0,0-0.05-0.04-0.06-0.05c-0.03-0.03-0.06-0.05-0.08-0.08c0.02,0.02-0.05-0.07-0.06-0.09c-0.03-0.04-0.05-0.09-0.07-0.14
	c-0.13-0.29-0.63-0.29-0.76,0c-0.02,0.05-0.05,0.09-0.07,0.14c-0.01,0.02-0.1,0.14-0.05,0.07c-0.1,0.12-0.1,0.11-0.24,0.19
	c-0.02,0.01-0.03,0.01-0.03,0.02c-0.02,0.01-0.05,0.02-0.08,0.03c-0.06,0.02-0.16,0.04-0.19,0.04c-0.15,0.02-0.33,0.01-0.44-0.02
	c-0.16-0.03-0.18-0.04-0.31-0.13c-0.01-0.01-0.01-0.01-0.02-0.01c-0.02-0.01-0.03-0.03-0.05-0.04c-0.02-0.02-0.04-0.04-0.05-0.06
	c0,0-0.01-0.01-0.01-0.01c0-0.01-0.01-0.01-0.01-0.02c-0.03-0.04-0.05-0.09-0.08-0.13c-0.01-0.01-0.01-0.03-0.02-0.04
	c0.01,0.02-0.02-0.06-0.03-0.07C5,20.51,4.98,20.44,4.97,20.38c0.52-1.37,1.04-2.74,1.56-4.12c0.74-1.95,1.48-3.91,2.22-5.86
	c0.07-0.18,0.14-0.36,0.21-0.54c0.02-0.06,0.03-0.13,0.03-0.2V7.52c0-0.01,0-0.12-0.01-0.07c0-0.02,0-0.03,0-0.04
	c0,0,0.01-0.01,0.02-0.03C8.98,7.43,9.07,7.33,9.01,7.37c0.01-0.01,0.02-0.02,0.03-0.02c0,0,0.01,0,0.04,0
	C9.05,7.35,9.06,7.35,9.07,7.35h5.82c0.11,0,0.12,0.02,0.12,0.1v2.19C15,9.7,15,9.75,15.01,9.81c0.01,0.04,0.02,0.08,0.04,0.12
	c0.52,1.36,1.04,2.73,1.55,4.09l2.22,5.86c0.06,0.17,0.13,0.33,0.19,0.5C19.02,20.43,19.01,20.48,18.99,20.53z M10.09,11.27
	c-0.24-0.07-0.47,0.08-0.54,0.31c-0.58,1.73-1.16,3.46-1.73,5.19c-0.08,0.25-0.17,0.5-0.25,0.75c-0.08,0.23,0.09,0.48,0.31,0.54
	c0.24,0.07,0.47-0.08,0.54-0.31c0.58-1.73,1.16-3.46,1.73-5.19c0.08-0.25,0.17-0.5,0.25-0.75C10.47,11.58,10.31,11.33,10.09,11.27z
	 M14.72,12.32c-0.08-0.25-0.17-0.5-0.25-0.75c-0.08-0.23-0.3-0.37-0.54-0.31c-0.22,0.06-0.38,0.31-0.31,0.54
	c0.58,1.73,1.16,3.46,1.73,5.19c0.08,0.25,0.17,0.5,0.25,0.75c0.08,0.23,0.3,0.37,0.54,0.31c0.22-0.06,0.38-0.31,0.31-0.54
	C15.88,15.78,15.3,14.05,14.72,12.32z M11.56,12.42v5.94c0,0.57,0.88,0.57,0.88,0v-5.94C12.44,11.86,11.56,11.86,11.56,12.42z"/>
</svg>
