<?xml version="1.0" encoding="utf-8"?>
<!-- Generator: Adobe Illustrator 19.2.1, SVG Export Plug-In . SVG Version: 6.00 Build 0)  -->
<svg version="1.1" id="Layer_2" xmlns="http://www.w3.org/2000/svg" xmlns:xlink="http://www.w3.org/1999/xlink" x="0px" y="0px"
	 viewBox="0 0 24 24" style="enable-background:new 0 0 24 24;" xml:space="preserve">
<style type="text/css">
	.st0{fill:#666666;}
</style>
<g>
	<path class="st0" d="M12,22C6.48,22,1.99,17.51,1.99,11.99C1.99,6.48,6.48,1.99,12,1.99c5.52,0,10.01,4.49,10.01,10.01
		C22.01,17.51,17.51,22,12,22z M12,2.81c-5.06,0-9.19,4.12-9.19,9.18c0,5.06,4.12,9.18,9.19,9.18c5.07,0,9.19-4.12,9.19-9.18
		C21.18,6.93,17.06,2.81,12,2.81z"/>
	<path class="st0" d="M14.29,12.32c-0.18,0-0.32-0.15-0.32-0.32c0-0.18,0.15-0.32,0.32-0.32h2.06c0.18,0,0.32,0.15,0.32,0.32
		c0,0.18-0.15,0.32-0.32,0.32H14.29z"/>
	<path class="st0" d="M16.51,10.48c-0.02,0-0.04,0-0.06,0l-2.03-0.35c-0.08-0.01-0.16-0.06-0.21-0.13
		c-0.05-0.07-0.07-0.16-0.06-0.24c0.03-0.15,0.16-0.27,0.32-0.27c0.02,0,0.04,0,0.05,0l2.03,0.35c0.08,0.01,0.16,0.06,0.21,0.13
		c0.05,0.07,0.07,0.16,0.06,0.24C16.8,10.37,16.66,10.48,16.51,10.48z"/>
	<path class="st0" d="M16.92,8.7c-0.04,0-0.08-0.01-0.12-0.03l-1.9-0.79c-0.16-0.07-0.24-0.26-0.17-0.42c0.05-0.12,0.17-0.2,0.3-0.2
		c0.04,0,0.08,0.01,0.12,0.02l1.9,0.79c0.08,0.03,0.14,0.1,0.18,0.18c0.03,0.08,0.03,0.17,0,0.25C17.17,8.63,17.05,8.7,16.92,8.7z"
		/>
	<path class="st0" d="M17.65,7.05c-0.06,0-0.13-0.02-0.18-0.05l-1.72-1.13c-0.15-0.1-0.19-0.3-0.09-0.45
		c0.06-0.09,0.16-0.15,0.27-0.15c0.06,0,0.12,0.02,0.18,0.05l1.72,1.13c0.15,0.1,0.19,0.3,0.09,0.45
		C17.87,6.99,17.76,7.05,17.65,7.05z"/>
	<path class="st0" d="M14.48,14.42c-0.16,0-0.29-0.11-0.32-0.27c-0.01-0.08,0-0.17,0.06-0.24c0.05-0.07,0.12-0.12,0.21-0.13
		l2.03-0.35c0.02,0,0.04,0,0.06,0c0.16,0,0.29,0.11,0.32,0.27c0.01,0.09,0,0.17-0.06,0.24c-0.05,0.07-0.12,0.12-0.21,0.13
		l-2.03,0.35C14.51,14.42,14.5,14.42,14.48,14.42z"/>
	<path class="st0" d="M15.02,16.64c-0.13,0-0.25-0.08-0.3-0.2c-0.07-0.16,0.01-0.35,0.17-0.42l1.9-0.79
		c0.04-0.02,0.08-0.03,0.12-0.03c0.13,0,0.25,0.08,0.3,0.2c0.07,0.17-0.01,0.36-0.17,0.42l-1.9,0.79
		C15.1,16.64,15.06,16.64,15.02,16.64z"/>
	<path class="st0" d="M15.94,18.64c-0.11,0-0.21-0.05-0.27-0.15c-0.1-0.15-0.06-0.35,0.09-0.45l1.72-1.13
		c0.05-0.03,0.11-0.05,0.18-0.05c0.11,0,0.21,0.05,0.27,0.15c0.1,0.15,0.06,0.35-0.09,0.45l-1.72,1.13
		C16.06,18.62,16,18.64,15.94,18.64z"/>
	<path class="st0" d="M7.65,12.32c-0.18,0-0.32-0.15-0.32-0.32c0-0.18,0.15-0.32,0.32-0.32H9.7c0.18,0,0.32,0.15,0.32,0.32
		c0,0.18-0.15,0.32-0.32,0.32H7.65z"/>
	<path class="st0" d="M7.49,10.48c-0.16,0-0.29-0.11-0.32-0.27c-0.01-0.09,0-0.17,0.06-0.24C7.28,9.9,7.35,9.85,7.43,9.84l2.03-0.35
		c0.02,0,0.04,0,0.05,0c0.16,0,0.29,0.11,0.32,0.27c0.01,0.09,0,0.17-0.05,0.24c-0.05,0.07-0.12,0.12-0.21,0.13l-2.03,0.35
		C7.53,10.48,7.51,10.48,7.49,10.48z"/>
	<path class="st0" d="M7.08,8.7c-0.13,0-0.25-0.08-0.3-0.2C6.71,8.34,6.79,8.15,6.95,8.08l1.9-0.79c0.04-0.02,0.08-0.03,0.12-0.03
		c0.13,0,0.25,0.08,0.3,0.2C9.34,7.63,9.26,7.82,9.1,7.89L7.2,8.68C7.16,8.7,7.12,8.7,7.08,8.7z"/>
	<path class="st0" d="M6.34,7.05c-0.11,0-0.21-0.05-0.27-0.15c-0.1-0.15-0.06-0.35,0.09-0.45l1.72-1.13
		c0.05-0.03,0.11-0.05,0.18-0.05c0.11,0,0.21,0.05,0.27,0.15c0.1,0.15,0.06,0.35-0.09,0.45L6.52,6.99C6.47,7.03,6.4,7.05,6.34,7.05z
		"/>
	<path class="st0" d="M9.52,14.42c-0.02,0-0.04,0-0.05,0l-2.03-0.35c-0.08-0.01-0.16-0.06-0.21-0.13c-0.05-0.07-0.07-0.16-0.06-0.24
		c0.03-0.15,0.16-0.27,0.32-0.27c0.02,0,0.04,0,0.05,0l2.03,0.35c0.09,0.01,0.16,0.06,0.21,0.13c0.05,0.07,0.07,0.16,0.05,0.24
		C9.81,14.31,9.67,14.42,9.52,14.42z"/>
	<path class="st0" d="M8.97,16.64c-0.04,0-0.08-0.01-0.12-0.03l-1.9-0.79c-0.16-0.07-0.24-0.26-0.17-0.42
		c0.05-0.12,0.17-0.2,0.3-0.2c0.04,0,0.08,0.01,0.12,0.02l1.9,0.79c0.08,0.03,0.14,0.1,0.17,0.18c0.03,0.08,0.03,0.17,0,0.25
		C9.22,16.57,9.11,16.64,8.97,16.64z"/>
	<path class="st0" d="M8.06,18.64c-0.06,0-0.13-0.02-0.18-0.05l-1.72-1.13c-0.15-0.1-0.19-0.3-0.09-0.45
		c0.06-0.09,0.16-0.15,0.27-0.15c0.06,0,0.13,0.02,0.18,0.05l1.72,1.13c0.15,0.1,0.19,0.3,0.09,0.45
		C8.27,18.59,8.17,18.64,8.06,18.64z"/>
</g>
</svg>
