<?xml version="1.0" encoding="utf-8"?>
<!-- Generator: Adobe Illustrator 19.2.1, SVG Export Plug-In . SVG Version: 6.00 Build 0)  -->
<svg version="1.1" id="Layer_2" xmlns="http://www.w3.org/2000/svg" xmlns:xlink="http://www.w3.org/1999/xlink" x="0px" y="0px"
	 viewBox="0 0 24 24" style="enable-background:new 0 0 24 24;" xml:space="preserve">
<style type="text/css">
	.st0{fill:#666666;}
</style>
<g>
	<g>
		<path class="st0" d="M12.71,3.01c-4.64,0-8.41,3.77-8.41,8.41s3.77,8.41,8.41,8.41s8.41-3.77,8.41-8.41S17.35,3.01,12.71,3.01
			L12.71,3.01z M12.71,3.63c0.51,0,1.01,0.05,1.5,0.14c-3.21,0.86-5.66,2.78-7.66,4.95C6.25,8.54,5.96,8.32,5.67,8.08
			C6.92,5.45,9.6,3.63,12.71,3.63L12.71,3.63z M15.47,4.14c0.74,0.28,1.42,0.67,2.03,1.14c-2.78,0.75-5.49,2.5-7.83,4.88
			c-0.88-0.28-1.74-0.61-2.59-1.1C9.25,6.73,11.89,4.77,15.47,4.14L15.47,4.14z M18.08,5.78c0.44,0.42,0.83,0.89,1.17,1.4
			c-2.7,0.79-4.87,2.14-6.62,3.88c-0.77-0.26-1.53-0.47-2.28-0.7C12.69,8.05,15.39,6.4,18.08,5.78L18.08,5.78z M19.57,7.74
			c0.59,1.1,0.92,2.35,0.92,3.69c0,1.93-0.7,3.69-1.85,5.05c0.78-3.07,0.06-5.54-0.5-8.26C18.61,8.04,19.08,7.88,19.57,7.74
			L19.57,7.74z M17.56,8.45c0.62,3.02,1.38,5.55,0.14,8.95c-0.64,0.53-1.36,0.97-2.15,1.28c0.76-2.75,0.75-5.86-0.14-9.07
			C16.08,9.17,16.79,8.79,17.56,8.45L17.56,8.45z M5.41,8.68c2.29,1.85,4.71,2.21,6.99,2.98c0.04,0.82,0.08,1.64,0.08,2.44
			c-3.21-0.84-5.56-1.96-7.45-4C5.11,9.6,5.24,9.13,5.41,8.68L5.41,8.68z M14.87,9.98c0.84,3.2,0.79,6.27-0.04,8.94
			c-0.68,0.19-1.39,0.29-2.12,0.29c-0.14,0-0.29,0-0.43-0.01c0.99-2.46,0.88-5.08,0.75-7.66C13.59,10.98,14.21,10.45,14.87,9.98
			L14.87,9.98z M4.94,10.89c1.96,1.94,4.39,3.04,7.54,3.84c-0.02,0.87-0.1,1.72-0.27,2.56c-2.1-0.42-4.72-1.12-7.03-3.89
			c-0.17-0.63-0.25-1.3-0.25-1.98C4.92,11.24,4.92,11.07,4.94,10.89L4.94,10.89z M5.73,14.91c2.16,2,4.49,2.62,6.32,2.99
			c-0.11,0.42-0.25,0.83-0.43,1.24C9.04,18.78,6.86,17.15,5.73,14.91L5.73,14.91z M5.73,14.91"/>
	</g>
	<ellipse transform="matrix(0.909 -0.4168 0.4168 0.909 -7.1826 8.0366)" class="st0" cx="14.81" cy="20.47" rx="0.32" ry="0.32"/>
	<ellipse transform="matrix(0.909 -0.4168 0.4168 0.909 -2.6399 9.0544)" class="st0" cx="19.42" cy="10.57" rx="0.32" ry="0.32"/>
	<ellipse transform="matrix(0.909 -0.4168 0.4168 0.909 -4.5756 8.4722)" class="st0" cx="17.11" cy="14.71" rx="0.32" ry="0.32"/>
	<ellipse transform="matrix(0.909 -0.4168 0.4168 0.909 -6.0196 7.3808)" class="st0" cx="13.89" cy="17.48" rx="0.32" ry="0.32"/>
	<ellipse transform="matrix(0.909 -0.4168 0.4168 0.909 -4.3905 10.2404)" class="st0" cx="21.26" cy="15.17" rx="0.32" ry="0.32"/>
	<ellipse transform="matrix(0.909 -0.4168 0.4168 0.909 -3.8888 7.0161)" class="st0" cx="14.12" cy="12.41" rx="0.32" ry="0.32"/>
	<ellipse transform="matrix(0.909 -0.4168 0.4168 0.909 -2.5825 7.9366)" class="st0" cx="16.88" cy="9.88" rx="0.32" ry="0.32"/>
	<ellipse transform="matrix(0.909 -0.4168 0.4168 0.909 -4.14 5.8652)" class="st0" cx="11.36" cy="12.41" rx="0.32" ry="0.32"/>
	<ellipse transform="matrix(0.909 -0.4168 0.4168 0.909 -5.94 3.1435)" class="st0" cx="4.23" cy="15.17" rx="0.32" ry="0.32"/>
	<ellipse transform="matrix(0.909 -0.4168 0.4168 0.909 -4.7385 3.5845)" class="st0" cx="5.84" cy="12.64" rx="0.32" ry="0.32"/>
	<ellipse transform="matrix(0.909 -0.4168 0.4168 0.909 -5.3583 9.9493)" class="st0" cx="20.11" cy="17.25" rx="0.32" ry="0.32"/>
	<ellipse transform="matrix(0.909 -0.4168 0.4168 0.909 -2.2517 4.8501)" class="st0" cx="9.98" cy="7.58" rx="0.32" ry="0.32"/>
	<ellipse transform="matrix(0.909 -0.4168 0.4168 0.909 -6.7064 8.837)" class="st0" cx="16.88" cy="19.78" rx="0.32" ry="0.32"/>
	<ellipse transform="matrix(0.909 -0.4168 0.4168 0.909 -5.4152 2.3256)" class="st0" cx="2.62" cy="13.56" rx="0.32" ry="0.32"/>
	<ellipse transform="matrix(0.909 -0.4168 0.4168 0.909 -4.945 10.4619)" class="st0" cx="21.49" cy="16.56" rx="0.32" ry="0.32"/>
	<ellipse transform="matrix(0.909 -0.4168 0.4168 0.909 -5.9216 9.6704)" class="st0" cx="19.19" cy="18.4" rx="0.32" ry="0.32"/>
	<ellipse transform="matrix(0.909 -0.4168 0.4168 0.909 0.0244 8.3722)" class="st0" cx="19.19" cy="4.13" rx="0.32" ry="0.32"/>
	<ellipse transform="matrix(0.909 -0.4168 0.4168 0.909 -6.0325 2.2594)" class="st0" cx="2.16" cy="14.94" rx="0.32" ry="0.32"/>
	<ellipse transform="matrix(0.909 -0.4168 0.4168 0.909 -5.2679 8.5229)" class="st0" cx="16.88" cy="16.33" rx="0.32" ry="0.32"/>
	<ellipse transform="matrix(0.909 -0.4168 0.4168 0.909 -6.7517 9.5502)" class="st0" cx="18.49" cy="20.24" rx="0.32" ry="0.32"/>
</g>
</svg>
