<?xml version="1.0" encoding="utf-8"?>
<!-- Generator: Adobe Illustrator 19.2.1, SVG Export Plug-In . SVG Version: 6.00 Build 0)  -->
<svg version="1.1" id="Layer_2" xmlns="http://www.w3.org/2000/svg" xmlns:xlink="http://www.w3.org/1999/xlink" x="0px" y="0px"
	 viewBox="0 0 24 24" style="enable-background:new 0 0 24 24;" xml:space="preserve">
<style type="text/css">
	.st0{fill:#666666;}
</style>
<path class="st0" d="M19.24,17.06c-0.03-0.17-0.18-0.3-0.36-0.3c-0.91,0-2.24-1.19-3.85-3.45c0.89-0.15,1.68-0.37,2.35-0.64
	c0.16-0.07,0.26-0.24,0.22-0.41c-0.03-0.17-0.18-0.3-0.36-0.3c-0.67,0-1.7-0.95-2.91-2.67c0.61-0.11,1.15-0.26,1.61-0.45
	c0.16-0.07,0.26-0.24,0.22-0.41c-0.03-0.17-0.18-0.3-0.36-0.3c-0.67,0-1.89-1.57-2.82-3.15c0.09-0.15,0.29-0.35,0.44-0.43l0.36-0.2
	c0.22-0.12,0.35-0.31,0.35-0.53c0-0.22-0.13-0.41-0.35-0.53l-0.36-0.2c-0.15-0.08-0.36-0.3-0.44-0.44l-0.2-0.36
	c-0.11-0.21-0.31-0.33-0.53-0.33c-0.22,0-0.41,0.13-0.53,0.33l-0.2,0.36c-0.08,0.15-0.3,0.36-0.44,0.44l-0.36,0.2
	c-0.22,0.12-0.35,0.31-0.35,0.53c0,0.22,0.13,0.41,0.35,0.53l0.36,0.2c0.14,0.08,0.35,0.28,0.44,0.43C10.59,6.57,9.37,8.15,8.7,8.15
	c-0.18,0-0.33,0.12-0.36,0.3C8.31,8.61,8.4,8.78,8.57,8.85c0.46,0.19,1,0.34,1.61,0.45c-1.22,1.73-2.25,2.67-2.91,2.67
	c-0.18,0-0.33,0.12-0.36,0.3c-0.03,0.17,0.06,0.34,0.22,0.41c0.67,0.27,1.46,0.49,2.35,0.64c-1.61,2.26-2.94,3.45-3.85,3.45
	c-0.17,0-0.33,0.12-0.36,0.3c-0.03,0.17,0.06,0.34,0.22,0.41c2.24,0.9,4.96,1.12,6.17,1.17v2.52h-1.35c-0.2,0-0.37,0.16-0.37,0.37
	c0,0.2,0.16,0.37,0.37,0.37l1.95,0l1.95,0c0.2,0,0.37-0.16,0.37-0.37c0-0.2-0.16-0.37-0.37-0.37h-1.35v-2.52
	c1.2-0.05,3.93-0.26,6.17-1.17C19.18,17.4,19.28,17.23,19.24,17.06z M10.29,13.43c1.1,0.14,1.93,0.14,1.96,0.14s0.86,0,1.96-0.14
	c1.32,1.9,2.5,3.15,3.51,3.71c-2.58,0.77-5.44,0.78-5.47,0.78c-0.03,0-2.89-0.01-5.47-0.78C7.79,16.58,8.97,15.33,10.29,13.43z
	 M10.99,9.41c0.72,0.08,1.24,0.08,1.27,0.08s0.55,0,1.27-0.08c0.97,1.43,1.86,2.41,2.63,2.9c-1.87,0.52-3.87,0.52-3.89,0.52
	c-0.02,0-2.02-0.01-3.89-0.52C9.13,11.82,10.02,10.85,10.99,9.41z M12.34,4.66l-0.09,0.16l-0.09-0.16
	c-0.15-0.27-0.46-0.59-0.73-0.73l-0.16-0.09l0.16-0.09c0.27-0.15,0.59-0.46,0.73-0.73l0.09-0.16l0.09,0.16
	c0.15,0.27,0.46,0.59,0.73,0.73l0.16,0.09l-0.16,0.09C12.81,4.07,12.49,4.39,12.34,4.66z M11.99,5.64c0.17,0.1,0.37,0.1,0.54,0
	c0.6,0.98,1.43,2.19,2.26,2.81c-1.25,0.31-2.51,0.31-2.53,0.31c-0.01,0-1.27,0-2.53-0.31C10.56,7.83,11.39,6.63,11.99,5.64z"/>
</svg>
