<?xml version="1.0" encoding="utf-8"?>
<!-- Generator: Adobe Illustrator 19.2.1, SVG Export Plug-In . SVG Version: 6.00 Build 0)  -->
<svg version="1.1" id="Layer_2" xmlns="http://www.w3.org/2000/svg" xmlns:xlink="http://www.w3.org/1999/xlink" x="0px" y="0px"
	 viewBox="0 0 24 24" style="enable-background:new 0 0 24 24;" xml:space="preserve">
<style type="text/css">
	.st0{fill:#666666;}
</style>
<g>
	<path class="st0" d="M21.92,3.61l-1.59-1.59c-0.18-0.18-0.47-0.18-0.65,0l-4.8,4.8C14.77,6.94,14.62,7,14.45,7h0
		c-0.17,0-0.32-0.06-0.44-0.18L13.59,6.4c-0.35-0.35-0.92-0.35-1.28,0l-9.73,9.73c-0.41,0.41-0.64,0.96-0.64,1.54
		c0,0.58,0.23,1.13,0.64,1.54l2.14,2.15C5.15,21.78,5.71,22,6.27,22c0.56,0,1.12-0.21,1.54-0.64l9.73-9.73
		c0.35-0.35,0.35-0.92,0-1.28l-0.42-0.42c-0.12-0.12-0.18-0.27-0.18-0.44c0-0.17,0.06-0.32,0.18-0.44l4.8-4.8
		C22.1,4.08,22.1,3.79,21.92,3.61z M7.17,20.71c-0.5,0.5-1.3,0.5-1.8,0l-2.14-2.15c-0.24-0.24-0.37-0.56-0.37-0.9
		c0-0.34,0.13-0.66,0.37-0.9l9.71-9.73l0.42,0.42c0.29,0.29,0.68,0.45,1.09,0.45h0c0.29,0,0.57-0.08,0.82-0.24l1,1
		c-0.15,0.24-0.24,0.52-0.24,0.82c0,0.41,0.16,0.8,0.45,1.09l0.42,0.41L7.17,20.71z M16.72,8.17l-0.94-0.94l4.23-4.23l0.94,0.94
		L16.72,8.17z"/>
	<path class="st0" d="M17.14,16.51c-1.57,0-2.84,1.27-2.84,2.84s1.27,2.84,2.84,2.84c1.57,0,2.84-1.27,2.84-2.84
		S18.71,16.51,17.14,16.51z M17.14,21.28c-0.95,0-1.73-0.69-1.9-1.59h3.79C18.87,20.59,18.09,21.28,17.14,21.28z M15.24,19.01
		c0.16-0.9,0.95-1.59,1.9-1.59c0.95,0,1.73,0.69,1.9,1.59H15.24z"/>
</g>
</svg>
