<?xml version="1.0" encoding="utf-8"?>
<!-- Generator: Adobe Illustrator 19.2.1, SVG Export Plug-In . SVG Version: 6.00 Build 0)  -->
<svg version="1.1" id="Layer_2" xmlns="http://www.w3.org/2000/svg" xmlns:xlink="http://www.w3.org/1999/xlink" x="0px" y="0px"
	 viewBox="0 0 24 24" style="enable-background:new 0 0 24 24;" xml:space="preserve">
<style type="text/css">
	.st0{fill:#666666;}
</style>
<path class="st0" d="M18.27,20.51c-1.01-0.01-1.97-0.41-2.68-1.13c-0.72-0.72-1.11-1.68-1.1-2.69c0.01-2.09,1.72-3.78,3.8-3.78
	c1.03,0,1.99,0.41,2.7,1.13c0.72,0.72,1.11,1.68,1.1,2.69c-0.01,2.09-1.72,3.78-3.8,3.78H18.27z M18.29,13.6
	c-1.71,0-3.1,1.39-3.11,3.1c-0.01,1.72,1.38,3.12,3.1,3.13c1.72,0,3.12-1.39,3.13-3.1c0-0.83-0.32-1.61-0.9-2.2
	c-0.59-0.59-1.37-0.92-2.2-0.92H18.29z M5.91,20.44c-1.02-0.01-1.97-0.41-2.68-1.13c-0.71-0.72-1.11-1.68-1.1-2.69
	c0.01-2.09,1.72-3.78,3.8-3.78c2.11,0.01,3.81,1.72,3.8,3.82c-0.01,2.09-1.72,3.78-3.8,3.78H5.91z M5.93,13.53
	c-1.71,0-3.1,1.39-3.11,3.1c0,0.83,0.32,1.61,0.9,2.2c0.59,0.59,1.37,0.92,2.2,0.92c1.72,0,3.12-1.39,3.13-3.1
	c0.01-1.72-1.38-3.12-3.1-3.13L5.93,13.53z M12.55,19.54c-0.09,0-0.18-0.01-0.28-0.04c-0.08-0.02-0.17-0.04-0.26-0.06
	c-0.51-0.11-1.14-0.25-1.22-0.8c-0.01-0.08-0.02-0.15-0.01-0.22l0.01-0.11l0.27-3.48l-0.02-0.04l-3.37-2.9
	c-0.46-0.4-0.72-0.8-0.8-1.24c-0.12-0.67,0.25-1.4,0.86-1.72l3.78-2.01c0.07-0.04,0.15-0.08,0.23-0.13c0.25-0.15,0.51-0.3,0.76-0.3
	c0.1,0,0.19,0.02,0.28,0.07c0.15,0.08,0.28,0.23,0.4,0.37c0.05,0.06,0.08,0.1,0.12,0.14l3.57,3.87l2.84,0
	c0.22,0,0.32,0.18,0.33,0.34c0,0.17-0.1,0.35-0.33,0.35l-2.96,0.03c-0.19,0-0.37-0.22-0.52-0.39c-0.04-0.05-0.07-0.09-0.11-0.13
	l-1.48-1.61l-3.19,1.75l2.44,2.3c0.18,0.17,0.08,0.36,0.05,0.41c-0.01,0.05-0.01,0.07-0.02,0.08l-0.54,4.66
	c-0.01,0.13-0.03,0.27-0.09,0.38C13.12,19.39,12.86,19.54,12.55,19.54z M12.46,18.84l0.01,0.03l0.04,0h0.05l0.04-0.01l0.04-0.02
	l0.02-0.06l0.02-0.03l0.04-0.24l-0.02,0.01l0.51-4.4c0-0.04,0.01-0.07,0.02-0.1L13.24,14l0-0.04l-2.63-2.49
	c-0.07-0.07-0.11-0.18-0.09-0.29c0.01-0.11,0.08-0.21,0.16-0.25l3.47-1.91l-1.69-1.83l0,0c-0.03-0.04-0.26,0.15-0.3,0.18L8.06,9.54
	c-0.23,0.12-0.45,0.41-0.5,0.66c-0.04,0.17-0.02,0.33,0.05,0.51c0.06,0.15,0.2,0.38,0.35,0.51l3.72,3.19
	c0.08,0.07,0.12,0.2,0.08,0.32c0,0.06,0.01,0.09,0,0.11l-0.29,3.69l0.03,0.03c0.04,0.03,0.06,0.04,0.08,0.05L12.46,18.84
	L12.46,18.84z M15.91,7.67c-0.29,0-0.57-0.06-0.83-0.17c-0.52-0.22-0.92-0.63-1.13-1.16c-0.21-0.52-0.21-1.1,0.02-1.62
	c0.33-0.78,1.1-1.29,1.95-1.29c0.29,0,0.57,0.06,0.83,0.17c0.52,0.22,0.92,0.63,1.13,1.16c0.21,0.53,0.2,1.1-0.02,1.62
	C17.53,7.17,16.76,7.67,15.91,7.67z M15.92,4.13c-0.57,0-1.09,0.34-1.31,0.87c-0.15,0.35-0.15,0.74-0.01,1.09
	c0.14,0.35,0.41,0.63,0.76,0.78c0.18,0.08,0.37,0.12,0.56,0.12c0.57,0,1.09-0.34,1.31-0.87c0.15-0.35,0.15-0.74,0.01-1.09
	c-0.14-0.35-0.41-0.63-0.76-0.78C16.3,4.17,16.11,4.13,15.92,4.13z"/>
</svg>
