<?xml version="1.0" encoding="utf-8"?>
<!-- Generator: Adobe Illustrator 19.2.1, SVG Export Plug-In . SVG Version: 6.00 Build 0)  -->
<svg version="1.1" id="Layer_2" xmlns="http://www.w3.org/2000/svg" xmlns:xlink="http://www.w3.org/1999/xlink" x="0px" y="0px"
	 viewBox="0 0 24 24" style="enable-background:new 0 0 24 24;" xml:space="preserve">
<style type="text/css">
	.st0{fill:#666666;}
</style>
<g>
	<path class="st0" d="M21.74,4.28c-0.22-0.27-0.58-0.43-0.96-0.43c-0.42,0-0.81,0.21-1.04,0.57c-0.01,0.01-0.02,0.03-0.02,0.05
		c-0.04,0.1-4.26,9.54-5.41,10.85c-0.01,0.01-1.24,1.34-3.37,1.34c-0.18,0-0.36-0.01-0.56-0.03L4.2,15.44
		c-0.1-0.02-0.21-0.03-0.31-0.03c-0.92,0-1.61,0.67-1.82,1.75c-0.01,0.04-0.15,0.88,0.36,1.6c0.35,0.5,0.92,0.81,1.68,0.93l0.03,0
		l6.31,0.45c0,0,0.15,0.01,0.39,0.01c0.95,0,3.29-0.16,4.52-1.61c0.07-0.08,0.74-0.86,1.24-2.02c0.69-1.6,4.54-9.79,5.31-11.41
		l0.02-0.04c0.01-0.02,0.02-0.05,0.02-0.08C21.99,4.74,21.92,4.49,21.74,4.28z M11.63,19.48c-0.04,0-0.08-0.02-0.11-0.04
		c-0.03-0.03-0.05-0.08-0.05-0.12l0.04-1.91c0-0.08,0.06-0.15,0.14-0.16c1.61-0.2,2.64-1.03,3.01-1.38
		c0.03-0.03,0.07-0.04,0.11-0.04c0.02,0,0.05,0.01,0.07,0.02l0.98,0.47c0.08,0.04,0.11,0.13,0.08,0.22c-0.45,0.95-1,1.59-1.02,1.61
		C14.07,19.07,12.67,19.38,11.63,19.48z M15.03,15.51c-0.01-0.05,0-0.09,0.02-0.13c0.06-0.09,0.13-0.2,0.2-0.31
		c0.03-0.05,0.08-0.08,0.14-0.08c0.02,0,0.05,0.01,0.07,0.02l0.78,0.37c0.08,0.04,0.11,0.13,0.08,0.21l-0.15,0.34
		c-0.02,0.04-0.05,0.07-0.09,0.09c-0.02,0.01-0.04,0.01-0.06,0.01c-0.02,0-0.05-0.01-0.07-0.02l-0.83-0.39
		C15.07,15.59,15.04,15.56,15.03,15.51z M16.42,15.1c-0.02,0-0.05-0.01-0.07-0.02l-0.72-0.34c-0.04-0.02-0.07-0.05-0.08-0.1
		c-0.01-0.04-0.01-0.09,0.01-0.13c1.62-2.86,4.4-9.06,4.71-9.76c0-0.01,0.01-0.02,0.02-0.03c0.12-0.16,0.29-0.25,0.49-0.25
		c0.19,0,0.37,0.08,0.47,0.2c0.02,0.03,0.04,0.05,0.05,0.08c0.02,0.04,0.01,0.09,0,0.13c-0.56,1.19-3.42,7.26-4.73,10.12
		c-0.02,0.04-0.05,0.07-0.09,0.08C16.46,15.1,16.44,15.1,16.42,15.1z M2.95,18.4c-0.36-0.5-0.26-1.12-0.26-1.12
		c0.15-0.78,0.58-1.23,1.19-1.23c0.07,0,0.14,0.01,0.2,0.02l0.11,0.02c0.08,0.02,0.14,0.09,0.13,0.17l-0.14,2.62
		c0,0.05-0.03,0.09-0.06,0.12c-0.03,0.02-0.06,0.03-0.1,0.03c-0.01,0-0.02,0-0.04,0C3.52,18.91,3.17,18.7,2.95,18.4z"/>
	<path class="st0" d="M8.31,12.37c1.5,0,2.72-1.22,2.72-2.72c0-1.5-1.22-2.72-2.72-2.72c-1.5,0-2.72,1.22-2.72,2.72
		C5.59,11.15,6.81,12.37,8.31,12.37z M8.31,7.6c1.13,0,2.06,0.92,2.06,2.06c0,1.13-0.92,2.06-2.06,2.06c-1.13,0-2.05-0.92-2.05-2.06
		C6.26,8.52,7.18,7.6,8.31,7.6z"/>
	<ellipse transform="matrix(0.909 -0.4168 0.4168 0.909 -2.9478 4.212)" class="st0" cx="8.17" cy="8.86" rx="0.44" ry="0.44"/>
	<ellipse transform="matrix(0.909 -0.4168 0.4168 0.909 -3.2794 4.8493)" class="st0" cx="9.47" cy="9.94" rx="0.44" ry="0.44"/>
	<ellipse transform="matrix(0.909 -0.4168 0.4168 0.909 -3.5657 3.9702)" class="st0" cx="7.31" cy="10.15" rx="0.44" ry="0.44"/>
</g>
</svg>
