<?xml version="1.0" encoding="utf-8"?>
<!-- Generator: Adobe Illustrator 19.2.1, SVG Export Plug-In . SVG Version: 6.00 Build 0)  -->
<svg version="1.1" id="Layer_2" xmlns="http://www.w3.org/2000/svg" xmlns:xlink="http://www.w3.org/1999/xlink" x="0px" y="0px"
	 viewBox="0 0 24 24" style="enable-background:new 0 0 24 24;" xml:space="preserve">
<style type="text/css">
	.st0{fill:#666666;}
</style>
<g>
	<path class="st0" d="M12,21.97c-2.31,0-4.48-0.34-6.12-0.95c-1.78-0.66-2.76-1.6-2.76-2.64s0.98-1.98,2.76-2.64
		c1.64-0.61,3.82-0.95,6.12-0.95s4.48,0.34,6.12,0.95c1.78,0.66,2.76,1.6,2.76,2.64s-0.98,1.98-2.76,2.64
		C16.48,21.64,14.3,21.97,12,21.97z M12,15.68c-2.2,0-4.27,0.32-5.81,0.89c-1.39,0.52-2.18,1.18-2.18,1.81s0.79,1.29,2.18,1.81
		c1.55,0.58,3.61,0.89,5.81,0.89c2.2,0,4.27-0.32,5.81-0.89c1.39-0.52,2.18-1.17,2.18-1.81s-0.79-1.29-2.18-1.81
		C16.26,16,14.2,15.68,12,15.68z"/>
	<path class="st0" d="M9.51,19.38c-0.45,0-0.88-0.07-1.2-0.19c-0.63-0.24-0.72-0.61-0.72-0.81s0.09-0.57,0.72-0.81
		c0.33-0.12,0.76-0.19,1.2-0.19c0.45,0,0.88,0.07,1.2,0.19c0.63,0.24,0.73,0.61,0.73,0.81s-0.09,0.57-0.73,0.81
		C10.39,19.31,9.96,19.38,9.51,19.38z M8.71,18.38c0.18,0.06,0.46,0.11,0.81,0.11c0.35,0,0.63-0.05,0.81-0.11
		c-0.18-0.06-0.45-0.11-0.81-0.11C9.16,18.27,8.89,18.32,8.71,18.38z"/>
	<path class="st0" d="M8.03,18.82c-0.25,0-0.45-0.2-0.45-0.45V2.46c0-0.25,0.2-0.45,0.45-0.45c0.25,0,0.45,0.2,0.45,0.45v15.92
		C8.48,18.62,8.28,18.82,8.03,18.82z"/>
	<path class="st0" d="M8.03,9.12c-0.18,0-0.34-0.11-0.41-0.28C7.52,8.61,7.63,8.35,7.86,8.25l6.58-2.69L7.86,2.87
		c-0.11-0.05-0.2-0.13-0.24-0.24c-0.05-0.11-0.05-0.23,0-0.34c0.07-0.17,0.23-0.28,0.41-0.28c0.06,0,0.12,0.01,0.17,0.03l7.59,3.1
		c0.17,0.07,0.28,0.23,0.28,0.41c0,0.18-0.11,0.34-0.28,0.41L8.2,9.08C8.15,9.1,8.09,9.12,8.03,9.12z"/>
	<path class="st0" d="M17.13,19.63c-0.69,0-1.25-0.56-1.25-1.25s0.56-1.25,1.25-1.25c0.69,0,1.25,0.56,1.25,1.25
		S17.82,19.63,17.13,19.63z M17.13,18.02c-0.2,0-0.36,0.16-0.36,0.36s0.16,0.36,0.36,0.36s0.36-0.16,0.36-0.36
		S17.33,18.02,17.13,18.02z"/>
</g>
</svg>
