<?xml version="1.0" encoding="utf-8"?>
<!-- Generator: Adobe Illustrator 19.2.1, SVG Export Plug-In . SVG Version: 6.00 Build 0)  -->
<svg version="1.1" id="Layer_2" xmlns="http://www.w3.org/2000/svg" xmlns:xlink="http://www.w3.org/1999/xlink" x="0px" y="0px"
	 viewBox="0 0 24 24" style="enable-background:new 0 0 24 24;" xml:space="preserve">
<style type="text/css">
	.st0{fill:#666666;}
</style>
<g>
	<g>
		<path class="st0" d="M12.01,20.16c-1.15,0-2.09-0.94-2.09-2.09s0.94-2.09,2.09-2.09c1.15,0,2.09,0.94,2.09,2.09
			S13.16,20.16,12.01,20.16z M12.01,16.67c-0.77,0-1.4,0.63-1.4,1.4s0.63,1.4,1.4,1.4c0.77,0,1.4-0.63,1.4-1.4
			S12.78,16.67,12.01,16.67z"/>
		<polygon class="st0" points="7.84,4.65 8.43,4.29 10.27,7.26 9.85,7.88 		"/>
		<path class="st0" d="M18.41,18.49c-1.44,0-2.49-0.73-3.42-2.35l-2.87-4.62c-0.02-0.04-0.06-0.06-0.1-0.06s-0.08,0.02-0.1,0.06
			l-2.88,4.63c-0.93,1.62-1.98,2.34-3.42,2.34c-0.1,0-0.19,0-0.29-0.01c-0.79-0.01-1.53-0.35-2.15-0.99
			c-1.01-1.05-1.21-2.52-1.14-3.06c0.08-0.69,0.59-1.28,1.24-1.43c0.11-0.03,0.22-0.04,0.33-0.04c0.4,0,0.78,0.15,1.06,0.42
			c0.26,0.25,0.41,0.61,0.45,1.02c0.03,0.36,0.16,0.77,0.28,0.87c0.05,0.04,0.1,0.08,0.18,0.08c0.04,0,0.07-0.01,0.12-0.02
			c0.16-0.06,0.43-0.2,0.85-0.8L14.2,3.39l0.57,0.39l-5.04,7.31c-0.02,0.03-0.03,0.06-0.02,0.09c0.01,0.03,0.03,0.06,0.05,0.08
			l0.97,0.61c0.02,0.01,0.04,0.02,0.06,0.02c0.01,0,0.02,0,0.03,0c0.03-0.01,0.06-0.03,0.07-0.05l4.69-7.54l0.59,0.36l-2.56,4.12
			c-0.03,0.04-0.02,0.09,0,0.13l3.87,5.62c0.47,0.67,0.75,0.77,0.85,0.8c0.04,0.02,0.08,0.02,0.12,0.02c0.08,0,0.14-0.04,0.18-0.07
			c0.12-0.11,0.25-0.52,0.28-0.88c0.03-0.42,0.19-0.77,0.45-1.02c0.28-0.27,0.66-0.42,1.06-0.43c0.11,0,0.22,0.01,0.33,0.04
			c0.65,0.16,1.16,0.75,1.24,1.43c0.06,0.55-0.13,2.01-1.14,3.06c-0.62,0.64-1.36,0.99-2.15,0.99C18.6,18.48,18.5,18.49,18.41,18.49
			z M15.58,13.06c-0.02,0-0.04,0.01-0.06,0.02l-1.07,0.67c-0.06,0.03-0.07,0.11-0.04,0.16l1.17,1.87c0.81,1.41,1.66,2.02,2.84,2.02
			c0.08,0,0.17,0,0.26-0.01l0.03,0c0.6,0,1.16-0.26,1.66-0.78c0.84-0.87,1-2.16,0.96-2.51c-0.05-0.4-0.35-0.75-0.72-0.84
			c-0.06-0.01-0.12-0.02-0.18-0.02c-0.22,0-0.42,0.09-0.57,0.23c-0.14,0.14-0.22,0.33-0.24,0.59c-0.01,0.1-0.1,1-0.53,1.36
			c-0.18,0.15-0.39,0.23-0.62,0.23c-0.12,0-0.23-0.02-0.35-0.06c-0.4-0.14-0.78-0.48-1.18-1.06l-1.25-1.81
			C15.66,13.08,15.62,13.06,15.58,13.06z M3.6,13.64c-0.06,0-0.12,0.01-0.18,0.02c-0.37,0.09-0.67,0.44-0.71,0.84
			c-0.04,0.35,0.12,1.63,0.96,2.51c0.5,0.52,1.06,0.78,1.66,0.78l0.03,0c0.08,0.01,0.17,0.01,0.25,0.01c1.18,0,2.02-0.6,2.83-2.01
			l1.17-1.88c0.03-0.06,0.02-0.13-0.04-0.16L8.5,13.08c-0.02-0.01-0.04-0.02-0.06-0.02c-0.04,0-0.08,0.02-0.1,0.05l-1.24,1.8
			c-0.4,0.58-0.78,0.92-1.18,1.06c-0.12,0.04-0.23,0.06-0.35,0.06c-0.22,0-0.43-0.08-0.62-0.23c-0.36-0.29-0.5-0.99-0.53-1.36
			C4.39,14.2,4.31,14,4.17,13.86c-0.15-0.15-0.34-0.23-0.55-0.23C3.62,13.64,3.6,13.64,3.6,13.64z M9.3,11.81
			c-0.04,0-0.08,0.02-0.1,0.05l-0.33,0.48c-0.02,0.03-0.03,0.06-0.02,0.09c0.01,0.03,0.03,0.06,0.05,0.08l1.03,0.64
			c0.02,0.01,0.04,0.02,0.06,0.02c0.01,0,0.02,0,0.03,0c0.03-0.01,0.06-0.03,0.07-0.05l0.31-0.5c0.03-0.06,0.02-0.13-0.04-0.17
			l-1.01-0.63C9.34,11.81,9.32,11.81,9.3,11.81z M14.72,11.81c-0.02,0-0.04,0.01-0.06,0.02l-1.01,0.63
			c-0.06,0.04-0.07,0.11-0.04,0.17l0.31,0.5c0.02,0.03,0.04,0.05,0.07,0.05c0.01,0,0.02,0,0.03,0c0.02,0,0.04-0.01,0.06-0.02
			l1.03-0.64c0.03-0.02,0.05-0.05,0.05-0.08c0.01-0.03,0-0.07-0.02-0.09l-0.33-0.48C14.79,11.83,14.76,11.81,14.72,11.81z
			 M13.18,9.58c-0.04,0-0.08,0.02-0.1,0.06l-0.62,1c-0.02,0.04-0.02,0.09,0,0.13l0.66,1.07c0.02,0.03,0.04,0.05,0.07,0.05
			c0.01,0,0.02,0,0.03,0c0.02,0,0.04-0.01,0.06-0.02l0.97-0.61c0.03-0.02,0.05-0.05,0.05-0.08c0.01-0.03,0-0.07-0.02-0.09
			l-1.01-1.47C13.26,9.6,13.22,9.58,13.18,9.58C13.18,9.58,13.18,9.58,13.18,9.58z"/>
		<polygon class="st0" points="9.25,3.78 9.81,3.39 11.38,5.66 10.96,6.27 		"/>
	</g>
</g>
</svg>
