<?xml version="1.0" encoding="utf-8"?>
<!-- Generator: Adobe Illustrator 19.2.1, SVG Export Plug-In . SVG Version: 6.00 Build 0)  -->
<svg version="1.1" id="Layer_2" xmlns="http://www.w3.org/2000/svg" xmlns:xlink="http://www.w3.org/1999/xlink" x="0px" y="0px"
	 viewBox="0 0 24 24" style="enable-background:new 0 0 24 24;" xml:space="preserve">
<style type="text/css">
	.st0{fill:#666666;}
</style>
<g>
	<circle class="st0" cx="7.92" cy="9.48" r="0.53"/>
	<path class="st0" d="M21.94,6.57c-0.07,0-0.15,0-0.22,0c-0.84,0-1.58,0.16-2.08,0.31c0.25-1.48-0.65-2.94-2.1-3.36
		c-0.27-0.08-0.55-0.12-0.84-0.12c-1.32,0-2.49,0.88-2.86,2.14c-0.05,0.19-0.09,0.38-0.11,0.57C13.11,6.51,12.35,7,12.35,7
		L11.45,7.6l2.53-0.01l0.17,0.46l-0.31,1.62l0.8-0.18l0.53,1.32l1.55-0.73l0.6,0.26l-0.88,1.52l-3.19-1.5l-9.96,4.36l-0.51-0.28
		l0.24-0.82l5.63-6.33c0.12-0.1,0.16-0.26,0.09-0.4C8.63,6.66,8.57,6.41,8.57,6.16c0-0.5,0.22-0.96,0.59-1.28
		C9.54,5.2,9.75,5.66,9.75,6.16c0,0.23-0.05,0.46-0.14,0.67c-0.06,0.14-0.02,0.3,0.1,0.4l0.82,0.65l0.81-0.22l-1.03-0.8
		c0.07-0.22,0.1-0.45,0.1-0.69c0-0.42-0.12-0.85-0.34-1.21C9.9,4.63,9.65,4.38,9.34,4.18C9.29,4.15,9.23,4.13,9.16,4.13
		S9.04,4.15,8.98,4.18C8.3,4.61,7.9,5.35,7.9,6.16c0,0.27,0.04,0.53,0.13,0.78L2.4,13.38L1.99,14.8l2.48,1.38l5.96-2.57
		c0.25,0.51,2.48,6.54,2.48,6.54c0.05,0.1,0.14,0.17,0.24,0.19c0.02,0,0.04,0.01,0.06,0.01c0.09,0,0.17-0.04,0.24-0.1l4.85-4.96
		c0.13-0.13,0.13-0.33,0-0.47l-1.28-1.04l-0.44,0.49l1.05,0.85l-4.32,4.32c0,0-2.17-5.9-2.41-6.38c-0.06-0.11-0.17-0.18-0.3-0.18
		c-0.03,0-0.06,0-0.1,0.02L4.54,15.4L4,15.1l9.22-4.05l3.47,1.63l1.55-2.65l-1.53-0.66l-1.2,0.56l-0.48-1.19l-0.37,0.08L14.81,8
		l-0.39-1.05l-0.81,0c0.2-0.13,0.75-0.49,0.75-0.49l0.01-0.17c0.01-0.2,0.04-0.39,0.09-0.58c0.18-0.6,0.57-1.09,1.12-1.39
		c0.34-0.19,0.73-0.29,1.12-0.29c0.22,0,0.44,0.03,0.66,0.1c0.6,0.18,1.09,0.57,1.39,1.12c0.29,0.53,0.36,1.15,0.2,1.74
		c-0.09,0.1-0.44,0.4-0.78,0.66L18.13,7.7l0.37,0.52l0.82-0.55c0.19-0.07,1.19-0.45,2.39-0.45c0.07,0,0.13,0,0.2,0l0.07,0l0.02-0.64
		L21.94,6.57z"/>
</g>
</svg>
