<?xml version="1.0" encoding="utf-8"?>
<!-- Generator: Adobe Illustrator 19.2.1, SVG Export Plug-In . SVG Version: 6.00 Build 0)  -->
<svg version="1.1" id="Layer_2" xmlns="http://www.w3.org/2000/svg" xmlns:xlink="http://www.w3.org/1999/xlink" x="0px" y="0px"
	 viewBox="0 0 24 24" style="enable-background:new 0 0 24 24;" xml:space="preserve">
<g>
	<path d="M8.8,14.42c2.65,0,3.86-0.8,3.86-1.54v-2.01c0-0.02,0-0.04-0.01-0.06c-0.01-0.02-0.01-0.05,0-0.07
		c0-0.03,0.01-0.07,0.01-0.1c0-0.74-1.21-1.54-3.86-1.54c-2.65,0-3.86,0.8-3.86,1.54c0,0.04,0,0.07,0.01,0.11c0,0.03,0,0.05,0,0.08
		c-0.01,0.02-0.01,0.04-0.01,0.06v1.98C4.94,13.62,6.15,14.42,8.8,14.42z M5.59,11.66c0.03-0.02,0.07-0.03,0.11-0.03
		c0.03,0,0.06,0.01,0.09,0.02c0.7,0.35,1.74,0.53,3,0.53s2.3-0.18,3-0.53c0.03-0.01,0.06-0.02,0.09-0.02c0.04,0,0.08,0.01,0.11,0.03
		c0.06,0.04,0.1,0.1,0.1,0.18l0,1.04c0,0.01,0,0.03,0,0.04c-0.08,0.4-1.27,0.95-3.3,0.95c-2.03,0-3.22-0.55-3.3-0.94
		c0-0.01,0-0.03,0-0.04v-1.04C5.5,11.76,5.53,11.7,5.59,11.66z M12.09,10.68c-0.08,0.4-1.26,0.95-3.3,0.95
		c-2.03,0-3.22-0.55-3.3-0.94c0-0.03-0.01-0.05,0-0.08c0.08-0.4,1.26-0.95,3.3-0.95c2.03,0,3.22,0.55,3.3,0.94
		C12.1,10.63,12.1,10.65,12.09,10.68z"/>
	<path d="M21.8,4.04c-0.22-0.26-0.57-0.42-0.94-0.42c-0.41,0-0.79,0.2-1.02,0.55c-0.01,0.01-0.02,0.03-0.02,0.04
		c-0.04,0.1-4.3,9.63-5.47,10.97c-0.01,0.01-1.26,1.37-3.44,1.37c-0.18,0-0.37-0.01-0.57-0.03l-6.24-1.19
		C4.01,15.31,3.9,15.3,3.8,15.3c-0.91,0-1.59,0.66-1.79,1.73c-0.01,0.04-0.15,0.87,0.35,1.58c0.35,0.49,0.91,0.8,1.67,0.92l0.02,0
		l6.37,0.45c0,0,0.15,0.01,0.39,0.01c0.95,0,3.3-0.16,4.53-1.61c0.07-0.09,0.74-0.87,1.24-2.03c0.72-1.67,4.89-10.52,5.36-11.52
		l0.02-0.04c0.01-0.02,0.02-0.04,0.02-0.07C22.04,4.49,21.97,4.25,21.8,4.04z M11.62,19.41c-0.05,0-0.1-0.02-0.14-0.06
		c-0.04-0.04-0.07-0.1-0.07-0.16l0.04-1.93c0-0.1,0.08-0.19,0.18-0.2c1.61-0.2,2.65-1.03,3.02-1.38c0.04-0.04,0.09-0.06,0.14-0.06
		c0.03,0,0.06,0.01,0.09,0.02l0.99,0.47c0.1,0.05,0.15,0.17,0.1,0.28c-0.46,0.97-1.02,1.61-1.04,1.64
		C14.11,18.99,12.68,19.31,11.62,19.41z M15.01,15.37c-0.02-0.06-0.01-0.12,0.03-0.17c0.06-0.09,0.13-0.2,0.2-0.31
		c0.04-0.06,0.1-0.1,0.18-0.1c0.03,0,0.06,0.01,0.09,0.02l0.78,0.37c0.1,0.05,0.15,0.17,0.1,0.27l-0.15,0.34
		c-0.02,0.05-0.07,0.09-0.12,0.11c-0.02,0.01-0.05,0.01-0.07,0.01c-0.03,0-0.06-0.01-0.09-0.02l-0.83-0.39
		C15.07,15.48,15.03,15.43,15.01,15.37z M15.65,14.63c-0.05-0.02-0.09-0.07-0.11-0.12c-0.02-0.05-0.01-0.11,0.02-0.16
		c1.64-2.89,4.44-9.14,4.75-9.85c0.01-0.01,0.01-0.03,0.02-0.04c0.13-0.17,0.31-0.27,0.53-0.27c0.2,0,0.4,0.08,0.51,0.22
		c0.03,0.03,0.04,0.06,0.05,0.09c0.02,0.05,0.02,0.11-0.01,0.16c-0.8,1.7-3.52,7.48-4.77,10.21c-0.02,0.05-0.07,0.09-0.12,0.11
		c-0.02,0.01-0.05,0.01-0.07,0.01c-0.03,0-0.06-0.01-0.09-0.02L15.65,14.63z M2.82,18.3c-0.37-0.52-0.27-1.16-0.27-1.17
		c0.15-0.81,0.6-1.27,1.24-1.27c0.07,0,0.15,0.01,0.21,0.02l0.11,0.02c0.1,0.02,0.17,0.11,0.17,0.21l-0.14,2.64
		c0,0.06-0.03,0.12-0.08,0.15c-0.04,0.03-0.08,0.04-0.12,0.04c-0.01,0-0.03,0-0.05-0.01C3.41,18.83,3.05,18.61,2.82,18.3z"/>
</g>
</svg>
