<?xml version="1.0" encoding="utf-8"?>
<!-- Generator: Adobe Illustrator 19.2.1, SVG Export Plug-In . SVG Version: 6.00 Build 0)  -->
<svg version="1.1" id="Layer_2" xmlns="http://www.w3.org/2000/svg" xmlns:xlink="http://www.w3.org/1999/xlink" x="0px" y="0px"
	 viewBox="0 0 24 24" style="enable-background:new 0 0 24 24;" xml:space="preserve">
<style type="text/css">
	.st0{fill:#666666;}
</style>
<g>
	<path class="st0" d="M15.34,15.77c0.41-0.41,0.41-1.02,0-1.43l-0.66-0.66c-0.08-0.08-0.17-0.14-0.27-0.19
		c0.17-0.39,0.12-0.84-0.17-1.13l-0.66-0.66c-0.11-0.11-0.24-0.18-0.38-0.23c0.05-0.31-0.04-0.64-0.28-0.88l-0.66-0.66
		c-0.21-0.21-0.48-0.3-0.75-0.29c-0.04-0.17-0.13-0.34-0.26-0.47l-0.66-0.66c-0.39-0.39-1.03-0.39-1.43,0L8.03,9.64
		c-0.1,0.01-0.2,0.02-0.3,0.04c-2.15,0.51-2.52,0.88-2.64,1c-0.73,0.73-1.09,1.53-1.09,2.45c0,0.29,0.01,0.57,0.01,0.84
		c0.01,0.52,0.03,1.23-0.05,1.41l-0.99,0.98l0.54,0.55l1.01-1c0.29-0.29,0.29-0.84,0.26-1.96c-0.01-0.26-0.01-0.54-0.01-0.83
		c0-0.71,0.27-1.32,0.86-1.91c0.16-0.16,0.85-0.46,2.27-0.79c0.3-0.07,0.61,0.02,0.83,0.24l2.69,2.69
		c-0.16,0.13-0.43,0.28-0.76,0.36c-0.3,0.07-0.87,0.13-1.3-0.25l-1.4-1.4l-0.55,0.55c0.88,0.88,1.38,3.54,0.31,4.61l0.55,0.55
		c0.64-0.64,0.93-1.73,0.8-2.98c-0.02-0.22-0.06-0.44-0.11-0.65c0.3,0.22,0.65,0.35,1.02,0.39c0.04,0.17,0.13,0.34,0.26,0.48
		l0.67,0.67c0.16,0.16,0.38,0.25,0.61,0.27c0.02,0.23,0.11,0.45,0.27,0.62l0.61,0.61c-0.49,0.46-1.64,1.52-1.75,1.63
		c-0.3,0.3-0.91,0.43-1.46,0.55c-0.56,0.12-1.09,0.24-1.4,0.55l-0.58,0.82l0.63,0.45l0.52-0.74c0.17-0.14,0.61-0.24,1-0.32
		c0.65-0.14,1.38-0.3,1.84-0.76c0.1-0.1,1.22-1.14,1.94-1.81l-0.04-0.04c0.02,0,0.03,0,0.05,0c0.02,0,0.04,0,0.06,0
		c0.27-0.01,0.53-0.13,0.73-0.33L15.34,15.77z M11.71,10.48l0.66,0.66c0.09,0.09,0.09,0.24,0,0.34l-0.31,0.31c0,0,0,0,0,0l0,0
		l-0.55,0.55l-1.03-1.03l0.9-0.83C11.47,10.39,11.62,10.39,11.71,10.48z M8.92,9.85L9.7,9.06c0.09-0.09,0.24-0.09,0.34,0l0.66,0.66
		c0.09,0.09,0.09,0.24,0.01,0.32l-0.78,0.72l-0.64-0.64C9.18,10.01,9.05,9.92,8.92,9.85z M10.82,14.47c0.01,0,0.02,0,0.03,0
		c0.69-0.16,1.27-0.56,1.45-1l0.1-0.24l-0.34-0.34l0.55-0.55l0,0c0.08-0.08,0.17-0.13,0.26-0.13c0.04,0,0.11,0,0.16,0.05l0.66,0.66
		c0.08,0.08,0.06,0.27-0.09,0.42l-0.35,0.35l-1.36,1.36c-0.15,0.15-0.34,0.17-0.42,0.09L10.82,14.47z M13.18,16.73
		c-0.05,0-0.11-0.01-0.16-0.06l-0.66-0.66v0c-0.05-0.05-0.06-0.11-0.06-0.16c0-0.08,0.04-0.16,0.1-0.22l0.04-0.04c0,0,0,0,0,0
		l1.36-1.36c0.06-0.06,0.11-0.08,0.16-0.08c0.08,0,0.14,0.05,0.17,0.08l0.66,0.66c0.05,0.05,0.15,0.18,0,0.34l-1.39,1.39
		C13.34,16.68,13.26,16.72,13.18,16.73z"/>
	<path class="st0" d="M21.76,13.24c-1.82-0.53-2.99-1.4-3.48-2.59c-0.56-1.34-0.25-3.14,0.88-5.2c0.08-0.15,0.06-0.34-0.07-0.46
		c-0.12-0.12-0.31-0.15-0.46-0.07c-2.06,1.13-3.86,1.43-5.2,0.88c-1.19-0.49-2.06-1.66-2.59-3.48c-0.05-0.17-0.2-0.28-0.37-0.28
		c-0.17,0-0.32,0.11-0.37,0.28C9.51,4.35,8.6,5.64,7.38,6.14c-1.22,0.5-2.77,0.24-4.62-0.77C2.61,5.29,2.42,5.31,2.3,5.43
		C2.17,5.56,2.15,5.74,2.23,5.89c0.07,0.12,0.13,0.24,0.2,0.36c0.54,0.95,1,1.78,0.87,3.08l0.77,0.08c0.12-1.18-0.19-2.05-0.58-2.82
		c1.6,0.67,3,0.76,4.18,0.27c1.2-0.5,2.14-1.59,2.81-3.24c0.61,1.45,1.5,2.43,2.66,2.91c1.33,0.55,2.98,0.41,4.83-0.4
		c-0.81,1.85-0.95,3.51-0.4,4.83c0.48,1.15,1.45,2.04,2.91,2.66c-1.65,0.66-2.74,1.6-3.24,2.81c-0.49,1.18-0.4,2.58,0.27,4.18
		c-0.99-0.49-2.25-0.89-3.87-0.36l0.24,0.74c1.75-0.57,2.95,0.11,4.01,0.71c0.11,0.06,0.21,0.12,0.32,0.18
		c0.06,0.03,0.12,0.05,0.19,0.05c0.1,0,0.2-0.04,0.27-0.11c0.12-0.12,0.15-0.31,0.07-0.46c-1.02-1.85-1.27-3.4-0.77-4.62
		c0.51-1.22,1.79-2.14,3.81-2.73c0.17-0.05,0.28-0.2,0.28-0.37C22.04,13.44,21.92,13.29,21.76,13.24z"/>
</g>
</svg>
