<?xml version="1.0" encoding="utf-8"?>
<!-- Generator: Adobe Illustrator 19.2.1, SVG Export Plug-In . SVG Version: 6.00 Build 0)  -->
<svg version="1.1" id="Layer_2" xmlns="http://www.w3.org/2000/svg" xmlns:xlink="http://www.w3.org/1999/xlink" x="0px" y="0px"
	 viewBox="0 0 24 24" style="enable-background:new 0 0 24 24;" xml:space="preserve">
<style type="text/css">
	.st0{fill:#666666;}
</style>
<g>
	<path class="st0" d="M7.95,8.49c0-0.9-0.74-1.64-1.64-1.64c-0.9,0-1.64,0.74-1.64,1.64c0,0.9,0.74,1.64,1.64,1.64
		C7.21,10.13,7.95,9.4,7.95,8.49z M5.37,8.49c0-0.52,0.42-0.94,0.94-0.94c0.52,0,0.94,0.42,0.94,0.94c0,0.52-0.42,0.94-0.94,0.94
		C5.79,9.43,5.37,9.01,5.37,8.49z"/>
	<circle class="st0" cx="7.1" cy="17.93" r="0.62"/>
	<path class="st0" d="M21.76,12.62c-0.06-0.05-0.14-0.08-0.22-0.08c-0.02,0-0.05,0-0.07,0.01l-3.34,0.7v-0.76
		c1.58-0.7,2.6-2.27,2.6-3.99c0-2.41-1.96-4.37-4.37-4.37c-2.41,0-4.37,1.96-4.37,4.37c0,0.82,0.23,1.63,0.67,2.32h-2.65
		c0.44-0.7,0.67-1.5,0.67-2.32c0-2.41-1.96-4.37-4.37-4.37S1.94,6.08,1.94,8.49c0,1.91,1.22,3.57,3.03,4.16v5.92
		c0,0.82,0.67,1.49,1.49,1.49h10.18c0.82,0,1.49-0.67,1.49-1.49v-0.94l3.34,0.7c0.02,0.01,0.05,0.01,0.07,0.01
		c0.08,0,0.16-0.03,0.22-0.08c0.08-0.07,0.13-0.17,0.13-0.27v-5.1C21.89,12.78,21.84,12.68,21.76,12.62z M2.64,8.49
		c0-2.02,1.64-3.67,3.67-3.67s3.66,1.64,3.66,3.67c0,2.02-1.64,3.66-3.66,3.66S2.64,10.51,2.64,8.49z M17.42,18.57
		c0,0.43-0.35,0.79-0.79,0.79H6.46c-0.43,0-0.79-0.35-0.79-0.79v-5.76c0.21,0.03,0.42,0.05,0.64,0.05c1.2,0,2.31-0.48,3.15-1.34
		h3.75c0.83,0.87,1.95,1.34,3.15,1.34c0.36,0,0.72-0.04,1.07-0.13V18.57z M16.35,12.16c-2.02,0-3.67-1.64-3.67-3.66
		c0-2.02,1.64-3.67,3.67-3.67c2.02,0,3.66,1.64,3.66,3.67C20.02,10.51,18.37,12.16,16.35,12.16z M21.18,17.55l-3.06-0.64v-2.94
		l3.06-0.64V17.55z"/>
	<path class="st0" d="M16.35,6.85c-0.9,0-1.64,0.74-1.64,1.64c0,0.9,0.74,1.64,1.64,1.64c0.9,0,1.64-0.74,1.64-1.64
		C17.99,7.59,17.26,6.85,16.35,6.85z M16.35,9.43c-0.52,0-0.94-0.42-0.94-0.94c0-0.52,0.42-0.94,0.94-0.94
		c0.52,0,0.94,0.42,0.94,0.94C17.29,9.01,16.87,9.43,16.35,9.43z"/>
	<path class="st0" d="M12.48,17.5H10.7c-0.15,0-0.28,0.13-0.28,0.28v0.31c0,0.15,0.13,0.28,0.28,0.28h1.78
		c0.15,0,0.28-0.13,0.28-0.28v-0.31C12.76,17.62,12.64,17.5,12.48,17.5z"/>
	<circle class="st0" cx="9.07" cy="17.93" r="0.62"/>
</g>
</svg>
