<?xml version="1.0" encoding="utf-8"?>
<!-- Generator: Adobe Illustrator 19.2.1, SVG Export Plug-In . SVG Version: 6.00 Build 0)  -->
<svg version="1.1" id="Layer_2" xmlns="http://www.w3.org/2000/svg" xmlns:xlink="http://www.w3.org/1999/xlink" x="0px" y="0px"
	 viewBox="0 0 24 24" style="enable-background:new 0 0 24 24;" xml:space="preserve">
<style type="text/css">
	.st0{fill:#666666;}
</style>
<g>
	<path class="st0" d="M11.1,3.83c-5.01,0-9.09,4.07-9.09,9.09S6.09,22,11.1,22s9.09-4.07,9.09-9.09S16.12,3.83,11.1,3.83L11.1,3.83z
		 M11.1,4.5c0.55,0,1.1,0.05,1.62,0.16c-3.47,0.93-6.11,3-8.28,5.35C4.13,9.8,3.81,9.56,3.5,9.3C4.85,6.46,7.75,4.5,11.1,4.5
		L11.1,4.5z M14.08,5.04c0.8,0.3,1.54,0.72,2.2,1.24c-3,0.81-5.93,2.7-8.46,5.27c-0.95-0.31-1.88-0.66-2.79-1.19
		C7.37,7.85,10.22,5.73,14.08,5.04L14.08,5.04z M16.9,6.82c0.48,0.45,0.9,0.96,1.26,1.52c-2.92,0.86-5.25,2.31-7.15,4.19
		c-0.83-0.28-1.65-0.51-2.46-0.75C11.08,9.27,14,7.49,16.9,6.82L16.9,6.82z M18.52,8.93c0.64,1.18,1,2.54,1,3.98
		c0,2.08-0.75,3.98-2,5.45c0.85-3.31,0.06-5.99-0.54-8.92C17.47,9.25,17.98,9.08,18.52,8.93L18.52,8.93z M16.35,9.7
		c0.67,3.26,1.49,5.99,0.15,9.67c-0.69,0.58-1.47,1.05-2.32,1.38c0.82-2.97,0.81-6.33-0.15-9.8C14.75,10.48,15.52,10.06,16.35,9.7
		L16.35,9.7z M3.23,9.95c2.47,2,5.08,2.39,7.55,3.21c0.04,0.89,0.08,1.77,0.08,2.64c-3.47-0.91-6.01-2.12-8.05-4.32
		C2.9,10.95,3.04,10.44,3.23,9.95L3.23,9.95z M13.44,11.35c0.91,3.46,0.85,6.78-0.04,9.66c-0.73,0.21-1.5,0.32-2.29,0.32
		c-0.16,0-0.31,0-0.46-0.01c1.07-2.66,0.95-5.49,0.81-8.27C12.06,12.43,12.72,11.86,13.44,11.35L13.44,11.35z M2.71,12.34
		c2.11,2.09,4.74,3.28,8.14,4.15c-0.03,0.94-0.11,1.86-0.29,2.76c-2.26-0.45-5.09-1.21-7.59-4.2c-0.18-0.68-0.27-1.4-0.27-2.14
		C2.69,12.72,2.7,12.53,2.71,12.34L2.71,12.34z M3.57,16.67c2.33,2.16,4.85,2.83,6.83,3.23c-0.12,0.45-0.27,0.9-0.46,1.34
		C7.14,20.86,4.79,19.1,3.57,16.67L3.57,16.67z M3.57,16.67"/>
</g>
<path class="st0" d="M20.1,2.08c-1.04,0-1.89,0.85-1.89,1.89c0,0.92,0.67,1.69,1.54,1.85v0.57h-0.49c-0.17,0-0.32,0.14-0.32,0.32
	c0,0.18,0.14,0.32,0.32,0.32h0.49v0.36c0,0.17,0.14,0.32,0.32,0.32c0.18,0,0.32-0.14,0.32-0.32V7.02h0.52
	c0.18,0,0.32-0.14,0.32-0.32c0-0.18-0.14-0.32-0.32-0.32h-0.52V5.83c0.91-0.14,1.6-0.92,1.6-1.87C21.98,2.92,21.14,2.08,20.1,2.08
	L20.1,2.08z M20.1,5.22c-0.69,0-1.26-0.56-1.26-1.25c0-0.69,0.56-1.26,1.26-1.26c0.69,0,1.25,0.56,1.25,1.26
	C21.35,4.66,20.79,5.22,20.1,5.22L20.1,5.22z M20.1,5.22"/>
</svg>
