<?xml version="1.0" encoding="utf-8"?>
<!-- Generator: Adobe Illustrator 19.2.1, SVG Export Plug-In . SVG Version: 6.00 Build 0)  -->
<svg version="1.1" id="Layer_2" xmlns="http://www.w3.org/2000/svg" xmlns:xlink="http://www.w3.org/1999/xlink" x="0px" y="0px"
	 viewBox="0 0 24 24" style="enable-background:new 0 0 24 24;" xml:space="preserve">
<style type="text/css">
	.st0{fill:#666666;}
</style>
<g>
	<path class="st0" d="M20.73,5.48l-2.76-3.34C17.89,2.03,17.76,1.98,17.63,2c-0.01,0-0.02,0-0.02,0H5.93c-0.01,0-0.02,0-0.02,0
		C5.78,1.98,5.64,2.03,5.56,2.13L2.8,5.48c-0.1,0.13-0.12,0.3-0.04,0.44l4.55,7.89c-0.54,0.83-0.86,1.82-0.86,2.88
		c0,2.93,2.38,5.32,5.32,5.32c2.93,0,5.32-2.38,5.32-5.32c0-1.06-0.32-2.05-0.86-2.88l4.55-7.89C20.85,5.78,20.84,5.6,20.73,5.48z
		 M16.93,2.77l-1.8,3.15h-6.7L6.6,2.77H16.93z M11.77,11.38c-0.06,0-0.12,0.01-0.18,0.01L8.87,6.7h5.8l-2.69,4.69
		C11.91,11.38,11.84,11.38,11.77,11.38z M3.57,5.77l2.27-2.75L7.8,6.39c0.02,0.08,0.06,0.15,0.12,0.2l2.82,4.88
		c-1.15,0.23-2.16,0.83-2.92,1.66L3.57,5.77z M11.77,21.23c-2.5,0-4.54-2.03-4.54-4.54s2.03-4.54,4.54-4.54s4.54,2.03,4.54,4.54
		S14.27,21.23,11.77,21.23z M15.71,13.14c-0.75-0.83-1.75-1.43-2.88-1.66l2.81-4.91c0.04-0.04,0.07-0.1,0.09-0.16l1.95-3.4
		l2.27,2.75L15.71,13.14z"/>
	<path class="st0" d="M11.77,12.87c-2.1,0-3.82,1.71-3.82,3.82c0,2.11,1.71,3.82,3.82,3.82s3.82-1.71,3.82-3.82
		C15.58,14.59,13.87,12.87,11.77,12.87z M11.77,19.73c-1.67,0-3.04-1.36-3.04-3.04c0-1.67,1.36-3.04,3.04-3.04s3.04,1.36,3.04,3.04
		C14.8,18.37,13.44,19.73,11.77,19.73z"/>
	<path class="st0" d="M11.77,14.25l-0.74,1.5l-1.66,0.24l1.2,1.17l-0.28,1.65l1.48-0.78l1.48,0.78l-0.28-1.65l1.2-1.17l-1.66-0.24
		L11.77,14.25z M12.36,16.96l0.14,0.82l-0.73-0.39l-0.73,0.39l0.14-0.82l-0.59-0.58l0.82-0.12l0.37-0.74l0.37,0.74l0.82,0.12
		L12.36,16.96z"/>
</g>
</svg>
