<?xml version="1.0" encoding="utf-8"?>
<!-- Generator: Adobe Illustrator 19.2.1, SVG Export Plug-In . SVG Version: 6.00 Build 0)  -->
<svg version="1.1" id="Layer_2" xmlns="http://www.w3.org/2000/svg" xmlns:xlink="http://www.w3.org/1999/xlink" x="0px" y="0px"
	 viewBox="0 0 24 24" style="enable-background:new 0 0 24 24;" xml:space="preserve">
<style type="text/css">
	.st0{fill:#666666;}
</style>
<g>
	<path class="st0" d="M10.35,8.07c0.78,0,1.56-0.3,2.15-0.89c0.57-0.57,0.89-1.34,0.89-2.15c0-0.81-0.32-1.57-0.89-2.15
		c-1.18-1.18-3.11-1.18-4.3,0C7.63,3.46,7.31,4.22,7.31,5.03c0,0.81,0.32,1.57,0.89,2.15C8.79,7.77,9.57,8.07,10.35,8.07z
		 M8.36,3.93c0,0.01,0,0.02,0.01,0.03C8.43,4.1,8.5,4.26,8.58,4.41c0.07,0.13,0.21,0.21,0.36,0.2C8.87,4.74,8.88,4.9,8.97,5.02
		c0.09,0.12,0.19,0.24,0.3,0.37C9.37,5.5,9.52,5.54,9.65,5.5c-0.04,0.13,0,0.28,0.1,0.39C9.87,6,9.99,6.1,10.1,6.2
		c0.12,0.1,0.27,0.11,0.4,0.06c-0.02,0.14,0.05,0.28,0.17,0.37c0.14,0.09,0.28,0.17,0.42,0.24c0.06,0.03,0.11,0.04,0.17,0.04
		c0.14,0,0.28-0.08,0.34-0.21c0.1-0.19,0.02-0.42-0.17-0.51c-0.11-0.06-0.23-0.12-0.35-0.2c-0.11-0.07-0.25-0.08-0.36-0.03
		c0.01-0.12-0.03-0.25-0.14-0.34c-0.1-0.09-0.21-0.18-0.31-0.28c-0.1-0.09-0.23-0.12-0.36-0.09c0.04-0.12,0.01-0.26-0.08-0.36
		C9.75,4.77,9.67,4.66,9.59,4.56C9.51,4.45,9.38,4.4,9.26,4.4c0.06-0.11,0.06-0.24-0.01-0.36C9.19,3.92,9.13,3.8,9.09,3.69
		C9.06,3.61,9.01,3.55,8.94,3.51c0.04-0.06,0.07-0.12,0.07-0.19c0-0.04,0.01-0.06,0.01-0.06c0.04-0.04,0.07-0.08,0.09-0.13
		c0.37-0.24,0.81-0.37,1.24-0.37c0.58,0,1.16,0.22,1.61,0.66c0.43,0.43,0.67,1,0.67,1.61c0,0.45-0.13,0.87-0.37,1.24
		c-0.05,0.02-0.09,0.05-0.13,0.09c0,0-0.02,0.01-0.06,0.01c-0.21,0.01-0.37,0.2-0.36,0.41c0,0.02,0.01,0.04,0.02,0.06
		c-0.89,0.68-2.17,0.61-2.98-0.2C8.01,5.9,7.89,4.79,8.36,3.93z"/>
	<path class="st0" d="M21.22,2.8c-1.08-1.08-2.82-1.08-3.9,0l-1.95,1.95c-1.11,1.11-2.14,2.32-3.06,3.59l-2.09,2.88
		c-0.89,1.23-1.89,2.4-2.96,3.47l-3.69,3.69c-0.39-0.2-0.91-0.13-1.23,0.2c-0.44,0.44-0.44,1.15,0,1.58l1.52,1.52
		c0.22,0.22,0.5,0.33,0.79,0.33s0.57-0.11,0.79-0.33c0.33-0.33,0.4-0.83,0.19-1.23l3.69-3.69c1.07-1.07,2.24-2.07,3.47-2.96
		l2.88-2.09c1.27-0.92,2.48-1.95,3.59-3.06l1.95-1.95c0.52-0.52,0.81-1.21,0.81-1.95S21.74,3.32,21.22,2.8z M8.79,16.21l-3.65,3.65
		l-0.26-0.27c-0.15-0.15-0.39-0.16-0.54-0.01c-0.15,0.15-0.16,0.39-0.01,0.54l0.47,0.48c0.01,0.01,0.02,0.01,0.03,0.02
		c0.01,0.02,0.02,0.03,0.03,0.05l0.04,0.04c0.11,0.11,0.11,0.3,0,0.42c-0.14,0.14-0.36,0.14-0.5,0l-1.52-1.52
		c-0.14-0.14-0.14-0.36,0-0.5c0.06-0.06,0.13-0.09,0.21-0.09c0.08,0,0.15,0.03,0.21,0.09l0.04,0.04c0.15,0.15,0.39,0.15,0.54,0
		l3.93-3.93c0.18-0.18,0.35-0.37,0.53-0.55l1,1.01C9.15,15.86,8.97,16.03,8.79,16.21z M20.68,6.16L18.73,8.1
		c-1.08,1.08-2.26,2.08-3.5,2.98l-2.88,2.09c-0.85,0.62-1.67,1.29-2.46,1.99l-1.04-1.05c0.71-0.78,1.37-1.6,1.99-2.45l2.09-2.88
		c0.9-1.24,1.9-2.41,2.98-3.5l1.95-1.95c0.78-0.78,2.04-0.78,2.81,0c0.38,0.38,0.58,0.88,0.58,1.41
		C21.26,5.28,21.06,5.78,20.68,6.16z"/>
</g>
</svg>
