<?xml version="1.0" encoding="utf-8"?>
<!-- Generator: Adobe Illustrator 19.2.1, SVG Export Plug-In . SVG Version: 6.00 Build 0)  -->
<svg version="1.1" id="Layer_2" xmlns="http://www.w3.org/2000/svg" xmlns:xlink="http://www.w3.org/1999/xlink" x="0px" y="0px"
	 viewBox="0 0 24 24" style="enable-background:new 0 0 24 24;" xml:space="preserve">
<style type="text/css">
	.st0{fill:#666666;}
</style>
<path class="st0" d="M9.42,20.52c-0.36,0-0.71-0.15-0.98-0.41c-0.25-0.25-0.4-0.57-0.41-0.91c0-0.01,0-0.01,0-0.02
	c-0.36-0.02-0.69-0.16-0.93-0.41c-0.25-0.25-0.4-0.59-0.41-0.93C6.34,17.82,6,17.67,5.75,17.42c-0.25-0.25-0.4-0.59-0.41-0.94
	c-0.36-0.02-0.69-0.16-0.94-0.41c-0.25-0.25-0.4-0.58-0.41-0.93c-0.01-0.35,0.11-0.67,0.35-0.91l1.33-1.33L2.09,9.33
	c-0.2-0.2-0.2-0.57,0-0.77l4.99-4.99c0.1-0.1,0.24-0.16,0.39-0.16c0.15,0,0.29,0.06,0.39,0.16l1.69,1.69h4.49l2-2
	c0.1-0.1,0.24-0.15,0.39-0.15s0.29,0.06,0.39,0.15l4.99,4.99c0.1,0.1,0.16,0.24,0.16,0.39c0,0.15-0.06,0.29-0.16,0.39l-3.46,3.46
	l0.88,0.88c0.24,0.24,0.36,0.56,0.35,0.91c-0.01,0.35-0.16,0.68-0.41,0.93c-0.24,0.25-0.57,0.39-0.91,0.41
	c-0.04,0.36-0.2,0.69-0.44,0.94c-0.24,0.25-0.57,0.39-0.91,0.41c-0.04,0.36-0.2,0.69-0.44,0.94c-0.25,0.25-0.57,0.39-0.91,0.41
	c-0.04,0.36-0.2,0.69-0.44,0.94c-0.26,0.26-0.62,0.41-0.98,0.41c-0.33,0-0.64-0.12-0.86-0.35l-1.19-1.19
	c-0.05,0.22-0.16,0.42-0.32,0.58l-1.49,1.49C10.06,20.4,9.75,20.52,9.42,20.52z M10.73,17.22c-0.12,0-0.23,0.04-0.31,0.12
	l-1.49,1.49c-0.08,0.08-0.13,0.2-0.12,0.33c0.01,0.15,0.07,0.29,0.18,0.4c0.11,0.11,0.27,0.18,0.42,0.18c0,0,0,0,0,0
	c0.12,0,0.23-0.04,0.31-0.12l1.49-1.49c0.08-0.08,0.13-0.2,0.12-0.33c-0.01-0.15-0.07-0.29-0.18-0.4
	C11.04,17.29,10.88,17.22,10.73,17.22z M12.83,16.33c-0.15,0-0.31,0.07-0.42,0.18c-0.22,0.22-0.25,0.55-0.06,0.73l1.49,1.49
	c0.07,0.07,0.18,0.11,0.31,0.11l0,0c0.16,0,0.31-0.07,0.42-0.18c0.11-0.11,0.18-0.25,0.18-0.4c0.01-0.13-0.04-0.25-0.12-0.33
	l-1.49-1.49C13.06,16.38,12.95,16.33,12.83,16.33z M9.39,15.87c-0.12,0-0.23,0.04-0.31,0.12l-1.49,1.49
	c-0.18,0.18-0.16,0.51,0.06,0.73c0.11,0.11,0.27,0.18,0.42,0.18l0,0c0.12,0,0.23-0.04,0.31-0.12l1.49-1.49
	c0.09-0.09,0.13-0.21,0.12-0.35c-0.01-0.14-0.07-0.28-0.18-0.38C9.69,15.94,9.54,15.87,9.39,15.87z M14.17,14.99
	c-0.15,0-0.31,0.07-0.42,0.18c-0.22,0.22-0.25,0.55-0.06,0.73l1.49,1.49c0.07,0.07,0.18,0.11,0.31,0.11c0.15,0,0.31-0.07,0.42-0.18
	c0.22-0.22,0.25-0.55,0.06-0.73l-1.49-1.49C14.4,15.03,14.3,14.99,14.17,14.99z M8.04,14.53c-0.12,0-0.23,0.04-0.31,0.12l-1.49,1.49
	c-0.18,0.18-0.16,0.51,0.06,0.73c0.11,0.11,0.27,0.18,0.42,0.18c0.12,0,0.23-0.04,0.31-0.11l1.49-1.49c0.08-0.08,0.13-0.2,0.12-0.33
	c-0.01-0.14-0.07-0.29-0.18-0.4C8.35,14.59,8.19,14.53,8.04,14.53z M10.77,16.44c0.25,0.01,0.49,0.09,0.7,0.22
	c0.06-0.26,0.19-0.5,0.38-0.69c0.25-0.25,0.59-0.4,0.93-0.41c0,0,0-0.01,0-0.02c0.02-0.34,0.16-0.67,0.41-0.92
	c0.24-0.25,0.57-0.39,0.91-0.41c0.04-0.36,0.2-0.69,0.44-0.94c0.25-0.25,0.59-0.4,0.93-0.41c0,0,0-0.01,0-0.02
	c0.02-0.34,0.16-0.67,0.41-0.92c0.05-0.05,0.1-0.1,0.16-0.14L12.87,8.6h-1.56l-0.83,0.83v2.2c0,0.77-0.6,1.39-1.35,1.39
	c-0.74,0-1.35-0.62-1.35-1.39V8.43l-2.74,2.74l1.28,1.28c0.12-0.04,0.24-0.05,0.37-0.05c0.36,0,0.71,0.15,0.98,0.41
	c0.25,0.25,0.4,0.59,0.41,0.94c0.36,0.02,0.69,0.16,0.93,0.41c0.25,0.25,0.4,0.57,0.41,0.91c0,0.01,0,0.01,0,0.02
	c0.36,0.02,0.69,0.16,0.93,0.41C10.62,15.75,10.76,16.09,10.77,16.44z M15.52,13.64c-0.15,0-0.31,0.07-0.42,0.18
	c-0.11,0.11-0.17,0.24-0.18,0.38c-0.01,0.14,0.03,0.26,0.12,0.35l1.49,1.49c0.07,0.07,0.18,0.12,0.31,0.12
	c0.15,0,0.31-0.07,0.42-0.18c0.22-0.22,0.25-0.55,0.06-0.73l-1.49-1.49C15.75,13.69,15.64,13.64,15.52,13.64z M6.69,13.18
	c-0.12,0-0.23,0.04-0.31,0.12L4.9,14.79c-0.08,0.08-0.13,0.2-0.12,0.33c0.01,0.14,0.07,0.29,0.18,0.4c0.11,0.11,0.27,0.18,0.42,0.18
	c0.12,0,0.23-0.04,0.31-0.11l1.49-1.49c0.08-0.08,0.13-0.2,0.12-0.33c-0.01-0.15-0.07-0.29-0.18-0.4C7,13.25,6.85,13.18,6.69,13.18z
	 M16.87,12.3c-0.15,0-0.3,0.07-0.42,0.18c-0.22,0.22-0.25,0.55-0.06,0.73l1.49,1.49c0.07,0.07,0.18,0.11,0.31,0.11
	c0.15,0,0.31-0.07,0.42-0.18c0.11-0.11,0.18-0.25,0.18-0.4c0.01-0.13-0.04-0.25-0.12-0.33l-1.49-1.49
	C17.1,12.34,16.99,12.3,16.87,12.3z M9.49,6.03c-0.09,0-0.17,0.01-0.26,0.04C8.93,6.16,8.69,6.4,8.6,6.7
	C8.58,6.78,8.57,6.87,8.57,6.95v4.68c0,0.33,0.25,0.6,0.56,0.6s0.56-0.27,0.56-0.6V9.27c0-0.1,0.04-0.2,0.12-0.28l1.06-1.06
	c0.07-0.07,0.17-0.12,0.28-0.12h1.88c0.1,0,0.2,0.04,0.28,0.12l3.58,3.58c0.32,0.01,0.62,0.13,0.84,0.35l0.05,0.05l1.07-1.07
	l-4.81-4.81H9.49z M4.49,10.61l3.3-3.3V6.95c0-0.61,0.34-1.18,0.87-1.48L7.47,4.28L2.81,8.94L4.49,10.61z M19.4,10.29l1.67-1.67
	l-4.65-4.65l-1.67,1.67L19.4,10.29z"/>
</svg>
