<?xml version="1.0" encoding="utf-8"?>
<!-- Generator: Adobe Illustrator 19.2.1, SVG Export Plug-In . SVG Version: 6.00 Build 0)  -->
<svg version="1.1" id="Layer_2" xmlns="http://www.w3.org/2000/svg" xmlns:xlink="http://www.w3.org/1999/xlink" x="0px" y="0px"
	 viewBox="0 0 24 24" style="enable-background:new 0 0 24 24;" xml:space="preserve">
<style type="text/css">
	.st0{fill:#666666;}
</style>
<g>
	<path class="st0" d="M9.32,14.6c-0.23,0-0.41-0.18-0.41-0.41V8.64c0-0.23,0.18-0.41,0.41-0.41s0.41,0.18,0.41,0.41v5.55
		C9.73,14.42,9.55,14.6,9.32,14.6z"/>
	<g>
		<path class="st0" d="M18.3,20.49h-0.19c-0.34,0-0.62-0.28-1.55-1.25c-1.55-1.62-4.44-4.64-7.34-4.64H3.91
			c-1.09,0-1.97-0.89-1.97-1.97V10.2c0-1.09,0.89-1.97,1.97-1.97h5.31c2.9,0,5.79-3.02,7.34-4.64c0.93-0.97,1.21-1.25,1.55-1.25
			h0.19c0.86,0,1.56,0.7,1.56,1.56v15.02C19.86,19.79,19.16,20.49,18.3,20.49z M18.18,19.67h0.12c0.41,0,0.75-0.34,0.75-0.75V3.9
			c0-0.41-0.33-0.75-0.75-0.75h-0.12c-0.17,0.11-0.62,0.58-1.02,1c-1.64,1.71-4.68,4.89-7.93,4.89H3.91c-0.64,0-1.16,0.52-1.16,1.16
			v2.42c0,0.64,0.52,1.16,1.16,1.16h5.31c3.25,0,6.29,3.18,7.93,4.89C17.55,19.09,18,19.56,18.18,19.67z M18.2,3.14L18.2,3.14z"/>
		<path class="st0" d="M19.44,14.63c-0.18,0-0.34-0.12-0.39-0.29c-0.06-0.22,0.06-0.44,0.28-0.51c1.07-0.31,1.81-1.3,1.81-2.42
			S20.39,9.31,19.32,9c-0.22-0.06-0.34-0.29-0.28-0.51c0.06-0.22,0.29-0.34,0.51-0.28c1.41,0.41,2.4,1.73,2.4,3.2
			c0,1.47-0.99,2.79-2.4,3.2C19.51,14.63,19.48,14.63,19.44,14.63z"/>
		<path class="st0" d="M9.2,21.64H7.3c-0.77,0-1.54-0.61-1.72-1.36l-1.42-6c-0.03-0.12,0-0.25,0.08-0.35
			c0.08-0.1,0.2-0.16,0.32-0.16h3.49c0.2,0,0.37,0.14,0.4,0.34c0.08,0.44,0.09,0.88,0.1,1.3c0.02,0.8,0.05,1.55,0.49,2.24l1.26,1.99
			c0.23,0.36,0.22,0.83-0.03,1.27C10.04,21.37,9.62,21.64,9.2,21.64z M5.08,14.6l1.3,5.5c0.09,0.38,0.53,0.73,0.92,0.73h1.9
			c0.12,0,0.27-0.13,0.37-0.3c0.09-0.17,0.11-0.34,0.05-0.44L8.36,18.1c-0.56-0.88-0.59-1.78-0.61-2.65
			c-0.01-0.29-0.02-0.57-0.05-0.84H5.08z"/>
	</g>
</g>
</svg>
