<?xml version="1.0" encoding="utf-8"?>
<!-- Generator: Adobe Illustrator 19.2.1, SVG Export Plug-In . SVG Version: 6.00 Build 0)  -->
<svg version="1.1" id="Layer_2" xmlns="http://www.w3.org/2000/svg" xmlns:xlink="http://www.w3.org/1999/xlink" x="0px" y="0px"
	 viewBox="0 0 24 24" style="enable-background:new 0 0 24 24;" xml:space="preserve">
<style type="text/css">
	.st0{fill:#666666;}
</style>
<g>
	<path class="st0" d="M9.11,2.05c-1.84,0-3.57,4.84-3.57,9.97c0,5.12,1.74,9.97,3.57,9.97c1.57,0,3.57-4.69,3.57-9.97
		C12.68,6.99,10.91,2.05,9.11,2.05z M9.11,21.18c-0.95,0-2.76-3.87-2.76-9.16c0-5.29,1.82-9.16,2.76-9.16c0.8,0,2.76,3.65,2.76,9.16
		C11.87,17.48,9.79,21.18,9.11,21.18z"/>
	<path class="st0" d="M9.11,12.48c-0.95,0-1.66,0.97-1.66,2.26S8.16,17,9.11,17c0.95,0,1.66-0.97,1.66-2.26S10.05,12.48,9.11,12.48z
		 M9.11,16.41c-0.39,0-0.93-0.64-0.93-1.68s0.54-1.68,0.93-1.68c0.39,0,0.93,0.64,0.93,1.68S9.49,16.41,9.11,16.41z"/>
	<path class="st0" d="M9.11,5.63c0.2,0,0.37-0.16,0.37-0.37V3.85c0-0.2-0.16-0.37-0.37-0.37S8.74,3.64,8.74,3.85v1.42
		C8.74,5.47,8.9,5.63,9.11,5.63z"/>
	<path class="st0" d="M9.11,18.35c-0.2,0-0.37,0.16-0.37,0.37v1.42c0,0.2,0.16,0.37,0.37,0.37s0.37-0.16,0.37-0.37v-1.42
		C9.47,18.52,9.31,18.35,9.11,18.35z"/>
	<path class="st0" d="M7.49,9.33c0,1.29,0.71,2.26,1.66,2.26c0.95,0,1.66-0.97,1.66-2.26s-0.71-2.26-1.66-2.26
		C8.2,7.07,7.49,8.05,7.49,9.33z M10.07,9.33c0,1.04-0.54,1.68-0.93,1.68s-0.93-0.64-0.93-1.68s0.54-1.68,0.93-1.68
		S10.07,8.3,10.07,9.33z"/>
	<path class="st0" d="M17.59,7.5l0.48-0.55c0.26-0.29,0.4-0.67,0.4-1.06V2.83c0-0.06-0.01-0.12-0.04-0.17
		c-0.37-0.76-2.35-0.4-2.37-0.39c-0.42,0.1-0.64,0.29-0.64,0.57V5.9c0,0.38,0.13,0.75,0.37,1.04l0.46,0.56
		c0.07,0.08,0.17,0.13,0.28,0.14v8.93c-0.11,0.01-0.21,0.06-0.28,0.14l-0.46,0.56c-0.24,0.29-0.37,0.66-0.37,1.04v3.06
		c0,0.28,0.21,0.47,0.64,0.57c0.01,0,0.49,0.09,1.03,0.09c0.55,0,1.16-0.1,1.34-0.48c0.03-0.05,0.04-0.11,0.04-0.17v-3.05
		c0-0.39-0.14-0.77-0.4-1.06l-0.48-0.55c-0.06-0.07-0.15-0.12-0.24-0.13V7.63C17.44,7.61,17.53,7.57,17.59,7.5z M16.23,5.9V3.05
		c0.35-0.08,1.11-0.1,1.43-0.01v2.84c0,0.19-0.07,0.38-0.2,0.53l-0.15,0.17V3.98c0-0.2-0.16-0.37-0.37-0.37s-0.37,0.16-0.37,0.37
		v2.63l-0.16-0.19C16.3,6.27,16.23,6.09,16.23,5.9z M17.66,18.31v2.84c-0.31,0.09-1.08,0.07-1.43-0.01V18.3
		c0-0.19,0.07-0.37,0.19-0.52l0.16-0.19v2.82c0,0.2,0.16,0.37,0.37,0.37s0.37-0.16,0.37-0.37v-2.8l0.15,0.17
		C17.59,17.93,17.66,18.12,17.66,18.31z"/>
</g>
</svg>
