<?xml version="1.0" encoding="utf-8"?>
<!-- Generator: Adobe Illustrator 19.2.1, SVG Export Plug-In . SVG Version: 6.00 Build 0)  -->
<svg version="1.1" id="Layer_2" xmlns="http://www.w3.org/2000/svg" xmlns:xlink="http://www.w3.org/1999/xlink" x="0px" y="0px"
	 viewBox="0 0 24 24" style="enable-background:new 0 0 24 24;" xml:space="preserve">
<style type="text/css">
	.st0{fill:#666666;}
</style>
<g>
	<path class="st0" d="M7.42,13.58c1.06,0,1.93-0.87,1.93-1.93S8.49,9.72,7.42,9.72c-1.06,0-1.93,0.87-1.93,1.93
		S6.36,13.58,7.42,13.58z M6.14,11.65c0-0.71,0.58-1.28,1.28-1.28c0.71,0,1.28,0.58,1.28,1.28c0,0.71-0.58,1.28-1.28,1.28
		C6.72,12.93,6.14,12.36,6.14,11.65z"/>
	<path class="st0" d="M21.86,4.59c-0.15-0.13-0.37-0.12-0.51,0.03l-8.56,9.63c-0.61,0.6-1.42,0.94-2.25,0.94l-6.68,0
		c-0.98,0-1.79,0.81-1.84,1.85c-0.03,0.57,0.18,1.13,0.58,1.52c0.35,0.34,0.79,0.53,1.26,0.53c0.04,0,0.07,0,0.11,0l3.86-0.23
		c1.25-0.08,2.41-0.65,3.27-1.61l2.22-2.5c0.05-0.05,0.11-0.11,0.16-0.17L14,13.98c0.02-0.02,0.03-0.04,0.05-0.06l7.85-8.83
		C22.03,4.94,22.01,4.72,21.86,4.59z M7.31,18.16l-1.62,0.1v-2.35l1.62,0V18.16z M3.93,18.36c-0.3,0.02-0.6-0.09-0.82-0.32
		c-0.25-0.25-0.39-0.6-0.37-0.97c0.03-0.65,0.53-1.16,1.13-1.16l1.11,0v2.39L3.93,18.36z M10.56,16.76
		c-0.68,0.76-1.57,1.22-2.53,1.34v-2.2l2.52,0c0.29,0,0.58-0.03,0.86-0.1L10.56,16.76z"/>
</g>
</svg>
