<?xml version="1.0" encoding="utf-8"?>
<!-- Generator: Adobe Illustrator 19.2.1, SVG Export Plug-In . SVG Version: 6.00 Build 0)  -->
<svg version="1.1" id="Layer_2" xmlns="http://www.w3.org/2000/svg" xmlns:xlink="http://www.w3.org/1999/xlink" x="0px" y="0px"
	 viewBox="0 0 24 24" style="enable-background:new 0 0 24 24;" xml:space="preserve">
<style type="text/css">
	.st0{fill:#666666;}
</style>
<g>
	<path class="st0" d="M5.92,18.76L2.15,21.5c-0.14,0.1-0.17,0.29-0.07,0.43c0.1,0.14,0.29,0.17,0.43,0.07l3.77-2.74
		c0.05-0.03,0.08-0.08,0.1-0.13c0.04-0.09,0.03-0.21-0.03-0.3C6.24,18.7,6.05,18.66,5.92,18.76z"/>
	<path class="st0" d="M20.36,9.06c0.04-0.1,0.03-0.21-0.04-0.3c-0.1-0.14-0.29-0.17-0.43-0.07l-4.69,3.42L14.08,8.9
		c-0.04-0.13-0.16-0.21-0.3-0.2l-3,0.08l0.02,0.61l2.78-0.08l1.11,3.19l-0.57,0.42l-1.02-2.46c-0.06-0.15-0.23-0.22-0.38-0.17
		l-3.09,1.05c-0.32,0.13-0.66-0.24-0.75-0.34C8.72,10.62,8.6,10.25,8.5,9.91l2.63-2.01l0.4,0.17c0.09,0.04,0.19,0.03,0.27-0.02
		l2.62-1.56l-0.31-0.52l-2.49,1.48L9.51,6.57L9.28,7.14l1.2,0.5L8.35,9.25C7.95,7.21,8.47,5.89,8.5,5.82
		c0.11-0.27,0.62-0.32,0.85-0.31l2.21,0.91c0.07,0.03,0.16,0.03,0.23,0l1.99-0.83l-0.23-0.56l-1.88,0.78L9.53,4.93
		C9.5,4.92,9.47,4.91,9.44,4.91C9.31,4.9,8.24,4.84,7.94,5.59c-0.08,0.2-0.67,1.74-0.12,4.07l-3.65,2.78
		C4.03,12.55,4,12.74,4.1,12.88c0.1,0.13,0.29,0.16,0.43,0.06l3.45-2.63c0.09,0.31,0.21,0.63,0.35,0.97
		c0.01,0.02,0.02,0.04,0.04,0.06c0.25,0.34,0.84,0.83,1.47,0.57l2.8-0.95l0.97,2.33l-6.44,4.69C7.03,18.07,7,18.27,7.1,18.4
		c0.1,0.14,0.29,0.17,0.43,0.07l12.73-9.27C20.3,9.16,20.34,9.11,20.36,9.06z"/>
	<path class="st0" d="M8.8,4.3c0.62,0.26,1.34-0.04,1.59-0.66c0.26-0.62-0.04-1.34-0.66-1.59C9.11,1.78,8.39,2.08,8.14,2.7
		C7.88,3.33,8.18,4.04,8.8,4.3z M8.7,2.94C8.83,2.62,9.19,2.48,9.5,2.6c0.31,0.13,0.46,0.49,0.33,0.8s-0.49,0.46-0.8,0.33
		C8.72,3.6,8.57,3.25,8.7,2.94z"/>
	<path class="st0" d="M14.8,15.36c0.04-0.1,0.03-0.21-0.04-0.3c-0.1-0.14-0.29-0.16-0.43-0.06l-4.28,3.18
		c-0.14,0.1-0.16,0.29-0.06,0.43c0.1,0.14,0.29,0.16,0.43,0.06l4.28-3.18C14.75,15.45,14.78,15.4,14.8,15.36z"/>
	<path class="st0" d="M19.12,13l-2.34,1.67c-0.14,0.1-0.17,0.29-0.07,0.43c0.1,0.14,0.29,0.17,0.43,0.07l2.34-1.67
		c0.05-0.03,0.08-0.08,0.1-0.13c0.04-0.09,0.03-0.21-0.03-0.29C19.45,12.94,19.26,12.9,19.12,13z"/>
	<path class="st0" d="M21.92,13.72c-0.1-0.14-0.29-0.17-0.43-0.07l-6.63,4.86c-0.14,0.1-0.17,0.29-0.07,0.43
		c0.1,0.14,0.29,0.17,0.43,0.07l6.63-4.86c0.05-0.03,0.08-0.08,0.1-0.13C22,13.92,21.99,13.81,21.92,13.72z"/>
</g>
</svg>
