<?xml version="1.0" encoding="utf-8"?>
<!-- Generator: Adobe Illustrator 19.2.1, SVG Export Plug-In . SVG Version: 6.00 Build 0)  -->
<svg version="1.1" id="Layer_2" xmlns="http://www.w3.org/2000/svg" xmlns:xlink="http://www.w3.org/1999/xlink" x="0px" y="0px"
	 viewBox="0 0 24 24" style="enable-background:new 0 0 24 24;" xml:space="preserve">
<style type="text/css">
	.st0{fill:#666666;}
</style>
<path class="st0" d="M13.92,2.06c-0.49-0.06-0.99,0.04-1.42,0.28c-0.67,0.37-1.12,1.04-1.2,1.79c-0.07,0.63,0.1,1.25,0.49,1.74
	c0.39,0.5,0.95,0.81,1.58,0.88c0.49,0.06,0.99-0.04,1.42-0.28c0.67-0.37,1.12-1.04,1.2-1.79C16.14,3.39,15.21,2.22,13.92,2.06z
	 M15.11,4.58c-0.06,0.47-0.34,0.89-0.75,1.12c-0.27,0.15-0.58,0.21-0.89,0.17c-0.39-0.05-0.74-0.24-0.99-0.55
	c-0.25-0.31-0.35-0.7-0.31-1.09c0.06-0.47,0.34-0.89,0.75-1.12c0.27-0.15,0.58-0.21,0.89-0.17C14.62,3.04,15.21,3.77,15.11,4.58z
	 M12.41,21.94c0.04,0.01,0.05,0.01,0.05,0.01C12.45,21.95,12.43,21.95,12.41,21.94C12.41,21.94,12.41,21.94,12.41,21.94z
	 M17.71,11.32c-1.24-0.45-2.49-0.9-3.73-1.35c-0.25-0.69-0.5-1.37-0.75-2.06c-0.1-0.29-0.45-0.44-0.7-0.6
	C12.28,7.15,12,7.04,11.7,6.99c-0.88-0.14-1.66,0.24-2.33,0.77c-0.82,0.65-1.45,1.55-2,2.43c-0.17,0.27-0.32,0.54-0.45,0.83
	c-0.1,0-0.2-0.01-0.3-0.01c-0.65-0.02-1.3-0.03-1.94-0.05c0.01-0.14,0.02-0.28,0.02-0.42c0.03-0.57-0.85-0.59-0.88-0.02
	c-0.01,0.14-0.02,0.28-0.02,0.42c-0.09,0-0.18,0-0.27-0.01c-0.57-0.02-0.59,0.87-0.02,0.88l0.24,0.01C3.73,12,3.72,12.17,3.71,12.34
	c-0.03,0.57,0.85,0.59,0.88,0.02c0.01-0.17,0.02-0.34,0.03-0.52c0.67,0.02,1.35,0.04,2.02,0.05c-0.05,0.29-0.05,0.6,0.01,0.91
	c0.12,0.59,0.5,1.12,0.96,1.5c0.23,0.19,0.5,0.39,0.78,0.48c1.1,0.37,2.21,0.75,3.31,1.12c-0.36,1.56-0.71,3.12-1.07,4.67
	c-0.03,0.14-0.06,0.28-0.06,0.42C9.96,21,9.32,21,8.69,21c-1.4-0.01-2.8-0.01-4.2-0.02c0,0,0,0-0.01,0c-0.57,0-0.59,0.88-0.02,0.88
	c1.32,0.01,2.64,0.01,3.97,0.02c1.08,0.01,6.3,0.02,7.18,0.03c0.86,0,1.72,0,2.58,0c0.22,0,0.43,0,0.65-0.01
	c0.59-0.01,1.08-0.33,1.35-0.86c0.07-0.13,0.13-0.27,0.16-0.41c0.05-0.23-0.06-0.48-0.3-0.55c-0.22-0.06-0.49,0.07-0.55,0.3
	c-0.01,0.06-0.03,0.11-0.05,0.17c0.03-0.07-0.05,0.1-0.07,0.13c-0.02,0.04-0.04,0.07-0.07,0.1c0.05-0.06-0.06,0.06-0.07,0.07
	c-0.07,0.07-0.07,0.06-0.18,0.12c0.03-0.01-0.18,0.03-0.13,0.03c-0.01,0-0.01,0-0.02,0c-0.19,0.01-0.38,0.01-0.58,0.01
	c-0.83,0.01-1.65,0-2.48,0c-0.75,0-1.5,0-2.25-0.01c0.01-0.04,0.02-0.07,0.02-0.11c0.1-0.41,0.2-0.83,0.3-1.24
	c0.43-1.8,0.86-3.61,1.29-5.41c0,0,0,0,0,0c0.01-0.03,0.01-0.06,0.01-0.09c0.01-0.16-0.06-0.34-0.21-0.41c0,0,0,0,0,0
	c-0.03-0.02-0.06-0.03-0.09-0.04c-1.2-0.53-2.39-1.06-3.59-1.6c0.01-0.03,0.03-0.06,0.04-0.09c1.04,0.03,2.07,0.06,3.11,0.08
	c1.02,0.03,2.03,0.05,3.05,0.08c0.06,0.01,0.11,0.01,0.17-0.01c0.1-0.02,0.18-0.08,0.24-0.16c0.04-0.05,0.06-0.1,0.08-0.15
	c0.04-0.14,0.01-0.27-0.07-0.37C17.9,11.42,17.82,11.35,17.71,11.32z M14.27,14.39c-0.39,1.65-0.79,3.3-1.18,4.95l-0.31,1.28
	c-0.03,0.12-0.06,0.23-0.08,0.35c0,0.02-0.01,0.03-0.01,0.05c-0.33,0-0.67,0-1,0C11.62,21,11.56,21,11.5,21
	c-0.01,0-0.01-0.01-0.01-0.01c-0.01,0-0.01-0.01-0.01-0.01c0,0,0-0.01-0.01-0.04c0.03,0.07,0.02-0.01,0.01,0
	c0.01-0.02,0.01-0.05,0.02-0.07c0.03-0.13,0.06-0.26,0.09-0.39c0.36-1.59,0.73-3.18,1.09-4.77c0.05-0.23-0.06-0.48-0.3-0.55
	c-0.04-0.01-0.09-0.02-0.14-0.02c-0.81-0.27-1.63-0.55-2.44-0.82c-0.37-0.13-0.74-0.25-1.11-0.38c-0.01-0.01-0.03-0.01-0.04-0.02
	c-0.14-0.07-0.27-0.16-0.39-0.25c-0.01-0.01-0.08-0.07-0.1-0.08c-0.04-0.04-0.09-0.08-0.13-0.12c-0.04-0.04-0.09-0.09-0.13-0.14
	c-0.02-0.02-0.04-0.05-0.06-0.07c-0.01-0.01-0.01-0.02-0.02-0.02c0,0,0-0.01-0.01-0.01C7.72,13.13,7.65,13,7.6,12.88
	c0-0.01-0.01-0.01-0.01-0.02c0,0,0,0,0-0.01c-0.01-0.03-0.02-0.07-0.03-0.1c-0.03-0.08-0.04-0.17-0.06-0.26c0-0.01,0-0.01,0-0.02
	c0-0.01,0-0.01,0-0.03c0-0.04,0-0.08,0-0.12c0-0.09,0.01-0.17,0.01-0.26c0-0.01,0-0.02,0-0.03c0-0.01,0-0.02,0.01-0.04
	c0-0.03,0.01-0.05,0.02-0.07c0.96,0.03,1.92,0.05,2.88,0.08c-0.02,0.04-0.03,0.07-0.05,0.11c-0.1,0.2-0.08,0.5,0.15,0.61
	C11.77,13.27,13.02,13.83,14.27,14.39z M10.84,11.13c-0.99-0.03-1.97-0.05-2.96-0.08c0.18-0.32,0.4-0.63,0.6-0.93
	c0.29-0.42,0.6-0.83,0.95-1.2c0.31-0.33,0.6-0.58,0.96-0.8c0.08-0.05,0.16-0.09,0.25-0.13c0.04-0.02,0.07-0.03,0.11-0.05
	c-0.05,0.02,0.06-0.02,0.07-0.02c0.08-0.03,0.16-0.05,0.25-0.06c0.04-0.01,0.08-0.01,0.12-0.02c-0.08,0.01,0.08,0,0.09,0
	c0.25-0.01,0.51,0.05,0.71,0.18c0.09,0.06,0.18,0.12,0.27,0.18C11.79,9.17,11.31,10.15,10.84,11.13z M13.67,11.2
	c-0.62-0.02-1.25-0.03-1.87-0.05c0.32-0.66,0.64-1.31,0.95-1.97c0.15,0.41,0.3,0.82,0.45,1.24c0.09,0.24,0.26,0.3,0.47,0.38
	c0.18,0.06,0.36,0.13,0.54,0.19c0.22,0.08,0.44,0.16,0.66,0.24C14.47,11.23,14.07,11.21,13.67,11.2z"/>
</svg>
