<?xml version="1.0" encoding="utf-8"?>
<!-- Generator: Adobe Illustrator 19.2.1, SVG Export Plug-In . SVG Version: 6.00 Build 0)  -->
<svg version="1.1" id="Layer_2" xmlns="http://www.w3.org/2000/svg" xmlns:xlink="http://www.w3.org/1999/xlink" x="0px" y="0px"
	 viewBox="0 0 24 24" style="enable-background:new 0 0 24 24;" xml:space="preserve">
<style type="text/css">
	.st0{fill:#666666;}
</style>
<g>
	<path class="st0" d="M21.29,8.96c-0.26-1.91-1.19-3.67-2.64-4.95C17.2,2.73,15.33,2.02,13.4,2l-0.07,0c-1.91,0-3.76,0.68-5.21,1.92
		c-2.95,2.51-3.64,6.81-1.65,10.21l0.01,0.03l-3.76,4.48c-0.06,0.08-0.1,0.17-0.09,0.27c0.01,0.1,0.06,0.19,0.13,0.25
		c0.15,0.13,0.4,0.11,0.53-0.05l2.89-3.44l2.68,2.25l-2.89,3.44c-0.13,0.16-0.11,0.4,0.05,0.53c0.07,0.06,0.15,0.09,0.24,0.09
		c0.11,0,0.22-0.05,0.29-0.13l3.11-3.7l0.02-0.02c0.01-0.01,0.01-0.02,0.02-0.03l0.55-0.65l0.03,0.01c0.98,0.42,2.02,0.63,3.08,0.63
		c0.74,0,1.47-0.1,2.18-0.31c1.83-0.53,3.42-1.71,4.49-3.33C21.1,12.82,21.54,10.88,21.29,8.96z M10.66,10.35
		c0.01-0.02,0.02-0.03,0.04-0.06c0.24-0.24,0.65-0.26,0.93-0.03l1.62,1.37l0.04,0.03c0.26,0.25,0.28,0.66,0.05,0.93
		c-0.01,0.01-0.02,0.03-0.04,0.06l-0.19,0.23l-2.68-2.25L10.66,10.35z M13.92,13.08c0.02-0.02,0.03-0.04,0.05-0.07
		c0.46-0.61,0.36-1.47-0.23-1.96c-0.01-0.01-0.02-0.02-0.04-0.03L12.1,9.68c-0.26-0.21-0.58-0.33-0.92-0.33
		c-0.43,0-0.83,0.19-1.1,0.51c-0.02,0.02-0.03,0.04-0.05,0.07l-0.38,0.46c-0.02,0.01-0.03,0.03-0.05,0.05
		c-0.01,0.02-0.02,0.03-0.04,0.06L7,13.55l-0.03-0.05c-1.61-3.03-0.92-6.81,1.64-9c1.31-1.12,2.98-1.73,4.72-1.73
		c1.78,0,3.49,0.64,4.81,1.81c2.7,2.38,3.24,6.45,1.26,9.45c-1.36,2.07-3.62,3.31-6.04,3.31c-0.87,0-1.73-0.16-2.55-0.48l-0.05-0.02
		L13.92,13.08z M12.63,13.45l-3.27,3.9L6.68,15.1l3.27-3.89L12.63,13.45z"/>
	<path class="st0" d="M15.08,5.18c1.79,0.64,3.07,2.21,3.35,4.1c0.03,0.18,0.19,0.32,0.37,0.32c0.02,0,0.04,0,0.05,0
		c0.1-0.01,0.19-0.07,0.25-0.15c0.06-0.08,0.08-0.18,0.07-0.28c-0.32-2.16-1.79-3.95-3.84-4.69c-0.19-0.07-0.41,0.04-0.48,0.23
		C14.79,4.89,14.89,5.11,15.08,5.18z"/>
</g>
</svg>
