<?xml version="1.0" encoding="utf-8"?>
<!-- Generator: Adobe Illustrator 19.2.1, SVG Export Plug-In . SVG Version: 6.00 Build 0)  -->
<svg version="1.1" id="Layer_2" xmlns="http://www.w3.org/2000/svg" xmlns:xlink="http://www.w3.org/1999/xlink" x="0px" y="0px"
	 viewBox="0 0 24 24" style="enable-background:new 0 0 24 24;" xml:space="preserve">
<style type="text/css">
	.st0{fill:#666666;}
</style>
<g>
	<path class="st0" d="M18.98,19.93c-1.67,0-3.03-1.36-3.03-3.02c0-1.67,1.36-3.02,3.03-3.02c1.67,0,3.03,1.36,3.03,3.02
		C22.01,18.58,20.65,19.93,18.98,19.93z M18.98,14.51c-1.33,0-2.41,1.08-2.41,2.4s1.08,2.4,2.41,2.4s2.41-1.08,2.41-2.4
		S20.31,14.51,18.98,14.51z"/>
	<path class="st0" d="M5.02,17.22c-0.13,0-0.25-0.08-0.29-0.21c-0.03-0.08-0.02-0.16,0.01-0.24s0.1-0.13,0.18-0.16l4.21-1.44
		c0.09-0.03,0.18-0.05,0.28-0.05c0.18,0,0.35,0.05,0.49,0.15l0.6,0.41c0.07,0.05,0.16,0.08,0.24,0.08h3.34
		c0.1,0,0.19-0.08,0.19-0.19c0.01-0.41,0.01-0.7,0.01-0.86c0-2.02,1.65-3.66,3.67-3.66c0.95,0,1.85,0.36,2.54,1.02
		c0.12,0.12,0.13,0.32,0.01,0.44c-0.06,0.06-0.14,0.1-0.22,0.1c-0.08,0-0.16-0.03-0.21-0.09c-0.57-0.55-1.32-0.85-2.11-0.85
		c-1.68,0-3.05,1.36-3.05,3.04c0,0.16,0,0.46-0.01,0.87c-0.01,0.44-0.37,0.8-0.81,0.8h-3.34c-0.21,0-0.42-0.06-0.59-0.18l-0.6-0.41
		c-0.04-0.03-0.09-0.04-0.14-0.04c-0.03,0-0.05,0-0.08,0.01L5.12,17.2C5.09,17.21,5.06,17.22,5.02,17.22z"/>
	<path class="st0" d="M18.98,17.82c-0.5,0-0.92-0.41-0.92-0.91s0.41-0.91,0.92-0.91c0.5,0,0.92,0.41,0.92,0.91
		S19.48,17.82,18.98,17.82z M18.98,16.62c-0.16,0-0.29,0.13-0.29,0.29c0,0.16,0.13,0.29,0.29,0.29c0.16,0,0.29-0.13,0.29-0.29
		C19.27,16.75,19.14,16.62,18.98,16.62z"/>
	<path class="st0" d="M5.02,19.93c-1.67,0-3.03-1.36-3.03-3.02c0-1.67,1.36-3.02,3.03-3.02s3.03,1.36,3.03,3.02
		C8.05,18.58,6.69,19.93,5.02,19.93z M5.02,14.51c-1.33,0-2.41,1.08-2.41,2.4s1.08,2.4,2.41,2.4s2.41-1.08,2.41-2.4
		S6.35,14.51,5.02,14.51z"/>
	<path class="st0" d="M5.02,17.77c-0.48,0-0.87-0.39-0.87-0.86c0-0.48,0.39-0.86,0.87-0.86s0.86,0.39,0.86,0.86
		C5.89,17.38,5.5,17.77,5.02,17.77z M5.02,16.67c-0.13,0-0.24,0.11-0.24,0.24s0.11,0.24,0.24,0.24c0.13,0,0.24-0.11,0.24-0.24
		S5.16,16.67,5.02,16.67z"/>
	<path class="st0" d="M18.98,17.22c-0.11,0-0.22-0.06-0.27-0.16l-2.72-4.88c-0.08-0.15-0.03-0.34,0.12-0.42
		c0.05-0.03,0.1-0.04,0.15-0.04c0.11,0,0.22,0.06,0.27,0.16l2.72,4.88c0.04,0.07,0.05,0.16,0.03,0.24
		c-0.02,0.08-0.08,0.15-0.15,0.19C19.08,17.21,19.03,17.22,18.98,17.22z"/>
	<path class="st0" d="M10.16,15.09c-0.06,0-0.12-0.01-0.18-0.02l-0.61-0.15c-0.19-0.05-0.36-0.17-0.46-0.34
		c-0.1-0.17-0.13-0.37-0.08-0.56l0.57-2.26c0.01-0.03,0-0.07-0.01-0.09c-0.02-0.03-0.05-0.05-0.08-0.06l-2.41-0.56
		c-0.53-0.12-0.97-0.49-1.18-0.99c-0.21-0.5-0.17-1.07,0.11-1.54c0.7-1.16,1.87-1.95,3.21-2.15c0.07-0.01,0.15-0.02,0.22-0.02
		c0.39,0,0.76,0.15,1.04,0.42c0.12,0.12,0.19,0.28,0.19,0.44c0,0.17-0.07,0.33-0.2,0.44L9.16,8.65c-0.11,0.1-0.15,0.24-0.11,0.38
		c0.03,0.14,0.14,0.24,0.28,0.28L11,9.72c0.27,0.07,0.5,0.24,0.65,0.48c0.14,0.24,0.19,0.53,0.12,0.8l-0.89,3.53
		C10.8,14.86,10.5,15.09,10.16,15.09z M9.24,6.97c-0.04,0-0.09,0-0.13,0.01C7.95,7.15,6.95,7.83,6.35,8.83
		c-0.18,0.29-0.2,0.66-0.07,0.98c0.13,0.32,0.42,0.55,0.75,0.63L9.44,11c0.19,0.05,0.36,0.17,0.47,0.34
		c0.1,0.17,0.14,0.38,0.09,0.57l-0.57,2.26c-0.01,0.03,0,0.06,0.01,0.09c0.02,0.03,0.04,0.05,0.08,0.06l0.61,0.15c0,0,0.01,0,0.01,0
		c0.08,0,0.13-0.04,0.14-0.09l0.89-3.53c0.03-0.11,0.01-0.23-0.05-0.32c-0.06-0.1-0.15-0.17-0.26-0.2L9.18,9.91
		C8.82,9.82,8.53,9.54,8.44,9.18c-0.09-0.36,0.02-0.74,0.3-0.99l1.11-1.01C9.69,7.05,9.47,6.97,9.24,6.97z"/>
	<path class="st0" d="M13.16,9.33l-1.23-0.14c-0.3-0.03-0.56-0.2-0.73-0.46L9.91,7.28C9.8,7.15,9.81,6.96,9.94,6.84
		c0.06-0.05,0.13-0.08,0.21-0.08c0.09,0,0.17,0.04,0.23,0.1l1.32,1.48l0.03,0.04c0.07,0.11,0.17,0.17,0.28,0.19l1.23,0.14
		c0.08,0.01,0.16,0.05,0.21,0.12c0.05,0.07,0.07,0.15,0.06,0.23c-0.02,0.16-0.15,0.28-0.31,0.28L13.16,9.33z"/>
	<path class="st0" d="M9.25,9.92c-0.02,0-0.05,0-0.07-0.01l-3-0.73C6.01,9.14,5.91,8.97,5.95,8.81c0.03-0.14,0.16-0.24,0.3-0.24
		c0.02,0,0.05,0,0.07,0.01l3,0.73c0.08,0.02,0.15,0.07,0.19,0.14C9.56,9.52,9.57,9.6,9.55,9.68C9.52,9.82,9.4,9.92,9.25,9.92z"/>
	<g>
		<path class="st0" d="M12.38,7.51c-0.13,0-0.24-0.08-0.29-0.2c-0.06-0.16,0.02-0.34,0.18-0.4c0.17-0.07,0.32-0.19,0.45-0.38
			c0.08-0.11,0.15-0.21,0.18-0.32c0.04-0.14,0.16-0.23,0.3-0.23c0.03,0,0.05,0,0.08,0.01c0.08,0.02,0.15,0.07,0.19,0.14
			c0.04,0.07,0.05,0.15,0.03,0.23c-0.05,0.2-0.16,0.37-0.27,0.52c-0.2,0.29-0.45,0.49-0.73,0.59C12.45,7.5,12.42,7.51,12.38,7.51z"
			/>
		<path class="st0" d="M11.99,8.14c-0.12,0-0.23-0.04-0.32-0.11C10.41,7.03,9.77,6.4,9.68,6.1C9.54,5.57,9.63,5.02,9.93,4.6
			c0.33-0.46,0.88-0.73,1.49-0.73c0.44,0,0.87,0.14,1.24,0.4c0.41,0.29,0.71,0.71,0.83,1.18l0.71,0.85c0.08,0.1,0.11,0.24,0.06,0.36
			c-0.05,0.12-0.16,0.21-0.29,0.23l-0.1,0.01c-0.03,0-0.07,0.01-0.1,0.01c-0.15,0-0.3-0.05-0.43-0.14l-0.91-0.63l-0.48,0.04
			l0.42,0.6c0.12,0.17,0.31,0.27,0.51,0.27c0,0,0,0,0,0c0.13,0,0.24,0.06,0.29,0.17c0.05,0.1,0.05,0.23-0.02,0.32l-0.3,0.42
			c-0.08,0.11-0.21,0.18-0.35,0.18L11.99,8.14L11.99,8.14z M11.42,4.48c-0.41,0-0.76,0.17-0.98,0.47c-0.2,0.27-0.26,0.63-0.16,0.98
			c0.04,0.11,0.61,0.68,1.74,1.58l0.28,0c-0.18-0.09-0.33-0.23-0.44-0.39l-0.51-0.73c-0.11-0.15-0.12-0.35-0.04-0.52
			c0.08-0.17,0.25-0.28,0.43-0.3c0,0,0.75-0.06,0.75-0.06c0.09,0,0.15,0.02,0.2,0.06l0.23,0.16l-0.06-0.08
			c-0.07-0.08-0.09-0.19-0.06-0.28c-0.11-0.23-0.28-0.44-0.5-0.59C12.04,4.58,11.73,4.48,11.42,4.48z"/>
	</g>
	<path class="st0" d="M11.24,12.23c-0.04,0-0.08-0.01-0.12-0.03c-0.16-0.07-0.23-0.25-0.16-0.41c0.45-1.07,1.72-1.78,3.16-1.78
		c1.23,0,2.36,0.53,2.94,1.38c0.05,0.07,0.06,0.15,0.05,0.23c-0.02,0.08-0.06,0.15-0.13,0.2c-0.05,0.04-0.11,0.05-0.17,0.05
		c-0.1,0-0.2-0.05-0.26-0.14c-0.47-0.68-1.39-1.11-2.42-1.11c-1.19,0-2.23,0.56-2.59,1.4C11.48,12.16,11.37,12.23,11.24,12.23z"/>
	<path class="st0" d="M16.38,11.42c-0.03,0-0.06,0-0.09-0.01c-0.16-0.05-0.26-0.23-0.2-0.39c0.21-0.67,0.01-1.1-0.2-1.35l-1,0.89
		c-0.06,0.05-0.13,0.08-0.21,0.08c-0.09,0-0.17-0.04-0.23-0.1c-0.11-0.13-0.1-0.33,0.03-0.44l1-0.89c0.11-0.1,0.26-0.16,0.42-0.16
		l0.04,0c0.17,0.01,0.32,0.09,0.43,0.22c0.25,0.3,0.63,0.95,0.32,1.94C16.63,11.33,16.51,11.42,16.38,11.42z"/>
	<path class="st0" d="M15.78,11.03c-0.09-0.01-0.16-0.04-0.22-0.11c-0.06-0.06-0.08-0.14-0.08-0.23l0.08-1.28
		c0.01-0.16,0.15-0.29,0.31-0.29c0.19,0.01,0.32,0.16,0.31,0.33l-0.08,1.28c-0.01,0.16-0.15,0.29-0.31,0.29L15.78,11.03z"/>
	<path class="st0" d="M15.06,10.29c-0.11,0-0.21-0.06-0.27-0.15l-0.46-0.78L13.35,9.9c-0.05,0.03-0.1,0.04-0.15,0.04
		c-0.11,0-0.22-0.06-0.27-0.16c-0.08-0.15-0.03-0.34,0.12-0.42l1.07-0.59c0.08-0.04,0.16-0.06,0.25-0.06c0.18,0,0.35,0.1,0.44,0.26
		l0.51,0.87c0.04,0.07,0.05,0.16,0.03,0.24c-0.02,0.08-0.07,0.15-0.14,0.19C15.17,10.28,15.11,10.29,15.06,10.29z"/>
	<path class="st0" d="M8.51,15.99c-0.14,0-0.26-0.1-0.3-0.23c-0.4-1.52-1.56-1.73-1.58-1.73c-0.13-0.02-0.23-0.12-0.26-0.25
		l-0.1-0.51c-0.03-0.16,0.06-0.31,0.21-0.36L9.48,12c0.03-0.01,0.06-0.01,0.09-0.01c0.14,0,0.26,0.09,0.3,0.22
		c0.05,0.16-0.04,0.34-0.21,0.39l-2.73,0.84l0.01,0.04c0.46,0.14,1.47,0.63,1.86,2.13c0.04,0.17-0.06,0.34-0.22,0.38
		C8.57,15.99,8.54,15.99,8.51,15.99z"/>
	<path class="st0" d="M6.58,13.53c-0.05,0-0.11-0.01-0.16-0.04c-1.03-0.6-2.29-0.73-3.15-0.73c-0.5,0-0.84,0.04-0.86,0.05l-0.04,0
		c-0.15,0-0.29-0.12-0.31-0.27c-0.02-0.17,0.1-0.33,0.26-0.35c0.04-0.01,0.41-0.06,0.96-0.06c0.75,0,1.84,0.09,2.86,0.52l-0.02-0.1
		c-0.08-0.41,0.18-0.84,0.58-0.96l2.27-0.67c0.03-0.01,0.06-0.01,0.09-0.01c0.14,0,0.26,0.09,0.3,0.22
		c0.02,0.08,0.01,0.16-0.03,0.24c-0.04,0.07-0.11,0.13-0.19,0.15L6.89,12.2c-0.1,0.03-0.17,0.14-0.15,0.24l0.14,0.72
		c0.02,0.12-0.02,0.24-0.12,0.31C6.71,13.51,6.64,13.53,6.58,13.53z"/>
</g>
</svg>
