<?xml version="1.0" encoding="utf-8"?>
<!-- Generator: Adobe Illustrator 19.2.1, SVG Export Plug-In . SVG Version: 6.00 Build 0)  -->
<svg version="1.1" id="Layer_2" xmlns="http://www.w3.org/2000/svg" xmlns:xlink="http://www.w3.org/1999/xlink" x="0px" y="0px"
	 viewBox="0 0 24 24" style="enable-background:new 0 0 24 24;" xml:space="preserve">
<style type="text/css">
	.st0{fill:#666666;}
</style>
<g>
	<path class="st0" d="M6.83,21.3c-0.45,0-0.88-0.16-1.17-0.45c-0.26-0.25-0.54-0.72-0.46-1.54c-0.13,0-0.24-0.09-0.27-0.21
		l-0.54-1.91l-0.01-0.02c-0.05-0.26-0.05-0.51,0-0.75c0.15-0.74,0.76-1.37,1.65-1.74c1.32-0.54,2.24-1.08,2.95-1.76
		c0.54-0.5,0.98-1.1,1.36-1.81c0.43-0.82,0.47-2.05,0.14-3.76C9.36,7.48,8.87,8.09,8.86,9.32c-0.01,2.09-0.66,3.48-1.74,3.72
		c-0.16,0.03-0.31,0.05-0.45,0.05C6,13.09,5.7,12.68,5.6,12.5c-0.21-0.39-0.18-0.89,0.07-1.14c0.05-0.05,0.13-0.08,0.2-0.08
		c0.08,0,0.15,0.03,0.2,0.08s0.08,0.13,0.08,0.2c0,0.08-0.03,0.15-0.08,0.2C6.04,11.81,6,12.03,6.11,12.23
		c0.1,0.19,0.3,0.29,0.57,0.29c0.1,0,0.2-0.01,0.32-0.04c0.79-0.18,1.28-1.38,1.29-3.16c0-1.52,0.68-2.35,2.07-2.54
		c-0.1-0.44-0.21-0.86-0.31-1.22L9.98,5.3C9.73,5.24,9.47,5.21,9.22,5.21c-0.23,0-0.47,0.03-0.69,0.08C7.92,5.43,7.27,5.82,6.65,6.2
		c-0.82,0.49-1.67,1-2.51,1c-0.26,0-0.52-0.05-0.76-0.15C2.09,6.51,2.06,5.55,2.24,5.08c0.1-0.27,0.29-0.44,0.49-0.44
		c0.04,0,0.08,0.01,0.12,0.02c0.07,0.02,0.13,0.08,0.17,0.14s0.04,0.15,0.02,0.22c-0.03,0.1-0.12,0.17-0.22,0.19
		c-0.05,0.07-0.1,0.24-0.07,0.43C2.78,5.89,2.96,6.24,3.6,6.51c0.17,0.07,0.34,0.11,0.54,0.11c0.68,0,1.43-0.45,2.21-0.92
		C7.01,5.3,7.7,4.89,8.4,4.72c0.27-0.07,0.55-0.1,0.83-0.1c0.2,0,0.41,0.02,0.62,0.05c-0.05-0.73,0.5-1.43,1.26-1.57
		c0.01,0,0.02,0,0.03,0l4.9-0.4c0.03-0.01,0.07-0.01,0.11-0.01c0.32,0,0.59,0.23,0.65,0.54c0,0.02,0,0.03,0.01,0.05
		c0,0.03,0.07,3.31,1.78,7.79c0.21,0.55,0.31,1.05,0.3,1.49c0.01,0.02,0.02,0.04,0.02,0.06l0.64,2.18c0.08,0.29,0.04,0.59-0.11,0.85
		c-0.12,0.2-0.29,0.36-0.5,0.45c0.23,0.26,0.57,0.4,0.95,0.4c0.03,0,0.07,0,0.1,0c0.15-0.01,0.3-0.03,0.45-0.04
		c0.22-0.03,0.43-0.05,0.63-0.05c0.35,0,0.58,0.08,0.74,0.25c0.15,0.16,0.2,0.38,0.13,0.6c-0.1,0.32-0.44,0.63-0.79,0.71L7.24,21.25
		C7.11,21.29,6.97,21.3,6.83,21.3z M5.79,19.22c-0.09,0.54,0,0.96,0.26,1.22c0.26,0.25,0.59,0.29,0.77,0.29
		c0.1,0,0.2-0.01,0.29-0.03l13.93-3.29c0.15-0.04,0.33-0.19,0.37-0.32c0.01-0.02,0-0.03,0-0.03c-0.05-0.05-0.15-0.08-0.32-0.08
		c-0.17,0-0.37,0.02-0.56,0.05c-0.16,0.02-0.32,0.04-0.48,0.05c-0.05,0-0.09,0-0.14,0c-0.64,0-1.21-0.29-1.54-0.79l-1.05,0.32
		c0.13,0.61-0.24,1.21-0.84,1.36l-5.1,1.29c-0.09,0.02-0.18,0.03-0.28,0.03c-0.53,0-0.99-0.36-1.11-0.87l-0.01-0.06
		c-0.17,0.04-0.34,0.08-0.51,0.13c0.01,0.02,0.01,0.04,0.02,0.05c0.06,0.3-0.01,0.6-0.18,0.86c-0.17,0.25-0.43,0.42-0.73,0.48
		l-1.08,0.2c-0.07,0.01-0.14,0.02-0.21,0.02c-0.55,0-1.02-0.39-1.13-0.93c0-0.01,0-0.01,0-0.02C6.02,19.18,5.9,19.2,5.79,19.22z
		 M6.71,19.07c0.05,0.27,0.29,0.46,0.56,0.46c0.03,0,0.07,0,0.11-0.01l1.08-0.2c0.31-0.06,0.51-0.36,0.45-0.66c0-0.01,0-0.02,0-0.03
		c-0.81,0.18-1.63,0.33-2.2,0.44C6.71,19.06,6.71,19.06,6.71,19.07z M10.55,18.29c0.06,0.25,0.29,0.43,0.55,0.43
		c0.05,0,0.09-0.01,0.14-0.02l5.1-1.29c0.28-0.07,0.47-0.35,0.43-0.63l-0.74,0.23c-0.03,0.01-0.06,0.01-0.08,0.01
		c-0.05,0-0.1-0.01-0.14-0.04c-0.07-0.04-0.12-0.1-0.14-0.18l-0.22-0.84c-1.34,0.45-1.88,0.78-2.45,1.12
		c-0.42,0.26-0.86,0.52-1.63,0.84c-0.21,0.09-0.49,0.18-0.83,0.28L10.55,18.29z M5.41,18.69c1.07-0.18,4.46-0.77,5.73-1.29
		c0.72-0.3,1.14-0.55,1.55-0.8c0.62-0.37,1.25-0.76,2.86-1.27c0.03-0.01,0.06-0.01,0.09-0.01c0.05,0,0.1,0.01,0.14,0.04
		c0.07,0.04,0.12,0.1,0.14,0.18l0.23,0.84l2.47-0.76c0.15-0.04,0.26-0.13,0.33-0.25c0.07-0.12,0.09-0.27,0.05-0.4l-0.4-1.36
		c-0.21,0.34-0.55,0.62-1,0.84h0c-0.23,0.11-0.49,0.2-0.78,0.28c-2.57,0.68-3.29,1.13-4.05,1.6c-0.43,0.26-0.87,0.54-1.63,0.85
		c-1.32,0.55-4.71,1.14-5.79,1.32L5.41,18.69z M10.64,5.52c0.44,1.7,1.08,4.2,0.22,5.86c-0.4,0.78-0.89,1.42-1.47,1.97
		c-0.77,0.72-1.74,1.3-3.13,1.87c-0.71,0.29-1.19,0.77-1.3,1.32c-0.03,0.17-0.04,0.34,0,0.52l0.21,0.74l0.04,0.13
		c1.07-0.18,4.46-0.77,5.73-1.29c0.72-0.3,1.14-0.56,1.55-0.81c0.8-0.49,1.56-0.96,4.21-1.66c0.25-0.07,0.48-0.15,0.67-0.24
		c0.99-0.48,1.21-1.29,0.69-2.63c-1.67-4.38-1.81-7.6-1.82-7.96c-0.01-0.02-0.05-0.05-0.08-0.05c-0.03,0-0.04,0.01-0.05,0.01
		l-4.9,0.4c-0.48,0.1-0.83,0.55-0.77,1.01c0,0.03,0.01,0.06,0.02,0.08l0.01,0.05c0.74,0.24,1.21,0.62,1.27,0.66l0.01,0.01
		c0.17,0.02,0.3,0.15,0.33,0.31c0.04,0.21-0.1,0.41-0.31,0.45c-0.02,0-0.05,0.01-0.07,0.01c-0.19,0-0.35-0.13-0.38-0.32
		c0-0.02-0.01-0.04-0.01-0.06C11.2,5.82,10.97,5.67,10.64,5.52z"/>
	<path class="st0" d="M12.09,8.54c-0.19,0-0.35-0.13-0.38-0.32c-0.02-0.1,0-0.21,0.06-0.29c0.06-0.09,0.15-0.14,0.25-0.16
		c0.02,0,0.05-0.01,0.07-0.01c0.19,0,0.35,0.13,0.38,0.32c0.02,0.1,0,0.21-0.06,0.29c-0.06,0.09-0.15,0.14-0.25,0.16
		C12.13,8.54,12.11,8.54,12.09,8.54L12.09,8.54z"/>
	<path class="st0" d="M12.17,10.95c-0.19,0-0.35-0.13-0.38-0.32c-0.04-0.21,0.1-0.41,0.31-0.45c0.02,0,0.05-0.01,0.07-0.01
		c0.19,0,0.35,0.13,0.38,0.32c0.02,0.1,0,0.21-0.06,0.29c-0.06,0.09-0.15,0.14-0.25,0.16C12.22,10.95,12.19,10.95,12.17,10.95z"/>
</g>
</svg>
