<?xml version="1.0" encoding="utf-8"?>
<!-- Generator: Adobe Illustrator 19.2.1, SVG Export Plug-In . SVG Version: 6.00 Build 0)  -->
<svg version="1.1" id="Layer_2" xmlns="http://www.w3.org/2000/svg" xmlns:xlink="http://www.w3.org/1999/xlink" x="0px" y="0px"
	 viewBox="0 0 24 24" style="enable-background:new 0 0 24 24;" xml:space="preserve">
<style type="text/css">
	.st0{fill:#666666;}
</style>
<g>
	<path class="st0" d="M19.19,4.56C17.54,2.9,15.34,1.99,13,1.99c0,0-0.01,0-0.01,0c-2.35,0-4.56,0.92-6.23,2.58
		c-1.97,1.96-2.65,4.4-2.1,7.47l0.2,0.98c0.32,1.55-0.02,3.05-0.89,3.92l-2.05,2.04c-0.08,0.08-0.12,0.18-0.12,0.28
		c0,0.11,0.04,0.21,0.12,0.28l2.19,2.2c0.08,0.08,0.17,0.11,0.27,0.12c0.03,0.01,0.06,0.02,0.09,0.02h0.01h0
		c0.09,0,0.17-0.04,0.22-0.1l0.37-0.43l1.65-1.64c1.04-1.04,2.71-1.13,3.92-0.87l0.99,0.21c3.06,0.57,5.51-0.11,7.47-2.07
		c1.67-1.66,2.6-3.87,2.61-6.22C21.74,8.42,20.84,6.22,19.19,4.56z M6.17,19.15L4.4,20.91l-1.63-1.63l0.99-0.99l3.68-3.22l1.25,1.25
		l-2.34,2.67C6.28,19.04,6.22,19.09,6.17,19.15z M5.73,13.35l1.28,1.28l-1.52,1.33C5.76,15.17,5.85,14.27,5.73,13.35z M7.89,18.15
		l1.23-1.4l1.24,1.24C9.49,17.86,8.65,17.92,7.89,18.15z M18.55,16.42c-1.77,1.76-3.98,2.36-6.75,1.85l-0.04-0.01
		c-0.02-0.06-0.05-0.12-0.1-0.17l-5.99-5.99c-0.06-0.06-0.13-0.09-0.2-0.11L5.45,11.9c-0.5-2.79,0.11-5,1.88-6.75
		c1.52-1.51,3.53-2.35,5.66-2.35c0,0,0.01,0,0.01,0c2.13,0,4.12,0.83,5.62,2.33c1.5,1.51,2.32,3.51,2.3,5.64
		C20.91,12.9,20.07,14.91,18.55,16.42z"/>
	<path class="st0" d="M15.07,11.47c-1.34,0-2.42,1.09-2.42,2.42c0,1.34,1.09,2.42,2.42,2.42s2.42-1.09,2.42-2.42
		C17.49,12.56,16.41,11.47,15.07,11.47z M16.65,13.9c0,0.87-0.71,1.58-1.58,1.58c-0.87,0-1.58-0.71-1.58-1.58
		c0-0.87,0.71-1.58,1.58-1.58C15.94,12.32,16.65,13.02,16.65,13.9z"/>
</g>
</svg>
