<?xml version="1.0" encoding="utf-8"?>
<!-- Generator: Adobe Illustrator 19.2.1, SVG Export Plug-In . SVG Version: 6.00 Build 0)  -->
<svg version="1.1" id="Layer_2" xmlns="http://www.w3.org/2000/svg" xmlns:xlink="http://www.w3.org/1999/xlink" x="0px" y="0px"
	 viewBox="0 0 24 24" style="enable-background:new 0 0 24 24;" xml:space="preserve">
<style type="text/css">
	.st0{fill:#666666;}
</style>
<path class="st0" d="M21.27,17.81c-0.03,0-0.05,0-0.08,0c0.01,0-0.06-0.01-0.07-0.01c-0.03-0.01-0.07-0.02-0.1-0.03
	c0,0-0.01,0-0.01,0c0,0-0.01,0-0.01-0.01c-0.06-0.03-0.12-0.07-0.18-0.1c-0.03-0.02-0.06-0.04-0.08-0.06
	c-0.01-0.01-0.02-0.02-0.04-0.03c0,0-0.01-0.01-0.01-0.01c-0.29-0.23-0.57-0.45-0.92-0.59c-0.79-0.31-1.65-0.11-2.3,0.39
	c-0.12,0.09-0.23,0.18-0.35,0.26c-0.06,0.04-0.12,0.08-0.19,0.11c-0.01,0-0.04,0.02-0.05,0.02c-0.04,0.02-0.08,0.03-0.13,0.04
	c-0.04,0.01-0.07,0.02-0.11,0.02c0.06-0.01-0.07,0-0.08,0c-0.1,0-0.18,0-0.23-0.01c-0.22-0.04-0.28-0.08-0.47-0.18
	c-0.31-0.18-0.57-0.42-0.89-0.58c-0.42-0.2-0.88-0.26-1.33-0.16c-0.38,0.08-0.68,0.33-0.96,0.58c-0.05,0.04-0.09,0.08-0.14,0.12
	c0,0-0.05,0.04-0.06,0.05c-0.04,0.03-0.08,0.06-0.13,0.08c-0.13,0.07-0.27,0.11-0.45,0.11c-0.05,0-0.09,0.01-0.13,0.02
	c-0.04-0.01-0.08-0.02-0.13-0.02c-0.03,0-0.05,0-0.08,0c0.01,0-0.06-0.01-0.07-0.01c-0.03-0.01-0.07-0.02-0.1-0.03
	c0,0-0.01,0-0.01,0c0,0-0.01,0-0.01-0.01c-0.06-0.03-0.12-0.07-0.18-0.1c-0.03-0.02-0.06-0.04-0.08-0.06
	c-0.01-0.01-0.02-0.02-0.04-0.03c0,0-0.01-0.01-0.01-0.01c-0.29-0.23-0.57-0.45-0.92-0.59c-0.79-0.31-1.65-0.11-2.3,0.39
	c-0.12,0.09-0.23,0.18-0.35,0.26c-0.06,0.04-0.12,0.08-0.19,0.11c-0.01,0-0.04,0.02-0.05,0.02c-0.04,0.02-0.08,0.03-0.13,0.04
	C7.07,17.79,7.04,17.8,7,17.8c0.06-0.01-0.07,0-0.08,0c-0.1,0-0.18,0-0.23-0.01c-0.22-0.04-0.28-0.08-0.47-0.18
	c-0.31-0.18-0.57-0.42-0.89-0.58c-0.42-0.2-0.88-0.26-1.33-0.16c-0.38,0.08-0.68,0.33-0.96,0.58C3,17.49,2.95,17.53,2.9,17.57
	c0,0-0.05,0.04-0.06,0.05c-0.04,0.03-0.08,0.06-0.13,0.08c-0.13,0.07-0.27,0.11-0.45,0.11c-0.56,0.01-0.56,0.88,0,0.87
	c0.41-0.01,0.79-0.13,1.11-0.38c0.14-0.11,0.27-0.22,0.4-0.33c0.03-0.02,0.06-0.05,0.08-0.07c0,0,0,0,0.01-0.01
	c0.01,0,0.01-0.01,0.02-0.02c0.06-0.05,0.13-0.08,0.2-0.12c-0.01,0.01,0.06-0.03,0.07-0.03c0.04-0.01,0.08-0.02,0.12-0.03
	c0.01,0,0.02,0,0.02-0.01c0.01,0,0.02,0,0.04,0c0.05,0,0.1,0,0.15,0c0.1,0,0.1,0,0.22,0.03c0.13,0.03,0.14,0.04,0.22,0.08
	c0.32,0.16,0.59,0.4,0.89,0.58c0.72,0.43,1.57,0.37,2.24-0.13c0.12-0.09,0.23-0.18,0.35-0.27c0.06-0.04,0.13-0.09,0.19-0.12
	c0.03-0.02,0.07-0.04,0.1-0.06c0.02-0.01,0.03-0.01,0.05-0.02c0,0,0.02-0.01,0.04-0.01c0.35-0.13,0.68-0.12,1.03,0.01
	c0,0,0.07,0.03,0.07,0.03c0.04,0.02,0.07,0.04,0.11,0.06c0.08,0.04,0.15,0.09,0.22,0.15c0.01,0,0.04,0.03,0.06,0.04
	c0.02,0.02,0.04,0.03,0.06,0.05c0.08,0.07,0.17,0.13,0.25,0.2c0.3,0.23,0.65,0.37,1.03,0.38c0.05,0,0.09-0.01,0.13-0.02
	c0.04,0.01,0.08,0.02,0.13,0.02c0.41-0.01,0.79-0.13,1.11-0.38c0.14-0.11,0.27-0.22,0.4-0.33c0.03-0.02,0.06-0.05,0.08-0.07
	c0,0,0,0,0.01-0.01c0.01,0,0.01-0.01,0.02-0.02c0.06-0.05,0.13-0.08,0.2-0.12c-0.01,0.01,0.06-0.03,0.07-0.03
	c0.04-0.01,0.08-0.02,0.12-0.03c0.01,0,0.02,0,0.02-0.01c0.01,0,0.02,0,0.04,0c0.05,0,0.1,0,0.15,0c0.1,0,0.1,0,0.22,0.03
	c0.13,0.03,0.14,0.04,0.22,0.08c0.32,0.16,0.59,0.4,0.89,0.58c0.72,0.43,1.57,0.37,2.24-0.13c0.12-0.09,0.23-0.18,0.35-0.27
	c0.06-0.04,0.13-0.09,0.19-0.12c0.03-0.02,0.07-0.04,0.1-0.06c0.02-0.01,0.03-0.01,0.05-0.02c0,0,0.02-0.01,0.04-0.01
	c0.35-0.13,0.68-0.12,1.03,0.01c0,0,0.07,0.03,0.07,0.03c0.04,0.02,0.07,0.04,0.11,0.06c0.08,0.04,0.15,0.09,0.22,0.15
	c0.01,0,0.04,0.03,0.06,0.04c0.02,0.02,0.04,0.03,0.06,0.05c0.08,0.07,0.17,0.13,0.25,0.2c0.3,0.23,0.65,0.37,1.03,0.38
	C21.83,18.69,21.83,17.82,21.27,17.81z M21.27,14.83c-0.03,0-0.05,0-0.08,0c0.01,0-0.06-0.01-0.07-0.01
	c-0.03-0.01-0.07-0.02-0.1-0.03c0,0-0.01,0-0.01,0c0,0-0.01,0-0.01-0.01c-0.06-0.03-0.12-0.07-0.18-0.1
	c-0.03-0.02-0.06-0.04-0.08-0.06c-0.01-0.01-0.02-0.02-0.04-0.03c0,0-0.01-0.01-0.01-0.01c-0.29-0.23-0.57-0.45-0.92-0.59
	c-0.79-0.31-1.65-0.11-2.3,0.39c-0.12,0.09-0.23,0.18-0.35,0.26c-0.06,0.04-0.12,0.08-0.19,0.11c-0.01,0-0.04,0.02-0.05,0.02
	c-0.04,0.02-0.08,0.03-0.13,0.04c-0.04,0.01-0.07,0.02-0.11,0.02c0.06-0.01-0.07,0-0.08,0c-0.1,0-0.18,0-0.23-0.01
	c-0.22-0.04-0.28-0.08-0.47-0.18c-0.31-0.18-0.57-0.42-0.89-0.58c-0.42-0.2-0.88-0.26-1.33-0.16c-0.38,0.08-0.68,0.33-0.96,0.58
	c-0.05,0.04-0.09,0.08-0.14,0.12c0,0-0.05,0.04-0.06,0.05c-0.04,0.03-0.08,0.06-0.13,0.08c-0.13,0.07-0.27,0.11-0.45,0.11
	c-0.05,0-0.09,0.01-0.13,0.02c-0.04-0.01-0.08-0.02-0.13-0.02c-0.03,0-0.05,0-0.08,0c0.01,0-0.06-0.01-0.07-0.01
	c-0.03-0.01-0.07-0.02-0.1-0.03c0,0-0.01,0-0.01,0c0,0-0.01,0-0.01-0.01c-0.06-0.03-0.12-0.07-0.18-0.1
	c-0.03-0.02-0.06-0.04-0.08-0.06c-0.01-0.01-0.02-0.02-0.04-0.03c0,0-0.01-0.01-0.01-0.01c-0.29-0.23-0.57-0.45-0.92-0.59
	c-0.79-0.31-1.65-0.11-2.3,0.39c-0.12,0.09-0.23,0.18-0.35,0.26c-0.06,0.04-0.12,0.08-0.19,0.11c-0.01,0-0.04,0.02-0.05,0.02
	c-0.04,0.02-0.08,0.03-0.13,0.04C7.07,14.81,7.04,14.82,7,14.82c0.06-0.01-0.07,0-0.08,0c-0.1,0-0.18,0-0.23-0.01
	c-0.22-0.04-0.28-0.08-0.47-0.18c-0.31-0.18-0.57-0.42-0.89-0.58c-0.42-0.2-0.88-0.26-1.33-0.16c-0.38,0.08-0.68,0.33-0.96,0.58
	C3,14.51,2.95,14.55,2.9,14.59c0,0-0.05,0.04-0.06,0.05c-0.04,0.03-0.08,0.06-0.13,0.08c-0.13,0.07-0.27,0.11-0.45,0.11
	c-0.56,0.01-0.56,0.88,0,0.87c0.41-0.01,0.79-0.13,1.11-0.38c0.14-0.11,0.27-0.22,0.4-0.33c0.03-0.02,0.06-0.05,0.08-0.07
	c0,0,0,0,0.01-0.01c0.01,0,0.01-0.01,0.02-0.02c0.06-0.05,0.13-0.08,0.2-0.12c-0.01,0.01,0.06-0.03,0.07-0.03
	c0.04-0.01,0.08-0.02,0.12-0.03c0.01,0,0.02,0,0.02-0.01c0.01,0,0.02,0,0.04,0c0.05,0,0.1,0,0.15,0c0.1,0,0.1,0,0.22,0.03
	c0.13,0.03,0.14,0.04,0.22,0.08c0.32,0.16,0.59,0.4,0.89,0.58c0.72,0.43,1.57,0.37,2.24-0.13c0.12-0.09,0.23-0.18,0.35-0.27
	c0.06-0.04,0.13-0.09,0.19-0.12c0.03-0.02,0.07-0.04,0.1-0.06c0.02-0.01,0.03-0.01,0.05-0.02c0,0,0.02-0.01,0.04-0.01
	c0.35-0.13,0.68-0.12,1.03,0.01c0,0,0.07,0.03,0.07,0.03c0.04,0.02,0.07,0.04,0.11,0.06c0.08,0.04,0.15,0.09,0.22,0.15
	c0.01,0,0.04,0.03,0.06,0.04c0.02,0.02,0.04,0.03,0.06,0.05c0.08,0.07,0.17,0.13,0.25,0.2c0.3,0.23,0.65,0.37,1.03,0.38
	c0.05,0,0.09-0.01,0.13-0.02c0.04,0.01,0.08,0.02,0.13,0.02c0.41-0.01,0.79-0.13,1.11-0.38c0.14-0.11,0.27-0.22,0.4-0.33
	c0.03-0.02,0.06-0.05,0.08-0.07c0,0,0,0,0.01-0.01c0.01,0,0.01-0.01,0.02-0.02c0.06-0.05,0.13-0.08,0.2-0.12
	c-0.01,0.01,0.06-0.03,0.07-0.03c0.04-0.01,0.08-0.02,0.12-0.03c0.01,0,0.02,0,0.02-0.01c0.01,0,0.02,0,0.04,0c0.05,0,0.1,0,0.15,0
	c0.1,0,0.1,0,0.22,0.03c0.13,0.03,0.14,0.04,0.22,0.08c0.32,0.16,0.59,0.4,0.89,0.58c0.72,0.43,1.57,0.37,2.24-0.13
	c0.12-0.09,0.23-0.18,0.35-0.27c0.06-0.04,0.13-0.09,0.19-0.12c0.03-0.02,0.07-0.04,0.1-0.06c0.02-0.01,0.03-0.01,0.05-0.02
	c0,0,0.02-0.01,0.04-0.01c0.35-0.13,0.68-0.12,1.03,0.01c0,0,0.07,0.03,0.07,0.03c0.04,0.02,0.07,0.04,0.11,0.06
	c0.08,0.04,0.15,0.09,0.22,0.15c0.01,0,0.04,0.03,0.06,0.04c0.02,0.02,0.04,0.03,0.06,0.05c0.08,0.07,0.17,0.13,0.25,0.2
	c0.3,0.23,0.65,0.37,1.03,0.38C21.83,15.71,21.83,14.84,21.27,14.83z M15.81,10.65c1.38-0.26,2.36-1.55,2.37-2.92
	c-0.01-0.87-0.39-1.72-1.07-2.28c-0.71-0.59-1.62-0.8-2.53-0.64c-1.79,0.33-2.84,2.37-2.15,4.04C13,10.19,14.4,10.92,15.81,10.65z
	 M13.12,7.41c0.03-0.18,0.11-0.42,0.16-0.54c0.07-0.14,0.2-0.35,0.26-0.43c0.11-0.14,0.29-0.31,0.39-0.38
	c0.15-0.11,0.36-0.23,0.48-0.27c0.2-0.08,0.43-0.13,0.6-0.15c0.42-0.04,0.81,0.05,1.15,0.22c0.36,0.18,0.63,0.44,0.83,0.76
	c0.22,0.34,0.32,0.72,0.32,1.12c-0.01,0.73-0.38,1.4-0.99,1.79c-0.31,0.2-0.67,0.3-1.02,0.32c-0.38,0.02-0.74-0.07-1.05-0.22
	c-0.33-0.17-0.59-0.41-0.78-0.68c-0.21-0.31-0.33-0.66-0.36-1C13.09,7.76,13.1,7.52,13.12,7.41z M3.29,9.92
	C4,9.96,4.62,9.5,4.92,8.88c0.05-0.11,0.11-0.21,0.18-0.3c0,0,0,0,0.01-0.01c0.02-0.02,0.04-0.04,0.06-0.06
	c0.03-0.03,0.06-0.06,0.1-0.09c0,0.01,0.08-0.05,0.1-0.07C5.38,8.34,5.39,8.33,5.4,8.32c0.01,0,0.02-0.01,0.02-0.01
	c0.05-0.02,0.1-0.03,0.15-0.04c0,0,0,0,0,0c0.04,0,0.08,0,0.11,0c0.03,0,0.06,0,0.09,0c0,0,0.01,0,0.01,0
	c0.07,0.01,0.13,0.03,0.2,0.05C6.04,8.34,6.1,8.36,6.16,8.39C6.13,8.38,6.22,8.42,6.23,8.42c0.05,0.02,0.1,0.05,0.15,0.08
	c0.39,0.21,0.73,0.49,1.05,0.79C7.73,9.55,8,9.85,8.26,10.15c-1.49,0.55-2.98,1.1-4.47,1.65c-0.26,0.1-0.52,0.19-0.78,0.29
	c-0.22,0.08-0.37,0.29-0.3,0.54c0.06,0.21,0.31,0.39,0.54,0.3c1.7-0.63,3.41-1.25,5.11-1.88c0.26-0.1,0.52-0.19,0.78-0.29
	c0.31-0.11,0.43-0.47,0.19-0.73C8.52,9.14,7.72,8.14,6.6,7.63C6.04,7.38,5.37,7.28,4.83,7.65C4.59,7.81,4.4,8.03,4.25,8.28
	C4.18,8.39,4.13,8.52,4.06,8.63C4.05,8.66,4.03,8.68,4.02,8.7c0.02-0.03-0.03,0.04-0.04,0.05C3.95,8.78,3.93,8.8,3.9,8.83
	C3.89,8.84,3.87,8.86,3.85,8.87C3.8,8.91,3.74,8.94,3.68,8.98c-0.01,0-0.01,0.01-0.02,0.01c0,0,0,0,0,0C3.63,9,3.6,9.01,3.56,9.02
	C3.53,9.03,3.5,9.03,3.47,9.04c-0.01,0-0.03,0-0.04,0.01c-0.06,0.01-0.13,0-0.19,0c0,0-0.01,0-0.01,0C3.18,9.04,3.15,9.03,3.12,9.02
	c-0.01,0-0.03-0.01-0.04-0.01c0,0-0.05-0.02-0.06-0.03C3,8.97,2.97,8.95,2.94,8.93c0,0,0,0,0,0c0,0-0.01,0-0.01-0.01
	C2.91,8.9,2.88,8.88,2.86,8.85C2.85,8.85,2.85,8.84,2.84,8.83c0,0-0.01-0.01-0.02-0.02C2.81,8.78,2.79,8.75,2.78,8.72
	c0-0.01-0.01-0.01-0.01-0.02c0,0,0-0.01,0-0.01c-0.02-0.07-0.04-0.13-0.05-0.2C2.72,8.52,2.7,8.42,2.7,8.41c0-0.04,0-0.09,0-0.13
	c0-0.04,0-0.08,0.01-0.12c0-0.02,0-0.04,0.01-0.06c0-0.01,0-0.01,0-0.02c0.03-0.15,0.07-0.3,0.13-0.45
	C2.83,7.65,2.87,7.55,2.88,7.55c0.02-0.04,0.04-0.07,0.06-0.11c0.05-0.09,0.1-0.17,0.16-0.25c0.16-0.22,0.47-0.49,0.74-0.66
	c0.36-0.22,0.7-0.35,1.12-0.44c0.84-0.19,1.63-0.08,2.39,0.3C8.2,6.8,8.93,7.41,9.61,8.06c0.73,0.69,1.41,1.43,2.11,2.15
	c0.72,0.74,1.45,1.48,2.28,2.08c0.59,0.43,1.22,0.71,1.96,0.64c0.73-0.07,1.45-0.24,2.15-0.43c0.64-0.17,1.27-0.39,1.91-0.53
	c0.01,0,0.02,0,0.03-0.01c0.03,0,0.06,0,0.09-0.01c0.04,0,0.08,0,0.11,0c0.01,0,0.01,0,0.01,0c0,0,0.01,0,0.02,0
	c0.06,0.01,0.11,0.03,0.17,0.05c0,0,0,0,0,0c0,0,0.01,0.01,0.02,0.01c0.03,0.01,0.06,0.03,0.09,0.05c0.02,0.01,0.04,0.02,0.06,0.04
	c0,0,0,0,0,0c0,0,0.01,0.01,0.01,0.01c0.04,0.04,0.08,0.08,0.12,0.12c-0.03-0.03,0.05,0.07,0.06,0.09c0.02,0.03,0.03,0.06,0.05,0.08
	c0,0.01,0.01,0.03,0.02,0.04c0.01,0.04,0.03,0.08,0.04,0.12c0.01,0.03,0.01,0.06,0.02,0.09c0,0,0,0.01,0,0.01c0,0.05,0,0.1,0,0.15
	c0,0.01,0,0.02,0,0.02c0,0.02-0.01,0.04-0.02,0.07c-0.01,0.02-0.01,0.04-0.02,0.06c0,0,0,0,0,0.01c-0.01,0.02-0.06,0.09-0.07,0.11
	c-0.03,0.03-0.07,0.06-0.08,0.07c-0.05,0.03-0.15,0.08-0.08,0.05c-0.22,0.09-0.37,0.29-0.3,0.54c0.06,0.21,0.32,0.39,0.54,0.3
	c0.69-0.27,1-0.92,0.86-1.64c-0.12-0.64-0.68-1.2-1.33-1.3c-0.39-0.06-0.73,0.03-1.1,0.14c-0.37,0.11-0.74,0.21-1.12,0.31
	c-0.42,0.11-0.83,0.22-1.26,0.31c-0.19,0.04-0.38,0.08-0.57,0.11c-0.23,0.04-0.28,0.05-0.48,0.07c-0.13,0.01-0.25,0.02-0.38,0.01
	c0.01,0-0.13-0.02-0.16-0.03c-0.07-0.02-0.15-0.05-0.22-0.07c0.03,0.01-0.06-0.03-0.07-0.03c-0.04-0.02-0.07-0.04-0.11-0.06
	c-0.08-0.04-0.15-0.09-0.23-0.13c-0.16-0.1-0.34-0.23-0.47-0.33c-0.83-0.65-1.57-1.43-2.3-2.19c-0.68-0.7-1.35-1.42-2.07-2.07
	C9.21,6.51,8.43,5.9,7.55,5.51c-0.89-0.4-1.81-0.47-2.77-0.28C3.95,5.4,3.14,5.82,2.57,6.45c-0.53,0.6-0.83,1.4-0.72,2.2
	C1.97,9.39,2.56,9.89,3.29,9.92z M5.4,8.33C5.35,8.35,5.37,8.34,5.4,8.33L5.4,8.33z"/>
</svg>
