<?xml version="1.0" encoding="utf-8"?>
<!-- Generator: Adobe Illustrator 19.2.1, SVG Export Plug-In . SVG Version: 6.00 Build 0)  -->
<svg version="1.1" id="Layer_2" xmlns="http://www.w3.org/2000/svg" xmlns:xlink="http://www.w3.org/1999/xlink" x="0px" y="0px"
	 viewBox="0 0 24 24" style="enable-background:new 0 0 24 24;" xml:space="preserve">
<style type="text/css">
	.st0{fill:#666666;}
</style>
<path class="st0" d="M21.82,18.04l-1.38-1.38l1.32-1.32c0.17-0.17,0.17-0.43,0-0.6l-1.46-1.46l1.2-1.2c0.17-0.17,0.17-0.43,0-0.6
	l-1.68-1.68c-0.08-0.08-0.19-0.12-0.3-0.12s-0.22,0.04-0.3,0.12l-3.6,3.6l-5.09-5.09l3.6-3.6c0.17-0.17,0.17-0.43,0-0.6l-1.68-1.68
	c-0.08-0.08-0.19-0.12-0.3-0.12c-0.11,0-0.22,0.04-0.3,0.12l-1.2,1.2L9.19,2.18c-0.17-0.17-0.43-0.17-0.6,0L7.28,3.5L5.9,2.12
	c-0.17-0.17-0.43-0.17-0.6,0L2.07,5.35c-0.17,0.17-0.17,0.43,0,0.6l1.38,1.38L2.13,8.64c-0.08,0.08-0.12,0.19-0.12,0.3
	s0.04,0.22,0.12,0.3l1.46,1.46l-1.2,1.2c-0.17,0.17-0.17,0.43,0,0.6l1.68,1.68c0.08,0.08,0.19,0.12,0.3,0.12
	c0.11,0,0.22-0.04,0.3-0.12l3.6-3.6l5.09,5.09l-3.6,3.6c-0.17,0.17-0.17,0.43,0,0.6l1.68,1.68c0.08,0.08,0.19,0.12,0.3,0.12
	s0.22-0.04,0.3-0.12l1.2-1.2l1.46,1.46c0.08,0.08,0.19,0.12,0.3,0.12s0.22-0.04,0.3-0.12l1.32-1.32l1.38,1.38
	c0.08,0.08,0.19,0.12,0.3,0.12s0.22-0.04,0.3-0.12l3.23-3.23c0.08-0.08,0.12-0.19,0.12-0.3S21.9,18.12,21.82,18.04z M5.6,3.02
	L6.68,4.1L4.05,6.73L2.97,5.65L5.6,3.02z M8.89,3.08l1.08,1.08l-5.86,5.86L3.03,8.94L8.89,3.08z M4.37,13.29l-1.08-1.08l8.87-8.87
	l1.08,1.08L4.37,13.29z M8.92,10.04l1.08-1.08L15.03,14l-1.08,1.08L8.92,10.04z M11.73,20.65l-1.08-1.08l3.54-3.54
	c0.02-0.01,0.04-0.03,0.06-0.05l1.68-1.68c0.01-0.01,0.01-0.02,0.02-0.03l3.57-3.57l1.08,1.08L11.73,20.65z M15,20.91l-1.08-1.08
	l5.86-5.86l1.08,1.08l-1.31,1.31c0,0,0,0,0,0l-3.23,3.23c0,0,0,0,0,0L15,20.91z M18.29,20.98l-1.08-1.08l2.63-2.63l1.08,1.08
	L18.29,20.98z"/>
</svg>
