<?xml version="1.0" encoding="utf-8"?>
<!-- Generator: Adobe Illustrator 19.2.1, SVG Export Plug-In . SVG Version: 6.00 Build 0)  -->
<svg version="1.1" id="Layer_2" xmlns="http://www.w3.org/2000/svg" xmlns:xlink="http://www.w3.org/1999/xlink" x="0px" y="0px"
	 viewBox="0 0 24 24" style="enable-background:new 0 0 24 24;" xml:space="preserve">
<style type="text/css">
	.st0{fill:#666666;}
</style>
<g>
	<path class="st0" d="M12,21.93c-0.64,0-1.16-0.52-1.16-1.15v-0.35l-0.46,0.46c-0.29,0.29-0.75,0.32-1.08,0.07
		c-0.02-0.02-0.05-0.04-0.08-0.07c-0.15-0.15-0.24-0.36-0.24-0.58c0-0.22,0.09-0.43,0.24-0.58l1.62-1.62v-3.31L8.5,17.13v2.3
		c0,0.41-0.31,0.76-0.71,0.81c-0.03,0-0.07,0.01-0.11,0.01c-0.45,0-0.82-0.37-0.82-0.82v-0.66l-0.25,0.25
		c-0.22,0.22-0.51,0.34-0.82,0.34c-0.31,0-0.6-0.12-0.82-0.34c-0.09-0.09-0.16-0.18-0.21-0.29c-0.09-0.17-0.13-0.37-0.13-0.56
		c0.01-0.29,0.13-0.57,0.34-0.78l0.25-0.25H4.57c-0.45,0-0.82-0.37-0.82-0.82c0-0.45,0.37-0.82,0.82-0.82h2.3l2.34-2.34H5.9
		l-1.62,1.62c-0.29,0.29-0.75,0.32-1.08,0.07c-0.03-0.02-0.06-0.05-0.08-0.07c-0.16-0.16-0.24-0.36-0.24-0.58
		c0-0.22,0.09-0.42,0.24-0.57l0.46-0.46H3.23c-0.38,0-0.74-0.19-0.95-0.5c-0.13-0.19-0.2-0.42-0.2-0.65c0-0.37,0.18-0.72,0.48-0.94
		c0.2-0.14,0.43-0.22,0.67-0.22h0.35l-0.46-0.46c-0.16-0.16-0.24-0.36-0.24-0.58c0-0.22,0.09-0.42,0.24-0.58
		c0.13-0.13,0.31-0.22,0.49-0.23C3.85,8.96,4.1,9.04,4.27,9.22l1.62,1.62h3.31L6.87,8.5h-2.3c-0.45,0-0.82-0.37-0.82-0.82
		c0-0.38,0.27-0.72,0.65-0.8c0.06-0.01,0.12-0.02,0.17-0.02h0.66L4.98,6.61c-0.05-0.05-0.09-0.1-0.14-0.16
		C4.53,5.99,4.59,5.37,4.98,4.98C5.2,4.76,5.49,4.64,5.8,4.64c0,0,0,0,0,0c0.31,0,0.6,0.12,0.82,0.34l0.25,0.25V4.57
		c0-0.45,0.37-0.82,0.82-0.82c0.45,0,0.82,0.37,0.82,0.82v2.3l2.34,2.34V5.9L9.22,4.27C9.07,4.12,8.98,3.91,8.98,3.69
		c0-0.22,0.09-0.42,0.24-0.58c0.32-0.32,0.84-0.32,1.16,0l0.46,0.46V3.23c0-0.64,0.52-1.16,1.16-1.16c0.64,0,1.15,0.52,1.15,1.16
		v0.35l0.46-0.46c0.32-0.32,0.84-0.32,1.16,0c0.32,0.32,0.32,0.84,0,1.16L13.15,5.9v3.31l2.34-2.34v-2.3c0-0.45,0.37-0.82,0.82-0.82
		c0.45,0,0.82,0.37,0.82,0.82v0.66l0.25-0.25c0.22-0.22,0.51-0.34,0.82-0.34c0,0,0,0,0,0c0.31,0,0.6,0.12,0.82,0.34
		c0.22,0.22,0.34,0.51,0.34,0.81c0,0.31-0.12,0.6-0.34,0.82l-0.25,0.25h0.66c0.45,0,0.82,0.37,0.82,0.82c0,0.45-0.37,0.82-0.82,0.82
		h-2.3l-2.34,2.34h3.31l1.62-1.62c0.32-0.32,0.84-0.32,1.16,0c0.32,0.32,0.32,0.84,0,1.16l-0.47,0.47h0.35
		c0.64,0,1.15,0.52,1.15,1.15c0,0.51-0.33,0.95-0.81,1.1c-0.11,0.03-0.22,0.05-0.34,0.05h-0.35l0.46,0.46
		c0.09,0.09,0.16,0.21,0.2,0.33c0.09,0.29,0.02,0.61-0.2,0.83c-0.15,0.15-0.36,0.24-0.58,0.24c0,0,0,0,0,0
		c-0.22,0-0.42-0.09-0.58-0.24l-1.62-1.62h-3.31l2.34,2.34h2.3c0.3,0,0.57,0.16,0.72,0.43c0.07,0.12,0.1,0.25,0.1,0.39
		c0,0.45-0.37,0.82-0.82,0.82h-0.66l0.25,0.25c0.21,0.21,0.33,0.48,0.34,0.77c0.01,0.32-0.11,0.63-0.34,0.86
		c-0.13,0.13-0.3,0.23-0.48,0.29c-0.11,0.03-0.22,0.05-0.34,0.05c-0.31,0-0.6-0.12-0.82-0.34l-0.25-0.25v0.66
		c0,0.19-0.06,0.37-0.18,0.51c-0.12,0.16-0.31,0.27-0.53,0.3c-0.03,0-0.07,0.01-0.11,0.01c-0.45,0-0.82-0.37-0.82-0.82v-2.3
		l-2.34-2.34v3.31l1.62,1.62c0.32,0.32,0.32,0.84,0,1.16c-0.15,0.15-0.36,0.24-0.58,0.24c0,0,0,0,0,0c-0.22,0-0.42-0.09-0.58-0.24
		l-0.46-0.46v0.35c0,0.26-0.09,0.52-0.25,0.72c0,0.01-0.01,0.01-0.01,0.02c-0.1,0.12-0.22,0.22-0.35,0.29
		C12.38,21.88,12.19,21.93,12,21.93z M11.13,19.46c0.04,0,0.07,0.01,0.11,0.02c0.11,0.04,0.17,0.15,0.17,0.26v1.03
		c0,0.33,0.26,0.59,0.59,0.59c0.1,0,0.19-0.02,0.27-0.07c0.07-0.04,0.12-0.08,0.17-0.13c0-0.01,0.01-0.01,0.01-0.02
		c0.09-0.1,0.13-0.23,0.13-0.37v-1.03c0-0.11,0.07-0.22,0.17-0.26c0.11-0.04,0.23-0.02,0.31,0.06l0.95,0.95
		c0.05,0.05,0.11,0.08,0.18,0.08h0c0.07,0,0.13-0.03,0.18-0.07c0.1-0.1,0.1-0.26,0-0.36l-1.71-1.71c-0.05-0.05-0.08-0.12-0.08-0.2
		v-4.11c0-0.11,0.07-0.22,0.17-0.26c0.11-0.04,0.23-0.02,0.31,0.06l2.91,2.91c0.05,0.05,0.08,0.12,0.08,0.2v2.41
		c0,0.14,0.11,0.26,0.26,0.26c0.01,0,0.02,0,0.03,0c0.07-0.01,0.13-0.04,0.17-0.09c0.04-0.05,0.06-0.1,0.06-0.16v-1.34
		c0-0.11,0.07-0.22,0.17-0.26c0.11-0.04,0.23-0.02,0.31,0.06l0.73,0.73c0.15,0.15,0.39,0.21,0.59,0.15
		c0.09-0.03,0.18-0.08,0.24-0.15c0.12-0.12,0.18-0.27,0.17-0.44c-0.01-0.15-0.07-0.29-0.17-0.4l-0.73-0.73
		c-0.08-0.08-0.1-0.2-0.06-0.31c0.04-0.11,0.15-0.17,0.26-0.17h1.34c0.14,0,0.25-0.11,0.25-0.26c0-0.04-0.01-0.08-0.03-0.12
		c-0.05-0.08-0.13-0.13-0.23-0.14h-2.41c-0.07,0-0.15-0.03-0.2-0.08l-2.91-2.91c-0.08-0.08-0.1-0.2-0.06-0.31
		c0.04-0.11,0.15-0.17,0.26-0.17h4.11c0.07,0,0.15,0.03,0.2,0.08l1.71,1.71c0.05,0.05,0.11,0.08,0.18,0.08h0
		c0.07,0,0.13-0.03,0.18-0.07c0.07-0.07,0.09-0.17,0.06-0.26c-0.01-0.04-0.03-0.08-0.06-0.1l-0.95-0.95
		c-0.08-0.08-0.1-0.2-0.06-0.31c0.04-0.11,0.15-0.17,0.26-0.17h1.03c0.06,0,0.12-0.01,0.17-0.03c0.25-0.08,0.42-0.31,0.42-0.56
		c0-0.33-0.26-0.59-0.59-0.59h-1.03c-0.11,0-0.22-0.07-0.26-0.17c-0.04-0.11-0.02-0.23,0.06-0.31l0.95-0.95c0.1-0.1,0.1-0.26,0-0.36
		c-0.1-0.1-0.26-0.1-0.36,0l-1.7,1.71c-0.05,0.05-0.12,0.08-0.2,0.08h-4.11c-0.11,0-0.22-0.07-0.26-0.17
		c-0.04-0.11-0.02-0.23,0.06-0.31l2.91-2.91c0.05-0.05,0.12-0.08,0.2-0.08h2.41c0.14,0,0.25-0.11,0.25-0.26
		c0-0.14-0.11-0.25-0.25-0.25h-1.34c-0.11,0-0.22-0.07-0.26-0.17c-0.04-0.11-0.02-0.23,0.06-0.31l0.73-0.73
		c0.11-0.11,0.17-0.26,0.17-0.42c0-0.16-0.06-0.3-0.17-0.42c-0.11-0.11-0.26-0.17-0.42-0.17c0,0,0,0,0,0
		c-0.16,0-0.31,0.06-0.42,0.17l-0.73,0.73c-0.08,0.08-0.2,0.1-0.31,0.06c-0.11-0.04-0.17-0.15-0.17-0.26V4.57
		c0-0.14-0.11-0.25-0.25-0.25c-0.14,0-0.26,0.11-0.26,0.25v2.41c0,0.07-0.03,0.15-0.08,0.2l-2.91,2.91c-0.08,0.08-0.2,0.1-0.31,0.06
		c-0.11-0.04-0.17-0.15-0.17-0.26V5.78c0-0.07,0.03-0.15,0.08-0.2l1.71-1.71c0.1-0.1,0.1-0.26,0-0.36c-0.1-0.1-0.26-0.1-0.36,0
		l-0.95,0.95c-0.08,0.08-0.2,0.1-0.31,0.06c-0.11-0.04-0.17-0.15-0.17-0.26V3.23c0-0.33-0.26-0.59-0.59-0.59
		c-0.33,0-0.59,0.26-0.59,0.59v1.03c0,0.11-0.07,0.22-0.17,0.26c-0.11,0.04-0.23,0.02-0.31-0.06L9.98,3.51c-0.1-0.1-0.26-0.1-0.36,0
		C9.57,3.56,9.55,3.63,9.55,3.69c0,0.07,0.03,0.13,0.08,0.18l1.71,1.71c0.05,0.05,0.08,0.12,0.08,0.2v4.11
		c0,0.11-0.07,0.22-0.17,0.26c-0.11,0.04-0.23,0.02-0.31-0.06L8.02,7.19c-0.05-0.05-0.08-0.12-0.08-0.2V4.57
		c0-0.14-0.12-0.25-0.26-0.25c-0.14,0-0.26,0.11-0.26,0.25v1.34c0,0.11-0.07,0.22-0.17,0.26C7.15,6.22,7.03,6.19,6.94,6.11
		L6.21,5.38C6.1,5.27,5.95,5.21,5.8,5.21c0,0,0,0,0,0c-0.16,0-0.31,0.06-0.42,0.17c-0.2,0.2-0.23,0.52-0.07,0.75
		c0.02,0.03,0.05,0.06,0.07,0.09l0.73,0.73c0.08,0.08,0.1,0.2,0.06,0.31C6.13,7.36,6.02,7.43,5.91,7.43H4.57
		c-0.02,0-0.04,0-0.06,0.01c-0.11,0.02-0.2,0.13-0.2,0.25c0,0.14,0.11,0.26,0.26,0.26h2.41c0.07,0,0.15,0.03,0.2,0.08l2.91,2.91
		c0.08,0.08,0.1,0.2,0.06,0.31c-0.04,0.11-0.15,0.17-0.26,0.17H5.78c-0.07,0-0.15-0.03-0.2-0.08L3.87,9.62
		c-0.05-0.05-0.13-0.08-0.2-0.07C3.61,9.55,3.56,9.58,3.51,9.62C3.47,9.67,3.44,9.73,3.44,9.8c0,0.07,0.03,0.13,0.08,0.18l0.95,0.95
		c0.08,0.08,0.1,0.2,0.06,0.31c-0.04,0.11-0.15,0.17-0.26,0.17H3.23c-0.12,0-0.24,0.04-0.34,0.11C2.73,11.63,2.64,11.81,2.64,12
		c0,0.12,0.04,0.23,0.1,0.33c0.11,0.16,0.29,0.26,0.49,0.26h1.03c0.11,0,0.22,0.07,0.26,0.17c0.04,0.11,0.02,0.23-0.06,0.31
		l-0.95,0.95c-0.05,0.05-0.07,0.11-0.07,0.18c0,0.07,0.03,0.13,0.07,0.18c0.01,0.01,0.02,0.02,0.03,0.02
		c0.1,0.08,0.24,0.07,0.33-0.02l1.71-1.71c0.05-0.05,0.12-0.08,0.2-0.08h4.11c0.11,0,0.22,0.07,0.26,0.17
		c0.04,0.11,0.02,0.23-0.06,0.31l-2.91,2.91c-0.05,0.05-0.12,0.08-0.2,0.08H4.57c-0.14,0-0.26,0.12-0.26,0.26
		c0,0.14,0.11,0.26,0.26,0.26h1.34c0.11,0,0.22,0.07,0.26,0.17c0.04,0.11,0.02,0.23-0.06,0.31l-0.73,0.73
		c-0.11,0.11-0.17,0.25-0.17,0.4c0,0.1,0.02,0.2,0.07,0.29c0.03,0.05,0.06,0.1,0.11,0.15c0.11,0.11,0.26,0.17,0.42,0.17
		c0.16,0,0.31-0.06,0.42-0.17l0.73-0.73c0.08-0.08,0.2-0.11,0.31-0.06c0.11,0.04,0.17,0.15,0.17,0.26v1.34
		c0,0.14,0.11,0.26,0.26,0.26c0.01,0,0.02,0,0.03,0c0.13-0.02,0.23-0.13,0.23-0.26v-2.41c0-0.07,0.03-0.15,0.08-0.2l2.91-2.91
		c0.08-0.08,0.2-0.1,0.31-0.06c0.11,0.04,0.17,0.15,0.17,0.26v4.11c0,0.07-0.03,0.15-0.08,0.2l-1.71,1.71
		c-0.05,0.05-0.08,0.11-0.08,0.18c0,0.07,0.03,0.13,0.07,0.18c0.01,0.01,0.01,0.01,0.02,0.02c0.11,0.08,0.25,0.07,0.34-0.02
		l0.95-0.95C10.98,19.48,11.05,19.46,11.13,19.46z"/>
</g>
</svg>
