<?xml version="1.0" encoding="utf-8"?>
<!-- Generator: Adobe Illustrator 19.2.1, SVG Export Plug-In . SVG Version: 6.00 Build 0)  -->
<svg version="1.1" id="Layer_2" xmlns="http://www.w3.org/2000/svg" xmlns:xlink="http://www.w3.org/1999/xlink" x="0px" y="0px"
	 viewBox="0 0 24 24" style="enable-background:new 0 0 24 24;" xml:space="preserve">
<style type="text/css">
	.st0{fill:#666666;}
</style>
<path class="st0" d="M22.05,17.07c-0.07-0.13-0.21-0.21-0.35-0.2l-8.64,0.64l-1.24,0.05v-0.98h3.13c3.33,0,4.68-1.35,5.22-2.48
	c0.89-1.84,0.28-4.38-1.62-6.78c-1.42-1.79-3.68-3.22-6.73-4.25v-0.2c0-0.2-0.16-0.36-0.36-0.36c-0.2,0-0.36,0.16-0.36,0.36v0.88
	c-1.53,5.88-3.15,9.38-7.72,12.16C3.24,16,3.17,16.17,3.22,16.33c0.04,0.16,0.19,0.27,0.35,0.27h7.53v1.01l-7.78,0.32
	c-0.1,0-0.19,0.05-0.26,0.12c-0.07,0.08-0.1,0.17-0.09,0.27l0.22,2.3c-0.23,0.09-0.48,0.14-0.73,0.14c-0.2,0-0.36,0.16-0.36,0.36
	s0.16,0.36,0.36,0.36c0.93,0,1.79-0.46,2.36-1.22c0.57,0.77,1.43,1.22,2.36,1.22c0.93,0,1.79-0.46,2.36-1.22
	c0.57,0.77,1.43,1.22,2.36,1.22c0.93,0,1.79-0.46,2.36-1.22c0.57,0.77,1.43,1.22,2.36,1.22c0.93,0,1.79-0.46,2.36-1.22
	c0.01,0.02,0.03,0.04,0.05,0.06c0.01,0.02,0.03,0.04,0.05,0.06c0.57,0.69,1.38,1.11,2.26,1.11c0.2,0,0.36-0.16,0.36-0.36
	s-0.16-0.36-0.36-0.36c-0.57,0-1.11-0.24-1.53-0.65l2.21-2.64C22.1,17.36,22.12,17.2,22.05,17.07z M17.98,7.78
	c1.7,2.15,2.29,4.45,1.54,6.02c-0.65,1.35-2.23,2.07-4.57,2.07h-2.78c2.27-3.28,2.29-6.54,0.1-11.85
	C14.84,4.97,16.76,6.24,17.98,7.78z M11.82,15.09V4.85C13.79,9.89,13.4,12.64,11.82,15.09z M4.8,15.86c2.7-1.86,4.65-4.27,6.3-9.48
	v9.48H4.8z M19.36,19.51c-0.02-0.04-0.04-0.07-0.06-0.1c-0.06-0.13-0.19-0.21-0.33-0.21s-0.27,0.08-0.33,0.21
	c-0.4,0.84-1.18,1.36-2.03,1.36c-0.85,0-1.63-0.52-2.03-1.36c-0.06-0.13-0.19-0.21-0.33-0.21s-0.27,0.08-0.33,0.21
	c-0.4,0.84-1.18,1.36-2.03,1.36c-0.85,0-1.63-0.52-2.03-1.36C9.8,19.28,9.68,19.2,9.54,19.2c-0.14,0-0.27,0.08-0.33,0.21
	c-0.4,0.84-1.18,1.36-2.03,1.36c-0.85,0-1.63-0.52-2.03-1.36c-0.06-0.13-0.19-0.21-0.33-0.21c-0.14,0-0.27,0.08-0.33,0.21
	C4.34,19.72,4.13,20,3.88,20.21l-0.15-1.58l9.37-0.39l7.79-0.58L19.36,19.51z"/>
</svg>
