<svg id="Layer_1" data-name="Layer 1" xmlns="http://www.w3.org/2000/svg" viewBox="0 0 140 139.99756"><defs><style>.cls-1{fill:#41494f;}</style></defs><title>Alert</title><path class="cls-1" d="M69.99988,0A69.99878,69.99878,0,1,1,0,69.99866,70.07809,70.07809,0,0,1,69.99988,0Zm0,134.6133A64.61453,64.61453,0,1,0,5.38669,69.99866,64.68739,64.68739,0,0,0,69.99988,134.6133Z"/><path class="cls-1" d="M63.87944,99.45108a6.30111,6.30111,0,0,1,1.74473-4.37783A6.14564,6.14564,0,0,1,72.387,93.7447a6.401,6.401,0,0,1,1.96482,1.32855,6.06372,6.06372,0,0,1,1.30454,1.96882,6.23967,6.23967,0,0,1,.46419,2.409,6.02931,6.02931,0,0,1-1.76874,4.37783,5.94193,5.94193,0,0,1-1.96482,1.30454,6.49344,6.49344,0,0,1-4.822,0,5.68219,5.68219,0,0,1-1.94081-1.30454,6.26083,6.26083,0,0,1-1.27653-1.94481A6.16221,6.16221,0,0,1,63.87944,99.45108ZM74.3038,34.39992V62.52366c0,1.47261-.024,2.92122-.076,4.32981q-.072,2.11288-.22009,4.24977c-.096,1.42459-.22009,2.88921-.36815,4.37783s-.32013,3.08929-.51622,4.794H67.17282q-.29412-2.55707-.51622-4.794c-.14806-1.48862-.27211-2.95323-.36815-4.37783q-.15006-2.13689-.22009-4.24977c-.052-1.40859-.076-2.85719-.076-4.32981V34.39992Z"/></svg>