<svg id="Layer_1" data-name="Layer 1" xmlns="http://www.w3.org/2000/svg" viewBox="0 0 30 27.99994"><defs><style>.cls-1{fill:#41494e;}</style></defs><title>FavOff</title><path class="cls-1" d="M30,10.695,19.63525,9.217,15,0,10.36475,9.217,0,10.695l7.5,7.17444L5.72949,27.99994,15,23.217l9.27051,4.783L22.5,17.86945ZM15.917,21.43964,15,20.96649l-.917.47314-5.6897,2.93549,1.07684-6.16132.18378-1.05164-.77142-.73792L4.3559,12.09412l6.2912-.89716,1.03479-.14758.46967-.93384L15,4.45148l2.84851,5.66406.4696.93384,1.03479.14758,6.2912.89716-4.52661,4.33014-.77142.73792.18378,1.05164,1.07684,6.16132Z"/></svg>