<svg id="Layer_1" data-name="Layer 1" xmlns="http://www.w3.org/2000/svg" viewBox="0 0 20.06689 18.58594"><defs><style>.cls-1{fill:#41494e;}</style></defs><title>Filters</title><path class="cls-1" d="M12.89258,15.3457H.75a.75.75,0,0,0,0,1.5H12.89276a2.4739,2.4739,0,0,0,4.72522,0h1.69891a.75.75,0,0,0,0-1.5H17.61816a2.47374,2.47374,0,0,0-4.72559,0Zm3.35352.75a.99072.99072,0,1,1-.99072-.99121A.99161.99161,0,0,1,16.24609,16.0957Z"/><path class="cls-1" d="M2.44885,8.543H.75a.75.75,0,0,0,0,1.5H2.44873a2.47374,2.47374,0,0,0,4.72559,0H19.31689a.75.75,0,0,0,0-1.5H7.17419a2.474,2.474,0,0,0-4.72534,0Zm3.35339.75a.99072.99072,0,1,1-.99072-.99023A.99182.99182,0,0,1,5.80225,9.293Z"/><path class="cls-1" d="M11.77393,0a2.48516,2.48516,0,0,0-2.3623,1.74121H.75a.75.75,0,0,0,0,1.5H9.41174a2.47361,2.47361,0,0,0,4.72479,0h5.18036a.75.75,0,0,0,0-1.5H14.13672A2.48537,2.48537,0,0,0,11.77393,0Zm.99072,2.49121A.99048.99048,0,1,1,11.77393,1.5.99161.99161,0,0,1,12.76465,2.49121Z"/></svg>