<svg id="Layer_1" data-name="Layer 1" xmlns="http://www.w3.org/2000/svg" viewBox="0 0 61.8672 66.77637"><defs><style>.cls-1{fill:#41494f;}</style></defs><title>LogOut</title><path class="cls-1" d="M12.27441,66.77637A12.28757,12.28757,0,0,1,0,54.50293V12.27441A12.28778,12.28778,0,0,1,12.27441,0H30.08105a1.72607,1.72607,0,0,1,1.72363,1.72461,1.70578,1.70578,0,0,1-1.72363,1.72461H12.27441a8.83521,8.83521,0,0,0-8.8252,8.8252V54.50293a8.835,8.835,0,0,0,8.8252,8.82422H29.7959a1.72461,1.72461,0,0,1,0,3.44922Z"/><path class="cls-1" d="M47.90137,47.373a1.72934,1.72934,0,0,1-1.21289-.51172,1.71526,1.71526,0,0,1,0-2.43848l9.29395-9.2959H16.45215a1.72628,1.72628,0,0,1-1.72461-1.72461,1.70578,1.70578,0,0,1,1.72461-1.72363H55.98242l-9.29395-9.29492a1.72565,1.72565,0,1,1,2.44043-2.44043L61.36035,32.17578a1.67843,1.67843,0,0,1,.50684,1.20117,1.75039,1.75039,0,0,1-.52051,1.25293L49.11426,46.86133A1.683,1.683,0,0,1,47.90137,47.373Z"/></svg>