<svg id="Layer_1" data-name="Layer 1" xmlns="http://www.w3.org/2000/svg" viewBox="0 0 45.0434 80"><defs><style>.cls-1{fill:#41494e;}</style></defs><title>Medal</title><path class="cls-1" d="M32.37494,37.22179V30.66061A2.9653,2.9653,0,0,0,29.413,27.69869H15.63036a2.9653,2.9653,0,0,0-2.96191,2.96192v6.56118a22.5217,22.5217,0,1,0,19.70649,0ZM15.48367,30.66061a.15052.15052,0,0,1,.14669-.14671H29.413a.15052.15052,0,0,1,.1467.14671v5.41916a22.61265,22.61265,0,0,0-14.07606,0Zm7.038,45.11657A18.29888,18.29888,0,1,1,40.82058,57.4783,18.2989,18.2989,0,0,1,22.5217,75.77718Z"/><circle class="cls-1" cx="22.5217" cy="57.4783" r="14.07606"/><polygon class="cls-1" points="44.98 0 31.977 0 24.112 13.623 30.613 24.883 44.98 0"/><polygon class="cls-1" points="15.771 24.883 18.9 24.883 27.369 24.883 13.003 0 0 0 14.366 24.883 15.771 24.883"/></svg>