<svg id="Layer_1" data-name="Layer 1" xmlns="http://www.w3.org/2000/svg" viewBox="0 0 66.28 66.26"><defs><style>.cls-1{fill:#41494f;}</style></defs><title>ICNMore</title><path class="cls-1" d="M61.83,16.57A33.11,33.11,0,0,0,16.58,4.44,33.12,33.12,0,1,0,49.7,61.82,33.12,33.12,0,0,0,61.83,16.57ZM62.47,41A30.38,30.38,0,0,1,33.17,63.5,30.48,30.48,0,0,1,6.84,48.31,30.37,30.37,0,0,1,33.11,2.76,30.48,30.48,0,0,1,59.43,17.95,30.17,30.17,0,0,1,62.47,41Z" transform="translate(0)"/><polygon class="cls-1" points="34.7 19.13 31.55 19.13 31.55 31.59 19.66 31.59 19.66 34.61 31.55 34.61 31.55 47.13 34.7 47.13 34.7 34.61 46.62 34.61 46.62 31.59 34.7 31.59 34.7 19.13"/></svg>