<svg id="Layer_1" data-name="Layer 1" xmlns="http://www.w3.org/2000/svg" viewBox="0 0 21.44525 21.44531"><defs><style>.cls-1{fill:#41494e;}</style></defs><title>Play</title><path class="cls-1" d="M10.72284,0A10.72266,10.72266,0,1,0,21.44525,10.72284,10.72323,10.72323,0,0,0,10.72284,0Zm6.55377,17.27661a9.26858,9.26858,0,1,1,2.71478-6.55377A9.2348,9.2348,0,0,1,17.27661,17.27661Z"/><path class="cls-1" d="M14.45337,9.09766,9.908,6.06689a1.95333,1.95333,0,0,0-3.03711,1.625v6.061a1.95234,1.95234,0,0,0,3.03711,1.626l4.54492-3.03125a1.95215,1.95215,0,0,0,.00049-3.25Zm-.83154,2.002-4.5459,3.03125a.45364.45364,0,0,1-.70508-.37793v-6.061a.44342.44342,0,0,1,.23926-.39941.4709.4709,0,0,1,.21777-.05566.44074.44074,0,0,1,.248.07813l4.5459,3.03076a.45314.45314,0,0,1,0,.75391Z"/></svg>