<svg id="Layer_1" data-name="Layer 1" xmlns="http://www.w3.org/2000/svg" viewBox="0 0 68.82861 62.40381"><defs><style>.cls-1{fill:#41494f;}</style></defs><title>7s&amp;amp;Gems</title><path class="cls-1" d="M47.70654,62.40381H14.90186v-1.5c0-5.57812.53809-15.959,4.14209-22.80762,4.02051-7.63965,8.32373-11.66016,12.83887-14.71191C30.27,23.189,28.646,22.82373,27.043,22.46338c-2.917-.65625-5.67139-1.27441-8.2168-.9043-4.27148.624-6.86523,4.8623-6.86523,6.55957v1.5H0V2.77539H11.94141v1.043C22.69481-2.37646,36.06641.2627,41.99463,2.72363c5.87793,2.43994,15.07031.40283,17.91553-1.47656l.90576-.59766,8.0127,6.33447-1.08105,1.189C55.58789,21.55029,52.417,31.395,49.78174,41.97314c-1.34814,5.41406-2.0752,15.85547-2.0752,18.93066Zm-29.79-3H44.74072c.1626-4.27148.89746-13.20508,2.12988-18.15527,2.65625-10.66211,5.83789-20.6084,17.585-33.89746L60.60352,4.30566C56.229,6.54981,47.02,8.05811,40.84424,5.49414,35.00879,3.07178,21.33154.43457,11.33057,7.79443L8.94141,9.55322V5.77539H3V26.61865H9.18408a11.852,11.852,0,0,1,9.209-8.02832h.00049c3.0918-.4502,6.25244.25879,9.30713.94629,3.90234.877,7.58789,1.70605,10.55664-.0166l1.50488,2.5957-.01562.00879-.77441.44824c-6.45361,3.73047-12.02735,6.95215-17.27295,16.91992C18.623,45.33838,18.00977,54.50147,17.9165,59.40381Z"/></svg>