<svg id="Layer_1" data-name="Layer 1" xmlns="http://www.w3.org/2000/svg" viewBox="0 0 69.86837 67.4333"><defs><style>.cls-1{fill:#41494f;}</style></defs><title>Bonus_Feature_Slots</title><path class="cls-1" d="M64.21138,16.22809A5.66265,5.66265,0,0,0,62.8899,27.4l-.072,17.18384a5.76557,5.76557,0,0,1-5.76782,5.75061l-3.02759-.00476.05408-34.02954a8.35874,8.35874,0,0,0-8.26019-8.35986l.00671-4.23914A3.65175,3.65175,0,0,0,42.181.04792L12.014,0a3.65072,3.65072,0,0,0-3.65259,3.6416L8.35469,7.88074A8.35733,8.35733,0,0,0,.068,16.2143L0,59.00947A8.36083,8.36083,0,0,0,8.338,67.374l37.306.05927a8.36161,8.36161,0,0,0,8.36456-8.338l.00983-6.17413L57.046,52.926a8.36078,8.36078,0,0,0,8.36456-8.33459l.072-17.1839a5.66259,5.66259,0,0,0-1.27112-11.17938ZM10.95405,3.6457A1.05625,1.05625,0,0,1,12.0099,2.59144l30.16693.04791A1.05651,1.05651,0,0,1,43.23054,3.697l-.00671,4.23517L10.94734,7.88086ZM51.416,59.09113a5.76567,5.76567,0,0,1-5.76782,5.75073l-37.306-.05927a5.76585,5.76585,0,0,1-5.75073-5.769l.068-42.7951a5.76623,5.76623,0,0,1,5.769-5.75073l37.306.05927A5.76608,5.76608,0,0,1,51.484,16.296ZM64.19752,24.9679a3.07444,3.07444,0,1,1,3.07825-3.069A3.07748,3.07748,0,0,1,64.19752,24.9679Z"/><path class="cls-1" d="M13.7527,45.39063a5.2024,5.2024,0,1,0,5.19537,5.21063A5.20837,5.20837,0,0,0,13.7527,45.39063ZM13.74031,53.204a2.61093,2.61093,0,1,1,2.61517-2.60681A2.61329,2.61329,0,0,1,13.74031,53.204Z"/><path class="cls-1" d="M27.02607,45.41169a5.20243,5.20243,0,1,0,5.194,5.21069A5.20865,5.20865,0,0,0,27.02607,45.41169Zm-.01245,7.81342a2.61093,2.61093,0,1,1,2.61505-2.60687A2.61357,2.61357,0,0,1,27.01362,53.2251Z"/><path class="cls-1" d="M40.29811,45.4328a5.2024,5.2024,0,1,0,5.19415,5.21063A5.20843,5.20843,0,0,0,40.29811,45.4328Zm-.01239,7.81335a2.61093,2.61093,0,1,1,2.615-2.60681A2.61347,2.61347,0,0,1,40.28572,53.24616Z"/><path class="cls-1" d="M44.81721,23.67072l-2.874-.25586-1.2627-2.77148a1.26726,1.26726,0,0,0-2.30762-.002l-1.26465,2.77344-2.87012.25684a1.26152,1.26152,0,0,0-.95868.60132,1.2663,1.2663,0,0,0-.95636-.60229l-2.874-.25586-1.2627-2.77148a1.26766,1.26766,0,0,0-1.15137-.74316h-.00293a1.27182,1.27182,0,0,0-1.15332.74121l-1.26465,2.77344-2.86914.25684a1.26351,1.26351,0,0,0-.95959.6015,1.26624,1.26624,0,0,0-.95642-.60248l-2.873-.25586-1.26367-2.77344-.001-.001a1.26754,1.26754,0,0,0-2.30664.001l-1.26465,2.77344L9.2508,23.6717a1.26686,1.26686,0,0,0-.78418,2.16113l2.15723,2.1416-.53223,2.74023a1.26784,1.26784,0,0,0,1.80957,1.375l2.63574-1.31348,2.63672,1.32422a1.26661,1.26661,0,0,0,1.81152-1.374L18.452,27.9715l2.15527-2.13672a1.24275,1.24275,0,0,0,.17828-.23566,1.25418,1.25418,0,0,0,.17523.2337l2.15723,2.1416-.53223,2.74023a1.26784,1.26784,0,0,0,1.80957,1.375l2.63477-1.31348,2.63574,1.32324a1.26755,1.26755,0,0,0,1.81348-1.373l-.53418-2.75488,2.15625-2.13672a1.24347,1.24347,0,0,0,.17834-.23572,1.25026,1.25026,0,0,0,.17517.23376l2.15723,2.1416-.53223,2.73633a1.26787,1.26787,0,0,0,1.80957,1.37891l2.63477-1.31348L42.16,32.09943a1.26755,1.26755,0,0,0,1.81348-1.373l-.53418-2.75488,2.1582-2.13867a1.26806,1.26806,0,0,0-.78027-2.16211ZM16.66487,26.92756a.9982.9982,0,0,0-.27734.90039l.35156,1.81543-1.751-.87891a.99619.99619,0,0,0-.44922-.10645,1.011,1.011,0,0,0-.44629.10449l-1.75391.874.35059-1.80371a1.00292,1.00292,0,0,0-.27637-.90137L10.994,25.52326l1.88379-.168a1.00116,1.00116,0,0,0,.82129-.58105l.83984-1.8418.83887,1.8418a1.00116,1.00116,0,0,0,.82129.58105l1.88184.168Zm12.49316,0a.9982.9982,0,0,0-.27734.90039l.35156,1.81543-1.752-.87891a.99217.99217,0,0,0-.44824-.10645,1.011,1.011,0,0,0-.44629.10449l-1.75293.874.35059-1.80371a1.00292,1.00292,0,0,0-.27637-.90137l-1.41895-1.4082,1.88379-.168a1.00116,1.00116,0,0,0,.82129-.58105l.83887-1.84082.83887,1.84082a1.00116,1.00116,0,0,0,.82129.58105l1.88281.168Zm12.49414,0a.9982.9982,0,0,0-.27734.90039l.35156,1.81543-1.752-.87891a.99217.99217,0,0,0-.44824-.10645,1.011,1.011,0,0,0-.44629.10449l-1.75293.874.35059-1.80371a1.00292,1.00292,0,0,0-.27637-.90137l-1.41895-1.4082,1.88379-.168a1.00116,1.00116,0,0,0,.82129-.58105l.83887-1.84082.83887,1.84082a1.00116,1.00116,0,0,0,.82129.58105l1.88281.168Z"/></svg>