<svg id="Layer_1" data-name="Layer 1" xmlns="http://www.w3.org/2000/svg" viewBox="0 0 69.8683 67.43324"><defs><style>.cls-1{fill:#41494f;}</style></defs><title>Free_Spins_Reel_Band_Action</title><path class="cls-1" d="M64.21144,16.22809A5.66265,5.66265,0,0,0,62.8899,27.4l-.072,17.18384a5.76549,5.76549,0,0,1-5.76782,5.75061l-3.02753-.00482.054-34.02948a8.35874,8.35874,0,0,0-8.26019-8.35986l.00671-4.23914A3.65167,3.65167,0,0,0,42.18092.04792L12.014,0A3.65076,3.65076,0,0,0,8.3614,3.64161L8.35469,7.88074A8.35742,8.35742,0,0,0,.06794,16.2143L0,59.00947A8.36083,8.36083,0,0,0,8.338,67.374l37.306.0592a8.36144,8.36144,0,0,0,8.3645-8.338l.00983-6.17407L57.046,52.926a8.3606,8.3606,0,0,0,8.36444-8.33459l.072-17.1839a5.66259,5.66259,0,0,0-1.271-11.17938ZM10.954,3.6457A1.05626,1.05626,0,0,1,12.0099,2.59144l30.16693.04791A1.05642,1.05642,0,0,1,43.23048,3.697l-.00671,4.23517L10.94728,7.88086ZM51.416,59.09113a5.76572,5.76572,0,0,1-5.76788,5.75073l-37.306-.05927a5.76593,5.76593,0,0,1-5.75073-5.769l.068-42.7951a5.76625,5.76625,0,0,1,5.769-5.75073l37.306.05927A5.766,5.766,0,0,1,51.484,16.296ZM64.19752,24.9679a3.07444,3.07444,0,1,1,3.07825-3.069A3.07744,3.07744,0,0,1,64.19752,24.9679Z"/><path class="cls-1" d="M46.71369,13.464H7.513a2.30853,2.30853,0,0,0-2.30609,2.30524V35.36957A2.30871,2.30871,0,0,0,7.513,37.67566H46.71369a2.30871,2.30871,0,0,0,2.30609-2.30609V15.76923A2.30853,2.30853,0,0,0,46.71369,13.464ZM19.04249,35.36957H7.513V15.76923H19.04249Zm13.83557,0H21.34852V15.76923H32.87806Zm13.83563,0H35.18415V15.76923H46.71369Z"/><path class="cls-1" d="M13.27772,55.74653a1.15222,1.15222,0,0,0-1.15259,1.15259A2.30609,2.30609,0,1,1,9.819,54.593a1.15259,1.15259,0,0,0,0-2.30518,4.61172,4.61172,0,1,0,4.61212,4.61127A1.153,1.153,0,0,0,13.27772,55.74653Z"/><path class="cls-1" d="M24.8072,55.74653a1.15226,1.15226,0,0,0-1.15259,1.15259A2.30606,2.30606,0,1,1,21.34852,54.593a1.15259,1.15259,0,1,0,0-2.30518,4.61172,4.61172,0,1,0,4.61218,4.61127A1.153,1.153,0,0,0,24.8072,55.74653Z"/><path class="cls-1" d="M36.33674,55.74653a1.15222,1.15222,0,0,0-1.15259,1.15259A2.30609,2.30609,0,1,1,32.87806,54.593a1.15259,1.15259,0,0,0,0-2.30518,4.61172,4.61172,0,1,0,4.61218,4.61127A1.153,1.153,0,0,0,36.33674,55.74653Z"/><path class="cls-1" d="M47.86628,55.74653a1.15222,1.15222,0,0,0-1.15259,1.15259A2.30609,2.30609,0,1,1,44.4076,54.593a1.15259,1.15259,0,0,0,0-2.30518,4.61172,4.61172,0,1,0,4.61218,4.61127A1.153,1.153,0,0,0,47.86628,55.74653Z"/><path class="cls-1" d="M9.819,23.84a1.15226,1.15226,0,0,0,1.15259-1.15259h3.2807a12.28252,12.28252,0,0,0-2.1272,6.91736,1.153,1.153,0,1,0,2.306,0,9.91361,9.91361,0,0,1,3.05408-7.19318c.00977-.00842.01819-.01764.02814-.02679.01617-.01477.03241-.02954.04718-.045.01331-.01337.02594-.0274.038-.04144l.03656-.04163c.01263-.01624.02448-.03241.03583-.04919.00995-.01349.02039-.02753.02954-.04163.01117-.01691.02112-.03436.03174-.05133.00848-.0155.01746-.03027.02521-.04645.00922-.01678.01691-.03369.02466-.05066.00775-.01764.01624-.03442.02325-.05206l.01837-.04913c.00635-.0191.01337-.038.01892-.05786.00488-.01624.00848-.03223.01263-.04919.005-.01978.00989-.03943.01349-.05908.00342-.01837.00562-.03656.0083-.05493.00287-.01837.00574-.03656.0072-.05566.002-.02252.00269-.04431.00342-.06683.00073-.01263.00214-.02521.00214-.03876l-.00067-.00775c0-.02521-.0022-.0506-.0036-.07526-.00073-.01337-.00128-.02594-.00275-.03857-.00287-.02539-.007-.05078-.01135-.076l-.00555-.03656c-.00488-.02325-.0119-.04645-.01837-.0697-.00342-.01331-.00629-.02686-.01044-.03943-.00562-.01892-.01337-.038-.02039-.05621-.00574-.01624-.01135-.03314-.01837-.04938-.00555-.01331-.01263-.02667-.01892-.04-.00989-.02057-.0191-.04163-.02972-.062-.00629-.01129-.014-.02179-.02032-.03241-.01263-.02179-.02527-.04358-.03949-.0647-.007-.01062-.0155-.02051-.02325-.03094-.01477-.02039-.02954-.04089-.04553-.05981l-.00507-.00562c-.00848-.01062-.01819-.019-.02667-.029-.01477-.01672-.02954-.033-.04572-.04846a.52966.52966,0,0,0-.04218-.038c-.01355-.01263-.02686-.02472-.04089-.03662-.01624-.01257-.03314-.02466-.04993-.03656l-.04089-.02954c-.01691-.01135-.03436-.02124-.05206-.03168-.0155-.00848-.03027-.0177-.045-.02545-.01764-.00916-.03436-.01672-.05206-.02448-.01691-.00848-.03387-.01624-.05133-.02325-.01617-.00647-.03314-.01276-.04938-.01837-.01886-.00629-.038-.01331-.05762-.01892-.01624-.005-.03314-.00842-.04993-.01276-.019-.00488-.0387-.00977-.05853-.01337-.01892-.00342-.03729-.00629-.05621-.00842-.01837-.00275-.03583-.00562-.05493-.00775-.02252-.002-.04578-.002-.069-.00342-.0119-.00073-.02454-.0022-.03729-.0022H9.819a1.15269,1.15269,0,0,0-1.15259,1.15259v1.1535A1.15222,1.15222,0,0,0,9.819,23.84Z"/><path class="cls-1" d="M23.65461,23.84a1.15222,1.15222,0,0,0,1.15259-1.15259h3.2807a12.28252,12.28252,0,0,0-2.1272,6.91736,1.15259,1.15259,0,1,0,2.30518,0,9.91053,9.91053,0,0,1,3.05481-7.19318c.00989-.00842.01837-.01764.02759-.02679.01617-.01477.033-.02954.04773-.045.01349-.01337.02539-.0274.038-.04144.01282-.01422.02472-.02759.03607-.04163.01331-.01624.02448-.03241.03656-.04919.0097-.01349.02039-.02753.02954-.04163.01117-.01691.02106-.03436.031-.05133.009-.0155.01819-.03027.02594-.04645.00916-.01678.01691-.03369.02466-.05066.00775-.01764.01624-.03442.02325-.05206.00629-.01617.0119-.03241.01746-.04913.0072-.0191.01349-.038.01984-.05786l.01257-.04919c.00507-.01978.00995-.03943.01337-.05908.0036-.01837.00574-.03656.00848-.05493.00214-.01837.00555-.03656.007-.05566.00214-.02252.00287-.04431.0036-.06683,0-.01263.00214-.02521.00214-.03876l-.00073-.00775c0-.02521-.00214-.0506-.0036-.07526-.0014-.01337-.0014-.02594-.00287-.03857-.00269-.02539-.007-.05078-.01117-.076-.00214-.012-.0036-.02466-.00629-.03656-.00488-.02325-.01135-.04645-.0177-.0697-.00342-.01331-.00629-.02686-.01044-.03943-.00574-.01892-.01349-.038-.02051-.05621-.00562-.01624-.01117-.03314-.01819-.04938-.0058-.01331-.01282-.02667-.0191-.04-.00977-.02057-.01892-.04163-.03027-.062-.00555-.01129-.01331-.02179-.01965-.03241-.01257-.02179-.02539-.04358-.03943-.0647-.007-.01062-.01624-.02051-.02325-.03094-.0155-.02039-.03027-.04089-.04645-.05981l-.00415-.00562c-.00848-.01062-.01837-.019-.02667-.029-.0155-.01672-.02954-.033-.04578-.04846-.01349-.01331-.02826-.02612-.0423-.038-.01337-.01263-.02667-.02472-.04071-.03662-.01624-.01257-.0332-.02466-.05011-.03656-.01331-.00989-.02667-.02051-.04071-.02954-.01691-.01135-.03461-.02124-.05206-.03168-.0155-.00848-.03027-.0177-.04578-.02545-.01691-.00916-.03387-.01672-.05133-.02448-.01691-.00848-.03387-.01624-.05133-.02325-.01624-.007-.03314-.01276-.04938-.01837-.01892-.00629-.038-.01331-.05762-.01892-.01624-.005-.03314-.00842-.05011-.01276-.01892-.00488-.03857-.00977-.05908-.01337-.01819-.00409-.03656-.00629-.05548-.00916l-.05493-.007c-.02252-.002-.04578-.00275-.069-.00342-.01257-.00073-.02448-.0022-.03729-.0022H23.65461a1.15351,1.15351,0,0,0-1.1535,1.15259v1.1535A1.153,1.153,0,0,0,23.65461,23.84Z"/><path class="cls-1" d="M37.49025,23.84a1.15269,1.15269,0,0,0,1.15259-1.15259h3.2807a12.28232,12.28232,0,0,0-2.12811,6.91736,1.153,1.153,0,1,0,2.30609,0,9.91413,9.91413,0,0,1,3.05408-7.19318c.00989-.00842.0191-.01764.02826-.02679.01605-.01477.03229-.02954.04773-.045.01337-.01337.02545-.0274.038-.04144.01208-.01422.02472-.02759.03589-.04163.01276-.01624.02466-.03241.03674-.04919l.02954-.04163c.01044-.01691.02106-.03436.03076-.05133.00922-.0155.0177-.03027.02612-.04645.00922-.01678.017-.03369.02472-.05066l.02319-.05206c.00635-.01617.0119-.03241.01752-.04913.007-.0191.01331-.038.0191-.05786.00482-.01624.00916-.03223.01257-.04919.00488-.01978.00995-.03943.014-.05908.0036-.01837.00562-.03656.00848-.05493l.007-.05566c.0022-.02252.00287-.04431.0036-.06683l.00128-.03876v-.00775c0-.02521-.002-.0506-.00415-.07526-.00073-.01337-.00073-.02594-.00214-.03857-.00275-.02539-.007-.05078-.01117-.076-.0022-.012-.0036-.02466-.00635-.03656-.005-.02325-.01135-.04645-.01764-.0697-.00415-.01331-.00629-.02686-.01062-.03943-.00562-.01892-.01331-.038-.02039-.05621-.00629-.01624-.01117-.03314-.01819-.04938-.00574-.01331-.01276-.02667-.019-.04-.00995-.02057-.01892-.04163-.03027-.062-.00562-.01129-.01337-.02179-.01965-.03241-.01282-.02179-.02539-.04358-.03943-.0647l-.024-.03094c-.01477-.02039-.02954-.04089-.04578-.05981l-.00415-.00562c-.00842-.01062-.01837-.019-.02753-.029-.01477-.01672-.02954-.033-.045-.04846-.014-.01331-.02814-.02612-.04291-.0387-.01331-.0119-.02661-.024-.04071-.03589-.01617-.01257-.03314-.02466-.04932-.03656-.0141-.00989-.02667-.02051-.04071-.02954-.0177-.01135-.03534-.02124-.0528-.03168-.01477-.00848-.02954-.0177-.045-.02545-.017-.00916-.03461-.01746-.05133-.02521-.017-.00775-.03387-.0155-.05151-.02252-.01678-.007-.033-.01276-.04993-.01837-.01892-.007-.038-.01331-.05695-.01892-.01617-.005-.03314-.00916-.05-.01349-.01965-.00488-.03949-.0097-.05908-.01331-.01819-.00342-.03729-.00562-.05621-.00848-.01764-.00269-.03607-.00562-.05426-.007-.02319-.002-.04572-.00275-.069-.00342-.01263-.00073-.02466-.0022-.03729-.0022H37.49025a1.15336,1.15336,0,0,0-1.1535,1.15259v1.1535A1.15289,1.15289,0,0,0,37.49025,23.84Z"/></svg>