<svg id="Layer_1" data-name="Layer 1" xmlns="http://www.w3.org/2000/svg" viewBox="0 0 58.72562 67.50293"><defs><style>.cls-1{fill:#41494f;}</style></defs><title>Fruits</title><path class="cls-1" d="M58.156,33.27344a8.87352,8.87352,0,0,0-8.59326-5.748c-8.68213-7.05957-17.92139-8.60547-28.22461-4.72559-10.30225,3.87891-16.228,11.13379-18.09961,22.166A8.88077,8.88077,0,0,0,9.16237,60.7002c5.5874,4.54395,11.40381,6.80371,17.5874,6.80273A30.10252,30.10252,0,0,0,37.387,65.42676c10.30273-3.87891,16.22852-11.13379,18.1001-22.167A8.88589,8.88589,0,0,0,58.156,33.27344ZM53.23561,41.207l-.519.36719-.09717.62793c-1.00586,6.51074-3.78857,15.71094-16.28906,20.417-12.50049,4.70312-20.65967-.374-25.70947-4.60449l-.4873-.40918-.63281.06641A5.881,5.881,0,0,1,5.49,47.01855l.519-.36719.09717-.62793c1.00586-6.51074,3.78857-15.71,16.28906-20.416,12.50293-4.707,20.65967.375,25.709,4.60352l.48779.40918.63232-.06641A5.88116,5.88116,0,0,1,53.23561,41.207Z"/><path class="cls-1" d="M50.14723,25.35156l1.21045.41016.59766-1.12988c.16992-.32129,4.12842-7.94531,1.4751-14.61426C50.77761,3.34863,42.66335.52783,42.31911.41113L41.10866,0,40.511,1.13037c-.16992.32129-4.12842,7.94482-1.4751,14.61475C41.68874,22.41406,49.803,25.23438,50.14723,25.35156ZM42.60866,3.77051c2.14844.98193,6.45068,3.375,8.03467,7.35645,1.58447,3.9834.09961,8.68066-.78662,10.86719-2.146-.97461-6.44238-3.3584-8.03369-7.3584C40.239,10.6543,41.72194,5.959,42.60866,3.77051Z"/><path class="cls-1" d="M32.88991,26.02734c-.061,0-.12256.001-.18311.001-3.52246.08008-8.22852,1.3125-10.4082,3.51367a1.5002,1.5002,0,0,0,2.13184,2.11133c1.36084-1.375,5.10352-2.55273,8.32568-2.625a12.19116,12.19116,0,0,1,7.76855,2.41895,1.49968,1.49968,0,1,0,1.92188-2.30273A15.24613,15.24613,0,0,0,32.88991,26.02734Z"/></svg>