<svg id="Layer_1" data-name="Layer 1" xmlns="http://www.w3.org/2000/svg" viewBox="0 0 69.86837 67.4333"><defs><style>.cls-1{fill:#41494f;}</style></defs><title>Vegas_Jackpots</title><path class="cls-1" d="M44.2508,16.463,9.8921,16.40845a1.29558,1.29558,0,0,0-1.29767,1.2937L8.56678,35.092a1.29494,1.29494,0,0,0,1.29358,1.29663l34.3587.05463a1.29505,1.29505,0,0,0,1.29779-1.29254l.02759-17.38989A1.29569,1.29569,0,0,0,44.2508,16.463ZM20.02095,33.814l-8.8595-.014.0235-14.79846,8.8595.014Zm11.45319.01825-8.8606-.0141.0235-14.79846,8.8606.014Zm11.45325.01819-8.86053-.0141.0097-6.10376,8.86053.0141Zm.01379-8.69531-8.86053-.0141.0097-6.10315,8.86053.014Z"/><path class="cls-1" d="M64.21138,16.22809A5.66265,5.66265,0,0,0,62.8899,27.4l-.072,17.18384a5.76553,5.76553,0,0,1-5.76782,5.75061l-3.02759-.00476.05408-34.02954a8.35874,8.35874,0,0,0-8.26019-8.35986l.00671-4.23914A3.65171,3.65171,0,0,0,42.181.04792L12.014,0a3.65072,3.65072,0,0,0-3.65259,3.6416L8.35475,7.88074A8.35734,8.35734,0,0,0,.068,16.2143L0,59.00947A8.36092,8.36092,0,0,0,8.33808,67.374l37.306.05927a8.3616,8.3616,0,0,0,8.3645-8.338l.00983-6.17413L57.046,52.926a8.36078,8.36078,0,0,0,8.36456-8.33459l.072-17.1839a5.66259,5.66259,0,0,0-1.27112-11.17938ZM10.95405,3.6457A1.05625,1.05625,0,0,1,12.0099,2.59144l30.167.04791A1.0565,1.0565,0,0,1,43.23054,3.697l-.00671,4.23517L10.94734,7.88086ZM51.416,59.09113a5.76563,5.76563,0,0,1-5.76782,5.75073l-37.306-.05927a5.76593,5.76593,0,0,1-5.75073-5.769l.068-42.7951a5.76629,5.76629,0,0,1,5.769-5.75073l37.306.05927A5.766,5.766,0,0,1,51.484,16.296ZM64.19752,24.9679a3.07444,3.07444,0,1,1,3.07825-3.069A3.07752,3.07752,0,0,1,64.19752,24.9679Z"/><path class="cls-1" d="M27.02607,45.41169a5.20243,5.20243,0,1,0,5.194,5.21069A5.20869,5.20869,0,0,0,27.02607,45.41169Zm-.01245,7.81342a2.61093,2.61093,0,1,1,2.61505-2.60687A2.61361,2.61361,0,0,1,27.01362,53.2251Z"/><path class="cls-1" d="M40.29811,45.4328a5.2024,5.2024,0,1,0,5.19415,5.21063A5.20843,5.20843,0,0,0,40.29811,45.4328Zm-.01239,7.81335a2.61093,2.61093,0,1,1,2.615-2.60681A2.61351,2.61351,0,0,1,40.28572,53.24616Z"/><path class="cls-1" d="M13.75276,45.39063a5.2024,5.2024,0,1,0,5.19531,5.21063A5.20842,5.20842,0,0,0,13.75276,45.39063ZM13.74031,53.204a2.61093,2.61093,0,1,1,2.61517-2.60681A2.61329,2.61329,0,0,1,13.74031,53.204Z"/></svg>