<svg id="Layer_1" data-name="Layer 1" xmlns="http://www.w3.org/2000/svg" viewBox="0 0 70.57336 55.87054"><defs><style>.cls-1{fill:#41494f;}</style></defs><title>Vegas_Tables</title><path class="cls-1" d="M61.62744,0H8.9458A8.95621,8.95621,0,0,0,0,8.94659V20.58386a35.28668,35.28668,0,1,0,70.57336,0V8.94659A8.95616,8.95616,0,0,0,61.62744,0Zm6.00537,20.58386a32.34613,32.34613,0,1,1-64.69226,0V8.94659A6.01219,6.01219,0,0,1,8.9458,2.94049H61.62744a6.01229,6.01229,0,0,1,6.00537,6.0061Z"/><path class="cls-1" d="M55.22437,14.70276h-.8241a19.11359,19.11359,0,0,1-38.22717,0H10.93738v2.94055h2.49695a21.87049,21.87049,0,0,0,1.55774,5.68842l-2.58435,1.49213L13.87793,27.371l2.45142-1.41534a22.21219,22.21219,0,0,0,4.56726,5.4389l-2.94177,2.94305,2.0791,2.0791,3.11865-3.12006-.61487-.61487a21.97959,21.97959,0,0,0,25.49536.00177l-.61316.6131,3.11938,3.12006,2.0791-2.0791-2.94214-2.94275a22.20665,22.20665,0,0,0,4.5675-5.4389l2.45081,1.415,1.47034-2.54712-2.58386-1.49176a21.8692,21.8692,0,0,0,1.55786-5.68878h2.49634V14.70276H55.22437Z"/><rect class="cls-1" x="26.46497" y="8.82166" width="17.64343" height="2.94055"/></svg>