<svg id="Layer_1" data-name="Layer 1" xmlns="http://www.w3.org/2000/svg" viewBox="0 0 69.47852 63.02441"><defs><style>.cls-1{fill:#41494f}</style></defs><title>20Lines</title><path class="cls-1" d="M16.195 38.724a6.994 6.994 0 0 0 .87-2.856l15.057.059-15.03 16.92a6.94 6.94 0 0 0-.897-3.27v-.002a7.054 7.054 0 0 0-6.142-3.651H7.049A7.057 7.057 0 0 0 0 52.973v3.004a7.057 7.057 0 0 0 7.049 7.047h3.004a7.056 7.056 0 0 0 6.86-5.46L34.658 37.59l17.975 20.236a7.056 7.056 0 0 0 6.795 5.198h3.004a7.056 7.056 0 0 0 7.048-7.047v-3.004a7.057 7.057 0 0 0-7.048-7.05h-3.004a7.055 7.055 0 0 0-6.142 3.652 6.921 6.921 0 0 0-.907 3.398v.05l-15.17-17.077 15.214.06a7.12 7.12 0 0 0 7.005 6.369h3.004a7.056 7.056 0 0 0 7.048-7.048v-3.004a7.057 7.057 0 0 0-7.048-7.049h-3.004a7.11 7.11 0 0 0-7.05 7.05v.681l-14.495-.056L52.6 16.38a7.257 7.257 0 0 0 .685 1.694 7.055 7.055 0 0 0 6.142 3.652h3.004a7.057 7.057 0 0 0 7.048-7.05v-3.003a7.056 7.056 0 0 0-7.048-7.048h-3.004a7.057 7.057 0 0 0-7.05 7.048v.44l-17.72 19.95L17.1 12.3v-.626a7.056 7.056 0 0 0-7.048-7.048H7.049A7.057 7.057 0 0 0 0 11.674v3.004a7.057 7.057 0 0 0 7.049 7.049h3.004a7.048 7.048 0 0 0 6.167-3.698 7.34 7.34 0 0 0 .615-1.512L31.41 32.924l-14.308-.056v-.545a6.931 6.931 0 0 0-.906-3.396m0-.001a7.054 7.054 0 0 0-6.142-3.652H7.049A7.057 7.057 0 0 0 0 32.324v3.003a7.057 7.057 0 0 0 7.049 7.048h3.004a7.053 7.053 0 0 0 6.141-3.65m43.233-10.45h3.004a4.053 4.053 0 0 1 4.048 4.048v3.004a4.052 4.052 0 0 1-4.048 4.048h-3.004a4.053 4.053 0 0 1-3.52-2.11 3.957 3.957 0 0 1-.53-1.938v-3.004a3.952 3.952 0 0 1 .611-2.094 4.024 4.024 0 0 1 3.439-1.955zm-4.05-16.601a4.053 4.053 0 0 1 4.05-4.048h3.004a4.052 4.052 0 0 1 4.048 4.048v3.004a4.053 4.053 0 0 1-4.048 4.049h-3.004a4.053 4.053 0 0 1-3.52-2.11 3.957 3.957 0 0 1-.53-1.94zm-41.276 3.004a3.961 3.961 0 0 1-.514 1.912 4.046 4.046 0 0 1-3.534 2.137H7.049A4.054 4.054 0 0 1 3 14.677v-3.003a4.053 4.053 0 0 1 4.049-4.048h3.004a4.052 4.052 0 0 1 4.048 4.048zm-4.048 24.697H7.049A4.053 4.053 0 0 1 3 35.327v-3.004a4.054 4.054 0 0 1 4.049-4.049h3.004a4.052 4.052 0 0 1 3.52 2.11 3.967 3.967 0 0 1 .528 1.94v3.003a3.967 3.967 0 0 1-.529 1.94 4.052 4.052 0 0 1-3.52 2.108zM14.1 55.977a4.052 4.052 0 0 1-4.048 4.047H7.049A4.053 4.053 0 0 1 3 55.977v-3.004a4.054 4.054 0 0 1 4.049-4.05h3.004a4.051 4.051 0 0 1 3.52 2.11 3.967 3.967 0 0 1 .528 1.94zm41.277-3.004a3.957 3.957 0 0 1 .528-1.939 4.053 4.053 0 0 1 3.52-2.11h3.005a4.053 4.053 0 0 1 4.048 4.049v3.004a4.052 4.052 0 0 1-4.048 4.047h-3.004a4.053 4.053 0 0 1-4.05-4.047z"/><path class="cls-1" d="M34.093 12.865h-5.881v-.048l1.44-1.2c2.256-2.016 4.153-4.104 4.153-6.72C33.805 2.063 31.86 0 28.332 0a8.632 8.632 0 0 0-5.112 1.608l1.032 2.617a5.652 5.652 0 0 1 3.336-1.297c1.8 0 2.568 1.009 2.568 2.28-.048 1.824-1.704 3.576-5.112 6.625l-2.017 1.824v2.208h11.066zM41.34 16.129c3.984 0 5.928-3.312 5.928-8.137C47.268 3.72 45.636 0 41.46 0c-4.032 0-5.953 3.576-5.953 8.089.024 4.416 1.8 8.04 5.833 8.04zm.072-13.37c1.464 0 2.208 1.825 2.208 5.282 0 3.552-.769 5.328-2.185 5.328s-2.28-1.704-2.255-5.28c-.025-3.625.887-5.33 2.232-5.33z"/></svg>