<svg id="Layer_1" data-name="Layer 1" xmlns="http://www.w3.org/2000/svg" viewBox="0 0 69.47852 59.76074"><defs><style>.cls-1{fill:#41494f}</style></defs><title>5Lines</title><path class="cls-1" d="M40.697 10.394a4.442 4.442 0 0 0-1.896-3.914 7.136 7.136 0 0 0-4.104-1.127 6.786 6.786 0 0 0-1.009.047l.336-2.4h6.049V0H31.48l-1.032 8.185a13.515 13.515 0 0 1 2.112-.144c3.12 0 4.393.984 4.393 2.592 0 1.656-1.609 2.377-3.12 2.377a8.967 8.967 0 0 1-3.529-.769l-.648 2.737a9.917 9.917 0 0 0 4.345.887c4.2 0 6.696-2.568 6.696-5.471z"/><path class="cls-1" d="M16.195 35.46a6.992 6.992 0 0 0 .87-2.855l15.057.058-15.03 16.92a6.941 6.941 0 0 0-.897-3.27v-.002a7.054 7.054 0 0 0-6.142-3.65H7.049A7.057 7.057 0 0 0 0 49.708v3.004a7.057 7.057 0 0 0 7.049 7.048h3.004a7.056 7.056 0 0 0 6.86-5.46l17.744-19.975 17.976 20.236a7.055 7.055 0 0 0 6.794 5.199h3.004a7.056 7.056 0 0 0 7.048-7.048v-3.004a7.057 7.057 0 0 0-7.048-7.049h-3.004a7.055 7.055 0 0 0-6.142 3.652 6.921 6.921 0 0 0-.907 3.397v.05l-15.17-17.076 15.214.059a7.12 7.12 0 0 0 7.005 6.37h3.004a7.056 7.056 0 0 0 7.048-7.049V29.06a7.057 7.057 0 0 0-7.048-7.05h-3.004a7.11 7.11 0 0 0-7.05 7.05v.681l-14.495-.056L52.6 13.117a7.262 7.262 0 0 0 .685 1.695 7.055 7.055 0 0 0 6.142 3.65h3.004a7.057 7.057 0 0 0 7.048-7.048V8.41a7.056 7.056 0 0 0-7.048-7.048h-3.004a7.057 7.057 0 0 0-7.05 7.048v.44L34.658 28.8 17.1 9.036V8.41a7.056 7.056 0 0 0-7.048-7.048H7.049A7.057 7.057 0 0 0 0 8.41v3.004a7.057 7.057 0 0 0 7.049 7.049h3.004a7.048 7.048 0 0 0 6.167-3.697 7.326 7.326 0 0 0 .615-1.512L31.41 29.66l-14.308-.055v-.545a6.931 6.931 0 0 0-.906-3.397m0 0a7.054 7.054 0 0 0-6.142-3.652H7.049A7.057 7.057 0 0 0 0 29.06v3.003a7.057 7.057 0 0 0 7.049 7.048h3.004a7.053 7.053 0 0 0 6.141-3.65M55.378 8.41a4.053 4.053 0 0 1 4.049-4.049h3.004a4.052 4.052 0 0 1 4.048 4.048v3.004a4.053 4.053 0 0 1-4.048 4.049h-3.004a4.053 4.053 0 0 1-3.52-2.11 3.958 3.958 0 0 1-.53-1.939zM14.1 11.413a3.961 3.961 0 0 1-.514 1.912 4.046 4.046 0 0 1-3.534 2.137H7.049A4.054 4.054 0 0 1 3 11.414V8.41a4.053 4.053 0 0 1 4.049-4.048h3.004A4.052 4.052 0 0 1 14.1 8.41zm0 20.65a3.967 3.967 0 0 1-.529 1.939 4.052 4.052 0 0 1-3.52 2.108H7.05A4.053 4.053 0 0 1 3 32.063V29.06a4.054 4.054 0 0 1 4.049-4.05h3.004a4.052 4.052 0 0 1 3.52 2.11 3.967 3.967 0 0 1 .528 1.94zm0 20.649a4.052 4.052 0 0 1-4.048 4.048H7.049A4.053 4.053 0 0 1 3 52.713v-3.004a4.054 4.054 0 0 1 4.049-4.049h3.004a4.051 4.051 0 0 1 3.52 2.11 3.967 3.967 0 0 1 .528 1.939zm41.277-3.004a3.958 3.958 0 0 1 .528-1.938 4.053 4.053 0 0 1 3.52-2.11h3.005a4.053 4.053 0 0 1 4.048 4.048v3.004a4.052 4.052 0 0 1-4.048 4.048h-3.004a4.053 4.053 0 0 1-4.05-4.048zm0-20.65a3.952 3.952 0 0 1 .61-2.093 4.024 4.024 0 0 1 3.439-1.955h3.004a4.053 4.053 0 0 1 4.048 4.049v3.004a4.052 4.052 0 0 1-4.048 4.047h-3.004a4.053 4.053 0 0 1-3.52-2.109 3.958 3.958 0 0 1-.53-1.938z"/></svg>