<svg id="Layer_1" data-name="Layer 1" xmlns="http://www.w3.org/2000/svg" viewBox="0 0 75.52954 68.58466"><defs><style>.cls-1{fill:#41494f}</style></defs><title>InShop</title><path class="cls-1" d="M36.669 20.51V14.6h9.538v3.148a1.404 1.404 0 1 0 2.808 0v-4.553a1.409 1.409 0 0 0-1.404-1.404H36.67a12.151 12.151 0 0 0-24.292 0H1.405A1.41 1.41 0 0 0 0 13.195v45.667a9.735 9.735 0 0 0 9.707 9.707h21.36a1.405 1.405 0 1 0 0-2.809H9.707a6.906 6.906 0 0 1-6.898-6.898V14.6h9.537v5.91a1.404 1.404 0 1 0 2.809 0V14.6H33.86v5.91a1.404 1.404 0 1 0 2.809 0zm-21.514-8.704a9.352 9.352 0 0 1 18.69 0z"/><path class="cls-1" d="M74.125 32.564H65.56v-1.883a9.916 9.916 0 0 0-19.832.016v1.882h-8.565a1.41 1.41 0 0 0-1.405 1.405v28.042a6.564 6.564 0 0 0 6.56 6.559H68.97a6.564 6.564 0 0 0 6.56-6.56V33.969a1.41 1.41 0 0 0-1.405-1.404zM48.52 30.697a7.115 7.115 0 1 1 14.23 0v1.882h-14.23zm24.2 31.329a3.755 3.755 0 0 1-3.75 3.75H42.316a3.754 3.754 0 0 1-3.75-3.75V35.372h7.161v3.936a1.405 1.405 0 0 0 2.81 0v-3.936h14.228v3.936a1.405 1.405 0 0 0 2.81 0v-3.936h7.145z"/></svg>