<svg id="Layer_1" data-name="Layer 1" xmlns="http://www.w3.org/2000/svg" viewBox="0 0 69.47852 58.39844"><defs><style>.cls-1{fill:#41494f}</style></defs><title>Multilines</title><path class="cls-1" d="M16.195 34.098a6.992 6.992 0 0 0 .87-2.856l15.057.059-15.03 16.92a6.94 6.94 0 0 0-.897-3.27v-.002a7.054 7.054 0 0 0-6.142-3.651H7.049A7.057 7.057 0 0 0 0 48.347v3.004a7.057 7.057 0 0 0 7.049 7.047h3.004a7.056 7.056 0 0 0 6.86-5.46l17.744-19.974L52.633 53.2a7.056 7.056 0 0 0 6.794 5.198h3.004a7.056 7.056 0 0 0 7.048-7.047v-3.004a7.057 7.057 0 0 0-7.048-7.05h-3.004a7.055 7.055 0 0 0-6.142 3.652 6.921 6.921 0 0 0-.907 3.398v.05L37.208 31.32l15.214.06a7.12 7.12 0 0 0 7.005 6.369h3.004a7.056 7.056 0 0 0 7.048-7.048v-3.004a7.057 7.057 0 0 0-7.048-7.049h-3.004a7.11 7.11 0 0 0-7.05 7.05v.681l-14.495-.056L52.6 11.755a7.262 7.262 0 0 0 .685 1.694 7.055 7.055 0 0 0 6.142 3.652h3.004a7.057 7.057 0 0 0 7.048-7.05V7.049A7.056 7.056 0 0 0 62.43 0h-3.004a7.057 7.057 0 0 0-7.05 7.048v.44l-17.72 19.95L17.1 7.674v-.626A7.056 7.056 0 0 0 10.053 0H7.049A7.057 7.057 0 0 0 0 7.048v3.004A7.057 7.057 0 0 0 7.049 17.1h3.004a7.048 7.048 0 0 0 6.167-3.698 7.327 7.327 0 0 0 .615-1.512L31.41 28.298l-14.308-.056v-.545a6.931 6.931 0 0 0-.906-3.396m0-.001a7.054 7.054 0 0 0-6.142-3.652H7.049A7.057 7.057 0 0 0 0 27.698V30.7a7.057 7.057 0 0 0 7.049 7.048h3.004a7.053 7.053 0 0 0 6.141-3.65m43.233-10.45h3.004a4.053 4.053 0 0 1 4.048 4.048v3.004a4.052 4.052 0 0 1-4.048 4.048h-3.004a4.053 4.053 0 0 1-3.52-2.11 3.958 3.958 0 0 1-.53-1.938v-3.004a3.952 3.952 0 0 1 .611-2.093 4.024 4.024 0 0 1 3.439-1.956zm-4.05-16.601A4.053 4.053 0 0 1 59.428 3h3.004a4.052 4.052 0 0 1 4.048 4.048v3.004A4.053 4.053 0 0 1 62.43 14.1h-3.004a4.053 4.053 0 0 1-3.52-2.11 3.958 3.958 0 0 1-.53-1.94zm-41.276 3.004a3.961 3.961 0 0 1-.514 1.912 4.046 4.046 0 0 1-3.534 2.137H7.049A4.054 4.054 0 0 1 3 10.05V7.049A4.053 4.053 0 0 1 7.049 3h3.004A4.052 4.052 0 0 1 14.1 7.048zm-4.048 24.697H7.049A4.053 4.053 0 0 1 3 30.701v-3.004a4.054 4.054 0 0 1 4.049-4.049h3.004a4.052 4.052 0 0 1 3.52 2.11 3.967 3.967 0 0 1 .528 1.94V30.7a3.967 3.967 0 0 1-.529 1.94 4.052 4.052 0 0 1-3.52 2.108zM14.1 51.351a4.052 4.052 0 0 1-4.048 4.047H7.049A4.053 4.053 0 0 1 3 51.351v-3.004a4.054 4.054 0 0 1 4.049-4.05h3.004a4.051 4.051 0 0 1 3.52 2.11 3.967 3.967 0 0 1 .528 1.94zm41.277-3.004a3.958 3.958 0 0 1 .528-1.939 4.053 4.053 0 0 1 3.52-2.11h3.005a4.053 4.053 0 0 1 4.048 4.049v3.004a4.052 4.052 0 0 1-4.048 4.047h-3.004a4.053 4.053 0 0 1-4.05-4.047z"/></svg>