<svg id="Layer_1" data-name="Layer 1" xmlns="http://www.w3.org/2000/svg" viewBox="0 0 55.14844 78.75293"><defs><style>.cls-1{fill:#41494f;}</style></defs><title>Arcade</title><rect class="cls-1" x="4.88867" y="22.81445" width="3" height="4.88965"/><rect class="cls-1" x="4.88867" y="11.40723" width="3" height="4.88867"/><rect class="cls-1" x="4.88867" width="3" height="4.88867"/><rect class="cls-1" x="47.25977" y="22.81445" width="3" height="4.88965"/><rect class="cls-1" x="47.25977" y="11.40723" width="3" height="4.88867"/><rect class="cls-1" x="47.25977" width="3" height="4.88867"/><path class="cls-1" d="M27.57422,31.09277c-3.75684,0-4.75879,7.69141-4.75879,12.23633,0,9.31348,3.32813,10.31934,4.75879,10.31934S32.334,52.64258,32.334,43.3291C32.334,38.78418,31.33105,31.09277,27.57422,31.09277Zm0,19.55566c-.27344,0-1.75879-1.34961-1.75879-7.31934,0-5.21582,1.12109-8.30078,1.75879-9.09961.6377.79883,1.75977,3.88379,1.75977,9.09961C29.334,49.29883,27.84766,50.64844,27.57422,50.64844Z"/><path class="cls-1" d="M49.667,31.39844l-1.165-.88477-.91309,1.14258c-.19922.248-4.55371,5.76563-5.15039,12.47363H38.85254V44c0-5.127-2.16895-14.8916-4.02539-21.69531C30.55469,6.64844,28.61621,6.64844,27.57422,6.64844s-2.98047,0-7.252,15.65625C18.46484,29.1084,16.29688,38.873,16.29688,44v.12988H12.71094c-.59668-6.709-4.95215-12.22656-5.15137-12.47461l-.91406-1.1416-1.16406.88477C5.25781,31.56836,0,35.71484,0,48.88965c0,6.67773,1.21289,10.31543,5.19238,15.57129l1.10938,1.46484L7.51563,64.5459c1.49023-1.69531,4.36035-5.83984,5.08984-9.26758h7.38379a25.98924,25.98924,0,0,0,1.78809,4.165l.44434.67969H32.92676l.44434-.67969a25.98924,25.98924,0,0,0,1.78809-4.165h7.38477c.73047,3.42676,3.59863,7.57129,5.08887,9.26758l1.21387,1.38086,1.10938-1.46582c3.97949-5.25586,5.19238-8.89355,5.19238-15.57129C55.14844,35.71484,49.89063,31.56836,49.667,31.39844ZM48.7041,61.07422c-1.74512-2.41113-3.333-5.53906-3.333-7.2959v-1.5H33.01563l-.34473,1.02051C32.28516,54.44434,31.665,56.12207,31.21,57.123H23.93848c-.45508-1.001-1.0752-2.67871-1.46094-3.82422l-.34473-1.02051H9.77832v1.5c0,1.75684-1.58789,4.88574-3.334,7.29688C3.77148,57.17578,3,54.24316,3,48.88965c0-7.84277,1.9834-12,3.25488-13.85937,1.34668,2.12109,3.52344,6.22754,3.52344,10.59961v1.5h8.01855l1.5-.05762V44c0-8.26172,5.72559-28.916,8.27734-33.668C30.127,15.084,35.85254,35.73828,35.85254,44v3.12988h9.51855v-1.5c0-4.37109,2.1748-8.47559,3.52148-10.59766,1.27637,1.86621,3.25586,6.02344,3.25586,13.85742C52.14844,54.24316,51.376,57.17578,48.7041,61.07422Z"/><polygon class="cls-1" points="27.545 71.175 24.006 62.962 21.25 64.149 27.545 78.753 33.841 64.149 31.085 62.962 27.545 71.175"/></svg>