<svg id="Layer_1" data-name="Layer 1" xmlns="http://www.w3.org/2000/svg" viewBox="0 0 61.37542 65.98744"><defs><style>.cls-1{fill:#41494f;}</style></defs><title>Casino_Games</title><path class="cls-1" d="M55.89611.044,28.2213,0A5.49515,5.49515,0,0,0,22.754,4.92768L15.443,6.36909a5.5037,5.5037,0,0,0-4.281,4.12238L3.39525,13.694A5.49458,5.49458,0,0,0,.41454,20.86018L17.62175,62.59077a5.48575,5.48575,0,0,0,7.165,2.98187L42.67284,58.197l10.33459-2.03815,2.79956.00446a5.49449,5.49449,0,0,0,5.4967-5.4798l.07172-45.14227A5.49448,5.49448,0,0,0,55.89611.044ZM23.819,63.22559a2.94427,2.94427,0,0,1-3.85083-1.6026L2.761,19.89179A2.95322,2.95322,0,0,1,4.363,16.04047l6.83838-2.82,8.65619,43.88306a5.48144,5.48144,0,0,0,6.44592,4.32269l3.60449-.71069ZM25.81194,58.936a2.97843,2.97843,0,0,1-3.464-2.32294L13.61168,12.325A2.94994,2.94994,0,0,1,15.9345,8.86l6.788-1.33911L22.654,50.62214a5.49378,5.49378,0,0,0,5.47815,5.49719l11.86444.01886Zm32.95355-8.25647A2.95327,2.95327,0,0,1,55.811,53.62507l-27.67487-.04395a2.95351,2.95351,0,0,1-2.94452-2.955l.07172-45.14227a2.95306,2.95306,0,0,1,2.95392-2.94513l27.6748.04395a2.95288,2.95288,0,0,1,2.94513,2.95453Z"/><path class="cls-1" d="M46.25542,26.13618a6.18225,6.18225,0,0,0-4.23834,1.652,6.24792,6.24792,0,0,0-8.64374.14331,6.1335,6.1335,0,0,0-1.83826,4.356,6.59792,6.59792,0,0,0,2.00336,4.6767l7.554,7.57971a1.26863,1.26863,0,0,0,1.795.00232l7.57745-7.55573a6.59323,6.59323,0,0,0,2.01544-4.67078,6.13721,6.13721,0,0,0-1.824-4.36194A6.21266,6.21266,0,0,0,46.25542,26.13618Zm2.41626,9.05762-6.67694,6.65857-6.65845-6.68024a4.08389,4.08389,0,0,1-1.26349-2.87671,3.61157,3.61157,0,0,1,1.08765-2.56061,3.70784,3.70784,0,0,1,5.24023.02118l.71075.7182a1.27005,1.27005,0,0,0,1.80164.0033l.71423-.71637a3.7057,3.7057,0,0,1,5.23578-.00732A3.61555,3.61555,0,0,1,49.942,32.32062,4.08,4.08,0,0,1,48.67168,35.19379Z"/><path class="cls-1" d="M35.7827,16.65259a1.26934,1.26934,0,0,0,2.347-.96777L34.26543,6.31495a1.2689,1.2689,0,0,0-2.34491-.00372l-3.89343,9.35754A1.26936,1.26936,0,1,0,30.371,16.644l.45343-1.06549,4.50818.00714Zm-3.90753-3.61066,1.21149-2.92712,1.20892,2.931Z"/></svg>