<svg id="Layer_1" data-name="Layer 1" xmlns="http://www.w3.org/2000/svg" viewBox="0 0 74.65586 70.99268"><defs><style>.cls-1{fill:#41494f;}</style></defs><title>New_Games</title><path class="cls-1" d="M74.45837,26.93018a3.22738,3.22738,0,0,0-2.77588-2.14062L49.83923,22.84033,40.29431,1.90723a3.25846,3.25846,0,0,0-5.93018,0L24.81921,22.84033,2.97351,24.78955A3.25892,3.25892,0,0,0,.96716,30.34814l16.11768,15.999-4.0249,20.67871a3.25856,3.25856,0,0,0,4.65186,3.54l19.61475-9.77246,19.6123,9.84961A3.25937,3.25937,0,0,0,61.6,67.10986L57.57312,46.32861,73.68738,30.3501A3.22873,3.22873,0,0,0,74.45837,26.93018Zm-2.8833,1.28906L54.892,44.76221a1.50051,1.50051,0,0,0-.4165,1.35059l4.1792,21.56738a.25907.25907,0,0,1-.37012.28125L38.0028,57.77588a1.50271,1.50271,0,0,0-1.34229-.002L16.3739,67.88037a.24308.24308,0,0,1-.27246-.02539.24015.24015,0,0,1-.09717-.25586L20.18249,46.1333a1.49863,1.49863,0,0,0-.41553-1.35059L3.08,28.21826a.2585.2585,0,0,1,.16016-.44043l22.71533-2.02637a1.49894,1.49894,0,0,0,1.23145-.87207l9.90674-21.728a.259.259,0,0,1,.47119,0l9.90674,21.728a1.49894,1.49894,0,0,0,1.23145.87207l22.71289,2.02637a.2585.2585,0,0,1,.15918.44141Z"/><path class="cls-1" d="M37.92029,12.603a1.50108,1.50108,0,0,0-1.96973.78809L30.67419,25.70264A1.50015,1.50015,0,0,0,33.432,26.88428l5.27637-12.31152A1.50034,1.50034,0,0,0,37.92029,12.603Z"/><path class="cls-1" d="M28.90045,38.8374a35.00116,35.00116,0,0,0,.18213,3.93555h-.042a27.41134,27.41134,0,0,0-1.541-3.23535l-1.96094-3.46H23.045V45.519h1.96143V42.67529c0-1.541-.02832-2.87109-.084-4.11816l.042-.01367a34.84746,34.84746,0,0,0,1.63867,3.333L28.62018,45.519h2.24121V36.07764H28.90045Z"/><polygon class="cls-1" points="34.848 41.527 38.322 41.527 38.322 39.791 34.848 39.791 34.848 37.83 38.532 37.83 38.532 36.078 32.705 36.078 32.705 45.519 38.728 45.519 38.728 43.768 34.848 43.768 34.848 41.527"/><path class="cls-1" d="M48.669,39.94385c-.1958,1.12012-.40625,2.22754-.54639,3.27832h-.02783c-.14014-1.05078-.29395-2.05957-.50439-3.166L46.834,36.07764H44.565l-.79834,3.86621c-.23828,1.16309-.4624,2.29785-.6167,3.31934h-.02783c-.1543-.95117-.3501-2.16992-.56055-3.291l-.71436-3.89453H39.564L41.80523,45.519h2.33936l.89648-4.06249c.22412-.95216.37842-1.84865.54639-2.9131h.02783c.1123,1.0791.26611,1.96094.44824,2.9131l.79834,4.06249H49.1734l2.4375-9.44141H49.43951Z"/></svg>