<svg id="Layer_2" data-name="Layer 2" xmlns="http://www.w3.org/2000/svg" viewBox="0 0 20 18.14213"><defs><style>.cls-1{fill:#41494f}</style></defs><title>10Lines</title><path class="cls-1" d="M17.339 8.132a2.03 2.03 0 0 0 1.768 1.051h.864A2.031 2.031 0 0 0 22 7.154v-.865a2.031 2.031 0 0 0-2.029-2.028h-.864a2.031 2.031 0 0 0-2.03 2.028v.127l-5.1 5.743-5.054-5.69v-.18a2.031 2.031 0 0 0-2.03-2.028H4.03A2.031 2.031 0 0 0 2 6.289v.865a2.031 2.031 0 0 0 2.03 2.03h.864a2.029 2.029 0 0 0 1.775-1.065 2.112 2.112 0 0 0 .177-.435l4.195 4.722-4.118-.016v-.157a1.995 1.995 0 0 0-.261-.977v2.82a2.013 2.013 0 0 0 .25-.822l4.335.017-4.327 4.87a1.998 1.998 0 0 0-.258-.941 2.03 2.03 0 0 0-1.768-1.052h-.865A2.031 2.031 0 0 0 2 18.178v.864a2.031 2.031 0 0 0 2.03 2.03h.864a2.031 2.031 0 0 0 1.975-1.573l5.107-5.75 5.175 5.826a2.031 2.031 0 0 0 1.956 1.496h.864A2.031 2.031 0 0 0 22 19.042v-.864a2.031 2.031 0 0 0-2.029-2.03h-.864a2.03 2.03 0 0 0-1.768 1.052 1.992 1.992 0 0 0-.262.978v.014l-4.366-4.916 4.38.017a2.05 2.05 0 0 0 2.016 1.834h.864A2.031 2.031 0 0 0 22 13.098v-.865a2.031 2.031 0 0 0-2.029-2.029h-.864a2.047 2.047 0 0 0-2.03 2.03v.196l-4.172-.016 4.236-4.77a2.089 2.089 0 0 0 .198.488zm.602-1.843a1.167 1.167 0 0 1 1.165-1.165h.865a1.166 1.166 0 0 1 1.165 1.165v.865a1.167 1.167 0 0 1-1.165 1.165h-.865a1.167 1.167 0 0 1-1.013-.607 1.14 1.14 0 0 1-.152-.558zm-11.882.865a1.14 1.14 0 0 1-.148.55 1.165 1.165 0 0 1-1.017.615h-.865a1.167 1.167 0 0 1-1.165-1.165v-.865a1.167 1.167 0 0 1 1.165-1.165h.865A1.166 1.166 0 0 1 6.059 6.29zm0 11.888a1.166 1.166 0 0 1-1.165 1.165h-.865a1.167 1.167 0 0 1-1.165-1.165v-.864a1.167 1.167 0 0 1 1.165-1.166h.865a1.166 1.166 0 0 1 1.013.607 1.142 1.142 0 0 1 .152.559zm11.882-.864a1.14 1.14 0 0 1 .152-.558 1.167 1.167 0 0 1 1.013-.608h.865a1.167 1.167 0 0 1 1.165 1.166v.864a1.166 1.166 0 0 1-1.165 1.165h-.865a1.167 1.167 0 0 1-1.165-1.165zm0-5.945a1.138 1.138 0 0 1 .176-.602 1.158 1.158 0 0 1 .99-.563h.864a1.167 1.167 0 0 1 1.165 1.165v.865a1.166 1.166 0 0 1-1.165 1.165h-.865a1.167 1.167 0 0 1-1.013-.607 1.14 1.14 0 0 1-.152-.558z" transform="translate(-2 -2.929)"/><path class="cls-1" d="M4.03 15.127h.864a2.03 2.03 0 0 0 1.768-1.05v-2.822a2.03 2.03 0 0 0-1.768-1.05h-.865A2.031 2.031 0 0 0 2 12.232v.865a2.031 2.031 0 0 0 2.03 2.029zm-1.166-2.894a1.167 1.167 0 0 1 1.165-1.165h.865a1.167 1.167 0 0 1 1.013.607 1.142 1.142 0 0 1 .152.558v.865a1.142 1.142 0 0 1-.152.558 1.167 1.167 0 0 1-1.013.607h-.865a1.167 1.167 0 0 1-1.165-1.165z" transform="translate(-2 -2.929)"/><path class="cls-1" d="M8.242 1.009h.014v3.558h1.015V.076h-.87L7.213.629l.172.787.857-.407z"/><path class="cls-1" d="M13.668 7.572c1.147 0 1.707-.953 1.707-2.342 0-1.23-.47-2.301-1.672-2.301-1.16 0-1.714 1.03-1.714 2.328.007 1.272.519 2.315 1.68 2.315zm.021-3.849c.422 0 .636.525.636 1.52 0 1.023-.221 1.534-.63 1.534s-.655-.49-.648-1.52c-.007-1.043.255-1.534.642-1.534z" transform="translate(-2 -2.929)"/></svg>