<svg id="Layer_2" data-name="Layer 2" xmlns="http://www.w3.org/2000/svg" viewBox="0 0 20 18.14228"><defs><style>.cls-1{fill:#41494f}</style></defs><title>20Lines</title><path class="cls-1" d="M4.03 15.127h.864a2.03 2.03 0 0 0 1.768-1.05v-2.821a2.03 2.03 0 0 0-1.768-1.052h-.865A2.031 2.031 0 0 0 2 12.234v.864a2.031 2.031 0 0 0 2.03 2.029zm-1.166-2.893a1.167 1.167 0 0 1 1.165-1.166h.865a1.166 1.166 0 0 1 1.013.607 1.142 1.142 0 0 1 .152.558v.865a1.142 1.142 0 0 1-.152.558 1.166 1.166 0 0 1-1.013.607h-.865a1.167 1.167 0 0 1-1.165-1.165z" transform="translate(-2 -2.929)"/><path class="cls-1" d="M17.339 8.132a2.03 2.03 0 0 0 1.768 1.051h.864A2.031 2.031 0 0 0 22 7.154V6.29a2.031 2.031 0 0 0-2.029-2.028h-.864a2.031 2.031 0 0 0-2.03 2.028v.127l-5.1 5.743-5.054-5.69v-.18a2.031 2.031 0 0 0-2.03-2.028H4.03A2.031 2.031 0 0 0 2 6.289v.865a2.031 2.031 0 0 0 2.03 2.03h.864a2.029 2.029 0 0 0 1.775-1.065 2.112 2.112 0 0 0 .177-.435l4.195 4.722-4.118-.016v-.156a1.995 1.995 0 0 0-.261-.978v2.82a2.013 2.013 0 0 0 .25-.822l4.335.017-4.327 4.87a1.998 1.998 0 0 0-.258-.941 2.03 2.03 0 0 0-1.768-1.051h-.865A2.031 2.031 0 0 0 2 18.178v.864a2.031 2.031 0 0 0 2.03 2.03h.864a2.031 2.031 0 0 0 1.975-1.573l5.107-5.75 5.175 5.826a2.031 2.031 0 0 0 1.956 1.496h.864A2.031 2.031 0 0 0 22 19.042v-.864a2.031 2.031 0 0 0-2.029-2.03h-.864a2.03 2.03 0 0 0-1.768 1.052 1.992 1.992 0 0 0-.262.978v.014l-4.366-4.916 4.38.017a2.05 2.05 0 0 0 2.016 1.834h.864A2.031 2.031 0 0 0 22 13.098v-.864a2.031 2.031 0 0 0-2.029-2.03h-.864a2.047 2.047 0 0 0-2.03 2.03v.196l-4.172-.016 4.236-4.77a2.089 2.089 0 0 0 .198.488zm.602-1.843a1.167 1.167 0 0 1 1.165-1.165h.865a1.166 1.166 0 0 1 1.165 1.165v.865a1.167 1.167 0 0 1-1.165 1.166h-.865a1.167 1.167 0 0 1-1.013-.608 1.139 1.139 0 0 1-.152-.558zm-11.882.865a1.14 1.14 0 0 1-.148.55 1.165 1.165 0 0 1-1.017.616h-.865a1.167 1.167 0 0 1-1.165-1.166V6.29a1.167 1.167 0 0 1 1.165-1.165h.865A1.166 1.166 0 0 1 6.059 6.29zm0 11.888a1.166 1.166 0 0 1-1.165 1.166h-.865a1.167 1.167 0 0 1-1.165-1.166v-.864a1.167 1.167 0 0 1 1.165-1.166h.865a1.166 1.166 0 0 1 1.013.607 1.142 1.142 0 0 1 .152.559zm11.882-.864a1.139 1.139 0 0 1 .152-.558 1.167 1.167 0 0 1 1.013-.608h.865a1.167 1.167 0 0 1 1.165 1.166v.864a1.166 1.166 0 0 1-1.165 1.166h-.865a1.167 1.167 0 0 1-1.165-1.166zm0-5.944a1.138 1.138 0 0 1 .176-.603 1.158 1.158 0 0 1 .99-.563h.864a1.167 1.167 0 0 1 1.165 1.166v.864a1.166 1.166 0 0 1-1.165 1.165h-.865a1.167 1.167 0 0 1-1.013-.607 1.139 1.139 0 0 1-.152-.558z" transform="translate(-2 -2.929)"/><path class="cls-1" d="M11.814 6.632H10.12V6.62l.415-.346A2.79 2.79 0 0 0 11.73 4.34a1.396 1.396 0 0 0-1.575-1.41 2.485 2.485 0 0 0-1.472.463l.297.753a1.627 1.627 0 0 1 .96-.373c.519 0 .74.29.74.656-.014.525-.49 1.03-1.472 1.907l-.58.525v.636h3.185zM13.9 7.572c1.147 0 1.707-.953 1.707-2.342 0-1.23-.47-2.301-1.672-2.301-1.161 0-1.714 1.03-1.714 2.328.007 1.272.518 2.315 1.679 2.315zm.02-3.849c.422 0 .636.526.636 1.52 0 1.023-.22 1.534-.628 1.534s-.657-.49-.65-1.52c-.007-1.043.256-1.534.643-1.534z" transform="translate(-2 -2.929)"/></svg>