<svg id="Layer_2" data-name="Layer 2" xmlns="http://www.w3.org/2000/svg" viewBox="0 0 19.24999 20.14314"><defs><style>.cls-1{fill:#41494e}</style></defs><title>50-40Ball</title><path class="cls-1" d="M7.556 7.392l-.046-.057a.915.915 0 0 0-.848-.303 1.469 1.469 0 0 0-.756.444.664.664 0 0 0-.141.151l-.303-.403.878-.878-.434-.433-1.251 1.25 1.049 1.342a2.615 2.615 0 0 1 .282-.333c.454-.454.777-.494 1.02-.262s.11.575-.112.797a1.697 1.697 0 0 1-.625.403l.302.494a1.902 1.902 0 0 0 .757-.494 1.226 1.226 0 0 0 .228-1.718zM7.126 4.611c-.595.585-.353 1.392.313 2.048.645.635 1.432.908 2.017.323.585-.575.384-1.342-.322-2.048-.626-.625-1.403-.928-2.008-.323zm1.947 1.957c-.212.202-.585.08-1.1-.444-.534-.524-.655-.907-.443-1.1.212-.221.585-.06 1.09.445.514.524.655.897.453 1.1z" transform="translate(-2.375 -1.928)"/><path class="cls-1" d="M6.097 10.119a2.786 2.786 0 0 1-1.432-.757 3.42 3.42 0 0 1 .363-4.791 3.444 3.444 0 0 1 4.801-.373 2.896 2.896 0 0 1 .818 2.138.431.431 0 0 0 .413.424.424.424 0 0 0 .424-.414 3.693 3.693 0 0 0-1.06-2.743 3.578 3.578 0 0 0-1.336-.837h.015a5.91 5.91 0 0 1 4.822 2.49.42.42 0 0 0 .686-.483A6.737 6.737 0 1 0 4.635 13.7a.423.423 0 0 0 .282.1.338.338 0 0 0 .293-.13.417.417 0 0 0-.025-.59l-.006-.006a5.926 5.926 0 0 1-1.977-4.408c0-.046.006-.09.007-.136a3.545 3.545 0 0 0 .86 1.427 3.618 3.618 0 0 0 1.867.989.222.222 0 0 0 .08.01.423.423 0 0 0 .081-.837z" transform="translate(-2.375 -1.928)"/><path class="cls-1" d="M19.443 9.262l-.031-.03a7.495 7.495 0 1 0 .03.03zm-5.347-1.261a3.904 3.904 0 0 1 4.156 3.57 3.904 3.904 0 0 1-4.156 3.571 3.904 3.904 0 0 1-4.156-3.57A3.904 3.904 0 0 1 14.096 8zm4.73 11.266a6.687 6.687 0 0 1-9.46-9.45c.107-.108.222-.205.335-.304a3.959 3.959 0 0 0-.598 2.048 4.733 4.733 0 0 0 4.993 4.408 4.733 4.733 0 0 0 4.993-4.408 3.959 3.959 0 0 0-.6-2.052c.114.1.23.199.338.307a6.686 6.686 0 0 1 0 9.451z" transform="translate(-2.375 -1.928)"/><path class="cls-1" d="M12.886 13.346h.807v-.857h.434v-.635h-.434V9.735h-1.04l-1.371 2.2v.554h1.604zm-.807-1.492v-.01l.484-.787c.121-.232.212-.444.333-.676h.02c-.02.232-.03.454-.03.676v.797zM15.488 13.407c.918 0 1.372-.767 1.372-1.886 0-.989-.373-1.846-1.342-1.856-.938 0-1.381.827-1.381 1.876.01 1.029.413 1.866 1.351 1.866zm.01-3.097c.343 0 .515.424.515 1.22 0 .818-.172 1.231-.505 1.231s-.534-.393-.524-1.22c0-.837.212-1.23.514-1.23zM19.412 14.113a.426.426 0 0 0-.424.424 4.903 4.903 0 0 1-4.892 4.892.424.424 0 0 0 0 .847 5.756 5.756 0 0 0 5.74-5.74.426.426 0 0 0-.424-.423z" transform="translate(-2.375 -1.928)"/></svg>