<svg id="Layer_2" data-name="Layer 2" xmlns="http://www.w3.org/2000/svg" viewBox="0 0 20 17.20265"><defs><style>.cls-1{fill:#41494f}</style></defs><title>5Lines</title><path class="cls-1" d="M13.715 6.39a1.279 1.279 0 0 0-.546-1.126 2.054 2.054 0 0 0-1.181-.325 1.951 1.951 0 0 0-.29.014l.096-.69h1.741v-.864h-2.473l-.297 2.356a3.89 3.89 0 0 1 .608-.042c.898 0 1.264.284 1.264.746 0 .477-.463.685-.898.685a2.581 2.581 0 0 1-1.016-.222l-.186.788a2.855 2.855 0 0 0 1.25.256 1.712 1.712 0 0 0 1.928-1.575z" transform="translate(-2 -3.399)"/><path class="cls-1" d="M17.339 7.662a2.03 2.03 0 0 0 1.768 1.051h.864A2.031 2.031 0 0 0 22 6.684V5.82a2.031 2.031 0 0 0-2.029-2.03h-.864a2.031 2.031 0 0 0-2.03 2.03v.126l-5.1 5.743-5.054-5.69v-.18a2.031 2.031 0 0 0-2.03-2.028H4.03A2.031 2.031 0 0 0 2 5.82v.864a2.031 2.031 0 0 0 2.03 2.03h.864a2.029 2.029 0 0 0 1.775-1.065 2.108 2.108 0 0 0 .177-.435l4.195 4.723-4.118-.016v-.157a1.995 1.995 0 0 0-.261-.978v2.82a2.013 2.013 0 0 0 .25-.822l4.335.017-4.327 4.87a1.998 1.998 0 0 0-.258-.94v-.001a2.03 2.03 0 0 0-1.768-1.051h-.865A2.031 2.031 0 0 0 2 17.708v.865A2.031 2.031 0 0 0 4.03 20.6h.864a2.031 2.031 0 0 0 1.975-1.571l5.107-5.75 5.175 5.825a2.03 2.03 0 0 0 1.956 1.496h.864A2.031 2.031 0 0 0 22 18.573v-.865a2.031 2.031 0 0 0-2.029-2.03h-.864a2.03 2.03 0 0 0-1.768 1.052 1.992 1.992 0 0 0-.262.978v.014l-4.366-4.915 4.38.017a2.05 2.05 0 0 0 2.016 1.833h.864A2.031 2.031 0 0 0 22 12.628v-.864a2.031 2.031 0 0 0-2.029-2.03h-.864a2.047 2.047 0 0 0-2.03 2.03v.196l-4.172-.016 4.236-4.77a2.09 2.09 0 0 0 .198.488zm.602-1.842a1.167 1.167 0 0 1 1.166-1.166h.864a1.166 1.166 0 0 1 1.165 1.166v.864a1.167 1.167 0 0 1-1.165 1.166h-.864a1.167 1.167 0 0 1-1.014-.608 1.14 1.14 0 0 1-.152-.558zm-11.882.864a1.14 1.14 0 0 1-.148.55 1.165 1.165 0 0 1-1.017.616h-.865a1.167 1.167 0 0 1-1.165-1.166V5.82a1.167 1.167 0 0 1 1.165-1.166h.865A1.166 1.166 0 0 1 6.059 5.82zm0 11.889a1.166 1.166 0 0 1-1.165 1.165h-.865a1.167 1.167 0 0 1-1.165-1.165v-.865a1.167 1.167 0 0 1 1.165-1.166h.865a1.166 1.166 0 0 1 1.013.608 1.142 1.142 0 0 1 .152.558zm11.882-.865a1.14 1.14 0 0 1 .152-.558 1.167 1.167 0 0 1 1.013-.608h.865a1.167 1.167 0 0 1 1.165 1.166v.865a1.166 1.166 0 0 1-1.165 1.165h-.865a1.167 1.167 0 0 1-1.165-1.165zm0-5.944a1.138 1.138 0 0 1 .176-.603 1.158 1.158 0 0 1 .99-.563h.864a1.167 1.167 0 0 1 1.165 1.166v.864a1.166 1.166 0 0 1-1.165 1.166h-.865a1.167 1.167 0 0 1-1.013-.608 1.14 1.14 0 0 1-.152-.558z" transform="translate(-2 -3.399)"/><path class="cls-1" d="M4.03 14.657h.864a2.03 2.03 0 0 0 1.768-1.05v-2.821a2.03 2.03 0 0 0-1.768-1.051h-.865A2.031 2.031 0 0 0 2 11.764v.864a2.031 2.031 0 0 0 2.03 2.03zm-1.166-2.893a1.167 1.167 0 0 1 1.165-1.166h.865a1.167 1.167 0 0 1 1.013.607 1.142 1.142 0 0 1 .152.559v.864a1.142 1.142 0 0 1-.152.559 1.167 1.167 0 0 1-1.013.607h-.865a1.167 1.167 0 0 1-1.165-1.166z" transform="translate(-2 -3.399)"/></svg>