<svg id="Layer_2" data-name="Layer 2" xmlns="http://www.w3.org/2000/svg" viewBox="0 0 18.90355 20.75395"><defs><style>.cls-1{fill:#41494f}</style></defs><title>6+Holdem</title><path class="cls-1" d="M18.26 20.404a.356.356 0 0 1-.36.351H14.95v-.026l-.284.026H6.486a.359.359 0 0 1-.333-.218.338.338 0 0 1-.028-.136V2.743a.356.356 0 0 1 .36-.351h11.416a.359.359 0 0 1 .333.215.346.346 0 0 1 .028.136v2.882h.768V2.743a1.112 1.112 0 0 0-.079-.438 1.127 1.127 0 0 0-1.05-.682H6.486a1.125 1.125 0 0 0-1.13 1.12v17.661a1.104 1.104 0 0 0 .09.436 1.125 1.125 0 0 0 .968.676l-1.025.095a.361.361 0 0 1-.394-.318L3.322 3.713a.346.346 0 0 1 .08-.255.369.369 0 0 1 .255-.131l.85-.105-.094-.769-.835.113a1.125 1.125 0 0 0-.769.405 1.11 1.11 0 0 0-.256.817l1.691 17.58a1.127 1.127 0 0 0 1.127 1.009h.105l9.224-.853h3.2a1.125 1.125 0 0 0 1.128-1.12v-2.862h-.769z" transform="translate(-2.548 -1.623)"/><path class="cls-1" d="M12.904 7.142a.733.733 0 0 0-.333.074.65.65 0 0 0-.228.18l-2.126 2.864a5.955 5.955 0 0 0-.77 1.335 3.187 3.187 0 0 0-.255 1.171 3.4 3.4 0 0 0 .197 1.186 2.524 2.524 0 0 0 .559.902 2.475 2.475 0 0 0 .876.574 3.103 3.103 0 0 0 1.145.203 3.159 3.159 0 0 0 1.171-.21 2.719 2.719 0 0 0 .912-.58 2.637 2.637 0 0 0 .59-.865 2.736 2.736 0 0 0 .21-1.08 2.688 2.688 0 0 0-.208-1.06 2.268 2.268 0 0 0-1.33-1.281 2.729 2.729 0 0 0-.955-.167 2.608 2.608 0 0 0-.787.113 2.472 2.472 0 0 0-.661.32l2.916-3.679zm-1.647 4.184a1.942 1.942 0 0 1 .768-.143 2.05 2.05 0 0 1 .72.123 1.537 1.537 0 0 1 .925.917 2.032 2.032 0 0 1 .129.74 1.901 1.901 0 0 1-.131.715 1.658 1.658 0 0 1-.374.57 1.722 1.722 0 0 1-.584.373 2.05 2.05 0 0 1-.77.136 1.958 1.958 0 0 1-.74-.13 1.537 1.537 0 0 1-.55-.372 1.601 1.601 0 0 1-.341-.566 2.219 2.219 0 0 1-.118-.738l-.003-.008a1.794 1.794 0 0 1 .128-.666 1.68 1.68 0 0 1 .364-.564 1.748 1.748 0 0 1 .577-.387z" transform="translate(-2.548 -1.623)"/><path class="cls-1" d="M16.518 9.58V7.077h-.856V9.58H13.29v.792h2.375v2.519h.853v-2.519h2.386V9.58h-2.386z"/></svg>