<svg id="Layer_2" data-name="Layer 2" xmlns="http://www.w3.org/2000/svg" viewBox="0 0 20 18.1331"><defs><style>.cls-1{fill:#41494f}</style></defs><title>7s&amp;amp;Gems</title><path class="cls-1" d="M19.672 3.122l-.263.174a7.042 7.042 0 0 1-5.206.429c-1.723-.715-5.608-1.482-8.733.318V3.74H2v7.8h3.476v-.436A2.479 2.479 0 0 1 7.47 9.198a6.798 6.798 0 0 1 2.388.263c.466.104.938.21 1.406.267a10.928 10.928 0 0 0-3.73 4.275c-1.048 1.99-1.204 5.007-1.204 6.628v.436h9.532v-.436a32.122 32.122 0 0 1 .603-5.501 20.03 20.03 0 0 1 5.22-9.822L22 4.963zM15.62 14.92a32.928 32.928 0 0 0-.62 5.276H7.207a14.552 14.552 0 0 1 1.1-5.786 10.852 10.852 0 0 1 5.018-4.916l.225-.13.005-.003-.437-.754a4.275 4.275 0 0 1-3.068.004 7.526 7.526 0 0 0-2.704-.275 3.444 3.444 0 0 0-2.676 2.333H2.872V4.612h1.726v1.097l.694-.51c2.906-2.14 6.88-1.373 8.576-.67a7.977 7.977 0 0 0 5.742-.344l1.12.885a20.639 20.639 0 0 0-5.11 9.85z" transform="translate(-2 -2.933)"/></svg>