<svg id="Layer_2" data-name="Layer 2" xmlns="http://www.w3.org/2000/svg" viewBox="0 0 19.30973 20.16666"><defs><style>.cls-1{fill:#41494e}</style></defs><title>80-75Ball</title><path class="cls-1" d="M6.012 9.16c.313.311.897.372 1.481-.202.524-.534.595-1.159.182-1.572a.853.853 0 0 0-.988-.15l-.01-.01a.787.787 0 0 0-.171-.837c-.272-.272-.806-.363-1.34.171a1.001 1.001 0 0 0-.191 1.403l.03.038a.774.774 0 0 0 .826.171l.02.01a.853.853 0 0 0 .161.977zm.424-1.22a.574.574 0 0 1 .735.02.402.402 0 0 1-.001.568.404.404 0 0 1-.03.027.441.441 0 0 1-.623.021l-.021-.021a.483.483 0 0 1-.06-.615zm-.947-.453a.367.367 0 0 1-.007-.52.44.44 0 0 1 .537-.068.358.358 0 0 1 .044.044.442.442 0 0 1 .06.524c-.242.13-.473.171-.634.02zM9.447 6.993c.585-.584.383-1.35-.322-2.055-.624-.624-1.41-.926-2.015-.322-.594.594-.352 1.4.313 2.055.644.645 1.43.917 2.024.322zM7.493 5.03c.222-.211.595-.05 1.098.453.524.514.665.897.464 1.098s-.585.081-1.098-.443c-.534-.524-.655-.906-.464-1.108z" transform="translate(-2.345 -1.917)"/><path class="cls-1" d="M6.073 10.146a2.812 2.812 0 0 1-1.44-.755 3.432 3.432 0 0 1 .372-4.805 3.434 3.434 0 0 1 4.805-.383 2.916 2.916 0 0 1 .816 2.146.433.433 0 0 0 .413.433.426.426 0 0 0 .433-.413 3.742 3.742 0 0 0-1.068-2.76 3.556 3.556 0 0 0-1.348-.844c.017 0 .032-.003.049-.003a5.948 5.948 0 0 1 4.835 2.499.419.419 0 0 0 .584.1.423.423 0 0 0 .105-.59l-.004-.004a6.763 6.763 0 1 0-10.013 8.965.387.387 0 0 0 .282.111.377.377 0 0 0 .302-.14.417.417 0 0 0-.024-.59l-.006-.005a5.919 5.919 0 0 1-1.984-4.422c0-.029.004-.056.004-.084a3.556 3.556 0 0 0 .852 1.383 3.643 3.643 0 0 0 1.874.987.221.221 0 0 0 .08.01.422.422 0 0 0 .08-.836z" transform="translate(-2.345 -1.917)"/><path class="cls-1" d="M19.458 9.227l-.018-.018a7.544 7.544 0 1 0 .018.018zM14.101 7.97c2.297 0 4.17 1.602 4.17 3.576s-1.873 3.576-4.17 3.576-4.17-1.601-4.17-3.575 1.874-3.577 4.17-3.577zm4.745 11.303a6.706 6.706 0 0 1-9.49-9.48c.112-.11.23-.21.347-.313a3.973 3.973 0 0 0-.608 2.067 4.748 4.748 0 0 0 5.006 4.422 4.748 4.748 0 0 0 5.007-4.422 3.973 3.973 0 0 0-.605-2.062c.116.1.233.2.343.309a6.855 6.855 0 0 1 0 9.479z" transform="translate(-2.345 -1.917)"/><path class="cls-1" d="M10.809 8.492l-1.49 2.921h.896l1.491-3.093v-.534H9.147v.695h1.662v.011z"/><path class="cls-1" d="M16.824 12.194q.005-.037.007-.073a1.03 1.03 0 0 0-.443-.907 1.987 1.987 0 0 0-1.189-.252l.081-.554h1.41v-.705h-1.994l-.242 1.904a3.503 3.503 0 0 1 .494-.03c.725 0 1.017.231 1.017.604 0 .383-.373.554-.725.554a2.04 2.04 0 0 1-.816-.181l-.151.634a2.373 2.373 0 0 0 1.007.202 1.381 1.381 0 0 0 1.544-1.196zM19.43 14.105a.426.426 0 0 0-.423.423 4.905 4.905 0 0 1-4.905 4.906.423.423 0 1 0 0 .846 5.75 5.75 0 0 0 5.751-5.748v-.004a.426.426 0 0 0-.423-.423z" transform="translate(-2.345 -1.917)"/></svg>