<svg id="Layer_2" data-name="Layer 2" xmlns="http://www.w3.org/2000/svg" viewBox="0 0 20.02002 20.02002"><defs><style>.cls-1{fill:#41494e}</style></defs><title>90Ball</title><path class="cls-1" d="M5.94 11.36a1.466 1.466 0 0 0 2.072.078q.04-.038.078-.078a1.298 1.298 0 0 0 .44-.94l.02-.01a1.532 1.532 0 0 1 .2 1.07 1.975 1.975 0 0 1-.47.89 2.846 2.846 0 0 1-.35.35l.64.64a4.267 4.267 0 0 0 .37-.37 2.895 2.895 0 0 0 .83-1.8A2.908 2.908 0 0 0 8.79 9 1.865 1.865 0 0 0 6 8.82a1.765 1.765 0 0 0-.104 2.494l.044.046zm.59-1.893a.742.742 0 0 1 .03-.037c.37-.37.87-.14 1.23.22a.518.518 0 0 1 .16.25.723.723 0 0 1-1.26.6.739.739 0 0 1-.16-1.033zM12.5 9.44c.88-.88.57-2.04-.49-3.1-.95-.95-2.13-1.41-3.04-.49-.89.89-.53 2.1.47 3.1.98.97 2.17 1.38 3.06.49zM9.56 6.47c.32-.32.89-.08 1.65.68.78.79 1 1.35.69 1.66s-.88.12-1.66-.67c-.8-.79-.98-1.37-.68-1.67z" transform="translate(-1.99 -1.99)"/><path class="cls-1" d="M12 1.99A10.01 10.01 0 1 0 22.01 12 10.01 10.01 0 0 0 12 1.99zM5.67 5.66a6.129 6.129 0 0 1 4.28-1.85 4.57 4.57 0 0 1 3.26 1.29c1.92 1.92 1.67 5.31-.56 7.54s-5.62 2.48-7.54.56-1.67-5.31.56-7.54zm7.753 15.37A9.084 9.084 0 0 1 2.986 10.61a5.307 5.307 0 0 0 1.503 3.21 5.392 5.392 0 0 0 3.87 1.55 6.957 6.957 0 0 0 4.9-2.11c2.57-2.57 2.82-6.51.56-8.77a5.291 5.291 0 0 0-3.232-1.51 9.135 9.135 0 0 1 2.834 18.05z" transform="translate(-1.99 -1.99)"/><path class="cls-1" d="M19.16 11.55a.444.444 0 0 0-.44.44A6.722 6.722 0 0 1 12 18.71a.44.44 0 1 0-.001.88H12a7.616 7.616 0 0 0 7.6-7.6.444.444 0 0 0-.44-.44z" transform="translate(-1.99 -1.99)"/></svg>