<svg id="Layer_2" data-name="Layer 2" xmlns="http://www.w3.org/2000/svg" viewBox="0 0 21.59579 21.59499"><defs><style>.cls-1{fill:#41494f}</style></defs><title>A-ZSports</title><path class="cls-1" d="M21.35 6.603a10.798 10.798 0 1 0-3.954 14.749 10.833 10.833 0 0 0 3.954-14.75zM12 21.898a9.898 9.898 0 1 1 9.893-9.903 9.898 9.898 0 0 1-9.892 9.903z" transform="translate(-1.202 -1.203)"/><path class="cls-1" d="M11.993 3.872a8.128 8.128 0 1 0 .013 16.256v-.003a8.127 8.127 0 0 0-.013-16.253zM12 19.089a7.092 7.092 0 0 1 .007-14.184l-.013.003A7.09 7.09 0 1 1 12 19.088z" transform="translate(-1.202 -1.203)"/><path class="cls-1" d="M8.806 9.748l-1.763 4.491h.652a.277.277 0 0 0 .179-.059.297.297 0 0 0 .098-.13l.326-.916h1.864l.326.916a.306.306 0 0 0 .1.134.28.28 0 0 0 .18.055h.652L9.66 9.748zm-.293 2.796l.547-1.486a2.84 2.84 0 0 0 .082-.238q.042-.137.084-.296.044.156.088.293.046.137.082.235l.547 1.492z" transform="translate(-1.202 -1.203)"/><path class="cls-1" d="M10.329 10.846h1.61v.639h-1.61z"/><path class="cls-1" d="M13.64 10.426h2.242l-2.311 3.259a.508.508 0 0 0-.056.108.326.326 0 0 0-.022.12v.326h3.415v-.652h-2.346l2.32-3.265a.453.453 0 0 0 .082-.261v-.307l-3.325.02z" transform="translate(-1.202 -1.203)"/></svg>