<svg id="Layer_2" data-name="Layer 2" xmlns="http://www.w3.org/2000/svg" viewBox="0 0 19.54303 19.948"><defs><style>.cls-1{fill:#41494e}</style></defs><title>Account_History</title><path class="cls-1" d="M8.248 5.636c0-.32-.31-.52-.82-.52s-.82.2-.82.52v2.52a.824.824 0 0 0 .82.82h2.89v-.63h-2.89a.2.2 0 0 1-.2-.2v-2.39a1.01 1.01 0 0 1 .4 0v2.19h2.69v-.62h-2.07z" transform="translate(-2.228 -2.026)"/><path class="cls-1" d="M13.588 7.706a5.68 5.68 0 1 0-5.68 5.68 5.68 5.68 0 0 0 5.68-5.68zm-5.68 5.08a5.08 5.08 0 1 1 5.08-5.08 5.08 5.08 0 0 1-5.08 5.08z" transform="translate(-2.228 -2.026)"/><path class="cls-1" d="M19.515 5.428h-6.19v.63h5.588v13.26H6.618v-5.966h-.63v6.596H19.543V5.428h-.028z"/><path class="cls-1" d="M11.608 15.106a3.517 3.517 0 1 0 1.03-2.49 3.517 3.517 0 0 0-1.03 2.49zm.87-1.52l.11.78-.5.52a2.98 2.98 0 0 1 .39-1.3zm.05 3.11a3.172 3.172 0 0 1-.41-1.15l.8-.83.83.19.38 1.18-.53.81zm.44.56l.59.1.26.5a2.98 2.98 0 0 1-.85-.6zm2.81.83a2.815 2.815 0 0 1-.65.07 2.963 2.963 0 0 1-.66-.07l-.5-.92.53-.81h1.24l.53.81zm-1.57-3.29l.93-.68.93.68-.36 1.09h-1.14zm2.23 3.07l.27-.5.58-.1a3.125 3.125 0 0 1-.85.6zm1.34-4.28a3.022 3.022 0 0 1 .39 1.31l-.5-.53zm.37 1.97a2.957 2.957 0 0 1-.42 1.15l-1.07.19-.52-.81.38-1.18.83-.19zm-.86-2.62a.897.897 0 0 0 .09.1l-.16 1.22-.83.19-1.02-.75v-.77l1.15-.55a2.977 2.977 0 0 1 .77.56zm-2.16-.88a2.874 2.874 0 0 1 .78.1l-.78.37-.78-.37a2.874 2.874 0 0 1 .78-.1zm-2.16.89a2.977 2.977 0 0 1 .77-.56l1.15.55v.77l-1.02.74-.83-.18-.16-1.22a.908.908 0 0 1 .09-.1z" transform="translate(-2.228 -2.026)"/></svg>