<svg id="Layer_2" data-name="Layer 2" xmlns="http://www.w3.org/2000/svg" viewBox="0 0 21 21"><defs><style>.cls-1{fill:#41494f}</style></defs><title>Alert</title><path class="cls-1" d="M12 1.5A10.5 10.5 0 1 0 22.5 12 10.512 10.512 0 0 0 12 1.5zm0 20.192A9.703 9.703 0 0 1 2.308 12 9.692 9.692 0 1 1 12 21.692z" transform="translate(-1.5 -1.5)"/><path class="cls-1" d="M11.443 12.166c.015.213.033.433.056.656q.033.336.077.72h.893q.044-.384.077-.72c.022-.223.041-.443.055-.656q.023-.32.033-.638c.008-.211.012-.428.012-.65V6.66h-1.247v4.219c0 .22.004.438.011.65q.01.316.033.637zM12.653 15.761a.96.96 0 0 0-.295-.199.922.922 0 0 0-1.014.2.945.945 0 0 0-.262.656.924.924 0 0 0 .07.365.94.94 0 0 0 .192.292.852.852 0 0 0 .291.195.974.974 0 0 0 .723 0 .891.891 0 0 0 .295-.195.904.904 0 0 0 .265-.657.936.936 0 0 0-.07-.361.91.91 0 0 0-.195-.296z" transform="translate(-1.5 -1.5)"/></svg>