<svg id="Layer_2" data-name="Layer 2" xmlns="http://www.w3.org/2000/svg" viewBox="0 0 20.17742 20.17668"><defs><style>.cls-1{fill:#41494f}</style></defs><title>All</title><path class="cls-1" d="M20.736 6.957a10.088 10.088 0 1 0-3.695 13.78 10.122 10.122 0 0 0 3.695-13.78zm-8.735 14.29a9.248 9.248 0 1 1 9.243-9.252A9.248 9.248 0 0 1 12 21.248z" transform="translate(-1.911 -1.912)"/><path class="cls-1" d="M11.994 4.406a7.594 7.594 0 1 0 .012 15.188v-.003a7.593 7.593 0 0 0-.012-15.185zM12 18.623a6.626 6.626 0 0 1 .006-13.252l-.012.003A6.625 6.625 0 1 1 12 18.623z" transform="translate(-1.911 -1.912)"/><path class="cls-1" d="M9.436 10.407l-1.26 3.213h.465a.198.198 0 0 0 .128-.043.21.21 0 0 0 .07-.094l.24-.655h1.328l.241.655a.22.22 0 0 0 .073.082.201.201 0 0 0 .128.04h.463l-1.267-3.198zm-.204 1.98l.393-1.066c.018-.049.036-.107.058-.17s.04-.135.06-.21q.031.112.065.21l.057.167.39 1.069z" transform="translate(-1.911 -1.912)"/><path class="cls-1" d="M10.351 8.484h-.609v3.209h1.872V11.2h-1.285l.022-2.716zM12.637 8.484h-.609v3.209h1.882V11.2h-1.285l.012-2.716z"/></svg>