<svg id="Layer_2" data-name="Layer 2" xmlns="http://www.w3.org/2000/svg" viewBox="0 0 14.125 20.17076"><defs><style>.cls-1{fill:#41494f}</style></defs><title>Arcade</title><path class="cls-1" d="M1.252 5.843h.768v1.252h-.768zM1.252 2.922h.768v1.252h-.768zM1.252 0h.768v1.252h-.768zM12.104 5.843h.768v1.252h-.768zM12.104 2.922h.768v1.252h-.768zM12.104 0h.768v1.252h-.768z"/><path class="cls-1" d="M12 9.878c-.962 0-1.219 1.97-1.219 3.134 0 2.386.853 2.643 1.219 2.643s1.22-.257 1.22-2.643c0-1.164-.258-3.134-1.22-3.134zm0 5.009c-.07 0-.45-.346-.45-1.875a4.514 4.514 0 0 1 .45-2.33 4.513 4.513 0 0 1 .45 2.33c0 1.53-.38 1.875-.45 1.875z" transform="translate(-4.938 -1.915)"/><path class="cls-1" d="M17.659 9.957l-.299-.227-.234.293a6.68 6.68 0 0 0-1.319 3.194h-.918v-.033a27.307 27.307 0 0 0-1.031-5.557c-1.095-4.01-1.591-4.01-1.858-4.01s-.763 0-1.857 4.01a27.29 27.29 0 0 0-1.031 5.557v.033h-.919a6.679 6.679 0 0 0-1.32-3.195L6.64 9.73l-.299.227c-.057.043-1.404 1.105-1.404 4.48a5.647 5.647 0 0 0 1.33 3.988l.285.375.31-.353a6.39 6.39 0 0 0 1.304-2.374h1.891a6.656 6.656 0 0 0 .458 1.067l.114.174h2.742l.114-.174a6.656 6.656 0 0 0 .458-1.067h1.891a6.398 6.398 0 0 0 1.304 2.374l.31.353.285-.375a5.647 5.647 0 0 0 1.33-3.988c0-3.375-1.347-4.437-1.404-4.48zm-.247 7.6a4.177 4.177 0 0 1-.854-1.868v-.384h-3.164l-.089.26c-.098.294-.257.724-.374.98H11.07a12.298 12.298 0 0 1-.374-.98l-.089-.26H7.442v.384a4.176 4.176 0 0 1-.854 1.869 4.749 4.749 0 0 1-.882-3.121 6.224 6.224 0 0 1 .834-3.55 5.385 5.385 0 0 1 .902 2.715v.384h2.054l.384-.015v-.787A30.997 30.997 0 0 1 12 4.561a30.987 30.987 0 0 1 2.12 8.623v.802h2.438v-.384a5.385 5.385 0 0 1 .902-2.715 6.222 6.222 0 0 1 .834 3.55 4.75 4.75 0 0 1-.882 3.12z" transform="translate(-4.938 -1.915)"/><path class="cls-1" d="M7.055 18.23l-.906-2.104-.706.304 1.612 3.741 1.613-3.741-.706-.304-.907 2.104z"/></svg>