<svg id="Layer_2" data-name="Layer 2" xmlns="http://www.w3.org/2000/svg" viewBox="0 0 16.67806 20.10047"><defs><style>.cls-1{fill:#41494f}</style></defs><title>Baccarat</title><path class="cls-1" d="M19.63 8.367h-9.272a.71.71 0 0 0-.708.708v12.267a.71.71 0 0 0 .708.708h9.272a.71.71 0 0 0 .709-.708V9.075a.71.71 0 0 0-.709-.708zM19.49 21.2H10.5V9.217h8.989z" transform="translate(-3.661 -1.95)"/><path class="cls-1" d="M4.514 2.8l8.986.003v4.705h.85V2.803a.854.854 0 0 0-.853-.853H4.514a.854.854 0 0 0-.853.853v12.405a.854.854 0 0 0 .853.853h4.278v-.85l-4.28-.003zM16.16 17.789l-.105-.027a4.581 4.581 0 0 0-1.06-.173 4.581 4.581 0 0 0-1.061.173l-.105.027a.425.425 0 1 0 .192.828l.123-.03a3.987 3.987 0 0 1 .85-.148 3.987 3.987 0 0 1 .851.147l.123.03a.425.425 0 0 0 .192-.827zM13.226 17.119a1.983 1.983 0 0 0 .824.155 2.23 2.23 0 0 0 .944-.192 2.349 2.349 0 0 0 1.769.037 1.74 1.74 0 0 0 1.01-1.664c0-.885-.803-1.526-1.51-2.091-.372-.297-.793-.633-.864-.852a.425.425 0 0 0-.81 0c-.07.219-.491.555-.863.852-.707.565-1.51 1.206-1.51 2.091a1.741 1.741 0 0 0 1.01 1.664zm-.16-1.664c0-.476.633-.981 1.191-1.427a7.769 7.769 0 0 0 .737-.638 7.776 7.776 0 0 0 .738.639c.557.445 1.19.95 1.19 1.426a.895.895 0 0 1-.534.9 1.44 1.44 0 0 1-1.108-.091.425.425 0 0 0-.571 0 1.44 1.44 0 0 1-1.109.091.895.895 0 0 1-.533-.9z" transform="translate(-3.661 -1.95)"/><path class="cls-1" d="M6.65 11.842V6.17a1.716 1.716 0 0 0 1.23-1.23h2.251a1.716 1.716 0 0 0 1.23 1.23v1.34h.85V5.371h-.425a.86.86 0 0 1-.858-.858v-.425H7.083v.425a.86.86 0 0 1-.858.858H5.8v7.267h.425a.86.86 0 0 1 .858.858v.426h1.709v-.85H7.88a1.716 1.716 0 0 0-1.23-1.23z" transform="translate(-3.661 -1.95)"/><path class="cls-1" d="M1.711 1.709h.85v.856h-.85zM1.711 11.548h.85v.856h-.85zM8.128 1.709h.85v.856h-.85z"/></svg>