<svg id="Layer_2" xmlns="http://www.w3.org/2000/svg" viewBox="0 0 24 24"><style>.st0{fill:#666}</style><path class="st0" d="M19.9 20.21l-.55-1.46c-.8-2.12-1.61-4.23-2.41-6.35-.35-.92-.7-1.84-1.05-2.77V7.67c0-.23 0-.44-.1-.65 0-.01-.01-.01-.01-.02.1-.07.16-.18.16-.34 0-1.26-.23-2.6-1.1-3.57-.49-.55-1.19-.88-1.9-1.01-.85-.16-1.79-.12-2.59.2-.91.36-1.53 1.06-1.9 1.96-.31.76-.39 1.61-.4 2.42 0 .16.07.27.16.34-.02.04-.03.08-.05.12-.06.19-.05.38-.05.58v1.94c-.01.02-.02.04-.02.06l-.7 1.84c-.81 2.14-1.62 4.28-2.44 6.42-.26.69-.52 1.37-.78 2.06-.02.06-.05.12-.07.18-.07.18.01.42.07.6.12.39.36.72.71.94.42.27.97.28 1.45.2.29-.05.55-.18.76-.38.66.57 1.77.57 2.43 0 .36.31.84.44 1.34.42.45-.02.84-.19 1.13-.47.02.02.05.05.08.07.31.26.68.37 1.08.4.49.04.98-.11 1.34-.42.66.57 1.77.57 2.43 0 .51.45 1.3.55 1.94.3.39-.15.7-.43.87-.82.09-.2.26-.59.17-.83zM8.97 5.8c0-.03.02-.16.02-.16.01-.07.02-.13.03-.19.03-.16.06-.31.1-.46.15-.57.39-1.04.8-1.44.05-.04.09-.08.14-.12 0 0 .05-.04.06-.05.03-.02.06-.04.1-.06l.21-.12c.04-.02.07-.04.11-.05l.06-.03c.01 0 .01-.01.02-.01.38-.15.74-.21 1.1-.23.78-.04 1.5.07 2.11.48.02.01.04.03.06.05.01.01.05.04.06.05a3.32 3.32 0 0 1 .36.37c0 .01.01.01.01.01l.01.01c.03.04.06.08.08.12.09.14.18.29.25.44.01.02.02.04.03.07a2.25 2.25 0 0 1 .12.34c.05.15.09.3.12.46.02.08.03.17.05.25.01.03.02.06.02.1v.01c0 .02 0 .03.01.05.03.26.05.53.05.79-.05-.01-.1-.01-.15-.01H9.08c-.05 0-.1 0-.15.01.01-.23.02-.46.04-.68zm-.86 3.84c-.01.07-.03.08 0 0zm10.88 10.89c0 .01-.04.11-.04.11-.02.05-.05.1-.08.14-.01.02-.02.03-.03.05l-.01.01c-.02.02-.15.14-.09.09-.13.1-.17.1-.3.14-.13.03-.27.04-.44.03-.06 0-.09-.01-.15-.02-.03-.01-.06-.02-.1-.03 0 0-.14-.05-.07-.02-.15-.07-.16-.09-.25-.18-.01-.02-.02-.03-.03-.03-.01-.01-.02-.03-.03-.04a.7.7 0 0 1-.09-.17c-.13-.29-.63-.29-.76 0-.04.08-.08.15-.12.22.01-.02-.05.05-.05.06l-.06.06c.04-.03.03-.02-.01.01-.17.12-.36.15-.59.16-.22 0-.4-.04-.56-.13 0 0-.05-.04-.06-.05-.03-.03-.06-.05-.08-.08.02.02-.05-.07-.06-.09-.03-.04-.05-.09-.07-.14-.13-.29-.63-.29-.76 0-.04.08-.08.15-.13.22.02-.03-.06.07-.08.08l-.03.03c-.02.01-.03.02-.05.03-.11.07-.11.06-.23.1-.13.04-.24.04-.38.04-.11 0-.2-.02-.31-.05a.185.185 0 0 0-.07-.02l-.04-.02a.642.642 0 0 0-.1-.06c-.03-.02-.05-.05-.08-.07l-.05-.05-.01-.01a.638.638 0 0 1-.08-.14c-.01-.01-.01-.03-.02-.04 0 0-.01-.02-.01-.04a.444.444 0 0 0-.85 0c-.01.02-.01.03-.01.03v.01c-.02.05-.05.09-.08.14-.01.02-.02.03-.03.05 0 .01-.01.01-.02.02-.03.04-.07.07-.1.1.03-.02-.06.04-.07.04-.02.01-.05.03-.08.04-.01 0-.02.01-.03.01-.13.05-.24.06-.36.06-.24.01-.45-.03-.62-.13 0 0-.05-.04-.06-.05-.03-.03-.06-.05-.08-.08.02.02-.05-.07-.06-.09-.03-.04-.05-.09-.07-.14-.13-.29-.63-.29-.76 0-.04.08-.08.15-.12.22.01-.02-.05.05-.05.06l-.06.06c.04-.03.03-.02-.01.01-.17.12-.36.15-.59.16-.22 0-.4-.04-.56-.13 0 0-.05-.04-.06-.05-.03-.03-.06-.05-.08-.08.02.02-.05-.07-.06-.09-.03-.04-.05-.09-.07-.14-.13-.29-.63-.29-.76 0-.02.05-.05.09-.07.14-.01.02-.1.14-.05.07-.1.12-.1.11-.24.19-.02.01-.03.01-.03.02-.02.01-.05.02-.08.03a1.254 1.254 0 0 1-.63.02.575.575 0 0 1-.31-.13c-.01-.01-.01-.01-.02-.01-.02-.01-.03-.03-.05-.04-.02-.02-.04-.04-.05-.06l-.01-.01c0-.01-.01-.01-.01-.02-.03-.04-.05-.09-.08-.13-.01-.01-.01-.03-.02-.04a.26.26 0 0 0-.03-.07.938.938 0 0 1-.08-.24c.52-1.37 1.04-2.74 1.56-4.12.74-1.95 1.48-3.91 2.22-5.86l.21-.54c.02-.06.03-.13.03-.2V7.52c0-.01 0-.12-.01-.07v-.04s.01-.01.02-.03c-.02.05.07-.05.01-.01.01-.01.02-.02.03-.02h.04-.01 5.82c.11 0 .12.02.12.1v2.19a.485.485 0 0 0 .04.29c.52 1.36 1.04 2.73 1.55 4.09l2.22 5.86c.06.17.13.33.19.5.01.05 0 .1-.02.15zm-8.9-9.26c-.24-.07-.47.08-.54.31-.58 1.73-1.16 3.46-1.73 5.19-.08.25-.17.5-.25.75-.08.23.09.48.31.54.24.07.47-.08.54-.31.58-1.73 1.16-3.46 1.73-5.19.08-.25.17-.5.25-.75.07-.23-.09-.48-.31-.54zm4.63 1.05c-.08-.25-.17-.5-.25-.75-.08-.23-.3-.37-.54-.31-.22.06-.38.31-.31.54.58 1.73 1.16 3.46 1.73 5.19.08.25.17.5.25.75.08.23.3.37.54.31.22-.06.38-.31.31-.54-.57-1.73-1.15-3.46-1.73-5.19zm-3.16.1v5.94c0 .57.88.57.88 0v-5.94c0-.56-.88-.56-.88 0z"/></svg>