<svg id="Layer_2" xmlns="http://www.w3.org/2000/svg" viewBox="0 0 24 24"><style>.st0{fill:#666}</style><path class="st0" d="M12 22C6.48 22 1.99 17.51 1.99 12 1.99 6.48 6.48 1.99 12 1.99S22.01 6.48 22.01 12c0 5.51-4.5 10-10.01 10zm2.82-10.31c-2.15 2.4-5.23 4.62-9.15 6.59l-.24.12.19.19a9.105 9.105 0 0 0 6.37 2.58c1.1 0 2.18-.19 3.2-.58l.19-.07-.08-.18c-1.59-3.73.49-6.25.58-6.36.12-.15.25-.28.38-.41l.11-.11-.08-.13c-.34-.56-.74-1.11-1.17-1.64l-.14-.17-.16.17zm1.7 2.82c-.07.09-1.82 2.25-.46 5.47l.08.19.19-.1c.68-.36 1.31-.81 1.87-1.33l.06-.05v-.12c-.25-1.46-.7-2.84-1.34-4.11l-.13-.25s-.25.28-.27.3zm3.81-1.88c-.69 0-1.72.16-2.77.91l-.13.1.08.15a15.2 15.2 0 0 1 1.39 3.77l.09.39.25-.32a9.217 9.217 0 0 0 1.9-4.74l.02-.18-.18-.03a3.56 3.56 0 0 0-.65-.05zM2.93 10.6a9.095 9.095 0 0 0 1.83 7.04l.1.12.14-.08C16.62 11.94 17.33 5.82 17.35 4.65v-.08l-.08-.08a9.125 9.125 0 0 0-3.85-1.56l-.28-.04.06.28c.22.97.44 2.9-.55 4.88l-.07.14.13.1c.44.33.83.65 1.2.97-.18.24-.35.46-.51.66-.36-.32-.73-.62-1.14-.94l-.14-.11L12 9c-.81.89-2.54 2.39-5.14 2.39-1.17 0-2.4-.32-3.66-.94l-.23-.12-.04.27zm15.16-5.05c-.19 1.17-.78 3.02-2.49 5.2l-.1.12.1.12c.47.55.9 1.14 1.28 1.74l.12.17.16-.11c.94-.66 2-.99 3.13-.99.22 0 .44.01.65.04l.22.03-.01-.22a9.148 9.148 0 0 0-2.75-6.19l-.26-.26-.05.35zm-12.75.14a9.268 9.268 0 0 0-2.13 3.66l-.05.15.14.07c1.24.66 2.45.99 3.6.99 2.25 0 3.72-1.26 4.4-2 .24-.27.47-.61.68-1.03.91-1.94.52-3.84.31-4.57l-.04-.14H12c-2.04 0-3.97.66-5.59 1.91l-.29.22.34.11c1 .33 2.55.92 4.22 1.89-.15.29-.32.54-.46.69-2-1.15-3.8-1.74-4.69-1.99l-.12-.04-.07.08z"/></svg>