<svg id="Layer_2" data-name="Layer 2" xmlns="http://www.w3.org/2000/svg" viewBox="0 0 20.08333 20.08129"><defs><style>.cls-1{fill:#41494f}</style></defs><title>Benefits</title><path class="cls-1" d="M5.754 12.684v-.003h-3.37a.428.428 0 0 0-.426.428v8.507a.425.425 0 0 0 .425.425h3.371a.428.428 0 0 0 .425-.425v-8.507a.425.425 0 0 0-.425-.425zm-.428 8.501H2.811V13.53h2.515zM21.96 7.979l.003-.003-4.221-5.856a.441.441 0 0 0-.68 0L12.84 7.976a.387.387 0 0 0 .34.64h2.09V21.6a.425.425 0 0 0 .424.426h3.371a.495.495 0 0 0 .466-.426V8.622h2.09a.4.4 0 0 0 .339-.643zm-2.9-.215a.428.428 0 0 0-.422.428v12.993h-2.562V8.192a.425.425 0 0 0-.425-.425h-1.705l3.411-4.703 3.408 4.7zM12.41 11.22v.006H9.039a.428.428 0 0 0-.425.42v9.953a.425.425 0 0 0 .425.426h3.37a.428.428 0 0 0 .426-.426v-9.953a.428.428 0 0 0-.425-.425zm-2.943 9.96v-9.096h2.515l.003 9.096z" transform="translate(-1.958 -1.96)"/></svg>