<svg id="Layer_2" data-name="Layer 2" xmlns="http://www.w3.org/2000/svg" viewBox="0 0 18.19951 20.83333"><defs><style>.cls-1{fill:#41494e}</style></defs><title>BettingLine</title><path class="cls-1" d="M13.336 14.703a1.375 1.375 0 0 0-.811.252l-.713.515a4.825 4.825 0 0 1-3-2.49 4.825 4.825 0 0 1-.658-3.843l.802-.36c.85-.382 1.118-1.52.757-3.205-.296-1.38-1.29-3.989-2.932-3.989a1.45 1.45 0 0 0-.448.072l-1.24.401a2.944 2.944 0 0 0-1.972 2.2c-.658 3.164.17 7.064 2.27 10.7 2.099 3.636 5.064 6.3 8.135 7.313a2.939 2.939 0 0 0 2.889-.609l.968-.874a1.813 1.813 0 0 0 .286-2.166c-.594-1.546-2.771-3.916-4.333-3.917zm3.577 5.562l-.968.874a2.237 2.237 0 0 1-2.2.464c-3.057-1.008-5.864-3.737-7.747-6.998-1.884-3.26-2.845-7.056-2.19-10.208a2.238 2.238 0 0 1 1.5-1.673l1.241-.402a.745.745 0 0 1 .232-.037c1.619 0 3.223 5.252 1.888 5.852l-1.055.473a5.313 5.313 0 0 0 .591 4.72 5.312 5.312 0 0 0 3.793 2.87l.937-.676a.667.667 0 0 1 .4-.12c1.534.001 4.779 3.779 3.578 4.861z" transform="translate(-2.9 -1.583)"/><path class="cls-1" d="M15.513 6.767a3.448 3.448 0 1 0 3.448 3.448 3.448 3.448 0 0 0-3.448-3.448zm0 6.195a2.747 2.747 0 1 1 2.747-2.747 2.747 2.747 0 0 1-2.747 2.747zM12.76 7.124a2.716 2.716 0 0 1-.214-1.05 2.745 2.745 0 0 1 4.678-1.95 4.106 4.106 0 0 1 .915.008 3.445 3.445 0 0 0-5.896 3.545 4.164 4.164 0 0 1 .517-.553z" transform="translate(-2.9 -1.583)"/><path class="cls-1" d="M20.528 6.34a3.444 3.444 0 0 0-5.585-.225 4.122 4.122 0 0 1 .998-.018 2.743 2.743 0 0 1 3.71 4.023l.002.095a4.151 4.151 0 0 1-.1.9 3.446 3.446 0 0 0 .975-4.775z" transform="translate(-2.9 -1.583)"/></svg>