<svg id="Layer_2" data-name="Layer 2" xmlns="http://www.w3.org/2000/svg" viewBox="0 0 16.66667 21.06193"><defs><style>.cls-1{fill:#41494e}</style></defs><title>Bin</title><path class="cls-1" d="M5.882 5.8h-1.22l.337 12.503h1.22L5.882 5.8z"/><path class="cls-1" d="M17.409 20.659a.626.626 0 0 1-.591.595H7.514a.68.68 0 0 1-.63-.62L6.108 7.269h-1.22l.777 13.442a1.918 1.918 0 0 0 1.849 1.82h9.304a1.87 1.87 0 0 0 1.808-1.82l.508-13.44h-1.22z" transform="translate(-3.667 -1.469)"/><path class="cls-1" d="M10.877 5.8l-.326 12.503h1.22L12.096 5.8h-1.219zM7.733 5.8h1.219v12.504H7.733z"/><path class="cls-1" d="M19.695 4.552v.001h-3.973V3.29a1.788 1.788 0 0 0-1.74-1.821H9.99a1.787 1.787 0 0 0-1.74 1.82v1.264H4.278a.638.638 0 0 0 0 1.275h15.418a.638.638 0 1 0-.001-1.276zm-5.192.001H9.468V3.29a.541.541 0 0 1 .522-.547h3.99a.542.542 0 0 1 .523.547z" transform="translate(-3.667 -1.469)"/></svg>