<svg id="Layer_2" data-name="Layer 2" xmlns="http://www.w3.org/2000/svg" viewBox="0 0 18.43207 20.18545"><defs><style>.cls-1{fill:#41494f}</style></defs><title>Blackjack</title><path class="cls-1" d="M16.014 5.878c-1.655-1.304-3.22-2.535-3.585-3.66a.45.45 0 0 0-.858 0c-.366 1.125-1.93 2.356-3.585 3.66-2.438 1.92-5.202 4.096-5.202 6.816a5.274 5.274 0 0 0 3.129 5.114 5.645 5.645 0 0 0 4.641-.067 3.1 3.1 0 0 1-2.146 2.144.45.45 0 0 0-.365.436 2.366 2.366 0 0 0 .598 1.665.451.451 0 0 0 .392.095c.09-.02.185-.043.286-.068a10.198 10.198 0 0 1 5.362 0c.101.025.196.048.286.068a.45.45 0 0 0 .393-.095 2.365 2.365 0 0 0 .597-1.665.45.45 0 0 0-.365-.436 3.099 3.099 0 0 1-2.146-2.143 5.645 5.645 0 0 0 4.642.066 5.274 5.274 0 0 0 3.128-5.114c0-2.72-2.764-4.896-5.202-6.816zm1.68 11.119a4.593 4.593 0 0 1-4.517-.512.45.45 0 0 0-.751.336 4.05 4.05 0 0 0 2.605 3.836 1.645 1.645 0 0 1-.136.48h-.002a11.089 11.089 0 0 0-5.786 0h-.002a1.643 1.643 0 0 1-.135-.48 4.05 4.05 0 0 0 2.604-3.836.45.45 0 0 0-.75-.336 4.594 4.594 0 0 1-4.518.512 4.381 4.381 0 0 1-2.62-4.303c0-2.283 2.58-4.315 4.858-6.108A16.675 16.675 0 0 0 12 3.353a16.672 16.672 0 0 0 3.456 3.233c2.278 1.793 4.858 3.825 4.858 6.108a4.381 4.381 0 0 1-2.62 4.303z" transform="translate(-2.784 -1.907)"/><path class="cls-1" d="M11.403 5.054l-.001.001c-.041.046-.095.11-.16.188a7.234 7.234 0 0 1-1.074 1.091l-4.521 3.83-.023.02a3.462 3.462 0 0 0-1.088 2.273.45.45 0 0 0 .45.432h.02a.45.45 0 0 0 .431-.47 2.594 2.594 0 0 1 .805-1.578l4.49-3.804a7.941 7.941 0 0 0 1.2-1.215l.14-.164a.45.45 0 0 0-.669-.604z" transform="translate(-2.784 -1.907)"/></svg>