<svg id="Layer_2" data-name="Layer 2" xmlns="http://www.w3.org/2000/svg" viewBox="0 0 20 19.30258"><defs><style>.cls-1{fill:#41494f}</style></defs><title>Bonus_Feature_Slots</title><path class="cls-1" d="M21.958 8.25a1.62 1.62 0 0 0-1.578-1.256 1.62 1.62 0 0 0-.378 3.198l-.02 4.919a1.65 1.65 0 0 1-1.652 1.646l-.866-.002.015-9.74a2.393 2.393 0 0 0-2.364-2.393l.002-1.214a1.045 1.045 0 0 0-1.043-1.046L5.44 2.35A1.045 1.045 0 0 0 4.393 3.39l-.002 1.214A2.392 2.392 0 0 0 2.02 6.99L2 19.24a2.393 2.393 0 0 0 2.387 2.394l10.678.017a2.393 2.393 0 0 0 2.395-2.386l.003-1.768.866.002a2.393 2.393 0 0 0 2.395-2.386l.02-4.919a1.62 1.62 0 0 0 1.214-1.945zM5.136 3.391a.302.302 0 0 1 .302-.302l8.635.014a.302.302 0 0 1 .302.303l-.002 1.212-9.24-.014zm11.582 15.871a1.65 1.65 0 0 1-1.651 1.646l-10.679-.017a1.65 1.65 0 0 1-1.646-1.65l.02-12.25a1.65 1.65 0 0 1 1.65-1.647l10.68.017a1.65 1.65 0 0 1 1.645 1.651zm4.54-10.646z" transform="translate(-2 -2.349)"/><path class="cls-1" d="M5.937 15.342a1.49 1.49 0 1 0 1.487 1.491 1.49 1.49 0 0 0-1.487-1.491zm-.004 2.236a.747.747 0 1 1 .749-.746.747.747 0 0 1-.749.746zM9.736 15.348a1.49 1.49 0 1 0 1.487 1.491 1.491 1.491 0 0 0-1.487-1.491zm-.003 2.236a.747.747 0 1 1 .748-.746.747.747 0 0 1-.748.746zM13.535 15.354a1.49 1.49 0 1 0 1.487 1.491 1.49 1.49 0 0 0-1.487-1.491zm.745 1.49a.747.747 0 1 1-.746-.748.748.748 0 0 1 .746.748zM14.829 9.124l-.823-.073-.361-.793a.363.363 0 0 0-.66 0l-.363.793-.821.074a.361.361 0 0 0-.275.172.362.362 0 0 0-.274-.173l-.822-.073-.362-.793a.363.363 0 0 0-.33-.213.364.364 0 0 0-.33.212l-.362.794-.822.074a.362.362 0 0 0-.274.172.362.362 0 0 0-.274-.173l-.822-.073-.362-.794a.363.363 0 0 0-.66 0l-.363.794-.821.074a.363.363 0 0 0-.224.618l.617.613-.152.785a.363.363 0 0 0 .518.393l.754-.376.755.38a.363.363 0 0 0 .518-.394l-.152-.789.617-.611a.356.356 0 0 0 .05-.068.358.358 0 0 0 .051.067l.617.613-.152.785a.363.363 0 0 0 .518.393l.754-.376.755.379a.363.363 0 0 0 .519-.393l-.153-.789.617-.611a.355.355 0 0 0 .051-.068.358.358 0 0 0 .05.067l.618.613-.152.784a.363.363 0 0 0 .518.394l.754-.376.754.379a.363.363 0 0 0 .52-.393l-.154-.789.618-.612a.363.363 0 0 0-.223-.619zm-8.059.933a.286.286 0 0 0-.08.257l.102.52-.502-.252a.285.285 0 0 0-.128-.03.29.29 0 0 0-.128.03l-.502.25.1-.516a.287.287 0 0 0-.079-.258l-.406-.403.54-.048a.287.287 0 0 0 .234-.167l.24-.527.24.527a.287.287 0 0 0 .236.167l.539.048zm3.576 0a.286.286 0 0 0-.079.257l.1.52-.5-.252a.284.284 0 0 0-.13-.03.29.29 0 0 0-.127.03l-.502.25.1-.516a.287.287 0 0 0-.078-.258l-.407-.403.54-.048a.287.287 0 0 0 .235-.167l.24-.527.24.527a.287.287 0 0 0 .235.167l.539.048zm3.577 0a.286.286 0 0 0-.08.257l.101.52-.501-.252a.284.284 0 0 0-.129-.03.29.29 0 0 0-.128.03l-.501.25.1-.516a.287.287 0 0 0-.08-.258l-.405-.403.539-.048a.287.287 0 0 0 .235-.167l.24-.527.24.527a.287.287 0 0 0 .235.167l.54.048z" transform="translate(-2 -2.349)"/></svg>