<svg id="Layer_2" xmlns="http://www.w3.org/2000/svg" viewBox="0 0 24 24"><style>.st0{fill:none}.st1{fill:#666}</style><path class="st0" d="M12.36 14.97c-.56-.55-.91-.9-.99-1.24a.285.285 0 0 1 0-.13c.12-.64 1.56-2.61 2.04-3.23l-.06-.07c-.12-.13-.12-.33.01-.45s.33-.12.45.01l.37.39c.14.14.3.36.55.69.48.65 1.14 1.53 1.86 2.07.69.52 2.15 1.15 2.91 1.15.21 0 .26-.05.26-.05.07-.2-.76-.83-1.21-1.17-.59-.45-1.26-.96-1.66-1.51-.39-.54-.52-.79-.67-1.11-.11-.22-.24-.48-.5-.91-.58-.97-2.65-2.25-4.18-2.58-.18-.04-.38-.06-.6-.06-1.66 0-4.08 1.08-4.7 2.1-.88 1.43-1.49 2.92-1.5 3.36.59-.1 1.24-1.08 1.73-1.8.31-.44.58-.83.82-1.03.61-.5 2.53-1.2 3.02-1.37l.13-.18c.1-.14.3-.17.44-.07s.17.3.07.44l-.23.32c-.37.53-2.9 4.14-3.55 5.19-.28.45-.57.95-.87 1.46-.46.78-.93 1.58-1.34 2.2-.18.28-.5.65-.86 1.07-.47.56-1.44 1.69-1.46 2.05.02 0 .06.01.12.01 1.32 0 3.38-2.06 4-2.79.5-.59 1.79-2.53 2.05-2.91 0-.01.02-.02.03-.04.01-.01.02-.03.02-.03.09-.13.27-.39.42-.53.13-.12.33-.12.45 0s.12.33 0 .45c-.04.04-.1.11-.15.18.69.46 2.33 1.65 2.61 2.6.12.4.15.94.17 1.47.03.68.08 1.61.38 1.61.03 0 .09-.03.16-.12.56-.69.9-3.15.77-3.79-.11-.49-.77-1.13-1.31-1.65z"/><circle class="st0" cx="15.45" cy="4.81" r="1.66"/><path class="st1" d="M12.81 14.51c-.3-.29-.69-.67-.79-.87.18-.51 1.3-2.12 1.83-2.81.11.13.24.32.37.49.5.68 1.19 1.61 1.99 2.2.8.6 2.38 1.28 3.3 1.28.57 0 .78-.26.85-.47.23-.64-.54-1.22-1.42-1.89-.56-.42-1.19-.9-1.53-1.37-.36-.5-.47-.72-.62-1.02-.11-.22-.25-.5-.52-.95-.74-1.24-3.03-2.53-4.59-2.87-.22-.05-.47-.07-.74-.07-1.91 0-4.5 1.19-5.24 2.4-.08.13-1.97 3.24-1.5 4.08.09.16.25.26.45.26.95 0 1.73-1.16 2.36-2.09.27-.4.52-.77.69-.91.32-.26 1.21-.64 1.97-.94-.89 1.27-2.51 3.61-3.03 4.45-.28.45-.58.96-.88 1.47-.46.77-.93 1.57-1.33 2.17-.16.25-.48.62-.82 1.01-1.14 1.34-1.82 2.19-1.56 2.75.07.16.26.36.7.36 1.89 0 4.45-2.98 4.48-3.01.47-.55 1.54-2.15 1.97-2.79.91.61 2.18 1.64 2.37 2.26.1.33.12.83.15 1.32.05 1.04.11 2.21 1.02 2.21.24 0 .46-.12.65-.36.75-.91 1.05-3.6.9-4.32-.15-.66-.86-1.36-1.48-1.97zm.07 5.89c-.07.09-.13.12-.16.12-.3 0-.35-.93-.38-1.61-.03-.52-.05-1.06-.17-1.47-.28-.95-1.93-2.14-2.61-2.6.05-.07.11-.13.15-.18.12-.12.13-.32 0-.45a.317.317 0 0 0-.45 0c-.15.15-.33.41-.42.53 0 0-.01.01-.02.03-.01.02-.02.04-.03.04-.25.38-1.54 2.32-2.05 2.91-.62.72-2.68 2.79-4 2.79-.06 0-.1-.01-.12-.01.02-.36.99-1.49 1.46-2.05.36-.43.68-.8.86-1.07.41-.61.88-1.42 1.34-2.2.3-.5.59-1.01.87-1.46.65-1.05 3.17-4.65 3.55-5.19l.23-.32c.1-.14.07-.34-.07-.44a.318.318 0 0 0-.44.07l-.13.18c-.47.18-2.39.88-3 1.38-.25.2-.51.59-.82 1.05-.49.72-1.15 1.7-1.73 1.8.01-.45.62-1.93 1.5-3.36.62-1.02 3.04-2.1 4.7-2.1.22 0 .42.02.6.06 1.53.33 3.59 1.6 4.18 2.58.26.43.39.69.5.91.16.31.28.56.67 1.11.4.55 1.07 1.06 1.66 1.51.45.34 1.28.97 1.21 1.17 0 0-.05.05-.26.05-.77 0-2.22-.63-2.91-1.15-.72-.54-1.38-1.43-1.86-2.07-.24-.33-.41-.55-.55-.69l-.38-.41a.317.317 0 0 0-.45-.01c-.13.12-.13.32-.01.45l.06.07c-.48.62-1.91 2.59-2.04 3.23-.01.04-.01.09 0 .13.08.33.43.69.99 1.24.53.52 1.19 1.17 1.29 1.64.14.64-.2 3.1-.76 3.79zm2.57-13.29a2.3 2.3 0 1 0 0-4.6 2.3 2.3 0 0 0 0 4.6zm0-3.96c.92 0 1.66.75 1.66 1.66 0 .92-.75 1.66-1.66 1.66-.92 0-1.66-.75-1.66-1.66a1.65 1.65 0 0 1 1.66-1.66zm2.31 17.37h-2.53c-.17 0-.32.14-.32.32s.14.32.32.32h2.53c.17 0 .32-.14.32-.32s-.14-.32-.32-.32zm0-1.36H16.5c-.17 0-.32.14-.32.32 0 .17.14.32.32.32h1.27c.17 0 .32-.14.32-.32a.33.33 0 0 0-.33-.32zm2.73-.72c-.83 0-1.51.68-1.51 1.51s.68 1.51 1.51 1.51S22 20.78 22 19.95c.01-.83-.67-1.51-1.51-1.51zm.99 1.52c0 .55-.44.99-.99.99s-.99-.44-.99-.99.44-.99.99-.99.99.44.99.99z"/></svg>