<svg id="Layer_2" data-name="Layer 2" xmlns="http://www.w3.org/2000/svg" viewBox="0 0 19.66931 19.66667"><defs><style>.cls-1{fill:#41494e}</style></defs><title>Calendar</title><path class="cls-1" d="M7.476 6.913a1.203 1.203 0 0 0 1.242-1.162V3.33a1.203 1.203 0 0 0-2.404 0v2.42a1.203 1.203 0 0 0 1.162 1.163zM16.464 6.913a1.203 1.203 0 0 0 1.242-1.162V3.33a1.203 1.203 0 0 0-2.404 0v2.42a1.203 1.203 0 0 0 1.162 1.163z" transform="translate(-2.165 -2.167)"/><path class="cls-1" d="M3.445 8.743h3.352v3.195H3.445zM3.445 13.106h3.352v3.195H3.445z"/><path class="cls-1" d="M21.411 4.061h-3.043v1.69a1.865 1.865 0 0 1-3.728 0V4.06H9.38v1.69a1.865 1.865 0 0 1-3.728 0V4.06H2.586a.415.415 0 0 0-.42.407v16.958a.415.415 0 0 0 .42.407H16.49a1.374 1.374 0 0 0 .998-.404l4.072-4.532a.87.87 0 0 0 .273-.705V4.468a.415.415 0 0 0-.42-.407zm-1.12 11.516a.585.585 0 0 1-.658.637h-1.9a.965.965 0 0 0-1.093 1.056v2.433c-.03.416-.218.64-.658.64H3.947a.24.24 0 0 1-.24-.233V9.268a.242.242 0 0 1 .24-.233H20.05a.24.24 0 0 1 .241.233z" transform="translate(-2.165 -2.167)"/><path class="cls-1" d="M12.869 8.743h3.352v3.195h-3.352zM8.157 13.106h3.352v3.195H8.157zM8.157 8.743h3.352v3.195H8.157z"/></svg>