<svg id="Layer_2" data-name="Layer 2" xmlns="http://www.w3.org/2000/svg" viewBox="0 0 20 19.79702"><defs><style>.cls-1{fill:#41494f}</style></defs><title>Cancel_Withdraw</title><path class="cls-1" d="M8.037 15.876a.415.415 0 0 0 .587 0l3.523-3.53 3.53 3.53a.413.413 0 0 0 .583-.585l-.002-.001-3.524-3.53 3.524-3.523a.414.414 0 0 0 .002-.586l-.002-.002a.415.415 0 0 0-.581 0l-3.53 3.529-3.523-3.529a.415.415 0 1 0-.587.588l3.522 3.522-3.522 3.53a.415.415 0 0 0 0 .587z" transform="translate(-2 -2.101)"/><path class="cls-1" d="M21.603 8.85A.397.397 0 0 0 22 8.453v-4.09a2.264 2.264 0 0 0-2.262-2.261H4.262A2.264 2.264 0 0 0 2 4.363v15.274a2.264 2.264 0 0 0 2.262 2.262h15.476A2.264 2.264 0 0 0 22 19.637v-4.148a.397.397 0 0 0-.793 0v4.148a1.47 1.47 0 0 1-1.469 1.468H4.262a1.47 1.47 0 0 1-1.469-1.468V4.363a1.47 1.47 0 0 1 1.469-1.468h15.476a1.47 1.47 0 0 1 1.469 1.468v4.09a.397.397 0 0 0 .396.397z" transform="translate(-2 -2.101)"/></svg>