<svg id="Layer_2" xmlns="http://www.w3.org/2000/svg" viewBox="0 0 24 24"><style>.st0{fill:#666}</style><path class="st0" d="M8.84 2.03C7 2.03 5.27 6.87 5.27 12c0 5.12 1.74 9.97 3.57 9.97 1.57 0 3.57-4.69 3.57-9.97 0-5.03-1.77-9.97-3.57-9.97zm0 19.13c-.95 0-2.76-3.87-2.76-9.16S7.9 2.84 8.84 2.84c.8 0 2.76 3.65 2.76 9.16 0 5.46-2.07 9.16-2.76 9.16z"/><path class="st0" d="M7.18 11.82c0 1.9.7 3.27 1.66 3.27s1.66-1.38 1.66-3.27c0-1.9-.7-3.27-1.66-3.27s-1.66 1.37-1.66 3.27zm1.66 2.54c-.38 0-.93-.99-.93-2.54s.55-2.54.93-2.54.93.99.93 2.54-.55 2.54-.93 2.54zM8.84 5.61c.2 0 .37-.16.37-.37V3.83c0-.2-.16-.37-.37-.37s-.36.17-.36.37v1.42c0 .2.16.36.36.36zM8.84 18.34c-.2 0-.37.16-.37.37v1.42c0 .2.16.37.37.37s.37-.16.37-.37V18.7c0-.2-.17-.36-.37-.36zM17.33 7.48l.48-.55c.26-.29.4-.67.4-1.06V2.82c0-.06-.01-.12-.04-.17-.37-.76-2.35-.4-2.37-.39-.42.1-.64.29-.64.57v3.06c0 .38.13.75.37 1.04l.47.54c.07.08.17.13.28.14v8.93a.42.42 0 0 0-.28.14l-.46.56c-.24.29-.37.66-.37 1.04v3.06c0 .28.21.47.64.57.01 0 .49.09 1.03.09.55 0 1.16-.1 1.34-.48.03-.05.04-.11.04-.17V18.3c0-.39-.14-.77-.4-1.06l-.48-.55a.383.383 0 0 0-.24-.13V7.61c.08-.01.16-.06.23-.13zm-1.36-1.6V3.03c.35-.08 1.11-.1 1.43-.01v2.84c0 .19-.07.38-.2.53l-.15.17v-2.6a.37.37 0 1 0-.74 0v2.63l-.16-.19a.822.822 0 0 1-.18-.52zm1.42 12.41v2.84c-.31.09-1.08.07-1.43-.01v-2.85c0-.19.07-.37.19-.52l.16-.19v2.82a.37.37 0 1 0 .74 0v-2.8l.15.17c.12.16.19.35.19.54z"/></svg>