<svg id="Layer_2" data-name="Layer 2" xmlns="http://www.w3.org/2000/svg" viewBox="0 0 21.5 13.01056"><defs><style>.cls-1{fill:#41494f}</style></defs><title>Cashout</title><path class="cls-1" d="M14.642 8.037a1.696 1.696 0 0 0-.674-1.167 1.696 1.696 0 0 0-1.267-.418 2.347 2.347 0 0 0-1.464 1.04l-.083.097c-.431.524-3.221 3.537-3.25 3.561a.354.354 0 0 0 .52.472c.115-.125 2.83-3.052 3.275-3.592l.092-.115a1.8 1.8 0 0 1 .99-.772 1.188 1.188 0 0 1 1.154.96 2.182 2.182 0 0 1-.472 1.328l-.014.019c-.021.03-2.26 3.205-4.273 5.76a6.523 6.523 0 0 1-3.898 2.55l-3.24-5.582 3.692-4.25.024-.03a1.771 1.771 0 0 1 1.32-.707h2.39a.354.354 0 0 0 0-.708H7.066a2.453 2.453 0 0 0-1.886 1l-3.844 4.424a.354.354 0 0 0-.04.408l3.49 6.013a.354.354 0 0 0 .307.177h.018a6.818 6.818 0 0 0 4.623-2.846c1.983-2.507 4.169-5.603 4.296-5.785a2.82 2.82 0 0 0 .611-1.837z" transform="translate(-1.25 -5.495)"/><path class="cls-1" d="M22.132 6.13a2.61 2.61 0 0 0-1.74-.635H10.84a.354.354 0 0 0 0 .707h9.562a1.91 1.91 0 0 1 1.243.441 1.457 1.457 0 0 1 .396 1.092v4.74c0 .1-.08.958-1.728.958H12.02a.354.354 0 1 0 0 .707h2.5c.054.378.063 1.057-.524 1.234-.736.219-1.21-.649-1.231-.691a.354.354 0 0 0-.627.327 1.996 1.996 0 0 0 1.62 1.106 1.533 1.533 0 0 0 .44-.066 1.647 1.647 0 0 0 1.036-1.91h5.077c2.408 0 2.436-1.65 2.436-1.65V7.734a2.122 2.122 0 0 0-.615-1.606z" transform="translate(-1.25 -5.495)"/><path class="cls-1" d="M17.816 8.707a.441.441 0 0 1 .377-.165.545.545 0 0 1 .144.016.453.453 0 0 1 .116.05.514.514 0 0 1 .097.078q.044.044.092.099a.212.212 0 0 0 .16.08.318.318 0 0 0 .14-.04l.235-.154a1.382 1.382 0 0 0-.153-.25.971.971 0 0 0-.21-.2 1.012 1.012 0 0 0-.27-.132 1.14 1.14 0 0 0-.35-.05 1.24 1.24 0 0 0-.493.09.986.986 0 0 0-.35.236 1.011 1.011 0 0 0-.207.36 1.38 1.38 0 0 0-.068.437v.578h-.262a.189.189 0 0 0-.151.059.212.212 0 0 0-.052.144v.193h.472v.637a.4.4 0 0 1-.125.304.495.495 0 0 1-.132.09.821.821 0 0 1-.158.054v.38h2.344a.236.236 0 0 0 .106-.024.264.264 0 0 0 .082-.062.279.279 0 0 0 .052-.084.236.236 0 0 0 .02-.09v-.25h-1.444a1.607 1.607 0 0 0-.358.042.865.865 0 0 0 .165-.235.662.662 0 0 0 .059-.288v-.472h.827a.165.165 0 0 0 .123-.05.15.15 0 0 0 .057-.112V9.74h-1.007v-.576a.745.745 0 0 1 .122-.457z" transform="translate(-1.25 -5.495)"/></svg>