<svg id="Layer_2" data-name="Layer 2" xmlns="http://www.w3.org/2000/svg" viewBox="0 0 18.6173 20.01686"><defs><style>.cls-1{fill:#41494f}</style></defs><title>Casino_Games</title><path class="cls-1" d="M19.647 2.005l-8.395-.013a1.667 1.667 0 0 0-1.659 1.494l-2.217.438a1.67 1.67 0 0 0-1.299 1.25l-2.356.971a1.667 1.667 0 0 0-.904 2.174l5.22 12.659a1.664 1.664 0 0 0 2.172.905h.001l5.425-2.238 3.135-.618.85.001a1.667 1.667 0 0 0 1.667-1.662l.022-13.694a1.667 1.667 0 0 0-1.662-1.667zM9.917 21.17a.893.893 0 0 1-1.168-.483v-.003L3.528 8.025a.896.896 0 0 1 .486-1.168l2.074-.855 2.626 13.311a1.663 1.663 0 0 0 1.951 1.312h.004l1.093-.216zm.604-1.301a.903.903 0 0 1-1.05-.705L6.82 5.73a.895.895 0 0 1 .704-1.05l2.059-.407-.021 13.074a1.666 1.666 0 0 0 1.662 1.668l3.599.005zm9.996-2.504a.896.896 0 0 1-.896.893l-8.395-.013a.896.896 0 0 1-.893-.897l.022-13.693a.896.896 0 0 1 .896-.893l8.394.013a.896.896 0 0 1 .894.896z" transform="translate(-2.691 -1.992)"/><path class="cls-1" d="M16.722 9.92a1.875 1.875 0 0 0-1.285.5 1.895 1.895 0 0 0-2.622.044 1.86 1.86 0 0 0-.558 1.322 2.001 2.001 0 0 0 .608 1.418l2.291 2.3a.385.385 0 0 0 .544 0l2.3-2.292a2 2 0 0 0 .61-1.417 1.862 1.862 0 0 0-.553-1.323 1.885 1.885 0 0 0-1.335-.552zm.733 2.747l-2.025 2.02-2.02-2.026a1.239 1.239 0 0 1-.383-.873 1.095 1.095 0 0 1 .33-.777 1.125 1.125 0 0 1 1.59.007l.215.218a.385.385 0 0 0 .545.002l.001-.001.217-.218a1.124 1.124 0 0 1 1.588-.002 1.097 1.097 0 0 1 .327.779 1.238 1.238 0 0 1-.385.871zM13.545 7.043a.385.385 0 1 0 .712-.294l-1.172-2.842a.385.385 0 0 0-.711-.001l-1.181 2.838a.385.385 0 0 0 .71.3V7.04l.138-.323 1.368.002zM12.36 5.948l.368-.888.366.889z" transform="translate(-2.691 -1.992)"/></svg>