<svg id="Layer_2" data-name="Layer 2" xmlns="http://www.w3.org/2000/svg" viewBox="0 0 20.13045 11.58549"><defs><style>.cls-1{fill:#41494f}</style></defs><title>Slots</title><path class="cls-1" d="M.276 2.937A.276.276 0 0 0 0 3.212v4.816a.276.276 0 0 0 .552 0V3.212a.276.276 0 0 0-.276-.275zm7.912-.067a.276.276 0 0 0 .276-.27.346.346 0 0 1 .127-.235.31.31 0 0 1 .205-.086H8.8a.29.29 0 0 0 .036 0 .278.278 0 0 0 .274-.236.272.272 0 0 0-.05-.203.275.275 0 0 0-.184-.108.675.675 0 0 0-.092-.006.86.86 0 0 0-.555.224.884.884 0 0 0-.316.635.277.277 0 0 0 .268.284zm-5.313-.064h.008a.278.278 0 0 0 .275-.27.335.335 0 0 1 .127-.233.31.31 0 0 1 .204-.087h.002a.272.272 0 0 0 .04.003.275.275 0 0 0 .037-.55.674.674 0 0 0-.094-.006.864.864 0 0 0-.554.224.88.88 0 0 0-.315.636.275.275 0 0 0 .267.282zm3.538.664l-.022-.002H3.03a.275.275 0 0 0-.277.274v.002l.006 1.17a.277.277 0 0 0 .276.274.27.27 0 0 0 .173-.062.84.84 0 0 1 .564-.224 1.843 1.843 0 0 1 .24.02l.14.02a4.552 4.552 0 0 0 .628.066l-.088.115a3.59 3.59 0 0 0-.754 2.863.276.276 0 0 0 .274.243h1.22a.276.276 0 0 0 .27-.325 4.91 4.91 0 0 1 .83-2.913.26.26 0 0 0 .035-.11l.094-1.116a.276.276 0 0 0-.25-.297zm-.385 1.303l-.192.365a5.3 5.3 0 0 0-.714 2.468l.005.072h-.662a3.387 3.387 0 0 1 1.156-2.81.27.27 0 0 0 .05-.296.274.274 0 0 0-.25-.166.286.286 0 0 0-.052.005 2.804 2.804 0 0 1-.504.048 3.898 3.898 0 0 1-.612-.058l-.162-.024a2.355 2.355 0 0 0-.32-.025 1.31 1.31 0 0 0-.427.07l-.035.014-.003-.415H6.09z"/><path class="cls-1" d="M17.66 0H2.436A1.47 1.47 0 0 0 .895 1.38v8.824a1.47 1.47 0 0 0 1.542 1.38H17.66a1.47 1.47 0 0 0 1.54-1.38V1.38A1.47 1.47 0 0 0 17.66 0zm.99 10.204a.922.922 0 0 1-.99.83H2.436a.922.922 0 0 1-.99-.83V1.38a.922.922 0 0 1 .99-.83H17.66a.922.922 0 0 1 .99.83zm1.205-7.267a.276.276 0 0 0-.276.275v4.816a.276.276 0 0 0 .55 0V3.212a.276.276 0 0 0-.275-.275z"/><path class="cls-1" d="M16.934.927h-3.206a1.378 1.378 0 0 0-1.053.475A1.376 1.376 0 0 0 11.62.927H8.414a1.383 1.383 0 0 0-1.06.48 1.378 1.378 0 0 0-1.06-.48H3.088A1.258 1.258 0 0 0 1.77 2.113v7.42a1.258 1.258 0 0 0 1.318 1.188h3.206a1.378 1.378 0 0 0 1.06-.48 1.383 1.383 0 0 0 1.06.48h3.206a1.376 1.376 0 0 0 1.052-.474 1.377 1.377 0 0 0 1.056.475h3.206a1.26 1.26 0 0 0 1.318-1.186v-7.42a1.26 1.26 0 0 0-1.318-1.19zM7.06 9.534a.708.708 0 0 1-.766.635H3.088a.708.708 0 0 1-.766-.636v-7.42a.708.708 0 0 1 .766-.636h3.206a.708.708 0 0 1 .766.635zm5.325 0a.708.708 0 0 1-.765.635H8.414a.708.708 0 0 1-.767-.636v-7.42a.708.708 0 0 1 .767-.636h3.206a.708.708 0 0 1 .765.635zm5.316 0a.71.71 0 0 1-.766.635h-3.206a.708.708 0 0 1-.766-.636v-7.42a.708.708 0 0 1 .766-.636h3.206a.71.71 0 0 1 .767.635z"/><path class="cls-1" d="M17.028 3.47q-.01-.002-.023-.002h-3.36a.276.276 0 0 0-.198.082.273.273 0 0 0-.08.195l.008 1.17a.277.277 0 0 0 .277.273.27.27 0 0 0 .172-.062.84.84 0 0 1 .566-.224 1.853 1.853 0 0 1 .242.02l.136.02a4.556 4.556 0 0 0 .63.066l-.088.115a3.586 3.586 0 0 0-.754 2.863.275.275 0 0 0 .274.243h1.22a.276.276 0 0 0 .27-.325 4.896 4.896 0 0 1 .832-2.914.295.295 0 0 0 .033-.107l.096-1.117a.276.276 0 0 0-.252-.297zm-.384 1.304l-.19.364a5.285 5.285 0 0 0-.716 2.468l.005.073h-.664a3.39 3.39 0 0 1 1.157-2.813.27.27 0 0 0 .048-.295.274.274 0 0 0-.25-.165.286.286 0 0 0-.05.004 2.8 2.8 0 0 1-.505.048 3.902 3.902 0 0 1-.612-.058l-.162-.024a2.338 2.338 0 0 0-.32-.025 1.31 1.31 0 0 0-.427.07l-.037.014-.002-.415h2.786zM11.67 3.47q-.01-.002-.022-.002h-3.36a.276.276 0 0 0-.198.08.273.273 0 0 0-.08.197l.008 1.17a.277.277 0 0 0 .277.273.27.27 0 0 0 .172-.062.84.84 0 0 1 .565-.224 1.85 1.85 0 0 1 .242.02l.137.02a4.556 4.556 0 0 0 .63.066l-.088.115A3.586 3.586 0 0 0 9.2 7.986a.275.275 0 0 0 .273.243h1.22a.276.276 0 0 0 .27-.325 4.896 4.896 0 0 1 .832-2.914.295.295 0 0 0 .032-.107l.096-1.117a.276.276 0 0 0-.252-.297zm-.384 1.303l-.19.365a5.285 5.285 0 0 0-.715 2.468l.005.072h-.663a3.39 3.39 0 0 1 1.158-2.81.27.27 0 0 0 .048-.296.274.274 0 0 0-.25-.166.286.286 0 0 0-.05.005 2.8 2.8 0 0 1-.505.048A3.902 3.902 0 0 1 9.51 4.4l-.162-.024a2.34 2.34 0 0 0-.32-.025 1.31 1.31 0 0 0-.426.07l-.036.014-.002-.415h2.784zm2.22-1.935a.28.28 0 0 0 .278-.27.336.336 0 0 1 .125-.234.317.317 0 0 1 .203-.086h.005a.276.276 0 0 0 .078-.546.677.677 0 0 0-.094-.007.863.863 0 0 0-.555.224.89.89 0 0 0-.315.634.278.278 0 0 0 .268.284z"/></svg>