<svg id="Layer_2" data-name="Layer 2" xmlns="http://www.w3.org/2000/svg" viewBox="0 0 19.97028 16.05616"><defs><style>.cls-1{fill:#41494e}</style></defs><title>Change_Pass</title><path class="cls-1" d="M14.975 3.972l-6.35 6.35-.21-.06a4.886 4.886 0 0 0-1.42-.21 4.988 4.988 0 1 0 4.79 3.57l-.06-.21 1.21-1.21v-1.81h1.98v-1.98h1.79l1.34-1.34v-3.09h-.31zm2.46 2.84l-.97.97h-2.17v1.99h-1.99v2.16l-1.18 1.18a.307.307 0 0 0-.07.34 4.354 4.354 0 1 1-7.144-1.476l.014-.014a4.303 4.303 0 0 1 3.08-1.28 4.447 4.447 0 0 1 1.6.3.36.36 0 0 0 .11.02.31.31 0 0 0 .22-.09l6.3-6.3h2.2z" transform="translate(-2.015 -3.972)"/><path class="cls-1" d="M7.1 9.99l-1.81.59v-1.9h-.58v1.9L2.9 9.99l-.17.53 1.82.59-1.13 1.54.46.33L5 11.44l1.12 1.54.45-.33-1.12-1.54 1.82-.59-.17-.53zM15.05 9.79l-1.28.42V8.86h-.41v1.35l-1.28-.42-.12.38 1.29.41-.8 1.09.33.23.79-1.08.79 1.08.32-.23-.79-1.09 1.28-.41-.12-.38zM19.97 10.17l-.12-.38-1.28.42V8.86h-.41v1.35l-1.28-.42-.12.38 1.29.41-.8 1.09.33.23.79-1.08.79 1.08.32-.23-.8-1.09 1.29-.41z"/></svg>