<svg id="Layer_2" data-name="Layer 2" xmlns="http://www.w3.org/2000/svg" viewBox="0 0 20.08333 13.93799"><defs><style>.cls-1{fill:#41494f}</style></defs><title>Community</title><path class="cls-1" d="M12.008 13.784c1.586 0 3.137-1.978 3.137-3.993a3.14 3.14 0 1 0-6.273 0c-.007 2.053 1.532 3.993 3.136 3.993zm-.002-6.524a2.343 2.343 0 0 1 2.37 2.531c0 1.564-1.207 3.219-2.37 3.219-1.194 0-2.367-1.595-2.367-3.219a2.343 2.343 0 0 1 2.367-2.53z" transform="translate(-1.958 -5.031)"/><path class="cls-1" d="M17.575 10.797c1.259 0 2.494-1.558 2.494-3.136a2.5 2.5 0 1 0-4.992-.01c0 1.617 1.214 3.146 2.498 3.146zm-1.72-3.136a1.725 1.725 0 1 1 3.44 0c0 1.131-.9 2.371-1.72 2.371s-1.723-1.206-1.723-2.38z" transform="translate(-1.958 -5.031)"/><path class="cls-1" d="M21.985 12.607a3.905 3.905 0 0 0-2.041-2.69.39.39 0 0 0-.444.639c.965.661 1.551 1.136 1.718 2.171.08.483.062.782-.053.917-.288.336-1.571.336-3.347.336H16.46a10.024 10.024 0 0 0-1.428-1.13.387.387 0 0 0-.437.64c1.206.825 2.065 1.515 2.292 2.917.11.687.082 1.088-.094 1.295-.408.483-1.93.483-4.464.483h-.646c-2.548 0-4.087 0-4.488-.483-.171-.205-.19-.6-.065-1.283.241-1.315.934-1.993 2.292-2.927a.388.388 0 0 0-.439-.64 9.748 9.748 0 0 0-1.419 1.128H6.19c-1.79 0-3.083 0-3.363-.336-.111-.132-.12-.422-.03-.907.182-.98.674-1.467 1.714-2.171a.388.388 0 0 0-.138-.71.383.383 0 0 0-.29.063 3.945 3.945 0 0 0-2.047 2.678 1.822 1.822 0 0 0 .195 1.544c.511.615 1.66.615 3.96.615h.754a4.292 4.292 0 0 0-.574 1.523 2.185 2.185 0 0 0 .241 1.93c.632.76 2.121.76 5.081.76h.642c2.939 0 4.413 0 5.055-.753a2.25 2.25 0 0 0 .27-1.93 4.039 4.039 0 0 0-.562-1.53h.724c2.275 0 3.416 0 3.935-.608a1.879 1.879 0 0 0 .229-1.541z" transform="translate(-1.958 -5.031)"/><path class="cls-1" d="M6.438 10.797c1.26 0 2.494-1.558 2.494-3.136a2.498 2.498 0 1 0-4.99-.01c0 1.617 1.214 3.146 2.496 3.146zm0-4.982a1.708 1.708 0 0 1 1.72 1.846c0 1.131-.9 2.371-1.72 2.371S4.72 8.83 4.718 7.656a1.708 1.708 0 0 1 1.72-1.84z" transform="translate(-1.958 -5.031)"/></svg>