<svg id="Layer_2" data-name="Layer 2" xmlns="http://www.w3.org/2000/svg" viewBox="0 0 21.375 16.83668"><defs><style>.cls-1{fill:#424a4f}</style></defs><title>Connect</title><path class="cls-1" d="M3.014 9.494a.107.107 0 0 0-.107-.106H2.37a.106.106 0 0 0-.107.106.99.99 0 0 1-.036.292.358.358 0 0 1-.104.167.467.467 0 0 1-.2.097 1.553 1.553 0 0 1-.36.035 1.54 1.54 0 0 1-.403-.045.428.428 0 0 1-.23-.144.733.733 0 0 1-.133-.31 2.732 2.732 0 0 1-.046-.554V8.66A2.675 2.675 0 0 1 .8 8.11a.726.726 0 0 1 .134-.307.43.43 0 0 1 .23-.144 1.544 1.544 0 0 1 .402-.047 1.545 1.545 0 0 1 .36.035.47.47 0 0 1 .2.096.362.362 0 0 1 .105.167.963.963 0 0 1 .035.286.106.106 0 0 0 .107.106h.537a.106.106 0 0 0 .106-.106 1.162 1.162 0 0 0-.372-.97 1.743 1.743 0 0 0-1.08-.282 2.658 2.658 0 0 0-.668.076 1.075 1.075 0 0 0-.504.284 1.25 1.25 0 0 0-.296.538A3.01 3.01 0 0 0 0 8.66v.372a3.1 3.1 0 0 0 .09.815 1.23 1.23 0 0 0 .296.543 1.08 1.08 0 0 0 .504.287 2.642 2.642 0 0 0 .672.076 1.744 1.744 0 0 0 1.08-.28 1.17 1.17 0 0 0 .372-.98zm-1.452 1.26zm3.89-3.728a2.567 2.567 0 0 0-.68-.08 2.586 2.586 0 0 0-.675.08 1.064 1.064 0 0 0-.5.292 1.273 1.273 0 0 0-.29.54 3.053 3.053 0 0 0-.09.802v.372a3.188 3.188 0 0 0 .088.807 1.237 1.237 0 0 0 .284.54 1.058 1.058 0 0 0 .5.292 2.593 2.593 0 0 0 .682.08 2.595 2.595 0 0 0 .684-.08 1.06 1.06 0 0 0 .5-.29 1.27 1.27 0 0 0 .288-.543 3.084 3.084 0 0 0 .09-.81v-.37a3.057 3.057 0 0 0-.09-.8 1.256 1.256 0 0 0-.292-.543 1.088 1.088 0 0 0-.5-.29zm.133 2.006a2.95 2.95 0 0 1-.043.555.68.68 0 0 1-.13.305.46.46 0 0 1-.23.146 1.493 1.493 0 0 1-.41.047 1.496 1.496 0 0 1-.407-.047.437.437 0 0 1-.227-.145.704.704 0 0 1-.126-.306 2.93 2.93 0 0 1-.043-.555V8.66a2.886 2.886 0 0 1 .04-.548.706.706 0 0 1 .127-.306.44.44 0 0 1 .227-.144 1.472 1.472 0 0 1 .408-.048 1.475 1.475 0 0 1 .408.048.46.46 0 0 1 .232.145.68.68 0 0 1 .13.304 2.913 2.913 0 0 1 .043.55zm3.283 1.645h.538a.106.106 0 0 0 .107-.106V8.276a2.305 2.305 0 0 0-.07-.61.988.988 0 0 0-.225-.42.874.874 0 0 0-.396-.23 1.956 1.956 0 0 0-.54-.068 1.784 1.784 0 0 0-.65.11 2.196 2.196 0 0 0-.437.235l-.076-.205a.106.106 0 0 0-.1-.07h-.36a.106.106 0 0 0-.106.107v3.45a.106.106 0 0 0 .106.105h.54a.106.106 0 0 0 .105-.107V7.906a1.485 1.485 0 0 1 .383-.208 1.32 1.32 0 0 1 .456-.083 1.258 1.258 0 0 1 .3.03.367.367 0 0 1 .173.094.45.45 0 0 1 .105.19 1.233 1.233 0 0 1 .04.345v2.297a.106.106 0 0 0 .106.107zm3.122-.107a.106.106 0 0 0 .107.107h.537a.106.106 0 0 0 .107-.106V8.276a2.312 2.312 0 0 0-.067-.61.99.99 0 0 0-.226-.42.872.872 0 0 0-.395-.23 1.96 1.96 0 0 0-.54-.068 1.785 1.785 0 0 0-.65.11 2.178 2.178 0 0 0-.436.235l-.076-.205a.106.106 0 0 0-.1-.07h-.36a.106.106 0 0 0-.105.107v3.45a.106.106 0 0 0 .106.105h.538a.106.106 0 0 0 .107-.107V7.906a1.476 1.476 0 0 1 .382-.208 1.323 1.323 0 0 1 .456-.083 1.258 1.258 0 0 1 .3.03.365.365 0 0 1 .173.094.448.448 0 0 1 .105.19 1.232 1.232 0 0 1 .04.345v2.297zm3.947-1.41a.106.106 0 0 0 .106-.107v-.4a3.094 3.094 0 0 0-.09-.815 1.21 1.21 0 0 0-.288-.535 1.07 1.07 0 0 0-.483-.28 2.4 2.4 0 0 0-.638-.077 2.536 2.536 0 0 0-.656.077 1.1 1.1 0 0 0-.5.282 1.232 1.232 0 0 0-.3.54 3.01 3.01 0 0 0-.093.815v.372a2.964 2.964 0 0 0 .098.83 1.232 1.232 0 0 0 .303.536 1.084 1.084 0 0 0 .508.276 2.82 2.82 0 0 0 .674.072 5.84 5.84 0 0 0 .675-.036 5.07 5.07 0 0 0 .55-.093.106.106 0 0 0 .08-.103v-.46a.106.106 0 0 0-.105-.107.108.108 0 0 0-.022.002 8.02 8.02 0 0 1-.534.09 4.79 4.79 0 0 1-.637.037 1.602 1.602 0 0 1-.423-.047.48.48 0 0 1-.242-.145.645.645 0 0 1-.13-.298 2.492 2.492 0 0 1-.043-.428h2.19zm-2.19-.627a2.532 2.532 0 0 1 .04-.412.715.715 0 0 1 .123-.303.44.44 0 0 1 .227-.152 1.395 1.395 0 0 1 .407-.05 1.25 1.25 0 0 1 .4.052.405.405 0 0 1 .206.153.74.74 0 0 1 .11.305 3.15 3.15 0 0 1 .032.408zm5.408.855h-.538a.106.106 0 0 0-.107.106.974.974 0 0 1-.036.292.36.36 0 0 1-.103.167.47.47 0 0 1-.2.097 1.867 1.867 0 0 1-.762-.01.427.427 0 0 1-.23-.144.733.733 0 0 1-.132-.31A2.722 2.722 0 0 1 17 9.032V8.66a2.69 2.69 0 0 1 .044-.55.73.73 0 0 1 .134-.307.426.426 0 0 1 .23-.144 1.853 1.853 0 0 1 .762-.01.473.473 0 0 1 .2.095.36.36 0 0 1 .104.167.948.948 0 0 1 .036.285.106.106 0 0 0 .107.106h.538a.106.106 0 0 0 .106-.106 1.163 1.163 0 0 0-.37-.97 1.743 1.743 0 0 0-1.08-.282 2.654 2.654 0 0 0-.67.076 1.075 1.075 0 0 0-.502.285 1.248 1.248 0 0 0-.295.538 3.004 3.004 0 0 0-.094.816v.37a3.113 3.113 0 0 0 .09.816 1.232 1.232 0 0 0 .294.543 1.084 1.084 0 0 0 .504.286 2.642 2.642 0 0 0 .673.076 1.743 1.743 0 0 0 1.08-.28 1.172 1.172 0 0 0 .37-.98.106.106 0 0 0-.104-.105zm2.218.712a.106.106 0 0 0-.126-.082l-.208.045a1.094 1.094 0 0 1-.235.022.266.266 0 0 1-.216-.07.397.397 0 0 1-.064-.246V7.68h.673a.106.106 0 0 0 .105-.106V7.12a.106.106 0 0 0-.106-.105h-.674V6.19a.106.106 0 0 0-.107-.106H20.4l-.538.09a.106.106 0 0 0-.09.106v.753l-.36.067a.106.106 0 0 0-.087.104v.374a.106.106 0 0 0 .106.105h.342v2.074A1.082 1.082 0 0 0 20 10.5a.915.915 0 0 0 .71.253 2.366 2.366 0 0 0 .322-.022 1.547 1.547 0 0 0 .27-.056.107.107 0 0 0 .073-.1v-.45a.106.106 0 0 0-.002-.023zm-7.36-8.783A7.83 7.83 0 0 1 17.78 5.08h.635a8.415 8.415 0 0 0-15.45 0H3.6a7.83 7.83 0 0 1 10.415-3.76zm-6.66 14.19a7.83 7.83 0 0 1-3.75-3.75h-.64a8.415 8.415 0 0 0 15.45 0h-.642a7.83 7.83 0 0 1-10.416 3.75z"/></svg>