<svg id="Layer_2" data-name="Layer 2" xmlns="http://www.w3.org/2000/svg" viewBox="0 0 20.7262 20.27558"><defs><style>.cls-1{fill:#41494e}</style></defs><title>ContactHelp</title><path class="cls-1" d="M22.185 9.222l-9.928-7.276a.434.434 0 0 0-.514 0L1.815 9.222a.434.434 0 0 0-.178.35v12.13a.411.411 0 0 0 .012.059.313.313 0 0 0 .06.167.411.411 0 0 0 .026.05c.005.006.012.008.017.014a.426.426 0 0 0 .071.058.43.43 0 0 0 .064.043.429.429 0 0 0 .076.023.426.426 0 0 0 .087.017c.008 0 .014.005.022.005h19.856a.43.43 0 0 0 .176-.04.438.438 0 0 0 .038-.024.429.429 0 0 0 .107-.084c.005-.005.011-.006.016-.012a.413.413 0 0 0 .026-.05.313.313 0 0 0 .06-.168.403.403 0 0 0 .012-.057V9.573a.434.434 0 0 0-.178-.351zM12 2.836l9.292 6.809-6.962 5.274-2.054-1.682a.435.435 0 0 0-.551 0L9.67 14.92 2.708 9.645zm-9.493 7.747l6.47 4.903-6.47 5.299zm.782 10.685L12 14.135l8.71 7.133zm18.204-.483l-6.47-5.299 6.47-4.903z" transform="translate(-1.637 -1.862)"/></svg>