<svg id="Layer_2" data-name="Layer 2" xmlns="http://www.w3.org/2000/svg" viewBox="0 0 16.40011 19.97998"><defs><style>.cls-1{fill:#41494e}</style></defs><title>Contact_Us</title><path class="cls-1" d="M16.07 14.16a1.113 1.113 0 0 0-.67-.55 1.26 1.26 0 0 0-.33-.05 1.096 1.096 0 0 0-.53.13.99.99 0 0 1-.41.1 1.084 1.084 0 0 1-.25-.04.85.85 0 0 1-.51-.42l-1.4-2.63a.867.867 0 0 1-.06-.67.858.858 0 0 1 .43-.52 1.13 1.13 0 0 0 .46-1.52l-.5-.94a1.106 1.106 0 0 0-.65-.53 1.059 1.059 0 0 0-.83.08l-.27.14a2.56 2.56 0 0 0-1.12 1.18 2.882 2.882 0 0 0 .06 2.56l2.67 5.02a2.876 2.876 0 0 0 2.09 1.48 2.559 2.559 0 0 0 .39.03 2.665 2.665 0 0 0 1.2-.3l.27-.14a1.071 1.071 0 0 0 .53-.65 1.047 1.047 0 0 0-.08-.83zM16 15.72a.388.388 0 0 1-.2.25l-.27.14a1.984 1.984 0 0 1-.89.22 2.634 2.634 0 0 1-.29-.02 2.192 2.192 0 0 1-1.59-1.13l-2.67-5.02a2.193 2.193 0 0 1-.05-1.95 1.87 1.87 0 0 1 .82-.87l.27-.14a.454.454 0 0 1 .2-.05c.04 0 .08.01.15.01a.388.388 0 0 1 .25.2l.5.94a.503.503 0 0 1 .03.34.456.456 0 0 1-.22.27 1.542 1.542 0 0 0-.76.92 1.479 1.479 0 0 0 .11 1.18l1.4 2.63a1.542 1.542 0 0 0 .91.75 1.368 1.368 0 0 0 .45.07 1.537 1.537 0 0 0 .72-.18.5.5 0 0 1 .21-.05.447.447 0 0 1 .4.24l.49.93a.442.442 0 0 1 .03.32z" transform="translate(-3.8 -2.01)"/><path class="cls-1" d="M18.484 2.01H6.93A1.748 1.748 0 0 0 5.2 3.76v4.16H4.14a.34.34 0 0 0 0 .68H5.2v6.47H4.14a.34.34 0 1 0 0 .68h1.07v4.48a1.733 1.733 0 0 0 1.716 1.75h.004v.01h11.55a1.74 1.74 0 0 0 1.72-1.75V3.76a1.733 1.733 0 0 0-1.716-1.75zm1.026 18.22a1.052 1.052 0 0 1-1.034 1.07H6.92a1.059 1.059 0 0 1-1.04-1.07v-4.47h1.06a.34.34 0 0 0 0-.68H5.88V8.6h1.06a.335.335 0 0 0 .03-.67H5.89V3.76a1.052 1.052 0 0 1 1.034-1.07H18.47a1.059 1.059 0 0 1 1.04 1.07z" transform="translate(-3.8 -2.01)"/></svg>