<svg id="Layer_2" xmlns="http://www.w3.org/2000/svg" viewBox="0 0 24 24"><style>.st0{fill:#666}</style><path class="st0" d="M21.92 3.61l-1.59-1.59a.459.459 0 0 0-.65 0l-4.8 4.8c-.11.12-.26.18-.43.18-.17 0-.32-.06-.44-.18l-.42-.42a.911.911 0 0 0-1.28 0l-9.73 9.73a2.172 2.172 0 0 0 0 3.08l2.14 2.15c.43.42.99.64 1.55.64s1.12-.21 1.54-.64l9.73-9.73c.35-.35.35-.92 0-1.28l-.42-.42a.604.604 0 0 1-.18-.44c0-.17.06-.32.18-.44l4.8-4.8c.18-.17.18-.46 0-.64zM7.17 20.71c-.5.5-1.3.5-1.8 0l-2.14-2.15c-.24-.24-.37-.56-.37-.9 0-.34.13-.66.37-.9l9.71-9.73.42.42c.29.29.68.45 1.09.45.29 0 .57-.08.82-.24l1 1a1.536 1.536 0 0 0 .21 1.91l.42.41-9.73 9.73zm9.55-12.54l-.94-.94L20.01 3l.94.94-4.23 4.23zM17.14 16.51c-1.57 0-2.84 1.27-2.84 2.84s1.27 2.84 2.84 2.84c1.57 0 2.84-1.27 2.84-2.84s-1.27-2.84-2.84-2.84zm0 4.77c-.95 0-1.73-.69-1.9-1.59h3.79c-.16.9-.94 1.59-1.89 1.59zm-1.9-2.27c.16-.9.95-1.59 1.9-1.59s1.73.69 1.9 1.59h-3.8z"/></svg>