<svg id="Layer_2" data-name="Layer 2" xmlns="http://www.w3.org/2000/svg" viewBox="0 0 20.16667 14.07102"><defs><style>.cls-1{fill:#41494e}</style></defs><title>CVV</title><path class="cls-1" d="M21.628 5.398a1.55 1.55 0 0 0-1.147-.432H3.578a1.605 1.605 0 0 0-1.17.432 1.544 1.544 0 0 0-.491 1.117v10.862a1.65 1.65 0 0 0 .491 1.168 1.624 1.624 0 0 0 1.17.49h16.903a1.57 1.57 0 0 0 1.147-.49 1.62 1.62 0 0 0 .455-1.168V6.515a1.511 1.511 0 0 0-.455-1.117zm-.483 11.979a.546.546 0 0 1-.219.36.665.665 0 0 1-.445.126H3.578a.444.444 0 0 1-.489-.486v-6.314h18.056zm0-9.128H3.089V6.515a.598.598 0 0 1 .128-.415.518.518 0 0 1 .361-.196h16.903a.72.72 0 0 1 .445.196.688.688 0 0 1 .219.415z" transform="translate(-1.917 -4.964)"/><path class="cls-1" d="M13.944 7.74h2.83a.578.578 0 0 1 .578.578v1.657a.578.578 0 0 1-.578.579h-2.83a.578.578 0 0 1-.578-.579V8.318a.578.578 0 0 1 .578-.578z"/></svg>