<svg id="Layer_2" data-name="Layer 2" xmlns="http://www.w3.org/2000/svg" viewBox="0 0 15.40908 19.91005"><defs><style>.cls-1{fill:#41494e}</style></defs><title>Deposit</title><path class="cls-1" d="M7.145 14.435a1.522 1.522 0 0 0 1.37.83 1.632 1.632 0 0 0 .72-.18l9.57-4.87a1.608 1.608 0 0 0 .79-.91 1.487 1.487 0 0 0-.08-1.17l-2.67-5.26a1.522 1.522 0 0 0-1.37-.83 1.577 1.577 0 0 0-.73.18l-9.57 4.87a1.613 1.613 0 0 0-.79.91 1.53 1.53 0 0 0 .08 1.17zm9.9-9.6l1.84 3.62a.87.87 0 0 1-.39 1.15l-9.56 4.86a.818.818 0 0 1-.4.1.829.829 0 0 1-.75-.45l-1.85-3.63zm-11.99 3.38a.884.884 0 0 1 .44-.51l9.56-4.86a.819.819 0 0 1 .4-.1.864.864 0 0 1 .76.46l.34.68-11.11 5.65-.34-.68a.839.839 0 0 1-.05-.64z" transform="translate(-4.295 -2.045)"/><path class="cls-1" d="M4.529 11.29l2.31-1.18-.26-.51-.08.02-2.3 1.18.26.51.07-.02z"/><path class="cls-1" d="M15.005 10.065a.937.937 0 0 0 .48-.13 1.015 1.015 0 0 0 .43-.39l.09-.14.18.03h.08a1.045 1.045 0 0 0 .49-.12 1.095 1.095 0 0 0 .53-.61 1.003 1.003 0 0 0-.97-1.34 1.044 1.044 0 0 0-.49.12 1.015 1.015 0 0 0-.43.39l-.09.15-.17-.02h-.08a1.044 1.044 0 0 0-.49.12 1.016 1.016 0 0 0 .44 1.94zM19.625 14.755a1.61 1.61 0 0 0-.78-.92l-1.4-.71-.73.37 1.81.95a.863.863 0 0 1 .37 1.15l-.35.67-3.6-1.87-1.16.59 4.26 2.23-1.89 3.6a.84.84 0 0 1-.75.45.856.856 0 0 1-.41-.1l-9.51-4.98a.867.867 0 0 1-.43-.51.88.88 0 0 1 .06-.64l.27-.56-.39-.76-.53.99a1.489 1.489 0 0 0-.09 1.17 1.61 1.61 0 0 0 .78.92l9.51 4.98a1.626 1.626 0 0 0 .75.18 1.584 1.584 0 0 0 1.38-.8l2.74-5.23a1.488 1.488 0 0 0 .09-1.17z" transform="translate(-4.295 -2.045)"/></svg>