<svg id="Layer_2" xmlns="http://www.w3.org/2000/svg" viewBox="0 0 24 24"><style>.st0{fill:#666}</style><path class="st0" d="M20.93 19.81a.327.327 0 0 0-.43.18c-.32.78-1.08 1.29-1.92 1.29-.8 0-1.51-.44-1.86-1.16a.322.322 0 1 0-.58 0c-.35.71-1.07 1.16-1.87 1.16s-1.51-.44-1.86-1.16a.322.322 0 1 0-.58 0c-.35.71-1.07 1.16-1.86 1.16s-1.51-.44-1.87-1.16a.322.322 0 1 0-.58 0 2.074 2.074 0 0 1-3.78-.13.327.327 0 0 0-.43-.18c-.17.07-.25.26-.18.43a2.721 2.721 0 0 0 2.53 1.69c.86 0 1.65-.39 2.16-1.05.51.66 1.3 1.05 2.16 1.05s1.65-.39 2.16-1.05c.51.66 1.3 1.05 2.16 1.05s1.65-.39 2.16-1.05c.51.66 1.3 1.05 2.16 1.05 1.11 0 2.1-.66 2.53-1.69.03-.17-.05-.36-.22-.43zM5.64 18.66c.86 0 1.65-.39 2.16-1.05.51.66 1.3 1.05 2.16 1.05s1.65-.39 2.16-1.05c.51.66 1.3 1.05 2.16 1.05s1.65-.39 2.16-1.05c.51.66 1.3 1.05 2.16 1.05 1.11 0 2.1-.66 2.53-1.69a.327.327 0 0 0-.18-.43.327.327 0 0 0-.43.18c-.32.78-1.08 1.29-1.92 1.29-.8 0-1.51-.44-1.86-1.16a.322.322 0 1 0-.58 0c-.35.71-1.07 1.16-1.87 1.16-.7 0-1.34-.34-1.72-.91.36-.1.69-.31.94-.6.46-.53.58-1.3.33-1.95v-.01c-.03-.1-.1-.29-.15-.3h-.01c-.35-.56-.97-.91-1.65-.91-.08 0-.17.01-.25.02-.94.13-1.67.97-1.67 1.91 0 .63.32 1.24.86 1.6.24.07.47.16.7.29-.39.55-1.01.88-1.7.88-.8 0-1.51-.44-1.87-1.16a.322.322 0 1 0-.58 0 2.074 2.074 0 0 1-3.78-.13.327.327 0 0 0-.43-.18c-.17.07-.25.26-.18.43.4 1.01 1.39 1.67 2.51 1.67zm6.39-4.68c.15 0 .3.03.44.08.55.21.89.79.8 1.37-.08.52-.49.95-1.01 1.05-.08.02-.16.02-.24.02-.45 0-.86-.24-1.09-.62-.27-.45-.22-1.05.11-1.45.24-.28.61-.45.99-.45z"/><path class="st0" d="M8.62 17.18l.06-.02c.16-.07.34-.12.52-.16l.05-.01-.01-.05c-.17-.76-.23-1.37-.17-1.91.06-.53.29-1.03.73-1.56.1-.13.22-.25.36-.34l.02-.01c.11-.07.22-.14.27-.29.06-.16.05-.35.04-.51v-.12c-.01-.27-.01-.54-.01-.81 0-1.06-.08-2.13-.16-3.16-.08-1.1-.17-2.23-.16-3.35 0-.45.01-.92.08-1.38.02-.13.05-.31.11-.47.02-.06.09-.23.17-.27.04.07.05.18.06.28l.01.06c.03.21.04.42.05.67l.01.29c.01.28.03.56.05.85.08 1.02.23 1.89.48 2.66a8.365 8.365 0 0 0 .42 1.05c.01.02.02.05.03.07.04.09.08.19.15.25.07.08.15.12.23.12.31 0 .51-.6.6-.9l.03-.08c.28-.8.45-1.69.54-2.8.03-.36.04-.74.06-1.1l.01-.28c.01-.23.02-.49.05-.74l.01-.07c.01-.11.02-.25.08-.33.1.04.18.24.2.31.07.18.11.37.13.52.09.51.11 1.04.12 1.54.02 1.23-.05 2.46-.13 3.72-.01.22-.03.44-.04.66-.04.56-.08 1.14-.1 1.71 0 .19 0 .39-.01.58-.01.25-.01.49-.01.74 0 .21.02.41.2.53.04.03.08.05.11.07.04.02.07.04.11.07.28.21.49.55.69.86.23.36.34.82.33 1.41 0 .54-.09 1.11-.27 1.81l-.03.12.11-.06c.19-.1.39-.18.62-.24l.03-.01.01-.03c.17-.77.36-1.92-.02-2.91-.14-.36-.37-.73-.72-1.14-.11-.13-.25-.28-.44-.4a.12.12 0 0 0-.07-.07c-.01-.25 0-.5.01-.75.01-.19.01-.38.01-.56.03-.7.07-1.4.12-2.08.04-.62.08-1.26.11-1.89.05-1.15.09-2.18-.02-3.23a5.26 5.26 0 0 0-.21-1.11c-.14-.41-.33-.66-.59-.77a.763.763 0 0 0-.31-.07c-.69 0-.72 1.19-.74 1.76V4c-.05 1.16-.11 2.6-.58 3.91-.49-1.22-.62-2.55-.68-3.81l-.01-.14c-.01-.26-.02-.53-.05-.79a2.1 2.1 0 0 0-.16-.69c-.11-.25-.32-.39-.57-.39-.2 0-.41.09-.55.26-.21.23-.3.55-.35.8-.1.43-.13.88-.14 1.26-.04 1.19.04 2.39.12 3.56l.06.78c.04.59.09 1.19.11 1.79.01.3.02.61.02.91v.19c0 .11 0 .22.01.34.01.19.01.38.01.57-.16.1-.32.23-.48.42-.35.4-.59.77-.73 1.13-.41 1.01-.21 2.21-.02 3.02l.02.06zm.99 1.87l-.02-.04-.04.01c-.16.02-.32.07-.46.13l-.05.02.02.05c.07.2.16.39.24.58l.01.02.03.01c.21.05.42.13.61.22l.15.08-.08-.15a9.7 9.7 0 0 1-.41-.93zm.71 1.2l.03.04.09.07c.12.08.25.14.41.18l.08.02-.01-.08c-.03-.27-.09-.64-.2-1.18v-.02l-.07-.05c-.14-.09-.3-.16-.49-.2l-.08-.02.02.08c.07.32.16.78.22 1.16zm4.45-.48l.03-.01.01-.02c.08-.18.16-.36.23-.54l.02-.05-.05-.02c-.14-.06-.29-.1-.45-.12l-.04-.01-.02.04c-.12.3-.26.59-.4.87l-.08.15.15-.07c.2-.1.4-.17.6-.22zm-1.03.42l.06.02.02-.01v-.02c.06-.36.15-.79.21-1.08l.02-.08-.08.02c-.18.04-.34.1-.48.19l-.06.05v.02c-.1.51-.16.85-.19 1.11l-.01.08.08-.02c.15-.04.28-.1.4-.17l.07-.05-.04-.06z"/></svg>