<svg id="Layer_2" data-name="Layer 2" xmlns="http://www.w3.org/2000/svg" viewBox="0 0 20 18.43348"><defs><style>.cls-1{fill:#41494f}</style></defs><title>Download-Casino</title><path class="cls-1" d="M21.997 12.148a.517.517 0 1 0-1.033 0v5.331a2.668 2.668 0 0 1-2.642 2.696H5.675a2.668 2.668 0 0 1-2.642-2.696v-5.412-.012a.515.515 0 0 0-.518-.512.521.521 0 0 0-.515.524v5.412a3.71 3.71 0 0 0 3.675 3.738h12.647A3.71 3.71 0 0 0 22 17.479z" transform="translate(-2 -2.783)"/><path class="cls-1" d="M12.117 16.967a.521.521 0 0 0 .374.159.5.5 0 0 0 .36-.153l3.656-3.723a.53.53 0 0 0 0-.742l-.006-.007a.512.512 0 0 0-.724.007l-2.78 2.83V3.298a.515.515 0 0 0-.515-.515h-.006a.521.521 0 0 0-.518.524v12.03l-2.785-2.826-.011-.011a.51.51 0 0 0-.72.01.53.53 0 0 0-.153.369.515.515 0 0 0 .162.368z" transform="translate(-2 -2.783)"/></svg>