<svg id="Layer_2" xmlns="http://www.w3.org/2000/svg" viewBox="0 0 24 24"><style>.st0{fill:#666}</style><path class="st0" d="M7.63 17.71c-.7 0-1.28.57-1.28 1.27 0 .7.57 1.28 1.28 1.28.7 0 1.28-.57 1.28-1.28 0-.7-.58-1.27-1.28-1.27zm0 1.87c-.33 0-.6-.27-.6-.6 0-.33.27-.6.6-.6.33 0 .6.27.6.6 0 .34-.27.6-.6.6zm0 0M17.7 17.22c-.19 0-.34.15-.34.34 0 1.31-1.06 2.37-2.37 2.37-.19 0-.34.15-.34.34 0 .19.15.34.34.34 1.68 0 3.04-1.37 3.04-3.05a.323.323 0 0 0-.33-.34zm0 0M9.92 6.05c.19 0 .34-.15.34-.34 0-.75.61-1.35 1.35-1.35.19 0 .34-.15.34-.34 0-.19-.15-.34-.34-.34-1.12 0-2.03.91-2.03 2.03 0 .19.16.34.34.34zm0 0"/><path class="st0" d="M17.26 7.4h-1.88c.22-.48.35-1.02.35-1.58 0-2.08-1.69-3.78-3.78-3.78-2.08 0-3.78 1.69-3.78 3.78 0 .56.13 1.1.35 1.58H6.99c-1.18 0-2.14.96-2.14 2.14v10.27c0 1.18.96 2.14 2.14 2.14h10.27c1.18 0 2.14-.96 2.14-2.14V9.54a2.149 2.149 0 0 0-2.14-2.14zm-5.31-4.68c1.71 0 3.1 1.39 3.1 3.1 0 .67-.21 1.29-.57 1.79-.05.07-.1.14-.16.2-.03.04-.07.08-.11.12-.04.04-.08.09-.13.13-.04.04-.08.07-.12.11l-.15.12-.12.09c-.09.06-.18.12-.28.17-.03.02-.06.03-.09.04-.07.04-.15.07-.22.1-.04.01-.08.03-.12.04-.06.02-.13.04-.2.06-.09.03-.19.05-.29.07-.03.01-.06.01-.1.02-.01 0-.03 0-.04.01-.28.04-.56.04-.84 0-.01 0-.03-.01-.04-.01-.03-.01-.06-.01-.1-.02-.1-.02-.19-.04-.29-.07-.07-.02-.13-.04-.19-.06-.04-.01-.08-.03-.12-.04-.08-.03-.15-.07-.22-.1-.03-.02-.06-.03-.09-.04-.09-.05-.18-.11-.27-.17l-.12-.09-.15-.12a.471.471 0 0 0-.1-.1c-.05-.05-.09-.09-.13-.14-.04-.03-.07-.07-.11-.11-.05-.06-.11-.13-.16-.2-.35-.51-.57-1.13-.57-1.8 0-1.71 1.39-3.1 3.1-3.1zm0 12.86c.74 0 1.35-.61 1.35-1.35v-2.7c.91.49 1.49 1.45 1.49 2.5 0 1.57-1.28 2.85-2.85 2.85s-2.85-1.28-2.85-2.85c0-1.06.58-2.01 1.49-2.5v2.7c.02.74.63 1.35 1.37 1.35zm.68-5.04v3.69a.68.68 0 0 1-1.36 0V9.54c.05.01.1.01.15.02.04.01.07.01.1.01.02 0 .04.01.06.01.1.01.21.01.31.02h.1c.1 0 .2-.01.31-.02.02 0 .04 0 .06-.01.03 0 .07-.01.1-.01.05-.01.1-.01.15-.02v1zm-2.03.24a3.511 3.511 0 0 0-2.17 3.25c0 1.94 1.58 3.53 3.53 3.53 1.94 0 3.52-1.58 3.52-3.53 0-1.43-.86-2.71-2.17-3.25v-.43c1.61.57 2.71 2.08 2.71 3.82 0 2.24-1.82 4.06-4.06 4.06-2.24 0-4.06-1.82-4.06-4.06 0-1.74 1.09-3.26 2.71-3.82v.43zm8.12 9.03c0 .81-.66 1.46-1.46 1.46H6.99c-.8 0-1.46-.66-1.46-1.46V9.54c0-.81.66-1.46 1.46-1.46h1.94a.5.5 0 0 0 .07.08c.04.05.09.1.13.15.05.05.09.1.14.15.03.05.08.1.13.14.07.07.15.14.23.2.07.05.14.11.22.16l.15.09c.06.04.13.08.2.11.05.03.1.05.16.08.07.03.15.07.22.1 0 0 .01.01.02.01v.29c-2 .6-3.38 2.42-3.38 4.53 0 2.61 2.12 4.74 4.74 4.74 2.61 0 4.74-2.12 4.74-4.74a4.71 4.71 0 0 0-3.38-4.53v-.29c.01 0 .01-.01.02-.01.08-.03.15-.06.22-.1.05-.02.1-.05.16-.08.07-.03.13-.07.2-.11l.15-.09c.08-.05.15-.11.22-.16.08-.06.16-.13.23-.2.05-.04.1-.09.14-.13.05-.05.09-.1.14-.15.04-.05.09-.1.13-.16a.5.5 0 0 1 .07-.08h2.28c.81 0 1.46.66 1.46 1.46l-.02 10.27zm0 0"/></svg>