<svg id="Layer_2" data-name="Layer 2" xmlns="http://www.w3.org/2000/svg" viewBox="0 0 20.99856 21.01124"><defs><style>.cls-1{fill:#41494f}</style></defs><title>Events</title><path class="cls-1" d="M22.483 17.203h.006a.357.357 0 0 0-.297-.244l-2.762-.39-1.237-2.414a.369.369 0 0 0-.633 0l-1.237 2.414-2.768.387a.357.357 0 0 0-.197.612l1.995 1.873-.472 2.644a.354.354 0 0 0 .511.38l2.48-1.257 2.48 1.257a.36.36 0 0 0 .16.039.354.354 0 0 0 .211-.068.36.36 0 0 0 .14-.351l-.47-2.644 1.995-1.873a.36.36 0 0 0 .095-.365zm-2.714 1.855a.357.357 0 0 0-.107.321l.38 2.132-2.007-1.017a.357.357 0 0 0-.32 0l-2.005 1.014.378-2.132a.35.35 0 0 0-.107-.321l-1.594-1.487 2.215-.297a.357.357 0 0 0 .268-.19l1.002-1.96 1.005 1.96a.354.354 0 0 0 .264.19l2.216.297z" transform="translate(-1.5 -1.494)"/><path class="cls-1" d="M14.316 12.885h3.205V8.97H3.992v10.324h7.121V16.09h3.203zm0-3.205h2.491v2.492h-2.491zm-7.121 8.9H4.703v-2.49h2.492zm0-3.203H4.703v-2.492h2.492zm0-3.205H4.703V9.68h2.492zm3.202 6.407H7.908v-2.488H10.4zm.003-3.202H7.908v-2.492H10.4zm0-3.205H7.908V9.68H10.4zm3.205 3.205h-2.492v-2.492h2.492zm0-3.205h-2.492V9.68h2.492z" transform="translate(-1.5 -1.494)"/><path class="cls-1" d="M10.757 21.059v.015H2.214V7.19H19.3v6.051a.357.357 0 0 0 .714 0V3.28a.357.357 0 0 0-.357-.357h-1.784v-1.07a.357.357 0 0 0-.351-.357h-2.495a.354.354 0 0 0-.354.353v1.07h-7.82V1.852a.357.357 0 0 0-.356-.357H3.992a.357.357 0 0 0-.356.357V2.92H1.852a.357.357 0 0 0-.351.36v18.137a.357.357 0 0 0 .357.357h8.899a.357.357 0 0 0 0-.714zm4.626-18.85h1.784v2.134h-1.784zm-11.034 0h1.784v2.134H4.35zM2.214 3.631H3.64V4.7a.357.357 0 0 0 .35.363h2.495a.357.357 0 0 0 .357-.357V3.632h7.831V4.7a.354.354 0 0 0 .345.362h2.5a.357.357 0 0 0 .358-.356V3.632h1.424v2.849H2.214z" transform="translate(-1.5 -1.494)"/></svg>