<svg id="Layer_2" data-name="Layer 2" xmlns="http://www.w3.org/2000/svg" viewBox="0 0 20.05839 19.85417"><defs><style>.cls-1{fill:#41494f}</style></defs><title>FAQ</title><path class="cls-1" d="M21.631 8.836a.398.398 0 0 0 .398-.398V4.341a2.27 2.27 0 0 0-2.267-2.268H4.238A2.27 2.27 0 0 0 1.971 4.34V19.66a2.27 2.27 0 0 0 2.267 2.267h15.524a2.27 2.27 0 0 0 2.267-2.267V15.5a.398.398 0 1 0-.795 0v4.16a1.475 1.475 0 0 1-1.472 1.471H4.238a1.475 1.475 0 0 1-1.472-1.472V4.341a1.475 1.475 0 0 1 1.472-1.472h15.524a1.475 1.475 0 0 1 1.472 1.472v4.097a.398.398 0 0 0 .397.398z" transform="translate(-1.97 -2.073)"/><path class="cls-1" d="M12.05 15.233a.849.849 0 0 0-.343-.072.87.87 0 0 0-.629.266.894.894 0 0 0-.185.283.883.883 0 0 0-.067.343l-.01-.008a.897.897 0 0 0 .265.633.827.827 0 0 0 .279.189.904.904 0 0 0 .35.066.886.886 0 0 0 .342-.066.867.867 0 0 0 .284-.189.913.913 0 0 0 .19-.283.865.865 0 0 0 .07-.345.848.848 0 0 0-.072-.342.91.91 0 0 0-.475-.475zM13.463 11.287a2.978 2.978 0 0 0 .5-.483 2.455 2.455 0 0 0 .38-.65 2.352 2.352 0 0 0 .151-.886 2.15 2.15 0 0 0-.188-.912 2.058 2.058 0 0 0-.53-.698 2.326 2.326 0 0 0-.796-.445 3.143 3.143 0 0 0-1.008-.154 3.559 3.559 0 0 0-.764.077 3.397 3.397 0 0 0-.657.212 3.52 3.52 0 0 0-.56.31 4.423 4.423 0 0 0-.472.372l.34.562a.297.297 0 0 0 .283.167.387.387 0 0 0 .215-.098 3.058 3.058 0 0 1 .326-.212 2.831 2.831 0 0 1 .483-.212 2.122 2.122 0 0 1 .687-.099 1.742 1.742 0 0 1 .546.085 1.326 1.326 0 0 1 .446.242 1.148 1.148 0 0 1 .297.368 1.127 1.127 0 0 1 .108.499 1.419 1.419 0 0 1-.161.697 2.275 2.275 0 0 1-.398.53 3.694 3.694 0 0 1-.515.436 5.197 5.197 0 0 0-.5.387 1.904 1.904 0 0 0-.367.427.827.827 0 0 0-.109.53l.096 1.112h.891l.127-1.016a.727.727 0 0 1 .212-.4 3.569 3.569 0 0 1 .412-.361z" transform="translate(-1.97 -2.073)"/></svg>