<svg id="Layer_2" data-name="Layer 2" xmlns="http://www.w3.org/2000/svg" viewBox="0 0 21.2882 19.86899"><defs><style>.cls-1{fill:#41494e}</style></defs><title>FavOff</title><path class="cls-1" d="M22.644 9.655L15.29 8.606 12 2.066l-3.29 6.54-7.354 1.049 5.322 5.09-1.256 7.19L12 18.54l6.578 3.395-1.256-7.19zm-9.993 7.624L12 16.943l-.65.336-4.038 2.083.764-4.372.13-.746-.547-.524-3.212-3.072 4.464-.637.734-.105.334-.662L12 5.224l2.021 4.02.334.662.734.105 4.464.637-3.212 3.072-.547.524.13.746.764 4.372z" transform="translate(-1.356 -2.066)"/></svg>