<svg id="Layer_2" data-name="Layer 2" xmlns="http://www.w3.org/2000/svg" viewBox="0 0 20.06689 18.5866"><defs><style>.cls-1{fill:#41494e}</style></defs><title>Filters</title><path class="cls-1" d="M21.283 18.052h-1.698a2.474 2.474 0 0 0-4.726 0H2.717a.75.75 0 0 0 0 1.5h12.142a2.474 2.474 0 0 0 4.726 0h1.698a.75.75 0 0 0 0-1.5zm-4.062 1.74a.99.99 0 1 1 .992-.99.99.99 0 0 1-.992.99zM21.283 11.25H9.141a2.474 2.474 0 0 0-4.726 0H2.717a.75.75 0 0 0 0 1.5h1.698a2.474 2.474 0 0 0 4.726 0h12.142a.75.75 0 0 0 0-1.5zM6.78 12.99a.99.99 0 1 1-.001-1.98.99.99 0 0 1 0 1.98zM2.717 5.948h8.661a2.474 2.474 0 0 0 4.725 0h5.18a.75.75 0 0 0 0-1.5h-5.18a2.473 2.473 0 0 0-4.725 0H2.717a.75.75 0 1 0 0 1.5zM13.74 4.207a.99.99 0 1 1-.99.99.992.992 0 0 1 .99-.99z" transform="translate(-1.967 -2.707)"/></svg>