<svg id="Layer_2" data-name="Layer 2" xmlns="http://www.w3.org/2000/svg" viewBox="0 0 19.94 19.94"><defs><style>.cls-1{fill:#41494e}</style></defs><title>Free_Bets</title><path class="cls-1" d="M12 2.03A9.97 9.97 0 1 0 21.97 12 9.97 9.97 0 0 0 12 2.03zm0 19.25a9.285 9.285 0 1 1 9.28-9.29A9.285 9.285 0 0 1 12 21.28z" transform="translate(-2.03 -2.03)"/><path class="cls-1" d="M3.94 14.28h1.3l.44-3.49h2.95l.14-1.05H5.8l.34-2.72h3.48l.13-1.06H4.96l-1.02 8.32z"/><path class="cls-1" d="M17.63 8.5a2.325 2.325 0 0 0-.79-.38 4.336 4.336 0 0 0-1.15-.13h-2.57l-1.02 8.32h2.84a3.865 3.865 0 0 0 1.28-.2 2.81 2.81 0 0 0 .96-.55 2.52 2.52 0 0 0 .61-.84 2.639 2.639 0 0 0 .21-1.06 1.512 1.512 0 0 0-.36-1.04 2.003 2.003 0 0 0-1.08-.58 2.683 2.683 0 0 0 .74-.36 2.256 2.256 0 0 0 .52-.5 2.067 2.067 0 0 0 .31-.61 2.259 2.259 0 0 0 .1-.69 2.11 2.11 0 0 0-.14-.77 1.397 1.397 0 0 0-.46-.61zm-.92 5.17a1.986 1.986 0 0 1-.1.66 1.318 1.318 0 0 1-.84.84 2.108 2.108 0 0 1-.75.12h-1.51l.33-2.7h1.51a1.545 1.545 0 0 1 1.03.29.967.967 0 0 1 .33.79zm-.24-2.41a1.832 1.832 0 0 1-1.29.41h-1.21l.32-2.66h1.28a1.65 1.65 0 0 1 1.01.26.98.98 0 0 1 .33.82 1.538 1.538 0 0 1-.44 1.17z" transform="translate(-2.03 -2.03)"/></svg>