<svg id="Layer_2" data-name="Layer 2" xmlns="http://www.w3.org/2000/svg" viewBox="0 0 17.5216 20.14063"><defs><style>.cls-1{fill:#41494f}</style></defs><title>Fruits</title><path class="cls-1" d="M20.591 11.857a2.648 2.648 0 0 0-2.564-1.715 7.985 7.985 0 0 0-8.421-1.41 7.986 7.986 0 0 0-5.4 6.614 2.65 2.65 0 0 0 1.767 4.695 8.176 8.176 0 0 0 5.247 2.03 8.982 8.982 0 0 0 3.174-.62 7.986 7.986 0 0 0 5.4-6.614 2.651 2.651 0 0 0 .797-2.98zm-1.468 2.367l-.155.11-.029.187a7.122 7.122 0 0 1-4.86 6.092 7.124 7.124 0 0 1-7.67-1.374l-.146-.122-.19.02a1.755 1.755 0 0 1-1.196-3.179l.155-.11.03-.186a7.121 7.121 0 0 1 4.86-6.092 7.122 7.122 0 0 1 7.67 1.374l.146.122.188-.02a1.755 1.755 0 0 1 1.197 3.178zM18.202 9.494l.36.122.179-.337a5.867 5.867 0 0 0 .44-4.36 5.867 5.867 0 0 0-3.315-2.867l-.361-.122-.179.337a5.867 5.867 0 0 0-.44 4.36 5.867 5.867 0 0 0 3.316 2.867zm-2.25-6.44A4.644 4.644 0 0 1 18.35 5.25a4.644 4.644 0 0 1-.235 3.242 4.622 4.622 0 0 1-2.397-2.195 4.643 4.643 0 0 1 .234-3.242z" transform="translate(-3.24 -1.93)"/><path class="cls-1" d="M13.053 9.695h-.055a5.05 5.05 0 0 0-3.106 1.049.448.448 0 1 0 .636.63 4.25 4.25 0 0 1 2.485-.783 3.638 3.638 0 0 1 2.317.722.447.447 0 0 0 .574-.688 4.549 4.549 0 0 0-2.851-.93z" transform="translate(-3.24 -1.93)"/></svg>