<svg id="Layer_1" xmlns="http://www.w3.org/2000/svg" viewBox="0 0 82.2 20.5"><style>.st0{fill:#8c8c8c}</style><path class="st0" d="M7.9 8.8c-1.2.3-2.2.5-3 .5-1.5 0-2.7-.4-3.5-1.2S.1 6.2.1 4.7c0-1.4.4-2.6 1.2-3.4S3.3.1 4.8.1c1 0 2 .1 3 .4v1.1c-1.3-.4-2.3-.6-3-.6-1 0-1.8.3-2.4 1s-.8 1.6-.8 2.7.3 2 .9 2.7c.6.6 1.5 1 2.6 1 .5 0 .9-.1 1.5-.2V5.3h1.3v3.5zM16.5 9l-1-2.4h-4L10.4 9H9.1L12.9.3h1.3L18 9h-1.5zm-1.4-3.3L13.5 2l-1.6 3.7h3.2zM19.4 9V.4h1.9l2.6 6.7L26.6.4h1.7V9H27V2l-2.6 6.5h-1.3L20.5 2v7h-1.1zM30.7 9V.4h2.5c1 0 1.7.2 2.2.5.5.3.8.8.8 1.4 0 1.1-.7 1.8-2 2.2 1.6.4 2.3 1.2 2.3 2.3 0 .7-.3 1.2-.8 1.6s-1.2.6-2.2.6h-2.8zm1.4-4.8h.4c.7 0 1.3-.1 1.7-.4s.6-.7.6-1.2c0-.9-.7-1.3-2.2-1.3h-.5v2.9zm0 3.9h.3c1 0 1.6-.1 1.9-.2.6-.2.8-.6.8-1.2 0-.5-.3-.9-.8-1.3-.5-.3-1.1-.4-1.9-.4H32v3.1zM38.3 9V.4h1.4v7.8H44V9h-5.7zM45.3 9V.4h1.4V9h-1.4zM49.2 9V.4h1.3l4.8 6.7V.4h1.2V9h-1.3l-4.8-6.7V9h-1.2zM66.1 8.8c-1.2.3-2.2.5-3 .5-1.5 0-2.7-.4-3.5-1.2s-1.2-1.9-1.2-3.4c0-1.4.4-2.6 1.2-3.4s2-1.2 3.5-1.2c1 0 2 .1 3 .4v1.1c-1.3-.4-2.3-.6-3-.6-1 0-1.8.3-2.4 1s-.9 1.5-.9 2.7c0 1.1.3 2 .9 2.7.6.6 1.5 1 2.6 1 .5 0 .9-.1 1.5-.2V5.3h1.3v3.5zM4.8 20.3c-1.5 0-2.6-.4-3.4-1.2-.8-.8-1.2-1.9-1.2-3.4 0-1.4.4-2.6 1.2-3.4.8-.8 2-1.2 3.5-1.2.9 0 1.9.1 3 .4v1.2c-1.3-.4-2.3-.6-3-.6-1 0-1.8.3-2.4 1-.6.6-.9 1.5-.9 2.7 0 1.1.3 2 .9 2.6.6.6 1.4 1 2.5 1 .9 0 1.9-.3 2.9-.8v1.1c-1 .3-2 .6-3.1.6zM13.7 20.3c-1.3 0-2.4-.4-3.2-1.3s-1.2-1.9-1.2-3.3.4-2.5 1.2-3.3 1.9-1.2 3.2-1.2c1.3 0 2.4.4 3.2 1.2s1.2 1.9 1.2 3.3-.4 2.5-1.2 3.3-1.8 1.3-3.2 1.3zm0-1c1 0 1.7-.3 2.3-1s.8-1.5.8-2.7c0-1.1-.3-2-.8-2.6-.5-.6-1.3-1-2.2-1-.9 0-1.7.3-2.2 1s-.8 1.5-.8 2.7c0 1.1.3 2 .8 2.7s1.2.9 2.1.9zM20.1 20v-8.7H22l2.6 6.7 2.7-6.7H29V20h-1.3v-7l-2.6 6.5h-1.3L21.3 13v7h-1.2zM31.5 20v-8.7h1.9L36 18l2.7-6.7h1.7V20h-1.3v-7l-2.6 6.5h-1.3L32.6 13v7h-1.1zM42.8 20v-8.7h1.4V20h-1.4zM48.5 20.3c-.6 0-1.5-.1-2.5-.4v-1.2c1.1.5 2 .7 2.6.7.5 0 1-.1 1.3-.4.3-.3.5-.6.5-1 0-.3-.1-.6-.3-.9-.2-.2-.6-.5-1.2-.8l-.7-.3c-.8-.4-1.4-.8-1.7-1.2-.3-.4-.5-.8-.5-1.3 0-.7.3-1.2.8-1.6s1.2-.6 2-.6c.7 0 1.5.1 2.3.3v1.1c-1-.4-1.8-.5-2.2-.5-.5 0-.9.1-1.2.3s-.5.5-.5.9c0 .3.1.5.3.8.2.2.6.5 1.2.8l.7.4c.8.4 1.4.8 1.7 1.2s.5.8.5 1.4c0 .8-.3 1.4-.9 1.8s-1.2.5-2.2.5zM55.6 20.3c-.6 0-1.5-.1-2.5-.4v-1.2c1.1.5 2 .7 2.6.7.5 0 1-.1 1.3-.4.3-.3.5-.6.5-1 0-.3-.1-.6-.3-.9-.2-.2-.6-.5-1.2-.8l-.7-.3c-.8-.4-1.4-.8-1.7-1.2-.3-.4-.5-.8-.5-1.3 0-.7.3-1.2.8-1.6s1.2-.6 2-.6c.7 0 1.5.1 2.3.3v1.1c-1-.4-1.8-.5-2.2-.5-.5 0-.9.1-1.2.3s-.5.5-.5.9c0 .3.1.5.3.8.2.2.6.5 1.2.8l.7.4c.8.4 1.4.8 1.7 1.2s.5.8.5 1.4c0 .8-.3 1.4-.9 1.8s-1.2.5-2.2.5zM60.8 20v-8.7h1.4V20h-1.4zM68.5 20.3c-1.3 0-2.4-.4-3.2-1.3s-1.2-1.9-1.2-3.3.4-2.5 1.2-3.3 1.9-1.2 3.2-1.2c1.3 0 2.4.4 3.2 1.2s1.2 1.9 1.2 3.3-.4 2.5-1.2 3.3-1.8 1.3-3.2 1.3zm0-1c1 0 1.7-.3 2.3-1s.8-1.5.8-2.7c0-1.1-.3-2-.8-2.6-.5-.6-1.3-1-2.2-1-.9 0-1.7.3-2.2 1s-.8 1.5-.8 2.7c0 1.1.3 2 .8 2.7s1.2.9 2.1.9zM74.9 20v-8.7h1.3L81 18v-6.7h1.2V20h-1.3l-4.8-6.7V20h-1.2z"/></svg>