<svg id="Layer_1" data-name="Layer 1" xmlns="http://www.w3.org/2000/svg" viewBox="0 0 22.36 14.66"><defs><style>.cls-1{fill:#8b8c8c}</style></defs><title>GamcareCertify</title><path class="cls-1" d="M5 8.44l-.5 1.31h1zm-1.07 2.81H3.4l1.35-3.46h.49l1.35 3.46H6l-.38-1h-1.3zM6.87 11.24V7.79h.74l1 2.67 1.01-2.67h.73v3.45h-.47l.03-3-1.12 3h-.36l-1.12-3 .04 3h-.48zM12.55 11.31a1.71 1.71 0 0 1-1.29-.55 1.8 1.8 0 0 1-.49-1.28 1.71 1.71 0 0 1 .53-1.25 1.74 1.74 0 0 1 1.26-.51 1.77 1.77 0 0 1 1.73 1.38h-.92a.89.89 0 0 0-.8-.52.9.9 0 0 0-.92.91 1 1 0 0 0 .91 1 .91.91 0 0 0 .8-.5h.92a1.73 1.73 0 0 1-1.72 1.35M15.78 8.92L15.43 10h.69zM15 11.25h-.89l1.33-3.46h.69l1.33 3.46h-.94l-.17-.5h-1.14zM18.6 9.38c.42 0 .62-.11.62-.42s-.18-.4-.55-.4h-.24v.82h.17zm-1 1.86V7.79h1.15a1.44 1.44 0 0 1 .88.19 1.11 1.11 0 0 1 .47 1 1.08 1.08 0 0 1-.78 1.11l.85 1.19h-1l-.66-1.11v1.11h-.92zM20.48 11.24V7.79h1.88v.76h-1.04v.56h1.04v.77h-1.04v.6h1.04v.76h-1.88zM1.91 12.84a.86.86 0 0 0-.67-.33.9.9 0 0 0-.89.91.91.91 0 0 0 .88.92.86.86 0 0 0 .65-.34h.43a1.23 1.23 0 0 1-1.09.64A1.24 1.24 0 0 1 0 13.41a1.22 1.22 0 0 1 1.23-1.23 1.27 1.27 0 0 1 .73.23 1.2 1.2 0 0 1 .37.42h-.42zM2.68 14.62v-2.39h1.29v.32h-.94v.7h.94v.32h-.94v.73h.94v.32H2.68zM4.75 13.46H5a.55.55 0 0 0 .64-.46.46.46 0 0 0-.53-.44h-.36v.91zm.79 1.15l-.79-1.1v1.11H4.4v-2.39h.74a.84.84 0 0 1 .64.2A.79.79 0 0 1 6 13a.69.69 0 0 1-.68.73l.68.88h-.46zM6.67 14.62v-2.07h-.46v-.32h1.26v.32h-.45v2.07h-.35zM7.83 12.23h.35v2.39h-.35zM8.65 14.62v-2.39h1.21v.32H9v.71h.86v.32H9v1.04h-.35zM10.27 12.23h.35v2.39h-.35zM12.89 12.84a.87.87 0 0 0-.67-.33.9.9 0 0 0-.89.91.91.91 0 0 0 .88.92.86.86 0 0 0 .65-.34h.43a1.23 1.23 0 0 1-1.08.64A1.25 1.25 0 0 1 11 13.41a1.23 1.23 0 0 1 1.23-1.23 1.28 1.28 0 0 1 .73.23 1.18 1.18 0 0 1 .37.42h-.44zM14.7 13.59l-.3-.91-.31.91h.61zm.39 1l-.26-.7H14l-.26.7h-.41l.9-2.39h.31l.91 2.39h-.37zM15.86 14.62v-2.07h-.46v-.32h1.27v.32h-.46v2.07h-.35zM17.01 12.23h.35v2.39h-.35zM18.91 12.5a.92.92 0 1 0 .89.93.9.9 0 0 0-.89-.93m0 2.16a1.24 1.24 0 1 1 1.24-1.23 1.24 1.24 0 0 1-1.24 1.23M21.99 14.62l-1.18-1.85v1.85h-.35v-2.39h.38L22 14.04h.01v-1.81h.34v2.39h-.36zM20.48 5.81l-1.55-1.13-1.55 1.13L18 4l-1.56-1.14h1.91l.58-1.81.59 1.81h1.91L19.88 4zM18.35 0h-2.2a.65.65 0 0 0-.65.65V6.2a.65.65 0 0 0 .65.65h6.2V0h-4zM12.73 5.81l-1.55-1.13-1.55 1.13.6-1.81-1.55-1.14h1.91l.58-1.81.59 1.81h1.91L12.13 4zM10.6 0H8.4a.65.65 0 0 0-.65.65V6.2a.65.65 0 0 0 .65.65h6.2V0h-4zM5 5.81L3.43 4.68 1.88 5.81 2.47 4 .93 2.86h1.91l.58-1.81L4 2.86h1.92L4.38 4zM2.85 0H.65A.65.65 0 0 0 0 .65V6.2a.65.65 0 0 0 .65.65h6.2V0h-4zM3.52 9.57a1.76 1.76 0 0 1-1.77 1.82 1.69 1.69 0 0 1-1.31-.59A1.8 1.8 0 0 1 0 9.56a1.75 1.75 0 0 1 .54-1.27 1.69 1.69 0 0 1 1.25-.5 1.58 1.58 0 0 1 1.52.94H2.7a1.14 1.14 0 0 0-.94-.44 1.18 1.18 0 0 0-.86.36 1.35 1.35 0 0 0 0 1.85 1.24 1.24 0 0 0 .89.39 1.28 1.28 0 0 0 1.19-.83h-1.6v-.49h2.14z"/></svg>