<svg id="Layer_2" data-name="Layer 2" xmlns="http://www.w3.org/2000/svg" viewBox="0 0 20.01927 14.56077"><defs><style>.cls-1{fill:#41494f}</style></defs><title>Games</title><path class="cls-1" d="M21.962 9.14l-2.33-4.202a.371.371 0 0 0-.325-.192l-14.6-.026a.374.374 0 0 0-.323.191L2.038 9.113a.371.371 0 0 0 .062.445l9.68 9.613a.371.371 0 0 0 .263.11l-.003-.012a.371.371 0 0 0 .265-.11L21.9 9.586a.371.371 0 0 0 .062-.445zm-3.354-3.663l.012.027-2.19 3.241-3.477-3.268zm-3.074 3.454h-7.06l3.536-3.327zm-4.47-3.454l.003.012L7.59 8.73 5.406 5.477zm-6.327.33L6.83 8.922H2.999zM3.27 9.667l.011.006h4.014l3.51 7.48zm8.77 8.36L8.114 9.689h7.783zm1.22-.86l3.465-7.476 4.014.006zm3.92-8.221l2.095-3.115 1.732 3.106.003.009z" transform="translate(-1.99 -4.72)"/></svg>