<svg id="Layer_1" data-name="Layer 1" xmlns="http://www.w3.org/2000/svg" viewBox="0 0 22.63 8.52"><defs><style>.cls-1{opacity:.8}.cls-2{fill:#8b8c8c}</style></defs><title>GBGA</title><g class="cls-1"><path class="cls-2" d="M20.49 6.48h-3.38l-.88 1.92h-1.28L18.86 0l3.77 8.4h-1.31zM20 5.36l-1.16-2.69-1.23 2.69H20z"/></g><g class="cls-1"><path class="cls-2" d="M6.51 8.42V.49H7.7A5.21 5.21 0 0 1 9 .62a1.91 1.91 0 0 1 .78.38 2.16 2.16 0 0 1 .53.75 2.28 2.28 0 0 1 .2.92 1.87 1.87 0 0 1-.65 1.44 1.92 1.92 0 0 1 1 .75 2.13 2.13 0 0 1 .37 1.24 2.11 2.11 0 0 1-.66 1.57 2.16 2.16 0 0 1-.89.55 5.17 5.17 0 0 1-1.35.15H6.51zm1.2-4.52h.37a1.38 1.38 0 0 0 1-.3 1.14 1.14 0 0 0 .31-.87 1.09 1.09 0 0 0-.32-.85 1.33 1.33 0 0 0-.92-.29h-.44V3.9zm0 3.4h.74A1.84 1.84 0 0 0 9.64 7a1.1 1.1 0 0 0 .36-.9 1.12 1.12 0 0 0-.38-.86 2 2 0 0 0-1.31-.34h-.6v2.4z"/></g><g class="cls-1"><path class="cls-2" d="M4.46 4.25h3.27v.27a5.4 5.4 0 0 1-.21 1.58 3.35 3.35 0 0 1-.69 1.19A3.58 3.58 0 0 1 4 8.52a3.85 3.85 0 0 1-2.84-1.2A4 4 0 0 1 0 4.43a4 4 0 0 1 1.2-2.92A4 4 0 0 1 4.13.31a4 4 0 0 1 1.73.38 5 5 0 0 1 1.51 1.22l-.85.81a2.88 2.88 0 0 0-2.37-1.3A2.83 2.83 0 0 0 2 2.3a2.89 2.89 0 0 0-.8 2.13 2.8 2.8 0 0 0 .95 2.17 2.83 2.83 0 0 0 1.92.79 2.39 2.39 0 0 0 1.58-.59 2.11 2.11 0 0 0 .78-1.43h-2V4.25z"/></g><g class="cls-1"><path class="cls-2" d="M14.21 4.25h3.27v.27a5.4 5.4 0 0 1-.21 1.58 3.35 3.35 0 0 1-.69 1.19 3.58 3.58 0 0 1-2.8 1.24 3.85 3.85 0 0 1-2.84-1.2 4 4 0 0 1-1.19-2.9A4 4 0 0 1 11 1.51a4.16 4.16 0 0 1 4.62-.82 5 5 0 0 1 1.51 1.23l-.85.81a2.88 2.88 0 0 0-2.37-1.3 2.83 2.83 0 0 0-2.1.87A2.89 2.89 0 0 0 11 4.43a2.8 2.8 0 0 0 .9 2.17 2.83 2.83 0 0 0 1.92.79 2.39 2.39 0 0 0 1.58-.59 2.11 2.11 0 0 0 .78-1.43h-2V4.25z"/></g></svg>