<svg id="Layer_2" xmlns="http://www.w3.org/2000/svg" viewBox="0 0 24 24"><style>.st0{fill:#666}</style><path class="st0" d="M12 21.97c-2.31 0-4.48-.34-6.12-.95-1.78-.66-2.76-1.6-2.76-2.64s.98-1.98 2.76-2.64c1.64-.61 3.82-.95 6.12-.95s4.48.34 6.12.95c1.78.66 2.76 1.6 2.76 2.64s-.98 1.98-2.76 2.64c-1.64.62-3.82.95-6.12.95zm0-6.29c-2.2 0-4.27.32-5.81.89-1.39.52-2.18 1.18-2.18 1.81s.79 1.29 2.18 1.81c1.55.58 3.61.89 5.81.89 2.2 0 4.27-.32 5.81-.89 1.39-.52 2.18-1.17 2.18-1.81s-.79-1.29-2.18-1.81c-1.55-.57-3.61-.89-5.81-.89z"/><path class="st0" d="M9.51 19.38c-.45 0-.88-.07-1.2-.19-.63-.24-.72-.61-.72-.81s.09-.57.72-.81c.33-.12.76-.19 1.2-.19.45 0 .88.07 1.2.19.63.24.73.61.73.81s-.09.57-.73.81c-.32.12-.75.19-1.2.19zm-.8-1c.18.06.46.11.81.11.35 0 .63-.05.81-.11-.18-.06-.45-.11-.81-.11-.36 0-.63.05-.81.11z"/><path class="st0" d="M8.03 18.82c-.25 0-.45-.2-.45-.45V2.46c0-.25.2-.45.45-.45s.45.2.45.45v15.92c0 .24-.2.44-.45.44z"/><path class="st0" d="M8.03 9.12c-.18 0-.34-.11-.41-.28-.1-.23.01-.49.24-.59l6.58-2.69-6.58-2.69a.435.435 0 0 1-.24-.24.404.404 0 0 1 0-.34c.07-.17.23-.28.41-.28.06 0 .12.01.17.03l7.59 3.1c.17.07.28.23.28.41 0 .18-.11.34-.28.41L8.2 9.08c-.05.02-.11.04-.17.04zM17.13 19.63a1.25 1.25 0 1 1 0-2.5 1.25 1.25 0 0 1 0 2.5zm0-1.61c-.2 0-.36.16-.36.36s.16.36.36.36.36-.16.36-.36-.16-.36-.36-.36z"/></svg>