<svg id="Layer_2" xmlns="http://www.w3.org/2000/svg" viewBox="0 0 24 24"><style>.st0{fill:#666}</style><path class="st0" d="M14.15 6.05c-.91.09-1.59.91-1.5 1.82.08.86.8 1.51 1.66 1.51.05 0 .11 0 .16-.01.91-.09 1.59-.91 1.5-1.82-.09-.91-.89-1.59-1.82-1.5zm1.25 1.56c.06.6-.38 1.13-.98 1.19-.61.06-1.13-.38-1.19-.98-.06-.6.38-1.13.98-1.19.04 0 .07-.01.11-.01.55 0 1.02.42 1.08.99zM13.53 4.78c.04 0 .09 0 .13-.01.36-.04.69-.21.92-.49.23-.28.34-.64.3-1-.07-.75-.73-1.3-1.49-1.23-.75.07-1.3.74-1.23 1.49.08.71.67 1.24 1.37 1.24zm0-2.16a.783.783 0 0 1 .6 1.29c-.13.16-.32.26-.53.29a.782.782 0 0 1-.86-.71c-.02-.21.04-.41.18-.58.13-.16.32-.26.53-.28.03-.01.06-.01.08-.01zM8.73 13.53a.288.288 0 0 0-.19-.06h-.02c-.08.01-.15.05-.19.11l-2.64 3.45c-.38.49-.29 1.19.19 1.57.15.11.31.19.5.22l-1.02 1.33c-.18.24-.26.53-.23.82.04.3.19.56.42.74.2.15.44.24.69.24.35 0 .67-.16.88-.43l4.27-5.55c.1-.13.07-.31-.05-.4l-2.61-2.04zm-2.81 7.74a.527.527 0 0 1-.2-.36c-.02-.14.02-.29.11-.4l1.54-1.99.02-.02.08-.08 2.46-3.23.85.66-4.09 5.32c-.18.22-.55.27-.77.1zm.23-3.88l2.46-3.22.85.66-2.55 3.31c-.19.16-.48.16-.67.01a.527.527 0 0 1-.2-.36c-.02-.14.02-.28.11-.4z"/><path class="st0" d="M18.85 13.44c-.05-.27-.2-.51-.43-.67l-8.25-5.7 1.45-2.25c.31-.48.17-1.12-.31-1.43-.17-.11-.36-.16-.56-.16-.35 0-.68.18-.87.48l-1.99 3.1c-.3.47-.18 1.09.28 1.41l2.51 1.73-1.78 2.54c-.14.2-.1.48.1.62l2.61 1.95c.08.06.17.09.27.09.14 0 .28-.07.36-.18l1.96-2.6 3.04 2.1c.17.11.37.18.58.18.35 0 .68-.17.86-.44.16-.23.22-.5.17-.77zm-.64.44c-.13.19-.45.25-.64.12l-3.26-2.25a.284.284 0 0 0-.39.06l-2.06 2.72-2.42-1.81 1.88-2.7c.04-.06.06-.14.05-.22a.256.256 0 0 0-.12-.18L8.5 7.73a.45.45 0 0 1-.12-.62l1.99-3.1c.13-.2.42-.27.63-.14.1.07.17.17.2.29.03.12 0 .24-.06.35L9.54 7c-.09.13-.06.3.07.39l8.48 5.86a.453.453 0 0 1 .12.63z"/></svg>