<svg id="Layer_2" data-name="Layer 2" xmlns="http://www.w3.org/2000/svg" viewBox="0 0 20 18.35233"><defs><style>.cls-1{fill:#41494f}</style></defs><title>HealthLottery</title><path class="cls-1" d="M12.002 21.175a.863.863 0 0 1-.367-.077 19.894 19.894 0 0 1-6.486-5.061C3.101 13.625 2 11.144 2 9.04a6.218 6.218 0 0 1 10.002-4.933A6.218 6.218 0 0 1 22 9.041c0 2.107-1.101 4.584-3.15 6.974a19.883 19.883 0 0 1-6.488 5.098.855.855 0 0 1-.36.062zM8.218 3.925A5.139 5.139 0 0 0 3.1 9.04c0 1.857 1.024 4.06 2.889 6.262a18.837 18.837 0 0 0 6.012 4.771 18.83 18.83 0 0 0 6.008-4.771C19.875 13.1 20.9 10.898 20.9 9.04a5.117 5.117 0 0 0-8.53-3.81l-.367.33-.367-.33a5.098 5.098 0 0 0-3.417-1.307z" transform="translate(-2 -2.824)"/></svg>