<svg id="Layer_2" data-name="Layer 2" xmlns="http://www.w3.org/2000/svg" viewBox="0 0 21.66967 21.66968"><defs><style>.cls-1{fill:#41494f}</style></defs><title>Help</title><path class="cls-1" d="M21.5 9.878h-.024v-.025a9.996 9.996 0 0 0-7.427-7.54h-.023v-.022a1.908 1.908 0 0 0-1.73-1.126h-.597a1.9 1.9 0 0 0-1.686 1.005v.02h-.022a9.996 9.996 0 0 0-8.038 7.961v.02H1.94a1.908 1.908 0 0 0-.774 1.528v.596a1.908 1.908 0 0 0 .78 1.534h.014v.026a9.996 9.996 0 0 0 8.043 7.958h.022v.02a1.902 1.902 0 0 0 1.675 1.002h.605a1.908 1.908 0 0 0 1.73-1.126v-.022h.023a9.996 9.996 0 0 0 7.424-7.551v-.025h.026a1.897 1.897 0 0 0 1.328-1.816V11.7a1.897 1.897 0 0 0-1.334-1.82zm-7.39-3.56a1.888 1.888 0 0 0 .085-.537V3.2l.062.017a9.138 9.138 0 0 1 6.326 6.52l.031.06h-2.397a1.886 1.886 0 0 0-.667.12l-.045.017-.017-.045a6.115 6.115 0 0 0-3.338-3.515l-.04-.017zm-3.48-3.24a1.072 1.072 0 0 1 1.069-1.069h.596a1.072 1.072 0 0 1 1.07 1.056V5.78a1.072 1.072 0 0 1-1.07 1.069H11.7a1.072 1.072 0 0 1-1.07-1.07zM2.895 9.744a9.065 9.065 0 0 1 6.85-6.67h.059v2.719a1.896 1.896 0 0 0 .036.368v.043h-.039a6.191 6.191 0 0 0-3.763 3.56v.033h-.036a1.928 1.928 0 0 0-.222 0v.009H2.879zm-.887 2.553v-.597a1.072 1.072 0 0 1 1.061-1.084l2.71.014a1.072 1.072 0 0 1 1.07 1.07v.597a1.072 1.072 0 0 1-1.07 1.069H3.08a1.072 1.072 0 0 1-1.07-1.07zm7.827 5.55a1.905 1.905 0 0 0-.037.368v2.69H9.74a9.07 9.07 0 0 1-6.844-6.653l-.014-.073h2.913a1.864 1.864 0 0 0 .22 0h.036v.034a6.191 6.191 0 0 0 3.745 3.591h.04zm3.529 3.086a1.072 1.072 0 0 1-1.07 1.07H11.7a1.072 1.072 0 0 1-1.07-1.07V18.22a1.072 1.072 0 0 1 1.07-1.069l.596-.006a1.072 1.072 0 0 1 1.07 1.07zm.343-4.046h-.028l-.022-.023a1.886 1.886 0 0 0-1.363-.563H11.7a1.894 1.894 0 0 0-1.478.71l-.02.025h-.03a5.347 5.347 0 0 1-3.34-3.104v-.037l.03-.022a1.902 1.902 0 0 0 .844-1.574v-.596a1.902 1.902 0 0 0-.844-1.573l-.03-.023v-.037a5.347 5.347 0 0 1 3.34-3.112l.03-.014.02.025a1.894 1.894 0 0 0 1.478.71h.596a1.883 1.883 0 0 0 1.363-.564l.022-.022h.028a5.249 5.249 0 0 1 3.082 3.315v.026l-.017.02a1.894 1.894 0 0 0-.462 1.246v.608a1.9 1.9 0 0 0 .462 1.24l.011.01v.025a5.249 5.249 0 0 1-3.076 3.304zm6.875-2.632a9.138 9.138 0 0 1-6.337 6.52l-.062.018V18.21a1.894 1.894 0 0 0-.079-.538v-.039l.04-.017a6.118 6.118 0 0 0 3.343-3.506v-.054l.059.017a1.883 1.883 0 0 0 .667.121h2.384zM22 12.281a1.072 1.072 0 0 1-1.07 1.07h-2.712a1.072 1.072 0 0 1-1.07-1.07v-.596a1.07 1.07 0 0 1 1.07-1.07l2.713.014a1.072 1.072 0 0 1 1.069 1.07z" transform="translate(-1.165 -1.165)"/></svg>