<svg id="Layer_2" data-name="Layer 2" xmlns="http://www.w3.org/2000/svg" viewBox="0 0 20 14.53928"><defs><style>.cls-1{fill:#41494f}</style></defs><title>HiLo</title><path class="cls-1" d="M3.498 6.575h1.316V.738H3.498v2.243H1.325V.738H0v5.837h1.325V4.133h2.173v2.442zM5.969.738h1.325v5.837H5.969zM11.885 7.823H10.56v5.837h3.645v-1.109h-2.32V7.823z"/><path class="cls-1" d="M19.229 12.458a2.825 2.825 0 0 0-2.84 3.058 2.721 2.721 0 0 0 2.745 2.97A2.783 2.783 0 0 0 22 15.41a2.72 2.72 0 0 0-2.771-2.953zm-.026 4.98c-.883 0-1.42-.806-1.42-1.949 0-1.134.52-1.983 1.412-1.983.908 0 1.411.901 1.411 1.949 0 1.134-.511 1.983-1.403 1.983z" transform="translate(-2 -4.73)"/><path class="cls-1" d="M13.854 0L2.841 13.971l.961.568L14.814.568 13.854 0z"/></svg>