<svg id="Layer_2" data-name="Layer 2" xmlns="http://www.w3.org/2000/svg" viewBox="0 0 18.83333 20.15049"><defs><style>.cls-1{fill:#41494f}</style></defs><title>Holdem</title><path class="cls-1" d="M16.667 9.508a5.585 5.585 0 0 0-.63.036 6.393 6.393 0 0 0 .714-2.869 4.75 4.75 0 0 0-9.5 0 5.573 5.573 0 0 0 .819 2.793 4.75 4.75 0 1 0-.736 9.443 6.088 6.088 0 0 0 2.816-.73 13.677 13.677 0 0 1-1.687 2.528l-.11.132v1.234h7.393V20.84l-.11-.131a13.688 13.688 0 0 1-1.646-2.448 5.54 5.54 0 0 0 2.677.748 4.75 4.75 0 0 0 0-9.5zm-1.91 11.622H9.342a14.378 14.378 0 0 0 2.389-4.215l.32-.89.306.859a14.372 14.372 0 0 0 2.4 4.246zm1.91-3.067a5.053 5.053 0 0 1-3.516-1.657l-.889-.97-.17-.187-.233.24-.912.936a5.292 5.292 0 0 1-3.613 1.54 3.805 3.805 0 1 1 0-7.609 4.616 4.616 0 0 1 1.776.385l2.1.889-1.574-1.651a5.055 5.055 0 0 1-1.44-3.304 3.805 3.805 0 1 1 7.61 0 5.426 5.426 0 0 1-1.145 3.27l-.96 1.208 1.471-.462a4.996 4.996 0 0 1 1.495-.237 3.805 3.805 0 0 1 0 7.609z" transform="translate(-2.583 -1.925)"/></svg>