<svg id="Layer_2" data-name="Layer 2" xmlns="http://www.w3.org/2000/svg" viewBox="0 0 20.08333 18.12626"><defs><style>.cls-1{fill:#41494e}</style></defs><title>Home</title><path class="cls-1" d="M17.32 1.087h-1.606v1.292l1.606 1.507V1.087z"/><path class="cls-1" d="M21.814 11.67l-9.76-8.733-9.907 8.838a.561.561 0 1 0 .74.843l9.163-8.032 9.02 7.924.028.026a.576.576 0 0 0 .046.039.563.563 0 0 0 .67-.905zM19.363 14.105a.518.518 0 0 0-.544.49v5.43H5.284v-5.43a.518.518 0 1 0-1.035 0v5.951a.527.527 0 0 0 .161.37.516.516 0 0 0 .357.143l14.568.004a.527.527 0 0 0 .46-.276l.036-.086a.684.684 0 0 0 .023-.155v-5.951a.518.518 0 0 0-.49-.49z" transform="translate(-1.958 -2.937)"/></svg>