<svg id="Layer_1" data-name="Layer 1" xmlns="http://www.w3.org/2000/svg" viewBox="0 0 94.07 38.25"><defs><style>.cls-1{fill:#8c8c8c}</style></defs><title>Ibas</title><path class="cls-1" d="M14.69 15.55a12.08 12.08 0 0 1 .58-3.73 10.67 10.67 0 0 0-1.16-2.42 13.71 13.71 0 0 0-1 2.64 9 9 0 0 1 .72 3.51 9.06 9.06 0 0 1-.75 3.52 13.14 13.14 0 0 0 1 2.64 11.5 11.5 0 0 0 1.23-2.54 11.71 11.71 0 0 1-.62-3.62z"/><path class="cls-1" d="M12.88 12.83a13.14 13.14 0 0 0-.29 2.71 14.08 14.08 0 0 0 .27 2.73 8.15 8.15 0 0 0 .02-5.44zM14.34 22.25A12.14 12.14 0 0 0 15.57 24a12.14 12.14 0 0 0 1.23-1.77A12.16 12.16 0 0 1 15.57 20a12.16 12.16 0 0 1-1.23 2.25zM16.74 8.86a13.75 13.75 0 0 0-1.16-1.73 13.75 13.75 0 0 0-1.16 1.73A11.21 11.21 0 0 1 15.57 11a11.21 11.21 0 0 1 1.17-2.14zM15.57 18.15a11.13 11.13 0 0 0 .32-2.61 11.73 11.73 0 0 0-.32-2.71 11.73 11.73 0 0 0-.32 2.71 11.13 11.13 0 0 0 .32 2.61zM17.81 15.55a8.45 8.45 0 0 0 .48 2.73 14.08 14.08 0 0 0 .27-2.73 13.14 13.14 0 0 0-.29-2.71 8.49 8.49 0 0 0-.46 2.71z"/><path class="cls-1" d="M18.06 12A13.7 13.7 0 0 0 17 9.4a10.67 10.67 0 0 0-1.17 2.41 12.08 12.08 0 0 1 .58 3.73 11.71 11.71 0 0 1-.58 3.62 11.5 11.5 0 0 0 1.23 2.54 13.14 13.14 0 0 0 1-2.64 8.76 8.76 0 0 1 0-7.06z"/><path class="cls-1" d="M15.63 0L0 15.63l15.63 15.62 15.62-15.62zM4.87 16.55a1 1 0 1 1 0-2 1 1 0 0 1 0 2zm2.61 1.59L7.26 18a3.56 3.56 0 0 0 1-2.41 3.4 3.4 0 0 0-1-2.4l.21-.21a3.69 3.69 0 0 1 1 2.6 3.88 3.88 0 0 1-.99 2.56zM9 19.71a5.85 5.85 0 0 0 0-8.33l.27-.27a6.23 6.23 0 0 1 0 8.87zm10.87 2.1a8.46 8.46 0 0 1-1.39-1.88 13.66 13.66 0 0 1-1 2.37 12 12 0 0 0 1 1.15l-.4.38a12.66 12.66 0 0 1-.86-1A12.73 12.73 0 0 1 16 24.51c.19.2.38.41.58.6l-.44.47c-.21-.19-.39-.4-.58-.6-.19.2-.38.41-.58.6l-.44-.47c.2-.19.39-.4.58-.6a12.73 12.73 0 0 1-1.2-1.69 12.66 12.66 0 0 1-.86 1l-.4-.38a12 12 0 0 0 1-1.15 13.65 13.65 0 0 1-1-2.37 8.46 8.46 0 0 1-1.39 1.88l-.33-.33a8.16 8.16 0 0 0 1.54-2.21 14.59 14.59 0 0 1-.5-3.73 13.85 13.85 0 0 1 .52-3.71 8.22 8.22 0 0 0-1.57-2.23l.33-.33a8.64 8.64 0 0 1 1.43 1.91 14.41 14.41 0 0 1 1-2.37 11.2 11.2 0 0 0-1-1.18l.39-.39A11.83 11.83 0 0 1 14 8.31a14.39 14.39 0 0 1 1.15-1.67c-.2-.22-.39-.45-.6-.66l.45-.46c.2.2.38.42.57.63.19-.21.37-.43.57-.63l.46.48c-.21.21-.4.44-.6.66a14.39 14.39 0 0 1 1.15 1.67 11.83 11.83 0 0 1 .93-1.06l.39.39a11.2 11.2 0 0 0-1 1.18 14.41 14.41 0 0 1 1 2.37A8.63 8.63 0 0 1 19.9 9.3l.33.33a8.21 8.21 0 0 0-1.57 2.23 13.85 13.85 0 0 1 .52 3.71 14.59 14.59 0 0 1-.5 3.73 8.16 8.16 0 0 0 1.54 2.21zm2.2-2.1l-.23.29a6.23 6.23 0 0 1 0-8.87l.27.27a5.85 5.85 0 0 0 0 8.31zm1.56-1.57a3.88 3.88 0 0 1-1-2.59 3.69 3.69 0 0 1 1-2.6l.21.21a3.4 3.4 0 0 0-1 2.4 3.56 3.56 0 0 0 1 2.41zm2.61-1.59a1 1 0 1 1 1-1 1.08 1.08 0 0 1-.97 1zM52.27 25.85c0-.8-.5-1.2-1.7-1.2h-1l-.1 2.35h1c1.2 0 1.8-.25 1.8-1.15zM50.47 29h-1.2l.2 2.4h1.2c1.6 0 2.1-.3 2.1-1.2s-.5-1.2-2.3-1.2z"/><path class="cls-1" d="M31 18.35l-14.5 17.9L8.77 27v11.2h85.3V18.35H31zm7.7 15h-2.6V23h2.6v10.3zm4.2-4a1.3 1.3 0 1 1 1.3-1.3 1.32 1.32 0 0 1-1.33 1.3zm10.7 3.9a5 5 0 0 1-1.9.2h-4.6V23h3.8a5 5 0 0 1 2 .2 2.54 2.54 0 0 1 2 2.4 2.48 2.48 0 0 1-1.4 2.1 2.57 2.57 0 0 1 2.1 2.7 3 3 0 0 1-2.03 2.85zm5.7-3.9a1.3 1.3 0 1 1 1.3-1.3 1.32 1.32 0 0 1-1.33 1.3zm11.3 3.9l-.8-2h-4.6l-.8 2.1h-2.7L65.87 23h3l4.5 10.2h-2.8zm5.1-3.9A1.3 1.3 0 1 1 77 28a1.32 1.32 0 0 1-1.33 1.35zm7.6 4a9.72 9.72 0 0 1-2.7-.5 1.52 1.52 0 0 1-.9-.5v-2.2a9.66 9.66 0 0 0 1.7.9 4.33 4.33 0 0 0 1.9.4q1.5 0 1.5-.9c0-.5-.4-.8-1.4-1.2l-.5-.2a9.13 9.13 0 0 1-1.7-.8 3.91 3.91 0 0 1-1-.8 3.16 3.16 0 0 1-.7-1.9c0-1.8 1.5-2.9 3.9-2.9a8 8 0 0 1 3.5.8v2.1l-.1.1-.2-.1a7.07 7.07 0 0 0-3.1-.9c-.9 0-1.5.3-1.5.8s.5.8 1.7 1.2l.8.3c2 .7 2.8 1.7 2.8 3.2-.03 1.75-1.63 3.1-4.03 3.1z"/><path class="cls-1" d="M65.87 29.45h3.1l-1.7-4-1.4 4z"/></svg>