<svg xmlns="http://www.w3.org/2000/svg" viewBox="0 0 24 24"><path d="M8.8 14.42c2.65 0 3.86-.8 3.86-1.54v-2.01c0-.02 0-.04-.01-.06a.085.085 0 0 1 0-.07c0-.03.01-.07.01-.1 0-.74-1.21-1.54-3.86-1.54s-3.86.8-3.86 1.54c0 .04 0 .07.01.11v.08c-.01.02-.01.04-.01.06v1.98c0 .75 1.21 1.55 3.86 1.55zm-3.21-2.76c.03-.02.07-.03.11-.03.03 0 .06.01.09.02.7.35 1.74.53 3 .53s2.3-.18 3-.53c.03-.01.06-.02.09-.02.04 0 .08.01.11.03.06.04.1.1.1.18v1.08c-.08.4-1.27.95-3.3.95s-3.22-.55-3.3-.94v-1.08c.01-.09.04-.15.1-.19zm6.5-.98c-.08.4-1.26.95-3.3.95-2.03 0-3.22-.55-3.3-.94 0-.03-.01-.05 0-.08.08-.4 1.26-.95 3.3-.95 2.03 0 3.22.55 3.3.94.01.03.01.05 0 .08z"/><path d="M21.8 4.04c-.22-.26-.57-.42-.94-.42-.41 0-.79.2-1.02.55-.01.01-.02.03-.02.04-.04.1-4.3 9.63-5.47 10.97-.01.01-1.26 1.37-3.44 1.37-.18 0-.37-.01-.57-.03L4.1 15.33c-.09-.02-.2-.03-.3-.03-.91 0-1.59.66-1.79 1.73-.01.04-.15.87.35 1.58.35.49.91.8 1.67.92h.02l6.37.45s.15.01.39.01c.95 0 3.3-.16 4.53-1.61.07-.09.74-.87 1.24-2.03.72-1.67 4.89-10.52 5.36-11.52l.02-.04c.01-.02.02-.04.02-.07.06-.23-.01-.47-.18-.68zM11.62 19.41c-.05 0-.1-.02-.14-.06a.236.236 0 0 1-.07-.16l.04-1.93c0-.1.08-.19.18-.2 1.61-.2 2.65-1.03 3.02-1.38.04-.04.09-.06.14-.06.03 0 .06.01.09.02l.99.47c.1.05.15.17.1.28-.46.97-1.02 1.61-1.04 1.64-.82.96-2.25 1.28-3.31 1.38zm3.39-4.04a.175.175 0 0 1 .03-.17c.06-.09.13-.2.2-.31.04-.06.1-.1.18-.1.03 0 .06.01.09.02l.78.37c.1.05.15.17.1.27l-.15.34c-.02.05-.07.09-.12.11-.02.01-.05.01-.07.01-.03 0-.06-.01-.09-.02l-.83-.39a.195.195 0 0 1-.12-.13zm.64-.74a.216.216 0 0 1-.11-.12.184.184 0 0 1 .02-.16C17.2 11.46 20 5.21 20.31 4.5c.01-.01.01-.03.02-.04a.65.65 0 0 1 .53-.27c.2 0 .4.08.51.22.03.03.04.06.05.09.02.05.02.11-.01.16-.8 1.7-3.52 7.48-4.77 10.21-.02.05-.07.09-.12.11-.02.01-.05.01-.07.01-.03 0-.06-.01-.09-.02l-.71-.34zM2.82 18.3c-.37-.52-.27-1.16-.27-1.17.15-.81.6-1.27 1.24-1.27.07 0 .15.01.21.02l.11.02c.1.02.17.11.17.21l-.14 2.64c0 .06-.03.12-.08.15-.04.03-.08.04-.12.04-.01 0-.03 0-.05-.01-.48-.1-.84-.32-1.07-.63z"/></svg>