<svg id="Layer_2" data-name="Layer 2" xmlns="http://www.w3.org/2000/svg" viewBox="0 0 21 21"><defs><style>.cls-1{fill:#41494f}</style></defs><title>Info</title><path class="cls-1" d="M12 1.5A10.5 10.5 0 1 0 22.5 12 10.512 10.512 0 0 0 12 1.5zm0 20.192A9.703 9.703 0 0 1 2.308 12 9.692 9.692 0 1 1 12 21.692z" transform="translate(-1.5 -1.5)"/><path class="cls-1" d="M12.036 15.555a.902.902 0 0 0-.995.196.924.924 0 0 0-.257.644.906.906 0 0 0 .257.644.838.838 0 0 0 .286.192.95.95 0 0 0 .71 0 .878.878 0 0 0 .289-.192.943.943 0 0 0 .196-.285.914.914 0 0 0-.486-1.199zM13.868 7.337a2.538 2.538 0 0 0-.843-.47 3.268 3.268 0 0 0-1.061-.167 3.71 3.71 0 0 0-.807.083 3.63 3.63 0 0 0-.695.228 3.72 3.72 0 0 0-.594.333 4.357 4.357 0 0 0-.496.399l.34.543a.315.315 0 0 0 .283.166.392.392 0 0 0 .22-.108 3.096 3.096 0 0 1 .352-.24 2.837 2.837 0 0 1 .532-.238 2.333 2.333 0 0 1 .756-.109 1.947 1.947 0 0 1 .612.094 1.475 1.475 0 0 1 .496.272 1.301 1.301 0 0 1 .333.43 1.276 1.276 0 0 1 .123.565 1.603 1.603 0 0 1-.174.771 2.408 2.408 0 0 1-.43.576 4.207 4.207 0 0 1-.554.46 6.386 6.386 0 0 0-.543.42 2.044 2.044 0 0 0-.398.456.892.892 0 0 0-.124.568l.087 1.202h.884l.13-1.107a.757.757 0 0 1 .214-.435 3.5 3.5 0 0 1 .445-.39l.554-.417a3.245 3.245 0 0 0 .543-.522 2.655 2.655 0 0 0 .413-.698 2.498 2.498 0 0 0 .163-.949 2.286 2.286 0 0 0-.203-.977 2.169 2.169 0 0 0-.558-.739z" transform="translate(-1.5 -1.5)"/></svg>