<svg id="Layer_2" data-name="Layer 2" xmlns="http://www.w3.org/2000/svg" viewBox="0 0 20 18.16124"><defs><style>.cls-1{fill:#41494f}</style></defs><title>InShop</title><path class="cls-1" d="M11.71 8.353V6.786h2.525v.833a.372.372 0 1 0 .744.002V6.414a.373.373 0 0 0-.372-.372H11.71a3.218 3.218 0 0 0-6.433 0H2.372A.373.373 0 0 0 2 6.414v12.092a2.578 2.578 0 0 0 2.57 2.57h5.656a.372.372 0 1 0 .002-.743H4.57a1.829 1.829 0 0 1-1.827-1.827V6.786h2.525V8.35a.372.372 0 0 0 .744.002V6.786h4.953V8.35a.372.372 0 1 0 .744.002zM6.013 6.046a2.476 2.476 0 0 1 4.949 0z" transform="translate(-2 -2.92)"/><path class="cls-1" d="M21.628 11.542H19.36v-.498a2.626 2.626 0 0 0-5.251.004v.498H11.84a.373.373 0 0 0-.372.372v7.426a1.738 1.738 0 0 0 1.736 1.737h7.058A1.738 1.738 0 0 0 22 19.344v-7.43a.373.373 0 0 0-.372-.372zm-6.78-.494a1.884 1.884 0 0 1 3.768-.004v.502h-3.768zm6.408 8.296a.994.994 0 0 1-.993.993h-7.058a.994.994 0 0 1-.992-.993v-7.058h1.896v1.042a.372.372 0 1 0 .744 0v-1.042h3.767v1.042a.372.372 0 1 0 .744 0v-1.042h1.892z" transform="translate(-2 -2.92)"/></svg>