<svg id="Layer_2" data-name="Layer 2" xmlns="http://www.w3.org/2000/svg" viewBox="0 0 11 21.50927"><defs><style>.cls-1{fill:#41494f}</style></defs><title>InstantPlay</title><path class="cls-1" d="M17.067 10.335h-4.38l4.11-8.469a.432.432 0 0 0-.717-.469L6.604 12.551a.432.432 0 0 0 .326.71l3.976.018-4.362 8.854a.432.432 0 0 0 .714.475L17.393 11.05a.432.432 0 0 0-.326-.716zM8.766 19.58l3.22-6.538a.432.432 0 0 0-.383-.633l-3.741-.015 6.676-7.859-2.927 6.043a.432.432 0 0 0 .389.622h4.115z" transform="translate(-6.5 -1.245)"/></svg>