<svg id="Layer_2" data-name="Layer 2" xmlns="http://www.w3.org/2000/svg" viewBox="0 0 21.5 20.14952"><defs><style>.cls-1{fill:#414a4f}</style></defs><title>Jackpot</title><path class="cls-1" d="M5.61 9.9A11.422 11.422 0 0 1 2.634 5.4c.396 0 1.028-.034 1.774-.04q-.094-.672-.155-1.344h-1.39c-.76.06-1.613.094-1.613.887 0 1.834 2.466 5.811 5.993 7.975l-.141-.202A13.062 13.062 0 0 1 5.61 9.9zM21.137 4.048h-1.384q-.06.672-.154 1.344c.746 0 1.344 0 1.774.04a11.556 11.556 0 0 1-3.01 4.556 13.007 13.007 0 0 1-1.458 2.687l-.202.323c3.554-2.15 6.047-6.202 6.047-8.063 0-.826-.86-.86-1.613-.887zM16.226 20.738a3.312 3.312 0 0 1-2.788-2.486h-2.876a3.312 3.312 0 0 1-2.788 2.486.443.443 0 0 0-.383.443v.672a.222.222 0 0 0 .215.222h8.788a.222.222 0 0 0 .215-.222v-.672a.443.443 0 0 0-.383-.443zM10.656 16.888h2.688c.14-1.935 1.169-2.815 2.472-5.006a17.284 17.284 0 0 0 2.715-9.5.45.45 0 0 0-.121-.322.43.43 0 0 0-.31-.135H5.9a.43.43 0 0 0-.31.135.45.45 0 0 0-.12.322 17.374 17.374 0 0 0 2.687 9.507c1.337 2.19 2.351 3.07 2.5 4.999z" transform="translate(-1.25 -1.925)"/></svg>