<svg id="Layer_2" data-name="Layer 2" xmlns="http://www.w3.org/2000/svg" viewBox="0 0 19.57951 20.16667"><defs><style>.cls-1{fill:#41494f}</style></defs><title>Jackpots</title><path class="cls-1" d="M21.627 14.88a5.705 5.705 0 0 0-5.564-4.357c-.137 0-.27.011-.404.02a6.886 6.886 0 0 1-.017-1.797 6.535 6.535 0 0 1 1.05-2.762.464.464 0 0 0 .047-.1 21.177 21.177 0 0 1 3.056-.166h.092a.467.467 0 1 0 0-.933h-.093a15.966 15.966 0 0 0-5.27.663c-1.629.558-3.762 2.329-5.473 5.174a5.852 5.852 0 0 0-1.061-.099 5.78 5.78 0 1 0 3.474 10.4.467.467 0 0 0-.561-.745 4.847 4.847 0 1 1-2.913-8.722 4.947 4.947 0 0 1 .568.037 19.387 19.387 0 0 0-.803 1.708.467.467 0 0 0 .863.355 17.857 17.857 0 0 1 .893-1.856 4.815 4.815 0 0 1 1.481.798.467.467 0 0 0 .579-.732 5.757 5.757 0 0 0-1.576-.884c1.411-2.257 3.21-3.995 4.832-4.55a9.42 9.42 0 0 1 .703-.21 7.333 7.333 0 0 0-.814 2.504 7.845 7.845 0 0 0 .02 2.058 5.705 5.705 0 1 0 6.891 4.196zm-5.564 6.16a4.789 4.789 0 0 1-1.163-9.435c.07.323.146.624.215.895a5.824 5.824 0 0 1 .238 1.221.467.467 0 0 0 .464.469h.002a.467.467 0 0 0 .467-.465 6.282 6.282 0 0 0-.267-1.457c-.064-.25-.132-.518-.195-.8.08-.004.158-.012.239-.012a4.792 4.792 0 0 1 0 9.584z" transform="translate(-2.21 -1.917)"/><path class="cls-1" d="M18.942 16.248a2.883 2.883 0 0 1-2.88 2.88.467.467 0 0 0 0 .933 3.817 3.817 0 0 0 3.814-3.813.467.467 0 0 0-.934 0zM9.58 18.612a2.86 2.86 0 0 1-1.645.515.467.467 0 0 0 0 .934 3.792 3.792 0 0 0 2.18-.684.467.467 0 0 0-.534-.765zM9.273 9.163a.49.49 0 0 0 .098.01.467.467 0 0 0 .096-.923 10.038 10.038 0 0 1-4.382-2.452c.76-.803 2.956-2.861 5.555-2.946a7.855 7.855 0 0 1 4.67 1.699.467.467 0 0 0 .55-.754 8.763 8.763 0 0 0-5.25-1.877c-3.645.118-6.416 3.461-6.533 3.603l-.257.316.277.298a11.16 11.16 0 0 0 5.176 3.026z" transform="translate(-2.21 -1.917)"/></svg>