<svg id="Layer_2" xmlns="http://www.w3.org/2000/svg" viewBox="0 0 24 24"><style>.st0{fill:#666}</style><path class="st0" d="M15.34 15.77a.985.985 0 0 0 0-1.43l-.66-.66c-.08-.08-.17-.14-.27-.19.17-.39.12-.84-.17-1.13l-.66-.66a.996.996 0 0 0-.38-.23c.05-.31-.04-.64-.28-.88l-.66-.66a.992.992 0 0 0-.75-.29.998.998 0 0 0-.26-.47l-.66-.66a1.02 1.02 0 0 0-1.43 0L8.03 9.64c-.1.01-.2.02-.3.04-2.15.51-2.52.88-2.64 1-.73.73-1.09 1.53-1.09 2.45 0 .29.01.57.01.84.01.52.03 1.23-.05 1.41l-.99.98.54.55 1.01-1c.29-.29.29-.84.26-1.96-.01-.26-.01-.54-.01-.83 0-.71.27-1.32.86-1.91.16-.16.85-.46 2.27-.79.3-.07.61.02.83.24l2.69 2.69c-.16.13-.43.28-.76.36-.3.07-.87.13-1.3-.25l-1.4-1.4-.55.55c.88.88 1.38 3.54.31 4.61l.55.55c.64-.64.93-1.73.8-2.98-.02-.22-.06-.44-.11-.65.3.22.65.35 1.02.39.04.17.13.34.26.48l.67.67c.16.16.38.25.61.27.02.23.11.45.27.62l.61.61c-.49.46-1.64 1.52-1.75 1.63-.3.3-.91.43-1.46.55-.56.12-1.09.24-1.4.55l-.58.82.63.45.52-.74c.17-.14.61-.24 1-.32.65-.14 1.38-.3 1.84-.76.1-.1 1.22-1.14 1.94-1.81l-.04-.04h.11c.27-.01.53-.13.73-.33l1.4-1.41zm-3.63-5.29l.66.66c.09.09.09.24 0 .34l-.31.31-.55.55-1.03-1.03.9-.83c.09-.09.24-.09.33 0zm-2.79-.63l.78-.79c.09-.09.24-.09.34 0l.66.66c.09.09.09.24.01.32l-.78.72-.64-.64c-.11-.11-.24-.2-.37-.27zm1.9 4.62h.03c.69-.16 1.27-.56 1.45-1l.1-.24-.34-.34.55-.55c.08-.08.17-.13.26-.13.04 0 .11 0 .16.05l.66.66c.08.08.06.27-.09.42l-.35.35-1.36 1.36c-.15.15-.34.17-.42.09l-.65-.67zm2.36 2.26c-.05 0-.11-.01-.16-.06l-.66-.66a.216.216 0 0 1-.06-.16c0-.08.04-.16.1-.22l.04-.04 1.36-1.36c.06-.06.11-.08.16-.08.08 0 .14.05.17.08l.66.66c.05.05.15.18 0 .34l-1.39 1.39c-.06.06-.14.1-.22.11z"/><path class="st0" d="M21.76 13.24c-1.82-.53-2.99-1.4-3.48-2.59-.56-1.34-.25-3.14.88-5.2a.38.38 0 0 0-.07-.46.395.395 0 0 0-.46-.07c-2.06 1.13-3.86 1.43-5.2.88-1.19-.49-2.06-1.66-2.59-3.48a.384.384 0 0 0-.74 0c-.59 2.03-1.5 3.32-2.72 3.82-1.22.5-2.77.24-4.62-.77a.393.393 0 0 0-.46.06c-.13.13-.15.31-.07.46.07.12.13.24.2.36.54.95 1 1.78.87 3.08l.77.08c.12-1.18-.19-2.05-.58-2.82 1.6.67 3 .76 4.18.27 1.2-.5 2.14-1.59 2.81-3.24.61 1.45 1.5 2.43 2.66 2.91 1.33.55 2.98.41 4.83-.4-.81 1.85-.95 3.51-.4 4.83.48 1.15 1.45 2.04 2.91 2.66-1.65.66-2.74 1.6-3.24 2.81-.49 1.18-.4 2.58.27 4.18-.99-.49-2.25-.89-3.87-.36l.24.74c1.75-.57 2.95.11 4.01.71.11.06.21.12.32.18a.386.386 0 0 0 .46-.06c.12-.12.15-.31.07-.46-1.02-1.85-1.27-3.4-.77-4.62.51-1.22 1.79-2.14 3.81-2.73.17-.05.28-.2.28-.37-.02-.2-.14-.35-.3-.4z"/></svg>