<svg id="Layer_2" data-name="Layer 2" xmlns="http://www.w3.org/2000/svg" viewBox="0 0 20.8042 20.83957"><defs><style>.cls-1{fill:#41494f}</style></defs><title>LiveChat</title><path class="cls-1" d="M16.845 8.343H7.42a.509.509 0 1 0 0 1.018h9.424a.509.509 0 0 0 0-1.018zM16.845 11.545H7.42a.509.509 0 1 0 0 1.018h9.424a.509.509 0 0 0 0-1.018zM16.845 14.747H7.42a.509.509 0 1 0 0 1.018h9.424a.509.509 0 0 0 0-1.018z" transform="translate(-1.598 -1.58)"/><path class="cls-1" d="M19.265 4.517A10.439 10.439 0 0 0 3.953 18.65l.066.103-.045.103a4.247 4.247 0 0 1-1.772 1.957.8.8 0 0 0-.44.845.809.809 0 0 0 .685.676 5.237 5.237 0 0 0 .806.06A6.134 6.134 0 0 0 6.858 21.2l.09-.067.1.055a10.33 10.33 0 0 0 12.22-1.815q.1-.097.198-.197a10.366 10.366 0 0 0-.2-14.658zM7.11 20.266a.418.418 0 0 0-.212-.058.463.463 0 0 0-.336.152l-.028.024a5.337 5.337 0 0 1-3.295 1.172H2.68l.452-.33a5.756 5.756 0 0 0 1.748-2.323.46.46 0 0 0 .018-.303.445.445 0 0 0-.103-.24 9.524 9.524 0 1 1 2.314 1.906z" transform="translate(-1.598 -1.58)"/></svg>