<svg id="Layer_1" data-name="Layer 1" xmlns="http://www.w3.org/2000/svg" viewBox="0 0 59.43359 74.87402"><defs><style>.cls-1{fill:#41494f}</style></defs><title>Live_Casino</title><path class="cls-1" d="M3.98 74.874A3.985 3.985 0 0 1 0 70.894v-8.126a9.114 9.114 0 0 1 6.914-8.855l5.211-1.303a61.277 61.277 0 0 1-1.639-.698c-4.644-2.064-6.626-3.7-6.626-5.467 0-17.103 2.256-29.04 6.897-36.493C14.927 3.256 21.13 0 29.717 0s14.789 3.256 18.959 9.952c4.64 7.452 6.896 19.39 6.896 36.493 0 1.768-1.981 3.404-6.626 5.467-.553.246-1.106.48-1.637.698l5.21 1.303a9.115 9.115 0 0 1 6.915 8.855v8.127a3.985 3.985 0 0 1-3.98 3.979zm51.473-2.813a1.168 1.168 0 0 0 1.167-1.167v-8.127a6.305 6.305 0 0 0-4.783-6.125l-7.6-1.9c-4.886 6.362-10.473 9.882-14.087 11.056a1.412 1.412 0 0 1-.433.07 1.365 1.365 0 0 1-.436-.071c-3.612-1.173-9.199-4.693-14.085-11.056l-7.6 1.902a6.305 6.305 0 0 0-4.783 6.125v8.127a1.168 1.168 0 0 0 1.167 1.167h6.315v-5.738a1.406 1.406 0 1 1 2.812 0v5.738h33.218v-5.738a1.406 1.406 0 1 1 2.813 0v5.738zm-37.25-18.07c3.578 4.316 7.86 7.658 11.514 8.983 3.653-1.325 7.934-4.667 11.513-8.984l-1.21-.302a5.26 5.26 0 0 1-3.99-5.11v-.815a15.184 15.184 0 0 1-12.628 0v.815a5.261 5.261 0 0 1-3.989 5.11zm-11.53-7.594c.023 0 .617 1.054 5.289 3.091a72.896 72.896 0 0 0 4.95 1.926l1.818-.455a2.45 2.45 0 0 0 1.859-2.38v-2.434c-5.559-3.942-9.007-11.211-9.007-19.002v-1.288a1.426 1.426 0 0 1 .422-1.005c3.183-3.107 7.997-5.371 14.31-6.732a67.692 67.692 0 0 1 13.697-1.39 1.41 1.41 0 0 1 1.355 1.033 30.143 30.143 0 0 0 5.925 11.597 1.415 1.415 0 0 1 .335 1.099 23.669 23.669 0 0 1-5.948 13.215 18.7 18.7 0 0 1-2.834 2.477v2.43a2.452 2.452 0 0 0 1.86 2.38l1.817.455a73.008 73.008 0 0 0 4.964-1.932c4.755-2.074 5.272-3.123 5.291-3.167-.021-16.455-2.137-27.89-6.488-34.876-3.664-5.884-8.93-8.626-16.571-8.626-7.642 0-12.908 2.742-16.572 8.626-4.35 6.985-6.466 18.42-6.471 34.96zm7.722-19.254c0 10.577 6.873 19.182 15.322 19.182a13.615 13.615 0 0 0 9.907-4.575 20.751 20.751 0 0 0 5.127-11.037 32.907 32.907 0 0 1-5.792-11.162c-5.315.095-17.975.97-24.564 6.915z"/></svg>