<svg id="Layer_2" data-name="Layer 2" xmlns="http://www.w3.org/2000/svg" viewBox="0 0 21.125 16.1197"><defs><style>.cls-1{fill:#41494f}</style></defs><title>LiveScores</title><path class="cls-1" d="M20.494 5.894h-.96V4.37a.43.43 0 0 0-.86 0v1.524H5.312V4.37a.43.43 0 0 0-.86 0v1.524h-.945a2.071 2.071 0 0 0-2.068 2.069v10.028a2.071 2.071 0 0 0 2.068 2.069h16.988a2.071 2.071 0 0 0 2.068-2.07V7.964a2.071 2.071 0 0 0-2.068-2.069zm-8.927 13.307h-8.06a1.213 1.213 0 0 1-1.213-1.213l.002.003V10.51h9.27zm0-9.55h-9.27V7.963a1.213 1.213 0 0 1 1.212-1.21l-.003-.003h8.06zm10.13 8.34a1.213 1.213 0 0 1-1.213 1.213l.01-.003h-8.068V10.51h9.27zm.01-10.028v1.688h-9.281v-2.9h8.068a1.213 1.213 0 0 1 1.212 1.21z" transform="translate(-1.438 -3.94)"/><path class="cls-1" d="M6.882 17.931h.104a1.864 1.864 0 0 0 1.859-1.863v-2.443a1.864 1.864 0 0 0-1.861-1.86h-.102a1.864 1.864 0 0 0-1.86 1.86v2.443a1.864 1.864 0 0 0 1.86 1.863zm-1.005-4.306a1.005 1.005 0 0 1 1.005-1.004h.104a1.005 1.005 0 0 1 1.005 1.002l-.003 2.445a1.005 1.005 0 0 1-1.004 1.002h-.102a1.005 1.005 0 0 1-1.005-1.002zM17.014 17.929h.104a1.864 1.864 0 0 0 1.861-1.861v-2.443a1.864 1.864 0 0 0-1.861-1.86h-.104a1.864 1.864 0 0 0-1.861 1.86v2.443a1.864 1.864 0 0 0 1.861 1.861zm-1.005-4.304a1.005 1.005 0 0 1 1.002-1.002h.104a1.005 1.005 0 0 1 1.003 1.002l.002 2.443a1.005 1.005 0 0 1-1.002 1.002h-.104a1.005 1.005 0 0 1-1.005-1.002z" transform="translate(-1.438 -3.94)"/></svg>