<svg id="Layer_2" data-name="Layer 2" xmlns="http://www.w3.org/2000/svg" viewBox="0 0 20.5 20.5"><defs><style>.cls-1{fill:#41494f}</style></defs><title>Location</title><circle class="cls-1" cx="10.25" cy="10.241" r="2.972"/><path class="cls-1" d="M19.437 11.634a7.455 7.455 0 0 0-7.071-7.08V1.75h-.732v2.805a7.455 7.455 0 0 0-7.07 7.08H1.75v.73h2.814a7.456 7.456 0 0 0 7.07 7.063v2.822h.732v-2.822a7.456 7.456 0 0 0 7.07-7.062h2.814v-.732zM12 18.705a6.714 6.714 0 1 1 6.714-6.714A6.714 6.714 0 0 1 12 18.705z" transform="translate(-1.75 -1.75)"/></svg>