<svg id="Layer_2" data-name="Layer 2" xmlns="http://www.w3.org/2000/svg" viewBox="0 0 19.83333 21.40711"><defs><style>.cls-1{fill:#41494f}</style></defs><title>LogOut</title><path class="cls-1" d="M11.635 21.598H6.018a2.832 2.832 0 0 1-2.829-2.829V5.23a2.832 2.832 0 0 1 2.83-2.829h5.72a.547.547 0 0 0 .54-.553.553.553 0 0 0-.552-.553H6.018a3.94 3.94 0 0 0-3.935 3.935V18.77a3.94 3.94 0 0 0 3.935 3.935h5.617a.553.553 0 0 0 0-1.106z" transform="translate(-2.083 -1.296)"/><path class="cls-1" d="M21.754 11.611L17.833 7.69l-.002-.002a.553.553 0 0 0-.78.784l2.98 2.98H7.345a.547.547 0 0 0-.541.553.553.553 0 0 0 .553.552H20.03l-2.98 2.98-.003.005a.555.555 0 0 0 .393.941.54.54 0 0 0 .388-.164l3.922-3.92a.561.561 0 0 0 .167-.403.538.538 0 0 0-.163-.385z" transform="translate(-2.083 -1.296)"/></svg>