<svg id="Layer_2" data-name="Layer 2" xmlns="http://www.w3.org/2000/svg" viewBox="0 0 20.06271 19"><defs><style>.cls-1{fill:#41494f}</style></defs><title>Lottobet</title><path class="cls-1" d="M21.587 14.132a5.232 5.232 0 0 0-5.4-3.109 5.258 5.258 0 1 0-8.369-.168 5.256 5.256 0 1 0 4.144 7.5 5.255 5.255 0 1 0 9.625-4.223zM7.767 7.771a4.298 4.298 0 1 1 4.299 4.298A4.303 4.303 0 0 1 7.767 7.77zm3.752 8.522a4.246 4.246 0 1 1 .009-.263c-.003.072-.011.142-.011.215l.002.048zm-.04-3.3a4.954 4.954 0 0 0 1.173 0 5.264 5.264 0 0 0-.609.975 5.253 5.253 0 0 0-.564-.976zm9.481 3.573a4.246 4.246 0 0 1-8.482-.273c.003-.072.01-.143.01-.215l-.002-.048a4.246 4.246 0 1 1 8.474.536z" transform="translate(-1.969 -2.5)"/><path class="cls-1" d="M8.616 4.177h.011v2.841h.811V3.432h-.695l-.949.442.138.629.684-.326z"/><path class="cls-1" d="M13.32 9.579c.917 0 1.363-.761 1.363-1.87 0-.982-.375-1.837-1.335-1.837-.927 0-1.368.822-1.368 1.859.006 1.015.414 1.848 1.34 1.848zm.017-3.073c.337 0 .508.42.508 1.214 0 .816-.177 1.224-.502 1.224s-.524-.391-.519-1.213c-.005-.833.204-1.225.513-1.225zM8.049 15.728a1.64 1.64 0 0 0-.944-.26 1.553 1.553 0 0 0-.232.012l.078-.552h1.39v-.69H6.366l-.237 1.882a3.096 3.096 0 0 1 .485-.033c.717 0 1.01.226 1.01.596 0 .38-.37.546-.717.546a2.06 2.06 0 0 1-.811-.177l-.15.63a2.279 2.279 0 0 0 1 .203 1.367 1.367 0 0 0 1.538-1.258 1.02 1.02 0 0 0-.435-.899z" transform="translate(-1.969 -2.5)"/><path class="cls-1" d="M12.292 12.465l.138.629.684-.325h.011v2.841h.811v-3.586h-.695l-.949.441z"/><path class="cls-1" d="M18.635 16.014a1.64 1.64 0 0 0-.943-.26 1.553 1.553 0 0 0-.232.011l.078-.551h1.39v-.69h-1.975l-.238 1.881a3.096 3.096 0 0 1 .486-.033c.717 0 1.01.226 1.01.596 0 .38-.37.546-.718.546a2.06 2.06 0 0 1-.81-.176l-.15.629a2.279 2.279 0 0 0 .999.204 1.367 1.367 0 0 0 1.54-1.258 1.02 1.02 0 0 0-.437-.9z" transform="translate(-1.969 -2.5)"/></svg>