<svg id="Layer_2" data-name="Layer 2" xmlns="http://www.w3.org/2000/svg" viewBox="0 0 20.125 16.937"><defs><style>.cls-1{fill:#41494f}</style></defs><title>LottoResults</title><path class="cls-1" d="M15.144 11.098a4.7 4.7 0 0 0-.523.03 4.688 4.688 0 1 0-7.464-.148 4.688 4.688 0 1 0 3.694 6.686 4.685 4.685 0 1 0 4.293-6.568zM7.113 8.229H7.1a3.834 3.834 0 1 1 3.837 3.831h-.003a3.837 3.837 0 0 1-3.822-3.83zm3.347 7.556a.212.212 0 0 0 0 .042 3.786 3.786 0 1 1 0-.235zm-.037-2.902a4.42 4.42 0 0 0 1.047 0 4.693 4.693 0 0 0-.543.87 4.685 4.685 0 0 0-.504-.87zm4.566 6.611a3.786 3.786 0 0 1-3.667-3.667v-.193a.21.21 0 0 0 0-.042 3.786 3.786 0 1 1 3.667 3.902z" transform="translate(-1.938 -3.531)"/><path class="cls-1" d="M7.688 3.721h.011v2.536h.722V3.058h-.618l-.848.394.123.56.61-.291z"/><path class="cls-1" d="M12.066 9.841c.826 0 1.215-.68 1.215-1.679 0-.865-.336-1.626-1.19-1.626-.84 0-1.22.733-1.22 1.657s.37 1.648 1.195 1.648zm.02-2.74c.274 0 .453.375.453 1.083 0 .706-.161 1.089-.45 1.091-.279-.002-.465-.352-.46-1.082.006-.733.182-1.092.457-1.092zM7.364 15.324a1.464 1.464 0 0 0-.84-.233 1.397 1.397 0 0 0-.206 0l.07-.492h1.24v-.616h-1.76l-.213 1.68a2.758 2.758 0 0 1 .433-.032c.641 0 .901.202.901.532s-.33.487-.64.487a1.839 1.839 0 0 1-.722-.157l-.132.56a2.031 2.031 0 0 0 .89.182 1.217 1.217 0 0 0 1.371-1.12.91.91 0 0 0-.392-.791z" transform="translate(-1.938 -3.531)"/><path class="cls-1" d="M10.965 11.112l.123.563.611-.292h.011v2.533h.722V10.72h-.619l-.848.392z"/><path class="cls-1" d="M16.804 15.575a1.464 1.464 0 0 0-.84-.232 1.401 1.401 0 0 0-.207 0l.07-.492h1.234v-.616h-1.757l-.213 1.68a2.76 2.76 0 0 1 .434-.032c.64 0 .901.202.901.532s-.33.487-.64.487a1.839 1.839 0 0 1-.723-.157l-.131.56a2.032 2.032 0 0 0 .89.182 1.201 1.201 0 0 0 1.371-1.106.91.91 0 0 0-.389-.806z" transform="translate(-1.938 -3.531)"/><path class="cls-1" d="M20.125 3.226l-.694-.697-2.944 2.944-1.159-1.159-.697.697 1.856 1.853 3.638-3.638z"/></svg>