<svg id="Layer_2" data-name="Layer 2" xmlns="http://www.w3.org/2000/svg" viewBox="0 0 12.13704 21.55142"><defs><style>.cls-1{fill:#41494e}</style></defs><title>Medal</title><path class="cls-1" d="M17.456 14.053a6.067 6.067 0 0 0-2.802-2.801V9.484a.799.799 0 0 0-.798-.798h-3.712a.799.799 0 0 0-.798.798v1.768a6.067 6.067 0 1 0 8.11 2.8zm-7.352-4.569a.04.04 0 0 1 .04-.04h3.712a.04.04 0 0 1 .04.04v1.46a6.092 6.092 0 0 0-3.792 0zM12 21.638a4.93 4.93 0 1 1 4.93-4.93 4.93 4.93 0 0 1-4.93 4.93z" transform="translate(-5.931 -1.224)"/><circle class="cls-1" cx="6.069" cy="15.484" r="3.792"/><path class="cls-1" d="M12.119 0H8.616L6.497 3.67l1.751 3.033L12.119 0zM4.25 6.703h3.124L3.504 0H.001l3.87 6.703h.379z"/></svg>