<svg id="Layer_2" xmlns="http://www.w3.org/2000/svg" viewBox="0 0 24 24"><style>.st0{fill-rule:evenodd;clip-rule:evenodd;fill:#666}</style><path class="st0" d="M19.55 9.54c-.38 0-.73.1-1.05.26l-4.76-4.13c.15-.3.24-.63.24-.99 0-1.22-1-2.22-2.22-2.22-1.22 0-2.22 1-2.22 2.22 0 .4.11.78.3 1.1l-4.7 4.09c-.34-.2-.73-.33-1.16-.33-1.22 0-2.22 1-2.22 2.22a2.228 2.228 0 0 0 2.66 2.18l1.19 3.38c-.74.36-1.25 1.12-1.25 1.99 0 1.22 1 2.22 2.22 2.22 1.04 0 1.91-.72 2.15-1.69h6.31c.24.97 1.11 1.69 2.15 1.69 1.22 0 2.22-1 2.22-2.22 0-.89-.53-1.66-1.29-2.01l1.18-3.33c.08.01.17.02.25.02 1.22 0 2.22-1 2.22-2.22s-.99-2.23-2.22-2.23zm-1.44 2.22a1.451 1.451 0 0 1 2.9 0 1.451 1.451 0 0 1-2.9 0zm-7.79-7.08a1.451 1.451 0 0 1 2.9 0 1.451 1.451 0 0 1-2.9 0zm-4.9 7.08a1.451 1.451 0 0 1-2.9 0c0-.8.65-1.45 1.45-1.45s1.45.66 1.45 1.45zm2.6 7.56a1.451 1.451 0 0 1-2.9 0 1.451 1.451 0 0 1 2.9 0zm9.17-1.45a1.451 1.451 0 0 1 0 2.9c-.8 0-1.45-.65-1.45-1.45.01-.8.66-1.45 1.45-1.45zm.3-.75c-.1-.01-.2-.02-.3-.02-1.13 0-2.07.86-2.2 1.96H8.78a2.225 2.225 0 0 0-2.2-1.96c-.11 0-.22.01-.33.03L5.08 13.7c.67-.38 1.12-1.1 1.12-1.93 0-.55-.2-1.05-.53-1.43l4.56-4.05c.4.38.94.62 1.53.62.64 0 1.22-.27 1.62-.71l4.56 4.04a2.215 2.215 0 0 0 .68 3.54l-1.13 3.34z"/></svg>