<svg id="Layer_2" xmlns="http://www.w3.org/2000/svg" viewBox="0 0 24 24"><style>.st0{fill:#666}</style><path class="st0" d="M11.73 16.25a.292.292 0 0 0-.37.14l-.81 1.82c-.01.01-.02.02-.04.02h-.96l1.52-3.43c.06-.14 0-.31-.14-.37s-.31 0-.37.14L8.94 18.2a.42.42 0 0 0 .38.59h1.19c.24 0 .46-.14.55-.36l.81-1.82c.07-.13.01-.29-.14-.36z"/><path class="st0" d="M21.94 9.36a.42.42 0 0 0-.35-.19c-.65 0-1.55-.15-2.17-.81-.21-.23-.38-.49-.57-.76-.17-.26-.35-.53-.57-.77-.43-.49-.98-.85-1.58-1.05.03-.1.02-.21-.02-.31a.492.492 0 0 0-.26-.27l-.96-.43a.406.406 0 0 0-.19-.04c-.2 0-.38.12-.46.29l-2.28 5.13-.53 1.19-2.82-6.33a.502.502 0 0 0-.65-.25l-.96.43c-.12.05-.21.15-.26.27-.04.1-.04.2-.02.31-.13.04-.26.09-.39.15-.44.22-.85.53-1.18.9-.22.24-.41.52-.58.78-.18.27-.35.53-.56.75-.62.67-1.52.81-2.17.82a.42.42 0 0 0-.35.19c-.08.11-.09.26-.04.39l1.93 4.52c.1.22.31.37.55.37 1.09 0 1.98-.35 2.58-.99.24-.26.43-.55.62-.83.17-.26.33-.5.52-.71.3-.34.67-.61 1.08-.79.12-.06.25-.1.38-.14l3.23 7.28c.1.22.31.36.55.36h1.19a.42.42 0 0 0 .38-.59l-1.94-4.37 1.19-2.68c.55.16 1.07.49 1.46.93.19.21.35.46.53.71.19.28.38.57.62.83.6.65 1.49.99 2.58.99.24 0 .46-.14.55-.37l1.93-4.52c.08-.13.06-.28-.01-.39zm-8.06 1.37l-1.34 3.01c-.03.07-.03.16 0 .23l1.9 4.28h-.97c-.02 0-.03-.01-.04-.02l-3.33-7.49a.298.298 0 0 0-.26-.17c-.02 0-.04 0-.06.01-.24.05-.49.13-.72.23-.48.21-.92.54-1.27.93-.22.25-.4.52-.57.78-.18.27-.35.53-.57.76-.62.67-1.52.81-2.17.81-.01 0-.03-.01-.03-.03L2.63 9.73c.99-.05 1.81-.39 2.36-.99.24-.26.43-.55.62-.83.17-.26.33-.5.52-.71.28-.32.63-.58 1.01-.76.2-.09.4-.16.6-.21.09-.03.15-.08.19-.16.04-.07.04-.16.01-.24l-.07-.16.82-.37 2.99 6.73-.23.51c-.03.07-.03.15-.01.22.03.07.08.13.15.16.14.06.31 0 .37-.14L15.3 5.3l.83.37-.07.16c-.04.08-.03.17 0 .24.04.08.11.13.19.15.6.14 1.17.49 1.61.97.19.22.36.47.53.71.19.28.38.57.62.83.56.6 1.38.94 2.36.99l-1.84 4.32c-.01.02-.02.03-.03.03-.65 0-1.55-.15-2.17-.81-.21-.23-.38-.49-.57-.76-.17-.26-.35-.53-.57-.77-.53-.6-1.24-1.01-1.99-1.16a.289.289 0 0 0-.32.16z"/></svg>