<svg id="Layer_2" data-name="Layer 2" xmlns="http://www.w3.org/2000/svg" viewBox="0 0 20 16.81052"><defs><style>.cls-1{fill:#41494f}</style></defs><title>Multilines</title><path class="cls-1" d="M4.03 14.461h.864a2.03 2.03 0 0 0 1.768-1.05V10.59a2.03 2.03 0 0 0-1.768-1.051h-.865A2.031 2.031 0 0 0 2 11.568v.864a2.031 2.031 0 0 0 2.03 2.03zm-1.166-2.893a1.167 1.167 0 0 1 1.165-1.166h.865a1.166 1.166 0 0 1 1.013.607 1.142 1.142 0 0 1 .152.559v.864a1.142 1.142 0 0 1-.152.559 1.166 1.166 0 0 1-1.013.606h-.865a1.167 1.167 0 0 1-1.165-1.165z" transform="translate(-2 -3.595)"/><path class="cls-1" d="M17.339 7.466a2.03 2.03 0 0 0 1.768 1.051h.864A2.031 2.031 0 0 0 22 6.488v-.864a2.031 2.031 0 0 0-2.029-2.03h-.864a2.031 2.031 0 0 0-2.03 2.03v.126l-5.1 5.743-5.054-5.69v-.18a2.031 2.031 0 0 0-2.03-2.028H4.03A2.031 2.031 0 0 0 2 5.624v.864a2.031 2.031 0 0 0 2.03 2.03h.864a2.029 2.029 0 0 0 1.775-1.065 2.107 2.107 0 0 0 .177-.435l4.195 4.723-4.118-.016v-.157a1.995 1.995 0 0 0-.261-.978v2.82a2.012 2.012 0 0 0 .25-.822l4.335.017-4.327 4.87a1.998 1.998 0 0 0-.258-.941 2.03 2.03 0 0 0-1.768-1.051h-.865A2.031 2.031 0 0 0 2 17.512v.864a2.031 2.031 0 0 0 2.03 2.03h.864a2.031 2.031 0 0 0 1.975-1.573l5.107-5.75 5.175 5.826a2.031 2.031 0 0 0 1.956 1.496h.864A2.031 2.031 0 0 0 22 18.376v-.864a2.031 2.031 0 0 0-2.029-2.03h-.864a2.03 2.03 0 0 0-1.768 1.052 1.992 1.992 0 0 0-.262.978v.014l-4.366-4.915 4.38.017a2.05 2.05 0 0 0 2.016 1.833h.864A2.031 2.031 0 0 0 22 12.432v-.864a2.031 2.031 0 0 0-2.029-2.03h-.864a2.047 2.047 0 0 0-2.03 2.03v.196l-4.172-.016 4.236-4.77a2.09 2.09 0 0 0 .198.488zm.602-1.842a1.167 1.167 0 0 1 1.165-1.166h.865a1.166 1.166 0 0 1 1.165 1.166v.864a1.167 1.167 0 0 1-1.165 1.166h-.865a1.167 1.167 0 0 1-1.013-.608 1.14 1.14 0 0 1-.152-.558zm-11.882.864a1.14 1.14 0 0 1-.148.55 1.165 1.165 0 0 1-1.017.616h-.865a1.167 1.167 0 0 1-1.165-1.166v-.864a1.167 1.167 0 0 1 1.165-1.166h.865a1.166 1.166 0 0 1 1.165 1.166zm0 11.888a1.166 1.166 0 0 1-1.165 1.166h-.865a1.167 1.167 0 0 1-1.165-1.166v-.864a1.167 1.167 0 0 1 1.165-1.166h.865a1.166 1.166 0 0 1 1.013.607 1.142 1.142 0 0 1 .152.559zm11.882-.864a1.14 1.14 0 0 1 .152-.558 1.167 1.167 0 0 1 1.013-.608h.865a1.167 1.167 0 0 1 1.165 1.166v.864a1.166 1.166 0 0 1-1.165 1.166h-.865a1.167 1.167 0 0 1-1.165-1.166zm0-5.944a1.138 1.138 0 0 1 .176-.603 1.158 1.158 0 0 1 .99-.563h.864a1.167 1.167 0 0 1 1.165 1.166v.864a1.166 1.166 0 0 1-1.165 1.166h-.865a1.167 1.167 0 0 1-1.013-.608 1.14 1.14 0 0 1-.152-.558z" transform="translate(-2 -3.595)"/></svg>