<svg id="Layer_2" xmlns="http://www.w3.org/2000/svg" viewBox="0 0 24 24"><style>.st0{fill:#666}</style><path class="st0" d="M6.1 21.85c-.84 0-1.64-.25-2.25-.69-.64-.47-.99-1.11-.99-1.8s.35-1.33.99-1.8c.61-.45 1.4-.69 2.24-.69.79 0 1.55.22 2.14.62l.22.15V6.12c0-.19.12-.35.31-.41l11.7-3.65c.04-.01.09-.02.13-.02.09 0 .19.03.27.09.11.08.18.21.18.35v13.21c0 .69-.35 1.33-.99 1.81-.61.45-1.41.69-2.24.69-.84 0-1.64-.25-2.25-.69-.64-.47-.99-1.11-.99-1.8s.35-1.33.99-1.8c.61-.45 1.4-.69 2.24-.69.79 0 1.55.22 2.14.62l.22.15V6.92L9.34 10.29v9.06c0 .69-.35 1.33-.99 1.81-.61.44-1.41.69-2.25.69zm0-4.14c-1.28 0-2.36.75-2.36 1.64s1.08 1.64 2.36 1.64c1.28 0 2.36-.75 2.36-1.64s-1.08-1.64-2.36-1.64zm11.7-3.66c-1.28 0-2.36.75-2.36 1.64s1.08 1.64 2.36 1.64c1.27 0 2.35-.75 2.36-1.63 0-.9-1.08-1.65-2.36-1.65zM9.34 6.43v2.96l10.82-3.37V3.06L9.34 6.43z"/></svg>