<svg id="Layer_2" data-name="Layer 2" xmlns="http://www.w3.org/2000/svg" viewBox="0 0 20.11153 19.125"><defs><style>.cls-1{fill:#41494f}</style></defs><title>New_Games</title><path class="cls-1" d="M22.002 9.693a.87.87 0 0 0-.747-.577l-5.885-.525-2.572-5.64a.878.878 0 0 0-1.597 0l-2.572 5.64-5.885.525a.878.878 0 0 0-.54 1.498l4.342 4.31-1.085 5.57a.878.878 0 0 0 1.254.954l5.284-2.632 5.284 2.653a.878.878 0 0 0 1.255-.952l-1.085-5.598 4.342-4.305a.87.87 0 0 0 .207-.921zm-.776.347l-4.495 4.457a.404.404 0 0 0-.112.364l1.126 5.81a.07.07 0 0 1-.1.076l-5.464-2.744a.405.405 0 0 0-.361 0l-5.466 2.722a.066.066 0 0 1-.073-.007.065.065 0 0 1-.026-.069l1.125-5.783a.404.404 0 0 0-.112-.364L2.773 10.04a.07.07 0 0 1 .043-.119l6.12-.546a.404.404 0 0 0 .331-.235l2.67-5.853a.07.07 0 0 1 .126 0l2.67 5.853a.404.404 0 0 0 .33.235l6.12.546a.07.07 0 0 1 .043.12z" transform="translate(-1.944 -2.438)"/><path class="cls-1" d="M12.159 5.833a.404.404 0 0 0-.53.212l-1.422 3.317a.404.404 0 0 0 .743.318l1.421-3.316a.404.404 0 0 0-.212-.531zM9.729 12.9a9.43 9.43 0 0 0 .049 1.06h-.011a7.386 7.386 0 0 0-.415-.87l-.529-.933h-.672v2.544h.529v-.766c0-.416-.008-.774-.023-1.11l.012-.004a9.39 9.39 0 0 0 .441.898l.543.982h.604v-2.544H9.73z" transform="translate(-1.944 -2.438)"/><path class="cls-1" d="M9.387 11.188h.936v-.468h-.936v-.528h.992V9.72H8.81v2.543h1.622v-.472H9.387v-.603z"/><path class="cls-1" d="M15.055 13.199c-.053.301-.11.6-.148.883H14.9c-.038-.283-.08-.555-.136-.853l-.204-1.072h-.611l-.215 1.042c-.064.313-.125.619-.166.894h-.008c-.041-.256-.094-.585-.15-.887l-.193-1.049h-.615l.604 2.544h.63l.241-1.095c.06-.256.102-.498.147-.785h.008c.03.291.072.529.12.785l.216 1.095h.623l.656-2.544h-.585z" transform="translate(-1.944 -2.438)"/></svg>