<svg id="Layer_2" data-name="Layer 2" xmlns="http://www.w3.org/2000/svg" viewBox="0 0 21.125 18.63875"><defs><style>.cls-1{fill:#41494f}</style></defs><title>News-Blog</title><path class="cls-1" d="M9.609 17.495H4.782a.478.478 0 1 0 0 .956H9.61a.478.478 0 1 0 0-.956zM16.826 17.495H12a.478.478 0 1 0 0 .956h4.826a.478.478 0 1 0 0-.956zM16.826 5.549H4.782a.478.478 0 1 0 0 .956h12.044a.478.478 0 1 0 0-.956zM16.826 7.937H12a.478.478 0 0 0 0 .956h4.826a.478.478 0 0 0 0-.956zM16.826 10.326H12a.478.478 0 0 0 0 .956h4.826a.478.478 0 0 0 0-.956zM16.826 12.715H12a.478.478 0 0 0 0 .956h4.826a.478.478 0 0 0 0-.956zM16.826 15.106H12a.478.478 0 1 0 0 .956h4.826a.478.478 0 1 0 0-.956zM9.609 15.106H4.782a.478.478 0 1 0 0 .956H9.61a.478.478 0 1 0 0-.956zM9.611 7.937H4.782a.477.477 0 0 0-.476.477v4.83a.477.477 0 0 0 .476.476H9.61a.477.477 0 0 0 .479-.474V8.414a.477.477 0 0 0-.477-.477zm-.48 4.827h-3.87v-3.87h3.87z" transform="translate(-1.438 -2.68)"/><path class="cls-1" d="M21.606 5.07h-1.435V3.636a.956.956 0 0 0-.956-.956H2.394a.956.956 0 0 0-.956.956V18.93a2.391 2.391 0 0 0 2.388 2.388h16.345a2.391 2.391 0 0 0 2.391-2.388V6.025a.956.956 0 0 0-.956-.956zm-.002 13.858a1.435 1.435 0 0 1-1.433 1.433H3.826a1.435 1.435 0 0 1-1.432-1.43V3.637h16.821v14.576a1.197 1.197 0 0 0 1.194 1.194.478.478 0 0 0 0-.956.238.238 0 0 1-.238-.238V6.025h1.433z" transform="translate(-1.438 -2.68)"/></svg>