<svg id="Layer_1" data-name="Layer 1" xmlns="http://www.w3.org/2000/svg" viewBox="0 0 314.78 169.97"><defs><style>.cls-1{fill:#8b8c8c}</style></defs><title>Norton</title><path class="cls-1" d="M261.65 128.19H57.57a53.13 53.13 0 0 1 0-106.26h204.08a53.13 53.13 0 0 1 0 106.26M57.57 26.1a49 49 0 0 0 0 97.92h204.08a49 49 0 0 0 0-97.92H57.57z"/><path class="cls-1" d="M237.17 45.33a14.35 14.35 0 1 0 14.35 14.35 14.35 14.35 0 0 0-14.35-14.35m0 21.71a7.36 7.36 0 1 1 7.36-7.36 7.36 7.36 0 0 1-7.36 7.32m-65.8-21.67a14.35 14.35 0 1 0 14.35 14.35 14.35 14.35 0 0 0-14.35-14.35m0 21.71a7.36 7.36 0 1 1 7.36-7.36 7.36 7.36 0 0 1-7.36 7.32"/><path class="cls-1" d="M221.9 67.44a14.29 14.29 0 0 1-2.82.52c-2.45 0-3-.84-3-3.19V51.52H222V46h-5.87v-7.85h-6.6L208.1 46h-5c-3.76 0-6.6 2.31-8.41 5.9l-2.27-5.9h-4.73v27.51h8.09v-12c0-6 3.57-9.89 7.79-10H208V65.2c0 6.44 3.3 8.84 8.68 8.84a19.38 19.38 0 0 0 6.18-1zm39.41-12.75v18.82h-7.86V45.98h4.77l1.6 4.2"/><path class="cls-1" d="M259.79 50.21c2.39-2.77 5.66-4.87 9.49-4.87 6.55 0 9.25 5.22 9.25 10.07v18.1h-8.1V55.63c0-2.36-2-3.64-4.09-3.64s-3.73 1.3-5 2.69M125.47 36.01h9.01l12.38 23.58V36.01h7.47v37.5h-8.17l-13.22-25.92v25.92h-7.47v-37.5zm176.95-14.08v1.34h-1.97v6.61h-1.53v-6.61h-1.93v-1.34h5.43zm1.1 7.95v-7.95h2.07l1.38 5.21 1.4-5.21h2.1v7.95h-1.27v-6.22h-.03l-1.61 6.22h-1.12l-1.62-6.22h-.04v6.22h-1.26zm-180.3 76.86l1.87-2.91a11.14 11.14 0 0 0 6.58 2.17c2.7 0 4.37-1.23 4.37-3.35 0-2.45-2.11-3.09-5.57-4.3-3.11-1.09-6.16-2.66-6.16-7.06 0-4.13 3.25-6.37 7.63-6.37a13 13 0 0 1 6.78 1.59l-1.5 3.1a11.16 11.16 0 0 0-5.22-1.28c-2.44 0-3.9.92-3.9 2.85 0 2.27 1.69 2.85 4.88 3.9s7 2.62 7 7.49c0 4.13-3 6.85-8.24 6.85a13.81 13.81 0 0 1-8.51-2.68m23.84-21.46h14.17v3.3H151.1v6.5h8.01v3.23h-8.01v7.51h10.76v3.29h-14.79V85.28zm20.56 11.94c0-7 3.33-12.3 10-12.3a8.73 8.73 0 0 1 7 2.87l-2.35 2.72a5.94 5.94 0 0 0-4.57-2.07c-3.9 0-5.7 3.19-5.7 9.09 0 5.53 1.9 8.34 5.74 8.34a6.66 6.66 0 0 0 4.94-2.51L185 106a9 9 0 0 1-7.35 3.43c-6.85 0-10-5.22-10-12.21m23.94 2.78V85.28h4.06v15.36c0 3.28.81 5.42 4.27 5.42s4.27-2.14 4.27-5.42V85.28h4.1V100c0 5.9-2.27 9.43-8.41 9.43s-8.3-3.53-8.3-9.43m41.58 9.12h-4.41L224.18 99h-3.76v10.11h-4V85.28h7.77c4.81 0 8.57 1.73 8.57 6.95a6.21 6.21 0 0 1-4.51 6.2zM224 95.9c3 0 4.57-1 4.57-3.73s-1.58-3.59-4.34-3.59h-3.83v7.32h3.6zm16.06-10.62h14.18v3.3h-10.15v6.5h8v3.23h-8v7.51h10.75v3.29h-14.78V85.28zm21.59 0h5.95c7.77 0 11.5 4.2 11.5 11.83s-3.8 12-11.29 12h-6.15V85.28zm5.71 20.54c5.56 0 7.46-2.57 7.46-8.71 0-5.39-1.49-8.54-7-8.54h-2.17v17.25h1.66zM57.33 132.39a57.33 57.33 0 1 1 57.32-57.33 57.4 57.4 0 0 1-57.32 57.33m0-96.52A39.19 39.19 0 1 0 85 47.35a39 39 0 0 0-27.67-11.48m62.44-26.96h4.47v4.47h-4.47zm0-8.91h4.47v4.48h-4.47zM107.2 13.35h4.17v4.36h-4.17zm-8.28 8.57h4.21v4.17h-4.21zm12.45-4.21h4.68v4.2h-4.68zm-16.64.21h4.19v4h-4.19zm12.47 4h4.17v4.17h-4.17zm8.15-17.44h4.42v4.43h-4.42z"/><path class="cls-1" d="M107.2 8.91h8.15v4.44h-8.15zm-4.07 4.44h4.06v8.57h-4.06zm0 12.74v4.21h-4.21v-4.21h-7v3H88.2v3.74h4.18V37H88.2v-4.14h-4.45v6.54h-4.2v4.17h-2.78v4.19H73.7C70.26 52.87 61.63 68.83 59 75.33c-9.39-13.08-16.69-18.27-22.44-20.15-3.1-.93-6.84 2.44-1.69 7.76C46.71 76 50.43 86.73 54 95.32c1.9 4.53 10.43 5.24 12.14.62a139.59 139.59 0 0 1 15.21-29.71v-4.66h3.34v-4.21h3.51v-4.87h4.19v-4.7h-4.24v-4.27h4.24v4.27h4.15v-4.23h3.32v-5.1h3.74V35h3.6v-8.91h-4.06zM22.26 152h3.14v2.28a5.47 5.47 0 0 1 4.6-2.52c3.24 0 6.38 2.57 6.38 7.11v.05c0 4.54-3.11 7.11-6.38 7.11a5.58 5.58 0 0 1-4.64-2.41v6.28h-3.1V152zm11 6.87v-.05c0-2.64-1.79-4.38-3.92-4.38a4.13 4.13 0 0 0-4 4.38v.05a4.12 4.12 0 0 0 4 4.39c2.15 0 3.92-1.69 3.92-4.39M39 159v-.05a7.3 7.3 0 0 1 14.6-.05v.05a7.16 7.16 0 0 1-7.35 7.05 7.08 7.08 0 0 1-7.25-7m11.47 0v-.05a4.23 4.23 0 0 0-4.2-4.41 4.11 4.11 0 0 0-4.12 4.36v.05a4.25 4.25 0 0 0 4.18 4.41 4.13 4.13 0 0 0 4.12-4.36m4.65-6.96h3.22l2.75 9.39 3.03-9.44h2.67l3.06 9.44 2.81-9.39h3.13l-4.48 13.8h-2.81l-3.05-9.36-3.09 9.36h-2.8l-4.44-13.8zm22.29 6.9v-.05c0-3.92 2.78-7.13 6.69-7.13 4.36 0 6.56 3.42 6.56 7.37 0 .28 0 .57-.05.88H80.53a3.82 3.82 0 0 0 3.94 3.47 5 5 0 0 0 3.71-1.63l1.82 1.63a6.92 6.92 0 0 1-5.6 2.57 6.84 6.84 0 0 1-7-7.11m10.14-1c-.21-2-1.4-3.6-3.48-3.6-1.92 0-3.27 1.48-3.55 3.6h7zm6.37-5.94H97v3.09a4.86 4.86 0 0 1 4.85-3.35v3.32h-.18c-2.75 0-4.67 1.79-4.67 5.42v5.21h-3.09V152zm9.81 6.94v-.05c0-3.92 2.78-7.13 6.69-7.13 4.36 0 6.56 3.42 6.56 7.37v.88h-10.11a3.82 3.82 0 0 0 3.94 3.47 5 5 0 0 0 3.71-1.63l1.84 1.63a6.93 6.93 0 0 1-5.6 2.57 6.84 6.84 0 0 1-7-7.11m10.14-1c-.21-2-1.4-3.6-3.48-3.6-1.92 0-3.27 1.48-3.55 3.6h7zm5.63.97v-.05c0-4.54 3.09-7.11 6.35-7.11a5.67 5.67 0 0 1 4.67 2.41v-7.36h3.14v18.94h-3.14v-2.28a5.48 5.48 0 0 1-4.67 2.57c-3.22 0-6.35-2.57-6.35-7.11m11.08 0v-.05a4.11 4.11 0 0 0-4-4.38c-2.15 0-3.94 1.66-3.94 4.38v.05a4.08 4.08 0 0 0 3.94 4.39 4.13 4.13 0 0 0 4-4.39m17.91 4.69v2.13h-3.14V146.8h3.14v7.53a5.47 5.47 0 0 1 4.64-2.57c3.24 0 6.38 2.57 6.38 7.11v.05c0 4.54-3.11 7.11-6.38 7.11a5.58 5.58 0 0 1-4.64-2.41m7.83-4.69v-.05c0-2.64-1.79-4.38-3.92-4.38a4.13 4.13 0 0 0-4 4.38v.05a4.12 4.12 0 0 0 4 4.39c2.15 0 3.92-1.69 3.92-4.39m5.33 10.2l1.06-2.33a3.85 3.85 0 0 0 1.84.52c.88 0 1.43-.39 1.95-1.58l-5.7-13.7h3.34l3.89 10.17 3.56-10.21h3.27l-5.45 14.09c-1.09 2.8-2.31 3.84-4.51 3.84a6.38 6.38 0 0 1-3.24-.83m22.47-21.52h3.53l5.47 13.95 5.45-13.95h3.45l-7.55 18.29h-2.8l-7.55-18.29zm18.54 11.36v-.05c0-3.92 2.78-7.13 6.69-7.13 4.36 0 6.56 3.42 6.56 7.37 0 .28 0 .57-.05.88h-10.06a3.82 3.82 0 0 0 3.94 3.47 5 5 0 0 0 3.71-1.63l1.84 1.63a6.93 6.93 0 0 1-5.6 2.57 6.83 6.83 0 0 1-7-7.11m10.14-1c-.21-2-1.4-3.6-3.47-3.6-1.92 0-3.27 1.48-3.55 3.6h7zm6.36-5.94h3.14v3.09a4.86 4.86 0 0 1 4.85-3.35v3.32H227c-2.75 0-4.67 1.79-4.67 5.42v5.21h-3.14V152zm10.55-5h3.37v3h-3.37v-3zm.13 5h3.1v13.7h-3.1V152zm6.4 11.09l1.92-2.28a8.35 8.35 0 0 0 5.73 2.36c2 0 3.22-.91 3.22-2.28v-.05c0-1.29-.73-2-4.1-2.77-3.87-.93-6-2.07-6-5.42v-.05c0-3.11 2.59-5.26 6.2-5.26a10.06 10.06 0 0 1 6.59 2.28L248.1 152a8.26 8.26 0 0 0-4.93-1.87c-1.87 0-3 1-3 2.15v.05c0 1.4.83 2 4.31 2.85 3.84.93 5.83 2.31 5.83 5.32 0 3.4-2.67 5.42-6.49 5.42a11.19 11.19 0 0 1-7.57-2.9M253.82 147h3.37v3h-3.37v-3zm.13 5.08h3.14v13.7h-3.14V152zm7.05 16.23l1.17-2.36a8.93 8.93 0 0 0 4.88 1.45c2.8 0 4.33-1.45 4.33-4.2v-1.06a5.74 5.74 0 0 1-4.82 2.51 6.15 6.15 0 0 1-6.23-6.41v-.05a6.18 6.18 0 0 1 6.23-6.43 5.91 5.91 0 0 1 4.8 2.33v-2h3.14v10.89a7 7 0 0 1-1.74 5.16c-1.25 1.24-3.16 1.84-5.63 1.84a11.8 11.8 0 0 1-6.12-1.63m10.4-10.07v-.05a3.83 3.83 0 0 0-4-3.79 3.7 3.7 0 0 0-3.89 3.76v.05a3.74 3.74 0 0 0 3.89 3.79 3.84 3.84 0 0 0 4-3.76m7.15-6.28h3.14v2.13a4.93 4.93 0 0 1 4.28-2.41c3.09 0 4.88 2.08 4.88 5.26v8.72h-3.14V158c0-2.13-1.06-3.35-2.93-3.35s-3.09 1.27-3.09 3.4v7.73h-3.14V152z"/></svg>