<svg id="Layer_2" data-name="Layer 2" xmlns="http://www.w3.org/2000/svg" viewBox="0 0 19.88 19.90004"><defs><style>.cls-1{fill:#41494e}</style></defs><title>Open_Bets</title><path class="cls-1" d="M21.61 11.67h-3.89l-5.65-9.46a.32.32 0 0 0-.28-.16.331.331 0 0 0-.28.16l-6.17 9.46H2.39a.333.333 0 0 0-.33.33v9.62a.333.333 0 0 0 .33.33h19.22a.333.333 0 0 0 .33-.33V12a.333.333 0 0 0-.33-.33zm-9.82-8.66l5.15 8.65H6.13zm9.5 18.27H2.73v-8.95h18.56z" transform="translate(-2.06 -2.05)"/><path class="cls-1" d="M5.95 19.16a2.186 2.186 0 0 0 1.59-.63 3.037 3.037 0 0 0 .81-2.13 1.673 1.673 0 0 0-1.76-1.84 2.234 2.234 0 0 0-1.56.62 3.078 3.078 0 0 0-.83 2.14 1.697 1.697 0 0 0 1.75 1.84zm-.32-3.57a1.21 1.21 0 0 1 .88-.38c.82 0 1.02.63 1.02 1.22a2.667 2.667 0 0 1-.6 1.7 1.24 1.24 0 0 1-.87.38c-.75 0-1.05-.56-1.05-1.23a2.603 2.603 0 0 1 .62-1.69zM9.67 17.4c.12.01.26.03.42.03a2.292 2.292 0 0 0 1.39-.42 1.515 1.515 0 0 0 .57-1.21 1.052 1.052 0 0 0-.41-.88 1.887 1.887 0 0 0-1.14-.32 4.666 4.666 0 0 0-1.08.11l-.83 4.37h.76zm.4-2.13a1.429 1.429 0 0 1 .42-.04c.43 0 .77.17.77.64a.95.95 0 0 1-.004.057.984.984 0 0 1-1.076.883 1.642 1.642 0 0 1-.4-.04z" transform="translate(-2.06 -2.05)"/><path class="cls-1" d="M12.77 16.38h-1.8l.25-1.33h1.6l.13-.65h-1.61l.22-1.17h1.7l.13-.65h-2.47l-.85 4.45h2.57l.13-.65z"/><path class="cls-1" d="M16.12 19.08l.36-1.9c.12-.66.21-1.21.26-1.63l.03-.01a10.462 10.462 0 0 0 .42 1.43l.8 2.11h.79l.85-4.45h-.73l-.37 1.95a12.148 12.148 0 0 0-.2 1.51h-.01a11.816 11.816 0 0 0-.4-1.39l-.78-2.07h-.88l-.85 4.45z" transform="translate(-2.06 -2.05)"/></svg>