<svg id="Layer_2" data-name="Layer 2" xmlns="http://www.w3.org/2000/svg" viewBox="0 0 20.10752 20.16667"><defs><style>.cls-1{fill:#41494f}</style></defs><title>Other_Games</title><path class="cls-1" d="M22.036 11.843a.455.455 0 0 0-.31-.31l-.993-.288a3.424 3.424 0 0 1-2.045-4.937l.498-.905a.455.455 0 0 0-.618-.619l-.905.498a3.424 3.424 0 0 1-4.938-2.045l-.288-.992a.455.455 0 0 0-.874 0l-.288.992a3.424 3.424 0 0 1-4.938 2.045l-.905-.498a.455.455 0 0 0-.618.618l.498.906a3.424 3.424 0 0 1-2.045 4.937l-.993.288a.455.455 0 0 0 0 .874l.993.289a3.424 3.424 0 0 1 2.045 4.937l-.498.906a.455.455 0 0 0 .618.618l.905-.498a3.409 3.409 0 0 1 2.461-.327.455.455 0 1 0 .217-.884 4.31 4.31 0 0 0-2.708.215A4.336 4.336 0 0 0 3.95 11.97a4.335 4.335 0 0 0 2.358-5.692A4.335 4.335 0 0 0 12 3.92a4.336 4.336 0 0 0 5.693 2.358 4.336 4.336 0 0 0 2.318 5.676l.04.016a4.335 4.335 0 0 0-2.375 5.652l.017.041a4.304 4.304 0 0 0-2.775-.198.455.455 0 0 0 .23.88h.001a3.404 3.404 0 0 1 2.514.314l.905.498a.455.455 0 0 0 .618-.618l-.498-.906a3.424 3.424 0 0 1 2.045-4.937l.993-.289a.455.455 0 0 0 .31-.564z" transform="translate(-1.946 -1.917)"/><path class="cls-1" d="M11.97 18.547a1.768 1.768 0 1 0 1.768 1.769 1.77 1.77 0 0 0-1.768-1.769zm.858 1.768zM16.297 11.516a4.152 4.152 0 0 0-8.288.179l-.001.149a1.046 1.046 0 0 0 .214.817.927.927 0 0 0 .685.232h1.313c.989 0 1.01-.773 1.011-1.17a.93.93 0 1 1 1.579.777c-.14.14-.338.314-.548.498-.869.765-2.06 1.812-2.06 2.941v1.313a.894.894 0 0 0 .893.893h1.313a.894.894 0 0 0 .892-.893v-.816a4.952 4.952 0 0 1 1.17-1.142c.23-.185.447-.36.607-.512a4.02 4.02 0 0 0 1.22-3.266zm-1.85 2.608a9.491 9.491 0 0 1-.547.46c-.807.648-1.386 1.15-1.5 1.701l-.01.045.018.905-1.296.017V15.94c0-.717 1.054-1.644 1.751-2.258.22-.194.429-.377.59-.538a1.84 1.84 0 0 0-1.303-3.14 1.81 1.81 0 0 0-.962.272 1.848 1.848 0 0 0-.864 1.373l-.003.048a2.125 2.125 0 0 1-.013.283.838.838 0 0 1-.088.004H8.916l.001-.123.002-.146a3.237 3.237 0 0 1 5.014-2.577 3.293 3.293 0 0 1 1.457 2.456 3.114 3.114 0 0 1-.942 2.531z" transform="translate(-1.946 -1.917)"/></svg>