<svg id="Layer_2" data-name="Layer 2" xmlns="http://www.w3.org/2000/svg" viewBox="0 0 20.625 17.9637"><defs><style>.cls-1{fill:#41494e}</style></defs><title>PassHyde</title><path class="cls-1" d="M22.25 11.236a12.195 12.195 0 0 0-1.735-3.04L19.23 9.48a10.419 10.419 0 0 1 1.212 2.085A9.315 9.315 0 0 1 12 17.404q-.335 0-.666-.026L9.76 18.95a10.382 10.382 0 0 0 2.24.25 11.138 11.138 0 0 0 10.25-7.304.893.893 0 0 0 0-.66zM20.64 3.018l-2.739 2.747A10.522 10.522 0 0 0 12 3.931a11.136 11.136 0 0 0-10.248 7.305.892.892 0 0 0 0 .66 11.737 11.737 0 0 0 4.493 5.561l-2.243 2.25 1.27 1.275 16.64-16.69zM3.559 11.566a9.314 9.314 0 0 1 8.441-5.838 8.72 8.72 0 0 1 4.61 1.334L14.9 8.777A3.993 3.993 0 0 0 12 7.524a4.046 4.046 0 0 0-4.042 4.042 3.99 3.99 0 0 0 1.263 2.906l-1.68 1.685a9.865 9.865 0 0 1-3.983-4.591z" transform="translate(-1.688 -3.018)"/></svg>