<svg id="Layer_2" data-name="Layer 2" xmlns="http://www.w3.org/2000/svg" viewBox="0 0 20.60883 15.45662"><defs><style>.cls-1{fill:#41494e}</style></defs><title>PassShow</title><path class="cls-1" d="M11.991 19.226a11.136 11.136 0 0 1-10.24-7.394.915.915 0 0 1 0-.668A11.138 11.138 0 0 1 11.99 3.77a11.14 11.14 0 0 1 10.242 7.394.916.916 0 0 1 0 .668 11.137 11.137 0 0 1-10.242 7.394zm-8.435-7.728a9.309 9.309 0 0 0 8.435 5.91 9.31 9.31 0 0 0 8.437-5.91 9.313 9.313 0 0 0-8.437-5.91 9.312 9.312 0 0 0-8.435 5.91z" transform="translate(-1.688 -3.77)"/><path class="cls-1" d="M11.992 15.484a4.092 4.092 0 1 1 4.032-4.152v.06a4.066 4.066 0 0 1-4.032 4.092z" transform="translate(-1.688 -3.77)"/></svg>