<svg id="Layer_2" data-name="Layer 2" xmlns="http://www.w3.org/2000/svg" viewBox="0 0 21.44531 21.44531"><defs><style>.cls-1{fill:#41494e}</style></defs><title>Play</title><path class="cls-1" d="M12 1.277A10.723 10.723 0 1 0 22.723 12 10.723 10.723 0 0 0 12 1.277zm6.554 17.277A9.269 9.269 0 1 1 21.269 12a9.269 9.269 0 0 1-2.715 6.554z" transform="translate(-1.277 -1.277)"/><path class="cls-1" d="M15.73 10.375l-4.545-3.03a1.953 1.953 0 0 0-3.037 1.624v6.061a1.952 1.952 0 0 0 3.037 1.626l4.545-3.031a1.952 1.952 0 0 0 0-3.25zm-.705 1.877a.453.453 0 0 1-.126.125l-4.546 3.031a.454.454 0 0 1-.705-.378V8.97a.443.443 0 0 1 .24-.4.47.47 0 0 1 .217-.056.44.44 0 0 1 .248.078l4.546 3.031a.453.453 0 0 1 .126.629z" transform="translate(-1.277 -1.277)"/></svg>