<svg id="Layer_2" xmlns="http://www.w3.org/2000/svg" viewBox="0 0 24 24"><style>.st0{fill:#666}</style><path class="st0" d="M9.42 20.52c-.36 0-.71-.15-.98-.41-.25-.25-.4-.57-.41-.91v-.02c-.36-.02-.69-.16-.93-.41-.25-.25-.4-.59-.41-.93-.35-.02-.69-.17-.94-.42-.25-.25-.4-.59-.41-.94-.36-.02-.69-.16-.94-.41-.25-.25-.4-.58-.41-.93-.01-.35.11-.67.35-.91l1.33-1.33-3.58-3.57a.57.57 0 0 1 0-.77l4.99-4.99a.552.552 0 0 1 .78 0l1.69 1.69h4.49l2-2c.1-.1.24-.15.39-.15s.29.06.39.15l4.99 4.99a.552.552 0 0 1 0 .78l-3.46 3.46.88.88c.24.24.36.56.35.91-.01.35-.16.68-.41.93-.24.25-.57.39-.91.41-.04.36-.2.69-.44.94s-.57.39-.91.41c-.04.36-.2.69-.44.94-.25.25-.57.39-.91.41-.04.36-.2.69-.44.94-.26.26-.62.41-.98.41-.33 0-.64-.12-.86-.35l-1.19-1.19c-.05.22-.16.42-.32.58l-1.49 1.49c-.22.2-.53.32-.86.32zm1.31-3.3a.43.43 0 0 0-.31.12l-1.49 1.49c-.08.08-.13.2-.12.33a.616.616 0 0 0 .6.58c.12 0 .23-.04.31-.12l1.49-1.49c.08-.08.13-.2.12-.33a.616.616 0 0 0-.6-.58zm2.1-.89c-.15 0-.31.07-.42.18-.22.22-.25.55-.06.73l1.49 1.49c.07.07.18.11.31.11.16 0 .31-.07.42-.18.11-.11.18-.25.18-.4a.423.423 0 0 0-.12-.33l-1.49-1.49a.528.528 0 0 0-.31-.11zm-3.44-.46a.43.43 0 0 0-.31.12l-1.49 1.49c-.18.18-.16.51.06.73.11.11.27.18.42.18.12 0 .23-.04.31-.12l1.49-1.49c.09-.09.13-.21.12-.35a.568.568 0 0 0-.18-.38.637.637 0 0 0-.42-.18zm4.78-.88c-.15 0-.31.07-.42.18-.22.22-.25.55-.06.73l1.49 1.49c.07.07.18.11.31.11.15 0 .31-.07.42-.18.22-.22.25-.55.06-.73l-1.49-1.49a.45.45 0 0 0-.31-.11zm-6.13-.46a.43.43 0 0 0-.31.12l-1.49 1.49c-.18.18-.16.51.06.73.11.11.27.18.42.18.12 0 .23-.04.31-.11l1.49-1.49c.08-.08.13-.2.12-.33a.639.639 0 0 0-.18-.4.55.55 0 0 0-.42-.19zm2.73 1.91c.25.01.49.09.7.22.06-.26.19-.5.38-.69.25-.25.59-.4.93-.41v-.02c.02-.34.16-.67.41-.92.24-.25.57-.39.91-.41.04-.36.2-.69.44-.94.25-.25.59-.4.93-.41v-.02c.02-.34.16-.67.41-.92.05-.05.1-.1.16-.14L12.87 8.6h-1.56l-.83.83v2.2c0 .77-.6 1.39-1.35 1.39-.74 0-1.35-.62-1.35-1.39v-3.2l-2.74 2.74 1.28 1.28c.12-.04.24-.05.37-.05a1.397 1.397 0 0 1 1.39 1.35c.36.02.69.16.93.41.25.25.4.57.41.91v.02c.36.02.69.16.93.41.27.25.41.59.42.94zm4.75-2.8c-.15 0-.31.07-.42.18a.59.59 0 0 0-.18.38c-.01.14.03.26.12.35l1.49 1.49c.07.07.18.12.31.12.15 0 .31-.07.42-.18.22-.22.25-.55.06-.73l-1.49-1.49a.477.477 0 0 0-.31-.12zm-8.83-.46a.43.43 0 0 0-.31.12L4.9 14.79c-.08.08-.13.2-.12.33a.617.617 0 0 0 .6.58c.12 0 .23-.04.31-.11l1.49-1.49c.08-.08.13-.2.12-.33a.616.616 0 0 0-.18-.4.608.608 0 0 0-.43-.19zm10.18-.88c-.15 0-.3.07-.42.18-.22.22-.25.55-.06.73l1.49 1.49c.07.07.18.11.31.11.15 0 .31-.07.42-.18.11-.11.18-.25.18-.4a.423.423 0 0 0-.12-.33l-1.49-1.49a.469.469 0 0 0-.31-.11zM9.49 6.03a.947.947 0 0 0-.89.67c-.02.08-.03.17-.03.25v4.68c0 .33.25.6.56.6s.56-.27.56-.6V9.27c0-.1.04-.2.12-.28l1.06-1.06c.07-.07.17-.12.28-.12h1.88c.1 0 .2.04.28.12l3.58 3.58c.32.01.62.13.84.35l.05.05 1.07-1.07-4.81-4.81H9.49zm-5 4.58l3.3-3.3v-.36c0-.61.34-1.18.87-1.48L7.47 4.28 2.81 8.94l1.68 1.67zm14.91-.32l1.67-1.67-4.65-4.65-1.67 1.67 4.65 4.65z"/></svg>