<svg id="Layer_2" xmlns="http://www.w3.org/2000/svg" viewBox="0 0 24 24"><style>.st0{fill:#666}</style><path class="st0" d="M11.95 22c-2.67 0-5.19-1.04-7.08-2.93a9.938 9.938 0 0 1-2.93-7.08c0-2.67 1.04-5.19 2.93-7.08a9.938 9.938 0 0 1 7.08-2.93c2.67 0 5.19 1.04 7.08 2.93a9.938 9.938 0 0 1 2.93 7.08c0 2.67-1.04 5.19-2.93 7.08A9.972 9.972 0 0 1 11.95 22zm0-19.21c-2.46 0-4.77.96-6.51 2.7A9.145 9.145 0 0 0 2.74 12c0 2.46.96 4.77 2.7 6.51a9.145 9.145 0 0 0 6.51 2.7c2.46 0 4.77-.96 6.51-2.7a9.145 9.145 0 0 0 2.7-6.51c0-2.46-.96-4.77-2.7-6.51a9.104 9.104 0 0 0-6.51-2.7z"/><path class="st0" d="M11.95 19.72c-.22 0-.4-.18-.4-.4 0-.22.18-.4.4-.4 3.82 0 6.92-3.11 6.92-6.92 0-.22.18-.4.4-.4.22 0 .4.18.4.4 0 4.25-3.46 7.72-7.72 7.72z"/><path class="st0" d="M11.95 17.56c-3.07 0-5.57-2.5-5.57-5.57 0-3.07 2.5-5.57 5.57-5.57 3.07 0 5.57 2.5 5.57 5.57-.01 3.07-2.5 5.57-5.57 5.57zm0-10.33c-2.63 0-4.76 2.14-4.76 4.76 0 2.63 2.14 4.76 4.76 4.76s4.76-2.14 4.76-4.76c0-2.63-2.14-4.76-4.76-4.76z"/><path class="st0" d="M11.95 12.03c-.03 0-.06 0-.08-.01-.04-.01-.4-.09-.76-.31-.54-.33-.83-.8-.83-1.36 0-.92.75-1.67 1.67-1.67.22 0 .4.18.4.4 0 .22-.18.4-.4.4a.87.87 0 0 0-.87.87c0 .1 0 .4.44.67.25.15.51.21.51.21a.4.4 0 0 1 .31.48c-.04.19-.21.32-.39.32z"/><path class="st0" d="M11.95 15.31c-.22 0-.4-.18-.4-.4 0-.22.18-.4.4-.4.83 0 1.14-.67 1.14-1.09 0-1.06-1.23-1.4-1.24-1.4a.416.416 0 0 1-.29-.49c.06-.21.28-.34.49-.29.64.17 1.84.84 1.84 2.17 0 .93-.73 1.9-1.94 1.9z"/><g><path class="st0" d="M11.95 12.03c-.19 0-.35-.13-.39-.32a.4.4 0 0 1 .31-.48c.02 0 .96-.22.96-.88a.87.87 0 0 0-.87-.87c-.22 0-.4-.18-.4-.4 0-.22.18-.4.4-.4.92 0 1.67.75 1.67 1.67 0 .56-.29 1.03-.83 1.36-.37.22-.72.3-.76.31-.04 0-.07.01-.09.01z"/><path class="st0" d="M11.95 15.31c-.57 0-1.08-.22-1.44-.61-.32-.35-.5-.81-.5-1.28 0-1.34 1.2-2.01 1.84-2.17a.4.4 0 0 1 .49.29.4.4 0 0 1-.29.49c-.05.01-1.24.35-1.24 1.4 0 .42.31 1.09 1.14 1.09.22 0 .4.18.4.4a.4.4 0 0 1-.4.39z"/></g></svg>