<svg id="Layer_2" data-name="Layer 2" xmlns="http://www.w3.org/2000/svg" viewBox="0 0 21.00833 21"><defs><style>.cls-1{fill:#41494e}</style></defs><title>Price</title><path class="cls-1" d="M22.117 8.444l-6.56-6.559a1.328 1.328 0 0 0-1.248-.347 1.215 1.215 0 0 0-.619.347 1.324 1.324 0 0 0-.326.543 6.054 6.054 0 0 1-1.574 2.563 18.112 18.112 0 0 1-3.746 2.595 19.685 19.685 0 0 0-4.268 2.997A8.631 8.631 0 0 0 1.55 14.23a1.289 1.289 0 0 0-.054.348v.033a1.358 1.358 0 0 0 .38.944l6.559 6.559a1.328 1.328 0 0 0 1.248.347 1.26 1.26 0 0 0 .62-.347 1.216 1.216 0 0 0 .325-.543 5.95 5.95 0 0 1 1.575-2.563 17.83 17.83 0 0 1 3.746-2.595 20.237 20.237 0 0 0 4.278-3.019 8.772 8.772 0 0 0 2.226-3.637 1.35 1.35 0 0 0-.336-1.314zM9.368 21.17c-2.182-2.172-4.397-4.398-6.558-6.558 1.867-6.038 9.946-5.777 11.814-11.815 2.172 2.172 4.398 4.387 6.559 6.559-1.857 6.048-9.947 5.788-11.815 11.814z" transform="translate(-1.496 -1.5)"/><path class="cls-1" d="M11.616 16.067a.362.362 0 0 0-.456-.022 11.542 11.542 0 0 0-1.184 1.02 9.014 9.014 0 0 0-.955 1.119l-.456.619a.33.33 0 0 0 .51.413c.022-.022.033-.044.055-.066l.423-.575a8.842 8.842 0 0 1 .901-1.042 10.612 10.612 0 0 1 1.13-.967c.01-.01.021-.01.032-.032a.328.328 0 0 0 .004-.464zM14.33 11.267a1.737 1.737 0 0 0-.64-.358 2.228 2.228 0 0 0-.651-.076 2.029 2.029 0 0 0-.652.152 5.877 5.877 0 0 0-.662.293 28.605 28.605 0 0 0-1.064-1.173.733.733 0 0 1 .456-.217 1.44 1.44 0 0 1 .434.043c.141.033.26.066.38.087a.368.368 0 0 0 .315-.076.401.401 0 0 0 .152-.315.506.506 0 0 0-.152-.38.797.797 0 0 0-.5-.293 1.642 1.642 0 0 0-.608.011 2.15 2.15 0 0 0-.597.239 1.904 1.904 0 0 0-.445.337l-.13-.13a.246.246 0 0 0-.174-.066.227.227 0 0 0-.174.087.208.208 0 0 0-.065.185.243.243 0 0 0 .087.162c.043.033.087.076.13.109a2.81 2.81 0 0 0-.413.662 2.245 2.245 0 0 0-.195.695 1.556 1.556 0 0 0 .065.641 1.247 1.247 0 0 0 .391.521 1.51 1.51 0 0 0 1.097.337 3.434 3.434 0 0 0 1.368-.413c.38.456.782.901 1.162 1.303a1.147 1.147 0 0 1-.434.25.582.582 0 0 1-.337-.01 2.402 2.402 0 0 1-.293-.131c-.087-.054-.174-.109-.26-.152a.588.588 0 0 0-.272-.065.492.492 0 0 0-.294.13.416.416 0 0 0-.162.326.53.53 0 0 0 .173.369 1.318 1.318 0 0 0 .435.315 1.62 1.62 0 0 0 1.281.043 1.92 1.92 0 0 0 .717-.488c.12.108.228.217.347.315a.24.24 0 0 0 .348-.044.221.221 0 0 0 .054-.195.243.243 0 0 0-.087-.163c-.12-.098-.228-.196-.347-.293a3.772 3.772 0 0 0 .477-.75 2.19 2.19 0 0 0 .207-.716 1.167 1.167 0 0 0-.087-.62 1.202 1.202 0 0 0-.38-.488zm-3.67.445a.617.617 0 0 1-.488-.195.515.515 0 0 1-.13-.207.568.568 0 0 1-.022-.271.866.866 0 0 1 .087-.304 1.095 1.095 0 0 1 .217-.315c.337.337.662.684.999 1.064a1.46 1.46 0 0 1-.662.228zm3.095 1.314a1.417 1.417 0 0 1-.206.293c-.37-.369-.738-.782-1.108-1.205l.294-.13a2.06 2.06 0 0 1 .315-.098 1.094 1.094 0 0 1 .325.01.67.67 0 0 1 .304.175.52.52 0 0 1 .174.293.719.719 0 0 1 .022.336.99.99 0 0 1-.12.326zM14.964 4.815a.3.3 0 0 0-.025.024.236.236 0 0 0-.054.087l-.435.597a9.855 9.855 0 0 1-.89 1.042 10.355 10.355 0 0 1-1.108.945.328.328 0 0 0-.076.054.34.34 0 0 0 0 .478.325.325 0 0 0 .456.01 13.08 13.08 0 0 0 1.184-1.02 11.043 11.043 0 0 0 .956-1.107l.445-.62a.336.336 0 0 0-.022-.455.306.306 0 0 0-.43-.035z" transform="translate(-1.496 -1.5)"/></svg>