<svg id="Layer_2" data-name="Layer 2" xmlns="http://www.w3.org/2000/svg" viewBox="0 0 17.25 20.48282"><defs><style>.cls-1{fill:#41494f}</style></defs><title>Results</title><path class="cls-1" d="M20.622 6.997v-.094a.127.127 0 0 0-.016-.033v-.022l-3.852-4.976-.025-.028a.116.116 0 0 0-.033-.03l-.058-.039a.171.171 0 0 0-.03-.016H3.794a.423.423 0 0 0-.42.37V21.82a.423.423 0 0 0 .42.42h16.41a.423.423 0 0 0 .42-.42V6.997zm-1.27-.345h-2.504l-.008-3.285zm.433 14.752H4.204V2.554h11.793v4.518a.423.423 0 0 0 .42.42h3.368z" transform="translate(-3.375 -1.759)"/><path class="cls-1" d="M9.321 13.524a2.683 2.683 0 0 0 1.147-1.857 1.339 1.339 0 0 0-1.512-1.354 2.385 2.385 0 0 0-1.411.445l.276.724a1.561 1.561 0 0 1 .923-.36c.497 0 .71.28.71.63-.014.504-.47 1-1.412 1.83l-.553.503v.61h3.07v-.829H8.921z" transform="translate(-3.375 -1.759)"/><path class="cls-1" d="M7.715 10.862h1.738v.669H7.715z"/><path class="cls-1" d="M14.897 10.324c-1.127 0-1.663 1.025-1.658 2.236s.509 2.21 1.611 2.21 1.639-.915 1.639-2.25c0-1.182-.465-2.196-1.592-2.196zm-.02 3.683c-.392 0-.624-.47-.624-1.459v-.002c-.005-1 .21-1.47.616-1.47s.611.478.611 1.459-.21 1.472-.602 1.472z" transform="translate(-3.375 -1.759)"/></svg>