<svg id="Layer_2" data-name="Layer 2" xmlns="http://www.w3.org/2000/svg" viewBox="0 0 17.12276 20.16667"><defs><style>.cls-1{fill:#41494f}</style></defs><title>Rooms_Schedule</title><path class="cls-1" d="M8.752 11.032h1.143v.763H8.752z"/><path class="cls-1" d="M19.038 21.323V2.297a.365.365 0 0 0-.027-.133.121.121 0 0 0 0-.022.362.362 0 0 0-.07-.103l-.025-.02-.035-.029a.406.406 0 0 0-.071-.04.367.367 0 0 0-.138-.033H5.722a.38.38 0 0 0-.383.377v19.03h-1.9v.76H20.56v-.76zm-12.936 0V2.68h10.153L10.93 4.407a.38.38 0 0 0-.271.36V20.18a.38.38 0 0 0 .306.375l3.85.768zm12.181-.084l-6.848-1.371V5.048l6.848-2.227z" transform="translate(-3.439 -1.917)"/></svg>