<svg id="Layer_2" data-name="Layer 2" xmlns="http://www.w3.org/2000/svg" viewBox="0 0 20.16667 20.16667"><defs><style>.cls-1{fill:#41494f}</style></defs><title>Roulette</title><circle class="cls-1" cx="10.162" cy="1.963" r=".717"/><circle class="cls-1" cx="6.261" cy="17.846" r=".717" transform="rotate(-45.005 2.99 19.2)"/><circle class="cls-1" cx="6.337" cy="6.258" r=".717" transform="rotate(-44.995 3.065 7.614)"/><circle class="cls-1" cx="4.523" cy="8.952" r=".717" transform="rotate(-67.496 2.13 9.428)"/><circle class="cls-1" cx="1.963" cy="10.109" r=".717"/><circle class="cls-1" cx="15.091" cy="4.679" r=".717" transform="rotate(-67.495 12.698 5.155)"/><circle class="cls-1" cx="4.494" cy="15.164" r=".717" transform="rotate(-22.505 -1.281 19.022)"/><circle class="cls-1" cx="17.745" cy="6.362" r=".717" transform="rotate(-45 14.473 7.717)"/><circle class="cls-1" cx="8.876" cy="19.683" r=".717" transform="rotate(-67.496 6.483 20.159)"/><circle class="cls-1" cx="8.965" cy="4.468" r=".717" transform="rotate(-22.505 3.19 8.327)"/><circle class="cls-1" cx="19.527" cy="15.166" r=".717" transform="rotate(-67.494 17.134 15.643)"/><path class="cls-1" d="M12 1.917A10.083 10.083 0 1 0 22.083 12 10.083 10.083 0 0 0 12 1.917zm0 19.39A9.308 9.308 0 1 1 21.307 12 9.318 9.318 0 0 1 12 21.308z" transform="translate(-1.917 -1.917)"/><circle class="cls-1" cx="19.498" cy="8.948" r=".718" transform="rotate(-22.51 13.724 12.806)"/><circle class="cls-1" cx="18.203" cy="10.109" r=".717"/><circle class="cls-1" cx="17.82" cy="17.742" r=".717" transform="rotate(-44.99 14.548 19.098)"/><circle class="cls-1" cx="10.162" cy="18.203" r=".717"/><circle class="cls-1" cx="15.18" cy="19.472" r=".718" transform="rotate(-22.493 9.402 23.333)"/><path class="cls-1" d="M12.024 5.789H12a6.213 6.213 0 1 0 .024 0zm4.975 8.463l-.868-.397c-.084.14-.14.281-.225.422s-.168.28-.253.393l.781.554a5.565 5.565 0 0 1-1.22 1.225l-.544-.767c-.113.084-.253.168-.394.253-.14.056-.28.14-.421.197l.402.88a5.405 5.405 0 0 1-1.676.465l-.103-.98a5.113 5.113 0 0 1-.928 0l-.103.984a5.432 5.432 0 0 1-1.682-.455l.408-.866c-.14-.085-.281-.14-.422-.225s-.28-.169-.393-.253l-.558.786a5.522 5.522 0 0 1-1.24-1.238l.786-.532c-.084-.14-.169-.253-.253-.393-.056-.14-.14-.281-.197-.422l-.894.383a5.424 5.424 0 0 1-.455-1.685l.984-.103a2.27 2.27 0 0 1-.028-.45 2.418 2.418 0 0 1 .028-.45l-.984-.103a5.432 5.432 0 0 1 .456-1.685l.893.383c.057-.14.14-.28.197-.393.084-.14.169-.281.253-.394l-.786-.558a5.522 5.522 0 0 1 1.24-1.24l.558.786c.14-.084.253-.168.393-.253.14-.056.281-.14.422-.196l-.41-.896a5.425 5.425 0 0 1 1.687-.454l.1.956a5.113 5.113 0 0 1 .928 0l.1-.953a5.485 5.485 0 0 1 1.65.44l-.401.879c.14.084.28.14.421.224s.281.169.394.253l.553-.804a5.471 5.471 0 0 1 1.254 1.243l-.767.545c.084.14.168.253.253.394.056.14.14.28.196.421l.875-.4a5.348 5.348 0 0 1 .451 1.704l-.96.101a2.27 2.27 0 0 1 .028.45 2.416 2.416 0 0 1-.028.45l.955.1A5.405 5.405 0 0 1 17 14.252z" transform="translate(-1.917 -1.917)"/><path class="cls-1" d="M14.49 10.468a.646.646 0 1 0-1.09-.325l-.837.825a1.203 1.203 0 0 0-1.118 0l-.83-.83a.646.646 0 1 0-.51.502l.835.834a1.203 1.203 0 0 0-.004 1.112l-.835.835a.647.647 0 1 0 .508.504l.83-.83a1.203 1.203 0 0 0 1.13 0l.83.817a.645.645 0 1 0 .505-.485l-.834-.835a1.203 1.203 0 0 0-.004-1.125l.827-.826a.645.645 0 0 0 .597-.173z" transform="translate(-1.917 -1.917)"/></svg>