<svg id="Layer_2" xmlns="http://www.w3.org/2000/svg" viewBox="0 0 24 24"><style>.st0{fill:#666}</style><circle class="st0" cx="12" cy="17.12" r=".6"/><circle class="st0" cx="8.48" cy="17.12" r=".6"/><circle class="st0" cx="15.52" cy="17.12" r=".6"/><path class="st0" d="M4.57 20.02v-5.41l-.84-6.53-.15-.04c-.9-.24-1.52-1.07-1.52-1.99 0-1.14.93-2.07 2.07-2.07 1.14 0 2.07.93 2.07 2.07 0 .7-.35 1.34-.94 1.73l-.28.17 3.08 2.63 3.06-2.64-.27-.18c-.58-.39-.92-1.03-.92-1.72 0-1.14.93-2.07 2.07-2.07 1.14 0 2.07.93 2.07 2.07 0 .69-.34 1.33-.92 1.72l-.27.18 3.06 2.64 3.08-2.63-.27-.18c-.59-.38-.94-1.03-.94-1.73 0-1.14.93-2.07 2.07-2.07 1.14 0 2.07.93 2.07 2.07 0 .93-.63 1.75-1.52 1.99l-.16.04-.83 6.54v5.41H4.57zm.77-.77h13.32v-4.27H5.34v4.27zm-.04-5.04h13.4l.71-5.58-3.48 2.97L12 8.2l-3.94 3.4-3.48-2.97.72 5.58zm14.58-9.46c-.71 0-1.29.58-1.29 1.29s.58 1.29 1.29 1.29 1.29-.58 1.29-1.29-.58-1.29-1.29-1.29zm-7.88 0c-.71 0-1.29.58-1.29 1.29s.58 1.3 1.29 1.3c.71 0 1.29-.58 1.29-1.29s-.58-1.3-1.29-1.3zm-7.88 0c-.71 0-1.29.58-1.29 1.29s.58 1.29 1.29 1.29 1.29-.58 1.29-1.29-.58-1.29-1.29-1.29z"/></svg>