<svg id="Layer_2" xmlns="http://www.w3.org/2000/svg" xmlns:xlink="http://www.w3.org/1999/xlink" viewBox="0 0 24 24"><style>.st0{fill:#666}.st1{fill:#fff}.st2,.st3{clip-path:url(#SVGID_2_);fill:#666}.st3{fill:none}</style><circle class="st0" cx="12.1" cy="11.91" r="2.9"/><path class="st1" d="M11.47 10.14h.41v2.81h1.35v.34h-1.76v-3.15z"/><defs><path id="SVGID_1_" d="M1.96 2.02h19.98V22H1.96z"/></defs><clipPath id="SVGID_2_"><use xlink:href="#SVGID_1_" overflow="visible"/></clipPath><path class="st2" d="M6.9 21.92c-1.5 0-2.74-.45-3.58-1.29C.63 17.94 2.3 11.71 6.98 7.04c3.05-3.05 6.89-4.94 10.01-4.94 1.5 0 2.74.45 3.58 1.29 1.3 1.3 1.63 3.44.94 6.03-.7 2.61-2.33 5.29-4.59 7.56-3.05 3.05-6.89 4.94-10.02 4.94zM20.91 6.29c-.16.59-.41 1.25-.75 1.95-1.07 2.19-2.89 4.63-5.12 6.86-2.95 2.95-6.32 5.21-8.78 5.87l.01.16c.21.02.42.03.64.03 2.94 0 6.57-1.81 9.48-4.72 3.12-3.12 5-7.2 4.69-10.14l-.17-.01zM19.02 3.6c-1.81 0-5.6 1.83-9.62 5.86-2.18 2.18-3.95 4.54-4.99 6.66-.92 1.88-1.13 3.4-.56 3.97.23.22.57.33 1.02.33 1.81 0 5.6-1.83 9.62-5.86 2.18-2.18 3.95-4.54 4.98-6.66.92-1.88 1.13-3.4.55-3.98-.21-.21-.55-.32-1-.32zm-2.03-.74c-2.94 0-6.57 1.81-9.48 4.72-3.12 3.12-5 7.19-4.69 10.14l.16.01c.16-.59.41-1.25.75-1.95 1.07-2.19 2.89-4.63 5.12-6.86 2.95-2.95 6.32-5.21 8.78-5.87l-.01-.16c-.2-.02-.42-.03-.63-.03z"/><path class="st3" d="M2.04 2.1h19.82v19.82H2.04z"/></svg>