<svg id="Layer_2" data-name="Layer 2" xmlns="http://www.w3.org/2000/svg" viewBox="0 0 20 17.84864"><defs><style>.cls-1{fill:#41494f}</style></defs><title>Schedule</title><path class="cls-1" d="M5.81 13.489a.337.337 0 0 0-.336.337v.698a.337.337 0 0 0 .337.337l-.007-.009h.005a.337.337 0 0 0 .339-.335v-.691a.337.337 0 0 0-.337-.337zM5.813 10.078a.337.337 0 0 0-.337.337v.673a.337.337 0 0 0 .337.337l-.009-.009a.337.337 0 0 0 .346-.328v-.673a.337.337 0 0 0-.337-.337zM8.894 14.861l-.004-.009h.002a.337.337 0 0 0 .34-.335v-.691a.337.337 0 0 0-.675 0v.698a.337.337 0 0 0 .337.337z" transform="translate(-2 -3.076)"/><path class="cls-1" d="M3.806 15.205h-.002.002z"/><path class="cls-1" d="M5.806 16.918a.337.337 0 0 0-.336.337v.69a.337.337 0 0 0 .673.001v-.691a.337.337 0 0 0-.337-.337zM15.117 11.425l-.007-.009a.337.337 0 0 0 .344-.328v-.673a.337.337 0 1 0-.674 0v.673a.337.337 0 0 0 .337.337z" transform="translate(-2 -3.076)"/><path class="cls-1" d="M6.908 15.205h-.003.003z"/><path class="cls-1" d="M12.009 16.918a.337.337 0 0 0-.337.337v.69a.337.337 0 0 0 .674.001v-.691a.337.337 0 0 0-.337-.337zM8.908 16.918a.337.337 0 0 0-.337.337v.69a.337.337 0 0 0 .674.001v-.691a.337.337 0 0 0-.337-.337zM18.203 10.078a.337.337 0 0 0-.337.337v.673a.337.337 0 0 0 .337.337l-.007-.02a.337.337 0 0 0 .343-.317v-.673a.337.337 0 0 0-.336-.337zM15.746 12.615h-1.348a.898.898 0 0 0-.898.899v1.347a.898.898 0 0 0 .898.898h1.348a.898.898 0 0 0 .898-.898v-1.347a.898.898 0 0 0-.898-.899zm.224 2.246a.225.225 0 0 1-.224.225h-1.348a.225.225 0 0 1-.224-.225v-1.347a.225.225 0 0 1 .224-.225h1.348a.225.225 0 0 1 .224.225z" transform="translate(-2 -3.076)"/><path class="cls-1" d="M20.498 4.371H18.22v-.958a.337.337 0 0 0-.674 0v.958h-3.25v-.958a.337.337 0 0 0-.673 0v.958h-3.25v-.958a.337.337 0 0 0-.674 0v.958H6.45v-.958a.337.337 0 1 0-.673 0v.958H3.502A1.505 1.505 0 0 0 2 5.874v13.548a1.505 1.505 0 0 0 1.502 1.502h16.996A1.505 1.505 0 0 0 22 19.422V5.874a1.505 1.505 0 0 0-1.502-1.503zm-16.996.674h2.275v1.071a.337.337 0 1 0 .674 0v-1.07H9.7v1.07a.337.337 0 0 0 .673 0v-1.07h3.25v1.07a.337.337 0 0 0 .673 0v-1.07h3.25v1.07a.337.337 0 0 0 .674 0v-1.07h2.277a.83.83 0 0 1 .828.828V7.43H2.674V5.874a.83.83 0 0 1 .828-.829zm16.996 15.206H3.502a.83.83 0 0 1-.828-.829V8.104h18.652v11.318a.83.83 0 0 1-.828.829z" transform="translate(-2 -3.076)"/><path class="cls-1" d="M18.198 13.489a.337.337 0 0 0-.337.337v.698a.337.337 0 0 0 .337.337l-.004-.009h.002a.337.337 0 0 0 .339-.335v-.691a.337.337 0 0 0-.337-.337zM8.914 10.078a.337.337 0 0 0-.336.337v.673a.337.337 0 0 0 .336.337l-.009-.009a.337.337 0 0 0 .346-.328v-.673a.337.337 0 0 0-.337-.337zM12.016 10.078a.337.337 0 0 0-.337.337v.673a.337.337 0 0 0 .337.337l-.007-.009a.337.337 0 0 0 .344-.328v-.673a.337.337 0 0 0-.337-.337zM11.996 14.861l-.005-.009h.002a.337.337 0 0 0 .34-.335v-.691a.337.337 0 1 0-.674 0v.698a.337.337 0 0 0 .337.337z" transform="translate(-2 -3.076)"/></svg>