<svg id="Layer_2" data-name="Layer 2" xmlns="http://www.w3.org/2000/svg" viewBox="0 0 12.4705 20.16668"><defs><style>.cls-1{fill:#41494e}</style></defs><title>Scratchcards</title><path class="cls-1" d="M8.082 22.083h8.327v-2.597H8.082zm.836-1.762h6.645v.917H8.918zM18.13 7.333a1.902 1.902 0 0 0-1.016-1.108L15.47 5.49a4.077 4.077 0 1 0-7.847 1.977L6.139 10.05a1.97 1.97 0 0 0-.282 1.752l2.346 6.766h8.045l.11-.241c1.463-2.934-.428-7.264-1.504-9.305a7.384 7.384 0 0 0 1.958.364 1.262 1.262 0 0 0 1.208-.554 1.9 1.9 0 0 0 .11-1.5zM9.962 3.111a3.258 3.258 0 0 1 4.706 2.903 3.3 3.3 0 0 1-.098.782l-.022.082a3.211 3.211 0 0 1-.269.682l-.013.029a3.177 3.177 0 0 1-.399.55l-.075.08a3.018 3.018 0 0 1-.531.455l-.015.013c-.021.014-.047.022-.068.035v-1.44a1.752 1.752 0 0 0-3.504 0v1.45c-.072-.046-.135-.106-.204-.159a3.22 3.22 0 0 1-.309-.256 3.302 3.302 0 0 1-.257-.296 3.195 3.195 0 0 1-.187-.258 3.154 3.154 0 0 1-.194-.338 3.216 3.216 0 0 1 1.44-4.314zm5.743 14.613H8.787l-2.134-6.182a1.123 1.123 0 0 1 .17-1.007L8.083 8.35a4.024 4.024 0 0 0 .555.627c.062.059.122.12.188.174.056.046.115.086.174.13a4.045 4.045 0 0 0 .336.228l.107.06c.077.043.152.091.231.13v2.909h.846V9.135l-.01-.004V7.283a.916.916 0 0 1 1.832 0v5.326h.836v-2.92a4.117 4.117 0 0 0 .813-.488c.86 1.591 2.849 5.792 1.714 8.523zm1.56-9.283c-.01.03-.12.1-.452.1a7.074 7.074 0 0 1-1.905-.38 4.04 4.04 0 0 0 .586-1.744l1.278.574a1.041 1.041 0 0 1 .554.614 1.01 1.01 0 0 1-.06.836z" transform="translate(-5.765 -1.917)"/></svg>