<svg id="Layer_2" data-name="Layer 2" xmlns="http://www.w3.org/2000/svg" viewBox="0 0 19.95055 19.97"><defs><style>.cls-1{fill:#41494e}</style></defs><title>Manage_MyAccount</title><path class="cls-1" d="M20.975 9.785h-1.87a.697.697 0 0 1-.66-.44.69.69 0 0 1 .16-.78l1.32-1.32a1.028 1.028 0 0 0 .3-.73 1.064 1.064 0 0 0-.3-.73l-1.68-1.68a1.045 1.045 0 0 0-1.45 0l-1.32 1.32a.707.707 0 0 1-.78.16.693.693 0 0 1-.44-.66v-1.88a1.029 1.029 0 0 0-1.027-1.03h-2.383a1.029 1.029 0 0 0-1.03 1.027v1.873a.723.723 0 0 1-1.24.5l-1.32-1.32a1.045 1.045 0 0 0-1.45 0l-1.69 1.69a.989.989 0 0 0-.3.73 1.064 1.064 0 0 0 .3.73l1.32 1.32a.707.707 0 0 1 .16.78.72.72 0 0 1-.67.44h-1.87a1.029 1.029 0 0 0-1.03 1.027v2.383a1.028 1.028 0 0 0 1.027 1.03h1.873a.697.697 0 0 1 .66.44.674.674 0 0 1-.16.78l-1.31 1.32a1.028 1.028 0 0 0-.3.73 1.046 1.046 0 0 0 .3.73l1.68 1.68a1.045 1.045 0 0 0 1.45 0l1.32-1.32a.707.707 0 0 1 .78-.16.693.693 0 0 1 .44.66v1.87a1.029 1.029 0 0 0 1.027 1.03h2.383a1.029 1.029 0 0 0 1.03-1.027v-1.873a.697.697 0 0 1 .44-.66.674.674 0 0 1 .78.16l1.32 1.32a1.045 1.045 0 0 0 1.45 0l1.68-1.68a1.028 1.028 0 0 0 .3-.73 1.064 1.064 0 0 0-.3-.73l-1.32-1.32a.707.707 0 0 1-.16-.78.683.683 0 0 1 .66-.44h1.87a1.029 1.029 0 0 0 1.03-1.027v-2.383a.997.997 0 0 0-.964-1.03h-.036zm.29 3.41a.29.29 0 0 1-.29.29h-1.87a1.456 1.456 0 0 0-1.03 2.49l1.32 1.32a.296.296 0 0 1 0 .41l-1.68 1.68a.296.296 0 0 1-.41 0l-1.32-1.32a1.426 1.426 0 0 0-1.59-.32 1.448 1.448 0 0 0-.9 1.35v1.87a.29.29 0 0 1-.29.29h-2.38a.29.29 0 0 1-.29-.29v-1.88a1.462 1.462 0 0 0-2.49-1.04l-1.32 1.32a.296.296 0 0 1-.41 0l-1.68-1.68a.296.296 0 0 1 0-.41l1.32-1.32a1.423 1.423 0 0 0 .31-1.59 1.438 1.438 0 0 0-1.35-.9h-1.86a.29.29 0 0 1-.29-.29v-2.38a.29.29 0 0 1 .29-.29h1.87a1.462 1.462 0 0 0 1.04-2.49l-1.33-1.3a.296.296 0 0 1 0-.41l1.68-1.68a.296.296 0 0 1 .41 0l1.32 1.32a1.447 1.447 0 0 0 1.59.31 1.424 1.424 0 0 0 .9-1.35v-1.86a.29.29 0 0 1 .29-.29h2.38a.29.29 0 0 1 .29.29v1.87a1.462 1.462 0 0 0 2.49 1.04l1.32-1.32a.296.296 0 0 1 .41 0l1.68 1.68a.296.296 0 0 1 0 .41l-1.32 1.32a1.456 1.456 0 0 0 1.03 2.49h1.87a.29.29 0 0 1 .29.29z" transform="translate(-2.025 -2.015)"/><path class="cls-1" d="M12 8.67A3.33 3.33 0 1 0 15.33 12a3.329 3.329 0 0 0-3.328-3.33zm0 5.91a2.59 2.59 0 1 1 2.59-2.59A2.59 2.59 0 0 1 12 14.58z" transform="translate(-2.025 -2.015)"/></svg>