<svg id="Layer_2" xmlns="http://www.w3.org/2000/svg" viewBox="0 0 24 24"><style>.st0{fill:#666}</style><path class="st0" d="M4.66 20.95a.31.31 0 0 1-.23-.12l-2.25-3.15c-.05-.06-.06-.14-.05-.22.01-.08.06-.14.12-.19l5.53-3.95-.18-.25-.77-.13a.297.297 0 0 1-.24-.33c.02-.14.14-.24.29-.24h.05l.77.13 12.16-8.69-.13-.18a.288.288 0 0 1 .07-.4c.05-.04.11-.05.17-.05.09 0 .18.05.24.12l.13.18.59-.42c.05-.04.11-.05.17-.05.09 0 .18.05.24.12l.71 1c.04.06.06.14.05.22-.01.08-.05.14-.12.19l-8.21 5.86.01.03c.09.41-.07.83-.41 1.08l-2.73 1.95.03.04c.03.04.07.08.1.12.23.32.32.71.26 1.11a1.495 1.495 0 0 1-1.46 1.24c-.2 0-.39-.04-.58-.12l-.03-.01-4.05 5.04c-.07.03-.15.07-.25.07zm-1.84-3.37l1.86 2.61 3.9-4.85v-.9l-.46-.64-5.3 3.78zm6.34-2.31l.03.01c.12.05.24.08.37.08.19 0 .37-.06.52-.17a.892.892 0 0 0 .21-1.26c-.03-.04-.07-.08-.11-.13l-.03-.03-.62.44.11.03c.07.02.14.07.18.14.04.07.05.15.03.22a.28.28 0 0 1-.28.21c-.03 0-.05 0-.08-.01l-.33-.09v.56zm-.99-2.4l.76 1.06 4.09-2.92c.21-.15.26-.44.11-.65l-.49-.69-4.47 3.2zm4.94-3.53l.37.52 7.91-5.65-.38-.52-7.9 5.65z"/></svg>