<svg id="Layer_2" data-name="Layer 2" xmlns="http://www.w3.org/2000/svg" viewBox="0 0 16.06331 20.14082"><defs><style>.cls-1{fill:#41494f}</style></defs><title>ShopLocator</title><path class="cls-1" d="M18.854 6.275a.406.406 0 0 0-.406-.366H15.88v-.093a3.885 3.885 0 0 0-7.77-.003v.096H5.542a.409.409 0 0 0-.406.369L3.968 19.47v.037a2.758 2.758 0 0 0 2.919 2.562h10.226a2.761 2.761 0 0 0 2.919-2.562v-.037zM8.92 5.813a3.075 3.075 0 0 1 6.15 0v.096H8.92zm8.19 15.435H6.887a1.956 1.956 0 0 1-2.102-1.738l1.13-12.805h2.197v1.873a.406.406 0 0 0 .81 0V6.705h6.149v1.873a.406.406 0 0 0 .809 0V6.705h2.196l1.136 12.805a1.95 1.95 0 0 1-2.101 1.738z" transform="translate(-3.968 -1.93)"/><path class="cls-1" d="M11.996 11.111a2.353 2.353 0 0 0-2.353 2.353c0 2.136 2.353 4.465 2.353 4.465s2.353-2.47 2.353-4.465a2.353 2.353 0 0 0-2.353-2.353zm.003 3.818h-.003v-.003a1.035 1.035 0 1 1 .003.003z" transform="translate(-3.968 -1.93)"/></svg>