<svg id="Layer_2" data-name="Layer 2" xmlns="http://www.w3.org/2000/svg" viewBox="0 0 19.375 21.45891"><defs><style>.cls-1{fill:#41494f}</style></defs><title>SideGames</title><path class="cls-1" d="M9.05 15.498a.323.323 0 0 0 .352-.35v-.942a1.492 1.492 0 0 0 .967.297 1.697 1.697 0 0 0 1.607-1.55c.248-1.16-.535-1.77-1.265-2.383a5.425 5.425 0 0 1-1.356-1.396.336.336 0 0 0-.553 0A5.999 5.999 0 0 1 7.529 10.6a2.933 2.933 0 0 0-1.34 2.29 1.615 1.615 0 0 0 1.6 1.614 1.494 1.494 0 0 0 .968-.297v.941a.323.323 0 0 0 .294.351zM7.799 13.87a.97.97 0 0 1-.968-.967c0-.811.472-1.229 1.124-1.808a7.78 7.78 0 0 0 1.14-1.181 7.243 7.243 0 0 0 1.21 1.158c.783.641 1.2 1.012 1.043 1.755h.008c-.05.243-.26 1.043-.975 1.043-.522 0-.697-.177-1.002-.782a.308.308 0 0 0-.057-.078l-.016-.013a.328.328 0 0 0-.075-.05H9.2a.29.29 0 0 0-.223 0h-.03a.31.31 0 0 0-.072.05l-.018.013a.318.318 0 0 0-.058.078c-.305.613-.475.782-1.001.782z" transform="translate(-2.313 -1.27)"/><path class="cls-1" d="M3.927 19.988a.97.97 0 0 1-.968-.967V5.458a.97.97 0 0 1 .968-.968h1.695a.323.323 0 0 0 .319-.26l.096-.522a.968.968 0 0 1 1.122-.783l1.825.313a.326.326 0 0 0 .355-.195l.2-.496a.96.96 0 0 1 1.224-.571l4.956 1.807-4.992-.881a.323.323 0 0 0-.112.636l1.8.318H6.83a.323.323 0 1 0 0 .645h7.423a.97.97 0 0 1 .968.967v9.416h.654V5.468a1.601 1.601 0 0 0-.422-1.08l1.88.332a.97.97 0 0 1 .783 1.121l-1.6 9.046h.663l1.565-8.934a1.604 1.604 0 0 0-.242-1.16l1.896.69a.96.96 0 0 1 .574 1.23l-2.976 8.176h.686l2.895-7.958a1.607 1.607 0 0 0-.96-2.055l-9.632-3.508a1.604 1.604 0 0 0-2.053.947l-.099.245-1.565-.26a1.614 1.614 0 0 0-1.867 1.303l-.047.261H3.927a1.615 1.615 0 0 0-1.615 1.604v13.563a1.615 1.615 0 0 0 1.615 1.614h9.583l-.65-.657z" transform="translate(-2.313 -1.27)"/><path class="cls-1" d="M21.666 17.844l-1.122-2.021a.18.18 0 0 0-.157-.091h-7.016a.18.18 0 0 0-.156.09l-1.127 2.02a.18.18 0 0 0 .031.214l4.656 4.621a.177.177 0 0 0 .25 0l4.61-4.619a.18.18 0 0 0 .03-.214zm-1.623-1.75L19 17.66l-1.667-1.565zm-1.463 1.667l-.01-.005h-3.391l1.703-1.594zm-2.157-1.667l-1.672 1.565-1.043-1.565zm-3.04.166l.995 1.49h-1.826zm-.703 1.848l1.93.005 1.693 3.594zm4.218 4.03l-1.9-4.02h3.746zm.587-.426l1.661-3.589h1.946zm1.883-3.956l1.006-1.498.832 1.5z" transform="translate(-2.313 -1.27)"/><path class="cls-1" d="M14.588 21.459h-.003.003z"/></svg>