<svg id="Layer_2" data-name="Layer 2" xmlns="http://www.w3.org/2000/svg" viewBox="0 0 15.51749 20.18639"><defs><style>.cls-1{fill:#41494f}</style></defs><title>SignUp</title><path class="cls-1" d="M19.32 6.675v-.01a.439.439 0 0 0-.439.439v14.11H5.106V4.424h8.132a.439.439 0 0 0 0-.877H4.68a.439.439 0 0 0-.439.438v17.668a.439.439 0 0 0 .439.44h14.64a.439.439 0 0 0 .439-.44V7.114a.439.439 0 0 0-.439-.439z" transform="translate(-4.241 -1.907)"/><path class="cls-1" d="M8.836 10.601l-.597 2.296a.439.439 0 0 0 .423.548.449.449 0 0 0 .11-.012l2.296-.597a.439.439 0 0 0 .199-.115l6.956-6.964 1.4-1.403a.439.439 0 0 0 0-.62l-1.696-1.699a.439.439 0 0 0-.62 0l-1.4 1.403-6.957 6.964a.434.434 0 0 0-.114.2zm8.788-7.632L18.7 4.05l-.78.78-1.082-1.08zm-7.97 7.971l6.564-6.57L17.3 5.452l-6.564 6.569-1.462.38z" transform="translate(-4.241 -1.907)"/></svg>