<svg id="Layer_2" xmlns="http://www.w3.org/2000/svg" viewBox="0 0 24 24"><style>.st0{fill:#666}</style><path class="st0" d="M13.92 2.06c-.49-.06-.99.04-1.42.28-.67.37-1.12 1.04-1.2 1.79-.07.63.1 1.25.49 1.74.39.5.95.81 1.58.88.49.06.99-.04 1.42-.28.67-.37 1.12-1.04 1.2-1.79.15-1.29-.78-2.46-2.07-2.62zm1.19 2.52c-.06.47-.34.89-.75 1.12-.27.15-.58.21-.89.17-.39-.05-.74-.24-.99-.55-.25-.31-.35-.7-.31-1.09.06-.47.34-.89.75-1.12.27-.15.58-.21.89-.17.81.1 1.4.83 1.3 1.64zm-2.7 17.36c.04.01.05.01.05.01-.01 0-.03 0-.05-.01zm5.3-10.62c-1.24-.45-2.49-.9-3.73-1.35-.25-.69-.5-1.37-.75-2.06-.1-.29-.45-.44-.7-.6a2.21 2.21 0 0 0-.83-.32c-.88-.14-1.66.24-2.33.77-.82.65-1.45 1.55-2 2.43-.17.27-.32.54-.45.83-.1 0-.2-.01-.3-.01-.65-.02-1.3-.03-1.94-.05.01-.14.02-.28.02-.42.03-.57-.85-.59-.88-.02-.01.14-.02.28-.02.42-.09 0-.18 0-.27-.01-.57-.02-.59.87-.02.88l.24.01c-.02.18-.03.35-.04.52-.03.57.85.59.88.02l.03-.52c.67.02 1.35.04 2.02.05-.05.29-.05.6.01.91.12.59.5 1.12.96 1.5.23.19.5.39.78.48 1.1.37 2.21.75 3.31 1.12-.36 1.56-.71 3.12-1.07 4.67-.03.14-.06.28-.06.42-.61.01-1.25.01-1.88.01-1.4-.01-2.8-.01-4.2-.02h-.01c-.57 0-.59.88-.02.88 1.32.01 2.64.01 3.97.02 1.08.01 6.3.02 7.18.03h2.58c.22 0 .43 0 .65-.01.59-.01 1.08-.33 1.35-.86.07-.13.13-.27.16-.41.05-.23-.06-.48-.3-.55-.22-.06-.49.07-.55.3-.01.06-.03.11-.05.17.03-.07-.05.1-.07.13a.36.36 0 0 1-.07.1c.05-.06-.06.06-.07.07-.07.07-.07.06-.18.12.03-.01-.18.03-.13.03h-.02c-.19.01-.38.01-.58.01-.83.01-1.65 0-2.48 0-.75 0-1.5 0-2.25-.01.01-.04.02-.07.02-.11l.3-1.24 1.29-5.41c.01-.03.01-.06.01-.09.01-.16-.06-.34-.21-.41-.03-.02-.06-.03-.09-.04-1.2-.53-2.39-1.06-3.59-1.6.01-.03.03-.06.04-.09 1.04.03 2.07.06 3.11.08 1.02.03 2.03.05 3.05.08.06.01.11.01.17-.01.1-.02.18-.08.24-.16.04-.05.06-.1.08-.15a.4.4 0 0 0-.07-.37.484.484 0 0 0-.24-.16zm-3.44 3.07c-.39 1.65-.79 3.3-1.18 4.95l-.31 1.28c-.03.12-.06.23-.08.35 0 .02-.01.03-.01.05h-1c-.07-.02-.13-.02-.19-.02-.01 0-.01-.01-.01-.01-.01 0-.01-.01-.01-.01s0-.01-.01-.04c.03.07.02-.01.01 0 .01-.02.01-.05.02-.07l.09-.39c.36-1.59.73-3.18 1.09-4.77.05-.23-.06-.48-.3-.55a.59.59 0 0 0-.14-.02c-.81-.27-1.63-.55-2.44-.82-.37-.13-.74-.25-1.11-.38-.01-.01-.03-.01-.04-.02-.14-.07-.27-.16-.39-.25a.874.874 0 0 0-.1-.08c-.04-.04-.09-.08-.13-.12-.04-.04-.09-.09-.13-.14-.02-.02-.04-.05-.06-.07-.01-.01-.01-.02-.02-.02 0 0 0-.01-.01-.01-.09-.1-.16-.23-.21-.35 0-.01-.01-.01-.01-.02v-.01l-.03-.1c-.03-.08-.04-.17-.06-.26V12.32c0-.09.01-.17.01-.26v-.03c0-.01 0-.02.01-.04 0-.03.01-.05.02-.07.96.03 1.92.05 2.88.08-.02.04-.03.07-.05.11-.1.2-.08.5.15.61 1.25.55 2.5 1.11 3.75 1.67zm-3.43-3.26c-.99-.03-1.97-.05-2.96-.08.18-.32.4-.63.6-.93.29-.42.6-.83.95-1.2.31-.33.6-.58.96-.8.08-.05.16-.09.25-.13.04-.02.07-.03.11-.05-.05.02.06-.02.07-.02.08-.03.16-.05.25-.06.04-.01.08-.01.12-.02-.08.01.08 0 .09 0 .25-.01.51.05.71.18l.27.18c-.47.97-.95 1.95-1.42 2.93zm2.83.07c-.62-.02-1.25-.03-1.87-.05.32-.66.64-1.31.95-1.97.15.41.3.82.45 1.24.09.24.26.3.47.38.18.06.36.13.54.19l.66.24c-.4 0-.8-.02-1.2-.03z"/></svg>