<svg id="Layer_2" data-name="Layer 2" xmlns="http://www.w3.org/2000/svg" viewBox="0 0 19.70833 20.12766"><defs><style>.cls-1{fill:#41494f}</style></defs><title>Slots</title><path class="cls-1" d="M13.647 13.613H6.58a1.557 1.557 0 0 0-1.32.656 1.075 1.075 0 0 0-.078 1.046l1.187 2.594a1.501 1.501 0 0 0 1.397.8h4.696a1.501 1.501 0 0 0 1.397-.8l1.186-2.594a1.075 1.075 0 0 0-.077-1.046 1.557 1.557 0 0 0-1.32-.656zm.635 1.353l-1.187 2.595a.704.704 0 0 1-.635.31H7.765a.703.703 0 0 1-.634-.31l-1.187-2.595a.234.234 0 0 1 .021-.244.72.72 0 0 1 .614-.27h7.068a.72.72 0 0 1 .614.27.234.234 0 0 1 .02.244z" transform="translate(-2.146 -1.936)"/><path class="cls-1" d="M7.548 3.355h.839v4.193h-.839zM4.193 3.355h.839v4.193h-.839zM10.902 3.355h.839v4.193h-.839z"/><path class="cls-1" d="M20.179 6.966a1.677 1.677 0 0 0-.421 3.302v5.925H18.08V5.675a3.743 3.743 0 0 0-3.739-3.739H5.885a3.743 3.743 0 0 0-3.74 3.74v16.388H18.08v-5.032h2.516v-6.764a1.677 1.677 0 0 0-.417-3.302zm-2.937 14.26H2.984V5.675a2.903 2.903 0 0 1 2.9-2.901h8.457a2.903 2.903 0 0 1 2.9 2.9zm2.935-11.742a.839.839 0 1 1 .839-.839.839.839 0 0 1-.84.839z" transform="translate(-2.146 -1.936)"/></svg>