<svg id="Layer_2" data-name="Layer 2" xmlns="http://www.w3.org/2000/svg" viewBox="0 0 20.08333 18.58618"><defs><style>.cls-1{fill:#41494f}</style></defs><title>Slots&amp;amp;Games</title><path class="cls-1" d="M22.042 9.894a1.749 1.749 0 1 0-2.12 1.709v3.121a1.382 1.382 0 0 1-1.38 1.38.37.37 0 0 0-.319.185v-4.12a.372.372 0 1 0-.745 0v6.543a1.841 1.841 0 0 1-1.839 1.839H5.766a1.841 1.841 0 0 1-1.842-1.842v-.856a.372.372 0 1 0-.744 0v.856a2.586 2.586 0 0 0 2.586 2.584h9.873a2.586 2.586 0 0 0 2.584-2.584v-2.047a.37.37 0 0 0 .319.184 2.127 2.127 0 0 0 2.124-2.124v-3.12a1.751 1.751 0 0 0 1.376-1.708zM20.299 10.9h-.011a1.006 1.006 0 0 1 .005-2.012v.005A1.004 1.004 0 0 1 20.3 10.9zM3.55 9.564h.003a.371.371 0 0 0 .369-.374V7.375a1.846 1.846 0 0 1 1.822-1.84h9.917a1.846 1.846 0 0 1 1.82 1.84v.1a.371.371 0 1 0 .742 0v-.1a2.577 2.577 0 0 0-1.972-2.508l-.22-.052v-.771a1.34 1.34 0 0 0-1.336-1.337H6.713A1.34 1.34 0 0 0 5.37 4.044v.77l-.22.053a2.579 2.579 0 0 0-1.971 2.51v1.816a.371.371 0 0 0 .37.37zm2.573-5.518a.595.595 0 0 1 .594-.594l7.97-.003a.595.595 0 0 1 .595.595v.752h-9.16z" transform="translate(-1.958 -2.707)"/><path class="cls-1" d="M7.595 19.392a.271.271 0 0 0 .19-.08l5.356-5.366a.271.271 0 0 0 0-.383l-2.662-2.681a.269.269 0 0 0-.193-.079H4.914a.269.269 0 0 0-.193.079l-2.683 2.684a.271.271 0 0 0 0 .383l5.365 5.365a.271.271 0 0 0 .192.078zm-2.57-8.046h1.913l-2.22 2.217-.001.002a.273.273 0 0 0 .387.384l2.608-2.603H9.62l-2.217 2.217a.272.272 0 0 0 .383.386l2.494-2.488 2.295 2.295-4.98 4.98-4.98-4.98zM12.518 16.475a1.649 1.649 0 1 0 1.649-1.649 1.649 1.649 0 0 0-1.65 1.65zm1.649-1.106h.007a1.105 1.105 0 1 1-.007 0zM12.31 9.63a.271.271 0 0 0 .272-.261V7.703h2.64v4.613l-.128.031a.271.271 0 0 0 .062.536.61.61 0 0 0 .602-.597v-4.52a.61.61 0 0 0-.602-.608H6.242a.61.61 0 0 0-.605.61.271.271 0 0 0 .536.064l.03-.129h2.615V9.37a.271.271 0 0 0 .543 0V7.703h2.679V9.37a.271.271 0 0 0 .27.261z" transform="translate(-1.958 -2.707)"/></svg>