<svg id="Layer_2" xmlns="http://www.w3.org/2000/svg" viewBox="0 0 24 24"><style>.st0{fill:#666}</style><path class="st0" d="M21.29 8.96a8.044 8.044 0 0 0-2.64-4.95A8.066 8.066 0 0 0 13.4 2h-.07c-1.91 0-3.76.68-5.21 1.92-2.95 2.51-3.64 6.81-1.65 10.21l.01.03-3.76 4.48c-.06.08-.1.17-.09.27.01.1.06.19.13.25.15.13.4.11.53-.05l2.89-3.44 2.68 2.25-2.89 3.44c-.13.16-.11.4.05.53.07.06.15.09.24.09.11 0 .22-.05.29-.13l3.11-3.7.02-.02c.01-.01.01-.02.02-.03l.55-.65.03.01c.98.42 2.02.63 3.08.63.74 0 1.47-.1 2.18-.31a8.091 8.091 0 0 0 4.49-3.33 8.08 8.08 0 0 0 1.26-5.49zm-10.63 1.39c.01-.02.02-.03.04-.06a.7.7 0 0 1 .93-.03l1.62 1.37.04.03c.26.25.28.66.05.93-.01.01-.02.03-.04.06l-.19.23-2.68-2.25.23-.28zm3.26 2.73c.02-.02.03-.04.05-.07a1.427 1.427 0 0 0-.27-1.99l-1.6-1.34a1.46 1.46 0 0 0-.92-.33c-.43 0-.83.19-1.1.51-.02.02-.03.04-.05.07l-.38.46c-.02.01-.03.03-.05.05-.01.02-.02.03-.04.06L7 13.55l-.03-.05c-1.61-3.03-.92-6.81 1.64-9a7.247 7.247 0 0 1 4.72-1.73c1.78 0 3.49.64 4.81 1.81 2.7 2.38 3.24 6.45 1.26 9.45-1.36 2.07-3.62 3.31-6.04 3.31-.87 0-1.73-.16-2.55-.48l-.05-.02 3.16-3.76zm-1.29.37l-3.27 3.9-2.68-2.25 3.27-3.89 2.68 2.24z"/><path class="st0" d="M15.08 5.18c1.79.64 3.07 2.21 3.35 4.1.03.18.19.32.37.32h.05c.1-.01.19-.07.25-.15.06-.08.08-.18.07-.28a5.892 5.892 0 0 0-3.84-4.69.383.383 0 0 0-.48.23c-.06.18.04.4.23.47z"/></svg>