<svg id="Layer_2" data-name="Layer 2" xmlns="http://www.w3.org/2000/svg" viewBox="0 0 20.00218 19.56135"><defs><style>.cls-1{fill:#41494f}</style></defs><title>Specials</title><path class="cls-1" d="M8.28 15.763l-1.338-3.431-1.277 3.46L2 15.924l2.939 2.214-.96 3.643 3.04-2.242 3.074 2.182-1.027-3.629 2.89-2.268zm.32 3.844l-1.592-1.13-1.576 1.162.485-1.84-1.464-1.102 1.82-.066.691-1.875.725 1.858 1.828.03-1.436 1.127z" transform="translate(-1.999 -2.22)"/><path class="cls-1" d="M15.512 7.981l1.523-1.123 1.538 1.092-.509-1.802 1.427-1.12-1.815-.029-.681-1.745-.649 1.759-1.81.066 1.453 1.094-.477 1.808zM4.444 4.72l1.52-1.121L7.501 4.69l-.509-1.8 1.424-1.118-1.811-.03L5.925 0l-.648 1.757-1.807.065 1.45 1.093-.476 1.805z"/><path class="cls-1" d="M21.876 19.857l-6.07-6.069a.423.423 0 0 0-.39-.109 2.838 2.838 0 1 0-.327.327.423.423 0 0 0 .11.39l6.069 6.07a.43.43 0 0 0 .608-.609zm-7.223-6.614a1.976 1.976 0 1 1 0-2.794 1.978 1.978 0 0 1 0 2.794z" transform="translate(-1.999 -2.22)"/></svg>