<svg id="Layer_2" xmlns="http://www.w3.org/2000/svg" viewBox="0 0 24 24"><style>.st0{fill:#666}</style><path class="st0" d="M18.98 19.93c-1.67 0-3.03-1.36-3.03-3.02 0-1.67 1.36-3.02 3.03-3.02 1.67 0 3.03 1.36 3.03 3.02 0 1.67-1.36 3.02-3.03 3.02zm0-5.42c-1.33 0-2.41 1.08-2.41 2.4s1.08 2.4 2.41 2.4 2.41-1.08 2.41-2.4-1.08-2.4-2.41-2.4z"/><path class="st0" d="M5.02 17.22a.3.3 0 0 1-.29-.21c-.03-.08-.02-.16.01-.24s.1-.13.18-.16l4.21-1.44c.09-.03.18-.05.28-.05.18 0 .35.05.49.15l.6.41c.07.05.16.08.24.08h3.34c.1 0 .19-.08.19-.19.01-.41.01-.7.01-.86a3.67 3.67 0 0 1 6.21-2.64c.12.12.13.32.01.44-.06.06-.14.1-.22.1-.08 0-.16-.03-.21-.09a3.047 3.047 0 0 0-5.16 2.19c0 .16 0 .46-.01.87-.01.44-.37.8-.81.8h-3.34c-.21 0-.42-.06-.59-.18l-.6-.41a.23.23 0 0 0-.14-.04c-.03 0-.05 0-.08.01L5.12 17.2c-.03.01-.06.02-.1.02zm13.96.6c-.5 0-.92-.41-.92-.91s.41-.91.92-.91c.5 0 .92.41.92.91s-.42.91-.92.91zm0-1.2a.29.29 0 1 0 0 .58.29.29 0 0 0 0-.58z"/><path class="st0" d="M5.02 19.93c-1.67 0-3.03-1.36-3.03-3.02 0-1.67 1.36-3.02 3.03-3.02s3.03 1.36 3.03 3.02c0 1.67-1.36 3.02-3.03 3.02zm0-5.42c-1.33 0-2.41 1.08-2.41 2.4s1.08 2.4 2.41 2.4 2.41-1.08 2.41-2.4-1.08-2.4-2.41-2.4z"/><path class="st0" d="M5.02 17.77c-.48 0-.87-.39-.87-.86 0-.48.39-.86.87-.86s.86.39.86.86c.01.47-.38.86-.86.86zm0-1.1c-.13 0-.24.11-.24.24s.11.24.24.24.24-.11.24-.24-.1-.24-.24-.24zm13.96.55c-.11 0-.22-.06-.27-.16l-2.72-4.88a.31.31 0 0 1 .54-.3l2.72 4.88c.04.07.05.16.03.24-.02.08-.08.15-.15.19-.05.02-.1.03-.15.03zm-8.82-2.13c-.06 0-.12-.01-.18-.02l-.61-.15a.733.733 0 0 1-.54-.9l.57-2.26c.01-.03 0-.07-.01-.09a.156.156 0 0 0-.08-.06l-2.41-.56c-.53-.12-.97-.49-1.18-.99-.21-.5-.17-1.07.11-1.54.7-1.16 1.87-1.95 3.21-2.15.07-.01.15-.02.22-.02.39 0 .76.15 1.04.42.12.12.19.28.19.44 0 .17-.07.33-.2.44l-1.13 1c-.11.1-.15.24-.11.38.03.14.14.24.28.28l1.67.41c.27.07.5.24.65.48.14.24.19.53.12.8l-.89 3.53c-.08.33-.38.56-.72.56zm-.92-8.12c-.04 0-.09 0-.13.01-1.16.17-2.16.85-2.76 1.85-.18.29-.2.66-.07.98.13.32.42.55.75.63l2.41.56c.19.05.36.17.47.34.1.17.14.38.09.57l-.57 2.26c-.01.03 0 .06.01.09.02.03.04.05.08.06l.61.15h.01c.08 0 .13-.04.14-.09l.89-3.53c.03-.11.01-.23-.05-.32a.433.433 0 0 0-.26-.2l-1.68-.42c-.36-.09-.65-.37-.74-.73-.09-.36.02-.74.3-.99l1.11-1.01a.979.979 0 0 0-.61-.21z"/><path class="st0" d="M13.16 9.33l-1.23-.14a.99.99 0 0 1-.73-.46L9.91 7.28a.315.315 0 0 1 .47-.42l1.32 1.48.03.04c.07.11.17.17.28.19l1.23.14c.08.01.16.05.21.12.05.07.07.15.06.23-.02.16-.15.28-.31.28l-.04-.01zm-3.91.59c-.02 0-.05 0-.07-.01l-3-.73a.31.31 0 1 1 .07-.61c.02 0 .05 0 .07.01l3 .73c.08.02.15.07.19.14.05.07.06.15.04.23-.03.14-.15.24-.3.24zm3.13-2.41c-.13 0-.24-.08-.29-.2a.31.31 0 0 1 .18-.4c.17-.07.32-.19.45-.38.08-.11.15-.21.18-.32a.31.31 0 0 1 .3-.23c.03 0 .05 0 .08.01.08.02.15.07.19.14.04.07.05.15.03.23-.05.2-.16.37-.27.52-.2.29-.45.49-.73.59-.05.03-.08.04-.12.04z"/><path class="st0" d="M11.99 8.14c-.12 0-.23-.04-.32-.11-1.26-1-1.9-1.63-1.99-1.93a1.79 1.79 0 0 1 .25-1.5c.33-.46.88-.73 1.49-.73.44 0 .87.14 1.24.4.41.29.71.71.83 1.18l.71.85c.08.1.11.24.06.36s-.16.21-.29.23l-.1.01c-.03 0-.07.01-.1.01a.76.76 0 0 1-.43-.14l-.91-.63-.48.04.42.6c.12.17.31.27.51.27.13 0 .24.06.29.17.05.1.05.23-.02.32l-.3.42c-.08.11-.21.18-.35.18h-.51zm-.57-3.66c-.41 0-.76.17-.98.47-.2.27-.26.63-.16.98.04.11.61.68 1.74 1.58h.28c-.18-.09-.33-.23-.44-.39l-.51-.73a.51.51 0 0 1-.04-.52c.08-.17.25-.28.43-.3l.75-.06c.09 0 .15.02.2.06l.23.16-.06-.08a.292.292 0 0 1-.06-.28c-.11-.23-.28-.44-.5-.59-.26-.2-.57-.3-.88-.3zm-.18 7.75c-.04 0-.08-.01-.12-.03a.308.308 0 0 1-.16-.41c.45-1.07 1.72-1.78 3.16-1.78 1.23 0 2.36.53 2.94 1.38.05.07.06.15.05.23-.02.08-.06.15-.13.2-.05.04-.11.05-.17.05-.1 0-.2-.05-.26-.14-.47-.68-1.39-1.11-2.42-1.11-1.19 0-2.23.56-2.59 1.4-.06.14-.17.21-.3.21z"/><path class="st0" d="M16.38 11.42c-.03 0-.06 0-.09-.01-.16-.05-.26-.23-.2-.39.21-.67.01-1.1-.2-1.35l-1 .89c-.06.05-.13.08-.21.08-.09 0-.17-.04-.23-.1-.11-.13-.1-.33.03-.44l1-.89c.11-.1.26-.16.42-.16h.04c.17.01.32.09.43.22.25.3.63.95.32 1.94-.06.12-.18.21-.31.21z"/><path class="st0" d="M15.78 11.03a.313.313 0 0 1-.22-.11c-.06-.06-.08-.14-.08-.23l.08-1.28c.01-.16.15-.29.31-.29.19.01.32.16.31.33l-.08 1.28c-.01.16-.15.29-.31.29l-.01.01zm-.72-.74c-.11 0-.21-.06-.27-.15l-.46-.78-.98.54a.303.303 0 0 1-.42-.12.31.31 0 0 1 .12-.42l1.07-.59c.08-.04.16-.06.25-.06.18 0 .35.1.44.26l.51.87c.04.07.05.16.03.24-.02.08-.07.15-.14.19a.68.68 0 0 1-.15.02zm-6.55 5.7c-.14 0-.26-.1-.3-.23-.4-1.52-1.56-1.73-1.58-1.73a.32.32 0 0 1-.26-.25l-.1-.51c-.03-.16.06-.31.21-.36l3-.91c.03-.01.06-.01.09-.01a.312.312 0 0 1 .09.61l-2.73.84.01.04c.46.14 1.47.63 1.86 2.13.04.17-.06.34-.22.38h-.07z"/><path class="st0" d="M6.58 13.53c-.05 0-.11-.01-.16-.04-1.03-.6-2.29-.73-3.15-.73-.5 0-.84.04-.86.05h-.04c-.15 0-.29-.12-.31-.27-.02-.17.1-.33.26-.35.04-.01.41-.06.96-.06.75 0 1.84.09 2.86.52l-.02-.1c-.08-.41.18-.84.58-.96l2.27-.67c.03-.01.06-.01.09-.01.14 0 .26.09.3.22a.317.317 0 0 1-.22.39l-2.25.68c-.1.03-.17.14-.15.24l.14.72a.308.308 0 0 1-.3.37z"/></svg>