<svg id="Layer_2" xmlns="http://www.w3.org/2000/svg" viewBox="0 0 24 24"><style>.st0{fill:#666}</style><path class="st0" d="M6.83 21.3c-.45 0-.88-.16-1.17-.45-.26-.25-.54-.72-.46-1.54a.28.28 0 0 1-.27-.21l-.54-1.91-.01-.02c-.05-.26-.05-.51 0-.75.15-.74.76-1.37 1.65-1.74 1.32-.54 2.24-1.08 2.95-1.76.54-.5.98-1.1 1.36-1.81.43-.82.47-2.05.14-3.76-1.12.13-1.61.74-1.62 1.97-.01 2.09-.66 3.48-1.74 3.72-.16.03-.31.05-.45.05-.67 0-.97-.41-1.07-.59-.21-.39-.18-.89.07-1.14.05-.05.13-.08.2-.08.08 0 .15.03.2.08s.08.13.08.2c0 .08-.03.15-.08.2-.03.05-.07.27.04.47.1.19.3.29.57.29.1 0 .2-.01.32-.04.79-.18 1.28-1.38 1.29-3.16 0-1.52.68-2.35 2.07-2.54-.1-.44-.21-.86-.31-1.22l-.07-.26a3.174 3.174 0 0 0-1.45-.01c-.61.14-1.26.53-1.88.91-.82.49-1.67 1-2.51 1-.26 0-.52-.05-.76-.15-1.29-.54-1.32-1.5-1.14-1.97.1-.27.29-.44.49-.44.04 0 .08.01.12.02.07.02.13.08.17.14s.04.15.02.22c-.03.1-.12.17-.22.19-.05.07-.1.24-.07.43.03.25.21.6.85.87.17.07.34.11.54.11.68 0 1.43-.45 2.21-.92.66-.4 1.35-.81 2.05-.98.27-.07.55-.1.83-.1.2 0 .41.02.62.05-.05-.73.5-1.43 1.26-1.57h.03l4.9-.4c.03-.01.07-.01.11-.01.32 0 .59.23.65.54 0 .02 0 .03.01.05 0 .03.07 3.31 1.78 7.79.21.55.31 1.05.3 1.49.01.02.02.04.02.06l.64 2.18a1.1 1.1 0 0 1-.61 1.3c.23.26.57.4.95.4h.1c.15-.01.3-.03.45-.04.22-.03.43-.05.63-.05.35 0 .58.08.74.25.15.16.2.38.13.6-.1.32-.44.63-.79.71L7.24 21.25c-.13.04-.27.05-.41.05zm-1.04-2.08c-.09.54 0 .96.26 1.22.26.25.59.29.77.29.1 0 .2-.01.29-.03l13.93-3.29c.15-.04.33-.19.37-.32.01-.02 0-.03 0-.03-.05-.05-.15-.08-.32-.08s-.37.02-.56.05c-.16.02-.32.04-.48.05h-.14c-.64 0-1.21-.29-1.54-.79l-1.05.32c.13.61-.24 1.21-.84 1.36l-5.1 1.29c-.09.02-.18.03-.28.03-.53 0-.99-.36-1.11-.87l-.01-.06c-.17.04-.34.08-.51.13.01.02.01.04.02.05a1.147 1.147 0 0 1-.91 1.34l-1.08.2c-.07.01-.14.02-.21.02-.55 0-1.02-.39-1.13-.93v-.02c-.14.03-.26.05-.37.07zm.92-.15c.05.27.29.46.56.46.03 0 .07 0 .11-.01l1.08-.2c.31-.06.51-.36.45-.66v-.03c-.81.18-1.63.33-2.2.44 0-.01 0-.01 0 0zm3.84-.78c.06.25.29.43.55.43.05 0 .09-.01.14-.02l5.1-1.29c.28-.07.47-.35.43-.63l-.74.23c-.03.01-.06.01-.08.01a.23.23 0 0 1-.14-.04.283.283 0 0 1-.14-.18l-.22-.84c-1.34.45-1.88.78-2.45 1.12-.42.26-.86.52-1.63.84-.21.09-.49.18-.83.28l.01.09zm-5.14.4c1.07-.18 4.46-.77 5.73-1.29.72-.3 1.14-.55 1.55-.8.62-.37 1.25-.76 2.86-1.27.03-.01.06-.01.09-.01.05 0 .1.01.14.04.07.04.12.1.14.18l.23.84 2.47-.76c.15-.04.26-.13.33-.25s.09-.27.05-.4l-.4-1.36c-.21.34-.55.62-1 .84-.23.11-.49.2-.78.28-2.57.68-3.29 1.13-4.05 1.6-.43.26-.87.54-1.63.85-1.32.55-4.71 1.14-5.79 1.32l.06.19zm5.23-13.17c.44 1.7 1.08 4.2.22 5.86-.4.78-.89 1.42-1.47 1.97-.77.72-1.74 1.3-3.13 1.87-.71.29-1.19.77-1.3 1.32a1.3 1.3 0 0 0 0 .52l.21.74.04.13c1.07-.18 4.46-.77 5.73-1.29.72-.3 1.14-.56 1.55-.81.8-.49 1.56-.96 4.21-1.66.25-.07.48-.15.67-.24.99-.48 1.21-1.29.69-2.63-1.67-4.38-1.81-7.6-1.82-7.96-.01-.02-.05-.05-.08-.05s-.04.01-.05.01l-4.9.4c-.48.1-.83.55-.77 1.01 0 .03.01.06.02.08l.01.05c.74.24 1.21.62 1.27.66l.01.01c.17.02.3.15.33.31.04.21-.1.41-.31.45-.02 0-.05.01-.07.01-.19 0-.35-.13-.38-.32 0-.02-.01-.04-.01-.06a3.96 3.96 0 0 0-.67-.38z"/><path class="st0" d="M12.09 8.54c-.19 0-.35-.13-.38-.32a.38.38 0 0 1 .31-.45c.02 0 .05-.01.07-.01.19 0 .35.13.38.32a.38.38 0 0 1-.31.45c-.03.01-.05.01-.07.01zm.08 2.41c-.19 0-.35-.13-.38-.32-.04-.21.1-.41.31-.45.02 0 .05-.01.07-.01.19 0 .35.13.38.32a.38.38 0 0 1-.31.45c-.02.01-.05.01-.07.01z"/></svg>