<svg id="Layer_2" data-name="Layer 2" xmlns="http://www.w3.org/2000/svg" viewBox="0 0 19.79982 19.43549"><defs><style>.cls-1{fill:#41494f}</style></defs><title>Statistics</title><path class="cls-1" d="M19.902 6.654a.27.27 0 0 0 .513 0l1.468-3.955a.27.27 0 0 0-.367-.338l-3.827 1.802a.27.27 0 0 0 .057.52l1.154.253-3.3 3.58-3.32-1.71a.709.709 0 0 0-.726.043l-8.571 5.832V2.763a.442.442 0 1 0-.881 0v18.513a.442.442 0 0 0 .442.442h18.513a.442.442 0 0 0 0-.881H2.983V13.75l8.99-6.114 3.343 1.724a.712.712 0 0 0 .85-.152l3.375-3.685z" transform="translate(-2.1 -2.282)"/><path class="cls-1" d="M7.427 19.352V12.56l-2.48 1.688v5.105zM5.62 14.604l1.13-.77v4.843h-1.13zM11.19 19.352v-9.347l-2.48 1.687v7.66zM9.383 12.05l1.13-.77v7.397h-1.13zM14.952 19.352v-8.375l-2.48-1.28v9.655zm-1.805-8.548l1.13.58v7.29h-1.13zM18.711 19.352V8.372l-2.48 2.7v8.28zm-1.805-8.021l1.13-1.228v8.574h-1.13z" transform="translate(-2.1 -2.282)"/></svg>