<svg id="Layer_2" data-name="Layer 2" xmlns="http://www.w3.org/2000/svg" viewBox="0 0 19.39148 20.83333"><defs><style>.cls-1{fill:#41494e}</style></defs><title>Support</title><path class="cls-1" d="M12.74 14.703a1.375 1.375 0 0 0-.811.252l-.713.515a4.825 4.825 0 0 1-3-2.49 4.825 4.825 0 0 1-.658-3.843l.802-.36c.85-.382 1.118-1.52.757-3.205-.296-1.38-1.29-3.989-2.932-3.989a1.45 1.45 0 0 0-.448.072l-1.24.401a2.943 2.943 0 0 0-1.972 2.2c-.658 3.164.17 7.064 2.27 10.7 2.099 3.636 5.064 6.3 8.135 7.313a2.939 2.939 0 0 0 2.889-.609l.968-.874a1.813 1.813 0 0 0 .286-2.166c-.594-1.546-2.771-3.916-4.333-3.917zm3.577 5.562l-.968.874a2.237 2.237 0 0 1-2.2.464c-3.057-1.008-5.864-3.737-7.747-6.998-1.884-3.26-2.845-7.056-2.19-10.208a2.238 2.238 0 0 1 1.5-1.673l1.241-.402a.745.745 0 0 1 .232-.037c1.619 0 3.223 5.252 1.888 5.852l-1.055.473a5.313 5.313 0 0 0 .591 4.72 5.312 5.312 0 0 0 3.793 2.87l.937-.676a.667.667 0 0 1 .4-.12c1.534.001 4.779 3.779 3.578 4.861z" transform="translate(-2.304 -1.583)"/><path class="cls-1" d="M20.073 4.338H12.36a1.625 1.625 0 0 0-1.622 1.622v3.89a1.626 1.626 0 0 0 1.214 1.572v.908a.843.843 0 0 0 1.352.672l2.02-1.528h4.749a1.625 1.625 0 0 0 1.623-1.623V5.96a1.625 1.625 0 0 0-1.623-1.623zm.921 1.622v3.89a.921.921 0 0 1-.92.922h-4.985l-2.209 1.671a.142.142 0 0 1-.227-.113v-1.558h-.293a.921.921 0 0 1-.921-.92V5.96a.921.921 0 0 1 .921-.921h7.713a.921.921 0 0 1 .921.92z" transform="translate(-2.304 -1.583)"/><path class="cls-1" d="M13.654 6.781a1.124 1.124 0 1 0 1.124 1.125 1.126 1.126 0 0 0-1.124-1.125zm.423 1.125zM18.78 6.781a1.124 1.124 0 1 0 1.123 1.125A1.126 1.126 0 0 0 18.78 6.78zm.422 1.125zM16.217 6.781a1.124 1.124 0 1 0 1.124 1.125 1.126 1.126 0 0 0-1.124-1.125zm.423 1.125z" transform="translate(-2.304 -1.583)"/></svg>