<svg id="Layer_2" xmlns="http://www.w3.org/2000/svg" viewBox="0 0 24 24"><style>.st0{fill:#666}</style><path class="st0" d="M19 18.38c-.95 0-1.83-.44-2.39-1.17-.57.73-1.44 1.17-2.39 1.17s-1.83-.44-2.39-1.17c-.57.73-1.44 1.17-2.39 1.17s-1.83-.44-2.39-1.17a3.03 3.03 0 0 1-5.19-.7.35.35 0 0 1 .2-.47c.19-.08.4.01.47.2.36.87 1.19 1.43 2.13 1.43.88 0 1.68-.49 2.07-1.29.06-.12.19-.2.32-.2s.26.08.32.2c.39.79 1.18 1.29 2.07 1.29s1.68-.49 2.07-1.29c.06-.12.19-.2.32-.2.14 0 .26.08.32.2.39.79 1.18 1.29 2.07 1.29.88 0 1.68-.49 2.07-1.29.06-.12.19-.2.32-.2.14 0 .26.08.32.2.39.79 1.18 1.29 2.07 1.29.94 0 1.77-.56 2.13-1.43.08-.19.29-.27.47-.2.19.08.27.29.2.47a3.03 3.03 0 0 1-2.8 1.87zm0-3.49c-.95 0-1.83-.44-2.39-1.17-.57.73-1.44 1.17-2.39 1.17-.95 0-1.83-.44-2.39-1.17-.57.73-1.44 1.17-2.39 1.17s-1.83-.44-2.39-1.17a3.03 3.03 0 0 1-5.19-.7.35.35 0 0 1 .2-.47c.19-.08.4.01.47.2.36.87 1.19 1.43 2.13 1.43.88 0 1.68-.49 2.07-1.29.06-.12.19-.2.32-.2s.26.08.32.2c.39.79 1.18 1.29 2.07 1.29s1.68-.49 2.07-1.29c.06-.12.19-.2.32-.2.14 0 .26.08.32.2.39.79 1.18 1.29 2.07 1.29s1.68-.49 2.07-1.29c.06-.12.19-.2.32-.2.14 0 .26.08.32.2.39.79 1.18 1.29 2.07 1.29.94 0 1.77-.56 2.13-1.43.08-.19.29-.27.47-.2.19.08.27.29.2.47a3.015 3.015 0 0 1-2.8 1.87zM17.44 6.02c-.67-.55-1.53-.76-2.37-.6-1.68.31-2.67 2.23-2.02 3.79.52 1.26 1.84 1.94 3.17 1.69 1.29-.24 2.21-1.45 2.23-2.74-.02-.81-.38-1.61-1.01-2.14zm-.75 3.83c-.29.18-.63.28-.96.3-.35.02-.7-.06-.99-.21-.31-.16-.56-.38-.74-.64-.2-.29-.31-.62-.34-.94-.01-.16 0-.39.01-.5.03-.17.1-.4.15-.51.06-.13.19-.33.24-.4.11-.13.27-.29.37-.36.14-.1.34-.21.45-.26.19-.07.41-.12.56-.14.39-.03.76.04 1.08.21.34.17.59.41.78.72.2.32.3.67.3 1.05.01.68-.34 1.31-.91 1.68zM9.7 6.02c-.67-.55-1.53-.76-2.37-.6-1.68.32-2.67 2.24-2.02 3.8.52 1.26 1.84 1.94 3.17 1.69 1.29-.24 2.21-1.45 2.23-2.74-.01-.82-.37-1.62-1.01-2.15zm-.75 3.83c-.29.18-.63.28-.96.3-.35.02-.7-.06-.99-.21-.3-.16-.55-.39-.73-.65-.2-.29-.31-.62-.34-.94-.01-.16 0-.39.01-.5.03-.17.1-.4.15-.51.06-.13.19-.33.24-.4.11-.13.27-.29.37-.36.14-.1.34-.21.45-.26.19-.07.41-.12.56-.14.4-.02.77.06 1.09.22.34.17.59.41.78.72.2.32.3.67.3 1.05 0 .68-.35 1.31-.93 1.68z"/></svg>