<svg id="Layer_2" xmlns="http://www.w3.org/2000/svg" viewBox="0 0 24 24"><style>.st0{fill:#666}</style><path class="st0" d="M19.19 4.56A8.666 8.666 0 0 0 13 1.99h-.01c-2.35 0-4.56.92-6.23 2.58-1.97 1.96-2.65 4.4-2.1 7.47l.2.98c.32 1.55-.02 3.05-.89 3.92l-2.05 2.04c-.08.08-.12.18-.12.28 0 .11.04.21.12.28l2.19 2.2c.08.08.17.11.27.12.03.01.06.02.09.02h.01c.09 0 .17-.04.22-.1l.37-.43 1.65-1.64c1.04-1.04 2.71-1.13 3.92-.87l.99.21c3.06.57 5.51-.11 7.47-2.07a8.774 8.774 0 0 0 2.61-6.22c.03-2.34-.87-4.54-2.52-6.2zM6.17 19.15L4.4 20.91l-1.63-1.63.99-.99 3.68-3.22 1.25 1.25-2.34 2.67c-.07.05-.13.1-.18.16zm-.44-5.8l1.28 1.28-1.52 1.33c.27-.79.36-1.69.24-2.61zm2.16 4.8l1.23-1.4 1.24 1.24a5.64 5.64 0 0 0-2.47.16zm10.66-1.73c-1.77 1.76-3.98 2.36-6.75 1.85l-.04-.01a.425.425 0 0 0-.1-.17L5.67 12.1a.443.443 0 0 0-.2-.11l-.02-.09c-.5-2.79.11-5 1.88-6.75a7.993 7.993 0 0 1 5.66-2.35H13c2.13 0 4.12.83 5.62 2.33a7.841 7.841 0 0 1 2.3 5.64 7.972 7.972 0 0 1-2.37 5.65z"/><path class="st0" d="M15.07 11.47c-1.34 0-2.42 1.09-2.42 2.42 0 1.34 1.09 2.42 2.42 2.42s2.42-1.09 2.42-2.42c0-1.33-1.08-2.42-2.42-2.42zm1.58 2.43c0 .87-.71 1.58-1.58 1.58-.87 0-1.58-.71-1.58-1.58 0-.87.71-1.58 1.58-1.58.87 0 1.58.7 1.58 1.58z"/></svg>