<svg id="Layer_2" data-name="Layer 2" xmlns="http://www.w3.org/2000/svg" viewBox="0 0 20.08333 12.45393"><defs><style>.cls-1{fill:#41494f}</style></defs><title>Table_Games</title><circle class="cls-1" cx="3.347" cy="4.922" r=".837"/><circle class="cls-1" cx="3.347" cy="7.433" r=".837"/><circle class="cls-1" cx="3.347" cy="9.943" r=".837"/><circle class="cls-1" cx="6.695" cy="4.922" r=".837"/><circle class="cls-1" cx="6.695" cy="7.433" r=".837"/><circle class="cls-1" cx="6.695" cy="9.943" r=".837"/><path class="cls-1" d="M21.81 12.342l-3.293-5.705a1.727 1.727 0 0 0-2.358-.633l-.002.001-4.66 2.69a1.722 1.722 0 0 0-1.224-.51H3.686a1.73 1.73 0 0 0-1.728 1.727V16.5a1.73 1.73 0 0 0 1.728 1.728h6.587A1.73 1.73 0 0 0 12 16.499v-1.065l1.114 1.929a1.727 1.727 0 0 0 2.36.633l5.704-3.294a1.73 1.73 0 0 0 .633-2.36zm-10.647 4.157a.891.891 0 0 1-.89.89H3.686a.892.892 0 0 1-.89-.89V9.912a.892.892 0 0 1 .89-.89h6.587a.888.888 0 0 1 .725.376l.035.058a.93.93 0 0 1 .09.207l.01.028a.843.843 0 0 1 .03.221zm9.597-2.522l-5.705 3.293a.914.914 0 0 1-1.216-.326L12 13.76V9.912a1.728 1.728 0 0 0-.018-.235l-.005-.032a1.715 1.715 0 0 0-.05-.23l4.649-2.685a.914.914 0 0 1 1.216.326l3.294 5.704a.892.892 0 0 1-.326 1.217z" transform="translate(-1.958 -5.773)"/><path class="cls-1" d="M18.617 11.832a.86.86 0 0 0-1.143-.307.837.837 0 1 0 1.143.307zM17.446 10.293a.831.831 0 0 0-.084-.635.859.859 0 0 0-1.143-.307.837.837 0 1 0 1.227.942zM15.718 13.505a.86.86 0 0 0-1.143-.306.837.837 0 1 0 1.144.306zM14.547 11.966a.831.831 0 0 0-.084-.635.858.858 0 0 0-1.143-.306.837.837 0 1 0 1.227.941z" transform="translate(-1.958 -5.773)"/></svg>