<svg id="Layer_2" data-name="Layer 2" xmlns="http://www.w3.org/2000/svg" viewBox="0 0 20.01243 20.01561"><defs><style>.cls-1{fill:#41494f}</style></defs><title>Top_Games</title><path class="cls-1" d="M20.664 6.998A10 10 0 0 0 7.005 3.33l-.007.005a10.005 10.005 0 0 0 9.997 17.333l.007-.005a10.004 10.004 0 0 0 3.662-13.666zm-2.85-2.079L16.06 6.868a6.53 6.53 0 0 0-6.967-.737l-1.31-2.27A9.125 9.125 0 0 1 17.815 4.92zm-.864 4.223a5.716 5.716 0 0 1-4.944 8.574 5.716 5.716 0 1 1 4.944-8.574zm-13.808.484a9.105 9.105 0 0 1 3.917-5.35l1.315 2.278a6.53 6.53 0 0 0-2.854 6.397l-2.57.546a9.143 9.143 0 0 1 .192-3.87zm7.486 11.437a9.17 9.17 0 0 1-7.504-6.75l2.574-.547a6.506 6.506 0 0 0 5.205 4.687zm5.957-1.121a9.166 9.166 0 0 1-4.576 1.23c-.185 0-.369-.007-.552-.018l.275-2.613c.09.004.182.01.274.01a6.541 6.541 0 0 0 5.792-3.513l2.403 1.07a9.106 9.106 0 0 1-3.616 3.834zm4.273-5.568a9.313 9.313 0 0 1-.32.971l-2.399-1.068c.07-.19.134-.384.187-.582a6.522 6.522 0 0 0-1.645-6.27l1.756-1.951a9.146 9.146 0 0 1 2.421 8.9z" transform="translate(-1.994 -1.992)"/><path class="cls-1" d="M7.769 10.96l2.115 2.062-.5 2.912L12 14.56l2.615 1.375-.5-2.912 2.116-2.062-2.924-.425L12 7.885l-1.308 2.65zm4.23-1.19l.755 1.527 1.685.245-1.22 1.189.289 1.679L12 13.617l-1.508.793.288-1.68-1.22-1.188 1.686-.245z" transform="translate(-1.994 -1.992)"/></svg>