<svg id="Layer_2" data-name="Layer 2" xmlns="http://www.w3.org/2000/svg" viewBox="0 0 21.39974 20.596"><defs><style>.cls-1{fill:#41494f}</style></defs><title>Tournaments</title><path class="cls-1" d="M22.622 3.43a.42.42 0 0 0-.345-.18h-3.648V2.129a.42.42 0 0 0-.407-.426H5.788a.42.42 0 0 0-.42.42v1.123H1.72a.42.42 0 0 0-.396.561 8.551 8.551 0 0 0 4.032 4.817v3.087c0 3.15 2.755 5.734 6.223 5.928v3.818h-5.26a.42.42 0 1 0 0 .842H17.68a.42.42 0 0 0 0-.842h-5.26V17.65c3.467-.193 6.222-2.777 6.222-5.928V8.635a8.526 8.526 0 0 0 4.032-4.818.42.42 0 0 0-.053-.387zM5.356 7.67a7.606 7.606 0 0 1-3.013-3.578h3.013zm12.446 4.05c0 2.806-2.604 5.101-5.802 5.101s-5.802-2.289-5.802-5.1V2.544h11.604zm.841-4.05V4.092h3.013a7.609 7.609 0 0 1-3.013 3.578z" transform="translate(-1.3 -1.702)"/></svg>