<svg id="Layer_2" data-name="Layer 2" xmlns="http://www.w3.org/2000/svg" viewBox="0 0 19.65997 20.06"><defs><style>.cls-1{fill:#41494e}</style></defs><title>Transactions_History</title><path class="cls-1" d="M8.22 5.6c0-.32-.32-.52-.83-.52s-.82.19-.82.52v2.53a.826.826 0 0 0 .82.83h2.9v-.63h-2.9a.2.2 0 0 1-.2-.2V5.72a.65.65 0 0 1 .2-.02 1.134 1.134 0 0 1 .2.02v2.21h2.7V7.3H8.22z" transform="translate(-2.17 -1.97)"/><path class="cls-1" d="M13.59 7.68a5.71 5.71 0 1 0-5.71 5.71 5.71 5.71 0 0 0 5.71-5.71zm-5.71 5.11A5.115 5.115 0 1 1 13 7.68a5.115 5.115 0 0 1-5.12 5.11z" transform="translate(-2.17 -1.97)"/><path class="cls-1" d="M19.63 5.48v-.03H13.4v.64h5.62v13.34H6.65v-6.01h-.64v6.64h13.65V5.48h-.03z"/><path class="cls-1" d="M18.54 15.64v-2.03h-7.4v2.13h7.4zm-.63-.62h-6.15v-.69h6.15zM11.13 17.59V19h7.4v-2.02h-7.4zm.63.01h6.15v.79h-6.15zM18.53 12.48v-2.03H14.1v2.03h4.43zm-.62-.62h-3.19v-.79h3.19z" transform="translate(-2.17 -1.97)"/></svg>