<svg id="Layer_2" data-name="Layer 2" xmlns="http://www.w3.org/2000/svg" viewBox="0 0 19.97557 13.92186"><defs><style>.cls-1{fill:#666}</style></defs><title>TRIATHLON</title><path class="cls-1" d="M19.443 10.072h-.08a.563.563 0 0 0-.07-.01l-.1-.03h-.01a.01.01 0 0 1-.01-.01c-.06-.03-.12-.07-.18-.1a.554.554 0 0 1-.08-.06.138.138 0 0 0-.04-.03l-.01-.01a3.7 3.7 0 0 0-.92-.59 2.36 2.36 0 0 0-2.3.39c-.12.09-.23.18-.35.26a1.182 1.182 0 0 1-.19.11c-.01 0-.04.02-.05.02a.497.497 0 0 1-.13.04.425.425 0 0 1-.11.02c.06-.01-.07 0-.08 0a1.416 1.416 0 0 1-.23-.01 1.277 1.277 0 0 1-.47-.18c-.31-.18-.57-.42-.89-.58a2.04 2.04 0 0 0-1.33-.16 2.163 2.163 0 0 0-.96.58c-.05.04-.09.08-.14.12 0 0-.05.04-.06.05a.565.565 0 0 1-.13.08.908.908 0 0 1-.45.11.506.506 0 0 0-.13.02.507.507 0 0 0-.13-.02h-.08a.563.563 0 0 0-.07-.01l-.1-.03h-.01a.01.01 0 0 1-.01-.01c-.06-.03-.12-.07-.18-.1a.554.554 0 0 1-.08-.06.138.138 0 0 0-.04-.03l-.01-.01a3.7 3.7 0 0 0-.92-.59 2.36 2.36 0 0 0-2.3.39c-.12.09-.23.18-.35.26a1.182 1.182 0 0 1-.19.11c-.01 0-.04.02-.05.02a.495.495 0 0 1-.13.04.48.48 0 0 0-.12 0c.06-.01-.07 0-.08 0a1.416 1.416 0 0 1-.23-.01 1.277 1.277 0 0 1-.47-.18c-.31-.18-.57-.42-.89-.58a2.04 2.04 0 0 0-1.33-.16 2.163 2.163 0 0 0-.96.58 1.74 1.74 0 0 1-.14.12s-.05.04-.06.05a.568.568 0 0 1-.13.08.908.908 0 0 1-.45.11.435.435 0 0 0 0 .87 1.84 1.84 0 0 0 1.11-.38c.14-.11.27-.22.4-.33a.57.57 0 0 0 .08-.07l.01-.01c.01 0 .01-.01.02-.02a1.323 1.323 0 0 1 .2-.12c-.01.01.06-.03.07-.03l.12-.03c.01 0 .02 0 .02-.01h.19a.61.61 0 0 1 .22.03.682.682 0 0 1 .22.08c.32.16.59.4.89.58a1.977 1.977 0 0 0 2.24-.13c.12-.09.23-.18.35-.27a2.002 2.002 0 0 1 .19-.12c.03-.02.07-.04.1-.06.02-.01.03-.01.05-.02a.104.104 0 0 1 .04-.01 1.41 1.41 0 0 1 1.03.01l.07.03c.04.02.07.04.11.06a1.07 1.07 0 0 1 .22.15c.01 0 .04.03.06.04.02.02.04.03.06.05.08.07.17.13.25.2a1.76 1.76 0 0 0 1.03.38.506.506 0 0 0 .13-.02.507.507 0 0 0 .13.02 1.84 1.84 0 0 0 1.11-.38c.14-.11.27-.22.4-.33a.575.575 0 0 0 .08-.07l.01-.01c.01 0 .01-.01.02-.02a1.323 1.323 0 0 1 .2-.12c-.01.01.06-.03.07-.03l.12-.03c.01 0 .02 0 .02-.01h.19a.61.61 0 0 1 .22.03.683.683 0 0 1 .22.08c.32.16.59.4.89.58a1.977 1.977 0 0 0 2.24-.13c.12-.09.23-.18.35-.27a2.002 2.002 0 0 1 .19-.12c.03-.02.07-.04.1-.06.02-.01.03-.01.05-.02a.104.104 0 0 1 .04-.01 1.41 1.41 0 0 1 1.03.01l.07.03c.04.02.07.04.11.06a1.07 1.07 0 0 1 .22.15c.01 0 .04.03.06.04.02.02.04.03.06.05.08.07.17.13.25.2a1.76 1.76 0 0 0 1.03.38.436.436 0 1 0 .05-.87zm0 2.98h-.08a.563.563 0 0 0-.07-.01l-.1-.03h-.01a.01.01 0 0 1-.01-.01c-.06-.03-.12-.07-.18-.1a.55.55 0 0 1-.08-.06.14.14 0 0 0-.04-.03l-.01-.01a3.703 3.703 0 0 0-.92-.59 2.36 2.36 0 0 0-2.3.39c-.12.09-.23.18-.35.26a1.177 1.177 0 0 1-.19.11c-.01 0-.04.02-.05.02a.495.495 0 0 1-.13.04.425.425 0 0 1-.11.02c.06-.01-.07 0-.08 0a1.416 1.416 0 0 1-.23-.01 1.277 1.277 0 0 1-.47-.18c-.31-.18-.57-.42-.89-.58a2.04 2.04 0 0 0-1.33-.16 2.164 2.164 0 0 0-.96.58c-.05.04-.09.08-.14.12 0 0-.05.04-.06.05a.567.567 0 0 1-.13.08.91.91 0 0 1-.45.11.506.506 0 0 0-.13.02.507.507 0 0 0-.13-.02h-.08a.563.563 0 0 0-.07-.01l-.1-.03h-.01a.01.01 0 0 1-.01-.01c-.06-.03-.12-.07-.18-.1a.55.55 0 0 1-.08-.06.138.138 0 0 0-.04-.03l-.01-.01a3.703 3.703 0 0 0-.92-.59 2.36 2.36 0 0 0-2.3.39c-.12.09-.23.18-.35.26a1.177 1.177 0 0 1-.19.11c-.01 0-.04.02-.05.02a.497.497 0 0 1-.13.04.48.48 0 0 0-.12 0c.06-.01-.07 0-.08 0a1.416 1.416 0 0 1-.23-.01 1.276 1.276 0 0 1-.47-.18c-.31-.18-.57-.42-.89-.58a2.04 2.04 0 0 0-1.33-.16 2.164 2.164 0 0 0-.96.58 1.738 1.738 0 0 1-.14.12s-.05.04-.06.05a.568.568 0 0 1-.13.08.908.908 0 0 1-.45.11.435.435 0 0 0 0 .87 1.84 1.84 0 0 0 1.11-.38c.14-.11.27-.22.4-.33a.57.57 0 0 0 .08-.07l.01-.01c.01 0 .01-.01.02-.02a1.323 1.323 0 0 1 .2-.12c-.01.01.06-.03.07-.03l.12-.03c.01 0 .02 0 .02-.01h.19a.61.61 0 0 1 .22.03.68.68 0 0 1 .22.08c.32.16.59.4.89.58a1.977 1.977 0 0 0 2.24-.13c.12-.09.23-.18.35-.27a2.002 2.002 0 0 1 .19-.12c.03-.02.07-.04.1-.06.02-.01.03-.01.05-.02a.104.104 0 0 1 .04-.01 1.41 1.41 0 0 1 1.03.01l.07.03c.04.02.07.04.11.06a1.072 1.072 0 0 1 .22.15c.01 0 .04.03.06.04.02.02.04.03.06.05.08.07.17.13.25.2a1.76 1.76 0 0 0 1.03.38.506.506 0 0 0 .13-.02.507.507 0 0 0 .13.02 1.84 1.84 0 0 0 1.11-.38c.14-.11.27-.22.4-.33a.575.575 0 0 0 .08-.07l.01-.01c.01 0 .01-.01.02-.02a1.323 1.323 0 0 1 .2-.12c-.01.01.06-.03.07-.03l.12-.03c.01 0 .02 0 .02-.01h.19a.61.61 0 0 1 .22.03.682.682 0 0 1 .22.08c.32.16.59.4.89.58a1.977 1.977 0 0 0 2.24-.13c.12-.09.23-.18.35-.27a2.002 2.002 0 0 1 .19-.12c.03-.02.07-.04.1-.06.02-.01.03-.01.05-.02a.104.104 0 0 1 .04-.01 1.41 1.41 0 0 1 1.03.01l.07.03c.04.02.07.04.11.06a1.072 1.072 0 0 1 .22.15c.01 0 .04.03.06.04.02.02.04.03.06.05.08.07.17.13.25.2a1.76 1.76 0 0 0 1.03.38.436.436 0 1 0 .05-.87zm-5.46-7.16a2.977 2.977 0 0 0 1.3-5.2 3.07 3.07 0 0 0-2.53-.64 2.984 2.984 0 0 0 1.23 5.84zm-2.69-3.24a2.91 2.91 0 0 1 .16-.54 3.714 3.714 0 0 1 .26-.43 2.287 2.287 0 0 1 .39-.38 2.18 2.18 0 0 1 .48-.27 2.506 2.506 0 0 1 .6-.15 2.105 2.105 0 0 1 1.15.22 2.104 2.104 0 0 1 1.15 1.88 2.152 2.152 0 0 1-.99 1.79 2.108 2.108 0 0 1-1.02.32 2.087 2.087 0 0 1-1.83-.9 2.13 2.13 0 0 1-.36-1 2.326 2.326 0 0 1 .01-.54z"/><path class="cls-1" d="M1.463 5.162a1.75 1.75 0 0 0 1.63-1.04 1.493 1.493 0 0 1 .18-.3l.01-.01.06-.06a.9.9 0 0 1 .1-.09c0 .01.08-.05.1-.07l.03-.03a.035.035 0 0 0 .02-.01.832.832 0 0 1 .15-.04h.21a1.462 1.462 0 0 1 .2.05 1.334 1.334 0 0 1 .18.07c-.03-.01.06.03.07.03a1.09 1.09 0 0 1 .15.08 5.07 5.07 0 0 1 1.05.79 8.428 8.428 0 0 1 .83.86l-4.47 1.65c-.26.1-.52.19-.78.29a.44.44 0 0 0-.3.54.433.433 0 0 0 .54.3c1.7-.63 3.41-1.25 5.11-1.88.26-.1.52-.19.78-.29a.44.44 0 0 0 .19-.73 9.08 9.08 0 0 0-2.73-2.4 1.8 1.8 0 0 0-1.77.02 1.946 1.946 0 0 0-.58.63c-.07.11-.12.24-.19.35a.437.437 0 0 1-.04.07c.02-.03-.03.04-.04.05l-.08.08a.218.218 0 0 1-.05.04c-.05.04-.11.07-.17.11-.01 0-.01.01-.02.01-.03.01-.06.02-.1.03-.03.01-.06.01-.09.02a.06.06 0 0 0-.04.01 1.204 1.204 0 0 1-.19 0h-.01a.813.813 0 0 1-.11-.03c-.01 0-.03-.01-.04-.01a.33.33 0 0 1-.06-.03.912.912 0 0 1-.08-.05.01.01 0 0 1-.01-.01.46.46 0 0 1-.07-.07c-.01 0-.01-.01-.02-.02l-.02-.02c-.01-.03-.03-.06-.04-.09 0-.01-.01-.01-.01-.02v-.01a1.46 1.46 0 0 1-.05-.2c0 .03-.02-.07-.02-.08v-.13a.487.487 0 0 1 .01-.12.128.128 0 0 1 .01-.06v-.02a2.544 2.544 0 0 1 .13-.45c-.02.02.02-.08.03-.08.02-.04.04-.07.06-.11a2.126 2.126 0 0 1 .16-.25 2.98 2.98 0 0 1 .74-.66 3.402 3.402 0 0 1 1.12-.44 3.468 3.468 0 0 1 2.39.3 9.005 9.005 0 0 1 2.26 1.67c.73.69 1.41 1.43 2.11 2.15a17.913 17.913 0 0 0 2.28 2.08 2.813 2.813 0 0 0 1.96.64 12.994 12.994 0 0 0 2.15-.43c.64-.17 1.27-.39 1.91-.53a.037.037 0 0 0 .03-.01.277.277 0 0 0 .09-.01h.14a1.09 1.09 0 0 1 .17.05.035.035 0 0 0 .02.01.405.405 0 0 1 .09.05.21.21 0 0 1 .06.04l.01.01.12.12c-.03-.03.05.07.06.09a.567.567 0 0 0 .05.08.076.076 0 0 0 .02.04c.01.04.03.08.04.12.01.03.01.06.02.09v.18a.255.255 0 0 1-.02.07c-.01.02-.01.04-.02.06v.01c-.01.02-.06.09-.07.11-.03.03-.07.06-.08.07-.05.03-.15.08-.08.05a.446.446 0 0 0-.3.54.438.438 0 0 0 .54.3 1.388 1.388 0 0 0 .86-1.64 1.666 1.666 0 0 0-1.33-1.3 2.427 2.427 0 0 0-1.1.14c-.37.11-.74.21-1.12.31-.42.11-.83.22-1.26.31-.19.04-.38.08-.57.11-.23.04-.28.05-.48.07a2.41 2.41 0 0 1-.38.01c.01 0-.13-.02-.16-.03-.07-.02-.15-.05-.22-.07.03.01-.06-.03-.07-.03-.04-.02-.07-.04-.11-.06-.08-.04-.15-.09-.23-.13-.16-.1-.34-.23-.47-.33a22.647 22.647 0 0 1-2.3-2.19c-.68-.7-1.35-1.42-2.07-2.07a8.982 8.982 0 0 0-2.35-1.63 4.46 4.46 0 0 0-2.77-.28 4.12 4.12 0 0 0-2.21 1.22 2.79 2.79 0 0 0-.72 2.2 1.488 1.488 0 0 0 1.44 1.27z"/></svg>