<svg id="Layer_2" data-name="Layer 2" xmlns="http://www.w3.org/2000/svg" viewBox="0 0 19.66667 21.07182"><defs><style>.cls-1{fill:#474c50}</style></defs><title>User</title><path class="cls-1" d="M12 14.03c3.245 0 5.317-4.84 5.317-7.382A5.26 5.26 0 0 0 12 1.464a5.254 5.254 0 0 0-5.317 5.184c0 2.536 2.072 7.382 5.317 7.382zm0-11a3.673 3.673 0 0 1 3.716 3.618c0 2.142-1.834 5.823-3.716 5.823S8.284 8.755 8.284 6.648A3.673 3.673 0 0 1 12 3.031z" transform="translate(-2.167 -1.464)"/><path class="cls-1" d="M21.826 17.352c0-3.87-4.91-5.113-5.12-5.162a.8.8 0 0 0-.97.569l-.003.014a.78.78 0 0 0 .587.934c.042.014 3.912.997 3.912 3.645v3.618H3.762v-3.618c0-2.648 3.87-3.645 3.911-3.645l.015-.003a.78.78 0 0 0 .568-.945.8.8 0 0 0-.969-.57c-.204.057-5.12 1.293-5.12 5.163v5.184h19.666z" transform="translate(-2.167 -1.464)"/></svg>