<svg id="Layer_2" data-name="Layer 2" xmlns="http://www.w3.org/2000/svg" viewBox="0 0 20.01591 15.375"><defs><style>.cls-1{fill:#41494f}</style></defs><title>Vegas</title><path class="cls-1" d="M11.995 14.874a30.254 30.254 0 0 1 1.236-3.691c.139-.32-.312-.747-.383-.93-.16-.4-.615-.4-1.033-.253-.065.024-.236.13-.296.163a32.478 32.478 0 0 0-3.213 3.28c-.332.316-.855.606-.94.151-.06-.318-.048-.513.115-.552a2.53 2.53 0 0 0 1.803-1.145.883.883 0 0 0 .067-1.033c-.48-.703-.764-.959-1.539-.216-1.342 1.288-1.622 2.697-1.156 3.44a1.184 1.184 0 0 0 1.591.448 12.579 12.579 0 0 0 1.754-1.892c-.015.433-.126.805.145 1.12.063.073.559.631 1.331-.254a13.491 13.491 0 0 1-.785 1.483 11.463 11.463 0 0 0-3.031.418c-.217.132-.802.903-.449 1.032.122.046 2.027-.249 2.999-.374a24.387 24.387 0 0 0-1.148 2.184 1.113 1.113 0 0 0 1.278 1.414c.81-.102.786-1.472 1.416-3.851 4.42-.843 4.423-.843 10.251-1.847-.007-.002-8.621.755-10.013.905zm-3.343-4.086a2.855 2.855 0 0 1-1.14 1.659 2.513 2.513 0 0 1 1.14-1.659zm1.728 7.652l.004.002c-.039.294-.123.433-.245.433-.402 0-.394-.314-.29-.542s.903-1.68.903-1.68-.333 1.494-.372 1.787zm.476-5.233a2.04 2.04 0 0 1 .26-1.124 4.113 4.113 0 0 1 .79-1.18 1.75 1.75 0 0 1 .334-.27.175.175 0 0 1 .064-.03 1.713 1.713 0 0 1-.186.777 4.054 4.054 0 0 1-1.262 1.827z" transform="translate(-1.992 -4.313)"/><path class="cls-1" d="M13.324 12.932a1.06 1.06 0 0 0 .697.74.722.722 0 0 0 .773-.374 3.482 3.482 0 0 0 .331-.71 3.511 3.511 0 0 0 .165.712c.305.626.937.433 1.349-.095a9.381 9.381 0 0 0 .818-1.187 8.98 8.98 0 0 0 .474-.812c.091.54.682.814.26.886s-.507.097-.65.303a.782.782 0 0 0-.058.65.911.911 0 0 0 1.1.493 1.026 1.026 0 0 0 .788-.788.303.303 0 0 1 .216-.188c.535-.044.8.101 1.027-.381.114-.243.02-.615-.232-.622s-.242.093-.85.197c-.135.024-.2.033-.241-.13-.163-.612-.515-.753-.684-1.363-.109-.39.353-.702.433-1.083.097-.491-.46-.697-.758-.303a3.128 3.128 0 0 0-.433.944 2.814 2.814 0 0 1-.277.706c-.284.47-.54.963-.832 1.426-.188.3-.792 1.156-.684.58.098-.515.184-1.032.286-1.547a.792.792 0 0 0-.201-.767 2.382 2.382 0 0 1-.316-.394.489.489 0 0 0-.665-.244 1.782 1.782 0 0 0-.496.305 4.583 4.583 0 0 0-1.251 1.985 1.715 1.715 0 0 0-.089 1.06zm5.099-.091c.017.071-.08.169-.137.173a.292.292 0 0 1-.246-.078.12.12 0 0 1-.04-.163l.011-.017c.048-.056.158-.101.342-.028.018.028.074.028.07.113zm-3.921-1.277a3.68 3.68 0 0 1 .708-1.057 1.565 1.565 0 0 1 .299-.242.156.156 0 0 1 .058-.029 1.533 1.533 0 0 1-.167.695 3.533 3.533 0 0 1-1.13 1.641 1.799 1.799 0 0 1 .232-1.008zM12.874 5.383c.701-.31.51-.462.398-.546a1.777 1.777 0 0 0-1.732-.42C6.27 6.93 4.465 14.252 4.47 14.21A36.961 36.961 0 0 1 5.551 7.38a1.574 1.574 0 0 0-.314-1.42.27.27 0 0 0-.448-.014 16.698 16.698 0 0 1-2.696 2.282c-.136.087-.136.204 0 .308a.65.65 0 0 0 .189.1.968.968 0 0 0 .703-.057 4.579 4.579 0 0 0 1.35-.736 66.91 66.91 0 0 0-.711 7.744 1.083 1.083 0 0 0 .53.883c.286.193.763.234.814-.108a13.588 13.588 0 0 1 7.905-10.978z" transform="translate(-1.992 -4.313)"/></svg>