<svg id="Layer_2" data-name="Layer 2" xmlns="http://www.w3.org/2000/svg" viewBox="0 0 19.96914 19.2728"><defs><style>.cls-1{fill:#41494f}</style></defs><title>Vegas_Jackpots</title><path class="cls-1" d="M14.663 7.069l-9.82-.016a.37.37 0 0 0-.371.37l-.008 4.97a.37.37 0 0 0 .37.37l9.82.016a.37.37 0 0 0 .37-.369l.008-4.97a.37.37 0 0 0-.37-.371zm-6.925 4.959l-2.533-.004.007-4.23 2.532.004zm3.273.005l-2.532-.004.006-4.23 2.533.005zm3.273.005l-2.532-.004.003-1.744 2.532.004zm.004-2.485l-2.532-.004.003-1.744 2.532.004z" transform="translate(-2.015 -2.364)"/><path class="cls-1" d="M21.943 8.255a1.618 1.618 0 0 0-1.576-1.253 1.618 1.618 0 0 0-.377 3.193l-.02 4.91a1.648 1.648 0 0 1-1.65 1.644h-.865l.016-9.727a2.389 2.389 0 0 0-2.361-2.389l.002-1.212a1.044 1.044 0 0 0-1.041-1.044l-8.622-.013a1.043 1.043 0 0 0-1.044 1.04l-.002 1.212a2.389 2.389 0 0 0-2.368 2.382l-.02 12.23a2.39 2.39 0 0 0 2.383 2.391l10.663.017a2.39 2.39 0 0 0 2.39-2.383l.003-1.764.865.001a2.39 2.39 0 0 0 2.391-2.382l.02-4.911a1.618 1.618 0 0 0 1.213-1.942zM5.146 3.405a.302.302 0 0 1 .302-.3l8.622.013a.302.302 0 0 1 .301.302l-.002 1.21-9.225-.014zM16.71 19.253a1.648 1.648 0 0 1-1.648 1.644L4.4 20.879a1.648 1.648 0 0 1-1.644-1.649l.02-12.231a1.648 1.648 0 0 1 1.648-1.644l10.663.017a1.648 1.648 0 0 1 1.643 1.65zm4.533-10.63z" transform="translate(-2.015 -2.364)"/><path class="cls-1" d="M9.74 15.342a1.487 1.487 0 1 0 1.484 1.49 1.489 1.489 0 0 0-1.484-1.49zm-.004 2.234a.746.746 0 1 1 .747-.745.746.746 0 0 1-.747.745zM13.533 15.349a1.487 1.487 0 1 0 1.484 1.489 1.487 1.487 0 0 0-1.484-1.49zm.744 1.488a.746.746 0 1 1-.745-.748.747.747 0 0 1 .745.748zM5.946 15.336a1.487 1.487 0 1 0 1.485 1.49 1.487 1.487 0 0 0-1.485-1.49zm-.004 2.234a.746.746 0 1 1 .748-.745.746.746 0 0 1-.748.745z" transform="translate(-2.015 -2.364)"/></svg>