<svg id="Layer_2" data-name="Layer 2" xmlns="http://www.w3.org/2000/svg" viewBox="0 0 20.44836 16.18828"><defs><style>.cls-1{fill:#41494f}</style></defs><title>Vegas_Tables</title><path class="cls-1" d="M19.632 3.906H4.368a2.595 2.595 0 0 0-2.592 2.592V9.87a10.224 10.224 0 1 0 20.448 0V6.498a2.595 2.595 0 0 0-2.592-2.592zm1.74 5.964a9.372 9.372 0 0 1-18.744 0V6.498a1.742 1.742 0 0 1 1.74-1.74h15.264a1.742 1.742 0 0 1 1.74 1.74z" transform="translate(-1.776 -3.906)"/><path class="cls-1" d="M17.538 8.166a5.538 5.538 0 0 1-11.076 0H4.945v.852h.723a6.338 6.338 0 0 0 .452 1.648l-.75.432.427.738.71-.41a6.436 6.436 0 0 0 1.324 1.576l-.853.853.603.602.903-.904-.178-.178a6.368 6.368 0 0 0 7.387 0l-.177.178.903.904.603-.602-.853-.853a6.434 6.434 0 0 0 1.324-1.576l.71.41.426-.738-.749-.432a6.336 6.336 0 0 0 .452-1.648h.723v-.852h-1.517z" transform="translate(-1.776 -3.906)"/><path class="cls-1" d="M7.668 2.556h5.112v.852H7.668z"/></svg>