<svg id="Layer_2" data-name="Layer 2" xmlns="http://www.w3.org/2000/svg" viewBox="0 0 20.01698 19.89482"><defs><style>.cls-1{fill:#41494f}</style></defs><title>Video_Poker</title><path class="cls-1" d="M14.878 7.769a3.004 3.004 0 0 0-1.107-1.6L17.3 2.643l-.59-.59-3.705 3.706a2.915 2.915 0 0 0-2.008 0L7.29 2.053l-.59.59 3.527 3.527a3.004 3.004 0 0 0-1.106 1.599h-7.13v14.178h20.017V7.77zM12 6.413a2.174 2.174 0 0 1 2 1.356H10A2.174 2.174 0 0 1 12 6.413zm9.174 14.7H2.826V8.603h18.348z" transform="translate(-1.992 -2.053)"/><path class="cls-1" d="M6.26 20.28h8.143a2.604 2.604 0 0 0 2.6-2.602v-5.64a2.604 2.604 0 0 0-2.6-2.601H6.26a2.604 2.604 0 0 0-2.6 2.6v5.641a2.604 2.604 0 0 0 2.6 2.601zm-1.767-8.242A1.769 1.769 0 0 1 6.26 10.27h8.143a1.769 1.769 0 0 1 1.767 1.767v5.64a1.769 1.769 0 0 1-1.767 1.767H6.26a1.769 1.769 0 0 1-1.767-1.767z" transform="translate(-1.992 -2.053)"/><circle class="cls-1" cx="17.515" cy="10.303" r=".834"/><circle class="cls-1" cx="17.515" cy="13.639" r=".834"/><path class="cls-1" d="M10.258 17.868a.442.442 0 0 0 .105-.011c.473-.112 2.849-2.575 2.891-3.977a1.638 1.638 0 0 0-2.84-1.164 1.64 1.64 0 0 0-2.905.99c-.04 1.348 2.226 4.146 2.75 4.162zM9.173 12.85a.905.905 0 0 1 .86.717.366.366 0 0 0 .71.022.906.906 0 0 1 1.779.268c-.028.927-1.67 2.71-2.239 3.197-.539-.52-2.07-2.4-2.042-3.326a.905.905 0 0 1 .932-.878z" transform="translate(-1.992 -2.053)"/></svg>