<svg id="Layer_2" data-name="Layer 2" xmlns="http://www.w3.org/2000/svg" viewBox="0 0 20.05859 13.74296"><defs><style>.cls-1{fill:#41494f}</style></defs><title>Virtuals</title><path class="cls-1" d="M21.678 15.75H20.55V6.272a1.241 1.241 0 0 0-1.222-1.143H4.622a1.18 1.18 0 0 0-1.178 1.178v9.447H2.322a.352.352 0 0 0-.351.352v.967a1.805 1.805 0 0 0 1.807 1.798h16.448a1.805 1.805 0 0 0 1.803-1.803v-.967a.352.352 0 0 0-.351-.351zm-.347 1.318a1.106 1.106 0 0 1-1.105 1.105H3.778a1.106 1.106 0 0 1-1.105-1.105v-.616h1.118a.352.352 0 0 0 .351-.351V6.307a.48.48 0 0 1 .48-.48h14.712a.552.552 0 0 1 .523.502V16.1a.352.352 0 0 0 .352.351h1.122z" transform="translate(-1.97 -5.129)"/><path class="cls-1" d="M18.715 6.593H5.405a.351.351 0 0 0-.35.35l.002.021-.003.001v8.773l.003.03c0 .009-.003.019-.003.029a.357.357 0 0 0 .351.352h4.79l.01.034a.788.788 0 0 0 .728.573h2.133a.785.785 0 0 0 .728-.573l.01-.034H18.6a.562.562 0 0 0 .468-.411V6.965h-.003l.003-.022a.351.351 0 0 0-.352-.35zm-7.784 9.46l-.015-.014a.212.212 0 0 1-.053-.15v-.091a.352.352 0 0 0-.352-.352H5.756v-8.15h4l.003.033.011-.033h4.58l.011.033.003-.033h4v4.9h-1.126a1.288 1.288 0 0 0 .367-1.013c-.038-.309-.286-1.041-1.786-1.189h-1.166a1.02 1.02 0 1 0-1.016 1.355l.33.652-.067.195h-.096a6.701 6.701 0 0 1-2.363-2.177l-.046-.06a.466.466 0 0 0-.506-.116.471.471 0 0 0-.295.353l-.306.758-1.068.896a.769.769 0 0 0-.067 1.085q.024.026.05.05a.745.745 0 0 0 .61.193l.994-.164a12.035 12.035 0 0 0 1.588 3.04zm3.679-4.283l-.313-.618h.001a1.025 1.025 0 0 0 .208-.207l.006-.008a1.014 1.014 0 0 0 .067-.105l.022-.04a1.007 1.007 0 0 0 .048-.11l.005-.01 1.13-.002c.67.067 1.11.296 1.149.597.034.274-.268.686-.89.929h-1.405a.549.549 0 0 0-.028-.426zm-.574-1.45l-.002.028a.342.342 0 0 1-.24.31l-.04.012a.343.343 0 1 1 .282-.35zm4.328 5.126H13.49a.352.352 0 0 0-.352.352v.037a12.07 12.07 0 0 1-1.751-3.278l-.069-.314-1.602.264a.06.06 0 0 1-.05-.017.087.087 0 0 1-.026-.066.085.085 0 0 1 .022-.06l1.192-1 .252-.623a7.856 7.856 0 0 0 2.445 2.09l.077.042h2.108L16 14.478l-.47-.027-.038.677.634.036h.032a.549.549 0 0 0 .528-.696l-.264-1.595h1.942z" transform="translate(-1.97 -5.129)"/></svg>