<svg id="Layer_2" xmlns="http://www.w3.org/2000/svg" viewBox="0 0 24 24"><style>.st0{fill:#666}</style><path class="st0" d="M12.11 1.91c-5.51 0-9.98 4.47-9.98 9.98s4.47 9.98 9.98 9.98 9.98-4.47 9.98-9.98-4.47-9.98-9.98-9.98zm0 .73c.61 0 1.2.06 1.78.17-3.81 1.02-6.72 3.3-9.1 5.88-.34-.23-.69-.48-1.03-.77a9.235 9.235 0 0 1 8.35-5.28zm3.28.6c.88.33 1.69.79 2.41 1.36-3.29.89-6.52 2.97-9.29 5.79-1.04-.34-2.07-.73-3.07-1.3 2.57-2.77 5.7-5.1 9.95-5.85zm3.1 1.95c.52.5.99 1.06 1.38 1.67-3.21.94-5.77 2.54-7.86 4.61-.91-.31-1.81-.56-2.71-.82 2.78-2.76 5.99-4.72 9.19-5.46zm1.77 2.33c.7 1.3 1.1 2.79 1.1 4.37 0 2.29-.83 4.37-2.2 5.99.93-3.64.07-6.58-.59-9.8.54-.21 1.1-.4 1.69-.56zm-2.39.84c.74 3.59 1.64 6.59.17 10.62-.76.63-1.62 1.15-2.55 1.51.9-3.26.88-6.95-.16-10.77.78-.5 1.63-.96 2.54-1.36zm-14.41.27c2.71 2.19 5.58 2.62 8.3 3.53.05.97.09 1.94.09 2.9-3.81-1-6.6-2.33-8.84-4.75.09-.58.24-1.14.45-1.68zm11.22 1.54c1 3.8.94 7.45-.05 10.61-.8.23-1.65.35-2.52.35-.17 0-.34-.01-.51-.01 1.18-2.92 1.04-6.03.89-9.08.67-.68 1.4-1.3 2.19-1.87zM2.89 11.26c2.32 2.3 5.21 3.6 8.95 4.56-.03 1.03-.12 2.05-.32 3.04-2.49-.5-5.6-1.33-8.34-4.61-.2-.75-.3-1.54-.3-2.35-.02-.22-.01-.43.01-.64zm.95 4.76c2.56 2.38 5.33 3.11 7.5 3.55-.13.5-.3.99-.51 1.47a9.217 9.217 0 0 1-6.99-5.02zm0 0"/></svg>