<svg id="Layer_2" data-name="Layer 2" xmlns="http://www.w3.org/2000/svg" viewBox="0 0 20.03998 18.35999"><defs><style>.cls-1{fill:#41494e}</style></defs><title>Withdraw</title><path class="cls-1" d="M20.98 8.43h-.46V4.92a2.1 2.1 0 0 0-2.1-2.1H4.08a2.1 2.1 0 0 0-2.1 2.1v14.16a2.1 2.1 0 0 0 2.1 2.1h14.35a2.1 2.1 0 0 0 2.1-2.1v-3.52h.46a1.028 1.028 0 0 0 1.03-1.027V9.46a1.044 1.044 0 0 0-1.04-1.03zm-1.19 10.64a1.361 1.361 0 0 1-1.36 1.36H4.08a1.361 1.361 0 0 1-1.36-1.36V4.92a1.361 1.361 0 0 1 1.36-1.36h14.35a1.361 1.361 0 0 1 1.36 1.36v3.51h-4.2a3.203 3.203 0 0 0-3.2 3.2v.73a3.203 3.203 0 0 0 3.2 3.2h4.2zm1.49-4.55a.3.3 0 0 1-.3.3h-5.39a2.458 2.458 0 0 1-2.46-2.456v-.734a2.458 2.458 0 0 1 2.456-2.46h5.394a.3.3 0 0 1 .3.3z" transform="translate(-1.98 -2.82)"/><path class="cls-1" d="M15.933 10.29h-.003a1.699 1.699 0 1 0 .003 0zm-.003 2.67a.97.97 0 1 1 .97-.97.97.97 0 0 1-.97.97z" transform="translate(-1.98 -2.82)"/></svg>