<svg id="Layer_2" xmlns="http://www.w3.org/2000/svg" viewBox="0 0 24 24"><style>.st0{fill:#666}</style><path class="st0" d="M22.05 17.07a.376.376 0 0 0-.35-.2l-8.64.64-1.24.05v-.98h3.13c3.33 0 4.68-1.35 5.22-2.48.89-1.84.28-4.38-1.62-6.78-1.42-1.79-3.68-3.22-6.73-4.25v-.2c0-.2-.16-.36-.36-.36-.2 0-.36.16-.36.36v.88c-1.53 5.88-3.15 9.38-7.72 12.16a.37.37 0 0 0-.16.42c.04.16.19.27.35.27h7.53v1.01l-7.78.32c-.1 0-.19.05-.26.12-.07.08-.1.17-.09.27l.22 2.3c-.23.09-.48.14-.73.14-.2 0-.36.16-.36.36s.16.36.36.36c.93 0 1.79-.46 2.36-1.22.57.77 1.43 1.22 2.36 1.22.93 0 1.79-.46 2.36-1.22.57.77 1.43 1.22 2.36 1.22.93 0 1.79-.46 2.36-1.22.57.77 1.43 1.22 2.36 1.22.93 0 1.79-.46 2.36-1.22.01.02.03.04.05.06.01.02.03.04.05.06.57.69 1.38 1.11 2.26 1.11.2 0 .36-.16.36-.36s-.16-.36-.36-.36c-.57 0-1.11-.24-1.53-.65l2.21-2.64c.08-.12.1-.28.03-.41zm-4.07-9.29c1.7 2.15 2.29 4.45 1.54 6.02-.65 1.35-2.23 2.07-4.57 2.07h-2.78c2.27-3.28 2.29-6.54.1-11.85 2.57.95 4.49 2.22 5.71 3.76zm-6.16 7.31V4.85c1.97 5.04 1.58 7.79 0 10.24zm-7.02.77c2.7-1.86 4.65-4.27 6.3-9.48v9.48H4.8zm14.56 3.65c-.02-.04-.04-.07-.06-.1a.363.363 0 0 0-.66 0c-.4.84-1.18 1.36-2.03 1.36-.85 0-1.63-.52-2.03-1.36a.363.363 0 0 0-.66 0c-.4.84-1.18 1.36-2.03 1.36-.85 0-1.63-.52-2.03-1.36a.349.349 0 0 0-.32-.21c-.14 0-.27.08-.33.21-.4.84-1.18 1.36-2.03 1.36-.85 0-1.63-.52-2.03-1.36a.363.363 0 0 0-.66 0c-.15.31-.36.59-.61.8l-.15-1.58 9.37-.39 7.79-.58-1.53 1.85z"/></svg>