<svg id="Layer_2" data-name="Layer 2" xmlns="http://www.w3.org/2000/svg" viewBox="0 0 17.01012 19.73999"><defs><style>.cls-1{fill:#41494e}</style></defs><title>Your_Messages</title><path class="cls-1" d="M20.385 10.39l-1.59-1.26V2.79a.666.666 0 0 0-.66-.66H5.855a.666.666 0 0 0-.66.66v6.34l-1.58 1.25a.303.303 0 0 0-.12.25v10.24a1.003 1.003 0 0 0 1 1h15.01a1.003 1.003 0 0 0 1-1V10.64a.334.334 0 0 0-.12-.25zm-1.59-.44l.87.69-.87.69zm-12.97-.66v-6.5c.01-.01.02-.02.03-.02h12.28a.021.021 0 0 1 .02.02v9.04l-2.83 2.24h-6.67l-2.83-2.24zm8.7 5.42l-1.25.99a2.06 2.06 0 0 1-2.57 0l-1.24-.99zm-9.33-4.76v1.38l-.87-.69zM4.125 20.9v-9.6l6.06 4.8zm.6.34l5.99-4.74c.01-.01.02-.02.03-.02a2.675 2.675 0 0 0 2.5 0c.01.01.02.01.03.02l5.99 4.74zm15.14-.37v.02l-6.06-4.79 6.06-4.8z" transform="translate(-3.495 -2.13)"/><path class="cls-1" d="M7.905 5.16h2.39a.32.32 0 1 0 0-.64h-2.39a.316.316 0 0 0-.32.312v.008a.322.322 0 0 0 .32.32zM7.585 6.54a.32.32 0 0 0 .32.32h3.75a.32.32 0 0 0 0-.64h-3.75a.32.32 0 0 0-.32.32zM9.625 9.27a.316.316 0 0 0 .312.32h4.098a.32.32 0 0 0 0-.64h-4.09a.33.33 0 0 0-.32.32zM7.905 11.3h8.19a.32.32 0 1 0 0-.64h-8.19a.32.32 0 0 0 0 .64zM16.415 12.688v-.008a.316.316 0 0 0-.312-.32H7.905a.32.32 0 0 0 0 .64h8.19a.316.316 0 0 0 .32-.312z" transform="translate(-3.495 -2.13)"/></svg>