<svg xmlns="http://www.w3.org/2000/svg" style="display: none;">
    <symbol id="tile" viewBox="0 0 24 24">
      <g id="Artboard-1" transform="translate(-467.000000, -479.000000)">
        <g id="slice" transform="translate(215.000000, 119.000000)"/>
          <path d="M468,480 L468,486 L474,486 L474,480 L468,480 Z M476,480 L476,486 L482,486 L482,480 L476,480 Z M484,480 L484,486 L490,486 L490,480 L484,480 Z M468,488 L468,494 L474,494 L474,488 L468,488 Z M476,488 L476,494 L482,494 L482,488 L476,488 Z M484,488 L484,494 L490,494 L490,488 L484,488 Z M468,496 L468,502 L474,502 L474,496 L468,496 Z M476,496 L476,502 L482,502 L482,496 L476,496 Z M484,496 L484,502 L490,502 L490,496 L484,496 Z" />
        </g>
      </g>
    </symbol>
    <symbol id="list" viewBox="0 0 48 48">
      <path d="M8 21c-1.66 0-3 1.34-3 3s1.34 3 3 3 3-1.34 3-3-1.34-3-3-3zm0-12c-1.66 0-3 1.34-3 3s1.34 3 3 3 3-1.34 3-3-1.34-3-3-3zm0 24.33c-1.47 0-2.67 1.19-2.67 2.67s1.2 2.67 2.67 2.67 2.67-1.19 2.67-2.67-1.2-2.67-2.67-2.67zm6 4.67h28v-4h-28v4zm0-12h28v-4h-28v4zm0-16v4h28v-4h-28z"/>
      <path d="M0 0h48v48h-48z" fill="none"/>
    </symbol>
    <symbol id="next" viewBox="0 0 16 16">
      <path d="M15.375,7L10,2.54C9.695,2.287,9.461,2,9,2C8.375,2,8,2.516,8,3v3H1C0.45,6,0,6.45,0,7v2c0,0.55,0.45,1,1,1h7v3  c0,0.484,0.375,1,1,1c0.461,0,0.695-0.287,1-0.54L15.375,9C15.758,8.688,16,8.445,16,8S15.758,7.313,15.375,7z"/>
    </symbol>
    <symbol id="filters" viewBox="0 0 24 24">
        <path d="M18.42 2.3H4.62C3.18 2.3 2 3.48 2 4.92c0 .17.06.33.17.46l7.24 8.77v6.84c0 .05.02.1.03.16.01.04.01.08.03.12.02.04.05.07.07.1.03.04.06.09.1.13.01.01.01.01.01.02.04.03.08.05.12.07.03.02.06.04.1.06.09.03.18.05.27.05.1 0 .2-.02.29-.06.02-.01.03-.03.05-.04.07-.04.13-.08.19-.14.01-.01.01-.01.02-.01l2.77-3.17c.02-.03.03-.06.05-.09.03-.04.06-.09.08-.13.02-.05.02-.1.03-.15.01-.03.02-.07.02-.1v-3.64L18.8 7.9l2.08-2.51c.11-.13.17-.29.17-.46a2.64 2.64 0 0 0-2.63-2.63zm-7.56 12.32h1.32v2.9l-1.32 1.5v-4.4zm1.7-1.46h-2.09l-2.73-3.3 1.48-1.6 1.75 1.89c.28.3.79.3 1.07 0l1.75-1.89 1.48 1.6-2.71 3.3zm5.13-6.21L16.1 8.59l-1.76-1.9c-.28-.3-.79-.3-1.07 0l-1.75 1.89-1.75-1.89c-.28-.3-.79-.3-1.07 0l-1.76 1.9-1.66-1.72-1.8-2.18c.11-.53.58-.93 1.14-.93h13.8c.56 0 1.03.4 1.14.93l-1.87 2.26z"/>
    </symbol>        
</svg>
