<svg id="Layer_1" data-name="Layer 1" xmlns="http://www.w3.org/2000/svg" viewBox="0 0 39.33 39.35"><defs><style>.cls-1{fill:#fff;}.cls-2{fill:#78bd43;}.cls-3{fill:#ffcd03;}</style></defs><title>Betslip</title><path class="cls-1" d="M33.74,39.35H5.59A5.6,5.6,0,0,1,0,33.75V5.59A5.6,5.6,0,0,1,5.59,0H33.74a5.6,5.6,0,0,1,5.59,5.59V33.75A5.6,5.6,0,0,1,33.74,39.35ZM5.59,3.05A2.54,2.54,0,0,0,3.05,5.59h0V33.75a2.54,2.54,0,0,0,2.54,2.54H33.74a2.54,2.54,0,0,0,2.54-2.54h0V5.59a2.54,2.54,0,0,0-2.54-2.54H5.59Z"/><polygon class="cls-2" points="19.416 10.5 16.97 8.053 11.31 13.714 9.08 11.483 6.634 13.93 8.864 16.16 8.864 16.16 11.31 18.607 13.756 16.161 13.756 16.161 19.416 10.5"/><polygon class="cls-2" points="32.416 10.5 29.97 8.053 24.31 13.714 22.08 11.483 19.634 13.93 21.864 16.16 21.864 16.16 24.31 18.607 26.756 16.161 26.756 16.161 32.416 10.5"/><polygon class="cls-3" points="13.756 28.361 19.416 22.7 16.97 20.254 11.31 25.914 9.081 23.684 6.634 26.129 8.864 28.36 8.864 28.36 9.751 29.247 11.309 30.807 11.309 30.806 11.31 30.807 12.532 29.584 13.756 28.361 13.756 28.361"/></svg>