<svg id="Layer_1" data-name="Layer 1" xmlns="http://www.w3.org/2000/svg" viewBox="0 0 40 40.00002"><defs><style>.cls-1{fill:#78be20;}.cls-2{fill:#ffcd00;}.cls-3{fill:#ef3340;}.cls-4{fill:#fff;}</style></defs><title>MyAccount</title><rect class="cls-1" x="23" y="27.00002" width="17" height="3"/><rect class="cls-2" x="23" y="32.00002" width="17" height="3"/><rect class="cls-3" x="23" y="37.00002" width="17" height="3"/><path class="cls-4" d="M29.45,25a18,18,0,0,0-5.55-3.34A11.72,11.72,0,0,0,17.68,0h0a11.72,11.72,0,0,0-6.23,21.66A17.91,17.91,0,0,0,.06,35.2C0,36,0,40,0,40H2.88s0-4.12.17-4.8A14.92,14.92,0,0,1,24.22,25ZM17.66,20.53a8.8,8.8,0,1,1,8.78-8.82l0,.02A8.81,8.81,0,0,1,17.66,20.53Z"/></svg>