<svg id="Layer_1" data-name="Layer 1" xmlns="http://www.w3.org/2000/svg" viewBox="0 0 40 40"><defs><style>.cls-1{fill:#78bd43;}.cls-2{fill:#ffcd00;}.cls-3{fill:none;}.cls-4{fill:#fff;}</style></defs><title>MyBets</title><path class="cls-1" d="M20,8.22021a11.76978,11.76978,0,1,0,0,23.53955,1.5498,1.5498,0,1,0,0-3.09961A8.67017,8.67017,0,1,1,28.66992,20a1.54981,1.54981,0,0,0,3.09961-.00977A11.78265,11.78265,0,0,0,20,8.22021Z"/><polygon class="cls-1" points="18.257 20.384 15.985 18.122 13.501 20.615 16.987 24.087 18.26 25.359 18.262 25.357 18.265 25.359 19.566 24.053 26.499 17.12 24.01 14.631 18.257 20.384"/><path class="cls-2" d="M38.976,33.60022a3.70483,3.70483,0,0,0,.938-1.96155l.02148-.14746-.02148-.14844a3.71821,3.71821,0,0,0-.944-1.97589,3.70818,3.70818,0,0,0,.944-1.96844L39.9248,27.25c0-2.42578-3.3252-4.25488-7.73437-4.25488-4.41016,0-7.73535,1.8291-7.73535,4.25488l.01074.14941a3.69625,3.69625,0,0,0,.94122,1.96027,3.71863,3.71863,0,0,0-.94122,1.97333l-.02148.14844.02148.14844a3.70989,3.70989,0,0,0,.94281,1.96515,3.70343,3.70343,0,0,0-.94281,1.97919l-.02148.14746.02148.14746a3.72041,3.72041,0,0,0,2.23767,2.88293l.00745.00574c.01678.0083.03485.01373.0517.022.01111.00446.02112.0108.03229.01514l.006.0011a11.76106,11.76106,0,0,0,5.08972,1.1825c.08594,0,.1709-.001.25586-.00293a11.87078,11.87078,0,0,0,5.3584-1.16565c.02655-.00793.05383-.00482.08008-.015a3.71982,3.71982,0,0,0,2.3291-2.92676l.02148-.14648-.02148-.14746A3.70315,3.70315,0,0,0,38.976,33.60022Zm-2.14105,3.265-.0108.0069a.97106.97106,0,0,0-.11322.03021,9.62347,9.62347,0,0,1-4.56445,1.00293,9.62989,9.62989,0,0,1-4.51758-1.00293c-.01447-.00714-.03015-.00555-.0448-.012s-.02411-.01929-.03918-.02515a1.64685,1.64685,0,0,1-1.002-1.14746,1.64333,1.64333,0,0,1,.67365-.97681,11.63445,11.63445,0,0,0,4.92987,1.00415q.1333.00293.2666.00293a11.78278,11.78278,0,0,0,4.73438-1.01562,1.64145,1.64145,0,0,1,.68945.98535A1.6447,1.6447,0,0,1,36.835,36.86523Zm0-4.23047-.01013.00653a.97167.97167,0,0,0-.11487.03058,9.68177,9.68177,0,0,1-4.56348,1.00293,9.5477,9.5477,0,0,1-4.51758-1.00293c-.006-.003-.01263-.00214-.01874-.005-.009-.00433-.01538-.01166-.02454-.01575l-.00018-.00012c-.01514-.00671-.025-.0199-.04053-.026a1.64791,1.64791,0,0,1-1.002-1.14551,1.65611,1.65611,0,0,1,.67676-.97858,11.67516,11.67516,0,0,0,4.6582,1.0069c.08984,0,.17871-.001.26758-.00293a11.92142,11.92142,0,0,0,4.98706-1.00848,1.65186,1.65186,0,0,1,.70435.99286A1.64359,1.64359,0,0,1,36.835,32.63477Zm-.001-4.23828-.00909.0058a.94994.94994,0,0,0-.11493.03131,9.65039,9.65039,0,0,1-4.56445,1.001,9.57709,9.57709,0,0,1-4.51562-1.001.08634.08634,0,0,0-.0249-.00677c-.01471-.0069-.0282-.014-.04321-.02014a.06714.06714,0,0,0-.01587-.01019,1.65271,1.65271,0,0,1-1.0166-1.21094c.10254-.8877,2.28613-2.12012,5.66113-2.12012s5.55762,1.23242,5.66016,2.12012A1.64867,1.64867,0,0,1,36.834,28.39648Z"/><path class="cls-3" d="M0,34.31V40H5.69A5.69,5.69,0,0,1,0,34.31Z"/><path class="cls-3" d="M5.69,0H34.31A5.7,5.7,0,0,1,40,5.68V0H0V5.68A5.69,5.69,0,0,1,5.69,0Z"/><path class="cls-4" d="M5.69,36.9A2.59,2.59,0,0,1,3.1,34.31h0V5.68A2.59,2.59,0,0,1,5.69,3.09H34.31A2.59,2.59,0,0,1,36.9,5.68h0V21.16H40V5.68A5.7,5.7,0,0,0,34.31,0H5.69A5.69,5.69,0,0,0,0,5.68V34.31A5.69,5.69,0,0,0,5.69,40H21.33V36.9Z"/></svg>