<svg id="Layer_1" data-name="Layer 1" xmlns="http://www.w3.org/2000/svg" viewBox="0 0 38.29004 39.59473"><defs><style>.cls-1{fill:#78bd43;}.cls-2{fill:#ffcd00;}.cls-3{fill:#fff;}</style></defs><title>Quick_Deposit</title><path class="cls-1" d="M17.89512,5.6a1.48047,1.48047,0,0,1-.4,2.1,1.47694,1.47694,0,0,1-2-.2c-.6-.5-2.4-2.3-2.4-2.3v6.7h0a1.5,1.5,0,0,1-3,0V5.1l-2.1,2.2a1.205,1.205,0,0,1-.5.5h0a1.44531,1.44531,0,0,1-.7.2,1.538,1.538,0,0,1-1.5-1.5,1.42549,1.42549,0,0,1,.6-1.2,44.51631,44.51631,0,0,1,4.8-4.9,1.28387,1.28387,0,0,1,1-.4,1.60584,1.60584,0,0,1,1.1.5c1,.9,3.8,3.8,4.8,4.8l.3.3h0"/><path class="cls-2" d="M24.49512,27.7a3.18775,3.18775,0,0,1,1-2.6,3.84837,3.84837,0,0,1,2.7-.9,8.75238,8.75238,0,0,1,1.6.2,3.128,3.128,0,0,1,1,.5l.3.3a.60123.60123,0,0,1,.1.4.90152.90152,0,0,1-.1.5c-.1.1-.1.3-.2.4l-.3.3-.3.2a2.48525,2.48525,0,0,0-2-.7,2.00984,2.00984,0,0,0-1.3.4,1.50387,1.50387,0,0,0-.4,1.1V28h2.4a2.91983,2.91983,0,0,1,.9.2,1.08024,1.08024,0,0,1,.3.7,1.70181,1.70181,0,0,1-.1.7.75812.75812,0,0,1-.2.4h-3.3v1.7h4.5v2.1h-6.7V27.7Z"/><path class="cls-2" d="M27.99512,39.59473A10.29492,10.29492,0,1,1,38.29,29.2998,10.30643,10.30643,0,0,1,27.99512,39.59473Zm0-17.59961A7.30469,7.30469,0,1,0,35.2998,29.2998,7.31232,7.31232,0,0,0,27.99512,21.99512Z"/><path class="cls-3" d="M23.39063,13.8999c0-1.76855-1.28125-3.46484-3.42725-4.53711a1.49515,1.49515,0,0,0-1.33691,2.6748c1.21875.60889,1.77393,1.39209,1.77393,1.8623,0,.52917-.69586,1.24994-1.817,1.88416a13.90019,13.90019,0,0,1-6.83051,1.52209l-.05762-.00244-.05762.00244a14.19642,14.19642,0,0,1-6.50385-1.37207,1.47867,1.47867,0,0,0-.37018-.27148C3.54492,15.05371,2.99023,14.27,2.99023,13.7998c0-.53223.7041-1.25928,1.83789-1.89648A1.49517,1.49517,0,1,0,3.3623,9.29688C.5835,10.85986,0,12.6084,0,13.7998A4.54209,4.54209,0,0,0,1.59045,17.0683,4.38641,4.38641,0,0,0,0,20.2998a4.51572,4.51572,0,0,0,1.53888,3.22192A4.36662,4.36662,0,0,0,0,26.7002C0,28.33386,1.104,29.9,2.96362,30.97626a1.48847,1.48847,0,0,0,.46313.36066,17.29561,17.29561,0,0,0,7.67969,1.86914c.19678,0,.39307-.00293.58887-.01074a18.93263,18.93263,0,0,0,3.46631-.32422,1.49467,1.49467,0,1,0-.5332-2.94141,16.13257,16.13257,0,0,1-2.99023.27637A14.02968,14.02968,0,0,1,5.134,28.83478a1.479,1.479,0,0,0-.36987-.2713c-1.21875-.61035-1.77393-1.39355-1.77393-1.86328,0-.42487.454-.97321,1.21185-1.5022a17.15031,17.15031,0,0,0,6.90436,1.50806c.19678,0,.39307-.00293.58887-.01074a16.42387,16.42387,0,0,0,4.062-.44531,1.49477,1.49477,0,1,0-.72461-2.90039,13.587,13.587,0,0,1-3.39453.35645A14.14433,14.14433,0,0,1,4.77,22.166l-.01044-.00525c-1.2157-.60913-1.76929-1.39081-1.76929-1.861,0-.42517.45465-.9743,1.21344-1.503a17.21872,17.21872,0,0,0,7.49164,1.49908c.186.00684.37256.00977.55908.00977a17.00719,17.00719,0,0,0,6.94086-1.49847,3.22219,3.22219,0,0,1,.44342.35052,1.48655,1.48655,0,0,0,2.16791-2.033A4.38416,4.38416,0,0,0,23.39063,13.8999Z"/></svg>