<svg id="Layer_1" data-name="Layer 1" xmlns="http://www.w3.org/2000/svg" viewBox="0 0 20.02002 20.02002"><defs><style>.cls-1{fill:#41494e}</style></defs><title>90Ball</title><path class="cls-1" d="M6.1 9.37a1.298 1.298 0 0 0 .44-.94l.02-.01a1.531 1.531 0 0 1 .2 1.07 1.976 1.976 0 0 1-.47.89 2.846 2.846 0 0 1-.35.35l.64.64a4.266 4.266 0 0 0 .37-.37 2.895 2.895 0 0 0 .83-1.8 2.908 2.908 0 0 0-.98-2.19 1.865 1.865 0 0 0-2.79-.18 1.765 1.765 0 0 0-.06 2.54 1.466 1.466 0 0 0 2.15 0zM4.57 7.44c.37-.37.87-.14 1.23.22a.518.518 0 0 1 .16.25.723.723 0 0 1-1.26.6.739.739 0 0 1-.13-1.07zM10.51 7.45c.88-.88.57-2.04-.49-3.1-.95-.95-2.13-1.41-3.04-.49-.89.89-.53 2.1.47 3.1.98.97 2.17 1.38 3.06.49zM7.57 4.48c.32-.32.89-.08 1.65.68.78.79 1 1.35.69 1.66s-.88.12-1.66-.67c-.8-.79-.98-1.37-.68-1.67z"/><path class="cls-1" d="M10.01 0a10.01 10.01 0 1 0 10.01 10.01A10.02 10.02 0 0 0 10.01 0zM7.96 1.82a4.57 4.57 0 0 1 3.26 1.29c1.92 1.92 1.67 5.31-.56 7.54s-5.62 2.48-7.54.56-1.67-5.31.56-7.54a6.129 6.129 0 0 1 4.28-1.85zm2.05 17.33A9.076 9.076 0 0 1 .997 8.62 5.307 5.307 0 0 0 2.5 11.83a5.392 5.392 0 0 0 3.87 1.55 6.956 6.956 0 0 0 4.9-2.11c2.57-2.57 2.82-6.51.56-8.77A5.291 5.291 0 0 0 8.598.99a9.135 9.135 0 1 1 1.412 18.16z"/><path class="cls-1" d="M17.17 9.56a.444.444 0 0 0-.44.44 6.722 6.722 0 0 1-6.72 6.72.44.44 0 1 0 0 .88 7.616 7.616 0 0 0 7.6-7.6.444.444 0 0 0-.44-.44z"/></svg>