<svg id="Layer_1" data-name="Layer 1" xmlns="http://www.w3.org/2000/svg" viewBox="0 0 65.03238 73.5083"><defs><style>.cls-1{fill:#41494f}</style></defs><title>In-Play</title><path class="cls-1" d="M32.516 73.508A32.523 32.523 0 0 1 9.81 17.706l.156-.152-6-6 1.917-1.917L12 15.755l.15-.12a32.246 32.246 0 0 1 18.798-7.121l.205-.01V2.71h-5.98V0h14.523v2.711h-5.832v5.791l.205.01a32.249 32.249 0 0 1 18.79 7.103l.15.12 6.124-6.124 1.917 1.918-6.005 6.004.155.152a32.523 32.523 0 0 1-22.684 55.823zm0-62.306a29.797 29.797 0 1 0 29.79 29.805 29.823 29.823 0 0 0-29.79-29.805z"/><path class="cls-1" d="M32.516 66.114A25.19 25.19 0 1 1 57.79 41.007a25.301 25.301 0 0 1-25.273 25.107zm0-47.669a22.561 22.561 0 1 0 22.562 22.562 22.587 22.587 0 0 0-22.562-22.562z"/><path class="cls-1" d="M31.153 42.356V21.549h2.727v18.094h13.209v2.713H31.153z"/></svg>