<svg id="Layer_1" data-name="Layer 1" xmlns="http://www.w3.org/2000/svg" viewBox="0 0 73.4502 70.8418"><defs><style>.cls-1{fill:#41494f}</style></defs><title>Promotions</title><path class="cls-1" d="M73.45 33.3a12.3 12.3 0 0 0-7.67-11.346V5.74A5.745 5.745 0 0 0 60.041 0h-.685c-1.245 0-2.283 1.026-5.694 4.588-5.696 5.95-16.3 17.022-26.934 17.022H7.245A7.253 7.253 0 0 0 0 28.855v8.891a7.253 7.253 0 0 0 7.245 7.245H8.43l4.943 20.867a6.797 6.797 0 0 0 6.3 4.984h6.962a4.745 4.745 0 0 0 3.986-2.67 4.549 4.549 0 0 0 .098-4.661l-4.639-7.3c-1.607-2.53-1.692-5.292-1.783-8.218a51.588 51.588 0 0 0-.159-3.002h2.589c10.632 0 21.238 11.073 26.935 17.023 3.411 3.561 4.45 4.588 5.694 4.588h.685a5.745 5.745 0 0 0 5.74-5.74V44.648a12.303 12.303 0 0 0 7.67-11.347zM3 37.747v-8.89a4.25 4.25 0 0 1 4.245-4.246h18.352v17.381H7.245A4.25 4.25 0 0 1 3 37.746zm18.299 10.34c.098 3.201.201 6.51 2.25 9.734l4.638 7.3a1.734 1.734 0 0 1-.195 1.608 1.942 1.942 0 0 1-1.357 1.114h-6.962a3.804 3.804 0 0 1-3.38-2.675l-4.78-20.176h9.619c.101 1.002.134 2.028.167 3.095zM60.04 63.602h-.456a38.962 38.962 0 0 1-3.756-3.664C50.137 53.996 39.8 43.21 28.597 42.092V24.51C39.8 23.393 50.137 12.606 55.829 6.663A38.84 38.84 0 0 1 59.585 3h.456a2.742 2.742 0 0 1 2.74 2.74v16.818l-.007.014a1.487 1.487 0 0 0 .006.849v19.76a1.49 1.49 0 0 0-.006.85l.006.012v16.82a2.742 2.742 0 0 1-2.739 2.739zm5.74-22.276v-16.05a9.23 9.23 0 0 1 0 16.05z"/></svg>