<svg id="Layer_1" data-name="Layer 1" xmlns="http://www.w3.org/2000/svg" viewBox="0 0 19.97 14.86"><defs><style>.cls-1{fill:#41494e}</style></defs><title>Sports</title><path class="cls-1" d="M.28 14.86a.286.286 0 0 1-.28-.28V3.72a.286.286 0 0 1 .28-.28h6.19V.28A.286.286 0 0 1 6.75 0h6.47a.286.286 0 0 1 .28.28v5.96h6.19a.286.286 0 0 1 .28.28v8.05a.286.286 0 0 1-.28.28H.28zm13.21-.56h5.91V6.81h-5.91zm-6.47 0h5.91V.56H7.02zm-6.46 0h5.91V4H.56z"/><path class="cls-1" d="M8.33 7.36a.286.286 0 0 1-.28-.28v-.51a.28.28 0 0 1 .56 0v.51a.286.286 0 0 1-.28.28zM8.33 5.23a.286.286 0 0 1-.28-.28V1.91a.28.28 0 1 1 .56 0v3.04a.28.28 0 0 1-.28.28zM10.27 12.78a.286.286 0 0 1-.28-.28V9.96l-.7.7a.28.28 0 0 1-.2.08.297.297 0 0 1-.2-.08.28.28 0 0 1-.08-.2.318.318 0 0 1 .08-.2l1.18-1.18a.28.28 0 0 1 .2-.08.425.425 0 0 1 .11.02.276.276 0 0 1 .17.26v3.21a.282.282 0 0 1-.28.29zM2.76 12.78a.287.287 0 0 1-.26-.17.28.28 0 0 1 .06-.3l1.47-1.47a.583.583 0 0 0 .13-.64.567.567 0 0 0-.5-.37h-.03a.77.77 0 0 0-.77.77.28.28 0 0 1-.56 0 1.33 1.33 0 0 1 1.33-1.33h.06a1.117 1.117 0 0 1 1 .72 1.141 1.141 0 0 1-.26 1.24l-.99.99h1.13a.28.28 0 0 1 0 .56zM16.47 12.78a1.093 1.093 0 0 1-1.09-1.09.28.28 0 0 1 .56 0 .53.53 0 1 0 1.06 0 .519.519 0 0 0-.53-.52.28.28 0 1 1 0-.56.519.519 0 0 0 .53-.52.53.53 0 0 0-1.06 0 .28.28 0 0 1-.56 0 1.09 1.09 0 0 1 2.18 0 1.042 1.042 0 0 1-.28.71l-.07.08.07.08a1.06 1.06 0 0 1 .28.71 1.097 1.097 0 0 1-1.09 1.11z"/></svg>